<?xml version="1.0" encoding="UTF-8" standalone="no"?>
<!DOCTYPE svg PUBLIC "-//W3C//DTD SVG 1.1//EN"
 "http://www.w3.org/Graphics/SVG/1.1/DTD/svg11.dtd">
<!-- Generated by graphviz version 7.0.5 (20221223.1930)
 -->
<!-- Title: SidesetInfoVectorPostprocessor Pages: 1 -->
<!--zoomable 749 -->
<svg id="main" version="1.1" xmlns="http://www.w3.org/2000/svg" xmlns:xlink="http://www.w3.org/1999/xlink" xml:space="preserve" onload="init(evt)">
<style type="text/css"><![CDATA[
.edge:hover path { stroke: red; }
.edge:hover polygon { stroke: red; fill: red; }
]]></style>
<script type="text/javascript"><![CDATA[
var edges = document.getElementsByTagName('g');
if (edges && edges.length) {
  for (var i=0;i<edges.length;i++) {
    if (edges[i].id.substr(0,4)=='edge') {
      edges[i].setAttribute('class','edge');
    }
  }
}
]]></script>
        <defs>
                <circle id="rim" cx="0" cy="0" r="7"/>
                <circle id="rim2" cx="0" cy="0" r="3.5"/>
                <g id="zoomPlus">
                        <use xlink:href="#rim" fill="#404040">
                                <set attributeName="fill" to="#808080" begin="zoomplus.mouseover" end="zoomplus.mouseout"/>
                        </use>
                        <path d="M-4,0h8M0,-4v8" fill="none" stroke="white" stroke-width="1.5" pointer-events="none"/>
                </g>
                <g id="zoomMin">
                        <use xlink:href="#rim" fill="#404040">
                                <set attributeName="fill" to="#808080" begin="zoomminus.mouseover" end="zoomminus.mouseout"/>
                        </use>
                        <path d="M-4,0h8" fill="none" stroke="white" stroke-width="1.5" pointer-events="none"/>
                </g>
                <g id="dirArrow">
                        <path fill="none" stroke="white" stroke-width="1.5" d="M0,-3.0v7 M-2.5,-0.5L0,-3.0L2.5,-0.5"/>
                </g>
               <g id="resetDef">
                       <use xlink:href="#rim2" fill="#404040">
                               <set attributeName="fill" to="#808080" begin="reset.mouseover" end="reset.mouseout"/>
                       </use>
               </g>
        </defs>

<script type="text/javascript">
var viewWidth = 1429;
var viewHeight = 749;
var sectionId = 'dynsection-0';
</script>
<script xlink:href="svgpan.js"/>
<svg id="graph" class="graph">
<g id="viewport">
<title>SidesetInfoVectorPostprocessor</title>
<!-- Node1 -->
<g id="node1" class="node">
<title>Node1</title>
<g id="a_node1"><a xlink:title=" ">
<polygon fill="#999999" stroke="#666666" points="1421,-92 1224,-92 1224,-73 1421,-73 1421,-92"/>
<text text-anchor="middle" x="1322.5" y="-80" font-family="Courier,monospace" font-size="10.00">SidesetInfoVectorPostprocessor</text>
</a>
</g>
</g>
<!-- Node2 -->
<g id="node2" class="node">
<title>Node2</title>
<g id="a_node2"><a xlink:href="classSideVectorPostprocessor.html" target="_top" xlink:title=" ">
<polygon fill="white" stroke="#666666" points="1188,-92 1033,-92 1033,-73 1188,-73 1188,-92"/>
<text text-anchor="middle" x="1110.5" y="-80" font-family="Courier,monospace" font-size="10.00">SideVectorPostprocessor</text>
</a>
</g>
</g>
<!-- Node2&#45;&gt;Node1 -->
<g id="edge1" class="edge">
<title>Node2&#45;&gt;Node1</title>
<path fill="none" stroke="#63b8ff" d="M1199.65,-82.5C1207.53,-82.5 1215.55,-82.5 1223.51,-82.5"/>
<polygon fill="#63b8ff" stroke="#63b8ff" points="1199.72,-79 1189.72,-82.5 1199.72,-86 1199.72,-79"/>
</g>
<!-- Node3 -->
<g id="node3" class="node">
<title>Node3</title>
<g id="a_node3"><a xlink:href="classSideUserObject.html" target="_top" xlink:title="Base class for user objects executed one or more sidesets, which may be on the outer boundary of the ...">
<polygon fill="white" stroke="#666666" points="982,-148 881,-148 881,-129 982,-129 982,-148"/>
<text text-anchor="middle" x="931.5" y="-136" font-family="Courier,monospace" font-size="10.00">SideUserObject</text>
</a>
</g>
</g>
<!-- Node3&#45;&gt;Node2 -->
<g id="edge2" class="edge">
<title>Node3&#45;&gt;Node2</title>
<path fill="none" stroke="#63b8ff" d="M974.46,-125.22C1006.21,-115.18 1049.12,-101.6 1077.98,-92.47"/>
<polygon fill="#63b8ff" stroke="#63b8ff" points="973.66,-121.81 965.18,-128.16 975.77,-128.48 973.66,-121.81"/>
</g>
<!-- Node4 -->
<g id="node4" class="node">
<title>Node4</title>
<g id="a_node4"><a xlink:href="classUserObject.html" target="_top" xlink:title="Base class for user&#45;specific data.">
<polygon fill="white" stroke="#666666" points="764,-389 687,-389 687,-370 764,-370 764,-389"/>
<text text-anchor="middle" x="725.5" y="-377" font-family="Courier,monospace" font-size="10.00">UserObject</text>
</a>
</g>
</g>
<!-- Node4&#45;&gt;Node3 -->
<g id="edge3" class="edge">
<title>Node4&#45;&gt;Node3</title>
<path fill="none" stroke="#63b8ff" d="M742.16,-361C782.91,-312.85 891.22,-184.9 922.15,-148.37"/>
<polygon fill="#63b8ff" stroke="#63b8ff" points="739.52,-358.7 735.73,-368.6 744.86,-363.23 739.52,-358.7"/>
</g>
<!-- Node5 -->
<g id="node5" class="node">
<title>Node5</title>
<g id="a_node5"><a xlink:href="classMooseObject.html" target="_top" xlink:title="Every object that can be built by the factory should be derived from this class.">
<polygon fill="white" stroke="#666666" points="534,-667 451,-667 451,-648 534,-648 534,-667"/>
<text text-anchor="middle" x="492.5" y="-655" font-family="Courier,monospace" font-size="10.00">MooseObject</text>
</a>
</g>
</g>
<!-- Node5&#45;&gt;Node4 -->
<g id="edge4" class="edge">
<title>Node5&#45;&gt;Node4</title>
<path fill="none" stroke="#63b8ff" d="M545.39,-655.32C559.28,-652.69 573.59,-647.93 585,-639.5 675.85,-572.38 713.69,-427.99 722.44,-389.24"/>
<polygon fill="#63b8ff" stroke="#63b8ff" points="545.25,-651.8 535.9,-656.77 546.31,-658.72 545.25,-651.8"/>
</g>
<!-- Node6 -->
<g id="node6" class="node">
<title>Node6</title>
<g id="a_node6"><a xlink:href="classMooseBase.html" target="_top" xlink:title="Base class for everything in MOOSE with a name and a type.">
<polygon fill="white" stroke="#666666" points="310,-741 239,-741 239,-722 310,-722 310,-741"/>
<text text-anchor="middle" x="274.5" y="-729" font-family="Courier,monospace" font-size="10.00">MooseBase</text>
</a>
</g>
</g>
<!-- Node6&#45;&gt;Node5 -->
<g id="edge5" class="edge">
<title>Node6&#45;&gt;Node5</title>
<path fill="none" stroke="#63b8ff" d="M321.62,-724.05C335.41,-721.31 350.46,-717.8 364,-713.5 403.87,-700.85 448.08,-679.72 472.56,-667.35"/>
<polygon fill="#63b8ff" stroke="#63b8ff" points="321.06,-720.59 311.89,-725.89 322.36,-727.47 321.06,-720.59"/>
</g>
<!-- Node7 -->
<g id="node7" class="node">
<title>Node7</title>
<g id="a_node7"><a xlink:href="classMooseBaseParameterInterface.html" target="_top" xlink:title="Every object that can be built by the factory should be derived from this class.">
<polygon fill="white" stroke="#666666" points="364,-704 185,-704 185,-685 364,-685 364,-704"/>
<text text-anchor="middle" x="274.5" y="-692" font-family="Courier,monospace" font-size="10.00">MooseBaseParameterInterface</text>
</a>
</g>
</g>
<!-- Node7&#45;&gt;Node5 -->
<g id="edge6" class="edge">
<title>Node7&#45;&gt;Node5</title>
<path fill="none" stroke="#63b8ff" d="M344.77,-682.63C379.7,-676.65 420.85,-669.6 450.68,-664.49"/>
<polygon fill="#63b8ff" stroke="#63b8ff" points="344.43,-679.14 335.16,-684.28 345.61,-686.04 344.43,-679.14"/>
</g>
<!-- Node8 -->
<g id="node8" class="node">
<title>Node8</title>
<g id="a_node8"><a xlink:href="classMooseBaseErrorInterface.html" target="_top" xlink:title="Interface that provides APIs to output errors/warnings/info messages.">
<polygon fill="white" stroke="#666666" points="352,-667 197,-667 197,-648 352,-648 352,-667"/>
<text text-anchor="middle" x="274.5" y="-655" font-family="Courier,monospace" font-size="10.00">MooseBaseErrorInterface</text>
</a>
</g>
</g>
<!-- Node8&#45;&gt;Node5 -->
<g id="edge7" class="edge">
<title>Node8&#45;&gt;Node5</title>
<path fill="none" stroke="#63b8ff" d="M363.7,-657.5C393.87,-657.5 426.17,-657.5 450.75,-657.5"/>
<polygon fill="#63b8ff" stroke="#63b8ff" points="363.78,-654 353.78,-657.5 363.78,-661 363.78,-654"/>
</g>
<!-- Node9 -->
<g id="node9" class="node">
<title>Node9</title>
<g id="a_node9"><a xlink:href="classConsoleStreamInterface.html" target="_top" xlink:title="An inteface for the _console for outputting to the Console object.">
<polygon fill="white" stroke="#666666" points="149,-667 0,-667 0,-648 149,-648 149,-667"/>
<text text-anchor="middle" x="74.5" y="-655" font-family="Courier,monospace" font-size="10.00">ConsoleStreamInterface</text>
</a>
</g>
</g>
<!-- Node9&#45;&gt;Node8 -->
<g id="edge8" class="edge">
<title>Node9&#45;&gt;Node8</title>
<path fill="none" stroke="#63b8ff" d="M160.62,-657.5C172.62,-657.5 184.9,-657.5 196.73,-657.5"/>
<polygon fill="#63b8ff" stroke="#63b8ff" points="160.74,-654 150.74,-657.5 160.74,-661 160.74,-654"/>
</g>
<!-- Node10 -->
<g id="node10" class="node">
<title>Node10</title>
<g id="a_node10"><a xlink:title=" ">
<polygon fill="white" stroke="#666666" points="352,-630 197,-630 197,-611 352,-611 352,-630"/>
<text text-anchor="middle" x="274.5" y="-618" font-family="Courier,monospace" font-size="10.00">libMesh::ParallelObject</text>
</a>
</g>
</g>
<!-- Node10&#45;&gt;Node5 -->
<g id="edge9" class="edge">
<title>Node10&#45;&gt;Node5</title>
<path fill="none" stroke="#63b8ff" d="M344.77,-632.37C379.7,-638.35 420.85,-645.4 450.68,-650.51"/>
<polygon fill="#63b8ff" stroke="#63b8ff" points="345.61,-628.96 335.16,-630.72 344.43,-635.86 345.61,-628.96"/>
</g>
<!-- Node11 -->
<g id="node11" class="node">
<title>Node11</title>
<g id="a_node11"><a xlink:href="classDataFileInterface.html" target="_top" xlink:title=" ">
<polygon fill="white" stroke="#666666" points="337,-592.5 212,-592.5 212,-562.5 337,-562.5 337,-592.5"/>
<text text-anchor="start" x="220" y="-580.5" font-family="Courier,monospace" font-size="10.00">DataFileInterface&lt;</text>
<text text-anchor="middle" x="274.5" y="-569.5" font-family="Courier,monospace" font-size="10.00"> MooseObject &gt;</text>
</a>
</g>
</g>
<!-- Node11&#45;&gt;Node5 -->
<g id="edge10" class="edge">
<title>Node11&#45;&gt;Node5</title>
<path fill="none" stroke="#63b8ff" d="M347.62,-594.35C353.32,-596.73 358.86,-599.44 364,-602.5 383.71,-614.24 379.83,-628.57 400,-639.5 415.37,-647.83 434.06,-652.34 450.53,-654.76"/>
<polygon fill="#63b8ff" stroke="#63b8ff" points="349.23,-591.22 338.64,-590.94 346.74,-597.76 349.23,-591.22"/>
</g>
<!-- Node12 -->
<g id="node12" class="node">
<title>Node12</title>
<g id="a_node12"><a xlink:href="classSetupInterface.html" target="_top" xlink:title=" ">
<polygon fill="white" stroke="#666666" points="543,-630 442,-630 442,-611 543,-611 543,-630"/>
<text text-anchor="middle" x="492.5" y="-618" font-family="Courier,monospace" font-size="10.00">SetupInterface</text>
</a>
</g>
</g>
<!-- Node12&#45;&gt;Node4 -->
<g id="edge11" class="edge">
<title>Node12&#45;&gt;Node4</title>
<path fill="none" stroke="#63b8ff" d="M554.61,-615.68C565.37,-612.88 575.99,-608.7 585,-602.5 666.99,-546.04 710.5,-424.03 721.61,-389.05"/>
<polygon fill="#63b8ff" stroke="#63b8ff" points="553.92,-612.25 544.89,-617.8 555.41,-619.09 553.92,-612.25"/>
</g>
<!-- Node13 -->
<g id="node13" class="node">
<title>Node13</title>
<g id="a_node13"><a xlink:href="classFunctionInterface.html" target="_top" xlink:title="Interface for objects that need to use functions.">
<polygon fill="white" stroke="#666666" points="552,-593 433,-593 433,-574 552,-574 552,-593"/>
<text text-anchor="middle" x="492.5" y="-581" font-family="Courier,monospace" font-size="10.00">FunctionInterface</text>
</a>
</g>
</g>
<!-- Node13&#45;&gt;Node4 -->
<g id="edge12" class="edge">
<title>Node13&#45;&gt;Node4</title>
<path fill="none" stroke="darkgreen" d="M563.08,-575.49C570.8,-572.97 578.29,-569.71 585,-565.5 658.15,-519.56 706.48,-420.45 720.37,-389.17"/>
<polygon fill="darkgreen" stroke="darkgreen" points="562.2,-572.1 553.52,-578.17 564.09,-578.84 562.2,-572.1"/>
</g>
<!-- Node14 -->
<g id="node14" class="node">
<title>Node14</title>
<g id="a_node14"><a xlink:href="classUserObjectInterface.html" target="_top" xlink:title="Interface for objects that need to use UserObjects.">
<polygon fill="white" stroke="#666666" points="558,-556 427,-556 427,-537 558,-537 558,-556"/>
<text text-anchor="middle" x="492.5" y="-544" font-family="Courier,monospace" font-size="10.00">UserObjectInterface</text>
</a>
</g>
</g>
<!-- Node14&#45;&gt;Node4 -->
<g id="edge13" class="edge">
<title>Node14&#45;&gt;Node4</title>
<path fill="none" stroke="#63b8ff" d="M569.1,-535.62C574.63,-533.63 580,-531.27 585,-528.5 649.46,-492.76 701.26,-416.73 718.42,-389.48"/>
<polygon fill="#63b8ff" stroke="#63b8ff" points="568.23,-532.22 559.74,-538.57 570.33,-538.9 568.23,-532.22"/>
</g>
<!-- Node15 -->
<g id="node15" class="node">
<title>Node15</title>
<g id="a_node15"><a xlink:href="classPostprocessorInterface.html" target="_top" xlink:title="Interface class for classes which interact with Postprocessors.">
<polygon fill="white" stroke="#666666" points="567,-519 418,-519 418,-500 567,-500 567,-519"/>
<text text-anchor="middle" x="492.5" y="-507" font-family="Courier,monospace" font-size="10.00">PostprocessorInterface</text>
</a>
</g>
</g>
<!-- Node15&#45;&gt;Node4 -->
<g id="edge14" class="edge">
<title>Node15&#45;&gt;Node4</title>
<path fill="none" stroke="darkgreen" d="M573.95,-496.02C577.74,-494.66 581.44,-493.15 585,-491.5 641.32,-465.3 694.79,-411.68 715.48,-389.47"/>
<polygon fill="darkgreen" stroke="darkgreen" points="572.97,-492.66 564.53,-499.05 575.12,-499.32 572.97,-492.66"/>
</g>
<!-- Node16 -->
<g id="node16" class="node">
<title>Node16</title>
<g id="a_node16"><a xlink:href="classVectorPostprocessorInterface.html" target="_top" xlink:title=" ">
<polygon fill="white" stroke="#666666" points="585,-482 400,-482 400,-463 585,-463 585,-482"/>
<text text-anchor="middle" x="492.5" y="-470" font-family="Courier,monospace" font-size="10.00">VectorPostprocessorInterface</text>
</a>
</g>
</g>
<!-- Node16&#45;&gt;Node4 -->
<g id="edge15" class="edge">
<title>Node16&#45;&gt;Node4</title>
<path fill="none" stroke="darkgreen" d="M568.24,-459.73C573.97,-458.17 579.61,-456.43 585,-454.5 633.15,-437.26 684.97,-405.48 709.71,-389.39"/>
<polygon fill="darkgreen" stroke="darkgreen" points="567.48,-456.32 558.64,-462.16 569.19,-463.1 567.48,-456.32"/>
</g>
<!-- Node17 -->
<g id="node17" class="node">
<title>Node17</title>
<g id="a_node17"><a xlink:href="classReporterInterface.html" target="_top" xlink:title="Interface to allow object to consume Reporter values.">
<polygon fill="white" stroke="#666666" points="552,-445 433,-445 433,-426 552,-426 552,-445"/>
<text text-anchor="middle" x="492.5" y="-433" font-family="Courier,monospace" font-size="10.00">ReporterInterface</text>
</a>
</g>
</g>
<!-- Node17&#45;&gt;Node4 -->
<g id="edge16" class="edge">
<title>Node17&#45;&gt;Node4</title>
<path fill="none" stroke="darkgreen" d="M558.53,-423.3C567.45,-421.46 576.47,-419.5 585,-417.5 621.29,-409 662.42,-397.57 690.56,-389.48"/>
<polygon fill="darkgreen" stroke="darkgreen" points="557.93,-419.85 548.83,-425.27 559.32,-426.71 557.93,-419.85"/>
</g>
<!-- Node18 -->
<g id="node18" class="node">
<title>Node18</title>
<g id="a_node18"><a xlink:href="classDistributionInterface.html" target="_top" xlink:title="Interface for objects that need to use distributions.">
<polygon fill="white" stroke="#666666" points="564,-408 421,-408 421,-389 564,-389 564,-408"/>
<text text-anchor="middle" x="492.5" y="-396" font-family="Courier,monospace" font-size="10.00">DistributionInterface</text>
</a>
</g>
</g>
<!-- Node18&#45;&gt;Node4 -->
<g id="edge17" class="edge">
<title>Node18&#45;&gt;Node4</title>
<path fill="none" stroke="darkgreen" d="M575.43,-391.76C613.35,-388.64 656.56,-385.09 686.65,-382.61"/>
<polygon fill="darkgreen" stroke="darkgreen" points="575.57,-388.24 565.89,-392.55 576.14,-395.21 575.57,-388.24"/>
</g>
<!-- Node19 -->
<g id="node19" class="node">
<title>Node19</title>
<g id="a_node19"><a xlink:href="classSamplerInterface.html" target="_top" xlink:title="Interface for objects that need to use samplers.">
<polygon fill="white" stroke="#666666" points="549,-371 436,-371 436,-352 549,-352 549,-371"/>
<text text-anchor="middle" x="492.5" y="-359" font-family="Courier,monospace" font-size="10.00">SamplerInterface</text>
</a>
</g>
</g>
<!-- Node19&#45;&gt;Node4 -->
<g id="edge18" class="edge">
<title>Node19&#45;&gt;Node4</title>
<path fill="none" stroke="darkgreen" d="M560.71,-366.74C601.74,-369.93 652.7,-373.91 686.78,-376.56"/>
<polygon fill="darkgreen" stroke="darkgreen" points="561.17,-363.26 550.93,-365.97 560.63,-370.24 561.17,-363.26"/>
</g>
<!-- Node20 -->
<g id="node20" class="node">
<title>Node20</title>
<g id="a_node20"><a xlink:href="classRestartable.html" target="_top" xlink:title="A class for creating restricted objects.">
<polygon fill="white" stroke="#666666" points="534,-334 451,-334 451,-315 534,-315 534,-334"/>
<text text-anchor="middle" x="492.5" y="-322" font-family="Courier,monospace" font-size="10.00">Restartable</text>
</a>
</g>
</g>
<!-- Node20&#45;&gt;Node4 -->
<g id="edge19" class="edge">
<title>Node20&#45;&gt;Node4</title>
<path fill="none" stroke="darkgreen" d="M545.27,-334.8C558.27,-337.51 572.17,-340.51 585,-343.5 620.08,-351.66 659.83,-362.03 687.9,-369.55"/>
<polygon fill="darkgreen" stroke="darkgreen" points="546.11,-331.4 535.61,-332.81 544.7,-338.26 546.11,-331.4"/>
</g>
<!-- Node21 -->
<g id="node21" class="node">
<title>Node21</title>
<g id="a_node21"><a xlink:href="classMeshMetaDataInterface.html" target="_top" xlink:title="The Interface used to retrieve mesh meta data (attributes) set by the MeshGenerator system.">
<polygon fill="white" stroke="#666666" points="564,-297 421,-297 421,-278 564,-278 564,-297"/>
<text text-anchor="middle" x="492.5" y="-285" font-family="Courier,monospace" font-size="10.00">MeshMetaDataInterface</text>
</a>
</g>
</g>
<!-- Node21&#45;&gt;Node4 -->
<g id="edge20" class="edge">
<title>Node21&#45;&gt;Node4</title>
<path fill="none" stroke="darkgreen" d="M564.33,-300.15C571.39,-302.02 578.38,-304.13 585,-306.5 632.62,-323.53 684.26,-354.07 709.25,-369.7"/>
<polygon fill="darkgreen" stroke="darkgreen" points="565.25,-296.77 554.7,-297.77 563.56,-303.57 565.25,-296.77"/>
</g>
<!-- Node22 -->
<g id="node22" class="node">
<title>Node22</title>
<g id="a_node22"><a xlink:href="classMeshChangedInterface.html" target="_top" xlink:title="Interface for notifications that the mesh has changed.">
<polygon fill="white" stroke="#666666" points="561,-260 424,-260 424,-241 561,-241 561,-260"/>
<text text-anchor="middle" x="492.5" y="-248" font-family="Courier,monospace" font-size="10.00">MeshChangedInterface</text>
</a>
</g>
</g>
<!-- Node22&#45;&gt;Node4 -->
<g id="edge21" class="edge">
<title>Node22&#45;&gt;Node4</title>
<path fill="none" stroke="darkgreen" d="M570.63,-263.77C575.58,-265.46 580.41,-267.36 585,-269.5 640.91,-295.56 694.6,-348.04 715.42,-369.75"/>
<polygon fill="darkgreen" stroke="darkgreen" points="571.71,-260.44 561.12,-260.85 569.65,-267.13 571.71,-260.44"/>
</g>
<!-- Node23 -->
<g id="node23" class="node">
<title>Node23</title>
<g id="a_node23"><a xlink:href="classScalarCoupleable.html" target="_top" xlink:title="Interface for objects that needs scalar coupling capabilities.">
<polygon fill="white" stroke="#666666" points="549,-223 436,-223 436,-204 549,-204 549,-223"/>
<text text-anchor="middle" x="492.5" y="-211" font-family="Courier,monospace" font-size="10.00">ScalarCoupleable</text>
</a>
</g>
</g>
<!-- Node23&#45;&gt;Node4 -->
<g id="edge22" class="edge">
<title>Node23&#45;&gt;Node4</title>
<path fill="none" stroke="darkgreen" d="M560.14,-222.34C568.81,-224.91 577.33,-228.23 585,-232.5 648.93,-268.11 701.07,-342.9 718.37,-369.69"/>
<polygon fill="darkgreen" stroke="darkgreen" points="561.16,-218.99 550.6,-219.84 559.39,-225.76 561.16,-218.99"/>
</g>
<!-- Node24 -->
<g id="node24" class="node">
<title>Node24</title>
<g id="a_node24"><a xlink:href="classPerfGraphInterface.html" target="_top" xlink:title="Interface for objects interacting with the PerfGraph.">
<polygon fill="white" stroke="#666666" points="555,-186 430,-186 430,-167 555,-167 555,-186"/>
<text text-anchor="middle" x="492.5" y="-174" font-family="Courier,monospace" font-size="10.00">PerfGraphInterface</text>
</a>
</g>
</g>
<!-- Node24&#45;&gt;Node4 -->
<g id="edge23" class="edge">
<title>Node24&#45;&gt;Node4</title>
<path fill="none" stroke="darkgreen" d="M566,-185.86C572.73,-188.38 579.19,-191.54 585,-195.5 609.15,-211.95 603.84,-226.86 621,-250.5 654.4,-296.51 698.05,-348.52 716.11,-369.72"/>
<polygon fill="darkgreen" stroke="darkgreen" points="567.3,-182.6 556.71,-182.86 565.15,-189.26 567.3,-182.6"/>
</g>
<!-- Node25 -->
<g id="node25" class="node">
<title>Node25</title>
<g id="a_node25"><a xlink:href="classDependencyResolverInterface.html" target="_top" xlink:title="Interface for sorting dependent vectors of objects.">
<polygon fill="white" stroke="#666666" points="582,-149 403,-149 403,-130 582,-130 582,-149"/>
<text text-anchor="middle" x="492.5" y="-137" font-family="Courier,monospace" font-size="10.00">DependencyResolverInterface</text>
</a>
</g>
</g>
<!-- Node25&#45;&gt;Node4 -->
<g id="edge24" class="edge">
<title>Node25&#45;&gt;Node4</title>
<path fill="none" stroke="#63b8ff" d="M580.35,-154.95C581.96,-156.06 583.51,-157.24 585,-158.5 618.55,-186.83 599.01,-212.5 621,-250.5 649.19,-299.21 694.88,-348.95 714.75,-369.59"/>
<polygon fill="#63b8ff" stroke="#63b8ff" points="582.36,-152.07 571.95,-150.1 578.86,-158.13 582.36,-152.07"/>
</g>
<!-- Node26 -->
<g id="node26" class="node">
<title>Node26</title>
<g id="a_node26"><a xlink:href="classBoundaryRestrictableRequired.html" target="_top" xlink:title="A class for requiring an object to be boundary restricted.">
<polygon fill="white" stroke="#666666" points="818,-241 633,-241 633,-222 818,-222 818,-241"/>
<text text-anchor="middle" x="725.5" y="-229" font-family="Courier,monospace" font-size="10.00">BoundaryRestrictableRequired</text>
</a>
</g>
</g>
<!-- Node26&#45;&gt;Node3 -->
<g id="edge25" class="edge">
<title>Node26&#45;&gt;Node3</title>
<path fill="none" stroke="#63b8ff" d="M817.36,-218.27C821.69,-216.84 825.92,-215.26 830,-213.5 867.39,-197.4 903.78,-164.8 920.68,-148.4"/>
<polygon fill="#63b8ff" stroke="#63b8ff" points="816.48,-214.88 807.89,-221.08 818.47,-221.59 816.48,-214.88"/>
</g>
<!-- Node27 -->
<g id="node27" class="node">
<title>Node27</title>
<g id="a_node27"><a xlink:href="classBoundaryRestrictable.html" target="_top" xlink:title="/class BoundaryRestrictable /brief Provides functionality for limiting the object to certain boundary...">
<polygon fill="white" stroke="#666666" points="561,-112 424,-112 424,-93 561,-93 561,-112"/>
<text text-anchor="middle" x="492.5" y="-100" font-family="Courier,monospace" font-size="10.00">BoundaryRestrictable</text>
</a>
</g>
</g>
<!-- Node27&#45;&gt;Node26 -->
<g id="edge26" class="edge">
<title>Node27&#45;&gt;Node26</title>
<path fill="none" stroke="#63b8ff" d="M571.41,-112.72C576.28,-115.12 580.88,-118.02 585,-121.5 618.55,-149.83 587,-185.72 621,-213.5 624.81,-216.62 628.97,-219.27 633.37,-221.54"/>
<polygon fill="#63b8ff" stroke="#63b8ff" points="573.05,-109.61 562.47,-109.02 570.37,-116.07 573.05,-109.61"/>
</g>
<!-- Node28 -->
<g id="node28" class="node">
<title>Node28</title>
<g id="a_node28"><a xlink:href="classMaterialPropertyInterface.html" target="_top" xlink:title="An interface for accessing Materials.">
<polygon fill="white" stroke="#666666" points="809,-204 642,-204 642,-185 809,-185 809,-204"/>
<text text-anchor="middle" x="725.5" y="-192" font-family="Courier,monospace" font-size="10.00">MaterialPropertyInterface</text>
</a>
</g>
</g>
<!-- Node28&#45;&gt;Node3 -->
<g id="edge27" class="edge">
<title>Node28&#45;&gt;Node3</title>
<path fill="none" stroke="#63b8ff" d="M805.95,-182.27C814.12,-180.54 822.26,-178.62 830,-176.5 857.53,-168.97 888.05,-156.87 908.15,-148.35"/>
<polygon fill="#63b8ff" stroke="#63b8ff" points="805.42,-178.8 796.31,-184.21 806.81,-185.66 805.42,-178.8"/>
</g>
<!-- Node29 -->
<g id="node29" class="node">
<title>Node29</title>
<g id="a_node29"><a xlink:href="classCoupleable.html" target="_top" xlink:title="Interface for objects that needs coupling capabilities.">
<polygon fill="white" stroke="#666666" points="764,-167 687,-167 687,-148 764,-148 764,-167"/>
<text text-anchor="middle" x="725.5" y="-155" font-family="Courier,monospace" font-size="10.00">Coupleable</text>
</a>
</g>
</g>
<!-- Node29&#45;&gt;Node3 -->
<g id="edge28" class="edge">
<title>Node29&#45;&gt;Node3</title>
<path fill="none" stroke="#63b8ff" d="M775.67,-152.92C807.53,-149.95 848.9,-146.1 880.86,-143.12"/>
<polygon fill="#63b8ff" stroke="#63b8ff" points="775.53,-149.42 765.9,-153.83 776.18,-156.39 775.53,-149.42"/>
</g>
<!-- Node30 -->
<g id="node30" class="node">
<title>Node30</title>
<g id="a_node30"><a xlink:href="classMooseVariableDependencyInterface.html" target="_top" xlink:title=" ">
<polygon fill="white" stroke="#666666" points="830,-130 621,-130 621,-111 830,-111 830,-130"/>
<text text-anchor="middle" x="725.5" y="-118" font-family="Courier,monospace" font-size="10.00">MooseVariableDependencyInterface</text>
</a>
</g>
</g>
<!-- Node30&#45;&gt;Node3 -->
<g id="edge29" class="edge">
<title>Node30&#45;&gt;Node3</title>
<path fill="none" stroke="#63b8ff" d="M841.76,-130.67C855.35,-131.87 868.61,-133.04 880.57,-134.09"/>
<polygon fill="#63b8ff" stroke="#63b8ff" points="842.07,-127.18 831.8,-129.79 841.45,-134.16 842.07,-127.18"/>
</g>
<!-- Node31 -->
<g id="node31" class="node">
<title>Node31</title>
<g id="a_node31"><a xlink:href="classTransientInterface.html" target="_top" xlink:title="Interface for objects that needs transient capabilities.">
<polygon fill="white" stroke="#666666" points="788,-93 663,-93 663,-74 788,-74 788,-93"/>
<text text-anchor="middle" x="725.5" y="-81" font-family="Courier,monospace" font-size="10.00">TransientInterface</text>
</a>
</g>
</g>
<!-- Node31&#45;&gt;Node3 -->
<g id="edge30" class="edge">
<title>Node31&#45;&gt;Node3</title>
<path fill="none" stroke="#63b8ff" d="M799.53,-95.37C809.82,-97.49 820.22,-99.87 830,-102.5 856.67,-109.67 886.34,-120.69 906.48,-128.65"/>
<polygon fill="#63b8ff" stroke="#63b8ff" points="800.41,-91.98 789.92,-93.47 799.05,-98.84 800.41,-91.98"/>
</g>
<!-- Node32 -->
<g id="node32" class="node">
<title>Node32</title>
<g id="a_node32"><a xlink:href="classElementIDInterface.html" target="_top" xlink:title=" ">
<polygon fill="white" stroke="#666666" points="788,-56 663,-56 663,-37 788,-37 788,-56"/>
<text text-anchor="middle" x="725.5" y="-44" font-family="Courier,monospace" font-size="10.00">ElementIDInterface</text>
</a>
</g>
</g>
<!-- Node32&#45;&gt;Node3 -->
<g id="edge31" class="edge">
<title>Node32&#45;&gt;Node3</title>
<path fill="none" stroke="#63b8ff" d="M799.26,-55.59C809.8,-58.12 820.34,-61.36 830,-65.5 866.87,-81.3 903.22,-112.68 920.34,-128.65"/>
<polygon fill="#63b8ff" stroke="#63b8ff" points="800.3,-52.23 789.78,-53.52 798.81,-59.07 800.3,-52.23"/>
</g>
<!-- Node33 -->
<g id="node33" class="node">
<title>Node33</title>
<g id="a_node33"><a xlink:href="classVectorPostprocessor.html" target="_top" xlink:title="Base class for Postprocessors that produce a vector of values.">
<polygon fill="white" stroke="#666666" points="997,-74 866,-74 866,-55 997,-55 997,-74"/>
<text text-anchor="middle" x="931.5" y="-62" font-family="Courier,monospace" font-size="10.00">VectorPostprocessor</text>
</a>
</g>
</g>
<!-- Node33&#45;&gt;Node2 -->
<g id="edge32" class="edge">
<title>Node33&#45;&gt;Node2</title>
<path fill="none" stroke="#63b8ff" d="M1008.82,-72.26C1016.7,-73.06 1024.71,-73.88 1032.6,-74.68"/>
<polygon fill="#63b8ff" stroke="#63b8ff" points="1009.21,-68.78 998.91,-71.25 1008.5,-75.75 1009.21,-68.78"/>
</g>
<!-- Node34 -->
<g id="node34" class="node">
<title>Node34</title>
<g id="a_node34"><a xlink:href="classOutputInterface.html" target="_top" xlink:title="A class to provide an common interface to objects requiring &quot;outputs&quot; option.">
<polygon fill="white" stroke="#666666" points="779,-19 672,-19 672,0 779,0 779,-19"/>
<text text-anchor="middle" x="725.5" y="-7" font-family="Courier,monospace" font-size="10.00">OutputInterface</text>
</a>
</g>
</g>
<!-- Node34&#45;&gt;Node33 -->
<g id="edge33" class="edge">
<title>Node34&#45;&gt;Node33</title>
<path fill="none" stroke="#63b8ff" d="M790.24,-18.72C803.48,-21.16 817.27,-24.08 830,-27.5 857.11,-34.78 887.21,-46.35 907.33,-54.61"/>
<polygon fill="#63b8ff" stroke="#63b8ff" points="791.24,-15.34 780.78,-17.05 790.02,-22.24 791.24,-15.34"/>
</g>
</g>
</svg>
        <g id="navigator" transform="translate(0 0)" fill="#404254">
                <rect fill="#f2f5e9" fill-opacity="0.5" stroke="#606060" stroke-width=".5" x="0" y="0" width="60" height="60"/>
                <use id="zoomplus" xlink:href="#zoomPlus" x="17" y="9" onmousedown="handleZoom(evt,'in')"/>
                <use id="zoomminus" xlink:href="#zoomMin" x="42" y="9" onmousedown="handleZoom(evt,'out')"/>
                <use id="reset" xlink:href="#resetDef" x="30" y="36" onmousedown="handleReset()"/>
                <g id="arrowUp" xlink:href="#dirArrow" transform="translate(30 24)" onmousedown="handlePan(0,-1)">
                  <use xlink:href="#rim" fill="#404040">
                        <set attributeName="fill" to="#808080" begin="arrowUp.mouseover" end="arrowUp.mouseout"/>
                  </use>
                  <path fill="none" stroke="white" stroke-width="1.5" d="M0,-3.0v7 M-2.5,-0.5L0,-3.0L2.5,-0.5"/>
                </g>
                <g id="arrowRight" xlink:href="#dirArrow" transform="rotate(90) translate(36 -43)" onmousedown="handlePan(1,0)">
                  <use xlink:href="#rim" fill="#404040">
                        <set attributeName="fill" to="#808080" begin="arrowRight.mouseover" end="arrowRight.mouseout"/>
                  </use>
                  <path fill="none" stroke="white" stroke-width="1.5" d="M0,-3.0v7 M-2.5,-0.5L0,-3.0L2.5,-0.5"/>
                </g>
                <g id="arrowDown" xlink:href="#dirArrow" transform="rotate(180) translate(-30 -48)" onmousedown="handlePan(0,1)">
                  <use xlink:href="#rim" fill="#404040">
                        <set attributeName="fill" to="#808080" begin="arrowDown.mouseover" end="arrowDown.mouseout"/>
                  </use>
                  <path fill="none" stroke="white" stroke-width="1.5" d="M0,-3.0v7 M-2.5,-0.5L0,-3.0L2.5,-0.5"/>
                </g>
                <g id="arrowLeft" xlink:href="#dirArrow" transform="rotate(270) translate(-36 17)" onmousedown="handlePan(-1,0)">
                  <use xlink:href="#rim" fill="#404040">
                        <set attributeName="fill" to="#808080" begin="arrowLeft.mouseover" end="arrowLeft.mouseout"/>
                  </use>
                  <path fill="none" stroke="white" stroke-width="1.5" d="M0,-3.0v7 M-2.5,-0.5L0,-3.0L2.5,-0.5"/>
                </g>
        </g>
        <svg viewBox="0 0 15 15" width="100%" height="30px" preserveAspectRatio="xMaxYMin meet">
         <g id="arrow_out" transform="scale(0.3 0.3)">
          <a xlink:href="classSidesetInfoVectorPostprocessor__inherit__graph_org.svg" target="_base">
           <rect id="button" ry="5" rx="5" y="6" x="6" height="38" width="38"
                fill="#f2f5e9" fill-opacity="0.5" stroke="#606060" stroke-width="1.0"/>
           <path id="arrow"
             d="M 11.500037,31.436501 C 11.940474,20.09759 22.043105,11.32322 32.158766,21.979434 L 37.068811,17.246167 C 37.068811,17.246167 37.088388,32 37.088388,32 L 22.160133,31.978069 C 22.160133,31.978069 26.997745,27.140456 26.997745,27.140456 C 18.528582,18.264221 13.291696,25.230495 11.500037,31.436501 z"
             style="fill:#404040;"/>
          </a>
         </g>
        </svg>
</svg>
