<?xml version="1.0" encoding="UTF-8" standalone="no"?>
<!DOCTYPE svg PUBLIC "-//W3C//DTD SVG 1.1//EN"
 "http://www.w3.org/Graphics/SVG/1.1/DTD/svg11.dtd">
<!-- Generated by graphviz version 7.0.5 (20221223.1930)
 -->
<!-- Title: TestSourceStepper Pages: 1 -->
<svg width="795pt" height="187pt"
 viewBox="0.00 0.00 795.00 186.50" xmlns="http://www.w3.org/2000/svg" xmlns:xlink="http://www.w3.org/1999/xlink">
<g id="graph0" class="graph" transform="scale(1 1) rotate(0) translate(4 182.5)">
<title>TestSourceStepper</title>
<!-- Node1 -->
<g id="node1" class="node">
<title>Node1</title>
<g id="a_node1"><a xlink:title=" ">
<polygon fill="#999999" stroke="#666666" points="787,-67.5 668,-67.5 668,-48.5 787,-48.5 787,-67.5"/>
<text text-anchor="middle" x="727.5" y="-55.5" font-family="Courier,monospace" font-size="10.00">TestSourceStepper</text>
</a>
</g>
</g>
<!-- Node2 -->
<g id="node2" class="node">
<title>Node2</title>
<g id="a_node2"><a xlink:href="classTimeStepper.html" target="_top" xlink:title="Base class for time stepping.">
<polygon fill="white" stroke="#666666" points="632,-67.5 549,-67.5 549,-48.5 632,-48.5 632,-67.5"/>
<text text-anchor="middle" x="590.5" y="-55.5" font-family="Courier,monospace" font-size="10.00">TimeStepper</text>
</a>
</g>
</g>
<!-- Node2&#45;&gt;Node1 -->
<g id="edge1" class="edge">
<title>Node2&#45;&gt;Node1</title>
<path fill="none" stroke="#63b8ff" d="M643.69,-58C651.6,-58 659.8,-58 667.84,-58"/>
<polygon fill="#63b8ff" stroke="#63b8ff" points="643.88,-54.5 633.88,-58 643.88,-61.5 643.88,-54.5"/>
</g>
<!-- Node3 -->
<g id="node3" class="node">
<title>Node3</title>
<g id="a_node3"><a xlink:href="classMooseObject.html" target="_top" xlink:title="Every object that can be built by the factory should be derived from this class.">
<polygon fill="white" stroke="#666666" points="498,-104.5 415,-104.5 415,-85.5 498,-85.5 498,-104.5"/>
<text text-anchor="middle" x="456.5" y="-92.5" font-family="Courier,monospace" font-size="10.00">MooseObject</text>
</a>
</g>
</g>
<!-- Node3&#45;&gt;Node2 -->
<g id="edge2" class="edge">
<title>Node3&#45;&gt;Node2</title>
<path fill="none" stroke="#63b8ff" d="M503.93,-81.99C520.38,-77.37 538.63,-72.26 554.03,-67.94"/>
<polygon fill="#63b8ff" stroke="#63b8ff" points="503.02,-78.61 494.33,-84.68 504.9,-85.35 503.02,-78.61"/>
</g>
<!-- Node4 -->
<g id="node4" class="node">
<title>Node4</title>
<g id="a_node4"><a xlink:href="classMooseBase.html" target="_top" xlink:title="Base class for everything in MOOSE with a name and a type.">
<polygon fill="white" stroke="#666666" points="310,-178.5 239,-178.5 239,-159.5 310,-159.5 310,-178.5"/>
<text text-anchor="middle" x="274.5" y="-166.5" font-family="Courier,monospace" font-size="10.00">MooseBase</text>
</a>
</g>
</g>
<!-- Node4&#45;&gt;Node3 -->
<g id="edge3" class="edge">
<title>Node4&#45;&gt;Node3</title>
<path fill="none" stroke="#63b8ff" d="M321.67,-162.75C335.57,-160.04 350.66,-156.25 364,-151 394.16,-139.13 425.59,-117.53 442.63,-104.9"/>
<polygon fill="#63b8ff" stroke="#63b8ff" points="321.06,-159.31 311.83,-164.52 322.29,-166.2 321.06,-159.31"/>
</g>
<!-- Node5 -->
<g id="node5" class="node">
<title>Node5</title>
<g id="a_node5"><a xlink:href="classMooseBaseParameterInterface.html" target="_top" xlink:title="Every object that can be built by the factory should be derived from this class.">
<polygon fill="white" stroke="#666666" points="364,-141.5 185,-141.5 185,-122.5 364,-122.5 364,-141.5"/>
<text text-anchor="middle" x="274.5" y="-129.5" font-family="Courier,monospace" font-size="10.00">MooseBaseParameterInterface</text>
</a>
</g>
</g>
<!-- Node5&#45;&gt;Node3 -->
<g id="edge4" class="edge">
<title>Node5&#45;&gt;Node3</title>
<path fill="none" stroke="#63b8ff" d="M335.65,-119.8C345.14,-117.87 354.84,-115.88 364,-114 380.53,-110.6 398.73,-106.83 414.51,-103.55"/>
<polygon fill="#63b8ff" stroke="#63b8ff" points="335.24,-116.31 326.14,-121.74 336.64,-123.17 335.24,-116.31"/>
</g>
<!-- Node6 -->
<g id="node6" class="node">
<title>Node6</title>
<g id="a_node6"><a xlink:href="classMooseBaseErrorInterface.html" target="_top" xlink:title="Interface that provides APIs to output errors/warnings/info messages.">
<polygon fill="white" stroke="#666666" points="352,-104.5 197,-104.5 197,-85.5 352,-85.5 352,-104.5"/>
<text text-anchor="middle" x="274.5" y="-92.5" font-family="Courier,monospace" font-size="10.00">MooseBaseErrorInterface</text>
</a>
</g>
</g>
<!-- Node6&#45;&gt;Node3 -->
<g id="edge5" class="edge">
<title>Node6&#45;&gt;Node3</title>
<path fill="none" stroke="#63b8ff" d="M363.71,-95C381.52,-95 399.42,-95 414.63,-95"/>
<polygon fill="#63b8ff" stroke="#63b8ff" points="363.87,-91.5 353.87,-95 363.87,-98.5 363.87,-91.5"/>
</g>
<!-- Node7 -->
<g id="node7" class="node">
<title>Node7</title>
<g id="a_node7"><a xlink:href="classConsoleStreamInterface.html" target="_top" xlink:title="An inteface for the _console for outputting to the Console object.">
<polygon fill="white" stroke="#666666" points="149,-104.5 0,-104.5 0,-85.5 149,-85.5 149,-104.5"/>
<text text-anchor="middle" x="74.5" y="-92.5" font-family="Courier,monospace" font-size="10.00">ConsoleStreamInterface</text>
</a>
</g>
</g>
<!-- Node7&#45;&gt;Node6 -->
<g id="edge6" class="edge">
<title>Node7&#45;&gt;Node6</title>
<path fill="none" stroke="#63b8ff" d="M160.62,-95C172.62,-95 184.9,-95 196.73,-95"/>
<polygon fill="#63b8ff" stroke="#63b8ff" points="160.74,-91.5 150.74,-95 160.74,-98.5 160.74,-91.5"/>
</g>
<!-- Node8 -->
<g id="node8" class="node">
<title>Node8</title>
<g id="a_node8"><a xlink:title=" ">
<polygon fill="white" stroke="#666666" points="352,-67.5 197,-67.5 197,-48.5 352,-48.5 352,-67.5"/>
<text text-anchor="middle" x="274.5" y="-55.5" font-family="Courier,monospace" font-size="10.00">libMesh::ParallelObject</text>
</a>
</g>
</g>
<!-- Node8&#45;&gt;Node3 -->
<g id="edge7" class="edge">
<title>Node8&#45;&gt;Node3</title>
<path fill="none" stroke="#63b8ff" d="M335.65,-70.2C345.14,-72.13 354.84,-74.12 364,-76 380.53,-79.4 398.73,-83.17 414.51,-86.45"/>
<polygon fill="#63b8ff" stroke="#63b8ff" points="336.64,-66.83 326.14,-68.26 335.24,-73.69 336.64,-66.83"/>
</g>
<!-- Node9 -->
<g id="node9" class="node">
<title>Node9</title>
<g id="a_node9"><a xlink:href="classDataFileInterface.html" target="_top" xlink:title=" ">
<polygon fill="white" stroke="#666666" points="337,-30 212,-30 212,0 337,0 337,-30"/>
<text text-anchor="start" x="220" y="-18" font-family="Courier,monospace" font-size="10.00">DataFileInterface&lt;</text>
<text text-anchor="middle" x="274.5" y="-7" font-family="Courier,monospace" font-size="10.00"> MooseObject &gt;</text>
</a>
</g>
</g>
<!-- Node9&#45;&gt;Node3 -->
<g id="edge8" class="edge">
<title>Node9&#45;&gt;Node3</title>
<path fill="none" stroke="#63b8ff" d="M347.62,-30.99C353.32,-33.32 358.86,-35.97 364,-39 383.77,-50.64 380.62,-63.73 400,-76 405.68,-79.6 412.12,-82.6 418.55,-85.08"/>
<polygon fill="#63b8ff" stroke="#63b8ff" points="349.23,-27.85 338.64,-27.67 346.8,-34.42 349.23,-27.85"/>
</g>
<!-- Node10 -->
<g id="node10" class="node">
<title>Node10</title>
<g id="a_node10"><a xlink:href="classRestartable.html" target="_top" xlink:title="A class for creating restricted objects.">
<polygon fill="white" stroke="#666666" points="498,-67.5 415,-67.5 415,-48.5 498,-48.5 498,-67.5"/>
<text text-anchor="middle" x="456.5" y="-55.5" font-family="Courier,monospace" font-size="10.00">Restartable</text>
</a>
</g>
</g>
<!-- Node10&#45;&gt;Node2 -->
<g id="edge9" class="edge">
<title>Node10&#45;&gt;Node2</title>
<path fill="none" stroke="#63b8ff" d="M509.41,-58C522.47,-58 536.3,-58 548.73,-58"/>
<polygon fill="#63b8ff" stroke="#63b8ff" points="509.7,-54.5 499.69,-58 509.69,-61.5 509.7,-54.5"/>
</g>
<!-- Node11 -->
<g id="node11" class="node">
<title>Node11</title>
<g id="a_node11"><a xlink:href="classScalarCoupleable.html" target="_top" xlink:title="Interface for objects that needs scalar coupling capabilities.">
<polygon fill="white" stroke="#666666" points="513,-30.5 400,-30.5 400,-11.5 513,-11.5 513,-30.5"/>
<text text-anchor="middle" x="456.5" y="-18.5" font-family="Courier,monospace" font-size="10.00">ScalarCoupleable</text>
</a>
</g>
</g>
<!-- Node11&#45;&gt;Node2 -->
<g id="edge10" class="edge">
<title>Node11&#45;&gt;Node2</title>
<path fill="none" stroke="#63b8ff" d="M503.93,-34.01C520.38,-38.63 538.63,-43.74 554.03,-48.06"/>
<polygon fill="#63b8ff" stroke="#63b8ff" points="504.9,-30.65 494.33,-31.32 503.02,-37.39 504.9,-30.65"/>
</g>
</g>
</svg>
