<?xml version="1.0" encoding="UTF-8" standalone="no"?>
<!DOCTYPE svg PUBLIC "-//W3C//DTD SVG 1.1//EN"
 "http://www.w3.org/Graphics/SVG/1.1/DTD/svg11.dtd">
<!-- Generated by graphviz version 7.0.5 (20221223.1930)
 -->
<!-- Title: QuadraturePointMultiApp Pages: 1 -->
<svg width="980pt" height="212pt"
 viewBox="0.00 0.00 980.00 212.00" xmlns="http://www.w3.org/2000/svg" xmlns:xlink="http://www.w3.org/1999/xlink">
<g id="graph0" class="graph" transform="scale(1 1) rotate(0) translate(4 208)">
<title>QuadraturePointMultiApp</title>
<!-- Node1 -->
<g id="node1" class="node">
<title>Node1</title>
<g id="a_node1"><a xlink:title="Automatically generates sub&#45;App positions with elemental quadrature points of the parent mesh.">
<polygon fill="#999999" stroke="#666666" points="972,-55 817,-55 817,-36 972,-36 972,-55"/>
<text text-anchor="middle" x="894.5" y="-43" font-family="Courier,monospace" font-size="10.00">QuadraturePointMultiApp</text>
</a>
</g>
</g>
<!-- Node2 -->
<g id="node2" class="node">
<title>Node2</title>
<g id="a_node2"><a xlink:href="classTransientMultiApp.html" target="_top" xlink:title="MultiApp Implementation for Transient Apps.">
<polygon fill="white" stroke="#666666" points="781,-74 662,-74 662,-55 781,-55 781,-74"/>
<text text-anchor="middle" x="721.5" y="-62" font-family="Courier,monospace" font-size="10.00">TransientMultiApp</text>
</a>
</g>
</g>
<!-- Node2&#45;&gt;Node1 -->
<g id="edge1" class="edge">
<title>Node2&#45;&gt;Node1</title>
<path fill="none" stroke="#63b8ff" d="M792.76,-56.69C800.67,-55.81 808.75,-54.92 816.73,-54.03"/>
<polygon fill="#63b8ff" stroke="#63b8ff" points="792.41,-53.21 782.85,-57.79 793.18,-60.17 792.41,-53.21"/>
</g>
<!-- Node3 -->
<g id="node3" class="node">
<title>Node3</title>
<g id="a_node3"><a xlink:href="classMultiApp.html" target="_top" xlink:title="A MultiApp represents one or more MOOSE applications that are running simultaneously.">
<polygon fill="white" stroke="#666666" points="626,-74 561,-74 561,-55 626,-55 626,-74"/>
<text text-anchor="middle" x="593.5" y="-62" font-family="Courier,monospace" font-size="10.00">MultiApp</text>
</a>
</g>
</g>
<!-- Node3&#45;&gt;Node2 -->
<g id="edge2" class="edge">
<title>Node3&#45;&gt;Node2</title>
<path fill="none" stroke="#63b8ff" d="M637.65,-64.5C645.41,-64.5 653.61,-64.5 661.72,-64.5"/>
<polygon fill="#63b8ff" stroke="#63b8ff" points="637.81,-61 627.81,-64.5 637.81,-68 637.81,-61"/>
</g>
<!-- Node4 -->
<g id="node4" class="node">
<title>Node4</title>
<g id="a_node4"><a xlink:href="classMooseObject.html" target="_top" xlink:title="Every object that can be built by the factory should be derived from this class.">
<polygon fill="white" stroke="#666666" points="504,-130 421,-130 421,-111 504,-111 504,-130"/>
<text text-anchor="middle" x="462.5" y="-118" font-family="Courier,monospace" font-size="10.00">MooseObject</text>
</a>
</g>
</g>
<!-- Node4&#45;&gt;Node3 -->
<g id="edge3" class="edge">
<title>Node4&#45;&gt;Node3</title>
<path fill="none" stroke="#63b8ff" d="M513.13,-107.05C517.18,-105.63 521.19,-104.11 525,-102.5 543.71,-94.62 563.84,-82.81 577.19,-74.46"/>
<polygon fill="#63b8ff" stroke="#63b8ff" points="512.2,-103.67 503.79,-110.12 514.39,-110.32 512.2,-103.67"/>
</g>
<!-- Node5 -->
<g id="node5" class="node">
<title>Node5</title>
<g id="a_node5"><a xlink:href="classMooseBase.html" target="_top" xlink:title="Base class for everything in MOOSE with a name and a type.">
<polygon fill="white" stroke="#666666" points="310,-204 239,-204 239,-185 310,-185 310,-204"/>
<text text-anchor="middle" x="274.5" y="-192" font-family="Courier,monospace" font-size="10.00">MooseBase</text>
</a>
</g>
</g>
<!-- Node5&#45;&gt;Node4 -->
<g id="edge4" class="edge">
<title>Node5&#45;&gt;Node4</title>
<path fill="none" stroke="#63b8ff" d="M321.58,-188.02C335.48,-185.3 350.59,-181.56 364,-176.5 395.78,-164.5 429.4,-142.94 447.68,-130.36"/>
<polygon fill="#63b8ff" stroke="#63b8ff" points="320.97,-184.58 311.75,-189.8 322.21,-191.47 320.97,-184.58"/>
</g>
<!-- Node6 -->
<g id="node6" class="node">
<title>Node6</title>
<g id="a_node6"><a xlink:href="classMooseBaseParameterInterface.html" target="_top" xlink:title="Every object that can be built by the factory should be derived from this class.">
<polygon fill="white" stroke="#666666" points="364,-167 185,-167 185,-148 364,-148 364,-167"/>
<text text-anchor="middle" x="274.5" y="-155" font-family="Courier,monospace" font-size="10.00">MooseBaseParameterInterface</text>
</a>
</g>
</g>
<!-- Node6&#45;&gt;Node4 -->
<g id="edge5" class="edge">
<title>Node6&#45;&gt;Node4</title>
<path fill="none" stroke="#63b8ff" d="M336.48,-145.37C364.07,-139.88 395.96,-133.54 420.62,-128.63"/>
<polygon fill="#63b8ff" stroke="#63b8ff" points="335.95,-141.91 326.83,-147.29 337.32,-148.77 335.95,-141.91"/>
</g>
<!-- Node7 -->
<g id="node7" class="node">
<title>Node7</title>
<g id="a_node7"><a xlink:href="classMooseBaseErrorInterface.html" target="_top" xlink:title="Interface that provides APIs to output errors/warnings/info messages.">
<polygon fill="white" stroke="#666666" points="352,-130 197,-130 197,-111 352,-111 352,-130"/>
<text text-anchor="middle" x="274.5" y="-118" font-family="Courier,monospace" font-size="10.00">MooseBaseErrorInterface</text>
</a>
</g>
</g>
<!-- Node7&#45;&gt;Node4 -->
<g id="edge6" class="edge">
<title>Node7&#45;&gt;Node4</title>
<path fill="none" stroke="#63b8ff" d="M363.81,-120.5C383.7,-120.5 403.87,-120.5 420.67,-120.5"/>
<polygon fill="#63b8ff" stroke="#63b8ff" points="364.01,-117 354.01,-120.5 364.01,-124 364.01,-117"/>
</g>
<!-- Node8 -->
<g id="node8" class="node">
<title>Node8</title>
<g id="a_node8"><a xlink:href="classConsoleStreamInterface.html" target="_top" xlink:title="An inteface for the _console for outputting to the Console object.">
<polygon fill="white" stroke="#666666" points="149,-130 0,-130 0,-111 149,-111 149,-130"/>
<text text-anchor="middle" x="74.5" y="-118" font-family="Courier,monospace" font-size="10.00">ConsoleStreamInterface</text>
</a>
</g>
</g>
<!-- Node8&#45;&gt;Node7 -->
<g id="edge7" class="edge">
<title>Node8&#45;&gt;Node7</title>
<path fill="none" stroke="#63b8ff" d="M160.62,-120.5C172.62,-120.5 184.9,-120.5 196.73,-120.5"/>
<polygon fill="#63b8ff" stroke="#63b8ff" points="160.74,-117 150.74,-120.5 160.74,-124 160.74,-117"/>
</g>
<!-- Node9 -->
<g id="node9" class="node">
<title>Node9</title>
<g id="a_node9"><a xlink:title=" ">
<polygon fill="white" stroke="#666666" points="352,-93 197,-93 197,-74 352,-74 352,-93"/>
<text text-anchor="middle" x="274.5" y="-81" font-family="Courier,monospace" font-size="10.00">libMesh::ParallelObject</text>
</a>
</g>
</g>
<!-- Node9&#45;&gt;Node4 -->
<g id="edge8" class="edge">
<title>Node9&#45;&gt;Node4</title>
<path fill="none" stroke="#63b8ff" d="M336.48,-95.63C364.07,-101.12 395.96,-107.46 420.62,-112.37"/>
<polygon fill="#63b8ff" stroke="#63b8ff" points="337.32,-92.23 326.83,-93.71 335.95,-99.09 337.32,-92.23"/>
</g>
<!-- Node10 -->
<g id="node10" class="node">
<title>Node10</title>
<g id="a_node10"><a xlink:href="classDataFileInterface.html" target="_top" xlink:title=" ">
<polygon fill="white" stroke="#666666" points="337,-55.5 212,-55.5 212,-25.5 337,-25.5 337,-55.5"/>
<text text-anchor="start" x="220" y="-43.5" font-family="Courier,monospace" font-size="10.00">DataFileInterface&lt;</text>
<text text-anchor="middle" x="274.5" y="-32.5" font-family="Courier,monospace" font-size="10.00"> MooseObject &gt;</text>
</a>
</g>
</g>
<!-- Node10&#45;&gt;Node4 -->
<g id="edge9" class="edge">
<title>Node10&#45;&gt;Node4</title>
<path fill="none" stroke="#63b8ff" d="M347.62,-57.35C353.32,-59.73 358.86,-62.44 364,-65.5 383.71,-77.24 380.34,-90.67 400,-102.5 406.29,-106.29 413.43,-109.32 420.55,-111.73"/>
<polygon fill="#63b8ff" stroke="#63b8ff" points="349.23,-54.22 338.64,-53.94 346.74,-60.76 349.23,-54.22"/>
</g>
<!-- Node11 -->
<g id="node11" class="node">
<title>Node11</title>
<g id="a_node11"><a xlink:href="classSetupInterface.html" target="_top" xlink:title=" ">
<polygon fill="white" stroke="#666666" points="513,-93 412,-93 412,-74 513,-74 513,-93"/>
<text text-anchor="middle" x="462.5" y="-81" font-family="Courier,monospace" font-size="10.00">SetupInterface</text>
</a>
</g>
</g>
<!-- Node11&#45;&gt;Node3 -->
<g id="edge10" class="edge">
<title>Node11&#45;&gt;Node3</title>
<path fill="none" stroke="#63b8ff" d="M524.69,-74.49C537.13,-72.66 549.73,-70.8 560.63,-69.19"/>
<polygon fill="#63b8ff" stroke="#63b8ff" points="524.26,-71.01 514.87,-75.93 525.28,-77.94 524.26,-71.01"/>
</g>
<!-- Node12 -->
<g id="node12" class="node">
<title>Node12</title>
<g id="a_node12"><a xlink:href="classRestartable.html" target="_top" xlink:title="A class for creating restricted objects.">
<polygon fill="white" stroke="#666666" points="504,-56 421,-56 421,-37 504,-37 504,-56"/>
<text text-anchor="middle" x="462.5" y="-44" font-family="Courier,monospace" font-size="10.00">Restartable</text>
</a>
</g>
</g>
<!-- Node12&#45;&gt;Node3 -->
<g id="edge11" class="edge">
<title>Node12&#45;&gt;Node3</title>
<path fill="none" stroke="#63b8ff" d="M515.68,-53.78C530.86,-55.9 546.99,-58.15 560.53,-60.04"/>
<polygon fill="#63b8ff" stroke="#63b8ff" points="516.2,-50.32 505.82,-52.4 515.24,-57.25 516.2,-50.32"/>
</g>
<!-- Node13 -->
<g id="node13" class="node">
<title>Node13</title>
<g id="a_node13"><a xlink:href="classPerfGraphInterface.html" target="_top" xlink:title="Interface for objects interacting with the PerfGraph.">
<polygon fill="white" stroke="#666666" points="525,-19 400,-19 400,0 525,0 525,-19"/>
<text text-anchor="middle" x="462.5" y="-7" font-family="Courier,monospace" font-size="10.00">PerfGraphInterface</text>
</a>
</g>
</g>
<!-- Node13&#45;&gt;Node3 -->
<g id="edge12" class="edge">
<title>Node13&#45;&gt;Node3</title>
<path fill="none" stroke="#63b8ff" d="M513.11,-23C517.17,-24.41 521.18,-25.92 525,-27.5 543.39,-35.13 563.24,-46.41 576.62,-54.51"/>
<polygon fill="#63b8ff" stroke="#63b8ff" points="514.36,-19.72 503.77,-19.94 512.18,-26.38 514.36,-19.72"/>
</g>
<!-- Node14 -->
<g id="node14" class="node">
<title>Node14</title>
<g id="a_node14"><a xlink:href="classBlockRestrictable.html" target="_top" xlink:title="An interface that restricts an object to subdomains via the &#39;blocks&#39; input parameter.">
<polygon fill="white" stroke="#666666" points="781,-37 662,-37 662,-18 781,-18 781,-37"/>
<text text-anchor="middle" x="721.5" y="-25" font-family="Courier,monospace" font-size="10.00">BlockRestrictable</text>
</a>
</g>
</g>
<!-- Node14&#45;&gt;Node1 -->
<g id="edge13" class="edge">
<title>Node14&#45;&gt;Node1</title>
<path fill="none" stroke="#63b8ff" d="M792.76,-34.9C800.67,-35.73 808.75,-36.58 816.73,-37.42"/>
<polygon fill="#63b8ff" stroke="#63b8ff" points="793.17,-31.42 782.85,-33.85 792.43,-38.38 793.17,-31.42"/>
</g>
</g>
</svg>
