<?xml version="1.0" encoding="UTF-8" standalone="no"?>
<!DOCTYPE svg PUBLIC "-//W3C//DTD SVG 1.1//EN"
 "http://www.w3.org/Graphics/SVG/1.1/DTD/svg11.dtd">
<!-- Generated by graphviz version 7.0.5 (20221223.1930)
 -->
<!-- Title: ComputeJacobianBlocksThread Pages: 1 -->
<svg width="187pt" height="324pt"
 viewBox="0.00 0.00 187.00 324.00" xmlns="http://www.w3.org/2000/svg" xmlns:xlink="http://www.w3.org/1999/xlink">
<g id="graph0" class="graph" transform="scale(1 1) rotate(0) translate(4 320)">
<title>ComputeJacobianBlocksThread</title>
<!-- Node1 -->
<g id="node1" class="node">
<title>Node1</title>
<g id="a_node1"><a xlink:title="Specialization for filling multiple &quot;small&quot; preconditioning matrices simulatenously.">
<polygon fill="#999999" stroke="#666666" points="179,-19 0,-19 0,0 179,0 179,-19"/>
<text text-anchor="middle" x="89.5" y="-7" font-family="Courier,monospace" font-size="10.00">ComputeJacobianBlocksThread</text>
</a>
</g>
</g>
<!-- Node2 -->
<g id="node2" class="node">
<title>Node2</title>
<g id="a_node2"><a xlink:href="classComputeFullJacobianThread.html" target="_top" xlink:title=" ">
<polygon fill="white" stroke="#666666" points="173,-74 6,-74 6,-55 173,-55 173,-74"/>
<text text-anchor="middle" x="89.5" y="-62" font-family="Courier,monospace" font-size="10.00">ComputeFullJacobianThread</text>
</a>
</g>
</g>
<!-- Node2&#45;&gt;Node1 -->
<g id="edge1" class="edge">
<title>Node2&#45;&gt;Node1</title>
<path fill="none" stroke="#63b8ff" d="M89.5,-43.35C89.5,-35.1 89.5,-25.97 89.5,-19.44"/>
<polygon fill="#63b8ff" stroke="#63b8ff" points="86,-43.23 89.5,-53.23 93,-43.23 86,-43.23"/>
</g>
<!-- Node3 -->
<g id="node3" class="node">
<title>Node3</title>
<g id="a_node3"><a xlink:href="classComputeJacobianThread.html" target="_top" xlink:title=" ">
<polygon fill="white" stroke="#666666" points="161,-129 18,-129 18,-110 161,-110 161,-129"/>
<text text-anchor="middle" x="89.5" y="-117" font-family="Courier,monospace" font-size="10.00">ComputeJacobianThread</text>
</a>
</g>
</g>
<!-- Node3&#45;&gt;Node2 -->
<g id="edge2" class="edge">
<title>Node3&#45;&gt;Node2</title>
<path fill="none" stroke="#63b8ff" d="M89.5,-98.35C89.5,-90.1 89.5,-80.97 89.5,-74.44"/>
<polygon fill="#63b8ff" stroke="#63b8ff" points="86,-98.23 89.5,-108.23 93,-98.23 86,-98.23"/>
</g>
<!-- Node4 -->
<g id="node4" class="node">
<title>Node4</title>
<g id="a_node4"><a xlink:href="classNonlinearThread.html" target="_top" xlink:title=" ">
<polygon fill="white" stroke="#666666" points="143,-184 36,-184 36,-165 143,-165 143,-184"/>
<text text-anchor="middle" x="89.5" y="-172" font-family="Courier,monospace" font-size="10.00">NonlinearThread</text>
</a>
</g>
</g>
<!-- Node4&#45;&gt;Node3 -->
<g id="edge3" class="edge">
<title>Node4&#45;&gt;Node3</title>
<path fill="none" stroke="#63b8ff" d="M89.5,-153.35C89.5,-145.1 89.5,-135.97 89.5,-129.44"/>
<polygon fill="#63b8ff" stroke="#63b8ff" points="86,-153.23 89.5,-163.23 93,-153.23 86,-153.23"/>
</g>
<!-- Node5 -->
<g id="node5" class="node">
<title>Node5</title>
<g id="a_node5"><a xlink:href="classThreadedElementLoop.html" target="_top" xlink:title=" ">
<polygon fill="white" stroke="#666666" points="155,-250 24,-250 24,-220 155,-220 155,-250"/>
<text text-anchor="start" x="32" y="-238" font-family="Courier,monospace" font-size="10.00">ThreadedElementLoop</text>
<text text-anchor="middle" x="89.5" y="-227" font-family="Courier,monospace" font-size="10.00">&lt; ConstElemRange &gt;</text>
</a>
</g>
</g>
<!-- Node5&#45;&gt;Node4 -->
<g id="edge4" class="edge">
<title>Node5&#45;&gt;Node4</title>
<path fill="none" stroke="#63b8ff" d="M89.5,-208.3C89.5,-199.65 89.5,-190.58 89.5,-184.18"/>
<polygon fill="#63b8ff" stroke="#63b8ff" points="86,-208.03 89.5,-218.03 93,-208.03 86,-208.03"/>
</g>
<!-- Node6 -->
<g id="node6" class="node">
<title>Node6</title>
<g id="a_node6"><a xlink:href="classThreadedElementLoopBase.html" target="_top" xlink:title="Base class for assembly&#45;like calculations.">
<polygon fill="white" stroke="#666666" points="167,-316 12,-316 12,-286 167,-286 167,-316"/>
<text text-anchor="start" x="20" y="-304" font-family="Courier,monospace" font-size="10.00">ThreadedElementLoopBase</text>
<text text-anchor="middle" x="89.5" y="-293" font-family="Courier,monospace" font-size="10.00">&lt; RangeType &gt;</text>
</a>
</g>
</g>
<!-- Node6&#45;&gt;Node5 -->
<g id="edge5" class="edge">
<title>Node6&#45;&gt;Node5</title>
<path fill="none" stroke="#63b8ff" d="M89.5,-274.39C89.5,-266.13 89.5,-257.28 89.5,-250.16"/>
<polygon fill="#63b8ff" stroke="#63b8ff" points="86,-274.28 89.5,-284.28 93,-274.28 86,-274.28"/>
</g>
</g>
</svg>
