<?xml version="1.0" encoding="UTF-8" standalone="no"?>
<!DOCTYPE svg PUBLIC "-//W3C//DTD SVG 1.1//EN"
 "http://www.w3.org/Graphics/SVG/1.1/DTD/svg11.dtd">
<!-- Generated by graphviz version 7.0.5 (20221223.1930)
 -->
<!-- Title: SolveObject Pages: 1 -->
<!--zoomable 193 -->
<svg id="main" version="1.1" xmlns="http://www.w3.org/2000/svg" xmlns:xlink="http://www.w3.org/1999/xlink" xml:space="preserve" onload="init(evt)">
<style type="text/css"><![CDATA[
.edge:hover path { stroke: red; }
.edge:hover polygon { stroke: red; fill: red; }
]]></style>
<script type="text/javascript"><![CDATA[
var edges = document.getElementsByTagName('g');
if (edges && edges.length) {
  for (var i=0;i<edges.length;i++) {
    if (edges[i].id.substr(0,4)=='edge') {
      edges[i].setAttribute('class','edge');
    }
  }
}
]]></script>
        <defs>
                <circle id="rim" cx="0" cy="0" r="7"/>
                <circle id="rim2" cx="0" cy="0" r="3.5"/>
                <g id="zoomPlus">
                        <use xlink:href="#rim" fill="#404040">
                                <set attributeName="fill" to="#808080" begin="zoomplus.mouseover" end="zoomplus.mouseout"/>
                        </use>
                        <path d="M-4,0h8M0,-4v8" fill="none" stroke="white" stroke-width="1.5" pointer-events="none"/>
                </g>
                <g id="zoomMin">
                        <use xlink:href="#rim" fill="#404040">
                                <set attributeName="fill" to="#808080" begin="zoomminus.mouseover" end="zoomminus.mouseout"/>
                        </use>
                        <path d="M-4,0h8" fill="none" stroke="white" stroke-width="1.5" pointer-events="none"/>
                </g>
                <g id="dirArrow">
                        <path fill="none" stroke="white" stroke-width="1.5" d="M0,-3.0v7 M-2.5,-0.5L0,-3.0L2.5,-0.5"/>
                </g>
               <g id="resetDef">
                       <use xlink:href="#rim2" fill="#404040">
                               <set attributeName="fill" to="#808080" begin="reset.mouseover" end="reset.mouseout"/>
                       </use>
               </g>
        </defs>

<script type="text/javascript">
var viewWidth = 962;
var viewHeight = 193;
var sectionId = 'dynsection-0';
</script>
<script xlink:href="svgpan.js"/>
<svg id="graph" class="graph">
<g id="viewport">
<title>SolveObject</title>
<!-- Node1 -->
<g id="node1" class="node">
<title>Node1</title>
<g id="a_node1"><a xlink:title=" ">
<polygon fill="#999999" stroke="#666666" points="668,-74 585,-74 585,-55 668,-55 668,-74"/>
<text text-anchor="middle" x="626.5" y="-62" font-family="Courier,monospace" font-size="10.00">SolveObject</text>
</a>
</g>
</g>
<!-- Node11 -->
<g id="node11" class="node">
<title>Node11</title>
<g id="a_node11"><a xlink:href="classFEProblemSolve.html" target="_top" xlink:title=" ">
<polygon fill="white" stroke="#666666" points="808,-93 707,-93 707,-74 808,-74 808,-93"/>
<text text-anchor="middle" x="757.5" y="-81" font-family="Courier,monospace" font-size="10.00">FEProblemSolve</text>
</a>
</g>
</g>
<!-- Node1&#45;&gt;Node11 -->
<g id="edge10" class="edge">
<title>Node1&#45;&gt;Node11</title>
<path fill="none" stroke="#63b8ff" d="M679.52,-72.16C688.56,-73.49 697.93,-74.87 706.9,-76.19"/>
<polygon fill="#63b8ff" stroke="#63b8ff" points="680.22,-68.73 669.81,-70.73 679.2,-75.65 680.22,-68.73"/>
</g>
<!-- Node12 -->
<g id="node12" class="node">
<title>Node12</title>
<g id="a_node12"><a xlink:href="classFixedPointSolve.html" target="_top" xlink:title=" ">
<polygon fill="white" stroke="#666666" points="811,-56 704,-56 704,-37 811,-37 811,-56"/>
<text text-anchor="middle" x="757.5" y="-44" font-family="Courier,monospace" font-size="10.00">FixedPointSolve</text>
</a>
</g>
</g>
<!-- Node1&#45;&gt;Node12 -->
<g id="edge11" class="edge">
<title>Node1&#45;&gt;Node12</title>
<path fill="none" stroke="#63b8ff" d="M679.66,-57.22C687.57,-56.12 695.74,-54.98 703.66,-53.87"/>
<polygon fill="#63b8ff" stroke="#63b8ff" points="679.24,-53.75 669.82,-58.6 680.2,-60.68 679.24,-53.75"/>
</g>
<!-- Node2 -->
<g id="node2" class="node">
<title>Node2</title>
<g id="a_node2"><a xlink:href="classMooseObject.html" target="_top" xlink:title="Every object that can be built by the factory should be derived from this class.">
<polygon fill="white" stroke="#666666" points="516,-111 433,-111 433,-92 516,-92 516,-111"/>
<text text-anchor="middle" x="474.5" y="-99" font-family="Courier,monospace" font-size="10.00">MooseObject</text>
</a>
</g>
</g>
<!-- Node2&#45;&gt;Node1 -->
<g id="edge1" class="edge">
<title>Node2&#45;&gt;Node1</title>
<path fill="none" stroke="#63b8ff" d="M526.64,-88.88C545.76,-84.17 567.19,-78.88 585.19,-74.44"/>
<polygon fill="#63b8ff" stroke="#63b8ff" points="526.04,-85.43 517.17,-91.22 527.71,-92.23 526.04,-85.43"/>
</g>
<!-- Node3 -->
<g id="node3" class="node">
<title>Node3</title>
<g id="a_node3"><a xlink:href="classMooseBase.html" target="_top" xlink:title="Base class for everything in MOOSE with a name and a type.">
<polygon fill="white" stroke="#666666" points="310,-185 239,-185 239,-166 310,-166 310,-185"/>
<text text-anchor="middle" x="274.5" y="-173" font-family="Courier,monospace" font-size="10.00">MooseBase</text>
</a>
</g>
</g>
<!-- Node3&#45;&gt;Node2 -->
<g id="edge2" class="edge">
<title>Node3&#45;&gt;Node2</title>
<path fill="none" stroke="#63b8ff" d="M321.43,-168.62C335.32,-165.88 350.47,-162.23 364,-157.5 398.87,-145.3 436.61,-124.01 457.43,-111.49"/>
<polygon fill="#63b8ff" stroke="#63b8ff" points="320.81,-165.17 311.61,-170.43 322.08,-172.06 320.81,-165.17"/>
</g>
<!-- Node4 -->
<g id="node4" class="node">
<title>Node4</title>
<g id="a_node4"><a xlink:href="classMooseBaseParameterInterface.html" target="_top" xlink:title="Every object that can be built by the factory should be derived from this class.">
<polygon fill="white" stroke="#666666" points="364,-148 185,-148 185,-129 364,-129 364,-148"/>
<text text-anchor="middle" x="274.5" y="-136" font-family="Courier,monospace" font-size="10.00">MooseBaseParameterInterface</text>
</a>
</g>
</g>
<!-- Node4&#45;&gt;Node2 -->
<g id="edge3" class="edge">
<title>Node4&#45;&gt;Node2</title>
<path fill="none" stroke="#63b8ff" d="M339.81,-126.48C370.33,-120.78 405.88,-114.14 432.65,-109.13"/>
<polygon fill="#63b8ff" stroke="#63b8ff" points="339.5,-122.98 330.31,-128.26 340.78,-129.86 339.5,-122.98"/>
</g>
<!-- Node5 -->
<g id="node5" class="node">
<title>Node5</title>
<g id="a_node5"><a xlink:href="classMooseBaseErrorInterface.html" target="_top" xlink:title="Interface that provides APIs to output errors/warnings/info messages.">
<polygon fill="white" stroke="#666666" points="352,-111 197,-111 197,-92 352,-92 352,-111"/>
<text text-anchor="middle" x="274.5" y="-99" font-family="Courier,monospace" font-size="10.00">MooseBaseErrorInterface</text>
</a>
</g>
</g>
<!-- Node5&#45;&gt;Node2 -->
<g id="edge4" class="edge">
<title>Node5&#45;&gt;Node2</title>
<path fill="none" stroke="#63b8ff" d="M363.68,-101.5C387.75,-101.5 412.68,-101.5 432.69,-101.5"/>
<polygon fill="#63b8ff" stroke="#63b8ff" points="363.85,-98 353.85,-101.5 363.85,-105 363.85,-98"/>
</g>
<!-- Node6 -->
<g id="node6" class="node">
<title>Node6</title>
<g id="a_node6"><a xlink:href="classConsoleStreamInterface.html" target="_top" xlink:title="An inteface for the _console for outputting to the Console object.">
<polygon fill="white" stroke="#666666" points="149,-111 0,-111 0,-92 149,-92 149,-111"/>
<text text-anchor="middle" x="74.5" y="-99" font-family="Courier,monospace" font-size="10.00">ConsoleStreamInterface</text>
</a>
</g>
</g>
<!-- Node6&#45;&gt;Node5 -->
<g id="edge5" class="edge">
<title>Node6&#45;&gt;Node5</title>
<path fill="none" stroke="#63b8ff" d="M160.62,-101.5C172.62,-101.5 184.9,-101.5 196.73,-101.5"/>
<polygon fill="#63b8ff" stroke="#63b8ff" points="160.74,-98 150.74,-101.5 160.74,-105 160.74,-98"/>
</g>
<!-- Node7 -->
<g id="node7" class="node">
<title>Node7</title>
<g id="a_node7"><a xlink:title=" ">
<polygon fill="white" stroke="#666666" points="352,-74 197,-74 197,-55 352,-55 352,-74"/>
<text text-anchor="middle" x="274.5" y="-62" font-family="Courier,monospace" font-size="10.00">libMesh::ParallelObject</text>
</a>
</g>
</g>
<!-- Node7&#45;&gt;Node2 -->
<g id="edge6" class="edge">
<title>Node7&#45;&gt;Node2</title>
<path fill="none" stroke="#63b8ff" d="M339.81,-76.52C370.33,-82.22 405.88,-88.86 432.65,-93.87"/>
<polygon fill="#63b8ff" stroke="#63b8ff" points="340.78,-73.14 330.31,-74.74 339.5,-80.02 340.78,-73.14"/>
</g>
<!-- Node8 -->
<g id="node8" class="node">
<title>Node8</title>
<g id="a_node8"><a xlink:href="classDataFileInterface.html" target="_top" xlink:title=" ">
<polygon fill="white" stroke="#666666" points="337,-36.5 212,-36.5 212,-6.5 337,-6.5 337,-36.5"/>
<text text-anchor="start" x="220" y="-24.5" font-family="Courier,monospace" font-size="10.00">DataFileInterface&lt;</text>
<text text-anchor="middle" x="274.5" y="-13.5" font-family="Courier,monospace" font-size="10.00"> MooseObject &gt;</text>
</a>
</g>
</g>
<!-- Node8&#45;&gt;Node2 -->
<g id="edge7" class="edge">
<title>Node8&#45;&gt;Node2</title>
<path fill="none" stroke="#63b8ff" d="M347.62,-37.49C353.32,-39.82 358.86,-42.47 364,-45.5 383.77,-57.14 380.16,-70.98 400,-82.5 409.92,-88.26 421.58,-92.3 432.66,-95.12"/>
<polygon fill="#63b8ff" stroke="#63b8ff" points="349.23,-34.35 338.64,-34.17 346.8,-40.92 349.23,-34.35"/>
</g>
<!-- Node9 -->
<g id="node9" class="node">
<title>Node9</title>
<g id="a_node9"><a xlink:href="classPerfGraphInterface.html" target="_top" xlink:title="Interface for objects interacting with the PerfGraph.">
<polygon fill="white" stroke="#666666" points="537,-74 412,-74 412,-55 537,-55 537,-74"/>
<text text-anchor="middle" x="474.5" y="-62" font-family="Courier,monospace" font-size="10.00">PerfGraphInterface</text>
</a>
</g>
</g>
<!-- Node9&#45;&gt;Node1 -->
<g id="edge8" class="edge">
<title>Node9&#45;&gt;Node1</title>
<path fill="none" stroke="#63b8ff" d="M548.71,-64.5C561.11,-64.5 573.58,-64.5 584.75,-64.5"/>
<polygon fill="#63b8ff" stroke="#63b8ff" points="548.89,-61 538.89,-64.5 548.89,-68 548.89,-61"/>
</g>
<!-- Node10 -->
<g id="node10" class="node">
<title>Node10</title>
<g id="a_node10"><a xlink:href="classPostprocessorInterface.html" target="_top" xlink:title="Interface class for classes which interact with Postprocessors.">
<polygon fill="white" stroke="#666666" points="549,-37 400,-37 400,-18 549,-18 549,-37"/>
<text text-anchor="middle" x="474.5" y="-25" font-family="Courier,monospace" font-size="10.00">PostprocessorInterface</text>
</a>
</g>
</g>
<!-- Node10&#45;&gt;Node1 -->
<g id="edge9" class="edge">
<title>Node10&#45;&gt;Node1</title>
<path fill="none" stroke="#63b8ff" d="M527.26,-40.15C534.56,-41.94 541.97,-43.77 549,-45.5 560.83,-48.42 573.67,-51.6 585.41,-54.52"/>
<polygon fill="#63b8ff" stroke="#63b8ff" points="528.34,-36.82 517.8,-37.83 526.68,-43.61 528.34,-36.82"/>
</g>
<!-- Node13 -->
<g id="node13" class="node">
<title>Node13</title>
<g id="a_node13"><a xlink:href="classPicardSolve.html" target="_top" xlink:title=" ">
<polygon fill="white" stroke="#666666" points="942,-93 859,-93 859,-74 942,-74 942,-93"/>
<text text-anchor="middle" x="900.5" y="-81" font-family="Courier,monospace" font-size="10.00">PicardSolve</text>
</a>
</g>
</g>
<!-- Node12&#45;&gt;Node13 -->
<g id="edge12" class="edge">
<title>Node12&#45;&gt;Node13</title>
<path fill="none" stroke="#63b8ff" d="M807.33,-59.31C825.11,-63.98 844.92,-69.18 861.61,-73.56"/>
<polygon fill="#63b8ff" stroke="#63b8ff" points="808.31,-55.95 797.75,-56.8 806.53,-62.72 808.31,-55.95"/>
</g>
<!-- Node14 -->
<g id="node14" class="node">
<title>Node14</title>
<g id="a_node14"><a xlink:href="classSecantSolve.html" target="_top" xlink:title=" ">
<polygon fill="white" stroke="#666666" points="942,-56 859,-56 859,-37 942,-37 942,-56"/>
<text text-anchor="middle" x="900.5" y="-44" font-family="Courier,monospace" font-size="10.00">SecantSolve</text>
</a>
</g>
</g>
<!-- Node12&#45;&gt;Node14 -->
<g id="edge13" class="edge">
<title>Node12&#45;&gt;Node14</title>
<path fill="none" stroke="#63b8ff" d="M822.55,-46.5C834.82,-46.5 847.35,-46.5 858.64,-46.5"/>
<polygon fill="#63b8ff" stroke="#63b8ff" points="822.92,-43 812.92,-46.5 822.92,-50 822.92,-43"/>
</g>
<!-- Node15 -->
<g id="node15" class="node">
<title>Node15</title>
<g id="a_node15"><a xlink:href="classSteffensenSolve.html" target="_top" xlink:title=" ">
<polygon fill="white" stroke="#666666" points="954,-19 847,-19 847,0 954,0 954,-19"/>
<text text-anchor="middle" x="900.5" y="-7" font-family="Courier,monospace" font-size="10.00">SteffensenSolve</text>
</a>
</g>
</g>
<!-- Node12&#45;&gt;Node15 -->
<g id="edge14" class="edge">
<title>Node12&#45;&gt;Node15</title>
<path fill="none" stroke="#63b8ff" d="M807.33,-33.69C825.11,-29.02 844.92,-23.82 861.61,-19.44"/>
<polygon fill="#63b8ff" stroke="#63b8ff" points="806.53,-30.28 797.75,-36.2 808.31,-37.05 806.53,-30.28"/>
</g>
</g>
</svg>
        <g id="navigator" transform="translate(0 0)" fill="#404254">
                <rect fill="#f2f5e9" fill-opacity="0.5" stroke="#606060" stroke-width=".5" x="0" y="0" width="60" height="60"/>
                <use id="zoomplus" xlink:href="#zoomPlus" x="17" y="9" onmousedown="handleZoom(evt,'in')"/>
                <use id="zoomminus" xlink:href="#zoomMin" x="42" y="9" onmousedown="handleZoom(evt,'out')"/>
                <use id="reset" xlink:href="#resetDef" x="30" y="36" onmousedown="handleReset()"/>
                <g id="arrowUp" xlink:href="#dirArrow" transform="translate(30 24)" onmousedown="handlePan(0,-1)">
                  <use xlink:href="#rim" fill="#404040">
                        <set attributeName="fill" to="#808080" begin="arrowUp.mouseover" end="arrowUp.mouseout"/>
                  </use>
                  <path fill="none" stroke="white" stroke-width="1.5" d="M0,-3.0v7 M-2.5,-0.5L0,-3.0L2.5,-0.5"/>
                </g>
                <g id="arrowRight" xlink:href="#dirArrow" transform="rotate(90) translate(36 -43)" onmousedown="handlePan(1,0)">
                  <use xlink:href="#rim" fill="#404040">
                        <set attributeName="fill" to="#808080" begin="arrowRight.mouseover" end="arrowRight.mouseout"/>
                  </use>
                  <path fill="none" stroke="white" stroke-width="1.5" d="M0,-3.0v7 M-2.5,-0.5L0,-3.0L2.5,-0.5"/>
                </g>
                <g id="arrowDown" xlink:href="#dirArrow" transform="rotate(180) translate(-30 -48)" onmousedown="handlePan(0,1)">
                  <use xlink:href="#rim" fill="#404040">
                        <set attributeName="fill" to="#808080" begin="arrowDown.mouseover" end="arrowDown.mouseout"/>
                  </use>
                  <path fill="none" stroke="white" stroke-width="1.5" d="M0,-3.0v7 M-2.5,-0.5L0,-3.0L2.5,-0.5"/>
                </g>
                <g id="arrowLeft" xlink:href="#dirArrow" transform="rotate(270) translate(-36 17)" onmousedown="handlePan(-1,0)">
                  <use xlink:href="#rim" fill="#404040">
                        <set attributeName="fill" to="#808080" begin="arrowLeft.mouseover" end="arrowLeft.mouseout"/>
                  </use>
                  <path fill="none" stroke="white" stroke-width="1.5" d="M0,-3.0v7 M-2.5,-0.5L0,-3.0L2.5,-0.5"/>
                </g>
        </g>
        <svg viewBox="0 0 15 15" width="100%" height="30px" preserveAspectRatio="xMaxYMin meet">
         <g id="arrow_out" transform="scale(0.3 0.3)">
          <a xlink:href="classSolveObject__inherit__graph_org.svg" target="_base">
           <rect id="button" ry="5" rx="5" y="6" x="6" height="38" width="38"
                fill="#f2f5e9" fill-opacity="0.5" stroke="#606060" stroke-width="1.0"/>
           <path id="arrow"
             d="M 11.500037,31.436501 C 11.940474,20.09759 22.043105,11.32322 32.158766,21.979434 L 37.068811,17.246167 C 37.068811,17.246167 37.088388,32 37.088388,32 L 22.160133,31.978069 C 22.160133,31.978069 26.997745,27.140456 26.997745,27.140456 C 18.528582,18.264221 13.291696,25.230495 11.500037,31.436501 z"
             style="fill:#404040;"/>
          </a>
         </g>
        </svg>
</svg>
