<?xml version="1.0" encoding="UTF-8" standalone="no"?>
<!DOCTYPE svg PUBLIC "-//W3C//DTD SVG 1.1//EN"
 "http://www.w3.org/Graphics/SVG/1.1/DTD/svg11.dtd">
<!-- Generated by graphviz version 7.0.5 (20221223.1930)
 -->
<!-- Title: MemoryUsageReporter Pages: 1 -->
<svg width="228pt" height="82pt"
 viewBox="0.00 0.00 228.00 82.00" xmlns="http://www.w3.org/2000/svg" xmlns:xlink="http://www.w3.org/1999/xlink">
<g id="graph0" class="graph" transform="scale(1 1) rotate(0) translate(4 78)">
<title>MemoryUsageReporter</title>
<!-- Node1 -->
<g id="node1" class="node">
<title>Node1</title>
<g id="a_node1"><a xlink:title="Mix&#45;in class for querying memory metrics used by MemoryUsage and VectorMemoryUsage.">
<polygon fill="#999999" stroke="#666666" points="166,-74 35,-74 35,-55 166,-55 166,-74"/>
<text text-anchor="middle" x="100.5" y="-62" font-family="Courier,monospace" font-size="10.00">MemoryUsageReporter</text>
</a>
</g>
</g>
<!-- Node2 -->
<g id="node2" class="node">
<title>Node2</title>
<g id="a_node2"><a xlink:href="classMemoryUsage.html" target="_top" xlink:title="Output maximum, average, or total process memory usage.">
<polygon fill="white" stroke="#666666" points="83,-19 0,-19 0,0 83,0 83,-19"/>
<text text-anchor="middle" x="41.5" y="-7" font-family="Courier,monospace" font-size="10.00">MemoryUsage</text>
</a>
</g>
</g>
<!-- Node1&#45;&gt;Node2 -->
<g id="edge1" class="edge">
<title>Node1&#45;&gt;Node2</title>
<path fill="none" stroke="#63b8ff" d="M82.23,-47.09C72.04,-37.94 59.76,-26.9 51.36,-19.36"/>
<polygon fill="#63b8ff" stroke="#63b8ff" points="79.59,-49.42 89.37,-53.5 84.27,-44.21 79.59,-49.42"/>
</g>
<!-- Node3 -->
<g id="node3" class="node">
<title>Node3</title>
<g id="a_node3"><a xlink:href="classVectorMemoryUsage.html" target="_top" xlink:title="Generate a table of various memory metrics indexed by MPI rank.">
<polygon fill="white" stroke="#666666" points="220,-19 101,-19 101,0 220,0 220,-19"/>
<text text-anchor="middle" x="160.5" y="-7" font-family="Courier,monospace" font-size="10.00">VectorMemoryUsage</text>
</a>
</g>
</g>
<!-- Node1&#45;&gt;Node3 -->
<g id="edge2" class="edge">
<title>Node1&#45;&gt;Node3</title>
<path fill="none" stroke="#63b8ff" d="M119.08,-47.09C129.44,-37.94 141.93,-26.9 150.47,-19.36"/>
<polygon fill="#63b8ff" stroke="#63b8ff" points="116.99,-44.26 111.81,-53.51 121.62,-49.51 116.99,-44.26"/>
</g>
</g>
</svg>
