<?xml version="1.0" encoding="UTF-8" standalone="no"?>
<!DOCTYPE svg PUBLIC "-//W3C//DTD SVG 1.1//EN"
 "http://www.w3.org/Graphics/SVG/1.1/DTD/svg11.dtd">
<!-- Generated by graphviz version 7.0.5 (20221223.1930)
 -->
<!-- Title: Product1BodyScalarLog Pages: 1 -->
<svg width="1302pt" height="471pt"
 viewBox="0.00 0.00 1302.00 471.00" xmlns="http://www.w3.org/2000/svg" xmlns:xlink="http://www.w3.org/1999/xlink">
<g id="graph0" class="graph" transform="scale(1 1) rotate(0) translate(4 467)">
<title>Product1BodyScalarLog</title>
<!-- Node1 -->
<g id="node1" class="node">
<title>Node1</title>
<g id="a_node1"><a xlink:title=" ">
<polygon fill="#999999" stroke="#666666" points="1294,-185 1151,-185 1151,-166 1294,-166 1294,-185"/>
<text text-anchor="middle" x="1222.5" y="-173" font-family="Courier,monospace" font-size="10.00">Product1BodyScalarLog</text>
</a>
</g>
</g>
<!-- Node2 -->
<g id="node2" class="node">
<title>Node2</title>
<g id="a_node2"><a xlink:href="classODEKernel.html" target="_top" xlink:title=" ">
<polygon fill="white" stroke="#666666" points="1115,-185 1044,-185 1044,-166 1115,-166 1115,-185"/>
<text text-anchor="middle" x="1079.5" y="-173" font-family="Courier,monospace" font-size="10.00">ODEKernel</text>
</a>
</g>
</g>
<!-- Node2&#45;&gt;Node1 -->
<g id="edge1" class="edge">
<title>Node2&#45;&gt;Node1</title>
<path fill="none" stroke="#63b8ff" d="M1126.66,-175.5C1134.36,-175.5 1142.51,-175.5 1150.67,-175.5"/>
<polygon fill="#63b8ff" stroke="#63b8ff" points="1126.87,-172 1116.87,-175.5 1126.87,-179 1126.87,-172"/>
</g>
<!-- Node3 -->
<g id="node3" class="node">
<title>Node3</title>
<g id="a_node3"><a xlink:href="classScalarKernel.html" target="_top" xlink:title=" ">
<polygon fill="white" stroke="#666666" points="1008,-185 919,-185 919,-166 1008,-166 1008,-185"/>
<text text-anchor="middle" x="963.5" y="-173" font-family="Courier,monospace" font-size="10.00">ScalarKernel</text>
</a>
</g>
</g>
<!-- Node3&#45;&gt;Node2 -->
<g id="edge2" class="edge">
<title>Node3&#45;&gt;Node2</title>
<path fill="none" stroke="#63b8ff" d="M1019.64,-175.5C1027.78,-175.5 1035.96,-175.5 1043.53,-175.5"/>
<polygon fill="#63b8ff" stroke="#63b8ff" points="1019.76,-172 1009.76,-175.5 1019.76,-179 1019.76,-172"/>
</g>
<!-- Node4 -->
<g id="node4" class="node">
<title>Node4</title>
<g id="a_node4"><a xlink:href="classScalarKernelBase.html" target="_top" xlink:title="Base class shared by AD and non&#45;AD scalar kernels.">
<polygon fill="white" stroke="#666666" points="883,-185 770,-185 770,-166 883,-166 883,-185"/>
<text text-anchor="middle" x="826.5" y="-173" font-family="Courier,monospace" font-size="10.00">ScalarKernelBase</text>
</a>
</g>
</g>
<!-- Node4&#45;&gt;Node3 -->
<g id="edge3" class="edge">
<title>Node4&#45;&gt;Node3</title>
<path fill="none" stroke="#63b8ff" d="M894.46,-175.5C902.76,-175.5 911.07,-175.5 918.9,-175.5"/>
<polygon fill="#63b8ff" stroke="#63b8ff" points="894.7,-172 884.7,-175.5 894.7,-179 894.7,-172"/>
</g>
<!-- Node5 -->
<g id="node5" class="node">
<title>Node5</title>
<g id="a_node5"><a xlink:href="classResidualObject.html" target="_top" xlink:title="This is the common base class for objects that give residual contributions.">
<polygon fill="white" stroke="#666666" points="728,-204 627,-204 627,-185 728,-185 728,-204"/>
<text text-anchor="middle" x="677.5" y="-192" font-family="Courier,monospace" font-size="10.00">ResidualObject</text>
</a>
</g>
</g>
<!-- Node5&#45;&gt;Node4 -->
<g id="edge4" class="edge">
<title>Node5&#45;&gt;Node4</title>
<path fill="none" stroke="#63b8ff" d="M739.42,-186.63C749.46,-185.33 759.81,-183.99 769.72,-182.71"/>
<polygon fill="#63b8ff" stroke="#63b8ff" points="739.24,-183.12 729.77,-187.87 740.13,-190.06 739.24,-183.12"/>
</g>
<!-- Node6 -->
<g id="node6" class="node">
<title>Node6</title>
<g id="a_node6"><a xlink:href="classMooseObject.html" target="_top" xlink:title="Every object that can be built by the factory should be derived from this class.">
<polygon fill="white" stroke="#666666" points="534,-389 451,-389 451,-370 534,-370 534,-389"/>
<text text-anchor="middle" x="492.5" y="-377" font-family="Courier,monospace" font-size="10.00">MooseObject</text>
</a>
</g>
</g>
<!-- Node6&#45;&gt;Node5 -->
<g id="edge5" class="edge">
<title>Node6&#45;&gt;Node5</title>
<path fill="none" stroke="#63b8ff" d="M545.34,-377.25C559.23,-374.63 573.56,-369.88 585,-361.5 641.29,-320.3 666.95,-233.57 674.23,-204.35"/>
<polygon fill="#63b8ff" stroke="#63b8ff" points="545.21,-373.73 535.85,-378.71 546.26,-380.65 545.21,-373.73"/>
</g>
<!-- Node7 -->
<g id="node7" class="node">
<title>Node7</title>
<g id="a_node7"><a xlink:href="classMooseBase.html" target="_top" xlink:title="Base class for everything in MOOSE with a name and a type.">
<polygon fill="white" stroke="#666666" points="310,-463 239,-463 239,-444 310,-444 310,-463"/>
<text text-anchor="middle" x="274.5" y="-451" font-family="Courier,monospace" font-size="10.00">MooseBase</text>
</a>
</g>
</g>
<!-- Node7&#45;&gt;Node6 -->
<g id="edge6" class="edge">
<title>Node7&#45;&gt;Node6</title>
<path fill="none" stroke="#63b8ff" d="M321.62,-446.05C335.41,-443.31 350.46,-439.8 364,-435.5 403.87,-422.85 448.08,-401.72 472.56,-389.35"/>
<polygon fill="#63b8ff" stroke="#63b8ff" points="321.06,-442.59 311.89,-447.89 322.36,-449.47 321.06,-442.59"/>
</g>
<!-- Node8 -->
<g id="node8" class="node">
<title>Node8</title>
<g id="a_node8"><a xlink:href="classMooseBaseParameterInterface.html" target="_top" xlink:title="Every object that can be built by the factory should be derived from this class.">
<polygon fill="white" stroke="#666666" points="364,-426 185,-426 185,-407 364,-407 364,-426"/>
<text text-anchor="middle" x="274.5" y="-414" font-family="Courier,monospace" font-size="10.00">MooseBaseParameterInterface</text>
</a>
</g>
</g>
<!-- Node8&#45;&gt;Node6 -->
<g id="edge7" class="edge">
<title>Node8&#45;&gt;Node6</title>
<path fill="none" stroke="#63b8ff" d="M344.77,-404.63C379.7,-398.65 420.85,-391.6 450.68,-386.49"/>
<polygon fill="#63b8ff" stroke="#63b8ff" points="344.43,-401.14 335.16,-406.28 345.61,-408.04 344.43,-401.14"/>
</g>
<!-- Node9 -->
<g id="node9" class="node">
<title>Node9</title>
<g id="a_node9"><a xlink:href="classMooseBaseErrorInterface.html" target="_top" xlink:title="Interface that provides APIs to output errors/warnings/info messages.">
<polygon fill="white" stroke="#666666" points="352,-389 197,-389 197,-370 352,-370 352,-389"/>
<text text-anchor="middle" x="274.5" y="-377" font-family="Courier,monospace" font-size="10.00">MooseBaseErrorInterface</text>
</a>
</g>
</g>
<!-- Node9&#45;&gt;Node6 -->
<g id="edge8" class="edge">
<title>Node9&#45;&gt;Node6</title>
<path fill="none" stroke="#63b8ff" d="M363.7,-379.5C393.87,-379.5 426.17,-379.5 450.75,-379.5"/>
<polygon fill="#63b8ff" stroke="#63b8ff" points="363.78,-376 353.78,-379.5 363.78,-383 363.78,-376"/>
</g>
<!-- Node10 -->
<g id="node10" class="node">
<title>Node10</title>
<g id="a_node10"><a xlink:href="classConsoleStreamInterface.html" target="_top" xlink:title="An inteface for the _console for outputting to the Console object.">
<polygon fill="white" stroke="#666666" points="149,-389 0,-389 0,-370 149,-370 149,-389"/>
<text text-anchor="middle" x="74.5" y="-377" font-family="Courier,monospace" font-size="10.00">ConsoleStreamInterface</text>
</a>
</g>
</g>
<!-- Node10&#45;&gt;Node9 -->
<g id="edge9" class="edge">
<title>Node10&#45;&gt;Node9</title>
<path fill="none" stroke="#63b8ff" d="M160.62,-379.5C172.62,-379.5 184.9,-379.5 196.73,-379.5"/>
<polygon fill="#63b8ff" stroke="#63b8ff" points="160.74,-376 150.74,-379.5 160.74,-383 160.74,-376"/>
</g>
<!-- Node11 -->
<g id="node11" class="node">
<title>Node11</title>
<g id="a_node11"><a xlink:title=" ">
<polygon fill="white" stroke="#666666" points="352,-352 197,-352 197,-333 352,-333 352,-352"/>
<text text-anchor="middle" x="274.5" y="-340" font-family="Courier,monospace" font-size="10.00">libMesh::ParallelObject</text>
</a>
</g>
</g>
<!-- Node11&#45;&gt;Node6 -->
<g id="edge10" class="edge">
<title>Node11&#45;&gt;Node6</title>
<path fill="none" stroke="#63b8ff" d="M344.77,-354.37C379.7,-360.35 420.85,-367.4 450.68,-372.51"/>
<polygon fill="#63b8ff" stroke="#63b8ff" points="345.61,-350.96 335.16,-352.72 344.43,-357.86 345.61,-350.96"/>
</g>
<!-- Node12 -->
<g id="node12" class="node">
<title>Node12</title>
<g id="a_node12"><a xlink:href="classDataFileInterface.html" target="_top" xlink:title=" ">
<polygon fill="white" stroke="#666666" points="337,-314.5 212,-314.5 212,-284.5 337,-284.5 337,-314.5"/>
<text text-anchor="start" x="220" y="-302.5" font-family="Courier,monospace" font-size="10.00">DataFileInterface&lt;</text>
<text text-anchor="middle" x="274.5" y="-291.5" font-family="Courier,monospace" font-size="10.00"> MooseObject &gt;</text>
</a>
</g>
</g>
<!-- Node12&#45;&gt;Node6 -->
<g id="edge11" class="edge">
<title>Node12&#45;&gt;Node6</title>
<path fill="none" stroke="#63b8ff" d="M347.62,-316.35C353.32,-318.73 358.86,-321.44 364,-324.5 383.71,-336.24 379.83,-350.57 400,-361.5 415.37,-369.83 434.06,-374.34 450.53,-376.76"/>
<polygon fill="#63b8ff" stroke="#63b8ff" points="349.23,-313.22 338.64,-312.94 346.74,-319.76 349.23,-313.22"/>
</g>
<!-- Node13 -->
<g id="node13" class="node">
<title>Node13</title>
<g id="a_node13"><a xlink:href="classSetupInterface.html" target="_top" xlink:title=" ">
<polygon fill="white" stroke="#666666" points="543,-352 442,-352 442,-333 543,-333 543,-352"/>
<text text-anchor="middle" x="492.5" y="-340" font-family="Courier,monospace" font-size="10.00">SetupInterface</text>
</a>
</g>
</g>
<!-- Node13&#45;&gt;Node5 -->
<g id="edge12" class="edge">
<title>Node13&#45;&gt;Node5</title>
<path fill="none" stroke="#63b8ff" d="M554.34,-337.28C565.13,-334.52 575.83,-330.45 585,-324.5 632.45,-293.69 662.58,-228.86 672.7,-204.25"/>
<polygon fill="#63b8ff" stroke="#63b8ff" points="553.65,-333.85 544.61,-339.38 555.13,-340.69 553.65,-333.85"/>
</g>
<!-- Node14 -->
<g id="node14" class="node">
<title>Node14</title>
<g id="a_node14"><a xlink:href="classFunctionInterface.html" target="_top" xlink:title="Interface for objects that need to use functions.">
<polygon fill="white" stroke="#666666" points="552,-315 433,-315 433,-296 552,-296 552,-315"/>
<text text-anchor="middle" x="492.5" y="-303" font-family="Courier,monospace" font-size="10.00">FunctionInterface</text>
</a>
</g>
</g>
<!-- Node14&#45;&gt;Node5 -->
<g id="edge13" class="edge">
<title>Node14&#45;&gt;Node5</title>
<path fill="none" stroke="#63b8ff" d="M563.47,-296.31C570.97,-294 578.3,-291.11 585,-287.5 623.89,-266.56 656.62,-223.56 670.01,-204.26"/>
<polygon fill="#63b8ff" stroke="#63b8ff" points="562.61,-292.92 553.88,-298.91 564.44,-299.68 562.61,-292.92"/>
</g>
<!-- Node15 -->
<g id="node15" class="node">
<title>Node15</title>
<g id="a_node15"><a xlink:href="classUserObjectInterface.html" target="_top" xlink:title="Interface for objects that need to use UserObjects.">
<polygon fill="white" stroke="#666666" points="558,-278 427,-278 427,-259 558,-259 558,-278"/>
<text text-anchor="middle" x="492.5" y="-266" font-family="Courier,monospace" font-size="10.00">UserObjectInterface</text>
</a>
</g>
</g>
<!-- Node15&#45;&gt;Node5 -->
<g id="edge14" class="edge">
<title>Node15&#45;&gt;Node5</title>
<path fill="none" stroke="#63b8ff" d="M569.38,-255.77C574.73,-254.21 579.98,-252.46 585,-250.5 615.19,-238.73 646.61,-217.09 663.64,-204.43"/>
<polygon fill="#63b8ff" stroke="#63b8ff" points="568.53,-252.38 559.78,-258.35 570.34,-259.14 568.53,-252.38"/>
</g>
<!-- Node16 -->
<g id="node16" class="node">
<title>Node16</title>
<g id="a_node16"><a xlink:href="classTransientInterface.html" target="_top" xlink:title="Interface for objects that needs transient capabilities.">
<polygon fill="white" stroke="#666666" points="555,-241 430,-241 430,-222 555,-222 555,-241"/>
<text text-anchor="middle" x="492.5" y="-229" font-family="Courier,monospace" font-size="10.00">TransientInterface</text>
</a>
</g>
</g>
<!-- Node16&#45;&gt;Node5 -->
<g id="edge15" class="edge">
<title>Node16&#45;&gt;Node5</title>
<path fill="none" stroke="#63b8ff" d="M556.06,-219.28C565.75,-217.37 575.65,-215.39 585,-213.5 599.31,-210.61 614.87,-207.4 629.03,-204.46"/>
<polygon fill="#63b8ff" stroke="#63b8ff" points="555.43,-215.84 546.3,-221.21 556.79,-222.71 555.43,-215.84"/>
</g>
<!-- Node17 -->
<g id="node17" class="node">
<title>Node17</title>
<g id="a_node17"><a xlink:href="classPostprocessorInterface.html" target="_top" xlink:title="Interface class for classes which interact with Postprocessors.">
<polygon fill="white" stroke="#666666" points="567,-204 418,-204 418,-185 567,-185 567,-204"/>
<text text-anchor="middle" x="492.5" y="-192" font-family="Courier,monospace" font-size="10.00">PostprocessorInterface</text>
</a>
</g>
</g>
<!-- Node17&#45;&gt;Node5 -->
<g id="edge16" class="edge">
<title>Node17&#45;&gt;Node5</title>
<path fill="none" stroke="#63b8ff" d="M578.72,-194.5C595.16,-194.5 611.87,-194.5 626.71,-194.5"/>
<polygon fill="#63b8ff" stroke="#63b8ff" points="578.92,-191 568.92,-194.5 578.92,-198 578.92,-191"/>
</g>
<!-- Node18 -->
<g id="node18" class="node">
<title>Node18</title>
<g id="a_node18"><a xlink:href="classVectorPostprocessorInterface.html" target="_top" xlink:title=" ">
<polygon fill="white" stroke="#666666" points="585,-167 400,-167 400,-148 585,-148 585,-167"/>
<text text-anchor="middle" x="492.5" y="-155" font-family="Courier,monospace" font-size="10.00">VectorPostprocessorInterface</text>
</a>
</g>
</g>
<!-- Node18&#45;&gt;Node5 -->
<g id="edge17" class="edge">
<title>Node18&#45;&gt;Node5</title>
<path fill="none" stroke="#63b8ff" d="M553.62,-169.65C577.5,-174.48 604.64,-179.97 627.32,-184.56"/>
<polygon fill="#63b8ff" stroke="#63b8ff" points="554.52,-166.27 544.02,-167.72 553.13,-173.13 554.52,-166.27"/>
</g>
<!-- Node19 -->
<g id="node19" class="node">
<title>Node19</title>
<g id="a_node19"><a xlink:href="classRandomInterface.html" target="_top" xlink:title="Interface for objects that need parallel consistent random numbers without patterns over the course o...">
<polygon fill="white" stroke="#666666" points="546,-130 439,-130 439,-111 546,-111 546,-130"/>
<text text-anchor="middle" x="492.5" y="-118" font-family="Courier,monospace" font-size="10.00">RandomInterface</text>
</a>
</g>
</g>
<!-- Node19&#45;&gt;Node5 -->
<g id="edge18" class="edge">
<title>Node19&#45;&gt;Node5</title>
<path fill="none" stroke="#63b8ff" d="M557.17,-127.72C566.85,-130.3 576.45,-133.79 585,-138.5 605.38,-149.72 601.33,-164.08 621,-176.5 626.05,-179.69 631.73,-182.37 637.46,-184.59"/>
<polygon fill="#63b8ff" stroke="#63b8ff" points="558.26,-124.38 547.73,-125.51 556.67,-131.2 558.26,-124.38"/>
</g>
<!-- Node20 -->
<g id="node20" class="node">
<title>Node20</title>
<g id="a_node20"><a xlink:href="classRestartable.html" target="_top" xlink:title="A class for creating restricted objects.">
<polygon fill="white" stroke="#666666" points="534,-93 451,-93 451,-74 534,-74 534,-93"/>
<text text-anchor="middle" x="492.5" y="-81" font-family="Courier,monospace" font-size="10.00">Restartable</text>
</a>
</g>
</g>
<!-- Node20&#45;&gt;Node5 -->
<g id="edge19" class="edge">
<title>Node20&#45;&gt;Node5</title>
<path fill="none" stroke="#63b8ff" d="M545.26,-85.28C559.28,-87.89 573.69,-92.74 585,-101.5 614.24,-124.13 593.16,-152.16 621,-176.5 624.74,-179.77 629.08,-182.44 633.65,-184.63"/>
<polygon fill="#63b8ff" stroke="#63b8ff" points="546.07,-81.86 535.67,-83.86 545.05,-88.79 546.07,-81.86"/>
</g>
<!-- Node21 -->
<g id="node21" class="node">
<title>Node21</title>
<g id="a_node21"><a xlink:href="classMeshChangedInterface.html" target="_top" xlink:title="Interface for notifications that the mesh has changed.">
<polygon fill="white" stroke="#666666" points="561,-56 424,-56 424,-37 561,-37 561,-56"/>
<text text-anchor="middle" x="492.5" y="-44" font-family="Courier,monospace" font-size="10.00">MeshChangedInterface</text>
</a>
</g>
</g>
<!-- Node21&#45;&gt;Node5 -->
<g id="edge20" class="edge">
<title>Node21&#45;&gt;Node5</title>
<path fill="none" stroke="#63b8ff" d="M571.63,-55.54C576.46,-57.97 580.98,-60.92 585,-64.5 624.07,-99.25 584.08,-139.48 621,-176.5 624.22,-179.73 628.02,-182.38 632.1,-184.55"/>
<polygon fill="#63b8ff" stroke="#63b8ff" points="573.35,-52.46 562.77,-51.84 570.65,-58.92 573.35,-52.46"/>
</g>
<!-- Node22 -->
<g id="node22" class="node">
<title>Node22</title>
<g id="a_node22"><a xlink:href="classTaggingInterface.html" target="_top" xlink:title=" ">
<polygon fill="white" stroke="#666666" points="549,-19 436,-19 436,0 549,0 549,-19"/>
<text text-anchor="middle" x="492.5" y="-7" font-family="Courier,monospace" font-size="10.00">TaggingInterface</text>
</a>
</g>
</g>
<!-- Node22&#45;&gt;Node5 -->
<g id="edge21" class="edge">
<title>Node22&#45;&gt;Node5</title>
<path fill="none" stroke="#63b8ff" d="M560.1,-13.23C569.33,-16.27 578.03,-20.82 585,-27.5 634.19,-74.63 574.71,-126.52 621,-176.5 624.03,-179.77 627.66,-182.45 631.59,-184.64"/>
<polygon fill="#63b8ff" stroke="#63b8ff" points="561.11,-9.88 550.55,-10.7 559.32,-16.65 561.11,-9.88"/>
</g>
<!-- Node23 -->
<g id="node23" class="node">
<title>Node23</title>
<g id="a_node23"><a xlink:href="classScalarCoupleable.html" target="_top" xlink:title="Interface for objects that needs scalar coupling capabilities.">
<polygon fill="white" stroke="#666666" points="734,-167 621,-167 621,-148 734,-148 734,-167"/>
<text text-anchor="middle" x="677.5" y="-155" font-family="Courier,monospace" font-size="10.00">ScalarCoupleable</text>
</a>
</g>
</g>
<!-- Node23&#45;&gt;Node4 -->
<g id="edge22" class="edge">
<title>Node23&#45;&gt;Node4</title>
<path fill="none" stroke="#63b8ff" d="M745.71,-165.73C753.72,-166.71 761.83,-167.7 769.66,-168.66"/>
<polygon fill="#63b8ff" stroke="#63b8ff" points="746.35,-162.28 736,-164.54 745.5,-169.23 746.35,-162.28"/>
</g>
</g>
</svg>
