<?xml version="1.0" encoding="UTF-8" standalone="no"?>
<!DOCTYPE svg PUBLIC "-//W3C//DTD SVG 1.1//EN"
 "http://www.w3.org/Graphics/SVG/1.1/DTD/svg11.dtd">
<!-- Generated by graphviz version 7.0.5 (20221223.1930)
 -->
<!-- Title: NodalVariablePostprocessor Pages: 1 -->
<!--zoomable 724 -->
<svg id="main" version="1.1" xmlns="http://www.w3.org/2000/svg" xmlns:xlink="http://www.w3.org/1999/xlink" xml:space="preserve" onload="init(evt)">
<style type="text/css"><![CDATA[
.edge:hover path { stroke: red; }
.edge:hover polygon { stroke: red; fill: red; }
]]></style>
<script type="text/javascript"><![CDATA[
var edges = document.getElementsByTagName('g');
if (edges && edges.length) {
  for (var i=0;i<edges.length;i++) {
    if (edges[i].id.substr(0,4)=='edge') {
      edges[i].setAttribute('class','edge');
    }
  }
}
]]></script>
        <defs>
                <circle id="rim" cx="0" cy="0" r="7"/>
                <circle id="rim2" cx="0" cy="0" r="3.5"/>
                <g id="zoomPlus">
                        <use xlink:href="#rim" fill="#404040">
                                <set attributeName="fill" to="#808080" begin="zoomplus.mouseover" end="zoomplus.mouseout"/>
                        </use>
                        <path d="M-4,0h8M0,-4v8" fill="none" stroke="white" stroke-width="1.5" pointer-events="none"/>
                </g>
                <g id="zoomMin">
                        <use xlink:href="#rim" fill="#404040">
                                <set attributeName="fill" to="#808080" begin="zoomminus.mouseover" end="zoomminus.mouseout"/>
                        </use>
                        <path d="M-4,0h8" fill="none" stroke="white" stroke-width="1.5" pointer-events="none"/>
                </g>
                <g id="dirArrow">
                        <path fill="none" stroke="white" stroke-width="1.5" d="M0,-3.0v7 M-2.5,-0.5L0,-3.0L2.5,-0.5"/>
                </g>
               <g id="resetDef">
                       <use xlink:href="#rim2" fill="#404040">
                               <set attributeName="fill" to="#808080" begin="reset.mouseover" end="reset.mouseout"/>
                       </use>
               </g>
        </defs>

<script type="text/javascript">
var viewWidth = 1769;
var viewHeight = 724;
var sectionId = 'dynsection-0';
</script>
<script xlink:href="svgpan.js"/>
<svg id="graph" class="graph">
<g id="viewport">
<title>NodalVariablePostprocessor</title>
<!-- Node1 -->
<g id="node1" class="node">
<title>Node1</title>
<g id="a_node1"><a xlink:title="This is a base class for other classes which compute post&#45;processed values based on nodal solution va...">
<polygon fill="#999999" stroke="#666666" points="1367,-167 1194,-167 1194,-148 1367,-148 1367,-167"/>
<text text-anchor="middle" x="1280.5" y="-155" font-family="Courier,monospace" font-size="10.00">NodalVariablePostprocessor</text>
</a>
</g>
</g>
<!-- Node40 -->
<g id="node40" class="node">
<title>Node40</title>
<g id="a_node40"><a xlink:href="classExtremeValueBase.html" target="_top" xlink:title=" ">
<polygon fill="white" stroke="#666666" points="1606,-326.5 1403,-326.5 1403,-296.5 1606,-296.5 1606,-326.5"/>
<text text-anchor="start" x="1411" y="-314.5" font-family="Courier,monospace" font-size="10.00">ExtremeValueBase&lt; NodalVariable</text>
<text text-anchor="middle" x="1504.5" y="-303.5" font-family="Courier,monospace" font-size="10.00">Postprocessor &gt;</text>
</a>
</g>
</g>
<!-- Node1&#45;&gt;Node40 -->
<g id="edge39" class="edge">
<title>Node1&#45;&gt;Node40</title>
<path fill="none" stroke="#63b8ff" d="M1294.01,-176.87C1313.63,-205.64 1354.48,-259.28 1403,-287.5 1408.66,-290.79 1414.75,-293.63 1421.03,-296.08"/>
<polygon fill="#63b8ff" stroke="#63b8ff" points="1297.05,-175.13 1288.6,-168.75 1291.23,-179.01 1297.05,-175.13"/>
</g>
<!-- Node42 -->
<g id="node42" class="node">
<title>Node42</title>
<g id="a_node42"><a xlink:href="classAverageNodalDensity.html" target="_top" xlink:title=" ">
<polygon fill="white" stroke="#666666" points="1570,-278 1439,-278 1439,-259 1570,-259 1570,-278"/>
<text text-anchor="middle" x="1504.5" y="-266" font-family="Courier,monospace" font-size="10.00">AverageNodalDensity</text>
</a>
</g>
</g>
<!-- Node1&#45;&gt;Node42 -->
<g id="edge41" class="edge">
<title>Node1&#45;&gt;Node42</title>
<path fill="none" stroke="#63b8ff" d="M1298.89,-175.24C1321.01,-196.68 1361.34,-232.13 1403,-250.5 1414.11,-255.4 1426.47,-258.96 1438.62,-261.56"/>
<polygon fill="#63b8ff" stroke="#63b8ff" points="1301.48,-172.88 1291.91,-168.33 1296.55,-177.85 1301.48,-172.88"/>
</g>
<!-- Node43 -->
<g id="node43" class="node">
<title>Node43</title>
<g id="a_node43"><a xlink:href="classAverageNodalDifference.html" target="_top" xlink:title=" ">
<polygon fill="white" stroke="#666666" points="1579,-241 1430,-241 1430,-222 1579,-222 1579,-241"/>
<text text-anchor="middle" x="1504.5" y="-229" font-family="Courier,monospace" font-size="10.00">AverageNodalDifference</text>
</a>
</g>
</g>
<!-- Node1&#45;&gt;Node43 -->
<g id="edge42" class="edge">
<title>Node1&#45;&gt;Node43</title>
<path fill="none" stroke="#63b8ff" d="M1308.89,-172.58C1333.01,-185.26 1369.42,-202.94 1403,-213.5 1413.06,-216.66 1423.87,-219.33 1434.55,-221.56"/>
<polygon fill="#63b8ff" stroke="#63b8ff" points="1310.85,-169.66 1300.38,-168.04 1307.55,-175.84 1310.85,-169.66"/>
</g>
<!-- Node44 -->
<g id="node44" class="node">
<title>Node44</title>
<g id="a_node44"><a xlink:href="classAverageNodalVariableValue.html" target="_top" xlink:title=" ">
<polygon fill="white" stroke="#666666" points="1588,-204 1421,-204 1421,-185 1588,-185 1588,-204"/>
<text text-anchor="middle" x="1504.5" y="-192" font-family="Courier,monospace" font-size="10.00">AverageNodalVariableValue</text>
</a>
</g>
</g>
<!-- Node1&#45;&gt;Node44 -->
<g id="edge43" class="edge">
<title>Node1&#45;&gt;Node44</title>
<path fill="none" stroke="#63b8ff" d="M1352.32,-169.3C1381.72,-174.2 1415.47,-179.83 1443.61,-184.52"/>
<polygon fill="#63b8ff" stroke="#63b8ff" points="1353.22,-165.9 1342.78,-167.71 1352.07,-172.81 1353.22,-165.9"/>
</g>
<!-- Node45 -->
<g id="node45" class="node">
<title>Node45</title>
<g id="a_node45"><a xlink:href="classNodalL2Error.html" target="_top" xlink:title=" ">
<polygon fill="white" stroke="#666666" points="1549,-167 1460,-167 1460,-148 1549,-148 1549,-167"/>
<text text-anchor="middle" x="1504.5" y="-155" font-family="Courier,monospace" font-size="10.00">NodalL2Error</text>
</a>
</g>
</g>
<!-- Node1&#45;&gt;Node45 -->
<g id="edge44" class="edge">
<title>Node1&#45;&gt;Node45</title>
<path fill="none" stroke="#63b8ff" d="M1378.54,-157.5C1406.9,-157.5 1436.5,-157.5 1459.76,-157.5"/>
<polygon fill="#63b8ff" stroke="#63b8ff" points="1378.84,-154 1368.84,-157.5 1378.84,-161 1378.84,-154"/>
</g>
<!-- Node46 -->
<g id="node46" class="node">
<title>Node46</title>
<g id="a_node46"><a xlink:href="classNodalL2Norm.html" target="_top" xlink:title="Computes the &quot;nodal&quot; L2&#45;norm of the coupled variable, which is defined by summing the square of its v...">
<polygon fill="white" stroke="#666666" points="1546,-130 1463,-130 1463,-111 1546,-111 1546,-130"/>
<text text-anchor="middle" x="1504.5" y="-118" font-family="Courier,monospace" font-size="10.00">NodalL2Norm</text>
</a>
</g>
</g>
<!-- Node1&#45;&gt;Node46 -->
<g id="edge45" class="edge">
<title>Node1&#45;&gt;Node46</title>
<path fill="none" stroke="#63b8ff" d="M1352.34,-145.69C1388.72,-139.63 1431.74,-132.46 1462.57,-127.32"/>
<polygon fill="#63b8ff" stroke="#63b8ff" points="1352.07,-142.19 1342.78,-147.29 1353.22,-149.1 1352.07,-142.19"/>
</g>
<!-- Node47 -->
<g id="node47" class="node">
<title>Node47</title>
<g id="a_node47"><a xlink:href="classNodalMaxValue.html" target="_top" xlink:title="This class computes a maximum (over all the nodal values) of the coupled variable.">
<polygon fill="white" stroke="#666666" points="1552,-93 1457,-93 1457,-74 1552,-74 1552,-93"/>
<text text-anchor="middle" x="1504.5" y="-81" font-family="Courier,monospace" font-size="10.00">NodalMaxValue</text>
</a>
</g>
</g>
<!-- Node1&#45;&gt;Node47 -->
<g id="edge46" class="edge">
<title>Node1&#45;&gt;Node47</title>
<path fill="none" stroke="#63b8ff" d="M1308.89,-142.42C1333.01,-129.74 1369.42,-112.06 1403,-101.5 1420.16,-96.1 1439.52,-92.16 1456.62,-89.36"/>
<polygon fill="#63b8ff" stroke="#63b8ff" points="1307.55,-139.16 1300.38,-146.96 1310.85,-145.34 1307.55,-139.16"/>
</g>
<!-- Node48 -->
<g id="node48" class="node">
<title>Node48</title>
<g id="a_node48"><a xlink:href="classNodalMaxValueId.html" target="_top" xlink:title="Computes the id of the node with the maximum value across all processes.">
<polygon fill="white" stroke="#666666" points="1558,-56 1451,-56 1451,-37 1558,-37 1558,-56"/>
<text text-anchor="middle" x="1504.5" y="-44" font-family="Courier,monospace" font-size="10.00">NodalMaxValueId</text>
</a>
</g>
</g>
<!-- Node1&#45;&gt;Node48 -->
<g id="edge47" class="edge">
<title>Node1&#45;&gt;Node48</title>
<path fill="none" stroke="#63b8ff" d="M1298.89,-139.76C1321.01,-118.32 1361.34,-82.87 1403,-64.5 1417.84,-57.96 1434.91,-53.79 1450.72,-51.14"/>
<polygon fill="#63b8ff" stroke="#63b8ff" points="1296.55,-137.15 1291.91,-146.67 1301.48,-142.12 1296.55,-137.15"/>
</g>
<!-- Node49 -->
<g id="node49" class="node">
<title>Node49</title>
<g id="a_node49"><a xlink:href="classNodalSum.html" target="_top" xlink:title="Computes a sum of the nodal values of the coupled variable.">
<polygon fill="white" stroke="#666666" points="1537,-19 1472,-19 1472,0 1537,0 1537,-19"/>
<text text-anchor="middle" x="1504.5" y="-7" font-family="Courier,monospace" font-size="10.00">NodalSum</text>
</a>
</g>
</g>
<!-- Node1&#45;&gt;Node49 -->
<g id="edge48" class="edge">
<title>Node1&#45;&gt;Node49</title>
<path fill="none" stroke="#63b8ff" d="M1293.52,-138.2C1312.78,-109.08 1353.45,-54.45 1403,-27.5 1424.18,-15.98 1451.22,-11.62 1471.91,-10.06"/>
<polygon fill="#63b8ff" stroke="#63b8ff" points="1290.71,-136.11 1288.24,-146.41 1296.6,-139.9 1290.71,-136.11"/>
</g>
<!-- Node2 -->
<g id="node2" class="node">
<title>Node2</title>
<g id="a_node2"><a xlink:href="classNodalPostprocessor.html" target="_top" xlink:title=" ">
<polygon fill="white" stroke="#666666" points="1146,-189 1021,-189 1021,-170 1146,-170 1146,-189"/>
<text text-anchor="middle" x="1083.5" y="-177" font-family="Courier,monospace" font-size="10.00">NodalPostprocessor</text>
</a>
</g>
</g>
<!-- Node2&#45;&gt;Node1 -->
<g id="edge1" class="edge">
<title>Node2&#45;&gt;Node1</title>
<path fill="none" stroke="#63b8ff" d="M1157.61,-171.25C1169.42,-169.92 1181.75,-168.53 1193.82,-167.17"/>
<polygon fill="#63b8ff" stroke="#63b8ff" points="1157.52,-167.74 1147.97,-172.34 1158.3,-174.7 1157.52,-167.74"/>
</g>
<!-- Node3 -->
<g id="node3" class="node">
<title>Node3</title>
<g id="a_node3"><a xlink:href="classNodalUserObject.html" target="_top" xlink:title="A user object that runs over all the nodes and does an aggregation step to compute a single value.">
<polygon fill="white" stroke="#666666" points="973,-253 866,-253 866,-234 973,-234 973,-253"/>
<text text-anchor="middle" x="919.5" y="-241" font-family="Courier,monospace" font-size="10.00">NodalUserObject</text>
</a>
</g>
</g>
<!-- Node3&#45;&gt;Node2 -->
<g id="edge2" class="edge">
<title>Node3&#45;&gt;Node2</title>
<path fill="none" stroke="#63b8ff" d="M956.48,-229.29C987.11,-217.19 1030.33,-200.11 1057.37,-189.43"/>
<polygon fill="#63b8ff" stroke="#63b8ff" points="955.23,-226.01 947.22,-232.94 957.81,-232.52 955.23,-226.01"/>
</g>
<!-- Node4 -->
<g id="node4" class="node">
<title>Node4</title>
<g id="a_node4"><a xlink:href="classUserObject.html" target="_top" xlink:title="Base class for user&#45;specific data.">
<polygon fill="white" stroke="#666666" points="764,-383 687,-383 687,-364 764,-364 764,-383"/>
<text text-anchor="middle" x="725.5" y="-371" font-family="Courier,monospace" font-size="10.00">UserObject</text>
</a>
</g>
</g>
<!-- Node4&#45;&gt;Node3 -->
<g id="edge3" class="edge">
<title>Node4&#45;&gt;Node3</title>
<path fill="none" stroke="#63b8ff" d="M775.48,-372.25C793.62,-369.98 813.73,-365.19 830,-355.5 872.8,-330.01 902.95,-275.5 913.93,-253.26"/>
<polygon fill="#63b8ff" stroke="#63b8ff" points="775.29,-368.75 765.69,-373.23 775.99,-375.72 775.29,-368.75"/>
</g>
<!-- Node5 -->
<g id="node5" class="node">
<title>Node5</title>
<g id="a_node5"><a xlink:href="classMooseObject.html" target="_top" xlink:title="Every object that can be built by the factory should be derived from this class.">
<polygon fill="white" stroke="#666666" points="534,-642 451,-642 451,-623 534,-623 534,-642"/>
<text text-anchor="middle" x="492.5" y="-630" font-family="Courier,monospace" font-size="10.00">MooseObject</text>
</a>
</g>
</g>
<!-- Node5&#45;&gt;Node4 -->
<g id="edge4" class="edge">
<title>Node5&#45;&gt;Node4</title>
<path fill="none" stroke="#63b8ff" d="M545.21,-630.08C559.11,-627.45 573.46,-622.74 585,-614.5 671.16,-552.97 711.99,-420.34 722,-383.29"/>
<polygon fill="#63b8ff" stroke="#63b8ff" points="545.08,-626.56 535.73,-631.54 546.15,-633.48 545.08,-626.56"/>
</g>
<!-- Node6 -->
<g id="node6" class="node">
<title>Node6</title>
<g id="a_node6"><a xlink:href="classMooseBase.html" target="_top" xlink:title="Base class for everything in MOOSE with a name and a type.">
<polygon fill="white" stroke="#666666" points="310,-716 239,-716 239,-697 310,-697 310,-716"/>
<text text-anchor="middle" x="274.5" y="-704" font-family="Courier,monospace" font-size="10.00">MooseBase</text>
</a>
</g>
</g>
<!-- Node6&#45;&gt;Node5 -->
<g id="edge5" class="edge">
<title>Node6&#45;&gt;Node5</title>
<path fill="none" stroke="#63b8ff" d="M321.62,-699.05C335.41,-696.31 350.46,-692.8 364,-688.5 403.87,-675.85 448.08,-654.72 472.56,-642.35"/>
<polygon fill="#63b8ff" stroke="#63b8ff" points="321.06,-695.59 311.89,-700.89 322.36,-702.47 321.06,-695.59"/>
</g>
<!-- Node7 -->
<g id="node7" class="node">
<title>Node7</title>
<g id="a_node7"><a xlink:href="classMooseBaseParameterInterface.html" target="_top" xlink:title="Every object that can be built by the factory should be derived from this class.">
<polygon fill="white" stroke="#666666" points="364,-679 185,-679 185,-660 364,-660 364,-679"/>
<text text-anchor="middle" x="274.5" y="-667" font-family="Courier,monospace" font-size="10.00">MooseBaseParameterInterface</text>
</a>
</g>
</g>
<!-- Node7&#45;&gt;Node5 -->
<g id="edge6" class="edge">
<title>Node7&#45;&gt;Node5</title>
<path fill="none" stroke="#63b8ff" d="M344.77,-657.63C379.7,-651.65 420.85,-644.6 450.68,-639.49"/>
<polygon fill="#63b8ff" stroke="#63b8ff" points="344.43,-654.14 335.16,-659.28 345.61,-661.04 344.43,-654.14"/>
</g>
<!-- Node8 -->
<g id="node8" class="node">
<title>Node8</title>
<g id="a_node8"><a xlink:href="classMooseBaseErrorInterface.html" target="_top" xlink:title="Interface that provides APIs to output errors/warnings/info messages.">
<polygon fill="white" stroke="#666666" points="352,-642 197,-642 197,-623 352,-623 352,-642"/>
<text text-anchor="middle" x="274.5" y="-630" font-family="Courier,monospace" font-size="10.00">MooseBaseErrorInterface</text>
</a>
</g>
</g>
<!-- Node8&#45;&gt;Node5 -->
<g id="edge7" class="edge">
<title>Node8&#45;&gt;Node5</title>
<path fill="none" stroke="#63b8ff" d="M363.7,-632.5C393.87,-632.5 426.17,-632.5 450.75,-632.5"/>
<polygon fill="#63b8ff" stroke="#63b8ff" points="363.78,-629 353.78,-632.5 363.78,-636 363.78,-629"/>
</g>
<!-- Node9 -->
<g id="node9" class="node">
<title>Node9</title>
<g id="a_node9"><a xlink:href="classConsoleStreamInterface.html" target="_top" xlink:title="An inteface for the _console for outputting to the Console object.">
<polygon fill="white" stroke="#666666" points="149,-642 0,-642 0,-623 149,-623 149,-642"/>
<text text-anchor="middle" x="74.5" y="-630" font-family="Courier,monospace" font-size="10.00">ConsoleStreamInterface</text>
</a>
</g>
</g>
<!-- Node9&#45;&gt;Node8 -->
<g id="edge8" class="edge">
<title>Node9&#45;&gt;Node8</title>
<path fill="none" stroke="#63b8ff" d="M160.62,-632.5C172.62,-632.5 184.9,-632.5 196.73,-632.5"/>
<polygon fill="#63b8ff" stroke="#63b8ff" points="160.74,-629 150.74,-632.5 160.74,-636 160.74,-629"/>
</g>
<!-- Node10 -->
<g id="node10" class="node">
<title>Node10</title>
<g id="a_node10"><a xlink:title=" ">
<polygon fill="white" stroke="#666666" points="352,-605 197,-605 197,-586 352,-586 352,-605"/>
<text text-anchor="middle" x="274.5" y="-593" font-family="Courier,monospace" font-size="10.00">libMesh::ParallelObject</text>
</a>
</g>
</g>
<!-- Node10&#45;&gt;Node5 -->
<g id="edge9" class="edge">
<title>Node10&#45;&gt;Node5</title>
<path fill="none" stroke="#63b8ff" d="M344.77,-607.37C379.7,-613.35 420.85,-620.4 450.68,-625.51"/>
<polygon fill="#63b8ff" stroke="#63b8ff" points="345.61,-603.96 335.16,-605.72 344.43,-610.86 345.61,-603.96"/>
</g>
<!-- Node11 -->
<g id="node11" class="node">
<title>Node11</title>
<g id="a_node11"><a xlink:href="classDataFileInterface.html" target="_top" xlink:title=" ">
<polygon fill="white" stroke="#666666" points="337,-567.5 212,-567.5 212,-537.5 337,-537.5 337,-567.5"/>
<text text-anchor="start" x="220" y="-555.5" font-family="Courier,monospace" font-size="10.00">DataFileInterface&lt;</text>
<text text-anchor="middle" x="274.5" y="-544.5" font-family="Courier,monospace" font-size="10.00"> MooseObject &gt;</text>
</a>
</g>
</g>
<!-- Node11&#45;&gt;Node5 -->
<g id="edge10" class="edge">
<title>Node11&#45;&gt;Node5</title>
<path fill="none" stroke="#63b8ff" d="M347.62,-569.35C353.32,-571.73 358.86,-574.44 364,-577.5 383.71,-589.24 379.83,-603.57 400,-614.5 415.37,-622.83 434.06,-627.34 450.53,-629.76"/>
<polygon fill="#63b8ff" stroke="#63b8ff" points="349.23,-566.22 338.64,-565.94 346.74,-572.76 349.23,-566.22"/>
</g>
<!-- Node12 -->
<g id="node12" class="node">
<title>Node12</title>
<g id="a_node12"><a xlink:href="classSetupInterface.html" target="_top" xlink:title=" ">
<polygon fill="white" stroke="#666666" points="543,-605 442,-605 442,-586 543,-586 543,-605"/>
<text text-anchor="middle" x="492.5" y="-593" font-family="Courier,monospace" font-size="10.00">SetupInterface</text>
</a>
</g>
</g>
<!-- Node12&#45;&gt;Node4 -->
<g id="edge11" class="edge">
<title>Node12&#45;&gt;Node4</title>
<path fill="none" stroke="#63b8ff" d="M554.41,-590.38C565.19,-587.61 575.87,-583.52 585,-577.5 662.39,-526.51 708.5,-416.33 721.01,-383.15"/>
<polygon fill="#63b8ff" stroke="#63b8ff" points="553.71,-586.95 544.68,-592.49 555.2,-593.79 553.71,-586.95"/>
</g>
<!-- Node13 -->
<g id="node13" class="node">
<title>Node13</title>
<g id="a_node13"><a xlink:href="classFunctionInterface.html" target="_top" xlink:title="Interface for objects that need to use functions.">
<polygon fill="white" stroke="#666666" points="552,-568 433,-568 433,-549 552,-549 552,-568"/>
<text text-anchor="middle" x="492.5" y="-556" font-family="Courier,monospace" font-size="10.00">FunctionInterface</text>
</a>
</g>
</g>
<!-- Node13&#45;&gt;Node4 -->
<g id="edge12" class="edge">
<title>Node13&#45;&gt;Node4</title>
<path fill="none" stroke="darkgreen" d="M563.19,-550.04C570.84,-547.6 578.28,-544.48 585,-540.5 653.59,-499.89 703.88,-412.77 719.44,-383.4"/>
<polygon fill="darkgreen" stroke="darkgreen" points="562.45,-546.61 553.75,-552.66 564.32,-553.36 562.45,-546.61"/>
</g>
<!-- Node14 -->
<g id="node14" class="node">
<title>Node14</title>
<g id="a_node14"><a xlink:href="classUserObjectInterface.html" target="_top" xlink:title="Interface for objects that need to use UserObjects.">
<polygon fill="white" stroke="#666666" points="558,-531 427,-531 427,-512 558,-512 558,-531"/>
<text text-anchor="middle" x="492.5" y="-519" font-family="Courier,monospace" font-size="10.00">UserObjectInterface</text>
</a>
</g>
</g>
<!-- Node14&#45;&gt;Node4 -->
<g id="edge13" class="edge">
<title>Node14&#45;&gt;Node4</title>
<path fill="none" stroke="#63b8ff" d="M568.89,-510.24C574.47,-508.33 579.9,-506.1 585,-503.5 645.44,-472.63 698.54,-407.84 717.29,-383.25"/>
<polygon fill="#63b8ff" stroke="#63b8ff" points="568.04,-506.84 559.48,-513.08 570.06,-513.54 568.04,-506.84"/>
</g>
<!-- Node15 -->
<g id="node15" class="node">
<title>Node15</title>
<g id="a_node15"><a xlink:href="classPostprocessorInterface.html" target="_top" xlink:title="Interface class for classes which interact with Postprocessors.">
<polygon fill="white" stroke="#666666" points="567,-494 418,-494 418,-475 567,-475 567,-494"/>
<text text-anchor="middle" x="492.5" y="-482" font-family="Courier,monospace" font-size="10.00">PostprocessorInterface</text>
</a>
</g>
</g>
<!-- Node15&#45;&gt;Node4 -->
<g id="edge14" class="edge">
<title>Node15&#45;&gt;Node4</title>
<path fill="none" stroke="darkgreen" d="M571.39,-471.4C576.05,-469.93 580.62,-468.31 585,-466.5 637.2,-444.97 690.4,-402.66 713.1,-383.43"/>
<polygon fill="darkgreen" stroke="darkgreen" points="570.49,-468.02 561.84,-474.13 572.41,-474.75 570.49,-468.02"/>
</g>
<!-- Node16 -->
<g id="node16" class="node">
<title>Node16</title>
<g id="a_node16"><a xlink:href="classVectorPostprocessorInterface.html" target="_top" xlink:title=" ">
<polygon fill="white" stroke="#666666" points="585,-457 400,-457 400,-438 585,-438 585,-457"/>
<text text-anchor="middle" x="492.5" y="-445" font-family="Courier,monospace" font-size="10.00">VectorPostprocessorInterface</text>
</a>
</g>
</g>
<!-- Node16&#45;&gt;Node4 -->
<g id="edge15" class="edge">
<title>Node16&#45;&gt;Node4</title>
<path fill="none" stroke="darkgreen" d="M563.53,-435.13C570.82,-433.42 578.09,-431.55 585,-429.5 628.29,-416.68 676.78,-395.61 703.67,-383.3"/>
<polygon fill="darkgreen" stroke="darkgreen" points="562.95,-431.67 553.95,-437.26 564.47,-438.51 562.95,-431.67"/>
</g>
<!-- Node17 -->
<g id="node17" class="node">
<title>Node17</title>
<g id="a_node17"><a xlink:href="classReporterInterface.html" target="_top" xlink:title="Interface to allow object to consume Reporter values.">
<polygon fill="white" stroke="#666666" points="552,-420 433,-420 433,-401 552,-401 552,-420"/>
<text text-anchor="middle" x="492.5" y="-408" font-family="Courier,monospace" font-size="10.00">ReporterInterface</text>
</a>
</g>
</g>
<!-- Node17&#45;&gt;Node4 -->
<g id="edge16" class="edge">
<title>Node17&#45;&gt;Node4</title>
<path fill="none" stroke="darkgreen" d="M563.56,-399.28C604.05,-392.79 653.42,-384.89 686.71,-379.55"/>
<polygon fill="darkgreen" stroke="darkgreen" points="563.2,-395.79 553.88,-400.83 564.31,-402.7 563.2,-395.79"/>
</g>
<!-- Node18 -->
<g id="node18" class="node">
<title>Node18</title>
<g id="a_node18"><a xlink:href="classDistributionInterface.html" target="_top" xlink:title="Interface for objects that need to use distributions.">
<polygon fill="white" stroke="#666666" points="564,-383 421,-383 421,-364 564,-364 564,-383"/>
<text text-anchor="middle" x="492.5" y="-371" font-family="Courier,monospace" font-size="10.00">DistributionInterface</text>
</a>
</g>
</g>
<!-- Node18&#45;&gt;Node4 -->
<g id="edge17" class="edge">
<title>Node18&#45;&gt;Node4</title>
<path fill="none" stroke="darkgreen" d="M575.43,-373.5C613.35,-373.5 656.56,-373.5 686.65,-373.5"/>
<polygon fill="darkgreen" stroke="darkgreen" points="575.89,-370 565.89,-373.5 575.89,-377 575.89,-370"/>
</g>
<!-- Node19 -->
<g id="node19" class="node">
<title>Node19</title>
<g id="a_node19"><a xlink:href="classSamplerInterface.html" target="_top" xlink:title="Interface for objects that need to use samplers.">
<polygon fill="white" stroke="#666666" points="549,-346 436,-346 436,-327 549,-327 549,-346"/>
<text text-anchor="middle" x="492.5" y="-334" font-family="Courier,monospace" font-size="10.00">SamplerInterface</text>
</a>
</g>
</g>
<!-- Node19&#45;&gt;Node4 -->
<g id="edge18" class="edge">
<title>Node19&#45;&gt;Node4</title>
<path fill="none" stroke="darkgreen" d="M560.71,-347.26C601.74,-353.84 652.7,-362 686.78,-367.46"/>
<polygon fill="darkgreen" stroke="darkgreen" points="561.34,-343.82 550.91,-345.7 560.23,-350.73 561.34,-343.82"/>
</g>
<!-- Node20 -->
<g id="node20" class="node">
<title>Node20</title>
<g id="a_node20"><a xlink:href="classRestartable.html" target="_top" xlink:title="A class for creating restricted objects.">
<polygon fill="white" stroke="#666666" points="534,-309 451,-309 451,-290 534,-290 534,-309"/>
<text text-anchor="middle" x="492.5" y="-297" font-family="Courier,monospace" font-size="10.00">Restartable</text>
</a>
</g>
</g>
<!-- Node20&#45;&gt;Node4 -->
<g id="edge19" class="edge">
<title>Node20&#45;&gt;Node4</title>
<path fill="none" stroke="darkgreen" d="M545.55,-304.79C558.97,-307.61 573,-311.91 585,-318.5 605.11,-329.54 600.71,-344.79 621,-355.5 641.16,-366.14 666.31,-370.68 686.77,-372.54"/>
<polygon fill="darkgreen" stroke="darkgreen" points="546.44,-301.39 535.97,-303.03 545.18,-308.28 546.44,-301.39"/>
</g>
<!-- Node21 -->
<g id="node21" class="node">
<title>Node21</title>
<g id="a_node21"><a xlink:href="classMeshMetaDataInterface.html" target="_top" xlink:title="The Interface used to retrieve mesh meta data (attributes) set by the MeshGenerator system.">
<polygon fill="white" stroke="#666666" points="564,-272 421,-272 421,-253 564,-253 564,-272"/>
<text text-anchor="middle" x="492.5" y="-260" font-family="Courier,monospace" font-size="10.00">MeshMetaDataInterface</text>
</a>
</g>
</g>
<!-- Node21&#45;&gt;Node4 -->
<g id="edge20" class="edge">
<title>Node21&#45;&gt;Node4</title>
<path fill="none" stroke="darkgreen" d="M574.84,-274.96C578.42,-276.87 581.83,-279.03 585,-281.5 613.86,-303.96 591.78,-333.51 621,-355.5 639.65,-369.54 665.53,-374.04 686.74,-375.03"/>
<polygon fill="darkgreen" stroke="darkgreen" points="576.32,-271.79 565.77,-270.89 573.46,-278.18 576.32,-271.79"/>
</g>
<!-- Node22 -->
<g id="node22" class="node">
<title>Node22</title>
<g id="a_node22"><a xlink:href="classMeshChangedInterface.html" target="_top" xlink:title="Interface for notifications that the mesh has changed.">
<polygon fill="white" stroke="#666666" points="561,-235 424,-235 424,-216 561,-216 561,-235"/>
<text text-anchor="middle" x="492.5" y="-223" font-family="Courier,monospace" font-size="10.00">MeshChangedInterface</text>
</a>
</g>
</g>
<!-- Node22&#45;&gt;Node4 -->
<g id="edge21" class="edge">
<title>Node22&#45;&gt;Node4</title>
<path fill="none" stroke="darkgreen" d="M571.65,-235.44C576.47,-237.91 580.98,-240.9 585,-244.5 623.61,-279.12 581.83,-321.51 621,-355.5 638.84,-370.98 665.12,-375.4 686.73,-376"/>
<polygon fill="darkgreen" stroke="darkgreen" points="573.36,-232.37 562.79,-231.66 570.61,-238.8 573.36,-232.37"/>
</g>
<!-- Node23 -->
<g id="node23" class="node">
<title>Node23</title>
<g id="a_node23"><a xlink:href="classScalarCoupleable.html" target="_top" xlink:title="Interface for objects that needs scalar coupling capabilities.">
<polygon fill="white" stroke="#666666" points="549,-198 436,-198 436,-179 549,-179 549,-198"/>
<text text-anchor="middle" x="492.5" y="-186" font-family="Courier,monospace" font-size="10.00">ScalarCoupleable</text>
</a>
</g>
</g>
<!-- Node23&#45;&gt;Node4 -->
<g id="edge22" class="edge">
<title>Node23&#45;&gt;Node4</title>
<path fill="none" stroke="darkgreen" d="M560.13,-193.01C569.36,-196.15 578.04,-200.77 585,-207.5 633.67,-254.55 571.57,-309.25 621,-355.5 638.31,-371.7 664.73,-376.09 686.54,-376.48"/>
<polygon fill="darkgreen" stroke="darkgreen" points="561.15,-189.66 550.58,-190.38 559.29,-196.41 561.15,-189.66"/>
</g>
<!-- Node24 -->
<g id="node24" class="node">
<title>Node24</title>
<g id="a_node24"><a xlink:href="classPerfGraphInterface.html" target="_top" xlink:title="Interface for objects interacting with the PerfGraph.">
<polygon fill="white" stroke="#666666" points="555,-161 430,-161 430,-142 555,-142 555,-161"/>
<text text-anchor="middle" x="492.5" y="-149" font-family="Courier,monospace" font-size="10.00">PerfGraphInterface</text>
</a>
</g>
</g>
<!-- Node24&#45;&gt;Node4 -->
<g id="edge23" class="edge">
<title>Node24&#45;&gt;Node4</title>
<path fill="none" stroke="darkgreen" d="M565.85,-157.83C572.97,-160.88 579.56,-164.99 585,-170.5 643.86,-230.1 561.18,-296.86 621,-355.5 638,-372.16 664.56,-376.51 686.52,-376.78"/>
<polygon fill="darkgreen" stroke="darkgreen" points="567.13,-154.57 556.54,-154.58 564.83,-161.18 567.13,-154.57"/>
</g>
<!-- Node25 -->
<g id="node25" class="node">
<title>Node25</title>
<g id="a_node25"><a xlink:href="classDependencyResolverInterface.html" target="_top" xlink:title="Interface for sorting dependent vectors of objects.">
<polygon fill="white" stroke="#666666" points="582,-124 403,-124 403,-105 582,-105 582,-124"/>
<text text-anchor="middle" x="492.5" y="-112" font-family="Courier,monospace" font-size="10.00">DependencyResolverInterface</text>
</a>
</g>
</g>
<!-- Node25&#45;&gt;Node4 -->
<g id="edge24" class="edge">
<title>Node25&#45;&gt;Node4</title>
<path fill="none" stroke="#63b8ff" d="M583.84,-131.34C584.23,-131.72 584.62,-132.11 585,-132.5 654.77,-204.69 550.44,-284.08 621,-355.5 637.79,-372.5 664.5,-376.81 686.58,-376.97"/>
<polygon fill="#63b8ff" stroke="#63b8ff" points="586.12,-128.68 576.07,-125.32 581.83,-134.21 586.12,-128.68"/>
</g>
<!-- Node26 -->
<g id="node26" class="node">
<title>Node26</title>
<g id="a_node26"><a xlink:href="classBlockRestrictable.html" target="_top" xlink:title="An interface that restricts an object to subdomains via the &#39;blocks&#39; input parameter.">
<polygon fill="white" stroke="#666666" points="785,-346 666,-346 666,-327 785,-327 785,-346"/>
<text text-anchor="middle" x="725.5" y="-334" font-family="Courier,monospace" font-size="10.00">BlockRestrictable</text>
</a>
</g>
</g>
<!-- Node26&#45;&gt;Node3 -->
<g id="edge25" class="edge">
<title>Node26&#45;&gt;Node3</title>
<path fill="none" stroke="#63b8ff" d="M796.38,-329.57C807.94,-326.96 819.55,-323.39 830,-318.5 864.11,-302.54 895.61,-269.88 910.11,-253.43"/>
<polygon fill="#63b8ff" stroke="#63b8ff" points="795.96,-326.09 786.84,-331.49 797.34,-332.95 795.96,-326.09"/>
</g>
<!-- Node27 -->
<g id="node27" class="node">
<title>Node27</title>
<g id="a_node27"><a xlink:href="classBoundaryRestrictable.html" target="_top" xlink:title="/class BoundaryRestrictable /brief Provides functionality for limiting the object to certain boundary...">
<polygon fill="white" stroke="#666666" points="794,-309 657,-309 657,-290 794,-290 794,-309"/>
<text text-anchor="middle" x="725.5" y="-297" font-family="Courier,monospace" font-size="10.00">BoundaryRestrictable</text>
</a>
</g>
</g>
<!-- Node27&#45;&gt;Node3 -->
<g id="edge26" class="edge">
<title>Node27&#45;&gt;Node3</title>
<path fill="none" stroke="#63b8ff" d="M805.39,-287.76C813.76,-285.93 822.1,-283.85 830,-281.5 854.52,-274.21 881.35,-262.06 898.96,-253.46"/>
<polygon fill="#63b8ff" stroke="#63b8ff" points="804.96,-284.28 795.88,-289.73 806.38,-291.13 804.96,-284.28"/>
</g>
<!-- Node28 -->
<g id="node28" class="node">
<title>Node28</title>
<g id="a_node28"><a xlink:href="classCoupleable.html" target="_top" xlink:title="Interface for objects that needs coupling capabilities.">
<polygon fill="white" stroke="#666666" points="764,-272 687,-272 687,-253 764,-253 764,-272"/>
<text text-anchor="middle" x="725.5" y="-260" font-family="Courier,monospace" font-size="10.00">Coupleable</text>
</a>
</g>
</g>
<!-- Node28&#45;&gt;Node3 -->
<g id="edge27" class="edge">
<title>Node28&#45;&gt;Node3</title>
<path fill="none" stroke="#63b8ff" d="M775.78,-257.62C803.33,-254.9 837.66,-251.5 865.75,-248.72"/>
<polygon fill="#63b8ff" stroke="#63b8ff" points="775.55,-254.13 765.94,-258.6 776.24,-261.1 775.55,-254.13"/>
</g>
<!-- Node29 -->
<g id="node29" class="node">
<title>Node29</title>
<g id="a_node29"><a xlink:href="classMooseVariableDependencyInterface.html" target="_top" xlink:title=" ">
<polygon fill="white" stroke="#666666" points="830,-235 621,-235 621,-216 830,-216 830,-235"/>
<text text-anchor="middle" x="725.5" y="-223" font-family="Courier,monospace" font-size="10.00">MooseVariableDependencyInterface</text>
</a>
</g>
</g>
<!-- Node29&#45;&gt;Node3 -->
<g id="edge28" class="edge">
<title>Node29&#45;&gt;Node3</title>
<path fill="none" stroke="#63b8ff" d="M841.72,-236.3C849.98,-237.08 858.04,-237.83 865.64,-238.54"/>
<polygon fill="#63b8ff" stroke="#63b8ff" points="842.16,-232.83 831.87,-235.38 841.5,-239.8 842.16,-232.83"/>
</g>
<!-- Node30 -->
<g id="node30" class="node">
<title>Node30</title>
<g id="a_node30"><a xlink:href="classTransientInterface.html" target="_top" xlink:title="Interface for objects that needs transient capabilities.">
<polygon fill="white" stroke="#666666" points="788,-198 663,-198 663,-179 788,-179 788,-198"/>
<text text-anchor="middle" x="725.5" y="-186" font-family="Courier,monospace" font-size="10.00">TransientInterface</text>
</a>
</g>
</g>
<!-- Node30&#45;&gt;Node3 -->
<g id="edge29" class="edge">
<title>Node30&#45;&gt;Node3</title>
<path fill="none" stroke="#63b8ff" d="M799.43,-199.94C809.77,-202.13 820.21,-204.64 830,-207.5 853.73,-214.42 879.81,-225.48 897.48,-233.52"/>
<polygon fill="#63b8ff" stroke="#63b8ff" points="800.26,-196.54 789.77,-198 798.88,-203.4 800.26,-196.54"/>
</g>
<!-- Node31 -->
<g id="node31" class="node">
<title>Node31</title>
<g id="a_node31"><a xlink:href="classRandomInterface.html" target="_top" xlink:title="Interface for objects that need parallel consistent random numbers without patterns over the course o...">
<polygon fill="white" stroke="#666666" points="779,-161 672,-161 672,-142 779,-142 779,-161"/>
<text text-anchor="middle" x="725.5" y="-149" font-family="Courier,monospace" font-size="10.00">RandomInterface</text>
</a>
</g>
</g>
<!-- Node31&#45;&gt;Node3 -->
<g id="edge30" class="edge">
<title>Node31&#45;&gt;Node3</title>
<path fill="none" stroke="#63b8ff" d="M790.56,-158.02C803.99,-160.82 817.77,-164.81 830,-170.5 863.59,-186.13 895.09,-217.59 909.8,-233.62"/>
<polygon fill="#63b8ff" stroke="#63b8ff" points="791.37,-154.62 780.9,-156.22 790.09,-161.5 791.37,-154.62"/>
</g>
<!-- Node32 -->
<g id="node32" class="node">
<title>Node32</title>
<g id="a_node32"><a xlink:href="classPostprocessor.html" target="_top" xlink:title="Base class for all Postprocessors.">
<polygon fill="white" stroke="#666666" points="967,-106 872,-106 872,-87 967,-87 967,-106"/>
<text text-anchor="middle" x="919.5" y="-94" font-family="Courier,monospace" font-size="10.00">Postprocessor</text>
</a>
</g>
</g>
<!-- Node32&#45;&gt;Node2 -->
<g id="edge31" class="edge">
<title>Node32&#45;&gt;Node2</title>
<path fill="none" stroke="#63b8ff" d="M939.86,-113.81C956.94,-128.23 983.08,-148.31 1009,-160.5 1016.63,-164.09 1025.04,-167.07 1033.37,-169.53"/>
<polygon fill="#63b8ff" stroke="#63b8ff" points="942.37,-111.35 932.51,-107.46 937.79,-116.64 942.37,-111.35"/>
</g>
<!-- Node33 -->
<g id="node33" class="node">
<title>Node33</title>
<g id="a_node33"><a xlink:href="classOutputInterface.html" target="_top" xlink:title="A class to provide an common interface to objects requiring &quot;outputs&quot; option.">
<polygon fill="white" stroke="#666666" points="779,-124 672,-124 672,-105 779,-105 779,-124"/>
<text text-anchor="middle" x="725.5" y="-112" font-family="Courier,monospace" font-size="10.00">OutputInterface</text>
</a>
</g>
</g>
<!-- Node33&#45;&gt;Node32 -->
<g id="edge32" class="edge">
<title>Node33&#45;&gt;Node32</title>
<path fill="none" stroke="#63b8ff" d="M790.93,-108.46C817.33,-105.98 847.32,-103.17 871.59,-100.9"/>
<polygon fill="#63b8ff" stroke="#63b8ff" points="790.61,-104.97 780.98,-109.39 791.26,-111.94 790.61,-104.97"/>
</g>
<!-- Node34 -->
<g id="node34" class="node">
<title>Node34</title>
<g id="a_node34"><a xlink:href="classNonADFunctorInterface.html" target="_top" xlink:title="An interface for accessing Moose::Functors for systems that do not care about automatic differentiati...">
<polygon fill="white" stroke="#666666" points="797,-87 654,-87 654,-68 797,-68 797,-87"/>
<text text-anchor="middle" x="725.5" y="-75" font-family="Courier,monospace" font-size="10.00">NonADFunctorInterface</text>
</a>
</g>
</g>
<!-- Node34&#45;&gt;Node32 -->
<g id="edge33" class="edge">
<title>Node34&#45;&gt;Node32</title>
<path fill="none" stroke="#63b8ff" d="M808.62,-85.63C830.19,-87.76 852.72,-89.99 871.72,-91.87"/>
<polygon fill="#63b8ff" stroke="#63b8ff" points="809.25,-82.17 798.95,-84.67 808.56,-89.14 809.25,-82.17"/>
</g>
<!-- Node35 -->
<g id="node35" class="node">
<title>Node35</title>
<g id="a_node35"><a xlink:href="classFunctorInterface.html" target="_top" xlink:title="An interface for accessing Moose::Functors.">
<polygon fill="white" stroke="#666666" points="549,-87 436,-87 436,-68 549,-68 549,-87"/>
<text text-anchor="middle" x="492.5" y="-75" font-family="Courier,monospace" font-size="10.00">FunctorInterface</text>
</a>
</g>
</g>
<!-- Node35&#45;&gt;Node34 -->
<g id="edge34" class="edge">
<title>Node35&#45;&gt;Node34</title>
<path fill="none" stroke="#63b8ff" d="M560.76,-77.5C589.96,-77.5 624.18,-77.5 653.77,-77.5"/>
<polygon fill="#63b8ff" stroke="#63b8ff" points="560.93,-74 550.93,-77.5 560.93,-81 560.93,-74"/>
</g>
<!-- Node36 -->
<g id="node36" class="node">
<title>Node36</title>
<g id="a_node36"><a xlink:href="classMoose_1_1FunctorBase.html" target="_top" xlink:title=" ">
<polygon fill="white" stroke="#666666" points="788,-49.5 663,-49.5 663,-19.5 788,-19.5 788,-49.5"/>
<text text-anchor="start" x="671" y="-37.5" font-family="Courier,monospace" font-size="10.00">Moose::FunctorBase</text>
<text text-anchor="middle" x="725.5" y="-26.5" font-family="Courier,monospace" font-size="10.00">&lt; Real &gt;</text>
</a>
</g>
</g>
<!-- Node36&#45;&gt;Node32 -->
<g id="edge35" class="edge">
<title>Node36&#45;&gt;Node32</title>
<path fill="none" stroke="#63b8ff" d="M799.44,-49.69C809.78,-52.34 820.22,-55.29 830,-58.5 853.99,-66.36 880.47,-78.17 898.16,-86.53"/>
<polygon fill="#63b8ff" stroke="#63b8ff" points="800.31,-46.3 789.76,-47.3 798.63,-53.1 800.31,-46.3"/>
</g>
<!-- Node37 -->
<g id="node37" class="node">
<title>Node37</title>
<g id="a_node37"><a xlink:href="classMoose_1_1FunctorAbstract.html" target="_top" xlink:title="Abstract base class that can be used to hold collections of functors.">
<polygon fill="white" stroke="#666666" points="567,-44 418,-44 418,-25 567,-25 567,-44"/>
<text text-anchor="middle" x="492.5" y="-32" font-family="Courier,monospace" font-size="10.00">Moose::FunctorAbstract</text>
</a>
</g>
</g>
<!-- Node37&#45;&gt;Node36 -->
<g id="edge36" class="edge">
<title>Node37&#45;&gt;Node36</title>
<path fill="none" stroke="#63b8ff" d="M578.58,-34.5C606.46,-34.5 636.88,-34.5 662.7,-34.5"/>
<polygon fill="#63b8ff" stroke="#63b8ff" points="578.74,-31 568.74,-34.5 578.74,-38 578.74,-31"/>
</g>
<!-- Node38 -->
<g id="node38" class="node">
<title>Node38</title>
<g id="a_node38"><a xlink:href="classFaceArgInterface.html" target="_top" xlink:title="A base class interface for both producers and consumers of functor face arguments,...">
<polygon fill="white" stroke="#666666" points="331,-44 218,-44 218,-25 331,-25 331,-44"/>
<text text-anchor="middle" x="274.5" y="-32" font-family="Courier,monospace" font-size="10.00">FaceArgInterface</text>
</a>
</g>
</g>
<!-- Node38&#45;&gt;Node37 -->
<g id="edge37" class="edge">
<title>Node38&#45;&gt;Node37</title>
<path fill="none" stroke="#63b8ff" d="M342.78,-34.5C366.49,-34.5 393.27,-34.5 417.51,-34.5"/>
<polygon fill="#63b8ff" stroke="#63b8ff" points="342.92,-31 332.92,-34.5 342.92,-38 342.92,-31"/>
</g>
<!-- Node39 -->
<g id="node39" class="node">
<title>Node39</title>
<g id="a_node39"><a xlink:href="classMooseVariableInterface.html" target="_top" xlink:title=" ">
<polygon fill="white" stroke="#666666" points="1158,-151.5 1009,-151.5 1009,-121.5 1158,-121.5 1158,-151.5"/>
<text text-anchor="start" x="1017" y="-139.5" font-family="Courier,monospace" font-size="10.00">MooseVariableInterface</text>
<text text-anchor="middle" x="1083.5" y="-128.5" font-family="Courier,monospace" font-size="10.00">&lt; Real &gt;</text>
</a>
</g>
</g>
<!-- Node39&#45;&gt;Node1 -->
<g id="edge38" class="edge">
<title>Node39&#45;&gt;Node1</title>
<path fill="none" stroke="#63b8ff" d="M1169.7,-145.68C1177.69,-146.54 1185.79,-147.41 1193.78,-148.27"/>
<polygon fill="#63b8ff" stroke="#63b8ff" points="1170.32,-142.22 1160,-144.63 1169.57,-149.18 1170.32,-142.22"/>
</g>
<!-- Node41 -->
<g id="node41" class="node">
<title>Node41</title>
<g id="a_node41"><a xlink:href="classNodalExtremeValue.html" target="_top" xlink:title="A postprocessor for collecting the nodal min or max value.">
<polygon fill="white" stroke="#666666" points="1761,-321 1642,-321 1642,-302 1761,-302 1761,-321"/>
<text text-anchor="middle" x="1701.5" y="-309" font-family="Courier,monospace" font-size="10.00">NodalExtremeValue</text>
</a>
</g>
</g>
<!-- Node40&#45;&gt;Node41 -->
<g id="edge40" class="edge">
<title>Node40&#45;&gt;Node41</title>
<path fill="none" stroke="#63b8ff" d="M1617.71,-311.5C1625.94,-311.5 1634.02,-311.5 1641.72,-311.5"/>
<polygon fill="#63b8ff" stroke="#63b8ff" points="1617.94,-308 1607.94,-311.5 1617.94,-315 1617.94,-308"/>
</g>
</g>
</svg>
        <g id="navigator" transform="translate(0 0)" fill="#404254">
                <rect fill="#f2f5e9" fill-opacity="0.5" stroke="#606060" stroke-width=".5" x="0" y="0" width="60" height="60"/>
                <use id="zoomplus" xlink:href="#zoomPlus" x="17" y="9" onmousedown="handleZoom(evt,'in')"/>
                <use id="zoomminus" xlink:href="#zoomMin" x="42" y="9" onmousedown="handleZoom(evt,'out')"/>
                <use id="reset" xlink:href="#resetDef" x="30" y="36" onmousedown="handleReset()"/>
                <g id="arrowUp" xlink:href="#dirArrow" transform="translate(30 24)" onmousedown="handlePan(0,-1)">
                  <use xlink:href="#rim" fill="#404040">
                        <set attributeName="fill" to="#808080" begin="arrowUp.mouseover" end="arrowUp.mouseout"/>
                  </use>
                  <path fill="none" stroke="white" stroke-width="1.5" d="M0,-3.0v7 M-2.5,-0.5L0,-3.0L2.5,-0.5"/>
                </g>
                <g id="arrowRight" xlink:href="#dirArrow" transform="rotate(90) translate(36 -43)" onmousedown="handlePan(1,0)">
                  <use xlink:href="#rim" fill="#404040">
                        <set attributeName="fill" to="#808080" begin="arrowRight.mouseover" end="arrowRight.mouseout"/>
                  </use>
                  <path fill="none" stroke="white" stroke-width="1.5" d="M0,-3.0v7 M-2.5,-0.5L0,-3.0L2.5,-0.5"/>
                </g>
                <g id="arrowDown" xlink:href="#dirArrow" transform="rotate(180) translate(-30 -48)" onmousedown="handlePan(0,1)">
                  <use xlink:href="#rim" fill="#404040">
                        <set attributeName="fill" to="#808080" begin="arrowDown.mouseover" end="arrowDown.mouseout"/>
                  </use>
                  <path fill="none" stroke="white" stroke-width="1.5" d="M0,-3.0v7 M-2.5,-0.5L0,-3.0L2.5,-0.5"/>
                </g>
                <g id="arrowLeft" xlink:href="#dirArrow" transform="rotate(270) translate(-36 17)" onmousedown="handlePan(-1,0)">
                  <use xlink:href="#rim" fill="#404040">
                        <set attributeName="fill" to="#808080" begin="arrowLeft.mouseover" end="arrowLeft.mouseout"/>
                  </use>
                  <path fill="none" stroke="white" stroke-width="1.5" d="M0,-3.0v7 M-2.5,-0.5L0,-3.0L2.5,-0.5"/>
                </g>
        </g>
        <svg viewBox="0 0 15 15" width="100%" height="30px" preserveAspectRatio="xMaxYMin meet">
         <g id="arrow_out" transform="scale(0.3 0.3)">
          <a xlink:href="classNodalVariablePostprocessor__inherit__graph_org.svg" target="_base">
           <rect id="button" ry="5" rx="5" y="6" x="6" height="38" width="38"
                fill="#f2f5e9" fill-opacity="0.5" stroke="#606060" stroke-width="1.0"/>
           <path id="arrow"
             d="M 11.500037,31.436501 C 11.940474,20.09759 22.043105,11.32322 32.158766,21.979434 L 37.068811,17.246167 C 37.068811,17.246167 37.088388,32 37.088388,32 L 22.160133,31.978069 C 22.160133,31.978069 26.997745,27.140456 26.997745,27.140456 C 18.528582,18.264221 13.291696,25.230495 11.500037,31.436501 z"
             style="fill:#404040;"/>
          </a>
         </g>
        </svg>
</svg>
