<?xml version="1.0" encoding="UTF-8" standalone="no"?>
<!DOCTYPE svg PUBLIC "-//W3C//DTD SVG 1.1//EN"
 "http://www.w3.org/Graphics/SVG/1.1/DTD/svg11.dtd">
<!-- Generated by graphviz version 7.0.5 (20221223.1930)
 -->
<!-- Title: IterationAdaptiveDT Pages: 1 -->
<svg width="873pt" height="187pt"
 viewBox="0.00 0.00 873.00 186.50" xmlns="http://www.w3.org/2000/svg" xmlns:xlink="http://www.w3.org/1999/xlink">
<g id="graph0" class="graph" transform="scale(1 1) rotate(0) translate(4 182.5)">
<title>IterationAdaptiveDT</title>
<!-- Node1 -->
<g id="node1" class="node">
<title>Node1</title>
<g id="a_node1"><a xlink:title="Adjust the timestep based on the number of iterations.">
<polygon fill="#999999" stroke="#666666" points="865,-48.5 734,-48.5 734,-29.5 865,-29.5 865,-48.5"/>
<text text-anchor="middle" x="799.5" y="-36.5" font-family="Courier,monospace" font-size="10.00">IterationAdaptiveDT</text>
</a>
</g>
</g>
<!-- Node2 -->
<g id="node2" class="node">
<title>Node2</title>
<g id="a_node2"><a xlink:href="classTimeStepper.html" target="_top" xlink:title="Base class for time stepping.">
<polygon fill="white" stroke="#666666" points="665,-67.5 582,-67.5 582,-48.5 665,-48.5 665,-67.5"/>
<text text-anchor="middle" x="623.5" y="-55.5" font-family="Courier,monospace" font-size="10.00">TimeStepper</text>
</a>
</g>
</g>
<!-- Node2&#45;&gt;Node1 -->
<g id="edge1" class="edge">
<title>Node2&#45;&gt;Node1</title>
<path fill="none" stroke="#63b8ff" d="M676.71,-52.3C694.66,-50.34 714.97,-48.12 733.79,-46.07"/>
<polygon fill="#63b8ff" stroke="#63b8ff" points="676.36,-48.82 666.8,-53.38 677.12,-55.77 676.36,-48.82"/>
</g>
<!-- Node3 -->
<g id="node3" class="node">
<title>Node3</title>
<g id="a_node3"><a xlink:href="classMooseObject.html" target="_top" xlink:title="Every object that can be built by the factory should be derived from this class.">
<polygon fill="white" stroke="#666666" points="498,-104.5 415,-104.5 415,-85.5 498,-85.5 498,-104.5"/>
<text text-anchor="middle" x="456.5" y="-92.5" font-family="Courier,monospace" font-size="10.00">MooseObject</text>
</a>
</g>
</g>
<!-- Node3&#45;&gt;Node2 -->
<g id="edge2" class="edge">
<title>Node3&#45;&gt;Node2</title>
<path fill="none" stroke="#63b8ff" d="M509.38,-83.37C532.68,-78.14 559.78,-72.06 581.61,-67.17"/>
<polygon fill="#63b8ff" stroke="#63b8ff" points="508.76,-79.92 499.76,-85.52 510.29,-86.75 508.76,-79.92"/>
</g>
<!-- Node4 -->
<g id="node4" class="node">
<title>Node4</title>
<g id="a_node4"><a xlink:href="classMooseBase.html" target="_top" xlink:title="Base class for everything in MOOSE with a name and a type.">
<polygon fill="white" stroke="#666666" points="310,-178.5 239,-178.5 239,-159.5 310,-159.5 310,-178.5"/>
<text text-anchor="middle" x="274.5" y="-166.5" font-family="Courier,monospace" font-size="10.00">MooseBase</text>
</a>
</g>
</g>
<!-- Node4&#45;&gt;Node3 -->
<g id="edge3" class="edge">
<title>Node4&#45;&gt;Node3</title>
<path fill="none" stroke="#63b8ff" d="M321.67,-162.75C335.57,-160.04 350.66,-156.25 364,-151 394.16,-139.13 425.59,-117.53 442.63,-104.9"/>
<polygon fill="#63b8ff" stroke="#63b8ff" points="321.06,-159.31 311.83,-164.52 322.29,-166.2 321.06,-159.31"/>
</g>
<!-- Node5 -->
<g id="node5" class="node">
<title>Node5</title>
<g id="a_node5"><a xlink:href="classMooseBaseParameterInterface.html" target="_top" xlink:title="Every object that can be built by the factory should be derived from this class.">
<polygon fill="white" stroke="#666666" points="364,-141.5 185,-141.5 185,-122.5 364,-122.5 364,-141.5"/>
<text text-anchor="middle" x="274.5" y="-129.5" font-family="Courier,monospace" font-size="10.00">MooseBaseParameterInterface</text>
</a>
</g>
</g>
<!-- Node5&#45;&gt;Node3 -->
<g id="edge4" class="edge">
<title>Node5&#45;&gt;Node3</title>
<path fill="none" stroke="#63b8ff" d="M335.65,-119.8C345.14,-117.87 354.84,-115.88 364,-114 380.53,-110.6 398.73,-106.83 414.51,-103.55"/>
<polygon fill="#63b8ff" stroke="#63b8ff" points="335.24,-116.31 326.14,-121.74 336.64,-123.17 335.24,-116.31"/>
</g>
<!-- Node6 -->
<g id="node6" class="node">
<title>Node6</title>
<g id="a_node6"><a xlink:href="classMooseBaseErrorInterface.html" target="_top" xlink:title="Interface that provides APIs to output errors/warnings/info messages.">
<polygon fill="white" stroke="#666666" points="352,-104.5 197,-104.5 197,-85.5 352,-85.5 352,-104.5"/>
<text text-anchor="middle" x="274.5" y="-92.5" font-family="Courier,monospace" font-size="10.00">MooseBaseErrorInterface</text>
</a>
</g>
</g>
<!-- Node6&#45;&gt;Node3 -->
<g id="edge5" class="edge">
<title>Node6&#45;&gt;Node3</title>
<path fill="none" stroke="#63b8ff" d="M363.71,-95C381.52,-95 399.42,-95 414.63,-95"/>
<polygon fill="#63b8ff" stroke="#63b8ff" points="363.87,-91.5 353.87,-95 363.87,-98.5 363.87,-91.5"/>
</g>
<!-- Node7 -->
<g id="node7" class="node">
<title>Node7</title>
<g id="a_node7"><a xlink:href="classConsoleStreamInterface.html" target="_top" xlink:title="An inteface for the _console for outputting to the Console object.">
<polygon fill="white" stroke="#666666" points="149,-104.5 0,-104.5 0,-85.5 149,-85.5 149,-104.5"/>
<text text-anchor="middle" x="74.5" y="-92.5" font-family="Courier,monospace" font-size="10.00">ConsoleStreamInterface</text>
</a>
</g>
</g>
<!-- Node7&#45;&gt;Node6 -->
<g id="edge6" class="edge">
<title>Node7&#45;&gt;Node6</title>
<path fill="none" stroke="#63b8ff" d="M160.62,-95C172.62,-95 184.9,-95 196.73,-95"/>
<polygon fill="#63b8ff" stroke="#63b8ff" points="160.74,-91.5 150.74,-95 160.74,-98.5 160.74,-91.5"/>
</g>
<!-- Node8 -->
<g id="node8" class="node">
<title>Node8</title>
<g id="a_node8"><a xlink:title=" ">
<polygon fill="white" stroke="#666666" points="352,-67.5 197,-67.5 197,-48.5 352,-48.5 352,-67.5"/>
<text text-anchor="middle" x="274.5" y="-55.5" font-family="Courier,monospace" font-size="10.00">libMesh::ParallelObject</text>
</a>
</g>
</g>
<!-- Node8&#45;&gt;Node3 -->
<g id="edge7" class="edge">
<title>Node8&#45;&gt;Node3</title>
<path fill="none" stroke="#63b8ff" d="M334.7,-70.17C360.93,-75.56 391.12,-81.77 414.76,-86.62"/>
<polygon fill="#63b8ff" stroke="#63b8ff" points="335.72,-66.81 325.22,-68.22 334.31,-73.66 335.72,-66.81"/>
</g>
<!-- Node9 -->
<g id="node9" class="node">
<title>Node9</title>
<g id="a_node9"><a xlink:href="classDataFileInterface.html" target="_top" xlink:title=" ">
<polygon fill="white" stroke="#666666" points="337,-30 212,-30 212,0 337,0 337,-30"/>
<text text-anchor="start" x="220" y="-18" font-family="Courier,monospace" font-size="10.00">DataFileInterface&lt;</text>
<text text-anchor="middle" x="274.5" y="-7" font-family="Courier,monospace" font-size="10.00"> MooseObject &gt;</text>
</a>
</g>
</g>
<!-- Node9&#45;&gt;Node3 -->
<g id="edge8" class="edge">
<title>Node9&#45;&gt;Node3</title>
<path fill="none" stroke="#63b8ff" d="M347.66,-30.91C353.35,-33.26 358.88,-35.94 364,-39 383.97,-50.93 380.33,-64.58 400,-77 405.05,-80.19 410.73,-82.87 416.46,-85.09"/>
<polygon fill="#63b8ff" stroke="#63b8ff" points="349.29,-27.78 338.69,-27.57 346.84,-34.34 349.29,-27.78"/>
</g>
<!-- Node10 -->
<g id="node10" class="node">
<title>Node10</title>
<g id="a_node10"><a xlink:href="classRestartable.html" target="_top" xlink:title="A class for creating restricted objects.">
<polygon fill="white" stroke="#666666" points="498,-67.5 415,-67.5 415,-48.5 498,-48.5 498,-67.5"/>
<text text-anchor="middle" x="456.5" y="-55.5" font-family="Courier,monospace" font-size="10.00">Restartable</text>
</a>
</g>
</g>
<!-- Node10&#45;&gt;Node2 -->
<g id="edge9" class="edge">
<title>Node10&#45;&gt;Node2</title>
<path fill="none" stroke="#63b8ff" d="M509.7,-58C532.93,-58 559.88,-58 581.61,-58"/>
<polygon fill="#63b8ff" stroke="#63b8ff" points="509.8,-54.5 499.8,-58 509.8,-61.5 509.8,-54.5"/>
</g>
<!-- Node11 -->
<g id="node11" class="node">
<title>Node11</title>
<g id="a_node11"><a xlink:href="classScalarCoupleable.html" target="_top" xlink:title="Interface for objects that needs scalar coupling capabilities.">
<polygon fill="white" stroke="#666666" points="513,-30.5 400,-30.5 400,-11.5 513,-11.5 513,-30.5"/>
<text text-anchor="middle" x="456.5" y="-18.5" font-family="Courier,monospace" font-size="10.00">ScalarCoupleable</text>
</a>
</g>
</g>
<!-- Node11&#45;&gt;Node2 -->
<g id="edge10" class="edge">
<title>Node11&#45;&gt;Node2</title>
<path fill="none" stroke="#63b8ff" d="M512.81,-33.4C535.29,-38.44 560.8,-44.16 581.56,-48.82"/>
<polygon fill="#63b8ff" stroke="#63b8ff" points="513.72,-30.02 503.19,-31.25 512.19,-36.85 513.72,-30.02"/>
</g>
<!-- Node12 -->
<g id="node12" class="node">
<title>Node12</title>
<g id="a_node12"><a xlink:href="classPostprocessorInterface.html" target="_top" xlink:title="Interface class for classes which interact with Postprocessors.">
<polygon fill="white" stroke="#666666" points="698,-30.5 549,-30.5 549,-11.5 698,-11.5 698,-30.5"/>
<text text-anchor="middle" x="623.5" y="-18.5" font-family="Courier,monospace" font-size="10.00">PostprocessorInterface</text>
</a>
</g>
</g>
<!-- Node12&#45;&gt;Node1 -->
<g id="edge11" class="edge">
<title>Node12&#45;&gt;Node1</title>
<path fill="none" stroke="#63b8ff" d="M709.67,-29.81C717.74,-30.65 725.84,-31.48 733.68,-32.29"/>
<polygon fill="#63b8ff" stroke="#63b8ff" points="710.1,-26.34 699.8,-28.79 709.38,-33.3 710.1,-26.34"/>
</g>
</g>
</svg>
