<?xml version="1.0" encoding="UTF-8" standalone="no"?>
<!DOCTYPE svg PUBLIC "-//W3C//DTD SVG 1.1//EN"
 "http://www.w3.org/Graphics/SVG/1.1/DTD/svg11.dtd">
<!-- Generated by graphviz version 7.0.5 (20221223.1930)
 -->
<!-- Title: Constraint Pages: 1 -->
<!--zoomable 471 -->
<svg id="main" version="1.1" xmlns="http://www.w3.org/2000/svg" xmlns:xlink="http://www.w3.org/1999/xlink" xml:space="preserve" onload="init(evt)">
<style type="text/css"><![CDATA[
.edge:hover path { stroke: red; }
.edge:hover polygon { stroke: red; fill: red; }
]]></style>
<script type="text/javascript"><![CDATA[
var edges = document.getElementsByTagName('g');
if (edges && edges.length) {
  for (var i=0;i<edges.length;i++) {
    if (edges[i].id.substr(0,4)=='edge') {
      edges[i].setAttribute('class','edge');
    }
  }
}
]]></script>
        <defs>
                <circle id="rim" cx="0" cy="0" r="7"/>
                <circle id="rim2" cx="0" cy="0" r="3.5"/>
                <g id="zoomPlus">
                        <use xlink:href="#rim" fill="#404040">
                                <set attributeName="fill" to="#808080" begin="zoomplus.mouseover" end="zoomplus.mouseout"/>
                        </use>
                        <path d="M-4,0h8M0,-4v8" fill="none" stroke="white" stroke-width="1.5" pointer-events="none"/>
                </g>
                <g id="zoomMin">
                        <use xlink:href="#rim" fill="#404040">
                                <set attributeName="fill" to="#808080" begin="zoomminus.mouseover" end="zoomminus.mouseout"/>
                        </use>
                        <path d="M-4,0h8" fill="none" stroke="white" stroke-width="1.5" pointer-events="none"/>
                </g>
                <g id="dirArrow">
                        <path fill="none" stroke="white" stroke-width="1.5" d="M0,-3.0v7 M-2.5,-0.5L0,-3.0L2.5,-0.5"/>
                </g>
               <g id="resetDef">
                       <use xlink:href="#rim2" fill="#404040">
                               <set attributeName="fill" to="#808080" begin="reset.mouseover" end="reset.mouseout"/>
                       </use>
               </g>
        </defs>

<script type="text/javascript">
var viewWidth = 2079;
var viewHeight = 471;
var sectionId = 'dynsection-0';
</script>
<script xlink:href="svgpan.js"/>
<svg id="graph" class="graph">
<g id="viewport">
<title>Constraint</title>
<!-- Node1 -->
<g id="node1" class="node">
<title>Node1</title>
<g id="a_node1"><a xlink:title="Base class for all Constraint types.">
<polygon fill="#999999" stroke="#666666" points="1032,-185 955,-185 955,-166 1032,-166 1032,-185"/>
<text text-anchor="middle" x="993.5" y="-173" font-family="Courier,monospace" font-size="10.00">Constraint</text>
</a>
</g>
</g>
<!-- Node22 -->
<g id="node22" class="node">
<title>Node22</title>
<g id="a_node22"><a xlink:href="classElemElemConstraint.html" target="_top" xlink:title=" ">
<polygon fill="white" stroke="#666666" points="1199,-277 1074,-277 1074,-258 1199,-258 1199,-277"/>
<text text-anchor="middle" x="1136.5" y="-265" font-family="Courier,monospace" font-size="10.00">ElemElemConstraint</text>
</a>
</g>
</g>
<!-- Node1&#45;&gt;Node22 -->
<g id="edge21" class="edge">
<title>Node1&#45;&gt;Node22</title>
<path fill="none" stroke="#63b8ff" d="M1008.33,-194.24C1021.75,-211.13 1043.63,-235.4 1068,-249.5 1073.56,-252.72 1079.72,-255.38 1085.98,-257.57"/>
<polygon fill="#63b8ff" stroke="#63b8ff" points="1011.23,-192.28 1002.37,-186.49 1005.68,-196.55 1011.23,-192.28"/>
</g>
<!-- Node23 -->
<g id="node23" class="node">
<title>Node23</title>
<g id="a_node23"><a xlink:href="classMortarConstraintBase.html" target="_top" xlink:title="User for mortar methods.">
<polygon fill="white" stroke="#666666" points="1205,-240 1068,-240 1068,-221 1205,-221 1205,-240"/>
<text text-anchor="middle" x="1136.5" y="-228" font-family="Courier,monospace" font-size="10.00">MortarConstraintBase</text>
</a>
</g>
</g>
<!-- Node1&#45;&gt;Node23 -->
<g id="edge22" class="edge">
<title>Node1&#45;&gt;Node23</title>
<path fill="none" stroke="#63b8ff" d="M1030.53,-189.56C1055.44,-199.27 1087.95,-211.95 1110.16,-220.61"/>
<polygon fill="#63b8ff" stroke="#63b8ff" points="1032.03,-186.38 1021.44,-186.01 1029.49,-192.9 1032.03,-186.38"/>
</g>
<!-- Node38 -->
<g id="node38" class="node">
<title>Node38</title>
<g id="a_node38"><a xlink:href="classNodalConstraint.html" target="_top" xlink:title=" ">
<polygon fill="white" stroke="#666666" points="1190,-185 1083,-185 1083,-166 1190,-166 1190,-185"/>
<text text-anchor="middle" x="1136.5" y="-173" font-family="Courier,monospace" font-size="10.00">NodalConstraint</text>
</a>
</g>
</g>
<!-- Node1&#45;&gt;Node38 -->
<g id="edge37" class="edge">
<title>Node1&#45;&gt;Node38</title>
<path fill="none" stroke="#63b8ff" d="M1043.52,-175.5C1056.11,-175.5 1069.72,-175.5 1082.5,-175.5"/>
<polygon fill="#63b8ff" stroke="#63b8ff" points="1043.8,-172 1033.8,-175.5 1043.8,-179 1043.8,-172"/>
</g>
<!-- Node41 -->
<g id="node41" class="node">
<title>Node41</title>
<g id="a_node41"><a xlink:href="classNodeElemConstraint.html" target="_top" xlink:title="A NodeElemConstraint is used when you need to create constraints between a secondary node and a prima...">
<polygon fill="white" stroke="#666666" points="1199,-148 1074,-148 1074,-129 1199,-129 1199,-148"/>
<text text-anchor="middle" x="1136.5" y="-136" font-family="Courier,monospace" font-size="10.00">NodeElemConstraint</text>
</a>
</g>
</g>
<!-- Node1&#45;&gt;Node41 -->
<g id="edge40" class="edge">
<title>Node1&#45;&gt;Node41</title>
<path fill="none" stroke="#63b8ff" d="M1043.33,-162.69C1061.11,-158.02 1080.92,-152.82 1097.61,-148.44"/>
<polygon fill="#63b8ff" stroke="#63b8ff" points="1042.53,-159.28 1033.75,-165.2 1044.31,-166.05 1042.53,-159.28"/>
</g>
<!-- Node43 -->
<g id="node43" class="node">
<title>Node43</title>
<g id="a_node43"><a xlink:href="classNodeFaceConstraint.html" target="_top" xlink:title="A NodeFaceConstraint is used when you need to create constraints between two surfaces in a mesh.">
<polygon fill="white" stroke="#666666" points="1199,-84 1074,-84 1074,-65 1199,-65 1199,-84"/>
<text text-anchor="middle" x="1136.5" y="-72" font-family="Courier,monospace" font-size="10.00">NodeFaceConstraint</text>
</a>
</g>
</g>
<!-- Node1&#45;&gt;Node43 -->
<g id="edge42" class="edge">
<title>Node1&#45;&gt;Node43</title>
<path fill="none" stroke="#63b8ff" d="M1015.78,-158.72C1030.32,-147.4 1050.11,-132.26 1068,-119.5 1085.54,-106.99 1106.23,-93.36 1120.03,-84.42"/>
<polygon fill="#63b8ff" stroke="#63b8ff" points="1013.98,-155.69 1008.26,-164.61 1018.29,-161.2 1013.98,-155.69"/>
</g>
<!-- Node2 -->
<g id="node2" class="node">
<title>Node2</title>
<g id="a_node2"><a xlink:href="classNeighborResidualObject.html" target="_top" xlink:title="This is a base class for objects that can provide residual contributions for both local and neighbor ...">
<polygon fill="white" stroke="#666666" points="913,-204 764,-204 764,-185 913,-185 913,-204"/>
<text text-anchor="middle" x="838.5" y="-192" font-family="Courier,monospace" font-size="10.00">NeighborResidualObject</text>
</a>
</g>
</g>
<!-- Node2&#45;&gt;Node1 -->
<g id="edge1" class="edge">
<title>Node2&#45;&gt;Node1</title>
<path fill="none" stroke="#63b8ff" d="M924.41,-183.96C935.02,-182.64 945.42,-181.35 954.76,-180.19"/>
<polygon fill="#63b8ff" stroke="#63b8ff" points="924.31,-180.44 914.81,-185.15 925.17,-187.39 924.31,-180.44"/>
</g>
<!-- Node3 -->
<g id="node3" class="node">
<title>Node3</title>
<g id="a_node3"><a xlink:href="classResidualObject.html" target="_top" xlink:title="This is the common base class for objects that give residual contributions.">
<polygon fill="white" stroke="#666666" points="722,-204 621,-204 621,-185 722,-185 722,-204"/>
<text text-anchor="middle" x="671.5" y="-192" font-family="Courier,monospace" font-size="10.00">ResidualObject</text>
</a>
</g>
</g>
<!-- Node3&#45;&gt;Node2 -->
<g id="edge2" class="edge">
<title>Node3&#45;&gt;Node2</title>
<path fill="none" stroke="#63b8ff" d="M733.69,-194.5C743.45,-194.5 753.65,-194.5 763.67,-194.5"/>
<polygon fill="#63b8ff" stroke="#63b8ff" points="733.97,-191 723.97,-194.5 733.97,-198 733.97,-191"/>
</g>
<!-- Node4 -->
<g id="node4" class="node">
<title>Node4</title>
<g id="a_node4"><a xlink:href="classMooseObject.html" target="_top" xlink:title="Every object that can be built by the factory should be derived from this class.">
<polygon fill="white" stroke="#666666" points="534,-389 451,-389 451,-370 534,-370 534,-389"/>
<text text-anchor="middle" x="492.5" y="-377" font-family="Courier,monospace" font-size="10.00">MooseObject</text>
</a>
</g>
</g>
<!-- Node4&#45;&gt;Node3 -->
<g id="edge3" class="edge">
<title>Node4&#45;&gt;Node3</title>
<path fill="none" stroke="#63b8ff" d="M545.5,-377.46C559.39,-374.84 573.68,-370.04 585,-361.5 639.88,-320.13 662.38,-233.51 668.59,-204.33"/>
<polygon fill="#63b8ff" stroke="#63b8ff" points="545.36,-373.94 536,-378.9 546.41,-380.86 545.36,-373.94"/>
</g>
<!-- Node5 -->
<g id="node5" class="node">
<title>Node5</title>
<g id="a_node5"><a xlink:href="classMooseBase.html" target="_top" xlink:title="Base class for everything in MOOSE with a name and a type.">
<polygon fill="white" stroke="#666666" points="310,-463 239,-463 239,-444 310,-444 310,-463"/>
<text text-anchor="middle" x="274.5" y="-451" font-family="Courier,monospace" font-size="10.00">MooseBase</text>
</a>
</g>
</g>
<!-- Node5&#45;&gt;Node4 -->
<g id="edge4" class="edge">
<title>Node5&#45;&gt;Node4</title>
<path fill="none" stroke="#63b8ff" d="M321.62,-446.05C335.41,-443.31 350.46,-439.8 364,-435.5 403.87,-422.85 448.08,-401.72 472.56,-389.35"/>
<polygon fill="#63b8ff" stroke="#63b8ff" points="321.06,-442.59 311.89,-447.89 322.36,-449.47 321.06,-442.59"/>
</g>
<!-- Node6 -->
<g id="node6" class="node">
<title>Node6</title>
<g id="a_node6"><a xlink:href="classMooseBaseParameterInterface.html" target="_top" xlink:title="Every object that can be built by the factory should be derived from this class.">
<polygon fill="white" stroke="#666666" points="364,-426 185,-426 185,-407 364,-407 364,-426"/>
<text text-anchor="middle" x="274.5" y="-414" font-family="Courier,monospace" font-size="10.00">MooseBaseParameterInterface</text>
</a>
</g>
</g>
<!-- Node6&#45;&gt;Node4 -->
<g id="edge5" class="edge">
<title>Node6&#45;&gt;Node4</title>
<path fill="none" stroke="#63b8ff" d="M344.77,-404.63C379.7,-398.65 420.85,-391.6 450.68,-386.49"/>
<polygon fill="#63b8ff" stroke="#63b8ff" points="344.43,-401.14 335.16,-406.28 345.61,-408.04 344.43,-401.14"/>
</g>
<!-- Node7 -->
<g id="node7" class="node">
<title>Node7</title>
<g id="a_node7"><a xlink:href="classMooseBaseErrorInterface.html" target="_top" xlink:title="Interface that provides APIs to output errors/warnings/info messages.">
<polygon fill="white" stroke="#666666" points="352,-389 197,-389 197,-370 352,-370 352,-389"/>
<text text-anchor="middle" x="274.5" y="-377" font-family="Courier,monospace" font-size="10.00">MooseBaseErrorInterface</text>
</a>
</g>
</g>
<!-- Node7&#45;&gt;Node4 -->
<g id="edge6" class="edge">
<title>Node7&#45;&gt;Node4</title>
<path fill="none" stroke="#63b8ff" d="M363.7,-379.5C393.87,-379.5 426.17,-379.5 450.75,-379.5"/>
<polygon fill="#63b8ff" stroke="#63b8ff" points="363.78,-376 353.78,-379.5 363.78,-383 363.78,-376"/>
</g>
<!-- Node8 -->
<g id="node8" class="node">
<title>Node8</title>
<g id="a_node8"><a xlink:href="classConsoleStreamInterface.html" target="_top" xlink:title="An inteface for the _console for outputting to the Console object.">
<polygon fill="white" stroke="#666666" points="149,-389 0,-389 0,-370 149,-370 149,-389"/>
<text text-anchor="middle" x="74.5" y="-377" font-family="Courier,monospace" font-size="10.00">ConsoleStreamInterface</text>
</a>
</g>
</g>
<!-- Node8&#45;&gt;Node7 -->
<g id="edge7" class="edge">
<title>Node8&#45;&gt;Node7</title>
<path fill="none" stroke="#63b8ff" d="M160.62,-379.5C172.62,-379.5 184.9,-379.5 196.73,-379.5"/>
<polygon fill="#63b8ff" stroke="#63b8ff" points="160.74,-376 150.74,-379.5 160.74,-383 160.74,-376"/>
</g>
<!-- Node9 -->
<g id="node9" class="node">
<title>Node9</title>
<g id="a_node9"><a xlink:title=" ">
<polygon fill="white" stroke="#666666" points="352,-352 197,-352 197,-333 352,-333 352,-352"/>
<text text-anchor="middle" x="274.5" y="-340" font-family="Courier,monospace" font-size="10.00">libMesh::ParallelObject</text>
</a>
</g>
</g>
<!-- Node9&#45;&gt;Node4 -->
<g id="edge8" class="edge">
<title>Node9&#45;&gt;Node4</title>
<path fill="none" stroke="#63b8ff" d="M344.77,-354.37C379.7,-360.35 420.85,-367.4 450.68,-372.51"/>
<polygon fill="#63b8ff" stroke="#63b8ff" points="345.61,-350.96 335.16,-352.72 344.43,-357.86 345.61,-350.96"/>
</g>
<!-- Node10 -->
<g id="node10" class="node">
<title>Node10</title>
<g id="a_node10"><a xlink:href="classDataFileInterface.html" target="_top" xlink:title=" ">
<polygon fill="white" stroke="#666666" points="337,-314.5 212,-314.5 212,-284.5 337,-284.5 337,-314.5"/>
<text text-anchor="start" x="220" y="-302.5" font-family="Courier,monospace" font-size="10.00">DataFileInterface&lt;</text>
<text text-anchor="middle" x="274.5" y="-291.5" font-family="Courier,monospace" font-size="10.00"> MooseObject &gt;</text>
</a>
</g>
</g>
<!-- Node10&#45;&gt;Node4 -->
<g id="edge9" class="edge">
<title>Node10&#45;&gt;Node4</title>
<path fill="none" stroke="#63b8ff" d="M347.62,-316.35C353.32,-318.73 358.86,-321.44 364,-324.5 383.71,-336.24 379.83,-350.57 400,-361.5 415.37,-369.83 434.06,-374.34 450.53,-376.76"/>
<polygon fill="#63b8ff" stroke="#63b8ff" points="349.23,-313.22 338.64,-312.94 346.74,-319.76 349.23,-313.22"/>
</g>
<!-- Node11 -->
<g id="node11" class="node">
<title>Node11</title>
<g id="a_node11"><a xlink:href="classSetupInterface.html" target="_top" xlink:title=" ">
<polygon fill="white" stroke="#666666" points="543,-352 442,-352 442,-333 543,-333 543,-352"/>
<text text-anchor="middle" x="492.5" y="-340" font-family="Courier,monospace" font-size="10.00">SetupInterface</text>
</a>
</g>
</g>
<!-- Node11&#45;&gt;Node3 -->
<g id="edge10" class="edge">
<title>Node11&#45;&gt;Node3</title>
<path fill="none" stroke="#63b8ff" d="M554.5,-337.51C565.27,-334.73 575.92,-330.6 585,-324.5 630.96,-293.62 658.14,-228.83 667.14,-204.25"/>
<polygon fill="#63b8ff" stroke="#63b8ff" points="553.8,-334.08 544.77,-339.63 555.29,-340.92 553.8,-334.08"/>
</g>
<!-- Node12 -->
<g id="node12" class="node">
<title>Node12</title>
<g id="a_node12"><a xlink:href="classFunctionInterface.html" target="_top" xlink:title="Interface for objects that need to use functions.">
<polygon fill="white" stroke="#666666" points="552,-315 433,-315 433,-296 552,-296 552,-315"/>
<text text-anchor="middle" x="492.5" y="-303" font-family="Courier,monospace" font-size="10.00">FunctionInterface</text>
</a>
</g>
</g>
<!-- Node12&#45;&gt;Node3 -->
<g id="edge11" class="edge">
<title>Node12&#45;&gt;Node3</title>
<path fill="none" stroke="#63b8ff" d="M563.01,-296.72C570.69,-294.34 578.18,-291.32 585,-287.5 622.31,-266.59 652.39,-223.58 664.6,-204.26"/>
<polygon fill="#63b8ff" stroke="#63b8ff" points="562.27,-293.3 553.54,-299.29 564.11,-300.05 562.27,-293.3"/>
</g>
<!-- Node13 -->
<g id="node13" class="node">
<title>Node13</title>
<g id="a_node13"><a xlink:href="classUserObjectInterface.html" target="_top" xlink:title="Interface for objects that need to use UserObjects.">
<polygon fill="white" stroke="#666666" points="558,-278 427,-278 427,-259 558,-259 558,-278"/>
<text text-anchor="middle" x="492.5" y="-266" font-family="Courier,monospace" font-size="10.00">UserObjectInterface</text>
</a>
</g>
</g>
<!-- Node13&#45;&gt;Node3 -->
<g id="edge12" class="edge">
<title>Node13&#45;&gt;Node3</title>
<path fill="none" stroke="#63b8ff" d="M569.45,-255.95C574.78,-254.34 580.02,-252.53 585,-250.5 613.59,-238.85 642.82,-217.16 658.6,-204.47"/>
<polygon fill="#63b8ff" stroke="#63b8ff" points="568.59,-252.55 559.87,-258.57 570.44,-259.31 568.59,-252.55"/>
</g>
<!-- Node14 -->
<g id="node14" class="node">
<title>Node14</title>
<g id="a_node14"><a xlink:href="classTransientInterface.html" target="_top" xlink:title="Interface for objects that needs transient capabilities.">
<polygon fill="white" stroke="#666666" points="555,-241 430,-241 430,-222 555,-222 555,-241"/>
<text text-anchor="middle" x="492.5" y="-229" font-family="Courier,monospace" font-size="10.00">TransientInterface</text>
</a>
</g>
</g>
<!-- Node14&#45;&gt;Node3 -->
<g id="edge13" class="edge">
<title>Node14&#45;&gt;Node3</title>
<path fill="none" stroke="#63b8ff" d="M556.44,-219.33C566.01,-217.42 575.77,-215.43 585,-213.5 598.54,-210.66 613.26,-207.44 626.61,-204.47"/>
<polygon fill="#63b8ff" stroke="#63b8ff" points="555.93,-215.86 546.81,-221.24 557.3,-222.73 555.93,-215.86"/>
</g>
<!-- Node15 -->
<g id="node15" class="node">
<title>Node15</title>
<g id="a_node15"><a xlink:href="classPostprocessorInterface.html" target="_top" xlink:title="Interface class for classes which interact with Postprocessors.">
<polygon fill="white" stroke="#666666" points="567,-204 418,-204 418,-185 567,-185 567,-204"/>
<text text-anchor="middle" x="492.5" y="-192" font-family="Courier,monospace" font-size="10.00">PostprocessorInterface</text>
</a>
</g>
</g>
<!-- Node15&#45;&gt;Node3 -->
<g id="edge14" class="edge">
<title>Node15&#45;&gt;Node3</title>
<path fill="none" stroke="#63b8ff" d="M578.77,-194.5C593.16,-194.5 607.67,-194.5 620.76,-194.5"/>
<polygon fill="#63b8ff" stroke="#63b8ff" points="578.8,-191 568.8,-194.5 578.8,-198 578.8,-191"/>
</g>
<!-- Node16 -->
<g id="node16" class="node">
<title>Node16</title>
<g id="a_node16"><a xlink:href="classVectorPostprocessorInterface.html" target="_top" xlink:title=" ">
<polygon fill="white" stroke="#666666" points="585,-167 400,-167 400,-148 585,-148 585,-167"/>
<text text-anchor="middle" x="492.5" y="-155" font-family="Courier,monospace" font-size="10.00">VectorPostprocessorInterface</text>
</a>
</g>
</g>
<!-- Node16&#45;&gt;Node3 -->
<g id="edge15" class="edge">
<title>Node16&#45;&gt;Node3</title>
<path fill="none" stroke="#63b8ff" d="M556.44,-169.67C566.01,-171.58 575.77,-173.57 585,-175.5 598.54,-178.34 613.26,-181.56 626.61,-184.53"/>
<polygon fill="#63b8ff" stroke="#63b8ff" points="557.3,-166.27 546.81,-167.76 555.93,-173.14 557.3,-166.27"/>
</g>
<!-- Node17 -->
<g id="node17" class="node">
<title>Node17</title>
<g id="a_node17"><a xlink:href="classRandomInterface.html" target="_top" xlink:title="Interface for objects that need parallel consistent random numbers without patterns over the course o...">
<polygon fill="white" stroke="#666666" points="546,-130 439,-130 439,-111 546,-111 546,-130"/>
<text text-anchor="middle" x="492.5" y="-118" font-family="Courier,monospace" font-size="10.00">RandomInterface</text>
</a>
</g>
</g>
<!-- Node17&#45;&gt;Node3 -->
<g id="edge16" class="edge">
<title>Node17&#45;&gt;Node3</title>
<path fill="none" stroke="#63b8ff" d="M557.33,-129.76C566.78,-132.07 576.27,-134.94 585,-138.5 613.59,-150.15 642.82,-171.84 658.6,-184.53"/>
<polygon fill="#63b8ff" stroke="#63b8ff" points="558.29,-126.39 547.77,-127.62 556.77,-133.22 558.29,-126.39"/>
</g>
<!-- Node18 -->
<g id="node18" class="node">
<title>Node18</title>
<g id="a_node18"><a xlink:href="classRestartable.html" target="_top" xlink:title="A class for creating restricted objects.">
<polygon fill="white" stroke="#666666" points="534,-93 451,-93 451,-74 534,-74 534,-93"/>
<text text-anchor="middle" x="492.5" y="-81" font-family="Courier,monospace" font-size="10.00">Restartable</text>
</a>
</g>
</g>
<!-- Node18&#45;&gt;Node3 -->
<g id="edge17" class="edge">
<title>Node18&#45;&gt;Node3</title>
<path fill="none" stroke="#63b8ff" d="M545.29,-87.84C558.82,-90.51 572.97,-94.76 585,-101.5 622.31,-122.41 652.39,-165.42 664.6,-184.74"/>
<polygon fill="#63b8ff" stroke="#63b8ff" points="546.07,-84.43 535.63,-86.21 544.9,-91.33 546.07,-84.43"/>
</g>
<!-- Node19 -->
<g id="node19" class="node">
<title>Node19</title>
<g id="a_node19"><a xlink:href="classMeshChangedInterface.html" target="_top" xlink:title="Interface for notifications that the mesh has changed.">
<polygon fill="white" stroke="#666666" points="561,-56 424,-56 424,-37 561,-37 561,-56"/>
<text text-anchor="middle" x="492.5" y="-44" font-family="Courier,monospace" font-size="10.00">MeshChangedInterface</text>
</a>
</g>
</g>
<!-- Node19&#45;&gt;Node3 -->
<g id="edge18" class="edge">
<title>Node19&#45;&gt;Node3</title>
<path fill="none" stroke="#63b8ff" d="M572.18,-57.52C576.68,-59.5 580.99,-61.81 585,-64.5 630.96,-95.38 658.14,-160.17 667.14,-184.75"/>
<polygon fill="#63b8ff" stroke="#63b8ff" points="573.43,-54.25 562.84,-54.01 570.97,-60.8 573.43,-54.25"/>
</g>
<!-- Node20 -->
<g id="node20" class="node">
<title>Node20</title>
<g id="a_node20"><a xlink:href="classTaggingInterface.html" target="_top" xlink:title=" ">
<polygon fill="white" stroke="#666666" points="549,-19 436,-19 436,0 549,0 549,-19"/>
<text text-anchor="middle" x="492.5" y="-7" font-family="Courier,monospace" font-size="10.00">TaggingInterface</text>
</a>
</g>
</g>
<!-- Node20&#45;&gt;Node3 -->
<g id="edge19" class="edge">
<title>Node20&#45;&gt;Node3</title>
<path fill="none" stroke="#63b8ff" d="M560.11,-15.17C569.04,-17.99 577.65,-21.96 585,-27.5 639.88,-68.87 662.38,-155.49 668.59,-184.67"/>
<polygon fill="#63b8ff" stroke="#63b8ff" points="561.14,-11.82 550.58,-12.66 559.35,-18.59 561.14,-11.82"/>
</g>
<!-- Node21 -->
<g id="node21" class="node">
<title>Node21</title>
<g id="a_node21"><a xlink:href="classGeometricSearchInterface.html" target="_top" xlink:title=" ">
<polygon fill="white" stroke="#666666" points="919,-167 758,-167 758,-148 919,-148 919,-167"/>
<text text-anchor="middle" x="838.5" y="-155" font-family="Courier,monospace" font-size="10.00">GeometricSearchInterface</text>
</a>
</g>
</g>
<!-- Node21&#45;&gt;Node1 -->
<g id="edge20" class="edge">
<title>Node21&#45;&gt;Node1</title>
<path fill="none" stroke="darkgreen" d="M930.35,-168.19C938.81,-169.18 947.02,-170.15 954.55,-171.04"/>
<polygon fill="darkgreen" stroke="darkgreen" points="930.98,-164.74 920.64,-167.05 930.16,-171.69 930.98,-164.74"/>
</g>
<!-- Node24 -->
<g id="node24" class="node">
<title>Node24</title>
<g id="a_node24"><a xlink:href="classADMortarConstraint.html" target="_top" xlink:title=" ">
<polygon fill="white" stroke="#666666" points="1402,-324 1277,-324 1277,-305 1402,-305 1402,-324"/>
<text text-anchor="middle" x="1339.5" y="-312" font-family="Courier,monospace" font-size="10.00">ADMortarConstraint</text>
</a>
</g>
</g>
<!-- Node23&#45;&gt;Node24 -->
<g id="edge23" class="edge">
<title>Node23&#45;&gt;Node24</title>
<path fill="none" stroke="#63b8ff" d="M1188.35,-243.75C1194.01,-245.54 1199.66,-247.47 1205,-249.5 1247.88,-265.82 1295.67,-290.87 1320.82,-304.62"/>
<polygon fill="#63b8ff" stroke="#63b8ff" points="1189.54,-240.46 1178.95,-240.92 1187.52,-247.16 1189.54,-240.46"/>
</g>
<!-- Node32 -->
<g id="node32" class="node">
<title>Node32</title>
<g id="a_node32"><a xlink:href="classMortarConstraint.html" target="_top" xlink:title=" ">
<polygon fill="white" stroke="#666666" points="1396,-250 1283,-250 1283,-231 1396,-231 1396,-250"/>
<text text-anchor="middle" x="1339.5" y="-238" font-family="Courier,monospace" font-size="10.00">MortarConstraint</text>
</a>
</g>
</g>
<!-- Node23&#45;&gt;Node32 -->
<g id="edge31" class="edge">
<title>Node23&#45;&gt;Node32</title>
<path fill="none" stroke="#63b8ff" d="M1216.66,-234.44C1238.75,-235.54 1262.28,-236.71 1282.72,-237.72"/>
<polygon fill="#63b8ff" stroke="#63b8ff" points="1216.94,-230.95 1206.78,-233.95 1216.59,-237.94 1216.94,-230.95"/>
</g>
<!-- Node25 -->
<g id="node25" class="node">
<title>Node25</title>
<g id="a_node25"><a xlink:href="classADMortarScalarBase.html" target="_top" xlink:title="This Constraint adds standardized methods for assembling to a primary scalar variable associated with...">
<polygon fill="white" stroke="#666666" points="1614,-398 1489,-398 1489,-379 1614,-379 1614,-398"/>
<text text-anchor="middle" x="1551.5" y="-386" font-family="Courier,monospace" font-size="10.00">ADMortarScalarBase</text>
</a>
</g>
</g>
<!-- Node24&#45;&gt;Node25 -->
<g id="edge24" class="edge">
<title>Node24&#45;&gt;Node25</title>
<path fill="none" stroke="#63b8ff" d="M1371.14,-329.07C1397.85,-341.36 1437.86,-358.76 1474,-370.5 1483.21,-373.49 1493.2,-376.21 1502.82,-378.58"/>
<polygon fill="#63b8ff" stroke="#63b8ff" points="1372.82,-325.99 1362.28,-324.95 1369.87,-332.34 1372.82,-325.99"/>
</g>
<!-- Node29 -->
<g id="node29" class="node">
<title>Node29</title>
<g id="a_node29"><a xlink:href="classEqualGradientConstraint.html" target="_top" xlink:title="Constrain a specified component of the gradient of a variable to be the same on both sides of an inte...">
<polygon fill="white" stroke="#666666" points="1629,-361 1474,-361 1474,-342 1629,-342 1629,-361"/>
<text text-anchor="middle" x="1551.5" y="-349" font-family="Courier,monospace" font-size="10.00">EqualGradientConstraint</text>
</a>
</g>
</g>
<!-- Node24&#45;&gt;Node29 -->
<g id="edge28" class="edge">
<title>Node24&#45;&gt;Node29</title>
<path fill="none" stroke="#63b8ff" d="M1408.23,-326.43C1435.86,-331.3 1467.46,-336.87 1493.85,-341.52"/>
<polygon fill="#63b8ff" stroke="#63b8ff" points="1409,-323.01 1398.54,-324.73 1407.78,-329.91 1409,-323.01"/>
</g>
<!-- Node30 -->
<g id="node30" class="node">
<title>Node30</title>
<g id="a_node30"><a xlink:href="classEqualValueConstraint.html" target="_top" xlink:title="Constrain the value of a variable to be the same on both sides of an interface.">
<polygon fill="white" stroke="#666666" points="1620,-324 1483,-324 1483,-305 1620,-305 1620,-324"/>
<text text-anchor="middle" x="1551.5" y="-312" font-family="Courier,monospace" font-size="10.00">EqualValueConstraint</text>
</a>
</g>
</g>
<!-- Node24&#45;&gt;Node30 -->
<g id="edge29" class="edge">
<title>Node24&#45;&gt;Node30</title>
<path fill="none" stroke="#63b8ff" d="M1413.87,-314.5C1436.29,-314.5 1460.82,-314.5 1482.84,-314.5"/>
<polygon fill="#63b8ff" stroke="#63b8ff" points="1413.88,-311 1403.88,-314.5 1413.88,-318 1413.88,-311"/>
</g>
<!-- Node31 -->
<g id="node31" class="node">
<title>Node31</title>
<g id="a_node31"><a xlink:href="classFaceFaceConstraint.html" target="_top" xlink:title="This is a deprecated object! Use MortarConstraint instead!">
<polygon fill="white" stroke="#666666" points="1614,-287 1489,-287 1489,-268 1614,-268 1614,-287"/>
<text text-anchor="middle" x="1551.5" y="-275" font-family="Courier,monospace" font-size="10.00">FaceFaceConstraint</text>
</a>
</g>
</g>
<!-- Node24&#45;&gt;Node31 -->
<g id="edge30" class="edge">
<title>Node24&#45;&gt;Node31</title>
<path fill="none" stroke="#63b8ff" d="M1408.23,-302.57C1435.86,-297.7 1467.46,-292.13 1493.85,-287.48"/>
<polygon fill="#63b8ff" stroke="#63b8ff" points="1407.78,-299.09 1398.54,-304.27 1409,-305.99 1407.78,-299.09"/>
</g>
<!-- Node26 -->
<g id="node26" class="node">
<title>Node26</title>
<g id="a_node26"><a xlink:href="classDerivativeMaterialInterface.html" target="_top" xlink:title=" ">
<polygon fill="white" stroke="#666666" points="1844,-403.5 1665,-403.5 1665,-373.5 1844,-373.5 1844,-403.5"/>
<text text-anchor="start" x="1673" y="-391.5" font-family="Courier,monospace" font-size="10.00">DerivativeMaterialInterface</text>
<text text-anchor="middle" x="1754.5" y="-380.5" font-family="Courier,monospace" font-size="10.00">&lt; ADMortarScalarBase &gt;</text>
</a>
</g>
</g>
<!-- Node25&#45;&gt;Node26 -->
<g id="edge25" class="edge">
<title>Node25&#45;&gt;Node26</title>
<path fill="none" stroke="#63b8ff" d="M1625.86,-388.5C1638.51,-388.5 1651.78,-388.5 1664.79,-388.5"/>
<polygon fill="#63b8ff" stroke="#63b8ff" points="1625.96,-385 1615.96,-388.5 1625.96,-392 1625.96,-385"/>
</g>
<!-- Node27 -->
<g id="node27" class="node">
<title>Node27</title>
<g id="a_node27"><a xlink:href="classADPenaltyPeriodicSegmentalConstraint.html" target="_top" xlink:title="This class enforces a periodic boundary condition between a microscale and macroscale field.">
<polygon fill="white" stroke="#666666" points="2062,-425.5 1889,-425.5 1889,-395.5 2062,-395.5 2062,-425.5"/>
<text text-anchor="start" x="1897" y="-413.5" font-family="Courier,monospace" font-size="10.00">ADPenaltyPeriodicSegmental</text>
<text text-anchor="middle" x="1975.5" y="-402.5" font-family="Courier,monospace" font-size="10.00">Constraint</text>
</a>
</g>
</g>
<!-- Node26&#45;&gt;Node27 -->
<g id="edge26" class="edge">
<title>Node26&#45;&gt;Node27</title>
<path fill="none" stroke="#63b8ff" d="M1855.72,-398.57C1866.77,-399.68 1877.95,-400.8 1888.81,-401.89"/>
<polygon fill="#63b8ff" stroke="#63b8ff" points="1856.07,-395.08 1845.77,-397.57 1855.37,-402.05 1856.07,-395.08"/>
</g>
<!-- Node28 -->
<g id="node28" class="node">
<title>Node28</title>
<g id="a_node28"><a xlink:href="classADPeriodicSegmentalConstraint.html" target="_top" xlink:title="This class enforces a periodic boundary condition between a microscale and macroscale field.">
<polygon fill="white" stroke="#666666" points="2071,-377 1880,-377 1880,-358 2071,-358 2071,-377"/>
<text text-anchor="middle" x="1975.5" y="-365" font-family="Courier,monospace" font-size="10.00">ADPeriodicSegmentalConstraint</text>
</a>
</g>
</g>
<!-- Node26&#45;&gt;Node28 -->
<g id="edge27" class="edge">
<title>Node26&#45;&gt;Node28</title>
<path fill="none" stroke="#63b8ff" d="M1855.51,-378.91C1863.51,-378.14 1871.58,-377.37 1879.54,-376.61"/>
<polygon fill="#63b8ff" stroke="#63b8ff" points="1855.39,-375.41 1845.77,-379.84 1856.06,-382.37 1855.39,-375.41"/>
</g>
<!-- Node33 -->
<g id="node33" class="node">
<title>Node33</title>
<g id="a_node33"><a xlink:href="classMortarScalarBase.html" target="_top" xlink:title="This Constraint adds standardized methods for assembling to a primary scalar variable associated with...">
<polygon fill="white" stroke="#666666" points="1608,-250 1495,-250 1495,-231 1608,-231 1608,-250"/>
<text text-anchor="middle" x="1551.5" y="-238" font-family="Courier,monospace" font-size="10.00">MortarScalarBase</text>
</a>
</g>
</g>
<!-- Node32&#45;&gt;Node33 -->
<g id="edge32" class="edge">
<title>Node32&#45;&gt;Node33</title>
<path fill="none" stroke="#63b8ff" d="M1407.55,-240.5C1435.58,-240.5 1467.78,-240.5 1494.51,-240.5"/>
<polygon fill="#63b8ff" stroke="#63b8ff" points="1407.74,-237 1397.74,-240.5 1407.74,-244 1407.74,-237"/>
</g>
<!-- Node37 -->
<g id="node37" class="node">
<title>Node37</title>
<g id="a_node37"><a xlink:href="classOldEqualValueConstraint.html" target="_top" xlink:title="Constrain the value of a variable to be the same on both sides of an interface.">
<polygon fill="white" stroke="#666666" points="1629,-213 1474,-213 1474,-194 1629,-194 1629,-213"/>
<text text-anchor="middle" x="1551.5" y="-201" font-family="Courier,monospace" font-size="10.00">OldEqualValueConstraint</text>
</a>
</g>
</g>
<!-- Node32&#45;&gt;Node37 -->
<g id="edge36" class="edge">
<title>Node32&#45;&gt;Node37</title>
<path fill="none" stroke="#63b8ff" d="M1407.46,-228.7C1435.25,-223.81 1467.16,-218.18 1493.78,-213.49"/>
<polygon fill="#63b8ff" stroke="#63b8ff" points="1406.96,-225.24 1397.72,-230.42 1408.17,-232.13 1406.96,-225.24"/>
</g>
<!-- Node34 -->
<g id="node34" class="node">
<title>Node34</title>
<g id="a_node34"><a xlink:href="classDerivativeMaterialInterface.html" target="_top" xlink:title=" ">
<polygon fill="white" stroke="#666666" points="1844,-255.5 1665,-255.5 1665,-225.5 1844,-225.5 1844,-255.5"/>
<text text-anchor="start" x="1673" y="-243.5" font-family="Courier,monospace" font-size="10.00">DerivativeMaterialInterface</text>
<text text-anchor="middle" x="1754.5" y="-232.5" font-family="Courier,monospace" font-size="10.00">&lt; MortarScalarBase &gt;</text>
</a>
</g>
</g>
<!-- Node33&#45;&gt;Node34 -->
<g id="edge33" class="edge">
<title>Node33&#45;&gt;Node34</title>
<path fill="none" stroke="#63b8ff" d="M1619.79,-240.5C1634.18,-240.5 1649.6,-240.5 1664.67,-240.5"/>
<polygon fill="#63b8ff" stroke="#63b8ff" points="1620,-237 1610,-240.5 1620,-244 1620,-237"/>
</g>
<!-- Node35 -->
<g id="node35" class="node">
<title>Node35</title>
<g id="a_node35"><a xlink:href="classPenaltyPeriodicSegmentalConstraint.html" target="_top" xlink:title="This class enforces a periodic boundary condition between a microscale and macroscale field.">
<polygon fill="white" stroke="#666666" points="2056,-277.5 1895,-277.5 1895,-247.5 2056,-247.5 2056,-277.5"/>
<text text-anchor="start" x="1903" y="-265.5" font-family="Courier,monospace" font-size="10.00">PenaltyPeriodicSegmental</text>
<text text-anchor="middle" x="1975.5" y="-254.5" font-family="Courier,monospace" font-size="10.00">Constraint</text>
</a>
</g>
</g>
<!-- Node34&#45;&gt;Node35 -->
<g id="edge34" class="edge">
<title>Node34&#45;&gt;Node35</title>
<path fill="none" stroke="#63b8ff" d="M1855.71,-250.57C1868.81,-251.88 1882.09,-253.22 1894.79,-254.49"/>
<polygon fill="#63b8ff" stroke="#63b8ff" points="1856.07,-247.08 1845.77,-249.57 1855.37,-254.05 1856.07,-247.08"/>
</g>
<!-- Node36 -->
<g id="node36" class="node">
<title>Node36</title>
<g id="a_node36"><a xlink:href="classPeriodicSegmentalConstraint.html" target="_top" xlink:title="This class enforces a periodic boundary condition between a microscale and macroscale field.">
<polygon fill="white" stroke="#666666" points="2065,-229 1886,-229 1886,-210 2065,-210 2065,-229"/>
<text text-anchor="middle" x="1975.5" y="-217" font-family="Courier,monospace" font-size="10.00">PeriodicSegmentalConstraint</text>
</a>
</g>
</g>
<!-- Node34&#45;&gt;Node36 -->
<g id="edge35" class="edge">
<title>Node34&#45;&gt;Node36</title>
<path fill="none" stroke="#63b8ff" d="M1855.53,-230.91C1865.56,-229.95 1875.7,-228.97 1885.61,-228.02"/>
<polygon fill="#63b8ff" stroke="#63b8ff" points="1855.39,-227.41 1845.77,-231.84 1856.06,-234.37 1855.39,-227.41"/>
</g>
<!-- Node39 -->
<g id="node39" class="node">
<title>Node39</title>
<g id="a_node39"><a xlink:href="classEqualValueBoundaryConstraint.html" target="_top" xlink:title=" ">
<polygon fill="white" stroke="#666666" points="1432,-213 1247,-213 1247,-194 1432,-194 1432,-213"/>
<text text-anchor="middle" x="1339.5" y="-201" font-family="Courier,monospace" font-size="10.00">EqualValueBoundaryConstraint</text>
</a>
</g>
</g>
<!-- Node38&#45;&gt;Node39 -->
<g id="edge38" class="edge">
<title>Node38&#45;&gt;Node39</title>
<path fill="none" stroke="#63b8ff" d="M1201.57,-184.43C1222.33,-187.32 1245.49,-190.54 1266.77,-193.51"/>
<polygon fill="#63b8ff" stroke="#63b8ff" points="1202.2,-180.98 1191.81,-183.07 1201.23,-187.91 1202.2,-180.98"/>
</g>
<!-- Node40 -->
<g id="node40" class="node">
<title>Node40</title>
<g id="a_node40"><a xlink:href="classLinearNodalConstraint.html" target="_top" xlink:title="The secondary node variable is programmed as a linear combination of the primary node variables (i....">
<polygon fill="white" stroke="#666666" points="1411,-176 1268,-176 1268,-157 1411,-157 1411,-176"/>
<text text-anchor="middle" x="1339.5" y="-164" font-family="Courier,monospace" font-size="10.00">LinearNodalConstraint</text>
</a>
</g>
</g>
<!-- Node38&#45;&gt;Node40 -->
<g id="edge39" class="edge">
<title>Node38&#45;&gt;Node40</title>
<path fill="none" stroke="#63b8ff" d="M1201.69,-172.63C1222.66,-171.69 1246.08,-170.64 1267.52,-169.68"/>
<polygon fill="#63b8ff" stroke="#63b8ff" points="1201.66,-169.12 1191.82,-173.07 1201.97,-176.12 1201.66,-169.12"/>
</g>
<!-- Node42 -->
<g id="node42" class="node">
<title>Node42</title>
<g id="a_node42"><a xlink:href="classEqualValueEmbeddedConstraint.html" target="_top" xlink:title="A EqualValueEmbeddedConstraint forces the value of a variable to be the same on overlapping portion o...">
<polygon fill="white" stroke="#666666" points="1432,-139 1247,-139 1247,-120 1432,-120 1432,-139"/>
<text text-anchor="middle" x="1339.5" y="-127" font-family="Courier,monospace" font-size="10.00">EqualValueEmbeddedConstraint</text>
</a>
</g>
</g>
<!-- Node41&#45;&gt;Node42 -->
<g id="edge41" class="edge">
<title>Node41&#45;&gt;Node42</title>
<path fill="none" stroke="#63b8ff" d="M1210.92,-135.21C1222.6,-134.69 1234.8,-134.14 1246.83,-133.6"/>
<polygon fill="#63b8ff" stroke="#63b8ff" points="1210.79,-131.71 1200.96,-135.66 1211.11,-138.71 1210.79,-131.71"/>
</g>
<!-- Node44 -->
<g id="node44" class="node">
<title>Node44</title>
<g id="a_node44"><a xlink:href="classArbitrarilyTiedValueConstraint.html" target="_top" xlink:title="A ArbitrarilyTiedValueConstraint forces the value of a variable to be the same on both sides of an in...">
<polygon fill="white" stroke="#666666" points="1438,-102 1241,-102 1241,-83 1438,-83 1438,-102"/>
<text text-anchor="middle" x="1339.5" y="-90" font-family="Courier,monospace" font-size="10.00">ArbitrarilyTiedValueConstraint</text>
</a>
</g>
</g>
<!-- Node43&#45;&gt;Node44 -->
<g id="edge43" class="edge">
<title>Node43&#45;&gt;Node44</title>
<path fill="none" stroke="#63b8ff" d="M1210.66,-81.05C1220.38,-81.92 1230.47,-82.83 1240.52,-83.73"/>
<polygon fill="#63b8ff" stroke="#63b8ff" points="1211.23,-77.59 1200.95,-80.18 1210.6,-84.56 1211.23,-77.59"/>
</g>
<!-- Node45 -->
<g id="node45" class="node">
<title>Node45</title>
<g id="a_node45"><a xlink:href="classCoupledTiedValueConstraint.html" target="_top" xlink:title="A CoupledTiedValueConstraint forces the value of a variable to be the same on both sides of an interf...">
<polygon fill="white" stroke="#666666" points="1426,-65 1253,-65 1253,-46 1426,-46 1426,-65"/>
<text text-anchor="middle" x="1339.5" y="-53" font-family="Courier,monospace" font-size="10.00">CoupledTiedValueConstraint</text>
</a>
</g>
</g>
<!-- Node43&#45;&gt;Node45 -->
<g id="edge44" class="edge">
<title>Node43&#45;&gt;Node45</title>
<path fill="none" stroke="#63b8ff" d="M1210.72,-67.58C1224.37,-66.29 1238.75,-64.93 1252.74,-63.61"/>
<polygon fill="#63b8ff" stroke="#63b8ff" points="1210.58,-64.08 1200.95,-68.5 1211.24,-71.05 1210.58,-64.08"/>
</g>
<!-- Node46 -->
<g id="node46" class="node">
<title>Node46</title>
<g id="a_node46"><a xlink:href="classTiedValueConstraint.html" target="_top" xlink:title="A TiedValueConstraint forces the value of a variable to be the same on both sides of an interface.">
<polygon fill="white" stroke="#666666" points="1405,-28 1274,-28 1274,-9 1405,-9 1405,-28"/>
<text text-anchor="middle" x="1339.5" y="-16" font-family="Courier,monospace" font-size="10.00">TiedValueConstraint</text>
</a>
</g>
</g>
<!-- Node43&#45;&gt;Node46 -->
<g id="edge45" class="edge">
<title>Node43&#45;&gt;Node46</title>
<path fill="none" stroke="#63b8ff" d="M1171.41,-60.4C1191.39,-52.51 1217.32,-42.98 1241,-36.5 1252.12,-33.45 1264.1,-30.77 1275.73,-28.47"/>
<polygon fill="#63b8ff" stroke="#63b8ff" points="1170.35,-57.05 1162.38,-64.02 1172.96,-63.55 1170.35,-57.05"/>
</g>
</g>
</svg>
        <g id="navigator" transform="translate(0 0)" fill="#404254">
                <rect fill="#f2f5e9" fill-opacity="0.5" stroke="#606060" stroke-width=".5" x="0" y="0" width="60" height="60"/>
                <use id="zoomplus" xlink:href="#zoomPlus" x="17" y="9" onmousedown="handleZoom(evt,'in')"/>
                <use id="zoomminus" xlink:href="#zoomMin" x="42" y="9" onmousedown="handleZoom(evt,'out')"/>
                <use id="reset" xlink:href="#resetDef" x="30" y="36" onmousedown="handleReset()"/>
                <g id="arrowUp" xlink:href="#dirArrow" transform="translate(30 24)" onmousedown="handlePan(0,-1)">
                  <use xlink:href="#rim" fill="#404040">
                        <set attributeName="fill" to="#808080" begin="arrowUp.mouseover" end="arrowUp.mouseout"/>
                  </use>
                  <path fill="none" stroke="white" stroke-width="1.5" d="M0,-3.0v7 M-2.5,-0.5L0,-3.0L2.5,-0.5"/>
                </g>
                <g id="arrowRight" xlink:href="#dirArrow" transform="rotate(90) translate(36 -43)" onmousedown="handlePan(1,0)">
                  <use xlink:href="#rim" fill="#404040">
                        <set attributeName="fill" to="#808080" begin="arrowRight.mouseover" end="arrowRight.mouseout"/>
                  </use>
                  <path fill="none" stroke="white" stroke-width="1.5" d="M0,-3.0v7 M-2.5,-0.5L0,-3.0L2.5,-0.5"/>
                </g>
                <g id="arrowDown" xlink:href="#dirArrow" transform="rotate(180) translate(-30 -48)" onmousedown="handlePan(0,1)">
                  <use xlink:href="#rim" fill="#404040">
                        <set attributeName="fill" to="#808080" begin="arrowDown.mouseover" end="arrowDown.mouseout"/>
                  </use>
                  <path fill="none" stroke="white" stroke-width="1.5" d="M0,-3.0v7 M-2.5,-0.5L0,-3.0L2.5,-0.5"/>
                </g>
                <g id="arrowLeft" xlink:href="#dirArrow" transform="rotate(270) translate(-36 17)" onmousedown="handlePan(-1,0)">
                  <use xlink:href="#rim" fill="#404040">
                        <set attributeName="fill" to="#808080" begin="arrowLeft.mouseover" end="arrowLeft.mouseout"/>
                  </use>
                  <path fill="none" stroke="white" stroke-width="1.5" d="M0,-3.0v7 M-2.5,-0.5L0,-3.0L2.5,-0.5"/>
                </g>
        </g>
        <svg viewBox="0 0 15 15" width="100%" height="30px" preserveAspectRatio="xMaxYMin meet">
         <g id="arrow_out" transform="scale(0.3 0.3)">
          <a xlink:href="classConstraint__inherit__graph_org.svg" target="_base">
           <rect id="button" ry="5" rx="5" y="6" x="6" height="38" width="38"
                fill="#f2f5e9" fill-opacity="0.5" stroke="#606060" stroke-width="1.0"/>
           <path id="arrow"
             d="M 11.500037,31.436501 C 11.940474,20.09759 22.043105,11.32322 32.158766,21.979434 L 37.068811,17.246167 C 37.068811,17.246167 37.088388,32 37.088388,32 L 22.160133,31.978069 C 22.160133,31.978069 26.997745,27.140456 26.997745,27.140456 C 18.528582,18.264221 13.291696,25.230495 11.500037,31.436501 z"
             style="fill:#404040;"/>
          </a>
         </g>
        </svg>
</svg>
