<?xml version="1.0" encoding="UTF-8" standalone="no"?>
<!DOCTYPE svg PUBLIC "-//W3C//DTD SVG 1.1//EN"
 "http://www.w3.org/Graphics/SVG/1.1/DTD/svg11.dtd">
<!-- Generated by graphviz version 7.0.5 (20221223.1930)
 -->
<!-- Title: TimeSequenceStepperBase Pages: 1 -->
<!--zoomable 193 -->
<svg id="main" version="1.1" xmlns="http://www.w3.org/2000/svg" xmlns:xlink="http://www.w3.org/1999/xlink" xml:space="preserve" onload="init(evt)">
<style type="text/css"><![CDATA[
.edge:hover path { stroke: red; }
.edge:hover polygon { stroke: red; fill: red; }
]]></style>
<script type="text/javascript"><![CDATA[
var edges = document.getElementsByTagName('g');
if (edges && edges.length) {
  for (var i=0;i<edges.length;i++) {
    if (edges[i].id.substr(0,4)=='edge') {
      edges[i].setAttribute('class','edge');
    }
  }
}
]]></script>
        <defs>
                <circle id="rim" cx="0" cy="0" r="7"/>
                <circle id="rim2" cx="0" cy="0" r="3.5"/>
                <g id="zoomPlus">
                        <use xlink:href="#rim" fill="#404040">
                                <set attributeName="fill" to="#808080" begin="zoomplus.mouseover" end="zoomplus.mouseout"/>
                        </use>
                        <path d="M-4,0h8M0,-4v8" fill="none" stroke="white" stroke-width="1.5" pointer-events="none"/>
                </g>
                <g id="zoomMin">
                        <use xlink:href="#rim" fill="#404040">
                                <set attributeName="fill" to="#808080" begin="zoomminus.mouseover" end="zoomminus.mouseout"/>
                        </use>
                        <path d="M-4,0h8" fill="none" stroke="white" stroke-width="1.5" pointer-events="none"/>
                </g>
                <g id="dirArrow">
                        <path fill="none" stroke="white" stroke-width="1.5" d="M0,-3.0v7 M-2.5,-0.5L0,-3.0L2.5,-0.5"/>
                </g>
               <g id="resetDef">
                       <use xlink:href="#rim2" fill="#404040">
                               <set attributeName="fill" to="#808080" begin="reset.mouseover" end="reset.mouseout"/>
                       </use>
               </g>
        </defs>

<script type="text/javascript">
var viewWidth = 1034;
var viewHeight = 193;
var sectionId = 'dynsection-0';
</script>
<script xlink:href="svgpan.js"/>
<svg id="graph" class="graph">
<g id="viewport">
<title>TimeSequenceStepperBase</title>
<!-- Node1 -->
<g id="node1" class="node">
<title>Node1</title>
<g id="a_node1"><a xlink:title="Solves the PDEs at a sequence of given time points.">
<polygon fill="#999999" stroke="#666666" points="823,-74 668,-74 668,-55 823,-55 823,-74"/>
<text text-anchor="middle" x="745.5" y="-62" font-family="Courier,monospace" font-size="10.00">TimeSequenceStepperBase</text>
</a>
</g>
</g>
<!-- Node12 -->
<g id="node12" class="node">
<title>Node12</title>
<g id="a_node12"><a xlink:href="classCSVTimeSequenceStepper.html" target="_top" xlink:title="Solves the PDEs at a sequence of time points given as a column in a text table file (such as a *....">
<polygon fill="white" stroke="#666666" points="1017,-130 868,-130 868,-111 1017,-111 1017,-130"/>
<text text-anchor="middle" x="942.5" y="-118" font-family="Courier,monospace" font-size="10.00">CSVTimeSequenceStepper</text>
</a>
</g>
</g>
<!-- Node1&#45;&gt;Node12 -->
<g id="edge11" class="edge">
<title>Node1&#45;&gt;Node12</title>
<path fill="none" stroke="#63b8ff" d="M783.81,-78.26C805.56,-85.99 833.62,-95.47 859,-102.5 869.45,-105.4 880.76,-108.12 891.55,-110.53"/>
<polygon fill="#63b8ff" stroke="#63b8ff" points="785.08,-75 774.49,-74.91 782.72,-81.59 785.08,-75"/>
</g>
<!-- Node13 -->
<g id="node13" class="node">
<title>Node13</title>
<g id="a_node13"><a xlink:href="classExodusTimeSequenceStepper.html" target="_top" xlink:title="Solves the PDEs at a sequence of time points given as a vector in the input file.">
<polygon fill="white" stroke="#666666" points="1026,-93 859,-93 859,-74 1026,-74 1026,-93"/>
<text text-anchor="middle" x="942.5" y="-81" font-family="Courier,monospace" font-size="10.00">ExodusTimeSequenceStepper</text>
</a>
</g>
</g>
<!-- Node1&#45;&gt;Node13 -->
<g id="edge12" class="edge">
<title>Node1&#45;&gt;Node13</title>
<path fill="none" stroke="#63b8ff" d="M834.56,-73.08C842.58,-73.86 850.69,-74.65 858.67,-75.43"/>
<polygon fill="#63b8ff" stroke="#63b8ff" points="835.09,-69.62 824.8,-72.13 834.41,-76.58 835.09,-69.62"/>
</g>
<!-- Node14 -->
<g id="node14" class="node">
<title>Node14</title>
<g id="a_node14"><a xlink:href="classTimeSequenceFromTimes.html" target="_top" xlink:title="Time sequence stepper that gets its sequence of times to hit from a times object.">
<polygon fill="white" stroke="#666666" points="1014,-56 871,-56 871,-37 1014,-37 1014,-56"/>
<text text-anchor="middle" x="942.5" y="-44" font-family="Courier,monospace" font-size="10.00">TimeSequenceFromTimes</text>
</a>
</g>
</g>
<!-- Node1&#45;&gt;Node14 -->
<g id="edge13" class="edge">
<title>Node1&#45;&gt;Node14</title>
<path fill="none" stroke="#63b8ff" d="M834.41,-56.39C846.6,-55.26 858.99,-54.12 870.81,-53.02"/>
<polygon fill="#63b8ff" stroke="#63b8ff" points="834.43,-52.87 824.8,-57.27 835.08,-59.84 834.43,-52.87"/>
</g>
<!-- Node15 -->
<g id="node15" class="node">
<title>Node15</title>
<g id="a_node15"><a xlink:href="classTimeSequenceStepper.html" target="_top" xlink:title="Solves the PDEs at a sequence of time points given as a vector in the input file.">
<polygon fill="white" stroke="#666666" points="1008,-19 877,-19 877,0 1008,0 1008,-19"/>
<text text-anchor="middle" x="942.5" y="-7" font-family="Courier,monospace" font-size="10.00">TimeSequenceStepper</text>
</a>
</g>
</g>
<!-- Node1&#45;&gt;Node15 -->
<g id="edge14" class="edge">
<title>Node1&#45;&gt;Node15</title>
<path fill="none" stroke="#63b8ff" d="M784.72,-50.85C806.35,-43.39 834,-34.32 859,-27.5 869.61,-24.61 881.08,-21.86 892,-19.43"/>
<polygon fill="#63b8ff" stroke="#63b8ff" points="783.72,-47.49 775.43,-54.08 786.02,-54.1 783.72,-47.49"/>
</g>
<!-- Node2 -->
<g id="node2" class="node">
<title>Node2</title>
<g id="a_node2"><a xlink:href="classTimeStepper.html" target="_top" xlink:title="Base class for time stepping.">
<polygon fill="white" stroke="#666666" points="632,-74 549,-74 549,-55 632,-55 632,-74"/>
<text text-anchor="middle" x="590.5" y="-62" font-family="Courier,monospace" font-size="10.00">TimeStepper</text>
</a>
</g>
</g>
<!-- Node2&#45;&gt;Node1 -->
<g id="edge1" class="edge">
<title>Node2&#45;&gt;Node1</title>
<path fill="none" stroke="#63b8ff" d="M643.55,-64.5C651.31,-64.5 659.45,-64.5 667.6,-64.5"/>
<polygon fill="#63b8ff" stroke="#63b8ff" points="643.61,-61 633.61,-64.5 643.61,-68 643.61,-61"/>
</g>
<!-- Node3 -->
<g id="node3" class="node">
<title>Node3</title>
<g id="a_node3"><a xlink:href="classMooseObject.html" target="_top" xlink:title="Every object that can be built by the factory should be derived from this class.">
<polygon fill="white" stroke="#666666" points="498,-111 415,-111 415,-92 498,-92 498,-111"/>
<text text-anchor="middle" x="456.5" y="-99" font-family="Courier,monospace" font-size="10.00">MooseObject</text>
</a>
</g>
</g>
<!-- Node3&#45;&gt;Node2 -->
<g id="edge2" class="edge">
<title>Node3&#45;&gt;Node2</title>
<path fill="none" stroke="#63b8ff" d="M503.93,-88.49C520.38,-83.87 538.63,-78.76 554.03,-74.44"/>
<polygon fill="#63b8ff" stroke="#63b8ff" points="503.02,-85.11 494.33,-91.18 504.9,-91.85 503.02,-85.11"/>
</g>
<!-- Node4 -->
<g id="node4" class="node">
<title>Node4</title>
<g id="a_node4"><a xlink:href="classMooseBase.html" target="_top" xlink:title="Base class for everything in MOOSE with a name and a type.">
<polygon fill="white" stroke="#666666" points="310,-185 239,-185 239,-166 310,-166 310,-185"/>
<text text-anchor="middle" x="274.5" y="-173" font-family="Courier,monospace" font-size="10.00">MooseBase</text>
</a>
</g>
</g>
<!-- Node4&#45;&gt;Node3 -->
<g id="edge3" class="edge">
<title>Node4&#45;&gt;Node3</title>
<path fill="none" stroke="#63b8ff" d="M321.67,-169.25C335.57,-166.54 350.66,-162.75 364,-157.5 394.16,-145.63 425.59,-124.03 442.63,-111.4"/>
<polygon fill="#63b8ff" stroke="#63b8ff" points="321.06,-165.81 311.83,-171.02 322.29,-172.7 321.06,-165.81"/>
</g>
<!-- Node5 -->
<g id="node5" class="node">
<title>Node5</title>
<g id="a_node5"><a xlink:href="classMooseBaseParameterInterface.html" target="_top" xlink:title="Every object that can be built by the factory should be derived from this class.">
<polygon fill="white" stroke="#666666" points="364,-148 185,-148 185,-129 364,-129 364,-148"/>
<text text-anchor="middle" x="274.5" y="-136" font-family="Courier,monospace" font-size="10.00">MooseBaseParameterInterface</text>
</a>
</g>
</g>
<!-- Node5&#45;&gt;Node3 -->
<g id="edge4" class="edge">
<title>Node5&#45;&gt;Node3</title>
<path fill="none" stroke="#63b8ff" d="M335.65,-126.3C345.14,-124.37 354.84,-122.38 364,-120.5 380.53,-117.1 398.73,-113.33 414.51,-110.05"/>
<polygon fill="#63b8ff" stroke="#63b8ff" points="335.24,-122.81 326.14,-128.24 336.64,-129.67 335.24,-122.81"/>
</g>
<!-- Node6 -->
<g id="node6" class="node">
<title>Node6</title>
<g id="a_node6"><a xlink:href="classMooseBaseErrorInterface.html" target="_top" xlink:title="Interface that provides APIs to output errors/warnings/info messages.">
<polygon fill="white" stroke="#666666" points="352,-111 197,-111 197,-92 352,-92 352,-111"/>
<text text-anchor="middle" x="274.5" y="-99" font-family="Courier,monospace" font-size="10.00">MooseBaseErrorInterface</text>
</a>
</g>
</g>
<!-- Node6&#45;&gt;Node3 -->
<g id="edge5" class="edge">
<title>Node6&#45;&gt;Node3</title>
<path fill="none" stroke="#63b8ff" d="M363.71,-101.5C381.52,-101.5 399.42,-101.5 414.63,-101.5"/>
<polygon fill="#63b8ff" stroke="#63b8ff" points="363.87,-98 353.87,-101.5 363.87,-105 363.87,-98"/>
</g>
<!-- Node7 -->
<g id="node7" class="node">
<title>Node7</title>
<g id="a_node7"><a xlink:href="classConsoleStreamInterface.html" target="_top" xlink:title="An inteface for the _console for outputting to the Console object.">
<polygon fill="white" stroke="#666666" points="149,-111 0,-111 0,-92 149,-92 149,-111"/>
<text text-anchor="middle" x="74.5" y="-99" font-family="Courier,monospace" font-size="10.00">ConsoleStreamInterface</text>
</a>
</g>
</g>
<!-- Node7&#45;&gt;Node6 -->
<g id="edge6" class="edge">
<title>Node7&#45;&gt;Node6</title>
<path fill="none" stroke="#63b8ff" d="M160.62,-101.5C172.62,-101.5 184.9,-101.5 196.73,-101.5"/>
<polygon fill="#63b8ff" stroke="#63b8ff" points="160.74,-98 150.74,-101.5 160.74,-105 160.74,-98"/>
</g>
<!-- Node8 -->
<g id="node8" class="node">
<title>Node8</title>
<g id="a_node8"><a xlink:title=" ">
<polygon fill="white" stroke="#666666" points="352,-74 197,-74 197,-55 352,-55 352,-74"/>
<text text-anchor="middle" x="274.5" y="-62" font-family="Courier,monospace" font-size="10.00">libMesh::ParallelObject</text>
</a>
</g>
</g>
<!-- Node8&#45;&gt;Node3 -->
<g id="edge7" class="edge">
<title>Node8&#45;&gt;Node3</title>
<path fill="none" stroke="#63b8ff" d="M335.65,-76.7C345.14,-78.63 354.84,-80.62 364,-82.5 380.53,-85.9 398.73,-89.67 414.51,-92.95"/>
<polygon fill="#63b8ff" stroke="#63b8ff" points="336.64,-73.33 326.14,-74.76 335.24,-80.19 336.64,-73.33"/>
</g>
<!-- Node9 -->
<g id="node9" class="node">
<title>Node9</title>
<g id="a_node9"><a xlink:href="classDataFileInterface.html" target="_top" xlink:title=" ">
<polygon fill="white" stroke="#666666" points="337,-36.5 212,-36.5 212,-6.5 337,-6.5 337,-36.5"/>
<text text-anchor="start" x="220" y="-24.5" font-family="Courier,monospace" font-size="10.00">DataFileInterface&lt;</text>
<text text-anchor="middle" x="274.5" y="-13.5" font-family="Courier,monospace" font-size="10.00"> MooseObject &gt;</text>
</a>
</g>
</g>
<!-- Node9&#45;&gt;Node3 -->
<g id="edge8" class="edge">
<title>Node9&#45;&gt;Node3</title>
<path fill="none" stroke="#63b8ff" d="M347.62,-37.49C353.32,-39.82 358.86,-42.47 364,-45.5 383.77,-57.14 380.62,-70.23 400,-82.5 405.68,-86.1 412.12,-89.1 418.55,-91.58"/>
<polygon fill="#63b8ff" stroke="#63b8ff" points="349.23,-34.35 338.64,-34.17 346.8,-40.92 349.23,-34.35"/>
</g>
<!-- Node10 -->
<g id="node10" class="node">
<title>Node10</title>
<g id="a_node10"><a xlink:href="classRestartable.html" target="_top" xlink:title="A class for creating restricted objects.">
<polygon fill="white" stroke="#666666" points="498,-74 415,-74 415,-55 498,-55 498,-74"/>
<text text-anchor="middle" x="456.5" y="-62" font-family="Courier,monospace" font-size="10.00">Restartable</text>
</a>
</g>
</g>
<!-- Node10&#45;&gt;Node2 -->
<g id="edge9" class="edge">
<title>Node10&#45;&gt;Node2</title>
<path fill="none" stroke="#63b8ff" d="M509.41,-64.5C522.47,-64.5 536.3,-64.5 548.73,-64.5"/>
<polygon fill="#63b8ff" stroke="#63b8ff" points="509.7,-61 499.69,-64.5 509.69,-68 509.7,-61"/>
</g>
<!-- Node11 -->
<g id="node11" class="node">
<title>Node11</title>
<g id="a_node11"><a xlink:href="classScalarCoupleable.html" target="_top" xlink:title="Interface for objects that needs scalar coupling capabilities.">
<polygon fill="white" stroke="#666666" points="513,-37 400,-37 400,-18 513,-18 513,-37"/>
<text text-anchor="middle" x="456.5" y="-25" font-family="Courier,monospace" font-size="10.00">ScalarCoupleable</text>
</a>
</g>
</g>
<!-- Node11&#45;&gt;Node2 -->
<g id="edge10" class="edge">
<title>Node11&#45;&gt;Node2</title>
<path fill="none" stroke="#63b8ff" d="M503.93,-40.51C520.38,-45.13 538.63,-50.24 554.03,-54.56"/>
<polygon fill="#63b8ff" stroke="#63b8ff" points="504.9,-37.15 494.33,-37.82 503.02,-43.89 504.9,-37.15"/>
</g>
</g>
</svg>
        <g id="navigator" transform="translate(0 0)" fill="#404254">
                <rect fill="#f2f5e9" fill-opacity="0.5" stroke="#606060" stroke-width=".5" x="0" y="0" width="60" height="60"/>
                <use id="zoomplus" xlink:href="#zoomPlus" x="17" y="9" onmousedown="handleZoom(evt,'in')"/>
                <use id="zoomminus" xlink:href="#zoomMin" x="42" y="9" onmousedown="handleZoom(evt,'out')"/>
                <use id="reset" xlink:href="#resetDef" x="30" y="36" onmousedown="handleReset()"/>
                <g id="arrowUp" xlink:href="#dirArrow" transform="translate(30 24)" onmousedown="handlePan(0,-1)">
                  <use xlink:href="#rim" fill="#404040">
                        <set attributeName="fill" to="#808080" begin="arrowUp.mouseover" end="arrowUp.mouseout"/>
                  </use>
                  <path fill="none" stroke="white" stroke-width="1.5" d="M0,-3.0v7 M-2.5,-0.5L0,-3.0L2.5,-0.5"/>
                </g>
                <g id="arrowRight" xlink:href="#dirArrow" transform="rotate(90) translate(36 -43)" onmousedown="handlePan(1,0)">
                  <use xlink:href="#rim" fill="#404040">
                        <set attributeName="fill" to="#808080" begin="arrowRight.mouseover" end="arrowRight.mouseout"/>
                  </use>
                  <path fill="none" stroke="white" stroke-width="1.5" d="M0,-3.0v7 M-2.5,-0.5L0,-3.0L2.5,-0.5"/>
                </g>
                <g id="arrowDown" xlink:href="#dirArrow" transform="rotate(180) translate(-30 -48)" onmousedown="handlePan(0,1)">
                  <use xlink:href="#rim" fill="#404040">
                        <set attributeName="fill" to="#808080" begin="arrowDown.mouseover" end="arrowDown.mouseout"/>
                  </use>
                  <path fill="none" stroke="white" stroke-width="1.5" d="M0,-3.0v7 M-2.5,-0.5L0,-3.0L2.5,-0.5"/>
                </g>
                <g id="arrowLeft" xlink:href="#dirArrow" transform="rotate(270) translate(-36 17)" onmousedown="handlePan(-1,0)">
                  <use xlink:href="#rim" fill="#404040">
                        <set attributeName="fill" to="#808080" begin="arrowLeft.mouseover" end="arrowLeft.mouseout"/>
                  </use>
                  <path fill="none" stroke="white" stroke-width="1.5" d="M0,-3.0v7 M-2.5,-0.5L0,-3.0L2.5,-0.5"/>
                </g>
        </g>
        <svg viewBox="0 0 15 15" width="100%" height="30px" preserveAspectRatio="xMaxYMin meet">
         <g id="arrow_out" transform="scale(0.3 0.3)">
          <a xlink:href="classTimeSequenceStepperBase__inherit__graph_org.svg" target="_base">
           <rect id="button" ry="5" rx="5" y="6" x="6" height="38" width="38"
                fill="#f2f5e9" fill-opacity="0.5" stroke="#606060" stroke-width="1.0"/>
           <path id="arrow"
             d="M 11.500037,31.436501 C 11.940474,20.09759 22.043105,11.32322 32.158766,21.979434 L 37.068811,17.246167 C 37.068811,17.246167 37.088388,32 37.088388,32 L 22.160133,31.978069 C 22.160133,31.978069 26.997745,27.140456 26.997745,27.140456 C 18.528582,18.264221 13.291696,25.230495 11.500037,31.436501 z"
             style="fill:#404040;"/>
          </a>
         </g>
        </svg>
</svg>
