<?xml version="1.0" encoding="UTF-8" standalone="no"?>
<!DOCTYPE svg PUBLIC "-//W3C//DTD SVG 1.1//EN"
 "http://www.w3.org/Graphics/SVG/1.1/DTD/svg11.dtd">
<!-- Generated by graphviz version 7.0.5 (20221223.1930)
 -->
<!-- Title: FVFluxBC Pages: 1 -->
<!--zoomable 745 -->
<svg id="main" version="1.1" xmlns="http://www.w3.org/2000/svg" xmlns:xlink="http://www.w3.org/1999/xlink" xml:space="preserve" onload="init(evt)">
<style type="text/css"><![CDATA[
.edge:hover path { stroke: red; }
.edge:hover polygon { stroke: red; fill: red; }
]]></style>
<script type="text/javascript"><![CDATA[
var edges = document.getElementsByTagName('g');
if (edges && edges.length) {
  for (var i=0;i<edges.length;i++) {
    if (edges[i].id.substr(0,4)=='edge') {
      edges[i].setAttribute('class','edge');
    }
  }
}
]]></script>
        <defs>
                <circle id="rim" cx="0" cy="0" r="7"/>
                <circle id="rim2" cx="0" cy="0" r="3.5"/>
                <g id="zoomPlus">
                        <use xlink:href="#rim" fill="#404040">
                                <set attributeName="fill" to="#808080" begin="zoomplus.mouseover" end="zoomplus.mouseout"/>
                        </use>
                        <path d="M-4,0h8M0,-4v8" fill="none" stroke="white" stroke-width="1.5" pointer-events="none"/>
                </g>
                <g id="zoomMin">
                        <use xlink:href="#rim" fill="#404040">
                                <set attributeName="fill" to="#808080" begin="zoomminus.mouseover" end="zoomminus.mouseout"/>
                        </use>
                        <path d="M-4,0h8" fill="none" stroke="white" stroke-width="1.5" pointer-events="none"/>
                </g>
                <g id="dirArrow">
                        <path fill="none" stroke="white" stroke-width="1.5" d="M0,-3.0v7 M-2.5,-0.5L0,-3.0L2.5,-0.5"/>
                </g>
               <g id="resetDef">
                       <use xlink:href="#rim2" fill="#404040">
                               <set attributeName="fill" to="#808080" begin="reset.mouseover" end="reset.mouseout"/>
                       </use>
               </g>
        </defs>

<script type="text/javascript">
var viewWidth = 1435;
var viewHeight = 745;
var sectionId = 'dynsection-0';
</script>
<script xlink:href="svgpan.js"/>
<svg id="graph" class="graph">
<g id="viewport">
<title>FVFluxBC</title>
<!-- Node1 -->
<g id="node1" class="node">
<title>Node1</title>
<g id="a_node1"><a xlink:title="Provides an interface for computing residual contributions from finite volume numerical fluxes comput...">
<polygon fill="#999999" stroke="#666666" points="949,-111 884,-111 884,-92 949,-92 949,-111"/>
<text text-anchor="middle" x="916.5" y="-99" font-family="Courier,monospace" font-size="10.00">FVFluxBC</text>
</a>
</g>
</g>
<!-- Node35 -->
<g id="node35" class="node">
<title>Node35</title>
<g id="a_node35"><a xlink:href="classFVBoundaryScalarLagrangeMultiplierConstraint.html" target="_top" xlink:title="Base class for implementing constraints on boundaries for finite volume variables using scalar Lagran...">
<polygon fill="white" stroke="#666666" points="1161,-215.5 1000,-215.5 1000,-185.5 1161,-185.5 1161,-215.5"/>
<text text-anchor="start" x="1008" y="-203.5" font-family="Courier,monospace" font-size="10.00">FVBoundaryScalarLagrange</text>
<text text-anchor="middle" x="1080.5" y="-192.5" font-family="Courier,monospace" font-size="10.00">MultiplierConstraint</text>
</a>
</g>
</g>
<!-- Node1&#45;&gt;Node35 -->
<g id="edge35" class="edge">
<title>Node1&#45;&gt;Node35</title>
<path fill="none" stroke="#63b8ff" d="M929.76,-120.59C941.79,-137.78 961.69,-162.42 985,-176.5 990.51,-179.83 996.46,-182.69 1002.61,-185.16"/>
<polygon fill="#63b8ff" stroke="#63b8ff" points="932.96,-119.07 924.47,-112.73 927.15,-122.98 932.96,-119.07"/>
</g>
<!-- Node37 -->
<g id="node37" class="node">
<title>Node37</title>
<g id="a_node37"><a xlink:href="classFVConstantScalarOutflowBC.html" target="_top" xlink:title="Constant velocity scalar advection boundary conditions.">
<polygon fill="white" stroke="#666666" points="1164,-167 997,-167 997,-148 1164,-148 1164,-167"/>
<text text-anchor="middle" x="1080.5" y="-155" font-family="Courier,monospace" font-size="10.00">FVConstantScalarOutflowBC</text>
</a>
</g>
</g>
<!-- Node1&#45;&gt;Node37 -->
<g id="edge37" class="edge">
<title>Node1&#45;&gt;Node37</title>
<path fill="none" stroke="#63b8ff" d="M941.48,-117.53C953.98,-125.22 969.8,-133.94 985,-139.5 993.71,-142.68 1003.08,-145.33 1012.42,-147.53"/>
<polygon fill="#63b8ff" stroke="#63b8ff" points="943.44,-114.63 933.12,-112.22 939.68,-120.53 943.44,-114.63"/>
</g>
<!-- Node38 -->
<g id="node38" class="node">
<title>Node38</title>
<g id="a_node38"><a xlink:href="classFVFunctionNeumannBC.html" target="_top" xlink:title="Neumann boundary (== fixed inflow) condition for finite volume scheme.">
<polygon fill="white" stroke="#666666" points="1146,-130 1015,-130 1015,-111 1146,-111 1146,-130"/>
<text text-anchor="middle" x="1080.5" y="-118" font-family="Courier,monospace" font-size="10.00">FVFunctionNeumannBC</text>
</a>
</g>
</g>
<!-- Node1&#45;&gt;Node38 -->
<g id="edge38" class="edge">
<title>Node1&#45;&gt;Node38</title>
<path fill="none" stroke="#63b8ff" d="M960.18,-106.51C976.89,-108.47 996.42,-110.76 1014.78,-112.91"/>
<polygon fill="#63b8ff" stroke="#63b8ff" points="960.96,-103.07 950.62,-105.38 960.15,-110.03 960.96,-103.07"/>
</g>
<!-- Node39 -->
<g id="node39" class="node">
<title>Node39</title>
<g id="a_node39"><a xlink:href="classFVFunctorNeumannBC.html" target="_top" xlink:title="Neumann boundary (== inflow) condition for finite volume scheme where the inflow is given as a functo...">
<polygon fill="white" stroke="#666666" points="1143,-93 1018,-93 1018,-74 1143,-74 1143,-93"/>
<text text-anchor="middle" x="1080.5" y="-81" font-family="Courier,monospace" font-size="10.00">FVFunctorNeumannBC</text>
</a>
</g>
</g>
<!-- Node1&#45;&gt;Node39 -->
<g id="edge39" class="edge">
<title>Node1&#45;&gt;Node39</title>
<path fill="none" stroke="#63b8ff" d="M960.44,-96.73C978,-94.78 998.65,-92.48 1017.77,-90.36"/>
<polygon fill="#63b8ff" stroke="#63b8ff" points="960.18,-93.24 950.62,-97.82 960.95,-100.19 960.18,-93.24"/>
</g>
<!-- Node40 -->
<g id="node40" class="node">
<title>Node40</title>
<g id="a_node40"><a xlink:href="classFVNeumannBC.html" target="_top" xlink:title="Neumann boundary (== fixed inflow) condition for finite volume scheme.">
<polygon fill="white" stroke="#666666" points="1122,-56 1039,-56 1039,-37 1122,-37 1122,-56"/>
<text text-anchor="middle" x="1080.5" y="-44" font-family="Courier,monospace" font-size="10.00">FVNeumannBC</text>
</a>
</g>
</g>
<!-- Node1&#45;&gt;Node40 -->
<g id="edge40" class="edge">
<title>Node1&#45;&gt;Node40</title>
<path fill="none" stroke="#63b8ff" d="M942.59,-85.86C954.97,-78.74 970.35,-70.75 985,-65.5 1002.17,-59.35 1021.85,-54.99 1038.79,-52.01"/>
<polygon fill="#63b8ff" stroke="#63b8ff" points="941.11,-82.67 934.29,-90.78 944.68,-88.69 941.11,-82.67"/>
</g>
<!-- Node41 -->
<g id="node41" class="node">
<title>Node41</title>
<g id="a_node41"><a xlink:href="classFVOrthogonalBoundaryDiffusion.html" target="_top" xlink:title="This class computes a boundary diffusion flux by taking the difference between a provided boundary va...">
<polygon fill="white" stroke="#666666" points="1176,-19 985,-19 985,0 1176,0 1176,-19"/>
<text text-anchor="middle" x="1080.5" y="-7" font-family="Courier,monospace" font-size="10.00">FVOrthogonalBoundaryDiffusion</text>
</a>
</g>
</g>
<!-- Node1&#45;&gt;Node41 -->
<g id="edge41" class="edge">
<title>Node1&#45;&gt;Node41</title>
<path fill="none" stroke="#63b8ff" d="M929.44,-82.61C941.35,-65.42 961.27,-40.76 985,-27.5 990.83,-24.24 997.15,-21.56 1003.65,-19.36"/>
<polygon fill="#63b8ff" stroke="#63b8ff" points="926.84,-80.2 924.22,-90.47 932.67,-84.08 926.84,-80.2"/>
</g>
<!-- Node2 -->
<g id="node2" class="node">
<title>Node2</title>
<g id="a_node2"><a xlink:href="classFVBoundaryCondition.html" target="_top" xlink:title="Base class for creating new types of boundary conditions.">
<polygon fill="white" stroke="#666666" points="812,-429 681,-429 681,-410 812,-410 812,-429"/>
<text text-anchor="middle" x="746.5" y="-417" font-family="Courier,monospace" font-size="10.00">FVBoundaryCondition</text>
</a>
</g>
</g>
<!-- Node2&#45;&gt;Node1 -->
<g id="edge1" class="edge">
<title>Node2&#45;&gt;Node1</title>
<path fill="none" stroke="#63b8ff" d="M757.93,-399.76C790.08,-338.9 886.91,-155.62 910.35,-111.25"/>
<polygon fill="#63b8ff" stroke="#63b8ff" points="755,-397.82 753.42,-408.3 761.19,-401.09 755,-397.82"/>
</g>
<!-- Node3 -->
<g id="node3" class="node">
<title>Node3</title>
<g id="a_node3"><a xlink:href="classMooseObject.html" target="_top" xlink:title="Every object that can be built by the factory should be derived from this class.">
<polygon fill="white" stroke="#666666" points="546,-577 463,-577 463,-558 546,-558 546,-577"/>
<text text-anchor="middle" x="504.5" y="-565" font-family="Courier,monospace" font-size="10.00">MooseObject</text>
</a>
</g>
</g>
<!-- Node3&#45;&gt;Node2 -->
<g id="edge2" class="edge">
<title>Node3&#45;&gt;Node2</title>
<path fill="none" stroke="#63b8ff" d="M557.29,-564.52C574.43,-561.99 593.17,-557.48 609,-549.5 668.92,-519.32 720.4,-454.11 738.54,-429.33"/>
<polygon fill="#63b8ff" stroke="#63b8ff" points="557.28,-560.99 547.8,-565.72 558.16,-567.94 557.28,-560.99"/>
</g>
<!-- Node4 -->
<g id="node4" class="node">
<title>Node4</title>
<g id="a_node4"><a xlink:href="classMooseBase.html" target="_top" xlink:title="Base class for everything in MOOSE with a name and a type.">
<polygon fill="white" stroke="#666666" points="310,-555 239,-555 239,-536 310,-536 310,-555"/>
<text text-anchor="middle" x="274.5" y="-543" font-family="Courier,monospace" font-size="10.00">MooseBase</text>
</a>
</g>
</g>
<!-- Node4&#45;&gt;Node3 -->
<g id="edge3" class="edge">
<title>Node4&#45;&gt;Node3</title>
<path fill="none" stroke="#63b8ff" d="M321.53,-549.94C362.9,-553.93 423.09,-559.74 462.76,-563.57"/>
<polygon fill="#63b8ff" stroke="#63b8ff" points="321.92,-546.46 311.63,-548.99 321.25,-553.43 321.92,-546.46"/>
</g>
<!-- Node5 -->
<g id="node5" class="node">
<title>Node5</title>
<g id="a_node5"><a xlink:href="classMooseBaseParameterInterface.html" target="_top" xlink:title="Every object that can be built by the factory should be derived from this class.">
<polygon fill="white" stroke="#666666" points="364,-518 185,-518 185,-499 364,-499 364,-518"/>
<text text-anchor="middle" x="274.5" y="-506" font-family="Courier,monospace" font-size="10.00">MooseBaseParameterInterface</text>
</a>
</g>
</g>
<!-- Node5&#45;&gt;Node3 -->
<g id="edge4" class="edge">
<title>Node5&#45;&gt;Node3</title>
<path fill="none" stroke="#63b8ff" d="M346.31,-521.45C352.37,-523.23 358.34,-525.24 364,-527.5 381.41,-534.46 382.45,-542.89 400,-549.5 419.97,-557.02 443.3,-561.43 462.76,-564"/>
<polygon fill="#63b8ff" stroke="#63b8ff" points="347.38,-518.11 336.81,-518.87 345.55,-524.86 347.38,-518.11"/>
</g>
<!-- Node6 -->
<g id="node6" class="node">
<title>Node6</title>
<g id="a_node6"><a xlink:href="classMooseBaseErrorInterface.html" target="_top" xlink:title="Interface that provides APIs to output errors/warnings/info messages.">
<polygon fill="white" stroke="#666666" points="352,-481 197,-481 197,-462 352,-462 352,-481"/>
<text text-anchor="middle" x="274.5" y="-469" font-family="Courier,monospace" font-size="10.00">MooseBaseErrorInterface</text>
</a>
</g>
</g>
<!-- Node6&#45;&gt;Node3 -->
<g id="edge5" class="edge">
<title>Node6&#45;&gt;Node3</title>
<path fill="none" stroke="#63b8ff" d="M357.5,-486.39C359.74,-487.66 361.92,-489.02 364,-490.5 389.05,-508.28 374.6,-532.22 400,-549.5 418.24,-561.92 442.36,-566.62 462.73,-568.12"/>
<polygon fill="#63b8ff" stroke="#63b8ff" points="359.14,-483.3 348.61,-482.14 356.12,-489.61 359.14,-483.3"/>
</g>
<!-- Node7 -->
<g id="node7" class="node">
<title>Node7</title>
<g id="a_node7"><a xlink:href="classConsoleStreamInterface.html" target="_top" xlink:title="An inteface for the _console for outputting to the Console object.">
<polygon fill="white" stroke="#666666" points="149,-481 0,-481 0,-462 149,-462 149,-481"/>
<text text-anchor="middle" x="74.5" y="-469" font-family="Courier,monospace" font-size="10.00">ConsoleStreamInterface</text>
</a>
</g>
</g>
<!-- Node7&#45;&gt;Node6 -->
<g id="edge6" class="edge">
<title>Node7&#45;&gt;Node6</title>
<path fill="none" stroke="#63b8ff" d="M160.62,-471.5C172.62,-471.5 184.9,-471.5 196.73,-471.5"/>
<polygon fill="#63b8ff" stroke="#63b8ff" points="160.74,-468 150.74,-471.5 160.74,-475 160.74,-468"/>
</g>
<!-- Node8 -->
<g id="node8" class="node">
<title>Node8</title>
<g id="a_node8"><a xlink:title=" ">
<polygon fill="white" stroke="#666666" points="352,-641 197,-641 197,-622 352,-622 352,-641"/>
<text text-anchor="middle" x="274.5" y="-629" font-family="Courier,monospace" font-size="10.00">libMesh::ParallelObject</text>
</a>
</g>
</g>
<!-- Node8&#45;&gt;Node3 -->
<g id="edge7" class="edge">
<title>Node8&#45;&gt;Node3</title>
<path fill="none" stroke="#63b8ff" d="M348.79,-618.29C354.02,-616.58 359.14,-614.66 364,-612.5 382.03,-604.48 381.85,-594.25 400,-586.5 419.83,-578.04 443.36,-573.34 462.98,-570.73"/>
<polygon fill="#63b8ff" stroke="#63b8ff" points="348,-614.88 339.41,-621.07 349.99,-621.59 348,-614.88"/>
</g>
<!-- Node9 -->
<g id="node9" class="node">
<title>Node9</title>
<g id="a_node9"><a xlink:href="classDataFileInterface.html" target="_top" xlink:title=" ">
<polygon fill="white" stroke="#666666" points="337,-603.5 212,-603.5 212,-573.5 337,-573.5 337,-603.5"/>
<text text-anchor="start" x="220" y="-591.5" font-family="Courier,monospace" font-size="10.00">DataFileInterface&lt;</text>
<text text-anchor="middle" x="274.5" y="-580.5" font-family="Courier,monospace" font-size="10.00"> MooseObject &gt;</text>
</a>
</g>
</g>
<!-- Node9&#45;&gt;Node3 -->
<g id="edge8" class="edge">
<title>Node9&#45;&gt;Node3</title>
<path fill="none" stroke="#63b8ff" d="M348.18,-581.81C386.01,-578.32 430.86,-574.19 462.62,-571.27"/>
<polygon fill="#63b8ff" stroke="#63b8ff" points="348.34,-578.28 338.71,-582.68 348.99,-585.25 348.34,-578.28"/>
</g>
<!-- Node10 -->
<g id="node10" class="node">
<title>Node10</title>
<g id="a_node10"><a xlink:href="classBoundaryRestrictableRequired.html" target="_top" xlink:title="A class for requiring an object to be boundary restricted.">
<polygon fill="white" stroke="#666666" points="597,-540 412,-540 412,-521 597,-521 597,-540"/>
<text text-anchor="middle" x="504.5" y="-528" font-family="Courier,monospace" font-size="10.00">BoundaryRestrictableRequired</text>
</a>
</g>
</g>
<!-- Node10&#45;&gt;Node2 -->
<g id="edge9" class="edge">
<title>Node10&#45;&gt;Node2</title>
<path fill="none" stroke="#63b8ff" d="M594.74,-517.53C599.62,-516.03 604.41,-514.36 609,-512.5 660.82,-491.49 712.9,-448.53 734.77,-429.25"/>
<polygon fill="#63b8ff" stroke="#63b8ff" points="594.08,-514.08 585.39,-520.13 595.96,-520.82 594.08,-514.08"/>
</g>
<!-- Node11 -->
<g id="node11" class="node">
<title>Node11</title>
<g id="a_node11"><a xlink:href="classBoundaryRestrictable.html" target="_top" xlink:title="/class BoundaryRestrictable /brief Provides functionality for limiting the object to certain boundary...">
<polygon fill="white" stroke="#666666" points="343,-444 206,-444 206,-425 343,-425 343,-444"/>
<text text-anchor="middle" x="274.5" y="-432" font-family="Courier,monospace" font-size="10.00">BoundaryRestrictable</text>
</a>
</g>
</g>
<!-- Node11&#45;&gt;Node10 -->
<g id="edge10" class="edge">
<title>Node11&#45;&gt;Node10</title>
<path fill="none" stroke="#63b8ff" d="M353.69,-447.38C357.3,-449.17 360.76,-451.2 364,-453.5 389.05,-471.28 374.6,-495.22 400,-512.5 404.67,-515.68 409.73,-518.36 415.02,-520.6"/>
<polygon fill="#63b8ff" stroke="#63b8ff" points="355.16,-444.2 344.59,-443.53 352.43,-450.65 355.16,-444.2"/>
</g>
<!-- Node12 -->
<g id="node12" class="node">
<title>Node12</title>
<g id="a_node12"><a xlink:href="classSetupInterface.html" target="_top" xlink:title=" ">
<polygon fill="white" stroke="#666666" points="555,-503 454,-503 454,-484 555,-484 555,-503"/>
<text text-anchor="middle" x="504.5" y="-491" font-family="Courier,monospace" font-size="10.00">SetupInterface</text>
</a>
</g>
</g>
<!-- Node12&#45;&gt;Node2 -->
<g id="edge11" class="edge">
<title>Node12&#45;&gt;Node2</title>
<path fill="none" stroke="#63b8ff" d="M566.57,-485.15C580.64,-482.6 595.45,-479.41 609,-475.5 651.58,-463.22 698.95,-441.96 725.19,-429.47"/>
<polygon fill="#63b8ff" stroke="#63b8ff" points="566.24,-481.65 556.98,-486.8 567.42,-488.55 566.24,-481.65"/>
</g>
<!-- Node13 -->
<g id="node13" class="node">
<title>Node13</title>
<g id="a_node13"><a xlink:href="classFunctionInterface.html" target="_top" xlink:title="Interface for objects that need to use functions.">
<polygon fill="white" stroke="#666666" points="564,-466 445,-466 445,-447 564,-447 564,-466"/>
<text text-anchor="middle" x="504.5" y="-454" font-family="Courier,monospace" font-size="10.00">FunctionInterface</text>
</a>
</g>
</g>
<!-- Node13&#45;&gt;Node2 -->
<g id="edge12" class="edge">
<title>Node13&#45;&gt;Node2</title>
<path fill="none" stroke="#63b8ff" d="M575.23,-445.75C608.49,-440.62 648.04,-434.53 680.64,-429.5"/>
<polygon fill="#63b8ff" stroke="#63b8ff" points="575.06,-442.24 565.71,-447.22 576.12,-449.15 575.06,-442.24"/>
</g>
<!-- Node14 -->
<g id="node14" class="node">
<title>Node14</title>
<g id="a_node14"><a xlink:href="classDistributionInterface.html" target="_top" xlink:title="Interface for objects that need to use distributions.">
<polygon fill="white" stroke="#666666" points="576,-429 433,-429 433,-410 576,-410 576,-429"/>
<text text-anchor="middle" x="504.5" y="-417" font-family="Courier,monospace" font-size="10.00">DistributionInterface</text>
</a>
</g>
</g>
<!-- Node14&#45;&gt;Node2 -->
<g id="edge13" class="edge">
<title>Node14&#45;&gt;Node2</title>
<path fill="none" stroke="#63b8ff" d="M587.65,-419.5C618.02,-419.5 652,-419.5 680.62,-419.5"/>
<polygon fill="#63b8ff" stroke="#63b8ff" points="587.72,-416 577.72,-419.5 587.72,-423 587.72,-416"/>
</g>
<!-- Node15 -->
<g id="node15" class="node">
<title>Node15</title>
<g id="a_node15"><a xlink:href="classUserObjectInterface.html" target="_top" xlink:title="Interface for objects that need to use UserObjects.">
<polygon fill="white" stroke="#666666" points="570,-392 439,-392 439,-373 570,-373 570,-392"/>
<text text-anchor="middle" x="504.5" y="-380" font-family="Courier,monospace" font-size="10.00">UserObjectInterface</text>
</a>
</g>
</g>
<!-- Node15&#45;&gt;Node2 -->
<g id="edge14" class="edge">
<title>Node15&#45;&gt;Node2</title>
<path fill="none" stroke="#63b8ff" d="M581.22,-394.17C613.2,-399.1 650.06,-404.79 680.75,-409.52"/>
<polygon fill="#63b8ff" stroke="#63b8ff" points="582.04,-390.76 571.63,-392.69 580.98,-397.68 582.04,-390.76"/>
</g>
<!-- Node16 -->
<g id="node16" class="node">
<title>Node16</title>
<g id="a_node16"><a xlink:href="classTransientInterface.html" target="_top" xlink:title="Interface for objects that needs transient capabilities.">
<polygon fill="white" stroke="#666666" points="567,-355 442,-355 442,-336 567,-336 567,-355"/>
<text text-anchor="middle" x="504.5" y="-343" font-family="Courier,monospace" font-size="10.00">TransientInterface</text>
</a>
</g>
</g>
<!-- Node16&#45;&gt;Node2 -->
<g id="edge15" class="edge">
<title>Node16&#45;&gt;Node2</title>
<path fill="none" stroke="#63b8ff" d="M578.42,-356.97C588.76,-359.15 599.21,-361.66 609,-364.5 651.21,-376.74 698.32,-397.36 724.69,-409.58"/>
<polygon fill="#63b8ff" stroke="#63b8ff" points="579.25,-353.57 568.76,-355.03 577.87,-360.43 579.25,-353.57"/>
</g>
<!-- Node17 -->
<g id="node17" class="node">
<title>Node17</title>
<g id="a_node17"><a xlink:href="classPostprocessorInterface.html" target="_top" xlink:title="Interface class for classes which interact with Postprocessors.">
<polygon fill="white" stroke="#666666" points="579,-318 430,-318 430,-299 579,-299 579,-318"/>
<text text-anchor="middle" x="504.5" y="-306" font-family="Courier,monospace" font-size="10.00">PostprocessorInterface</text>
</a>
</g>
</g>
<!-- Node17&#45;&gt;Node2 -->
<g id="edge16" class="edge">
<title>Node17&#45;&gt;Node2</title>
<path fill="none" stroke="#63b8ff" d="M590.19,-321.04C596.65,-322.91 602.99,-325.05 609,-327.5 660.33,-348.44 712.25,-390.48 734.39,-409.61"/>
<polygon fill="#63b8ff" stroke="#63b8ff" points="591.26,-317.71 580.7,-318.55 589.48,-324.48 591.26,-317.71"/>
</g>
<!-- Node18 -->
<g id="node18" class="node">
<title>Node18</title>
<g id="a_node18"><a xlink:href="classVectorPostprocessorInterface.html" target="_top" xlink:title=" ">
<polygon fill="white" stroke="#666666" points="597,-281 412,-281 412,-262 597,-262 597,-281"/>
<text text-anchor="middle" x="504.5" y="-269" font-family="Courier,monospace" font-size="10.00">VectorPostprocessorInterface</text>
</a>
</g>
</g>
<!-- Node18&#45;&gt;Node2 -->
<g id="edge17" class="edge">
<title>Node18&#45;&gt;Node2</title>
<path fill="none" stroke="#63b8ff" d="M596.63,-285.08C600.89,-286.69 605.03,-288.49 609,-290.5 668.61,-320.73 720.28,-385.27 738.5,-409.78"/>
<polygon fill="#63b8ff" stroke="#63b8ff" points="597.89,-281.81 587.29,-281.93 595.65,-288.44 597.89,-281.81"/>
</g>
<!-- Node19 -->
<g id="node19" class="node">
<title>Node19</title>
<g id="a_node19"><a xlink:href="classGeometricSearchInterface.html" target="_top" xlink:title=" ">
<polygon fill="white" stroke="#666666" points="585,-244 424,-244 424,-225 585,-225 585,-244"/>
<text text-anchor="middle" x="504.5" y="-232" font-family="Courier,monospace" font-size="10.00">GeometricSearchInterface</text>
</a>
</g>
</g>
<!-- Node19&#45;&gt;Node2 -->
<g id="edge18" class="edge">
<title>Node19&#45;&gt;Node2</title>
<path fill="none" stroke="#63b8ff" d="M596.02,-247.08C600.53,-248.95 604.88,-251.08 609,-253.5 676.84,-293.44 725.58,-380.31 740.62,-409.62"/>
<polygon fill="#63b8ff" stroke="#63b8ff" points="597.3,-243.83 586.71,-243.7 594.92,-250.41 597.3,-243.83"/>
</g>
<!-- Node20 -->
<g id="node20" class="node">
<title>Node20</title>
<g id="a_node20"><a xlink:href="classMeshChangedInterface.html" target="_top" xlink:title="Interface for notifications that the mesh has changed.">
<polygon fill="white" stroke="#666666" points="573,-207 436,-207 436,-188 573,-188 573,-207"/>
<text text-anchor="middle" x="504.5" y="-195" font-family="Courier,monospace" font-size="10.00">MeshChangedInterface</text>
</a>
</g>
</g>
<!-- Node20&#45;&gt;Node2 -->
<g id="edge19" class="edge">
<title>Node20&#45;&gt;Node2</title>
<path fill="none" stroke="#63b8ff" d="M584.17,-204.98C592.96,-207.81 601.45,-211.55 609,-216.5 685.72,-266.79 730.15,-376.73 742.16,-409.86"/>
<polygon fill="#63b8ff" stroke="#63b8ff" points="585.38,-201.69 574.81,-202.38 583.51,-208.43 585.38,-201.69"/>
</g>
<!-- Node21 -->
<g id="node21" class="node">
<title>Node21</title>
<g id="a_node21"><a xlink:href="classTaggingInterface.html" target="_top" xlink:title=" ">
<polygon fill="white" stroke="#666666" points="561,-737 448,-737 448,-718 561,-718 561,-737"/>
<text text-anchor="middle" x="504.5" y="-725" font-family="Courier,monospace" font-size="10.00">TaggingInterface</text>
</a>
</g>
</g>
<!-- Node21&#45;&gt;Node2 -->
<g id="edge20" class="edge">
<title>Node21&#45;&gt;Node2</title>
<path fill="none" stroke="#63b8ff" d="M572.32,-724.72C585.45,-721.67 598.42,-716.63 609,-708.5 706.65,-633.41 737.59,-471.22 744.08,-429.47"/>
<polygon fill="#63b8ff" stroke="#63b8ff" points="571.94,-721.23 562.78,-726.55 573.26,-728.1 571.94,-721.23"/>
</g>
<!-- Node22 -->
<g id="node22" class="node">
<title>Node22</title>
<g id="a_node22"><a xlink:href="classMooseVariableInterface.html" target="_top" xlink:title=" ">
<polygon fill="white" stroke="#666666" points="579,-699.5 430,-699.5 430,-669.5 579,-669.5 579,-699.5"/>
<text text-anchor="start" x="438" y="-687.5" font-family="Courier,monospace" font-size="10.00">MooseVariableInterface</text>
<text text-anchor="middle" x="504.5" y="-676.5" font-family="Courier,monospace" font-size="10.00">&lt; Real &gt;</text>
</a>
</g>
</g>
<!-- Node22&#45;&gt;Node2 -->
<g id="edge21" class="edge">
<title>Node22&#45;&gt;Node2</title>
<path fill="none" stroke="#63b8ff" d="M589.6,-671.5C596.51,-668.53 603.09,-664.91 609,-660.5 693.17,-597.62 733.1,-466.51 742.99,-429.45"/>
<polygon fill="#63b8ff" stroke="#63b8ff" points="588.82,-668.05 580.7,-674.86 591.29,-674.6 588.82,-668.05"/>
</g>
<!-- Node23 -->
<g id="node23" class="node">
<title>Node23</title>
<g id="a_node23"><a xlink:href="classMooseVariableDependencyInterface.html" target="_top" xlink:title=" ">
<polygon fill="white" stroke="#666666" points="609,-170 400,-170 400,-151 609,-151 609,-170"/>
<text text-anchor="middle" x="504.5" y="-158" font-family="Courier,monospace" font-size="10.00">MooseVariableDependencyInterface</text>
</a>
</g>
</g>
<!-- Node23&#45;&gt;Node2 -->
<g id="edge22" class="edge">
<title>Node23&#45;&gt;Node2</title>
<path fill="none" stroke="#63b8ff" d="M602.86,-175.56C604.97,-176.78 607.02,-178.09 609,-179.5 694.58,-240.29 733.63,-372.71 743.13,-409.72"/>
<polygon fill="#63b8ff" stroke="#63b8ff" points="604.45,-172.45 593.94,-171.14 601.34,-178.72 604.45,-172.45"/>
</g>
<!-- Node28 -->
<g id="node28" class="node">
<title>Node28</title>
<g id="a_node28"><a xlink:href="classNeighborCoupleableMooseVariableDependencyIntermediateInterface.html" target="_top" xlink:title="Intermediate base class that ties together all the interfaces for getting MooseVariables with the Moo...">
<polygon fill="white" stroke="#666666" points="848,-138.5 645,-138.5 645,-108.5 848,-108.5 848,-138.5"/>
<text text-anchor="start" x="653" y="-126.5" font-family="Courier,monospace" font-size="10.00">NeighborCoupleableMooseVariable</text>
<text text-anchor="middle" x="746.5" y="-115.5" font-family="Courier,monospace" font-size="10.00">DependencyIntermediateInterface</text>
</a>
</g>
</g>
<!-- Node23&#45;&gt;Node28 -->
<g id="edge31" class="edge">
<title>Node23&#45;&gt;Node28</title>
<path fill="none" stroke="#63b8ff" d="M581.45,-148.79C601.65,-145.68 623.77,-142.27 645.06,-138.99"/>
<polygon fill="#63b8ff" stroke="#63b8ff" points="580.98,-145.32 571.63,-150.31 582.04,-152.24 580.98,-145.32"/>
</g>
<!-- Node24 -->
<g id="node24" class="node">
<title>Node24</title>
<g id="a_node24"><a xlink:href="classADFunctorInterface.html" target="_top" xlink:title="An interface for accessing Moose::Functors for systems that care about automatic differentiation,...">
<polygon fill="white" stroke="#666666" points="567,-651 442,-651 442,-632 567,-632 567,-651"/>
<text text-anchor="middle" x="504.5" y="-639" font-family="Courier,monospace" font-size="10.00">ADFunctorInterface</text>
</a>
</g>
</g>
<!-- Node24&#45;&gt;Node2 -->
<g id="edge23" class="edge">
<title>Node24&#45;&gt;Node2</title>
<path fill="none" stroke="#63b8ff" d="M578.27,-636.55C589.14,-633.68 599.77,-629.5 609,-623.5 686.16,-573.32 730.29,-462.59 742.2,-429.21"/>
<polygon fill="#63b8ff" stroke="#63b8ff" points="577.84,-633.06 568.86,-638.67 579.38,-639.89 577.84,-633.06"/>
</g>
<!-- Node25 -->
<g id="node25" class="node">
<title>Node25</title>
<g id="a_node25"><a xlink:href="classFunctorInterface.html" target="_top" xlink:title="An interface for accessing Moose::Functors.">
<polygon fill="white" stroke="#666666" points="331,-715 218,-715 218,-696 331,-696 331,-715"/>
<text text-anchor="middle" x="274.5" y="-703" font-family="Courier,monospace" font-size="10.00">FunctorInterface</text>
</a>
</g>
</g>
<!-- Node25&#45;&gt;Node24 -->
<g id="edge24" class="edge">
<title>Node25&#45;&gt;Node24</title>
<path fill="none" stroke="#63b8ff" d="M342.37,-695.23C349.82,-693.11 357.18,-690.56 364,-687.5 382.24,-679.31 381.68,-668.52 400,-660.5 412.97,-654.82 427.57,-650.84 441.63,-648.05"/>
<polygon fill="#63b8ff" stroke="#63b8ff" points="341.73,-691.78 332.91,-697.65 343.47,-698.56 341.73,-691.78"/>
</g>
<!-- Node26 -->
<g id="node26" class="node">
<title>Node26</title>
<g id="a_node26"><a xlink:href="classFaceArgProducerInterface.html" target="_top" xlink:title="An interface for producers of functor face arguments, e.g.">
<polygon fill="white" stroke="#666666" points="585,-614 424,-614 424,-595 585,-595 585,-614"/>
<text text-anchor="middle" x="504.5" y="-602" font-family="Courier,monospace" font-size="10.00">FaceArgProducerInterface</text>
</a>
</g>
</g>
<!-- Node26&#45;&gt;Node2 -->
<g id="edge25" class="edge">
<title>Node26&#45;&gt;Node2</title>
<path fill="none" stroke="#63b8ff" d="M596.02,-592.85C600.52,-591.01 604.88,-588.91 609,-586.5 677.22,-546.63 725.71,-459.04 740.65,-429.47"/>
<polygon fill="#63b8ff" stroke="#63b8ff" points="594.96,-589.51 586.71,-596.16 597.31,-596.1 594.96,-589.51"/>
</g>
<!-- Node27 -->
<g id="node27" class="node">
<title>Node27</title>
<g id="a_node27"><a xlink:href="classFaceArgInterface.html" target="_top" xlink:title="A base class interface for both producers and consumers of functor face arguments,...">
<polygon fill="white" stroke="#666666" points="331,-678 218,-678 218,-659 331,-659 331,-678"/>
<text text-anchor="middle" x="274.5" y="-666" font-family="Courier,monospace" font-size="10.00">FaceArgInterface</text>
</a>
</g>
</g>
<!-- Node27&#45;&gt;Node26 -->
<g id="edge26" class="edge">
<title>Node27&#45;&gt;Node26</title>
<path fill="none" stroke="#63b8ff" d="M342.37,-658.23C349.82,-656.11 357.18,-653.56 364,-650.5 382.24,-642.31 381.68,-631.52 400,-623.5 408.37,-619.84 417.42,-616.88 426.56,-614.49"/>
<polygon fill="#63b8ff" stroke="#63b8ff" points="341.73,-654.78 332.91,-660.65 343.47,-661.56 341.73,-654.78"/>
</g>
<!-- Node28&#45;&gt;Node1 -->
<g id="edge27" class="edge">
<title>Node28&#45;&gt;Node1</title>
<path fill="none" stroke="#63b8ff" d="M859.41,-108.84C868.15,-107.7 876.43,-106.62 883.81,-105.65"/>
<polygon fill="#63b8ff" stroke="#63b8ff" points="859.1,-105.36 849.64,-110.12 860.01,-112.3 859.1,-105.36"/>
</g>
<!-- Node29 -->
<g id="node29" class="node">
<title>Node29</title>
<g id="a_node29"><a xlink:href="classNeighborCoupleable.html" target="_top" xlink:title="Enhances Coupleable interface to also couple the values from neighbor elements.">
<polygon fill="white" stroke="#666666" points="567,-96 442,-96 442,-77 567,-77 567,-96"/>
<text text-anchor="middle" x="504.5" y="-84" font-family="Courier,monospace" font-size="10.00">NeighborCoupleable</text>
</a>
</g>
</g>
<!-- Node29&#45;&gt;Node28 -->
<g id="edge28" class="edge">
<title>Node29&#45;&gt;Node28</title>
<path fill="none" stroke="#63b8ff" d="M578.42,-97.74C599.48,-100.99 622.85,-104.59 645.26,-108.05"/>
<polygon fill="#63b8ff" stroke="#63b8ff" points="579.22,-94.32 568.8,-96.26 578.15,-101.24 579.22,-94.32"/>
</g>
<!-- Node30 -->
<g id="node30" class="node">
<title>Node30</title>
<g id="a_node30"><a xlink:href="classCoupleable.html" target="_top" xlink:title="Interface for objects that needs coupling capabilities.">
<polygon fill="white" stroke="#666666" points="313,-96 236,-96 236,-77 313,-77 313,-96"/>
<text text-anchor="middle" x="274.5" y="-84" font-family="Courier,monospace" font-size="10.00">Coupleable</text>
</a>
</g>
</g>
<!-- Node30&#45;&gt;Node29 -->
<g id="edge29" class="edge">
<title>Node30&#45;&gt;Node29</title>
<path fill="none" stroke="#63b8ff" d="M324.57,-86.5C358.9,-86.5 405.03,-86.5 441.84,-86.5"/>
<polygon fill="#63b8ff" stroke="#63b8ff" points="324.92,-83 314.92,-86.5 324.92,-90 324.92,-83"/>
</g>
<!-- Node31 -->
<g id="node31" class="node">
<title>Node31</title>
<g id="a_node31"><a xlink:href="classScalarCoupleable.html" target="_top" xlink:title="Interface for objects that needs scalar coupling capabilities.">
<polygon fill="white" stroke="#666666" points="561,-133 448,-133 448,-114 561,-114 561,-133"/>
<text text-anchor="middle" x="504.5" y="-121" font-family="Courier,monospace" font-size="10.00">ScalarCoupleable</text>
</a>
</g>
</g>
<!-- Node31&#45;&gt;Node28 -->
<g id="edge30" class="edge">
<title>Node31&#45;&gt;Node28</title>
<path fill="none" stroke="#63b8ff" d="M572.83,-123.5C595.12,-123.5 620.44,-123.5 644.68,-123.5"/>
<polygon fill="#63b8ff" stroke="#63b8ff" points="572.98,-120 562.98,-123.5 572.98,-127 572.98,-120"/>
</g>
<!-- Node32 -->
<g id="node32" class="node">
<title>Node32</title>
<g id="a_node32"><a xlink:href="classTwoMaterialPropertyInterface.html" target="_top" xlink:title="This interface is designed for DGKernel, InternalSideUserObject, InterfaceUserObject,...">
<polygon fill="white" stroke="#666666" points="839,-90 654,-90 654,-71 839,-71 839,-90"/>
<text text-anchor="middle" x="746.5" y="-78" font-family="Courier,monospace" font-size="10.00">TwoMaterialPropertyInterface</text>
</a>
</g>
</g>
<!-- Node32&#45;&gt;Node1 -->
<g id="edge32" class="edge">
<title>Node32&#45;&gt;Node1</title>
<path fill="none" stroke="#63b8ff" d="M838.34,-91.85C854.57,-93.88 870.46,-95.87 883.56,-97.51"/>
<polygon fill="#63b8ff" stroke="#63b8ff" points="838.93,-88.4 828.57,-90.63 838.06,-95.35 838.93,-88.4"/>
</g>
<!-- Node33 -->
<g id="node33" class="node">
<title>Node33</title>
<g id="a_node33"><a xlink:href="classMaterialPropertyInterface.html" target="_top" xlink:title="An interface for accessing Materials.">
<polygon fill="white" stroke="#666666" points="588,-59 421,-59 421,-40 588,-40 588,-59"/>
<text text-anchor="middle" x="504.5" y="-47" font-family="Courier,monospace" font-size="10.00">MaterialPropertyInterface</text>
</a>
</g>
</g>
<!-- Node33&#45;&gt;Node32 -->
<g id="edge33" class="edge">
<title>Node33&#45;&gt;Node32</title>
<path fill="none" stroke="#63b8ff" d="M594.17,-60.95C618.53,-64.1 644.74,-67.48 668.39,-70.54"/>
<polygon fill="#63b8ff" stroke="#63b8ff" points="594.63,-57.48 584.26,-59.67 593.73,-64.43 594.63,-57.48"/>
</g>
<!-- Node34 -->
<g id="node34" class="node">
<title>Node34</title>
<g id="a_node34"><a xlink:href="classFVFaceResidualObject.html" target="_top" xlink:title="Interface class for a finite volume residual object whose residuals are based on faces.">
<polygon fill="white" stroke="#666666" points="815,-53 678,-53 678,-34 815,-34 815,-53"/>
<text text-anchor="middle" x="746.5" y="-41" font-family="Courier,monospace" font-size="10.00">FVFaceResidualObject</text>
</a>
</g>
</g>
<!-- Node34&#45;&gt;Node1 -->
<g id="edge34" class="edge">
<title>Node34&#45;&gt;Node1</title>
<path fill="none" stroke="#63b8ff" d="M826.56,-55.81C833.9,-57.74 841.15,-59.96 848,-62.5 867.79,-69.85 888.53,-82.72 901.71,-91.66"/>
<polygon fill="#63b8ff" stroke="#63b8ff" points="827.4,-52.41 816.86,-53.45 825.75,-59.22 827.4,-52.41"/>
</g>
<!-- Node36 -->
<g id="node36" class="node">
<title>Node36</title>
<g id="a_node36"><a xlink:href="classFVBoundaryIntegralValueConstraint.html" target="_top" xlink:title="This boundary object implements the residuals that enforce the constraint on the boundary.">
<polygon fill="white" stroke="#666666" points="1427,-210 1212,-210 1212,-191 1427,-191 1427,-210"/>
<text text-anchor="middle" x="1319.5" y="-198" font-family="Courier,monospace" font-size="10.00">FVBoundaryIntegralValueConstraint</text>
</a>
</g>
</g>
<!-- Node35&#45;&gt;Node36 -->
<g id="edge36" class="edge">
<title>Node35&#45;&gt;Node36</title>
<path fill="none" stroke="#63b8ff" d="M1172.9,-200.5C1185.58,-200.5 1198.69,-200.5 1211.61,-200.5"/>
<polygon fill="#63b8ff" stroke="#63b8ff" points="1172.92,-197 1162.92,-200.5 1172.92,-204 1172.92,-197"/>
</g>
</g>
</svg>
        <g id="navigator" transform="translate(0 0)" fill="#404254">
                <rect fill="#f2f5e9" fill-opacity="0.5" stroke="#606060" stroke-width=".5" x="0" y="0" width="60" height="60"/>
                <use id="zoomplus" xlink:href="#zoomPlus" x="17" y="9" onmousedown="handleZoom(evt,'in')"/>
                <use id="zoomminus" xlink:href="#zoomMin" x="42" y="9" onmousedown="handleZoom(evt,'out')"/>
                <use id="reset" xlink:href="#resetDef" x="30" y="36" onmousedown="handleReset()"/>
                <g id="arrowUp" xlink:href="#dirArrow" transform="translate(30 24)" onmousedown="handlePan(0,-1)">
                  <use xlink:href="#rim" fill="#404040">
                        <set attributeName="fill" to="#808080" begin="arrowUp.mouseover" end="arrowUp.mouseout"/>
                  </use>
                  <path fill="none" stroke="white" stroke-width="1.5" d="M0,-3.0v7 M-2.5,-0.5L0,-3.0L2.5,-0.5"/>
                </g>
                <g id="arrowRight" xlink:href="#dirArrow" transform="rotate(90) translate(36 -43)" onmousedown="handlePan(1,0)">
                  <use xlink:href="#rim" fill="#404040">
                        <set attributeName="fill" to="#808080" begin="arrowRight.mouseover" end="arrowRight.mouseout"/>
                  </use>
                  <path fill="none" stroke="white" stroke-width="1.5" d="M0,-3.0v7 M-2.5,-0.5L0,-3.0L2.5,-0.5"/>
                </g>
                <g id="arrowDown" xlink:href="#dirArrow" transform="rotate(180) translate(-30 -48)" onmousedown="handlePan(0,1)">
                  <use xlink:href="#rim" fill="#404040">
                        <set attributeName="fill" to="#808080" begin="arrowDown.mouseover" end="arrowDown.mouseout"/>
                  </use>
                  <path fill="none" stroke="white" stroke-width="1.5" d="M0,-3.0v7 M-2.5,-0.5L0,-3.0L2.5,-0.5"/>
                </g>
                <g id="arrowLeft" xlink:href="#dirArrow" transform="rotate(270) translate(-36 17)" onmousedown="handlePan(-1,0)">
                  <use xlink:href="#rim" fill="#404040">
                        <set attributeName="fill" to="#808080" begin="arrowLeft.mouseover" end="arrowLeft.mouseout"/>
                  </use>
                  <path fill="none" stroke="white" stroke-width="1.5" d="M0,-3.0v7 M-2.5,-0.5L0,-3.0L2.5,-0.5"/>
                </g>
        </g>
        <svg viewBox="0 0 15 15" width="100%" height="30px" preserveAspectRatio="xMaxYMin meet">
         <g id="arrow_out" transform="scale(0.3 0.3)">
          <a xlink:href="classFVFluxBC__inherit__graph_org.svg" target="_base">
           <rect id="button" ry="5" rx="5" y="6" x="6" height="38" width="38"
                fill="#f2f5e9" fill-opacity="0.5" stroke="#606060" stroke-width="1.0"/>
           <path id="arrow"
             d="M 11.500037,31.436501 C 11.940474,20.09759 22.043105,11.32322 32.158766,21.979434 L 37.068811,17.246167 C 37.068811,17.246167 37.088388,32 37.088388,32 L 22.160133,31.978069 C 22.160133,31.978069 26.997745,27.140456 26.997745,27.140456 C 18.528582,18.264221 13.291696,25.230495 11.500037,31.436501 z"
             style="fill:#404040;"/>
          </a>
         </g>
        </svg>
</svg>
