<?xml version="1.0" encoding="UTF-8" standalone="no"?>
<!DOCTYPE svg PUBLIC "-//W3C//DTD SVG 1.1//EN"
 "http://www.w3.org/Graphics/SVG/1.1/DTD/svg11.dtd">
<!-- Generated by graphviz version 7.0.5 (20221223.1930)
 -->
<!-- Title: QuadraturePointMarker Pages: 1 -->
<svg width="1172pt" height="434pt"
 viewBox="0.00 0.00 1172.00 434.00" xmlns="http://www.w3.org/2000/svg" xmlns:xlink="http://www.w3.org/1999/xlink">
<g id="graph0" class="graph" transform="scale(1 1) rotate(0) translate(4 430)">
<title>QuadraturePointMarker</title>
<!-- Node1 -->
<g id="node1" class="node">
<title>Node1</title>
<g id="a_node1"><a xlink:title=" ">
<polygon fill="#999999" stroke="#666666" points="991,-142 848,-142 848,-123 991,-123 991,-142"/>
<text text-anchor="middle" x="919.5" y="-130" font-family="Courier,monospace" font-size="10.00">QuadraturePointMarker</text>
</a>
</g>
</g>
<!-- Node21 -->
<g id="node21" class="node">
<title>Node21</title>
<g id="a_node21"><a xlink:href="classValueRangeMarker.html" target="_top" xlink:title=" ">
<polygon fill="white" stroke="#666666" points="1152,-161 1039,-161 1039,-142 1152,-142 1152,-161"/>
<text text-anchor="middle" x="1095.5" y="-149" font-family="Courier,monospace" font-size="10.00">ValueRangeMarker</text>
</a>
</g>
</g>
<!-- Node1&#45;&gt;Node21 -->
<g id="edge20" class="edge">
<title>Node1&#45;&gt;Node21</title>
<path fill="none" stroke="#63b8ff" d="M1002.48,-141.45C1014.76,-142.79 1027.17,-144.15 1038.73,-145.41"/>
<polygon fill="#63b8ff" stroke="#63b8ff" points="1003.1,-138 992.78,-140.39 1002.34,-144.96 1003.1,-138"/>
</g>
<!-- Node22 -->
<g id="node22" class="node">
<title>Node22</title>
<g id="a_node22"><a xlink:href="classValueThresholdMarker.html" target="_top" xlink:title=" ">
<polygon fill="white" stroke="#666666" points="1164,-124 1027,-124 1027,-105 1164,-105 1164,-124"/>
<text text-anchor="middle" x="1095.5" y="-112" font-family="Courier,monospace" font-size="10.00">ValueThresholdMarker</text>
</a>
</g>
</g>
<!-- Node1&#45;&gt;Node22 -->
<g id="edge21" class="edge">
<title>Node1&#45;&gt;Node22</title>
<path fill="none" stroke="#63b8ff" d="M1002.58,-124.01C1010.62,-123.18 1018.72,-122.34 1026.6,-121.52"/>
<polygon fill="#63b8ff" stroke="#63b8ff" points="1002.36,-120.51 992.78,-125.02 1003.09,-127.48 1002.36,-120.51"/>
</g>
<!-- Node2 -->
<g id="node2" class="node">
<title>Node2</title>
<g id="a_node2"><a xlink:href="classMarker.html" target="_top" xlink:title=" ">
<polygon fill="white" stroke="#666666" points="755,-185 702,-185 702,-166 755,-166 755,-185"/>
<text text-anchor="middle" x="728.5" y="-173" font-family="Courier,monospace" font-size="10.00">Marker</text>
</a>
</g>
</g>
<!-- Node2&#45;&gt;Node1 -->
<g id="edge1" class="edge">
<title>Node2&#45;&gt;Node1</title>
<path fill="none" stroke="#63b8ff" d="M766.58,-167.06C797.65,-159.99 842.05,-149.89 874.83,-142.44"/>
<polygon fill="#63b8ff" stroke="#63b8ff" points="765.83,-163.64 756.86,-169.28 767.39,-170.47 765.83,-163.64"/>
</g>
<!-- Node3 -->
<g id="node3" class="node">
<title>Node3</title>
<g id="a_node3"><a xlink:href="classMooseObject.html" target="_top" xlink:title="Every object that can be built by the factory should be derived from this class.">
<polygon fill="white" stroke="#666666" points="546,-352 463,-352 463,-333 546,-333 546,-352"/>
<text text-anchor="middle" x="504.5" y="-340" font-family="Courier,monospace" font-size="10.00">MooseObject</text>
</a>
</g>
</g>
<!-- Node3&#45;&gt;Node2 -->
<g id="edge2" class="edge">
<title>Node3&#45;&gt;Node2</title>
<path fill="none" stroke="#63b8ff" d="M557.53,-340.82C574.85,-338.4 593.62,-333.62 609,-324.5 668.41,-289.25 709.8,-212.24 722.99,-185.16"/>
<polygon fill="#63b8ff" stroke="#63b8ff" points="557.45,-337.31 547.91,-341.92 558.25,-344.26 557.45,-337.31"/>
</g>
<!-- Node4 -->
<g id="node4" class="node">
<title>Node4</title>
<g id="a_node4"><a xlink:href="classMooseBase.html" target="_top" xlink:title="Base class for everything in MOOSE with a name and a type.">
<polygon fill="white" stroke="#666666" points="310,-426 239,-426 239,-407 310,-407 310,-426"/>
<text text-anchor="middle" x="274.5" y="-414" font-family="Courier,monospace" font-size="10.00">MooseBase</text>
</a>
</g>
</g>
<!-- Node4&#45;&gt;Node3 -->
<g id="edge3" class="edge">
<title>Node4&#45;&gt;Node3</title>
<path fill="none" stroke="#63b8ff" d="M321.54,-408.78C335.32,-406.03 350.39,-402.58 364,-398.5 407,-385.61 455.19,-364.76 482.19,-352.47"/>
<polygon fill="#63b8ff" stroke="#63b8ff" points="320.97,-405.32 311.81,-410.64 322.29,-412.2 320.97,-405.32"/>
</g>
<!-- Node5 -->
<g id="node5" class="node">
<title>Node5</title>
<g id="a_node5"><a xlink:href="classMooseBaseParameterInterface.html" target="_top" xlink:title="Every object that can be built by the factory should be derived from this class.">
<polygon fill="white" stroke="#666666" points="364,-389 185,-389 185,-370 364,-370 364,-389"/>
<text text-anchor="middle" x="274.5" y="-377" font-family="Courier,monospace" font-size="10.00">MooseBaseParameterInterface</text>
</a>
</g>
</g>
<!-- Node5&#45;&gt;Node3 -->
<g id="edge4" class="edge">
<title>Node5&#45;&gt;Node3</title>
<path fill="none" stroke="#63b8ff" d="M347.88,-367.75C385.73,-361.61 430.68,-354.32 462.51,-349.15"/>
<polygon fill="#63b8ff" stroke="#63b8ff" points="347.7,-364.24 338.39,-369.29 348.83,-371.15 347.7,-364.24"/>
</g>
<!-- Node6 -->
<g id="node6" class="node">
<title>Node6</title>
<g id="a_node6"><a xlink:href="classMooseBaseErrorInterface.html" target="_top" xlink:title="Interface that provides APIs to output errors/warnings/info messages.">
<polygon fill="white" stroke="#666666" points="352,-352 197,-352 197,-333 352,-333 352,-352"/>
<text text-anchor="middle" x="274.5" y="-340" font-family="Courier,monospace" font-size="10.00">MooseBaseErrorInterface</text>
</a>
</g>
</g>
<!-- Node6&#45;&gt;Node3 -->
<g id="edge5" class="edge">
<title>Node6&#45;&gt;Node3</title>
<path fill="none" stroke="#63b8ff" d="M363.8,-342.5C397.92,-342.5 435.28,-342.5 462.77,-342.5"/>
<polygon fill="#63b8ff" stroke="#63b8ff" points="363.89,-339 353.89,-342.5 363.89,-346 363.89,-339"/>
</g>
<!-- Node7 -->
<g id="node7" class="node">
<title>Node7</title>
<g id="a_node7"><a xlink:href="classConsoleStreamInterface.html" target="_top" xlink:title="An inteface for the _console for outputting to the Console object.">
<polygon fill="white" stroke="#666666" points="149,-352 0,-352 0,-333 149,-333 149,-352"/>
<text text-anchor="middle" x="74.5" y="-340" font-family="Courier,monospace" font-size="10.00">ConsoleStreamInterface</text>
</a>
</g>
</g>
<!-- Node7&#45;&gt;Node6 -->
<g id="edge6" class="edge">
<title>Node7&#45;&gt;Node6</title>
<path fill="none" stroke="#63b8ff" d="M160.62,-342.5C172.62,-342.5 184.9,-342.5 196.73,-342.5"/>
<polygon fill="#63b8ff" stroke="#63b8ff" points="160.74,-339 150.74,-342.5 160.74,-346 160.74,-339"/>
</g>
<!-- Node8 -->
<g id="node8" class="node">
<title>Node8</title>
<g id="a_node8"><a xlink:title=" ">
<polygon fill="white" stroke="#666666" points="352,-315 197,-315 197,-296 352,-296 352,-315"/>
<text text-anchor="middle" x="274.5" y="-303" font-family="Courier,monospace" font-size="10.00">libMesh::ParallelObject</text>
</a>
</g>
</g>
<!-- Node8&#45;&gt;Node3 -->
<g id="edge7" class="edge">
<title>Node8&#45;&gt;Node3</title>
<path fill="none" stroke="#63b8ff" d="M347.88,-317.25C385.73,-323.39 430.68,-330.68 462.51,-335.85"/>
<polygon fill="#63b8ff" stroke="#63b8ff" points="348.83,-313.85 338.39,-315.71 347.7,-320.76 348.83,-313.85"/>
</g>
<!-- Node9 -->
<g id="node9" class="node">
<title>Node9</title>
<g id="a_node9"><a xlink:href="classDataFileInterface.html" target="_top" xlink:title=" ">
<polygon fill="white" stroke="#666666" points="337,-277.5 212,-277.5 212,-247.5 337,-247.5 337,-277.5"/>
<text text-anchor="start" x="220" y="-265.5" font-family="Courier,monospace" font-size="10.00">DataFileInterface&lt;</text>
<text text-anchor="middle" x="274.5" y="-254.5" font-family="Courier,monospace" font-size="10.00"> MooseObject &gt;</text>
</a>
</g>
</g>
<!-- Node9&#45;&gt;Node3 -->
<g id="edge8" class="edge">
<title>Node9&#45;&gt;Node3</title>
<path fill="none" stroke="#63b8ff" d="M347.62,-279.35C353.32,-281.73 358.86,-284.44 364,-287.5 383.71,-299.24 379.71,-313.79 400,-324.5 419.11,-334.59 442.71,-339.19 462.54,-341.23"/>
<polygon fill="#63b8ff" stroke="#63b8ff" points="349.23,-276.22 338.64,-275.94 346.74,-282.76 349.23,-276.22"/>
</g>
<!-- Node10 -->
<g id="node10" class="node">
<title>Node10</title>
<g id="a_node10"><a xlink:href="classBlockRestrictable.html" target="_top" xlink:title="An interface that restricts an object to subdomains via the &#39;blocks&#39; input parameter.">
<polygon fill="white" stroke="#666666" points="564,-315 445,-315 445,-296 564,-296 564,-315"/>
<text text-anchor="middle" x="504.5" y="-303" font-family="Courier,monospace" font-size="10.00">BlockRestrictable</text>
</a>
</g>
</g>
<!-- Node10&#45;&gt;Node2 -->
<g id="edge9" class="edge">
<title>Node10&#45;&gt;Node2</title>
<path fill="none" stroke="#63b8ff" d="M575.41,-299.1C587,-296.43 598.62,-292.7 609,-287.5 659.86,-262 703.91,-207.5 720.48,-185.26"/>
<polygon fill="#63b8ff" stroke="#63b8ff" points="574.92,-295.62 565.82,-301.04 576.31,-302.48 574.92,-295.62"/>
</g>
<!-- Node11 -->
<g id="node11" class="node">
<title>Node11</title>
<g id="a_node11"><a xlink:href="classSetupInterface.html" target="_top" xlink:title=" ">
<polygon fill="white" stroke="#666666" points="555,-278 454,-278 454,-259 555,-259 555,-278"/>
<text text-anchor="middle" x="504.5" y="-266" font-family="Courier,monospace" font-size="10.00">SetupInterface</text>
</a>
</g>
</g>
<!-- Node11&#45;&gt;Node2 -->
<g id="edge10" class="edge">
<title>Node11&#45;&gt;Node2</title>
<path fill="none" stroke="#63b8ff" d="M566.5,-261.97C580.74,-259.34 595.64,-255.65 609,-250.5 651.48,-234.11 695.13,-201.65 715.57,-185.34"/>
<polygon fill="#63b8ff" stroke="#63b8ff" points="566.04,-258.5 556.76,-263.62 567.2,-265.4 566.04,-258.5"/>
</g>
<!-- Node12 -->
<g id="node12" class="node">
<title>Node12</title>
<g id="a_node12"><a xlink:href="classDependencyResolverInterface.html" target="_top" xlink:title="Interface for sorting dependent vectors of objects.">
<polygon fill="white" stroke="#666666" points="594,-241 415,-241 415,-222 594,-222 594,-241"/>
<text text-anchor="middle" x="504.5" y="-229" font-family="Courier,monospace" font-size="10.00">DependencyResolverInterface</text>
</a>
</g>
</g>
<!-- Node12&#45;&gt;Node2 -->
<g id="edge11" class="edge">
<title>Node12&#45;&gt;Node2</title>
<path fill="none" stroke="#63b8ff" d="M582.02,-219.42C591.15,-217.62 600.31,-215.64 609,-213.5 641.52,-205.5 678.1,-193.26 701.9,-184.84"/>
<polygon fill="#63b8ff" stroke="#63b8ff" points="581.59,-215.94 572.42,-221.25 582.9,-222.82 581.59,-215.94"/>
</g>
<!-- Node13 -->
<g id="node13" class="node">
<title>Node13</title>
<g id="a_node13"><a xlink:href="classMooseVariableDependencyInterface.html" target="_top" xlink:title=" ">
<polygon fill="white" stroke="#666666" points="609,-204 400,-204 400,-185 609,-185 609,-204"/>
<text text-anchor="middle" x="504.5" y="-192" font-family="Courier,monospace" font-size="10.00">MooseVariableDependencyInterface</text>
</a>
</g>
</g>
<!-- Node13&#45;&gt;Node2 -->
<g id="edge12" class="edge">
<title>Node13&#45;&gt;Node2</title>
<path fill="none" stroke="#63b8ff" d="M620.62,-184.65C651.21,-182.03 681.39,-179.45 701.83,-177.7"/>
<polygon fill="#63b8ff" stroke="#63b8ff" points="620.52,-181.14 610.86,-185.48 621.12,-188.12 620.52,-181.14"/>
</g>
<!-- Node14 -->
<g id="node14" class="node">
<title>Node14</title>
<g id="a_node14"><a xlink:href="classUserObjectInterface.html" target="_top" xlink:title="Interface for objects that need to use UserObjects.">
<polygon fill="white" stroke="#666666" points="570,-167 439,-167 439,-148 570,-148 570,-167"/>
<text text-anchor="middle" x="504.5" y="-155" font-family="Courier,monospace" font-size="10.00">UserObjectInterface</text>
</a>
</g>
</g>
<!-- Node14&#45;&gt;Node2 -->
<g id="edge13" class="edge">
<title>Node14&#45;&gt;Node2</title>
<path fill="none" stroke="#63b8ff" d="M581.6,-163.67C623.38,-167.06 672.52,-171.04 701.78,-173.41"/>
<polygon fill="#63b8ff" stroke="#63b8ff" points="582.07,-160.2 571.82,-162.88 581.5,-167.17 582.07,-160.2"/>
</g>
<!-- Node15 -->
<g id="node15" class="node">
<title>Node15</title>
<g id="a_node15"><a xlink:href="classRestartable.html" target="_top" xlink:title="A class for creating restricted objects.">
<polygon fill="white" stroke="#666666" points="546,-130 463,-130 463,-111 546,-111 546,-130"/>
<text text-anchor="middle" x="504.5" y="-118" font-family="Courier,monospace" font-size="10.00">Restartable</text>
</a>
</g>
</g>
<!-- Node15&#45;&gt;Node2 -->
<g id="edge14" class="edge">
<title>Node15&#45;&gt;Node2</title>
<path fill="none" stroke="#63b8ff" d="M557.61,-127.35C574.26,-130.26 592.61,-134.22 609,-139.5 625.84,-144.92 628.28,-150.7 645,-156.5 663.61,-162.95 685.34,-167.86 701.83,-171.06"/>
<polygon fill="#63b8ff" stroke="#63b8ff" points="558.34,-123.92 547.9,-125.75 557.2,-130.83 558.34,-123.92"/>
</g>
<!-- Node16 -->
<g id="node16" class="node">
<title>Node16</title>
<g id="a_node16"><a xlink:href="classPostprocessorInterface.html" target="_top" xlink:title="Interface class for classes which interact with Postprocessors.">
<polygon fill="white" stroke="#666666" points="579,-93 430,-93 430,-74 579,-74 579,-93"/>
<text text-anchor="middle" x="504.5" y="-81" font-family="Courier,monospace" font-size="10.00">PostprocessorInterface</text>
</a>
</g>
</g>
<!-- Node16&#45;&gt;Node2 -->
<g id="edge15" class="edge">
<title>Node16&#45;&gt;Node2</title>
<path fill="none" stroke="#63b8ff" d="M590.02,-92.99C596.71,-95.52 603.14,-98.64 609,-102.5 633.09,-118.36 621.27,-140.1 645,-156.5 661.69,-168.03 684.36,-172.65 701.71,-174.46"/>
<polygon fill="#63b8ff" stroke="#63b8ff" points="591.35,-89.74 580.75,-89.96 589.17,-96.39 591.35,-89.74"/>
</g>
<!-- Node17 -->
<g id="node17" class="node">
<title>Node17</title>
<g id="a_node17"><a xlink:href="classMeshChangedInterface.html" target="_top" xlink:title="Interface for notifications that the mesh has changed.">
<polygon fill="white" stroke="#666666" points="573,-56 436,-56 436,-37 573,-37 573,-56"/>
<text text-anchor="middle" x="504.5" y="-44" font-family="Courier,monospace" font-size="10.00">MeshChangedInterface</text>
</a>
</g>
</g>
<!-- Node17&#45;&gt;Node2 -->
<g id="edge16" class="edge">
<title>Node17&#45;&gt;Node2</title>
<path fill="none" stroke="#63b8ff" d="M584.36,-51.29C593.29,-54.33 601.77,-58.59 609,-64.5 643,-92.28 611.76,-127.81 645,-156.5 660.58,-169.95 683.79,-174.37 701.63,-175.61"/>
<polygon fill="#63b8ff" stroke="#63b8ff" points="585.32,-47.92 574.74,-48.57 583.41,-54.66 585.32,-47.92"/>
</g>
<!-- Node18 -->
<g id="node18" class="node">
<title>Node18</title>
<g id="a_node18"><a xlink:href="classOutputInterface.html" target="_top" xlink:title="A class to provide an common interface to objects requiring &quot;outputs&quot; option.">
<polygon fill="white" stroke="#666666" points="558,-19 451,-19 451,0 558,0 558,-19"/>
<text text-anchor="middle" x="504.5" y="-7" font-family="Courier,monospace" font-size="10.00">OutputInterface</text>
</a>
</g>
</g>
<!-- Node18&#45;&gt;Node2 -->
<g id="edge17" class="edge">
<title>Node18&#45;&gt;Node2</title>
<path fill="none" stroke="#63b8ff" d="M569.39,-9.39C583.84,-12.22 598.11,-17.65 609,-27.5 653.14,-67.43 601.96,-115.38 645,-156.5 659.99,-170.81 683.49,-175.12 701.58,-176.11"/>
<polygon fill="#63b8ff" stroke="#63b8ff" points="570.27,-5.99 559.85,-7.94 569.21,-12.91 570.27,-5.99"/>
</g>
<!-- Node19 -->
<g id="node19" class="node">
<title>Node19</title>
<g id="a_node19"><a xlink:href="classMooseVariableInterface.html" target="_top" xlink:title=" ">
<polygon fill="white" stroke="#666666" points="803,-147.5 654,-147.5 654,-117.5 803,-117.5 803,-147.5"/>
<text text-anchor="start" x="662" y="-135.5" font-family="Courier,monospace" font-size="10.00">MooseVariableInterface</text>
<text text-anchor="middle" x="728.5" y="-124.5" font-family="Courier,monospace" font-size="10.00">&lt; Real &gt;</text>
</a>
</g>
</g>
<!-- Node19&#45;&gt;Node1 -->
<g id="edge18" class="edge">
<title>Node19&#45;&gt;Node1</title>
<path fill="none" stroke="#63b8ff" d="M814.79,-132.5C825.81,-132.5 837.01,-132.5 847.76,-132.5"/>
<polygon fill="#63b8ff" stroke="#63b8ff" points="814.9,-129 804.9,-132.5 814.9,-136 814.9,-129"/>
</g>
<!-- Node20 -->
<g id="node20" class="node">
<title>Node20</title>
<g id="a_node20"><a xlink:href="classMaterialPropertyInterface.html" target="_top" xlink:title="An interface for accessing Materials.">
<polygon fill="white" stroke="#666666" points="812,-99 645,-99 645,-80 812,-80 812,-99"/>
<text text-anchor="middle" x="728.5" y="-87" font-family="Courier,monospace" font-size="10.00">MaterialPropertyInterface</text>
</a>
</g>
</g>
<!-- Node20&#45;&gt;Node1 -->
<g id="edge19" class="edge">
<title>Node20&#45;&gt;Node1</title>
<path fill="none" stroke="#63b8ff" d="M784.41,-101.99C813.09,-108.52 847.7,-116.39 874.58,-122.51"/>
<polygon fill="#63b8ff" stroke="#63b8ff" points="785.34,-98.61 774.81,-99.81 783.79,-105.44 785.34,-98.61"/>
</g>
</g>
</svg>
