<?xml version="1.0" encoding="UTF-8" standalone="no"?>
<!DOCTYPE svg PUBLIC "-//W3C//DTD SVG 1.1//EN"
 "http://www.w3.org/Graphics/SVG/1.1/DTD/svg11.dtd">
<!-- Generated by graphviz version 7.0.5 (20221223.1930)
 -->
<!-- Title: ComputeMaterialsObjectThread Pages: 1 -->
<svg width="193pt" height="159pt"
 viewBox="0.00 0.00 193.00 159.00" xmlns="http://www.w3.org/2000/svg" xmlns:xlink="http://www.w3.org/1999/xlink">
<g id="graph0" class="graph" transform="scale(1 1) rotate(0) translate(4 155)">
<title>ComputeMaterialsObjectThread</title>
<!-- Node1 -->
<g id="node1" class="node">
<title>Node1</title>
<g id="a_node1"><a xlink:title=" ">
<polygon fill="#999999" stroke="#666666" points="185,-19 0,-19 0,0 185,0 185,-19"/>
<text text-anchor="middle" x="92.5" y="-7" font-family="Courier,monospace" font-size="10.00">ComputeMaterialsObjectThread</text>
</a>
</g>
</g>
<!-- Node2 -->
<g id="node2" class="node">
<title>Node2</title>
<g id="a_node2"><a xlink:href="classThreadedElementLoop.html" target="_top" xlink:title=" ">
<polygon fill="white" stroke="#666666" points="158,-85 27,-85 27,-55 158,-55 158,-85"/>
<text text-anchor="start" x="35" y="-73" font-family="Courier,monospace" font-size="10.00">ThreadedElementLoop</text>
<text text-anchor="middle" x="92.5" y="-62" font-family="Courier,monospace" font-size="10.00">&lt; ConstElemRange &gt;</text>
</a>
</g>
</g>
<!-- Node2&#45;&gt;Node1 -->
<g id="edge1" class="edge">
<title>Node2&#45;&gt;Node1</title>
<path fill="none" stroke="#63b8ff" d="M92.5,-43.3C92.5,-34.65 92.5,-25.58 92.5,-19.18"/>
<polygon fill="#63b8ff" stroke="#63b8ff" points="89,-43.03 92.5,-53.03 96,-43.03 89,-43.03"/>
</g>
<!-- Node3 -->
<g id="node3" class="node">
<title>Node3</title>
<g id="a_node3"><a xlink:href="classThreadedElementLoopBase.html" target="_top" xlink:title="Base class for assembly&#45;like calculations.">
<polygon fill="white" stroke="#666666" points="170,-151 15,-151 15,-121 170,-121 170,-151"/>
<text text-anchor="start" x="23" y="-139" font-family="Courier,monospace" font-size="10.00">ThreadedElementLoopBase</text>
<text text-anchor="middle" x="92.5" y="-128" font-family="Courier,monospace" font-size="10.00">&lt; RangeType &gt;</text>
</a>
</g>
</g>
<!-- Node3&#45;&gt;Node2 -->
<g id="edge2" class="edge">
<title>Node3&#45;&gt;Node2</title>
<path fill="none" stroke="#63b8ff" d="M92.5,-109.39C92.5,-101.13 92.5,-92.28 92.5,-85.16"/>
<polygon fill="#63b8ff" stroke="#63b8ff" points="89,-109.28 92.5,-119.28 96,-109.28 89,-109.28"/>
</g>
</g>
</svg>
