<?xml version="1.0" encoding="UTF-8" standalone="no"?>
<!DOCTYPE svg PUBLIC "-//W3C//DTD SVG 1.1//EN"
 "http://www.w3.org/Graphics/SVG/1.1/DTD/svg11.dtd">
<!-- Generated by graphviz version 7.0.5 (20221223.1930)
 -->
<!-- Title: ElementIntegralVariableUserObject Pages: 1 -->
<!--zoomable 619 -->
<svg id="main" version="1.1" xmlns="http://www.w3.org/2000/svg" xmlns:xlink="http://www.w3.org/1999/xlink" xml:space="preserve" onload="init(evt)">
<style type="text/css"><![CDATA[
.edge:hover path { stroke: red; }
.edge:hover polygon { stroke: red; fill: red; }
]]></style>
<script type="text/javascript"><![CDATA[
var edges = document.getElementsByTagName('g');
if (edges && edges.length) {
  for (var i=0;i<edges.length;i++) {
    if (edges[i].id.substr(0,4)=='edge') {
      edges[i].setAttribute('class','edge');
    }
  }
}
]]></script>
        <defs>
                <circle id="rim" cx="0" cy="0" r="7"/>
                <circle id="rim2" cx="0" cy="0" r="3.5"/>
                <g id="zoomPlus">
                        <use xlink:href="#rim" fill="#404040">
                                <set attributeName="fill" to="#808080" begin="zoomplus.mouseover" end="zoomplus.mouseout"/>
                        </use>
                        <path d="M-4,0h8M0,-4v8" fill="none" stroke="white" stroke-width="1.5" pointer-events="none"/>
                </g>
                <g id="zoomMin">
                        <use xlink:href="#rim" fill="#404040">
                                <set attributeName="fill" to="#808080" begin="zoomminus.mouseover" end="zoomminus.mouseout"/>
                        </use>
                        <path d="M-4,0h8" fill="none" stroke="white" stroke-width="1.5" pointer-events="none"/>
                </g>
                <g id="dirArrow">
                        <path fill="none" stroke="white" stroke-width="1.5" d="M0,-3.0v7 M-2.5,-0.5L0,-3.0L2.5,-0.5"/>
                </g>
               <g id="resetDef">
                       <use xlink:href="#rim2" fill="#404040">
                               <set attributeName="fill" to="#808080" begin="reset.mouseover" end="reset.mouseout"/>
                       </use>
               </g>
        </defs>

<script type="text/javascript">
var viewWidth = 1877;
var viewHeight = 619;
var sectionId = 'dynsection-0';
</script>
<script xlink:href="svgpan.js"/>
<svg id="graph" class="graph">
<g id="viewport">
<title>ElementIntegralVariableUserObject</title>
<!-- Node1 -->
<g id="node1" class="node">
<title>Node1</title>
<g id="a_node1"><a xlink:title="This postprocessor computes a volume integral of the specified variable.">
<polygon fill="#999999" stroke="#666666" points="1403,-131.5 1224,-131.5 1224,-101.5 1403,-101.5 1403,-131.5"/>
<text text-anchor="start" x="1232" y="-119.5" font-family="Courier,monospace" font-size="10.00">ElementIntegralVariableUser</text>
<text text-anchor="middle" x="1313.5" y="-108.5" font-family="Courier,monospace" font-size="10.00">Object</text>
</a>
</g>
</g>
<!-- Node34 -->
<g id="node34" class="node">
<title>Node34</title>
<g id="a_node34"><a xlink:href="classNearestPointBase.html" target="_top" xlink:title=" ">
<polygon fill="white" stroke="#666666" points="1651,-196 1442,-196 1442,-155 1651,-155 1651,-196"/>
<text text-anchor="start" x="1450" y="-184" font-family="Courier,monospace" font-size="10.00">NearestPointBase&lt; Layered</text>
<text text-anchor="start" x="1450" y="-173" font-family="Courier,monospace" font-size="10.00">Average, ElementIntegralVariable</text>
<text text-anchor="middle" x="1546.5" y="-162" font-family="Courier,monospace" font-size="10.00">UserObject &gt;</text>
</a>
</g>
</g>
<!-- Node1&#45;&gt;Node34 -->
<g id="edge33" class="edge">
<title>Node1&#45;&gt;Node34</title>
<path fill="none" stroke="#63b8ff" d="M1385.91,-134.74C1410.41,-141 1438.02,-148.05 1463.3,-154.51"/>
<polygon fill="#63b8ff" stroke="#63b8ff" points="1386.91,-131.38 1376.36,-132.3 1385.18,-138.16 1386.91,-131.38"/>
</g>
<!-- Node37 -->
<g id="node37" class="node">
<title>Node37</title>
<g id="a_node37"><a xlink:href="classNearestPointBase.html" target="_top" xlink:title=" ">
<polygon fill="white" stroke="#666666" points="1654,-137 1439,-137 1439,-96 1654,-96 1654,-137"/>
<text text-anchor="start" x="1447" y="-125" font-family="Courier,monospace" font-size="10.00">NearestPointBase&lt; Layered</text>
<text text-anchor="start" x="1447" y="-114" font-family="Courier,monospace" font-size="10.00">Integral, ElementIntegralVariable</text>
<text text-anchor="middle" x="1546.5" y="-103" font-family="Courier,monospace" font-size="10.00">UserObject &gt;</text>
</a>
</g>
</g>
<!-- Node1&#45;&gt;Node37 -->
<g id="edge36" class="edge">
<title>Node1&#45;&gt;Node37</title>
<path fill="none" stroke="#63b8ff" d="M1414.97,-116.5C1422.87,-116.5 1430.86,-116.5 1438.8,-116.5"/>
<polygon fill="#63b8ff" stroke="#63b8ff" points="1414.99,-113 1404.99,-116.5 1414.99,-120 1414.99,-113"/>
</g>
<!-- Node39 -->
<g id="node39" class="node">
<title>Node39</title>
<g id="a_node39"><a xlink:href="classLayeredIntegral.html" target="_top" xlink:title="This UserObject computes volume integrals of a variable storing partial sums for the specified number...">
<polygon fill="white" stroke="#666666" points="1600,-78 1493,-78 1493,-59 1600,-59 1600,-78"/>
<text text-anchor="middle" x="1546.5" y="-66" font-family="Courier,monospace" font-size="10.00">LayeredIntegral</text>
</a>
</g>
</g>
<!-- Node1&#45;&gt;Node39 -->
<g id="edge38" class="edge">
<title>Node1&#45;&gt;Node39</title>
<path fill="none" stroke="#63b8ff" d="M1386.24,-98.32C1403.47,-94.2 1421.85,-90.01 1439,-86.5 1456.36,-82.95 1475.42,-79.56 1492.55,-76.71"/>
<polygon fill="#63b8ff" stroke="#63b8ff" points="1385.47,-94.9 1376.57,-100.65 1387.12,-101.71 1385.47,-94.9"/>
</g>
<!-- Node2 -->
<g id="node2" class="node">
<title>Node2</title>
<g id="a_node2"><a xlink:href="classElementIntegralUserObject.html" target="_top" xlink:title="This postprocessor computes a volume integral of the specified variable.">
<polygon fill="white" stroke="#666666" points="1188,-148 1021,-148 1021,-129 1188,-129 1188,-148"/>
<text text-anchor="middle" x="1104.5" y="-136" font-family="Courier,monospace" font-size="10.00">ElementIntegralUserObject</text>
</a>
</g>
</g>
<!-- Node2&#45;&gt;Node1 -->
<g id="edge1" class="edge">
<title>Node2&#45;&gt;Node1</title>
<path fill="none" stroke="#63b8ff" d="M1199.55,-128.5C1207.63,-127.65 1215.78,-126.78 1223.82,-125.93"/>
<polygon fill="#63b8ff" stroke="#63b8ff" points="1199.28,-125.01 1189.71,-129.55 1200.02,-131.97 1199.28,-125.01"/>
</g>
<!-- Node3 -->
<g id="node3" class="node">
<title>Node3</title>
<g id="a_node3"><a xlink:href="classElementUserObject.html" target="_top" xlink:title=" ">
<polygon fill="white" stroke="#666666" points="985,-148 866,-148 866,-129 985,-129 985,-148"/>
<text text-anchor="middle" x="925.5" y="-136" font-family="Courier,monospace" font-size="10.00">ElementUserObject</text>
</a>
</g>
</g>
<!-- Node3&#45;&gt;Node2 -->
<g id="edge2" class="edge">
<title>Node3&#45;&gt;Node2</title>
<path fill="none" stroke="#63b8ff" d="M996.73,-138.5C1004.55,-138.5 1012.58,-138.5 1020.54,-138.5"/>
<polygon fill="#63b8ff" stroke="#63b8ff" points="996.95,-135 986.95,-138.5 996.95,-142 996.95,-135"/>
</g>
<!-- Node4 -->
<g id="node4" class="node">
<title>Node4</title>
<g id="a_node4"><a xlink:href="classUserObject.html" target="_top" xlink:title="Base class for user&#45;specific data.">
<polygon fill="white" stroke="#666666" points="764,-278 687,-278 687,-259 764,-259 764,-278"/>
<text text-anchor="middle" x="725.5" y="-266" font-family="Courier,monospace" font-size="10.00">UserObject</text>
</a>
</g>
</g>
<!-- Node4&#45;&gt;Node3 -->
<g id="edge3" class="edge">
<title>Node4&#45;&gt;Node3</title>
<path fill="none" stroke="#63b8ff" d="M775.31,-266.97C793.44,-264.67 813.57,-259.93 830,-250.5 874.35,-225.04 907.31,-170.52 919.43,-148.26"/>
<polygon fill="#63b8ff" stroke="#63b8ff" points="775.14,-263.47 765.55,-267.98 775.86,-270.44 775.14,-263.47"/>
</g>
<!-- Node5 -->
<g id="node5" class="node">
<title>Node5</title>
<g id="a_node5"><a xlink:href="classMooseObject.html" target="_top" xlink:title="Every object that can be built by the factory should be derived from this class.">
<polygon fill="white" stroke="#666666" points="534,-537 451,-537 451,-518 534,-518 534,-537"/>
<text text-anchor="middle" x="492.5" y="-525" font-family="Courier,monospace" font-size="10.00">MooseObject</text>
</a>
</g>
</g>
<!-- Node5&#45;&gt;Node4 -->
<g id="edge4" class="edge">
<title>Node5&#45;&gt;Node4</title>
<path fill="none" stroke="#63b8ff" d="M545.21,-525.08C559.11,-522.45 573.46,-517.74 585,-509.5 671.16,-447.97 711.99,-315.34 722,-278.29"/>
<polygon fill="#63b8ff" stroke="#63b8ff" points="545.08,-521.56 535.73,-526.54 546.15,-528.48 545.08,-521.56"/>
</g>
<!-- Node6 -->
<g id="node6" class="node">
<title>Node6</title>
<g id="a_node6"><a xlink:href="classMooseBase.html" target="_top" xlink:title="Base class for everything in MOOSE with a name and a type.">
<polygon fill="white" stroke="#666666" points="310,-611 239,-611 239,-592 310,-592 310,-611"/>
<text text-anchor="middle" x="274.5" y="-599" font-family="Courier,monospace" font-size="10.00">MooseBase</text>
</a>
</g>
</g>
<!-- Node6&#45;&gt;Node5 -->
<g id="edge5" class="edge">
<title>Node6&#45;&gt;Node5</title>
<path fill="none" stroke="#63b8ff" d="M321.62,-594.05C335.41,-591.31 350.46,-587.8 364,-583.5 403.87,-570.85 448.08,-549.72 472.56,-537.35"/>
<polygon fill="#63b8ff" stroke="#63b8ff" points="321.06,-590.59 311.89,-595.89 322.36,-597.47 321.06,-590.59"/>
</g>
<!-- Node7 -->
<g id="node7" class="node">
<title>Node7</title>
<g id="a_node7"><a xlink:href="classMooseBaseParameterInterface.html" target="_top" xlink:title="Every object that can be built by the factory should be derived from this class.">
<polygon fill="white" stroke="#666666" points="364,-574 185,-574 185,-555 364,-555 364,-574"/>
<text text-anchor="middle" x="274.5" y="-562" font-family="Courier,monospace" font-size="10.00">MooseBaseParameterInterface</text>
</a>
</g>
</g>
<!-- Node7&#45;&gt;Node5 -->
<g id="edge6" class="edge">
<title>Node7&#45;&gt;Node5</title>
<path fill="none" stroke="#63b8ff" d="M344.77,-552.63C379.7,-546.65 420.85,-539.6 450.68,-534.49"/>
<polygon fill="#63b8ff" stroke="#63b8ff" points="344.43,-549.14 335.16,-554.28 345.61,-556.04 344.43,-549.14"/>
</g>
<!-- Node8 -->
<g id="node8" class="node">
<title>Node8</title>
<g id="a_node8"><a xlink:href="classMooseBaseErrorInterface.html" target="_top" xlink:title="Interface that provides APIs to output errors/warnings/info messages.">
<polygon fill="white" stroke="#666666" points="352,-537 197,-537 197,-518 352,-518 352,-537"/>
<text text-anchor="middle" x="274.5" y="-525" font-family="Courier,monospace" font-size="10.00">MooseBaseErrorInterface</text>
</a>
</g>
</g>
<!-- Node8&#45;&gt;Node5 -->
<g id="edge7" class="edge">
<title>Node8&#45;&gt;Node5</title>
<path fill="none" stroke="#63b8ff" d="M363.7,-527.5C393.87,-527.5 426.17,-527.5 450.75,-527.5"/>
<polygon fill="#63b8ff" stroke="#63b8ff" points="363.78,-524 353.78,-527.5 363.78,-531 363.78,-524"/>
</g>
<!-- Node9 -->
<g id="node9" class="node">
<title>Node9</title>
<g id="a_node9"><a xlink:href="classConsoleStreamInterface.html" target="_top" xlink:title="An inteface for the _console for outputting to the Console object.">
<polygon fill="white" stroke="#666666" points="149,-537 0,-537 0,-518 149,-518 149,-537"/>
<text text-anchor="middle" x="74.5" y="-525" font-family="Courier,monospace" font-size="10.00">ConsoleStreamInterface</text>
</a>
</g>
</g>
<!-- Node9&#45;&gt;Node8 -->
<g id="edge8" class="edge">
<title>Node9&#45;&gt;Node8</title>
<path fill="none" stroke="#63b8ff" d="M160.62,-527.5C172.62,-527.5 184.9,-527.5 196.73,-527.5"/>
<polygon fill="#63b8ff" stroke="#63b8ff" points="160.74,-524 150.74,-527.5 160.74,-531 160.74,-524"/>
</g>
<!-- Node10 -->
<g id="node10" class="node">
<title>Node10</title>
<g id="a_node10"><a xlink:title=" ">
<polygon fill="white" stroke="#666666" points="352,-500 197,-500 197,-481 352,-481 352,-500"/>
<text text-anchor="middle" x="274.5" y="-488" font-family="Courier,monospace" font-size="10.00">libMesh::ParallelObject</text>
</a>
</g>
</g>
<!-- Node10&#45;&gt;Node5 -->
<g id="edge9" class="edge">
<title>Node10&#45;&gt;Node5</title>
<path fill="none" stroke="#63b8ff" d="M344.77,-502.37C379.7,-508.35 420.85,-515.4 450.68,-520.51"/>
<polygon fill="#63b8ff" stroke="#63b8ff" points="345.61,-498.96 335.16,-500.72 344.43,-505.86 345.61,-498.96"/>
</g>
<!-- Node11 -->
<g id="node11" class="node">
<title>Node11</title>
<g id="a_node11"><a xlink:href="classDataFileInterface.html" target="_top" xlink:title=" ">
<polygon fill="white" stroke="#666666" points="337,-462.5 212,-462.5 212,-432.5 337,-432.5 337,-462.5"/>
<text text-anchor="start" x="220" y="-450.5" font-family="Courier,monospace" font-size="10.00">DataFileInterface&lt;</text>
<text text-anchor="middle" x="274.5" y="-439.5" font-family="Courier,monospace" font-size="10.00"> MooseObject &gt;</text>
</a>
</g>
</g>
<!-- Node11&#45;&gt;Node5 -->
<g id="edge10" class="edge">
<title>Node11&#45;&gt;Node5</title>
<path fill="none" stroke="#63b8ff" d="M347.62,-464.35C353.32,-466.73 358.86,-469.44 364,-472.5 383.71,-484.24 379.83,-498.57 400,-509.5 415.37,-517.83 434.06,-522.34 450.53,-524.76"/>
<polygon fill="#63b8ff" stroke="#63b8ff" points="349.23,-461.22 338.64,-460.94 346.74,-467.76 349.23,-461.22"/>
</g>
<!-- Node12 -->
<g id="node12" class="node">
<title>Node12</title>
<g id="a_node12"><a xlink:href="classSetupInterface.html" target="_top" xlink:title=" ">
<polygon fill="white" stroke="#666666" points="543,-500 442,-500 442,-481 543,-481 543,-500"/>
<text text-anchor="middle" x="492.5" y="-488" font-family="Courier,monospace" font-size="10.00">SetupInterface</text>
</a>
</g>
</g>
<!-- Node12&#45;&gt;Node4 -->
<g id="edge11" class="edge">
<title>Node12&#45;&gt;Node4</title>
<path fill="none" stroke="#63b8ff" d="M554.41,-485.38C565.19,-482.61 575.87,-478.52 585,-472.5 662.39,-421.51 708.5,-311.33 721.01,-278.15"/>
<polygon fill="#63b8ff" stroke="#63b8ff" points="553.71,-481.95 544.68,-487.49 555.2,-488.79 553.71,-481.95"/>
</g>
<!-- Node13 -->
<g id="node13" class="node">
<title>Node13</title>
<g id="a_node13"><a xlink:href="classFunctionInterface.html" target="_top" xlink:title="Interface for objects that need to use functions.">
<polygon fill="white" stroke="#666666" points="552,-463 433,-463 433,-444 552,-444 552,-463"/>
<text text-anchor="middle" x="492.5" y="-451" font-family="Courier,monospace" font-size="10.00">FunctionInterface</text>
</a>
</g>
</g>
<!-- Node13&#45;&gt;Node4 -->
<g id="edge12" class="edge">
<title>Node13&#45;&gt;Node4</title>
<path fill="none" stroke="darkgreen" d="M563.19,-445.04C570.84,-442.6 578.28,-439.48 585,-435.5 653.59,-394.89 703.88,-307.77 719.44,-278.4"/>
<polygon fill="darkgreen" stroke="darkgreen" points="562.45,-441.61 553.75,-447.66 564.32,-448.36 562.45,-441.61"/>
</g>
<!-- Node14 -->
<g id="node14" class="node">
<title>Node14</title>
<g id="a_node14"><a xlink:href="classUserObjectInterface.html" target="_top" xlink:title="Interface for objects that need to use UserObjects.">
<polygon fill="white" stroke="#666666" points="558,-426 427,-426 427,-407 558,-407 558,-426"/>
<text text-anchor="middle" x="492.5" y="-414" font-family="Courier,monospace" font-size="10.00">UserObjectInterface</text>
</a>
</g>
</g>
<!-- Node14&#45;&gt;Node4 -->
<g id="edge13" class="edge">
<title>Node14&#45;&gt;Node4</title>
<path fill="none" stroke="#63b8ff" d="M568.89,-405.24C574.47,-403.33 579.9,-401.1 585,-398.5 645.44,-367.63 698.54,-302.84 717.29,-278.25"/>
<polygon fill="#63b8ff" stroke="#63b8ff" points="568.04,-401.84 559.48,-408.08 570.06,-408.54 568.04,-401.84"/>
</g>
<!-- Node15 -->
<g id="node15" class="node">
<title>Node15</title>
<g id="a_node15"><a xlink:href="classPostprocessorInterface.html" target="_top" xlink:title="Interface class for classes which interact with Postprocessors.">
<polygon fill="white" stroke="#666666" points="567,-389 418,-389 418,-370 567,-370 567,-389"/>
<text text-anchor="middle" x="492.5" y="-377" font-family="Courier,monospace" font-size="10.00">PostprocessorInterface</text>
</a>
</g>
</g>
<!-- Node15&#45;&gt;Node4 -->
<g id="edge14" class="edge">
<title>Node15&#45;&gt;Node4</title>
<path fill="none" stroke="darkgreen" d="M571.39,-366.4C576.05,-364.93 580.62,-363.31 585,-361.5 637.2,-339.97 690.4,-297.66 713.1,-278.43"/>
<polygon fill="darkgreen" stroke="darkgreen" points="570.49,-363.02 561.84,-369.13 572.41,-369.75 570.49,-363.02"/>
</g>
<!-- Node16 -->
<g id="node16" class="node">
<title>Node16</title>
<g id="a_node16"><a xlink:href="classVectorPostprocessorInterface.html" target="_top" xlink:title=" ">
<polygon fill="white" stroke="#666666" points="585,-352 400,-352 400,-333 585,-333 585,-352"/>
<text text-anchor="middle" x="492.5" y="-340" font-family="Courier,monospace" font-size="10.00">VectorPostprocessorInterface</text>
</a>
</g>
</g>
<!-- Node16&#45;&gt;Node4 -->
<g id="edge15" class="edge">
<title>Node16&#45;&gt;Node4</title>
<path fill="none" stroke="darkgreen" d="M563.53,-330.13C570.82,-328.42 578.09,-326.55 585,-324.5 628.29,-311.68 676.78,-290.61 703.67,-278.3"/>
<polygon fill="darkgreen" stroke="darkgreen" points="562.95,-326.67 553.95,-332.26 564.47,-333.51 562.95,-326.67"/>
</g>
<!-- Node17 -->
<g id="node17" class="node">
<title>Node17</title>
<g id="a_node17"><a xlink:href="classReporterInterface.html" target="_top" xlink:title="Interface to allow object to consume Reporter values.">
<polygon fill="white" stroke="#666666" points="552,-315 433,-315 433,-296 552,-296 552,-315"/>
<text text-anchor="middle" x="492.5" y="-303" font-family="Courier,monospace" font-size="10.00">ReporterInterface</text>
</a>
</g>
</g>
<!-- Node17&#45;&gt;Node4 -->
<g id="edge16" class="edge">
<title>Node17&#45;&gt;Node4</title>
<path fill="none" stroke="darkgreen" d="M563.56,-294.28C604.05,-287.79 653.42,-279.89 686.71,-274.55"/>
<polygon fill="darkgreen" stroke="darkgreen" points="563.2,-290.79 553.88,-295.83 564.31,-297.7 563.2,-290.79"/>
</g>
<!-- Node18 -->
<g id="node18" class="node">
<title>Node18</title>
<g id="a_node18"><a xlink:href="classDistributionInterface.html" target="_top" xlink:title="Interface for objects that need to use distributions.">
<polygon fill="white" stroke="#666666" points="564,-278 421,-278 421,-259 564,-259 564,-278"/>
<text text-anchor="middle" x="492.5" y="-266" font-family="Courier,monospace" font-size="10.00">DistributionInterface</text>
</a>
</g>
</g>
<!-- Node18&#45;&gt;Node4 -->
<g id="edge17" class="edge">
<title>Node18&#45;&gt;Node4</title>
<path fill="none" stroke="darkgreen" d="M575.43,-268.5C613.35,-268.5 656.56,-268.5 686.65,-268.5"/>
<polygon fill="darkgreen" stroke="darkgreen" points="575.89,-265 565.89,-268.5 575.89,-272 575.89,-265"/>
</g>
<!-- Node19 -->
<g id="node19" class="node">
<title>Node19</title>
<g id="a_node19"><a xlink:href="classSamplerInterface.html" target="_top" xlink:title="Interface for objects that need to use samplers.">
<polygon fill="white" stroke="#666666" points="549,-241 436,-241 436,-222 549,-222 549,-241"/>
<text text-anchor="middle" x="492.5" y="-229" font-family="Courier,monospace" font-size="10.00">SamplerInterface</text>
</a>
</g>
</g>
<!-- Node19&#45;&gt;Node4 -->
<g id="edge18" class="edge">
<title>Node19&#45;&gt;Node4</title>
<path fill="none" stroke="darkgreen" d="M560.71,-242.26C601.74,-248.84 652.7,-257 686.78,-262.46"/>
<polygon fill="darkgreen" stroke="darkgreen" points="561.34,-238.82 550.91,-240.7 560.23,-245.73 561.34,-238.82"/>
</g>
<!-- Node20 -->
<g id="node20" class="node">
<title>Node20</title>
<g id="a_node20"><a xlink:href="classRestartable.html" target="_top" xlink:title="A class for creating restricted objects.">
<polygon fill="white" stroke="#666666" points="534,-204 451,-204 451,-185 534,-185 534,-204"/>
<text text-anchor="middle" x="492.5" y="-192" font-family="Courier,monospace" font-size="10.00">Restartable</text>
</a>
</g>
</g>
<!-- Node20&#45;&gt;Node4 -->
<g id="edge19" class="edge">
<title>Node20&#45;&gt;Node4</title>
<path fill="none" stroke="darkgreen" d="M545.55,-199.79C558.97,-202.61 573,-206.91 585,-213.5 605.11,-224.54 600.71,-239.79 621,-250.5 641.16,-261.14 666.31,-265.68 686.77,-267.54"/>
<polygon fill="darkgreen" stroke="darkgreen" points="546.44,-196.39 535.97,-198.03 545.18,-203.28 546.44,-196.39"/>
</g>
<!-- Node21 -->
<g id="node21" class="node">
<title>Node21</title>
<g id="a_node21"><a xlink:href="classMeshMetaDataInterface.html" target="_top" xlink:title="The Interface used to retrieve mesh meta data (attributes) set by the MeshGenerator system.">
<polygon fill="white" stroke="#666666" points="564,-167 421,-167 421,-148 564,-148 564,-167"/>
<text text-anchor="middle" x="492.5" y="-155" font-family="Courier,monospace" font-size="10.00">MeshMetaDataInterface</text>
</a>
</g>
</g>
<!-- Node21&#45;&gt;Node4 -->
<g id="edge20" class="edge">
<title>Node21&#45;&gt;Node4</title>
<path fill="none" stroke="darkgreen" d="M574.84,-169.96C578.42,-171.87 581.83,-174.03 585,-176.5 613.86,-198.96 591.78,-228.51 621,-250.5 639.65,-264.54 665.53,-269.04 686.74,-270.03"/>
<polygon fill="darkgreen" stroke="darkgreen" points="576.32,-166.79 565.77,-165.89 573.46,-173.18 576.32,-166.79"/>
</g>
<!-- Node22 -->
<g id="node22" class="node">
<title>Node22</title>
<g id="a_node22"><a xlink:href="classMeshChangedInterface.html" target="_top" xlink:title="Interface for notifications that the mesh has changed.">
<polygon fill="white" stroke="#666666" points="561,-130 424,-130 424,-111 561,-111 561,-130"/>
<text text-anchor="middle" x="492.5" y="-118" font-family="Courier,monospace" font-size="10.00">MeshChangedInterface</text>
</a>
</g>
</g>
<!-- Node22&#45;&gt;Node4 -->
<g id="edge21" class="edge">
<title>Node22&#45;&gt;Node4</title>
<path fill="none" stroke="darkgreen" d="M571.63,-129.54C576.46,-131.97 580.98,-134.92 585,-138.5 624.07,-173.25 581.55,-216.18 621,-250.5 638.82,-266 665.1,-270.43 686.71,-271.01"/>
<polygon fill="darkgreen" stroke="darkgreen" points="573.35,-126.46 562.77,-125.84 570.65,-132.92 573.35,-126.46"/>
</g>
<!-- Node23 -->
<g id="node23" class="node">
<title>Node23</title>
<g id="a_node23"><a xlink:href="classScalarCoupleable.html" target="_top" xlink:title="Interface for objects that needs scalar coupling capabilities.">
<polygon fill="white" stroke="#666666" points="549,-93 436,-93 436,-74 549,-74 549,-93"/>
<text text-anchor="middle" x="492.5" y="-81" font-family="Courier,monospace" font-size="10.00">ScalarCoupleable</text>
</a>
</g>
</g>
<!-- Node23&#45;&gt;Node4 -->
<g id="edge22" class="edge">
<title>Node23&#45;&gt;Node4</title>
<path fill="none" stroke="darkgreen" d="M560.1,-87.23C569.33,-90.27 578.03,-94.82 585,-101.5 634.19,-148.63 571.29,-203.91 621,-250.5 638.3,-266.71 664.72,-271.1 686.54,-271.49"/>
<polygon fill="darkgreen" stroke="darkgreen" points="561.11,-83.88 550.55,-84.7 559.32,-90.65 561.11,-83.88"/>
</g>
<!-- Node24 -->
<g id="node24" class="node">
<title>Node24</title>
<g id="a_node24"><a xlink:href="classPerfGraphInterface.html" target="_top" xlink:title="Interface for objects interacting with the PerfGraph.">
<polygon fill="white" stroke="#666666" points="555,-56 430,-56 430,-37 555,-37 555,-56"/>
<text text-anchor="middle" x="492.5" y="-44" font-family="Courier,monospace" font-size="10.00">PerfGraphInterface</text>
</a>
</g>
</g>
<!-- Node24&#45;&gt;Node4 -->
<g id="edge23" class="edge">
<title>Node24&#45;&gt;Node4</title>
<path fill="none" stroke="darkgreen" d="M565.82,-52C572.95,-54.97 579.55,-59.03 585,-64.5 644.45,-124.13 560.9,-191.53 621,-250.5 637.99,-267.17 664.55,-271.52 686.51,-271.78"/>
<polygon fill="darkgreen" stroke="darkgreen" points="567.1,-48.73 556.51,-48.85 564.86,-55.36 567.1,-48.73"/>
</g>
<!-- Node25 -->
<g id="node25" class="node">
<title>Node25</title>
<g id="a_node25"><a xlink:href="classDependencyResolverInterface.html" target="_top" xlink:title="Interface for sorting dependent vectors of objects.">
<polygon fill="white" stroke="#666666" points="582,-19 403,-19 403,0 582,0 582,-19"/>
<text text-anchor="middle" x="492.5" y="-7" font-family="Courier,monospace" font-size="10.00">DependencyResolverInterface</text>
</a>
</g>
</g>
<!-- Node25&#45;&gt;Node4 -->
<g id="edge24" class="edge">
<title>Node25&#45;&gt;Node4</title>
<path fill="none" stroke="#63b8ff" d="M583.84,-26.34C584.23,-26.72 584.62,-27.11 585,-27.5 654.77,-99.69 550.44,-179.08 621,-250.5 637.79,-267.5 664.5,-271.81 686.58,-271.97"/>
<polygon fill="#63b8ff" stroke="#63b8ff" points="586.12,-23.68 576.07,-20.32 581.83,-29.21 586.12,-23.68"/>
</g>
<!-- Node26 -->
<g id="node26" class="node">
<title>Node26</title>
<g id="a_node26"><a xlink:href="classBlockRestrictable.html" target="_top" xlink:title="An interface that restricts an object to subdomains via the &#39;blocks&#39; input parameter.">
<polygon fill="white" stroke="#666666" points="785,-241 666,-241 666,-222 785,-222 785,-241"/>
<text text-anchor="middle" x="725.5" y="-229" font-family="Courier,monospace" font-size="10.00">BlockRestrictable</text>
</a>
</g>
</g>
<!-- Node26&#45;&gt;Node3 -->
<g id="edge25" class="edge">
<title>Node26&#45;&gt;Node3</title>
<path fill="none" stroke="#63b8ff" d="M796.46,-224.24C807.96,-221.67 819.53,-218.19 830,-213.5 865.74,-197.47 899.69,-164.84 915.39,-148.42"/>
<polygon fill="#63b8ff" stroke="#63b8ff" points="796.09,-220.74 786.98,-226.14 797.47,-227.6 796.09,-220.74"/>
</g>
<!-- Node27 -->
<g id="node27" class="node">
<title>Node27</title>
<g id="a_node27"><a xlink:href="classMaterialPropertyInterface.html" target="_top" xlink:title="An interface for accessing Materials.">
<polygon fill="white" stroke="#666666" points="809,-204 642,-204 642,-185 809,-185 809,-204"/>
<text text-anchor="middle" x="725.5" y="-192" font-family="Courier,monospace" font-size="10.00">MaterialPropertyInterface</text>
</a>
</g>
</g>
<!-- Node27&#45;&gt;Node3 -->
<g id="edge26" class="edge">
<title>Node27&#45;&gt;Node3</title>
<path fill="none" stroke="#63b8ff" d="M806.84,-182.25C814.72,-180.53 822.55,-178.62 830,-176.5 856.02,-169.09 884.69,-156.97 903.55,-148.41"/>
<polygon fill="#63b8ff" stroke="#63b8ff" points="806.28,-178.79 797.2,-184.24 807.7,-185.65 806.28,-178.79"/>
</g>
<!-- Node28 -->
<g id="node28" class="node">
<title>Node28</title>
<g id="a_node28"><a xlink:href="classCoupleable.html" target="_top" xlink:title="Interface for objects that needs coupling capabilities.">
<polygon fill="white" stroke="#666666" points="764,-167 687,-167 687,-148 764,-148 764,-167"/>
<text text-anchor="middle" x="725.5" y="-155" font-family="Courier,monospace" font-size="10.00">Coupleable</text>
</a>
</g>
</g>
<!-- Node28&#45;&gt;Node3 -->
<g id="edge27" class="edge">
<title>Node28&#45;&gt;Node3</title>
<path fill="none" stroke="#63b8ff" d="M775.43,-152.8C802.68,-150.19 836.79,-146.92 865.51,-144.16"/>
<polygon fill="#63b8ff" stroke="#63b8ff" points="775.33,-149.3 765.71,-153.74 776,-156.27 775.33,-149.3"/>
</g>
<!-- Node29 -->
<g id="node29" class="node">
<title>Node29</title>
<g id="a_node29"><a xlink:href="classMooseVariableDependencyInterface.html" target="_top" xlink:title=" ">
<polygon fill="white" stroke="#666666" points="830,-130 621,-130 621,-111 830,-111 830,-130"/>
<text text-anchor="middle" x="725.5" y="-118" font-family="Courier,monospace" font-size="10.00">MooseVariableDependencyInterface</text>
</a>
</g>
</g>
<!-- Node29&#45;&gt;Node3 -->
<g id="edge28" class="edge">
<title>Node29&#45;&gt;Node3</title>
<path fill="none" stroke="#63b8ff" d="M841.67,-130.97C849.86,-131.71 857.9,-132.45 865.55,-133.14"/>
<polygon fill="#63b8ff" stroke="#63b8ff" points="842.21,-127.5 831.94,-130.09 841.58,-134.48 842.21,-127.5"/>
</g>
<!-- Node30 -->
<g id="node30" class="node">
<title>Node30</title>
<g id="a_node30"><a xlink:href="classTransientInterface.html" target="_top" xlink:title="Interface for objects that needs transient capabilities.">
<polygon fill="white" stroke="#666666" points="788,-93 663,-93 663,-74 788,-74 788,-93"/>
<text text-anchor="middle" x="725.5" y="-81" font-family="Courier,monospace" font-size="10.00">TransientInterface</text>
</a>
</g>
</g>
<!-- Node30&#45;&gt;Node3 -->
<g id="edge29" class="edge">
<title>Node30&#45;&gt;Node3</title>
<path fill="none" stroke="#63b8ff" d="M799.4,-94.28C809.75,-96.36 820.2,-98.76 830,-101.5 855.62,-108.67 883.9,-120.25 902.78,-128.55"/>
<polygon fill="#63b8ff" stroke="#63b8ff" points="800.22,-90.87 789.74,-92.43 798.9,-97.75 800.22,-90.87"/>
</g>
<!-- Node31 -->
<g id="node31" class="node">
<title>Node31</title>
<g id="a_node31"><a xlink:href="classRandomInterface.html" target="_top" xlink:title="Interface for objects that need parallel consistent random numbers without patterns over the course o...">
<polygon fill="white" stroke="#666666" points="779,-56 672,-56 672,-37 779,-37 779,-56"/>
<text text-anchor="middle" x="725.5" y="-44" font-family="Courier,monospace" font-size="10.00">RandomInterface</text>
</a>
</g>
</g>
<!-- Node31&#45;&gt;Node3 -->
<g id="edge30" class="edge">
<title>Node31&#45;&gt;Node3</title>
<path fill="none" stroke="#63b8ff" d="M790.45,-52.56C803.88,-55.22 817.7,-59.03 830,-64.5 865.61,-80.33 899.62,-112.52 915.37,-128.72"/>
<polygon fill="#63b8ff" stroke="#63b8ff" points="791.24,-49.15 780.79,-50.86 790.03,-56.04 791.24,-49.15"/>
</g>
<!-- Node32 -->
<g id="node32" class="node">
<title>Node32</title>
<g id="a_node32"><a xlink:href="classElementIDInterface.html" target="_top" xlink:title=" ">
<polygon fill="white" stroke="#666666" points="788,-19 663,-19 663,0 788,0 788,-19"/>
<text text-anchor="middle" x="725.5" y="-7" font-family="Courier,monospace" font-size="10.00">ElementIDInterface</text>
</a>
</g>
</g>
<!-- Node32&#45;&gt;Node3 -->
<g id="edge31" class="edge">
<title>Node32&#45;&gt;Node3</title>
<path fill="none" stroke="#63b8ff" d="M799.44,-15.59C810.12,-18.33 820.65,-22.16 830,-27.5 874.18,-52.73 907.24,-106.77 919.41,-128.82"/>
<polygon fill="#63b8ff" stroke="#63b8ff" points="800.3,-12.2 789.78,-13.45 798.78,-19.03 800.3,-12.2"/>
</g>
<!-- Node33 -->
<g id="node33" class="node">
<title>Node33</title>
<g id="a_node33"><a xlink:href="classMooseVariableInterface.html" target="_top" xlink:title=" ">
<polygon fill="white" stroke="#666666" points="1179,-110.5 1030,-110.5 1030,-80.5 1179,-80.5 1179,-110.5"/>
<text text-anchor="start" x="1038" y="-98.5" font-family="Courier,monospace" font-size="10.00">MooseVariableInterface</text>
<text text-anchor="middle" x="1104.5" y="-87.5" font-family="Courier,monospace" font-size="10.00">&lt; Real &gt;</text>
</a>
</g>
</g>
<!-- Node33&#45;&gt;Node1 -->
<g id="edge32" class="edge">
<title>Node33&#45;&gt;Node1</title>
<path fill="none" stroke="#63b8ff" d="M1190.64,-104.14C1201.58,-105.25 1212.81,-106.39 1223.81,-107.5"/>
<polygon fill="#63b8ff" stroke="#63b8ff" points="1191.16,-100.67 1180.86,-103.15 1190.46,-107.64 1191.16,-100.67"/>
</g>
<!-- Node35 -->
<g id="node35" class="node">
<title>Node35</title>
<g id="a_node35"><a xlink:href="classNearestPointLayeredAverage.html" target="_top" xlink:title="This UserObject computes averages of a variable storing partial sums for the specified number of inte...">
<polygon fill="white" stroke="#666666" points="1866,-211 1693,-211 1693,-192 1866,-192 1866,-211"/>
<text text-anchor="middle" x="1779.5" y="-199" font-family="Courier,monospace" font-size="10.00">NearestPointLayeredAverage</text>
</a>
</g>
</g>
<!-- Node34&#45;&gt;Node35 -->
<g id="edge34" class="edge">
<title>Node34&#45;&gt;Node35</title>
<path fill="none" stroke="#63b8ff" d="M1662.3,-188.42C1672.56,-189.58 1682.83,-190.73 1692.79,-191.85"/>
<polygon fill="#63b8ff" stroke="#63b8ff" points="1663.01,-184.98 1652.68,-187.34 1662.22,-191.93 1663.01,-184.98"/>
</g>
<!-- Node36 -->
<g id="node36" class="node">
<title>Node36</title>
<g id="a_node36"><a xlink:href="classNearestRadiusLayeredAverage.html" target="_top" xlink:title="This UserObject computes averages of a variable storing partial sums for the specified number of inte...">
<polygon fill="white" stroke="#666666" points="1869,-174 1690,-174 1690,-155 1869,-155 1869,-174"/>
<text text-anchor="middle" x="1779.5" y="-162" font-family="Courier,monospace" font-size="10.00">NearestRadiusLayeredAverage</text>
</a>
</g>
</g>
<!-- Node34&#45;&gt;Node36 -->
<g id="edge35" class="edge">
<title>Node34&#45;&gt;Node36</title>
<path fill="none" stroke="#63b8ff" d="M1662.64,-170.02C1671.71,-169.59 1680.78,-169.15 1689.62,-168.73"/>
<polygon fill="#63b8ff" stroke="#63b8ff" points="1662.51,-166.52 1652.69,-170.49 1662.84,-173.51 1662.51,-166.52"/>
</g>
<!-- Node38 -->
<g id="node38" class="node">
<title>Node38</title>
<g id="a_node38"><a xlink:href="classNearestPointLayeredIntegral.html" target="_top" xlink:title="This UserObject computes integrals of a variable storing partial sums for the specified number of int...">
<polygon fill="white" stroke="#666666" points="1869,-126 1690,-126 1690,-107 1869,-107 1869,-126"/>
<text text-anchor="middle" x="1779.5" y="-114" font-family="Courier,monospace" font-size="10.00">NearestPointLayeredIntegral</text>
</a>
</g>
</g>
<!-- Node37&#45;&gt;Node38 -->
<g id="edge37" class="edge">
<title>Node37&#45;&gt;Node38</title>
<path fill="none" stroke="#63b8ff" d="M1665.59,-116.5C1673.64,-116.5 1681.68,-116.5 1689.55,-116.5"/>
<polygon fill="#63b8ff" stroke="#63b8ff" points="1665.72,-113 1655.72,-116.5 1665.72,-120 1665.72,-113"/>
</g>
<!-- Node40 -->
<g id="node40" class="node">
<title>Node40</title>
<g id="a_node40"><a xlink:href="classLayeredAverage.html" target="_top" xlink:title="This UserObject computes averages of a variable storing partial sums for the specified number of inte...">
<polygon fill="white" stroke="#666666" points="1830,-78 1729,-78 1729,-59 1830,-59 1830,-78"/>
<text text-anchor="middle" x="1779.5" y="-66" font-family="Courier,monospace" font-size="10.00">LayeredAverage</text>
</a>
</g>
</g>
<!-- Node39&#45;&gt;Node40 -->
<g id="edge39" class="edge">
<title>Node39&#45;&gt;Node40</title>
<path fill="none" stroke="#63b8ff" d="M1611.65,-68.5C1648.57,-68.5 1694.28,-68.5 1728.52,-68.5"/>
<polygon fill="#63b8ff" stroke="#63b8ff" points="1612.01,-65 1602.01,-68.5 1612.01,-72 1612.01,-65"/>
</g>
</g>
</svg>
        <g id="navigator" transform="translate(0 0)" fill="#404254">
                <rect fill="#f2f5e9" fill-opacity="0.5" stroke="#606060" stroke-width=".5" x="0" y="0" width="60" height="60"/>
                <use id="zoomplus" xlink:href="#zoomPlus" x="17" y="9" onmousedown="handleZoom(evt,'in')"/>
                <use id="zoomminus" xlink:href="#zoomMin" x="42" y="9" onmousedown="handleZoom(evt,'out')"/>
                <use id="reset" xlink:href="#resetDef" x="30" y="36" onmousedown="handleReset()"/>
                <g id="arrowUp" xlink:href="#dirArrow" transform="translate(30 24)" onmousedown="handlePan(0,-1)">
                  <use xlink:href="#rim" fill="#404040">
                        <set attributeName="fill" to="#808080" begin="arrowUp.mouseover" end="arrowUp.mouseout"/>
                  </use>
                  <path fill="none" stroke="white" stroke-width="1.5" d="M0,-3.0v7 M-2.5,-0.5L0,-3.0L2.5,-0.5"/>
                </g>
                <g id="arrowRight" xlink:href="#dirArrow" transform="rotate(90) translate(36 -43)" onmousedown="handlePan(1,0)">
                  <use xlink:href="#rim" fill="#404040">
                        <set attributeName="fill" to="#808080" begin="arrowRight.mouseover" end="arrowRight.mouseout"/>
                  </use>
                  <path fill="none" stroke="white" stroke-width="1.5" d="M0,-3.0v7 M-2.5,-0.5L0,-3.0L2.5,-0.5"/>
                </g>
                <g id="arrowDown" xlink:href="#dirArrow" transform="rotate(180) translate(-30 -48)" onmousedown="handlePan(0,1)">
                  <use xlink:href="#rim" fill="#404040">
                        <set attributeName="fill" to="#808080" begin="arrowDown.mouseover" end="arrowDown.mouseout"/>
                  </use>
                  <path fill="none" stroke="white" stroke-width="1.5" d="M0,-3.0v7 M-2.5,-0.5L0,-3.0L2.5,-0.5"/>
                </g>
                <g id="arrowLeft" xlink:href="#dirArrow" transform="rotate(270) translate(-36 17)" onmousedown="handlePan(-1,0)">
                  <use xlink:href="#rim" fill="#404040">
                        <set attributeName="fill" to="#808080" begin="arrowLeft.mouseover" end="arrowLeft.mouseout"/>
                  </use>
                  <path fill="none" stroke="white" stroke-width="1.5" d="M0,-3.0v7 M-2.5,-0.5L0,-3.0L2.5,-0.5"/>
                </g>
        </g>
        <svg viewBox="0 0 15 15" width="100%" height="30px" preserveAspectRatio="xMaxYMin meet">
         <g id="arrow_out" transform="scale(0.3 0.3)">
          <a xlink:href="classElementIntegralVariableUserObject__inherit__graph_org.svg" target="_base">
           <rect id="button" ry="5" rx="5" y="6" x="6" height="38" width="38"
                fill="#f2f5e9" fill-opacity="0.5" stroke="#606060" stroke-width="1.0"/>
           <path id="arrow"
             d="M 11.500037,31.436501 C 11.940474,20.09759 22.043105,11.32322 32.158766,21.979434 L 37.068811,17.246167 C 37.068811,17.246167 37.088388,32 37.088388,32 L 22.160133,31.978069 C 22.160133,31.978069 26.997745,27.140456 26.997745,27.140456 C 18.528582,18.264221 13.291696,25.230495 11.500037,31.436501 z"
             style="fill:#404040;"/>
          </a>
         </g>
        </svg>
</svg>
