<?xml version="1.0" encoding="UTF-8" standalone="no"?>
<!DOCTYPE svg PUBLIC "-//W3C//DTD SVG 1.1//EN"
 "http://www.w3.org/Graphics/SVG/1.1/DTD/svg11.dtd">
<!-- Generated by graphviz version 7.0.5 (20221223.1930)
 -->
<!-- Title: CompileTimeDerivatives::CTBinary&lt; L, R &gt; Pages: 1 -->
<svg width="551pt" height="326pt"
 viewBox="0.00 0.00 551.00 326.00" xmlns="http://www.w3.org/2000/svg" xmlns:xlink="http://www.w3.org/1999/xlink">
<g id="graph0" class="graph" transform="scale(1 1) rotate(0) translate(4 322)">
<title>CompileTimeDerivatives::CTBinary&lt; L, R &gt;</title>
<!-- Node1 -->
<g id="node1" class="node">
<title>Node1</title>
<g id="a_node1"><a xlink:title="Base class for a binary operator/function.">
<polygon fill="#999999" stroke="#666666" points="334,-174 185,-174 185,-144 334,-144 334,-174"/>
<text text-anchor="start" x="193" y="-162" font-family="Courier,monospace" font-size="10.00">CompileTimeDerivatives</text>
<text text-anchor="middle" x="259.5" y="-151" font-family="Courier,monospace" font-size="10.00">::CTBinary&lt; L, R &gt;</text>
</a>
</g>
</g>
<!-- Node3 -->
<g id="node3" class="node">
<title>Node3</title>
<g id="a_node3"><a xlink:href="classCompileTimeDerivatives_1_1CTAdd.html" target="_top" xlink:title="Addition operator node.">
<polygon fill="white" stroke="#666666" points="531,-318 382,-318 382,-288 531,-288 531,-318"/>
<text text-anchor="start" x="390" y="-306" font-family="Courier,monospace" font-size="10.00">CompileTimeDerivatives</text>
<text text-anchor="middle" x="456.5" y="-295" font-family="Courier,monospace" font-size="10.00">::CTAdd&lt; L, R &gt;</text>
</a>
</g>
</g>
<!-- Node1&#45;&gt;Node3 -->
<g id="edge2" class="edge">
<title>Node1&#45;&gt;Node3</title>
<path fill="none" stroke="#63b8ff" d="M276.62,-183.69C295.71,-210.99 330.01,-254.35 370,-279 375.38,-282.32 381.23,-285.19 387.26,-287.67"/>
<polygon fill="#63b8ff" stroke="#63b8ff" points="279.68,-181.96 271.15,-175.67 273.89,-185.9 279.68,-181.96"/>
</g>
<!-- Node4 -->
<g id="node4" class="node">
<title>Node4</title>
<g id="a_node4"><a xlink:href="classCompileTimeDerivatives_1_1CTCompare.html" target="_top" xlink:title="Binary comparison operator node.">
<polygon fill="white" stroke="#666666" points="531,-270 382,-270 382,-240 531,-240 531,-270"/>
<text text-anchor="start" x="390" y="-258" font-family="Courier,monospace" font-size="10.00">CompileTimeDerivatives</text>
<text text-anchor="middle" x="456.5" y="-247" font-family="Courier,monospace" font-size="10.00">::CTCompare&lt; C, L, R &gt;</text>
</a>
</g>
</g>
<!-- Node1&#45;&gt;Node4 -->
<g id="edge3" class="edge">
<title>Node1&#45;&gt;Node4</title>
<path fill="none" stroke="#63b8ff" d="M288.72,-181.07C310.03,-196.85 340.56,-217.58 370,-231 377.01,-234.2 384.55,-237.06 392.14,-239.6"/>
<polygon fill="#63b8ff" stroke="#63b8ff" points="290.91,-178.34 280.82,-175.13 286.7,-183.94 290.91,-178.34"/>
</g>
<!-- Node5 -->
<g id="node5" class="node">
<title>Node5</title>
<g id="a_node5"><a xlink:href="classCompileTimeDerivatives_1_1CTConditional.html" target="_top" xlink:title="Base class for a ternary functions.">
<polygon fill="white" stroke="#666666" points="543,-222 370,-222 370,-192 543,-192 543,-222"/>
<text text-anchor="start" x="378" y="-210" font-family="Courier,monospace" font-size="10.00">CompileTimeDerivatives</text>
<text text-anchor="middle" x="456.5" y="-199" font-family="Courier,monospace" font-size="10.00">::CTConditional&lt; C, L, R &gt;</text>
</a>
</g>
</g>
<!-- Node1&#45;&gt;Node5 -->
<g id="edge4" class="edge">
<title>Node1&#45;&gt;Node5</title>
<path fill="none" stroke="#63b8ff" d="M334.43,-177.2C353.68,-181.94 374.24,-187 392.85,-191.58"/>
<polygon fill="#63b8ff" stroke="#63b8ff" points="335.29,-173.81 324.74,-174.81 333.62,-180.6 335.29,-173.81"/>
</g>
<!-- Node6 -->
<g id="node6" class="node">
<title>Node6</title>
<g id="a_node6"><a xlink:href="classCompileTimeDerivatives_1_1CTDiv.html" target="_top" xlink:title="Division operator node.">
<polygon fill="white" stroke="#666666" points="531,-174 382,-174 382,-144 531,-144 531,-174"/>
<text text-anchor="start" x="390" y="-162" font-family="Courier,monospace" font-size="10.00">CompileTimeDerivatives</text>
<text text-anchor="middle" x="456.5" y="-151" font-family="Courier,monospace" font-size="10.00">::CTDiv&lt; L, R &gt;</text>
</a>
</g>
</g>
<!-- Node1&#45;&gt;Node6 -->
<g id="edge5" class="edge">
<title>Node1&#45;&gt;Node6</title>
<path fill="none" stroke="#63b8ff" d="M345.82,-159C357.72,-159 369.88,-159 381.55,-159"/>
<polygon fill="#63b8ff" stroke="#63b8ff" points="346.01,-155.5 336.01,-159 346.01,-162.5 346.01,-155.5"/>
</g>
<!-- Node7 -->
<g id="node7" class="node">
<title>Node7</title>
<g id="a_node7"><a xlink:href="classCompileTimeDerivatives_1_1CTMul.html" target="_top" xlink:title="Multiplication operator node.">
<polygon fill="white" stroke="#666666" points="531,-126 382,-126 382,-96 531,-96 531,-126"/>
<text text-anchor="start" x="390" y="-114" font-family="Courier,monospace" font-size="10.00">CompileTimeDerivatives</text>
<text text-anchor="middle" x="456.5" y="-103" font-family="Courier,monospace" font-size="10.00">::CTMul&lt; L, R &gt;</text>
</a>
</g>
</g>
<!-- Node1&#45;&gt;Node7 -->
<g id="edge6" class="edge">
<title>Node1&#45;&gt;Node7</title>
<path fill="none" stroke="#63b8ff" d="M334.43,-140.8C353.68,-136.06 374.24,-131 392.85,-126.42"/>
<polygon fill="#63b8ff" stroke="#63b8ff" points="333.62,-137.4 324.74,-143.19 335.29,-144.19 333.62,-137.4"/>
</g>
<!-- Node8 -->
<g id="node8" class="node">
<title>Node8</title>
<g id="a_node8"><a xlink:href="classCompileTimeDerivatives_1_1CTPow.html" target="_top" xlink:title="Power operator where both base and exponent can be arbitrary operators.">
<polygon fill="white" stroke="#666666" points="531,-78 382,-78 382,-48 531,-48 531,-78"/>
<text text-anchor="start" x="390" y="-66" font-family="Courier,monospace" font-size="10.00">CompileTimeDerivatives</text>
<text text-anchor="middle" x="456.5" y="-55" font-family="Courier,monospace" font-size="10.00">::CTPow&lt; L, R &gt;</text>
</a>
</g>
</g>
<!-- Node1&#45;&gt;Node8 -->
<g id="edge7" class="edge">
<title>Node1&#45;&gt;Node8</title>
<path fill="none" stroke="#63b8ff" d="M288.72,-136.93C310.03,-121.15 340.56,-100.42 370,-87 377.01,-83.8 384.55,-80.94 392.14,-78.4"/>
<polygon fill="#63b8ff" stroke="#63b8ff" points="286.7,-134.06 280.82,-142.87 290.91,-139.66 286.7,-134.06"/>
</g>
<!-- Node9 -->
<g id="node9" class="node">
<title>Node9</title>
<g id="a_node9"><a xlink:href="classCompileTimeDerivatives_1_1CTSub.html" target="_top" xlink:title="Subtraction operator node.">
<polygon fill="white" stroke="#666666" points="531,-30 382,-30 382,0 531,0 531,-30"/>
<text text-anchor="start" x="390" y="-18" font-family="Courier,monospace" font-size="10.00">CompileTimeDerivatives</text>
<text text-anchor="middle" x="456.5" y="-7" font-family="Courier,monospace" font-size="10.00">::CTSub&lt; L, R &gt;</text>
</a>
</g>
</g>
<!-- Node1&#45;&gt;Node9 -->
<g id="edge8" class="edge">
<title>Node1&#45;&gt;Node9</title>
<path fill="none" stroke="#63b8ff" d="M276.62,-134.31C295.71,-107.01 330.01,-63.65 370,-39 375.38,-35.68 381.23,-32.81 387.26,-30.33"/>
<polygon fill="#63b8ff" stroke="#63b8ff" points="273.89,-132.1 271.15,-142.33 279.68,-136.04 273.89,-132.1"/>
</g>
<!-- Node2 -->
<g id="node2" class="node">
<title>Node2</title>
<g id="a_node2"><a xlink:href="classCompileTimeDerivatives_1_1CTBase.html" target="_top" xlink:title="All compile time derivative system objects derive from this (empty) base class.">
<polygon fill="white" stroke="#666666" points="149,-174 0,-174 0,-144 149,-144 149,-174"/>
<text text-anchor="start" x="8" y="-162" font-family="Courier,monospace" font-size="10.00">CompileTimeDerivatives</text>
<text text-anchor="middle" x="74.5" y="-151" font-family="Courier,monospace" font-size="10.00">::CTBase</text>
</a>
</g>
</g>
<!-- Node2&#45;&gt;Node1 -->
<g id="edge1" class="edge">
<title>Node2&#45;&gt;Node1</title>
<path fill="none" stroke="#63b8ff" d="M160.65,-159C168.66,-159 176.73,-159 184.62,-159"/>
<polygon fill="#63b8ff" stroke="#63b8ff" points="160.92,-155.5 150.92,-159 160.92,-162.5 160.92,-155.5"/>
</g>
</g>
</svg>
