<?xml version="1.0" encoding="UTF-8" standalone="no"?>
<!DOCTYPE svg PUBLIC "-//W3C//DTD SVG 1.1//EN"
 "http://www.w3.org/Graphics/SVG/1.1/DTD/svg11.dtd">
<!-- Generated by graphviz version 7.0.5 (20221223.1930)
 -->
<!-- Title: ScalarKernelBase Pages: 1 -->
<!--zoomable 933 -->
<svg id="main" version="1.1" xmlns="http://www.w3.org/2000/svg" xmlns:xlink="http://www.w3.org/1999/xlink" xml:space="preserve" onload="init(evt)">
<style type="text/css"><![CDATA[
.edge:hover path { stroke: red; }
.edge:hover polygon { stroke: red; fill: red; }
]]></style>
<script type="text/javascript"><![CDATA[
var edges = document.getElementsByTagName('g');
if (edges && edges.length) {
  for (var i=0;i<edges.length;i++) {
    if (edges[i].id.substr(0,4)=='edge') {
      edges[i].setAttribute('class','edge');
    }
  }
}
]]></script>
        <defs>
                <circle id="rim" cx="0" cy="0" r="7"/>
                <circle id="rim2" cx="0" cy="0" r="3.5"/>
                <g id="zoomPlus">
                        <use xlink:href="#rim" fill="#404040">
                                <set attributeName="fill" to="#808080" begin="zoomplus.mouseover" end="zoomplus.mouseout"/>
                        </use>
                        <path d="M-4,0h8M0,-4v8" fill="none" stroke="white" stroke-width="1.5" pointer-events="none"/>
                </g>
                <g id="zoomMin">
                        <use xlink:href="#rim" fill="#404040">
                                <set attributeName="fill" to="#808080" begin="zoomminus.mouseover" end="zoomminus.mouseout"/>
                        </use>
                        <path d="M-4,0h8" fill="none" stroke="white" stroke-width="1.5" pointer-events="none"/>
                </g>
                <g id="dirArrow">
                        <path fill="none" stroke="white" stroke-width="1.5" d="M0,-3.0v7 M-2.5,-0.5L0,-3.0L2.5,-0.5"/>
                </g>
               <g id="resetDef">
                       <use xlink:href="#rim2" fill="#404040">
                               <set attributeName="fill" to="#808080" begin="reset.mouseover" end="reset.mouseout"/>
                       </use>
               </g>
        </defs>

<script type="text/javascript">
var viewWidth = 1637;
var viewHeight = 933;
var sectionId = 'dynsection-0';
</script>
<script xlink:href="svgpan.js"/>
<svg id="graph" class="graph">
<g id="viewport">
<title>ScalarKernelBase</title>
<!-- Node1 -->
<g id="node1" class="node">
<title>Node1</title>
<g id="a_node1"><a xlink:title="Base class shared by AD and non&#45;AD scalar kernels.">
<polygon fill="#999999" stroke="#666666" points="883,-647 770,-647 770,-628 883,-628 883,-647"/>
<text text-anchor="middle" x="826.5" y="-635" font-family="Courier,monospace" font-size="10.00">ScalarKernelBase</text>
</a>
</g>
</g>
<!-- Node21 -->
<g id="node21" class="node">
<title>Node21</title>
<g id="a_node21"><a xlink:href="classADScalarKernel.html" target="_top" xlink:title="Base class for AD scalar kernels.">
<polygon fill="white" stroke="#666666" points="1020,-684 919,-684 919,-665 1020,-665 1020,-684"/>
<text text-anchor="middle" x="969.5" y="-672" font-family="Courier,monospace" font-size="10.00">ADScalarKernel</text>
</a>
</g>
</g>
<!-- Node1&#45;&gt;Node21 -->
<g id="edge20" class="edge">
<title>Node1&#45;&gt;Node21</title>
<path fill="none" stroke="#63b8ff" d="M876.33,-650.31C894.11,-654.98 913.92,-660.18 930.61,-664.56"/>
<polygon fill="#63b8ff" stroke="#63b8ff" points="877.31,-646.95 866.75,-647.8 875.53,-653.72 877.31,-646.95"/>
</g>
<!-- Node24 -->
<g id="node24" class="node">
<title>Node24</title>
<g id="a_node24"><a xlink:href="classScalarKernel.html" target="_top" xlink:title=" ">
<polygon fill="white" stroke="#666666" points="1014,-629 925,-629 925,-610 1014,-610 1014,-629"/>
<text text-anchor="middle" x="969.5" y="-617" font-family="Courier,monospace" font-size="10.00">ScalarKernel</text>
</a>
</g>
</g>
<!-- Node1&#45;&gt;Node24 -->
<g id="edge23" class="edge">
<title>Node1&#45;&gt;Node24</title>
<path fill="none" stroke="#63b8ff" d="M894.39,-628.96C904.76,-627.64 915.24,-626.3 924.91,-625.06"/>
<polygon fill="#63b8ff" stroke="#63b8ff" points="894.2,-625.46 884.73,-630.19 895.09,-632.4 894.2,-625.46"/>
</g>
<!-- Node2 -->
<g id="node2" class="node">
<title>Node2</title>
<g id="a_node2"><a xlink:href="classResidualObject.html" target="_top" xlink:title="This is the common base class for objects that give residual contributions.">
<polygon fill="white" stroke="#666666" points="728,-666 627,-666 627,-647 728,-647 728,-666"/>
<text text-anchor="middle" x="677.5" y="-654" font-family="Courier,monospace" font-size="10.00">ResidualObject</text>
</a>
</g>
</g>
<!-- Node2&#45;&gt;Node1 -->
<g id="edge1" class="edge">
<title>Node2&#45;&gt;Node1</title>
<path fill="none" stroke="#63b8ff" d="M739.42,-648.63C749.46,-647.33 759.81,-645.99 769.72,-644.71"/>
<polygon fill="#63b8ff" stroke="#63b8ff" points="739.24,-645.12 729.77,-649.87 740.13,-652.06 739.24,-645.12"/>
</g>
<!-- Node3 -->
<g id="node3" class="node">
<title>Node3</title>
<g id="a_node3"><a xlink:href="classMooseObject.html" target="_top" xlink:title="Every object that can be built by the factory should be derived from this class.">
<polygon fill="white" stroke="#666666" points="534,-851 451,-851 451,-832 534,-832 534,-851"/>
<text text-anchor="middle" x="492.5" y="-839" font-family="Courier,monospace" font-size="10.00">MooseObject</text>
</a>
</g>
</g>
<!-- Node3&#45;&gt;Node2 -->
<g id="edge2" class="edge">
<title>Node3&#45;&gt;Node2</title>
<path fill="none" stroke="#63b8ff" d="M545.34,-839.25C559.23,-836.63 573.56,-831.88 585,-823.5 641.29,-782.3 666.95,-695.57 674.23,-666.35"/>
<polygon fill="#63b8ff" stroke="#63b8ff" points="545.21,-835.73 535.85,-840.71 546.26,-842.65 545.21,-835.73"/>
</g>
<!-- Node4 -->
<g id="node4" class="node">
<title>Node4</title>
<g id="a_node4"><a xlink:href="classMooseBase.html" target="_top" xlink:title="Base class for everything in MOOSE with a name and a type.">
<polygon fill="white" stroke="#666666" points="310,-925 239,-925 239,-906 310,-906 310,-925"/>
<text text-anchor="middle" x="274.5" y="-913" font-family="Courier,monospace" font-size="10.00">MooseBase</text>
</a>
</g>
</g>
<!-- Node4&#45;&gt;Node3 -->
<g id="edge3" class="edge">
<title>Node4&#45;&gt;Node3</title>
<path fill="none" stroke="#63b8ff" d="M321.62,-908.05C335.41,-905.31 350.46,-901.8 364,-897.5 403.87,-884.85 448.08,-863.72 472.56,-851.35"/>
<polygon fill="#63b8ff" stroke="#63b8ff" points="321.06,-904.59 311.89,-909.89 322.36,-911.47 321.06,-904.59"/>
</g>
<!-- Node5 -->
<g id="node5" class="node">
<title>Node5</title>
<g id="a_node5"><a xlink:href="classMooseBaseParameterInterface.html" target="_top" xlink:title="Every object that can be built by the factory should be derived from this class.">
<polygon fill="white" stroke="#666666" points="364,-888 185,-888 185,-869 364,-869 364,-888"/>
<text text-anchor="middle" x="274.5" y="-876" font-family="Courier,monospace" font-size="10.00">MooseBaseParameterInterface</text>
</a>
</g>
</g>
<!-- Node5&#45;&gt;Node3 -->
<g id="edge4" class="edge">
<title>Node5&#45;&gt;Node3</title>
<path fill="none" stroke="#63b8ff" d="M344.77,-866.63C379.7,-860.65 420.85,-853.6 450.68,-848.49"/>
<polygon fill="#63b8ff" stroke="#63b8ff" points="344.43,-863.14 335.16,-868.28 345.61,-870.04 344.43,-863.14"/>
</g>
<!-- Node6 -->
<g id="node6" class="node">
<title>Node6</title>
<g id="a_node6"><a xlink:href="classMooseBaseErrorInterface.html" target="_top" xlink:title="Interface that provides APIs to output errors/warnings/info messages.">
<polygon fill="white" stroke="#666666" points="352,-851 197,-851 197,-832 352,-832 352,-851"/>
<text text-anchor="middle" x="274.5" y="-839" font-family="Courier,monospace" font-size="10.00">MooseBaseErrorInterface</text>
</a>
</g>
</g>
<!-- Node6&#45;&gt;Node3 -->
<g id="edge5" class="edge">
<title>Node6&#45;&gt;Node3</title>
<path fill="none" stroke="#63b8ff" d="M363.7,-841.5C393.87,-841.5 426.17,-841.5 450.75,-841.5"/>
<polygon fill="#63b8ff" stroke="#63b8ff" points="363.78,-838 353.78,-841.5 363.78,-845 363.78,-838"/>
</g>
<!-- Node7 -->
<g id="node7" class="node">
<title>Node7</title>
<g id="a_node7"><a xlink:href="classConsoleStreamInterface.html" target="_top" xlink:title="An inteface for the _console for outputting to the Console object.">
<polygon fill="white" stroke="#666666" points="149,-851 0,-851 0,-832 149,-832 149,-851"/>
<text text-anchor="middle" x="74.5" y="-839" font-family="Courier,monospace" font-size="10.00">ConsoleStreamInterface</text>
</a>
</g>
</g>
<!-- Node7&#45;&gt;Node6 -->
<g id="edge6" class="edge">
<title>Node7&#45;&gt;Node6</title>
<path fill="none" stroke="#63b8ff" d="M160.62,-841.5C172.62,-841.5 184.9,-841.5 196.73,-841.5"/>
<polygon fill="#63b8ff" stroke="#63b8ff" points="160.74,-838 150.74,-841.5 160.74,-845 160.74,-838"/>
</g>
<!-- Node8 -->
<g id="node8" class="node">
<title>Node8</title>
<g id="a_node8"><a xlink:title=" ">
<polygon fill="white" stroke="#666666" points="352,-814 197,-814 197,-795 352,-795 352,-814"/>
<text text-anchor="middle" x="274.5" y="-802" font-family="Courier,monospace" font-size="10.00">libMesh::ParallelObject</text>
</a>
</g>
</g>
<!-- Node8&#45;&gt;Node3 -->
<g id="edge7" class="edge">
<title>Node8&#45;&gt;Node3</title>
<path fill="none" stroke="#63b8ff" d="M344.77,-816.37C379.7,-822.35 420.85,-829.4 450.68,-834.51"/>
<polygon fill="#63b8ff" stroke="#63b8ff" points="345.61,-812.96 335.16,-814.72 344.43,-819.86 345.61,-812.96"/>
</g>
<!-- Node9 -->
<g id="node9" class="node">
<title>Node9</title>
<g id="a_node9"><a xlink:href="classDataFileInterface.html" target="_top" xlink:title=" ">
<polygon fill="white" stroke="#666666" points="337,-776.5 212,-776.5 212,-746.5 337,-746.5 337,-776.5"/>
<text text-anchor="start" x="220" y="-764.5" font-family="Courier,monospace" font-size="10.00">DataFileInterface&lt;</text>
<text text-anchor="middle" x="274.5" y="-753.5" font-family="Courier,monospace" font-size="10.00"> MooseObject &gt;</text>
</a>
</g>
</g>
<!-- Node9&#45;&gt;Node3 -->
<g id="edge8" class="edge">
<title>Node9&#45;&gt;Node3</title>
<path fill="none" stroke="#63b8ff" d="M347.62,-778.35C353.32,-780.73 358.86,-783.44 364,-786.5 383.71,-798.24 379.83,-812.57 400,-823.5 415.37,-831.83 434.06,-836.34 450.53,-838.76"/>
<polygon fill="#63b8ff" stroke="#63b8ff" points="349.23,-775.22 338.64,-774.94 346.74,-781.76 349.23,-775.22"/>
</g>
<!-- Node10 -->
<g id="node10" class="node">
<title>Node10</title>
<g id="a_node10"><a xlink:href="classSetupInterface.html" target="_top" xlink:title=" ">
<polygon fill="white" stroke="#666666" points="543,-814 442,-814 442,-795 543,-795 543,-814"/>
<text text-anchor="middle" x="492.5" y="-802" font-family="Courier,monospace" font-size="10.00">SetupInterface</text>
</a>
</g>
</g>
<!-- Node10&#45;&gt;Node2 -->
<g id="edge9" class="edge">
<title>Node10&#45;&gt;Node2</title>
<path fill="none" stroke="#63b8ff" d="M554.34,-799.28C565.13,-796.52 575.83,-792.45 585,-786.5 632.45,-755.69 662.58,-690.86 672.7,-666.25"/>
<polygon fill="#63b8ff" stroke="#63b8ff" points="553.65,-795.85 544.61,-801.38 555.13,-802.69 553.65,-795.85"/>
</g>
<!-- Node11 -->
<g id="node11" class="node">
<title>Node11</title>
<g id="a_node11"><a xlink:href="classFunctionInterface.html" target="_top" xlink:title="Interface for objects that need to use functions.">
<polygon fill="white" stroke="#666666" points="552,-777 433,-777 433,-758 552,-758 552,-777"/>
<text text-anchor="middle" x="492.5" y="-765" font-family="Courier,monospace" font-size="10.00">FunctionInterface</text>
</a>
</g>
</g>
<!-- Node11&#45;&gt;Node2 -->
<g id="edge10" class="edge">
<title>Node11&#45;&gt;Node2</title>
<path fill="none" stroke="#63b8ff" d="M563.47,-758.31C570.97,-756 578.3,-753.11 585,-749.5 623.89,-728.56 656.62,-685.56 670.01,-666.26"/>
<polygon fill="#63b8ff" stroke="#63b8ff" points="562.61,-754.92 553.88,-760.91 564.44,-761.68 562.61,-754.92"/>
</g>
<!-- Node12 -->
<g id="node12" class="node">
<title>Node12</title>
<g id="a_node12"><a xlink:href="classUserObjectInterface.html" target="_top" xlink:title="Interface for objects that need to use UserObjects.">
<polygon fill="white" stroke="#666666" points="558,-740 427,-740 427,-721 558,-721 558,-740"/>
<text text-anchor="middle" x="492.5" y="-728" font-family="Courier,monospace" font-size="10.00">UserObjectInterface</text>
</a>
</g>
</g>
<!-- Node12&#45;&gt;Node2 -->
<g id="edge11" class="edge">
<title>Node12&#45;&gt;Node2</title>
<path fill="none" stroke="#63b8ff" d="M569.38,-717.77C574.73,-716.21 579.98,-714.46 585,-712.5 615.19,-700.73 646.61,-679.09 663.64,-666.43"/>
<polygon fill="#63b8ff" stroke="#63b8ff" points="568.53,-714.38 559.78,-720.35 570.34,-721.14 568.53,-714.38"/>
</g>
<!-- Node13 -->
<g id="node13" class="node">
<title>Node13</title>
<g id="a_node13"><a xlink:href="classTransientInterface.html" target="_top" xlink:title="Interface for objects that needs transient capabilities.">
<polygon fill="white" stroke="#666666" points="555,-703 430,-703 430,-684 555,-684 555,-703"/>
<text text-anchor="middle" x="492.5" y="-691" font-family="Courier,monospace" font-size="10.00">TransientInterface</text>
</a>
</g>
</g>
<!-- Node13&#45;&gt;Node2 -->
<g id="edge12" class="edge">
<title>Node13&#45;&gt;Node2</title>
<path fill="none" stroke="#63b8ff" d="M556.06,-681.28C565.75,-679.37 575.65,-677.39 585,-675.5 599.31,-672.61 614.87,-669.4 629.03,-666.46"/>
<polygon fill="#63b8ff" stroke="#63b8ff" points="555.43,-677.84 546.3,-683.21 556.79,-684.71 555.43,-677.84"/>
</g>
<!-- Node14 -->
<g id="node14" class="node">
<title>Node14</title>
<g id="a_node14"><a xlink:href="classPostprocessorInterface.html" target="_top" xlink:title="Interface class for classes which interact with Postprocessors.">
<polygon fill="white" stroke="#666666" points="567,-666 418,-666 418,-647 567,-647 567,-666"/>
<text text-anchor="middle" x="492.5" y="-654" font-family="Courier,monospace" font-size="10.00">PostprocessorInterface</text>
</a>
</g>
</g>
<!-- Node14&#45;&gt;Node2 -->
<g id="edge13" class="edge">
<title>Node14&#45;&gt;Node2</title>
<path fill="none" stroke="#63b8ff" d="M578.72,-656.5C595.16,-656.5 611.87,-656.5 626.71,-656.5"/>
<polygon fill="#63b8ff" stroke="#63b8ff" points="578.92,-653 568.92,-656.5 578.92,-660 578.92,-653"/>
</g>
<!-- Node15 -->
<g id="node15" class="node">
<title>Node15</title>
<g id="a_node15"><a xlink:href="classVectorPostprocessorInterface.html" target="_top" xlink:title=" ">
<polygon fill="white" stroke="#666666" points="585,-629 400,-629 400,-610 585,-610 585,-629"/>
<text text-anchor="middle" x="492.5" y="-617" font-family="Courier,monospace" font-size="10.00">VectorPostprocessorInterface</text>
</a>
</g>
</g>
<!-- Node15&#45;&gt;Node2 -->
<g id="edge14" class="edge">
<title>Node15&#45;&gt;Node2</title>
<path fill="none" stroke="#63b8ff" d="M553.62,-631.65C577.5,-636.48 604.64,-641.97 627.32,-646.56"/>
<polygon fill="#63b8ff" stroke="#63b8ff" points="554.52,-628.27 544.02,-629.72 553.13,-635.13 554.52,-628.27"/>
</g>
<!-- Node16 -->
<g id="node16" class="node">
<title>Node16</title>
<g id="a_node16"><a xlink:href="classRandomInterface.html" target="_top" xlink:title="Interface for objects that need parallel consistent random numbers without patterns over the course o...">
<polygon fill="white" stroke="#666666" points="546,-592 439,-592 439,-573 546,-573 546,-592"/>
<text text-anchor="middle" x="492.5" y="-580" font-family="Courier,monospace" font-size="10.00">RandomInterface</text>
</a>
</g>
</g>
<!-- Node16&#45;&gt;Node2 -->
<g id="edge15" class="edge">
<title>Node16&#45;&gt;Node2</title>
<path fill="none" stroke="#63b8ff" d="M557.17,-589.72C566.85,-592.3 576.45,-595.79 585,-600.5 605.38,-611.72 601.33,-626.08 621,-638.5 626.05,-641.69 631.73,-644.37 637.46,-646.59"/>
<polygon fill="#63b8ff" stroke="#63b8ff" points="558.26,-586.38 547.73,-587.51 556.67,-593.2 558.26,-586.38"/>
</g>
<!-- Node17 -->
<g id="node17" class="node">
<title>Node17</title>
<g id="a_node17"><a xlink:href="classRestartable.html" target="_top" xlink:title="A class for creating restricted objects.">
<polygon fill="white" stroke="#666666" points="534,-555 451,-555 451,-536 534,-536 534,-555"/>
<text text-anchor="middle" x="492.5" y="-543" font-family="Courier,monospace" font-size="10.00">Restartable</text>
</a>
</g>
</g>
<!-- Node17&#45;&gt;Node2 -->
<g id="edge16" class="edge">
<title>Node17&#45;&gt;Node2</title>
<path fill="none" stroke="#63b8ff" d="M545.26,-547.28C559.28,-549.89 573.69,-554.74 585,-563.5 614.24,-586.13 593.16,-614.16 621,-638.5 624.74,-641.77 629.08,-644.44 633.65,-646.63"/>
<polygon fill="#63b8ff" stroke="#63b8ff" points="546.07,-543.86 535.67,-545.86 545.05,-550.79 546.07,-543.86"/>
</g>
<!-- Node18 -->
<g id="node18" class="node">
<title>Node18</title>
<g id="a_node18"><a xlink:href="classMeshChangedInterface.html" target="_top" xlink:title="Interface for notifications that the mesh has changed.">
<polygon fill="white" stroke="#666666" points="561,-518 424,-518 424,-499 561,-499 561,-518"/>
<text text-anchor="middle" x="492.5" y="-506" font-family="Courier,monospace" font-size="10.00">MeshChangedInterface</text>
</a>
</g>
</g>
<!-- Node18&#45;&gt;Node2 -->
<g id="edge17" class="edge">
<title>Node18&#45;&gt;Node2</title>
<path fill="none" stroke="#63b8ff" d="M571.63,-517.54C576.46,-519.97 580.98,-522.92 585,-526.5 624.07,-561.25 584.08,-601.48 621,-638.5 624.22,-641.73 628.02,-644.38 632.1,-646.55"/>
<polygon fill="#63b8ff" stroke="#63b8ff" points="573.35,-514.46 562.77,-513.84 570.65,-520.92 573.35,-514.46"/>
</g>
<!-- Node19 -->
<g id="node19" class="node">
<title>Node19</title>
<g id="a_node19"><a xlink:href="classTaggingInterface.html" target="_top" xlink:title=" ">
<polygon fill="white" stroke="#666666" points="549,-481 436,-481 436,-462 549,-462 549,-481"/>
<text text-anchor="middle" x="492.5" y="-469" font-family="Courier,monospace" font-size="10.00">TaggingInterface</text>
</a>
</g>
</g>
<!-- Node19&#45;&gt;Node2 -->
<g id="edge18" class="edge">
<title>Node19&#45;&gt;Node2</title>
<path fill="none" stroke="#63b8ff" d="M560.1,-475.23C569.33,-478.27 578.03,-482.82 585,-489.5 634.19,-536.63 574.71,-588.52 621,-638.5 624.03,-641.77 627.66,-644.45 631.59,-646.64"/>
<polygon fill="#63b8ff" stroke="#63b8ff" points="561.11,-471.88 550.55,-472.7 559.32,-478.65 561.11,-471.88"/>
</g>
<!-- Node20 -->
<g id="node20" class="node">
<title>Node20</title>
<g id="a_node20"><a xlink:href="classScalarCoupleable.html" target="_top" xlink:title="Interface for objects that needs scalar coupling capabilities.">
<polygon fill="white" stroke="#666666" points="734,-629 621,-629 621,-610 734,-610 734,-629"/>
<text text-anchor="middle" x="677.5" y="-617" font-family="Courier,monospace" font-size="10.00">ScalarCoupleable</text>
</a>
</g>
</g>
<!-- Node20&#45;&gt;Node1 -->
<g id="edge19" class="edge">
<title>Node20&#45;&gt;Node1</title>
<path fill="none" stroke="#63b8ff" d="M745.71,-627.73C753.72,-628.71 761.83,-629.7 769.66,-630.66"/>
<polygon fill="#63b8ff" stroke="#63b8ff" points="746.35,-624.28 736,-626.54 745.5,-631.23 746.35,-624.28"/>
</g>
<!-- Node22 -->
<g id="node22" class="node">
<title>Node22</title>
<g id="a_node22"><a xlink:href="classADScalarTimeKernel.html" target="_top" xlink:title=" ">
<polygon fill="white" stroke="#666666" points="1193,-703 1068,-703 1068,-684 1193,-684 1193,-703"/>
<text text-anchor="middle" x="1130.5" y="-691" font-family="Courier,monospace" font-size="10.00">ADScalarTimeKernel</text>
</a>
</g>
</g>
<!-- Node21&#45;&gt;Node22 -->
<g id="edge21" class="edge">
<title>Node21&#45;&gt;Node22</title>
<path fill="none" stroke="#63b8ff" d="M1031.54,-681.79C1043.42,-683.21 1055.88,-684.7 1067.77,-686.12"/>
<polygon fill="#63b8ff" stroke="#63b8ff" points="1032.22,-678.35 1021.88,-680.64 1031.39,-685.3 1032.22,-678.35"/>
</g>
<!-- Node23 -->
<g id="node23" class="node">
<title>Node23</title>
<g id="a_node23"><a xlink:href="classADScalarTimeDerivative.html" target="_top" xlink:title=" ">
<polygon fill="white" stroke="#666666" points="1399,-703 1250,-703 1250,-684 1399,-684 1399,-703"/>
<text text-anchor="middle" x="1324.5" y="-691" font-family="Courier,monospace" font-size="10.00">ADScalarTimeDerivative</text>
</a>
</g>
</g>
<!-- Node22&#45;&gt;Node23 -->
<g id="edge22" class="edge">
<title>Node22&#45;&gt;Node23</title>
<path fill="none" stroke="#63b8ff" d="M1204.46,-693.5C1219.29,-693.5 1234.89,-693.5 1249.74,-693.5"/>
<polygon fill="#63b8ff" stroke="#63b8ff" points="1204.82,-690 1194.82,-693.5 1204.82,-697 1204.82,-690"/>
</g>
<!-- Node25 -->
<g id="node25" class="node">
<title>Node25</title>
<g id="a_node25"><a xlink:href="classAverageValueConstraint.html" target="_top" xlink:title="This Kernel implements part of the equation that enforces the constraint of.">
<polygon fill="white" stroke="#666666" points="1205,-666 1056,-666 1056,-647 1205,-647 1205,-666"/>
<text text-anchor="middle" x="1130.5" y="-654" font-family="Courier,monospace" font-size="10.00">AverageValueConstraint</text>
</a>
</g>
</g>
<!-- Node24&#45;&gt;Node25 -->
<g id="edge24" class="edge">
<title>Node24&#45;&gt;Node25</title>
<path fill="none" stroke="#63b8ff" d="M1024.14,-631.98C1044.55,-636.73 1067.51,-642.07 1086.77,-646.56"/>
<polygon fill="#63b8ff" stroke="#63b8ff" points="1025.12,-628.62 1014.58,-629.76 1023.53,-635.43 1025.12,-628.62"/>
</g>
<!-- Node26 -->
<g id="node26" class="node">
<title>Node26</title>
<g id="a_node26"><a xlink:href="classNodalScalarKernel.html" target="_top" xlink:title=" ">
<polygon fill="white" stroke="#666666" points="1190,-629 1071,-629 1071,-610 1190,-610 1190,-629"/>
<text text-anchor="middle" x="1130.5" y="-617" font-family="Courier,monospace" font-size="10.00">NodalScalarKernel</text>
</a>
</g>
</g>
<!-- Node24&#45;&gt;Node26 -->
<g id="edge25" class="edge">
<title>Node24&#45;&gt;Node26</title>
<path fill="none" stroke="#63b8ff" d="M1025.7,-619.5C1040.21,-619.5 1055.9,-619.5 1070.59,-619.5"/>
<polygon fill="#63b8ff" stroke="#63b8ff" points="1025.88,-616 1015.88,-619.5 1025.88,-623 1025.88,-616"/>
</g>
<!-- Node28 -->
<g id="node28" class="node">
<title>Node28</title>
<g id="a_node28"><a xlink:href="classNullScalarKernel.html" target="_top" xlink:title="Scalar kernel that sets a zero residual, to avoid error from system missing this variable.">
<polygon fill="white" stroke="#666666" points="1187,-592 1074,-592 1074,-573 1187,-573 1187,-592"/>
<text text-anchor="middle" x="1130.5" y="-580" font-family="Courier,monospace" font-size="10.00">NullScalarKernel</text>
</a>
</g>
</g>
<!-- Node24&#45;&gt;Node28 -->
<g id="edge27" class="edge">
<title>Node24&#45;&gt;Node28</title>
<path fill="none" stroke="#63b8ff" d="M1024.14,-607.02C1044.55,-602.27 1067.51,-596.93 1086.77,-592.44"/>
<polygon fill="#63b8ff" stroke="#63b8ff" points="1023.53,-603.57 1014.58,-609.24 1025.12,-610.38 1023.53,-603.57"/>
</g>
<!-- Node29 -->
<g id="node29" class="node">
<title>Node29</title>
<g id="a_node29"><a xlink:href="classODEKernel.html" target="_top" xlink:title=" ">
<polygon fill="white" stroke="#666666" points="1166,-334 1095,-334 1095,-315 1166,-315 1166,-334"/>
<text text-anchor="middle" x="1130.5" y="-322" font-family="Courier,monospace" font-size="10.00">ODEKernel</text>
</a>
</g>
</g>
<!-- Node24&#45;&gt;Node29 -->
<g id="edge28" class="edge">
<title>Node24&#45;&gt;Node29</title>
<path fill="none" stroke="#63b8ff" d="M981.18,-599.69C1012.18,-542.16 1101.47,-376.51 1124.19,-334.35"/>
<polygon fill="#63b8ff" stroke="#63b8ff" points="978.17,-597.89 976.51,-608.35 984.33,-601.21 978.17,-597.89"/>
</g>
<!-- Node27 -->
<g id="node27" class="node">
<title>Node27</title>
<g id="a_node27"><a xlink:href="classNodalEqualValueConstraint.html" target="_top" xlink:title="Constraint to enforce equal values (in 1D)">
<polygon fill="white" stroke="#666666" points="1408,-648 1241,-648 1241,-629 1408,-629 1408,-648"/>
<text text-anchor="middle" x="1324.5" y="-636" font-family="Courier,monospace" font-size="10.00">NodalEqualValueConstraint</text>
</a>
</g>
</g>
<!-- Node26&#45;&gt;Node27 -->
<g id="edge26" class="edge">
<title>Node26&#45;&gt;Node27</title>
<path fill="none" stroke="#63b8ff" d="M1201.81,-626.46C1214.44,-627.71 1227.72,-629.02 1240.67,-630.3"/>
<polygon fill="#63b8ff" stroke="#63b8ff" points="1202.21,-622.98 1191.92,-625.48 1201.52,-629.95 1202.21,-622.98"/>
</g>
<!-- Node30 -->
<g id="node30" class="node">
<title>Node30</title>
<g id="a_node30"><a xlink:href="classEnergyTermScalar.html" target="_top" xlink:title=" ">
<polygon fill="white" stroke="#666666" points="1381,-611 1268,-611 1268,-592 1381,-592 1381,-611"/>
<text text-anchor="middle" x="1324.5" y="-599" font-family="Courier,monospace" font-size="10.00">EnergyTermScalar</text>
</a>
</g>
</g>
<!-- Node29&#45;&gt;Node30 -->
<g id="edge29" class="edge">
<title>Node29&#45;&gt;Node30</title>
<path fill="none" stroke="#63b8ff" d="M1134.01,-345.7C1141.06,-395.28 1165.71,-519.35 1241,-582.5 1248.66,-588.92 1258.07,-593.27 1267.76,-596.2"/>
<polygon fill="#63b8ff" stroke="#63b8ff" points="1137.48,-345.25 1132.72,-335.79 1130.54,-346.16 1137.48,-345.25"/>
</g>
<!-- Node31 -->
<g id="node31" class="node">
<title>Node31</title>
<g id="a_node31"><a xlink:href="classLogStabilizationScalar.html" target="_top" xlink:title=" ">
<polygon fill="white" stroke="#666666" points="1399,-574 1250,-574 1250,-555 1399,-555 1399,-574"/>
<text text-anchor="middle" x="1324.5" y="-562" font-family="Courier,monospace" font-size="10.00">LogStabilizationScalar</text>
</a>
</g>
</g>
<!-- Node29&#45;&gt;Node31 -->
<g id="edge30" class="edge">
<title>Node29&#45;&gt;Node31</title>
<path fill="none" stroke="#63b8ff" d="M1135.58,-345.35C1145.37,-389.56 1174.49,-492.97 1241,-545.5 1245.61,-549.14 1250.8,-552.11 1256.27,-554.53"/>
<polygon fill="#63b8ff" stroke="#63b8ff" points="1139.06,-344.87 1133.58,-335.8 1132.2,-346.3 1139.06,-344.87"/>
</g>
<!-- Node32 -->
<g id="node32" class="node">
<title>Node32</title>
<g id="a_node32"><a xlink:href="classODETimeKernel.html" target="_top" xlink:title="Base class for ODEKernels that contribute to the time residual vector.">
<polygon fill="white" stroke="#666666" points="1372,-537 1277,-537 1277,-518 1372,-518 1372,-537"/>
<text text-anchor="middle" x="1324.5" y="-525" font-family="Courier,monospace" font-size="10.00">ODETimeKernel</text>
</a>
</g>
</g>
<!-- Node29&#45;&gt;Node32 -->
<g id="edge31" class="edge">
<title>Node29&#45;&gt;Node32</title>
<path fill="none" stroke="#63b8ff" d="M1137.76,-345.24C1150.51,-383.8 1183.28,-466.4 1241,-508.5 1251.33,-516.04 1264.17,-520.64 1276.62,-523.44"/>
<polygon fill="#63b8ff" stroke="#63b8ff" points="1141.13,-344.3 1134.77,-335.82 1134.46,-346.41 1141.13,-344.3"/>
</g>
<!-- Node37 -->
<g id="node37" class="node">
<title>Node37</title>
<g id="a_node37"><a xlink:href="classParsedODEKernel.html" target="_top" xlink:title="Parsed ODE function kernel.">
<polygon fill="white" stroke="#666666" points="1378,-500 1271,-500 1271,-481 1378,-481 1378,-500"/>
<text text-anchor="middle" x="1324.5" y="-488" font-family="Courier,monospace" font-size="10.00">ParsedODEKernel</text>
</a>
</g>
</g>
<!-- Node29&#45;&gt;Node37 -->
<g id="edge36" class="edge">
<title>Node29&#45;&gt;Node37</title>
<path fill="none" stroke="#63b8ff" d="M1140.66,-344.59C1156.38,-376.71 1191.64,-439.27 1241,-471.5 1249.86,-477.29 1260.26,-481.32 1270.64,-484.13"/>
<polygon fill="#63b8ff" stroke="#63b8ff" points="1143.85,-343.16 1136.41,-335.62 1137.52,-346.15 1143.85,-343.16"/>
</g>
<!-- Node39 -->
<g id="node39" class="node">
<title>Node39</title>
<g id="a_node39"><a xlink:href="classProduct1BodyScalar.html" target="_top" xlink:title=" ">
<polygon fill="white" stroke="#666666" points="1387,-463 1262,-463 1262,-444 1387,-444 1387,-463"/>
<text text-anchor="middle" x="1324.5" y="-451" font-family="Courier,monospace" font-size="10.00">Product1BodyScalar</text>
</a>
</g>
</g>
<!-- Node29&#45;&gt;Node39 -->
<g id="edge38" class="edge">
<title>Node29&#45;&gt;Node39</title>
<path fill="none" stroke="#63b8ff" d="M1144.82,-343.36C1163.42,-368.22 1199.59,-411.5 1241,-434.5 1247.68,-438.21 1255.05,-441.2 1262.56,-443.6"/>
<polygon fill="#63b8ff" stroke="#63b8ff" points="1147.78,-341.47 1139.06,-335.45 1142.12,-345.6 1147.78,-341.47"/>
</g>
<!-- Node40 -->
<g id="node40" class="node">
<title>Node40</title>
<g id="a_node40"><a xlink:href="classProduct1BodyScalarLog.html" target="_top" xlink:title=" ">
<polygon fill="white" stroke="#666666" points="1396,-426 1253,-426 1253,-407 1396,-407 1396,-426"/>
<text text-anchor="middle" x="1324.5" y="-414" font-family="Courier,monospace" font-size="10.00">Product1BodyScalarLog</text>
</a>
</g>
</g>
<!-- Node29&#45;&gt;Node40 -->
<g id="edge39" class="edge">
<title>Node29&#45;&gt;Node40</title>
<path fill="none" stroke="#63b8ff" d="M1152.1,-341.58C1173.18,-358.22 1207.49,-383.05 1241,-397.5 1249.37,-401.11 1258.52,-404.08 1267.59,-406.52"/>
<polygon fill="#63b8ff" stroke="#63b8ff" points="1154.3,-338.86 1144.32,-335.32 1149.91,-344.31 1154.3,-338.86"/>
</g>
<!-- Node41 -->
<g id="node41" class="node">
<title>Node41</title>
<g id="a_node41"><a xlink:href="classProduct2BodyScalar.html" target="_top" xlink:title=" ">
<polygon fill="white" stroke="#666666" points="1387,-389 1262,-389 1262,-370 1387,-370 1387,-389"/>
<text text-anchor="middle" x="1324.5" y="-377" font-family="Courier,monospace" font-size="10.00">Product2BodyScalar</text>
</a>
</g>
</g>
<!-- Node29&#45;&gt;Node41 -->
<g id="edge40" class="edge">
<title>Node29&#45;&gt;Node41</title>
<path fill="none" stroke="#63b8ff" d="M1169.87,-338.07C1190.76,-345.21 1217.14,-353.85 1241,-360.5 1252.61,-363.74 1265.25,-366.85 1277.06,-369.59"/>
<polygon fill="#63b8ff" stroke="#63b8ff" points="1171.21,-334.83 1160.62,-334.87 1168.93,-341.45 1171.21,-334.83"/>
</g>
<!-- Node42 -->
<g id="node42" class="node">
<title>Node42</title>
<g id="a_node42"><a xlink:href="classProduct2BodyScalarLog.html" target="_top" xlink:title=" ">
<polygon fill="white" stroke="#666666" points="1396,-352 1253,-352 1253,-333 1396,-333 1396,-352"/>
<text text-anchor="middle" x="1324.5" y="-340" font-family="Courier,monospace" font-size="10.00">Product2BodyScalarLog</text>
</a>
</g>
</g>
<!-- Node29&#45;&gt;Node42 -->
<g id="edge41" class="edge">
<title>Node29&#45;&gt;Node42</title>
<path fill="none" stroke="#63b8ff" d="M1177.54,-328.82C1200.07,-330.93 1227.68,-333.52 1252.8,-335.87"/>
<polygon fill="#63b8ff" stroke="#63b8ff" points="1178.06,-325.35 1167.78,-327.9 1177.41,-332.32 1178.06,-325.35"/>
</g>
<!-- Node43 -->
<g id="node43" class="node">
<title>Node43</title>
<g id="a_node43"><a xlink:href="classProduct3BodyScalar.html" target="_top" xlink:title=" ">
<polygon fill="white" stroke="#666666" points="1387,-315 1262,-315 1262,-296 1387,-296 1387,-315"/>
<text text-anchor="middle" x="1324.5" y="-303" font-family="Courier,monospace" font-size="10.00">Product3BodyScalar</text>
</a>
</g>
</g>
<!-- Node29&#45;&gt;Node43 -->
<g id="edge42" class="edge">
<title>Node29&#45;&gt;Node43</title>
<path fill="none" stroke="#63b8ff" d="M1177.39,-319.96C1202.67,-317.46 1234.39,-314.32 1261.81,-311.61"/>
<polygon fill="#63b8ff" stroke="#63b8ff" points="1177.38,-316.44 1167.78,-320.91 1178.07,-323.41 1177.38,-316.44"/>
</g>
<!-- Node44 -->
<g id="node44" class="node">
<title>Node44</title>
<g id="a_node44"><a xlink:href="classProduct3BodyScalarLog.html" target="_top" xlink:title=" ">
<polygon fill="white" stroke="#666666" points="1396,-278 1253,-278 1253,-259 1396,-259 1396,-278"/>
<text text-anchor="middle" x="1324.5" y="-266" font-family="Courier,monospace" font-size="10.00">Product3BodyScalarLog</text>
</a>
</g>
</g>
<!-- Node29&#45;&gt;Node44 -->
<g id="edge43" class="edge">
<title>Node29&#45;&gt;Node44</title>
<path fill="none" stroke="#63b8ff" d="M1168.08,-310.58C1189.2,-302.85 1216.37,-293.43 1241,-286.5 1251.3,-283.6 1262.44,-280.89 1273.09,-278.5"/>
<polygon fill="#63b8ff" stroke="#63b8ff" points="1166.91,-307.28 1158.75,-314.03 1169.34,-313.84 1166.91,-307.28"/>
</g>
<!-- Node45 -->
<g id="node45" class="node">
<title>Node45</title>
<g id="a_node45"><a xlink:href="classReactant1BodyScalar.html" target="_top" xlink:title=" ">
<polygon fill="white" stroke="#666666" points="1390,-241 1259,-241 1259,-222 1390,-222 1390,-241"/>
<text text-anchor="middle" x="1324.5" y="-229" font-family="Courier,monospace" font-size="10.00">Reactant1BodyScalar</text>
</a>
</g>
</g>
<!-- Node29&#45;&gt;Node45 -->
<g id="edge44" class="edge">
<title>Node29&#45;&gt;Node45</title>
<path fill="none" stroke="#63b8ff" d="M1151.36,-307.35C1172.29,-290.18 1206.88,-264.24 1241,-249.5 1248.4,-246.3 1256.43,-243.65 1264.48,-241.45"/>
<polygon fill="#63b8ff" stroke="#63b8ff" points="1149.34,-304.48 1143.92,-313.58 1153.83,-309.85 1149.34,-304.48"/>
</g>
<!-- Node46 -->
<g id="node46" class="node">
<title>Node46</title>
<g id="a_node46"><a xlink:href="classReactant1BodyScalarLog.html" target="_top" xlink:title=" ">
<polygon fill="white" stroke="#666666" points="1399,-204 1250,-204 1250,-185 1399,-185 1399,-204"/>
<text text-anchor="middle" x="1324.5" y="-192" font-family="Courier,monospace" font-size="10.00">Reactant1BodyScalarLog</text>
</a>
</g>
</g>
<!-- Node29&#45;&gt;Node46 -->
<g id="edge45" class="edge">
<title>Node29&#45;&gt;Node46</title>
<path fill="none" stroke="#63b8ff" d="M1144.7,-305.22C1163.17,-279.82 1199.18,-235.66 1241,-212.5 1246.9,-209.23 1253.34,-206.56 1259.94,-204.37"/>
<polygon fill="#63b8ff" stroke="#63b8ff" points="1141.89,-303.13 1138.97,-313.31 1147.61,-307.17 1141.89,-303.13"/>
</g>
<!-- Node47 -->
<g id="node47" class="node">
<title>Node47</title>
<g id="a_node47"><a xlink:href="classReactant2BodyScalar.html" target="_top" xlink:title=" ">
<polygon fill="white" stroke="#666666" points="1390,-167 1259,-167 1259,-148 1390,-148 1390,-167"/>
<text text-anchor="middle" x="1324.5" y="-155" font-family="Courier,monospace" font-size="10.00">Reactant2BodyScalar</text>
</a>
</g>
</g>
<!-- Node29&#45;&gt;Node47 -->
<g id="edge46" class="edge">
<title>Node29&#45;&gt;Node47</title>
<path fill="none" stroke="#63b8ff" d="M1140.34,-304.5C1155.79,-271.98 1190.9,-208.03 1241,-175.5 1246.41,-171.99 1252.4,-169.15 1258.6,-166.86"/>
<polygon fill="#63b8ff" stroke="#63b8ff" points="1137.33,-302.66 1136.33,-313.21 1143.69,-305.59 1137.33,-302.66"/>
</g>
<!-- Node48 -->
<g id="node48" class="node">
<title>Node48</title>
<g id="a_node48"><a xlink:href="classReactant2BodyScalarLog.html" target="_top" xlink:title=" ">
<polygon fill="white" stroke="#666666" points="1399,-130 1250,-130 1250,-111 1399,-111 1399,-130"/>
<text text-anchor="middle" x="1324.5" y="-118" font-family="Courier,monospace" font-size="10.00">Reactant2BodyScalarLog</text>
</a>
</g>
</g>
<!-- Node29&#45;&gt;Node48 -->
<g id="edge47" class="edge">
<title>Node29&#45;&gt;Node48</title>
<path fill="none" stroke="#63b8ff" d="M1137.47,-304.02C1149.9,-265.18 1182.39,-180.94 1241,-138.5 1245.39,-135.32 1250.24,-132.68 1255.32,-130.5"/>
<polygon fill="#63b8ff" stroke="#63b8ff" points="1134.15,-302.89 1134.57,-313.47 1140.85,-304.94 1134.15,-302.89"/>
</g>
<!-- Node49 -->
<g id="node49" class="node">
<title>Node49</title>
<g id="a_node49"><a xlink:href="classReactant3BodyScalar.html" target="_top" xlink:title=" ">
<polygon fill="white" stroke="#666666" points="1390,-93 1259,-93 1259,-74 1390,-74 1390,-93"/>
<text text-anchor="middle" x="1324.5" y="-81" font-family="Courier,monospace" font-size="10.00">Reactant3BodyScalar</text>
</a>
</g>
</g>
<!-- Node29&#45;&gt;Node49 -->
<g id="edge48" class="edge">
<title>Node29&#45;&gt;Node49</title>
<path fill="none" stroke="#63b8ff" d="M1135.47,-303.41C1145.06,-258.69 1173.8,-154.15 1241,-101.5 1246.31,-97.34 1252.37,-94.1 1258.75,-91.57"/>
<polygon fill="#63b8ff" stroke="#63b8ff" points="1132.07,-302.59 1133.52,-313.09 1138.93,-303.98 1132.07,-302.59"/>
</g>
<!-- Node50 -->
<g id="node50" class="node">
<title>Node50</title>
<g id="a_node50"><a xlink:href="classReactant3BodyScalarLog.html" target="_top" xlink:title=" ">
<polygon fill="white" stroke="#666666" points="1399,-56 1250,-56 1250,-37 1399,-37 1399,-56"/>
<text text-anchor="middle" x="1324.5" y="-44" font-family="Courier,monospace" font-size="10.00">Reactant3BodyScalarLog</text>
</a>
</g>
</g>
<!-- Node29&#45;&gt;Node50 -->
<g id="edge49" class="edge">
<title>Node29&#45;&gt;Node50</title>
<path fill="none" stroke="#63b8ff" d="M1133.87,-303.4C1140.63,-253.54 1164.77,-127.86 1241,-64.5 1244.83,-61.31 1249.1,-58.66 1253.63,-56.44"/>
<polygon fill="#63b8ff" stroke="#63b8ff" points="1130.42,-302.75 1132.66,-313.11 1137.37,-303.61 1130.42,-302.75"/>
</g>
<!-- Node51 -->
<g id="node51" class="node">
<title>Node51</title>
<g id="a_node51"><a xlink:href="classScalarDiffusion.html" target="_top" xlink:title=" ">
<polygon fill="white" stroke="#666666" points="1378,-19 1271,-19 1271,0 1378,0 1378,-19"/>
<text text-anchor="middle" x="1324.5" y="-7" font-family="Courier,monospace" font-size="10.00">ScalarDiffusion</text>
</a>
</g>
</g>
<!-- Node29&#45;&gt;Node51 -->
<g id="edge50" class="edge">
<title>Node29&#45;&gt;Node51</title>
<path fill="none" stroke="#63b8ff" d="M1132.63,-303.43C1136.74,-248.83 1155.61,-101.82 1241,-27.5 1249.29,-20.28 1259.81,-15.75 1270.53,-12.95"/>
<polygon fill="#63b8ff" stroke="#63b8ff" points="1129.15,-302.98 1131.99,-313.19 1136.14,-303.43 1129.15,-302.98"/>
</g>
<!-- Node33 -->
<g id="node33" class="node">
<title>Node33</title>
<g id="a_node33"><a xlink:href="classCoupledODETimeDerivative.html" target="_top" xlink:title=" ">
<polygon fill="white" stroke="#666666" points="1617,-611 1456,-611 1456,-592 1617,-592 1617,-611"/>
<text text-anchor="middle" x="1536.5" y="-599" font-family="Courier,monospace" font-size="10.00">CoupledODETimeDerivative</text>
</a>
</g>
</g>
<!-- Node32&#45;&gt;Node33 -->
<g id="edge32" class="edge">
<title>Node32&#45;&gt;Node33</title>
<path fill="none" stroke="#63b8ff" d="M1383.11,-535.52C1391.76,-538 1400.34,-541.25 1408,-545.5 1428.06,-556.64 1423.89,-571.46 1444,-582.5 1450.68,-586.17 1458,-589.13 1465.49,-591.52"/>
<polygon fill="#63b8ff" stroke="#63b8ff" points="1384.19,-532.18 1373.64,-533.14 1382.48,-538.97 1384.19,-532.18"/>
</g>
<!-- Node34 -->
<g id="node34" class="node">
<title>Node34</title>
<g id="a_node34"><a xlink:href="classODETimeDerivative.html" target="_top" xlink:title=" ">
<polygon fill="white" stroke="#666666" points="1596,-574 1477,-574 1477,-555 1596,-555 1596,-574"/>
<text text-anchor="middle" x="1536.5" y="-562" font-family="Courier,monospace" font-size="10.00">ODETimeDerivative</text>
</a>
</g>
</g>
<!-- Node32&#45;&gt;Node34 -->
<g id="edge33" class="edge">
<title>Node32&#45;&gt;Node34</title>
<path fill="none" stroke="#63b8ff" d="M1383.46,-537.71C1413.27,-542.96 1449.47,-549.34 1479.07,-554.56"/>
<polygon fill="#63b8ff" stroke="#63b8ff" points="1384.31,-534.31 1373.86,-536.02 1383.1,-541.2 1384.31,-534.31"/>
</g>
<!-- Node35 -->
<g id="node35" class="node">
<title>Node35</title>
<g id="a_node35"><a xlink:href="classODETimeDerivativeLog.html" target="_top" xlink:title=" ">
<polygon fill="white" stroke="#666666" points="1605,-537 1468,-537 1468,-518 1605,-518 1605,-537"/>
<text text-anchor="middle" x="1536.5" y="-525" font-family="Courier,monospace" font-size="10.00">ODETimeDerivativeLog</text>
</a>
</g>
</g>
<!-- Node32&#45;&gt;Node35 -->
<g id="edge34" class="edge">
<title>Node32&#45;&gt;Node35</title>
<path fill="none" stroke="#63b8ff" d="M1383.59,-527.5C1409.64,-527.5 1440.55,-527.5 1467.66,-527.5"/>
<polygon fill="#63b8ff" stroke="#63b8ff" points="1383.88,-524 1373.88,-527.5 1383.88,-531 1383.88,-524"/>
</g>
<!-- Node36 -->
<g id="node36" class="node">
<title>Node36</title>
<g id="a_node36"><a xlink:href="classODETimeDerivativeTemperature.html" target="_top" xlink:title=" ">
<polygon fill="white" stroke="#666666" points="1629,-500 1444,-500 1444,-481 1629,-481 1629,-500"/>
<text text-anchor="middle" x="1536.5" y="-488" font-family="Courier,monospace" font-size="10.00">ODETimeDerivativeTemperature</text>
</a>
</g>
</g>
<!-- Node32&#45;&gt;Node36 -->
<g id="edge35" class="edge">
<title>Node32&#45;&gt;Node36</title>
<path fill="none" stroke="#63b8ff" d="M1383.46,-517.29C1413.27,-512.04 1449.47,-505.66 1479.07,-500.44"/>
<polygon fill="#63b8ff" stroke="#63b8ff" points="1383.1,-513.8 1373.86,-518.98 1384.31,-520.69 1383.1,-513.8"/>
</g>
<!-- Node38 -->
<g id="node38" class="node">
<title>Node38</title>
<g id="a_node38"><a xlink:href="classParsedScalarReaction.html" target="_top" xlink:title=" ">
<polygon fill="white" stroke="#666666" points="1605,-463 1468,-463 1468,-444 1605,-444 1605,-463"/>
<text text-anchor="middle" x="1536.5" y="-451" font-family="Courier,monospace" font-size="10.00">ParsedScalarReaction</text>
</a>
</g>
</g>
<!-- Node37&#45;&gt;Node38 -->
<g id="edge37" class="edge">
<title>Node37&#45;&gt;Node38</title>
<path fill="none" stroke="#63b8ff" d="M1389.56,-479.21C1418.04,-474.2 1451.28,-468.34 1478.84,-463.48"/>
<polygon fill="#63b8ff" stroke="#63b8ff" points="1389.22,-475.72 1379.98,-480.9 1390.44,-482.61 1389.22,-475.72"/>
</g>
</g>
</svg>
        <g id="navigator" transform="translate(0 0)" fill="#404254">
                <rect fill="#f2f5e9" fill-opacity="0.5" stroke="#606060" stroke-width=".5" x="0" y="0" width="60" height="60"/>
                <use id="zoomplus" xlink:href="#zoomPlus" x="17" y="9" onmousedown="handleZoom(evt,'in')"/>
                <use id="zoomminus" xlink:href="#zoomMin" x="42" y="9" onmousedown="handleZoom(evt,'out')"/>
                <use id="reset" xlink:href="#resetDef" x="30" y="36" onmousedown="handleReset()"/>
                <g id="arrowUp" xlink:href="#dirArrow" transform="translate(30 24)" onmousedown="handlePan(0,-1)">
                  <use xlink:href="#rim" fill="#404040">
                        <set attributeName="fill" to="#808080" begin="arrowUp.mouseover" end="arrowUp.mouseout"/>
                  </use>
                  <path fill="none" stroke="white" stroke-width="1.5" d="M0,-3.0v7 M-2.5,-0.5L0,-3.0L2.5,-0.5"/>
                </g>
                <g id="arrowRight" xlink:href="#dirArrow" transform="rotate(90) translate(36 -43)" onmousedown="handlePan(1,0)">
                  <use xlink:href="#rim" fill="#404040">
                        <set attributeName="fill" to="#808080" begin="arrowRight.mouseover" end="arrowRight.mouseout"/>
                  </use>
                  <path fill="none" stroke="white" stroke-width="1.5" d="M0,-3.0v7 M-2.5,-0.5L0,-3.0L2.5,-0.5"/>
                </g>
                <g id="arrowDown" xlink:href="#dirArrow" transform="rotate(180) translate(-30 -48)" onmousedown="handlePan(0,1)">
                  <use xlink:href="#rim" fill="#404040">
                        <set attributeName="fill" to="#808080" begin="arrowDown.mouseover" end="arrowDown.mouseout"/>
                  </use>
                  <path fill="none" stroke="white" stroke-width="1.5" d="M0,-3.0v7 M-2.5,-0.5L0,-3.0L2.5,-0.5"/>
                </g>
                <g id="arrowLeft" xlink:href="#dirArrow" transform="rotate(270) translate(-36 17)" onmousedown="handlePan(-1,0)">
                  <use xlink:href="#rim" fill="#404040">
                        <set attributeName="fill" to="#808080" begin="arrowLeft.mouseover" end="arrowLeft.mouseout"/>
                  </use>
                  <path fill="none" stroke="white" stroke-width="1.5" d="M0,-3.0v7 M-2.5,-0.5L0,-3.0L2.5,-0.5"/>
                </g>
        </g>
        <svg viewBox="0 0 15 15" width="100%" height="30px" preserveAspectRatio="xMaxYMin meet">
         <g id="arrow_out" transform="scale(0.3 0.3)">
          <a xlink:href="classScalarKernelBase__inherit__graph_org.svg" target="_base">
           <rect id="button" ry="5" rx="5" y="6" x="6" height="38" width="38"
                fill="#f2f5e9" fill-opacity="0.5" stroke="#606060" stroke-width="1.0"/>
           <path id="arrow"
             d="M 11.500037,31.436501 C 11.940474,20.09759 22.043105,11.32322 32.158766,21.979434 L 37.068811,17.246167 C 37.068811,17.246167 37.088388,32 37.088388,32 L 22.160133,31.978069 C 22.160133,31.978069 26.997745,27.140456 26.997745,27.140456 C 18.528582,18.264221 13.291696,25.230495 11.500037,31.436501 z"
             style="fill:#404040;"/>
          </a>
         </g>
        </svg>
</svg>
