<?xml version="1.0" encoding="UTF-8" standalone="no"?>
<!DOCTYPE svg PUBLIC "-//W3C//DTD SVG 1.1//EN"
 "http://www.w3.org/Graphics/SVG/1.1/DTD/svg11.dtd">
<!-- Generated by graphviz version 7.0.5 (20221223.1930)
 -->
<!-- Title: Control Pages: 1 -->
<svg width="1201pt" height="360pt"
 viewBox="0.00 0.00 1201.00 360.00" xmlns="http://www.w3.org/2000/svg" xmlns:xlink="http://www.w3.org/1999/xlink">
<g id="graph0" class="graph" transform="scale(1 1) rotate(0) translate(4 356)">
<title>Control</title>
<!-- Node1 -->
<g id="node1" class="node">
<title>Node1</title>
<g id="a_node1"><a xlink:title="Base class for Control objects.">
<polygon fill="#999999" stroke="#666666" points="680,-148 621,-148 621,-129 680,-129 680,-148"/>
<text text-anchor="middle" x="650.5" y="-136" font-family="Courier,monospace" font-size="10.00">Control</text>
</a>
</g>
</g>
<!-- Node16 -->
<g id="node16" class="node">
<title>Node16</title>
<g id="a_node16"><a xlink:href="classBoolFunctionControl.html" target="_top" xlink:title="A basic control for changing a boolean&#45;valued input parameter using a Function.">
<polygon fill="white" stroke="#666666" points="862,-222 731,-222 731,-203 862,-203 862,-222"/>
<text text-anchor="middle" x="796.5" y="-210" font-family="Courier,monospace" font-size="10.00">BoolFunctionControl</text>
</a>
</g>
</g>
<!-- Node1&#45;&gt;Node16 -->
<g id="edge15" class="edge">
<title>Node1&#45;&gt;Node16</title>
<path fill="none" stroke="#63b8ff" d="M667.82,-156.79C679.92,-169.25 697.48,-185.12 716,-194.5 722.31,-197.7 729.19,-200.33 736.18,-202.5"/>
<polygon fill="#63b8ff" stroke="#63b8ff" points="670.45,-154.48 661.06,-149.57 665.34,-159.27 670.45,-154.48"/>
</g>
<!-- Node17 -->
<g id="node17" class="node">
<title>Node17</title>
<g id="a_node17"><a xlink:href="classConditionalEnableControl.html" target="_top" xlink:title="Base class for controls that enable/disable object(s) based on some condition.">
<polygon fill="white" stroke="#666666" points="877,-185 716,-185 716,-166 877,-166 877,-185"/>
<text text-anchor="middle" x="796.5" y="-173" font-family="Courier,monospace" font-size="10.00">ConditionalEnableControl</text>
</a>
</g>
</g>
<!-- Node1&#45;&gt;Node17 -->
<g id="edge16" class="edge">
<title>Node1&#45;&gt;Node17</title>
<path fill="none" stroke="#63b8ff" d="M691.18,-149.83C699.37,-152.09 707.95,-154.42 716,-156.5 727.81,-159.56 740.66,-162.71 752.52,-165.54"/>
<polygon fill="#63b8ff" stroke="#63b8ff" points="692.37,-146.52 681.79,-147.2 690.48,-153.27 692.37,-146.52"/>
</g>
<!-- Node21 -->
<g id="node21" class="node">
<title>Node21</title>
<g id="a_node21"><a xlink:href="classLibtorchNeuralNetControl.html" target="_top" xlink:title="A time&#45;dependent, neural network&#45;based control of multiple input parameters.">
<polygon fill="white" stroke="#666666" points="877,-148 716,-148 716,-129 877,-129 877,-148"/>
<text text-anchor="middle" x="796.5" y="-136" font-family="Courier,monospace" font-size="10.00">LibtorchNeuralNetControl</text>
</a>
</g>
</g>
<!-- Node1&#45;&gt;Node21 -->
<g id="edge20" class="edge">
<title>Node1&#45;&gt;Node21</title>
<path fill="none" stroke="#63b8ff" d="M691.66,-138.5C699.24,-138.5 707.41,-138.5 715.72,-138.5"/>
<polygon fill="#63b8ff" stroke="#63b8ff" points="691.81,-135 681.81,-138.5 691.81,-142 691.81,-135"/>
</g>
<!-- Node22 -->
<g id="node22" class="node">
<title>Node22</title>
<g id="a_node22"><a xlink:href="classPIDTransientControl.html" target="_top" xlink:title="A time&#45;dependent control of an input parameter or a postprocessor, which aims at making a postprocess...">
<polygon fill="white" stroke="#666666" points="862,-111 731,-111 731,-92 862,-92 862,-111"/>
<text text-anchor="middle" x="796.5" y="-99" font-family="Courier,monospace" font-size="10.00">PIDTransientControl</text>
</a>
</g>
</g>
<!-- Node1&#45;&gt;Node22 -->
<g id="edge21" class="edge">
<title>Node1&#45;&gt;Node22</title>
<path fill="none" stroke="#63b8ff" d="M691.13,-126.39C699.33,-124.01 707.92,-121.6 716,-119.5 726.68,-116.72 738.24,-113.96 749.14,-111.47"/>
<polygon fill="#63b8ff" stroke="#63b8ff" points="690.34,-122.98 681.74,-129.16 692.32,-129.69 690.34,-122.98"/>
</g>
<!-- Node23 -->
<g id="node23" class="node">
<title>Node23</title>
<g id="a_node23"><a xlink:href="classRealFunctionControl.html" target="_top" xlink:title="A basic control for changing an input parameter using a Function.">
<polygon fill="white" stroke="#666666" points="862,-74 731,-74 731,-55 862,-55 862,-74"/>
<text text-anchor="middle" x="796.5" y="-62" font-family="Courier,monospace" font-size="10.00">RealFunctionControl</text>
</a>
</g>
</g>
<!-- Node1&#45;&gt;Node23 -->
<g id="edge22" class="edge">
<title>Node1&#45;&gt;Node23</title>
<path fill="none" stroke="#63b8ff" d="M667.82,-120.21C679.92,-107.75 697.48,-91.88 716,-82.5 722.31,-79.3 729.19,-76.67 736.18,-74.5"/>
<polygon fill="#63b8ff" stroke="#63b8ff" points="665.34,-117.73 661.06,-127.43 670.45,-122.52 665.34,-117.73"/>
</g>
<!-- Node2 -->
<g id="node2" class="node">
<title>Node2</title>
<g id="a_node2"><a xlink:href="classMooseObject.html" target="_top" xlink:title="Every object that can be built by the factory should be derived from this class.">
<polygon fill="white" stroke="#666666" points="534,-278 451,-278 451,-259 534,-259 534,-278"/>
<text text-anchor="middle" x="492.5" y="-266" font-family="Courier,monospace" font-size="10.00">MooseObject</text>
</a>
</g>
</g>
<!-- Node2&#45;&gt;Node1 -->
<g id="edge1" class="edge">
<title>Node2&#45;&gt;Node1</title>
<path fill="none" stroke="#63b8ff" d="M545.23,-266.1C559.12,-263.47 573.47,-258.75 585,-250.5 621.49,-224.38 640.33,-170.71 646.83,-148.48"/>
<polygon fill="#63b8ff" stroke="#63b8ff" points="545.09,-262.57 535.74,-267.55 546.16,-269.49 545.09,-262.57"/>
</g>
<!-- Node3 -->
<g id="node3" class="node">
<title>Node3</title>
<g id="a_node3"><a xlink:href="classMooseBase.html" target="_top" xlink:title="Base class for everything in MOOSE with a name and a type.">
<polygon fill="white" stroke="#666666" points="310,-352 239,-352 239,-333 310,-333 310,-352"/>
<text text-anchor="middle" x="274.5" y="-340" font-family="Courier,monospace" font-size="10.00">MooseBase</text>
</a>
</g>
</g>
<!-- Node3&#45;&gt;Node2 -->
<g id="edge2" class="edge">
<title>Node3&#45;&gt;Node2</title>
<path fill="none" stroke="#63b8ff" d="M321.62,-335.05C335.41,-332.31 350.46,-328.8 364,-324.5 403.87,-311.85 448.08,-290.72 472.56,-278.35"/>
<polygon fill="#63b8ff" stroke="#63b8ff" points="321.06,-331.59 311.89,-336.89 322.36,-338.47 321.06,-331.59"/>
</g>
<!-- Node4 -->
<g id="node4" class="node">
<title>Node4</title>
<g id="a_node4"><a xlink:href="classMooseBaseParameterInterface.html" target="_top" xlink:title="Every object that can be built by the factory should be derived from this class.">
<polygon fill="white" stroke="#666666" points="364,-315 185,-315 185,-296 364,-296 364,-315"/>
<text text-anchor="middle" x="274.5" y="-303" font-family="Courier,monospace" font-size="10.00">MooseBaseParameterInterface</text>
</a>
</g>
</g>
<!-- Node4&#45;&gt;Node2 -->
<g id="edge3" class="edge">
<title>Node4&#45;&gt;Node2</title>
<path fill="none" stroke="#63b8ff" d="M344.77,-293.63C379.7,-287.65 420.85,-280.6 450.68,-275.49"/>
<polygon fill="#63b8ff" stroke="#63b8ff" points="344.43,-290.14 335.16,-295.28 345.61,-297.04 344.43,-290.14"/>
</g>
<!-- Node5 -->
<g id="node5" class="node">
<title>Node5</title>
<g id="a_node5"><a xlink:href="classMooseBaseErrorInterface.html" target="_top" xlink:title="Interface that provides APIs to output errors/warnings/info messages.">
<polygon fill="white" stroke="#666666" points="352,-278 197,-278 197,-259 352,-259 352,-278"/>
<text text-anchor="middle" x="274.5" y="-266" font-family="Courier,monospace" font-size="10.00">MooseBaseErrorInterface</text>
</a>
</g>
</g>
<!-- Node5&#45;&gt;Node2 -->
<g id="edge4" class="edge">
<title>Node5&#45;&gt;Node2</title>
<path fill="none" stroke="#63b8ff" d="M363.7,-268.5C393.87,-268.5 426.17,-268.5 450.75,-268.5"/>
<polygon fill="#63b8ff" stroke="#63b8ff" points="363.78,-265 353.78,-268.5 363.78,-272 363.78,-265"/>
</g>
<!-- Node6 -->
<g id="node6" class="node">
<title>Node6</title>
<g id="a_node6"><a xlink:href="classConsoleStreamInterface.html" target="_top" xlink:title="An inteface for the _console for outputting to the Console object.">
<polygon fill="white" stroke="#666666" points="149,-278 0,-278 0,-259 149,-259 149,-278"/>
<text text-anchor="middle" x="74.5" y="-266" font-family="Courier,monospace" font-size="10.00">ConsoleStreamInterface</text>
</a>
</g>
</g>
<!-- Node6&#45;&gt;Node5 -->
<g id="edge5" class="edge">
<title>Node6&#45;&gt;Node5</title>
<path fill="none" stroke="#63b8ff" d="M160.62,-268.5C172.62,-268.5 184.9,-268.5 196.73,-268.5"/>
<polygon fill="#63b8ff" stroke="#63b8ff" points="160.74,-265 150.74,-268.5 160.74,-272 160.74,-265"/>
</g>
<!-- Node7 -->
<g id="node7" class="node">
<title>Node7</title>
<g id="a_node7"><a xlink:title=" ">
<polygon fill="white" stroke="#666666" points="352,-241 197,-241 197,-222 352,-222 352,-241"/>
<text text-anchor="middle" x="274.5" y="-229" font-family="Courier,monospace" font-size="10.00">libMesh::ParallelObject</text>
</a>
</g>
</g>
<!-- Node7&#45;&gt;Node2 -->
<g id="edge6" class="edge">
<title>Node7&#45;&gt;Node2</title>
<path fill="none" stroke="#63b8ff" d="M344.77,-243.37C379.7,-249.35 420.85,-256.4 450.68,-261.51"/>
<polygon fill="#63b8ff" stroke="#63b8ff" points="345.61,-239.96 335.16,-241.72 344.43,-246.86 345.61,-239.96"/>
</g>
<!-- Node8 -->
<g id="node8" class="node">
<title>Node8</title>
<g id="a_node8"><a xlink:href="classDataFileInterface.html" target="_top" xlink:title=" ">
<polygon fill="white" stroke="#666666" points="337,-203.5 212,-203.5 212,-173.5 337,-173.5 337,-203.5"/>
<text text-anchor="start" x="220" y="-191.5" font-family="Courier,monospace" font-size="10.00">DataFileInterface&lt;</text>
<text text-anchor="middle" x="274.5" y="-180.5" font-family="Courier,monospace" font-size="10.00"> MooseObject &gt;</text>
</a>
</g>
</g>
<!-- Node8&#45;&gt;Node2 -->
<g id="edge7" class="edge">
<title>Node8&#45;&gt;Node2</title>
<path fill="none" stroke="#63b8ff" d="M347.62,-205.35C353.32,-207.73 358.86,-210.44 364,-213.5 383.71,-225.24 379.83,-239.57 400,-250.5 415.37,-258.83 434.06,-263.34 450.53,-265.76"/>
<polygon fill="#63b8ff" stroke="#63b8ff" points="349.23,-202.22 338.64,-201.94 346.74,-208.76 349.23,-202.22"/>
</g>
<!-- Node9 -->
<g id="node9" class="node">
<title>Node9</title>
<g id="a_node9"><a xlink:href="classTransientInterface.html" target="_top" xlink:title="Interface for objects that needs transient capabilities.">
<polygon fill="white" stroke="#666666" points="555,-241 430,-241 430,-222 555,-222 555,-241"/>
<text text-anchor="middle" x="492.5" y="-229" font-family="Courier,monospace" font-size="10.00">TransientInterface</text>
</a>
</g>
</g>
<!-- Node9&#45;&gt;Node1 -->
<g id="edge8" class="edge">
<title>Node9&#45;&gt;Node1</title>
<path fill="none" stroke="#63b8ff" d="M565.79,-222.07C572.51,-219.79 579.03,-216.98 585,-213.5 612.75,-197.34 634.38,-164.77 644.02,-148.39"/>
<polygon fill="#63b8ff" stroke="#63b8ff" points="565.16,-218.61 556.56,-224.81 567.15,-225.32 565.16,-218.61"/>
</g>
<!-- Node10 -->
<g id="node10" class="node">
<title>Node10</title>
<g id="a_node10"><a xlink:href="classSetupInterface.html" target="_top" xlink:title=" ">
<polygon fill="white" stroke="#666666" points="543,-204 442,-204 442,-185 543,-185 543,-204"/>
<text text-anchor="middle" x="492.5" y="-192" font-family="Courier,monospace" font-size="10.00">SetupInterface</text>
</a>
</g>
</g>
<!-- Node10&#45;&gt;Node1 -->
<g id="edge9" class="edge">
<title>Node10&#45;&gt;Node1</title>
<path fill="none" stroke="#63b8ff" d="M554.37,-184.67C564.76,-182.2 575.31,-179.18 585,-175.5 603.35,-168.54 622.64,-156.8 635.3,-148.41"/>
<polygon fill="#63b8ff" stroke="#63b8ff" points="553.71,-181.24 544.7,-186.81 555.22,-188.07 553.71,-181.24"/>
</g>
<!-- Node11 -->
<g id="node11" class="node">
<title>Node11</title>
<g id="a_node11"><a xlink:href="classFunctionInterface.html" target="_top" xlink:title="Interface for objects that need to use functions.">
<polygon fill="white" stroke="#666666" points="552,-167 433,-167 433,-148 552,-148 552,-167"/>
<text text-anchor="middle" x="492.5" y="-155" font-family="Courier,monospace" font-size="10.00">FunctionInterface</text>
</a>
</g>
</g>
<!-- Node11&#45;&gt;Node1 -->
<g id="edge10" class="edge">
<title>Node11&#45;&gt;Node1</title>
<path fill="none" stroke="#63b8ff" d="M563.82,-148.94C583.84,-146.5 604.54,-143.98 620.58,-142.02"/>
<polygon fill="#63b8ff" stroke="#63b8ff" points="563.48,-145.45 553.98,-150.13 564.33,-152.4 563.48,-145.45"/>
</g>
<!-- Node12 -->
<g id="node12" class="node">
<title>Node12</title>
<g id="a_node12"><a xlink:href="classUserObjectInterface.html" target="_top" xlink:title="Interface for objects that need to use UserObjects.">
<polygon fill="white" stroke="#666666" points="558,-130 427,-130 427,-111 558,-111 558,-130"/>
<text text-anchor="middle" x="492.5" y="-118" font-family="Courier,monospace" font-size="10.00">UserObjectInterface</text>
</a>
</g>
</g>
<!-- Node12&#45;&gt;Node1 -->
<g id="edge11" class="edge">
<title>Node12&#45;&gt;Node1</title>
<path fill="none" stroke="#63b8ff" d="M569.61,-129.28C587.87,-131.39 606.26,-133.51 620.79,-135.19"/>
<polygon fill="#63b8ff" stroke="#63b8ff" points="570.14,-125.82 559.81,-128.15 569.34,-132.77 570.14,-125.82"/>
</g>
<!-- Node13 -->
<g id="node13" class="node">
<title>Node13</title>
<g id="a_node13"><a xlink:href="classRestartable.html" target="_top" xlink:title="A class for creating restricted objects.">
<polygon fill="white" stroke="#666666" points="534,-93 451,-93 451,-74 534,-74 534,-93"/>
<text text-anchor="middle" x="492.5" y="-81" font-family="Courier,monospace" font-size="10.00">Restartable</text>
</a>
</g>
</g>
<!-- Node13&#45;&gt;Node1 -->
<g id="edge12" class="edge">
<title>Node13&#45;&gt;Node1</title>
<path fill="none" stroke="#63b8ff" d="M545.62,-90.71C558.71,-93.34 572.57,-96.85 585,-101.5 603.38,-108.37 622.67,-120.12 635.32,-128.54"/>
<polygon fill="#63b8ff" stroke="#63b8ff" points="546.33,-87.28 535.86,-88.89 545.05,-94.16 546.33,-87.28"/>
</g>
<!-- Node14 -->
<g id="node14" class="node">
<title>Node14</title>
<g id="a_node14"><a xlink:href="classPostprocessorInterface.html" target="_top" xlink:title="Interface class for classes which interact with Postprocessors.">
<polygon fill="white" stroke="#666666" points="567,-56 418,-56 418,-37 567,-37 567,-56"/>
<text text-anchor="middle" x="492.5" y="-44" font-family="Courier,monospace" font-size="10.00">PostprocessorInterface</text>
</a>
</g>
</g>
<!-- Node14&#45;&gt;Node1 -->
<g id="edge13" class="edge">
<title>Node14&#45;&gt;Node1</title>
<path fill="none" stroke="darkgreen" d="M577.67,-60.7C580.18,-61.87 582.63,-63.13 585,-64.5 612.59,-80.45 634.29,-112.58 643.98,-128.75"/>
<polygon fill="darkgreen" stroke="darkgreen" points="579.01,-57.46 568.43,-56.96 576.39,-63.95 579.01,-57.46"/>
</g>
<!-- Node15 -->
<g id="node15" class="node">
<title>Node15</title>
<g id="a_node15"><a xlink:href="classVectorPostprocessorInterface.html" target="_top" xlink:title=" ">
<polygon fill="white" stroke="#666666" points="585,-19 400,-19 400,0 585,0 585,-19"/>
<text text-anchor="middle" x="492.5" y="-7" font-family="Courier,monospace" font-size="10.00">VectorPostprocessorInterface</text>
</a>
</g>
</g>
<!-- Node15&#45;&gt;Node1 -->
<g id="edge14" class="edge">
<title>Node15&#45;&gt;Node1</title>
<path fill="none" stroke="darkgreen" d="M580.68,-24.66C582.16,-25.55 583.6,-26.5 585,-27.5 621.3,-53.38 640.25,-106.57 646.8,-128.6"/>
<polygon fill="darkgreen" stroke="darkgreen" points="582.32,-21.56 571.82,-20.11 579.12,-27.79 582.32,-21.56"/>
</g>
<!-- Node18 -->
<g id="node18" class="node">
<title>Node18</title>
<g id="a_node18"><a xlink:href="classConditionalFunctionEnableControl.html" target="_top" xlink:title="Control for enabling/disabling objects when a function value is true.">
<polygon fill="white" stroke="#666666" points="1080,-211.5 913,-211.5 913,-181.5 1080,-181.5 1080,-211.5"/>
<text text-anchor="start" x="921" y="-199.5" font-family="Courier,monospace" font-size="10.00">ConditionalFunctionEnable</text>
<text text-anchor="middle" x="996.5" y="-188.5" font-family="Courier,monospace" font-size="10.00">Control</text>
</a>
</g>
</g>
<!-- Node17&#45;&gt;Node18 -->
<g id="edge17" class="edge">
<title>Node17&#45;&gt;Node18</title>
<path fill="none" stroke="#63b8ff" d="M888.69,-185.17C896.68,-186.02 904.74,-186.87 912.66,-187.71"/>
<polygon fill="#63b8ff" stroke="#63b8ff" points="889.28,-181.71 878.97,-184.14 888.54,-188.68 889.28,-181.71"/>
</g>
<!-- Node19 -->
<g id="node19" class="node">
<title>Node19</title>
<g id="a_node19"><a xlink:href="classTimePeriodBase.html" target="_top" xlink:title="Base class for basic control for disabling objects for a portion of the simulation.">
<polygon fill="white" stroke="#666666" points="1047,-163 946,-163 946,-144 1047,-144 1047,-163"/>
<text text-anchor="middle" x="996.5" y="-151" font-family="Courier,monospace" font-size="10.00">TimePeriodBase</text>
</a>
</g>
</g>
<!-- Node17&#45;&gt;Node19 -->
<g id="edge18" class="edge">
<title>Node17&#45;&gt;Node19</title>
<path fill="none" stroke="#63b8ff" d="M888.64,-165.37C908.29,-163.19 928.36,-160.96 945.72,-159.03"/>
<polygon fill="#63b8ff" stroke="#63b8ff" points="888.52,-161.87 878.97,-166.45 889.29,-168.82 888.52,-161.87"/>
</g>
<!-- Node20 -->
<g id="node20" class="node">
<title>Node20</title>
<g id="a_node20"><a xlink:href="classTimePeriod.html" target="_top" xlink:title="A basic control for disabling objects for a portion of the simulation.">
<polygon fill="white" stroke="#666666" points="1193,-163 1116,-163 1116,-144 1193,-144 1193,-163"/>
<text text-anchor="middle" x="1154.5" y="-151" font-family="Courier,monospace" font-size="10.00">TimePeriod</text>
</a>
</g>
</g>
<!-- Node19&#45;&gt;Node20 -->
<g id="edge19" class="edge">
<title>Node19&#45;&gt;Node20</title>
<path fill="none" stroke="#63b8ff" d="M1058.69,-153.5C1077.86,-153.5 1098.46,-153.5 1115.54,-153.5"/>
<polygon fill="#63b8ff" stroke="#63b8ff" points="1058.8,-150 1048.8,-153.5 1058.8,-157 1058.8,-150"/>
</g>
</g>
</svg>
