<?xml version="1.0" encoding="UTF-8" standalone="no"?>
<!DOCTYPE svg PUBLIC "-//W3C//DTD SVG 1.1//EN"
 "http://www.w3.org/Graphics/SVG/1.1/DTD/svg11.dtd">
<!-- Generated by graphviz version 7.0.5 (20221223.1930)
 -->
<!-- Title: MooseParsedFunctionBase Pages: 1 -->
<svg width="497pt" height="82pt"
 viewBox="0.00 0.00 497.00 82.00" xmlns="http://www.w3.org/2000/svg" xmlns:xlink="http://www.w3.org/1999/xlink">
<g id="graph0" class="graph" transform="scale(1 1) rotate(0) translate(4 78)">
<title>MooseParsedFunctionBase</title>
<!-- Node1 -->
<g id="node1" class="node">
<title>Node1</title>
<g id="a_node1"><a xlink:title="Creates the &#39;vars&#39; and &#39;vals&#39; parameters used by all ParsedFunctions, the parameters provided from th...">
<polygon fill="#999999" stroke="#666666" points="304,-74 149,-74 149,-55 304,-55 304,-74"/>
<text text-anchor="middle" x="226.5" y="-62" font-family="Courier,monospace" font-size="10.00">MooseParsedFunctionBase</text>
</a>
</g>
</g>
<!-- Node2 -->
<g id="node2" class="node">
<title>Node2</title>
<g id="a_node2"><a xlink:href="classMooseParsedFunction.html" target="_top" xlink:title="This class is used to evaluate symbolic equations passed in to Moose through the input file.">
<polygon fill="white" stroke="#666666" points="131,-19 0,-19 0,0 131,0 131,-19"/>
<text text-anchor="middle" x="65.5" y="-7" font-family="Courier,monospace" font-size="10.00">MooseParsedFunction</text>
</a>
</g>
</g>
<!-- Node1&#45;&gt;Node2 -->
<g id="edge1" class="edge">
<title>Node1&#45;&gt;Node2</title>
<path fill="none" stroke="#63b8ff" d="M188.47,-50.98C159.03,-41.29 118.96,-28.1 92.68,-19.45"/>
<polygon fill="#63b8ff" stroke="#63b8ff" points="187.16,-54.23 197.75,-54.04 189.35,-47.58 187.16,-54.23"/>
</g>
<!-- Node3 -->
<g id="node3" class="node">
<title>Node3</title>
<g id="a_node3"><a xlink:href="classMooseParsedGradFunction.html" target="_top" xlink:title="This class is similar to ParsedFunction except it also supports returning the gradient of the functio...">
<polygon fill="white" stroke="#666666" points="304,-19 149,-19 149,0 304,0 304,-19"/>
<text text-anchor="middle" x="226.5" y="-7" font-family="Courier,monospace" font-size="10.00">MooseParsedGradFunction</text>
</a>
</g>
</g>
<!-- Node1&#45;&gt;Node3 -->
<g id="edge2" class="edge">
<title>Node1&#45;&gt;Node3</title>
<path fill="none" stroke="#63b8ff" d="M226.5,-43.35C226.5,-35.1 226.5,-25.97 226.5,-19.44"/>
<polygon fill="#63b8ff" stroke="#63b8ff" points="223,-43.23 226.5,-53.23 230,-43.23 223,-43.23"/>
</g>
<!-- Node4 -->
<g id="node4" class="node">
<title>Node4</title>
<g id="a_node4"><a xlink:href="classMooseParsedVectorFunction.html" target="_top" xlink:title="This class is similar to ParsedFunction except it returns a vector function.">
<polygon fill="white" stroke="#666666" points="489,-19 322,-19 322,0 489,0 489,-19"/>
<text text-anchor="middle" x="405.5" y="-7" font-family="Courier,monospace" font-size="10.00">MooseParsedVectorFunction</text>
</a>
</g>
</g>
<!-- Node1&#45;&gt;Node4 -->
<g id="edge3" class="edge">
<title>Node1&#45;&gt;Node4</title>
<path fill="none" stroke="#63b8ff" d="M267.48,-51.36C300.33,-41.64 345.68,-28.21 375.29,-19.45"/>
<polygon fill="#63b8ff" stroke="#63b8ff" points="266.91,-47.88 258.32,-54.08 268.9,-54.6 266.91,-47.88"/>
</g>
</g>
</svg>
