<?xml version="1.0" encoding="UTF-8" standalone="no"?>
<!DOCTYPE svg PUBLIC "-//W3C//DTD SVG 1.1//EN"
 "http://www.w3.org/Graphics/SVG/1.1/DTD/svg11.dtd">
<!-- Generated by graphviz version 7.0.5 (20221223.1930)
 -->
<!-- Title: DGKernelBase Pages: 1 -->
<svg width="1966pt" height="793pt"
 viewBox="0.00 0.00 1966.00 793.00" xmlns="http://www.w3.org/2000/svg" xmlns:xlink="http://www.w3.org/1999/xlink">
<g id="graph0" class="graph" transform="scale(1 1) rotate(0) translate(4 789)">
<title>DGKernelBase</title>
<!-- Node1 -->
<g id="node1" class="node">
<title>Node1</title>
<g id="a_node1"><a xlink:title="Serves as a base class for DGKernel and ADDGKernel.">
<polygon fill="#999999" stroke="#666666" points="1194,-333 1105,-333 1105,-314 1194,-314 1194,-333"/>
<text text-anchor="middle" x="1149.5" y="-321" font-family="Courier,monospace" font-size="10.00">DGKernelBase</text>
</a>
</g>
</g>
<!-- Node31 -->
<g id="node31" class="node">
<title>Node31</title>
<g id="a_node31"><a xlink:href="classADDGKernel.html" target="_top" xlink:title=" ">
<polygon fill="white" stroke="#666666" points="1316,-426 1239,-426 1239,-407 1316,-407 1316,-426"/>
<text text-anchor="middle" x="1277.5" y="-414" font-family="Courier,monospace" font-size="10.00">ADDGKernel</text>
</a>
</g>
</g>
<!-- Node1&#45;&gt;Node31 -->
<g id="edge30" class="edge">
<title>Node1&#45;&gt;Node31</title>
<path fill="none" stroke="#63b8ff" d="M1173.17,-340.23C1199.38,-359.58 1241.67,-390.79 1263.11,-406.62"/>
<polygon fill="#63b8ff" stroke="#63b8ff" points="1175.33,-337.47 1165.2,-334.35 1171.17,-343.11 1175.33,-337.47"/>
</g>
<!-- Node36 -->
<g id="node36" class="node">
<title>Node36</title>
<g id="a_node36"><a xlink:href="classArrayDGKernel.html" target="_top" xlink:title="The DGKernel class is responsible for calculating the residuals for various physics on internal sides...">
<polygon fill="white" stroke="#666666" points="1325,-333 1230,-333 1230,-314 1325,-314 1325,-333"/>
<text text-anchor="middle" x="1277.5" y="-321" font-family="Courier,monospace" font-size="10.00">ArrayDGKernel</text>
</a>
</g>
</g>
<!-- Node1&#45;&gt;Node36 -->
<g id="edge35" class="edge">
<title>Node1&#45;&gt;Node36</title>
<path fill="none" stroke="#63b8ff" d="M1205.51,-323.5C1213.63,-323.5 1221.93,-323.5 1229.86,-323.5"/>
<polygon fill="#63b8ff" stroke="#63b8ff" points="1205.73,-320 1195.73,-323.5 1205.73,-327 1205.73,-320"/>
</g>
<!-- Node40 -->
<g id="node40" class="node">
<title>Node40</title>
<g id="a_node40"><a xlink:href="classDGKernel.html" target="_top" xlink:title="The DGKernel class is responsible for calculating the residuals for various physics on internal sides...">
<polygon fill="white" stroke="#666666" points="1310,-167 1245,-167 1245,-148 1310,-148 1310,-167"/>
<text text-anchor="middle" x="1277.5" y="-155" font-family="Courier,monospace" font-size="10.00">DGKernel</text>
</a>
</g>
</g>
<!-- Node1&#45;&gt;Node40 -->
<g id="edge39" class="edge">
<title>Node1&#45;&gt;Node40</title>
<path fill="none" stroke="#63b8ff" d="M1164.72,-304.77C1191.57,-269.39 1248.9,-193.87 1269.19,-167.13"/>
<polygon fill="#63b8ff" stroke="#63b8ff" points="1162.18,-302.33 1158.92,-312.41 1167.75,-306.56 1162.18,-302.33"/>
</g>
<!-- Node2 -->
<g id="node2" class="node">
<title>Node2</title>
<g id="a_node2"><a xlink:href="classNeighborResidualObject.html" target="_top" xlink:title="This is a base class for objects that can provide residual contributions for both local and neighbor ...">
<polygon fill="white" stroke="#666666" points="1042,-481 893,-481 893,-462 1042,-462 1042,-481"/>
<text text-anchor="middle" x="967.5" y="-469" font-family="Courier,monospace" font-size="10.00">NeighborResidualObject</text>
</a>
</g>
</g>
<!-- Node2&#45;&gt;Node1 -->
<g id="edge1" class="edge">
<title>Node2&#45;&gt;Node1</title>
<path fill="none" stroke="#63b8ff" d="M993.85,-455.54C1014.7,-442.03 1044.66,-421.67 1069,-401.5 1096.24,-378.92 1125.16,-348.76 1139.44,-333.4"/>
<polygon fill="#63b8ff" stroke="#63b8ff" points="992.21,-452.44 985.69,-460.78 995.99,-458.33 992.21,-452.44"/>
</g>
<!-- Node3 -->
<g id="node3" class="node">
<title>Node3</title>
<g id="a_node3"><a xlink:href="classResidualObject.html" target="_top" xlink:title="This is the common base class for objects that give residual contributions.">
<polygon fill="white" stroke="#666666" points="776,-507 675,-507 675,-488 776,-488 776,-507"/>
<text text-anchor="middle" x="725.5" y="-495" font-family="Courier,monospace" font-size="10.00">ResidualObject</text>
</a>
</g>
</g>
<!-- Node3&#45;&gt;Node2 -->
<g id="edge2" class="edge">
<title>Node3&#45;&gt;Node2</title>
<path fill="none" stroke="#63b8ff" d="M787.65,-490.88C819.63,-487.41 859.01,-483.14 892.68,-479.5"/>
<polygon fill="#63b8ff" stroke="#63b8ff" points="787.3,-487.39 777.73,-491.95 788.05,-494.35 787.3,-487.39"/>
</g>
<!-- Node4 -->
<g id="node4" class="node">
<title>Node4</title>
<g id="a_node4"><a xlink:href="classMooseObject.html" target="_top" xlink:title="Every object that can be built by the factory should be derived from this class.">
<polygon fill="white" stroke="#666666" points="534,-711 451,-711 451,-692 534,-692 534,-711"/>
<text text-anchor="middle" x="492.5" y="-699" font-family="Courier,monospace" font-size="10.00">MooseObject</text>
</a>
</g>
</g>
<!-- Node4&#45;&gt;Node3 -->
<g id="edge3" class="edge">
<title>Node4&#45;&gt;Node3</title>
<path fill="none" stroke="#63b8ff" d="M545.39,-698.02C559.03,-695.36 573.22,-690.9 585,-683.5 658.15,-637.56 706.48,-538.45 720.37,-507.17"/>
<polygon fill="#63b8ff" stroke="#63b8ff" points="544.92,-694.55 535.61,-699.61 546.05,-701.46 544.92,-694.55"/>
</g>
<!-- Node5 -->
<g id="node5" class="node">
<title>Node5</title>
<g id="a_node5"><a xlink:href="classMooseBase.html" target="_top" xlink:title="Base class for everything in MOOSE with a name and a type.">
<polygon fill="white" stroke="#666666" points="310,-785 239,-785 239,-766 310,-766 310,-785"/>
<text text-anchor="middle" x="274.5" y="-773" font-family="Courier,monospace" font-size="10.00">MooseBase</text>
</a>
</g>
</g>
<!-- Node5&#45;&gt;Node4 -->
<g id="edge4" class="edge">
<title>Node5&#45;&gt;Node4</title>
<path fill="none" stroke="#63b8ff" d="M321.62,-768.05C335.41,-765.31 350.46,-761.8 364,-757.5 403.87,-744.85 448.08,-723.72 472.56,-711.35"/>
<polygon fill="#63b8ff" stroke="#63b8ff" points="321.06,-764.59 311.89,-769.89 322.36,-771.47 321.06,-764.59"/>
</g>
<!-- Node6 -->
<g id="node6" class="node">
<title>Node6</title>
<g id="a_node6"><a xlink:href="classMooseBaseParameterInterface.html" target="_top" xlink:title="Every object that can be built by the factory should be derived from this class.">
<polygon fill="white" stroke="#666666" points="364,-748 185,-748 185,-729 364,-729 364,-748"/>
<text text-anchor="middle" x="274.5" y="-736" font-family="Courier,monospace" font-size="10.00">MooseBaseParameterInterface</text>
</a>
</g>
</g>
<!-- Node6&#45;&gt;Node4 -->
<g id="edge5" class="edge">
<title>Node6&#45;&gt;Node4</title>
<path fill="none" stroke="#63b8ff" d="M344.77,-726.63C379.7,-720.65 420.85,-713.6 450.68,-708.49"/>
<polygon fill="#63b8ff" stroke="#63b8ff" points="344.43,-723.14 335.16,-728.28 345.61,-730.04 344.43,-723.14"/>
</g>
<!-- Node7 -->
<g id="node7" class="node">
<title>Node7</title>
<g id="a_node7"><a xlink:href="classMooseBaseErrorInterface.html" target="_top" xlink:title="Interface that provides APIs to output errors/warnings/info messages.">
<polygon fill="white" stroke="#666666" points="352,-711 197,-711 197,-692 352,-692 352,-711"/>
<text text-anchor="middle" x="274.5" y="-699" font-family="Courier,monospace" font-size="10.00">MooseBaseErrorInterface</text>
</a>
</g>
</g>
<!-- Node7&#45;&gt;Node4 -->
<g id="edge6" class="edge">
<title>Node7&#45;&gt;Node4</title>
<path fill="none" stroke="#63b8ff" d="M363.7,-701.5C393.87,-701.5 426.17,-701.5 450.75,-701.5"/>
<polygon fill="#63b8ff" stroke="#63b8ff" points="363.78,-698 353.78,-701.5 363.78,-705 363.78,-698"/>
</g>
<!-- Node8 -->
<g id="node8" class="node">
<title>Node8</title>
<g id="a_node8"><a xlink:href="classConsoleStreamInterface.html" target="_top" xlink:title="An inteface for the _console for outputting to the Console object.">
<polygon fill="white" stroke="#666666" points="149,-711 0,-711 0,-692 149,-692 149,-711"/>
<text text-anchor="middle" x="74.5" y="-699" font-family="Courier,monospace" font-size="10.00">ConsoleStreamInterface</text>
</a>
</g>
</g>
<!-- Node8&#45;&gt;Node7 -->
<g id="edge7" class="edge">
<title>Node8&#45;&gt;Node7</title>
<path fill="none" stroke="#63b8ff" d="M160.62,-701.5C172.62,-701.5 184.9,-701.5 196.73,-701.5"/>
<polygon fill="#63b8ff" stroke="#63b8ff" points="160.74,-698 150.74,-701.5 160.74,-705 160.74,-698"/>
</g>
<!-- Node9 -->
<g id="node9" class="node">
<title>Node9</title>
<g id="a_node9"><a xlink:title=" ">
<polygon fill="white" stroke="#666666" points="352,-674 197,-674 197,-655 352,-655 352,-674"/>
<text text-anchor="middle" x="274.5" y="-662" font-family="Courier,monospace" font-size="10.00">libMesh::ParallelObject</text>
</a>
</g>
</g>
<!-- Node9&#45;&gt;Node4 -->
<g id="edge8" class="edge">
<title>Node9&#45;&gt;Node4</title>
<path fill="none" stroke="#63b8ff" d="M344.77,-676.37C379.7,-682.35 420.85,-689.4 450.68,-694.51"/>
<polygon fill="#63b8ff" stroke="#63b8ff" points="345.61,-672.96 335.16,-674.72 344.43,-679.86 345.61,-672.96"/>
</g>
<!-- Node10 -->
<g id="node10" class="node">
<title>Node10</title>
<g id="a_node10"><a xlink:href="classDataFileInterface.html" target="_top" xlink:title=" ">
<polygon fill="white" stroke="#666666" points="337,-636.5 212,-636.5 212,-606.5 337,-606.5 337,-636.5"/>
<text text-anchor="start" x="220" y="-624.5" font-family="Courier,monospace" font-size="10.00">DataFileInterface&lt;</text>
<text text-anchor="middle" x="274.5" y="-613.5" font-family="Courier,monospace" font-size="10.00"> MooseObject &gt;</text>
</a>
</g>
</g>
<!-- Node10&#45;&gt;Node4 -->
<g id="edge9" class="edge">
<title>Node10&#45;&gt;Node4</title>
<path fill="none" stroke="#63b8ff" d="M347.62,-638.35C353.32,-640.73 358.86,-643.44 364,-646.5 383.71,-658.24 379.83,-672.57 400,-683.5 415.37,-691.83 434.06,-696.34 450.53,-698.76"/>
<polygon fill="#63b8ff" stroke="#63b8ff" points="349.23,-635.22 338.64,-634.94 346.74,-641.76 349.23,-635.22"/>
</g>
<!-- Node11 -->
<g id="node11" class="node">
<title>Node11</title>
<g id="a_node11"><a xlink:href="classSetupInterface.html" target="_top" xlink:title=" ">
<polygon fill="white" stroke="#666666" points="543,-674 442,-674 442,-655 543,-655 543,-674"/>
<text text-anchor="middle" x="492.5" y="-662" font-family="Courier,monospace" font-size="10.00">SetupInterface</text>
</a>
</g>
</g>
<!-- Node11&#45;&gt;Node3 -->
<g id="edge10" class="edge">
<title>Node11&#45;&gt;Node3</title>
<path fill="none" stroke="#63b8ff" d="M554.42,-658.04C565.03,-655.39 575.65,-651.69 585,-646.5 649.46,-610.76 701.26,-534.73 718.42,-507.48"/>
<polygon fill="#63b8ff" stroke="#63b8ff" points="553.93,-654.57 544.9,-660.11 555.42,-661.41 553.93,-654.57"/>
</g>
<!-- Node12 -->
<g id="node12" class="node">
<title>Node12</title>
<g id="a_node12"><a xlink:href="classFunctionInterface.html" target="_top" xlink:title="Interface for objects that need to use functions.">
<polygon fill="white" stroke="#666666" points="552,-637 433,-637 433,-618 552,-618 552,-637"/>
<text text-anchor="middle" x="492.5" y="-625" font-family="Courier,monospace" font-size="10.00">FunctionInterface</text>
</a>
</g>
</g>
<!-- Node12&#45;&gt;Node3 -->
<g id="edge11" class="edge">
<title>Node12&#45;&gt;Node3</title>
<path fill="none" stroke="#63b8ff" d="M563.39,-617.43C570.85,-615.27 578.19,-612.67 585,-609.5 641.32,-583.3 694.79,-529.68 715.48,-507.47"/>
<polygon fill="#63b8ff" stroke="#63b8ff" points="562.7,-613.99 553.89,-619.88 564.45,-620.77 562.7,-613.99"/>
</g>
<!-- Node13 -->
<g id="node13" class="node">
<title>Node13</title>
<g id="a_node13"><a xlink:href="classUserObjectInterface.html" target="_top" xlink:title="Interface for objects that need to use UserObjects.">
<polygon fill="white" stroke="#666666" points="558,-600 427,-600 427,-581 558,-581 558,-600"/>
<text text-anchor="middle" x="492.5" y="-588" font-family="Courier,monospace" font-size="10.00">UserObjectInterface</text>
</a>
</g>
</g>
<!-- Node13&#45;&gt;Node3 -->
<g id="edge12" class="edge">
<title>Node13&#45;&gt;Node3</title>
<path fill="none" stroke="#63b8ff" d="M568.24,-577.73C573.97,-576.17 579.61,-574.43 585,-572.5 633.15,-555.26 684.97,-523.48 709.71,-507.39"/>
<polygon fill="#63b8ff" stroke="#63b8ff" points="567.48,-574.32 558.64,-580.16 569.19,-581.1 567.48,-574.32"/>
</g>
<!-- Node14 -->
<g id="node14" class="node">
<title>Node14</title>
<g id="a_node14"><a xlink:href="classTransientInterface.html" target="_top" xlink:title="Interface for objects that needs transient capabilities.">
<polygon fill="white" stroke="#666666" points="555,-563 430,-563 430,-544 555,-544 555,-563"/>
<text text-anchor="middle" x="492.5" y="-551" font-family="Courier,monospace" font-size="10.00">TransientInterface</text>
</a>
</g>
</g>
<!-- Node14&#45;&gt;Node3 -->
<g id="edge13" class="edge">
<title>Node14&#45;&gt;Node3</title>
<path fill="none" stroke="#63b8ff" d="M558.53,-541.3C567.45,-539.46 576.47,-537.5 585,-535.5 621.29,-527 662.42,-515.57 690.56,-507.48"/>
<polygon fill="#63b8ff" stroke="#63b8ff" points="557.93,-537.85 548.83,-543.27 559.32,-544.71 557.93,-537.85"/>
</g>
<!-- Node15 -->
<g id="node15" class="node">
<title>Node15</title>
<g id="a_node15"><a xlink:href="classPostprocessorInterface.html" target="_top" xlink:title="Interface class for classes which interact with Postprocessors.">
<polygon fill="white" stroke="#666666" points="567,-526 418,-526 418,-507 567,-507 567,-526"/>
<text text-anchor="middle" x="492.5" y="-514" font-family="Courier,monospace" font-size="10.00">PostprocessorInterface</text>
</a>
</g>
</g>
<!-- Node15&#45;&gt;Node3 -->
<g id="edge14" class="edge">
<title>Node15&#45;&gt;Node3</title>
<path fill="none" stroke="#63b8ff" d="M578.52,-509.51C610.9,-506.84 646.73,-503.9 674.79,-501.59"/>
<polygon fill="#63b8ff" stroke="#63b8ff" points="578.41,-506 568.73,-510.31 578.99,-512.98 578.41,-506"/>
</g>
<!-- Node16 -->
<g id="node16" class="node">
<title>Node16</title>
<g id="a_node16"><a xlink:href="classVectorPostprocessorInterface.html" target="_top" xlink:title=" ">
<polygon fill="white" stroke="#666666" points="585,-489 400,-489 400,-470 585,-470 585,-489"/>
<text text-anchor="middle" x="492.5" y="-477" font-family="Courier,monospace" font-size="10.00">VectorPostprocessorInterface</text>
</a>
</g>
</g>
<!-- Node16&#45;&gt;Node3 -->
<g id="edge15" class="edge">
<title>Node16&#45;&gt;Node3</title>
<path fill="none" stroke="#63b8ff" d="M596.61,-487.53C623.74,-489.65 651.79,-491.83 674.69,-493.62"/>
<polygon fill="#63b8ff" stroke="#63b8ff" points="597.21,-484.07 586.97,-486.78 596.67,-491.05 597.21,-484.07"/>
</g>
<!-- Node17 -->
<g id="node17" class="node">
<title>Node17</title>
<g id="a_node17"><a xlink:href="classRandomInterface.html" target="_top" xlink:title="Interface for objects that need parallel consistent random numbers without patterns over the course o...">
<polygon fill="white" stroke="#666666" points="546,-452 439,-452 439,-433 546,-433 546,-452"/>
<text text-anchor="middle" x="492.5" y="-440" font-family="Courier,monospace" font-size="10.00">RandomInterface</text>
</a>
</g>
</g>
<!-- Node17&#45;&gt;Node3 -->
<g id="edge16" class="edge">
<title>Node17&#45;&gt;Node3</title>
<path fill="none" stroke="#63b8ff" d="M554.41,-454.72C564.64,-456.9 575.14,-459.2 585,-461.5 620.08,-469.66 659.83,-480.03 687.9,-487.55"/>
<polygon fill="#63b8ff" stroke="#63b8ff" points="555.44,-451.36 544.94,-452.73 554.01,-458.22 555.44,-451.36"/>
</g>
<!-- Node18 -->
<g id="node18" class="node">
<title>Node18</title>
<g id="a_node18"><a xlink:href="classRestartable.html" target="_top" xlink:title="A class for creating restricted objects.">
<polygon fill="white" stroke="#666666" points="534,-415 451,-415 451,-396 534,-396 534,-415"/>
<text text-anchor="middle" x="492.5" y="-403" font-family="Courier,monospace" font-size="10.00">Restartable</text>
</a>
</g>
</g>
<!-- Node18&#45;&gt;Node3 -->
<g id="edge17" class="edge">
<title>Node18&#45;&gt;Node3</title>
<path fill="none" stroke="#63b8ff" d="M545.5,-413.69C558.59,-416.46 572.48,-420.02 585,-424.5 632.62,-441.53 684.26,-472.07 709.25,-487.7"/>
<polygon fill="#63b8ff" stroke="#63b8ff" points="546.22,-410.27 535.73,-411.76 544.86,-417.14 546.22,-410.27"/>
</g>
<!-- Node19 -->
<g id="node19" class="node">
<title>Node19</title>
<g id="a_node19"><a xlink:href="classMeshChangedInterface.html" target="_top" xlink:title="Interface for notifications that the mesh has changed.">
<polygon fill="white" stroke="#666666" points="561,-378 424,-378 424,-359 561,-359 561,-378"/>
<text text-anchor="middle" x="492.5" y="-366" font-family="Courier,monospace" font-size="10.00">MeshChangedInterface</text>
</a>
</g>
</g>
<!-- Node19&#45;&gt;Node3 -->
<g id="edge18" class="edge">
<title>Node19&#45;&gt;Node3</title>
<path fill="none" stroke="#63b8ff" d="M570.63,-381.77C575.58,-383.46 580.41,-385.36 585,-387.5 640.91,-413.56 694.6,-466.04 715.42,-487.75"/>
<polygon fill="#63b8ff" stroke="#63b8ff" points="571.71,-378.44 561.12,-378.85 569.65,-385.13 571.71,-378.44"/>
</g>
<!-- Node20 -->
<g id="node20" class="node">
<title>Node20</title>
<g id="a_node20"><a xlink:href="classTaggingInterface.html" target="_top" xlink:title=" ">
<polygon fill="white" stroke="#666666" points="549,-341 436,-341 436,-322 549,-322 549,-341"/>
<text text-anchor="middle" x="492.5" y="-329" font-family="Courier,monospace" font-size="10.00">TaggingInterface</text>
</a>
</g>
</g>
<!-- Node20&#45;&gt;Node3 -->
<g id="edge19" class="edge">
<title>Node20&#45;&gt;Node3</title>
<path fill="none" stroke="#63b8ff" d="M560.14,-340.34C568.81,-342.91 577.33,-346.23 585,-350.5 648.93,-386.11 701.07,-460.9 718.37,-487.69"/>
<polygon fill="#63b8ff" stroke="#63b8ff" points="561.16,-336.99 550.6,-337.84 559.39,-343.76 561.16,-336.99"/>
</g>
<!-- Node21 -->
<g id="node21" class="node">
<title>Node21</title>
<g id="a_node21"><a xlink:href="classBlockRestrictable.html" target="_top" xlink:title="An interface that restricts an object to subdomains via the &#39;blocks&#39; input parameter.">
<polygon fill="white" stroke="#666666" points="1027,-392 908,-392 908,-373 1027,-373 1027,-392"/>
<text text-anchor="middle" x="967.5" y="-380" font-family="Courier,monospace" font-size="10.00">BlockRestrictable</text>
</a>
</g>
</g>
<!-- Node21&#45;&gt;Node1 -->
<g id="edge20" class="edge">
<title>Node21&#45;&gt;Node1</title>
<path fill="none" stroke="#63b8ff" d="M1038.58,-372.73C1048.91,-370.49 1059.32,-367.78 1069,-364.5 1092.24,-356.63 1117.08,-342.85 1132.69,-333.46"/>
<polygon fill="#63b8ff" stroke="#63b8ff" points="1038.03,-369.27 1028.92,-374.68 1039.42,-376.13 1038.03,-369.27"/>
</g>
<!-- Node22 -->
<g id="node22" class="node">
<title>Node22</title>
<g id="a_node22"><a xlink:href="classBoundaryRestrictable.html" target="_top" xlink:title="/class BoundaryRestrictable /brief Provides functionality for limiting the object to certain boundary...">
<polygon fill="white" stroke="#666666" points="1036,-355 899,-355 899,-336 1036,-336 1036,-355"/>
<text text-anchor="middle" x="967.5" y="-343" font-family="Courier,monospace" font-size="10.00">BoundaryRestrictable</text>
</a>
</g>
</g>
<!-- Node22&#45;&gt;Node1 -->
<g id="edge21" class="edge">
<title>Node22&#45;&gt;Node1</title>
<path fill="none" stroke="#63b8ff" d="M1047.71,-335.82C1067.29,-333.43 1087.56,-330.95 1104.74,-328.85"/>
<polygon fill="#63b8ff" stroke="#63b8ff" points="1047.3,-332.34 1037.8,-337.03 1048.15,-339.29 1047.3,-332.34"/>
</g>
<!-- Node23 -->
<g id="node23" class="node">
<title>Node23</title>
<g id="a_node23"><a xlink:href="classNeighborCoupleableMooseVariableDependencyIntermediateInterface.html" target="_top" xlink:title="Intermediate base class that ties together all the interfaces for getting MooseVariables with the Moo...">
<polygon fill="white" stroke="#666666" points="1069,-317.5 866,-317.5 866,-287.5 1069,-287.5 1069,-317.5"/>
<text text-anchor="start" x="874" y="-305.5" font-family="Courier,monospace" font-size="10.00">NeighborCoupleableMooseVariable</text>
<text text-anchor="middle" x="967.5" y="-294.5" font-family="Courier,monospace" font-size="10.00">DependencyIntermediateInterface</text>
</a>
</g>
</g>
<!-- Node23&#45;&gt;Node1 -->
<g id="edge22" class="edge">
<title>Node23&#45;&gt;Node1</title>
<path fill="none" stroke="#63b8ff" d="M1080.49,-315.57C1088.92,-316.55 1097.07,-317.5 1104.62,-318.38"/>
<polygon fill="#63b8ff" stroke="#63b8ff" points="1081.13,-312.12 1070.79,-314.43 1080.32,-319.07 1081.13,-312.12"/>
</g>
<!-- Node24 -->
<g id="node24" class="node">
<title>Node24</title>
<g id="a_node24"><a xlink:href="classNeighborCoupleable.html" target="_top" xlink:title="Enhances Coupleable interface to also couple the values from neighbor elements.">
<polygon fill="white" stroke="#666666" points="788,-349 663,-349 663,-330 788,-330 788,-349"/>
<text text-anchor="middle" x="725.5" y="-337" font-family="Courier,monospace" font-size="10.00">NeighborCoupleable</text>
</a>
</g>
</g>
<!-- Node24&#45;&gt;Node23 -->
<g id="edge23" class="edge">
<title>Node24&#45;&gt;Node23</title>
<path fill="none" stroke="#63b8ff" d="M799.42,-328.26C820.48,-325.01 843.85,-321.41 866.26,-317.95"/>
<polygon fill="#63b8ff" stroke="#63b8ff" points="799.15,-324.76 789.8,-329.74 800.22,-331.68 799.15,-324.76"/>
</g>
<!-- Node25 -->
<g id="node25" class="node">
<title>Node25</title>
<g id="a_node25"><a xlink:href="classCoupleable.html" target="_top" xlink:title="Interface for objects that needs coupling capabilities.">
<polygon fill="white" stroke="#666666" points="531,-304 454,-304 454,-285 531,-285 531,-304"/>
<text text-anchor="middle" x="492.5" y="-292" font-family="Courier,monospace" font-size="10.00">Coupleable</text>
</a>
</g>
</g>
<!-- Node25&#45;&gt;Node24 -->
<g id="edge24" class="edge">
<title>Node25&#45;&gt;Node24</title>
<path fill="none" stroke="#63b8ff" d="M542.57,-304.56C556.31,-307.41 571.24,-310.54 585,-313.5 601.02,-316.94 604.92,-318.32 621,-321.5 634.96,-324.26 650.01,-327.01 664.21,-329.5"/>
<polygon fill="#63b8ff" stroke="#63b8ff" points="543.35,-301.15 532.85,-302.55 541.93,-308 543.35,-301.15"/>
</g>
<!-- Node26 -->
<g id="node26" class="node">
<title>Node26</title>
<g id="a_node26"><a xlink:href="classScalarCoupleable.html" target="_top" xlink:title="Interface for objects that needs scalar coupling capabilities.">
<polygon fill="white" stroke="#666666" points="782,-312 669,-312 669,-293 782,-293 782,-312"/>
<text text-anchor="middle" x="725.5" y="-300" font-family="Courier,monospace" font-size="10.00">ScalarCoupleable</text>
</a>
</g>
</g>
<!-- Node26&#45;&gt;Node23 -->
<g id="edge25" class="edge">
<title>Node26&#45;&gt;Node23</title>
<path fill="none" stroke="#63b8ff" d="M793.83,-302.5C816.12,-302.5 841.44,-302.5 865.68,-302.5"/>
<polygon fill="#63b8ff" stroke="#63b8ff" points="793.98,-299 783.98,-302.5 793.98,-306 793.98,-299"/>
</g>
<!-- Node27 -->
<g id="node27" class="node">
<title>Node27</title>
<g id="a_node27"><a xlink:href="classMooseVariableDependencyInterface.html" target="_top" xlink:title=" ">
<polygon fill="white" stroke="#666666" points="830,-275 621,-275 621,-256 830,-256 830,-275"/>
<text text-anchor="middle" x="725.5" y="-263" font-family="Courier,monospace" font-size="10.00">MooseVariableDependencyInterface</text>
</a>
</g>
</g>
<!-- Node27&#45;&gt;Node23 -->
<g id="edge26" class="edge">
<title>Node27&#45;&gt;Node23</title>
<path fill="none" stroke="#63b8ff" d="M802.45,-277.21C822.65,-280.32 844.77,-283.73 866.06,-287.01"/>
<polygon fill="#63b8ff" stroke="#63b8ff" points="803.04,-273.76 792.63,-275.69 801.98,-280.68 803.04,-273.76"/>
</g>
<!-- Node28 -->
<g id="node28" class="node">
<title>Node28</title>
<g id="a_node28"><a xlink:href="classTwoMaterialPropertyInterface.html" target="_top" xlink:title="This interface is designed for DGKernel, InternalSideUserObject, InterfaceUserObject,...">
<polygon fill="white" stroke="#666666" points="1060,-269 875,-269 875,-250 1060,-250 1060,-269"/>
<text text-anchor="middle" x="967.5" y="-257" font-family="Courier,monospace" font-size="10.00">TwoMaterialPropertyInterface</text>
</a>
</g>
</g>
<!-- Node28&#45;&gt;Node1 -->
<g id="edge27" class="edge">
<title>Node28&#45;&gt;Node1</title>
<path fill="none" stroke="#63b8ff" d="M1048.67,-272.17C1055.63,-274.02 1062.49,-276.12 1069,-278.5 1093.28,-287.39 1118.87,-303.2 1134.26,-313.52"/>
<polygon fill="#63b8ff" stroke="#63b8ff" points="1049.72,-268.83 1039.17,-269.84 1048.05,-275.62 1049.72,-268.83"/>
</g>
<!-- Node29 -->
<g id="node29" class="node">
<title>Node29</title>
<g id="a_node29"><a xlink:href="classMaterialPropertyInterface.html" target="_top" xlink:title="An interface for accessing Materials.">
<polygon fill="white" stroke="#666666" points="809,-238 642,-238 642,-219 809,-219 809,-238"/>
<text text-anchor="middle" x="725.5" y="-226" font-family="Courier,monospace" font-size="10.00">MaterialPropertyInterface</text>
</a>
</g>
</g>
<!-- Node29&#45;&gt;Node28 -->
<g id="edge28" class="edge">
<title>Node29&#45;&gt;Node28</title>
<path fill="none" stroke="#63b8ff" d="M815.17,-239.95C839.53,-243.1 865.74,-246.48 889.39,-249.54"/>
<polygon fill="#63b8ff" stroke="#63b8ff" points="815.63,-236.48 805.26,-238.67 814.73,-243.43 815.63,-236.48"/>
</g>
<!-- Node30 -->
<g id="node30" class="node">
<title>Node30</title>
<g id="a_node30"><a xlink:href="classElementIDInterface.html" target="_top" xlink:title=" ">
<polygon fill="white" stroke="#666666" points="1030,-232 905,-232 905,-213 1030,-213 1030,-232"/>
<text text-anchor="middle" x="967.5" y="-220" font-family="Courier,monospace" font-size="10.00">ElementIDInterface</text>
</a>
</g>
</g>
<!-- Node30&#45;&gt;Node1 -->
<g id="edge29" class="edge">
<title>Node30&#45;&gt;Node1</title>
<path fill="none" stroke="#63b8ff" d="M1041.25,-230.7C1050.91,-233.37 1060.42,-236.88 1069,-241.5 1102.17,-259.36 1129.9,-295.88 1141.99,-313.52"/>
<polygon fill="#63b8ff" stroke="#63b8ff" points="1042.34,-227.37 1031.8,-228.4 1040.68,-234.17 1042.34,-227.37"/>
</g>
<!-- Node32 -->
<g id="node32" class="node">
<title>Node32</title>
<g id="a_node32"><a xlink:href="classADDGAdvection.html" target="_top" xlink:title="Adds residual/Jacobian contributions for a convection term from internal faces for a discontinuous Ga...">
<polygon fill="white" stroke="#666666" points="1483,-500 1388,-500 1388,-481 1483,-481 1483,-500"/>
<text text-anchor="middle" x="1435.5" y="-488" font-family="Courier,monospace" font-size="10.00">ADDGAdvection</text>
</a>
</g>
</g>
<!-- Node31&#45;&gt;Node32 -->
<g id="edge31" class="edge">
<title>Node31&#45;&gt;Node32</title>
<path fill="none" stroke="#63b8ff" d="M1298.94,-433.44C1314.93,-445.9 1338.21,-462.37 1361,-472.5 1369.4,-476.24 1378.71,-479.27 1387.79,-481.72"/>
<polygon fill="#63b8ff" stroke="#63b8ff" points="1301.18,-430.74 1291.18,-427.24 1296.81,-436.21 1301.18,-430.74"/>
</g>
<!-- Node33 -->
<g id="node33" class="node">
<title>Node33</title>
<g id="a_node33"><a xlink:href="classADDGDiffusion.html" target="_top" xlink:title="DG kernel for diffusion.">
<polygon fill="white" stroke="#666666" points="1483,-463 1388,-463 1388,-444 1483,-444 1483,-463"/>
<text text-anchor="middle" x="1435.5" y="-451" font-family="Courier,monospace" font-size="10.00">ADDGDiffusion</text>
</a>
</g>
</g>
<!-- Node31&#45;&gt;Node33 -->
<g id="edge32" class="edge">
<title>Node31&#45;&gt;Node33</title>
<path fill="none" stroke="#63b8ff" d="M1327.18,-428.05C1348.09,-433.01 1372.29,-438.75 1392.42,-443.52"/>
<polygon fill="#63b8ff" stroke="#63b8ff" points="1328.27,-424.71 1317.74,-425.81 1326.66,-431.52 1328.27,-424.71"/>
</g>
<!-- Node34 -->
<g id="node34" class="node">
<title>Node34</title>
<g id="a_node34"><a xlink:href="classDGCoeffDiffusion.html" target="_top" xlink:title="DG kernel for diffusion.">
<polygon fill="white" stroke="#666666" points="1492,-426 1379,-426 1379,-407 1492,-407 1492,-426"/>
<text text-anchor="middle" x="1435.5" y="-414" font-family="Courier,monospace" font-size="10.00">DGCoeffDiffusion</text>
</a>
</g>
</g>
<!-- Node31&#45;&gt;Node34 -->
<g id="edge33" class="edge">
<title>Node31&#45;&gt;Node34</title>
<path fill="none" stroke="#63b8ff" d="M1327.69,-416.5C1343.93,-416.5 1362.1,-416.5 1378.79,-416.5"/>
<polygon fill="#63b8ff" stroke="#63b8ff" points="1327.78,-413 1317.78,-416.5 1327.78,-420 1327.78,-413"/>
</g>
<!-- Node35 -->
<g id="node35" class="node">
<title>Node35</title>
<g id="a_node35"><a xlink:href="classDGEFieldAdvection.html" target="_top" xlink:title=" ">
<polygon fill="white" stroke="#666666" points="1495,-389 1376,-389 1376,-370 1495,-370 1495,-389"/>
<text text-anchor="middle" x="1435.5" y="-377" font-family="Courier,monospace" font-size="10.00">DGEFieldAdvection</text>
</a>
</g>
</g>
<!-- Node31&#45;&gt;Node35 -->
<g id="edge34" class="edge">
<title>Node31&#45;&gt;Node35</title>
<path fill="none" stroke="#63b8ff" d="M1327.18,-404.95C1348.09,-399.99 1372.29,-394.25 1392.42,-389.48"/>
<polygon fill="#63b8ff" stroke="#63b8ff" points="1326.66,-401.48 1317.74,-407.19 1328.27,-408.29 1326.66,-401.48"/>
</g>
<!-- Node37 -->
<g id="node37" class="node">
<title>Node37</title>
<g id="a_node37"><a xlink:href="classArrayDGDiffusion.html" target="_top" xlink:title="Array version of DGDiffusion.">
<polygon fill="white" stroke="#666666" points="1492,-352 1379,-352 1379,-333 1492,-333 1492,-352"/>
<text text-anchor="middle" x="1435.5" y="-340" font-family="Courier,monospace" font-size="10.00">ArrayDGDiffusion</text>
</a>
</g>
</g>
<!-- Node36&#45;&gt;Node37 -->
<g id="edge36" class="edge">
<title>Node36&#45;&gt;Node37</title>
<path fill="none" stroke="#63b8ff" d="M1336.61,-330.58C1350.36,-332.25 1365,-334.04 1378.65,-335.7"/>
<polygon fill="#63b8ff" stroke="#63b8ff" points="1337.16,-327.12 1326.81,-329.38 1336.31,-334.07 1337.16,-327.12"/>
</g>
<!-- Node38 -->
<g id="node38" class="node">
<title>Node38</title>
<g id="a_node38"><a xlink:href="classArrayDGLowerDKernel.html" target="_top" xlink:title="The DGKernel class is responsible for calculating the residuals for various physics on internal sides...">
<polygon fill="white" stroke="#666666" points="1501,-315 1370,-315 1370,-296 1501,-296 1501,-315"/>
<text text-anchor="middle" x="1435.5" y="-303" font-family="Courier,monospace" font-size="10.00">ArrayDGLowerDKernel</text>
</a>
</g>
</g>
<!-- Node36&#45;&gt;Node38 -->
<g id="edge37" class="edge">
<title>Node36&#45;&gt;Node38</title>
<path fill="none" stroke="#63b8ff" d="M1336.68,-316.79C1347.4,-315.55 1358.66,-314.25 1369.56,-312.99"/>
<polygon fill="#63b8ff" stroke="#63b8ff" points="1336.34,-313.3 1326.81,-317.93 1337.14,-320.26 1336.34,-313.3"/>
</g>
<!-- Node39 -->
<g id="node39" class="node">
<title>Node39</title>
<g id="a_node39"><a xlink:href="classArrayHFEMDiffusion.html" target="_top" xlink:title=" ">
<polygon fill="white" stroke="#666666" points="1698,-315 1573,-315 1573,-296 1698,-296 1698,-315"/>
<text text-anchor="middle" x="1635.5" y="-303" font-family="Courier,monospace" font-size="10.00">ArrayHFEMDiffusion</text>
</a>
</g>
</g>
<!-- Node38&#45;&gt;Node39 -->
<g id="edge38" class="edge">
<title>Node38&#45;&gt;Node39</title>
<path fill="none" stroke="#63b8ff" d="M1512.8,-305.5C1532.57,-305.5 1553.62,-305.5 1572.55,-305.5"/>
<polygon fill="#63b8ff" stroke="#63b8ff" points="1512.85,-302 1502.85,-305.5 1512.85,-309 1512.85,-302"/>
</g>
<!-- Node41 -->
<g id="node41" class="node">
<title>Node41</title>
<g id="a_node41"><a xlink:href="classDGConvection.html" target="_top" xlink:title=" ">
<polygon fill="white" stroke="#666666" points="1480,-278 1391,-278 1391,-259 1480,-259 1480,-278"/>
<text text-anchor="middle" x="1435.5" y="-266" font-family="Courier,monospace" font-size="10.00">DGConvection</text>
</a>
</g>
</g>
<!-- Node40&#45;&gt;Node41 -->
<g id="edge40" class="edge">
<title>Node40&#45;&gt;Node41</title>
<path fill="none" stroke="#63b8ff" d="M1290.55,-177.06C1304.75,-198.4 1330.33,-232 1361,-250.5 1370,-255.93 1380.55,-259.72 1390.81,-262.37"/>
<polygon fill="#63b8ff" stroke="#63b8ff" points="1293.53,-175.21 1285.18,-168.69 1287.64,-179 1293.53,-175.21"/>
</g>
<!-- Node42 -->
<g id="node42" class="node">
<title>Node42</title>
<g id="a_node42"><a xlink:href="classDGCoupledAdvection.html" target="_top" xlink:title=" ">
<polygon fill="white" stroke="#666666" points="1498,-241 1373,-241 1373,-222 1498,-222 1498,-241"/>
<text text-anchor="middle" x="1435.5" y="-229" font-family="Courier,monospace" font-size="10.00">DGCoupledAdvection</text>
</a>
</g>
</g>
<!-- Node40&#45;&gt;Node42 -->
<g id="edge41" class="edge">
<title>Node40&#45;&gt;Node42</title>
<path fill="none" stroke="#63b8ff" d="M1299.59,-174.46C1315.6,-186.59 1338.62,-202.49 1361,-212.5 1368.94,-216.05 1377.67,-219.03 1386.26,-221.51"/>
<polygon fill="#63b8ff" stroke="#63b8ff" points="1301.83,-171.77 1291.78,-168.4 1297.54,-177.3 1301.83,-171.77"/>
</g>
<!-- Node43 -->
<g id="node43" class="node">
<title>Node43</title>
<g id="a_node43"><a xlink:href="classDGDiffusion.html" target="_top" xlink:title="DG kernel for diffusion.">
<polygon fill="white" stroke="#666666" points="1477,-204 1394,-204 1394,-185 1477,-185 1477,-204"/>
<text text-anchor="middle" x="1435.5" y="-192" font-family="Courier,monospace" font-size="10.00">DGDiffusion</text>
</a>
</g>
</g>
<!-- Node40&#45;&gt;Node43 -->
<g id="edge42" class="edge">
<title>Node40&#45;&gt;Node43</title>
<path fill="none" stroke="#63b8ff" d="M1321.4,-167.68C1343.95,-173.02 1371.45,-179.55 1393.69,-184.82"/>
<polygon fill="#63b8ff" stroke="#63b8ff" points="1322.46,-164.33 1311.92,-165.43 1320.84,-171.14 1322.46,-164.33"/>
</g>
<!-- Node44 -->
<g id="node44" class="node">
<title>Node44</title>
<g id="a_node44"><a xlink:href="classDGFunctionConvection.html" target="_top" xlink:title=" ">
<polygon fill="white" stroke="#666666" points="1504,-167 1367,-167 1367,-148 1504,-148 1504,-167"/>
<text text-anchor="middle" x="1435.5" y="-155" font-family="Courier,monospace" font-size="10.00">DGFunctionConvection</text>
</a>
</g>
</g>
<!-- Node40&#45;&gt;Node44 -->
<g id="edge43" class="edge">
<title>Node40&#45;&gt;Node44</title>
<path fill="none" stroke="#63b8ff" d="M1321.63,-157.5C1335.54,-157.5 1351.3,-157.5 1366.55,-157.5"/>
<polygon fill="#63b8ff" stroke="#63b8ff" points="1321.96,-154 1311.96,-157.5 1321.96,-161 1321.96,-154"/>
</g>
<!-- Node47 -->
<g id="node47" class="node">
<title>Node47</title>
<g id="a_node47"><a xlink:href="classDGLowerDKernel.html" target="_top" xlink:title="The DGKernel class is responsible for calculating the residuals for various physics on internal sides...">
<polygon fill="white" stroke="#666666" points="1486,-130 1385,-130 1385,-111 1486,-111 1486,-130"/>
<text text-anchor="middle" x="1435.5" y="-118" font-family="Courier,monospace" font-size="10.00">DGLowerDKernel</text>
</a>
</g>
</g>
<!-- Node40&#45;&gt;Node47 -->
<g id="edge46" class="edge">
<title>Node40&#45;&gt;Node47</title>
<path fill="none" stroke="#63b8ff" d="M1321.54,-147.29C1343.67,-142.04 1370.55,-135.67 1392.53,-130.46"/>
<polygon fill="#63b8ff" stroke="#63b8ff" points="1320.84,-143.86 1311.92,-149.57 1322.46,-150.67 1320.84,-143.86"/>
</g>
<!-- Node49 -->
<g id="node49" class="node">
<title>Node49</title>
<g id="a_node49"><a xlink:href="classDGTemperatureAdvection.html" target="_top" xlink:title=" ">
<polygon fill="white" stroke="#666666" points="1510,-93 1361,-93 1361,-74 1510,-74 1510,-93"/>
<text text-anchor="middle" x="1435.5" y="-81" font-family="Courier,monospace" font-size="10.00">DGTemperatureAdvection</text>
</a>
</g>
</g>
<!-- Node40&#45;&gt;Node49 -->
<g id="edge48" class="edge">
<title>Node40&#45;&gt;Node49</title>
<path fill="none" stroke="#63b8ff" d="M1298.94,-140.56C1314.93,-128.1 1338.21,-111.63 1361,-101.5 1368.08,-98.35 1375.81,-95.7 1383.5,-93.48"/>
<polygon fill="#63b8ff" stroke="#63b8ff" points="1296.81,-137.79 1291.18,-146.76 1301.18,-143.26 1296.81,-137.79"/>
</g>
<!-- Node50 -->
<g id="node50" class="node">
<title>Node50</title>
<g id="a_node50"><a xlink:href="classHFEMTestJump.html" target="_top" xlink:title="The HFEMTestJump class computes an L2 product (lambda, [u*])_Gamma, where Gamma is the set of interna...">
<polygon fill="white" stroke="#666666" points="1480,-56 1391,-56 1391,-37 1480,-37 1480,-56"/>
<text text-anchor="middle" x="1435.5" y="-44" font-family="Courier,monospace" font-size="10.00">HFEMTestJump</text>
</a>
</g>
</g>
<!-- Node40&#45;&gt;Node50 -->
<g id="edge49" class="edge">
<title>Node40&#45;&gt;Node50</title>
<path fill="none" stroke="#63b8ff" d="M1290.55,-137.94C1304.75,-116.6 1330.33,-83 1361,-64.5 1370,-59.07 1380.55,-55.28 1390.81,-52.63"/>
<polygon fill="#63b8ff" stroke="#63b8ff" points="1287.64,-136 1285.18,-146.31 1293.53,-139.79 1287.64,-136"/>
</g>
<!-- Node51 -->
<g id="node51" class="node">
<title>Node51</title>
<g id="a_node51"><a xlink:href="classHFEMTrialJump.html" target="_top" xlink:title="The HFEMTrialJump class computes an L2 product (lambda*, [u])_Gamma, where Gamma is the set of intern...">
<polygon fill="white" stroke="#666666" points="1483,-19 1388,-19 1388,0 1483,0 1483,-19"/>
<text text-anchor="middle" x="1435.5" y="-7" font-family="Courier,monospace" font-size="10.00">HFEMTrialJump</text>
</a>
</g>
</g>
<!-- Node40&#45;&gt;Node51 -->
<g id="edge50" class="edge">
<title>Node40&#45;&gt;Node51</title>
<path fill="none" stroke="#63b8ff" d="M1285.8,-137.01C1297.2,-108.02 1322.07,-55.45 1361,-27.5 1368.9,-21.83 1378.37,-17.93 1387.85,-15.26"/>
<polygon fill="#63b8ff" stroke="#63b8ff" points="1282.62,-135.52 1282.38,-146.11 1289.17,-137.98 1282.62,-135.52"/>
</g>
<!-- Node45 -->
<g id="node45" class="node">
<title>Node45</title>
<g id="a_node45"><a xlink:href="classDerivativeMaterialInterface.html" target="_top" xlink:title=" ">
<polygon fill="white" stroke="#666666" points="1725,-175.5 1546,-175.5 1546,-145.5 1725,-145.5 1725,-175.5"/>
<text text-anchor="start" x="1554" y="-163.5" font-family="Courier,monospace" font-size="10.00">DerivativeMaterialInterface</text>
<text text-anchor="middle" x="1635.5" y="-152.5" font-family="Courier,monospace" font-size="10.00">&lt; DGFunctionConvection &gt;</text>
</a>
</g>
</g>
<!-- Node44&#45;&gt;Node45 -->
<g id="edge44" class="edge">
<title>Node44&#45;&gt;Node45</title>
<path fill="none" stroke="#63b8ff" d="M1515.78,-158.7C1525.63,-158.85 1535.75,-159 1545.73,-159.16"/>
<polygon fill="#63b8ff" stroke="#63b8ff" points="1515.93,-155.2 1505.88,-158.55 1515.82,-162.2 1515.93,-155.2"/>
</g>
<!-- Node46 -->
<g id="node46" class="node">
<title>Node46</title>
<g id="a_node46"><a xlink:href="classDGFunctionTemperatureAdvection.html" target="_top" xlink:title=" ">
<polygon fill="white" stroke="#666666" points="1958,-170 1761,-170 1761,-151 1958,-151 1958,-170"/>
<text text-anchor="middle" x="1859.5" y="-158" font-family="Courier,monospace" font-size="10.00">DGFunctionTemperatureAdvection</text>
</a>
</g>
</g>
<!-- Node45&#45;&gt;Node46 -->
<g id="edge45" class="edge">
<title>Node45&#45;&gt;Node46</title>
<path fill="none" stroke="#63b8ff" d="M1736.54,-160.5C1744.62,-160.5 1752.77,-160.5 1760.83,-160.5"/>
<polygon fill="#63b8ff" stroke="#63b8ff" points="1736.71,-157 1726.71,-160.5 1736.71,-164 1736.71,-157"/>
</g>
<!-- Node48 -->
<g id="node48" class="node">
<title>Node48</title>
<g id="a_node48"><a xlink:href="classHFEMDiffusion.html" target="_top" xlink:title=" ">
<polygon fill="white" stroke="#666666" points="1683,-127 1588,-127 1588,-108 1683,-108 1683,-127"/>
<text text-anchor="middle" x="1635.5" y="-115" font-family="Courier,monospace" font-size="10.00">HFEMDiffusion</text>
</a>
</g>
</g>
<!-- Node47&#45;&gt;Node48 -->
<g id="edge47" class="edge">
<title>Node47&#45;&gt;Node48</title>
<path fill="none" stroke="#63b8ff" d="M1497.7,-119.57C1526.68,-119.13 1560.73,-118.62 1587.62,-118.21"/>
<polygon fill="#63b8ff" stroke="#63b8ff" points="1497.92,-116.07 1487.98,-119.72 1498.03,-123.07 1497.92,-116.07"/>
</g>
</g>
</svg>
