<?xml version="1.0" encoding="UTF-8" standalone="no"?>
<!DOCTYPE svg PUBLIC "-//W3C//DTD SVG 1.1//EN"
 "http://www.w3.org/Graphics/SVG/1.1/DTD/svg11.dtd">
<!-- Generated by graphviz version 7.0.5 (20221223.1930)
 -->
<!-- Title: ScalarKernel Pages: 1 -->
<!--zoomable 794 -->
<svg id="main" version="1.1" xmlns="http://www.w3.org/2000/svg" xmlns:xlink="http://www.w3.org/1999/xlink" xml:space="preserve" onload="init(evt)">
<style type="text/css"><![CDATA[
.edge:hover path { stroke: red; }
.edge:hover polygon { stroke: red; fill: red; }
]]></style>
<script type="text/javascript"><![CDATA[
var edges = document.getElementsByTagName('g');
if (edges && edges.length) {
  for (var i=0;i<edges.length;i++) {
    if (edges[i].id.substr(0,4)=='edge') {
      edges[i].setAttribute('class','edge');
    }
  }
}
]]></script>
        <defs>
                <circle id="rim" cx="0" cy="0" r="7"/>
                <circle id="rim2" cx="0" cy="0" r="3.5"/>
                <g id="zoomPlus">
                        <use xlink:href="#rim" fill="#404040">
                                <set attributeName="fill" to="#808080" begin="zoomplus.mouseover" end="zoomplus.mouseout"/>
                        </use>
                        <path d="M-4,0h8M0,-4v8" fill="none" stroke="white" stroke-width="1.5" pointer-events="none"/>
                </g>
                <g id="zoomMin">
                        <use xlink:href="#rim" fill="#404040">
                                <set attributeName="fill" to="#808080" begin="zoomminus.mouseover" end="zoomminus.mouseout"/>
                        </use>
                        <path d="M-4,0h8" fill="none" stroke="white" stroke-width="1.5" pointer-events="none"/>
                </g>
                <g id="dirArrow">
                        <path fill="none" stroke="white" stroke-width="1.5" d="M0,-3.0v7 M-2.5,-0.5L0,-3.0L2.5,-0.5"/>
                </g>
               <g id="resetDef">
                       <use xlink:href="#rim2" fill="#404040">
                               <set attributeName="fill" to="#808080" begin="reset.mouseover" end="reset.mouseout"/>
                       </use>
               </g>
        </defs>

<script type="text/javascript">
var viewWidth = 1625;
var viewHeight = 794;
var sectionId = 'dynsection-0';
</script>
<script xlink:href="svgpan.js"/>
<svg id="graph" class="graph">
<g id="viewport">
<title>ScalarKernel</title>
<!-- Node1 -->
<g id="node1" class="node">
<title>Node1</title>
<g id="a_node1"><a xlink:title=" ">
<polygon fill="#999999" stroke="#666666" points="1008,-508 919,-508 919,-489 1008,-489 1008,-508"/>
<text text-anchor="middle" x="963.5" y="-496" font-family="Courier,monospace" font-size="10.00">ScalarKernel</text>
</a>
</g>
</g>
<!-- Node22 -->
<g id="node22" class="node">
<title>Node22</title>
<g id="a_node22"><a xlink:href="classAverageValueConstraint.html" target="_top" xlink:title="This Kernel implements part of the equation that enforces the constraint of.">
<polygon fill="white" stroke="#666666" points="1193,-564 1044,-564 1044,-545 1193,-545 1193,-564"/>
<text text-anchor="middle" x="1118.5" y="-552" font-family="Courier,monospace" font-size="10.00">AverageValueConstraint</text>
</a>
</g>
</g>
<!-- Node1&#45;&gt;Node22 -->
<g id="edge21" class="edge">
<title>Node1&#45;&gt;Node22</title>
<path fill="none" stroke="#63b8ff" d="M992.48,-513.62C1007.45,-521.25 1026.38,-530.21 1044,-536.5 1052.54,-539.55 1061.81,-542.26 1070.81,-544.6"/>
<polygon fill="#63b8ff" stroke="#63b8ff" points="994.19,-510.56 983.7,-509.05 990.96,-516.77 994.19,-510.56"/>
</g>
<!-- Node23 -->
<g id="node23" class="node">
<title>Node23</title>
<g id="a_node23"><a xlink:href="classNodalScalarKernel.html" target="_top" xlink:title=" ">
<polygon fill="white" stroke="#666666" points="1178,-527 1059,-527 1059,-508 1178,-508 1178,-527"/>
<text text-anchor="middle" x="1118.5" y="-515" font-family="Courier,monospace" font-size="10.00">NodalScalarKernel</text>
</a>
</g>
</g>
<!-- Node1&#45;&gt;Node23 -->
<g id="edge22" class="edge">
<title>Node1&#45;&gt;Node23</title>
<path fill="none" stroke="#63b8ff" d="M1019.66,-505.35C1032.28,-506.92 1045.75,-508.59 1058.53,-510.18"/>
<polygon fill="#63b8ff" stroke="#63b8ff" points="1020.2,-501.89 1009.85,-504.13 1019.34,-508.84 1020.2,-501.89"/>
</g>
<!-- Node25 -->
<g id="node25" class="node">
<title>Node25</title>
<g id="a_node25"><a xlink:href="classNullScalarKernel.html" target="_top" xlink:title="Scalar kernel that sets a zero residual, to avoid error from system missing this variable.">
<polygon fill="white" stroke="#666666" points="1175,-490 1062,-490 1062,-471 1175,-471 1175,-490"/>
<text text-anchor="middle" x="1118.5" y="-478" font-family="Courier,monospace" font-size="10.00">NullScalarKernel</text>
</a>
</g>
</g>
<!-- Node1&#45;&gt;Node25 -->
<g id="edge24" class="edge">
<title>Node1&#45;&gt;Node25</title>
<path fill="none" stroke="#63b8ff" d="M1019.56,-492.02C1033.24,-490.41 1047.91,-488.69 1061.63,-487.07"/>
<polygon fill="#63b8ff" stroke="#63b8ff" points="1019.37,-488.52 1009.85,-493.17 1020.19,-495.47 1019.37,-488.52"/>
</g>
<!-- Node26 -->
<g id="node26" class="node">
<title>Node26</title>
<g id="a_node26"><a xlink:href="classODEKernel.html" target="_top" xlink:title=" ">
<polygon fill="white" stroke="#666666" points="1154,-333 1083,-333 1083,-314 1154,-314 1154,-333"/>
<text text-anchor="middle" x="1118.5" y="-321" font-family="Courier,monospace" font-size="10.00">ODEKernel</text>
</a>
</g>
</g>
<!-- Node1&#45;&gt;Node26 -->
<g id="edge25" class="edge">
<title>Node1&#45;&gt;Node26</title>
<path fill="none" stroke="#63b8ff" d="M980.43,-480.28C1012.58,-443.51 1084.22,-361.56 1108.93,-333.3"/>
<polygon fill="#63b8ff" stroke="#63b8ff" points="978.11,-477.62 974.16,-487.45 983.38,-482.23 978.11,-477.62"/>
</g>
<!-- Node2 -->
<g id="node2" class="node">
<title>Node2</title>
<g id="a_node2"><a xlink:href="classScalarKernelBase.html" target="_top" xlink:title="Base class shared by AD and non&#45;AD scalar kernels.">
<polygon fill="white" stroke="#666666" points="883,-508 770,-508 770,-489 883,-489 883,-508"/>
<text text-anchor="middle" x="826.5" y="-496" font-family="Courier,monospace" font-size="10.00">ScalarKernelBase</text>
</a>
</g>
</g>
<!-- Node2&#45;&gt;Node1 -->
<g id="edge1" class="edge">
<title>Node2&#45;&gt;Node1</title>
<path fill="none" stroke="#63b8ff" d="M894.46,-498.5C902.76,-498.5 911.07,-498.5 918.9,-498.5"/>
<polygon fill="#63b8ff" stroke="#63b8ff" points="894.7,-495 884.7,-498.5 894.7,-502 894.7,-495"/>
</g>
<!-- Node3 -->
<g id="node3" class="node">
<title>Node3</title>
<g id="a_node3"><a xlink:href="classResidualObject.html" target="_top" xlink:title="This is the common base class for objects that give residual contributions.">
<polygon fill="white" stroke="#666666" points="728,-527 627,-527 627,-508 728,-508 728,-527"/>
<text text-anchor="middle" x="677.5" y="-515" font-family="Courier,monospace" font-size="10.00">ResidualObject</text>
</a>
</g>
</g>
<!-- Node3&#45;&gt;Node2 -->
<g id="edge2" class="edge">
<title>Node3&#45;&gt;Node2</title>
<path fill="none" stroke="#63b8ff" d="M739.42,-509.63C749.46,-508.33 759.81,-506.99 769.72,-505.71"/>
<polygon fill="#63b8ff" stroke="#63b8ff" points="739.24,-506.12 729.77,-510.87 740.13,-513.06 739.24,-506.12"/>
</g>
<!-- Node4 -->
<g id="node4" class="node">
<title>Node4</title>
<g id="a_node4"><a xlink:href="classMooseObject.html" target="_top" xlink:title="Every object that can be built by the factory should be derived from this class.">
<polygon fill="white" stroke="#666666" points="534,-712 451,-712 451,-693 534,-693 534,-712"/>
<text text-anchor="middle" x="492.5" y="-700" font-family="Courier,monospace" font-size="10.00">MooseObject</text>
</a>
</g>
</g>
<!-- Node4&#45;&gt;Node3 -->
<g id="edge3" class="edge">
<title>Node4&#45;&gt;Node3</title>
<path fill="none" stroke="#63b8ff" d="M545.34,-700.25C559.23,-697.63 573.56,-692.88 585,-684.5 641.29,-643.3 666.95,-556.57 674.23,-527.35"/>
<polygon fill="#63b8ff" stroke="#63b8ff" points="545.21,-696.73 535.85,-701.71 546.26,-703.65 545.21,-696.73"/>
</g>
<!-- Node5 -->
<g id="node5" class="node">
<title>Node5</title>
<g id="a_node5"><a xlink:href="classMooseBase.html" target="_top" xlink:title="Base class for everything in MOOSE with a name and a type.">
<polygon fill="white" stroke="#666666" points="310,-786 239,-786 239,-767 310,-767 310,-786"/>
<text text-anchor="middle" x="274.5" y="-774" font-family="Courier,monospace" font-size="10.00">MooseBase</text>
</a>
</g>
</g>
<!-- Node5&#45;&gt;Node4 -->
<g id="edge4" class="edge">
<title>Node5&#45;&gt;Node4</title>
<path fill="none" stroke="#63b8ff" d="M321.62,-769.05C335.41,-766.31 350.46,-762.8 364,-758.5 403.87,-745.85 448.08,-724.72 472.56,-712.35"/>
<polygon fill="#63b8ff" stroke="#63b8ff" points="321.06,-765.59 311.89,-770.89 322.36,-772.47 321.06,-765.59"/>
</g>
<!-- Node6 -->
<g id="node6" class="node">
<title>Node6</title>
<g id="a_node6"><a xlink:href="classMooseBaseParameterInterface.html" target="_top" xlink:title="Every object that can be built by the factory should be derived from this class.">
<polygon fill="white" stroke="#666666" points="364,-749 185,-749 185,-730 364,-730 364,-749"/>
<text text-anchor="middle" x="274.5" y="-737" font-family="Courier,monospace" font-size="10.00">MooseBaseParameterInterface</text>
</a>
</g>
</g>
<!-- Node6&#45;&gt;Node4 -->
<g id="edge5" class="edge">
<title>Node6&#45;&gt;Node4</title>
<path fill="none" stroke="#63b8ff" d="M344.77,-727.63C379.7,-721.65 420.85,-714.6 450.68,-709.49"/>
<polygon fill="#63b8ff" stroke="#63b8ff" points="344.43,-724.14 335.16,-729.28 345.61,-731.04 344.43,-724.14"/>
</g>
<!-- Node7 -->
<g id="node7" class="node">
<title>Node7</title>
<g id="a_node7"><a xlink:href="classMooseBaseErrorInterface.html" target="_top" xlink:title="Interface that provides APIs to output errors/warnings/info messages.">
<polygon fill="white" stroke="#666666" points="352,-712 197,-712 197,-693 352,-693 352,-712"/>
<text text-anchor="middle" x="274.5" y="-700" font-family="Courier,monospace" font-size="10.00">MooseBaseErrorInterface</text>
</a>
</g>
</g>
<!-- Node7&#45;&gt;Node4 -->
<g id="edge6" class="edge">
<title>Node7&#45;&gt;Node4</title>
<path fill="none" stroke="#63b8ff" d="M363.7,-702.5C393.87,-702.5 426.17,-702.5 450.75,-702.5"/>
<polygon fill="#63b8ff" stroke="#63b8ff" points="363.78,-699 353.78,-702.5 363.78,-706 363.78,-699"/>
</g>
<!-- Node8 -->
<g id="node8" class="node">
<title>Node8</title>
<g id="a_node8"><a xlink:href="classConsoleStreamInterface.html" target="_top" xlink:title="An inteface for the _console for outputting to the Console object.">
<polygon fill="white" stroke="#666666" points="149,-712 0,-712 0,-693 149,-693 149,-712"/>
<text text-anchor="middle" x="74.5" y="-700" font-family="Courier,monospace" font-size="10.00">ConsoleStreamInterface</text>
</a>
</g>
</g>
<!-- Node8&#45;&gt;Node7 -->
<g id="edge7" class="edge">
<title>Node8&#45;&gt;Node7</title>
<path fill="none" stroke="#63b8ff" d="M160.62,-702.5C172.62,-702.5 184.9,-702.5 196.73,-702.5"/>
<polygon fill="#63b8ff" stroke="#63b8ff" points="160.74,-699 150.74,-702.5 160.74,-706 160.74,-699"/>
</g>
<!-- Node9 -->
<g id="node9" class="node">
<title>Node9</title>
<g id="a_node9"><a xlink:title=" ">
<polygon fill="white" stroke="#666666" points="352,-675 197,-675 197,-656 352,-656 352,-675"/>
<text text-anchor="middle" x="274.5" y="-663" font-family="Courier,monospace" font-size="10.00">libMesh::ParallelObject</text>
</a>
</g>
</g>
<!-- Node9&#45;&gt;Node4 -->
<g id="edge8" class="edge">
<title>Node9&#45;&gt;Node4</title>
<path fill="none" stroke="#63b8ff" d="M344.77,-677.37C379.7,-683.35 420.85,-690.4 450.68,-695.51"/>
<polygon fill="#63b8ff" stroke="#63b8ff" points="345.61,-673.96 335.16,-675.72 344.43,-680.86 345.61,-673.96"/>
</g>
<!-- Node10 -->
<g id="node10" class="node">
<title>Node10</title>
<g id="a_node10"><a xlink:href="classDataFileInterface.html" target="_top" xlink:title=" ">
<polygon fill="white" stroke="#666666" points="337,-637.5 212,-637.5 212,-607.5 337,-607.5 337,-637.5"/>
<text text-anchor="start" x="220" y="-625.5" font-family="Courier,monospace" font-size="10.00">DataFileInterface&lt;</text>
<text text-anchor="middle" x="274.5" y="-614.5" font-family="Courier,monospace" font-size="10.00"> MooseObject &gt;</text>
</a>
</g>
</g>
<!-- Node10&#45;&gt;Node4 -->
<g id="edge9" class="edge">
<title>Node10&#45;&gt;Node4</title>
<path fill="none" stroke="#63b8ff" d="M347.62,-639.35C353.32,-641.73 358.86,-644.44 364,-647.5 383.71,-659.24 379.83,-673.57 400,-684.5 415.37,-692.83 434.06,-697.34 450.53,-699.76"/>
<polygon fill="#63b8ff" stroke="#63b8ff" points="349.23,-636.22 338.64,-635.94 346.74,-642.76 349.23,-636.22"/>
</g>
<!-- Node11 -->
<g id="node11" class="node">
<title>Node11</title>
<g id="a_node11"><a xlink:href="classSetupInterface.html" target="_top" xlink:title=" ">
<polygon fill="white" stroke="#666666" points="543,-675 442,-675 442,-656 543,-656 543,-675"/>
<text text-anchor="middle" x="492.5" y="-663" font-family="Courier,monospace" font-size="10.00">SetupInterface</text>
</a>
</g>
</g>
<!-- Node11&#45;&gt;Node3 -->
<g id="edge10" class="edge">
<title>Node11&#45;&gt;Node3</title>
<path fill="none" stroke="#63b8ff" d="M554.34,-660.28C565.13,-657.52 575.83,-653.45 585,-647.5 632.45,-616.69 662.58,-551.86 672.7,-527.25"/>
<polygon fill="#63b8ff" stroke="#63b8ff" points="553.65,-656.85 544.61,-662.38 555.13,-663.69 553.65,-656.85"/>
</g>
<!-- Node12 -->
<g id="node12" class="node">
<title>Node12</title>
<g id="a_node12"><a xlink:href="classFunctionInterface.html" target="_top" xlink:title="Interface for objects that need to use functions.">
<polygon fill="white" stroke="#666666" points="552,-638 433,-638 433,-619 552,-619 552,-638"/>
<text text-anchor="middle" x="492.5" y="-626" font-family="Courier,monospace" font-size="10.00">FunctionInterface</text>
</a>
</g>
</g>
<!-- Node12&#45;&gt;Node3 -->
<g id="edge11" class="edge">
<title>Node12&#45;&gt;Node3</title>
<path fill="none" stroke="#63b8ff" d="M563.47,-619.31C570.97,-617 578.3,-614.11 585,-610.5 623.89,-589.56 656.62,-546.56 670.01,-527.26"/>
<polygon fill="#63b8ff" stroke="#63b8ff" points="562.61,-615.92 553.88,-621.91 564.44,-622.68 562.61,-615.92"/>
</g>
<!-- Node13 -->
<g id="node13" class="node">
<title>Node13</title>
<g id="a_node13"><a xlink:href="classUserObjectInterface.html" target="_top" xlink:title="Interface for objects that need to use UserObjects.">
<polygon fill="white" stroke="#666666" points="558,-601 427,-601 427,-582 558,-582 558,-601"/>
<text text-anchor="middle" x="492.5" y="-589" font-family="Courier,monospace" font-size="10.00">UserObjectInterface</text>
</a>
</g>
</g>
<!-- Node13&#45;&gt;Node3 -->
<g id="edge12" class="edge">
<title>Node13&#45;&gt;Node3</title>
<path fill="none" stroke="#63b8ff" d="M569.38,-578.77C574.73,-577.21 579.98,-575.46 585,-573.5 615.19,-561.73 646.61,-540.09 663.64,-527.43"/>
<polygon fill="#63b8ff" stroke="#63b8ff" points="568.53,-575.38 559.78,-581.35 570.34,-582.14 568.53,-575.38"/>
</g>
<!-- Node14 -->
<g id="node14" class="node">
<title>Node14</title>
<g id="a_node14"><a xlink:href="classTransientInterface.html" target="_top" xlink:title="Interface for objects that needs transient capabilities.">
<polygon fill="white" stroke="#666666" points="555,-564 430,-564 430,-545 555,-545 555,-564"/>
<text text-anchor="middle" x="492.5" y="-552" font-family="Courier,monospace" font-size="10.00">TransientInterface</text>
</a>
</g>
</g>
<!-- Node14&#45;&gt;Node3 -->
<g id="edge13" class="edge">
<title>Node14&#45;&gt;Node3</title>
<path fill="none" stroke="#63b8ff" d="M556.06,-542.28C565.75,-540.37 575.65,-538.39 585,-536.5 599.31,-533.61 614.87,-530.4 629.03,-527.46"/>
<polygon fill="#63b8ff" stroke="#63b8ff" points="555.43,-538.84 546.3,-544.21 556.79,-545.71 555.43,-538.84"/>
</g>
<!-- Node15 -->
<g id="node15" class="node">
<title>Node15</title>
<g id="a_node15"><a xlink:href="classPostprocessorInterface.html" target="_top" xlink:title="Interface class for classes which interact with Postprocessors.">
<polygon fill="white" stroke="#666666" points="567,-527 418,-527 418,-508 567,-508 567,-527"/>
<text text-anchor="middle" x="492.5" y="-515" font-family="Courier,monospace" font-size="10.00">PostprocessorInterface</text>
</a>
</g>
</g>
<!-- Node15&#45;&gt;Node3 -->
<g id="edge14" class="edge">
<title>Node15&#45;&gt;Node3</title>
<path fill="none" stroke="#63b8ff" d="M578.72,-517.5C595.16,-517.5 611.87,-517.5 626.71,-517.5"/>
<polygon fill="#63b8ff" stroke="#63b8ff" points="578.92,-514 568.92,-517.5 578.92,-521 578.92,-514"/>
</g>
<!-- Node16 -->
<g id="node16" class="node">
<title>Node16</title>
<g id="a_node16"><a xlink:href="classVectorPostprocessorInterface.html" target="_top" xlink:title=" ">
<polygon fill="white" stroke="#666666" points="585,-490 400,-490 400,-471 585,-471 585,-490"/>
<text text-anchor="middle" x="492.5" y="-478" font-family="Courier,monospace" font-size="10.00">VectorPostprocessorInterface</text>
</a>
</g>
</g>
<!-- Node16&#45;&gt;Node3 -->
<g id="edge15" class="edge">
<title>Node16&#45;&gt;Node3</title>
<path fill="none" stroke="#63b8ff" d="M553.62,-492.65C577.5,-497.48 604.64,-502.97 627.32,-507.56"/>
<polygon fill="#63b8ff" stroke="#63b8ff" points="554.52,-489.27 544.02,-490.72 553.13,-496.13 554.52,-489.27"/>
</g>
<!-- Node17 -->
<g id="node17" class="node">
<title>Node17</title>
<g id="a_node17"><a xlink:href="classRandomInterface.html" target="_top" xlink:title="Interface for objects that need parallel consistent random numbers without patterns over the course o...">
<polygon fill="white" stroke="#666666" points="546,-453 439,-453 439,-434 546,-434 546,-453"/>
<text text-anchor="middle" x="492.5" y="-441" font-family="Courier,monospace" font-size="10.00">RandomInterface</text>
</a>
</g>
</g>
<!-- Node17&#45;&gt;Node3 -->
<g id="edge16" class="edge">
<title>Node17&#45;&gt;Node3</title>
<path fill="none" stroke="#63b8ff" d="M557.17,-450.72C566.85,-453.3 576.45,-456.79 585,-461.5 605.38,-472.72 601.33,-487.08 621,-499.5 626.05,-502.69 631.73,-505.37 637.46,-507.59"/>
<polygon fill="#63b8ff" stroke="#63b8ff" points="558.26,-447.38 547.73,-448.51 556.67,-454.2 558.26,-447.38"/>
</g>
<!-- Node18 -->
<g id="node18" class="node">
<title>Node18</title>
<g id="a_node18"><a xlink:href="classRestartable.html" target="_top" xlink:title="A class for creating restricted objects.">
<polygon fill="white" stroke="#666666" points="534,-416 451,-416 451,-397 534,-397 534,-416"/>
<text text-anchor="middle" x="492.5" y="-404" font-family="Courier,monospace" font-size="10.00">Restartable</text>
</a>
</g>
</g>
<!-- Node18&#45;&gt;Node3 -->
<g id="edge17" class="edge">
<title>Node18&#45;&gt;Node3</title>
<path fill="none" stroke="#63b8ff" d="M545.26,-408.28C559.28,-410.89 573.69,-415.74 585,-424.5 614.24,-447.13 593.16,-475.16 621,-499.5 624.74,-502.77 629.08,-505.44 633.65,-507.63"/>
<polygon fill="#63b8ff" stroke="#63b8ff" points="546.07,-404.86 535.67,-406.86 545.05,-411.79 546.07,-404.86"/>
</g>
<!-- Node19 -->
<g id="node19" class="node">
<title>Node19</title>
<g id="a_node19"><a xlink:href="classMeshChangedInterface.html" target="_top" xlink:title="Interface for notifications that the mesh has changed.">
<polygon fill="white" stroke="#666666" points="561,-379 424,-379 424,-360 561,-360 561,-379"/>
<text text-anchor="middle" x="492.5" y="-367" font-family="Courier,monospace" font-size="10.00">MeshChangedInterface</text>
</a>
</g>
</g>
<!-- Node19&#45;&gt;Node3 -->
<g id="edge18" class="edge">
<title>Node19&#45;&gt;Node3</title>
<path fill="none" stroke="#63b8ff" d="M571.63,-378.54C576.46,-380.97 580.98,-383.92 585,-387.5 624.07,-422.25 584.08,-462.48 621,-499.5 624.22,-502.73 628.02,-505.38 632.1,-507.55"/>
<polygon fill="#63b8ff" stroke="#63b8ff" points="573.35,-375.46 562.77,-374.84 570.65,-381.92 573.35,-375.46"/>
</g>
<!-- Node20 -->
<g id="node20" class="node">
<title>Node20</title>
<g id="a_node20"><a xlink:href="classTaggingInterface.html" target="_top" xlink:title=" ">
<polygon fill="white" stroke="#666666" points="549,-342 436,-342 436,-323 549,-323 549,-342"/>
<text text-anchor="middle" x="492.5" y="-330" font-family="Courier,monospace" font-size="10.00">TaggingInterface</text>
</a>
</g>
</g>
<!-- Node20&#45;&gt;Node3 -->
<g id="edge19" class="edge">
<title>Node20&#45;&gt;Node3</title>
<path fill="none" stroke="#63b8ff" d="M560.1,-336.23C569.33,-339.27 578.03,-343.82 585,-350.5 634.19,-397.63 574.71,-449.52 621,-499.5 624.03,-502.77 627.66,-505.45 631.59,-507.64"/>
<polygon fill="#63b8ff" stroke="#63b8ff" points="561.11,-332.88 550.55,-333.7 559.32,-339.65 561.11,-332.88"/>
</g>
<!-- Node21 -->
<g id="node21" class="node">
<title>Node21</title>
<g id="a_node21"><a xlink:href="classScalarCoupleable.html" target="_top" xlink:title="Interface for objects that needs scalar coupling capabilities.">
<polygon fill="white" stroke="#666666" points="734,-490 621,-490 621,-471 734,-471 734,-490"/>
<text text-anchor="middle" x="677.5" y="-478" font-family="Courier,monospace" font-size="10.00">ScalarCoupleable</text>
</a>
</g>
</g>
<!-- Node21&#45;&gt;Node2 -->
<g id="edge20" class="edge">
<title>Node21&#45;&gt;Node2</title>
<path fill="none" stroke="#63b8ff" d="M745.71,-488.73C753.72,-489.71 761.83,-490.7 769.66,-491.66"/>
<polygon fill="#63b8ff" stroke="#63b8ff" points="746.35,-485.28 736,-487.54 745.5,-492.23 746.35,-485.28"/>
</g>
<!-- Node24 -->
<g id="node24" class="node">
<title>Node24</title>
<g id="a_node24"><a xlink:href="classNodalEqualValueConstraint.html" target="_top" xlink:title="Constraint to enforce equal values (in 1D)">
<polygon fill="white" stroke="#666666" points="1396,-648 1229,-648 1229,-629 1396,-629 1396,-648"/>
<text text-anchor="middle" x="1312.5" y="-636" font-family="Courier,monospace" font-size="10.00">NodalEqualValueConstraint</text>
</a>
</g>
</g>
<!-- Node23&#45;&gt;Node24 -->
<g id="edge23" class="edge">
<title>Node23&#45;&gt;Node24</title>
<path fill="none" stroke="#63b8ff" d="M1187.79,-532.55C1189.61,-533.77 1191.35,-535.08 1193,-536.5 1223.82,-562.96 1197.68,-594.63 1229,-620.5 1232.84,-623.67 1237.12,-626.32 1241.65,-628.53"/>
<polygon fill="#63b8ff" stroke="#63b8ff" points="1189.95,-529.75 1179.5,-527.97 1186.56,-535.87 1189.95,-529.75"/>
</g>
<!-- Node27 -->
<g id="node27" class="node">
<title>Node27</title>
<g id="a_node27"><a xlink:href="classEnergyTermScalar.html" target="_top" xlink:title=" ">
<polygon fill="white" stroke="#666666" points="1369,-611 1256,-611 1256,-592 1369,-592 1369,-611"/>
<text text-anchor="middle" x="1312.5" y="-599" font-family="Courier,monospace" font-size="10.00">EnergyTermScalar</text>
</a>
</g>
</g>
<!-- Node26&#45;&gt;Node27 -->
<g id="edge26" class="edge">
<title>Node26&#45;&gt;Node27</title>
<path fill="none" stroke="#63b8ff" d="M1131.52,-343C1147.28,-369.19 1175.02,-417.53 1193,-461.5 1214.4,-513.83 1187.61,-544.99 1229,-583.5 1236.41,-590.39 1245.81,-594.87 1255.6,-597.75"/>
<polygon fill="#63b8ff" stroke="#63b8ff" points="1134.54,-341.23 1126.35,-334.5 1128.56,-344.86 1134.54,-341.23"/>
</g>
<!-- Node28 -->
<g id="node28" class="node">
<title>Node28</title>
<g id="a_node28"><a xlink:href="classLogStabilizationScalar.html" target="_top" xlink:title=" ">
<polygon fill="white" stroke="#666666" points="1387,-574 1238,-574 1238,-555 1387,-555 1387,-574"/>
<text text-anchor="middle" x="1312.5" y="-562" font-family="Courier,monospace" font-size="10.00">LogStabilizationScalar</text>
</a>
</g>
</g>
<!-- Node26&#45;&gt;Node28 -->
<g id="edge27" class="edge">
<title>Node26&#45;&gt;Node28</title>
<path fill="none" stroke="#63b8ff" d="M1130.78,-343.33C1145.71,-369.88 1172.55,-418.62 1193,-461.5 1210.66,-498.53 1197.42,-520.31 1229,-546.5 1232.84,-549.68 1237.11,-552.34 1241.63,-554.55"/>
<polygon fill="#63b8ff" stroke="#63b8ff" points="1133.87,-341.69 1125.9,-334.7 1127.78,-345.13 1133.87,-341.69"/>
</g>
<!-- Node29 -->
<g id="node29" class="node">
<title>Node29</title>
<g id="a_node29"><a xlink:href="classODETimeKernel.html" target="_top" xlink:title="Base class for ODEKernels that contribute to the time residual vector.">
<polygon fill="white" stroke="#666666" points="1360,-537 1265,-537 1265,-518 1360,-518 1360,-537"/>
<text text-anchor="middle" x="1312.5" y="-525" font-family="Courier,monospace" font-size="10.00">ODETimeKernel</text>
</a>
</g>
</g>
<!-- Node26&#45;&gt;Node29 -->
<g id="edge28" class="edge">
<title>Node26&#45;&gt;Node29</title>
<path fill="none" stroke="#63b8ff" d="M1130.05,-343.43C1154.42,-389.13 1213.68,-498.41 1229,-509.5 1239.33,-516.98 1252.17,-521.46 1264.61,-524.1"/>
<polygon fill="#63b8ff" stroke="#63b8ff" points="1133.15,-341.8 1125.37,-334.62 1126.97,-345.09 1133.15,-341.8"/>
</g>
<!-- Node34 -->
<g id="node34" class="node">
<title>Node34</title>
<g id="a_node34"><a xlink:href="classParsedODEKernel.html" target="_top" xlink:title="Parsed ODE function kernel.">
<polygon fill="white" stroke="#666666" points="1366,-500 1259,-500 1259,-481 1366,-481 1366,-500"/>
<text text-anchor="middle" x="1312.5" y="-488" font-family="Courier,monospace" font-size="10.00">ParsedODEKernel</text>
</a>
</g>
</g>
<!-- Node26&#45;&gt;Node34 -->
<g id="edge33" class="edge">
<title>Node26&#45;&gt;Node34</title>
<path fill="none" stroke="#63b8ff" d="M1128.62,-343.73C1144.29,-376.06 1179.48,-439.05 1229,-471.5 1237.85,-477.3 1248.25,-481.34 1258.62,-484.15"/>
<polygon fill="#63b8ff" stroke="#63b8ff" points="1131.8,-342.26 1124.38,-334.69 1125.46,-345.23 1131.8,-342.26"/>
</g>
<!-- Node36 -->
<g id="node36" class="node">
<title>Node36</title>
<g id="a_node36"><a xlink:href="classProduct1BodyScalar.html" target="_top" xlink:title=" ">
<polygon fill="white" stroke="#666666" points="1375,-463 1250,-463 1250,-444 1375,-444 1375,-463"/>
<text text-anchor="middle" x="1312.5" y="-451" font-family="Courier,monospace" font-size="10.00">Product1BodyScalar</text>
</a>
</g>
</g>
<!-- Node26&#45;&gt;Node36 -->
<g id="edge35" class="edge">
<title>Node26&#45;&gt;Node36</title>
<path fill="none" stroke="#63b8ff" d="M1132.78,-342.53C1151.34,-367.63 1187.46,-411.3 1229,-434.5 1235.67,-438.23 1243.04,-441.22 1250.54,-443.63"/>
<polygon fill="#63b8ff" stroke="#63b8ff" points="1135.71,-340.62 1127.03,-334.55 1130.03,-344.71 1135.71,-340.62"/>
</g>
<!-- Node37 -->
<g id="node37" class="node">
<title>Node37</title>
<g id="a_node37"><a xlink:href="classProduct1BodyScalarLog.html" target="_top" xlink:title=" ">
<polygon fill="white" stroke="#666666" points="1384,-426 1241,-426 1241,-407 1384,-407 1384,-426"/>
<text text-anchor="middle" x="1312.5" y="-414" font-family="Courier,monospace" font-size="10.00">Product1BodyScalarLog</text>
</a>
</g>
</g>
<!-- Node26&#45;&gt;Node37 -->
<g id="edge36" class="edge">
<title>Node26&#45;&gt;Node37</title>
<path fill="none" stroke="#63b8ff" d="M1139.44,-340.33C1160.42,-357.2 1195.06,-382.74 1229,-397.5 1237.36,-401.14 1246.5,-404.12 1255.57,-406.57"/>
<polygon fill="#63b8ff" stroke="#63b8ff" points="1141.93,-337.85 1131.98,-334.21 1137.49,-343.26 1141.93,-337.85"/>
</g>
<!-- Node38 -->
<g id="node38" class="node">
<title>Node38</title>
<g id="a_node38"><a xlink:href="classProduct2BodyScalar.html" target="_top" xlink:title=" ">
<polygon fill="white" stroke="#666666" points="1375,-389 1250,-389 1250,-370 1375,-370 1375,-389"/>
<text text-anchor="middle" x="1312.5" y="-377" font-family="Courier,monospace" font-size="10.00">Product2BodyScalar</text>
</a>
</g>
</g>
<!-- Node26&#45;&gt;Node38 -->
<g id="edge37" class="edge">
<title>Node26&#45;&gt;Node38</title>
<path fill="none" stroke="#63b8ff" d="M1156.99,-337.2C1178,-344.62 1204.78,-353.64 1229,-360.5 1240.45,-363.75 1252.92,-366.84 1264.61,-369.55"/>
<polygon fill="#63b8ff" stroke="#63b8ff" points="1158.29,-333.95 1147.69,-333.88 1155.94,-340.54 1158.29,-333.95"/>
</g>
<!-- Node39 -->
<g id="node39" class="node">
<title>Node39</title>
<g id="a_node39"><a xlink:href="classProduct2BodyScalarLog.html" target="_top" xlink:title=" ">
<polygon fill="white" stroke="#666666" points="1384,-352 1241,-352 1241,-333 1384,-333 1384,-352"/>
<text text-anchor="middle" x="1312.5" y="-340" font-family="Courier,monospace" font-size="10.00">Product2BodyScalarLog</text>
</a>
</g>
</g>
<!-- Node26&#45;&gt;Node39 -->
<g id="edge38" class="edge">
<title>Node26&#45;&gt;Node39</title>
<path fill="none" stroke="#63b8ff" d="M1165.54,-328.06C1188.07,-330.29 1215.68,-333.02 1240.8,-335.5"/>
<polygon fill="#63b8ff" stroke="#63b8ff" points="1166.07,-324.59 1155.78,-327.09 1165.38,-331.56 1166.07,-324.59"/>
</g>
<!-- Node40 -->
<g id="node40" class="node">
<title>Node40</title>
<g id="a_node40"><a xlink:href="classProduct3BodyScalar.html" target="_top" xlink:title=" ">
<polygon fill="white" stroke="#666666" points="1375,-315 1250,-315 1250,-296 1375,-296 1375,-315"/>
<text text-anchor="middle" x="1312.5" y="-303" font-family="Courier,monospace" font-size="10.00">Product3BodyScalar</text>
</a>
</g>
</g>
<!-- Node26&#45;&gt;Node40 -->
<g id="edge39" class="edge">
<title>Node26&#45;&gt;Node40</title>
<path fill="none" stroke="#63b8ff" d="M1165.39,-319.2C1190.67,-316.83 1222.39,-313.85 1249.81,-311.28"/>
<polygon fill="#63b8ff" stroke="#63b8ff" points="1165.41,-315.68 1155.78,-320.1 1166.06,-322.65 1165.41,-315.68"/>
</g>
<!-- Node41 -->
<g id="node41" class="node">
<title>Node41</title>
<g id="a_node41"><a xlink:href="classProduct3BodyScalarLog.html" target="_top" xlink:title=" ">
<polygon fill="white" stroke="#666666" points="1384,-278 1241,-278 1241,-259 1384,-259 1384,-278"/>
<text text-anchor="middle" x="1312.5" y="-266" font-family="Courier,monospace" font-size="10.00">Product3BodyScalarLog</text>
</a>
</g>
</g>
<!-- Node26&#45;&gt;Node41 -->
<g id="edge40" class="edge">
<title>Node26&#45;&gt;Node41</title>
<path fill="none" stroke="#63b8ff" d="M1156.96,-309.69C1177.96,-302.24 1204.74,-293.22 1229,-286.5 1239.45,-283.6 1250.76,-280.88 1261.55,-278.46"/>
<polygon fill="#63b8ff" stroke="#63b8ff" points="1155.9,-306.35 1147.67,-313.02 1158.26,-312.94 1155.9,-306.35"/>
</g>
<!-- Node42 -->
<g id="node42" class="node">
<title>Node42</title>
<g id="a_node42"><a xlink:href="classReactant1BodyScalar.html" target="_top" xlink:title=" ">
<polygon fill="white" stroke="#666666" points="1378,-241 1247,-241 1247,-222 1378,-222 1378,-241"/>
<text text-anchor="middle" x="1312.5" y="-229" font-family="Courier,monospace" font-size="10.00">Reactant1BodyScalar</text>
</a>
</g>
</g>
<!-- Node26&#45;&gt;Node42 -->
<g id="edge41" class="edge">
<title>Node26&#45;&gt;Node42</title>
<path fill="none" stroke="#63b8ff" d="M1139.4,-306.59C1160.36,-289.65 1194.98,-264.07 1229,-249.5 1236.41,-246.33 1244.45,-243.69 1252.5,-241.5"/>
<polygon fill="#63b8ff" stroke="#63b8ff" points="1137.44,-303.67 1131.95,-312.73 1141.89,-309.07 1137.44,-303.67"/>
</g>
<!-- Node43 -->
<g id="node43" class="node">
<title>Node43</title>
<g id="a_node43"><a xlink:href="classReactant1BodyScalarLog.html" target="_top" xlink:title=" ">
<polygon fill="white" stroke="#666666" points="1387,-204 1238,-204 1238,-185 1387,-185 1387,-204"/>
<text text-anchor="middle" x="1312.5" y="-192" font-family="Courier,monospace" font-size="10.00">Reactant1BodyScalarLog</text>
</a>
</g>
</g>
<!-- Node26&#45;&gt;Node43 -->
<g id="edge42" class="edge">
<title>Node26&#45;&gt;Node43</title>
<path fill="none" stroke="#63b8ff" d="M1132.74,-304.4C1151.25,-279.22 1187.32,-235.46 1229,-212.5 1234.91,-209.25 1241.35,-206.58 1247.96,-204.4"/>
<polygon fill="#63b8ff" stroke="#63b8ff" points="1129.98,-302.24 1127,-312.41 1135.67,-306.32 1129.98,-302.24"/>
</g>
<!-- Node44 -->
<g id="node44" class="node">
<title>Node44</title>
<g id="a_node44"><a xlink:href="classReactant2BodyScalar.html" target="_top" xlink:title=" ">
<polygon fill="white" stroke="#666666" points="1378,-167 1247,-167 1247,-148 1378,-148 1378,-167"/>
<text text-anchor="middle" x="1312.5" y="-155" font-family="Courier,monospace" font-size="10.00">Reactant2BodyScalar</text>
</a>
</g>
</g>
<!-- Node26&#45;&gt;Node44 -->
<g id="edge43" class="edge">
<title>Node26&#45;&gt;Node44</title>
<path fill="none" stroke="#63b8ff" d="M1128.37,-303.63C1143.88,-271.33 1179.07,-207.81 1229,-175.5 1234.42,-172 1240.41,-169.16 1246.62,-166.88"/>
<polygon fill="#63b8ff" stroke="#63b8ff" points="1125.39,-301.73 1124.36,-312.28 1131.74,-304.68 1125.39,-301.73"/>
</g>
<!-- Node45 -->
<g id="node45" class="node">
<title>Node45</title>
<g id="a_node45"><a xlink:href="classReactant2BodyScalarLog.html" target="_top" xlink:title=" ">
<polygon fill="white" stroke="#666666" points="1387,-130 1238,-130 1238,-111 1387,-111 1387,-130"/>
<text text-anchor="middle" x="1312.5" y="-118" font-family="Courier,monospace" font-size="10.00">Reactant2BodyScalarLog</text>
</a>
</g>
</g>
<!-- Node26&#45;&gt;Node45 -->
<g id="edge44" class="edge">
<title>Node26&#45;&gt;Node45</title>
<path fill="none" stroke="#63b8ff" d="M1125.68,-302.58C1138.29,-263.72 1170.85,-180.51 1229,-138.5 1233.52,-135.24 1238.51,-132.55 1243.74,-130.33"/>
<polygon fill="#63b8ff" stroke="#63b8ff" points="1122.35,-301.5 1122.72,-312.09 1129.03,-303.58 1122.35,-301.5"/>
</g>
<!-- Node46 -->
<g id="node46" class="node">
<title>Node46</title>
<g id="a_node46"><a xlink:href="classReactant3BodyScalar.html" target="_top" xlink:title=" ">
<polygon fill="white" stroke="#666666" points="1378,-93 1247,-93 1247,-74 1378,-74 1378,-93"/>
<text text-anchor="middle" x="1312.5" y="-81" font-family="Courier,monospace" font-size="10.00">Reactant3BodyScalar</text>
</a>
</g>
</g>
<!-- Node26&#45;&gt;Node46 -->
<g id="edge45" class="edge">
<title>Node26&#45;&gt;Node46</title>
<path fill="none" stroke="#63b8ff" d="M1123.5,-302.5C1133.15,-257.98 1162,-153.9 1229,-101.5 1234.31,-97.35 1240.38,-94.1 1246.76,-91.58"/>
<polygon fill="#63b8ff" stroke="#63b8ff" points="1120.11,-301.63 1121.54,-312.13 1126.97,-303.03 1120.11,-301.63"/>
</g>
<!-- Node47 -->
<g id="node47" class="node">
<title>Node47</title>
<g id="a_node47"><a xlink:href="classReactant3BodyScalarLog.html" target="_top" xlink:title=" ">
<polygon fill="white" stroke="#666666" points="1387,-56 1238,-56 1238,-37 1387,-37 1387,-56"/>
<text text-anchor="middle" x="1312.5" y="-44" font-family="Courier,monospace" font-size="10.00">Reactant3BodyScalarLog</text>
</a>
</g>
</g>
<!-- Node26&#45;&gt;Node47 -->
<g id="edge46" class="edge">
<title>Node26&#45;&gt;Node47</title>
<path fill="none" stroke="#63b8ff" d="M1121.89,-302.48C1128.72,-252.8 1152.98,-127.6 1229,-64.5 1232.84,-61.32 1237.11,-58.66 1241.63,-56.45"/>
<polygon fill="#63b8ff" stroke="#63b8ff" points="1118.45,-301.78 1120.67,-312.14 1125.4,-302.66 1118.45,-301.78"/>
</g>
<!-- Node48 -->
<g id="node48" class="node">
<title>Node48</title>
<g id="a_node48"><a xlink:href="classScalarDiffusion.html" target="_top" xlink:title=" ">
<polygon fill="white" stroke="#666666" points="1366,-19 1259,-19 1259,0 1366,0 1366,-19"/>
<text text-anchor="middle" x="1312.5" y="-7" font-family="Courier,monospace" font-size="10.00">ScalarDiffusion</text>
</a>
</g>
</g>
<!-- Node26&#45;&gt;Node48 -->
<g id="edge47" class="edge">
<title>Node26&#45;&gt;Node48</title>
<path fill="none" stroke="#63b8ff" d="M1120.65,-302.5C1124.82,-248.08 1143.82,-101.55 1229,-27.5 1237.3,-20.29 1247.81,-15.75 1258.54,-12.95"/>
<polygon fill="#63b8ff" stroke="#63b8ff" points="1117.18,-302.01 1120.01,-312.22 1124.16,-302.47 1117.18,-302.01"/>
</g>
<!-- Node30 -->
<g id="node30" class="node">
<title>Node30</title>
<g id="a_node30"><a xlink:href="classCoupledODETimeDerivative.html" target="_top" xlink:title=" ">
<polygon fill="white" stroke="#666666" points="1605,-611 1444,-611 1444,-592 1605,-592 1605,-611"/>
<text text-anchor="middle" x="1524.5" y="-599" font-family="Courier,monospace" font-size="10.00">CoupledODETimeDerivative</text>
</a>
</g>
</g>
<!-- Node29&#45;&gt;Node30 -->
<g id="edge29" class="edge">
<title>Node29&#45;&gt;Node30</title>
<path fill="none" stroke="#63b8ff" d="M1371.12,-536.28C1379.77,-538.86 1388.35,-542.19 1396,-546.5 1415.99,-557.76 1411.83,-572.57 1432,-583.5 1437.98,-586.74 1444.46,-589.4 1451.11,-591.59"/>
<polygon fill="#63b8ff" stroke="#63b8ff" points="1372.21,-532.95 1361.65,-533.79 1370.43,-539.72 1372.21,-532.95"/>
</g>
<!-- Node31 -->
<g id="node31" class="node">
<title>Node31</title>
<g id="a_node31"><a xlink:href="classODETimeDerivative.html" target="_top" xlink:title=" ">
<polygon fill="white" stroke="#666666" points="1584,-574 1465,-574 1465,-555 1584,-555 1584,-574"/>
<text text-anchor="middle" x="1524.5" y="-562" font-family="Courier,monospace" font-size="10.00">ODETimeDerivative</text>
</a>
</g>
</g>
<!-- Node29&#45;&gt;Node31 -->
<g id="edge30" class="edge">
<title>Node29&#45;&gt;Node31</title>
<path fill="none" stroke="#63b8ff" d="M1371.46,-537.71C1401.27,-542.96 1437.47,-549.34 1467.07,-554.56"/>
<polygon fill="#63b8ff" stroke="#63b8ff" points="1372.31,-534.31 1361.86,-536.02 1371.1,-541.2 1372.31,-534.31"/>
</g>
<!-- Node32 -->
<g id="node32" class="node">
<title>Node32</title>
<g id="a_node32"><a xlink:href="classODETimeDerivativeLog.html" target="_top" xlink:title=" ">
<polygon fill="white" stroke="#666666" points="1593,-537 1456,-537 1456,-518 1593,-518 1593,-537"/>
<text text-anchor="middle" x="1524.5" y="-525" font-family="Courier,monospace" font-size="10.00">ODETimeDerivativeLog</text>
</a>
</g>
</g>
<!-- Node29&#45;&gt;Node32 -->
<g id="edge31" class="edge">
<title>Node29&#45;&gt;Node32</title>
<path fill="none" stroke="#63b8ff" d="M1371.59,-527.5C1397.64,-527.5 1428.55,-527.5 1455.66,-527.5"/>
<polygon fill="#63b8ff" stroke="#63b8ff" points="1371.88,-524 1361.88,-527.5 1371.88,-531 1371.88,-524"/>
</g>
<!-- Node33 -->
<g id="node33" class="node">
<title>Node33</title>
<g id="a_node33"><a xlink:href="classODETimeDerivativeTemperature.html" target="_top" xlink:title=" ">
<polygon fill="white" stroke="#666666" points="1617,-500 1432,-500 1432,-481 1617,-481 1617,-500"/>
<text text-anchor="middle" x="1524.5" y="-488" font-family="Courier,monospace" font-size="10.00">ODETimeDerivativeTemperature</text>
</a>
</g>
</g>
<!-- Node29&#45;&gt;Node33 -->
<g id="edge32" class="edge">
<title>Node29&#45;&gt;Node33</title>
<path fill="none" stroke="#63b8ff" d="M1371.46,-517.29C1401.27,-512.04 1437.47,-505.66 1467.07,-500.44"/>
<polygon fill="#63b8ff" stroke="#63b8ff" points="1371.1,-513.8 1361.86,-518.98 1372.31,-520.69 1371.1,-513.8"/>
</g>
<!-- Node35 -->
<g id="node35" class="node">
<title>Node35</title>
<g id="a_node35"><a xlink:href="classParsedScalarReaction.html" target="_top" xlink:title=" ">
<polygon fill="white" stroke="#666666" points="1593,-463 1456,-463 1456,-444 1593,-444 1593,-463"/>
<text text-anchor="middle" x="1524.5" y="-451" font-family="Courier,monospace" font-size="10.00">ParsedScalarReaction</text>
</a>
</g>
</g>
<!-- Node34&#45;&gt;Node35 -->
<g id="edge34" class="edge">
<title>Node34&#45;&gt;Node35</title>
<path fill="none" stroke="#63b8ff" d="M1377.56,-479.21C1406.04,-474.2 1439.28,-468.34 1466.84,-463.48"/>
<polygon fill="#63b8ff" stroke="#63b8ff" points="1377.22,-475.72 1367.98,-480.9 1378.44,-482.61 1377.22,-475.72"/>
</g>
</g>
</svg>
        <g id="navigator" transform="translate(0 0)" fill="#404254">
                <rect fill="#f2f5e9" fill-opacity="0.5" stroke="#606060" stroke-width=".5" x="0" y="0" width="60" height="60"/>
                <use id="zoomplus" xlink:href="#zoomPlus" x="17" y="9" onmousedown="handleZoom(evt,'in')"/>
                <use id="zoomminus" xlink:href="#zoomMin" x="42" y="9" onmousedown="handleZoom(evt,'out')"/>
                <use id="reset" xlink:href="#resetDef" x="30" y="36" onmousedown="handleReset()"/>
                <g id="arrowUp" xlink:href="#dirArrow" transform="translate(30 24)" onmousedown="handlePan(0,-1)">
                  <use xlink:href="#rim" fill="#404040">
                        <set attributeName="fill" to="#808080" begin="arrowUp.mouseover" end="arrowUp.mouseout"/>
                  </use>
                  <path fill="none" stroke="white" stroke-width="1.5" d="M0,-3.0v7 M-2.5,-0.5L0,-3.0L2.5,-0.5"/>
                </g>
                <g id="arrowRight" xlink:href="#dirArrow" transform="rotate(90) translate(36 -43)" onmousedown="handlePan(1,0)">
                  <use xlink:href="#rim" fill="#404040">
                        <set attributeName="fill" to="#808080" begin="arrowRight.mouseover" end="arrowRight.mouseout"/>
                  </use>
                  <path fill="none" stroke="white" stroke-width="1.5" d="M0,-3.0v7 M-2.5,-0.5L0,-3.0L2.5,-0.5"/>
                </g>
                <g id="arrowDown" xlink:href="#dirArrow" transform="rotate(180) translate(-30 -48)" onmousedown="handlePan(0,1)">
                  <use xlink:href="#rim" fill="#404040">
                        <set attributeName="fill" to="#808080" begin="arrowDown.mouseover" end="arrowDown.mouseout"/>
                  </use>
                  <path fill="none" stroke="white" stroke-width="1.5" d="M0,-3.0v7 M-2.5,-0.5L0,-3.0L2.5,-0.5"/>
                </g>
                <g id="arrowLeft" xlink:href="#dirArrow" transform="rotate(270) translate(-36 17)" onmousedown="handlePan(-1,0)">
                  <use xlink:href="#rim" fill="#404040">
                        <set attributeName="fill" to="#808080" begin="arrowLeft.mouseover" end="arrowLeft.mouseout"/>
                  </use>
                  <path fill="none" stroke="white" stroke-width="1.5" d="M0,-3.0v7 M-2.5,-0.5L0,-3.0L2.5,-0.5"/>
                </g>
        </g>
        <svg viewBox="0 0 15 15" width="100%" height="30px" preserveAspectRatio="xMaxYMin meet">
         <g id="arrow_out" transform="scale(0.3 0.3)">
          <a xlink:href="classScalarKernel__inherit__graph_org.svg" target="_base">
           <rect id="button" ry="5" rx="5" y="6" x="6" height="38" width="38"
                fill="#f2f5e9" fill-opacity="0.5" stroke="#606060" stroke-width="1.0"/>
           <path id="arrow"
             d="M 11.500037,31.436501 C 11.940474,20.09759 22.043105,11.32322 32.158766,21.979434 L 37.068811,17.246167 C 37.068811,17.246167 37.088388,32 37.088388,32 L 22.160133,31.978069 C 22.160133,31.978069 26.997745,27.140456 26.997745,27.140456 C 18.528582,18.264221 13.291696,25.230495 11.500037,31.436501 z"
             style="fill:#404040;"/>
          </a>
         </g>
        </svg>
</svg>
