<?xml version="1.0" encoding="UTF-8" standalone="no"?>
<!DOCTYPE svg PUBLIC "-//W3C//DTD SVG 1.1//EN"
 "http://www.w3.org/Graphics/SVG/1.1/DTD/svg11.dtd">
<!-- Generated by graphviz version 7.0.5 (20221223.1930)
 -->
<!-- Title: PerfGraphReporter Pages: 1 -->
<!--zoomable 619 -->
<svg id="main" version="1.1" xmlns="http://www.w3.org/2000/svg" xmlns:xlink="http://www.w3.org/1999/xlink" xml:space="preserve" onload="init(evt)">
<style type="text/css"><![CDATA[
.edge:hover path { stroke: red; }
.edge:hover polygon { stroke: red; fill: red; }
]]></style>
<script type="text/javascript"><![CDATA[
var edges = document.getElementsByTagName('g');
if (edges && edges.length) {
  for (var i=0;i<edges.length;i++) {
    if (edges[i].id.substr(0,4)=='edge') {
      edges[i].setAttribute('class','edge');
    }
  }
}
]]></script>
        <defs>
                <circle id="rim" cx="0" cy="0" r="7"/>
                <circle id="rim2" cx="0" cy="0" r="3.5"/>
                <g id="zoomPlus">
                        <use xlink:href="#rim" fill="#404040">
                                <set attributeName="fill" to="#808080" begin="zoomplus.mouseover" end="zoomplus.mouseout"/>
                        </use>
                        <path d="M-4,0h8M0,-4v8" fill="none" stroke="white" stroke-width="1.5" pointer-events="none"/>
                </g>
                <g id="zoomMin">
                        <use xlink:href="#rim" fill="#404040">
                                <set attributeName="fill" to="#808080" begin="zoomminus.mouseover" end="zoomminus.mouseout"/>
                        </use>
                        <path d="M-4,0h8" fill="none" stroke="white" stroke-width="1.5" pointer-events="none"/>
                </g>
                <g id="dirArrow">
                        <path fill="none" stroke="white" stroke-width="1.5" d="M0,-3.0v7 M-2.5,-0.5L0,-3.0L2.5,-0.5"/>
                </g>
               <g id="resetDef">
                       <use xlink:href="#rim2" fill="#404040">
                               <set attributeName="fill" to="#808080" begin="reset.mouseover" end="reset.mouseout"/>
                       </use>
               </g>
        </defs>

<script type="text/javascript">
var viewWidth = 1249;
var viewHeight = 619;
var sectionId = 'dynsection-0';
</script>
<script xlink:href="svgpan.js"/>
<svg id="graph" class="graph">
<g id="viewport">
<title>PerfGraphReporter</title>
<!-- Node1 -->
<g id="node1" class="node">
<title>Node1</title>
<g id="a_node1"><a xlink:title="Reports the full graph from the PerfGraph.">
<polygon fill="#999999" stroke="#666666" points="1241,-203 1122,-203 1122,-184 1241,-184 1241,-203"/>
<text text-anchor="middle" x="1181.5" y="-191" font-family="Courier,monospace" font-size="10.00">PerfGraphReporter</text>
</a>
</g>
</g>
<!-- Node2 -->
<g id="node2" class="node">
<title>Node2</title>
<g id="a_node2"><a xlink:href="classGeneralReporter.html" target="_top" xlink:title="Reporter object that has a single execution of the &quot;execute&quot; method for for each execute flag.">
<polygon fill="white" stroke="#666666" points="1086,-203 979,-203 979,-184 1086,-184 1086,-203"/>
<text text-anchor="middle" x="1032.5" y="-191" font-family="Courier,monospace" font-size="10.00">GeneralReporter</text>
</a>
</g>
</g>
<!-- Node2&#45;&gt;Node1 -->
<g id="edge1" class="edge">
<title>Node2&#45;&gt;Node1</title>
<path fill="none" stroke="#63b8ff" d="M1097.43,-193.5C1105.5,-193.5 1113.73,-193.5 1121.73,-193.5"/>
<polygon fill="#63b8ff" stroke="#63b8ff" points="1097.67,-190 1087.67,-193.5 1097.67,-197 1097.67,-190"/>
</g>
<!-- Node3 -->
<g id="node3" class="node">
<title>Node3</title>
<g id="a_node3"><a xlink:href="classGeneralUserObject.html" target="_top" xlink:title=" ">
<polygon fill="white" stroke="#666666" points="943,-231 824,-231 824,-212 943,-212 943,-231"/>
<text text-anchor="middle" x="883.5" y="-219" font-family="Courier,monospace" font-size="10.00">GeneralUserObject</text>
</a>
</g>
</g>
<!-- Node3&#45;&gt;Node2 -->
<g id="edge2" class="edge">
<title>Node3&#45;&gt;Node2</title>
<path fill="none" stroke="#63b8ff" d="M947.98,-209.41C958.48,-207.41 969.25,-205.36 979.43,-203.42"/>
<polygon fill="#63b8ff" stroke="#63b8ff" points="947.4,-205.96 938.23,-211.27 948.71,-212.83 947.4,-205.96"/>
</g>
<!-- Node4 -->
<g id="node4" class="node">
<title>Node4</title>
<g id="a_node4"><a xlink:href="classUserObject.html" target="_top" xlink:title="Base class for user&#45;specific data.">
<polygon fill="white" stroke="#666666" points="743,-278 666,-278 666,-259 743,-259 743,-278"/>
<text text-anchor="middle" x="704.5" y="-266" font-family="Courier,monospace" font-size="10.00">UserObject</text>
</a>
</g>
</g>
<!-- Node4&#45;&gt;Node3 -->
<g id="edge3" class="edge">
<title>Node4&#45;&gt;Node3</title>
<path fill="none" stroke="#63b8ff" d="M754.65,-258.48C765.66,-256.04 777.26,-253.31 788,-250.5 809.75,-244.8 833.98,-237.34 852.47,-231.41"/>
<polygon fill="#63b8ff" stroke="#63b8ff" points="753.95,-255.05 744.92,-260.59 755.44,-261.89 753.95,-255.05"/>
</g>
<!-- Node5 -->
<g id="node5" class="node">
<title>Node5</title>
<g id="a_node5"><a xlink:href="classMooseObject.html" target="_top" xlink:title="Every object that can be built by the factory should be derived from this class.">
<polygon fill="white" stroke="#666666" points="534,-537 451,-537 451,-518 534,-518 534,-537"/>
<text text-anchor="middle" x="492.5" y="-525" font-family="Courier,monospace" font-size="10.00">MooseObject</text>
</a>
</g>
</g>
<!-- Node5&#45;&gt;Node4 -->
<g id="edge4" class="edge">
<title>Node5&#45;&gt;Node4</title>
<path fill="none" stroke="#63b8ff" d="M545.21,-525.65C559.23,-523.04 573.64,-518.2 585,-509.5 666.04,-447.38 695.15,-315.17 701.87,-278.25"/>
<polygon fill="#63b8ff" stroke="#63b8ff" points="545,-522.14 535.62,-527.07 546.03,-529.07 545,-522.14"/>
</g>
<!-- Node6 -->
<g id="node6" class="node">
<title>Node6</title>
<g id="a_node6"><a xlink:href="classMooseBase.html" target="_top" xlink:title="Base class for everything in MOOSE with a name and a type.">
<polygon fill="white" stroke="#666666" points="310,-611 239,-611 239,-592 310,-592 310,-611"/>
<text text-anchor="middle" x="274.5" y="-599" font-family="Courier,monospace" font-size="10.00">MooseBase</text>
</a>
</g>
</g>
<!-- Node6&#45;&gt;Node5 -->
<g id="edge5" class="edge">
<title>Node6&#45;&gt;Node5</title>
<path fill="none" stroke="#63b8ff" d="M321.62,-594.05C335.41,-591.31 350.46,-587.8 364,-583.5 403.87,-570.85 448.08,-549.72 472.56,-537.35"/>
<polygon fill="#63b8ff" stroke="#63b8ff" points="321.06,-590.59 311.89,-595.89 322.36,-597.47 321.06,-590.59"/>
</g>
<!-- Node7 -->
<g id="node7" class="node">
<title>Node7</title>
<g id="a_node7"><a xlink:href="classMooseBaseParameterInterface.html" target="_top" xlink:title="Every object that can be built by the factory should be derived from this class.">
<polygon fill="white" stroke="#666666" points="364,-574 185,-574 185,-555 364,-555 364,-574"/>
<text text-anchor="middle" x="274.5" y="-562" font-family="Courier,monospace" font-size="10.00">MooseBaseParameterInterface</text>
</a>
</g>
</g>
<!-- Node7&#45;&gt;Node5 -->
<g id="edge6" class="edge">
<title>Node7&#45;&gt;Node5</title>
<path fill="none" stroke="#63b8ff" d="M344.77,-552.63C379.7,-546.65 420.85,-539.6 450.68,-534.49"/>
<polygon fill="#63b8ff" stroke="#63b8ff" points="344.43,-549.14 335.16,-554.28 345.61,-556.04 344.43,-549.14"/>
</g>
<!-- Node8 -->
<g id="node8" class="node">
<title>Node8</title>
<g id="a_node8"><a xlink:href="classMooseBaseErrorInterface.html" target="_top" xlink:title="Interface that provides APIs to output errors/warnings/info messages.">
<polygon fill="white" stroke="#666666" points="352,-537 197,-537 197,-518 352,-518 352,-537"/>
<text text-anchor="middle" x="274.5" y="-525" font-family="Courier,monospace" font-size="10.00">MooseBaseErrorInterface</text>
</a>
</g>
</g>
<!-- Node8&#45;&gt;Node5 -->
<g id="edge7" class="edge">
<title>Node8&#45;&gt;Node5</title>
<path fill="none" stroke="#63b8ff" d="M363.7,-527.5C393.87,-527.5 426.17,-527.5 450.75,-527.5"/>
<polygon fill="#63b8ff" stroke="#63b8ff" points="363.78,-524 353.78,-527.5 363.78,-531 363.78,-524"/>
</g>
<!-- Node9 -->
<g id="node9" class="node">
<title>Node9</title>
<g id="a_node9"><a xlink:href="classConsoleStreamInterface.html" target="_top" xlink:title="An inteface for the _console for outputting to the Console object.">
<polygon fill="white" stroke="#666666" points="149,-537 0,-537 0,-518 149,-518 149,-537"/>
<text text-anchor="middle" x="74.5" y="-525" font-family="Courier,monospace" font-size="10.00">ConsoleStreamInterface</text>
</a>
</g>
</g>
<!-- Node9&#45;&gt;Node8 -->
<g id="edge8" class="edge">
<title>Node9&#45;&gt;Node8</title>
<path fill="none" stroke="#63b8ff" d="M160.62,-527.5C172.62,-527.5 184.9,-527.5 196.73,-527.5"/>
<polygon fill="#63b8ff" stroke="#63b8ff" points="160.74,-524 150.74,-527.5 160.74,-531 160.74,-524"/>
</g>
<!-- Node10 -->
<g id="node10" class="node">
<title>Node10</title>
<g id="a_node10"><a xlink:title=" ">
<polygon fill="white" stroke="#666666" points="352,-500 197,-500 197,-481 352,-481 352,-500"/>
<text text-anchor="middle" x="274.5" y="-488" font-family="Courier,monospace" font-size="10.00">libMesh::ParallelObject</text>
</a>
</g>
</g>
<!-- Node10&#45;&gt;Node5 -->
<g id="edge9" class="edge">
<title>Node10&#45;&gt;Node5</title>
<path fill="none" stroke="#63b8ff" d="M344.77,-502.37C379.7,-508.35 420.85,-515.4 450.68,-520.51"/>
<polygon fill="#63b8ff" stroke="#63b8ff" points="345.61,-498.96 335.16,-500.72 344.43,-505.86 345.61,-498.96"/>
</g>
<!-- Node11 -->
<g id="node11" class="node">
<title>Node11</title>
<g id="a_node11"><a xlink:href="classDataFileInterface.html" target="_top" xlink:title=" ">
<polygon fill="white" stroke="#666666" points="337,-462.5 212,-462.5 212,-432.5 337,-432.5 337,-462.5"/>
<text text-anchor="start" x="220" y="-450.5" font-family="Courier,monospace" font-size="10.00">DataFileInterface&lt;</text>
<text text-anchor="middle" x="274.5" y="-439.5" font-family="Courier,monospace" font-size="10.00"> MooseObject &gt;</text>
</a>
</g>
</g>
<!-- Node11&#45;&gt;Node5 -->
<g id="edge10" class="edge">
<title>Node11&#45;&gt;Node5</title>
<path fill="none" stroke="#63b8ff" d="M347.62,-464.35C353.32,-466.73 358.86,-469.44 364,-472.5 383.71,-484.24 379.83,-498.57 400,-509.5 415.37,-517.83 434.06,-522.34 450.53,-524.76"/>
<polygon fill="#63b8ff" stroke="#63b8ff" points="349.23,-461.22 338.64,-460.94 346.74,-467.76 349.23,-461.22"/>
</g>
<!-- Node12 -->
<g id="node12" class="node">
<title>Node12</title>
<g id="a_node12"><a xlink:href="classSetupInterface.html" target="_top" xlink:title=" ">
<polygon fill="white" stroke="#666666" points="543,-500 442,-500 442,-481 543,-481 543,-500"/>
<text text-anchor="middle" x="492.5" y="-488" font-family="Courier,monospace" font-size="10.00">SetupInterface</text>
</a>
</g>
</g>
<!-- Node12&#45;&gt;Node4 -->
<g id="edge11" class="edge">
<title>Node12&#45;&gt;Node4</title>
<path fill="none" stroke="#63b8ff" d="M554.08,-486.1C565.06,-483.28 575.9,-478.99 585,-472.5 657.03,-421.14 691.87,-311.22 701,-278.12"/>
<polygon fill="#63b8ff" stroke="#63b8ff" points="553.64,-482.62 544.59,-488.13 555.1,-489.46 553.64,-482.62"/>
</g>
<!-- Node13 -->
<g id="node13" class="node">
<title>Node13</title>
<g id="a_node13"><a xlink:href="classFunctionInterface.html" target="_top" xlink:title="Interface for objects that need to use functions.">
<polygon fill="white" stroke="#666666" points="552,-463 433,-463 433,-444 552,-444 552,-463"/>
<text text-anchor="middle" x="492.5" y="-451" font-family="Courier,monospace" font-size="10.00">FunctionInterface</text>
</a>
</g>
</g>
<!-- Node13&#45;&gt;Node4 -->
<g id="edge12" class="edge">
<title>Node13&#45;&gt;Node4</title>
<path fill="none" stroke="darkgreen" d="M563.19,-445.66C570.89,-443.12 578.35,-439.8 585,-435.5 647.99,-394.77 687.65,-307.73 699.64,-278.39"/>
<polygon fill="darkgreen" stroke="darkgreen" points="562.31,-442.28 553.64,-448.37 564.22,-449.01 562.31,-442.28"/>
</g>
<!-- Node14 -->
<g id="node14" class="node">
<title>Node14</title>
<g id="a_node14"><a xlink:href="classUserObjectInterface.html" target="_top" xlink:title="Interface for objects that need to use UserObjects.">
<polygon fill="white" stroke="#666666" points="558,-426 427,-426 427,-407 558,-407 558,-426"/>
<text text-anchor="middle" x="492.5" y="-414" font-family="Courier,monospace" font-size="10.00">UserObjectInterface</text>
</a>
</g>
</g>
<!-- Node14&#45;&gt;Node4 -->
<g id="edge13" class="edge">
<title>Node14&#45;&gt;Node4</title>
<path fill="none" stroke="#63b8ff" d="M569.14,-405.69C574.66,-403.68 580.01,-401.31 585,-398.5 639.55,-367.78 682.72,-302.9 697.76,-278.26"/>
<polygon fill="#63b8ff" stroke="#63b8ff" points="568.27,-402.3 559.8,-408.66 570.39,-408.97 568.27,-402.3"/>
</g>
<!-- Node15 -->
<g id="node15" class="node">
<title>Node15</title>
<g id="a_node15"><a xlink:href="classPostprocessorInterface.html" target="_top" xlink:title="Interface class for classes which interact with Postprocessors.">
<polygon fill="white" stroke="#666666" points="567,-389 418,-389 418,-370 567,-370 567,-389"/>
<text text-anchor="middle" x="492.5" y="-377" font-family="Courier,monospace" font-size="10.00">PostprocessorInterface</text>
</a>
</g>
</g>
<!-- Node15&#45;&gt;Node4 -->
<g id="edge14" class="edge">
<title>Node15&#45;&gt;Node4</title>
<path fill="none" stroke="darkgreen" d="M573.33,-366.18C577.33,-364.78 581.25,-363.22 585,-361.5 631.36,-340.25 675.85,-297.41 694.42,-278.2"/>
<polygon fill="darkgreen" stroke="darkgreen" points="572.5,-362.78 564.01,-369.12 574.6,-369.45 572.5,-362.78"/>
</g>
<!-- Node16 -->
<g id="node16" class="node">
<title>Node16</title>
<g id="a_node16"><a xlink:href="classVectorPostprocessorInterface.html" target="_top" xlink:title=" ">
<polygon fill="white" stroke="#666666" points="585,-352 400,-352 400,-333 585,-333 585,-352"/>
<text text-anchor="middle" x="492.5" y="-340" font-family="Courier,monospace" font-size="10.00">VectorPostprocessorInterface</text>
</a>
</g>
</g>
<!-- Node16&#45;&gt;Node4 -->
<g id="edge15" class="edge">
<title>Node16&#45;&gt;Node4</title>
<path fill="none" stroke="darkgreen" d="M566,-329.97C572.48,-328.33 578.89,-326.51 585,-324.5 622.39,-312.2 663.36,-290.95 686,-278.46"/>
<polygon fill="darkgreen" stroke="darkgreen" points="565.47,-326.5 556.54,-332.21 567.08,-333.31 565.47,-326.5"/>
</g>
<!-- Node17 -->
<g id="node17" class="node">
<title>Node17</title>
<g id="a_node17"><a xlink:href="classReporterInterface.html" target="_top" xlink:title="Interface to allow object to consume Reporter values.">
<polygon fill="white" stroke="#666666" points="552,-315 433,-315 433,-296 552,-296 552,-315"/>
<text text-anchor="middle" x="492.5" y="-303" font-family="Courier,monospace" font-size="10.00">ReporterInterface</text>
</a>
</g>
</g>
<!-- Node17&#45;&gt;Node4 -->
<g id="edge16" class="edge">
<title>Node17&#45;&gt;Node4</title>
<path fill="none" stroke="darkgreen" d="M561.07,-293.6C595.74,-287.49 636.68,-280.27 665.75,-275.15"/>
<polygon fill="darkgreen" stroke="darkgreen" points="560.78,-290.09 551.54,-295.27 562,-296.99 560.78,-290.09"/>
</g>
<!-- Node18 -->
<g id="node18" class="node">
<title>Node18</title>
<g id="a_node18"><a xlink:href="classDistributionInterface.html" target="_top" xlink:title="Interface for objects that need to use distributions.">
<polygon fill="white" stroke="#666666" points="564,-278 421,-278 421,-259 564,-259 564,-278"/>
<text text-anchor="middle" x="492.5" y="-266" font-family="Courier,monospace" font-size="10.00">DistributionInterface</text>
</a>
</g>
</g>
<!-- Node18&#45;&gt;Node4 -->
<g id="edge17" class="edge">
<title>Node18&#45;&gt;Node4</title>
<path fill="none" stroke="darkgreen" d="M575.61,-268.5C606.7,-268.5 640.61,-268.5 665.69,-268.5"/>
<polygon fill="darkgreen" stroke="darkgreen" points="575.82,-265 565.82,-268.5 575.82,-272 575.82,-265"/>
</g>
<!-- Node19 -->
<g id="node19" class="node">
<title>Node19</title>
<g id="a_node19"><a xlink:href="classSamplerInterface.html" target="_top" xlink:title="Interface for objects that need to use samplers.">
<polygon fill="white" stroke="#666666" points="549,-241 436,-241 436,-222 549,-222 549,-241"/>
<text text-anchor="middle" x="492.5" y="-229" font-family="Courier,monospace" font-size="10.00">SamplerInterface</text>
</a>
</g>
</g>
<!-- Node19&#45;&gt;Node4 -->
<g id="edge18" class="edge">
<title>Node19&#45;&gt;Node4</title>
<path fill="none" stroke="darkgreen" d="M560.29,-243.27C595.13,-249.41 636.48,-256.69 665.77,-261.85"/>
<polygon fill="darkgreen" stroke="darkgreen" points="561.17,-239.87 550.72,-241.58 559.96,-246.76 561.17,-239.87"/>
</g>
<!-- Node20 -->
<g id="node20" class="node">
<title>Node20</title>
<g id="a_node20"><a xlink:href="classRestartable.html" target="_top" xlink:title="A class for creating restricted objects.">
<polygon fill="white" stroke="#666666" points="534,-204 451,-204 451,-185 534,-185 534,-204"/>
<text text-anchor="middle" x="492.5" y="-192" font-family="Courier,monospace" font-size="10.00">Restartable</text>
</a>
</g>
</g>
<!-- Node20&#45;&gt;Node4 -->
<g id="edge19" class="edge">
<title>Node20&#45;&gt;Node4</title>
<path fill="none" stroke="darkgreen" d="M545.23,-198.96C558.76,-201.63 572.92,-205.85 585,-212.5 605.38,-223.72 600.74,-239.07 621,-250.5 634.53,-258.14 651.01,-262.53 665.66,-265.07"/>
<polygon fill="darkgreen" stroke="darkgreen" points="546.01,-195.55 535.56,-197.32 544.84,-202.45 546.01,-195.55"/>
</g>
<!-- Node21 -->
<g id="node21" class="node">
<title>Node21</title>
<g id="a_node21"><a xlink:href="classMeshMetaDataInterface.html" target="_top" xlink:title="The Interface used to retrieve mesh meta data (attributes) set by the MeshGenerator system.">
<polygon fill="white" stroke="#666666" points="564,-167 421,-167 421,-148 564,-148 564,-167"/>
<text text-anchor="middle" x="492.5" y="-155" font-family="Courier,monospace" font-size="10.00">MeshMetaDataInterface</text>
</a>
</g>
</g>
<!-- Node21&#45;&gt;Node4 -->
<g id="edge20" class="edge">
<title>Node21&#45;&gt;Node4</title>
<path fill="none" stroke="darkgreen" d="M574.84,-169.02C578.42,-170.9 581.83,-173.05 585,-175.5 614.24,-198.13 592,-227.57 621,-250.5 633.53,-260.41 650.35,-265.15 665.53,-267.31"/>
<polygon fill="darkgreen" stroke="darkgreen" points="576.33,-165.86 565.77,-165.03 573.51,-172.26 576.33,-165.86"/>
</g>
<!-- Node22 -->
<g id="node22" class="node">
<title>Node22</title>
<g id="a_node22"><a xlink:href="classMeshChangedInterface.html" target="_top" xlink:title="Interface for notifications that the mesh has changed.">
<polygon fill="white" stroke="#666666" points="561,-130 424,-130 424,-111 561,-111 561,-130"/>
<text text-anchor="middle" x="492.5" y="-118" font-family="Courier,monospace" font-size="10.00">MeshChangedInterface</text>
</a>
</g>
</g>
<!-- Node22&#45;&gt;Node4 -->
<g id="edge21" class="edge">
<title>Node22&#45;&gt;Node4</title>
<path fill="none" stroke="darkgreen" d="M571.63,-129.54C576.46,-131.97 580.98,-134.92 585,-138.5 624.07,-173.25 582.29,-215.35 621,-250.5 633.05,-261.44 650.16,-266.28 665.67,-268.25"/>
<polygon fill="darkgreen" stroke="darkgreen" points="573.35,-126.46 562.77,-125.84 570.65,-132.92 573.35,-126.46"/>
</g>
<!-- Node23 -->
<g id="node23" class="node">
<title>Node23</title>
<g id="a_node23"><a xlink:href="classScalarCoupleable.html" target="_top" xlink:title="Interface for objects that needs scalar coupling capabilities.">
<polygon fill="white" stroke="#666666" points="549,-93 436,-93 436,-74 549,-74 549,-93"/>
<text text-anchor="middle" x="492.5" y="-81" font-family="Courier,monospace" font-size="10.00">ScalarCoupleable</text>
</a>
</g>
</g>
<!-- Node23&#45;&gt;Node4 -->
<g id="edge22" class="edge">
<title>Node23&#45;&gt;Node4</title>
<path fill="none" stroke="darkgreen" d="M560.1,-87.23C569.33,-90.27 578.03,-94.82 585,-101.5 634.19,-148.63 572.29,-202.87 621,-250.5 632.74,-261.98 650,-266.86 665.7,-268.72"/>
<polygon fill="darkgreen" stroke="darkgreen" points="561.11,-83.88 550.55,-84.7 559.32,-90.65 561.11,-83.88"/>
</g>
<!-- Node24 -->
<g id="node24" class="node">
<title>Node24</title>
<g id="a_node24"><a xlink:href="classPerfGraphInterface.html" target="_top" xlink:title="Interface for objects interacting with the PerfGraph.">
<polygon fill="white" stroke="#666666" points="555,-56 430,-56 430,-37 555,-37 555,-56"/>
<text text-anchor="middle" x="492.5" y="-44" font-family="Courier,monospace" font-size="10.00">PerfGraphInterface</text>
</a>
</g>
</g>
<!-- Node24&#45;&gt;Node4 -->
<g id="edge23" class="edge">
<title>Node24&#45;&gt;Node4</title>
<path fill="none" stroke="darkgreen" d="M565.82,-52C572.95,-54.97 579.55,-59.03 585,-64.5 644.45,-124.13 562.17,-190.26 621,-250.5 632.57,-262.35 650.01,-267.25 665.87,-269.02"/>
<polygon fill="darkgreen" stroke="darkgreen" points="567.1,-48.73 556.51,-48.85 564.86,-55.36 567.1,-48.73"/>
</g>
<!-- Node25 -->
<g id="node25" class="node">
<title>Node25</title>
<g id="a_node25"><a xlink:href="classDependencyResolverInterface.html" target="_top" xlink:title="Interface for sorting dependent vectors of objects.">
<polygon fill="white" stroke="#666666" points="582,-19 403,-19 403,0 582,0 582,-19"/>
<text text-anchor="middle" x="492.5" y="-7" font-family="Courier,monospace" font-size="10.00">DependencyResolverInterface</text>
</a>
</g>
</g>
<!-- Node25&#45;&gt;Node4 -->
<g id="edge24" class="edge">
<title>Node25&#45;&gt;Node4</title>
<path fill="none" stroke="#63b8ff" d="M583.84,-26.34C584.23,-26.72 584.62,-27.11 585,-27.5 654.77,-99.69 551.98,-177.59 621,-250.5 632.39,-262.53 649.8,-267.45 665.69,-269.19"/>
<polygon fill="#63b8ff" stroke="#63b8ff" points="586.12,-23.68 576.07,-20.32 581.83,-29.21 586.12,-23.68"/>
</g>
<!-- Node26 -->
<g id="node26" class="node">
<title>Node26</title>
<g id="a_node26"><a xlink:href="classMaterialPropertyInterface.html" target="_top" xlink:title="An interface for accessing Materials.">
<polygon fill="white" stroke="#666666" points="788,-241 621,-241 621,-222 788,-222 788,-241"/>
<text text-anchor="middle" x="704.5" y="-229" font-family="Courier,monospace" font-size="10.00">MaterialPropertyInterface</text>
</a>
</g>
</g>
<!-- Node26&#45;&gt;Node3 -->
<g id="edge25" class="edge">
<title>Node26&#45;&gt;Node3</title>
<path fill="none" stroke="#63b8ff" d="M799.53,-226.19C807.76,-225.72 815.92,-225.26 823.74,-224.82"/>
<polygon fill="#63b8ff" stroke="#63b8ff" points="799.6,-222.68 789.81,-226.74 799.99,-229.67 799.6,-222.68"/>
</g>
<!-- Node27 -->
<g id="node27" class="node">
<title>Node27</title>
<g id="a_node27"><a xlink:href="classTransientInterface.html" target="_top" xlink:title="Interface for objects that needs transient capabilities.">
<polygon fill="white" stroke="#666666" points="767,-204 642,-204 642,-185 767,-185 767,-204"/>
<text text-anchor="middle" x="704.5" y="-192" font-family="Courier,monospace" font-size="10.00">TransientInterface</text>
</a>
</g>
</g>
<!-- Node27&#45;&gt;Node3 -->
<g id="edge26" class="edge">
<title>Node27&#45;&gt;Node3</title>
<path fill="none" stroke="#63b8ff" d="M778.7,-205.67C793.66,-207.95 809.22,-210.32 823.6,-212.52"/>
<polygon fill="#63b8ff" stroke="#63b8ff" points="779.32,-202.22 768.9,-204.17 778.26,-209.14 779.32,-202.22"/>
</g>
<!-- Node28 -->
<g id="node28" class="node">
<title>Node28</title>
<g id="a_node28"><a xlink:href="classReporter.html" target="_top" xlink:title="Reporter objects allow for the declaration of arbitrary data types that are aggregate values for a si...">
<polygon fill="white" stroke="#666666" points="916,-185 851,-185 851,-166 916,-166 916,-185"/>
<text text-anchor="middle" x="883.5" y="-173" font-family="Courier,monospace" font-size="10.00">Reporter</text>
</a>
</g>
</g>
<!-- Node28&#45;&gt;Node2 -->
<g id="edge27" class="edge">
<title>Node28&#45;&gt;Node2</title>
<path fill="none" stroke="#63b8ff" d="M927.56,-180.77C943.52,-182.73 961.82,-184.97 978.57,-187.02"/>
<polygon fill="#63b8ff" stroke="#63b8ff" points="928.25,-177.33 917.9,-179.59 927.4,-184.28 928.25,-177.33"/>
</g>
<!-- Node29 -->
<g id="node29" class="node">
<title>Node29</title>
<g id="a_node29"><a xlink:href="classOutputInterface.html" target="_top" xlink:title="A class to provide an common interface to objects requiring &quot;outputs&quot; option.">
<polygon fill="white" stroke="#666666" points="758,-167 651,-167 651,-148 758,-148 758,-167"/>
<text text-anchor="middle" x="704.5" y="-155" font-family="Courier,monospace" font-size="10.00">OutputInterface</text>
</a>
</g>
</g>
<!-- Node29&#45;&gt;Node28 -->
<g id="edge28" class="edge">
<title>Node29&#45;&gt;Node28</title>
<path fill="none" stroke="#63b8ff" d="M769.31,-163.99C796.92,-166.8 828.01,-169.96 850.61,-172.26"/>
<polygon fill="#63b8ff" stroke="#63b8ff" points="769.94,-160.53 759.63,-163.01 769.23,-167.5 769.94,-160.53"/>
</g>
</g>
</svg>
        <g id="navigator" transform="translate(0 0)" fill="#404254">
                <rect fill="#f2f5e9" fill-opacity="0.5" stroke="#606060" stroke-width=".5" x="0" y="0" width="60" height="60"/>
                <use id="zoomplus" xlink:href="#zoomPlus" x="17" y="9" onmousedown="handleZoom(evt,'in')"/>
                <use id="zoomminus" xlink:href="#zoomMin" x="42" y="9" onmousedown="handleZoom(evt,'out')"/>
                <use id="reset" xlink:href="#resetDef" x="30" y="36" onmousedown="handleReset()"/>
                <g id="arrowUp" xlink:href="#dirArrow" transform="translate(30 24)" onmousedown="handlePan(0,-1)">
                  <use xlink:href="#rim" fill="#404040">
                        <set attributeName="fill" to="#808080" begin="arrowUp.mouseover" end="arrowUp.mouseout"/>
                  </use>
                  <path fill="none" stroke="white" stroke-width="1.5" d="M0,-3.0v7 M-2.5,-0.5L0,-3.0L2.5,-0.5"/>
                </g>
                <g id="arrowRight" xlink:href="#dirArrow" transform="rotate(90) translate(36 -43)" onmousedown="handlePan(1,0)">
                  <use xlink:href="#rim" fill="#404040">
                        <set attributeName="fill" to="#808080" begin="arrowRight.mouseover" end="arrowRight.mouseout"/>
                  </use>
                  <path fill="none" stroke="white" stroke-width="1.5" d="M0,-3.0v7 M-2.5,-0.5L0,-3.0L2.5,-0.5"/>
                </g>
                <g id="arrowDown" xlink:href="#dirArrow" transform="rotate(180) translate(-30 -48)" onmousedown="handlePan(0,1)">
                  <use xlink:href="#rim" fill="#404040">
                        <set attributeName="fill" to="#808080" begin="arrowDown.mouseover" end="arrowDown.mouseout"/>
                  </use>
                  <path fill="none" stroke="white" stroke-width="1.5" d="M0,-3.0v7 M-2.5,-0.5L0,-3.0L2.5,-0.5"/>
                </g>
                <g id="arrowLeft" xlink:href="#dirArrow" transform="rotate(270) translate(-36 17)" onmousedown="handlePan(-1,0)">
                  <use xlink:href="#rim" fill="#404040">
                        <set attributeName="fill" to="#808080" begin="arrowLeft.mouseover" end="arrowLeft.mouseout"/>
                  </use>
                  <path fill="none" stroke="white" stroke-width="1.5" d="M0,-3.0v7 M-2.5,-0.5L0,-3.0L2.5,-0.5"/>
                </g>
        </g>
        <svg viewBox="0 0 15 15" width="100%" height="30px" preserveAspectRatio="xMaxYMin meet">
         <g id="arrow_out" transform="scale(0.3 0.3)">
          <a xlink:href="classPerfGraphReporter__inherit__graph_org.svg" target="_base">
           <rect id="button" ry="5" rx="5" y="6" x="6" height="38" width="38"
                fill="#f2f5e9" fill-opacity="0.5" stroke="#606060" stroke-width="1.0"/>
           <path id="arrow"
             d="M 11.500037,31.436501 C 11.940474,20.09759 22.043105,11.32322 32.158766,21.979434 L 37.068811,17.246167 C 37.068811,17.246167 37.088388,32 37.088388,32 L 22.160133,31.978069 C 22.160133,31.978069 26.997745,27.140456 26.997745,27.140456 C 18.528582,18.264221 13.291696,25.230495 11.500037,31.436501 z"
             style="fill:#404040;"/>
          </a>
         </g>
        </svg>
</svg>
