<?xml version="1.0" encoding="UTF-8" standalone="no"?>
<!DOCTYPE svg PUBLIC "-//W3C//DTD SVG 1.1//EN"
 "http://www.w3.org/Graphics/SVG/1.1/DTD/svg11.dtd">
<!-- Generated by graphviz version 7.0.5 (20221223.1930)
 -->
<!-- Title: InternalSideIntegralVariablePostprocessor Pages: 1 -->
<svg width="1859pt" height="983pt"
 viewBox="0.00 0.00 1859.00 982.50" xmlns="http://www.w3.org/2000/svg" xmlns:xlink="http://www.w3.org/1999/xlink">
<g id="graph0" class="graph" transform="scale(1 1) rotate(0) translate(4 978.5)">
<title>InternalSideIntegralVariablePostprocessor</title>
<!-- Node1 -->
<g id="node1" class="node">
<title>Node1</title>
<g id="a_node1"><a xlink:title="This postprocessor computes an integral on internal mesh sides of the specified variable.">
<polygon fill="#999999" stroke="#666666" points="1690,-73 1505,-73 1505,-43 1690,-43 1690,-73"/>
<text text-anchor="start" x="1513" y="-61" font-family="Courier,monospace" font-size="10.00">InternalSideIntegralVariable</text>
<text text-anchor="middle" x="1597.5" y="-50" font-family="Courier,monospace" font-size="10.00">Postprocessor</text>
</a>
</g>
</g>
<!-- Node44 -->
<g id="node44" class="node">
<title>Node44</title>
<g id="a_node44"><a xlink:href="classElementSidesL2Norm.html" target="_top" xlink:title="This postprocessor computes the L2 norm of a variable over element sides.">
<polygon fill="white" stroke="#666666" points="1851,-67.5 1726,-67.5 1726,-48.5 1851,-48.5 1851,-67.5"/>
<text text-anchor="middle" x="1788.5" y="-55.5" font-family="Courier,monospace" font-size="10.00">ElementSidesL2Norm</text>
</a>
</g>
</g>
<!-- Node1&#45;&gt;Node44 -->
<g id="edge44" class="edge">
<title>Node1&#45;&gt;Node44</title>
<path fill="none" stroke="#63b8ff" d="M1701.51,-58C1709.76,-58 1717.92,-58 1725.75,-58"/>
<polygon fill="#63b8ff" stroke="#63b8ff" points="1701.75,-54.5 1691.75,-58 1701.75,-61.5 1701.75,-54.5"/>
</g>
<!-- Node2 -->
<g id="node2" class="node">
<title>Node2</title>
<g id="a_node2"><a xlink:href="classInternalSideIntegralPostprocessor.html" target="_top" xlink:title="This postprocessor computes a surface integral of the specified variable on internal sides of the mes...">
<polygon fill="white" stroke="#666666" points="1469,-111.5 1254,-111.5 1254,-92.5 1469,-92.5 1469,-111.5"/>
<text text-anchor="middle" x="1361.5" y="-99.5" font-family="Courier,monospace" font-size="10.00">InternalSideIntegralPostprocessor</text>
</a>
</g>
</g>
<!-- Node2&#45;&gt;Node1 -->
<g id="edge1" class="edge">
<title>Node2&#45;&gt;Node1</title>
<path fill="none" stroke="#63b8ff" d="M1426.86,-89.9C1453.85,-84.82 1485.57,-78.86 1514.23,-73.47"/>
<polygon fill="#63b8ff" stroke="#63b8ff" points="1426.27,-86.45 1417.09,-91.74 1427.56,-93.33 1426.27,-86.45"/>
</g>
<!-- Node3 -->
<g id="node3" class="node">
<title>Node3</title>
<g id="a_node3"><a xlink:href="classInternalSidePostprocessor.html" target="_top" xlink:title=" ">
<polygon fill="white" stroke="#666666" points="1218,-123.5 1051,-123.5 1051,-104.5 1218,-104.5 1218,-123.5"/>
<text text-anchor="middle" x="1134.5" y="-111.5" font-family="Courier,monospace" font-size="10.00">InternalSidePostprocessor</text>
</a>
</g>
</g>
<!-- Node3&#45;&gt;Node2 -->
<g id="edge2" class="edge">
<title>Node3&#45;&gt;Node2</title>
<path fill="none" stroke="#63b8ff" d="M1229.8,-108.97C1237.7,-108.55 1245.73,-108.12 1253.72,-107.7"/>
<polygon fill="#63b8ff" stroke="#63b8ff" points="1229.63,-105.47 1219.83,-109.5 1230.01,-112.46 1229.63,-105.47"/>
</g>
<!-- Node4 -->
<g id="node4" class="node">
<title>Node4</title>
<g id="a_node4"><a xlink:href="classInternalSideUserObject.html" target="_top" xlink:title="Base class for user objects executed on all element sides internal to one or more blocks,...">
<polygon fill="white" stroke="#666666" points="1015,-289.5 866,-289.5 866,-270.5 1015,-270.5 1015,-289.5"/>
<text text-anchor="middle" x="940.5" y="-277.5" font-family="Courier,monospace" font-size="10.00">InternalSideUserObject</text>
</a>
</g>
</g>
<!-- Node4&#45;&gt;Node3 -->
<g id="edge3" class="edge">
<title>Node4&#45;&gt;Node3</title>
<path fill="none" stroke="#63b8ff" d="M961.61,-262.61C1001.84,-227.83 1091.04,-150.71 1122.36,-123.63"/>
<polygon fill="#63b8ff" stroke="#63b8ff" points="959.36,-259.94 954.08,-269.12 963.93,-265.23 959.36,-259.94"/>
</g>
<!-- Node5 -->
<g id="node5" class="node">
<title>Node5</title>
<g id="a_node5"><a xlink:href="classUserObject.html" target="_top" xlink:title="Base class for user&#45;specific data.">
<polygon fill="white" stroke="#666666" points="764,-622.5 687,-622.5 687,-603.5 764,-603.5 764,-622.5"/>
<text text-anchor="middle" x="725.5" y="-610.5" font-family="Courier,monospace" font-size="10.00">UserObject</text>
</a>
</g>
</g>
<!-- Node5&#45;&gt;Node4 -->
<g id="edge4" class="edge">
<title>Node5&#45;&gt;Node4</title>
<path fill="none" stroke="#63b8ff" d="M738.94,-593.56C778.97,-530.98 903.56,-336.19 933.15,-289.93"/>
<polygon fill="#63b8ff" stroke="#63b8ff" points="736.13,-591.45 733.69,-601.76 742.03,-595.22 736.13,-591.45"/>
</g>
<!-- Node6 -->
<g id="node6" class="node">
<title>Node6</title>
<g id="a_node6"><a xlink:href="classMooseObject.html" target="_top" xlink:title="Every object that can be built by the factory should be derived from this class.">
<polygon fill="white" stroke="#666666" points="534,-900.5 451,-900.5 451,-881.5 534,-881.5 534,-900.5"/>
<text text-anchor="middle" x="492.5" y="-888.5" font-family="Courier,monospace" font-size="10.00">MooseObject</text>
</a>
</g>
</g>
<!-- Node6&#45;&gt;Node5 -->
<g id="edge5" class="edge">
<title>Node6&#45;&gt;Node5</title>
<path fill="none" stroke="#63b8ff" d="M545.39,-888.82C559.28,-886.19 573.59,-881.43 585,-873 675.85,-805.88 713.69,-661.49 722.44,-622.74"/>
<polygon fill="#63b8ff" stroke="#63b8ff" points="545.25,-885.3 535.9,-890.27 546.31,-892.22 545.25,-885.3"/>
</g>
<!-- Node7 -->
<g id="node7" class="node">
<title>Node7</title>
<g id="a_node7"><a xlink:href="classMooseBase.html" target="_top" xlink:title="Base class for everything in MOOSE with a name and a type.">
<polygon fill="white" stroke="#666666" points="310,-974.5 239,-974.5 239,-955.5 310,-955.5 310,-974.5"/>
<text text-anchor="middle" x="274.5" y="-962.5" font-family="Courier,monospace" font-size="10.00">MooseBase</text>
</a>
</g>
</g>
<!-- Node7&#45;&gt;Node6 -->
<g id="edge6" class="edge">
<title>Node7&#45;&gt;Node6</title>
<path fill="none" stroke="#63b8ff" d="M321.62,-957.55C335.41,-954.81 350.46,-951.3 364,-947 403.87,-934.35 448.08,-913.22 472.56,-900.85"/>
<polygon fill="#63b8ff" stroke="#63b8ff" points="321.06,-954.09 311.89,-959.39 322.36,-960.97 321.06,-954.09"/>
</g>
<!-- Node8 -->
<g id="node8" class="node">
<title>Node8</title>
<g id="a_node8"><a xlink:href="classMooseBaseParameterInterface.html" target="_top" xlink:title="Every object that can be built by the factory should be derived from this class.">
<polygon fill="white" stroke="#666666" points="364,-937.5 185,-937.5 185,-918.5 364,-918.5 364,-937.5"/>
<text text-anchor="middle" x="274.5" y="-925.5" font-family="Courier,monospace" font-size="10.00">MooseBaseParameterInterface</text>
</a>
</g>
</g>
<!-- Node8&#45;&gt;Node6 -->
<g id="edge7" class="edge">
<title>Node8&#45;&gt;Node6</title>
<path fill="none" stroke="#63b8ff" d="M344.77,-916.13C379.7,-910.15 420.85,-903.1 450.68,-897.99"/>
<polygon fill="#63b8ff" stroke="#63b8ff" points="344.43,-912.64 335.16,-917.78 345.61,-919.54 344.43,-912.64"/>
</g>
<!-- Node9 -->
<g id="node9" class="node">
<title>Node9</title>
<g id="a_node9"><a xlink:href="classMooseBaseErrorInterface.html" target="_top" xlink:title="Interface that provides APIs to output errors/warnings/info messages.">
<polygon fill="white" stroke="#666666" points="352,-900.5 197,-900.5 197,-881.5 352,-881.5 352,-900.5"/>
<text text-anchor="middle" x="274.5" y="-888.5" font-family="Courier,monospace" font-size="10.00">MooseBaseErrorInterface</text>
</a>
</g>
</g>
<!-- Node9&#45;&gt;Node6 -->
<g id="edge8" class="edge">
<title>Node9&#45;&gt;Node6</title>
<path fill="none" stroke="#63b8ff" d="M363.7,-891C393.87,-891 426.17,-891 450.75,-891"/>
<polygon fill="#63b8ff" stroke="#63b8ff" points="363.78,-887.5 353.78,-891 363.78,-894.5 363.78,-887.5"/>
</g>
<!-- Node10 -->
<g id="node10" class="node">
<title>Node10</title>
<g id="a_node10"><a xlink:href="classConsoleStreamInterface.html" target="_top" xlink:title="An inteface for the _console for outputting to the Console object.">
<polygon fill="white" stroke="#666666" points="149,-900.5 0,-900.5 0,-881.5 149,-881.5 149,-900.5"/>
<text text-anchor="middle" x="74.5" y="-888.5" font-family="Courier,monospace" font-size="10.00">ConsoleStreamInterface</text>
</a>
</g>
</g>
<!-- Node10&#45;&gt;Node9 -->
<g id="edge9" class="edge">
<title>Node10&#45;&gt;Node9</title>
<path fill="none" stroke="#63b8ff" d="M160.62,-891C172.62,-891 184.9,-891 196.73,-891"/>
<polygon fill="#63b8ff" stroke="#63b8ff" points="160.74,-887.5 150.74,-891 160.74,-894.5 160.74,-887.5"/>
</g>
<!-- Node11 -->
<g id="node11" class="node">
<title>Node11</title>
<g id="a_node11"><a xlink:title=" ">
<polygon fill="white" stroke="#666666" points="352,-863.5 197,-863.5 197,-844.5 352,-844.5 352,-863.5"/>
<text text-anchor="middle" x="274.5" y="-851.5" font-family="Courier,monospace" font-size="10.00">libMesh::ParallelObject</text>
</a>
</g>
</g>
<!-- Node11&#45;&gt;Node6 -->
<g id="edge10" class="edge">
<title>Node11&#45;&gt;Node6</title>
<path fill="none" stroke="#63b8ff" d="M344.77,-865.87C379.7,-871.85 420.85,-878.9 450.68,-884.01"/>
<polygon fill="#63b8ff" stroke="#63b8ff" points="345.61,-862.46 335.16,-864.22 344.43,-869.36 345.61,-862.46"/>
</g>
<!-- Node12 -->
<g id="node12" class="node">
<title>Node12</title>
<g id="a_node12"><a xlink:href="classDataFileInterface.html" target="_top" xlink:title=" ">
<polygon fill="white" stroke="#666666" points="337,-826 212,-826 212,-796 337,-796 337,-826"/>
<text text-anchor="start" x="220" y="-814" font-family="Courier,monospace" font-size="10.00">DataFileInterface&lt;</text>
<text text-anchor="middle" x="274.5" y="-803" font-family="Courier,monospace" font-size="10.00"> MooseObject &gt;</text>
</a>
</g>
</g>
<!-- Node12&#45;&gt;Node6 -->
<g id="edge11" class="edge">
<title>Node12&#45;&gt;Node6</title>
<path fill="none" stroke="#63b8ff" d="M347.62,-827.85C353.32,-830.23 358.86,-832.94 364,-836 383.71,-847.74 379.83,-862.07 400,-873 415.37,-881.33 434.06,-885.84 450.53,-888.26"/>
<polygon fill="#63b8ff" stroke="#63b8ff" points="349.23,-824.72 338.64,-824.44 346.74,-831.26 349.23,-824.72"/>
</g>
<!-- Node13 -->
<g id="node13" class="node">
<title>Node13</title>
<g id="a_node13"><a xlink:href="classSetupInterface.html" target="_top" xlink:title=" ">
<polygon fill="white" stroke="#666666" points="543,-863.5 442,-863.5 442,-844.5 543,-844.5 543,-863.5"/>
<text text-anchor="middle" x="492.5" y="-851.5" font-family="Courier,monospace" font-size="10.00">SetupInterface</text>
</a>
</g>
</g>
<!-- Node13&#45;&gt;Node5 -->
<g id="edge12" class="edge">
<title>Node13&#45;&gt;Node5</title>
<path fill="none" stroke="#63b8ff" d="M554.61,-849.18C565.37,-846.38 575.99,-842.2 585,-836 666.99,-779.54 710.5,-657.53 721.61,-622.55"/>
<polygon fill="#63b8ff" stroke="#63b8ff" points="553.92,-845.75 544.89,-851.3 555.41,-852.59 553.92,-845.75"/>
</g>
<!-- Node14 -->
<g id="node14" class="node">
<title>Node14</title>
<g id="a_node14"><a xlink:href="classFunctionInterface.html" target="_top" xlink:title="Interface for objects that need to use functions.">
<polygon fill="white" stroke="#666666" points="552,-826.5 433,-826.5 433,-807.5 552,-807.5 552,-826.5"/>
<text text-anchor="middle" x="492.5" y="-814.5" font-family="Courier,monospace" font-size="10.00">FunctionInterface</text>
</a>
</g>
</g>
<!-- Node14&#45;&gt;Node5 -->
<g id="edge13" class="edge">
<title>Node14&#45;&gt;Node5</title>
<path fill="none" stroke="darkgreen" d="M563.08,-808.99C570.8,-806.47 578.29,-803.21 585,-799 658.15,-753.06 706.48,-653.95 720.37,-622.67"/>
<polygon fill="darkgreen" stroke="darkgreen" points="562.2,-805.6 553.52,-811.67 564.09,-812.34 562.2,-805.6"/>
</g>
<!-- Node15 -->
<g id="node15" class="node">
<title>Node15</title>
<g id="a_node15"><a xlink:href="classUserObjectInterface.html" target="_top" xlink:title="Interface for objects that need to use UserObjects.">
<polygon fill="white" stroke="#666666" points="558,-789.5 427,-789.5 427,-770.5 558,-770.5 558,-789.5"/>
<text text-anchor="middle" x="492.5" y="-777.5" font-family="Courier,monospace" font-size="10.00">UserObjectInterface</text>
</a>
</g>
</g>
<!-- Node15&#45;&gt;Node5 -->
<g id="edge14" class="edge">
<title>Node15&#45;&gt;Node5</title>
<path fill="none" stroke="#63b8ff" d="M569.1,-769.12C574.63,-767.13 580,-764.77 585,-762 649.46,-726.26 701.26,-650.23 718.42,-622.98"/>
<polygon fill="#63b8ff" stroke="#63b8ff" points="568.23,-765.72 559.74,-772.07 570.33,-772.4 568.23,-765.72"/>
</g>
<!-- Node16 -->
<g id="node16" class="node">
<title>Node16</title>
<g id="a_node16"><a xlink:href="classPostprocessorInterface.html" target="_top" xlink:title="Interface class for classes which interact with Postprocessors.">
<polygon fill="white" stroke="#666666" points="567,-752.5 418,-752.5 418,-733.5 567,-733.5 567,-752.5"/>
<text text-anchor="middle" x="492.5" y="-740.5" font-family="Courier,monospace" font-size="10.00">PostprocessorInterface</text>
</a>
</g>
</g>
<!-- Node16&#45;&gt;Node5 -->
<g id="edge15" class="edge">
<title>Node16&#45;&gt;Node5</title>
<path fill="none" stroke="darkgreen" d="M573.95,-729.52C577.74,-728.16 581.44,-726.65 585,-725 641.32,-698.8 694.79,-645.18 715.48,-622.97"/>
<polygon fill="darkgreen" stroke="darkgreen" points="572.97,-726.16 564.53,-732.55 575.12,-732.82 572.97,-726.16"/>
</g>
<!-- Node17 -->
<g id="node17" class="node">
<title>Node17</title>
<g id="a_node17"><a xlink:href="classVectorPostprocessorInterface.html" target="_top" xlink:title=" ">
<polygon fill="white" stroke="#666666" points="585,-715.5 400,-715.5 400,-696.5 585,-696.5 585,-715.5"/>
<text text-anchor="middle" x="492.5" y="-703.5" font-family="Courier,monospace" font-size="10.00">VectorPostprocessorInterface</text>
</a>
</g>
</g>
<!-- Node17&#45;&gt;Node5 -->
<g id="edge16" class="edge">
<title>Node17&#45;&gt;Node5</title>
<path fill="none" stroke="darkgreen" d="M568.24,-693.23C573.97,-691.67 579.61,-689.93 585,-688 633.15,-670.76 684.97,-638.98 709.71,-622.89"/>
<polygon fill="darkgreen" stroke="darkgreen" points="567.48,-689.82 558.64,-695.66 569.19,-696.6 567.48,-689.82"/>
</g>
<!-- Node18 -->
<g id="node18" class="node">
<title>Node18</title>
<g id="a_node18"><a xlink:href="classReporterInterface.html" target="_top" xlink:title="Interface to allow object to consume Reporter values.">
<polygon fill="white" stroke="#666666" points="552,-678.5 433,-678.5 433,-659.5 552,-659.5 552,-678.5"/>
<text text-anchor="middle" x="492.5" y="-666.5" font-family="Courier,monospace" font-size="10.00">ReporterInterface</text>
</a>
</g>
</g>
<!-- Node18&#45;&gt;Node5 -->
<g id="edge17" class="edge">
<title>Node18&#45;&gt;Node5</title>
<path fill="none" stroke="darkgreen" d="M558.53,-656.8C567.45,-654.96 576.47,-653 585,-651 621.29,-642.5 662.42,-631.07 690.56,-622.98"/>
<polygon fill="darkgreen" stroke="darkgreen" points="557.93,-653.35 548.83,-658.77 559.32,-660.21 557.93,-653.35"/>
</g>
<!-- Node19 -->
<g id="node19" class="node">
<title>Node19</title>
<g id="a_node19"><a xlink:href="classDistributionInterface.html" target="_top" xlink:title="Interface for objects that need to use distributions.">
<polygon fill="white" stroke="#666666" points="564,-641.5 421,-641.5 421,-622.5 564,-622.5 564,-641.5"/>
<text text-anchor="middle" x="492.5" y="-629.5" font-family="Courier,monospace" font-size="10.00">DistributionInterface</text>
</a>
</g>
</g>
<!-- Node19&#45;&gt;Node5 -->
<g id="edge18" class="edge">
<title>Node19&#45;&gt;Node5</title>
<path fill="none" stroke="darkgreen" d="M575.43,-625.26C613.35,-622.14 656.56,-618.59 686.65,-616.11"/>
<polygon fill="darkgreen" stroke="darkgreen" points="575.57,-621.74 565.89,-626.05 576.14,-628.71 575.57,-621.74"/>
</g>
<!-- Node20 -->
<g id="node20" class="node">
<title>Node20</title>
<g id="a_node20"><a xlink:href="classSamplerInterface.html" target="_top" xlink:title="Interface for objects that need to use samplers.">
<polygon fill="white" stroke="#666666" points="549,-604.5 436,-604.5 436,-585.5 549,-585.5 549,-604.5"/>
<text text-anchor="middle" x="492.5" y="-592.5" font-family="Courier,monospace" font-size="10.00">SamplerInterface</text>
</a>
</g>
</g>
<!-- Node20&#45;&gt;Node5 -->
<g id="edge19" class="edge">
<title>Node20&#45;&gt;Node5</title>
<path fill="none" stroke="darkgreen" d="M560.71,-600.24C601.74,-603.43 652.7,-607.41 686.78,-610.06"/>
<polygon fill="darkgreen" stroke="darkgreen" points="561.17,-596.76 550.93,-599.47 560.63,-603.74 561.17,-596.76"/>
</g>
<!-- Node21 -->
<g id="node21" class="node">
<title>Node21</title>
<g id="a_node21"><a xlink:href="classRestartable.html" target="_top" xlink:title="A class for creating restricted objects.">
<polygon fill="white" stroke="#666666" points="534,-567.5 451,-567.5 451,-548.5 534,-548.5 534,-567.5"/>
<text text-anchor="middle" x="492.5" y="-555.5" font-family="Courier,monospace" font-size="10.00">Restartable</text>
</a>
</g>
</g>
<!-- Node21&#45;&gt;Node5 -->
<g id="edge20" class="edge">
<title>Node21&#45;&gt;Node5</title>
<path fill="none" stroke="darkgreen" d="M545.27,-568.3C558.27,-571.01 572.17,-574.01 585,-577 620.08,-585.16 659.83,-595.53 687.9,-603.05"/>
<polygon fill="darkgreen" stroke="darkgreen" points="546.11,-564.9 535.61,-566.31 544.7,-571.76 546.11,-564.9"/>
</g>
<!-- Node22 -->
<g id="node22" class="node">
<title>Node22</title>
<g id="a_node22"><a xlink:href="classMeshMetaDataInterface.html" target="_top" xlink:title="The Interface used to retrieve mesh meta data (attributes) set by the MeshGenerator system.">
<polygon fill="white" stroke="#666666" points="564,-530.5 421,-530.5 421,-511.5 564,-511.5 564,-530.5"/>
<text text-anchor="middle" x="492.5" y="-518.5" font-family="Courier,monospace" font-size="10.00">MeshMetaDataInterface</text>
</a>
</g>
</g>
<!-- Node22&#45;&gt;Node5 -->
<g id="edge21" class="edge">
<title>Node22&#45;&gt;Node5</title>
<path fill="none" stroke="darkgreen" d="M564.33,-533.65C571.39,-535.52 578.38,-537.63 585,-540 632.62,-557.03 684.26,-587.57 709.25,-603.2"/>
<polygon fill="darkgreen" stroke="darkgreen" points="565.25,-530.27 554.7,-531.27 563.56,-537.07 565.25,-530.27"/>
</g>
<!-- Node23 -->
<g id="node23" class="node">
<title>Node23</title>
<g id="a_node23"><a xlink:href="classMeshChangedInterface.html" target="_top" xlink:title="Interface for notifications that the mesh has changed.">
<polygon fill="white" stroke="#666666" points="561,-493.5 424,-493.5 424,-474.5 561,-474.5 561,-493.5"/>
<text text-anchor="middle" x="492.5" y="-481.5" font-family="Courier,monospace" font-size="10.00">MeshChangedInterface</text>
</a>
</g>
</g>
<!-- Node23&#45;&gt;Node5 -->
<g id="edge22" class="edge">
<title>Node23&#45;&gt;Node5</title>
<path fill="none" stroke="darkgreen" d="M570.63,-497.27C575.58,-498.96 580.41,-500.86 585,-503 640.91,-529.06 694.6,-581.54 715.42,-603.25"/>
<polygon fill="darkgreen" stroke="darkgreen" points="571.71,-493.94 561.12,-494.35 569.65,-500.63 571.71,-493.94"/>
</g>
<!-- Node24 -->
<g id="node24" class="node">
<title>Node24</title>
<g id="a_node24"><a xlink:href="classScalarCoupleable.html" target="_top" xlink:title="Interface for objects that needs scalar coupling capabilities.">
<polygon fill="white" stroke="#666666" points="549,-456.5 436,-456.5 436,-437.5 549,-437.5 549,-456.5"/>
<text text-anchor="middle" x="492.5" y="-444.5" font-family="Courier,monospace" font-size="10.00">ScalarCoupleable</text>
</a>
</g>
</g>
<!-- Node24&#45;&gt;Node5 -->
<g id="edge23" class="edge">
<title>Node24&#45;&gt;Node5</title>
<path fill="none" stroke="darkgreen" d="M560.14,-455.84C568.81,-458.41 577.33,-461.73 585,-466 648.93,-501.61 701.07,-576.4 718.37,-603.19"/>
<polygon fill="darkgreen" stroke="darkgreen" points="561.16,-452.49 550.6,-453.34 559.39,-459.26 561.16,-452.49"/>
</g>
<!-- Node25 -->
<g id="node25" class="node">
<title>Node25</title>
<g id="a_node25"><a xlink:href="classPerfGraphInterface.html" target="_top" xlink:title="Interface for objects interacting with the PerfGraph.">
<polygon fill="white" stroke="#666666" points="555,-419.5 430,-419.5 430,-400.5 555,-400.5 555,-419.5"/>
<text text-anchor="middle" x="492.5" y="-407.5" font-family="Courier,monospace" font-size="10.00">PerfGraphInterface</text>
</a>
</g>
</g>
<!-- Node25&#45;&gt;Node5 -->
<g id="edge24" class="edge">
<title>Node25&#45;&gt;Node5</title>
<path fill="none" stroke="darkgreen" d="M566.03,-419.89C572.71,-422.31 579.15,-425.3 585,-429 657.19,-474.6 705.82,-571.7 720.12,-603.03"/>
<polygon fill="darkgreen" stroke="darkgreen" points="567.44,-416.67 556.85,-417 565.34,-423.34 567.44,-416.67"/>
</g>
<!-- Node26 -->
<g id="node26" class="node">
<title>Node26</title>
<g id="a_node26"><a xlink:href="classDependencyResolverInterface.html" target="_top" xlink:title="Interface for sorting dependent vectors of objects.">
<polygon fill="white" stroke="#666666" points="582,-382.5 403,-382.5 403,-363.5 582,-363.5 582,-382.5"/>
<text text-anchor="middle" x="492.5" y="-370.5" font-family="Courier,monospace" font-size="10.00">DependencyResolverInterface</text>
</a>
</g>
</g>
<!-- Node26&#45;&gt;Node5 -->
<g id="edge25" class="edge">
<title>Node26&#45;&gt;Node5</title>
<path fill="none" stroke="#63b8ff" d="M577.97,-387.68C580.4,-389 582.75,-390.44 585,-392 665.91,-448.1 709.89,-567.89 721.41,-603.08"/>
<polygon fill="#63b8ff" stroke="#63b8ff" points="579.52,-384.54 568.98,-383.49 576.57,-390.89 579.52,-384.54"/>
</g>
<!-- Node27 -->
<g id="node27" class="node">
<title>Node27</title>
<g id="a_node27"><a xlink:href="classBlockRestrictable.html" target="_top" xlink:title="An interface that restricts an object to subdomains via the &#39;blocks&#39; input parameter.">
<polygon fill="white" stroke="#666666" points="785,-382.5 666,-382.5 666,-363.5 785,-363.5 785,-382.5"/>
<text text-anchor="middle" x="725.5" y="-370.5" font-family="Courier,monospace" font-size="10.00">BlockRestrictable</text>
</a>
</g>
</g>
<!-- Node27&#45;&gt;Node4 -->
<g id="edge26" class="edge">
<title>Node27&#45;&gt;Node4</title>
<path fill="none" stroke="#63b8ff" d="M796.75,-364.98C808.1,-362.5 819.55,-359.25 830,-355 869.91,-338.76 909.94,-306.23 928.62,-289.87"/>
<polygon fill="#63b8ff" stroke="#63b8ff" points="796.09,-361.55 786.96,-366.92 797.45,-368.41 796.09,-361.55"/>
</g>
<!-- Node28 -->
<g id="node28" class="node">
<title>Node28</title>
<g id="a_node28"><a xlink:href="classTwoMaterialPropertyInterface.html" target="_top" xlink:title="This interface is designed for DGKernel, InternalSideUserObject, InterfaceUserObject,...">
<polygon fill="white" stroke="#666666" points="818,-345.5 633,-345.5 633,-326.5 818,-326.5 818,-345.5"/>
<text text-anchor="middle" x="725.5" y="-333.5" font-family="Courier,monospace" font-size="10.00">TwoMaterialPropertyInterface</text>
</a>
</g>
</g>
<!-- Node28&#45;&gt;Node4 -->
<g id="edge27" class="edge">
<title>Node28&#45;&gt;Node4</title>
<path fill="none" stroke="#63b8ff" d="M804.65,-323.8C813.24,-322.05 821.84,-320.11 830,-318 859.61,-310.34 892.66,-298.38 914.63,-289.93"/>
<polygon fill="#63b8ff" stroke="#63b8ff" points="804,-320.36 794.86,-325.72 805.35,-327.23 804,-320.36"/>
</g>
<!-- Node29 -->
<g id="node29" class="node">
<title>Node29</title>
<g id="a_node29"><a xlink:href="classMaterialPropertyInterface.html" target="_top" xlink:title="An interface for accessing Materials.">
<polygon fill="white" stroke="#666666" points="576,-345.5 409,-345.5 409,-326.5 576,-326.5 576,-345.5"/>
<text text-anchor="middle" x="492.5" y="-333.5" font-family="Courier,monospace" font-size="10.00">MaterialPropertyInterface</text>
</a>
</g>
</g>
<!-- Node29&#45;&gt;Node28 -->
<g id="edge28" class="edge">
<title>Node29&#45;&gt;Node28</title>
<path fill="none" stroke="#63b8ff" d="M587.5,-336C602.36,-336 617.72,-336 632.54,-336"/>
<polygon fill="#63b8ff" stroke="#63b8ff" points="587.76,-332.5 577.76,-336 587.76,-339.5 587.76,-332.5"/>
</g>
<!-- Node30 -->
<g id="node30" class="node">
<title>Node30</title>
<g id="a_node30"><a xlink:href="classNeighborCoupleable.html" target="_top" xlink:title="Enhances Coupleable interface to also couple the values from neighbor elements.">
<polygon fill="white" stroke="#666666" points="788,-308.5 663,-308.5 663,-289.5 788,-289.5 788,-308.5"/>
<text text-anchor="middle" x="725.5" y="-296.5" font-family="Courier,monospace" font-size="10.00">NeighborCoupleable</text>
</a>
</g>
</g>
<!-- Node30&#45;&gt;Node4 -->
<g id="edge29" class="edge">
<title>Node30&#45;&gt;Node4</title>
<path fill="none" stroke="#63b8ff" d="M799.69,-292.47C821.04,-290.57 844.38,-288.48 865.77,-286.58"/>
<polygon fill="#63b8ff" stroke="#63b8ff" points="799.55,-288.97 789.9,-293.34 800.17,-295.94 799.55,-288.97"/>
</g>
<!-- Node31 -->
<g id="node31" class="node">
<title>Node31</title>
<g id="a_node31"><a xlink:href="classCoupleable.html" target="_top" xlink:title="Interface for objects that needs coupling capabilities.">
<polygon fill="white" stroke="#666666" points="531,-308.5 454,-308.5 454,-289.5 531,-289.5 531,-308.5"/>
<text text-anchor="middle" x="492.5" y="-296.5" font-family="Courier,monospace" font-size="10.00">Coupleable</text>
</a>
</g>
</g>
<!-- Node31&#45;&gt;Node30 -->
<g id="edge30" class="edge">
<title>Node31&#45;&gt;Node30</title>
<path fill="none" stroke="#63b8ff" d="M542.76,-299C577.79,-299 625.09,-299 662.66,-299"/>
<polygon fill="#63b8ff" stroke="#63b8ff" points="542.9,-295.5 532.9,-299 542.9,-302.5 542.9,-295.5"/>
</g>
<!-- Node32 -->
<g id="node32" class="node">
<title>Node32</title>
<g id="a_node32"><a xlink:href="classMooseVariableDependencyInterface.html" target="_top" xlink:title=" ">
<polygon fill="white" stroke="#666666" points="830,-271.5 621,-271.5 621,-252.5 830,-252.5 830,-271.5"/>
<text text-anchor="middle" x="725.5" y="-259.5" font-family="Courier,monospace" font-size="10.00">MooseVariableDependencyInterface</text>
</a>
</g>
</g>
<!-- Node32&#45;&gt;Node4 -->
<g id="edge31" class="edge">
<title>Node32&#45;&gt;Node4</title>
<path fill="none" stroke="#63b8ff" d="M841.4,-271.71C849.59,-272.4 857.73,-273.09 865.6,-273.75"/>
<polygon fill="#63b8ff" stroke="#63b8ff" points="841.96,-268.24 831.7,-270.89 841.37,-275.22 841.96,-268.24"/>
</g>
<!-- Node33 -->
<g id="node33" class="node">
<title>Node33</title>
<g id="a_node33"><a xlink:href="classTransientInterface.html" target="_top" xlink:title="Interface for objects that needs transient capabilities.">
<polygon fill="white" stroke="#666666" points="788,-234.5 663,-234.5 663,-215.5 788,-215.5 788,-234.5"/>
<text text-anchor="middle" x="725.5" y="-222.5" font-family="Courier,monospace" font-size="10.00">TransientInterface</text>
</a>
</g>
</g>
<!-- Node33&#45;&gt;Node4 -->
<g id="edge32" class="edge">
<title>Node33&#45;&gt;Node4</title>
<path fill="none" stroke="#63b8ff" d="M799.47,-237.11C809.77,-239.19 820.18,-241.5 830,-244 858.7,-251.32 890.81,-262.2 912.8,-270.09"/>
<polygon fill="#63b8ff" stroke="#63b8ff" points="800.34,-233.71 789.85,-235.23 799,-240.58 800.34,-233.71"/>
</g>
<!-- Node34 -->
<g id="node34" class="node">
<title>Node34</title>
<g id="a_node34"><a xlink:href="classElementIDInterface.html" target="_top" xlink:title=" ">
<polygon fill="white" stroke="#666666" points="788,-197.5 663,-197.5 663,-178.5 788,-178.5 788,-197.5"/>
<text text-anchor="middle" x="725.5" y="-185.5" font-family="Courier,monospace" font-size="10.00">ElementIDInterface</text>
</a>
</g>
</g>
<!-- Node34&#45;&gt;Node4 -->
<g id="edge33" class="edge">
<title>Node34&#45;&gt;Node4</title>
<path fill="none" stroke="#63b8ff" d="M799.64,-197.57C810.03,-200.03 820.42,-203.12 830,-207 869.39,-222.95 909.35,-254.26 928.25,-270.19"/>
<polygon fill="#63b8ff" stroke="#63b8ff" points="800.41,-194.15 789.9,-195.45 798.93,-200.99 800.41,-194.15"/>
</g>
<!-- Node35 -->
<g id="node35" class="node">
<title>Node35</title>
<g id="a_node35"><a xlink:href="classPostprocessor.html" target="_top" xlink:title="Base class for all Postprocessors.">
<polygon fill="white" stroke="#666666" points="988,-123.5 893,-123.5 893,-104.5 988,-104.5 988,-123.5"/>
<text text-anchor="middle" x="940.5" y="-111.5" font-family="Courier,monospace" font-size="10.00">Postprocessor</text>
</a>
</g>
</g>
<!-- Node35&#45;&gt;Node3 -->
<g id="edge34" class="edge">
<title>Node35&#45;&gt;Node3</title>
<path fill="none" stroke="#63b8ff" d="M999.82,-114C1015.86,-114 1033.57,-114 1050.7,-114"/>
<polygon fill="#63b8ff" stroke="#63b8ff" points="999.98,-110.5 989.98,-114 999.98,-117.5 999.98,-110.5"/>
</g>
<!-- Node36 -->
<g id="node36" class="node">
<title>Node36</title>
<g id="a_node36"><a xlink:href="classOutputInterface.html" target="_top" xlink:title="A class to provide an common interface to objects requiring &quot;outputs&quot; option.">
<polygon fill="white" stroke="#666666" points="779,-160.5 672,-160.5 672,-141.5 779,-141.5 779,-160.5"/>
<text text-anchor="middle" x="725.5" y="-148.5" font-family="Courier,monospace" font-size="10.00">OutputInterface</text>
</a>
</g>
</g>
<!-- Node36&#45;&gt;Node35 -->
<g id="edge35" class="edge">
<title>Node36&#45;&gt;Node35</title>
<path fill="none" stroke="#63b8ff" d="M790.74,-139.84C823.54,-134.14 862.73,-127.34 892.65,-122.14"/>
<polygon fill="#63b8ff" stroke="#63b8ff" points="790.17,-136.39 780.92,-141.55 791.37,-143.28 790.17,-136.39"/>
</g>
<!-- Node37 -->
<g id="node37" class="node">
<title>Node37</title>
<g id="a_node37"><a xlink:href="classNonADFunctorInterface.html" target="_top" xlink:title="An interface for accessing Moose::Functors for systems that do not care about automatic differentiati...">
<polygon fill="white" stroke="#666666" points="797,-123.5 654,-123.5 654,-104.5 797,-104.5 797,-123.5"/>
<text text-anchor="middle" x="725.5" y="-111.5" font-family="Courier,monospace" font-size="10.00">NonADFunctorInterface</text>
</a>
</g>
</g>
<!-- Node37&#45;&gt;Node35 -->
<g id="edge36" class="edge">
<title>Node37&#45;&gt;Node35</title>
<path fill="none" stroke="#63b8ff" d="M808.62,-114C837.09,-114 868.03,-114 892.67,-114"/>
<polygon fill="#63b8ff" stroke="#63b8ff" points="808.94,-110.5 798.94,-114 808.94,-117.5 808.94,-110.5"/>
</g>
<!-- Node38 -->
<g id="node38" class="node">
<title>Node38</title>
<g id="a_node38"><a xlink:href="classFunctorInterface.html" target="_top" xlink:title="An interface for accessing Moose::Functors.">
<polygon fill="white" stroke="#666666" points="549,-123.5 436,-123.5 436,-104.5 549,-104.5 549,-123.5"/>
<text text-anchor="middle" x="492.5" y="-111.5" font-family="Courier,monospace" font-size="10.00">FunctorInterface</text>
</a>
</g>
</g>
<!-- Node38&#45;&gt;Node37 -->
<g id="edge37" class="edge">
<title>Node38&#45;&gt;Node37</title>
<path fill="none" stroke="#63b8ff" d="M560.76,-114C589.96,-114 624.18,-114 653.77,-114"/>
<polygon fill="#63b8ff" stroke="#63b8ff" points="560.93,-110.5 550.93,-114 560.93,-117.5 560.93,-110.5"/>
</g>
<!-- Node39 -->
<g id="node39" class="node">
<title>Node39</title>
<g id="a_node39"><a xlink:href="classMoose_1_1FunctorBase.html" target="_top" xlink:title=" ">
<polygon fill="white" stroke="#666666" points="788,-86 663,-86 663,-56 788,-56 788,-86"/>
<text text-anchor="start" x="671" y="-74" font-family="Courier,monospace" font-size="10.00">Moose::FunctorBase</text>
<text text-anchor="middle" x="725.5" y="-63" font-family="Courier,monospace" font-size="10.00">&lt; Real &gt;</text>
</a>
</g>
</g>
<!-- Node39&#45;&gt;Node35 -->
<g id="edge38" class="edge">
<title>Node39&#45;&gt;Node35</title>
<path fill="none" stroke="#63b8ff" d="M799.55,-85.75C830.4,-91.97 865.42,-99.04 892.71,-104.55"/>
<polygon fill="#63b8ff" stroke="#63b8ff" points="800.37,-82.34 789.88,-83.79 798.99,-89.2 800.37,-82.34"/>
</g>
<!-- Node40 -->
<g id="node40" class="node">
<title>Node40</title>
<g id="a_node40"><a xlink:href="classMoose_1_1FunctorAbstract.html" target="_top" xlink:title="Abstract base class that can be used to hold collections of functors.">
<polygon fill="white" stroke="#666666" points="567,-78.5 418,-78.5 418,-59.5 567,-59.5 567,-78.5"/>
<text text-anchor="middle" x="492.5" y="-66.5" font-family="Courier,monospace" font-size="10.00">Moose::FunctorAbstract</text>
</a>
</g>
</g>
<!-- Node40&#45;&gt;Node39 -->
<g id="edge39" class="edge">
<title>Node40&#45;&gt;Node39</title>
<path fill="none" stroke="#63b8ff" d="M578.58,-69.74C606.46,-69.98 636.88,-70.24 662.7,-70.46"/>
<polygon fill="#63b8ff" stroke="#63b8ff" points="578.77,-66.24 568.74,-69.65 578.71,-73.24 578.77,-66.24"/>
</g>
<!-- Node41 -->
<g id="node41" class="node">
<title>Node41</title>
<g id="a_node41"><a xlink:href="classFaceArgInterface.html" target="_top" xlink:title="A base class interface for both producers and consumers of functor face arguments,...">
<polygon fill="white" stroke="#666666" points="331,-57.5 218,-57.5 218,-38.5 331,-38.5 331,-57.5"/>
<text text-anchor="middle" x="274.5" y="-45.5" font-family="Courier,monospace" font-size="10.00">FaceArgInterface</text>
</a>
</g>
</g>
<!-- Node41&#45;&gt;Node40 -->
<g id="edge40" class="edge">
<title>Node41&#45;&gt;Node40</title>
<path fill="none" stroke="#63b8ff" d="M342.78,-54.54C366.49,-56.85 393.27,-59.45 417.51,-61.81"/>
<polygon fill="#63b8ff" stroke="#63b8ff" points="343.2,-51.07 332.91,-53.58 342.53,-58.03 343.2,-51.07"/>
</g>
<!-- Node43 -->
<g id="node43" class="node">
<title>Node43</title>
<g id="a_node43"><a xlink:href="classFaceArgProducerInterface.html" target="_top" xlink:title="An interface for producers of functor face arguments, e.g.">
<polygon fill="white" stroke="#666666" points="1215,-61.5 1054,-61.5 1054,-42.5 1215,-42.5 1215,-61.5"/>
<text text-anchor="middle" x="1134.5" y="-49.5" font-family="Courier,monospace" font-size="10.00">FaceArgProducerInterface</text>
</a>
</g>
</g>
<!-- Node41&#45;&gt;Node43 -->
<g id="edge43" class="edge">
<title>Node41&#45;&gt;Node43</title>
<path fill="none" stroke="#63b8ff" d="M342.67,-47.44C446.97,-46.68 654.17,-45.55 830,-47 905.88,-47.63 992.43,-49.13 1053.63,-50.33"/>
<polygon fill="#63b8ff" stroke="#63b8ff" points="342.87,-43.94 332.9,-47.52 342.92,-50.94 342.87,-43.94"/>
</g>
<!-- Node42 -->
<g id="node42" class="node">
<title>Node42</title>
<g id="a_node42"><a xlink:href="classMooseVariableInterface.html" target="_top" xlink:title=" ">
<polygon fill="white" stroke="#666666" points="1436,-30 1287,-30 1287,0 1436,0 1436,-30"/>
<text text-anchor="start" x="1295" y="-18" font-family="Courier,monospace" font-size="10.00">MooseVariableInterface</text>
<text text-anchor="middle" x="1361.5" y="-7" font-family="Courier,monospace" font-size="10.00">&lt; Real &gt;</text>
</a>
</g>
</g>
<!-- Node42&#45;&gt;Node1 -->
<g id="edge41" class="edge">
<title>Node42&#45;&gt;Node1</title>
<path fill="none" stroke="#63b8ff" d="M1447.48,-30.62C1468.68,-34.51 1491.4,-38.69 1512.55,-42.57"/>
<polygon fill="#63b8ff" stroke="#63b8ff" points="1448.17,-27.19 1437.71,-28.82 1446.91,-34.07 1448.17,-27.19"/>
</g>
<!-- Node43&#45;&gt;Node1 -->
<g id="edge42" class="edge">
<title>Node43&#45;&gt;Node1</title>
<path fill="none" stroke="#63b8ff" d="M1226.38,-53.18C1306.89,-54.23 1423.85,-55.75 1504.65,-56.8"/>
<polygon fill="#63b8ff" stroke="#63b8ff" points="1226.83,-49.69 1216.79,-53.06 1226.74,-56.69 1226.83,-49.69"/>
</g>
</g>
</svg>
