<?xml version="1.0" encoding="UTF-8" standalone="no"?>
<!DOCTYPE svg PUBLIC "-//W3C//DTD SVG 1.1//EN"
 "http://www.w3.org/Graphics/SVG/1.1/DTD/svg11.dtd">
<!-- Generated by graphviz version 7.0.5 (20221223.1930)
 -->
<!-- Title: LayeredBase Pages: 1 -->
<svg width="1309pt" height="246pt"
 viewBox="0.00 0.00 1309.00 246.00" xmlns="http://www.w3.org/2000/svg" xmlns:xlink="http://www.w3.org/1999/xlink">
<g id="graph0" class="graph" transform="scale(1 1) rotate(0) translate(4 242)">
<title>LayeredBase</title>
<!-- Node1 -->
<g id="node1" class="node">
<title>Node1</title>
<g id="a_node1"><a xlink:title="This base class computes volume integrals of a variable storing partial sums for the specified number...">
<polygon fill="#999999" stroke="#666666" points="202,-122.5 119,-122.5 119,-103.5 202,-103.5 202,-122.5"/>
<text text-anchor="middle" x="160.5" y="-110.5" font-family="Courier,monospace" font-size="10.00">LayeredBase</text>
</a>
</g>
</g>
<!-- Node3 -->
<g id="node3" class="node">
<title>Node3</title>
<g id="a_node3"><a xlink:href="classLayeredSideIntegralBase.html" target="_top" xlink:title=" ">
<polygon fill="white" stroke="#666666" points="459,-238 238,-238 238,-208 459,-208 459,-238"/>
<text text-anchor="start" x="246" y="-226" font-family="Courier,monospace" font-size="10.00">LayeredSideIntegralBase</text>
<text text-anchor="middle" x="348.5" y="-215" font-family="Courier,monospace" font-size="10.00">&lt; SideIntegralVariableUserObject &gt;</text>
</a>
</g>
</g>
<!-- Node1&#45;&gt;Node3 -->
<g id="edge2" class="edge">
<title>Node1&#45;&gt;Node3</title>
<path fill="none" stroke="#63b8ff" d="M173.39,-132.38C186.64,-152.27 209.94,-182.57 238,-199 243.63,-202.29 249.65,-205.14 255.88,-207.59"/>
<polygon fill="#63b8ff" stroke="#63b8ff" points="176.41,-130.61 168.06,-124.08 170.51,-134.38 176.41,-130.61"/>
</g>
<!-- Node8 -->
<g id="node8" class="node">
<title>Node8</title>
<g id="a_node8"><a xlink:href="classLayeredSideIntegralBase.html" target="_top" xlink:title=" ">
<polygon fill="white" stroke="#666666" points="456,-190 241,-190 241,-160 456,-160 456,-190"/>
<text text-anchor="start" x="249" y="-178" font-family="Courier,monospace" font-size="10.00">LayeredSideIntegralBase</text>
<text text-anchor="middle" x="348.5" y="-167" font-family="Courier,monospace" font-size="10.00">&lt; SideIntegralFunctorUserObject &gt;</text>
</a>
</g>
</g>
<!-- Node1&#45;&gt;Node8 -->
<g id="edge7" class="edge">
<title>Node1&#45;&gt;Node8</title>
<path fill="none" stroke="#63b8ff" d="M189.07,-128.21C203.34,-135.6 221.25,-144.12 238,-150 248.12,-153.55 258.95,-156.73 269.71,-159.53"/>
<polygon fill="#63b8ff" stroke="#63b8ff" points="190.76,-125.14 180.28,-123.55 187.48,-131.33 190.76,-125.14"/>
</g>
<!-- Node12 -->
<g id="node12" class="node">
<title>Node12</title>
<g id="a_node12"><a xlink:href="classFunctionLayeredIntegral.html" target="_top" xlink:title="This UserObject computes volume integrals of a function storing partial sums for the specified number...">
<polygon fill="white" stroke="#666666" points="426,-141.5 271,-141.5 271,-122.5 426,-122.5 426,-141.5"/>
<text text-anchor="middle" x="348.5" y="-129.5" font-family="Courier,monospace" font-size="10.00">FunctionLayeredIntegral</text>
</a>
</g>
</g>
<!-- Node1&#45;&gt;Node12 -->
<g id="edge11" class="edge">
<title>Node1&#45;&gt;Node12</title>
<path fill="none" stroke="#63b8ff" d="M213.59,-118.32C231.33,-120.13 251.56,-122.2 270.82,-124.17"/>
<polygon fill="#63b8ff" stroke="#63b8ff" points="214.13,-114.86 203.82,-117.32 213.42,-121.82 214.13,-114.86"/>
</g>
<!-- Node13 -->
<g id="node13" class="node">
<title>Node13</title>
<g id="a_node13"><a xlink:href="classLayeredExtremumMaterialProperty.html" target="_top" xlink:title="This UserObject computes volume integrals of a variable storing partial sums for the specified number...">
<polygon fill="white" stroke="#666666" points="450,-104.5 247,-104.5 247,-85.5 450,-85.5 450,-104.5"/>
<text text-anchor="middle" x="348.5" y="-92.5" font-family="Courier,monospace" font-size="10.00">LayeredExtremumMaterialProperty</text>
</a>
</g>
</g>
<!-- Node1&#45;&gt;Node13 -->
<g id="edge12" class="edge">
<title>Node1&#45;&gt;Node13</title>
<path fill="none" stroke="#63b8ff" d="M213.63,-107.96C224,-106.95 235.21,-105.87 246.59,-104.77"/>
<polygon fill="#63b8ff" stroke="#63b8ff" points="213.44,-104.46 203.82,-108.9 214.12,-111.42 213.44,-104.46"/>
</g>
<!-- Node14 -->
<g id="node14" class="node">
<title>Node14</title>
<g id="a_node14"><a xlink:href="classLayeredIntegral.html" target="_top" xlink:title="This UserObject computes volume integrals of a variable storing partial sums for the specified number...">
<polygon fill="white" stroke="#666666" points="402,-67.5 295,-67.5 295,-48.5 402,-48.5 402,-67.5"/>
<text text-anchor="middle" x="348.5" y="-55.5" font-family="Courier,monospace" font-size="10.00">LayeredIntegral</text>
</a>
</g>
</g>
<!-- Node1&#45;&gt;Node14 -->
<g id="edge13" class="edge">
<title>Node1&#45;&gt;Node14</title>
<path fill="none" stroke="#63b8ff" d="M187.94,-97.87C202.33,-90.25 220.68,-81.48 238,-76 256.09,-70.27 276.47,-66.29 294.7,-63.55"/>
<polygon fill="#63b8ff" stroke="#63b8ff" points="186.67,-94.58 179.57,-102.44 190.02,-100.73 186.67,-94.58"/>
</g>
<!-- Node16 -->
<g id="node16" class="node">
<title>Node16</title>
<g id="a_node16"><a xlink:href="classLayeredSideIntegralBase.html" target="_top" xlink:title="Base class for computing layered side integrals.">
<polygon fill="white" stroke="#666666" points="426,-30 271,-30 271,0 426,0 426,-30"/>
<text text-anchor="start" x="279" y="-18" font-family="Courier,monospace" font-size="10.00">LayeredSideIntegralBase</text>
<text text-anchor="middle" x="348.5" y="-7" font-family="Courier,monospace" font-size="10.00">&lt; UserObjectType &gt;</text>
</a>
</g>
</g>
<!-- Node1&#45;&gt;Node16 -->
<g id="edge15" class="edge">
<title>Node1&#45;&gt;Node16</title>
<path fill="none" stroke="#63b8ff" d="M175.52,-94.49C189.47,-77.42 212.44,-52.71 238,-39 248.12,-33.57 259.39,-29.37 270.74,-26.12"/>
<polygon fill="#63b8ff" stroke="#63b8ff" points="173.13,-91.87 169.68,-101.88 178.62,-96.21 173.13,-91.87"/>
</g>
<!-- Node2 -->
<g id="node2" class="node">
<title>Node2</title>
<g id="a_node2"><a xlink:href="classRestartable.html" target="_top" xlink:title="A class for creating restricted objects.">
<polygon fill="white" stroke="#666666" points="83,-122.5 0,-122.5 0,-103.5 83,-103.5 83,-122.5"/>
<text text-anchor="middle" x="41.5" y="-110.5" font-family="Courier,monospace" font-size="10.00">Restartable</text>
</a>
</g>
</g>
<!-- Node2&#45;&gt;Node1 -->
<g id="edge1" class="edge">
<title>Node2&#45;&gt;Node1</title>
<path fill="none" stroke="#8b1a1a" d="M94.68,-113C102.77,-113 111.02,-113 118.8,-113"/>
<polygon fill="#8b1a1a" stroke="#8b1a1a" points="94.93,-109.5 84.93,-113 94.93,-116.5 94.93,-109.5"/>
</g>
<!-- Node4 -->
<g id="node4" class="node">
<title>Node4</title>
<g id="a_node4"><a xlink:href="classLayeredSideIntegral.html" target="_top" xlink:title="This UserObject computes volume integrals of a variable storing partial sums for the specified number...">
<polygon fill="white" stroke="#666666" points="647,-232.5 516,-232.5 516,-213.5 647,-213.5 647,-232.5"/>
<text text-anchor="middle" x="581.5" y="-220.5" font-family="Courier,monospace" font-size="10.00">LayeredSideIntegral</text>
</a>
</g>
</g>
<!-- Node3&#45;&gt;Node4 -->
<g id="edge3" class="edge">
<title>Node3&#45;&gt;Node4</title>
<path fill="none" stroke="#63b8ff" d="M470.58,-223C486.13,-223 501.55,-223 515.7,-223"/>
<polygon fill="#63b8ff" stroke="#63b8ff" points="470.76,-219.5 460.76,-223 470.76,-226.5 470.76,-219.5"/>
</g>
<!-- Node5 -->
<g id="node5" class="node">
<title>Node5</title>
<g id="a_node5"><a xlink:href="classLayeredSideAverageBase.html" target="_top" xlink:title=" ">
<polygon fill="white" stroke="#666666" points="880,-238 725,-238 725,-208 880,-208 880,-238"/>
<text text-anchor="start" x="733" y="-226" font-family="Courier,monospace" font-size="10.00">LayeredSideAverageBase</text>
<text text-anchor="middle" x="802.5" y="-215" font-family="Courier,monospace" font-size="10.00">&lt; LayeredSideIntegral &gt;</text>
</a>
</g>
</g>
<!-- Node4&#45;&gt;Node5 -->
<g id="edge4" class="edge">
<title>Node4&#45;&gt;Node5</title>
<path fill="none" stroke="#63b8ff" d="M658.67,-223C680.1,-223 703.42,-223 724.87,-223"/>
<polygon fill="#63b8ff" stroke="#63b8ff" points="658.83,-219.5 648.83,-223 658.83,-226.5 658.83,-219.5"/>
</g>
<!-- Node6 -->
<g id="node6" class="node">
<title>Node6</title>
<g id="a_node6"><a xlink:href="classLayeredSideAverage.html" target="_top" xlink:title="This UserObject computes side averages of a variable storing partial sums for the specified number of...">
<polygon fill="white" stroke="#666666" points="1083,-232.5 958,-232.5 958,-213.5 1083,-213.5 1083,-232.5"/>
<text text-anchor="middle" x="1020.5" y="-220.5" font-family="Courier,monospace" font-size="10.00">LayeredSideAverage</text>
</a>
</g>
</g>
<!-- Node5&#45;&gt;Node6 -->
<g id="edge5" class="edge">
<title>Node5&#45;&gt;Node6</title>
<path fill="none" stroke="#63b8ff" d="M891.69,-223C913.79,-223 937.04,-223 957.55,-223"/>
<polygon fill="#63b8ff" stroke="#63b8ff" points="891.78,-219.5 881.78,-223 891.78,-226.5 891.78,-219.5"/>
</g>
<!-- Node7 -->
<g id="node7" class="node">
<title>Node7</title>
<g id="a_node7"><a xlink:href="classLayeredSideDiffusiveFluxAverage.html" target="_top" xlink:title="This UserObject computes side averages of a flux storing partial sums for the specified number of int...">
<polygon fill="white" stroke="#666666" points="1301,-238 1140,-238 1140,-208 1301,-208 1301,-238"/>
<text text-anchor="start" x="1148" y="-226" font-family="Courier,monospace" font-size="10.00">LayeredSideDiffusiveFlux</text>
<text text-anchor="middle" x="1220.5" y="-215" font-family="Courier,monospace" font-size="10.00">Average</text>
</a>
</g>
</g>
<!-- Node6&#45;&gt;Node7 -->
<g id="edge6" class="edge">
<title>Node6&#45;&gt;Node7</title>
<path fill="none" stroke="#63b8ff" d="M1094.83,-223C1109.41,-223 1124.79,-223 1139.59,-223"/>
<polygon fill="#63b8ff" stroke="#63b8ff" points="1094.85,-219.5 1084.85,-223 1094.85,-226.5 1094.85,-219.5"/>
</g>
<!-- Node9 -->
<g id="node9" class="node">
<title>Node9</title>
<g id="a_node9"><a xlink:href="classLayeredSideIntegralFunctor.html" target="_top" xlink:title="Computes layered side integrals of a functor.">
<polygon fill="white" stroke="#666666" points="668,-184.5 495,-184.5 495,-165.5 668,-165.5 668,-184.5"/>
<text text-anchor="middle" x="581.5" y="-172.5" font-family="Courier,monospace" font-size="10.00">LayeredSideIntegralFunctor</text>
</a>
</g>
</g>
<!-- Node8&#45;&gt;Node9 -->
<g id="edge8" class="edge">
<title>Node8&#45;&gt;Node9</title>
<path fill="none" stroke="#63b8ff" d="M467.71,-175C476.79,-175 485.85,-175 494.66,-175"/>
<polygon fill="#63b8ff" stroke="#63b8ff" points="467.72,-171.5 457.72,-175 467.72,-178.5 467.72,-171.5"/>
</g>
<!-- Node10 -->
<g id="node10" class="node">
<title>Node10</title>
<g id="a_node10"><a xlink:href="classLayeredSideAverageBase.html" target="_top" xlink:title=" ">
<polygon fill="white" stroke="#666666" points="901,-190 704,-190 704,-160 901,-160 901,-190"/>
<text text-anchor="start" x="712" y="-178" font-family="Courier,monospace" font-size="10.00">LayeredSideAverageBase</text>
<text text-anchor="middle" x="802.5" y="-167" font-family="Courier,monospace" font-size="10.00">&lt; LayeredSideIntegralFunctor &gt;</text>
</a>
</g>
</g>
<!-- Node9&#45;&gt;Node10 -->
<g id="edge9" class="edge">
<title>Node9&#45;&gt;Node10</title>
<path fill="none" stroke="#63b8ff" d="M679.69,-175C687.72,-175 695.83,-175 703.86,-175"/>
<polygon fill="#63b8ff" stroke="#63b8ff" points="679.94,-171.5 669.94,-175 679.94,-178.5 679.94,-171.5"/>
</g>
<!-- Node11 -->
<g id="node11" class="node">
<title>Node11</title>
<g id="a_node11"><a xlink:href="classLayeredSideAverageFunctor.html" target="_top" xlink:title="Computes layered side averages of a functor.">
<polygon fill="white" stroke="#666666" points="1104,-184.5 937,-184.5 937,-165.5 1104,-165.5 1104,-184.5"/>
<text text-anchor="middle" x="1020.5" y="-172.5" font-family="Courier,monospace" font-size="10.00">LayeredSideAverageFunctor</text>
</a>
</g>
</g>
<!-- Node10&#45;&gt;Node11 -->
<g id="edge10" class="edge">
<title>Node10&#45;&gt;Node11</title>
<path fill="none" stroke="#63b8ff" d="M912.79,-175C920.86,-175 928.93,-175 936.8,-175"/>
<polygon fill="#63b8ff" stroke="#63b8ff" points="912.9,-171.5 902.9,-175 912.9,-178.5 912.9,-171.5"/>
</g>
<!-- Node15 -->
<g id="node15" class="node">
<title>Node15</title>
<g id="a_node15"><a xlink:href="classLayeredAverage.html" target="_top" xlink:title="This UserObject computes averages of a variable storing partial sums for the specified number of inte...">
<polygon fill="white" stroke="#666666" points="632,-67.5 531,-67.5 531,-48.5 632,-48.5 632,-67.5"/>
<text text-anchor="middle" x="581.5" y="-55.5" font-family="Courier,monospace" font-size="10.00">LayeredAverage</text>
</a>
</g>
</g>
<!-- Node14&#45;&gt;Node15 -->
<g id="edge14" class="edge">
<title>Node14&#45;&gt;Node15</title>
<path fill="none" stroke="#63b8ff" d="M413.65,-58C450.57,-58 496.28,-58 530.52,-58"/>
<polygon fill="#63b8ff" stroke="#63b8ff" points="414.01,-54.5 404.01,-58 414.01,-61.5 414.01,-54.5"/>
</g>
</g>
</svg>
