<?xml version="1.0" encoding="UTF-8" standalone="no"?>
<!DOCTYPE svg PUBLIC "-//W3C//DTD SVG 1.1//EN"
 "http://www.w3.org/Graphics/SVG/1.1/DTD/svg11.dtd">
<!-- Generated by graphviz version 7.0.5 (20221223.1930)
 -->
<!-- Title: DiracKernelTempl&lt; T &gt; Pages: 1 -->
<svg width="1465pt" height="666pt"
 viewBox="0.00 0.00 1465.00 665.50" xmlns="http://www.w3.org/2000/svg" xmlns:xlink="http://www.w3.org/1999/xlink">
<g id="graph0" class="graph" transform="scale(1 1) rotate(0) translate(4 661.5)">
<title>DiracKernelTempl&lt; T &gt;</title>
<!-- Node1 -->
<g id="node1" class="node">
<title>Node1</title>
<g id="a_node1"><a xlink:title="A DiracKernel is used when you need to add contributions to the residual by means of multiplying some...">
<polygon fill="#999999" stroke="#666666" points="1254,-96.5 1111,-96.5 1111,-77.5 1254,-77.5 1254,-96.5"/>
<text text-anchor="middle" x="1182.5" y="-84.5" font-family="Courier,monospace" font-size="10.00">DiracKernelTempl&lt; T &gt;</text>
</a>
</g>
</g>
<!-- Node29 -->
<g id="node29" class="node">
<title>Node29</title>
<g id="a_node29"><a xlink:href="classConstantPointSource.html" target="_top" xlink:title="TOOD.">
<polygon fill="white" stroke="#666666" points="1439,-174 1308,-174 1308,-144 1439,-144 1439,-174"/>
<text text-anchor="start" x="1316" y="-162" font-family="Courier,monospace" font-size="10.00">ConstantPointSource</text>
<text text-anchor="middle" x="1373.5" y="-151" font-family="Courier,monospace" font-size="10.00">&lt; Real &gt;</text>
</a>
</g>
</g>
<!-- Node1&#45;&gt;Node29 -->
<g id="edge28" class="edge">
<title>Node1&#45;&gt;Node29</title>
<path fill="none" stroke="#63b8ff" d="M1213.42,-101.85C1234.51,-111.97 1263.59,-125.26 1290,-135 1298.12,-137.99 1306.79,-140.86 1315.35,-143.51"/>
<polygon fill="#63b8ff" stroke="#63b8ff" points="1215.06,-98.75 1204.54,-97.53 1212,-105.05 1215.06,-98.75"/>
</g>
<!-- Node30 -->
<g id="node30" class="node">
<title>Node30</title>
<g id="a_node30"><a xlink:href="classFunctionDiracSource.html" target="_top" xlink:title=" ">
<polygon fill="white" stroke="#666666" points="1439,-126 1308,-126 1308,-96 1439,-96 1439,-126"/>
<text text-anchor="start" x="1316" y="-114" font-family="Courier,monospace" font-size="10.00">FunctionDiracSource</text>
<text text-anchor="middle" x="1373.5" y="-103" font-family="Courier,monospace" font-size="10.00">&lt; Real &gt;</text>
</a>
</g>
</g>
<!-- Node1&#45;&gt;Node30 -->
<g id="edge29" class="edge">
<title>Node1&#45;&gt;Node30</title>
<path fill="none" stroke="#63b8ff" d="M1265.61,-97.43C1279.71,-99.22 1294.18,-101.05 1307.73,-102.78"/>
<polygon fill="#63b8ff" stroke="#63b8ff" points="1266.28,-93.98 1255.92,-96.2 1265.4,-100.93 1266.28,-93.98"/>
</g>
<!-- Node31 -->
<g id="node31" class="node">
<title>Node31</title>
<g id="a_node31"><a xlink:href="classReporterPointSource.html" target="_top" xlink:title="A ReporterPointSource DiracKernel is used to create variable valued point sources.">
<polygon fill="white" stroke="#666666" points="1439,-78 1308,-78 1308,-48 1439,-48 1439,-78"/>
<text text-anchor="start" x="1316" y="-66" font-family="Courier,monospace" font-size="10.00">ReporterPointSource</text>
<text text-anchor="middle" x="1373.5" y="-55" font-family="Courier,monospace" font-size="10.00">&lt; Real &gt;</text>
</a>
</g>
</g>
<!-- Node1&#45;&gt;Node31 -->
<g id="edge30" class="edge">
<title>Node1&#45;&gt;Node31</title>
<path fill="none" stroke="#63b8ff" d="M1265.61,-76.57C1279.71,-74.78 1294.18,-72.95 1307.73,-71.22"/>
<polygon fill="#63b8ff" stroke="#63b8ff" points="1265.4,-73.07 1255.92,-77.8 1266.28,-80.02 1265.4,-73.07"/>
</g>
<!-- Node32 -->
<g id="node32" class="node">
<title>Node32</title>
<g id="a_node32"><a xlink:href="classVectorConstantPointSource.html" target="_top" xlink:title="A VectorConstantPointSource DiracKernel is used to add a constant source term at a point.">
<polygon fill="white" stroke="#666666" points="1457,-30 1290,-30 1290,0 1457,0 1457,-30"/>
<text text-anchor="start" x="1298" y="-18" font-family="Courier,monospace" font-size="10.00">VectorConstantPointSource</text>
<text text-anchor="middle" x="1373.5" y="-7" font-family="Courier,monospace" font-size="10.00">&lt; RealVectorValue &gt;</text>
</a>
</g>
</g>
<!-- Node1&#45;&gt;Node32 -->
<g id="edge31" class="edge">
<title>Node1&#45;&gt;Node32</title>
<path fill="none" stroke="#63b8ff" d="M1213.42,-72.15C1234.51,-62.03 1263.59,-48.74 1290,-39 1298.12,-36.01 1306.79,-33.14 1315.35,-30.49"/>
<polygon fill="#63b8ff" stroke="#63b8ff" points="1212,-68.95 1204.54,-76.47 1215.06,-75.25 1212,-68.95"/>
</g>
<!-- Node2 -->
<g id="node2" class="node">
<title>Node2</title>
<g id="a_node2"><a xlink:href="classDiracKernelBase.html" target="_top" xlink:title="DiracKernelBase is the base class for all DiracKernel type classes.">
<polygon fill="white" stroke="#666666" points="1039,-115.5 932,-115.5 932,-96.5 1039,-96.5 1039,-115.5"/>
<text text-anchor="middle" x="985.5" y="-103.5" font-family="Courier,monospace" font-size="10.00">DiracKernelBase</text>
</a>
</g>
</g>
<!-- Node2&#45;&gt;Node1 -->
<g id="edge1" class="edge">
<title>Node2&#45;&gt;Node1</title>
<path fill="none" stroke="#63b8ff" d="M1050.65,-99.75C1069.89,-97.87 1091.1,-95.81 1110.74,-93.89"/>
<polygon fill="#63b8ff" stroke="#63b8ff" points="1050.39,-96.26 1040.78,-100.71 1051.07,-103.23 1050.39,-96.26"/>
</g>
<!-- Node3 -->
<g id="node3" class="node">
<title>Node3</title>
<g id="a_node3"><a xlink:href="classResidualObject.html" target="_top" xlink:title="This is the common base class for objects that give residual contributions.">
<polygon fill="white" stroke="#666666" points="803,-379.5 702,-379.5 702,-360.5 803,-360.5 803,-379.5"/>
<text text-anchor="middle" x="752.5" y="-367.5" font-family="Courier,monospace" font-size="10.00">ResidualObject</text>
</a>
</g>
</g>
<!-- Node3&#45;&gt;Node2 -->
<g id="edge2" class="edge">
<title>Node3&#45;&gt;Node2</title>
<path fill="none" stroke="#63b8ff" d="M769.4,-351.83C814.42,-300.38 941.69,-154.93 975.93,-115.8"/>
<polygon fill="#63b8ff" stroke="#63b8ff" points="766.94,-349.32 762.99,-359.15 772.21,-353.93 766.94,-349.32"/>
</g>
<!-- Node4 -->
<g id="node4" class="node">
<title>Node4</title>
<g id="a_node4"><a xlink:href="classMooseObject.html" target="_top" xlink:title="Every object that can be built by the factory should be derived from this class.">
<polygon fill="white" stroke="#666666" points="546,-583.5 463,-583.5 463,-564.5 546,-564.5 546,-583.5"/>
<text text-anchor="middle" x="504.5" y="-571.5" font-family="Courier,monospace" font-size="10.00">MooseObject</text>
</a>
</g>
</g>
<!-- Node4&#45;&gt;Node3 -->
<g id="edge3" class="edge">
<title>Node4&#45;&gt;Node3</title>
<path fill="none" stroke="#63b8ff" d="M557.63,-572.48C574.95,-570.07 593.71,-565.26 609,-556 683.46,-510.9 733.01,-411.23 747.26,-379.73"/>
<polygon fill="#63b8ff" stroke="#63b8ff" points="557.54,-568.96 548,-573.57 558.33,-575.92 557.54,-568.96"/>
</g>
<!-- Node5 -->
<g id="node5" class="node">
<title>Node5</title>
<g id="a_node5"><a xlink:href="classMooseBase.html" target="_top" xlink:title="Base class for everything in MOOSE with a name and a type.">
<polygon fill="white" stroke="#666666" points="310,-657.5 239,-657.5 239,-638.5 310,-638.5 310,-657.5"/>
<text text-anchor="middle" x="274.5" y="-645.5" font-family="Courier,monospace" font-size="10.00">MooseBase</text>
</a>
</g>
</g>
<!-- Node5&#45;&gt;Node4 -->
<g id="edge4" class="edge">
<title>Node5&#45;&gt;Node4</title>
<path fill="none" stroke="#63b8ff" d="M321.54,-640.28C335.32,-637.53 350.39,-634.08 364,-630 407,-617.11 455.19,-596.26 482.19,-583.97"/>
<polygon fill="#63b8ff" stroke="#63b8ff" points="320.97,-636.82 311.81,-642.14 322.29,-643.7 320.97,-636.82"/>
</g>
<!-- Node6 -->
<g id="node6" class="node">
<title>Node6</title>
<g id="a_node6"><a xlink:href="classMooseBaseParameterInterface.html" target="_top" xlink:title="Every object that can be built by the factory should be derived from this class.">
<polygon fill="white" stroke="#666666" points="364,-620.5 185,-620.5 185,-601.5 364,-601.5 364,-620.5"/>
<text text-anchor="middle" x="274.5" y="-608.5" font-family="Courier,monospace" font-size="10.00">MooseBaseParameterInterface</text>
</a>
</g>
</g>
<!-- Node6&#45;&gt;Node4 -->
<g id="edge5" class="edge">
<title>Node6&#45;&gt;Node4</title>
<path fill="none" stroke="#63b8ff" d="M347.88,-599.25C385.73,-593.11 430.68,-585.82 462.51,-580.65"/>
<polygon fill="#63b8ff" stroke="#63b8ff" points="347.7,-595.74 338.39,-600.79 348.83,-602.65 347.7,-595.74"/>
</g>
<!-- Node7 -->
<g id="node7" class="node">
<title>Node7</title>
<g id="a_node7"><a xlink:href="classMooseBaseErrorInterface.html" target="_top" xlink:title="Interface that provides APIs to output errors/warnings/info messages.">
<polygon fill="white" stroke="#666666" points="352,-583.5 197,-583.5 197,-564.5 352,-564.5 352,-583.5"/>
<text text-anchor="middle" x="274.5" y="-571.5" font-family="Courier,monospace" font-size="10.00">MooseBaseErrorInterface</text>
</a>
</g>
</g>
<!-- Node7&#45;&gt;Node4 -->
<g id="edge6" class="edge">
<title>Node7&#45;&gt;Node4</title>
<path fill="none" stroke="#63b8ff" d="M363.8,-574C397.92,-574 435.28,-574 462.77,-574"/>
<polygon fill="#63b8ff" stroke="#63b8ff" points="363.89,-570.5 353.89,-574 363.89,-577.5 363.89,-570.5"/>
</g>
<!-- Node8 -->
<g id="node8" class="node">
<title>Node8</title>
<g id="a_node8"><a xlink:href="classConsoleStreamInterface.html" target="_top" xlink:title="An inteface for the _console for outputting to the Console object.">
<polygon fill="white" stroke="#666666" points="149,-583.5 0,-583.5 0,-564.5 149,-564.5 149,-583.5"/>
<text text-anchor="middle" x="74.5" y="-571.5" font-family="Courier,monospace" font-size="10.00">ConsoleStreamInterface</text>
</a>
</g>
</g>
<!-- Node8&#45;&gt;Node7 -->
<g id="edge7" class="edge">
<title>Node8&#45;&gt;Node7</title>
<path fill="none" stroke="#63b8ff" d="M160.62,-574C172.62,-574 184.9,-574 196.73,-574"/>
<polygon fill="#63b8ff" stroke="#63b8ff" points="160.74,-570.5 150.74,-574 160.74,-577.5 160.74,-570.5"/>
</g>
<!-- Node9 -->
<g id="node9" class="node">
<title>Node9</title>
<g id="a_node9"><a xlink:title=" ">
<polygon fill="white" stroke="#666666" points="352,-546.5 197,-546.5 197,-527.5 352,-527.5 352,-546.5"/>
<text text-anchor="middle" x="274.5" y="-534.5" font-family="Courier,monospace" font-size="10.00">libMesh::ParallelObject</text>
</a>
</g>
</g>
<!-- Node9&#45;&gt;Node4 -->
<g id="edge8" class="edge">
<title>Node9&#45;&gt;Node4</title>
<path fill="none" stroke="#63b8ff" d="M347.88,-548.75C385.73,-554.89 430.68,-562.18 462.51,-567.35"/>
<polygon fill="#63b8ff" stroke="#63b8ff" points="348.83,-545.35 338.39,-547.21 347.7,-552.26 348.83,-545.35"/>
</g>
<!-- Node10 -->
<g id="node10" class="node">
<title>Node10</title>
<g id="a_node10"><a xlink:href="classDataFileInterface.html" target="_top" xlink:title=" ">
<polygon fill="white" stroke="#666666" points="337,-509 212,-509 212,-479 337,-479 337,-509"/>
<text text-anchor="start" x="220" y="-497" font-family="Courier,monospace" font-size="10.00">DataFileInterface&lt;</text>
<text text-anchor="middle" x="274.5" y="-486" font-family="Courier,monospace" font-size="10.00"> MooseObject &gt;</text>
</a>
</g>
</g>
<!-- Node10&#45;&gt;Node4 -->
<g id="edge9" class="edge">
<title>Node10&#45;&gt;Node4</title>
<path fill="none" stroke="#63b8ff" d="M347.62,-510.85C353.32,-513.23 358.86,-515.94 364,-519 383.71,-530.74 379.71,-545.29 400,-556 419.11,-566.09 442.71,-570.69 462.54,-572.73"/>
<polygon fill="#63b8ff" stroke="#63b8ff" points="349.23,-507.72 338.64,-507.44 346.74,-514.26 349.23,-507.72"/>
</g>
<!-- Node11 -->
<g id="node11" class="node">
<title>Node11</title>
<g id="a_node11"><a xlink:href="classSetupInterface.html" target="_top" xlink:title=" ">
<polygon fill="white" stroke="#666666" points="555,-546.5 454,-546.5 454,-527.5 555,-527.5 555,-546.5"/>
<text text-anchor="middle" x="504.5" y="-534.5" font-family="Courier,monospace" font-size="10.00">SetupInterface</text>
</a>
</g>
</g>
<!-- Node11&#45;&gt;Node3 -->
<g id="edge10" class="edge">
<title>Node11&#45;&gt;Node3</title>
<path fill="none" stroke="#63b8ff" d="M566.26,-533C580.86,-530.29 595.98,-525.94 609,-519 675.01,-483.8 728.22,-406.76 745.53,-379.66"/>
<polygon fill="#63b8ff" stroke="#63b8ff" points="566.06,-529.49 556.74,-534.52 567.16,-536.4 566.06,-529.49"/>
</g>
<!-- Node12 -->
<g id="node12" class="node">
<title>Node12</title>
<g id="a_node12"><a xlink:href="classFunctionInterface.html" target="_top" xlink:title="Interface for objects that need to use functions.">
<polygon fill="white" stroke="#666666" points="564,-509.5 445,-509.5 445,-490.5 564,-490.5 564,-509.5"/>
<text text-anchor="middle" x="504.5" y="-497.5" font-family="Courier,monospace" font-size="10.00">FunctionInterface</text>
</a>
</g>
</g>
<!-- Node12&#45;&gt;Node3 -->
<g id="edge11" class="edge">
<title>Node12&#45;&gt;Node3</title>
<path fill="none" stroke="#63b8ff" d="M575.44,-492.7C586.94,-490.13 598.52,-486.67 609,-482 666.77,-456.26 721.67,-401.89 742.59,-379.72"/>
<polygon fill="#63b8ff" stroke="#63b8ff" points="575.07,-489.2 565.96,-494.59 576.45,-496.06 575.07,-489.2"/>
</g>
<!-- Node13 -->
<g id="node13" class="node">
<title>Node13</title>
<g id="a_node13"><a xlink:href="classUserObjectInterface.html" target="_top" xlink:title="Interface for objects that need to use UserObjects.">
<polygon fill="white" stroke="#666666" points="570,-472.5 439,-472.5 439,-453.5 570,-453.5 570,-472.5"/>
<text text-anchor="middle" x="504.5" y="-460.5" font-family="Courier,monospace" font-size="10.00">UserObjectInterface</text>
</a>
</g>
</g>
<!-- Node13&#45;&gt;Node3 -->
<g id="edge12" class="edge">
<title>Node13&#45;&gt;Node3</title>
<path fill="none" stroke="#63b8ff" d="M581.36,-452.63C590.78,-450.52 600.19,-448 609,-445 658.22,-428.23 711.14,-396.24 736.4,-379.99"/>
<polygon fill="#63b8ff" stroke="#63b8ff" points="580.89,-449.16 571.81,-454.62 582.31,-456.01 580.89,-449.16"/>
</g>
<!-- Node14 -->
<g id="node14" class="node">
<title>Node14</title>
<g id="a_node14"><a xlink:href="classTransientInterface.html" target="_top" xlink:title="Interface for objects that needs transient capabilities.">
<polygon fill="white" stroke="#666666" points="567,-435.5 442,-435.5 442,-416.5 567,-416.5 567,-435.5"/>
<text text-anchor="middle" x="504.5" y="-423.5" font-family="Courier,monospace" font-size="10.00">TransientInterface</text>
</a>
</g>
</g>
<!-- Node14&#45;&gt;Node3 -->
<g id="edge13" class="edge">
<title>Node14&#45;&gt;Node3</title>
<path fill="none" stroke="#63b8ff" d="M578.35,-414.17C588.67,-412.25 599.12,-410.17 609,-408 646.39,-399.78 688.7,-388.2 717.44,-379.99"/>
<polygon fill="#63b8ff" stroke="#63b8ff" points="577.95,-410.68 568.73,-415.91 579.2,-417.57 577.95,-410.68"/>
</g>
<!-- Node15 -->
<g id="node15" class="node">
<title>Node15</title>
<g id="a_node15"><a xlink:href="classPostprocessorInterface.html" target="_top" xlink:title="Interface class for classes which interact with Postprocessors.">
<polygon fill="white" stroke="#666666" points="579,-398.5 430,-398.5 430,-379.5 579,-379.5 579,-398.5"/>
<text text-anchor="middle" x="504.5" y="-386.5" font-family="Courier,monospace" font-size="10.00">PostprocessorInterface</text>
</a>
</g>
</g>
<!-- Node15&#45;&gt;Node3 -->
<g id="edge14" class="edge">
<title>Node15&#45;&gt;Node3</title>
<path fill="none" stroke="#63b8ff" d="M590.61,-382.43C627.61,-379.57 669.67,-376.32 701.51,-373.86"/>
<polygon fill="#63b8ff" stroke="#63b8ff" points="590.52,-378.92 580.82,-383.18 591.06,-385.9 590.52,-378.92"/>
</g>
<!-- Node16 -->
<g id="node16" class="node">
<title>Node16</title>
<g id="a_node16"><a xlink:href="classVectorPostprocessorInterface.html" target="_top" xlink:title=" ">
<polygon fill="white" stroke="#666666" points="597,-361.5 412,-361.5 412,-342.5 597,-342.5 597,-361.5"/>
<text text-anchor="middle" x="504.5" y="-349.5" font-family="Courier,monospace" font-size="10.00">VectorPostprocessorInterface</text>
</a>
</g>
</g>
<!-- Node16&#45;&gt;Node3 -->
<g id="edge15" class="edge">
<title>Node16&#45;&gt;Node3</title>
<path fill="none" stroke="#63b8ff" d="M608.74,-359.55C640.92,-361.91 674.96,-364.4 701.72,-366.36"/>
<polygon fill="#63b8ff" stroke="#63b8ff" points="609.19,-356.08 598.96,-358.84 608.68,-363.06 609.19,-356.08"/>
</g>
<!-- Node17 -->
<g id="node17" class="node">
<title>Node17</title>
<g id="a_node17"><a xlink:href="classRandomInterface.html" target="_top" xlink:title="Interface for objects that need parallel consistent random numbers without patterns over the course o...">
<polygon fill="white" stroke="#666666" points="558,-324.5 451,-324.5 451,-305.5 558,-305.5 558,-324.5"/>
<text text-anchor="middle" x="504.5" y="-312.5" font-family="Courier,monospace" font-size="10.00">RandomInterface</text>
</a>
</g>
</g>
<!-- Node17&#45;&gt;Node3 -->
<g id="edge16" class="edge">
<title>Node17&#45;&gt;Node3</title>
<path fill="none" stroke="#63b8ff" d="M569.59,-326.08C582.66,-328.54 596.3,-331.23 609,-334 645.15,-341.88 686.07,-352.38 714.75,-360.01"/>
<polygon fill="#63b8ff" stroke="#63b8ff" points="570.24,-322.65 559.78,-324.27 568.97,-329.53 570.24,-322.65"/>
</g>
<!-- Node18 -->
<g id="node18" class="node">
<title>Node18</title>
<g id="a_node18"><a xlink:href="classRestartable.html" target="_top" xlink:title="A class for creating restricted objects.">
<polygon fill="white" stroke="#666666" points="546,-287.5 463,-287.5 463,-268.5 546,-268.5 546,-287.5"/>
<text text-anchor="middle" x="504.5" y="-275.5" font-family="Courier,monospace" font-size="10.00">Restartable</text>
</a>
</g>
</g>
<!-- Node18&#45;&gt;Node3 -->
<g id="edge17" class="edge">
<title>Node18&#45;&gt;Node3</title>
<path fill="none" stroke="#63b8ff" d="M557.29,-284.46C574.05,-287.36 592.56,-291.41 609,-297 657.69,-313.54 710.43,-344.3 735.93,-360.09"/>
<polygon fill="#63b8ff" stroke="#63b8ff" points="557.93,-281.02 547.5,-282.88 556.81,-287.93 557.93,-281.02"/>
</g>
<!-- Node19 -->
<g id="node19" class="node">
<title>Node19</title>
<g id="a_node19"><a xlink:href="classMeshChangedInterface.html" target="_top" xlink:title="Interface for notifications that the mesh has changed.">
<polygon fill="white" stroke="#666666" points="573,-250.5 436,-250.5 436,-231.5 573,-231.5 573,-250.5"/>
<text text-anchor="middle" x="504.5" y="-238.5" font-family="Courier,monospace" font-size="10.00">MeshChangedInterface</text>
</a>
</g>
</g>
<!-- Node19&#45;&gt;Node3 -->
<g id="edge18" class="edge">
<title>Node19&#45;&gt;Node3</title>
<path fill="none" stroke="#63b8ff" d="M584.55,-251.43C592.98,-253.74 601.29,-256.56 609,-260 666.09,-285.46 720.95,-338.28 742.22,-360.17"/>
<polygon fill="#63b8ff" stroke="#63b8ff" points="585.45,-248.05 574.91,-249.05 583.77,-254.85 585.45,-248.05"/>
</g>
<!-- Node20 -->
<g id="node20" class="node">
<title>Node20</title>
<g id="a_node20"><a xlink:href="classTaggingInterface.html" target="_top" xlink:title=" ">
<polygon fill="white" stroke="#666666" points="561,-213.5 448,-213.5 448,-194.5 561,-194.5 561,-213.5"/>
<text text-anchor="middle" x="504.5" y="-201.5" font-family="Courier,monospace" font-size="10.00">TaggingInterface</text>
</a>
</g>
</g>
<!-- Node20&#45;&gt;Node3 -->
<g id="edge19" class="edge">
<title>Node20&#45;&gt;Node3</title>
<path fill="none" stroke="#63b8ff" d="M572.37,-210.01C585.02,-212.86 597.79,-217 609,-223 674.19,-257.88 727.52,-333.12 745.22,-360.11"/>
<polygon fill="#63b8ff" stroke="#63b8ff" points="573.3,-206.63 562.81,-208.12 571.94,-213.49 573.3,-206.63"/>
</g>
<!-- Node21 -->
<g id="node21" class="node">
<title>Node21</title>
<g id="a_node21"><a xlink:href="classCoupleableMooseVariableDependencyIntermediateInterface.html" target="_top" xlink:title="Intermediate base class that ties together all the interfaces for getting MooseVariableFEBases with t...">
<polygon fill="white" stroke="#666666" points="860,-164 645,-164 645,-134 860,-134 860,-164"/>
<text text-anchor="start" x="653" y="-152" font-family="Courier,monospace" font-size="10.00">CoupleableMooseVariableDependency</text>
<text text-anchor="middle" x="752.5" y="-141" font-family="Courier,monospace" font-size="10.00">IntermediateInterface</text>
</a>
</g>
</g>
<!-- Node21&#45;&gt;Node2 -->
<g id="edge20" class="edge">
<title>Node21&#45;&gt;Node2</title>
<path fill="none" stroke="#63b8ff" d="M847.84,-131.44C876.42,-126.12 906.79,-120.47 931.62,-115.84"/>
<polygon fill="#63b8ff" stroke="#63b8ff" points="847.25,-127.99 838.06,-133.26 848.53,-134.87 847.25,-127.99"/>
</g>
<!-- Node22 -->
<g id="node22" class="node">
<title>Node22</title>
<g id="a_node22"><a xlink:href="classCoupleable.html" target="_top" xlink:title="Interface for objects that needs coupling capabilities.">
<polygon fill="white" stroke="#666666" points="543,-176.5 466,-176.5 466,-157.5 543,-157.5 543,-176.5"/>
<text text-anchor="middle" x="504.5" y="-164.5" font-family="Courier,monospace" font-size="10.00">Coupleable</text>
</a>
</g>
</g>
<!-- Node22&#45;&gt;Node21 -->
<g id="edge21" class="edge">
<title>Node22&#45;&gt;Node21</title>
<path fill="none" stroke="#63b8ff" d="M554.76,-163.4C580.62,-161.5 613.37,-159.11 644.69,-156.82"/>
<polygon fill="#63b8ff" stroke="#63b8ff" points="554.63,-159.9 544.91,-164.12 555.14,-166.88 554.63,-159.9"/>
</g>
<!-- Node23 -->
<g id="node23" class="node">
<title>Node23</title>
<g id="a_node23"><a xlink:href="classScalarCoupleable.html" target="_top" xlink:title="Interface for objects that needs scalar coupling capabilities.">
<polygon fill="white" stroke="#666666" points="561,-139.5 448,-139.5 448,-120.5 561,-120.5 561,-139.5"/>
<text text-anchor="middle" x="504.5" y="-127.5" font-family="Courier,monospace" font-size="10.00">ScalarCoupleable</text>
</a>
</g>
</g>
<!-- Node23&#45;&gt;Node21 -->
<g id="edge22" class="edge">
<title>Node23&#45;&gt;Node21</title>
<path fill="none" stroke="#63b8ff" d="M572.63,-135.18C594.83,-136.9 620.11,-138.85 644.53,-140.74"/>
<polygon fill="#63b8ff" stroke="#63b8ff" points="573.07,-131.71 562.83,-134.43 572.53,-138.69 573.07,-131.71"/>
</g>
<!-- Node24 -->
<g id="node24" class="node">
<title>Node24</title>
<g id="a_node24"><a xlink:href="classMooseVariableDependencyInterface.html" target="_top" xlink:title=" ">
<polygon fill="white" stroke="#666666" points="609,-102.5 400,-102.5 400,-83.5 609,-83.5 609,-102.5"/>
<text text-anchor="middle" x="504.5" y="-90.5" font-family="Courier,monospace" font-size="10.00">MooseVariableDependencyInterface</text>
</a>
</g>
</g>
<!-- Node24&#45;&gt;Node21 -->
<g id="edge23" class="edge">
<title>Node24&#45;&gt;Node21</title>
<path fill="none" stroke="#63b8ff" d="M580.08,-105.16C589.86,-107.21 599.71,-109.49 609,-112 625.42,-116.44 628.67,-120.23 645,-125 655.37,-128.03 666.4,-130.9 677.29,-133.53"/>
<polygon fill="#63b8ff" stroke="#63b8ff" points="581.07,-101.79 570.57,-103.26 579.69,-108.66 581.07,-101.79"/>
</g>
<!-- Node25 -->
<g id="node25" class="node">
<title>Node25</title>
<g id="a_node25"><a xlink:href="classMaterialPropertyInterface.html" target="_top" xlink:title="An interface for accessing Materials.">
<polygon fill="white" stroke="#666666" points="836,-115.5 669,-115.5 669,-96.5 836,-96.5 836,-115.5"/>
<text text-anchor="middle" x="752.5" y="-103.5" font-family="Courier,monospace" font-size="10.00">MaterialPropertyInterface</text>
</a>
</g>
</g>
<!-- Node25&#45;&gt;Node2 -->
<g id="edge24" class="edge">
<title>Node25&#45;&gt;Node2</title>
<path fill="none" stroke="#63b8ff" d="M847.57,-106C876.3,-106 906.87,-106 931.82,-106"/>
<polygon fill="#63b8ff" stroke="#63b8ff" points="847.76,-102.5 837.76,-106 847.76,-109.5 847.76,-102.5"/>
</g>
<!-- Node26 -->
<g id="node26" class="node">
<title>Node26</title>
<g id="a_node26"><a xlink:href="classGeometricSearchInterface.html" target="_top" xlink:title=" ">
<polygon fill="white" stroke="#666666" points="833,-78.5 672,-78.5 672,-59.5 833,-59.5 833,-78.5"/>
<text text-anchor="middle" x="752.5" y="-66.5" font-family="Courier,monospace" font-size="10.00">GeometricSearchInterface</text>
</a>
</g>
</g>
<!-- Node26&#45;&gt;Node2 -->
<g id="edge25" class="edge">
<title>Node26&#45;&gt;Node2</title>
<path fill="none" stroke="darkgreen" d="M827,-80.77C860.99,-86.22 900.59,-92.56 931.58,-97.52"/>
<polygon fill="darkgreen" stroke="darkgreen" points="827.63,-77.33 817.2,-79.2 826.52,-84.24 827.63,-77.33"/>
</g>
<!-- Node27 -->
<g id="node27" class="node">
<title>Node27</title>
<g id="a_node27"><a xlink:href="classBlockRestrictable.html" target="_top" xlink:title="An interface that restricts an object to subdomains via the &#39;blocks&#39; input parameter.">
<polygon fill="white" stroke="#666666" points="812,-41.5 693,-41.5 693,-22.5 812,-22.5 812,-41.5"/>
<text text-anchor="middle" x="752.5" y="-29.5" font-family="Courier,monospace" font-size="10.00">BlockRestrictable</text>
</a>
</g>
</g>
<!-- Node27&#45;&gt;Node2 -->
<g id="edge26" class="edge">
<title>Node27&#45;&gt;Node2</title>
<path fill="none" stroke="#63b8ff" d="M823.43,-37.2C836.08,-39.96 848.8,-44.03 860,-50 880.53,-60.95 875.66,-76.71 896,-88 906.83,-94.01 919.41,-98.02 931.62,-100.7"/>
<polygon fill="#63b8ff" stroke="#63b8ff" points="824.33,-33.8 813.85,-35.38 823.02,-40.68 824.33,-33.8"/>
</g>
<!-- Node28 -->
<g id="node28" class="node">
<title>Node28</title>
<g id="a_node28"><a xlink:href="classMooseVariableInterface.html" target="_top" xlink:title="Interface for objects that need to get values of MooseVariables.">
<polygon fill="white" stroke="#666666" points="1075,-78.5 896,-78.5 896,-59.5 1075,-59.5 1075,-78.5"/>
<text text-anchor="middle" x="985.5" y="-66.5" font-family="Courier,monospace" font-size="10.00">MooseVariableInterface&lt; T &gt;</text>
</a>
</g>
</g>
<!-- Node28&#45;&gt;Node1 -->
<g id="edge27" class="edge">
<title>Node28&#45;&gt;Node1</title>
<path fill="none" stroke="#63b8ff" d="M1086.76,-78.26C1094.78,-78.99 1102.76,-79.73 1110.51,-80.45"/>
<polygon fill="#63b8ff" stroke="#63b8ff" points="1087.23,-74.78 1076.95,-77.35 1086.58,-81.75 1087.23,-74.78"/>
</g>
</g>
</svg>
