<?xml version="1.0" encoding="UTF-8" standalone="no"?>
<!DOCTYPE svg PUBLIC "-//W3C//DTD SVG 1.1//EN"
 "http://www.w3.org/Graphics/SVG/1.1/DTD/svg11.dtd">
<!-- Generated by graphviz version 7.0.5 (20221223.1930)
 -->
<!-- Title: ImageMesh Pages: 1 -->
<svg width="896pt" height="187pt"
 viewBox="0.00 0.00 896.00 186.50" xmlns="http://www.w3.org/2000/svg" xmlns:xlink="http://www.w3.org/1999/xlink">
<g id="graph0" class="graph" transform="scale(1 1) rotate(0) translate(4 182.5)">
<title>ImageMesh</title>
<!-- Node1 -->
<g id="node1" class="node">
<title>Node1</title>
<g id="a_node1"><a xlink:title="A 2D GeneratedMesh where xmin, xmax, etc.">
<polygon fill="#999999" stroke="#666666" points="888,-48.5 817,-48.5 817,-29.5 888,-29.5 888,-48.5"/>
<text text-anchor="middle" x="852.5" y="-36.5" font-family="Courier,monospace" font-size="10.00">ImageMesh</text>
</a>
</g>
</g>
<!-- Node2 -->
<g id="node2" class="node">
<title>Node2</title>
<g id="a_node2"><a xlink:href="classGeneratedMesh.html" target="_top" xlink:title="Mesh generated from parameters.">
<polygon fill="white" stroke="#666666" points="772,-67.5 677,-67.5 677,-48.5 772,-48.5 772,-67.5"/>
<text text-anchor="middle" x="724.5" y="-55.5" font-family="Courier,monospace" font-size="10.00">GeneratedMesh</text>
</a>
</g>
</g>
<!-- Node2&#45;&gt;Node1 -->
<g id="edge1" class="edge">
<title>Node2&#45;&gt;Node1</title>
<path fill="none" stroke="#63b8ff" d="M783.62,-49.24C794.94,-47.53 806.48,-45.79 816.75,-44.24"/>
<polygon fill="#63b8ff" stroke="#63b8ff" points="783.28,-45.75 773.91,-50.7 784.32,-52.67 783.28,-45.75"/>
</g>
<!-- Node3 -->
<g id="node3" class="node">
<title>Node3</title>
<g id="a_node3"><a xlink:href="classMooseMesh.html" target="_top" xlink:title="MooseMesh wraps a libMesh::Mesh object and enhances its capabilities by caching additional data and s...">
<polygon fill="white" stroke="#666666" points="632,-67.5 561,-67.5 561,-48.5 632,-48.5 632,-67.5"/>
<text text-anchor="middle" x="596.5" y="-55.5" font-family="Courier,monospace" font-size="10.00">MooseMesh</text>
</a>
</g>
</g>
<!-- Node3&#45;&gt;Node2 -->
<g id="edge2" class="edge">
<title>Node3&#45;&gt;Node2</title>
<path fill="none" stroke="#63b8ff" d="M643.59,-58C654.34,-58 665.8,-58 676.59,-58"/>
<polygon fill="#63b8ff" stroke="#63b8ff" points="643.78,-54.5 633.78,-58 643.78,-61.5 643.78,-54.5"/>
</g>
<!-- Node4 -->
<g id="node4" class="node">
<title>Node4</title>
<g id="a_node4"><a xlink:href="classMooseObject.html" target="_top" xlink:title="Every object that can be built by the factory should be derived from this class.">
<polygon fill="white" stroke="#666666" points="504,-104.5 421,-104.5 421,-85.5 504,-85.5 504,-104.5"/>
<text text-anchor="middle" x="462.5" y="-92.5" font-family="Courier,monospace" font-size="10.00">MooseObject</text>
</a>
</g>
</g>
<!-- Node4&#45;&gt;Node3 -->
<g id="edge3" class="edge">
<title>Node4&#45;&gt;Node3</title>
<path fill="none" stroke="#63b8ff" d="M509.63,-82.07C526.49,-77.34 545.26,-72.08 560.94,-67.69"/>
<polygon fill="#63b8ff" stroke="#63b8ff" points="509.02,-78.61 500.33,-84.68 510.9,-85.35 509.02,-78.61"/>
</g>
<!-- Node5 -->
<g id="node5" class="node">
<title>Node5</title>
<g id="a_node5"><a xlink:href="classMooseBase.html" target="_top" xlink:title="Base class for everything in MOOSE with a name and a type.">
<polygon fill="white" stroke="#666666" points="310,-178.5 239,-178.5 239,-159.5 310,-159.5 310,-178.5"/>
<text text-anchor="middle" x="274.5" y="-166.5" font-family="Courier,monospace" font-size="10.00">MooseBase</text>
</a>
</g>
</g>
<!-- Node5&#45;&gt;Node4 -->
<g id="edge4" class="edge">
<title>Node5&#45;&gt;Node4</title>
<path fill="none" stroke="#63b8ff" d="M321.58,-162.52C335.48,-159.8 350.59,-156.06 364,-151 395.78,-139 429.4,-117.44 447.68,-104.86"/>
<polygon fill="#63b8ff" stroke="#63b8ff" points="320.97,-159.08 311.75,-164.3 322.21,-165.97 320.97,-159.08"/>
</g>
<!-- Node6 -->
<g id="node6" class="node">
<title>Node6</title>
<g id="a_node6"><a xlink:href="classMooseBaseParameterInterface.html" target="_top" xlink:title="Every object that can be built by the factory should be derived from this class.">
<polygon fill="white" stroke="#666666" points="364,-141.5 185,-141.5 185,-122.5 364,-122.5 364,-141.5"/>
<text text-anchor="middle" x="274.5" y="-129.5" font-family="Courier,monospace" font-size="10.00">MooseBaseParameterInterface</text>
</a>
</g>
</g>
<!-- Node6&#45;&gt;Node4 -->
<g id="edge5" class="edge">
<title>Node6&#45;&gt;Node4</title>
<path fill="none" stroke="#63b8ff" d="M336.48,-119.87C364.07,-114.38 395.96,-108.04 420.62,-103.13"/>
<polygon fill="#63b8ff" stroke="#63b8ff" points="335.95,-116.41 326.83,-121.79 337.32,-123.27 335.95,-116.41"/>
</g>
<!-- Node7 -->
<g id="node7" class="node">
<title>Node7</title>
<g id="a_node7"><a xlink:href="classMooseBaseErrorInterface.html" target="_top" xlink:title="Interface that provides APIs to output errors/warnings/info messages.">
<polygon fill="white" stroke="#666666" points="352,-104.5 197,-104.5 197,-85.5 352,-85.5 352,-104.5"/>
<text text-anchor="middle" x="274.5" y="-92.5" font-family="Courier,monospace" font-size="10.00">MooseBaseErrorInterface</text>
</a>
</g>
</g>
<!-- Node7&#45;&gt;Node4 -->
<g id="edge6" class="edge">
<title>Node7&#45;&gt;Node4</title>
<path fill="none" stroke="#63b8ff" d="M363.81,-95C383.7,-95 403.87,-95 420.67,-95"/>
<polygon fill="#63b8ff" stroke="#63b8ff" points="364.01,-91.5 354.01,-95 364.01,-98.5 364.01,-91.5"/>
</g>
<!-- Node8 -->
<g id="node8" class="node">
<title>Node8</title>
<g id="a_node8"><a xlink:href="classConsoleStreamInterface.html" target="_top" xlink:title="An inteface for the _console for outputting to the Console object.">
<polygon fill="white" stroke="#666666" points="149,-104.5 0,-104.5 0,-85.5 149,-85.5 149,-104.5"/>
<text text-anchor="middle" x="74.5" y="-92.5" font-family="Courier,monospace" font-size="10.00">ConsoleStreamInterface</text>
</a>
</g>
</g>
<!-- Node8&#45;&gt;Node7 -->
<g id="edge7" class="edge">
<title>Node8&#45;&gt;Node7</title>
<path fill="none" stroke="#63b8ff" d="M160.62,-95C172.62,-95 184.9,-95 196.73,-95"/>
<polygon fill="#63b8ff" stroke="#63b8ff" points="160.74,-91.5 150.74,-95 160.74,-98.5 160.74,-91.5"/>
</g>
<!-- Node9 -->
<g id="node9" class="node">
<title>Node9</title>
<g id="a_node9"><a xlink:title=" ">
<polygon fill="white" stroke="#666666" points="352,-67.5 197,-67.5 197,-48.5 352,-48.5 352,-67.5"/>
<text text-anchor="middle" x="274.5" y="-55.5" font-family="Courier,monospace" font-size="10.00">libMesh::ParallelObject</text>
</a>
</g>
</g>
<!-- Node9&#45;&gt;Node4 -->
<g id="edge8" class="edge">
<title>Node9&#45;&gt;Node4</title>
<path fill="none" stroke="#63b8ff" d="M336.48,-70.13C364.07,-75.62 395.96,-81.96 420.62,-86.87"/>
<polygon fill="#63b8ff" stroke="#63b8ff" points="337.32,-66.73 326.83,-68.21 335.95,-73.59 337.32,-66.73"/>
</g>
<!-- Node10 -->
<g id="node10" class="node">
<title>Node10</title>
<g id="a_node10"><a xlink:href="classDataFileInterface.html" target="_top" xlink:title=" ">
<polygon fill="white" stroke="#666666" points="337,-30 212,-30 212,0 337,0 337,-30"/>
<text text-anchor="start" x="220" y="-18" font-family="Courier,monospace" font-size="10.00">DataFileInterface&lt;</text>
<text text-anchor="middle" x="274.5" y="-7" font-family="Courier,monospace" font-size="10.00"> MooseObject &gt;</text>
</a>
</g>
</g>
<!-- Node10&#45;&gt;Node4 -->
<g id="edge9" class="edge">
<title>Node10&#45;&gt;Node4</title>
<path fill="none" stroke="#63b8ff" d="M347.66,-30.91C353.35,-33.26 358.88,-35.94 364,-39 383.97,-50.93 380.15,-64.87 400,-77 406.27,-80.83 413.39,-83.88 420.51,-86.3"/>
<polygon fill="#63b8ff" stroke="#63b8ff" points="349.29,-27.78 338.69,-27.57 346.84,-34.34 349.29,-27.78"/>
</g>
<!-- Node11 -->
<g id="node11" class="node">
<title>Node11</title>
<g id="a_node11"><a xlink:href="classRestartable.html" target="_top" xlink:title="A class for creating restricted objects.">
<polygon fill="white" stroke="#666666" points="504,-67.5 421,-67.5 421,-48.5 504,-48.5 504,-67.5"/>
<text text-anchor="middle" x="462.5" y="-55.5" font-family="Courier,monospace" font-size="10.00">Restartable</text>
</a>
</g>
</g>
<!-- Node11&#45;&gt;Node3 -->
<g id="edge10" class="edge">
<title>Node11&#45;&gt;Node3</title>
<path fill="none" stroke="#63b8ff" d="M515.48,-58C530.59,-58 546.73,-58 560.52,-58"/>
<polygon fill="#63b8ff" stroke="#63b8ff" points="515.7,-54.5 505.69,-58 515.69,-61.5 515.7,-54.5"/>
</g>
<!-- Node12 -->
<g id="node12" class="node">
<title>Node12</title>
<g id="a_node12"><a xlink:href="classPerfGraphInterface.html" target="_top" xlink:title="Interface for objects interacting with the PerfGraph.">
<polygon fill="white" stroke="#666666" points="525,-30.5 400,-30.5 400,-11.5 525,-11.5 525,-30.5"/>
<text text-anchor="middle" x="462.5" y="-18.5" font-family="Courier,monospace" font-size="10.00">PerfGraphInterface</text>
</a>
</g>
</g>
<!-- Node12&#45;&gt;Node3 -->
<g id="edge11" class="edge">
<title>Node12&#45;&gt;Node3</title>
<path fill="none" stroke="#63b8ff" d="M509.63,-33.93C526.49,-38.66 545.26,-43.92 560.94,-48.31"/>
<polygon fill="#63b8ff" stroke="#63b8ff" points="510.9,-30.65 500.33,-31.32 509.02,-37.39 510.9,-30.65"/>
</g>
<!-- Node13 -->
<g id="node13" class="node">
<title>Node13</title>
<g id="a_node13"><a xlink:href="classFileRangeBuilder.html" target="_top" xlink:title="To be called in the validParams functions of classes that need to operate on ranges of files.">
<polygon fill="white" stroke="#666666" points="781,-30.5 668,-30.5 668,-11.5 781,-11.5 781,-30.5"/>
<text text-anchor="middle" x="724.5" y="-18.5" font-family="Courier,monospace" font-size="10.00">FileRangeBuilder</text>
</a>
</g>
</g>
<!-- Node13&#45;&gt;Node1 -->
<g id="edge12" class="edge">
<title>Node13&#45;&gt;Node1</title>
<path fill="none" stroke="#63b8ff" d="M792.76,-30.61C801.01,-31.79 809.17,-32.95 816.65,-34.02"/>
<polygon fill="#63b8ff" stroke="#63b8ff" points="793.39,-27.16 783,-29.21 792.4,-34.09 793.39,-27.16"/>
</g>
</g>
</svg>
