<?xml version="1.0" encoding="UTF-8" standalone="no"?>
<!DOCTYPE svg PUBLIC "-//W3C//DTD SVG 1.1//EN"
 "http://www.w3.org/Graphics/SVG/1.1/DTD/svg11.dtd">
<!-- Generated by graphviz version 7.0.5 (20221223.1930)
 -->
<!-- Title: AttribTagBase Pages: 1 -->
<svg width="252pt" height="137pt"
 viewBox="0.00 0.00 252.00 137.00" xmlns="http://www.w3.org/2000/svg" xmlns:xlink="http://www.w3.org/1999/xlink">
<g id="graph0" class="graph" transform="scale(1 1) rotate(0) translate(4 133)">
<title>AttribTagBase</title>
<!-- Node1 -->
<g id="node1" class="node">
<title>Node1</title>
<g id="a_node1"><a xlink:title="AttribTagBase tracks all (vector or matrix) tags associated with an object.">
<polygon fill="#999999" stroke="#666666" points="169,-74 74,-74 74,-55 169,-55 169,-74"/>
<text text-anchor="middle" x="121.5" y="-62" font-family="Courier,monospace" font-size="10.00">AttribTagBase</text>
</a>
</g>
</g>
<!-- Node3 -->
<g id="node3" class="node">
<title>Node3</title>
<g id="a_node3"><a xlink:href="classAttribMatrixTags.html" target="_top" xlink:title=" ">
<polygon fill="white" stroke="#666666" points="113,-19 0,-19 0,0 113,0 113,-19"/>
<text text-anchor="middle" x="56.5" y="-7" font-family="Courier,monospace" font-size="10.00">AttribMatrixTags</text>
</a>
</g>
</g>
<!-- Node1&#45;&gt;Node3 -->
<g id="edge2" class="edge">
<title>Node1&#45;&gt;Node3</title>
<path fill="none" stroke="#63b8ff" d="M101.71,-47.37C90.42,-38.16 76.71,-26.98 67.36,-19.36"/>
<polygon fill="#63b8ff" stroke="#63b8ff" points="99.34,-49.95 109.3,-53.55 103.76,-44.52 99.34,-49.95"/>
</g>
<!-- Node4 -->
<g id="node4" class="node">
<title>Node4</title>
<g id="a_node4"><a xlink:href="classAttribVectorTags.html" target="_top" xlink:title=" ">
<polygon fill="white" stroke="#666666" points="244,-19 131,-19 131,0 244,0 244,-19"/>
<text text-anchor="middle" x="187.5" y="-7" font-family="Courier,monospace" font-size="10.00">AttribVectorTags</text>
</a>
</g>
</g>
<!-- Node1&#45;&gt;Node4 -->
<g id="edge3" class="edge">
<title>Node1&#45;&gt;Node4</title>
<path fill="none" stroke="#63b8ff" d="M141.59,-47.37C153.05,-38.16 166.98,-26.98 176.47,-19.36"/>
<polygon fill="#63b8ff" stroke="#63b8ff" points="139.48,-44.57 133.88,-53.56 143.86,-50.03 139.48,-44.57"/>
</g>
<!-- Node2 -->
<g id="node2" class="node">
<title>Node2</title>
<g id="a_node2"><a xlink:href="classAttribute.html" target="_top" xlink:title="Attribute is an abstract class that can be implemented in order to track custom metadata about MooseO...">
<polygon fill="white" stroke="#666666" points="157,-129 86,-129 86,-110 157,-110 157,-129"/>
<text text-anchor="middle" x="121.5" y="-117" font-family="Courier,monospace" font-size="10.00">Attribute</text>
</a>
</g>
</g>
<!-- Node2&#45;&gt;Node1 -->
<g id="edge1" class="edge">
<title>Node2&#45;&gt;Node1</title>
<path fill="none" stroke="#63b8ff" d="M121.5,-98.35C121.5,-90.1 121.5,-80.97 121.5,-74.44"/>
<polygon fill="#63b8ff" stroke="#63b8ff" points="118,-98.23 121.5,-108.23 125,-98.23 118,-98.23"/>
</g>
</g>
</svg>
