<?xml version="1.0" encoding="UTF-8" standalone="no"?>
<!DOCTYPE svg PUBLIC "-//W3C//DTD SVG 1.1//EN"
 "http://www.w3.org/Graphics/SVG/1.1/DTD/svg11.dtd">
<!-- Generated by graphviz version 7.0.5 (20221223.1930)
 -->
<!-- Title: ArrayDiffusion Pages: 1 -->
<!--zoomable 643 -->
<svg id="main" version="1.1" xmlns="http://www.w3.org/2000/svg" xmlns:xlink="http://www.w3.org/1999/xlink" xml:space="preserve" onload="init(evt)">
<style type="text/css"><![CDATA[
.edge:hover path { stroke: red; }
.edge:hover polygon { stroke: red; fill: red; }
]]></style>
<script type="text/javascript"><![CDATA[
var edges = document.getElementsByTagName('g');
if (edges && edges.length) {
  for (var i=0;i<edges.length;i++) {
    if (edges[i].id.substr(0,4)=='edge') {
      edges[i].setAttribute('class','edge');
    }
  }
}
]]></script>
        <defs>
                <circle id="rim" cx="0" cy="0" r="7"/>
                <circle id="rim2" cx="0" cy="0" r="3.5"/>
                <g id="zoomPlus">
                        <use xlink:href="#rim" fill="#404040">
                                <set attributeName="fill" to="#808080" begin="zoomplus.mouseover" end="zoomplus.mouseout"/>
                        </use>
                        <path d="M-4,0h8M0,-4v8" fill="none" stroke="white" stroke-width="1.5" pointer-events="none"/>
                </g>
                <g id="zoomMin">
                        <use xlink:href="#rim" fill="#404040">
                                <set attributeName="fill" to="#808080" begin="zoomminus.mouseover" end="zoomminus.mouseout"/>
                        </use>
                        <path d="M-4,0h8" fill="none" stroke="white" stroke-width="1.5" pointer-events="none"/>
                </g>
                <g id="dirArrow">
                        <path fill="none" stroke="white" stroke-width="1.5" d="M0,-3.0v7 M-2.5,-0.5L0,-3.0L2.5,-0.5"/>
                </g>
               <g id="resetDef">
                       <use xlink:href="#rim2" fill="#404040">
                               <set attributeName="fill" to="#808080" begin="reset.mouseover" end="reset.mouseout"/>
                       </use>
               </g>
        </defs>

<script type="text/javascript">
var viewWidth = 1309;
var viewHeight = 643;
var sectionId = 'dynsection-0';
</script>
<script xlink:href="svgpan.js"/>
<svg id="graph" class="graph">
<g id="viewport">
<title>ArrayDiffusion</title>
<!-- Node1 -->
<g id="node1" class="node">
<title>Node1</title>
<g id="a_node1"><a xlink:title=" ">
<polygon fill="#999999" stroke="#666666" points="1301,-92 1200,-92 1200,-73 1301,-73 1301,-92"/>
<text text-anchor="middle" x="1250.5" y="-80" font-family="Courier,monospace" font-size="10.00">ArrayDiffusion</text>
</a>
</g>
</g>
<!-- Node2 -->
<g id="node2" class="node">
<title>Node2</title>
<g id="a_node2"><a xlink:href="classArrayKernel.html" target="_top" xlink:title=" ">
<polygon fill="white" stroke="#666666" points="1164,-92 1081,-92 1081,-73 1164,-73 1164,-92"/>
<text text-anchor="middle" x="1122.5" y="-80" font-family="Courier,monospace" font-size="10.00">ArrayKernel</text>
</a>
</g>
</g>
<!-- Node2&#45;&gt;Node1 -->
<g id="edge1" class="edge">
<title>Node2&#45;&gt;Node1</title>
<path fill="none" stroke="#63b8ff" d="M1175.73,-82.5C1183.61,-82.5 1191.72,-82.5 1199.55,-82.5"/>
<polygon fill="#63b8ff" stroke="#63b8ff" points="1175.92,-79 1165.92,-82.5 1175.92,-86 1175.92,-79"/>
</g>
<!-- Node3 -->
<g id="node3" class="node">
<title>Node3</title>
<g id="a_node3"><a xlink:href="classKernelBase.html" target="_top" xlink:title="This is the common base class for the three main kernel types implemented in MOOSE,...">
<polygon fill="white" stroke="#666666" points="1009,-114 932,-114 932,-95 1009,-95 1009,-114"/>
<text text-anchor="middle" x="970.5" y="-102" font-family="Courier,monospace" font-size="10.00">KernelBase</text>
</a>
</g>
</g>
<!-- Node3&#45;&gt;Node2 -->
<g id="edge2" class="edge">
<title>Node3&#45;&gt;Node2</title>
<path fill="none" stroke="#63b8ff" d="M1020.48,-97.32C1039.98,-94.46 1062.16,-91.2 1080.77,-88.47"/>
<polygon fill="#63b8ff" stroke="#63b8ff" points="1020.24,-93.81 1010.85,-98.73 1021.25,-100.74 1020.24,-93.81"/>
</g>
<!-- Node4 -->
<g id="node4" class="node">
<title>Node4</title>
<g id="a_node4"><a xlink:href="classResidualObject.html" target="_top" xlink:title="This is the common base class for objects that give residual contributions.">
<polygon fill="white" stroke="#666666" points="803,-357 702,-357 702,-338 803,-338 803,-357"/>
<text text-anchor="middle" x="752.5" y="-345" font-family="Courier,monospace" font-size="10.00">ResidualObject</text>
</a>
</g>
</g>
<!-- Node4&#45;&gt;Node3 -->
<g id="edge3" class="edge">
<title>Node4&#45;&gt;Node3</title>
<path fill="none" stroke="#63b8ff" d="M769.81,-329.15C812.75,-280.84 927.84,-151.36 960.66,-114.45"/>
<polygon fill="#63b8ff" stroke="#63b8ff" points="767.27,-326.74 763.24,-336.54 772.5,-331.39 767.27,-326.74"/>
</g>
<!-- Node5 -->
<g id="node5" class="node">
<title>Node5</title>
<g id="a_node5"><a xlink:href="classMooseObject.html" target="_top" xlink:title="Every object that can be built by the factory should be derived from this class.">
<polygon fill="white" stroke="#666666" points="546,-561 463,-561 463,-542 546,-542 546,-561"/>
<text text-anchor="middle" x="504.5" y="-549" font-family="Courier,monospace" font-size="10.00">MooseObject</text>
</a>
</g>
</g>
<!-- Node5&#45;&gt;Node4 -->
<g id="edge4" class="edge">
<title>Node5&#45;&gt;Node4</title>
<path fill="none" stroke="#63b8ff" d="M557.63,-549.98C574.95,-547.57 593.71,-542.76 609,-533.5 683.46,-488.4 733.01,-388.73 747.26,-357.23"/>
<polygon fill="#63b8ff" stroke="#63b8ff" points="557.54,-546.46 548,-551.07 558.33,-553.42 557.54,-546.46"/>
</g>
<!-- Node6 -->
<g id="node6" class="node">
<title>Node6</title>
<g id="a_node6"><a xlink:href="classMooseBase.html" target="_top" xlink:title="Base class for everything in MOOSE with a name and a type.">
<polygon fill="white" stroke="#666666" points="310,-635 239,-635 239,-616 310,-616 310,-635"/>
<text text-anchor="middle" x="274.5" y="-623" font-family="Courier,monospace" font-size="10.00">MooseBase</text>
</a>
</g>
</g>
<!-- Node6&#45;&gt;Node5 -->
<g id="edge5" class="edge">
<title>Node6&#45;&gt;Node5</title>
<path fill="none" stroke="#63b8ff" d="M321.54,-617.78C335.32,-615.03 350.39,-611.58 364,-607.5 407,-594.61 455.19,-573.76 482.19,-561.47"/>
<polygon fill="#63b8ff" stroke="#63b8ff" points="320.97,-614.32 311.81,-619.64 322.29,-621.2 320.97,-614.32"/>
</g>
<!-- Node7 -->
<g id="node7" class="node">
<title>Node7</title>
<g id="a_node7"><a xlink:href="classMooseBaseParameterInterface.html" target="_top" xlink:title="Every object that can be built by the factory should be derived from this class.">
<polygon fill="white" stroke="#666666" points="364,-598 185,-598 185,-579 364,-579 364,-598"/>
<text text-anchor="middle" x="274.5" y="-586" font-family="Courier,monospace" font-size="10.00">MooseBaseParameterInterface</text>
</a>
</g>
</g>
<!-- Node7&#45;&gt;Node5 -->
<g id="edge6" class="edge">
<title>Node7&#45;&gt;Node5</title>
<path fill="none" stroke="#63b8ff" d="M347.88,-576.75C385.73,-570.61 430.68,-563.32 462.51,-558.15"/>
<polygon fill="#63b8ff" stroke="#63b8ff" points="347.7,-573.24 338.39,-578.29 348.83,-580.15 347.7,-573.24"/>
</g>
<!-- Node8 -->
<g id="node8" class="node">
<title>Node8</title>
<g id="a_node8"><a xlink:href="classMooseBaseErrorInterface.html" target="_top" xlink:title="Interface that provides APIs to output errors/warnings/info messages.">
<polygon fill="white" stroke="#666666" points="352,-561 197,-561 197,-542 352,-542 352,-561"/>
<text text-anchor="middle" x="274.5" y="-549" font-family="Courier,monospace" font-size="10.00">MooseBaseErrorInterface</text>
</a>
</g>
</g>
<!-- Node8&#45;&gt;Node5 -->
<g id="edge7" class="edge">
<title>Node8&#45;&gt;Node5</title>
<path fill="none" stroke="#63b8ff" d="M363.8,-551.5C397.92,-551.5 435.28,-551.5 462.77,-551.5"/>
<polygon fill="#63b8ff" stroke="#63b8ff" points="363.89,-548 353.89,-551.5 363.89,-555 363.89,-548"/>
</g>
<!-- Node9 -->
<g id="node9" class="node">
<title>Node9</title>
<g id="a_node9"><a xlink:href="classConsoleStreamInterface.html" target="_top" xlink:title="An inteface for the _console for outputting to the Console object.">
<polygon fill="white" stroke="#666666" points="149,-561 0,-561 0,-542 149,-542 149,-561"/>
<text text-anchor="middle" x="74.5" y="-549" font-family="Courier,monospace" font-size="10.00">ConsoleStreamInterface</text>
</a>
</g>
</g>
<!-- Node9&#45;&gt;Node8 -->
<g id="edge8" class="edge">
<title>Node9&#45;&gt;Node8</title>
<path fill="none" stroke="#63b8ff" d="M160.62,-551.5C172.62,-551.5 184.9,-551.5 196.73,-551.5"/>
<polygon fill="#63b8ff" stroke="#63b8ff" points="160.74,-548 150.74,-551.5 160.74,-555 160.74,-548"/>
</g>
<!-- Node10 -->
<g id="node10" class="node">
<title>Node10</title>
<g id="a_node10"><a xlink:title=" ">
<polygon fill="white" stroke="#666666" points="352,-524 197,-524 197,-505 352,-505 352,-524"/>
<text text-anchor="middle" x="274.5" y="-512" font-family="Courier,monospace" font-size="10.00">libMesh::ParallelObject</text>
</a>
</g>
</g>
<!-- Node10&#45;&gt;Node5 -->
<g id="edge9" class="edge">
<title>Node10&#45;&gt;Node5</title>
<path fill="none" stroke="#63b8ff" d="M347.88,-526.25C385.73,-532.39 430.68,-539.68 462.51,-544.85"/>
<polygon fill="#63b8ff" stroke="#63b8ff" points="348.83,-522.85 338.39,-524.71 347.7,-529.76 348.83,-522.85"/>
</g>
<!-- Node11 -->
<g id="node11" class="node">
<title>Node11</title>
<g id="a_node11"><a xlink:href="classDataFileInterface.html" target="_top" xlink:title=" ">
<polygon fill="white" stroke="#666666" points="337,-486.5 212,-486.5 212,-456.5 337,-456.5 337,-486.5"/>
<text text-anchor="start" x="220" y="-474.5" font-family="Courier,monospace" font-size="10.00">DataFileInterface&lt;</text>
<text text-anchor="middle" x="274.5" y="-463.5" font-family="Courier,monospace" font-size="10.00"> MooseObject &gt;</text>
</a>
</g>
</g>
<!-- Node11&#45;&gt;Node5 -->
<g id="edge10" class="edge">
<title>Node11&#45;&gt;Node5</title>
<path fill="none" stroke="#63b8ff" d="M347.62,-488.35C353.32,-490.73 358.86,-493.44 364,-496.5 383.71,-508.24 379.71,-522.79 400,-533.5 419.11,-543.59 442.71,-548.19 462.54,-550.23"/>
<polygon fill="#63b8ff" stroke="#63b8ff" points="349.23,-485.22 338.64,-484.94 346.74,-491.76 349.23,-485.22"/>
</g>
<!-- Node12 -->
<g id="node12" class="node">
<title>Node12</title>
<g id="a_node12"><a xlink:href="classSetupInterface.html" target="_top" xlink:title=" ">
<polygon fill="white" stroke="#666666" points="555,-524 454,-524 454,-505 555,-505 555,-524"/>
<text text-anchor="middle" x="504.5" y="-512" font-family="Courier,monospace" font-size="10.00">SetupInterface</text>
</a>
</g>
</g>
<!-- Node12&#45;&gt;Node4 -->
<g id="edge11" class="edge">
<title>Node12&#45;&gt;Node4</title>
<path fill="none" stroke="#63b8ff" d="M566.26,-510.5C580.86,-507.79 595.98,-503.44 609,-496.5 675.01,-461.3 728.22,-384.26 745.53,-357.16"/>
<polygon fill="#63b8ff" stroke="#63b8ff" points="566.06,-506.99 556.74,-512.02 567.16,-513.9 566.06,-506.99"/>
</g>
<!-- Node13 -->
<g id="node13" class="node">
<title>Node13</title>
<g id="a_node13"><a xlink:href="classFunctionInterface.html" target="_top" xlink:title="Interface for objects that need to use functions.">
<polygon fill="white" stroke="#666666" points="564,-487 445,-487 445,-468 564,-468 564,-487"/>
<text text-anchor="middle" x="504.5" y="-475" font-family="Courier,monospace" font-size="10.00">FunctionInterface</text>
</a>
</g>
</g>
<!-- Node13&#45;&gt;Node4 -->
<g id="edge12" class="edge">
<title>Node13&#45;&gt;Node4</title>
<path fill="none" stroke="#63b8ff" d="M575.44,-470.2C586.94,-467.63 598.52,-464.17 609,-459.5 666.77,-433.76 721.67,-379.39 742.59,-357.22"/>
<polygon fill="#63b8ff" stroke="#63b8ff" points="575.07,-466.7 565.96,-472.09 576.45,-473.56 575.07,-466.7"/>
</g>
<!-- Node14 -->
<g id="node14" class="node">
<title>Node14</title>
<g id="a_node14"><a xlink:href="classUserObjectInterface.html" target="_top" xlink:title="Interface for objects that need to use UserObjects.">
<polygon fill="white" stroke="#666666" points="570,-450 439,-450 439,-431 570,-431 570,-450"/>
<text text-anchor="middle" x="504.5" y="-438" font-family="Courier,monospace" font-size="10.00">UserObjectInterface</text>
</a>
</g>
</g>
<!-- Node14&#45;&gt;Node4 -->
<g id="edge13" class="edge">
<title>Node14&#45;&gt;Node4</title>
<path fill="none" stroke="#63b8ff" d="M581.36,-430.13C590.78,-428.02 600.19,-425.5 609,-422.5 658.22,-405.73 711.14,-373.74 736.4,-357.49"/>
<polygon fill="#63b8ff" stroke="#63b8ff" points="580.89,-426.66 571.81,-432.12 582.31,-433.51 580.89,-426.66"/>
</g>
<!-- Node15 -->
<g id="node15" class="node">
<title>Node15</title>
<g id="a_node15"><a xlink:href="classTransientInterface.html" target="_top" xlink:title="Interface for objects that needs transient capabilities.">
<polygon fill="white" stroke="#666666" points="567,-413 442,-413 442,-394 567,-394 567,-413"/>
<text text-anchor="middle" x="504.5" y="-401" font-family="Courier,monospace" font-size="10.00">TransientInterface</text>
</a>
</g>
</g>
<!-- Node15&#45;&gt;Node4 -->
<g id="edge14" class="edge">
<title>Node15&#45;&gt;Node4</title>
<path fill="none" stroke="#63b8ff" d="M578.35,-391.67C588.67,-389.75 599.12,-387.67 609,-385.5 646.39,-377.28 688.7,-365.7 717.44,-357.49"/>
<polygon fill="#63b8ff" stroke="#63b8ff" points="577.95,-388.18 568.73,-393.41 579.2,-395.07 577.95,-388.18"/>
</g>
<!-- Node16 -->
<g id="node16" class="node">
<title>Node16</title>
<g id="a_node16"><a xlink:href="classPostprocessorInterface.html" target="_top" xlink:title="Interface class for classes which interact with Postprocessors.">
<polygon fill="white" stroke="#666666" points="579,-376 430,-376 430,-357 579,-357 579,-376"/>
<text text-anchor="middle" x="504.5" y="-364" font-family="Courier,monospace" font-size="10.00">PostprocessorInterface</text>
</a>
</g>
</g>
<!-- Node16&#45;&gt;Node4 -->
<g id="edge15" class="edge">
<title>Node16&#45;&gt;Node4</title>
<path fill="none" stroke="#63b8ff" d="M590.61,-359.93C627.61,-357.07 669.67,-353.82 701.51,-351.36"/>
<polygon fill="#63b8ff" stroke="#63b8ff" points="590.52,-356.42 580.82,-360.68 591.06,-363.4 590.52,-356.42"/>
</g>
<!-- Node17 -->
<g id="node17" class="node">
<title>Node17</title>
<g id="a_node17"><a xlink:href="classVectorPostprocessorInterface.html" target="_top" xlink:title=" ">
<polygon fill="white" stroke="#666666" points="597,-339 412,-339 412,-320 597,-320 597,-339"/>
<text text-anchor="middle" x="504.5" y="-327" font-family="Courier,monospace" font-size="10.00">VectorPostprocessorInterface</text>
</a>
</g>
</g>
<!-- Node17&#45;&gt;Node4 -->
<g id="edge16" class="edge">
<title>Node17&#45;&gt;Node4</title>
<path fill="none" stroke="#63b8ff" d="M608.74,-337.05C640.92,-339.41 674.96,-341.9 701.72,-343.86"/>
<polygon fill="#63b8ff" stroke="#63b8ff" points="609.19,-333.58 598.96,-336.34 608.68,-340.56 609.19,-333.58"/>
</g>
<!-- Node18 -->
<g id="node18" class="node">
<title>Node18</title>
<g id="a_node18"><a xlink:href="classRandomInterface.html" target="_top" xlink:title="Interface for objects that need parallel consistent random numbers without patterns over the course o...">
<polygon fill="white" stroke="#666666" points="558,-302 451,-302 451,-283 558,-283 558,-302"/>
<text text-anchor="middle" x="504.5" y="-290" font-family="Courier,monospace" font-size="10.00">RandomInterface</text>
</a>
</g>
</g>
<!-- Node18&#45;&gt;Node4 -->
<g id="edge17" class="edge">
<title>Node18&#45;&gt;Node4</title>
<path fill="none" stroke="#63b8ff" d="M569.59,-303.58C582.66,-306.04 596.3,-308.73 609,-311.5 645.15,-319.38 686.07,-329.88 714.75,-337.51"/>
<polygon fill="#63b8ff" stroke="#63b8ff" points="570.24,-300.15 559.78,-301.77 568.97,-307.03 570.24,-300.15"/>
</g>
<!-- Node19 -->
<g id="node19" class="node">
<title>Node19</title>
<g id="a_node19"><a xlink:href="classRestartable.html" target="_top" xlink:title="A class for creating restricted objects.">
<polygon fill="white" stroke="#666666" points="546,-265 463,-265 463,-246 546,-246 546,-265"/>
<text text-anchor="middle" x="504.5" y="-253" font-family="Courier,monospace" font-size="10.00">Restartable</text>
</a>
</g>
</g>
<!-- Node19&#45;&gt;Node4 -->
<g id="edge18" class="edge">
<title>Node19&#45;&gt;Node4</title>
<path fill="none" stroke="#63b8ff" d="M557.29,-261.96C574.05,-264.86 592.56,-268.91 609,-274.5 657.69,-291.04 710.43,-321.8 735.93,-337.59"/>
<polygon fill="#63b8ff" stroke="#63b8ff" points="557.93,-258.52 547.5,-260.38 556.81,-265.43 557.93,-258.52"/>
</g>
<!-- Node20 -->
<g id="node20" class="node">
<title>Node20</title>
<g id="a_node20"><a xlink:href="classMeshChangedInterface.html" target="_top" xlink:title="Interface for notifications that the mesh has changed.">
<polygon fill="white" stroke="#666666" points="573,-228 436,-228 436,-209 573,-209 573,-228"/>
<text text-anchor="middle" x="504.5" y="-216" font-family="Courier,monospace" font-size="10.00">MeshChangedInterface</text>
</a>
</g>
</g>
<!-- Node20&#45;&gt;Node4 -->
<g id="edge19" class="edge">
<title>Node20&#45;&gt;Node4</title>
<path fill="none" stroke="#63b8ff" d="M584.55,-228.93C592.98,-231.24 601.29,-234.06 609,-237.5 666.09,-262.96 720.95,-315.78 742.22,-337.67"/>
<polygon fill="#63b8ff" stroke="#63b8ff" points="585.45,-225.55 574.91,-226.55 583.77,-232.35 585.45,-225.55"/>
</g>
<!-- Node21 -->
<g id="node21" class="node">
<title>Node21</title>
<g id="a_node21"><a xlink:href="classTaggingInterface.html" target="_top" xlink:title=" ">
<polygon fill="white" stroke="#666666" points="561,-191 448,-191 448,-172 561,-172 561,-191"/>
<text text-anchor="middle" x="504.5" y="-179" font-family="Courier,monospace" font-size="10.00">TaggingInterface</text>
</a>
</g>
</g>
<!-- Node21&#45;&gt;Node4 -->
<g id="edge20" class="edge">
<title>Node21&#45;&gt;Node4</title>
<path fill="none" stroke="#63b8ff" d="M572.37,-187.51C585.02,-190.36 597.79,-194.5 609,-200.5 674.19,-235.38 727.52,-310.62 745.22,-337.61"/>
<polygon fill="#63b8ff" stroke="#63b8ff" points="573.3,-184.13 562.81,-185.62 571.94,-190.99 573.3,-184.13"/>
</g>
<!-- Node22 -->
<g id="node22" class="node">
<title>Node22</title>
<g id="a_node22"><a xlink:href="classBlockRestrictable.html" target="_top" xlink:title="An interface that restricts an object to subdomains via the &#39;blocks&#39; input parameter.">
<polygon fill="white" stroke="#666666" points="812,-179 693,-179 693,-160 812,-160 812,-179"/>
<text text-anchor="middle" x="752.5" y="-167" font-family="Courier,monospace" font-size="10.00">BlockRestrictable</text>
</a>
</g>
</g>
<!-- Node22&#45;&gt;Node3 -->
<g id="edge21" class="edge">
<title>Node22&#45;&gt;Node3</title>
<path fill="none" stroke="#63b8ff" d="M823.51,-159.29C835.78,-156.86 848.35,-153.94 860,-150.5 892.43,-140.92 928.25,-124.74 949.8,-114.34"/>
<polygon fill="#63b8ff" stroke="#63b8ff" points="823.02,-155.82 813.84,-161.11 824.32,-162.7 823.02,-155.82"/>
</g>
<!-- Node23 -->
<g id="node23" class="node">
<title>Node23</title>
<g id="a_node23"><a xlink:href="classCoupleableMooseVariableDependencyIntermediateInterface.html" target="_top" xlink:title="Intermediate base class that ties together all the interfaces for getting MooseVariableFEBases with t...">
<polygon fill="white" stroke="#666666" points="860,-141.5 645,-141.5 645,-111.5 860,-111.5 860,-141.5"/>
<text text-anchor="start" x="653" y="-129.5" font-family="Courier,monospace" font-size="10.00">CoupleableMooseVariableDependency</text>
<text text-anchor="middle" x="752.5" y="-118.5" font-family="Courier,monospace" font-size="10.00">IntermediateInterface</text>
</a>
</g>
</g>
<!-- Node23&#45;&gt;Node3 -->
<g id="edge22" class="edge">
<title>Node23&#45;&gt;Node3</title>
<path fill="none" stroke="#63b8ff" d="M871.68,-114.46C893.49,-112.24 914.75,-110.08 931.85,-108.33"/>
<polygon fill="#63b8ff" stroke="#63b8ff" points="871.33,-110.98 861.74,-115.48 872.04,-117.94 871.33,-110.98"/>
</g>
<!-- Node24 -->
<g id="node24" class="node">
<title>Node24</title>
<g id="a_node24"><a xlink:href="classCoupleable.html" target="_top" xlink:title="Interface for objects that needs coupling capabilities.">
<polygon fill="white" stroke="#666666" points="543,-154 466,-154 466,-135 543,-135 543,-154"/>
<text text-anchor="middle" x="504.5" y="-142" font-family="Courier,monospace" font-size="10.00">Coupleable</text>
</a>
</g>
</g>
<!-- Node24&#45;&gt;Node23 -->
<g id="edge23" class="edge">
<title>Node24&#45;&gt;Node23</title>
<path fill="none" stroke="#63b8ff" d="M554.76,-140.9C580.62,-139 613.37,-136.61 644.69,-134.32"/>
<polygon fill="#63b8ff" stroke="#63b8ff" points="554.63,-137.4 544.91,-141.62 555.14,-144.38 554.63,-137.4"/>
</g>
<!-- Node25 -->
<g id="node25" class="node">
<title>Node25</title>
<g id="a_node25"><a xlink:href="classScalarCoupleable.html" target="_top" xlink:title="Interface for objects that needs scalar coupling capabilities.">
<polygon fill="white" stroke="#666666" points="561,-117 448,-117 448,-98 561,-98 561,-117"/>
<text text-anchor="middle" x="504.5" y="-105" font-family="Courier,monospace" font-size="10.00">ScalarCoupleable</text>
</a>
</g>
</g>
<!-- Node25&#45;&gt;Node23 -->
<g id="edge24" class="edge">
<title>Node25&#45;&gt;Node23</title>
<path fill="none" stroke="#63b8ff" d="M572.63,-112.68C594.83,-114.4 620.11,-116.35 644.53,-118.24"/>
<polygon fill="#63b8ff" stroke="#63b8ff" points="573.07,-109.21 562.83,-111.93 572.53,-116.19 573.07,-109.21"/>
</g>
<!-- Node26 -->
<g id="node26" class="node">
<title>Node26</title>
<g id="a_node26"><a xlink:href="classMooseVariableDependencyInterface.html" target="_top" xlink:title=" ">
<polygon fill="white" stroke="#666666" points="609,-80 400,-80 400,-61 609,-61 609,-80"/>
<text text-anchor="middle" x="504.5" y="-68" font-family="Courier,monospace" font-size="10.00">MooseVariableDependencyInterface</text>
</a>
</g>
</g>
<!-- Node26&#45;&gt;Node23 -->
<g id="edge25" class="edge">
<title>Node26&#45;&gt;Node23</title>
<path fill="none" stroke="#63b8ff" d="M580.08,-82.66C589.86,-84.71 599.71,-86.99 609,-89.5 625.42,-93.94 628.67,-97.73 645,-102.5 655.37,-105.53 666.4,-108.4 677.29,-111.03"/>
<polygon fill="#63b8ff" stroke="#63b8ff" points="581.07,-79.29 570.57,-80.76 579.69,-86.16 581.07,-79.29"/>
</g>
<!-- Node27 -->
<g id="node27" class="node">
<title>Node27</title>
<g id="a_node27"><a xlink:href="classMaterialPropertyInterface.html" target="_top" xlink:title="An interface for accessing Materials.">
<polygon fill="white" stroke="#666666" points="836,-93 669,-93 669,-74 836,-74 836,-93"/>
<text text-anchor="middle" x="752.5" y="-81" font-family="Courier,monospace" font-size="10.00">MaterialPropertyInterface</text>
</a>
</g>
</g>
<!-- Node27&#45;&gt;Node3 -->
<g id="edge26" class="edge">
<title>Node27&#45;&gt;Node3</title>
<path fill="none" stroke="#63b8ff" d="M847.66,-92.65C877.29,-95.53 908.32,-98.55 931.66,-100.82"/>
<polygon fill="#63b8ff" stroke="#63b8ff" points="848.19,-89.19 837.9,-91.71 847.51,-96.16 848.19,-89.19"/>
</g>
<!-- Node28 -->
<g id="node28" class="node">
<title>Node28</title>
<g id="a_node28"><a xlink:href="classGeometricSearchInterface.html" target="_top" xlink:title=" ">
<polygon fill="white" stroke="#666666" points="833,-56 672,-56 672,-37 833,-37 833,-56"/>
<text text-anchor="middle" x="752.5" y="-44" font-family="Courier,monospace" font-size="10.00">GeometricSearchInterface</text>
</a>
</g>
</g>
<!-- Node28&#45;&gt;Node3 -->
<g id="edge27" class="edge">
<title>Node28&#45;&gt;Node3</title>
<path fill="none" stroke="darkgreen" d="M843.16,-59.22C848.92,-60.78 854.57,-62.53 860,-64.5 877.41,-70.81 878.87,-78.45 896,-85.5 907.33,-90.17 920.13,-93.95 931.84,-96.88"/>
<polygon fill="darkgreen" stroke="darkgreen" points="844.01,-55.82 833.46,-56.8 842.32,-62.61 844.01,-55.82"/>
</g>
<!-- Node29 -->
<g id="node29" class="node">
<title>Node29</title>
<g id="a_node29"><a xlink:href="classElementIDInterface.html" target="_top" xlink:title=" ">
<polygon fill="white" stroke="#666666" points="815,-19 690,-19 690,0 815,0 815,-19"/>
<text text-anchor="middle" x="752.5" y="-7" font-family="Courier,monospace" font-size="10.00">ElementIDInterface</text>
</a>
</g>
</g>
<!-- Node29&#45;&gt;Node3 -->
<g id="edge28" class="edge">
<title>Node29&#45;&gt;Node3</title>
<path fill="none" stroke="#63b8ff" d="M826.37,-13.35C838.29,-16.3 849.99,-20.78 860,-27.5 885.19,-44.41 871.56,-67.52 896,-85.5 906.3,-93.07 919.35,-97.64 931.58,-100.38"/>
<polygon fill="#63b8ff" stroke="#63b8ff" points="827.4,-9.99 816.9,-11.38 825.97,-16.85 827.4,-9.99"/>
</g>
<!-- Node30 -->
<g id="node30" class="node">
<title>Node30</title>
<g id="a_node30"><a xlink:href="classMooseVariableInterface.html" target="_top" xlink:title=" ">
<polygon fill="white" stroke="#666666" points="1045,-76.5 896,-76.5 896,-46.5 1045,-46.5 1045,-76.5"/>
<text text-anchor="start" x="904" y="-64.5" font-family="Courier,monospace" font-size="10.00">MooseVariableInterface</text>
<text text-anchor="middle" x="970.5" y="-53.5" font-family="Courier,monospace" font-size="10.00">&lt; RealEigenVector &gt;</text>
</a>
</g>
</g>
<!-- Node30&#45;&gt;Node2 -->
<g id="edge29" class="edge">
<title>Node30&#45;&gt;Node2</title>
<path fill="none" stroke="#63b8ff" d="M1056.4,-73.39C1064.89,-74.57 1073.2,-75.74 1080.9,-76.82"/>
<polygon fill="#63b8ff" stroke="#63b8ff" points="1057.07,-69.95 1046.68,-72.03 1056.1,-76.88 1057.07,-69.95"/>
</g>
</g>
</svg>
        <g id="navigator" transform="translate(0 0)" fill="#404254">
                <rect fill="#f2f5e9" fill-opacity="0.5" stroke="#606060" stroke-width=".5" x="0" y="0" width="60" height="60"/>
                <use id="zoomplus" xlink:href="#zoomPlus" x="17" y="9" onmousedown="handleZoom(evt,'in')"/>
                <use id="zoomminus" xlink:href="#zoomMin" x="42" y="9" onmousedown="handleZoom(evt,'out')"/>
                <use id="reset" xlink:href="#resetDef" x="30" y="36" onmousedown="handleReset()"/>
                <g id="arrowUp" xlink:href="#dirArrow" transform="translate(30 24)" onmousedown="handlePan(0,-1)">
                  <use xlink:href="#rim" fill="#404040">
                        <set attributeName="fill" to="#808080" begin="arrowUp.mouseover" end="arrowUp.mouseout"/>
                  </use>
                  <path fill="none" stroke="white" stroke-width="1.5" d="M0,-3.0v7 M-2.5,-0.5L0,-3.0L2.5,-0.5"/>
                </g>
                <g id="arrowRight" xlink:href="#dirArrow" transform="rotate(90) translate(36 -43)" onmousedown="handlePan(1,0)">
                  <use xlink:href="#rim" fill="#404040">
                        <set attributeName="fill" to="#808080" begin="arrowRight.mouseover" end="arrowRight.mouseout"/>
                  </use>
                  <path fill="none" stroke="white" stroke-width="1.5" d="M0,-3.0v7 M-2.5,-0.5L0,-3.0L2.5,-0.5"/>
                </g>
                <g id="arrowDown" xlink:href="#dirArrow" transform="rotate(180) translate(-30 -48)" onmousedown="handlePan(0,1)">
                  <use xlink:href="#rim" fill="#404040">
                        <set attributeName="fill" to="#808080" begin="arrowDown.mouseover" end="arrowDown.mouseout"/>
                  </use>
                  <path fill="none" stroke="white" stroke-width="1.5" d="M0,-3.0v7 M-2.5,-0.5L0,-3.0L2.5,-0.5"/>
                </g>
                <g id="arrowLeft" xlink:href="#dirArrow" transform="rotate(270) translate(-36 17)" onmousedown="handlePan(-1,0)">
                  <use xlink:href="#rim" fill="#404040">
                        <set attributeName="fill" to="#808080" begin="arrowLeft.mouseover" end="arrowLeft.mouseout"/>
                  </use>
                  <path fill="none" stroke="white" stroke-width="1.5" d="M0,-3.0v7 M-2.5,-0.5L0,-3.0L2.5,-0.5"/>
                </g>
        </g>
        <svg viewBox="0 0 15 15" width="100%" height="30px" preserveAspectRatio="xMaxYMin meet">
         <g id="arrow_out" transform="scale(0.3 0.3)">
          <a xlink:href="classArrayDiffusion__inherit__graph_org.svg" target="_base">
           <rect id="button" ry="5" rx="5" y="6" x="6" height="38" width="38"
                fill="#f2f5e9" fill-opacity="0.5" stroke="#606060" stroke-width="1.0"/>
           <path id="arrow"
             d="M 11.500037,31.436501 C 11.940474,20.09759 22.043105,11.32322 32.158766,21.979434 L 37.068811,17.246167 C 37.068811,17.246167 37.088388,32 37.088388,32 L 22.160133,31.978069 C 22.160133,31.978069 26.997745,27.140456 26.997745,27.140456 C 18.528582,18.264221 13.291696,25.230495 11.500037,31.436501 z"
             style="fill:#404040;"/>
          </a>
         </g>
        </svg>
</svg>
