<?xml version="1.0" encoding="UTF-8" standalone="no"?>
<!DOCTYPE svg PUBLIC "-//W3C//DTD SVG 1.1//EN"
 "http://www.w3.org/Graphics/SVG/1.1/DTD/svg11.dtd">
<!-- Generated by graphviz version 7.0.5 (20221223.1930)
 -->
<!-- Title: CurrentDensityShapeSideUserObject Pages: 1 -->
<svg width="1560pt" height="712pt"
 viewBox="0.00 0.00 1560.00 712.00" xmlns="http://www.w3.org/2000/svg" xmlns:xlink="http://www.w3.org/1999/xlink">
<g id="graph0" class="graph" transform="scale(1 1) rotate(0) translate(4 708)">
<title>CurrentDensityShapeSideUserObject</title>
<!-- Node1 -->
<g id="node1" class="node">
<title>Node1</title>
<g id="a_node1"><a xlink:title=" ">
<polygon fill="#999999" stroke="#666666" points="1552,-135.5 1373,-135.5 1373,-105.5 1552,-105.5 1552,-135.5"/>
<text text-anchor="start" x="1381" y="-123.5" font-family="Courier,monospace" font-size="10.00">CurrentDensityShapeSideUser</text>
<text text-anchor="middle" x="1462.5" y="-112.5" font-family="Courier,monospace" font-size="10.00">Object</text>
</a>
</g>
</g>
<!-- Node2 -->
<g id="node2" class="node">
<title>Node2</title>
<g id="a_node2"><a xlink:href="classShapeSideUserObject.html" target="_top" xlink:title="SideUserObject class in which the _phi and _grad_phi shape function data is available and correctly i...">
<polygon fill="white" stroke="#666666" points="1337,-130 1206,-130 1206,-111 1337,-111 1337,-130"/>
<text text-anchor="middle" x="1271.5" y="-118" font-family="Courier,monospace" font-size="10.00">ShapeSideUserObject</text>
</a>
</g>
</g>
<!-- Node2&#45;&gt;Node1 -->
<g id="edge1" class="edge">
<title>Node2&#45;&gt;Node1</title>
<path fill="none" stroke="#63b8ff" d="M1348.72,-120.5C1356.63,-120.5 1364.72,-120.5 1372.75,-120.5"/>
<polygon fill="#63b8ff" stroke="#63b8ff" points="1348.79,-117 1338.79,-120.5 1348.79,-124 1348.79,-117"/>
</g>
<!-- Node3 -->
<g id="node3" class="node">
<title>Node3</title>
<g id="a_node3"><a xlink:href="classShapeUserObject.html" target="_top" xlink:title=" ">
<polygon fill="white" stroke="#666666" points="1170,-135.5 1003,-135.5 1003,-105.5 1170,-105.5 1170,-135.5"/>
<text text-anchor="start" x="1011" y="-123.5" font-family="Courier,monospace" font-size="10.00">ShapeUserObject&lt; SideUser</text>
<text text-anchor="middle" x="1086.5" y="-112.5" font-family="Courier,monospace" font-size="10.00">Object &gt;</text>
</a>
</g>
</g>
<!-- Node3&#45;&gt;Node2 -->
<g id="edge2" class="edge">
<title>Node3&#45;&gt;Node2</title>
<path fill="none" stroke="#63b8ff" d="M1181.83,-120.5C1189.89,-120.5 1197.92,-120.5 1205.68,-120.5"/>
<polygon fill="#63b8ff" stroke="#63b8ff" points="1181.95,-117 1171.95,-120.5 1181.95,-124 1181.95,-117"/>
</g>
<!-- Node4 -->
<g id="node4" class="node">
<title>Node4</title>
<g id="a_node4"><a xlink:href="classSideUserObject.html" target="_top" xlink:title="Base class for user objects executed one or more sidesets, which may be on the outer boundary of the ...">
<polygon fill="white" stroke="#666666" points="967,-130 866,-130 866,-111 967,-111 967,-130"/>
<text text-anchor="middle" x="916.5" y="-118" font-family="Courier,monospace" font-size="10.00">SideUserObject</text>
</a>
</g>
</g>
<!-- Node4&#45;&gt;Node3 -->
<g id="edge3" class="edge">
<title>Node4&#45;&gt;Node3</title>
<path fill="none" stroke="#63b8ff" d="M978.95,-120.5C986.69,-120.5 994.7,-120.5 1002.7,-120.5"/>
<polygon fill="#63b8ff" stroke="#63b8ff" points="978.96,-117 968.96,-120.5 978.96,-124 978.96,-117"/>
</g>
<!-- Node5 -->
<g id="node5" class="node">
<title>Node5</title>
<g id="a_node5"><a xlink:href="classUserObject.html" target="_top" xlink:title="Base class for user&#45;specific data.">
<polygon fill="white" stroke="#666666" points="764,-352 687,-352 687,-333 764,-333 764,-352"/>
<text text-anchor="middle" x="725.5" y="-340" font-family="Courier,monospace" font-size="10.00">UserObject</text>
</a>
</g>
</g>
<!-- Node5&#45;&gt;Node4 -->
<g id="edge4" class="edge">
<title>Node5&#45;&gt;Node4</title>
<path fill="none" stroke="#63b8ff" d="M742.32,-323.92C780.69,-278.85 877.75,-164.84 907.02,-130.46"/>
<polygon fill="#63b8ff" stroke="#63b8ff" points="739.66,-321.64 735.85,-331.52 744.99,-326.18 739.66,-321.64"/>
</g>
<!-- Node6 -->
<g id="node6" class="node">
<title>Node6</title>
<g id="a_node6"><a xlink:href="classMooseObject.html" target="_top" xlink:title="Every object that can be built by the factory should be derived from this class.">
<polygon fill="white" stroke="#666666" points="534,-630 451,-630 451,-611 534,-611 534,-630"/>
<text text-anchor="middle" x="492.5" y="-618" font-family="Courier,monospace" font-size="10.00">MooseObject</text>
</a>
</g>
</g>
<!-- Node6&#45;&gt;Node5 -->
<g id="edge5" class="edge">
<title>Node6&#45;&gt;Node5</title>
<path fill="none" stroke="#63b8ff" d="M545.39,-618.32C559.28,-615.69 573.59,-610.93 585,-602.5 675.85,-535.38 713.69,-390.99 722.44,-352.24"/>
<polygon fill="#63b8ff" stroke="#63b8ff" points="545.25,-614.8 535.9,-619.77 546.31,-621.72 545.25,-614.8"/>
</g>
<!-- Node7 -->
<g id="node7" class="node">
<title>Node7</title>
<g id="a_node7"><a xlink:href="classMooseBase.html" target="_top" xlink:title="Base class for everything in MOOSE with a name and a type.">
<polygon fill="white" stroke="#666666" points="310,-704 239,-704 239,-685 310,-685 310,-704"/>
<text text-anchor="middle" x="274.5" y="-692" font-family="Courier,monospace" font-size="10.00">MooseBase</text>
</a>
</g>
</g>
<!-- Node7&#45;&gt;Node6 -->
<g id="edge6" class="edge">
<title>Node7&#45;&gt;Node6</title>
<path fill="none" stroke="#63b8ff" d="M321.62,-687.05C335.41,-684.31 350.46,-680.8 364,-676.5 403.87,-663.85 448.08,-642.72 472.56,-630.35"/>
<polygon fill="#63b8ff" stroke="#63b8ff" points="321.06,-683.59 311.89,-688.89 322.36,-690.47 321.06,-683.59"/>
</g>
<!-- Node8 -->
<g id="node8" class="node">
<title>Node8</title>
<g id="a_node8"><a xlink:href="classMooseBaseParameterInterface.html" target="_top" xlink:title="Every object that can be built by the factory should be derived from this class.">
<polygon fill="white" stroke="#666666" points="364,-667 185,-667 185,-648 364,-648 364,-667"/>
<text text-anchor="middle" x="274.5" y="-655" font-family="Courier,monospace" font-size="10.00">MooseBaseParameterInterface</text>
</a>
</g>
</g>
<!-- Node8&#45;&gt;Node6 -->
<g id="edge7" class="edge">
<title>Node8&#45;&gt;Node6</title>
<path fill="none" stroke="#63b8ff" d="M344.77,-645.63C379.7,-639.65 420.85,-632.6 450.68,-627.49"/>
<polygon fill="#63b8ff" stroke="#63b8ff" points="344.43,-642.14 335.16,-647.28 345.61,-649.04 344.43,-642.14"/>
</g>
<!-- Node9 -->
<g id="node9" class="node">
<title>Node9</title>
<g id="a_node9"><a xlink:href="classMooseBaseErrorInterface.html" target="_top" xlink:title="Interface that provides APIs to output errors/warnings/info messages.">
<polygon fill="white" stroke="#666666" points="352,-630 197,-630 197,-611 352,-611 352,-630"/>
<text text-anchor="middle" x="274.5" y="-618" font-family="Courier,monospace" font-size="10.00">MooseBaseErrorInterface</text>
</a>
</g>
</g>
<!-- Node9&#45;&gt;Node6 -->
<g id="edge8" class="edge">
<title>Node9&#45;&gt;Node6</title>
<path fill="none" stroke="#63b8ff" d="M363.7,-620.5C393.87,-620.5 426.17,-620.5 450.75,-620.5"/>
<polygon fill="#63b8ff" stroke="#63b8ff" points="363.78,-617 353.78,-620.5 363.78,-624 363.78,-617"/>
</g>
<!-- Node10 -->
<g id="node10" class="node">
<title>Node10</title>
<g id="a_node10"><a xlink:href="classConsoleStreamInterface.html" target="_top" xlink:title="An inteface for the _console for outputting to the Console object.">
<polygon fill="white" stroke="#666666" points="149,-630 0,-630 0,-611 149,-611 149,-630"/>
<text text-anchor="middle" x="74.5" y="-618" font-family="Courier,monospace" font-size="10.00">ConsoleStreamInterface</text>
</a>
</g>
</g>
<!-- Node10&#45;&gt;Node9 -->
<g id="edge9" class="edge">
<title>Node10&#45;&gt;Node9</title>
<path fill="none" stroke="#63b8ff" d="M160.62,-620.5C172.62,-620.5 184.9,-620.5 196.73,-620.5"/>
<polygon fill="#63b8ff" stroke="#63b8ff" points="160.74,-617 150.74,-620.5 160.74,-624 160.74,-617"/>
</g>
<!-- Node11 -->
<g id="node11" class="node">
<title>Node11</title>
<g id="a_node11"><a xlink:title=" ">
<polygon fill="white" stroke="#666666" points="352,-593 197,-593 197,-574 352,-574 352,-593"/>
<text text-anchor="middle" x="274.5" y="-581" font-family="Courier,monospace" font-size="10.00">libMesh::ParallelObject</text>
</a>
</g>
</g>
<!-- Node11&#45;&gt;Node6 -->
<g id="edge10" class="edge">
<title>Node11&#45;&gt;Node6</title>
<path fill="none" stroke="#63b8ff" d="M344.77,-595.37C379.7,-601.35 420.85,-608.4 450.68,-613.51"/>
<polygon fill="#63b8ff" stroke="#63b8ff" points="345.61,-591.96 335.16,-593.72 344.43,-598.86 345.61,-591.96"/>
</g>
<!-- Node12 -->
<g id="node12" class="node">
<title>Node12</title>
<g id="a_node12"><a xlink:href="classDataFileInterface.html" target="_top" xlink:title=" ">
<polygon fill="white" stroke="#666666" points="337,-555.5 212,-555.5 212,-525.5 337,-525.5 337,-555.5"/>
<text text-anchor="start" x="220" y="-543.5" font-family="Courier,monospace" font-size="10.00">DataFileInterface&lt;</text>
<text text-anchor="middle" x="274.5" y="-532.5" font-family="Courier,monospace" font-size="10.00"> MooseObject &gt;</text>
</a>
</g>
</g>
<!-- Node12&#45;&gt;Node6 -->
<g id="edge11" class="edge">
<title>Node12&#45;&gt;Node6</title>
<path fill="none" stroke="#63b8ff" d="M347.62,-557.35C353.32,-559.73 358.86,-562.44 364,-565.5 383.71,-577.24 379.83,-591.57 400,-602.5 415.37,-610.83 434.06,-615.34 450.53,-617.76"/>
<polygon fill="#63b8ff" stroke="#63b8ff" points="349.23,-554.22 338.64,-553.94 346.74,-560.76 349.23,-554.22"/>
</g>
<!-- Node13 -->
<g id="node13" class="node">
<title>Node13</title>
<g id="a_node13"><a xlink:href="classSetupInterface.html" target="_top" xlink:title=" ">
<polygon fill="white" stroke="#666666" points="543,-593 442,-593 442,-574 543,-574 543,-593"/>
<text text-anchor="middle" x="492.5" y="-581" font-family="Courier,monospace" font-size="10.00">SetupInterface</text>
</a>
</g>
</g>
<!-- Node13&#45;&gt;Node5 -->
<g id="edge12" class="edge">
<title>Node13&#45;&gt;Node5</title>
<path fill="none" stroke="#63b8ff" d="M554.61,-578.68C565.37,-575.88 575.99,-571.7 585,-565.5 666.99,-509.04 710.5,-387.03 721.61,-352.05"/>
<polygon fill="#63b8ff" stroke="#63b8ff" points="553.92,-575.25 544.89,-580.8 555.41,-582.09 553.92,-575.25"/>
</g>
<!-- Node14 -->
<g id="node14" class="node">
<title>Node14</title>
<g id="a_node14"><a xlink:href="classFunctionInterface.html" target="_top" xlink:title="Interface for objects that need to use functions.">
<polygon fill="white" stroke="#666666" points="552,-556 433,-556 433,-537 552,-537 552,-556"/>
<text text-anchor="middle" x="492.5" y="-544" font-family="Courier,monospace" font-size="10.00">FunctionInterface</text>
</a>
</g>
</g>
<!-- Node14&#45;&gt;Node5 -->
<g id="edge13" class="edge">
<title>Node14&#45;&gt;Node5</title>
<path fill="none" stroke="darkgreen" d="M563.08,-538.49C570.8,-535.97 578.29,-532.71 585,-528.5 658.15,-482.56 706.48,-383.45 720.37,-352.17"/>
<polygon fill="darkgreen" stroke="darkgreen" points="562.2,-535.1 553.52,-541.17 564.09,-541.84 562.2,-535.1"/>
</g>
<!-- Node15 -->
<g id="node15" class="node">
<title>Node15</title>
<g id="a_node15"><a xlink:href="classUserObjectInterface.html" target="_top" xlink:title="Interface for objects that need to use UserObjects.">
<polygon fill="white" stroke="#666666" points="558,-519 427,-519 427,-500 558,-500 558,-519"/>
<text text-anchor="middle" x="492.5" y="-507" font-family="Courier,monospace" font-size="10.00">UserObjectInterface</text>
</a>
</g>
</g>
<!-- Node15&#45;&gt;Node5 -->
<g id="edge14" class="edge">
<title>Node15&#45;&gt;Node5</title>
<path fill="none" stroke="#63b8ff" d="M569.1,-498.62C574.63,-496.63 580,-494.27 585,-491.5 649.46,-455.76 701.26,-379.73 718.42,-352.48"/>
<polygon fill="#63b8ff" stroke="#63b8ff" points="568.23,-495.22 559.74,-501.57 570.33,-501.9 568.23,-495.22"/>
</g>
<!-- Node16 -->
<g id="node16" class="node">
<title>Node16</title>
<g id="a_node16"><a xlink:href="classPostprocessorInterface.html" target="_top" xlink:title="Interface class for classes which interact with Postprocessors.">
<polygon fill="white" stroke="#666666" points="567,-482 418,-482 418,-463 567,-463 567,-482"/>
<text text-anchor="middle" x="492.5" y="-470" font-family="Courier,monospace" font-size="10.00">PostprocessorInterface</text>
</a>
</g>
</g>
<!-- Node16&#45;&gt;Node5 -->
<g id="edge15" class="edge">
<title>Node16&#45;&gt;Node5</title>
<path fill="none" stroke="darkgreen" d="M573.95,-459.02C577.74,-457.66 581.44,-456.15 585,-454.5 641.32,-428.3 694.79,-374.68 715.48,-352.47"/>
<polygon fill="darkgreen" stroke="darkgreen" points="572.97,-455.66 564.53,-462.05 575.12,-462.32 572.97,-455.66"/>
</g>
<!-- Node17 -->
<g id="node17" class="node">
<title>Node17</title>
<g id="a_node17"><a xlink:href="classVectorPostprocessorInterface.html" target="_top" xlink:title=" ">
<polygon fill="white" stroke="#666666" points="585,-445 400,-445 400,-426 585,-426 585,-445"/>
<text text-anchor="middle" x="492.5" y="-433" font-family="Courier,monospace" font-size="10.00">VectorPostprocessorInterface</text>
</a>
</g>
</g>
<!-- Node17&#45;&gt;Node5 -->
<g id="edge16" class="edge">
<title>Node17&#45;&gt;Node5</title>
<path fill="none" stroke="darkgreen" d="M568.24,-422.73C573.97,-421.17 579.61,-419.43 585,-417.5 633.15,-400.26 684.97,-368.48 709.71,-352.39"/>
<polygon fill="darkgreen" stroke="darkgreen" points="567.48,-419.32 558.64,-425.16 569.19,-426.1 567.48,-419.32"/>
</g>
<!-- Node18 -->
<g id="node18" class="node">
<title>Node18</title>
<g id="a_node18"><a xlink:href="classReporterInterface.html" target="_top" xlink:title="Interface to allow object to consume Reporter values.">
<polygon fill="white" stroke="#666666" points="552,-408 433,-408 433,-389 552,-389 552,-408"/>
<text text-anchor="middle" x="492.5" y="-396" font-family="Courier,monospace" font-size="10.00">ReporterInterface</text>
</a>
</g>
</g>
<!-- Node18&#45;&gt;Node5 -->
<g id="edge17" class="edge">
<title>Node18&#45;&gt;Node5</title>
<path fill="none" stroke="darkgreen" d="M558.53,-386.3C567.45,-384.46 576.47,-382.5 585,-380.5 621.29,-372 662.42,-360.57 690.56,-352.48"/>
<polygon fill="darkgreen" stroke="darkgreen" points="557.93,-382.85 548.83,-388.27 559.32,-389.71 557.93,-382.85"/>
</g>
<!-- Node19 -->
<g id="node19" class="node">
<title>Node19</title>
<g id="a_node19"><a xlink:href="classDistributionInterface.html" target="_top" xlink:title="Interface for objects that need to use distributions.">
<polygon fill="white" stroke="#666666" points="564,-371 421,-371 421,-352 564,-352 564,-371"/>
<text text-anchor="middle" x="492.5" y="-359" font-family="Courier,monospace" font-size="10.00">DistributionInterface</text>
</a>
</g>
</g>
<!-- Node19&#45;&gt;Node5 -->
<g id="edge18" class="edge">
<title>Node19&#45;&gt;Node5</title>
<path fill="none" stroke="darkgreen" d="M575.43,-354.76C613.35,-351.64 656.56,-348.09 686.65,-345.61"/>
<polygon fill="darkgreen" stroke="darkgreen" points="575.57,-351.24 565.89,-355.55 576.14,-358.21 575.57,-351.24"/>
</g>
<!-- Node20 -->
<g id="node20" class="node">
<title>Node20</title>
<g id="a_node20"><a xlink:href="classSamplerInterface.html" target="_top" xlink:title="Interface for objects that need to use samplers.">
<polygon fill="white" stroke="#666666" points="549,-334 436,-334 436,-315 549,-315 549,-334"/>
<text text-anchor="middle" x="492.5" y="-322" font-family="Courier,monospace" font-size="10.00">SamplerInterface</text>
</a>
</g>
</g>
<!-- Node20&#45;&gt;Node5 -->
<g id="edge19" class="edge">
<title>Node20&#45;&gt;Node5</title>
<path fill="none" stroke="darkgreen" d="M560.71,-329.74C601.74,-332.93 652.7,-336.91 686.78,-339.56"/>
<polygon fill="darkgreen" stroke="darkgreen" points="561.17,-326.26 550.93,-328.97 560.63,-333.24 561.17,-326.26"/>
</g>
<!-- Node21 -->
<g id="node21" class="node">
<title>Node21</title>
<g id="a_node21"><a xlink:href="classRestartable.html" target="_top" xlink:title="A class for creating restricted objects.">
<polygon fill="white" stroke="#666666" points="534,-297 451,-297 451,-278 534,-278 534,-297"/>
<text text-anchor="middle" x="492.5" y="-285" font-family="Courier,monospace" font-size="10.00">Restartable</text>
</a>
</g>
</g>
<!-- Node21&#45;&gt;Node5 -->
<g id="edge20" class="edge">
<title>Node21&#45;&gt;Node5</title>
<path fill="none" stroke="darkgreen" d="M545.27,-297.8C558.27,-300.51 572.17,-303.51 585,-306.5 620.08,-314.66 659.83,-325.03 687.9,-332.55"/>
<polygon fill="darkgreen" stroke="darkgreen" points="546.11,-294.4 535.61,-295.81 544.7,-301.26 546.11,-294.4"/>
</g>
<!-- Node22 -->
<g id="node22" class="node">
<title>Node22</title>
<g id="a_node22"><a xlink:href="classMeshMetaDataInterface.html" target="_top" xlink:title="The Interface used to retrieve mesh meta data (attributes) set by the MeshGenerator system.">
<polygon fill="white" stroke="#666666" points="564,-260 421,-260 421,-241 564,-241 564,-260"/>
<text text-anchor="middle" x="492.5" y="-248" font-family="Courier,monospace" font-size="10.00">MeshMetaDataInterface</text>
</a>
</g>
</g>
<!-- Node22&#45;&gt;Node5 -->
<g id="edge21" class="edge">
<title>Node22&#45;&gt;Node5</title>
<path fill="none" stroke="darkgreen" d="M564.33,-263.15C571.39,-265.02 578.38,-267.13 585,-269.5 632.62,-286.53 684.26,-317.07 709.25,-332.7"/>
<polygon fill="darkgreen" stroke="darkgreen" points="565.25,-259.77 554.7,-260.77 563.56,-266.57 565.25,-259.77"/>
</g>
<!-- Node23 -->
<g id="node23" class="node">
<title>Node23</title>
<g id="a_node23"><a xlink:href="classMeshChangedInterface.html" target="_top" xlink:title="Interface for notifications that the mesh has changed.">
<polygon fill="white" stroke="#666666" points="561,-223 424,-223 424,-204 561,-204 561,-223"/>
<text text-anchor="middle" x="492.5" y="-211" font-family="Courier,monospace" font-size="10.00">MeshChangedInterface</text>
</a>
</g>
</g>
<!-- Node23&#45;&gt;Node5 -->
<g id="edge22" class="edge">
<title>Node23&#45;&gt;Node5</title>
<path fill="none" stroke="darkgreen" d="M570.63,-226.77C575.58,-228.46 580.41,-230.36 585,-232.5 640.91,-258.56 694.6,-311.04 715.42,-332.75"/>
<polygon fill="darkgreen" stroke="darkgreen" points="571.71,-223.44 561.12,-223.85 569.65,-230.13 571.71,-223.44"/>
</g>
<!-- Node24 -->
<g id="node24" class="node">
<title>Node24</title>
<g id="a_node24"><a xlink:href="classScalarCoupleable.html" target="_top" xlink:title="Interface for objects that needs scalar coupling capabilities.">
<polygon fill="white" stroke="#666666" points="549,-186 436,-186 436,-167 549,-167 549,-186"/>
<text text-anchor="middle" x="492.5" y="-174" font-family="Courier,monospace" font-size="10.00">ScalarCoupleable</text>
</a>
</g>
</g>
<!-- Node24&#45;&gt;Node5 -->
<g id="edge23" class="edge">
<title>Node24&#45;&gt;Node5</title>
<path fill="none" stroke="darkgreen" d="M560.14,-185.34C568.81,-187.91 577.33,-191.23 585,-195.5 648.93,-231.11 701.07,-305.9 718.37,-332.69"/>
<polygon fill="darkgreen" stroke="darkgreen" points="561.16,-181.99 550.6,-182.84 559.39,-188.76 561.16,-181.99"/>
</g>
<!-- Node25 -->
<g id="node25" class="node">
<title>Node25</title>
<g id="a_node25"><a xlink:href="classPerfGraphInterface.html" target="_top" xlink:title="Interface for objects interacting with the PerfGraph.">
<polygon fill="white" stroke="#666666" points="555,-149 430,-149 430,-130 555,-130 555,-149"/>
<text text-anchor="middle" x="492.5" y="-137" font-family="Courier,monospace" font-size="10.00">PerfGraphInterface</text>
</a>
</g>
</g>
<!-- Node25&#45;&gt;Node5 -->
<g id="edge24" class="edge">
<title>Node25&#45;&gt;Node5</title>
<path fill="none" stroke="darkgreen" d="M566,-148.86C572.73,-151.38 579.19,-154.54 585,-158.5 609.15,-174.95 603.84,-189.86 621,-213.5 654.4,-259.51 698.05,-311.52 716.11,-332.72"/>
<polygon fill="darkgreen" stroke="darkgreen" points="567.3,-145.6 556.71,-145.86 565.15,-152.26 567.3,-145.6"/>
</g>
<!-- Node26 -->
<g id="node26" class="node">
<title>Node26</title>
<g id="a_node26"><a xlink:href="classDependencyResolverInterface.html" target="_top" xlink:title="Interface for sorting dependent vectors of objects.">
<polygon fill="white" stroke="#666666" points="582,-112 403,-112 403,-93 582,-93 582,-112"/>
<text text-anchor="middle" x="492.5" y="-100" font-family="Courier,monospace" font-size="10.00">DependencyResolverInterface</text>
</a>
</g>
</g>
<!-- Node26&#45;&gt;Node5 -->
<g id="edge25" class="edge">
<title>Node26&#45;&gt;Node5</title>
<path fill="none" stroke="#63b8ff" d="M580.35,-117.95C581.96,-119.06 583.51,-120.24 585,-121.5 618.55,-149.83 599.01,-175.5 621,-213.5 649.19,-262.21 694.88,-311.95 714.75,-332.59"/>
<polygon fill="#63b8ff" stroke="#63b8ff" points="582.36,-115.07 571.95,-113.1 578.86,-121.13 582.36,-115.07"/>
</g>
<!-- Node27 -->
<g id="node27" class="node">
<title>Node27</title>
<g id="a_node27"><a xlink:href="classBoundaryRestrictableRequired.html" target="_top" xlink:title="A class for requiring an object to be boundary restricted.">
<polygon fill="white" stroke="#666666" points="818,-204 633,-204 633,-185 818,-185 818,-204"/>
<text text-anchor="middle" x="725.5" y="-192" font-family="Courier,monospace" font-size="10.00">BoundaryRestrictableRequired</text>
</a>
</g>
</g>
<!-- Node27&#45;&gt;Node4 -->
<g id="edge26" class="edge">
<title>Node27&#45;&gt;Node4</title>
<path fill="none" stroke="#63b8ff" d="M815.39,-181.52C820.39,-180.03 825.29,-178.36 830,-176.5 858.88,-165.1 888.23,-143.12 903.91,-130.35"/>
<polygon fill="#63b8ff" stroke="#63b8ff" points="814.51,-178.13 805.78,-184.13 816.35,-184.89 814.51,-178.13"/>
</g>
<!-- Node28 -->
<g id="node28" class="node">
<title>Node28</title>
<g id="a_node28"><a xlink:href="classBoundaryRestrictable.html" target="_top" xlink:title="/class BoundaryRestrictable /brief Provides functionality for limiting the object to certain boundary...">
<polygon fill="white" stroke="#666666" points="561,-75 424,-75 424,-56 561,-56 561,-75"/>
<text text-anchor="middle" x="492.5" y="-63" font-family="Courier,monospace" font-size="10.00">BoundaryRestrictable</text>
</a>
</g>
</g>
<!-- Node28&#45;&gt;Node27 -->
<g id="edge27" class="edge">
<title>Node28&#45;&gt;Node27</title>
<path fill="none" stroke="#63b8ff" d="M571.41,-75.72C576.28,-78.12 580.88,-81.02 585,-84.5 618.55,-112.83 587,-148.72 621,-176.5 624.81,-179.62 628.97,-182.27 633.37,-184.54"/>
<polygon fill="#63b8ff" stroke="#63b8ff" points="573.05,-72.61 562.47,-72.02 570.37,-79.07 573.05,-72.61"/>
</g>
<!-- Node29 -->
<g id="node29" class="node">
<title>Node29</title>
<g id="a_node29"><a xlink:href="classMaterialPropertyInterface.html" target="_top" xlink:title="An interface for accessing Materials.">
<polygon fill="white" stroke="#666666" points="809,-167 642,-167 642,-148 809,-148 809,-167"/>
<text text-anchor="middle" x="725.5" y="-155" font-family="Courier,monospace" font-size="10.00">MaterialPropertyInterface</text>
</a>
</g>
</g>
<!-- Node29&#45;&gt;Node4 -->
<g id="edge28" class="edge">
<title>Node29&#45;&gt;Node4</title>
<path fill="none" stroke="#63b8ff" d="M797.91,-145.53C808.68,-143.59 819.64,-141.55 830,-139.5 843.87,-136.75 858.95,-133.5 872.52,-130.46"/>
<polygon fill="#63b8ff" stroke="#63b8ff" points="797.51,-142.04 788.28,-147.24 798.74,-148.94 797.51,-142.04"/>
</g>
<!-- Node30 -->
<g id="node30" class="node">
<title>Node30</title>
<g id="a_node30"><a xlink:href="classCoupleable.html" target="_top" xlink:title="Interface for objects that needs coupling capabilities.">
<polygon fill="white" stroke="#666666" points="764,-130 687,-130 687,-111 764,-111 764,-130"/>
<text text-anchor="middle" x="725.5" y="-118" font-family="Courier,monospace" font-size="10.00">Coupleable</text>
</a>
</g>
</g>
<!-- Node30&#45;&gt;Node4 -->
<g id="edge29" class="edge">
<title>Node30&#45;&gt;Node4</title>
<path fill="none" stroke="#63b8ff" d="M775.69,-120.5C803.36,-120.5 837.81,-120.5 865.59,-120.5"/>
<polygon fill="#63b8ff" stroke="#63b8ff" points="775.81,-117 765.81,-120.5 775.81,-124 775.81,-117"/>
</g>
<!-- Node31 -->
<g id="node31" class="node">
<title>Node31</title>
<g id="a_node31"><a xlink:href="classMooseVariableDependencyInterface.html" target="_top" xlink:title=" ">
<polygon fill="white" stroke="#666666" points="830,-93 621,-93 621,-74 830,-74 830,-93"/>
<text text-anchor="middle" x="725.5" y="-81" font-family="Courier,monospace" font-size="10.00">MooseVariableDependencyInterface</text>
</a>
</g>
</g>
<!-- Node31&#45;&gt;Node4 -->
<g id="edge30" class="edge">
<title>Node31&#45;&gt;Node4</title>
<path fill="none" stroke="#63b8ff" d="M793.45,-95.53C805.62,-97.79 818.2,-100.17 830,-102.5 842.8,-105.02 856.65,-107.88 869.4,-110.57"/>
<polygon fill="#63b8ff" stroke="#63b8ff" points="794.37,-92.14 783.9,-93.76 793.1,-99.02 794.37,-92.14"/>
</g>
<!-- Node32 -->
<g id="node32" class="node">
<title>Node32</title>
<g id="a_node32"><a xlink:href="classTransientInterface.html" target="_top" xlink:title="Interface for objects that needs transient capabilities.">
<polygon fill="white" stroke="#666666" points="788,-56 663,-56 663,-37 788,-37 788,-56"/>
<text text-anchor="middle" x="725.5" y="-44" font-family="Courier,monospace" font-size="10.00">TransientInterface</text>
</a>
</g>
</g>
<!-- Node32&#45;&gt;Node4 -->
<g id="edge31" class="edge">
<title>Node32&#45;&gt;Node4</title>
<path fill="none" stroke="#63b8ff" d="M799.59,-56.21C809.98,-58.65 820.39,-61.7 830,-65.5 858.56,-76.79 887.79,-98.14 903.59,-110.66"/>
<polygon fill="#63b8ff" stroke="#63b8ff" points="800.35,-52.79 789.83,-54.11 798.87,-59.64 800.35,-52.79"/>
</g>
<!-- Node33 -->
<g id="node33" class="node">
<title>Node33</title>
<g id="a_node33"><a xlink:href="classElementIDInterface.html" target="_top" xlink:title=" ">
<polygon fill="white" stroke="#666666" points="788,-19 663,-19 663,0 788,0 788,-19"/>
<text text-anchor="middle" x="725.5" y="-7" font-family="Courier,monospace" font-size="10.00">ElementIDInterface</text>
</a>
</g>
</g>
<!-- Node33&#45;&gt;Node4 -->
<g id="edge32" class="edge">
<title>Node33&#45;&gt;Node4</title>
<path fill="none" stroke="#63b8ff" d="M799.45,-16.78C810.09,-19.56 820.61,-23.35 830,-28.5 867.09,-48.85 897.06,-91.19 909.41,-110.51"/>
<polygon fill="#63b8ff" stroke="#63b8ff" points="800.37,-13.4 789.84,-14.57 798.81,-20.22 800.37,-13.4"/>
</g>
</g>
</svg>
