<?xml version="1.0" encoding="UTF-8" standalone="no"?>
<!DOCTYPE svg PUBLIC "-//W3C//DTD SVG 1.1//EN"
 "http://www.w3.org/Graphics/SVG/1.1/DTD/svg11.dtd">
<!-- Generated by graphviz version 7.0.5 (20221223.1930)
 -->
<!-- Title: MeshDivisionFunctorReductionVectorPostprocessor Pages: 1 -->
<!--zoomable 656 -->
<svg id="main" version="1.1" xmlns="http://www.w3.org/2000/svg" xmlns:xlink="http://www.w3.org/1999/xlink" xml:space="preserve" onload="init(evt)">
<style type="text/css"><![CDATA[
.edge:hover path { stroke: red; }
.edge:hover polygon { stroke: red; fill: red; }
]]></style>
<script type="text/javascript"><![CDATA[
var edges = document.getElementsByTagName('g');
if (edges && edges.length) {
  for (var i=0;i<edges.length;i++) {
    if (edges[i].id.substr(0,4)=='edge') {
      edges[i].setAttribute('class','edge');
    }
  }
}
]]></script>
        <defs>
                <circle id="rim" cx="0" cy="0" r="7"/>
                <circle id="rim2" cx="0" cy="0" r="3.5"/>
                <g id="zoomPlus">
                        <use xlink:href="#rim" fill="#404040">
                                <set attributeName="fill" to="#808080" begin="zoomplus.mouseover" end="zoomplus.mouseout"/>
                        </use>
                        <path d="M-4,0h8M0,-4v8" fill="none" stroke="white" stroke-width="1.5" pointer-events="none"/>
                </g>
                <g id="zoomMin">
                        <use xlink:href="#rim" fill="#404040">
                                <set attributeName="fill" to="#808080" begin="zoomminus.mouseover" end="zoomminus.mouseout"/>
                        </use>
                        <path d="M-4,0h8" fill="none" stroke="white" stroke-width="1.5" pointer-events="none"/>
                </g>
                <g id="dirArrow">
                        <path fill="none" stroke="white" stroke-width="1.5" d="M0,-3.0v7 M-2.5,-0.5L0,-3.0L2.5,-0.5"/>
                </g>
               <g id="resetDef">
                       <use xlink:href="#rim2" fill="#404040">
                               <set attributeName="fill" to="#808080" begin="reset.mouseover" end="reset.mouseout"/>
                       </use>
               </g>
        </defs>

<script type="text/javascript">
var viewWidth = 1435;
var viewHeight = 656;
var sectionId = 'dynsection-0';
</script>
<script xlink:href="svgpan.js"/>
<svg id="graph" class="graph">
<g id="viewport">
<title>MeshDivisionFunctorReductionVectorPostprocessor</title>
<!-- Node1 -->
<g id="node1" class="node">
<title>Node1</title>
<g id="a_node1"><a xlink:title="This MeshDivisionFunctorReductionVectorPostprocessor serves to integrate functors based on the index ...">
<polygon fill="#999999" stroke="#666666" points="1427,-60.5 1242,-60.5 1242,-30.5 1427,-30.5 1427,-60.5"/>
<text text-anchor="start" x="1250" y="-48.5" font-family="Courier,monospace" font-size="10.00">MeshDivisionFunctorReduction</text>
<text text-anchor="middle" x="1334.5" y="-37.5" font-family="Courier,monospace" font-size="10.00">VectorPostprocessor</text>
</a>
</g>
</g>
<!-- Node2 -->
<g id="node2" class="node">
<title>Node2</title>
<g id="a_node2"><a xlink:href="classElementVectorPostprocessor.html" target="_top" xlink:title=" ">
<polygon fill="white" stroke="#666666" points="1206,-74 1033,-74 1033,-55 1206,-55 1206,-74"/>
<text text-anchor="middle" x="1119.5" y="-62" font-family="Courier,monospace" font-size="10.00">ElementVectorPostprocessor</text>
</a>
</g>
</g>
<!-- Node2&#45;&gt;Node1 -->
<g id="edge1" class="edge">
<title>Node2&#45;&gt;Node1</title>
<path fill="none" stroke="#63b8ff" d="M1217.52,-55.85C1225.57,-55.13 1233.69,-54.4 1241.69,-53.69"/>
<polygon fill="#63b8ff" stroke="#63b8ff" points="1217.37,-52.34 1207.72,-56.72 1217.99,-59.32 1217.37,-52.34"/>
</g>
<!-- Node3 -->
<g id="node3" class="node">
<title>Node3</title>
<g id="a_node3"><a xlink:href="classElementUserObject.html" target="_top" xlink:title=" ">
<polygon fill="white" stroke="#666666" points="991,-167 872,-167 872,-148 991,-148 991,-167"/>
<text text-anchor="middle" x="931.5" y="-155" font-family="Courier,monospace" font-size="10.00">ElementUserObject</text>
</a>
</g>
</g>
<!-- Node3&#45;&gt;Node2 -->
<g id="edge2" class="edge">
<title>Node3&#45;&gt;Node2</title>
<path fill="none" stroke="#63b8ff" d="M962.45,-142.52C1000.78,-123.36 1066.11,-90.69 1098.74,-74.38"/>
<polygon fill="#63b8ff" stroke="#63b8ff" points="961.14,-139.27 953.76,-146.87 964.27,-145.53 961.14,-139.27"/>
</g>
<!-- Node4 -->
<g id="node4" class="node">
<title>Node4</title>
<g id="a_node4"><a xlink:href="classUserObject.html" target="_top" xlink:title="Base class for user&#45;specific data.">
<polygon fill="white" stroke="#666666" points="764,-315 687,-315 687,-296 764,-296 764,-315"/>
<text text-anchor="middle" x="725.5" y="-303" font-family="Courier,monospace" font-size="10.00">UserObject</text>
</a>
</g>
</g>
<!-- Node4&#45;&gt;Node3 -->
<g id="edge3" class="edge">
<title>Node4&#45;&gt;Node3</title>
<path fill="none" stroke="#63b8ff" d="M775.53,-304.34C793.68,-302.08 813.78,-297.28 830,-287.5 880.09,-257.31 914.4,-192.11 926.09,-167.33"/>
<polygon fill="#63b8ff" stroke="#63b8ff" points="775.35,-300.85 765.74,-305.32 776.04,-307.81 775.35,-300.85"/>
</g>
<!-- Node5 -->
<g id="node5" class="node">
<title>Node5</title>
<g id="a_node5"><a xlink:href="classMooseObject.html" target="_top" xlink:title="Every object that can be built by the factory should be derived from this class.">
<polygon fill="white" stroke="#666666" points="534,-574 451,-574 451,-555 534,-555 534,-574"/>
<text text-anchor="middle" x="492.5" y="-562" font-family="Courier,monospace" font-size="10.00">MooseObject</text>
</a>
</g>
</g>
<!-- Node5&#45;&gt;Node4 -->
<g id="edge4" class="edge">
<title>Node5&#45;&gt;Node4</title>
<path fill="none" stroke="#63b8ff" d="M545.21,-562.08C559.11,-559.45 573.46,-554.74 585,-546.5 671.16,-484.97 711.99,-352.34 722,-315.29"/>
<polygon fill="#63b8ff" stroke="#63b8ff" points="545.08,-558.56 535.73,-563.54 546.15,-565.48 545.08,-558.56"/>
</g>
<!-- Node6 -->
<g id="node6" class="node">
<title>Node6</title>
<g id="a_node6"><a xlink:href="classMooseBase.html" target="_top" xlink:title="Base class for everything in MOOSE with a name and a type.">
<polygon fill="white" stroke="#666666" points="310,-648 239,-648 239,-629 310,-629 310,-648"/>
<text text-anchor="middle" x="274.5" y="-636" font-family="Courier,monospace" font-size="10.00">MooseBase</text>
</a>
</g>
</g>
<!-- Node6&#45;&gt;Node5 -->
<g id="edge5" class="edge">
<title>Node6&#45;&gt;Node5</title>
<path fill="none" stroke="#63b8ff" d="M321.62,-631.05C335.41,-628.31 350.46,-624.8 364,-620.5 403.87,-607.85 448.08,-586.72 472.56,-574.35"/>
<polygon fill="#63b8ff" stroke="#63b8ff" points="321.06,-627.59 311.89,-632.89 322.36,-634.47 321.06,-627.59"/>
</g>
<!-- Node7 -->
<g id="node7" class="node">
<title>Node7</title>
<g id="a_node7"><a xlink:href="classMooseBaseParameterInterface.html" target="_top" xlink:title="Every object that can be built by the factory should be derived from this class.">
<polygon fill="white" stroke="#666666" points="364,-611 185,-611 185,-592 364,-592 364,-611"/>
<text text-anchor="middle" x="274.5" y="-599" font-family="Courier,monospace" font-size="10.00">MooseBaseParameterInterface</text>
</a>
</g>
</g>
<!-- Node7&#45;&gt;Node5 -->
<g id="edge6" class="edge">
<title>Node7&#45;&gt;Node5</title>
<path fill="none" stroke="#63b8ff" d="M344.77,-589.63C379.7,-583.65 420.85,-576.6 450.68,-571.49"/>
<polygon fill="#63b8ff" stroke="#63b8ff" points="344.43,-586.14 335.16,-591.28 345.61,-593.04 344.43,-586.14"/>
</g>
<!-- Node8 -->
<g id="node8" class="node">
<title>Node8</title>
<g id="a_node8"><a xlink:href="classMooseBaseErrorInterface.html" target="_top" xlink:title="Interface that provides APIs to output errors/warnings/info messages.">
<polygon fill="white" stroke="#666666" points="352,-574 197,-574 197,-555 352,-555 352,-574"/>
<text text-anchor="middle" x="274.5" y="-562" font-family="Courier,monospace" font-size="10.00">MooseBaseErrorInterface</text>
</a>
</g>
</g>
<!-- Node8&#45;&gt;Node5 -->
<g id="edge7" class="edge">
<title>Node8&#45;&gt;Node5</title>
<path fill="none" stroke="#63b8ff" d="M363.7,-564.5C393.87,-564.5 426.17,-564.5 450.75,-564.5"/>
<polygon fill="#63b8ff" stroke="#63b8ff" points="363.78,-561 353.78,-564.5 363.78,-568 363.78,-561"/>
</g>
<!-- Node9 -->
<g id="node9" class="node">
<title>Node9</title>
<g id="a_node9"><a xlink:href="classConsoleStreamInterface.html" target="_top" xlink:title="An inteface for the _console for outputting to the Console object.">
<polygon fill="white" stroke="#666666" points="149,-574 0,-574 0,-555 149,-555 149,-574"/>
<text text-anchor="middle" x="74.5" y="-562" font-family="Courier,monospace" font-size="10.00">ConsoleStreamInterface</text>
</a>
</g>
</g>
<!-- Node9&#45;&gt;Node8 -->
<g id="edge8" class="edge">
<title>Node9&#45;&gt;Node8</title>
<path fill="none" stroke="#63b8ff" d="M160.62,-564.5C172.62,-564.5 184.9,-564.5 196.73,-564.5"/>
<polygon fill="#63b8ff" stroke="#63b8ff" points="160.74,-561 150.74,-564.5 160.74,-568 160.74,-561"/>
</g>
<!-- Node10 -->
<g id="node10" class="node">
<title>Node10</title>
<g id="a_node10"><a xlink:title=" ">
<polygon fill="white" stroke="#666666" points="352,-537 197,-537 197,-518 352,-518 352,-537"/>
<text text-anchor="middle" x="274.5" y="-525" font-family="Courier,monospace" font-size="10.00">libMesh::ParallelObject</text>
</a>
</g>
</g>
<!-- Node10&#45;&gt;Node5 -->
<g id="edge9" class="edge">
<title>Node10&#45;&gt;Node5</title>
<path fill="none" stroke="#63b8ff" d="M344.77,-539.37C379.7,-545.35 420.85,-552.4 450.68,-557.51"/>
<polygon fill="#63b8ff" stroke="#63b8ff" points="345.61,-535.96 335.16,-537.72 344.43,-542.86 345.61,-535.96"/>
</g>
<!-- Node11 -->
<g id="node11" class="node">
<title>Node11</title>
<g id="a_node11"><a xlink:href="classDataFileInterface.html" target="_top" xlink:title=" ">
<polygon fill="white" stroke="#666666" points="337,-499.5 212,-499.5 212,-469.5 337,-469.5 337,-499.5"/>
<text text-anchor="start" x="220" y="-487.5" font-family="Courier,monospace" font-size="10.00">DataFileInterface&lt;</text>
<text text-anchor="middle" x="274.5" y="-476.5" font-family="Courier,monospace" font-size="10.00"> MooseObject &gt;</text>
</a>
</g>
</g>
<!-- Node11&#45;&gt;Node5 -->
<g id="edge10" class="edge">
<title>Node11&#45;&gt;Node5</title>
<path fill="none" stroke="#63b8ff" d="M347.62,-501.35C353.32,-503.73 358.86,-506.44 364,-509.5 383.71,-521.24 379.83,-535.57 400,-546.5 415.37,-554.83 434.06,-559.34 450.53,-561.76"/>
<polygon fill="#63b8ff" stroke="#63b8ff" points="349.23,-498.22 338.64,-497.94 346.74,-504.76 349.23,-498.22"/>
</g>
<!-- Node12 -->
<g id="node12" class="node">
<title>Node12</title>
<g id="a_node12"><a xlink:href="classSetupInterface.html" target="_top" xlink:title=" ">
<polygon fill="white" stroke="#666666" points="543,-537 442,-537 442,-518 543,-518 543,-537"/>
<text text-anchor="middle" x="492.5" y="-525" font-family="Courier,monospace" font-size="10.00">SetupInterface</text>
</a>
</g>
</g>
<!-- Node12&#45;&gt;Node4 -->
<g id="edge11" class="edge">
<title>Node12&#45;&gt;Node4</title>
<path fill="none" stroke="#63b8ff" d="M554.41,-522.38C565.19,-519.61 575.87,-515.52 585,-509.5 662.39,-458.51 708.5,-348.33 721.01,-315.15"/>
<polygon fill="#63b8ff" stroke="#63b8ff" points="553.71,-518.95 544.68,-524.49 555.2,-525.79 553.71,-518.95"/>
</g>
<!-- Node13 -->
<g id="node13" class="node">
<title>Node13</title>
<g id="a_node13"><a xlink:href="classFunctionInterface.html" target="_top" xlink:title="Interface for objects that need to use functions.">
<polygon fill="white" stroke="#666666" points="552,-500 433,-500 433,-481 552,-481 552,-500"/>
<text text-anchor="middle" x="492.5" y="-488" font-family="Courier,monospace" font-size="10.00">FunctionInterface</text>
</a>
</g>
</g>
<!-- Node13&#45;&gt;Node4 -->
<g id="edge12" class="edge">
<title>Node13&#45;&gt;Node4</title>
<path fill="none" stroke="darkgreen" d="M563.19,-482.04C570.84,-479.6 578.28,-476.48 585,-472.5 653.59,-431.89 703.88,-344.77 719.44,-315.4"/>
<polygon fill="darkgreen" stroke="darkgreen" points="562.45,-478.61 553.75,-484.66 564.32,-485.36 562.45,-478.61"/>
</g>
<!-- Node14 -->
<g id="node14" class="node">
<title>Node14</title>
<g id="a_node14"><a xlink:href="classUserObjectInterface.html" target="_top" xlink:title="Interface for objects that need to use UserObjects.">
<polygon fill="white" stroke="#666666" points="558,-463 427,-463 427,-444 558,-444 558,-463"/>
<text text-anchor="middle" x="492.5" y="-451" font-family="Courier,monospace" font-size="10.00">UserObjectInterface</text>
</a>
</g>
</g>
<!-- Node14&#45;&gt;Node4 -->
<g id="edge13" class="edge">
<title>Node14&#45;&gt;Node4</title>
<path fill="none" stroke="#63b8ff" d="M568.89,-442.24C574.47,-440.33 579.9,-438.1 585,-435.5 645.44,-404.63 698.54,-339.84 717.29,-315.25"/>
<polygon fill="#63b8ff" stroke="#63b8ff" points="568.04,-438.84 559.48,-445.08 570.06,-445.54 568.04,-438.84"/>
</g>
<!-- Node15 -->
<g id="node15" class="node">
<title>Node15</title>
<g id="a_node15"><a xlink:href="classPostprocessorInterface.html" target="_top" xlink:title="Interface class for classes which interact with Postprocessors.">
<polygon fill="white" stroke="#666666" points="567,-426 418,-426 418,-407 567,-407 567,-426"/>
<text text-anchor="middle" x="492.5" y="-414" font-family="Courier,monospace" font-size="10.00">PostprocessorInterface</text>
</a>
</g>
</g>
<!-- Node15&#45;&gt;Node4 -->
<g id="edge14" class="edge">
<title>Node15&#45;&gt;Node4</title>
<path fill="none" stroke="darkgreen" d="M571.39,-403.4C576.05,-401.93 580.62,-400.31 585,-398.5 637.2,-376.97 690.4,-334.66 713.1,-315.43"/>
<polygon fill="darkgreen" stroke="darkgreen" points="570.49,-400.02 561.84,-406.13 572.41,-406.75 570.49,-400.02"/>
</g>
<!-- Node16 -->
<g id="node16" class="node">
<title>Node16</title>
<g id="a_node16"><a xlink:href="classVectorPostprocessorInterface.html" target="_top" xlink:title=" ">
<polygon fill="white" stroke="#666666" points="585,-389 400,-389 400,-370 585,-370 585,-389"/>
<text text-anchor="middle" x="492.5" y="-377" font-family="Courier,monospace" font-size="10.00">VectorPostprocessorInterface</text>
</a>
</g>
</g>
<!-- Node16&#45;&gt;Node4 -->
<g id="edge15" class="edge">
<title>Node16&#45;&gt;Node4</title>
<path fill="none" stroke="darkgreen" d="M563.53,-367.13C570.82,-365.42 578.09,-363.55 585,-361.5 628.29,-348.68 676.78,-327.61 703.67,-315.3"/>
<polygon fill="darkgreen" stroke="darkgreen" points="562.95,-363.67 553.95,-369.26 564.47,-370.51 562.95,-363.67"/>
</g>
<!-- Node17 -->
<g id="node17" class="node">
<title>Node17</title>
<g id="a_node17"><a xlink:href="classReporterInterface.html" target="_top" xlink:title="Interface to allow object to consume Reporter values.">
<polygon fill="white" stroke="#666666" points="552,-352 433,-352 433,-333 552,-333 552,-352"/>
<text text-anchor="middle" x="492.5" y="-340" font-family="Courier,monospace" font-size="10.00">ReporterInterface</text>
</a>
</g>
</g>
<!-- Node17&#45;&gt;Node4 -->
<g id="edge16" class="edge">
<title>Node17&#45;&gt;Node4</title>
<path fill="none" stroke="darkgreen" d="M563.56,-331.28C604.05,-324.79 653.42,-316.89 686.71,-311.55"/>
<polygon fill="darkgreen" stroke="darkgreen" points="563.2,-327.79 553.88,-332.83 564.31,-334.7 563.2,-327.79"/>
</g>
<!-- Node18 -->
<g id="node18" class="node">
<title>Node18</title>
<g id="a_node18"><a xlink:href="classDistributionInterface.html" target="_top" xlink:title="Interface for objects that need to use distributions.">
<polygon fill="white" stroke="#666666" points="564,-315 421,-315 421,-296 564,-296 564,-315"/>
<text text-anchor="middle" x="492.5" y="-303" font-family="Courier,monospace" font-size="10.00">DistributionInterface</text>
</a>
</g>
</g>
<!-- Node18&#45;&gt;Node4 -->
<g id="edge17" class="edge">
<title>Node18&#45;&gt;Node4</title>
<path fill="none" stroke="darkgreen" d="M575.43,-305.5C613.35,-305.5 656.56,-305.5 686.65,-305.5"/>
<polygon fill="darkgreen" stroke="darkgreen" points="575.89,-302 565.89,-305.5 575.89,-309 575.89,-302"/>
</g>
<!-- Node19 -->
<g id="node19" class="node">
<title>Node19</title>
<g id="a_node19"><a xlink:href="classSamplerInterface.html" target="_top" xlink:title="Interface for objects that need to use samplers.">
<polygon fill="white" stroke="#666666" points="549,-278 436,-278 436,-259 549,-259 549,-278"/>
<text text-anchor="middle" x="492.5" y="-266" font-family="Courier,monospace" font-size="10.00">SamplerInterface</text>
</a>
</g>
</g>
<!-- Node19&#45;&gt;Node4 -->
<g id="edge18" class="edge">
<title>Node19&#45;&gt;Node4</title>
<path fill="none" stroke="darkgreen" d="M560.71,-279.26C601.74,-285.84 652.7,-294 686.78,-299.46"/>
<polygon fill="darkgreen" stroke="darkgreen" points="561.34,-275.82 550.91,-277.7 560.23,-282.73 561.34,-275.82"/>
</g>
<!-- Node20 -->
<g id="node20" class="node">
<title>Node20</title>
<g id="a_node20"><a xlink:href="classRestartable.html" target="_top" xlink:title="A class for creating restricted objects.">
<polygon fill="white" stroke="#666666" points="534,-241 451,-241 451,-222 534,-222 534,-241"/>
<text text-anchor="middle" x="492.5" y="-229" font-family="Courier,monospace" font-size="10.00">Restartable</text>
</a>
</g>
</g>
<!-- Node20&#45;&gt;Node4 -->
<g id="edge19" class="edge">
<title>Node20&#45;&gt;Node4</title>
<path fill="none" stroke="darkgreen" d="M545.55,-236.79C558.97,-239.61 573,-243.91 585,-250.5 605.11,-261.54 600.71,-276.79 621,-287.5 641.16,-298.14 666.31,-302.68 686.77,-304.54"/>
<polygon fill="darkgreen" stroke="darkgreen" points="546.44,-233.39 535.97,-235.03 545.18,-240.28 546.44,-233.39"/>
</g>
<!-- Node21 -->
<g id="node21" class="node">
<title>Node21</title>
<g id="a_node21"><a xlink:href="classMeshMetaDataInterface.html" target="_top" xlink:title="The Interface used to retrieve mesh meta data (attributes) set by the MeshGenerator system.">
<polygon fill="white" stroke="#666666" points="564,-204 421,-204 421,-185 564,-185 564,-204"/>
<text text-anchor="middle" x="492.5" y="-192" font-family="Courier,monospace" font-size="10.00">MeshMetaDataInterface</text>
</a>
</g>
</g>
<!-- Node21&#45;&gt;Node4 -->
<g id="edge20" class="edge">
<title>Node21&#45;&gt;Node4</title>
<path fill="none" stroke="darkgreen" d="M574.84,-206.96C578.42,-208.87 581.83,-211.03 585,-213.5 613.86,-235.96 591.78,-265.51 621,-287.5 639.65,-301.54 665.53,-306.04 686.74,-307.03"/>
<polygon fill="darkgreen" stroke="darkgreen" points="576.32,-203.79 565.77,-202.89 573.46,-210.18 576.32,-203.79"/>
</g>
<!-- Node22 -->
<g id="node22" class="node">
<title>Node22</title>
<g id="a_node22"><a xlink:href="classMeshChangedInterface.html" target="_top" xlink:title="Interface for notifications that the mesh has changed.">
<polygon fill="white" stroke="#666666" points="561,-167 424,-167 424,-148 561,-148 561,-167"/>
<text text-anchor="middle" x="492.5" y="-155" font-family="Courier,monospace" font-size="10.00">MeshChangedInterface</text>
</a>
</g>
</g>
<!-- Node22&#45;&gt;Node4 -->
<g id="edge21" class="edge">
<title>Node22&#45;&gt;Node4</title>
<path fill="none" stroke="darkgreen" d="M571.65,-167.44C576.47,-169.91 580.98,-172.9 585,-176.5 623.61,-211.12 581.83,-253.51 621,-287.5 638.84,-302.98 665.12,-307.4 686.73,-308"/>
<polygon fill="darkgreen" stroke="darkgreen" points="573.36,-164.37 562.79,-163.66 570.61,-170.8 573.36,-164.37"/>
</g>
<!-- Node23 -->
<g id="node23" class="node">
<title>Node23</title>
<g id="a_node23"><a xlink:href="classScalarCoupleable.html" target="_top" xlink:title="Interface for objects that needs scalar coupling capabilities.">
<polygon fill="white" stroke="#666666" points="549,-130 436,-130 436,-111 549,-111 549,-130"/>
<text text-anchor="middle" x="492.5" y="-118" font-family="Courier,monospace" font-size="10.00">ScalarCoupleable</text>
</a>
</g>
</g>
<!-- Node23&#45;&gt;Node4 -->
<g id="edge22" class="edge">
<title>Node23&#45;&gt;Node4</title>
<path fill="none" stroke="darkgreen" d="M560.13,-125.01C569.36,-128.15 578.04,-132.77 585,-139.5 633.67,-186.55 571.57,-241.25 621,-287.5 638.31,-303.7 664.73,-308.09 686.54,-308.48"/>
<polygon fill="darkgreen" stroke="darkgreen" points="561.15,-121.66 550.58,-122.38 559.29,-128.41 561.15,-121.66"/>
</g>
<!-- Node24 -->
<g id="node24" class="node">
<title>Node24</title>
<g id="a_node24"><a xlink:href="classPerfGraphInterface.html" target="_top" xlink:title="Interface for objects interacting with the PerfGraph.">
<polygon fill="white" stroke="#666666" points="555,-93 430,-93 430,-74 555,-74 555,-93"/>
<text text-anchor="middle" x="492.5" y="-81" font-family="Courier,monospace" font-size="10.00">PerfGraphInterface</text>
</a>
</g>
</g>
<!-- Node24&#45;&gt;Node4 -->
<g id="edge23" class="edge">
<title>Node24&#45;&gt;Node4</title>
<path fill="none" stroke="darkgreen" d="M565.85,-89.83C572.97,-92.88 579.56,-96.99 585,-102.5 643.86,-162.1 561.18,-228.86 621,-287.5 638,-304.16 664.56,-308.51 686.52,-308.78"/>
<polygon fill="darkgreen" stroke="darkgreen" points="567.13,-86.57 556.54,-86.58 564.83,-93.18 567.13,-86.57"/>
</g>
<!-- Node25 -->
<g id="node25" class="node">
<title>Node25</title>
<g id="a_node25"><a xlink:href="classDependencyResolverInterface.html" target="_top" xlink:title="Interface for sorting dependent vectors of objects.">
<polygon fill="white" stroke="#666666" points="582,-56 403,-56 403,-37 582,-37 582,-56"/>
<text text-anchor="middle" x="492.5" y="-44" font-family="Courier,monospace" font-size="10.00">DependencyResolverInterface</text>
</a>
</g>
</g>
<!-- Node25&#45;&gt;Node4 -->
<g id="edge24" class="edge">
<title>Node25&#45;&gt;Node4</title>
<path fill="none" stroke="#63b8ff" d="M582.3,-62.89C583.23,-63.72 584.13,-64.59 585,-65.5 654.11,-137.72 550.73,-216.42 621,-287.5 637.8,-304.49 664.51,-308.81 686.58,-308.97"/>
<polygon fill="#63b8ff" stroke="#63b8ff" points="584.62,-60.24 574.47,-57.2 580.5,-65.91 584.62,-60.24"/>
</g>
<!-- Node26 -->
<g id="node26" class="node">
<title>Node26</title>
<g id="a_node26"><a xlink:href="classBlockRestrictable.html" target="_top" xlink:title="An interface that restricts an object to subdomains via the &#39;blocks&#39; input parameter.">
<polygon fill="white" stroke="#666666" points="785,-278 666,-278 666,-259 785,-259 785,-278"/>
<text text-anchor="middle" x="725.5" y="-266" font-family="Courier,monospace" font-size="10.00">BlockRestrictable</text>
</a>
</g>
</g>
<!-- Node26&#45;&gt;Node3 -->
<g id="edge25" class="edge">
<title>Node26&#45;&gt;Node3</title>
<path fill="none" stroke="#63b8ff" d="M796.36,-262C807.96,-259.35 819.59,-255.65 830,-250.5 871.55,-229.94 908.11,-186.74 923.18,-167.32"/>
<polygon fill="#63b8ff" stroke="#63b8ff" points="795.88,-258.53 786.77,-263.94 797.27,-265.39 795.88,-258.53"/>
</g>
<!-- Node27 -->
<g id="node27" class="node">
<title>Node27</title>
<g id="a_node27"><a xlink:href="classMaterialPropertyInterface.html" target="_top" xlink:title="An interface for accessing Materials.">
<polygon fill="white" stroke="#666666" points="809,-241 642,-241 642,-222 809,-222 809,-241"/>
<text text-anchor="middle" x="725.5" y="-229" font-family="Courier,monospace" font-size="10.00">MaterialPropertyInterface</text>
</a>
</g>
</g>
<!-- Node27&#45;&gt;Node3 -->
<g id="edge26" class="edge">
<title>Node27&#45;&gt;Node3</title>
<path fill="none" stroke="#63b8ff" d="M812.47,-218.87C818.46,-217.28 824.36,-215.5 830,-213.5 862.76,-201.9 897.42,-180.2 916.26,-167.49"/>
<polygon fill="#63b8ff" stroke="#63b8ff" points="811.97,-215.39 803.09,-221.16 813.63,-222.19 811.97,-215.39"/>
</g>
<!-- Node28 -->
<g id="node28" class="node">
<title>Node28</title>
<g id="a_node28"><a xlink:href="classCoupleable.html" target="_top" xlink:title="Interface for objects that needs coupling capabilities.">
<polygon fill="white" stroke="#666666" points="764,-204 687,-204 687,-185 764,-185 764,-204"/>
<text text-anchor="middle" x="725.5" y="-192" font-family="Courier,monospace" font-size="10.00">Coupleable</text>
</a>
</g>
</g>
<!-- Node28&#45;&gt;Node3 -->
<g id="edge27" class="edge">
<title>Node28&#45;&gt;Node3</title>
<path fill="none" stroke="#63b8ff" d="M775.36,-186.15C792.63,-183.16 812.19,-179.73 830,-176.5 845.81,-173.63 863,-170.42 878.62,-167.46"/>
<polygon fill="#63b8ff" stroke="#63b8ff" points="775.13,-182.64 765.87,-187.79 776.32,-189.54 775.13,-182.64"/>
</g>
<!-- Node29 -->
<g id="node29" class="node">
<title>Node29</title>
<g id="a_node29"><a xlink:href="classMooseVariableDependencyInterface.html" target="_top" xlink:title=" ">
<polygon fill="white" stroke="#666666" points="830,-167 621,-167 621,-148 830,-148 830,-167"/>
<text text-anchor="middle" x="725.5" y="-155" font-family="Courier,monospace" font-size="10.00">MooseVariableDependencyInterface</text>
</a>
</g>
</g>
<!-- Node29&#45;&gt;Node3 -->
<g id="edge28" class="edge">
<title>Node29&#45;&gt;Node3</title>
<path fill="none" stroke="#63b8ff" d="M841.56,-157.5C851.89,-157.5 862.04,-157.5 871.58,-157.5"/>
<polygon fill="#63b8ff" stroke="#63b8ff" points="841.81,-154 831.81,-157.5 841.81,-161 841.81,-154"/>
</g>
<!-- Node30 -->
<g id="node30" class="node">
<title>Node30</title>
<g id="a_node30"><a xlink:href="classTransientInterface.html" target="_top" xlink:title="Interface for objects that needs transient capabilities.">
<polygon fill="white" stroke="#666666" points="788,-130 663,-130 663,-111 788,-111 788,-130"/>
<text text-anchor="middle" x="725.5" y="-118" font-family="Courier,monospace" font-size="10.00">TransientInterface</text>
</a>
</g>
</g>
<!-- Node30&#45;&gt;Node3 -->
<g id="edge29" class="edge">
<title>Node30&#45;&gt;Node3</title>
<path fill="none" stroke="#63b8ff" d="M792.65,-132.5C819.41,-137.35 849.95,-142.89 875.47,-147.52"/>
<polygon fill="#63b8ff" stroke="#63b8ff" points="793.39,-129.07 782.93,-130.73 792.14,-135.96 793.39,-129.07"/>
</g>
<!-- Node31 -->
<g id="node31" class="node">
<title>Node31</title>
<g id="a_node31"><a xlink:href="classRandomInterface.html" target="_top" xlink:title="Interface for objects that need parallel consistent random numbers without patterns over the course o...">
<polygon fill="white" stroke="#666666" points="779,-93 672,-93 672,-74 779,-74 779,-93"/>
<text text-anchor="middle" x="725.5" y="-81" font-family="Courier,monospace" font-size="10.00">RandomInterface</text>
</a>
</g>
</g>
<!-- Node31&#45;&gt;Node3 -->
<g id="edge30" class="edge">
<title>Node31&#45;&gt;Node3</title>
<path fill="none" stroke="#63b8ff" d="M790.47,-91.94C803.75,-94.61 817.49,-98.06 830,-102.5 862.43,-114.01 896.92,-135.08 915.88,-147.53"/>
<polygon fill="#63b8ff" stroke="#63b8ff" points="791.43,-88.56 780.96,-90.16 790.15,-95.44 791.43,-88.56"/>
</g>
<!-- Node32 -->
<g id="node32" class="node">
<title>Node32</title>
<g id="a_node32"><a xlink:href="classElementIDInterface.html" target="_top" xlink:title=" ">
<polygon fill="white" stroke="#666666" points="788,-56 663,-56 663,-37 788,-37 788,-56"/>
<text text-anchor="middle" x="725.5" y="-44" font-family="Courier,monospace" font-size="10.00">ElementIDInterface</text>
</a>
</g>
</g>
<!-- Node32&#45;&gt;Node3 -->
<g id="edge31" class="edge">
<title>Node32&#45;&gt;Node3</title>
<path fill="none" stroke="#63b8ff" d="M799.3,-54.51C809.92,-57.2 820.47,-60.76 830,-65.5 871.09,-85.93 907.62,-128.23 922.9,-147.52"/>
<polygon fill="#63b8ff" stroke="#63b8ff" points="800.25,-51.14 789.73,-52.36 798.72,-57.97 800.25,-51.14"/>
</g>
<!-- Node33 -->
<g id="node33" class="node">
<title>Node33</title>
<g id="a_node33"><a xlink:href="classVectorPostprocessor.html" target="_top" xlink:title="Base class for Postprocessors that produce a vector of values.">
<polygon fill="white" stroke="#666666" points="997,-74 866,-74 866,-55 997,-55 997,-74"/>
<text text-anchor="middle" x="931.5" y="-62" font-family="Courier,monospace" font-size="10.00">VectorPostprocessor</text>
</a>
</g>
</g>
<!-- Node33&#45;&gt;Node2 -->
<g id="edge32" class="edge">
<title>Node33&#45;&gt;Node2</title>
<path fill="none" stroke="#63b8ff" d="M1008.72,-64.5C1016.61,-64.5 1024.68,-64.5 1032.67,-64.5"/>
<polygon fill="#63b8ff" stroke="#63b8ff" points="1008.81,-61 998.81,-64.5 1008.81,-68 1008.81,-61"/>
</g>
<!-- Node34 -->
<g id="node34" class="node">
<title>Node34</title>
<g id="a_node34"><a xlink:href="classOutputInterface.html" target="_top" xlink:title="A class to provide an common interface to objects requiring &quot;outputs&quot; option.">
<polygon fill="white" stroke="#666666" points="779,-19 672,-19 672,0 779,0 779,-19"/>
<text text-anchor="middle" x="725.5" y="-7" font-family="Courier,monospace" font-size="10.00">OutputInterface</text>
</a>
</g>
</g>
<!-- Node34&#45;&gt;Node33 -->
<g id="edge33" class="edge">
<title>Node34&#45;&gt;Node33</title>
<path fill="none" stroke="#63b8ff" d="M790.35,-17.6C803.63,-20.12 817.41,-23.36 830,-27.5 846.99,-33.09 849.35,-38.95 866,-45.5 874.47,-48.84 883.77,-51.9 892.6,-54.55"/>
<polygon fill="#63b8ff" stroke="#63b8ff" points="791.3,-14.21 780.84,-15.91 790.08,-21.11 791.3,-14.21"/>
</g>
<!-- Node35 -->
<g id="node35" class="node">
<title>Node35</title>
<g id="a_node35"><a xlink:href="classNonADFunctorInterface.html" target="_top" xlink:title="An interface for accessing Moose::Functors for systems that do not care about automatic differentiati...">
<polygon fill="white" stroke="#666666" points="1191,-37 1048,-37 1048,-18 1191,-18 1191,-37"/>
<text text-anchor="middle" x="1119.5" y="-25" font-family="Courier,monospace" font-size="10.00">NonADFunctorInterface</text>
</a>
</g>
</g>
<!-- Node35&#45;&gt;Node1 -->
<g id="edge34" class="edge">
<title>Node35&#45;&gt;Node1</title>
<path fill="none" stroke="#63b8ff" d="M1202.53,-34.43C1215.34,-35.52 1228.65,-36.64 1241.66,-37.74"/>
<polygon fill="#63b8ff" stroke="#63b8ff" points="1203.19,-30.98 1192.93,-33.62 1202.6,-37.95 1203.19,-30.98"/>
</g>
<!-- Node36 -->
<g id="node36" class="node">
<title>Node36</title>
<g id="a_node36"><a xlink:href="classFunctorInterface.html" target="_top" xlink:title="An interface for accessing Moose::Functors.">
<polygon fill="white" stroke="#666666" points="988,-37 875,-37 875,-18 988,-18 988,-37"/>
<text text-anchor="middle" x="931.5" y="-25" font-family="Courier,monospace" font-size="10.00">FunctorInterface</text>
</a>
</g>
</g>
<!-- Node36&#45;&gt;Node35 -->
<g id="edge35" class="edge">
<title>Node36&#45;&gt;Node35</title>
<path fill="none" stroke="#63b8ff" d="M999.46,-27.5C1015.08,-27.5 1031.76,-27.5 1047.54,-27.5"/>
<polygon fill="#63b8ff" stroke="#63b8ff" points="999.82,-24 989.82,-27.5 999.82,-31 999.82,-24"/>
</g>
</g>
</svg>
        <g id="navigator" transform="translate(0 0)" fill="#404254">
                <rect fill="#f2f5e9" fill-opacity="0.5" stroke="#606060" stroke-width=".5" x="0" y="0" width="60" height="60"/>
                <use id="zoomplus" xlink:href="#zoomPlus" x="17" y="9" onmousedown="handleZoom(evt,'in')"/>
                <use id="zoomminus" xlink:href="#zoomMin" x="42" y="9" onmousedown="handleZoom(evt,'out')"/>
                <use id="reset" xlink:href="#resetDef" x="30" y="36" onmousedown="handleReset()"/>
                <g id="arrowUp" xlink:href="#dirArrow" transform="translate(30 24)" onmousedown="handlePan(0,-1)">
                  <use xlink:href="#rim" fill="#404040">
                        <set attributeName="fill" to="#808080" begin="arrowUp.mouseover" end="arrowUp.mouseout"/>
                  </use>
                  <path fill="none" stroke="white" stroke-width="1.5" d="M0,-3.0v7 M-2.5,-0.5L0,-3.0L2.5,-0.5"/>
                </g>
                <g id="arrowRight" xlink:href="#dirArrow" transform="rotate(90) translate(36 -43)" onmousedown="handlePan(1,0)">
                  <use xlink:href="#rim" fill="#404040">
                        <set attributeName="fill" to="#808080" begin="arrowRight.mouseover" end="arrowRight.mouseout"/>
                  </use>
                  <path fill="none" stroke="white" stroke-width="1.5" d="M0,-3.0v7 M-2.5,-0.5L0,-3.0L2.5,-0.5"/>
                </g>
                <g id="arrowDown" xlink:href="#dirArrow" transform="rotate(180) translate(-30 -48)" onmousedown="handlePan(0,1)">
                  <use xlink:href="#rim" fill="#404040">
                        <set attributeName="fill" to="#808080" begin="arrowDown.mouseover" end="arrowDown.mouseout"/>
                  </use>
                  <path fill="none" stroke="white" stroke-width="1.5" d="M0,-3.0v7 M-2.5,-0.5L0,-3.0L2.5,-0.5"/>
                </g>
                <g id="arrowLeft" xlink:href="#dirArrow" transform="rotate(270) translate(-36 17)" onmousedown="handlePan(-1,0)">
                  <use xlink:href="#rim" fill="#404040">
                        <set attributeName="fill" to="#808080" begin="arrowLeft.mouseover" end="arrowLeft.mouseout"/>
                  </use>
                  <path fill="none" stroke="white" stroke-width="1.5" d="M0,-3.0v7 M-2.5,-0.5L0,-3.0L2.5,-0.5"/>
                </g>
        </g>
        <svg viewBox="0 0 15 15" width="100%" height="30px" preserveAspectRatio="xMaxYMin meet">
         <g id="arrow_out" transform="scale(0.3 0.3)">
          <a xlink:href="classMeshDivisionFunctorReductionVectorPostprocessor__inherit__graph_org.svg" target="_base">
           <rect id="button" ry="5" rx="5" y="6" x="6" height="38" width="38"
                fill="#f2f5e9" fill-opacity="0.5" stroke="#606060" stroke-width="1.0"/>
           <path id="arrow"
             d="M 11.500037,31.436501 C 11.940474,20.09759 22.043105,11.32322 32.158766,21.979434 L 37.068811,17.246167 C 37.068811,17.246167 37.088388,32 37.088388,32 L 22.160133,31.978069 C 22.160133,31.978069 26.997745,27.140456 26.997745,27.140456 C 18.528582,18.264221 13.291696,25.230495 11.500037,31.436501 z"
             style="fill:#404040;"/>
          </a>
         </g>
        </svg>
</svg>
