<?xml version="1.0" encoding="UTF-8" standalone="no"?>
<!DOCTYPE svg PUBLIC "-//W3C//DTD SVG 1.1//EN"
 "http://www.w3.org/Graphics/SVG/1.1/DTD/svg11.dtd">
<!-- Generated by graphviz version 7.0.5 (20221223.1930)
 -->
<!-- Title: NodalBCBase Pages: 1 -->
<!--zoomable 785 -->
<svg id="main" version="1.1" xmlns="http://www.w3.org/2000/svg" xmlns:xlink="http://www.w3.org/1999/xlink" xml:space="preserve" onload="init(evt)">
<style type="text/css"><![CDATA[
.edge:hover path { stroke: red; }
.edge:hover polygon { stroke: red; fill: red; }
]]></style>
<script type="text/javascript"><![CDATA[
var edges = document.getElementsByTagName('g');
if (edges && edges.length) {
  for (var i=0;i<edges.length;i++) {
    if (edges[i].id.substr(0,4)=='edge') {
      edges[i].setAttribute('class','edge');
    }
  }
}
]]></script>
        <defs>
                <circle id="rim" cx="0" cy="0" r="7"/>
                <circle id="rim2" cx="0" cy="0" r="3.5"/>
                <g id="zoomPlus">
                        <use xlink:href="#rim" fill="#404040">
                                <set attributeName="fill" to="#808080" begin="zoomplus.mouseover" end="zoomplus.mouseout"/>
                        </use>
                        <path d="M-4,0h8M0,-4v8" fill="none" stroke="white" stroke-width="1.5" pointer-events="none"/>
                </g>
                <g id="zoomMin">
                        <use xlink:href="#rim" fill="#404040">
                                <set attributeName="fill" to="#808080" begin="zoomminus.mouseover" end="zoomminus.mouseout"/>
                        </use>
                        <path d="M-4,0h8" fill="none" stroke="white" stroke-width="1.5" pointer-events="none"/>
                </g>
                <g id="dirArrow">
                        <path fill="none" stroke="white" stroke-width="1.5" d="M0,-3.0v7 M-2.5,-0.5L0,-3.0L2.5,-0.5"/>
                </g>
               <g id="resetDef">
                       <use xlink:href="#rim2" fill="#404040">
                               <set attributeName="fill" to="#808080" begin="reset.mouseover" end="reset.mouseout"/>
                       </use>
               </g>
        </defs>

<script type="text/javascript">
var viewWidth = 1823;
var viewHeight = 785;
var sectionId = 'dynsection-0';
</script>
<script xlink:href="svgpan.js"/>
<svg id="graph" class="graph">
<g id="viewport">
<title>NodalBCBase</title>
<!-- Node1 -->
<g id="node1" class="node">
<title>Node1</title>
<g id="a_node1"><a xlink:title="Base class for deriving any boundary condition that works at nodes.">
<polygon fill="#999999" stroke="#666666" points="1200,-296 1117,-296 1117,-277 1200,-277 1200,-296"/>
<text text-anchor="middle" x="1158.5" y="-284" font-family="Courier,monospace" font-size="10.00">NodalBCBase</text>
</a>
</g>
</g>
<!-- Node29 -->
<g id="node29" class="node">
<title>Node29</title>
<g id="a_node29"><a xlink:href="classADDirichletBCBase.html" target="_top" xlink:title="Base class for automatic differentiation Dirichlet BCs.">
<polygon fill="white" stroke="#666666" points="1355,-456 1236,-456 1236,-437 1355,-437 1355,-456"/>
<text text-anchor="middle" x="1295.5" y="-444" font-family="Courier,monospace" font-size="10.00">ADDirichletBCBase</text>
</a>
</g>
</g>
<!-- Node1&#45;&gt;Node29 -->
<g id="edge28" class="edge">
<title>Node1&#45;&gt;Node29</title>
<path fill="none" stroke="#63b8ff" d="M1174.69,-304.51C1203.3,-338.42 1264.28,-410.69 1286.33,-436.82"/>
<polygon fill="#63b8ff" stroke="#63b8ff" points="1177.64,-302.57 1168.52,-297.19 1172.29,-307.09 1177.64,-302.57"/>
</g>
<!-- Node34 -->
<g id="node34" class="node">
<title>Node34</title>
<g id="a_node34"><a xlink:href="classArrayNodalBC.html" target="_top" xlink:title="Base class for deriving any boundary condition that works at nodes on vector variables.">
<polygon fill="white" stroke="#666666" points="1340,-352 1251,-352 1251,-333 1340,-333 1340,-352"/>
<text text-anchor="middle" x="1295.5" y="-340" font-family="Courier,monospace" font-size="10.00">ArrayNodalBC</text>
</a>
</g>
</g>
<!-- Node1&#45;&gt;Node34 -->
<g id="edge33" class="edge">
<title>Node1&#45;&gt;Node34</title>
<path fill="none" stroke="#63b8ff" d="M1193.75,-300.71C1217.71,-310.65 1249.12,-323.68 1270.46,-332.53"/>
<polygon fill="#63b8ff" stroke="#63b8ff" points="1195.3,-297.56 1184.72,-296.96 1192.62,-304.03 1195.3,-297.56"/>
</g>
<!-- Node37 -->
<g id="node37" class="node">
<title>Node37</title>
<g id="a_node37"><a xlink:href="classNodalBC.html" target="_top" xlink:title="Base class for deriving any boundary condition that works at nodes.">
<polygon fill="white" stroke="#666666" points="1325,-222 1266,-222 1266,-203 1325,-203 1325,-222"/>
<text text-anchor="middle" x="1295.5" y="-210" font-family="Courier,monospace" font-size="10.00">NodalBC</text>
</a>
</g>
</g>
<!-- Node1&#45;&gt;Node37 -->
<g id="edge36" class="edge">
<title>Node1&#45;&gt;Node37</title>
<path fill="none" stroke="#63b8ff" d="M1187.62,-271.08C1214.39,-256.41 1253.85,-234.78 1276.58,-222.32"/>
<polygon fill="#63b8ff" stroke="#63b8ff" points="1186.12,-267.92 1179.03,-275.79 1189.49,-274.05 1186.12,-267.92"/>
</g>
<!-- Node48 -->
<g id="node48" class="node">
<title>Node48</title>
<g id="a_node48"><a xlink:href="classVectorNodalBC.html" target="_top" xlink:title="Base class for deriving any boundary condition that works at nodes on vector variables.">
<polygon fill="white" stroke="#666666" points="1343,-56 1248,-56 1248,-37 1343,-37 1343,-56"/>
<text text-anchor="middle" x="1295.5" y="-44" font-family="Courier,monospace" font-size="10.00">VectorNodalBC</text>
</a>
</g>
</g>
<!-- Node1&#45;&gt;Node48 -->
<g id="edge47" class="edge">
<title>Node1&#45;&gt;Node48</title>
<path fill="none" stroke="#63b8ff" d="M1170.55,-266.86C1198.03,-218.01 1268.68,-92.41 1288.97,-56.33"/>
<polygon fill="#63b8ff" stroke="#63b8ff" points="1167.55,-265.04 1165.7,-275.48 1173.65,-268.48 1167.55,-265.04"/>
</g>
<!-- Node2 -->
<g id="node2" class="node">
<title>Node2</title>
<g id="a_node2"><a xlink:href="classBoundaryCondition.html" target="_top" xlink:title="Base class for creating new types of boundary conditions.">
<polygon fill="white" stroke="#666666" points="1033,-351 914,-351 914,-332 1033,-332 1033,-351"/>
<text text-anchor="middle" x="973.5" y="-339" font-family="Courier,monospace" font-size="10.00">BoundaryCondition</text>
</a>
</g>
</g>
<!-- Node2&#45;&gt;Node1 -->
<g id="edge1" class="edge">
<title>Node2&#45;&gt;Node1</title>
<path fill="none" stroke="#63b8ff" d="M1018.64,-328.23C1051.16,-318.46 1094.7,-305.37 1124.3,-296.48"/>
<polygon fill="#63b8ff" stroke="#63b8ff" points="1017.66,-324.87 1009.09,-331.1 1019.67,-331.58 1017.66,-324.87"/>
</g>
<!-- Node3 -->
<g id="node3" class="node">
<title>Node3</title>
<g id="a_node3"><a xlink:href="classResidualObject.html" target="_top" xlink:title="This is the common base class for objects that give residual contributions.">
<polygon fill="white" stroke="#666666" points="776,-499 675,-499 675,-480 776,-480 776,-499"/>
<text text-anchor="middle" x="725.5" y="-487" font-family="Courier,monospace" font-size="10.00">ResidualObject</text>
</a>
</g>
</g>
<!-- Node3&#45;&gt;Node2 -->
<g id="edge2" class="edge">
<title>Node3&#45;&gt;Node2</title>
<path fill="none" stroke="#63b8ff" d="M752.63,-473.78C803.43,-443.22 914.2,-376.57 956.05,-351.4"/>
<polygon fill="#63b8ff" stroke="#63b8ff" points="751.08,-470.62 744.32,-478.78 754.69,-476.62 751.08,-470.62"/>
</g>
<!-- Node4 -->
<g id="node4" class="node">
<title>Node4</title>
<g id="a_node4"><a xlink:href="classMooseObject.html" target="_top" xlink:title="Every object that can be built by the factory should be derived from this class.">
<polygon fill="white" stroke="#666666" points="534,-703 451,-703 451,-684 534,-684 534,-703"/>
<text text-anchor="middle" x="492.5" y="-691" font-family="Courier,monospace" font-size="10.00">MooseObject</text>
</a>
</g>
</g>
<!-- Node4&#45;&gt;Node3 -->
<g id="edge3" class="edge">
<title>Node4&#45;&gt;Node3</title>
<path fill="none" stroke="#63b8ff" d="M545.39,-690.02C559.03,-687.36 573.22,-682.9 585,-675.5 658.15,-629.56 706.48,-530.45 720.37,-499.17"/>
<polygon fill="#63b8ff" stroke="#63b8ff" points="544.92,-686.55 535.61,-691.61 546.05,-693.46 544.92,-686.55"/>
</g>
<!-- Node5 -->
<g id="node5" class="node">
<title>Node5</title>
<g id="a_node5"><a xlink:href="classMooseBase.html" target="_top" xlink:title="Base class for everything in MOOSE with a name and a type.">
<polygon fill="white" stroke="#666666" points="310,-777 239,-777 239,-758 310,-758 310,-777"/>
<text text-anchor="middle" x="274.5" y="-765" font-family="Courier,monospace" font-size="10.00">MooseBase</text>
</a>
</g>
</g>
<!-- Node5&#45;&gt;Node4 -->
<g id="edge4" class="edge">
<title>Node5&#45;&gt;Node4</title>
<path fill="none" stroke="#63b8ff" d="M321.62,-760.05C335.41,-757.31 350.46,-753.8 364,-749.5 403.87,-736.85 448.08,-715.72 472.56,-703.35"/>
<polygon fill="#63b8ff" stroke="#63b8ff" points="321.06,-756.59 311.89,-761.89 322.36,-763.47 321.06,-756.59"/>
</g>
<!-- Node6 -->
<g id="node6" class="node">
<title>Node6</title>
<g id="a_node6"><a xlink:href="classMooseBaseParameterInterface.html" target="_top" xlink:title="Every object that can be built by the factory should be derived from this class.">
<polygon fill="white" stroke="#666666" points="364,-740 185,-740 185,-721 364,-721 364,-740"/>
<text text-anchor="middle" x="274.5" y="-728" font-family="Courier,monospace" font-size="10.00">MooseBaseParameterInterface</text>
</a>
</g>
</g>
<!-- Node6&#45;&gt;Node4 -->
<g id="edge5" class="edge">
<title>Node6&#45;&gt;Node4</title>
<path fill="none" stroke="#63b8ff" d="M344.77,-718.63C379.7,-712.65 420.85,-705.6 450.68,-700.49"/>
<polygon fill="#63b8ff" stroke="#63b8ff" points="344.43,-715.14 335.16,-720.28 345.61,-722.04 344.43,-715.14"/>
</g>
<!-- Node7 -->
<g id="node7" class="node">
<title>Node7</title>
<g id="a_node7"><a xlink:href="classMooseBaseErrorInterface.html" target="_top" xlink:title="Interface that provides APIs to output errors/warnings/info messages.">
<polygon fill="white" stroke="#666666" points="352,-703 197,-703 197,-684 352,-684 352,-703"/>
<text text-anchor="middle" x="274.5" y="-691" font-family="Courier,monospace" font-size="10.00">MooseBaseErrorInterface</text>
</a>
</g>
</g>
<!-- Node7&#45;&gt;Node4 -->
<g id="edge6" class="edge">
<title>Node7&#45;&gt;Node4</title>
<path fill="none" stroke="#63b8ff" d="M363.7,-693.5C393.87,-693.5 426.17,-693.5 450.75,-693.5"/>
<polygon fill="#63b8ff" stroke="#63b8ff" points="363.78,-690 353.78,-693.5 363.78,-697 363.78,-690"/>
</g>
<!-- Node8 -->
<g id="node8" class="node">
<title>Node8</title>
<g id="a_node8"><a xlink:href="classConsoleStreamInterface.html" target="_top" xlink:title="An inteface for the _console for outputting to the Console object.">
<polygon fill="white" stroke="#666666" points="149,-703 0,-703 0,-684 149,-684 149,-703"/>
<text text-anchor="middle" x="74.5" y="-691" font-family="Courier,monospace" font-size="10.00">ConsoleStreamInterface</text>
</a>
</g>
</g>
<!-- Node8&#45;&gt;Node7 -->
<g id="edge7" class="edge">
<title>Node8&#45;&gt;Node7</title>
<path fill="none" stroke="#63b8ff" d="M160.62,-693.5C172.62,-693.5 184.9,-693.5 196.73,-693.5"/>
<polygon fill="#63b8ff" stroke="#63b8ff" points="160.74,-690 150.74,-693.5 160.74,-697 160.74,-690"/>
</g>
<!-- Node9 -->
<g id="node9" class="node">
<title>Node9</title>
<g id="a_node9"><a xlink:title=" ">
<polygon fill="white" stroke="#666666" points="352,-666 197,-666 197,-647 352,-647 352,-666"/>
<text text-anchor="middle" x="274.5" y="-654" font-family="Courier,monospace" font-size="10.00">libMesh::ParallelObject</text>
</a>
</g>
</g>
<!-- Node9&#45;&gt;Node4 -->
<g id="edge8" class="edge">
<title>Node9&#45;&gt;Node4</title>
<path fill="none" stroke="#63b8ff" d="M344.77,-668.37C379.7,-674.35 420.85,-681.4 450.68,-686.51"/>
<polygon fill="#63b8ff" stroke="#63b8ff" points="345.61,-664.96 335.16,-666.72 344.43,-671.86 345.61,-664.96"/>
</g>
<!-- Node10 -->
<g id="node10" class="node">
<title>Node10</title>
<g id="a_node10"><a xlink:href="classDataFileInterface.html" target="_top" xlink:title=" ">
<polygon fill="white" stroke="#666666" points="337,-628.5 212,-628.5 212,-598.5 337,-598.5 337,-628.5"/>
<text text-anchor="start" x="220" y="-616.5" font-family="Courier,monospace" font-size="10.00">DataFileInterface&lt;</text>
<text text-anchor="middle" x="274.5" y="-605.5" font-family="Courier,monospace" font-size="10.00"> MooseObject &gt;</text>
</a>
</g>
</g>
<!-- Node10&#45;&gt;Node4 -->
<g id="edge9" class="edge">
<title>Node10&#45;&gt;Node4</title>
<path fill="none" stroke="#63b8ff" d="M347.62,-630.35C353.32,-632.73 358.86,-635.44 364,-638.5 383.71,-650.24 379.83,-664.57 400,-675.5 415.37,-683.83 434.06,-688.34 450.53,-690.76"/>
<polygon fill="#63b8ff" stroke="#63b8ff" points="349.23,-627.22 338.64,-626.94 346.74,-633.76 349.23,-627.22"/>
</g>
<!-- Node11 -->
<g id="node11" class="node">
<title>Node11</title>
<g id="a_node11"><a xlink:href="classSetupInterface.html" target="_top" xlink:title=" ">
<polygon fill="white" stroke="#666666" points="543,-666 442,-666 442,-647 543,-647 543,-666"/>
<text text-anchor="middle" x="492.5" y="-654" font-family="Courier,monospace" font-size="10.00">SetupInterface</text>
</a>
</g>
</g>
<!-- Node11&#45;&gt;Node3 -->
<g id="edge10" class="edge">
<title>Node11&#45;&gt;Node3</title>
<path fill="none" stroke="#63b8ff" d="M554.42,-650.04C565.03,-647.39 575.65,-643.69 585,-638.5 649.46,-602.76 701.26,-526.73 718.42,-499.48"/>
<polygon fill="#63b8ff" stroke="#63b8ff" points="553.93,-646.57 544.9,-652.11 555.42,-653.41 553.93,-646.57"/>
</g>
<!-- Node12 -->
<g id="node12" class="node">
<title>Node12</title>
<g id="a_node12"><a xlink:href="classFunctionInterface.html" target="_top" xlink:title="Interface for objects that need to use functions.">
<polygon fill="white" stroke="#666666" points="552,-629 433,-629 433,-610 552,-610 552,-629"/>
<text text-anchor="middle" x="492.5" y="-617" font-family="Courier,monospace" font-size="10.00">FunctionInterface</text>
</a>
</g>
</g>
<!-- Node12&#45;&gt;Node3 -->
<g id="edge11" class="edge">
<title>Node12&#45;&gt;Node3</title>
<path fill="none" stroke="#63b8ff" d="M563.39,-609.43C570.85,-607.27 578.19,-604.67 585,-601.5 641.32,-575.3 694.79,-521.68 715.48,-499.47"/>
<polygon fill="#63b8ff" stroke="#63b8ff" points="562.7,-605.99 553.89,-611.88 564.45,-612.77 562.7,-605.99"/>
</g>
<!-- Node13 -->
<g id="node13" class="node">
<title>Node13</title>
<g id="a_node13"><a xlink:href="classUserObjectInterface.html" target="_top" xlink:title="Interface for objects that need to use UserObjects.">
<polygon fill="white" stroke="#666666" points="558,-592 427,-592 427,-573 558,-573 558,-592"/>
<text text-anchor="middle" x="492.5" y="-580" font-family="Courier,monospace" font-size="10.00">UserObjectInterface</text>
</a>
</g>
</g>
<!-- Node13&#45;&gt;Node3 -->
<g id="edge12" class="edge">
<title>Node13&#45;&gt;Node3</title>
<path fill="none" stroke="#63b8ff" d="M568.24,-569.73C573.97,-568.17 579.61,-566.43 585,-564.5 633.15,-547.26 684.97,-515.48 709.71,-499.39"/>
<polygon fill="#63b8ff" stroke="#63b8ff" points="567.48,-566.32 558.64,-572.16 569.19,-573.1 567.48,-566.32"/>
</g>
<!-- Node14 -->
<g id="node14" class="node">
<title>Node14</title>
<g id="a_node14"><a xlink:href="classTransientInterface.html" target="_top" xlink:title="Interface for objects that needs transient capabilities.">
<polygon fill="white" stroke="#666666" points="555,-555 430,-555 430,-536 555,-536 555,-555"/>
<text text-anchor="middle" x="492.5" y="-543" font-family="Courier,monospace" font-size="10.00">TransientInterface</text>
</a>
</g>
</g>
<!-- Node14&#45;&gt;Node3 -->
<g id="edge13" class="edge">
<title>Node14&#45;&gt;Node3</title>
<path fill="none" stroke="#63b8ff" d="M558.53,-533.3C567.45,-531.46 576.47,-529.5 585,-527.5 621.29,-519 662.42,-507.57 690.56,-499.48"/>
<polygon fill="#63b8ff" stroke="#63b8ff" points="557.93,-529.85 548.83,-535.27 559.32,-536.71 557.93,-529.85"/>
</g>
<!-- Node15 -->
<g id="node15" class="node">
<title>Node15</title>
<g id="a_node15"><a xlink:href="classPostprocessorInterface.html" target="_top" xlink:title="Interface class for classes which interact with Postprocessors.">
<polygon fill="white" stroke="#666666" points="567,-518 418,-518 418,-499 567,-499 567,-518"/>
<text text-anchor="middle" x="492.5" y="-506" font-family="Courier,monospace" font-size="10.00">PostprocessorInterface</text>
</a>
</g>
</g>
<!-- Node15&#45;&gt;Node3 -->
<g id="edge14" class="edge">
<title>Node15&#45;&gt;Node3</title>
<path fill="none" stroke="#63b8ff" d="M578.52,-501.51C610.9,-498.84 646.73,-495.9 674.79,-493.59"/>
<polygon fill="#63b8ff" stroke="#63b8ff" points="578.41,-498 568.73,-502.31 578.99,-504.98 578.41,-498"/>
</g>
<!-- Node16 -->
<g id="node16" class="node">
<title>Node16</title>
<g id="a_node16"><a xlink:href="classVectorPostprocessorInterface.html" target="_top" xlink:title=" ">
<polygon fill="white" stroke="#666666" points="585,-481 400,-481 400,-462 585,-462 585,-481"/>
<text text-anchor="middle" x="492.5" y="-469" font-family="Courier,monospace" font-size="10.00">VectorPostprocessorInterface</text>
</a>
</g>
</g>
<!-- Node16&#45;&gt;Node3 -->
<g id="edge15" class="edge">
<title>Node16&#45;&gt;Node3</title>
<path fill="none" stroke="#63b8ff" d="M596.61,-479.53C623.74,-481.65 651.79,-483.83 674.69,-485.62"/>
<polygon fill="#63b8ff" stroke="#63b8ff" points="597.21,-476.07 586.97,-478.78 596.67,-483.05 597.21,-476.07"/>
</g>
<!-- Node17 -->
<g id="node17" class="node">
<title>Node17</title>
<g id="a_node17"><a xlink:href="classRandomInterface.html" target="_top" xlink:title="Interface for objects that need parallel consistent random numbers without patterns over the course o...">
<polygon fill="white" stroke="#666666" points="546,-444 439,-444 439,-425 546,-425 546,-444"/>
<text text-anchor="middle" x="492.5" y="-432" font-family="Courier,monospace" font-size="10.00">RandomInterface</text>
</a>
</g>
</g>
<!-- Node17&#45;&gt;Node3 -->
<g id="edge16" class="edge">
<title>Node17&#45;&gt;Node3</title>
<path fill="none" stroke="#63b8ff" d="M554.41,-446.72C564.64,-448.9 575.14,-451.2 585,-453.5 620.08,-461.66 659.83,-472.03 687.9,-479.55"/>
<polygon fill="#63b8ff" stroke="#63b8ff" points="555.44,-443.36 544.94,-444.73 554.01,-450.22 555.44,-443.36"/>
</g>
<!-- Node18 -->
<g id="node18" class="node">
<title>Node18</title>
<g id="a_node18"><a xlink:href="classRestartable.html" target="_top" xlink:title="A class for creating restricted objects.">
<polygon fill="white" stroke="#666666" points="534,-407 451,-407 451,-388 534,-388 534,-407"/>
<text text-anchor="middle" x="492.5" y="-395" font-family="Courier,monospace" font-size="10.00">Restartable</text>
</a>
</g>
</g>
<!-- Node18&#45;&gt;Node3 -->
<g id="edge17" class="edge">
<title>Node18&#45;&gt;Node3</title>
<path fill="none" stroke="#63b8ff" d="M545.5,-405.69C558.59,-408.46 572.48,-412.02 585,-416.5 632.62,-433.53 684.26,-464.07 709.25,-479.7"/>
<polygon fill="#63b8ff" stroke="#63b8ff" points="546.22,-402.27 535.73,-403.76 544.86,-409.14 546.22,-402.27"/>
</g>
<!-- Node19 -->
<g id="node19" class="node">
<title>Node19</title>
<g id="a_node19"><a xlink:href="classMeshChangedInterface.html" target="_top" xlink:title="Interface for notifications that the mesh has changed.">
<polygon fill="white" stroke="#666666" points="561,-370 424,-370 424,-351 561,-351 561,-370"/>
<text text-anchor="middle" x="492.5" y="-358" font-family="Courier,monospace" font-size="10.00">MeshChangedInterface</text>
</a>
</g>
</g>
<!-- Node19&#45;&gt;Node3 -->
<g id="edge18" class="edge">
<title>Node19&#45;&gt;Node3</title>
<path fill="none" stroke="#63b8ff" d="M570.63,-373.77C575.58,-375.46 580.41,-377.36 585,-379.5 640.91,-405.56 694.6,-458.04 715.42,-479.75"/>
<polygon fill="#63b8ff" stroke="#63b8ff" points="571.71,-370.44 561.12,-370.85 569.65,-377.13 571.71,-370.44"/>
</g>
<!-- Node20 -->
<g id="node20" class="node">
<title>Node20</title>
<g id="a_node20"><a xlink:href="classTaggingInterface.html" target="_top" xlink:title=" ">
<polygon fill="white" stroke="#666666" points="549,-333 436,-333 436,-314 549,-314 549,-333"/>
<text text-anchor="middle" x="492.5" y="-321" font-family="Courier,monospace" font-size="10.00">TaggingInterface</text>
</a>
</g>
</g>
<!-- Node20&#45;&gt;Node3 -->
<g id="edge19" class="edge">
<title>Node20&#45;&gt;Node3</title>
<path fill="none" stroke="#63b8ff" d="M559.95,-330.78C568.84,-333.58 577.47,-337.37 585,-342.5 609.15,-358.95 601.92,-375.38 621,-397.5 649.9,-430.99 690.72,-463.87 711.4,-479.71"/>
<polygon fill="#63b8ff" stroke="#63b8ff" points="561.07,-327.46 550.51,-328.23 559.25,-334.22 561.07,-327.46"/>
</g>
<!-- Node21 -->
<g id="node21" class="node">
<title>Node21</title>
<g id="a_node21"><a xlink:href="classBoundaryRestrictableRequired.html" target="_top" xlink:title="A class for requiring an object to be boundary restricted.">
<polygon fill="white" stroke="#666666" points="818,-388 633,-388 633,-369 818,-369 818,-388"/>
<text text-anchor="middle" x="725.5" y="-376" font-family="Courier,monospace" font-size="10.00">BoundaryRestrictableRequired</text>
</a>
</g>
</g>
<!-- Node21&#45;&gt;Node2 -->
<g id="edge20" class="edge">
<title>Node21&#45;&gt;Node2</title>
<path fill="none" stroke="#63b8ff" d="M804.04,-366.84C839.51,-361.5 880.84,-355.29 913.69,-350.35"/>
<polygon fill="#63b8ff" stroke="#63b8ff" points="803.61,-363.36 794.24,-368.31 804.65,-370.28 803.61,-363.36"/>
</g>
<!-- Node22 -->
<g id="node22" class="node">
<title>Node22</title>
<g id="a_node22"><a xlink:href="classBoundaryRestrictable.html" target="_top" xlink:title="/class BoundaryRestrictable /brief Provides functionality for limiting the object to certain boundary...">
<polygon fill="white" stroke="#666666" points="561,-296 424,-296 424,-277 561,-277 561,-296"/>
<text text-anchor="middle" x="492.5" y="-284" font-family="Courier,monospace" font-size="10.00">BoundaryRestrictable</text>
</a>
</g>
</g>
<!-- Node22&#45;&gt;Node21 -->
<g id="edge21" class="edge">
<title>Node22&#45;&gt;Node21</title>
<path fill="none" stroke="#63b8ff" d="M571.83,-298.24C576.46,-300.3 580.89,-302.7 585,-305.5 609.15,-321.95 596.59,-344.45 621,-360.5 625.8,-363.66 630.99,-366.31 636.39,-368.53"/>
<polygon fill="#63b8ff" stroke="#63b8ff" points="573.46,-295.12 562.87,-294.8 570.95,-301.65 573.46,-295.12"/>
</g>
<!-- Node23 -->
<g id="node23" class="node">
<title>Node23</title>
<g id="a_node23"><a xlink:href="classDistributionInterface.html" target="_top" xlink:title="Interface for objects that need to use distributions.">
<polygon fill="white" stroke="#666666" points="797,-351 654,-351 654,-332 797,-332 797,-351"/>
<text text-anchor="middle" x="725.5" y="-339" font-family="Courier,monospace" font-size="10.00">DistributionInterface</text>
</a>
</g>
</g>
<!-- Node23&#45;&gt;Node2 -->
<g id="edge22" class="edge">
<title>Node23&#45;&gt;Node2</title>
<path fill="none" stroke="#63b8ff" d="M808.79,-341.5C843.19,-341.5 882.38,-341.5 913.78,-341.5"/>
<polygon fill="#63b8ff" stroke="#63b8ff" points="808.84,-338 798.84,-341.5 808.84,-345 808.84,-338"/>
</g>
<!-- Node24 -->
<g id="node24" class="node">
<title>Node24</title>
<g id="a_node24"><a xlink:href="classGeometricSearchInterface.html" target="_top" xlink:title=" ">
<polygon fill="white" stroke="#666666" points="806,-314 645,-314 645,-295 806,-295 806,-314"/>
<text text-anchor="middle" x="725.5" y="-302" font-family="Courier,monospace" font-size="10.00">GeometricSearchInterface</text>
</a>
</g>
</g>
<!-- Node24&#45;&gt;Node2 -->
<g id="edge23" class="edge">
<title>Node24&#45;&gt;Node2</title>
<path fill="none" stroke="#63b8ff" d="M804.04,-316.16C839.51,-321.5 880.84,-327.71 913.69,-332.65"/>
<polygon fill="#63b8ff" stroke="#63b8ff" points="804.65,-312.72 794.24,-314.69 803.61,-319.64 804.65,-312.72"/>
</g>
<!-- Node25 -->
<g id="node25" class="node">
<title>Node25</title>
<g id="a_node25"><a xlink:href="classCoupleableMooseVariableDependencyIntermediateInterface.html" target="_top" xlink:title="Intermediate base class that ties together all the interfaces for getting MooseVariableFEBases with t...">
<polygon fill="white" stroke="#666666" points="1081,-264.5 866,-264.5 866,-234.5 1081,-234.5 1081,-264.5"/>
<text text-anchor="start" x="874" y="-252.5" font-family="Courier,monospace" font-size="10.00">CoupleableMooseVariableDependency</text>
<text text-anchor="middle" x="973.5" y="-241.5" font-family="Courier,monospace" font-size="10.00">IntermediateInterface</text>
</a>
</g>
</g>
<!-- Node25&#45;&gt;Node1 -->
<g id="edge24" class="edge">
<title>Node25&#45;&gt;Node1</title>
<path fill="none" stroke="#63b8ff" d="M1062.21,-267.23C1081.26,-271.08 1100.52,-274.98 1116.69,-278.25"/>
<polygon fill="#63b8ff" stroke="#63b8ff" points="1063.03,-263.83 1052.53,-265.28 1061.64,-270.69 1063.03,-263.83"/>
</g>
<!-- Node26 -->
<g id="node26" class="node">
<title>Node26</title>
<g id="a_node26"><a xlink:href="classCoupleable.html" target="_top" xlink:title="Interface for objects that needs coupling capabilities.">
<polygon fill="white" stroke="#666666" points="764,-277 687,-277 687,-258 764,-258 764,-277"/>
<text text-anchor="middle" x="725.5" y="-265" font-family="Courier,monospace" font-size="10.00">Coupleable</text>
</a>
</g>
</g>
<!-- Node26&#45;&gt;Node25 -->
<g id="edge25" class="edge">
<title>Node26&#45;&gt;Node25</title>
<path fill="none" stroke="#63b8ff" d="M775.76,-263.9C801.62,-262 834.37,-259.61 865.69,-257.32"/>
<polygon fill="#63b8ff" stroke="#63b8ff" points="775.63,-260.4 765.91,-264.62 776.14,-267.38 775.63,-260.4"/>
</g>
<!-- Node27 -->
<g id="node27" class="node">
<title>Node27</title>
<g id="a_node27"><a xlink:href="classScalarCoupleable.html" target="_top" xlink:title="Interface for objects that needs scalar coupling capabilities.">
<polygon fill="white" stroke="#666666" points="782,-240 669,-240 669,-221 782,-221 782,-240"/>
<text text-anchor="middle" x="725.5" y="-228" font-family="Courier,monospace" font-size="10.00">ScalarCoupleable</text>
</a>
</g>
</g>
<!-- Node27&#45;&gt;Node25 -->
<g id="edge26" class="edge">
<title>Node27&#45;&gt;Node25</title>
<path fill="none" stroke="#63b8ff" d="M793.63,-235.68C815.83,-237.4 841.11,-239.35 865.53,-241.24"/>
<polygon fill="#63b8ff" stroke="#63b8ff" points="794.07,-232.21 783.83,-234.93 793.53,-239.19 794.07,-232.21"/>
</g>
<!-- Node28 -->
<g id="node28" class="node">
<title>Node28</title>
<g id="a_node28"><a xlink:href="classMooseVariableDependencyInterface.html" target="_top" xlink:title=" ">
<polygon fill="white" stroke="#666666" points="830,-203 621,-203 621,-184 830,-184 830,-203"/>
<text text-anchor="middle" x="725.5" y="-191" font-family="Courier,monospace" font-size="10.00">MooseVariableDependencyInterface</text>
</a>
</g>
</g>
<!-- Node28&#45;&gt;Node25 -->
<g id="edge27" class="edge">
<title>Node28&#45;&gt;Node25</title>
<path fill="none" stroke="#63b8ff" d="M800.29,-205.51C810.3,-207.38 820.42,-209.39 830,-211.5 859.63,-218.01 892.37,-226.64 918.98,-234.03"/>
<polygon fill="#63b8ff" stroke="#63b8ff" points="801.02,-202.09 790.56,-203.73 799.77,-208.97 801.02,-202.09"/>
</g>
<!-- Node30 -->
<g id="node30" class="node">
<title>Node30</title>
<g id="a_node30"><a xlink:href="classADNodalBCTempl.html" target="_top" xlink:title=" ">
<polygon fill="white" stroke="#666666" points="1567,-533.5 1424,-533.5 1424,-503.5 1567,-503.5 1567,-533.5"/>
<text text-anchor="start" x="1432" y="-521.5" font-family="Courier,monospace" font-size="10.00">ADNodalBCTempl&lt; Real,</text>
<text text-anchor="middle" x="1495.5" y="-510.5" font-family="Courier,monospace" font-size="10.00"> ADDirichletBCBase &gt;</text>
</a>
</g>
</g>
<!-- Node29&#45;&gt;Node30 -->
<g id="edge29" class="edge">
<title>Node29&#45;&gt;Node30</title>
<path fill="none" stroke="#63b8ff" d="M1322.78,-462.03C1341.33,-472.44 1367.04,-485.78 1391,-494.5 1401.4,-498.28 1412.61,-501.61 1423.68,-504.49"/>
<polygon fill="#63b8ff" stroke="#63b8ff" points="1324.75,-459.12 1314.33,-457.2 1321.28,-465.2 1324.75,-459.12"/>
</g>
<!-- Node31 -->
<g id="node31" class="node">
<title>Node31</title>
<g id="a_node31"><a xlink:href="classADNodalBCTempl.html" target="_top" xlink:title=" ">
<polygon fill="white" stroke="#666666" points="1564,-485.5 1427,-485.5 1427,-455.5 1564,-455.5 1564,-485.5"/>
<text text-anchor="start" x="1435" y="-473.5" font-family="Courier,monospace" font-size="10.00">ADNodalBCTempl&lt; T,</text>
<text text-anchor="middle" x="1495.5" y="-462.5" font-family="Courier,monospace" font-size="10.00"> ADDirichletBCBase &gt;</text>
</a>
</g>
</g>
<!-- Node29&#45;&gt;Node31 -->
<g id="edge30" class="edge">
<title>Node29&#45;&gt;Node31</title>
<path fill="none" stroke="#63b8ff" d="M1366.67,-455C1386.22,-457.37 1407.41,-459.94 1426.81,-462.3"/>
<polygon fill="#63b8ff" stroke="#63b8ff" points="1367.22,-451.55 1356.87,-453.82 1366.38,-458.5 1367.22,-451.55"/>
</g>
<!-- Node33 -->
<g id="node33" class="node">
<title>Node33</title>
<g id="a_node33"><a xlink:href="classADNodalBCTempl.html" target="_top" xlink:title=" ">
<polygon fill="white" stroke="#666666" points="1582,-437.5 1409,-437.5 1409,-407.5 1582,-407.5 1582,-437.5"/>
<text text-anchor="start" x="1417" y="-425.5" font-family="Courier,monospace" font-size="10.00">ADNodalBCTempl&lt; RealVector</text>
<text text-anchor="middle" x="1495.5" y="-414.5" font-family="Courier,monospace" font-size="10.00">Value, ADDirichletBCBase &gt;</text>
</a>
</g>
</g>
<!-- Node29&#45;&gt;Node33 -->
<g id="edge32" class="edge">
<title>Node29&#45;&gt;Node33</title>
<path fill="none" stroke="#63b8ff" d="M1366.61,-438C1380.24,-436.35 1394.67,-434.6 1408.74,-432.9"/>
<polygon fill="#63b8ff" stroke="#63b8ff" points="1366.38,-434.5 1356.87,-439.18 1367.22,-441.45 1366.38,-434.5"/>
</g>
<!-- Node32 -->
<g id="node32" class="node">
<title>Node32</title>
<g id="a_node32"><a xlink:href="classADDirichletBCBaseTempl.html" target="_top" xlink:title="Base class for automatic differentiation Dirichlet BCs.">
<polygon fill="white" stroke="#666666" points="1815,-480 1636,-480 1636,-461 1815,-461 1815,-480"/>
<text text-anchor="middle" x="1725.5" y="-468" font-family="Courier,monospace" font-size="10.00">ADDirichletBCBaseTempl&lt; T &gt;</text>
</a>
</g>
</g>
<!-- Node31&#45;&gt;Node32 -->
<g id="edge31" class="edge">
<title>Node31&#45;&gt;Node32</title>
<path fill="none" stroke="#63b8ff" d="M1575.55,-470.5C1595,-470.5 1615.96,-470.5 1635.84,-470.5"/>
<polygon fill="#63b8ff" stroke="#63b8ff" points="1575.8,-467 1565.8,-470.5 1575.8,-474 1575.8,-467"/>
</g>
<!-- Node35 -->
<g id="node35" class="node">
<title>Node35</title>
<g id="a_node35"><a xlink:href="classArrayDirichletBC.html" target="_top" xlink:title="Boundary condition of a Dirichlet type.">
<polygon fill="white" stroke="#666666" points="1552,-389 1439,-389 1439,-370 1552,-370 1552,-389"/>
<text text-anchor="middle" x="1495.5" y="-377" font-family="Courier,monospace" font-size="10.00">ArrayDirichletBC</text>
</a>
</g>
</g>
<!-- Node34&#45;&gt;Node35 -->
<g id="edge34" class="edge">
<title>Node34&#45;&gt;Node35</title>
<path fill="none" stroke="#63b8ff" d="M1351.36,-353.78C1364.34,-356.38 1378.15,-359.09 1391,-361.5 1406.42,-364.39 1423.16,-367.37 1438.59,-370.05"/>
<polygon fill="#63b8ff" stroke="#63b8ff" points="1352.19,-350.38 1341.69,-351.84 1350.8,-357.24 1352.19,-350.38"/>
</g>
<!-- Node36 -->
<g id="node36" class="node">
<title>Node36</title>
<g id="a_node36"><a xlink:href="classEigenArrayDirichletBC.html" target="_top" xlink:title="Boundary condition of a Dirichlet type for the eigen side.">
<polygon fill="white" stroke="#666666" points="1567,-352 1424,-352 1424,-333 1567,-333 1567,-352"/>
<text text-anchor="middle" x="1495.5" y="-340" font-family="Courier,monospace" font-size="10.00">EigenArrayDirichletBC</text>
</a>
</g>
</g>
<!-- Node34&#45;&gt;Node36 -->
<g id="edge35" class="edge">
<title>Node34&#45;&gt;Node36</title>
<path fill="none" stroke="#63b8ff" d="M1351.75,-342.5C1374.1,-342.5 1400.16,-342.5 1423.85,-342.5"/>
<polygon fill="#63b8ff" stroke="#63b8ff" points="1351.96,-339 1341.96,-342.5 1351.96,-346 1351.96,-339"/>
</g>
<!-- Node38 -->
<g id="node38" class="node">
<title>Node38</title>
<g id="a_node38"><a xlink:href="classDirichletBCBase.html" target="_top" xlink:title="Base boundary condition of a Dirichlet type.">
<polygon fill="white" stroke="#666666" points="1549,-315 1442,-315 1442,-296 1549,-296 1549,-315"/>
<text text-anchor="middle" x="1495.5" y="-303" font-family="Courier,monospace" font-size="10.00">DirichletBCBase</text>
</a>
</g>
</g>
<!-- Node37&#45;&gt;Node38 -->
<g id="edge37" class="edge">
<title>Node37&#45;&gt;Node38</title>
<path fill="none" stroke="#63b8ff" d="M1313.27,-230.22C1330.89,-247.69 1360.29,-273.73 1391,-287.5 1406.73,-294.55 1424.95,-298.85 1441.67,-301.47"/>
<polygon fill="#63b8ff" stroke="#63b8ff" points="1316.17,-228.18 1306.67,-223.5 1311.18,-233.08 1316.17,-228.18"/>
</g>
<!-- Node41 -->
<g id="node41" class="node">
<title>Node41</title>
<g id="a_node41"><a xlink:href="classEigenDirichletBC.html" target="_top" xlink:title="Set Dirichlet boundary condition for eigenvalue problems.">
<polygon fill="white" stroke="#666666" points="1552,-278 1439,-278 1439,-259 1552,-259 1552,-278"/>
<text text-anchor="middle" x="1495.5" y="-266" font-family="Courier,monospace" font-size="10.00">EigenDirichletBC</text>
</a>
</g>
</g>
<!-- Node37&#45;&gt;Node41 -->
<g id="edge40" class="edge">
<title>Node37&#45;&gt;Node41</title>
<path fill="none" stroke="#63b8ff" d="M1327.72,-226.98C1345.86,-234.91 1369.35,-244.34 1391,-250.5 1406.26,-254.84 1423.1,-258.31 1438.69,-261"/>
<polygon fill="#63b8ff" stroke="#63b8ff" points="1329.39,-223.89 1318.83,-223.02 1326.54,-230.29 1329.39,-223.89"/>
</g>
<!-- Node42 -->
<g id="node42" class="node">
<title>Node42</title>
<g id="a_node42"><a xlink:href="classFlexiblePostprocessorDirichletBC.html" target="_top" xlink:title="Boundary condition of a Dirichlet type.">
<polygon fill="white" stroke="#666666" points="1600,-241 1391,-241 1391,-222 1600,-222 1600,-241"/>
<text text-anchor="middle" x="1495.5" y="-229" font-family="Courier,monospace" font-size="10.00">FlexiblePostprocessorDirichletBC</text>
</a>
</g>
</g>
<!-- Node37&#45;&gt;Node42 -->
<g id="edge41" class="edge">
<title>Node37&#45;&gt;Node42</title>
<path fill="none" stroke="#63b8ff" d="M1336.72,-216.36C1352.52,-217.88 1371.45,-219.69 1390.63,-221.53"/>
<polygon fill="#63b8ff" stroke="#63b8ff" points="1337.09,-212.88 1326.8,-215.41 1336.42,-219.85 1337.09,-212.88"/>
</g>
<!-- Node43 -->
<g id="node43" class="node">
<title>Node43</title>
<g id="a_node43"><a xlink:href="classGenericNodalBC.html" target="_top" xlink:title=" ">
<polygon fill="white" stroke="#666666" points="1573,-204 1418,-204 1418,-185 1573,-185 1573,-204"/>
<text text-anchor="middle" x="1495.5" y="-192" font-family="Courier,monospace" font-size="10.00">GenericNodalBC&lt; is_ad &gt;</text>
</a>
</g>
</g>
<!-- Node37&#45;&gt;Node43 -->
<g id="edge42" class="edge">
<title>Node37&#45;&gt;Node43</title>
<path fill="none" stroke="#63b8ff" d="M1336.48,-208.87C1359.81,-206.74 1390.03,-204 1417.78,-201.47"/>
<polygon fill="#63b8ff" stroke="#63b8ff" points="1336.44,-205.35 1326.8,-209.75 1337.07,-212.33 1336.44,-205.35"/>
</g>
<!-- Node45 -->
<g id="node45" class="node">
<title>Node45</title>
<g id="a_node45"><a xlink:href="classNodalNormalBC.html" target="_top" xlink:title="This is a base class to enforce strong boundary condition with a normal defined at a node.">
<polygon fill="white" stroke="#666666" points="1543,-167 1448,-167 1448,-148 1543,-148 1543,-167"/>
<text text-anchor="middle" x="1495.5" y="-155" font-family="Courier,monospace" font-size="10.00">NodalNormalBC</text>
</a>
</g>
</g>
<!-- Node37&#45;&gt;Node45 -->
<g id="edge44" class="edge">
<title>Node37&#45;&gt;Node45</title>
<path fill="none" stroke="#63b8ff" d="M1328.73,-198.02C1346.75,-190.4 1369.78,-181.43 1391,-175.5 1409.27,-170.39 1429.77,-166.46 1447.69,-163.6"/>
<polygon fill="#63b8ff" stroke="#63b8ff" points="1327.41,-194.78 1319.61,-201.95 1330.18,-201.2 1327.41,-194.78"/>
</g>
<!-- Node46 -->
<g id="node46" class="node">
<title>Node46</title>
<g id="a_node46"><a xlink:href="classPostprocessorDirichletBC.html" target="_top" xlink:title="Boundary condition of a Dirichlet type.">
<polygon fill="white" stroke="#666666" points="1576,-130 1415,-130 1415,-111 1576,-111 1576,-130"/>
<text text-anchor="middle" x="1495.5" y="-118" font-family="Courier,monospace" font-size="10.00">PostprocessorDirichletBC</text>
</a>
</g>
</g>
<!-- Node37&#45;&gt;Node46 -->
<g id="edge45" class="edge">
<title>Node37&#45;&gt;Node46</title>
<path fill="none" stroke="#63b8ff" d="M1313.31,-195.03C1330.98,-177.79 1360.4,-152.1 1391,-138.5 1398.5,-135.17 1406.56,-132.45 1414.75,-130.23"/>
<polygon fill="#63b8ff" stroke="#63b8ff" points="1311.29,-192.1 1306.7,-201.65 1316.25,-197.04 1311.29,-192.1"/>
</g>
<!-- Node47 -->
<g id="node47" class="node">
<title>Node47</title>
<g id="a_node47"><a xlink:href="classSinDirichletBC.html" target="_top" xlink:title="A spatially&#45;constant, time&#45;varying NodalBC whose imposed value g(t) varies sinusoidally with time acc...">
<polygon fill="white" stroke="#666666" points="1546,-93 1445,-93 1445,-74 1546,-74 1546,-93"/>
<text text-anchor="middle" x="1495.5" y="-81" font-family="Courier,monospace" font-size="10.00">SinDirichletBC</text>
</a>
</g>
</g>
<!-- Node37&#45;&gt;Node47 -->
<g id="edge46" class="edge">
<title>Node37&#45;&gt;Node47</title>
<path fill="none" stroke="#63b8ff" d="M1307.12,-193.17C1322.2,-167.71 1352.35,-123.57 1391,-101.5 1407.15,-92.27 1426.87,-87.54 1444.74,-85.19"/>
<polygon fill="#63b8ff" stroke="#63b8ff" points="1304.28,-191.09 1302.35,-201.51 1310.35,-194.57 1304.28,-191.09"/>
</g>
<!-- Node39 -->
<g id="node39" class="node">
<title>Node39</title>
<g id="a_node39"><a xlink:href="classDirichletBC.html" target="_top" xlink:title="Boundary condition of a Dirichlet type.">
<polygon fill="white" stroke="#666666" points="1767,-333 1684,-333 1684,-314 1767,-314 1767,-333"/>
<text text-anchor="middle" x="1725.5" y="-321" font-family="Courier,monospace" font-size="10.00">DirichletBC</text>
</a>
</g>
</g>
<!-- Node38&#45;&gt;Node39 -->
<g id="edge38" class="edge">
<title>Node38&#45;&gt;Node39</title>
<path fill="none" stroke="#63b8ff" d="M1560.74,-310.57C1600.18,-313.68 1649.49,-317.58 1683.64,-320.27"/>
<polygon fill="#63b8ff" stroke="#63b8ff" points="1561.13,-307.09 1550.89,-309.79 1560.58,-314.07 1561.13,-307.09"/>
</g>
<!-- Node40 -->
<g id="node40" class="node">
<title>Node40</title>
<g id="a_node40"><a xlink:href="classFunctionDirichletBC.html" target="_top" xlink:title="Defines a boundary condition that forces the value to be a user specified function at the boundary.">
<polygon fill="white" stroke="#666666" points="1791,-296 1660,-296 1660,-277 1791,-277 1791,-296"/>
<text text-anchor="middle" x="1725.5" y="-284" font-family="Courier,monospace" font-size="10.00">FunctionDirichletBC</text>
</a>
</g>
</g>
<!-- Node38&#45;&gt;Node40 -->
<g id="edge39" class="edge">
<title>Node38&#45;&gt;Node40</title>
<path fill="none" stroke="#63b8ff" d="M1560.5,-300.17C1591.48,-297.59 1628.61,-294.49 1659.7,-291.9"/>
<polygon fill="#63b8ff" stroke="#63b8ff" points="1560.56,-296.65 1550.89,-300.97 1561.15,-303.62 1560.56,-296.65"/>
</g>
<!-- Node44 -->
<g id="node44" class="node">
<title>Node44</title>
<g id="a_node44"><a xlink:href="classMatchedValueBCTempl.html" target="_top" xlink:title="Implements a simple coupled boundary condition where u=v on the boundary.">
<polygon fill="white" stroke="#666666" points="1791,-209.5 1660,-209.5 1660,-179.5 1791,-179.5 1791,-209.5"/>
<text text-anchor="start" x="1668" y="-197.5" font-family="Courier,monospace" font-size="10.00">MatchedValueBCTempl</text>
<text text-anchor="middle" x="1725.5" y="-186.5" font-family="Courier,monospace" font-size="10.00">&lt; is_ad &gt;</text>
</a>
</g>
</g>
<!-- Node43&#45;&gt;Node44 -->
<g id="edge43" class="edge">
<title>Node43&#45;&gt;Node44</title>
<path fill="none" stroke="#63b8ff" d="M1584.71,-194.5C1609.69,-194.5 1636.42,-194.5 1659.74,-194.5"/>
<polygon fill="#63b8ff" stroke="#63b8ff" points="1584.89,-191 1574.89,-194.5 1584.89,-198 1584.89,-191"/>
</g>
<!-- Node49 -->
<g id="node49" class="node">
<title>Node49</title>
<g id="a_node49"><a xlink:href="classVectorDirichletBC.html" target="_top" xlink:title="Boundary condition of a Dirichlet type.">
<polygon fill="white" stroke="#666666" points="1555,-56 1436,-56 1436,-37 1555,-37 1555,-56"/>
<text text-anchor="middle" x="1495.5" y="-44" font-family="Courier,monospace" font-size="10.00">VectorDirichletBC</text>
</a>
</g>
</g>
<!-- Node48&#45;&gt;Node49 -->
<g id="edge48" class="edge">
<title>Node48&#45;&gt;Node49</title>
<path fill="none" stroke="#63b8ff" d="M1354.82,-46.5C1380.36,-46.5 1410.28,-46.5 1435.86,-46.5"/>
<polygon fill="#63b8ff" stroke="#63b8ff" points="1354.94,-43 1344.94,-46.5 1354.94,-50 1354.94,-43"/>
</g>
<!-- Node50 -->
<g id="node50" class="node">
<title>Node50</title>
<g id="a_node50"><a xlink:href="classVectorFunctionDirichletBC.html" target="_top" xlink:title="Boundary condition of a Dirichlet type.">
<polygon fill="white" stroke="#666666" points="1579,-19 1412,-19 1412,0 1579,0 1579,-19"/>
<text text-anchor="middle" x="1495.5" y="-7" font-family="Courier,monospace" font-size="10.00">VectorFunctionDirichletBC</text>
</a>
</g>
</g>
<!-- Node48&#45;&gt;Node50 -->
<g id="edge49" class="edge">
<title>Node48&#45;&gt;Node50</title>
<path fill="none" stroke="#63b8ff" d="M1354.06,-34.68C1366.24,-32.24 1379.04,-29.74 1391,-27.5 1405.43,-24.79 1421.02,-22.01 1435.61,-19.47"/>
<polygon fill="#63b8ff" stroke="#63b8ff" points="1353.68,-31.18 1344.56,-36.59 1355.05,-38.05 1353.68,-31.18"/>
</g>
</g>
</svg>
        <g id="navigator" transform="translate(0 0)" fill="#404254">
                <rect fill="#f2f5e9" fill-opacity="0.5" stroke="#606060" stroke-width=".5" x="0" y="0" width="60" height="60"/>
                <use id="zoomplus" xlink:href="#zoomPlus" x="17" y="9" onmousedown="handleZoom(evt,'in')"/>
                <use id="zoomminus" xlink:href="#zoomMin" x="42" y="9" onmousedown="handleZoom(evt,'out')"/>
                <use id="reset" xlink:href="#resetDef" x="30" y="36" onmousedown="handleReset()"/>
                <g id="arrowUp" xlink:href="#dirArrow" transform="translate(30 24)" onmousedown="handlePan(0,-1)">
                  <use xlink:href="#rim" fill="#404040">
                        <set attributeName="fill" to="#808080" begin="arrowUp.mouseover" end="arrowUp.mouseout"/>
                  </use>
                  <path fill="none" stroke="white" stroke-width="1.5" d="M0,-3.0v7 M-2.5,-0.5L0,-3.0L2.5,-0.5"/>
                </g>
                <g id="arrowRight" xlink:href="#dirArrow" transform="rotate(90) translate(36 -43)" onmousedown="handlePan(1,0)">
                  <use xlink:href="#rim" fill="#404040">
                        <set attributeName="fill" to="#808080" begin="arrowRight.mouseover" end="arrowRight.mouseout"/>
                  </use>
                  <path fill="none" stroke="white" stroke-width="1.5" d="M0,-3.0v7 M-2.5,-0.5L0,-3.0L2.5,-0.5"/>
                </g>
                <g id="arrowDown" xlink:href="#dirArrow" transform="rotate(180) translate(-30 -48)" onmousedown="handlePan(0,1)">
                  <use xlink:href="#rim" fill="#404040">
                        <set attributeName="fill" to="#808080" begin="arrowDown.mouseover" end="arrowDown.mouseout"/>
                  </use>
                  <path fill="none" stroke="white" stroke-width="1.5" d="M0,-3.0v7 M-2.5,-0.5L0,-3.0L2.5,-0.5"/>
                </g>
                <g id="arrowLeft" xlink:href="#dirArrow" transform="rotate(270) translate(-36 17)" onmousedown="handlePan(-1,0)">
                  <use xlink:href="#rim" fill="#404040">
                        <set attributeName="fill" to="#808080" begin="arrowLeft.mouseover" end="arrowLeft.mouseout"/>
                  </use>
                  <path fill="none" stroke="white" stroke-width="1.5" d="M0,-3.0v7 M-2.5,-0.5L0,-3.0L2.5,-0.5"/>
                </g>
        </g>
        <svg viewBox="0 0 15 15" width="100%" height="30px" preserveAspectRatio="xMaxYMin meet">
         <g id="arrow_out" transform="scale(0.3 0.3)">
          <a xlink:href="classNodalBCBase__inherit__graph_org.svg" target="_base">
           <rect id="button" ry="5" rx="5" y="6" x="6" height="38" width="38"
                fill="#f2f5e9" fill-opacity="0.5" stroke="#606060" stroke-width="1.0"/>
           <path id="arrow"
             d="M 11.500037,31.436501 C 11.940474,20.09759 22.043105,11.32322 32.158766,21.979434 L 37.068811,17.246167 C 37.068811,17.246167 37.088388,32 37.088388,32 L 22.160133,31.978069 C 22.160133,31.978069 26.997745,27.140456 26.997745,27.140456 C 18.528582,18.264221 13.291696,25.230495 11.500037,31.436501 z"
             style="fill:#404040;"/>
          </a>
         </g>
        </svg>
</svg>
