<?xml version="1.0" encoding="UTF-8" standalone="no"?>
<!DOCTYPE svg PUBLIC "-//W3C//DTD SVG 1.1//EN"
 "http://www.w3.org/Graphics/SVG/1.1/DTD/svg11.dtd">
<!-- Generated by graphviz version 7.0.5 (20221223.1930)
 -->
<!-- Title: FVOrthogonalBoundaryDiffusion Pages: 1 -->
<svg width="1184pt" height="711pt"
 viewBox="0.00 0.00 1184.00 711.00" xmlns="http://www.w3.org/2000/svg" xmlns:xlink="http://www.w3.org/1999/xlink">
<g id="graph0" class="graph" transform="scale(1 1) rotate(0) translate(4 707)">
<title>FVOrthogonalBoundaryDiffusion</title>
<!-- Node1 -->
<g id="node1" class="node">
<title>Node1</title>
<g id="a_node1"><a xlink:title="This class computes a boundary diffusion flux by taking the difference between a provided boundary va...">
<polygon fill="#999999" stroke="#666666" points="1176,-77 985,-77 985,-58 1176,-58 1176,-77"/>
<text text-anchor="middle" x="1080.5" y="-65" font-family="Courier,monospace" font-size="10.00">FVOrthogonalBoundaryDiffusion</text>
</a>
</g>
</g>
<!-- Node2 -->
<g id="node2" class="node">
<title>Node2</title>
<g id="a_node2"><a xlink:href="classFVFluxBC.html" target="_top" xlink:title="Provides an interface for computing residual contributions from finite volume numerical fluxes comput...">
<polygon fill="white" stroke="#666666" points="949,-77 884,-77 884,-58 949,-58 949,-77"/>
<text text-anchor="middle" x="916.5" y="-65" font-family="Courier,monospace" font-size="10.00">FVFluxBC</text>
</a>
</g>
</g>
<!-- Node2&#45;&gt;Node1 -->
<g id="edge1" class="edge">
<title>Node2&#45;&gt;Node1</title>
<path fill="none" stroke="#63b8ff" d="M960.53,-67.5C968.12,-67.5 976.29,-67.5 984.66,-67.5"/>
<polygon fill="#63b8ff" stroke="#63b8ff" points="960.63,-64 950.63,-67.5 960.63,-71 960.63,-64"/>
</g>
<!-- Node3 -->
<g id="node3" class="node">
<title>Node3</title>
<g id="a_node3"><a xlink:href="classFVBoundaryCondition.html" target="_top" xlink:title="Base class for creating new types of boundary conditions.">
<polygon fill="white" stroke="#666666" points="812,-395 681,-395 681,-376 812,-376 812,-395"/>
<text text-anchor="middle" x="746.5" y="-383" font-family="Courier,monospace" font-size="10.00">FVBoundaryCondition</text>
</a>
</g>
</g>
<!-- Node3&#45;&gt;Node2 -->
<g id="edge2" class="edge">
<title>Node3&#45;&gt;Node2</title>
<path fill="none" stroke="#63b8ff" d="M757.93,-365.76C790.08,-304.9 886.91,-121.62 910.35,-77.25"/>
<polygon fill="#63b8ff" stroke="#63b8ff" points="755,-363.82 753.42,-374.3 761.19,-367.09 755,-363.82"/>
</g>
<!-- Node4 -->
<g id="node4" class="node">
<title>Node4</title>
<g id="a_node4"><a xlink:href="classMooseObject.html" target="_top" xlink:title="Every object that can be built by the factory should be derived from this class.">
<polygon fill="white" stroke="#666666" points="546,-543 463,-543 463,-524 546,-524 546,-543"/>
<text text-anchor="middle" x="504.5" y="-531" font-family="Courier,monospace" font-size="10.00">MooseObject</text>
</a>
</g>
</g>
<!-- Node4&#45;&gt;Node3 -->
<g id="edge3" class="edge">
<title>Node4&#45;&gt;Node3</title>
<path fill="none" stroke="#63b8ff" d="M557.29,-530.52C574.43,-527.99 593.17,-523.48 609,-515.5 668.92,-485.32 720.4,-420.11 738.54,-395.33"/>
<polygon fill="#63b8ff" stroke="#63b8ff" points="557.28,-526.99 547.8,-531.72 558.16,-533.94 557.28,-526.99"/>
</g>
<!-- Node5 -->
<g id="node5" class="node">
<title>Node5</title>
<g id="a_node5"><a xlink:href="classMooseBase.html" target="_top" xlink:title="Base class for everything in MOOSE with a name and a type.">
<polygon fill="white" stroke="#666666" points="310,-521 239,-521 239,-502 310,-502 310,-521"/>
<text text-anchor="middle" x="274.5" y="-509" font-family="Courier,monospace" font-size="10.00">MooseBase</text>
</a>
</g>
</g>
<!-- Node5&#45;&gt;Node4 -->
<g id="edge4" class="edge">
<title>Node5&#45;&gt;Node4</title>
<path fill="none" stroke="#63b8ff" d="M321.53,-515.94C362.9,-519.93 423.09,-525.74 462.76,-529.57"/>
<polygon fill="#63b8ff" stroke="#63b8ff" points="321.92,-512.46 311.63,-514.99 321.25,-519.43 321.92,-512.46"/>
</g>
<!-- Node6 -->
<g id="node6" class="node">
<title>Node6</title>
<g id="a_node6"><a xlink:href="classMooseBaseParameterInterface.html" target="_top" xlink:title="Every object that can be built by the factory should be derived from this class.">
<polygon fill="white" stroke="#666666" points="364,-484 185,-484 185,-465 364,-465 364,-484"/>
<text text-anchor="middle" x="274.5" y="-472" font-family="Courier,monospace" font-size="10.00">MooseBaseParameterInterface</text>
</a>
</g>
</g>
<!-- Node6&#45;&gt;Node4 -->
<g id="edge5" class="edge">
<title>Node6&#45;&gt;Node4</title>
<path fill="none" stroke="#63b8ff" d="M346.31,-487.45C352.37,-489.23 358.34,-491.24 364,-493.5 381.41,-500.46 382.45,-508.89 400,-515.5 419.97,-523.02 443.3,-527.43 462.76,-530"/>
<polygon fill="#63b8ff" stroke="#63b8ff" points="347.38,-484.11 336.81,-484.87 345.55,-490.86 347.38,-484.11"/>
</g>
<!-- Node7 -->
<g id="node7" class="node">
<title>Node7</title>
<g id="a_node7"><a xlink:href="classMooseBaseErrorInterface.html" target="_top" xlink:title="Interface that provides APIs to output errors/warnings/info messages.">
<polygon fill="white" stroke="#666666" points="352,-447 197,-447 197,-428 352,-428 352,-447"/>
<text text-anchor="middle" x="274.5" y="-435" font-family="Courier,monospace" font-size="10.00">MooseBaseErrorInterface</text>
</a>
</g>
</g>
<!-- Node7&#45;&gt;Node4 -->
<g id="edge6" class="edge">
<title>Node7&#45;&gt;Node4</title>
<path fill="none" stroke="#63b8ff" d="M357.5,-452.39C359.74,-453.66 361.92,-455.02 364,-456.5 389.05,-474.28 374.6,-498.22 400,-515.5 418.24,-527.92 442.36,-532.62 462.73,-534.12"/>
<polygon fill="#63b8ff" stroke="#63b8ff" points="359.14,-449.3 348.61,-448.14 356.12,-455.61 359.14,-449.3"/>
</g>
<!-- Node8 -->
<g id="node8" class="node">
<title>Node8</title>
<g id="a_node8"><a xlink:href="classConsoleStreamInterface.html" target="_top" xlink:title="An inteface for the _console for outputting to the Console object.">
<polygon fill="white" stroke="#666666" points="149,-447 0,-447 0,-428 149,-428 149,-447"/>
<text text-anchor="middle" x="74.5" y="-435" font-family="Courier,monospace" font-size="10.00">ConsoleStreamInterface</text>
</a>
</g>
</g>
<!-- Node8&#45;&gt;Node7 -->
<g id="edge7" class="edge">
<title>Node8&#45;&gt;Node7</title>
<path fill="none" stroke="#63b8ff" d="M160.62,-437.5C172.62,-437.5 184.9,-437.5 196.73,-437.5"/>
<polygon fill="#63b8ff" stroke="#63b8ff" points="160.74,-434 150.74,-437.5 160.74,-441 160.74,-434"/>
</g>
<!-- Node9 -->
<g id="node9" class="node">
<title>Node9</title>
<g id="a_node9"><a xlink:title=" ">
<polygon fill="white" stroke="#666666" points="352,-607 197,-607 197,-588 352,-588 352,-607"/>
<text text-anchor="middle" x="274.5" y="-595" font-family="Courier,monospace" font-size="10.00">libMesh::ParallelObject</text>
</a>
</g>
</g>
<!-- Node9&#45;&gt;Node4 -->
<g id="edge8" class="edge">
<title>Node9&#45;&gt;Node4</title>
<path fill="none" stroke="#63b8ff" d="M348.79,-584.29C354.02,-582.58 359.14,-580.66 364,-578.5 382.03,-570.48 381.85,-560.25 400,-552.5 419.83,-544.04 443.36,-539.34 462.98,-536.73"/>
<polygon fill="#63b8ff" stroke="#63b8ff" points="348,-580.88 339.41,-587.07 349.99,-587.59 348,-580.88"/>
</g>
<!-- Node10 -->
<g id="node10" class="node">
<title>Node10</title>
<g id="a_node10"><a xlink:href="classDataFileInterface.html" target="_top" xlink:title=" ">
<polygon fill="white" stroke="#666666" points="337,-569.5 212,-569.5 212,-539.5 337,-539.5 337,-569.5"/>
<text text-anchor="start" x="220" y="-557.5" font-family="Courier,monospace" font-size="10.00">DataFileInterface&lt;</text>
<text text-anchor="middle" x="274.5" y="-546.5" font-family="Courier,monospace" font-size="10.00"> MooseObject &gt;</text>
</a>
</g>
</g>
<!-- Node10&#45;&gt;Node4 -->
<g id="edge9" class="edge">
<title>Node10&#45;&gt;Node4</title>
<path fill="none" stroke="#63b8ff" d="M348.18,-547.81C386.01,-544.32 430.86,-540.19 462.62,-537.27"/>
<polygon fill="#63b8ff" stroke="#63b8ff" points="348.34,-544.28 338.71,-548.68 348.99,-551.25 348.34,-544.28"/>
</g>
<!-- Node11 -->
<g id="node11" class="node">
<title>Node11</title>
<g id="a_node11"><a xlink:href="classBoundaryRestrictableRequired.html" target="_top" xlink:title="A class for requiring an object to be boundary restricted.">
<polygon fill="white" stroke="#666666" points="597,-506 412,-506 412,-487 597,-487 597,-506"/>
<text text-anchor="middle" x="504.5" y="-494" font-family="Courier,monospace" font-size="10.00">BoundaryRestrictableRequired</text>
</a>
</g>
</g>
<!-- Node11&#45;&gt;Node3 -->
<g id="edge10" class="edge">
<title>Node11&#45;&gt;Node3</title>
<path fill="none" stroke="#63b8ff" d="M594.74,-483.53C599.62,-482.03 604.41,-480.36 609,-478.5 660.82,-457.49 712.9,-414.53 734.77,-395.25"/>
<polygon fill="#63b8ff" stroke="#63b8ff" points="594.08,-480.08 585.39,-486.13 595.96,-486.82 594.08,-480.08"/>
</g>
<!-- Node12 -->
<g id="node12" class="node">
<title>Node12</title>
<g id="a_node12"><a xlink:href="classBoundaryRestrictable.html" target="_top" xlink:title="/class BoundaryRestrictable /brief Provides functionality for limiting the object to certain boundary...">
<polygon fill="white" stroke="#666666" points="343,-410 206,-410 206,-391 343,-391 343,-410"/>
<text text-anchor="middle" x="274.5" y="-398" font-family="Courier,monospace" font-size="10.00">BoundaryRestrictable</text>
</a>
</g>
</g>
<!-- Node12&#45;&gt;Node11 -->
<g id="edge11" class="edge">
<title>Node12&#45;&gt;Node11</title>
<path fill="none" stroke="#63b8ff" d="M353.69,-413.38C357.3,-415.17 360.76,-417.2 364,-419.5 389.05,-437.28 374.6,-461.22 400,-478.5 404.67,-481.68 409.73,-484.36 415.02,-486.6"/>
<polygon fill="#63b8ff" stroke="#63b8ff" points="355.16,-410.2 344.59,-409.53 352.43,-416.65 355.16,-410.2"/>
</g>
<!-- Node13 -->
<g id="node13" class="node">
<title>Node13</title>
<g id="a_node13"><a xlink:href="classSetupInterface.html" target="_top" xlink:title=" ">
<polygon fill="white" stroke="#666666" points="555,-469 454,-469 454,-450 555,-450 555,-469"/>
<text text-anchor="middle" x="504.5" y="-457" font-family="Courier,monospace" font-size="10.00">SetupInterface</text>
</a>
</g>
</g>
<!-- Node13&#45;&gt;Node3 -->
<g id="edge12" class="edge">
<title>Node13&#45;&gt;Node3</title>
<path fill="none" stroke="#63b8ff" d="M566.57,-451.15C580.64,-448.6 595.45,-445.41 609,-441.5 651.58,-429.22 698.95,-407.96 725.19,-395.47"/>
<polygon fill="#63b8ff" stroke="#63b8ff" points="566.24,-447.65 556.98,-452.8 567.42,-454.55 566.24,-447.65"/>
</g>
<!-- Node14 -->
<g id="node14" class="node">
<title>Node14</title>
<g id="a_node14"><a xlink:href="classFunctionInterface.html" target="_top" xlink:title="Interface for objects that need to use functions.">
<polygon fill="white" stroke="#666666" points="564,-432 445,-432 445,-413 564,-413 564,-432"/>
<text text-anchor="middle" x="504.5" y="-420" font-family="Courier,monospace" font-size="10.00">FunctionInterface</text>
</a>
</g>
</g>
<!-- Node14&#45;&gt;Node3 -->
<g id="edge13" class="edge">
<title>Node14&#45;&gt;Node3</title>
<path fill="none" stroke="#63b8ff" d="M575.23,-411.75C608.49,-406.62 648.04,-400.53 680.64,-395.5"/>
<polygon fill="#63b8ff" stroke="#63b8ff" points="575.06,-408.24 565.71,-413.22 576.12,-415.15 575.06,-408.24"/>
</g>
<!-- Node15 -->
<g id="node15" class="node">
<title>Node15</title>
<g id="a_node15"><a xlink:href="classDistributionInterface.html" target="_top" xlink:title="Interface for objects that need to use distributions.">
<polygon fill="white" stroke="#666666" points="576,-395 433,-395 433,-376 576,-376 576,-395"/>
<text text-anchor="middle" x="504.5" y="-383" font-family="Courier,monospace" font-size="10.00">DistributionInterface</text>
</a>
</g>
</g>
<!-- Node15&#45;&gt;Node3 -->
<g id="edge14" class="edge">
<title>Node15&#45;&gt;Node3</title>
<path fill="none" stroke="#63b8ff" d="M587.65,-385.5C618.02,-385.5 652,-385.5 680.62,-385.5"/>
<polygon fill="#63b8ff" stroke="#63b8ff" points="587.72,-382 577.72,-385.5 587.72,-389 587.72,-382"/>
</g>
<!-- Node16 -->
<g id="node16" class="node">
<title>Node16</title>
<g id="a_node16"><a xlink:href="classUserObjectInterface.html" target="_top" xlink:title="Interface for objects that need to use UserObjects.">
<polygon fill="white" stroke="#666666" points="570,-358 439,-358 439,-339 570,-339 570,-358"/>
<text text-anchor="middle" x="504.5" y="-346" font-family="Courier,monospace" font-size="10.00">UserObjectInterface</text>
</a>
</g>
</g>
<!-- Node16&#45;&gt;Node3 -->
<g id="edge15" class="edge">
<title>Node16&#45;&gt;Node3</title>
<path fill="none" stroke="#63b8ff" d="M581.22,-360.17C613.2,-365.1 650.06,-370.79 680.75,-375.52"/>
<polygon fill="#63b8ff" stroke="#63b8ff" points="582.04,-356.76 571.63,-358.69 580.98,-363.68 582.04,-356.76"/>
</g>
<!-- Node17 -->
<g id="node17" class="node">
<title>Node17</title>
<g id="a_node17"><a xlink:href="classTransientInterface.html" target="_top" xlink:title="Interface for objects that needs transient capabilities.">
<polygon fill="white" stroke="#666666" points="567,-321 442,-321 442,-302 567,-302 567,-321"/>
<text text-anchor="middle" x="504.5" y="-309" font-family="Courier,monospace" font-size="10.00">TransientInterface</text>
</a>
</g>
</g>
<!-- Node17&#45;&gt;Node3 -->
<g id="edge16" class="edge">
<title>Node17&#45;&gt;Node3</title>
<path fill="none" stroke="#63b8ff" d="M578.42,-322.97C588.76,-325.15 599.21,-327.66 609,-330.5 651.21,-342.74 698.32,-363.36 724.69,-375.58"/>
<polygon fill="#63b8ff" stroke="#63b8ff" points="579.25,-319.57 568.76,-321.03 577.87,-326.43 579.25,-319.57"/>
</g>
<!-- Node18 -->
<g id="node18" class="node">
<title>Node18</title>
<g id="a_node18"><a xlink:href="classPostprocessorInterface.html" target="_top" xlink:title="Interface class for classes which interact with Postprocessors.">
<polygon fill="white" stroke="#666666" points="579,-284 430,-284 430,-265 579,-265 579,-284"/>
<text text-anchor="middle" x="504.5" y="-272" font-family="Courier,monospace" font-size="10.00">PostprocessorInterface</text>
</a>
</g>
</g>
<!-- Node18&#45;&gt;Node3 -->
<g id="edge17" class="edge">
<title>Node18&#45;&gt;Node3</title>
<path fill="none" stroke="#63b8ff" d="M590.19,-287.04C596.65,-288.91 602.99,-291.05 609,-293.5 660.33,-314.44 712.25,-356.48 734.39,-375.61"/>
<polygon fill="#63b8ff" stroke="#63b8ff" points="591.26,-283.71 580.7,-284.55 589.48,-290.48 591.26,-283.71"/>
</g>
<!-- Node19 -->
<g id="node19" class="node">
<title>Node19</title>
<g id="a_node19"><a xlink:href="classVectorPostprocessorInterface.html" target="_top" xlink:title=" ">
<polygon fill="white" stroke="#666666" points="597,-247 412,-247 412,-228 597,-228 597,-247"/>
<text text-anchor="middle" x="504.5" y="-235" font-family="Courier,monospace" font-size="10.00">VectorPostprocessorInterface</text>
</a>
</g>
</g>
<!-- Node19&#45;&gt;Node3 -->
<g id="edge18" class="edge">
<title>Node19&#45;&gt;Node3</title>
<path fill="none" stroke="#63b8ff" d="M596.63,-251.08C600.89,-252.69 605.03,-254.49 609,-256.5 668.61,-286.73 720.28,-351.27 738.5,-375.78"/>
<polygon fill="#63b8ff" stroke="#63b8ff" points="597.89,-247.81 587.29,-247.93 595.65,-254.44 597.89,-247.81"/>
</g>
<!-- Node20 -->
<g id="node20" class="node">
<title>Node20</title>
<g id="a_node20"><a xlink:href="classGeometricSearchInterface.html" target="_top" xlink:title=" ">
<polygon fill="white" stroke="#666666" points="585,-210 424,-210 424,-191 585,-191 585,-210"/>
<text text-anchor="middle" x="504.5" y="-198" font-family="Courier,monospace" font-size="10.00">GeometricSearchInterface</text>
</a>
</g>
</g>
<!-- Node20&#45;&gt;Node3 -->
<g id="edge19" class="edge">
<title>Node20&#45;&gt;Node3</title>
<path fill="none" stroke="#63b8ff" d="M596.02,-213.08C600.53,-214.95 604.88,-217.08 609,-219.5 676.84,-259.44 725.58,-346.31 740.62,-375.62"/>
<polygon fill="#63b8ff" stroke="#63b8ff" points="597.3,-209.83 586.71,-209.7 594.92,-216.41 597.3,-209.83"/>
</g>
<!-- Node21 -->
<g id="node21" class="node">
<title>Node21</title>
<g id="a_node21"><a xlink:href="classMeshChangedInterface.html" target="_top" xlink:title="Interface for notifications that the mesh has changed.">
<polygon fill="white" stroke="#666666" points="573,-173 436,-173 436,-154 573,-154 573,-173"/>
<text text-anchor="middle" x="504.5" y="-161" font-family="Courier,monospace" font-size="10.00">MeshChangedInterface</text>
</a>
</g>
</g>
<!-- Node21&#45;&gt;Node3 -->
<g id="edge20" class="edge">
<title>Node21&#45;&gt;Node3</title>
<path fill="none" stroke="#63b8ff" d="M584.17,-170.98C592.96,-173.81 601.45,-177.55 609,-182.5 685.72,-232.79 730.15,-342.73 742.16,-375.86"/>
<polygon fill="#63b8ff" stroke="#63b8ff" points="585.38,-167.69 574.81,-168.38 583.51,-174.43 585.38,-167.69"/>
</g>
<!-- Node22 -->
<g id="node22" class="node">
<title>Node22</title>
<g id="a_node22"><a xlink:href="classTaggingInterface.html" target="_top" xlink:title=" ">
<polygon fill="white" stroke="#666666" points="561,-703 448,-703 448,-684 561,-684 561,-703"/>
<text text-anchor="middle" x="504.5" y="-691" font-family="Courier,monospace" font-size="10.00">TaggingInterface</text>
</a>
</g>
</g>
<!-- Node22&#45;&gt;Node3 -->
<g id="edge21" class="edge">
<title>Node22&#45;&gt;Node3</title>
<path fill="none" stroke="#63b8ff" d="M572.32,-690.72C585.45,-687.67 598.42,-682.63 609,-674.5 706.65,-599.41 737.59,-437.22 744.08,-395.47"/>
<polygon fill="#63b8ff" stroke="#63b8ff" points="571.94,-687.23 562.78,-692.55 573.26,-694.1 571.94,-687.23"/>
</g>
<!-- Node23 -->
<g id="node23" class="node">
<title>Node23</title>
<g id="a_node23"><a xlink:href="classMooseVariableInterface.html" target="_top" xlink:title=" ">
<polygon fill="white" stroke="#666666" points="579,-665.5 430,-665.5 430,-635.5 579,-635.5 579,-665.5"/>
<text text-anchor="start" x="438" y="-653.5" font-family="Courier,monospace" font-size="10.00">MooseVariableInterface</text>
<text text-anchor="middle" x="504.5" y="-642.5" font-family="Courier,monospace" font-size="10.00">&lt; Real &gt;</text>
</a>
</g>
</g>
<!-- Node23&#45;&gt;Node3 -->
<g id="edge22" class="edge">
<title>Node23&#45;&gt;Node3</title>
<path fill="none" stroke="#63b8ff" d="M589.6,-637.5C596.51,-634.53 603.09,-630.91 609,-626.5 693.17,-563.62 733.1,-432.51 742.99,-395.45"/>
<polygon fill="#63b8ff" stroke="#63b8ff" points="588.82,-634.05 580.7,-640.86 591.29,-640.6 588.82,-634.05"/>
</g>
<!-- Node24 -->
<g id="node24" class="node">
<title>Node24</title>
<g id="a_node24"><a xlink:href="classMooseVariableDependencyInterface.html" target="_top" xlink:title=" ">
<polygon fill="white" stroke="#666666" points="609,-136 400,-136 400,-117 609,-117 609,-136"/>
<text text-anchor="middle" x="504.5" y="-124" font-family="Courier,monospace" font-size="10.00">MooseVariableDependencyInterface</text>
</a>
</g>
</g>
<!-- Node24&#45;&gt;Node3 -->
<g id="edge23" class="edge">
<title>Node24&#45;&gt;Node3</title>
<path fill="none" stroke="#63b8ff" d="M602.86,-141.56C604.97,-142.78 607.02,-144.09 609,-145.5 694.58,-206.29 733.63,-338.71 743.13,-375.72"/>
<polygon fill="#63b8ff" stroke="#63b8ff" points="604.45,-138.45 593.94,-137.14 601.34,-144.72 604.45,-138.45"/>
</g>
<!-- Node29 -->
<g id="node29" class="node">
<title>Node29</title>
<g id="a_node29"><a xlink:href="classNeighborCoupleableMooseVariableDependencyIntermediateInterface.html" target="_top" xlink:title="Intermediate base class that ties together all the interfaces for getting MooseVariables with the Moo...">
<polygon fill="white" stroke="#666666" points="848,-104.5 645,-104.5 645,-74.5 848,-74.5 848,-104.5"/>
<text text-anchor="start" x="653" y="-92.5" font-family="Courier,monospace" font-size="10.00">NeighborCoupleableMooseVariable</text>
<text text-anchor="middle" x="746.5" y="-81.5" font-family="Courier,monospace" font-size="10.00">DependencyIntermediateInterface</text>
</a>
</g>
</g>
<!-- Node24&#45;&gt;Node29 -->
<g id="edge32" class="edge">
<title>Node24&#45;&gt;Node29</title>
<path fill="none" stroke="#63b8ff" d="M581.45,-114.79C601.65,-111.68 623.77,-108.27 645.06,-104.99"/>
<polygon fill="#63b8ff" stroke="#63b8ff" points="580.98,-111.32 571.63,-116.31 582.04,-118.24 580.98,-111.32"/>
</g>
<!-- Node25 -->
<g id="node25" class="node">
<title>Node25</title>
<g id="a_node25"><a xlink:href="classADFunctorInterface.html" target="_top" xlink:title="An interface for accessing Moose::Functors for systems that care about automatic differentiation,...">
<polygon fill="white" stroke="#666666" points="567,-617 442,-617 442,-598 567,-598 567,-617"/>
<text text-anchor="middle" x="504.5" y="-605" font-family="Courier,monospace" font-size="10.00">ADFunctorInterface</text>
</a>
</g>
</g>
<!-- Node25&#45;&gt;Node3 -->
<g id="edge24" class="edge">
<title>Node25&#45;&gt;Node3</title>
<path fill="none" stroke="#63b8ff" d="M578.27,-602.55C589.14,-599.68 599.77,-595.5 609,-589.5 686.16,-539.32 730.29,-428.59 742.2,-395.21"/>
<polygon fill="#63b8ff" stroke="#63b8ff" points="577.84,-599.06 568.86,-604.67 579.38,-605.89 577.84,-599.06"/>
</g>
<!-- Node26 -->
<g id="node26" class="node">
<title>Node26</title>
<g id="a_node26"><a xlink:href="classFunctorInterface.html" target="_top" xlink:title="An interface for accessing Moose::Functors.">
<polygon fill="white" stroke="#666666" points="331,-681 218,-681 218,-662 331,-662 331,-681"/>
<text text-anchor="middle" x="274.5" y="-669" font-family="Courier,monospace" font-size="10.00">FunctorInterface</text>
</a>
</g>
</g>
<!-- Node26&#45;&gt;Node25 -->
<g id="edge25" class="edge">
<title>Node26&#45;&gt;Node25</title>
<path fill="none" stroke="#63b8ff" d="M342.37,-661.23C349.82,-659.11 357.18,-656.56 364,-653.5 382.24,-645.31 381.68,-634.52 400,-626.5 412.97,-620.82 427.57,-616.84 441.63,-614.05"/>
<polygon fill="#63b8ff" stroke="#63b8ff" points="341.73,-657.78 332.91,-663.65 343.47,-664.56 341.73,-657.78"/>
</g>
<!-- Node27 -->
<g id="node27" class="node">
<title>Node27</title>
<g id="a_node27"><a xlink:href="classFaceArgProducerInterface.html" target="_top" xlink:title="An interface for producers of functor face arguments, e.g.">
<polygon fill="white" stroke="#666666" points="585,-580 424,-580 424,-561 585,-561 585,-580"/>
<text text-anchor="middle" x="504.5" y="-568" font-family="Courier,monospace" font-size="10.00">FaceArgProducerInterface</text>
</a>
</g>
</g>
<!-- Node27&#45;&gt;Node3 -->
<g id="edge26" class="edge">
<title>Node27&#45;&gt;Node3</title>
<path fill="none" stroke="#63b8ff" d="M596.02,-558.85C600.52,-557.01 604.88,-554.91 609,-552.5 677.22,-512.63 725.71,-425.04 740.65,-395.47"/>
<polygon fill="#63b8ff" stroke="#63b8ff" points="594.96,-555.51 586.71,-562.16 597.31,-562.1 594.96,-555.51"/>
</g>
<!-- Node28 -->
<g id="node28" class="node">
<title>Node28</title>
<g id="a_node28"><a xlink:href="classFaceArgInterface.html" target="_top" xlink:title="A base class interface for both producers and consumers of functor face arguments,...">
<polygon fill="white" stroke="#666666" points="331,-644 218,-644 218,-625 331,-625 331,-644"/>
<text text-anchor="middle" x="274.5" y="-632" font-family="Courier,monospace" font-size="10.00">FaceArgInterface</text>
</a>
</g>
</g>
<!-- Node28&#45;&gt;Node27 -->
<g id="edge27" class="edge">
<title>Node28&#45;&gt;Node27</title>
<path fill="none" stroke="#63b8ff" d="M342.37,-624.23C349.82,-622.11 357.18,-619.56 364,-616.5 382.24,-608.31 381.68,-597.52 400,-589.5 408.37,-585.84 417.42,-582.88 426.56,-580.49"/>
<polygon fill="#63b8ff" stroke="#63b8ff" points="341.73,-620.78 332.91,-626.65 343.47,-627.56 341.73,-620.78"/>
</g>
<!-- Node29&#45;&gt;Node2 -->
<g id="edge28" class="edge">
<title>Node29&#45;&gt;Node2</title>
<path fill="none" stroke="#63b8ff" d="M859.41,-74.84C868.15,-73.7 876.43,-72.62 883.81,-71.65"/>
<polygon fill="#63b8ff" stroke="#63b8ff" points="859.1,-71.36 849.64,-76.12 860.01,-78.3 859.1,-71.36"/>
</g>
<!-- Node30 -->
<g id="node30" class="node">
<title>Node30</title>
<g id="a_node30"><a xlink:href="classNeighborCoupleable.html" target="_top" xlink:title="Enhances Coupleable interface to also couple the values from neighbor elements.">
<polygon fill="white" stroke="#666666" points="567,-62 442,-62 442,-43 567,-43 567,-62"/>
<text text-anchor="middle" x="504.5" y="-50" font-family="Courier,monospace" font-size="10.00">NeighborCoupleable</text>
</a>
</g>
</g>
<!-- Node30&#45;&gt;Node29 -->
<g id="edge29" class="edge">
<title>Node30&#45;&gt;Node29</title>
<path fill="none" stroke="#63b8ff" d="M578.42,-63.74C599.48,-66.99 622.85,-70.59 645.26,-74.05"/>
<polygon fill="#63b8ff" stroke="#63b8ff" points="579.22,-60.32 568.8,-62.26 578.15,-67.24 579.22,-60.32"/>
</g>
<!-- Node31 -->
<g id="node31" class="node">
<title>Node31</title>
<g id="a_node31"><a xlink:href="classCoupleable.html" target="_top" xlink:title="Interface for objects that needs coupling capabilities.">
<polygon fill="white" stroke="#666666" points="313,-62 236,-62 236,-43 313,-43 313,-62"/>
<text text-anchor="middle" x="274.5" y="-50" font-family="Courier,monospace" font-size="10.00">Coupleable</text>
</a>
</g>
</g>
<!-- Node31&#45;&gt;Node30 -->
<g id="edge30" class="edge">
<title>Node31&#45;&gt;Node30</title>
<path fill="none" stroke="#63b8ff" d="M324.57,-52.5C358.9,-52.5 405.03,-52.5 441.84,-52.5"/>
<polygon fill="#63b8ff" stroke="#63b8ff" points="324.92,-49 314.92,-52.5 324.92,-56 324.92,-49"/>
</g>
<!-- Node32 -->
<g id="node32" class="node">
<title>Node32</title>
<g id="a_node32"><a xlink:href="classScalarCoupleable.html" target="_top" xlink:title="Interface for objects that needs scalar coupling capabilities.">
<polygon fill="white" stroke="#666666" points="561,-99 448,-99 448,-80 561,-80 561,-99"/>
<text text-anchor="middle" x="504.5" y="-87" font-family="Courier,monospace" font-size="10.00">ScalarCoupleable</text>
</a>
</g>
</g>
<!-- Node32&#45;&gt;Node29 -->
<g id="edge31" class="edge">
<title>Node32&#45;&gt;Node29</title>
<path fill="none" stroke="#63b8ff" d="M572.83,-89.5C595.12,-89.5 620.44,-89.5 644.68,-89.5"/>
<polygon fill="#63b8ff" stroke="#63b8ff" points="572.98,-86 562.98,-89.5 572.98,-93 572.98,-86"/>
</g>
<!-- Node33 -->
<g id="node33" class="node">
<title>Node33</title>
<g id="a_node33"><a xlink:href="classTwoMaterialPropertyInterface.html" target="_top" xlink:title="This interface is designed for DGKernel, InternalSideUserObject, InterfaceUserObject,...">
<polygon fill="white" stroke="#666666" points="839,-56 654,-56 654,-37 839,-37 839,-56"/>
<text text-anchor="middle" x="746.5" y="-44" font-family="Courier,monospace" font-size="10.00">TwoMaterialPropertyInterface</text>
</a>
</g>
</g>
<!-- Node33&#45;&gt;Node2 -->
<g id="edge33" class="edge">
<title>Node33&#45;&gt;Node2</title>
<path fill="none" stroke="#63b8ff" d="M838.34,-57.85C854.57,-59.88 870.46,-61.87 883.56,-63.51"/>
<polygon fill="#63b8ff" stroke="#63b8ff" points="838.93,-54.4 828.57,-56.63 838.06,-61.35 838.93,-54.4"/>
</g>
<!-- Node34 -->
<g id="node34" class="node">
<title>Node34</title>
<g id="a_node34"><a xlink:href="classMaterialPropertyInterface.html" target="_top" xlink:title="An interface for accessing Materials.">
<polygon fill="white" stroke="#666666" points="588,-25 421,-25 421,-6 588,-6 588,-25"/>
<text text-anchor="middle" x="504.5" y="-13" font-family="Courier,monospace" font-size="10.00">MaterialPropertyInterface</text>
</a>
</g>
</g>
<!-- Node34&#45;&gt;Node33 -->
<g id="edge34" class="edge">
<title>Node34&#45;&gt;Node33</title>
<path fill="none" stroke="#63b8ff" d="M594.17,-26.95C618.53,-30.1 644.74,-33.48 668.39,-36.54"/>
<polygon fill="#63b8ff" stroke="#63b8ff" points="594.63,-23.48 584.26,-25.67 593.73,-30.43 594.63,-23.48"/>
</g>
<!-- Node35 -->
<g id="node35" class="node">
<title>Node35</title>
<g id="a_node35"><a xlink:href="classFVFaceResidualObject.html" target="_top" xlink:title="Interface class for a finite volume residual object whose residuals are based on faces.">
<polygon fill="white" stroke="#666666" points="815,-19 678,-19 678,0 815,0 815,-19"/>
<text text-anchor="middle" x="746.5" y="-7" font-family="Courier,monospace" font-size="10.00">FVFaceResidualObject</text>
</a>
</g>
</g>
<!-- Node35&#45;&gt;Node2 -->
<g id="edge35" class="edge">
<title>Node35&#45;&gt;Node2</title>
<path fill="none" stroke="#63b8ff" d="M826.56,-21.81C833.9,-23.74 841.15,-25.96 848,-28.5 867.79,-35.85 888.53,-48.72 901.71,-57.66"/>
<polygon fill="#63b8ff" stroke="#63b8ff" points="827.4,-18.41 816.86,-19.45 825.75,-25.22 827.4,-18.41"/>
</g>
</g>
</svg>
