<?xml version="1.0" encoding="UTF-8" standalone="no"?>
<!DOCTYPE svg PUBLIC "-//W3C//DTD SVG 1.1//EN"
 "http://www.w3.org/Graphics/SVG/1.1/DTD/svg11.dtd">
<!-- Generated by graphviz version 7.0.5 (20221223.1930)
 -->
<!-- Title: RestartableDataReader Pages: 1 -->
<svg width="306pt" height="137pt"
 viewBox="0.00 0.00 306.00 137.00" xmlns="http://www.w3.org/2000/svg" xmlns:xlink="http://www.w3.org/1999/xlink">
<g id="graph0" class="graph" transform="scale(1 1) rotate(0) translate(4 133)">
<title>RestartableDataReader</title>
<!-- Node1 -->
<g id="node1" class="node">
<title>Node1</title>
<g id="a_node1"><a xlink:title="Reader for restartable data written by the RestartableDataWriter.">
<polygon fill="#999999" stroke="#666666" points="213,-19 70,-19 70,0 213,0 213,-19"/>
<text text-anchor="middle" x="141.5" y="-7" font-family="Courier,monospace" font-size="10.00">RestartableDataReader</text>
</a>
</g>
</g>
<!-- Node2 -->
<g id="node2" class="node">
<title>Node2</title>
<g id="a_node2"><a xlink:href="classRestartableDataIO.html" target="_top" xlink:title="Class for doing restart.">
<polygon fill="white" stroke="#666666" points="201,-74 82,-74 82,-55 201,-55 201,-74"/>
<text text-anchor="middle" x="141.5" y="-62" font-family="Courier,monospace" font-size="10.00">RestartableDataIO</text>
</a>
</g>
</g>
<!-- Node2&#45;&gt;Node1 -->
<g id="edge1" class="edge">
<title>Node2&#45;&gt;Node1</title>
<path fill="none" stroke="#63b8ff" d="M141.5,-43.35C141.5,-35.1 141.5,-25.97 141.5,-19.44"/>
<polygon fill="#63b8ff" stroke="#63b8ff" points="138,-43.23 141.5,-53.23 145,-43.23 138,-43.23"/>
</g>
<!-- Node3 -->
<g id="node3" class="node">
<title>Node3</title>
<g id="a_node3"><a xlink:href="classPerfGraphInterface.html" target="_top" xlink:title="Interface for objects interacting with the PerfGraph.">
<polygon fill="white" stroke="#666666" points="125,-129 0,-129 0,-110 125,-110 125,-129"/>
<text text-anchor="middle" x="62.5" y="-117" font-family="Courier,monospace" font-size="10.00">PerfGraphInterface</text>
</a>
</g>
</g>
<!-- Node3&#45;&gt;Node2 -->
<g id="edge2" class="edge">
<title>Node3&#45;&gt;Node2</title>
<path fill="none" stroke="#63b8ff" d="M85.32,-103.19C99.26,-93.84 116.6,-82.21 128.3,-74.36"/>
<polygon fill="#63b8ff" stroke="#63b8ff" points="83.51,-100.19 77.16,-108.67 87.41,-106 83.51,-100.19"/>
</g>
<!-- Node4 -->
<g id="node4" class="node">
<title>Node4</title>
<g id="a_node4"><a xlink:title=" ">
<polygon fill="white" stroke="#666666" points="298,-129 143,-129 143,-110 298,-110 298,-129"/>
<text text-anchor="middle" x="220.5" y="-117" font-family="Courier,monospace" font-size="10.00">libMesh::ParallelObject</text>
</a>
</g>
</g>
<!-- Node4&#45;&gt;Node2 -->
<g id="edge3" class="edge">
<title>Node4&#45;&gt;Node2</title>
<path fill="none" stroke="#63b8ff" d="M197.68,-103.19C183.74,-93.84 166.4,-82.21 154.7,-74.36"/>
<polygon fill="#63b8ff" stroke="#63b8ff" points="195.59,-106 205.84,-108.67 199.49,-100.19 195.59,-106"/>
</g>
</g>
</svg>
