<?xml version="1.0" encoding="UTF-8" standalone="no"?>
<!DOCTYPE svg PUBLIC "-//W3C//DTD SVG 1.1//EN"
 "http://www.w3.org/Graphics/SVG/1.1/DTD/svg11.dtd">
<!-- Generated by graphviz version 7.0.5 (20221223.1930)
 -->
<!-- Title: MooseEnum Pages: 1 -->
<svg width="145pt" height="137pt"
 viewBox="0.00 0.00 145.00 137.00" xmlns="http://www.w3.org/2000/svg" xmlns:xlink="http://www.w3.org/1999/xlink">
<g id="graph0" class="graph" transform="scale(1 1) rotate(0) translate(4 133)">
<title>MooseEnum</title>
<!-- Node1 -->
<g id="node1" class="node">
<title>Node1</title>
<g id="a_node1"><a xlink:title="This is a &quot;smart&quot; enum class intended to replace many of the shortcomings in the C++ enum type It sho...">
<polygon fill="#999999" stroke="#666666" points="104,-74 33,-74 33,-55 104,-55 104,-74"/>
<text text-anchor="middle" x="68.5" y="-62" font-family="Courier,monospace" font-size="10.00">MooseEnum</text>
</a>
</g>
</g>
<!-- Node3 -->
<g id="node3" class="node">
<title>Node3</title>
<g id="a_node3"><a xlink:href="classReporterProducerEnum.html" target="_top" xlink:title="MooseEnum designed for the ReporterContext objects to define how a ReporterValue can and is being pro...">
<polygon fill="white" stroke="#666666" points="137,-19 0,-19 0,0 137,0 137,-19"/>
<text text-anchor="middle" x="68.5" y="-7" font-family="Courier,monospace" font-size="10.00">ReporterProducerEnum</text>
</a>
</g>
</g>
<!-- Node1&#45;&gt;Node3 -->
<g id="edge2" class="edge">
<title>Node1&#45;&gt;Node3</title>
<path fill="none" stroke="#63b8ff" d="M68.5,-43.35C68.5,-35.1 68.5,-25.97 68.5,-19.44"/>
<polygon fill="#63b8ff" stroke="#63b8ff" points="65,-43.23 68.5,-53.23 72,-43.23 65,-43.23"/>
</g>
<!-- Node2 -->
<g id="node2" class="node">
<title>Node2</title>
<g id="a_node2"><a xlink:href="classMooseEnumBase.html" target="_top" xlink:title="The base class for both the MooseEnum and MultiMooseEnum classes.">
<polygon fill="white" stroke="#666666" points="116,-129 21,-129 21,-110 116,-110 116,-129"/>
<text text-anchor="middle" x="68.5" y="-117" font-family="Courier,monospace" font-size="10.00">MooseEnumBase</text>
</a>
</g>
</g>
<!-- Node2&#45;&gt;Node1 -->
<g id="edge1" class="edge">
<title>Node2&#45;&gt;Node1</title>
<path fill="none" stroke="#63b8ff" d="M68.5,-98.35C68.5,-90.1 68.5,-80.97 68.5,-74.44"/>
<polygon fill="#63b8ff" stroke="#63b8ff" points="65,-98.23 68.5,-108.23 72,-98.23 65,-98.23"/>
</g>
</g>
</svg>
