<?xml version="1.0" encoding="UTF-8" standalone="no"?>
<!DOCTYPE svg PUBLIC "-//W3C//DTD SVG 1.1//EN"
 "http://www.w3.org/Graphics/SVG/1.1/DTD/svg11.dtd">
<!-- Generated by graphviz version 7.0.5 (20221223.1930)
 -->
<!-- Title: Reporter Pages: 1 -->
<!--zoomable 908 -->
<svg id="main" version="1.1" xmlns="http://www.w3.org/2000/svg" xmlns:xlink="http://www.w3.org/1999/xlink" xml:space="preserve" onload="init(evt)">
<style type="text/css"><![CDATA[
.edge:hover path { stroke: red; }
.edge:hover polygon { stroke: red; fill: red; }
]]></style>
<script type="text/javascript"><![CDATA[
var edges = document.getElementsByTagName('g');
if (edges && edges.length) {
  for (var i=0;i<edges.length;i++) {
    if (edges[i].id.substr(0,4)=='edge') {
      edges[i].setAttribute('class','edge');
    }
  }
}
]]></script>
        <defs>
                <circle id="rim" cx="0" cy="0" r="7"/>
                <circle id="rim2" cx="0" cy="0" r="3.5"/>
                <g id="zoomPlus">
                        <use xlink:href="#rim" fill="#404040">
                                <set attributeName="fill" to="#808080" begin="zoomplus.mouseover" end="zoomplus.mouseout"/>
                        </use>
                        <path d="M-4,0h8M0,-4v8" fill="none" stroke="white" stroke-width="1.5" pointer-events="none"/>
                </g>
                <g id="zoomMin">
                        <use xlink:href="#rim" fill="#404040">
                                <set attributeName="fill" to="#808080" begin="zoomminus.mouseover" end="zoomminus.mouseout"/>
                        </use>
                        <path d="M-4,0h8" fill="none" stroke="white" stroke-width="1.5" pointer-events="none"/>
                </g>
                <g id="dirArrow">
                        <path fill="none" stroke="white" stroke-width="1.5" d="M0,-3.0v7 M-2.5,-0.5L0,-3.0L2.5,-0.5"/>
                </g>
               <g id="resetDef">
                       <use xlink:href="#rim2" fill="#404040">
                               <set attributeName="fill" to="#808080" begin="reset.mouseover" end="reset.mouseout"/>
                       </use>
               </g>
        </defs>

<script type="text/javascript">
var viewWidth = 795;
var viewHeight = 908;
var sectionId = 'dynsection-0';
</script>
<script xlink:href="svgpan.js"/>
<svg id="graph" class="graph">
<g id="viewport">
<title>Reporter</title>
<!-- Node1 -->
<g id="node1" class="node">
<title>Node1</title>
<g id="a_node1"><a xlink:title="Reporter objects allow for the declaration of arbitrary data types that are aggregate values for a si...">
<polygon fill="#999999" stroke="#666666" points="208,-637 143,-637 143,-618 208,-618 208,-637"/>
<text text-anchor="middle" x="175.5" y="-625" font-family="Courier,monospace" font-size="10.00">Reporter</text>
</a>
</g>
</g>
<!-- Node3 -->
<g id="node3" class="node">
<title>Node3</title>
<g id="a_node3"><a xlink:href="classElementReporter.html" target="_top" xlink:title=" ">
<polygon fill="white" stroke="#666666" points="351,-862 244,-862 244,-843 351,-843 351,-862"/>
<text text-anchor="middle" x="297.5" y="-850" font-family="Courier,monospace" font-size="10.00">ElementReporter</text>
</a>
</g>
</g>
<!-- Node1&#45;&gt;Node3 -->
<g id="edge2" class="edge">
<title>Node1&#45;&gt;Node3</title>
<path fill="none" stroke="#63b8ff" d="M184.11,-648.16C195.46,-678.03 218.25,-734.59 244,-779.5 257.67,-803.33 277.36,-828.9 288.33,-842.55"/>
<polygon fill="#63b8ff" stroke="#63b8ff" points="187.41,-647 180.63,-638.86 180.86,-649.45 187.41,-647"/>
</g>
<!-- Node6 -->
<g id="node6" class="node">
<title>Node6</title>
<g id="a_node6"><a xlink:href="classExecutioner.html" target="_top" xlink:title="Executioners are objects that do the actual work of solving your problem.">
<polygon fill="white" stroke="#666666" points="339,-770 256,-770 256,-751 339,-751 339,-770"/>
<text text-anchor="middle" x="297.5" y="-758" font-family="Courier,monospace" font-size="10.00">Executioner</text>
</a>
</g>
</g>
<!-- Node1&#45;&gt;Node6 -->
<g id="edge5" class="edge">
<title>Node1&#45;&gt;Node6</title>
<path fill="none" stroke="#8b1a1a" d="M193.01,-645.8C218.8,-674.38 267.75,-728.63 287.7,-750.75"/>
<polygon fill="#8b1a1a" stroke="#8b1a1a" points="195.83,-643.7 186.53,-638.62 190.63,-648.39 195.83,-643.7"/>
</g>
<!-- Node15 -->
<g id="node15" class="node">
<title>Node15</title>
<g id="a_node15"><a xlink:href="classGeneralReporter.html" target="_top" xlink:title="Reporter object that has a single execution of the &quot;execute&quot; method for for each execute flag.">
<polygon fill="white" stroke="#666666" points="351,-502 244,-502 244,-483 351,-483 351,-502"/>
<text text-anchor="middle" x="297.5" y="-490" font-family="Courier,monospace" font-size="10.00">GeneralReporter</text>
</a>
</g>
</g>
<!-- Node1&#45;&gt;Node15 -->
<g id="edge14" class="edge">
<title>Node1&#45;&gt;Node15</title>
<path fill="none" stroke="#63b8ff" d="M192.55,-609.44C218.18,-580.61 267.5,-525.12 287.62,-502.49"/>
<polygon fill="#63b8ff" stroke="#63b8ff" points="190.16,-606.86 186.14,-616.66 195.4,-611.51 190.16,-606.86"/>
</g>
<!-- Node42 -->
<g id="node42" class="node">
<title>Node42</title>
<g id="a_node42"><a xlink:href="classNodalReporter.html" target="_top" xlink:title=" ">
<polygon fill="white" stroke="#666666" points="345,-290 250,-290 250,-271 345,-271 345,-290"/>
<text text-anchor="middle" x="297.5" y="-278" font-family="Courier,monospace" font-size="10.00">NodalReporter</text>
</a>
</g>
</g>
<!-- Node1&#45;&gt;Node42 -->
<g id="edge41" class="edge">
<title>Node1&#45;&gt;Node42</title>
<path fill="none" stroke="#63b8ff" d="M183.47,-607.34C206.08,-541.98 276.82,-337.41 293.12,-290.26"/>
<polygon fill="#63b8ff" stroke="#63b8ff" points="180.29,-605.83 180.33,-616.43 186.91,-608.12 180.29,-605.83"/>
</g>
<!-- Node2 -->
<g id="node2" class="node">
<title>Node2</title>
<g id="a_node2"><a xlink:href="classOutputInterface.html" target="_top" xlink:title="A class to provide an common interface to objects requiring &quot;outputs&quot; option.">
<polygon fill="white" stroke="#666666" points="107,-637 0,-637 0,-618 107,-618 107,-637"/>
<text text-anchor="middle" x="53.5" y="-625" font-family="Courier,monospace" font-size="10.00">OutputInterface</text>
</a>
</g>
</g>
<!-- Node2&#45;&gt;Node1 -->
<g id="edge1" class="edge">
<title>Node2&#45;&gt;Node1</title>
<path fill="none" stroke="#63b8ff" d="M118.84,-627.5C127.16,-627.5 135.36,-627.5 142.81,-627.5"/>
<polygon fill="#63b8ff" stroke="#63b8ff" points="119,-624 109,-627.5 119,-631 119,-624"/>
</g>
<!-- Node4 -->
<g id="node4" class="node">
<title>Node4</title>
<g id="a_node4"><a xlink:href="classElementStatistics.html" target="_top" xlink:title=" ">
<polygon fill="white" stroke="#666666" points="533,-900 414,-900 414,-881 533,-881 533,-900"/>
<text text-anchor="middle" x="473.5" y="-888" font-family="Courier,monospace" font-size="10.00">ElementStatistics</text>
</a>
</g>
</g>
<!-- Node3&#45;&gt;Node4 -->
<g id="edge3" class="edge">
<title>Node3&#45;&gt;Node4</title>
<path fill="none" stroke="#63b8ff" d="M353.12,-864.98C364.32,-867.5 376.03,-870.11 387,-872.5 399.15,-875.15 412.29,-877.95 424.54,-880.53"/>
<polygon fill="#63b8ff" stroke="#63b8ff" points="354.14,-861.62 343.61,-862.83 352.59,-868.45 354.14,-861.62"/>
</g>
<!-- Node5 -->
<g id="node5" class="node">
<title>Node5</title>
<g id="a_node5"><a xlink:href="classElementVariableStatistics.html" target="_top" xlink:title=" ">
<polygon fill="white" stroke="#666666" points="775,-900 608,-900 608,-881 775,-881 775,-900"/>
<text text-anchor="middle" x="691.5" y="-888" font-family="Courier,monospace" font-size="10.00">ElementVariableStatistics</text>
</a>
</g>
</g>
<!-- Node4&#45;&gt;Node5 -->
<g id="edge4" class="edge">
<title>Node4&#45;&gt;Node5</title>
<path fill="none" stroke="#63b8ff" d="M544.55,-890.5C564.75,-890.5 586.98,-890.5 607.87,-890.5"/>
<polygon fill="#63b8ff" stroke="#63b8ff" points="544.75,-887 534.75,-890.5 544.75,-894 544.75,-887"/>
</g>
<!-- Node7 -->
<g id="node7" class="node">
<title>Node7</title>
<g id="a_node7"><a xlink:href="classEigenExecutionerBase.html" target="_top" xlink:title="This class provides reusable routines for eigenvalue executioners.">
<polygon fill="white" stroke="#666666" points="542,-863 405,-863 405,-844 542,-844 542,-863"/>
<text text-anchor="middle" x="473.5" y="-851" font-family="Courier,monospace" font-size="10.00">EigenExecutionerBase</text>
</a>
</g>
</g>
<!-- Node6&#45;&gt;Node7 -->
<g id="edge6" class="edge">
<title>Node6&#45;&gt;Node7</title>
<path fill="none" stroke="#63b8ff" d="M314.53,-778.5C330.98,-795.82 358.2,-821.4 387,-835.5 393.54,-838.7 400.63,-841.34 407.84,-843.5"/>
<polygon fill="#63b8ff" stroke="#63b8ff" points="317.33,-776.38 307.98,-771.41 312.19,-781.13 317.33,-776.38"/>
</g>
<!-- Node10 -->
<g id="node10" class="node">
<title>Node10</title>
<g id="a_node10"><a xlink:href="classEigenvalue.html" target="_top" xlink:title="Eigenvalue executioner is used to drive the eigenvalue calculations.">
<polygon fill="white" stroke="#666666" points="512,-826 435,-826 435,-807 512,-807 512,-826"/>
<text text-anchor="middle" x="473.5" y="-814" font-family="Courier,monospace" font-size="10.00">Eigenvalue</text>
</a>
</g>
</g>
<!-- Node6&#45;&gt;Node10 -->
<g id="edge9" class="edge">
<title>Node6&#45;&gt;Node10</title>
<path fill="none" stroke="#63b8ff" d="M328.78,-775.27C345.61,-783.03 367.12,-792.21 387,-798.5 402.33,-803.35 419.62,-807.27 434.63,-810.2"/>
<polygon fill="#63b8ff" stroke="#63b8ff" points="330.36,-772.15 319.82,-771.07 327.39,-778.48 330.36,-772.15"/>
</g>
<!-- Node11 -->
<g id="node11" class="node">
<title>Node11</title>
<g id="a_node11"><a xlink:href="classExecutor.html" target="_top" xlink:title="The Executor class directs the execution flow of simulations.">
<polygon fill="white" stroke="#666666" points="506,-789 441,-789 441,-770 506,-770 506,-789"/>
<text text-anchor="middle" x="473.5" y="-777" font-family="Courier,monospace" font-size="10.00">Executor</text>
</a>
</g>
</g>
<!-- Node6&#45;&gt;Node11 -->
<g id="edge10" class="edge">
<title>Node6&#45;&gt;Node11</title>
<path fill="none" stroke="#63b8ff" d="M350.59,-766.19C379.87,-769.39 415.49,-773.27 440.65,-776.02"/>
<polygon fill="#63b8ff" stroke="#63b8ff" points="351.12,-762.73 340.8,-765.12 350.36,-769.68 351.12,-762.73"/>
</g>
<!-- Node13 -->
<g id="node13" class="node">
<title>Node13</title>
<g id="a_node13"><a xlink:href="classSteady.html" target="_top" xlink:title="Steady executioners usually only call &quot;solve()&quot; on the NonlinearSystem once.">
<polygon fill="white" stroke="#666666" points="500,-752 447,-752 447,-733 500,-733 500,-752"/>
<text text-anchor="middle" x="473.5" y="-740" font-family="Courier,monospace" font-size="10.00">Steady</text>
</a>
</g>
</g>
<!-- Node6&#45;&gt;Node13 -->
<g id="edge12" class="edge">
<title>Node6&#45;&gt;Node13</title>
<path fill="none" stroke="#63b8ff" d="M350.59,-755.11C382.24,-751.84 421.3,-747.8 446.54,-745.19"/>
<polygon fill="#63b8ff" stroke="#63b8ff" points="350.39,-751.61 340.8,-756.12 351.11,-758.58 350.39,-751.61"/>
</g>
<!-- Node14 -->
<g id="node14" class="node">
<title>Node14</title>
<g id="a_node14"><a xlink:href="classTransient.html" target="_top" xlink:title="Transient executioners usually loop through a number of timesteps... calling solve() for each timeste...">
<polygon fill="white" stroke="#666666" points="509,-715 438,-715 438,-696 509,-696 509,-715"/>
<text text-anchor="middle" x="473.5" y="-703" font-family="Courier,monospace" font-size="10.00">Transient</text>
</a>
</g>
</g>
<!-- Node6&#45;&gt;Node14 -->
<g id="edge13" class="edge">
<title>Node6&#45;&gt;Node14</title>
<path fill="none" stroke="#63b8ff" d="M330.22,-746.09C346.88,-738.9 367.78,-730.5 387,-724.5 403.4,-719.38 421.98,-715.08 437.62,-711.87"/>
<polygon fill="#63b8ff" stroke="#63b8ff" points="329.09,-742.76 321.34,-749.98 331.9,-749.17 329.09,-742.76"/>
</g>
<!-- Node8 -->
<g id="node8" class="node">
<title>Node8</title>
<g id="a_node8"><a xlink:href="classInversePowerMethod.html" target="_top" xlink:title=" ">
<polygon fill="white" stroke="#666666" points="754,-863 629,-863 629,-844 754,-844 754,-863"/>
<text text-anchor="middle" x="691.5" y="-851" font-family="Courier,monospace" font-size="10.00">InversePowerMethod</text>
</a>
</g>
</g>
<!-- Node7&#45;&gt;Node8 -->
<g id="edge7" class="edge">
<title>Node7&#45;&gt;Node8</title>
<path fill="none" stroke="#63b8ff" d="M553.49,-853.5C578.34,-853.5 605.4,-853.5 628.86,-853.5"/>
<polygon fill="#63b8ff" stroke="#63b8ff" points="553.76,-850 543.76,-853.5 553.76,-857 553.76,-850"/>
</g>
<!-- Node9 -->
<g id="node9" class="node">
<title>Node9</title>
<g id="a_node9"><a xlink:href="classNonlinearEigen.html" target="_top" xlink:title=" ">
<polygon fill="white" stroke="#666666" points="742,-826 641,-826 641,-807 742,-807 742,-826"/>
<text text-anchor="middle" x="691.5" y="-814" font-family="Courier,monospace" font-size="10.00">NonlinearEigen</text>
</a>
</g>
</g>
<!-- Node7&#45;&gt;Node9 -->
<g id="edge8" class="edge">
<title>Node7&#45;&gt;Node9</title>
<path fill="none" stroke="#63b8ff" d="M544.01,-841.59C575.49,-836.2 611.98,-829.95 640.66,-825.04"/>
<polygon fill="#63b8ff" stroke="#63b8ff" points="543.43,-838.14 534.16,-843.28 544.61,-845.04 543.43,-838.14"/>
</g>
<!-- Node12 -->
<g id="node12" class="node">
<title>Node12</title>
<g id="a_node12"><a xlink:href="classNullExecutor.html" target="_top" xlink:title=" ">
<polygon fill="white" stroke="#666666" points="736,-789 647,-789 647,-770 736,-770 736,-789"/>
<text text-anchor="middle" x="691.5" y="-777" font-family="Courier,monospace" font-size="10.00">NullExecutor</text>
</a>
</g>
</g>
<!-- Node11&#45;&gt;Node12 -->
<g id="edge11" class="edge">
<title>Node11&#45;&gt;Node12</title>
<path fill="none" stroke="#63b8ff" d="M517.41,-779.5C554.8,-779.5 608.8,-779.5 646.51,-779.5"/>
<polygon fill="#63b8ff" stroke="#63b8ff" points="517.89,-776 507.89,-779.5 517.89,-783 517.89,-776"/>
</g>
<!-- Node16 -->
<g id="node16" class="node">
<title>Node16</title>
<g id="a_node16"><a xlink:href="classAccumulateReporter.html" target="_top" xlink:title=" ">
<polygon fill="white" stroke="#666666" points="536,-678 411,-678 411,-659 536,-659 536,-678"/>
<text text-anchor="middle" x="473.5" y="-666" font-family="Courier,monospace" font-size="10.00">AccumulateReporter</text>
</a>
</g>
</g>
<!-- Node15&#45;&gt;Node16 -->
<g id="edge15" class="edge">
<title>Node15&#45;&gt;Node16</title>
<path fill="none" stroke="#63b8ff" d="M304.22,-513.44C314.68,-547.56 340.22,-614.81 387,-649.5 394.08,-654.75 402.35,-658.6 410.89,-661.41"/>
<polygon fill="#63b8ff" stroke="#63b8ff" points="307.62,-512.57 301.46,-503.95 300.89,-514.53 307.62,-512.57"/>
</g>
<!-- Node17 -->
<g id="node17" class="node">
<title>Node17</title>
<g id="a_node17"><a xlink:href="classConstantReporter.html" target="_top" xlink:title=" ">
<polygon fill="white" stroke="#666666" points="530,-641 417,-641 417,-622 530,-622 530,-641"/>
<text text-anchor="middle" x="473.5" y="-629" font-family="Courier,monospace" font-size="10.00">ConstantReporter</text>
</a>
</g>
</g>
<!-- Node15&#45;&gt;Node17 -->
<g id="edge16" class="edge">
<title>Node15&#45;&gt;Node17</title>
<path fill="none" stroke="#63b8ff" d="M307.67,-512.7C321.07,-539.84 348.65,-587.54 387,-612.5 395.92,-618.31 406.36,-622.36 416.81,-625.18"/>
<polygon fill="#63b8ff" stroke="#63b8ff" points="310.9,-511.36 303.45,-503.83 304.58,-514.36 310.9,-511.36"/>
</g>
<!-- Node18 -->
<g id="node18" class="node">
<title>Node18</title>
<g id="a_node18"><a xlink:href="classExtraIDIntegralReporter.html" target="_top" xlink:title=" ">
<polygon fill="white" stroke="#666666" points="551,-604 396,-604 396,-585 551,-585 551,-604"/>
<text text-anchor="middle" x="473.5" y="-592" font-family="Courier,monospace" font-size="10.00">ExtraIDIntegralReporter</text>
</a>
</g>
</g>
<!-- Node15&#45;&gt;Node18 -->
<g id="edge17" class="edge">
<title>Node15&#45;&gt;Node18</title>
<path fill="none" stroke="#63b8ff" d="M313.17,-511.22C329.22,-530.36 356.73,-559.51 387,-575.5 393.99,-579.19 401.67,-582.17 409.47,-584.57"/>
<polygon fill="#63b8ff" stroke="#63b8ff" points="316.04,-509.2 307.01,-503.65 310.61,-513.62 316.04,-509.2"/>
</g>
<!-- Node19 -->
<g id="node19" class="node">
<title>Node19</title>
<g id="a_node19"><a xlink:href="classIterationInfo.html" target="_top" xlink:title="Report the time and iteration information for the simulation.">
<polygon fill="white" stroke="#666666" points="521,-567 426,-567 426,-548 521,-548 521,-567"/>
<text text-anchor="middle" x="473.5" y="-555" font-family="Courier,monospace" font-size="10.00">IterationInfo</text>
</a>
</g>
</g>
<!-- Node15&#45;&gt;Node19 -->
<g id="edge18" class="edge">
<title>Node15&#45;&gt;Node19</title>
<path fill="none" stroke="#63b8ff" d="M324.41,-508.26C341.63,-518.15 365.04,-530.51 387,-538.5 399.29,-542.97 412.97,-546.58 425.72,-549.41"/>
<polygon fill="#63b8ff" stroke="#63b8ff" points="326.25,-505.29 315.86,-503.25 322.71,-511.32 326.25,-505.29"/>
</g>
<!-- Node20 -->
<g id="node20" class="node">
<title>Node20</title>
<g id="a_node20"><a xlink:href="classLibtorchArtificialNeuralNetParameters.html" target="_top" xlink:title="A Reporter which can print the parameter values of a LibtorchArtificialNeuralNetwork from within a Co...">
<polygon fill="white" stroke="#666666" points="554,-529.5 393,-529.5 393,-499.5 554,-499.5 554,-529.5"/>
<text text-anchor="start" x="401" y="-517.5" font-family="Courier,monospace" font-size="10.00">LibtorchArtificialNeural</text>
<text text-anchor="middle" x="473.5" y="-506.5" font-family="Courier,monospace" font-size="10.00">NetParameters</text>
</a>
</g>
</g>
<!-- Node15&#45;&gt;Node20 -->
<g id="edge19" class="edge">
<title>Node15&#45;&gt;Node20</title>
<path fill="none" stroke="#63b8ff" d="M362.49,-500.59C372.33,-501.83 382.58,-503.13 392.71,-504.41"/>
<polygon fill="#63b8ff" stroke="#63b8ff" points="363.04,-497.13 352.68,-499.35 362.16,-504.08 363.04,-497.13"/>
</g>
<!-- Node21 -->
<g id="node21" class="node">
<title>Node21</title>
<g id="a_node21"><a xlink:href="classMeshInfo.html" target="_top" xlink:title="Report mesh information, such as the number of elements, nodes, and degrees of freedom.">
<polygon fill="white" stroke="#666666" points="506,-481 441,-481 441,-462 506,-462 506,-481"/>
<text text-anchor="middle" x="473.5" y="-469" font-family="Courier,monospace" font-size="10.00">MeshInfo</text>
</a>
</g>
</g>
<!-- Node15&#45;&gt;Node21 -->
<g id="edge20" class="edge">
<title>Node15&#45;&gt;Node21</title>
<path fill="none" stroke="#63b8ff" d="M362.39,-484.79C389.06,-481.57 418.86,-477.97 440.73,-475.33"/>
<polygon fill="#63b8ff" stroke="#63b8ff" points="362.19,-481.29 352.68,-485.96 363.03,-488.24 362.19,-481.29"/>
</g>
<!-- Node22 -->
<g id="node22" class="node">
<title>Node22</title>
<g id="a_node22"><a xlink:href="classPerfGraphReporter.html" target="_top" xlink:title="Reports the full graph from the PerfGraph.">
<polygon fill="white" stroke="#666666" points="533,-444 414,-444 414,-425 533,-425 533,-444"/>
<text text-anchor="middle" x="473.5" y="-432" font-family="Courier,monospace" font-size="10.00">PerfGraphReporter</text>
</a>
</g>
</g>
<!-- Node15&#45;&gt;Node22 -->
<g id="edge21" class="edge">
<title>Node15&#45;&gt;Node22</title>
<path fill="none" stroke="#63b8ff" d="M327.22,-477.6C344.24,-469.26 366.43,-459.23 387,-452.5 396.37,-449.44 406.5,-446.77 416.39,-444.49"/>
<polygon fill="#63b8ff" stroke="#63b8ff" points="326.09,-474.25 318.71,-481.85 329.22,-480.51 326.09,-474.25"/>
</g>
<!-- Node23 -->
<g id="node23" class="node">
<title>Node23</title>
<g id="a_node23"><a xlink:href="classPositions.html" target="_top" xlink:title="Positions objects are under the hood Reporters.">
<polygon fill="white" stroke="#666666" points="509,-407 438,-407 438,-388 509,-388 509,-407"/>
<text text-anchor="middle" x="473.5" y="-395" font-family="Courier,monospace" font-size="10.00">Positions</text>
</a>
</g>
</g>
<!-- Node15&#45;&gt;Node23 -->
<g id="edge22" class="edge">
<title>Node15&#45;&gt;Node23</title>
<path fill="none" stroke="#63b8ff" d="M314.17,-474.29C330.52,-456.5 357.81,-430.03 387,-415.5 402.75,-407.66 421.79,-403.23 437.89,-400.73"/>
<polygon fill="#63b8ff" stroke="#63b8ff" points="311.72,-471.78 307.67,-481.57 316.94,-476.44 311.72,-471.78"/>
</g>
<!-- Node31 -->
<g id="node31" class="node">
<title>Node31</title>
<g id="a_node31"><a xlink:href="classRestartableDataReporter.html" target="_top" xlink:title="Reports restartable data and restartable meta data.">
<polygon fill="white" stroke="#666666" points="551,-370 396,-370 396,-351 551,-351 551,-370"/>
<text text-anchor="middle" x="473.5" y="-358" font-family="Courier,monospace" font-size="10.00">RestartableDataReporter</text>
</a>
</g>
</g>
<!-- Node15&#45;&gt;Node31 -->
<g id="edge30" class="edge">
<title>Node15&#45;&gt;Node31</title>
<path fill="none" stroke="#63b8ff" d="M308.29,-472.51C322.09,-446.54 349.81,-401.77 387,-378.5 392.14,-375.28 397.77,-372.63 403.6,-370.45"/>
<polygon fill="#63b8ff" stroke="#63b8ff" points="305.22,-470.83 303.78,-481.33 311.45,-474.02 305.22,-470.83"/>
</g>
<!-- Node33 -->
<g id="node33" class="node">
<title>Node33</title>
<g id="a_node33"><a xlink:href="classSolutionInvalidityReporter.html" target="_top" xlink:title="Reports the summary table of solution invalid warnings.">
<polygon fill="white" stroke="#666666" points="560,-333 387,-333 387,-314 560,-314 560,-333"/>
<text text-anchor="middle" x="473.5" y="-321" font-family="Courier,monospace" font-size="10.00">SolutionInvalidityReporter</text>
</a>
</g>
</g>
<!-- Node15&#45;&gt;Node33 -->
<g id="edge32" class="edge">
<title>Node15&#45;&gt;Node33</title>
<path fill="none" stroke="#63b8ff" d="M304.42,-472.29C315.16,-439.37 341.1,-374.55 387,-341.5 391.43,-338.31 396.31,-335.66 401.42,-333.46"/>
<polygon fill="#63b8ff" stroke="#63b8ff" points="301.21,-470.82 301.59,-481.41 307.9,-472.89 301.21,-470.82"/>
</g>
<!-- Node34 -->
<g id="node34" class="node">
<title>Node34</title>
<g id="a_node34"><a xlink:href="classTimes.html" target="_top" xlink:title="Times objects are under the hood Reporters, but limited to a vector of Real.">
<polygon fill="white" stroke="#666666" points="497,-185 450,-185 450,-166 497,-166 497,-185"/>
<text text-anchor="middle" x="473.5" y="-173" font-family="Courier,monospace" font-size="10.00">Times</text>
</a>
</g>
</g>
<!-- Node15&#45;&gt;Node34 -->
<g id="edge33" class="edge">
<title>Node15&#45;&gt;Node34</title>
<path fill="none" stroke="#63b8ff" d="M306.72,-472.64C321.37,-437.81 353.62,-363.81 387,-304.5 413.09,-258.14 449.97,-206.32 465.34,-185.23"/>
<polygon fill="#63b8ff" stroke="#63b8ff" points="303.65,-470.89 303.03,-481.47 310.11,-473.59 303.65,-470.89"/>
</g>
<!-- Node24 -->
<g id="node24" class="node">
<title>Node24</title>
<g id="a_node24"><a xlink:href="classElementCentroidPositions.html" target="_top" xlink:title="Positions from centroids of elements in the mesh.">
<polygon fill="white" stroke="#666666" points="772,-574 611,-574 611,-555 772,-555 772,-574"/>
<text text-anchor="middle" x="691.5" y="-562" font-family="Courier,monospace" font-size="10.00">ElementCentroidPositions</text>
</a>
</g>
</g>
<!-- Node23&#45;&gt;Node24 -->
<g id="edge23" class="edge">
<title>Node23&#45;&gt;Node24</title>
<path fill="none" stroke="#63b8ff" d="M520.39,-398.1C534.63,-400.48 549.36,-405.5 560,-415.5 603.7,-456.54 552.11,-504.65 596,-545.5 600.41,-549.6 605.45,-552.93 610.85,-555.62"/>
<polygon fill="#63b8ff" stroke="#63b8ff" points="521.02,-394.65 510.67,-396.9 520.16,-401.6 521.02,-394.65"/>
</g>
<!-- Node25 -->
<g id="node25" class="node">
<title>Node25</title>
<g id="a_node25"><a xlink:href="classElementGroupCentroidPositions.html" target="_top" xlink:title="Positions from centroids of groups of elements (subdomains, extra element ids) in the mesh.">
<polygon fill="white" stroke="#666666" points="787,-537 596,-537 596,-518 787,-518 787,-537"/>
<text text-anchor="middle" x="691.5" y="-525" font-family="Courier,monospace" font-size="10.00">ElementGroupCentroidPositions</text>
</a>
</g>
</g>
<!-- Node23&#45;&gt;Node25 -->
<g id="edge24" class="edge">
<title>Node23&#45;&gt;Node25</title>
<path fill="none" stroke="#63b8ff" d="M520.18,-398.79C534.27,-401.23 548.96,-406.12 560,-415.5 593.77,-444.2 562.1,-479.95 596,-508.5 600.35,-512.17 605.21,-515.19 610.38,-517.69"/>
<polygon fill="#63b8ff" stroke="#63b8ff" points="520.96,-395.37 510.59,-397.52 520.04,-402.31 520.96,-395.37"/>
</g>
<!-- Node26 -->
<g id="node26" class="node">
<title>Node26</title>
<g id="a_node26"><a xlink:href="classFilePositions.html" target="_top" xlink:title="Positions from a file.">
<polygon fill="white" stroke="#666666" points="739,-500 644,-500 644,-481 739,-481 739,-500"/>
<text text-anchor="middle" x="691.5" y="-488" font-family="Courier,monospace" font-size="10.00">FilePositions</text>
</a>
</g>
</g>
<!-- Node23&#45;&gt;Node26 -->
<g id="edge25" class="edge">
<title>Node23&#45;&gt;Node26</title>
<path fill="none" stroke="#63b8ff" d="M520.58,-400.43C534.18,-403.01 548.49,-407.56 560,-415.5 584.36,-432.29 571.56,-454.82 596,-471.5 609.96,-481.03 627.61,-486 643.87,-488.52"/>
<polygon fill="#63b8ff" stroke="#63b8ff" points="521.32,-397 510.9,-398.93 520.24,-403.92 521.32,-397"/>
</g>
<!-- Node27 -->
<g id="node27" class="node">
<title>Node27</title>
<g id="a_node27"><a xlink:href="classFunctorPositions.html" target="_top" xlink:title="Positions from groups of three functors.">
<polygon fill="white" stroke="#666666" points="748,-463 635,-463 635,-444 748,-444 748,-463"/>
<text text-anchor="middle" x="691.5" y="-451" font-family="Courier,monospace" font-size="10.00">FunctorPositions</text>
</a>
</g>
</g>
<!-- Node23&#45;&gt;Node27 -->
<g id="edge26" class="edge">
<title>Node23&#45;&gt;Node27</title>
<path fill="none" stroke="#63b8ff" d="M520.34,-404.71C533.36,-407.41 547.42,-410.96 560,-415.5 577.02,-421.65 578.96,-428.43 596,-434.5 608.3,-438.88 621.87,-442.35 634.81,-445.07"/>
<polygon fill="#63b8ff" stroke="#63b8ff" points="521.19,-401.31 510.71,-402.84 519.86,-408.18 521.19,-401.31"/>
</g>
<!-- Node28 -->
<g id="node28" class="node">
<title>Node28</title>
<g id="a_node28"><a xlink:href="classInputPositions.html" target="_top" xlink:title="Simple positions from an input parameter.">
<polygon fill="white" stroke="#666666" points="742,-426 641,-426 641,-407 742,-407 742,-426"/>
<text text-anchor="middle" x="691.5" y="-414" font-family="Courier,monospace" font-size="10.00">InputPositions</text>
</a>
</g>
</g>
<!-- Node23&#45;&gt;Node28 -->
<g id="edge27" class="edge">
<title>Node23&#45;&gt;Node28</title>
<path fill="none" stroke="#63b8ff" d="M520.62,-401.56C555.87,-404.66 604.42,-408.93 640.58,-412.11"/>
<polygon fill="#63b8ff" stroke="#63b8ff" points="520.98,-398.08 510.71,-400.69 520.37,-405.05 520.98,-398.08"/>
</g>
<!-- Node29 -->
<g id="node29" class="node">
<title>Node29</title>
<g id="a_node29"><a xlink:href="classMultiAppPositions.html" target="_top" xlink:title="Positions from all the MultiApps.">
<polygon fill="white" stroke="#666666" points="751,-389 632,-389 632,-370 751,-370 751,-389"/>
<text text-anchor="middle" x="691.5" y="-377" font-family="Courier,monospace" font-size="10.00">MultiAppPositions</text>
</a>
</g>
</g>
<!-- Node23&#45;&gt;Node29 -->
<g id="edge28" class="edge">
<title>Node23&#45;&gt;Node29</title>
<path fill="none" stroke="#63b8ff" d="M520.63,-393.66C553.12,-390.95 596.89,-387.3 631.86,-384.39"/>
<polygon fill="#63b8ff" stroke="#63b8ff" points="520.39,-390.16 510.71,-394.48 520.97,-397.14 520.39,-390.16"/>
</g>
<!-- Node30 -->
<g id="node30" class="node">
<title>Node30</title>
<g id="a_node30"><a xlink:href="classReporterPositions.html" target="_top" xlink:title="Positions from a Reporter.">
<polygon fill="white" stroke="#666666" points="751,-352 632,-352 632,-333 751,-333 751,-352"/>
<text text-anchor="middle" x="691.5" y="-340" font-family="Courier,monospace" font-size="10.00">ReporterPositions</text>
</a>
</g>
</g>
<!-- Node23&#45;&gt;Node30 -->
<g id="edge29" class="edge">
<title>Node23&#45;&gt;Node30</title>
<path fill="none" stroke="#63b8ff" d="M520.27,-389.49C533.29,-386.64 547.37,-382.99 560,-378.5 576.86,-372.51 579.05,-366.23 596,-360.5 607.31,-356.68 619.68,-353.58 631.63,-351.11"/>
<polygon fill="#63b8ff" stroke="#63b8ff" points="519.72,-386.03 510.64,-391.49 521.14,-392.89 519.72,-386.03"/>
</g>
<!-- Node32 -->
<g id="node32" class="node">
<title>Node32</title>
<g id="a_node32"><a xlink:href="classMeshMetaDataReporter.html" target="_top" xlink:title="Reports the mesh meta data.">
<polygon fill="white" stroke="#666666" points="760,-315 623,-315 623,-296 760,-296 760,-315"/>
<text text-anchor="middle" x="691.5" y="-303" font-family="Courier,monospace" font-size="10.00">MeshMetaDataReporter</text>
</a>
</g>
</g>
<!-- Node31&#45;&gt;Node32 -->
<g id="edge31" class="edge">
<title>Node31&#45;&gt;Node32</title>
<path fill="none" stroke="#63b8ff" d="M539.73,-347.76C546.64,-345.89 553.51,-343.8 560,-341.5 576.86,-335.51 579.05,-329.23 596,-323.5 605.33,-320.34 615.39,-317.69 625.33,-315.47"/>
<polygon fill="#63b8ff" stroke="#63b8ff" points="539.18,-344.28 530.35,-350.14 540.91,-351.07 539.18,-344.28"/>
</g>
<!-- Node35 -->
<g id="node35" class="node">
<title>Node35</title>
<g id="a_node35"><a xlink:href="classCSVFileTimes.html" target="_top" xlink:title="Times from a file.">
<polygon fill="white" stroke="#666666" points="736,-278 647,-278 647,-259 736,-259 736,-278"/>
<text text-anchor="middle" x="691.5" y="-266" font-family="Courier,monospace" font-size="10.00">CSVFileTimes</text>
</a>
</g>
</g>
<!-- Node34&#45;&gt;Node35 -->
<g id="edge34" class="edge">
<title>Node34&#45;&gt;Node35</title>
<path fill="none" stroke="#63b8ff" d="M496.22,-191.98C519.62,-208.93 558.56,-234.86 596,-249.5 612.05,-255.78 630.49,-260.08 646.79,-262.98"/>
<polygon fill="#63b8ff" stroke="#63b8ff" points="498.53,-189.33 488.41,-186.22 494.38,-194.97 498.53,-189.33"/>
</g>
<!-- Node36 -->
<g id="node36" class="node">
<title>Node36</title>
<g id="a_node36"><a xlink:href="classExodusFileTimes.html" target="_top" xlink:title="Times from one or more Exodus files.">
<polygon fill="white" stroke="#666666" points="745,-241 638,-241 638,-222 745,-222 745,-241"/>
<text text-anchor="middle" x="691.5" y="-229" font-family="Courier,monospace" font-size="10.00">ExodusFileTimes</text>
</a>
</g>
</g>
<!-- Node34&#45;&gt;Node36 -->
<g id="edge35" class="edge">
<title>Node34&#45;&gt;Node36</title>
<path fill="none" stroke="#63b8ff" d="M507.92,-186.64C532.19,-194.49 565.91,-204.91 596,-212.5 609.47,-215.9 624.14,-219.09 637.81,-221.85"/>
<polygon fill="#63b8ff" stroke="#63b8ff" points="509.19,-183.37 498.59,-183.59 507.01,-190.02 509.19,-183.37"/>
</g>
<!-- Node37 -->
<g id="node37" class="node">
<title>Node37</title>
<g id="a_node37"><a xlink:href="classFunctorTimes.html" target="_top" xlink:title="Times created by evaluating a functor.">
<polygon fill="white" stroke="#666666" points="736,-204 647,-204 647,-185 736,-185 736,-204"/>
<text text-anchor="middle" x="691.5" y="-192" font-family="Courier,monospace" font-size="10.00">FunctorTimes</text>
</a>
</g>
</g>
<!-- Node34&#45;&gt;Node37 -->
<g id="edge36" class="edge">
<title>Node34&#45;&gt;Node37</title>
<path fill="none" stroke="#63b8ff" d="M508.49,-178.49C545.88,-181.78 606.07,-187.07 646.9,-190.66"/>
<polygon fill="#63b8ff" stroke="#63b8ff" points="508.98,-175.02 498.72,-177.63 508.37,-181.99 508.98,-175.02"/>
</g>
<!-- Node38 -->
<g id="node38" class="node">
<title>Node38</title>
<g id="a_node38"><a xlink:href="classInputTimes.html" target="_top" xlink:title="Simple times from an input parameter.">
<polygon fill="white" stroke="#666666" points="730,-167 653,-167 653,-148 730,-148 730,-167"/>
<text text-anchor="middle" x="691.5" y="-155" font-family="Courier,monospace" font-size="10.00">InputTimes</text>
</a>
</g>
</g>
<!-- Node34&#45;&gt;Node38 -->
<g id="edge37" class="edge">
<title>Node34&#45;&gt;Node38</title>
<path fill="none" stroke="#63b8ff" d="M508.51,-172.67C547.67,-169.4 611.83,-164.06 652.58,-160.66"/>
<polygon fill="#63b8ff" stroke="#63b8ff" points="508.39,-169.16 498.72,-173.48 508.97,-176.14 508.39,-169.16"/>
</g>
<!-- Node39 -->
<g id="node39" class="node">
<title>Node39</title>
<g id="a_node39"><a xlink:href="classReporterTimes.html" target="_top" xlink:title="Times from a Reporter.">
<polygon fill="white" stroke="#666666" points="739,-130 644,-130 644,-111 739,-111 739,-130"/>
<text text-anchor="middle" x="691.5" y="-118" font-family="Courier,monospace" font-size="10.00">ReporterTimes</text>
</a>
</g>
</g>
<!-- Node34&#45;&gt;Node39 -->
<g id="edge38" class="edge">
<title>Node34&#45;&gt;Node39</title>
<path fill="none" stroke="#63b8ff" d="M507.9,-164.27C532.16,-156.37 565.88,-145.93 596,-138.5 611.4,-134.7 628.39,-131.24 643.66,-128.39"/>
<polygon fill="#63b8ff" stroke="#63b8ff" points="506.98,-160.89 498.58,-167.34 509.17,-167.54 506.98,-160.89"/>
</g>
<!-- Node40 -->
<g id="node40" class="node">
<title>Node40</title>
<g id="a_node40"><a xlink:href="classSimulationTimes.html" target="_top" xlink:title="Times simulated, obtained from the problem.">
<polygon fill="white" stroke="#666666" points="745,-93 638,-93 638,-74 745,-74 745,-93"/>
<text text-anchor="middle" x="691.5" y="-81" font-family="Courier,monospace" font-size="10.00">SimulationTimes</text>
</a>
</g>
</g>
<!-- Node34&#45;&gt;Node40 -->
<g id="edge39" class="edge">
<title>Node34&#45;&gt;Node40</title>
<path fill="none" stroke="#63b8ff" d="M496.19,-158.95C519.57,-141.93 558.49,-115.95 596,-101.5 609.09,-96.46 623.77,-92.79 637.58,-90.13"/>
<polygon fill="#63b8ff" stroke="#63b8ff" points="494.34,-155.96 488.39,-164.73 498.5,-161.59 494.34,-155.96"/>
</g>
<!-- Node41 -->
<g id="node41" class="node">
<title>Node41</title>
<g id="a_node41"><a xlink:href="classTimeIntervalTimes.html" target="_top" xlink:title="Times between a start time and end time with a fixed time interval.">
<polygon fill="white" stroke="#666666" points="751,-56 632,-56 632,-37 751,-37 751,-56"/>
<text text-anchor="middle" x="691.5" y="-44" font-family="Courier,monospace" font-size="10.00">TimeIntervalTimes</text>
</a>
</g>
</g>
<!-- Node34&#45;&gt;Node41 -->
<g id="edge40" class="edge">
<title>Node34&#45;&gt;Node41</title>
<path fill="none" stroke="#63b8ff" d="M495.06,-158.55C512.66,-143.85 538.48,-121.8 560,-101.5 576.69,-85.76 575.8,-75.37 596,-64.5 606.88,-58.64 619.37,-54.67 631.63,-51.98"/>
<polygon fill="#63b8ff" stroke="#63b8ff" points="493.3,-155.47 487.84,-164.55 497.77,-160.85 493.3,-155.47"/>
</g>
<!-- Node43 -->
<g id="node43" class="node">
<title>Node43</title>
<g id="a_node43"><a xlink:href="classNodalStatistics.html" target="_top" xlink:title=" ">
<polygon fill="white" stroke="#666666" points="527,-93 420,-93 420,-74 527,-74 527,-93"/>
<text text-anchor="middle" x="473.5" y="-81" font-family="Courier,monospace" font-size="10.00">NodalStatistics</text>
</a>
</g>
</g>
<!-- Node42&#45;&gt;Node43 -->
<g id="edge42" class="edge">
<title>Node42&#45;&gt;Node43</title>
<path fill="none" stroke="#63b8ff" d="M310.32,-260.98C326.15,-235.58 355.88,-190.45 387,-156.5 409.95,-131.47 441.2,-106.74 458.87,-93.47"/>
<polygon fill="#63b8ff" stroke="#63b8ff" points="307.47,-258.93 305.21,-269.28 313.43,-262.59 307.47,-258.93"/>
</g>
<!-- Node44 -->
<g id="node44" class="node">
<title>Node44</title>
<g id="a_node44"><a xlink:href="classNodalVariableStatistics.html" target="_top" xlink:title=" ">
<polygon fill="white" stroke="#666666" points="769,-19 614,-19 614,0 769,0 769,-19"/>
<text text-anchor="middle" x="691.5" y="-7" font-family="Courier,monospace" font-size="10.00">NodalVariableStatistics</text>
</a>
</g>
</g>
<!-- Node43&#45;&gt;Node44 -->
<g id="edge43" class="edge">
<title>Node43&#45;&gt;Node44</title>
<path fill="none" stroke="#63b8ff" d="M502.34,-68.29C526.47,-55.69 562.67,-38.18 596,-27.5 605.78,-24.37 616.32,-21.7 626.68,-19.46"/>
<polygon fill="#63b8ff" stroke="#63b8ff" points="501,-65.04 493.8,-72.81 504.28,-71.22 501,-65.04"/>
</g>
</g>
</svg>
        <g id="navigator" transform="translate(0 0)" fill="#404254">
                <rect fill="#f2f5e9" fill-opacity="0.5" stroke="#606060" stroke-width=".5" x="0" y="0" width="60" height="60"/>
                <use id="zoomplus" xlink:href="#zoomPlus" x="17" y="9" onmousedown="handleZoom(evt,'in')"/>
                <use id="zoomminus" xlink:href="#zoomMin" x="42" y="9" onmousedown="handleZoom(evt,'out')"/>
                <use id="reset" xlink:href="#resetDef" x="30" y="36" onmousedown="handleReset()"/>
                <g id="arrowUp" xlink:href="#dirArrow" transform="translate(30 24)" onmousedown="handlePan(0,-1)">
                  <use xlink:href="#rim" fill="#404040">
                        <set attributeName="fill" to="#808080" begin="arrowUp.mouseover" end="arrowUp.mouseout"/>
                  </use>
                  <path fill="none" stroke="white" stroke-width="1.5" d="M0,-3.0v7 M-2.5,-0.5L0,-3.0L2.5,-0.5"/>
                </g>
                <g id="arrowRight" xlink:href="#dirArrow" transform="rotate(90) translate(36 -43)" onmousedown="handlePan(1,0)">
                  <use xlink:href="#rim" fill="#404040">
                        <set attributeName="fill" to="#808080" begin="arrowRight.mouseover" end="arrowRight.mouseout"/>
                  </use>
                  <path fill="none" stroke="white" stroke-width="1.5" d="M0,-3.0v7 M-2.5,-0.5L0,-3.0L2.5,-0.5"/>
                </g>
                <g id="arrowDown" xlink:href="#dirArrow" transform="rotate(180) translate(-30 -48)" onmousedown="handlePan(0,1)">
                  <use xlink:href="#rim" fill="#404040">
                        <set attributeName="fill" to="#808080" begin="arrowDown.mouseover" end="arrowDown.mouseout"/>
                  </use>
                  <path fill="none" stroke="white" stroke-width="1.5" d="M0,-3.0v7 M-2.5,-0.5L0,-3.0L2.5,-0.5"/>
                </g>
                <g id="arrowLeft" xlink:href="#dirArrow" transform="rotate(270) translate(-36 17)" onmousedown="handlePan(-1,0)">
                  <use xlink:href="#rim" fill="#404040">
                        <set attributeName="fill" to="#808080" begin="arrowLeft.mouseover" end="arrowLeft.mouseout"/>
                  </use>
                  <path fill="none" stroke="white" stroke-width="1.5" d="M0,-3.0v7 M-2.5,-0.5L0,-3.0L2.5,-0.5"/>
                </g>
        </g>
        <svg viewBox="0 0 15 15" width="100%" height="30px" preserveAspectRatio="xMaxYMin meet">
         <g id="arrow_out" transform="scale(0.3 0.3)">
          <a xlink:href="classReporter__inherit__graph_org.svg" target="_base">
           <rect id="button" ry="5" rx="5" y="6" x="6" height="38" width="38"
                fill="#f2f5e9" fill-opacity="0.5" stroke="#606060" stroke-width="1.0"/>
           <path id="arrow"
             d="M 11.500037,31.436501 C 11.940474,20.09759 22.043105,11.32322 32.158766,21.979434 L 37.068811,17.246167 C 37.068811,17.246167 37.088388,32 37.088388,32 L 22.160133,31.978069 C 22.160133,31.978069 26.997745,27.140456 26.997745,27.140456 C 18.528582,18.264221 13.291696,25.230495 11.500037,31.436501 z"
             style="fill:#404040;"/>
          </a>
         </g>
        </svg>
</svg>
