<?xml version="1.0" encoding="UTF-8" standalone="no"?>
<!DOCTYPE svg PUBLIC "-//W3C//DTD SVG 1.1//EN"
 "http://www.w3.org/Graphics/SVG/1.1/DTD/svg11.dtd">
<!-- Generated by graphviz version 7.0.5 (20221223.1930)
 -->
<!-- Title: MooseObjectTagWarehouse&lt; T &gt; Pages: 1 -->
<svg width="199pt" height="137pt"
 viewBox="0.00 0.00 199.00 137.00" xmlns="http://www.w3.org/2000/svg" xmlns:xlink="http://www.w3.org/1999/xlink">
<g id="graph0" class="graph" transform="scale(1 1) rotate(0) translate(4 133)">
<title>MooseObjectTagWarehouse&lt; T &gt;</title>
<!-- Node1 -->
<g id="node1" class="node">
<title>Node1</title>
<g id="a_node1"><a xlink:title="A storage container for MooseObjects that inherit from SetupInterface.">
<polygon fill="#999999" stroke="#666666" points="188,-19 3,-19 3,0 188,0 188,-19"/>
<text text-anchor="middle" x="95.5" y="-7" font-family="Courier,monospace" font-size="10.00">MooseObjectTagWarehouse&lt; T &gt;</text>
</a>
</g>
</g>
<!-- Node2 -->
<g id="node2" class="node">
<title>Node2</title>
<g id="a_node2"><a xlink:href="classMooseObjectWarehouse.html" target="_top" xlink:title="A storage container for MooseObjects that inherit from SetupInterface.">
<polygon fill="white" stroke="#666666" points="179,-74 12,-74 12,-55 179,-55 179,-74"/>
<text text-anchor="middle" x="95.5" y="-62" font-family="Courier,monospace" font-size="10.00">MooseObjectWarehouse&lt; T &gt;</text>
</a>
</g>
</g>
<!-- Node2&#45;&gt;Node1 -->
<g id="edge1" class="edge">
<title>Node2&#45;&gt;Node1</title>
<path fill="none" stroke="#63b8ff" d="M95.5,-43.35C95.5,-35.1 95.5,-25.97 95.5,-19.44"/>
<polygon fill="#63b8ff" stroke="#63b8ff" points="92,-43.23 95.5,-53.23 99,-43.23 92,-43.23"/>
</g>
<!-- Node3 -->
<g id="node3" class="node">
<title>Node3</title>
<g id="a_node3"><a xlink:href="classMooseObjectWarehouseBase.html" target="_top" xlink:title="A base storage container for MooseObjects.">
<polygon fill="white" stroke="#666666" points="191,-129 0,-129 0,-110 191,-110 191,-129"/>
<text text-anchor="middle" x="95.5" y="-117" font-family="Courier,monospace" font-size="10.00">MooseObjectWarehouseBase&lt; T &gt;</text>
</a>
</g>
</g>
<!-- Node3&#45;&gt;Node2 -->
<g id="edge2" class="edge">
<title>Node3&#45;&gt;Node2</title>
<path fill="none" stroke="#63b8ff" d="M95.5,-98.35C95.5,-90.1 95.5,-80.97 95.5,-74.44"/>
<polygon fill="#63b8ff" stroke="#63b8ff" points="92,-98.23 95.5,-108.23 99,-98.23 92,-98.23"/>
</g>
</g>
</svg>
