<?xml version="1.0" encoding="UTF-8" standalone="no"?>
<!DOCTYPE svg PUBLIC "-//W3C//DTD SVG 1.1//EN"
 "http://www.w3.org/Graphics/SVG/1.1/DTD/svg11.dtd">
<!-- Generated by graphviz version 7.0.5 (20221223.1930)
 -->
<!-- Title: BuildArrayVariableAux Pages: 1 -->
<!--zoomable 791 -->
<svg id="main" version="1.1" xmlns="http://www.w3.org/2000/svg" xmlns:xlink="http://www.w3.org/1999/xlink" xml:space="preserve" onload="init(evt)">
<style type="text/css"><![CDATA[
.edge:hover path { stroke: red; }
.edge:hover polygon { stroke: red; fill: red; }
]]></style>
<script type="text/javascript"><![CDATA[
var edges = document.getElementsByTagName('g');
if (edges && edges.length) {
  for (var i=0;i<edges.length;i++) {
    if (edges[i].id.substr(0,4)=='edge') {
      edges[i].setAttribute('class','edge');
    }
  }
}
]]></script>
        <defs>
                <circle id="rim" cx="0" cy="0" r="7"/>
                <circle id="rim2" cx="0" cy="0" r="3.5"/>
                <g id="zoomPlus">
                        <use xlink:href="#rim" fill="#404040">
                                <set attributeName="fill" to="#808080" begin="zoomplus.mouseover" end="zoomplus.mouseout"/>
                        </use>
                        <path d="M-4,0h8M0,-4v8" fill="none" stroke="white" stroke-width="1.5" pointer-events="none"/>
                </g>
                <g id="zoomMin">
                        <use xlink:href="#rim" fill="#404040">
                                <set attributeName="fill" to="#808080" begin="zoomminus.mouseover" end="zoomminus.mouseout"/>
                        </use>
                        <path d="M-4,0h8" fill="none" stroke="white" stroke-width="1.5" pointer-events="none"/>
                </g>
                <g id="dirArrow">
                        <path fill="none" stroke="white" stroke-width="1.5" d="M0,-3.0v7 M-2.5,-0.5L0,-3.0L2.5,-0.5"/>
                </g>
               <g id="resetDef">
                       <use xlink:href="#rim2" fill="#404040">
                               <set attributeName="fill" to="#808080" begin="reset.mouseover" end="reset.mouseout"/>
                       </use>
               </g>
        </defs>

<script type="text/javascript">
var viewWidth = 969;
var viewHeight = 791;
var sectionId = 'dynsection-0';
</script>
<script xlink:href="svgpan.js"/>
<svg id="graph" class="graph">
<g id="viewport">
<title>BuildArrayVariableAux</title>
<!-- Node1 -->
<g id="node1" class="node">
<title>Node1</title>
<g id="a_node1"><a xlink:title=" ">
<polygon fill="#999999" stroke="#666666" points="961,-352 818,-352 818,-333 961,-333 961,-352"/>
<text text-anchor="middle" x="889.5" y="-340" font-family="Courier,monospace" font-size="10.00">BuildArrayVariableAux</text>
</a>
</g>
</g>
<!-- Node2 -->
<g id="node2" class="node">
<title>Node2</title>
<g id="a_node2"><a xlink:href="classAuxKernelTempl.html" target="_top" xlink:title="Base class for creating new auxiliary kernels and auxiliary boundary conditions.">
<polygon fill="white" stroke="#666666" points="782,-352 681,-352 681,-333 782,-333 782,-352"/>
<text text-anchor="middle" x="731.5" y="-340" font-family="Courier,monospace" font-size="10.00">ArrayAuxKernel</text>
</a>
</g>
</g>
<!-- Node2&#45;&gt;Node1 -->
<g id="edge1" class="edge">
<title>Node2&#45;&gt;Node1</title>
<path fill="none" stroke="#63b8ff" d="M793.6,-342.5C801.47,-342.5 809.57,-342.5 817.58,-342.5"/>
<polygon fill="#63b8ff" stroke="#63b8ff" points="793.8,-339 783.8,-342.5 793.8,-346 793.8,-339"/>
</g>
<!-- Node3 -->
<g id="node3" class="node">
<title>Node3</title>
<g id="a_node3"><a xlink:href="classMooseObject.html" target="_top" xlink:title="Every object that can be built by the factory should be derived from this class.">
<polygon fill="white" stroke="#666666" points="579,-709 496,-709 496,-690 579,-690 579,-709"/>
<text text-anchor="middle" x="537.5" y="-697" font-family="Courier,monospace" font-size="10.00">MooseObject</text>
</a>
</g>
</g>
<!-- Node3&#45;&gt;Node2 -->
<g id="edge2" class="edge">
<title>Node3&#45;&gt;Node2</title>
<path fill="none" stroke="#63b8ff" d="M590.75,-701.51C609.96,-699.58 630.53,-693.97 645,-680.5 695.39,-633.58 723.74,-403.12 729.43,-352.39"/>
<polygon fill="#63b8ff" stroke="#63b8ff" points="590.6,-698.01 580.85,-702.16 591.06,-705 590.6,-698.01"/>
</g>
<!-- Node4 -->
<g id="node4" class="node">
<title>Node4</title>
<g id="a_node4"><a xlink:href="classMooseBase.html" target="_top" xlink:title="Base class for everything in MOOSE with a name and a type.">
<polygon fill="white" stroke="#666666" points="325,-783 254,-783 254,-764 325,-764 325,-783"/>
<text text-anchor="middle" x="289.5" y="-771" font-family="Courier,monospace" font-size="10.00">MooseBase</text>
</a>
</g>
</g>
<!-- Node4&#45;&gt;Node3 -->
<g id="edge3" class="edge">
<title>Node4&#45;&gt;Node3</title>
<path fill="none" stroke="#63b8ff" d="M336.54,-767.54C354.64,-764.66 375.47,-760.69 394,-755.5 438.28,-743.09 487.79,-721.88 515.24,-709.43"/>
<polygon fill="#63b8ff" stroke="#63b8ff" points="336.25,-764.04 326.89,-769 337.3,-770.96 336.25,-764.04"/>
</g>
<!-- Node5 -->
<g id="node5" class="node">
<title>Node5</title>
<g id="a_node5"><a xlink:href="classMooseBaseParameterInterface.html" target="_top" xlink:title="Every object that can be built by the factory should be derived from this class.">
<polygon fill="white" stroke="#666666" points="379,-746 200,-746 200,-727 379,-727 379,-746"/>
<text text-anchor="middle" x="289.5" y="-734" font-family="Courier,monospace" font-size="10.00">MooseBaseParameterInterface</text>
</a>
</g>
</g>
<!-- Node5&#45;&gt;Node3 -->
<g id="edge4" class="edge">
<title>Node5&#45;&gt;Node3</title>
<path fill="none" stroke="#63b8ff" d="M367.87,-724.86C410.2,-718.5 460.92,-710.87 495.6,-705.65"/>
<polygon fill="#63b8ff" stroke="#63b8ff" points="367.61,-721.36 358.24,-726.31 368.65,-728.28 367.61,-721.36"/>
</g>
<!-- Node6 -->
<g id="node6" class="node">
<title>Node6</title>
<g id="a_node6"><a xlink:href="classMooseBaseErrorInterface.html" target="_top" xlink:title="Interface that provides APIs to output errors/warnings/info messages.">
<polygon fill="white" stroke="#666666" points="367,-709 212,-709 212,-690 367,-690 367,-709"/>
<text text-anchor="middle" x="289.5" y="-697" font-family="Courier,monospace" font-size="10.00">MooseBaseErrorInterface</text>
</a>
</g>
</g>
<!-- Node6&#45;&gt;Node3 -->
<g id="edge5" class="edge">
<title>Node6&#45;&gt;Node3</title>
<path fill="none" stroke="#63b8ff" d="M378.69,-699.5C418.6,-699.5 463.83,-699.5 495.61,-699.5"/>
<polygon fill="#63b8ff" stroke="#63b8ff" points="378.84,-696 368.84,-699.5 378.84,-703 378.84,-696"/>
</g>
<!-- Node7 -->
<g id="node7" class="node">
<title>Node7</title>
<g id="a_node7"><a xlink:href="classConsoleStreamInterface.html" target="_top" xlink:title="An inteface for the _console for outputting to the Console object.">
<polygon fill="white" stroke="#666666" points="149,-709 0,-709 0,-690 149,-690 149,-709"/>
<text text-anchor="middle" x="74.5" y="-697" font-family="Courier,monospace" font-size="10.00">ConsoleStreamInterface</text>
</a>
</g>
</g>
<!-- Node7&#45;&gt;Node6 -->
<g id="edge6" class="edge">
<title>Node7&#45;&gt;Node6</title>
<path fill="none" stroke="#63b8ff" d="M160.43,-699.5C177.41,-699.5 195.15,-699.5 211.84,-699.5"/>
<polygon fill="#63b8ff" stroke="#63b8ff" points="160.91,-696 150.91,-699.5 160.91,-703 160.91,-696"/>
</g>
<!-- Node8 -->
<g id="node8" class="node">
<title>Node8</title>
<g id="a_node8"><a xlink:title=" ">
<polygon fill="white" stroke="#666666" points="367,-672 212,-672 212,-653 367,-653 367,-672"/>
<text text-anchor="middle" x="289.5" y="-660" font-family="Courier,monospace" font-size="10.00">libMesh::ParallelObject</text>
</a>
</g>
</g>
<!-- Node8&#45;&gt;Node3 -->
<g id="edge7" class="edge">
<title>Node8&#45;&gt;Node3</title>
<path fill="none" stroke="#63b8ff" d="M367.87,-674.14C410.2,-680.5 460.92,-688.13 495.6,-693.35"/>
<polygon fill="#63b8ff" stroke="#63b8ff" points="368.65,-670.72 358.24,-672.69 367.61,-677.64 368.65,-670.72"/>
</g>
<!-- Node9 -->
<g id="node9" class="node">
<title>Node9</title>
<g id="a_node9"><a xlink:href="classDataFileInterface.html" target="_top" xlink:title=" ">
<polygon fill="white" stroke="#666666" points="352,-634.5 227,-634.5 227,-604.5 352,-604.5 352,-634.5"/>
<text text-anchor="start" x="235" y="-622.5" font-family="Courier,monospace" font-size="10.00">DataFileInterface&lt;</text>
<text text-anchor="middle" x="289.5" y="-611.5" font-family="Courier,monospace" font-size="10.00"> MooseObject &gt;</text>
</a>
</g>
</g>
<!-- Node9&#45;&gt;Node3 -->
<g id="edge8" class="edge">
<title>Node9&#45;&gt;Node3</title>
<path fill="none" stroke="#63b8ff" d="M363.01,-631.61C373.77,-634.92 384.45,-639.14 394,-644.5 413.73,-655.57 409.94,-670.03 430,-680.5 450.15,-691.01 475.04,-695.83 495.69,-697.99"/>
<polygon fill="#63b8ff" stroke="#63b8ff" points="364.28,-628.33 353.71,-628.99 362.38,-635.07 364.28,-628.33"/>
</g>
<!-- Node10 -->
<g id="node10" class="node">
<title>Node10</title>
<g id="a_node10"><a xlink:href="classMooseVariableInterface.html" target="_top" xlink:title=" ">
<polygon fill="white" stroke="#666666" points="612,-671.5 463,-671.5 463,-641.5 612,-641.5 612,-671.5"/>
<text text-anchor="start" x="471" y="-659.5" font-family="Courier,monospace" font-size="10.00">MooseVariableInterface</text>
<text text-anchor="middle" x="537.5" y="-648.5" font-family="Courier,monospace" font-size="10.00">&lt; ComputeValueType &gt;</text>
</a>
</g>
</g>
<!-- Node10&#45;&gt;Node2 -->
<g id="edge9" class="edge">
<title>Node10&#45;&gt;Node2</title>
<path fill="none" stroke="#63b8ff" d="M622.86,-646.67C630.99,-643.14 638.58,-638.51 645,-632.5 730.03,-552.83 731.88,-393.25 730.88,-352.27"/>
<polygon fill="#63b8ff" stroke="#63b8ff" points="621.9,-643.3 613.75,-650.07 624.34,-649.86 621.9,-643.3"/>
</g>
<!-- Node11 -->
<g id="node11" class="node">
<title>Node11</title>
<g id="a_node11"><a xlink:href="classBlockRestrictable.html" target="_top" xlink:title="An interface that restricts an object to subdomains via the &#39;blocks&#39; input parameter.">
<polygon fill="white" stroke="#666666" points="597,-623 478,-623 478,-604 597,-604 597,-623"/>
<text text-anchor="middle" x="537.5" y="-611" font-family="Courier,monospace" font-size="10.00">BlockRestrictable</text>
</a>
</g>
</g>
<!-- Node11&#45;&gt;Node2 -->
<g id="edge10" class="edge">
<title>Node11&#45;&gt;Node2</title>
<path fill="none" stroke="#63b8ff" d="M608.61,-612.53C621.85,-609.5 634.75,-604.25 645,-595.5 722.43,-529.46 729.94,-390.67 730.5,-352.44"/>
<polygon fill="#63b8ff" stroke="#63b8ff" points="608.15,-609.06 598.95,-614.31 609.42,-615.94 608.15,-609.06"/>
</g>
<!-- Node12 -->
<g id="node12" class="node">
<title>Node12</title>
<g id="a_node12"><a xlink:href="classBoundaryRestrictable.html" target="_top" xlink:title="/class BoundaryRestrictable /brief Provides functionality for limiting the object to certain boundary...">
<polygon fill="white" stroke="#666666" points="606,-586 469,-586 469,-567 606,-567 606,-586"/>
<text text-anchor="middle" x="537.5" y="-574" font-family="Courier,monospace" font-size="10.00">BoundaryRestrictable</text>
</a>
</g>
</g>
<!-- Node12&#45;&gt;Node2 -->
<g id="edge11" class="edge">
<title>Node12&#45;&gt;Node2</title>
<path fill="none" stroke="#63b8ff" d="M617.3,-572.71C627.34,-569.6 636.92,-565.04 645,-558.5 713.02,-503.42 727.16,-386.52 729.89,-352.18"/>
<polygon fill="#63b8ff" stroke="#63b8ff" points="616.54,-569.3 607.73,-575.18 618.29,-576.07 616.54,-569.3"/>
</g>
<!-- Node13 -->
<g id="node13" class="node">
<title>Node13</title>
<g id="a_node13"><a xlink:href="classSetupInterface.html" target="_top" xlink:title=" ">
<polygon fill="white" stroke="#666666" points="588,-549 487,-549 487,-530 588,-530 588,-549"/>
<text text-anchor="middle" x="537.5" y="-537" font-family="Courier,monospace" font-size="10.00">SetupInterface</text>
</a>
</g>
</g>
<!-- Node13&#45;&gt;Node2 -->
<g id="edge12" class="edge">
<title>Node13&#45;&gt;Node2</title>
<path fill="none" stroke="#63b8ff" d="M599.48,-538.51C615.55,-535.74 632,-530.38 645,-520.5 703.14,-476.32 723.72,-382.43 728.99,-352.14"/>
<polygon fill="#63b8ff" stroke="#63b8ff" points="599.4,-534.99 589.97,-539.83 600.36,-541.92 599.4,-534.99"/>
</g>
<!-- Node14 -->
<g id="node14" class="node">
<title>Node14</title>
<g id="a_node14"><a xlink:href="classCoupleableMooseVariableDependencyIntermediateInterface.html" target="_top" xlink:title="Intermediate base class that ties together all the interfaces for getting MooseVariableFEBases with t...">
<polygon fill="white" stroke="#666666" points="645,-511.5 430,-511.5 430,-481.5 645,-481.5 645,-511.5"/>
<text text-anchor="start" x="438" y="-499.5" font-family="Courier,monospace" font-size="10.00">CoupleableMooseVariableDependency</text>
<text text-anchor="middle" x="537.5" y="-488.5" font-family="Courier,monospace" font-size="10.00">IntermediateInterface</text>
</a>
</g>
</g>
<!-- Node14&#45;&gt;Node2 -->
<g id="edge13" class="edge">
<title>Node14&#45;&gt;Node2</title>
<path fill="none" stroke="#63b8ff" d="M639.5,-476.02C641.38,-474.9 643.22,-473.73 645,-472.5 690.54,-440.99 717.97,-376.58 727.09,-352.17"/>
<polygon fill="#63b8ff" stroke="#63b8ff" points="638.35,-472.67 631.1,-480.4 641.59,-478.88 638.35,-472.67"/>
</g>
<!-- Node15 -->
<g id="node15" class="node">
<title>Node15</title>
<g id="a_node15"><a xlink:href="classCoupleable.html" target="_top" xlink:title="Interface for objects that needs coupling capabilities.">
<polygon fill="white" stroke="#666666" points="328,-543 251,-543 251,-524 328,-524 328,-543"/>
<text text-anchor="middle" x="289.5" y="-531" font-family="Courier,monospace" font-size="10.00">Coupleable</text>
</a>
</g>
</g>
<!-- Node15&#45;&gt;Node14 -->
<g id="edge14" class="edge">
<title>Node15&#45;&gt;Node14</title>
<path fill="none" stroke="#63b8ff" d="M339.48,-526.13C366.49,-522.07 401.08,-516.87 433.71,-511.96"/>
<polygon fill="#63b8ff" stroke="#63b8ff" points="339.26,-522.63 329.9,-527.57 340.3,-529.55 339.26,-522.63"/>
</g>
<!-- Node16 -->
<g id="node16" class="node">
<title>Node16</title>
<g id="a_node16"><a xlink:href="classScalarCoupleable.html" target="_top" xlink:title="Interface for objects that needs scalar coupling capabilities.">
<polygon fill="white" stroke="#666666" points="346,-506 233,-506 233,-487 346,-487 346,-506"/>
<text text-anchor="middle" x="289.5" y="-494" font-family="Courier,monospace" font-size="10.00">ScalarCoupleable</text>
</a>
</g>
</g>
<!-- Node16&#45;&gt;Node14 -->
<g id="edge15" class="edge">
<title>Node16&#45;&gt;Node14</title>
<path fill="none" stroke="#63b8ff" d="M357.63,-496.5C379.83,-496.5 405.11,-496.5 429.53,-496.5"/>
<polygon fill="#63b8ff" stroke="#63b8ff" points="357.83,-493 347.83,-496.5 357.83,-500 357.83,-493"/>
</g>
<!-- Node17 -->
<g id="node17" class="node">
<title>Node17</title>
<g id="a_node17"><a xlink:href="classMooseVariableDependencyInterface.html" target="_top" xlink:title=" ">
<polygon fill="white" stroke="#666666" points="394,-469 185,-469 185,-450 394,-450 394,-469"/>
<text text-anchor="middle" x="289.5" y="-457" font-family="Courier,monospace" font-size="10.00">MooseVariableDependencyInterface</text>
</a>
</g>
</g>
<!-- Node17&#45;&gt;Node14 -->
<g id="edge16" class="edge">
<title>Node17&#45;&gt;Node14</title>
<path fill="none" stroke="#63b8ff" d="M368.06,-471.17C388.84,-474.29 411.63,-477.72 433.54,-481.01"/>
<polygon fill="#63b8ff" stroke="#63b8ff" points="368.65,-467.72 358.24,-469.69 367.61,-474.64 368.65,-467.72"/>
</g>
<!-- Node18 -->
<g id="node18" class="node">
<title>Node18</title>
<g id="a_node18"><a xlink:href="classFunctionInterface.html" target="_top" xlink:title="Interface for objects that need to use functions.">
<polygon fill="white" stroke="#666666" points="597,-463 478,-463 478,-444 597,-444 597,-463"/>
<text text-anchor="middle" x="537.5" y="-451" font-family="Courier,monospace" font-size="10.00">FunctionInterface</text>
</a>
</g>
</g>
<!-- Node18&#45;&gt;Node2 -->
<g id="edge17" class="edge">
<title>Node18&#45;&gt;Node2</title>
<path fill="none" stroke="#63b8ff" d="M608.5,-448.44C621.15,-445.67 633.85,-441.56 645,-435.5 682.59,-415.09 712.52,-371.81 724.65,-352.35"/>
<polygon fill="#63b8ff" stroke="#63b8ff" points="608.09,-444.95 598.93,-450.26 609.4,-451.83 608.09,-444.95"/>
</g>
<!-- Node19 -->
<g id="node19" class="node">
<title>Node19</title>
<g id="a_node19"><a xlink:href="classUserObjectInterface.html" target="_top" xlink:title="Interface for objects that need to use UserObjects.">
<polygon fill="white" stroke="#666666" points="603,-426 472,-426 472,-407 603,-407 603,-426"/>
<text text-anchor="middle" x="537.5" y="-414" font-family="Courier,monospace" font-size="10.00">UserObjectInterface</text>
</a>
</g>
</g>
<!-- Node19&#45;&gt;Node2 -->
<g id="edge18" class="edge">
<title>Node19&#45;&gt;Node2</title>
<path fill="none" stroke="#63b8ff" d="M614.56,-407.61C624.98,-405.25 635.38,-402.27 645,-398.5 673.91,-387.17 703.25,-365.16 718.92,-352.37"/>
<polygon fill="#63b8ff" stroke="#63b8ff" points="613.87,-404.18 604.78,-409.62 615.28,-411.03 613.87,-404.18"/>
</g>
<!-- Node20 -->
<g id="node20" class="node">
<title>Node20</title>
<g id="a_node20"><a xlink:href="classTransientInterface.html" target="_top" xlink:title="Interface for objects that needs transient capabilities.">
<polygon fill="white" stroke="#666666" points="600,-389 475,-389 475,-370 600,-370 600,-389"/>
<text text-anchor="middle" x="537.5" y="-377" font-family="Courier,monospace" font-size="10.00">TransientInterface</text>
</a>
</g>
</g>
<!-- Node20&#45;&gt;Node2 -->
<g id="edge19" class="edge">
<title>Node20&#45;&gt;Node2</title>
<path fill="none" stroke="#63b8ff" d="M611.42,-367.69C622.68,-365.71 634.16,-363.62 645,-361.5 658.88,-358.79 673.96,-355.54 687.53,-352.5"/>
<polygon fill="#63b8ff" stroke="#63b8ff" points="611.01,-364.2 601.76,-369.35 612.2,-371.1 611.01,-364.2"/>
</g>
<!-- Node21 -->
<g id="node21" class="node">
<title>Node21</title>
<g id="a_node21"><a xlink:href="classMaterialPropertyInterface.html" target="_top" xlink:title="An interface for accessing Materials.">
<polygon fill="white" stroke="#666666" points="621,-352 454,-352 454,-333 621,-333 621,-352"/>
<text text-anchor="middle" x="537.5" y="-340" font-family="Courier,monospace" font-size="10.00">MaterialPropertyInterface</text>
</a>
</g>
</g>
<!-- Node21&#45;&gt;Node2 -->
<g id="edge20" class="edge">
<title>Node21&#45;&gt;Node2</title>
<path fill="none" stroke="#63b8ff" d="M632.74,-342.5C649.29,-342.5 665.9,-342.5 680.62,-342.5"/>
<polygon fill="#63b8ff" stroke="#63b8ff" points="632.83,-339 622.83,-342.5 632.83,-346 632.83,-339"/>
</g>
<!-- Node22 -->
<g id="node22" class="node">
<title>Node22</title>
<g id="a_node22"><a xlink:href="classPostprocessorInterface.html" target="_top" xlink:title="Interface class for classes which interact with Postprocessors.">
<polygon fill="white" stroke="#666666" points="612,-315 463,-315 463,-296 612,-296 612,-315"/>
<text text-anchor="middle" x="537.5" y="-303" font-family="Courier,monospace" font-size="10.00">PostprocessorInterface</text>
</a>
</g>
</g>
<!-- Node22&#45;&gt;Node2 -->
<g id="edge21" class="edge">
<title>Node22&#45;&gt;Node2</title>
<path fill="none" stroke="#63b8ff" d="M607.61,-317.51C620.07,-319.76 632.93,-322.15 645,-324.5 657.81,-326.99 671.66,-329.84 684.41,-332.52"/>
<polygon fill="#63b8ff" stroke="#63b8ff" points="608.27,-314.07 597.81,-315.75 607.03,-320.96 608.27,-314.07"/>
</g>
<!-- Node23 -->
<g id="node23" class="node">
<title>Node23</title>
<g id="a_node23"><a xlink:href="classDependencyResolverInterface.html" target="_top" xlink:title="Interface for sorting dependent vectors of objects.">
<polygon fill="white" stroke="#666666" points="627,-278 448,-278 448,-259 627,-259 627,-278"/>
<text text-anchor="middle" x="537.5" y="-266" font-family="Courier,monospace" font-size="10.00">DependencyResolverInterface</text>
</a>
</g>
</g>
<!-- Node23&#45;&gt;Node2 -->
<g id="edge22" class="edge">
<title>Node23&#45;&gt;Node2</title>
<path fill="none" stroke="#63b8ff" d="M626.3,-281.28C632.71,-283.08 639.01,-285.15 645,-287.5 673.59,-298.72 702.81,-320.1 718.6,-332.64"/>
<polygon fill="#63b8ff" stroke="#63b8ff" points="627.46,-277.96 616.9,-278.84 625.7,-284.74 627.46,-277.96"/>
</g>
<!-- Node24 -->
<g id="node24" class="node">
<title>Node24</title>
<g id="a_node24"><a xlink:href="classRandomInterface.html" target="_top" xlink:title="Interface for objects that need parallel consistent random numbers without patterns over the course o...">
<polygon fill="white" stroke="#666666" points="591,-241 484,-241 484,-222 591,-222 591,-241"/>
<text text-anchor="middle" x="537.5" y="-229" font-family="Courier,monospace" font-size="10.00">RandomInterface</text>
</a>
</g>
</g>
<!-- Node24&#45;&gt;Node2 -->
<g id="edge23" class="edge">
<title>Node24&#45;&gt;Node2</title>
<path fill="none" stroke="#63b8ff" d="M602.44,-236.06C617.04,-238.93 632.06,-243.44 645,-250.5 682.33,-270.86 712.4,-313.58 724.61,-332.79"/>
<polygon fill="#63b8ff" stroke="#63b8ff" points="603.33,-232.66 592.88,-234.42 602.15,-239.56 603.33,-232.66"/>
</g>
<!-- Node25 -->
<g id="node25" class="node">
<title>Node25</title>
<g id="a_node25"><a xlink:href="classGeometricSearchInterface.html" target="_top" xlink:title=" ">
<polygon fill="white" stroke="#666666" points="618,-204 457,-204 457,-185 618,-185 618,-204"/>
<text text-anchor="middle" x="537.5" y="-192" font-family="Courier,monospace" font-size="10.00">GeometricSearchInterface</text>
</a>
</g>
</g>
<!-- Node25&#45;&gt;Node2 -->
<g id="edge24" class="edge">
<title>Node25&#45;&gt;Node2</title>
<path fill="none" stroke="#63b8ff" d="M628.79,-205.07C634.48,-207.4 639.95,-210.18 645,-213.5 691.04,-243.73 718.17,-308.27 727.15,-332.78"/>
<polygon fill="#63b8ff" stroke="#63b8ff" points="630.35,-201.91 619.75,-201.85 628,-208.5 630.35,-201.91"/>
</g>
<!-- Node26 -->
<g id="node26" class="node">
<title>Node26</title>
<g id="a_node26"><a xlink:href="classRestartable.html" target="_top" xlink:title="A class for creating restricted objects.">
<polygon fill="white" stroke="#666666" points="579,-167 496,-167 496,-148 579,-148 579,-167"/>
<text text-anchor="middle" x="537.5" y="-155" font-family="Courier,monospace" font-size="10.00">Restartable</text>
</a>
</g>
</g>
<!-- Node26&#45;&gt;Node2 -->
<g id="edge25" class="edge">
<title>Node26&#45;&gt;Node2</title>
<path fill="none" stroke="#63b8ff" d="M590.64,-157.46C609.28,-159.72 629.48,-165.05 645,-176.5 700.03,-217.12 722.43,-303.55 728.6,-332.68"/>
<polygon fill="#63b8ff" stroke="#63b8ff" points="591.09,-153.98 580.81,-156.55 590.44,-160.95 591.09,-153.98"/>
</g>
<!-- Node27 -->
<g id="node27" class="node">
<title>Node27</title>
<g id="a_node27"><a xlink:href="classMeshChangedInterface.html" target="_top" xlink:title="Interface for notifications that the mesh has changed.">
<polygon fill="white" stroke="#666666" points="606,-130 469,-130 469,-111 606,-111 606,-130"/>
<text text-anchor="middle" x="537.5" y="-118" font-family="Courier,monospace" font-size="10.00">MeshChangedInterface</text>
</a>
</g>
</g>
<!-- Node27&#45;&gt;Node2 -->
<g id="edge26" class="edge">
<title>Node27&#45;&gt;Node2</title>
<path fill="none" stroke="#63b8ff" d="M617.4,-125.3C627.39,-128.48 636.92,-133.04 645,-139.5 709.52,-191.08 726.03,-300.14 729.62,-332.96"/>
<polygon fill="#63b8ff" stroke="#63b8ff" points="618.46,-121.96 607.89,-122.76 616.65,-128.73 618.46,-121.96"/>
</g>
<!-- Node28 -->
<g id="node28" class="node">
<title>Node28</title>
<g id="a_node28"><a xlink:href="classVectorPostprocessorInterface.html" target="_top" xlink:title=" ">
<polygon fill="white" stroke="#666666" points="630,-93 445,-93 445,-74 630,-74 630,-93"/>
<text text-anchor="middle" x="537.5" y="-81" font-family="Courier,monospace" font-size="10.00">VectorPostprocessorInterface</text>
</a>
</g>
</g>
<!-- Node28&#45;&gt;Node2 -->
<g id="edge27" class="edge">
<title>Node28&#45;&gt;Node2</title>
<path fill="none" stroke="darkgreen" d="M640.25,-98.84C641.89,-99.99 643.47,-101.21 645,-102.5 718.76,-164.95 728.9,-295.63 730.28,-332.58"/>
<polygon fill="darkgreen" stroke="darkgreen" points="642.09,-95.86 631.7,-93.78 638.53,-101.89 642.09,-95.86"/>
</g>
<!-- Node29 -->
<g id="node29" class="node">
<title>Node29</title>
<g id="a_node29"><a xlink:href="classElementIDInterface.html" target="_top" xlink:title=" ">
<polygon fill="white" stroke="#666666" points="600,-56 475,-56 475,-37 600,-37 600,-56"/>
<text text-anchor="middle" x="537.5" y="-44" font-family="Courier,monospace" font-size="10.00">ElementIDInterface</text>
</a>
</g>
</g>
<!-- Node29&#45;&gt;Node2 -->
<g id="edge28" class="edge">
<title>Node29&#45;&gt;Node2</title>
<path fill="none" stroke="#63b8ff" d="M611.36,-48.61C623.68,-51.85 635.53,-57.13 645,-65.5 728.33,-139.17 731.5,-292.08 730.82,-332.51"/>
<polygon fill="#63b8ff" stroke="#63b8ff" points="612.45,-45.26 601.93,-46.58 610.97,-52.1 612.45,-45.26"/>
</g>
<!-- Node30 -->
<g id="node30" class="node">
<title>Node30</title>
<g id="a_node30"><a xlink:href="classNonADFunctorInterface.html" target="_top" xlink:title="An interface for accessing Moose::Functors for systems that do not care about automatic differentiati...">
<polygon fill="white" stroke="#666666" points="609,-19 466,-19 466,0 609,0 609,-19"/>
<text text-anchor="middle" x="537.5" y="-7" font-family="Courier,monospace" font-size="10.00">NonADFunctorInterface</text>
</a>
</g>
</g>
<!-- Node30&#45;&gt;Node2 -->
<g id="edge29" class="edge">
<title>Node30&#45;&gt;Node2</title>
<path fill="none" stroke="darkgreen" d="M620.17,-13.21C629.3,-16.43 637.86,-21.03 645,-27.5 692.54,-70.61 722.89,-284.02 729.25,-332.63"/>
<polygon fill="darkgreen" stroke="darkgreen" points="621.27,-9.89 610.69,-10.46 619.32,-16.61 621.27,-9.89"/>
</g>
<!-- Node31 -->
<g id="node31" class="node">
<title>Node31</title>
<g id="a_node31"><a xlink:href="classFunctorInterface.html" target="_top" xlink:title="An interface for accessing Moose::Functors.">
<polygon fill="white" stroke="#666666" points="346,-19 233,-19 233,0 346,0 346,-19"/>
<text text-anchor="middle" x="289.5" y="-7" font-family="Courier,monospace" font-size="10.00">FunctorInterface</text>
</a>
</g>
</g>
<!-- Node31&#45;&gt;Node30 -->
<g id="edge30" class="edge">
<title>Node31&#45;&gt;Node30</title>
<path fill="none" stroke="#63b8ff" d="M357.43,-9.5C391.06,-9.5 431.79,-9.5 465.91,-9.5"/>
<polygon fill="#63b8ff" stroke="#63b8ff" points="357.83,-6 347.83,-9.5 357.83,-13 357.83,-6"/>
</g>
</g>
</svg>
        <g id="navigator" transform="translate(0 0)" fill="#404254">
                <rect fill="#f2f5e9" fill-opacity="0.5" stroke="#606060" stroke-width=".5" x="0" y="0" width="60" height="60"/>
                <use id="zoomplus" xlink:href="#zoomPlus" x="17" y="9" onmousedown="handleZoom(evt,'in')"/>
                <use id="zoomminus" xlink:href="#zoomMin" x="42" y="9" onmousedown="handleZoom(evt,'out')"/>
                <use id="reset" xlink:href="#resetDef" x="30" y="36" onmousedown="handleReset()"/>
                <g id="arrowUp" xlink:href="#dirArrow" transform="translate(30 24)" onmousedown="handlePan(0,-1)">
                  <use xlink:href="#rim" fill="#404040">
                        <set attributeName="fill" to="#808080" begin="arrowUp.mouseover" end="arrowUp.mouseout"/>
                  </use>
                  <path fill="none" stroke="white" stroke-width="1.5" d="M0,-3.0v7 M-2.5,-0.5L0,-3.0L2.5,-0.5"/>
                </g>
                <g id="arrowRight" xlink:href="#dirArrow" transform="rotate(90) translate(36 -43)" onmousedown="handlePan(1,0)">
                  <use xlink:href="#rim" fill="#404040">
                        <set attributeName="fill" to="#808080" begin="arrowRight.mouseover" end="arrowRight.mouseout"/>
                  </use>
                  <path fill="none" stroke="white" stroke-width="1.5" d="M0,-3.0v7 M-2.5,-0.5L0,-3.0L2.5,-0.5"/>
                </g>
                <g id="arrowDown" xlink:href="#dirArrow" transform="rotate(180) translate(-30 -48)" onmousedown="handlePan(0,1)">
                  <use xlink:href="#rim" fill="#404040">
                        <set attributeName="fill" to="#808080" begin="arrowDown.mouseover" end="arrowDown.mouseout"/>
                  </use>
                  <path fill="none" stroke="white" stroke-width="1.5" d="M0,-3.0v7 M-2.5,-0.5L0,-3.0L2.5,-0.5"/>
                </g>
                <g id="arrowLeft" xlink:href="#dirArrow" transform="rotate(270) translate(-36 17)" onmousedown="handlePan(-1,0)">
                  <use xlink:href="#rim" fill="#404040">
                        <set attributeName="fill" to="#808080" begin="arrowLeft.mouseover" end="arrowLeft.mouseout"/>
                  </use>
                  <path fill="none" stroke="white" stroke-width="1.5" d="M0,-3.0v7 M-2.5,-0.5L0,-3.0L2.5,-0.5"/>
                </g>
        </g>
        <svg viewBox="0 0 15 15" width="100%" height="30px" preserveAspectRatio="xMaxYMin meet">
         <g id="arrow_out" transform="scale(0.3 0.3)">
          <a xlink:href="classBuildArrayVariableAux__inherit__graph_org.svg" target="_base">
           <rect id="button" ry="5" rx="5" y="6" x="6" height="38" width="38"
                fill="#f2f5e9" fill-opacity="0.5" stroke="#606060" stroke-width="1.0"/>
           <path id="arrow"
             d="M 11.500037,31.436501 C 11.940474,20.09759 22.043105,11.32322 32.158766,21.979434 L 37.068811,17.246167 C 37.068811,17.246167 37.088388,32 37.088388,32 L 22.160133,31.978069 C 22.160133,31.978069 26.997745,27.140456 26.997745,27.140456 C 18.528582,18.264221 13.291696,25.230495 11.500037,31.436501 z"
             style="fill:#404040;"/>
          </a>
         </g>
        </svg>
</svg>
