<?xml version="1.0" encoding="UTF-8" standalone="no"?>
<!DOCTYPE svg PUBLIC "-//W3C//DTD SVG 1.1//EN"
 "http://www.w3.org/Graphics/SVG/1.1/DTD/svg11.dtd">
<!-- Generated by graphviz version 7.0.5 (20221223.1930)
 -->
<!-- Title: Indicator Pages: 1 -->
<svg width="1291pt" height="397pt"
 viewBox="0.00 0.00 1291.00 397.00" xmlns="http://www.w3.org/2000/svg" xmlns:xlink="http://www.w3.org/1999/xlink">
<g id="graph0" class="graph" transform="scale(1 1) rotate(0) translate(4 393)">
<title>Indicator</title>
<!-- Node1 -->
<g id="node1" class="node">
<title>Node1</title>
<g id="a_node1"><a xlink:title=" ">
<polygon fill="#999999" stroke="#666666" points="716,-167 645,-167 645,-148 716,-148 716,-167"/>
<text text-anchor="middle" x="680.5" y="-155" font-family="Courier,monospace" font-size="10.00">Indicator</text>
</a>
</g>
</g>
<!-- Node17 -->
<g id="node17" class="node">
<title>Node17</title>
<g id="a_node17"><a xlink:href="classElementIndicator.html" target="_top" xlink:title=" ">
<polygon fill="white" stroke="#666666" points="880,-195 767,-195 767,-176 880,-176 880,-195"/>
<text text-anchor="middle" x="823.5" y="-183" font-family="Courier,monospace" font-size="10.00">ElementIndicator</text>
</a>
</g>
</g>
<!-- Node1&#45;&gt;Node17 -->
<g id="edge16" class="edge">
<title>Node1&#45;&gt;Node17</title>
<path fill="none" stroke="#63b8ff" d="M727.48,-166.63C741.83,-169.48 757.73,-172.64 772.35,-175.54"/>
<polygon fill="#63b8ff" stroke="#63b8ff" points="728.33,-163.23 717.84,-164.72 726.97,-170.1 728.33,-163.23"/>
</g>
<!-- Node21 -->
<g id="node21" class="node">
<title>Node21</title>
<g id="a_node21"><a xlink:href="classInternalSideIndicator.html" target="_top" xlink:title="The InternalSideIndicator class is responsible for calculating the residuals for various physics on i...">
<polygon fill="white" stroke="#666666" points="895,-149 752,-149 752,-130 895,-130 895,-149"/>
<text text-anchor="middle" x="823.5" y="-137" font-family="Courier,monospace" font-size="10.00">InternalSideIndicator</text>
</a>
</g>
</g>
<!-- Node1&#45;&gt;Node21 -->
<g id="edge20" class="edge">
<title>Node1&#45;&gt;Node21</title>
<path fill="none" stroke="#63b8ff" d="M727.66,-151.61C735.36,-150.62 743.51,-149.58 751.67,-148.54"/>
<polygon fill="#63b8ff" stroke="#63b8ff" points="727.33,-148.12 717.86,-152.86 728.22,-155.06 727.33,-148.12"/>
</g>
<!-- Node2 -->
<g id="node2" class="node">
<title>Node2</title>
<g id="a_node2"><a xlink:href="classMooseObject.html" target="_top" xlink:title="Every object that can be built by the factory should be derived from this class.">
<polygon fill="white" stroke="#666666" points="546,-315 463,-315 463,-296 546,-296 546,-315"/>
<text text-anchor="middle" x="504.5" y="-303" font-family="Courier,monospace" font-size="10.00">MooseObject</text>
</a>
</g>
</g>
<!-- Node2&#45;&gt;Node1 -->
<g id="edge1" class="edge">
<title>Node2&#45;&gt;Node1</title>
<path fill="none" stroke="#63b8ff" d="M557.64,-305.43C575.28,-303.18 594.24,-298.11 609,-287.5 651.74,-256.79 671.24,-191.9 677.31,-167.27"/>
<polygon fill="#63b8ff" stroke="#63b8ff" points="557.41,-301.93 547.79,-306.38 558.08,-308.9 557.41,-301.93"/>
</g>
<!-- Node3 -->
<g id="node3" class="node">
<title>Node3</title>
<g id="a_node3"><a xlink:href="classMooseBase.html" target="_top" xlink:title="Base class for everything in MOOSE with a name and a type.">
<polygon fill="white" stroke="#666666" points="310,-389 239,-389 239,-370 310,-370 310,-389"/>
<text text-anchor="middle" x="274.5" y="-377" font-family="Courier,monospace" font-size="10.00">MooseBase</text>
</a>
</g>
</g>
<!-- Node3&#45;&gt;Node2 -->
<g id="edge2" class="edge">
<title>Node3&#45;&gt;Node2</title>
<path fill="none" stroke="#63b8ff" d="M321.54,-371.78C335.32,-369.03 350.39,-365.58 364,-361.5 407,-348.61 455.19,-327.76 482.19,-315.47"/>
<polygon fill="#63b8ff" stroke="#63b8ff" points="320.97,-368.32 311.81,-373.64 322.29,-375.2 320.97,-368.32"/>
</g>
<!-- Node4 -->
<g id="node4" class="node">
<title>Node4</title>
<g id="a_node4"><a xlink:href="classMooseBaseParameterInterface.html" target="_top" xlink:title="Every object that can be built by the factory should be derived from this class.">
<polygon fill="white" stroke="#666666" points="364,-352 185,-352 185,-333 364,-333 364,-352"/>
<text text-anchor="middle" x="274.5" y="-340" font-family="Courier,monospace" font-size="10.00">MooseBaseParameterInterface</text>
</a>
</g>
</g>
<!-- Node4&#45;&gt;Node2 -->
<g id="edge3" class="edge">
<title>Node4&#45;&gt;Node2</title>
<path fill="none" stroke="#63b8ff" d="M347.88,-330.75C385.73,-324.61 430.68,-317.32 462.51,-312.15"/>
<polygon fill="#63b8ff" stroke="#63b8ff" points="347.7,-327.24 338.39,-332.29 348.83,-334.15 347.7,-327.24"/>
</g>
<!-- Node5 -->
<g id="node5" class="node">
<title>Node5</title>
<g id="a_node5"><a xlink:href="classMooseBaseErrorInterface.html" target="_top" xlink:title="Interface that provides APIs to output errors/warnings/info messages.">
<polygon fill="white" stroke="#666666" points="352,-315 197,-315 197,-296 352,-296 352,-315"/>
<text text-anchor="middle" x="274.5" y="-303" font-family="Courier,monospace" font-size="10.00">MooseBaseErrorInterface</text>
</a>
</g>
</g>
<!-- Node5&#45;&gt;Node2 -->
<g id="edge4" class="edge">
<title>Node5&#45;&gt;Node2</title>
<path fill="none" stroke="#63b8ff" d="M363.8,-305.5C397.92,-305.5 435.28,-305.5 462.77,-305.5"/>
<polygon fill="#63b8ff" stroke="#63b8ff" points="363.89,-302 353.89,-305.5 363.89,-309 363.89,-302"/>
</g>
<!-- Node6 -->
<g id="node6" class="node">
<title>Node6</title>
<g id="a_node6"><a xlink:href="classConsoleStreamInterface.html" target="_top" xlink:title="An inteface for the _console for outputting to the Console object.">
<polygon fill="white" stroke="#666666" points="149,-315 0,-315 0,-296 149,-296 149,-315"/>
<text text-anchor="middle" x="74.5" y="-303" font-family="Courier,monospace" font-size="10.00">ConsoleStreamInterface</text>
</a>
</g>
</g>
<!-- Node6&#45;&gt;Node5 -->
<g id="edge5" class="edge">
<title>Node6&#45;&gt;Node5</title>
<path fill="none" stroke="#63b8ff" d="M160.62,-305.5C172.62,-305.5 184.9,-305.5 196.73,-305.5"/>
<polygon fill="#63b8ff" stroke="#63b8ff" points="160.74,-302 150.74,-305.5 160.74,-309 160.74,-302"/>
</g>
<!-- Node7 -->
<g id="node7" class="node">
<title>Node7</title>
<g id="a_node7"><a xlink:title=" ">
<polygon fill="white" stroke="#666666" points="352,-278 197,-278 197,-259 352,-259 352,-278"/>
<text text-anchor="middle" x="274.5" y="-266" font-family="Courier,monospace" font-size="10.00">libMesh::ParallelObject</text>
</a>
</g>
</g>
<!-- Node7&#45;&gt;Node2 -->
<g id="edge6" class="edge">
<title>Node7&#45;&gt;Node2</title>
<path fill="none" stroke="#63b8ff" d="M347.88,-280.25C385.73,-286.39 430.68,-293.68 462.51,-298.85"/>
<polygon fill="#63b8ff" stroke="#63b8ff" points="348.83,-276.85 338.39,-278.71 347.7,-283.76 348.83,-276.85"/>
</g>
<!-- Node8 -->
<g id="node8" class="node">
<title>Node8</title>
<g id="a_node8"><a xlink:href="classDataFileInterface.html" target="_top" xlink:title=" ">
<polygon fill="white" stroke="#666666" points="337,-240.5 212,-240.5 212,-210.5 337,-210.5 337,-240.5"/>
<text text-anchor="start" x="220" y="-228.5" font-family="Courier,monospace" font-size="10.00">DataFileInterface&lt;</text>
<text text-anchor="middle" x="274.5" y="-217.5" font-family="Courier,monospace" font-size="10.00"> MooseObject &gt;</text>
</a>
</g>
</g>
<!-- Node8&#45;&gt;Node2 -->
<g id="edge7" class="edge">
<title>Node8&#45;&gt;Node2</title>
<path fill="none" stroke="#63b8ff" d="M347.62,-242.35C353.32,-244.73 358.86,-247.44 364,-250.5 383.71,-262.24 379.71,-276.79 400,-287.5 419.11,-297.59 442.71,-302.19 462.54,-304.23"/>
<polygon fill="#63b8ff" stroke="#63b8ff" points="349.23,-239.22 338.64,-238.94 346.74,-245.76 349.23,-239.22"/>
</g>
<!-- Node9 -->
<g id="node9" class="node">
<title>Node9</title>
<g id="a_node9"><a xlink:href="classBlockRestrictable.html" target="_top" xlink:title="An interface that restricts an object to subdomains via the &#39;blocks&#39; input parameter.">
<polygon fill="white" stroke="#666666" points="564,-278 445,-278 445,-259 564,-259 564,-278"/>
<text text-anchor="middle" x="504.5" y="-266" font-family="Courier,monospace" font-size="10.00">BlockRestrictable</text>
</a>
</g>
</g>
<!-- Node9&#45;&gt;Node1 -->
<g id="edge8" class="edge">
<title>Node9&#45;&gt;Node1</title>
<path fill="none" stroke="#63b8ff" d="M575.58,-263.67C587.29,-260.84 598.91,-256.65 609,-250.5 642.74,-229.94 665.98,-186.74 675.15,-167.32"/>
<polygon fill="#63b8ff" stroke="#63b8ff" points="574.92,-260.23 565.84,-265.67 576.34,-267.08 574.92,-260.23"/>
</g>
<!-- Node10 -->
<g id="node10" class="node">
<title>Node10</title>
<g id="a_node10"><a xlink:href="classSetupInterface.html" target="_top" xlink:title=" ">
<polygon fill="white" stroke="#666666" points="555,-241 454,-241 454,-222 555,-222 555,-241"/>
<text text-anchor="middle" x="504.5" y="-229" font-family="Courier,monospace" font-size="10.00">SetupInterface</text>
</a>
</g>
</g>
<!-- Node10&#45;&gt;Node1 -->
<g id="edge9" class="edge">
<title>Node10&#45;&gt;Node1</title>
<path fill="none" stroke="#63b8ff" d="M566.68,-225.28C580.97,-222.47 595.85,-218.4 609,-212.5 633.64,-201.44 657.35,-180 670.02,-167.41"/>
<polygon fill="#63b8ff" stroke="#63b8ff" points="566.12,-221.82 556.88,-227.01 567.34,-228.72 566.12,-221.82"/>
</g>
<!-- Node11 -->
<g id="node11" class="node">
<title>Node11</title>
<g id="a_node11"><a xlink:href="classFunctionInterface.html" target="_top" xlink:title="Interface for objects that need to use functions.">
<polygon fill="white" stroke="#666666" points="564,-204 445,-204 445,-185 564,-185 564,-204"/>
<text text-anchor="middle" x="504.5" y="-192" font-family="Courier,monospace" font-size="10.00">FunctionInterface</text>
</a>
</g>
</g>
<!-- Node11&#45;&gt;Node1 -->
<g id="edge10" class="edge">
<title>Node11&#45;&gt;Node1</title>
<path fill="none" stroke="#63b8ff" d="M574.94,-182.43C586.35,-180.25 598.03,-177.91 609,-175.5 620.72,-172.93 633.45,-169.79 644.83,-166.85"/>
<polygon fill="#63b8ff" stroke="#63b8ff" points="574.34,-178.98 565.15,-184.27 575.63,-185.86 574.34,-178.98"/>
</g>
<!-- Node12 -->
<g id="node12" class="node">
<title>Node12</title>
<g id="a_node12"><a xlink:href="classUserObjectInterface.html" target="_top" xlink:title="Interface for objects that need to use UserObjects.">
<polygon fill="white" stroke="#666666" points="570,-167 439,-167 439,-148 570,-148 570,-167"/>
<text text-anchor="middle" x="504.5" y="-155" font-family="Courier,monospace" font-size="10.00">UserObjectInterface</text>
</a>
</g>
</g>
<!-- Node12&#45;&gt;Node1 -->
<g id="edge11" class="edge">
<title>Node12&#45;&gt;Node1</title>
<path fill="none" stroke="#63b8ff" d="M581.71,-157.5C603.77,-157.5 626.77,-157.5 644.92,-157.5"/>
<polygon fill="#63b8ff" stroke="#63b8ff" points="581.8,-154 571.8,-157.5 581.8,-161 581.8,-154"/>
</g>
<!-- Node13 -->
<g id="node13" class="node">
<title>Node13</title>
<g id="a_node13"><a xlink:href="classMooseVariableDependencyInterface.html" target="_top" xlink:title=" ">
<polygon fill="white" stroke="#666666" points="609,-130 400,-130 400,-111 609,-111 609,-130"/>
<text text-anchor="middle" x="504.5" y="-118" font-family="Courier,monospace" font-size="10.00">MooseVariableDependencyInterface</text>
</a>
</g>
</g>
<!-- Node13&#45;&gt;Node1 -->
<g id="edge12" class="edge">
<title>Node13&#45;&gt;Node1</title>
<path fill="none" stroke="#63b8ff" d="M579.5,-132.52C589.44,-134.39 599.49,-136.4 609,-138.5 620.88,-141.13 633.77,-144.46 645.23,-147.59"/>
<polygon fill="#63b8ff" stroke="#63b8ff" points="580.3,-129.11 569.84,-130.76 579.04,-136 580.3,-129.11"/>
</g>
<!-- Node14 -->
<g id="node14" class="node">
<title>Node14</title>
<g id="a_node14"><a xlink:href="classRestartable.html" target="_top" xlink:title="A class for creating restricted objects.">
<polygon fill="white" stroke="#666666" points="546,-93 463,-93 463,-74 546,-74 546,-93"/>
<text text-anchor="middle" x="504.5" y="-81" font-family="Courier,monospace" font-size="10.00">Restartable</text>
</a>
</g>
</g>
<!-- Node14&#45;&gt;Node1 -->
<g id="edge13" class="edge">
<title>Node14&#45;&gt;Node1</title>
<path fill="none" stroke="#63b8ff" d="M557.81,-87.45C574.68,-90.06 593.11,-94.37 609,-101.5 634.1,-112.76 658.01,-135.01 670.5,-147.81"/>
<polygon fill="#63b8ff" stroke="#63b8ff" points="558.31,-83.99 547.93,-86.11 557.37,-90.92 558.31,-83.99"/>
</g>
<!-- Node15 -->
<g id="node15" class="node">
<title>Node15</title>
<g id="a_node15"><a xlink:href="classOutputInterface.html" target="_top" xlink:title="A class to provide an common interface to objects requiring &quot;outputs&quot; option.">
<polygon fill="white" stroke="#666666" points="558,-56 451,-56 451,-37 558,-37 558,-56"/>
<text text-anchor="middle" x="504.5" y="-44" font-family="Courier,monospace" font-size="10.00">OutputInterface</text>
</a>
</g>
</g>
<!-- Node15&#45;&gt;Node1 -->
<g id="edge14" class="edge">
<title>Node15&#45;&gt;Node1</title>
<path fill="none" stroke="#63b8ff" d="M569.42,-49.97C583.18,-52.76 597.14,-57.27 609,-64.5 642.74,-85.06 665.98,-128.26 675.15,-147.68"/>
<polygon fill="#63b8ff" stroke="#63b8ff" points="570.4,-46.59 559.96,-48.35 569.22,-53.49 570.4,-46.59"/>
</g>
<!-- Node16 -->
<g id="node16" class="node">
<title>Node16</title>
<g id="a_node16"><a xlink:href="classMaterialPropertyInterface.html" target="_top" xlink:title="An interface for accessing Materials.">
<polygon fill="white" stroke="#666666" points="588,-19 421,-19 421,0 588,0 588,-19"/>
<text text-anchor="middle" x="504.5" y="-7" font-family="Courier,monospace" font-size="10.00">MaterialPropertyInterface</text>
</a>
</g>
</g>
<!-- Node16&#45;&gt;Node1 -->
<g id="edge15" class="edge">
<title>Node16&#45;&gt;Node1</title>
<path fill="none" stroke="#63b8ff" d="M598.71,-21.28C602.31,-23.1 605.75,-25.17 609,-27.5 651.74,-58.21 671.24,-123.1 677.31,-147.73"/>
<polygon fill="#63b8ff" stroke="#63b8ff" points="600.21,-18.11 589.64,-17.34 597.42,-24.53 600.21,-18.11"/>
</g>
<!-- Node18 -->
<g id="node18" class="node">
<title>Node18</title>
<g id="a_node18"><a xlink:href="classElementIntegralIndicator.html" target="_top" xlink:title=" ">
<polygon fill="white" stroke="#666666" points="1092,-205 931,-205 931,-186 1092,-186 1092,-205"/>
<text text-anchor="middle" x="1011.5" y="-193" font-family="Courier,monospace" font-size="10.00">ElementIntegralIndicator</text>
</a>
</g>
</g>
<!-- Node17&#45;&gt;Node18 -->
<g id="edge17" class="edge">
<title>Node17&#45;&gt;Node18</title>
<path fill="none" stroke="#63b8ff" d="M891.7,-189.11C904.34,-189.79 917.68,-190.51 930.67,-191.21"/>
<polygon fill="#63b8ff" stroke="#63b8ff" points="891.99,-185.62 881.82,-188.58 891.62,-192.61 891.99,-185.62"/>
</g>
<!-- Node19 -->
<g id="node19" class="node">
<title>Node19</title>
<g id="a_node19"><a xlink:href="classAnalyticalDiffIndicator.html" target="_top" xlink:title=" ">
<polygon fill="white" stroke="#666666" points="1283,-223 1128,-223 1128,-204 1283,-204 1283,-223"/>
<text text-anchor="middle" x="1205.5" y="-211" font-family="Courier,monospace" font-size="10.00">AnalyticalDiffIndicator</text>
</a>
</g>
</g>
<!-- Node18&#45;&gt;Node19 -->
<g id="edge18" class="edge">
<title>Node18&#45;&gt;Node19</title>
<path fill="none" stroke="#63b8ff" d="M1103.62,-204.04C1111.7,-204.8 1119.82,-205.56 1127.77,-206.31"/>
<polygon fill="#63b8ff" stroke="#63b8ff" points="1104.05,-200.57 1093.76,-203.12 1103.39,-207.54 1104.05,-200.57"/>
</g>
<!-- Node20 -->
<g id="node20" class="node">
<title>Node20</title>
<g id="a_node20"><a xlink:href="classAnalyticalIndicator.html" target="_top" xlink:title=" ">
<polygon fill="white" stroke="#666666" points="1271,-186 1140,-186 1140,-167 1271,-167 1271,-186"/>
<text text-anchor="middle" x="1205.5" y="-174" font-family="Courier,monospace" font-size="10.00">AnalyticalIndicator</text>
</a>
</g>
</g>
<!-- Node18&#45;&gt;Node20 -->
<g id="edge19" class="edge">
<title>Node18&#45;&gt;Node20</title>
<path fill="none" stroke="#63b8ff" d="M1103.42,-186.5C1115.63,-185.29 1127.95,-184.08 1139.59,-182.92"/>
<polygon fill="#63b8ff" stroke="#63b8ff" points="1103.37,-182.99 1093.76,-187.46 1104.06,-189.96 1103.37,-182.99"/>
</g>
<!-- Node22 -->
<g id="node22" class="node">
<title>Node22</title>
<g id="a_node22"><a xlink:href="classGradientJumpIndicator.html" target="_top" xlink:title=" ">
<polygon fill="white" stroke="#666666" points="1083,-168 940,-168 940,-149 1083,-149 1083,-168"/>
<text text-anchor="middle" x="1011.5" y="-156" font-family="Courier,monospace" font-size="10.00">GradientJumpIndicator</text>
</a>
</g>
</g>
<!-- Node21&#45;&gt;Node22 -->
<g id="edge21" class="edge">
<title>Node21&#45;&gt;Node22</title>
<path fill="none" stroke="#63b8ff" d="M906.67,-147.89C917.63,-149.01 928.79,-150.15 939.54,-151.25"/>
<polygon fill="#63b8ff" stroke="#63b8ff" points="907.16,-144.43 896.85,-146.89 906.45,-151.39 907.16,-144.43"/>
</g>
<!-- Node23 -->
<g id="node23" class="node">
<title>Node23</title>
<g id="a_node23"><a xlink:href="classLaplacianJumpIndicator.html" target="_top" xlink:title=" ">
<polygon fill="white" stroke="#666666" points="1086,-131 937,-131 937,-112 1086,-112 1086,-131"/>
<text text-anchor="middle" x="1011.5" y="-119" font-family="Courier,monospace" font-size="10.00">LaplacianJumpIndicator</text>
</a>
</g>
</g>
<!-- Node21&#45;&gt;Node23 -->
<g id="edge22" class="edge">
<title>Node21&#45;&gt;Node23</title>
<path fill="none" stroke="#63b8ff" d="M906.59,-131.56C916.63,-130.58 926.85,-129.6 936.76,-128.64"/>
<polygon fill="#63b8ff" stroke="#63b8ff" points="906.47,-128.05 896.86,-132.5 907.15,-135.02 906.47,-128.05"/>
</g>
<!-- Node24 -->
<g id="node24" class="node">
<title>Node24</title>
<g id="a_node24"><a xlink:href="classValueJumpIndicator.html" target="_top" xlink:title=" ">
<polygon fill="white" stroke="#666666" points="1074,-94 949,-94 949,-75 1074,-75 1074,-94"/>
<text text-anchor="middle" x="1011.5" y="-82" font-family="Courier,monospace" font-size="10.00">ValueJumpIndicator</text>
</a>
</g>
</g>
<!-- Node21&#45;&gt;Node24 -->
<g id="edge23" class="edge">
<title>Node21&#45;&gt;Node24</title>
<path fill="none" stroke="#63b8ff" d="M861.2,-125.61C881.58,-118.19 907.5,-109.22 931,-102.5 941.07,-99.62 951.96,-96.9 962.35,-94.49"/>
<polygon fill="#63b8ff" stroke="#63b8ff" points="860.09,-122.29 851.92,-129.03 862.51,-128.86 860.09,-122.29"/>
</g>
</g>
</svg>
