<?xml version="1.0" encoding="UTF-8" standalone="no"?>
<!DOCTYPE svg PUBLIC "-//W3C//DTD SVG 1.1//EN"
 "http://www.w3.org/Graphics/SVG/1.1/DTD/svg11.dtd">
<!-- Generated by graphviz version 7.0.5 (20221223.1930)
 -->
<!-- Title: ReporterContextBase Pages: 1 -->
<!--zoomable 138 -->
<svg id="main" version="1.1" xmlns="http://www.w3.org/2000/svg" xmlns:xlink="http://www.w3.org/1999/xlink" xml:space="preserve" onload="init(evt)">
<style type="text/css"><![CDATA[
.edge:hover path { stroke: red; }
.edge:hover polygon { stroke: red; fill: red; }
]]></style>
<script type="text/javascript"><![CDATA[
var edges = document.getElementsByTagName('g');
if (edges && edges.length) {
  for (var i=0;i<edges.length;i++) {
    if (edges[i].id.substr(0,4)=='edge') {
      edges[i].setAttribute('class','edge');
    }
  }
}
]]></script>
        <defs>
                <circle id="rim" cx="0" cy="0" r="7"/>
                <circle id="rim2" cx="0" cy="0" r="3.5"/>
                <g id="zoomPlus">
                        <use xlink:href="#rim" fill="#404040">
                                <set attributeName="fill" to="#808080" begin="zoomplus.mouseover" end="zoomplus.mouseout"/>
                        </use>
                        <path d="M-4,0h8M0,-4v8" fill="none" stroke="white" stroke-width="1.5" pointer-events="none"/>
                </g>
                <g id="zoomMin">
                        <use xlink:href="#rim" fill="#404040">
                                <set attributeName="fill" to="#808080" begin="zoomminus.mouseover" end="zoomminus.mouseout"/>
                        </use>
                        <path d="M-4,0h8" fill="none" stroke="white" stroke-width="1.5" pointer-events="none"/>
                </g>
                <g id="dirArrow">
                        <path fill="none" stroke="white" stroke-width="1.5" d="M0,-3.0v7 M-2.5,-0.5L0,-3.0L2.5,-0.5"/>
                </g>
               <g id="resetDef">
                       <use xlink:href="#rim2" fill="#404040">
                               <set attributeName="fill" to="#808080" begin="reset.mouseover" end="reset.mouseout"/>
                       </use>
               </g>
        </defs>

<script type="text/javascript">
var viewWidth = 957;
var viewHeight = 138;
var sectionId = 'dynsection-0';
</script>
<script xlink:href="svgpan.js"/>
<svg id="graph" class="graph">
<g id="viewport">
<title>ReporterContextBase</title>
<!-- Node1 -->
<g id="node1" class="node">
<title>Node1</title>
<g id="a_node1"><a xlink:title="This is a helper class to aid with parallel communication of compute Reporter values as well as provi...">
<polygon fill="#999999" stroke="#666666" points="322,-95 191,-95 191,-76 322,-76 322,-95"/>
<text text-anchor="middle" x="256.5" y="-83" font-family="Courier,monospace" font-size="10.00">ReporterContextBase</text>
</a>
</g>
</g>
<!-- Node3 -->
<g id="node3" class="node">
<title>Node3</title>
<g id="a_node3"><a xlink:href="classReporterContext.html" target="_top" xlink:title=" ">
<polygon fill="white" stroke="#666666" points="495,-122.5 358,-122.5 358,-92.5 495,-92.5 495,-122.5"/>
<text text-anchor="start" x="366" y="-110.5" font-family="Courier,monospace" font-size="10.00">ReporterContext&lt; std</text>
<text text-anchor="middle" x="426.5" y="-99.5" font-family="Courier,monospace" font-size="10.00">::vector&lt; T &gt; &gt;</text>
</a>
</g>
</g>
<!-- Node1&#45;&gt;Node3 -->
<g id="edge2" class="edge">
<title>Node1&#45;&gt;Node3</title>
<path fill="none" stroke="#63b8ff" d="M333.67,-95.47C341.67,-96.52 349.77,-97.58 357.66,-98.62"/>
<polygon fill="#63b8ff" stroke="#63b8ff" points="334.32,-92.03 323.95,-94.2 333.41,-98.97 334.32,-92.03"/>
</g>
<!-- Node5 -->
<g id="node5" class="node">
<title>Node5</title>
<g id="a_node5"><a xlink:href="classReporterContext.html" target="_top" xlink:title="General context that is called by all Reporter values to manage the old values.">
<polygon fill="white" stroke="#666666" points="495,-74 358,-74 358,-55 495,-55 495,-74"/>
<text text-anchor="middle" x="426.5" y="-62" font-family="Courier,monospace" font-size="10.00">ReporterContext&lt; T &gt;</text>
</a>
</g>
</g>
<!-- Node1&#45;&gt;Node5 -->
<g id="edge4" class="edge">
<title>Node1&#45;&gt;Node5</title>
<path fill="none" stroke="#63b8ff" d="M333.67,-75.98C341.67,-74.98 349.77,-73.97 357.66,-72.98"/>
<polygon fill="#63b8ff" stroke="#63b8ff" points="333.44,-72.48 323.96,-77.19 334.31,-79.43 333.44,-72.48"/>
</g>
<!-- Node2 -->
<g id="node2" class="node">
<title>Node2</title>
<g id="a_node2"><a xlink:title=" ">
<polygon fill="white" stroke="#666666" points="155,-95 0,-95 0,-76 155,-76 155,-95"/>
<text text-anchor="middle" x="77.5" y="-83" font-family="Courier,monospace" font-size="10.00">libMesh::ParallelObject</text>
</a>
</g>
</g>
<!-- Node2&#45;&gt;Node1 -->
<g id="edge1" class="edge">
<title>Node2&#45;&gt;Node1</title>
<path fill="none" stroke="#63b8ff" d="M166.72,-85.5C174.77,-85.5 182.82,-85.5 190.62,-85.5"/>
<polygon fill="#63b8ff" stroke="#63b8ff" points="166.88,-82 156.88,-85.5 166.88,-89 166.88,-82"/>
</g>
<!-- Node4 -->
<g id="node4" class="node">
<title>Node4</title>
<g id="a_node4"><a xlink:href="classReporterVectorContext.html" target="_top" xlink:title="This context is specific for vector types of reporters, mainly for declaring a vector of the type fro...">
<polygon fill="white" stroke="#666666" points="707,-117 534,-117 534,-98 707,-98 707,-117"/>
<text text-anchor="middle" x="620.5" y="-105" font-family="Courier,monospace" font-size="10.00">ReporterVectorContext&lt; T &gt;</text>
</a>
</g>
</g>
<!-- Node3&#45;&gt;Node4 -->
<g id="edge3" class="edge">
<title>Node3&#45;&gt;Node4</title>
<path fill="none" stroke="#63b8ff" d="M506.97,-107.5C515.82,-107.5 524.87,-107.5 533.8,-107.5"/>
<polygon fill="#63b8ff" stroke="#63b8ff" points="506.98,-104 496.98,-107.5 506.98,-111 506.98,-104"/>
</g>
<!-- Node6 -->
<g id="node6" class="node">
<title>Node6</title>
<g id="a_node6"><a xlink:href="classReporterGeneralContext.html" target="_top" xlink:title=" ">
<polygon fill="white" stroke="#666666" points="710,-74 531,-74 531,-55 710,-55 710,-74"/>
<text text-anchor="middle" x="620.5" y="-62" font-family="Courier,monospace" font-size="10.00">ReporterGeneralContext&lt; T &gt;</text>
</a>
</g>
</g>
<!-- Node5&#45;&gt;Node6 -->
<g id="edge5" class="edge">
<title>Node5&#45;&gt;Node6</title>
<path fill="none" stroke="#63b8ff" d="M506.88,-64.5C514.77,-64.5 522.81,-64.5 530.78,-64.5"/>
<polygon fill="#63b8ff" stroke="#63b8ff" points="506.98,-61 496.98,-64.5 506.98,-68 506.98,-61"/>
</g>
<!-- Node7 -->
<g id="node7" class="node">
<title>Node7</title>
<g id="a_node7"><a xlink:href="classReporterBroadcastContext.html" target="_top" xlink:title="A context that broadcasts the Reporter value from the root processor.">
<polygon fill="white" stroke="#666666" points="943,-130 752,-130 752,-111 943,-111 943,-130"/>
<text text-anchor="middle" x="847.5" y="-118" font-family="Courier,monospace" font-size="10.00">ReporterBroadcastContext&lt; T &gt;</text>
</a>
</g>
</g>
<!-- Node6&#45;&gt;Node7 -->
<g id="edge6" class="edge">
<title>Node6&#45;&gt;Node7</title>
<path fill="none" stroke="#63b8ff" d="M671.69,-77.35C684.26,-80.77 697.67,-84.61 710,-88.5 726.22,-93.62 729.59,-97.02 746,-101.5 758.59,-104.94 772.23,-107.97 785.29,-110.54"/>
<polygon fill="#63b8ff" stroke="#63b8ff" points="672.94,-74.06 662.37,-74.84 671.12,-80.82 672.94,-74.06"/>
</g>
<!-- Node8 -->
<g id="node8" class="node">
<title>Node8</title>
<g id="a_node8"><a xlink:href="classReporterGatherContext.html" target="_top" xlink:title="A context that gathers the Reporter value to the root processor.">
<polygon fill="white" stroke="#666666" points="934,-93 761,-93 761,-74 934,-74 934,-93"/>
<text text-anchor="middle" x="847.5" y="-81" font-family="Courier,monospace" font-size="10.00">ReporterGatherContext&lt; T &gt;</text>
</a>
</g>
</g>
<!-- Node6&#45;&gt;Node8 -->
<g id="edge7" class="edge">
<title>Node6&#45;&gt;Node8</title>
<path fill="none" stroke="#63b8ff" d="M721.79,-72.97C734.81,-74.07 748.04,-75.19 760.79,-76.26"/>
<polygon fill="#63b8ff" stroke="#63b8ff" points="722.19,-69.49 711.93,-72.14 721.6,-76.47 722.19,-69.49"/>
</g>
<!-- Node9 -->
<g id="node9" class="node">
<title>Node9</title>
<g id="a_node9"><a xlink:href="classReporterScatterContext.html" target="_top" xlink:title="A context that scatters the Reporter value from the root processor.">
<polygon fill="white" stroke="#666666" points="937,-56 758,-56 758,-37 937,-37 937,-56"/>
<text text-anchor="middle" x="847.5" y="-44" font-family="Courier,monospace" font-size="10.00">ReporterScatterContext&lt; T &gt;</text>
</a>
</g>
</g>
<!-- Node6&#45;&gt;Node9 -->
<g id="edge8" class="edge">
<title>Node6&#45;&gt;Node9</title>
<path fill="none" stroke="#63b8ff" d="M721.85,-56.47C733.85,-55.51 746.04,-54.54 757.85,-53.59"/>
<polygon fill="#63b8ff" stroke="#63b8ff" points="721.62,-52.98 711.93,-57.27 722.18,-59.96 721.62,-52.98"/>
</g>
<!-- Node10 -->
<g id="node10" class="node">
<title>Node10</title>
<g id="a_node10"><a xlink:href="classVectorPostprocessorContext.html" target="_top" xlink:title=" ">
<polygon fill="white" stroke="#666666" points="949,-19 746,-19 746,0 949,0 949,-19"/>
<text text-anchor="middle" x="847.5" y="-7" font-family="Courier,monospace" font-size="10.00">VectorPostprocessorContext&lt; T &gt;</text>
</a>
</g>
</g>
<!-- Node6&#45;&gt;Node10 -->
<g id="edge9" class="edge">
<title>Node6&#45;&gt;Node10</title>
<path fill="none" stroke="#63b8ff" d="M662.33,-51.11C686.49,-43.51 717.78,-34.2 746,-27.5 758.42,-24.55 771.8,-21.84 784.62,-19.46"/>
<polygon fill="#63b8ff" stroke="#63b8ff" points="661.35,-47.75 652.88,-54.12 663.47,-54.42 661.35,-47.75"/>
</g>
</g>
</svg>
        <g id="navigator" transform="translate(0 0)" fill="#404254">
                <rect fill="#f2f5e9" fill-opacity="0.5" stroke="#606060" stroke-width=".5" x="0" y="0" width="60" height="60"/>
                <use id="zoomplus" xlink:href="#zoomPlus" x="17" y="9" onmousedown="handleZoom(evt,'in')"/>
                <use id="zoomminus" xlink:href="#zoomMin" x="42" y="9" onmousedown="handleZoom(evt,'out')"/>
                <use id="reset" xlink:href="#resetDef" x="30" y="36" onmousedown="handleReset()"/>
                <g id="arrowUp" xlink:href="#dirArrow" transform="translate(30 24)" onmousedown="handlePan(0,-1)">
                  <use xlink:href="#rim" fill="#404040">
                        <set attributeName="fill" to="#808080" begin="arrowUp.mouseover" end="arrowUp.mouseout"/>
                  </use>
                  <path fill="none" stroke="white" stroke-width="1.5" d="M0,-3.0v7 M-2.5,-0.5L0,-3.0L2.5,-0.5"/>
                </g>
                <g id="arrowRight" xlink:href="#dirArrow" transform="rotate(90) translate(36 -43)" onmousedown="handlePan(1,0)">
                  <use xlink:href="#rim" fill="#404040">
                        <set attributeName="fill" to="#808080" begin="arrowRight.mouseover" end="arrowRight.mouseout"/>
                  </use>
                  <path fill="none" stroke="white" stroke-width="1.5" d="M0,-3.0v7 M-2.5,-0.5L0,-3.0L2.5,-0.5"/>
                </g>
                <g id="arrowDown" xlink:href="#dirArrow" transform="rotate(180) translate(-30 -48)" onmousedown="handlePan(0,1)">
                  <use xlink:href="#rim" fill="#404040">
                        <set attributeName="fill" to="#808080" begin="arrowDown.mouseover" end="arrowDown.mouseout"/>
                  </use>
                  <path fill="none" stroke="white" stroke-width="1.5" d="M0,-3.0v7 M-2.5,-0.5L0,-3.0L2.5,-0.5"/>
                </g>
                <g id="arrowLeft" xlink:href="#dirArrow" transform="rotate(270) translate(-36 17)" onmousedown="handlePan(-1,0)">
                  <use xlink:href="#rim" fill="#404040">
                        <set attributeName="fill" to="#808080" begin="arrowLeft.mouseover" end="arrowLeft.mouseout"/>
                  </use>
                  <path fill="none" stroke="white" stroke-width="1.5" d="M0,-3.0v7 M-2.5,-0.5L0,-3.0L2.5,-0.5"/>
                </g>
        </g>
        <svg viewBox="0 0 15 15" width="100%" height="30px" preserveAspectRatio="xMaxYMin meet">
         <g id="arrow_out" transform="scale(0.3 0.3)">
          <a xlink:href="classReporterContextBase__inherit__graph_org.svg" target="_base">
           <rect id="button" ry="5" rx="5" y="6" x="6" height="38" width="38"
                fill="#f2f5e9" fill-opacity="0.5" stroke="#606060" stroke-width="1.0"/>
           <path id="arrow"
             d="M 11.500037,31.436501 C 11.940474,20.09759 22.043105,11.32322 32.158766,21.979434 L 37.068811,17.246167 C 37.068811,17.246167 37.088388,32 37.088388,32 L 22.160133,31.978069 C 22.160133,31.978069 26.997745,27.140456 26.997745,27.140456 C 18.528582,18.264221 13.291696,25.230495 11.500037,31.436501 z"
             style="fill:#404040;"/>
          </a>
         </g>
        </svg>
</svg>
