<?xml version="1.0" encoding="UTF-8" standalone="no"?>
<!DOCTYPE svg PUBLIC "-//W3C//DTD SVG 1.1//EN"
 "http://www.w3.org/Graphics/SVG/1.1/DTD/svg11.dtd">
<!-- Generated by graphviz version 7.0.5 (20221223.1930)
 -->
<!-- Title: ConservativeTemperatureAdvection Pages: 1 -->
<svg width="909pt" height="86pt"
 viewBox="0.00 0.00 909.00 86.00" xmlns="http://www.w3.org/2000/svg" xmlns:xlink="http://www.w3.org/1999/xlink">
<g id="graph0" class="graph" transform="scale(1 1) rotate(0) translate(4 82)">
<title>ConservativeTemperatureAdvection</title>
<!-- Node1 -->
<g id="node1" class="node">
<title>Node1</title>
<g id="a_node1"><a xlink:title=" ">
<polygon fill="#999999" stroke="#666666" points="901,-48.5 692,-48.5 692,-29.5 901,-29.5 901,-48.5"/>
<text text-anchor="middle" x="796.5" y="-36.5" font-family="Courier,monospace" font-size="10.00">ConservativeTemperatureAdvection</text>
</a>
</g>
</g>
<!-- Node2 -->
<g id="node2" class="node">
<title>Node2</title>
<g id="a_node2"><a xlink:href="classDerivativeMaterialInterface.html" target="_top" xlink:title=" ">
<polygon fill="white" stroke="#666666" points="656,-59.5 477,-59.5 477,-18.5 656,-18.5 656,-59.5"/>
<text text-anchor="start" x="485" y="-47.5" font-family="Courier,monospace" font-size="10.00">DerivativeMaterialInterface</text>
<text text-anchor="start" x="485" y="-36.5" font-family="Courier,monospace" font-size="10.00">&lt; JvarMapKernelInterface</text>
<text text-anchor="middle" x="566.5" y="-25.5" font-family="Courier,monospace" font-size="10.00">&lt; ConservativeAdvection &gt; &gt;</text>
</a>
</g>
</g>
<!-- Node2&#45;&gt;Node1 -->
<g id="edge1" class="edge">
<title>Node2&#45;&gt;Node1</title>
<path fill="none" stroke="#63b8ff" d="M667.57,-39C675.6,-39 683.72,-39 691.78,-39"/>
<polygon fill="#63b8ff" stroke="#63b8ff" points="667.82,-35.5 657.82,-39 667.82,-42.5 667.82,-35.5"/>
</g>
<!-- Node3 -->
<g id="node3" class="node">
<title>Node3</title>
<g id="a_node3"><a xlink:href="classJvarMapKernelInterface.html" target="_top" xlink:title=" ">
<polygon fill="white" stroke="#666666" points="438,-78 271,-78 271,-48 438,-48 438,-78"/>
<text text-anchor="start" x="279" y="-66" font-family="Courier,monospace" font-size="10.00">JvarMapKernelInterface</text>
<text text-anchor="middle" x="354.5" y="-55" font-family="Courier,monospace" font-size="10.00">&lt; ConservativeAdvection &gt;</text>
</a>
</g>
</g>
<!-- Node3&#45;&gt;Node2 -->
<g id="edge2" class="edge">
<title>Node3&#45;&gt;Node2</title>
<path fill="none" stroke="#63b8ff" d="M449.72,-52.23C458.64,-51.21 467.67,-50.18 476.54,-49.17"/>
<polygon fill="#63b8ff" stroke="#63b8ff" points="449.54,-48.73 440,-53.34 450.33,-55.68 449.54,-48.73"/>
</g>
<!-- Node4 -->
<g id="node4" class="node">
<title>Node4</title>
<g id="a_node4"><a xlink:href="classJvarMapInterfaceBase.html" target="_top" xlink:title="Base class (&quot;Veneer&quot;) that implements the actual mapping from &#39;jvar&#39; in into the _coupled_moose_vars ...">
<polygon fill="white" stroke="#666666" points="232,-72.5 65,-72.5 65,-53.5 232,-53.5 232,-72.5"/>
<text text-anchor="middle" x="148.5" y="-60.5" font-family="Courier,monospace" font-size="10.00">JvarMapInterfaceBase&lt; T &gt;</text>
</a>
</g>
</g>
<!-- Node4&#45;&gt;Node3 -->
<g id="edge3" class="edge">
<title>Node4&#45;&gt;Node3</title>
<path fill="none" stroke="#63b8ff" d="M243.76,-63C252.72,-63 261.76,-63 270.6,-63"/>
<polygon fill="#63b8ff" stroke="#63b8ff" points="243.99,-59.5 233.99,-63 243.99,-66.5 243.99,-59.5"/>
</g>
<!-- Node5 -->
<g id="node5" class="node">
<title>Node5</title>
<g id="a_node5"><a xlink:title=" ">
<polygon fill="white" stroke="#666666" points="29,-72.5 0,-72.5 0,-53.5 29,-53.5 29,-72.5"/>
<text text-anchor="middle" x="14.5" y="-60.5" font-family="Courier,monospace" font-size="10.00">T</text>
</a>
</g>
</g>
<!-- Node5&#45;&gt;Node4 -->
<g id="edge4" class="edge">
<title>Node5&#45;&gt;Node4</title>
<path fill="none" stroke="#63b8ff" d="M40.42,-63C47.6,-63 55.86,-63 64.54,-63"/>
<polygon fill="#63b8ff" stroke="#63b8ff" points="40.64,-59.5 30.64,-63 40.64,-66.5 40.64,-59.5"/>
</g>
<!-- Node6 -->
<g id="node6" class="node">
<title>Node6</title>
<g id="a_node6"><a xlink:href="classDerivativeMaterialPropertyNameInterface.html" target="_top" xlink:title=" ">
<polygon fill="white" stroke="#666666" points="441,-30 268,-30 268,0 441,0 441,-30"/>
<text text-anchor="start" x="276" y="-18" font-family="Courier,monospace" font-size="10.00">DerivativeMaterialProperty</text>
<text text-anchor="middle" x="354.5" y="-7" font-family="Courier,monospace" font-size="10.00">NameInterface</text>
</a>
</g>
</g>
<!-- Node6&#45;&gt;Node2 -->
<g id="edge5" class="edge">
<title>Node6&#45;&gt;Node2</title>
<path fill="none" stroke="#63b8ff" d="M452.52,-26.09C460.57,-27.01 468.67,-27.93 476.65,-28.85"/>
<polygon fill="#63b8ff" stroke="#63b8ff" points="453.05,-22.63 442.72,-24.97 452.26,-29.58 453.05,-22.63"/>
</g>
</g>
</svg>
