<?xml version="1.0" encoding="UTF-8" standalone="no"?>
<!DOCTYPE svg PUBLIC "-//W3C//DTD SVG 1.1//EN"
 "http://www.w3.org/Graphics/SVG/1.1/DTD/svg11.dtd">
<!-- Generated by graphviz version 7.0.5 (20221223.1930)
 -->
<!-- Title: PiecewiseByBlockLambdaFunctor&lt; T &gt; Pages: 1 -->
<svg width="229pt" height="192pt"
 viewBox="0.00 0.00 229.00 192.00" xmlns="http://www.w3.org/2000/svg" xmlns:xlink="http://www.w3.org/1999/xlink">
<g id="graph0" class="graph" transform="scale(1 1) rotate(0) translate(4 188)">
<title>PiecewiseByBlockLambdaFunctor&lt; T &gt;</title>
<!-- Node1 -->
<g id="node1" class="node">
<title>Node1</title>
<g id="a_node1"><a xlink:title="A material property that is evaluated on&#45;the&#45;fly via calls to various overloads of operator()">
<polygon fill="#999999" stroke="#666666" points="221,-19 0,-19 0,0 221,0 221,-19"/>
<text text-anchor="middle" x="110.5" y="-7" font-family="Courier,monospace" font-size="10.00">PiecewiseByBlockLambdaFunctor&lt; T &gt;</text>
</a>
</g>
</g>
<!-- Node2 -->
<g id="node2" class="node">
<title>Node2</title>
<g id="a_node2"><a xlink:href="classMoose_1_1FunctorBase.html" target="_top" xlink:title="Base class template for functor objects.">
<polygon fill="white" stroke="#666666" points="188,-74 33,-74 33,-55 188,-55 188,-74"/>
<text text-anchor="middle" x="110.5" y="-62" font-family="Courier,monospace" font-size="10.00">Moose::FunctorBase&lt; T &gt;</text>
</a>
</g>
</g>
<!-- Node2&#45;&gt;Node1 -->
<g id="edge1" class="edge">
<title>Node2&#45;&gt;Node1</title>
<path fill="none" stroke="#63b8ff" d="M110.5,-43.35C110.5,-35.1 110.5,-25.97 110.5,-19.44"/>
<polygon fill="#63b8ff" stroke="#63b8ff" points="107,-43.23 110.5,-53.23 114,-43.23 107,-43.23"/>
</g>
<!-- Node3 -->
<g id="node3" class="node">
<title>Node3</title>
<g id="a_node3"><a xlink:href="classMoose_1_1FunctorAbstract.html" target="_top" xlink:title="Abstract base class that can be used to hold collections of functors.">
<polygon fill="white" stroke="#666666" points="185,-129 36,-129 36,-110 185,-110 185,-129"/>
<text text-anchor="middle" x="110.5" y="-117" font-family="Courier,monospace" font-size="10.00">Moose::FunctorAbstract</text>
</a>
</g>
</g>
<!-- Node3&#45;&gt;Node2 -->
<g id="edge2" class="edge">
<title>Node3&#45;&gt;Node2</title>
<path fill="none" stroke="#63b8ff" d="M110.5,-98.35C110.5,-90.1 110.5,-80.97 110.5,-74.44"/>
<polygon fill="#63b8ff" stroke="#63b8ff" points="107,-98.23 110.5,-108.23 114,-98.23 107,-98.23"/>
</g>
<!-- Node4 -->
<g id="node4" class="node">
<title>Node4</title>
<g id="a_node4"><a xlink:href="classFaceArgInterface.html" target="_top" xlink:title="A base class interface for both producers and consumers of functor face arguments,...">
<polygon fill="white" stroke="#666666" points="167,-184 54,-184 54,-165 167,-165 167,-184"/>
<text text-anchor="middle" x="110.5" y="-172" font-family="Courier,monospace" font-size="10.00">FaceArgInterface</text>
</a>
</g>
</g>
<!-- Node4&#45;&gt;Node3 -->
<g id="edge3" class="edge">
<title>Node4&#45;&gt;Node3</title>
<path fill="none" stroke="#63b8ff" d="M110.5,-153.35C110.5,-145.1 110.5,-135.97 110.5,-129.44"/>
<polygon fill="#63b8ff" stroke="#63b8ff" points="107,-153.23 110.5,-163.23 114,-153.23 107,-153.23"/>
</g>
</g>
</svg>
