<?xml version="1.0" encoding="UTF-8" standalone="no"?>
<!DOCTYPE svg PUBLIC "-//W3C//DTD SVG 1.1//EN"
 "http://www.w3.org/Graphics/SVG/1.1/DTD/svg11.dtd">
<!-- Generated by graphviz version 7.0.5 (20221223.1930)
 -->
<!-- Title: Moose::ArrayComponentFunctor&lt; T, ArrayTypeFunctor &gt; Pages: 1 -->
<svg width="193pt" height="203pt"
 viewBox="0.00 0.00 193.00 203.00" xmlns="http://www.w3.org/2000/svg" xmlns:xlink="http://www.w3.org/1999/xlink">
<g id="graph0" class="graph" transform="scale(1 1) rotate(0) translate(4 199)">
<title>Moose::ArrayComponentFunctor&lt; T, ArrayTypeFunctor &gt;</title>
<!-- Node1 -->
<g id="node1" class="node">
<title>Node1</title>
<g id="a_node1"><a xlink:title="This is essentially a forwarding functor that forwards the spatial and temporal evaluation arguments ...">
<polygon fill="#999999" stroke="#666666" points="185,-30 0,-30 0,0 185,0 185,-30"/>
<text text-anchor="start" x="8" y="-18" font-family="Courier,monospace" font-size="10.00">Moose::ArrayComponentFunctor</text>
<text text-anchor="middle" x="92.5" y="-7" font-family="Courier,monospace" font-size="10.00">&lt; T, ArrayTypeFunctor &gt;</text>
</a>
</g>
</g>
<!-- Node2 -->
<g id="node2" class="node">
<title>Node2</title>
<g id="a_node2"><a xlink:href="classMoose_1_1FunctorBase.html" target="_top" xlink:title="Base class template for functor objects.">
<polygon fill="white" stroke="#666666" points="170,-85 15,-85 15,-66 170,-66 170,-85"/>
<text text-anchor="middle" x="92.5" y="-73" font-family="Courier,monospace" font-size="10.00">Moose::FunctorBase&lt; T &gt;</text>
</a>
</g>
</g>
<!-- Node2&#45;&gt;Node1 -->
<g id="edge1" class="edge">
<title>Node2&#45;&gt;Node1</title>
<path fill="none" stroke="#63b8ff" d="M92.5,-54.51C92.5,-46.49 92.5,-37.43 92.5,-30.11"/>
<polygon fill="#63b8ff" stroke="#63b8ff" points="89,-54.35 92.5,-64.35 96,-54.35 89,-54.35"/>
</g>
<!-- Node3 -->
<g id="node3" class="node">
<title>Node3</title>
<g id="a_node3"><a xlink:href="classMoose_1_1FunctorAbstract.html" target="_top" xlink:title="Abstract base class that can be used to hold collections of functors.">
<polygon fill="white" stroke="#666666" points="167,-140 18,-140 18,-121 167,-121 167,-140"/>
<text text-anchor="middle" x="92.5" y="-128" font-family="Courier,monospace" font-size="10.00">Moose::FunctorAbstract</text>
</a>
</g>
</g>
<!-- Node3&#45;&gt;Node2 -->
<g id="edge2" class="edge">
<title>Node3&#45;&gt;Node2</title>
<path fill="none" stroke="#63b8ff" d="M92.5,-109.35C92.5,-101.1 92.5,-91.97 92.5,-85.44"/>
<polygon fill="#63b8ff" stroke="#63b8ff" points="89,-109.23 92.5,-119.23 96,-109.23 89,-109.23"/>
</g>
<!-- Node4 -->
<g id="node4" class="node">
<title>Node4</title>
<g id="a_node4"><a xlink:href="classFaceArgInterface.html" target="_top" xlink:title="A base class interface for both producers and consumers of functor face arguments,...">
<polygon fill="white" stroke="#666666" points="149,-195 36,-195 36,-176 149,-176 149,-195"/>
<text text-anchor="middle" x="92.5" y="-183" font-family="Courier,monospace" font-size="10.00">FaceArgInterface</text>
</a>
</g>
</g>
<!-- Node4&#45;&gt;Node3 -->
<g id="edge3" class="edge">
<title>Node4&#45;&gt;Node3</title>
<path fill="none" stroke="#63b8ff" d="M92.5,-164.35C92.5,-156.1 92.5,-146.97 92.5,-140.44"/>
<polygon fill="#63b8ff" stroke="#63b8ff" points="89,-164.23 92.5,-174.23 96,-164.23 89,-164.23"/>
</g>
</g>
</svg>
