<?xml version="1.0" encoding="UTF-8" standalone="no"?>
<!DOCTYPE svg PUBLIC "-//W3C//DTD SVG 1.1//EN"
 "http://www.w3.org/Graphics/SVG/1.1/DTD/svg11.dtd">
<!-- Generated by graphviz version 7.0.5 (20221223.1930)
 -->
<!-- Title: CtrlConservativeTemperatureAdvection Pages: 1 -->
<svg width="921pt" height="86pt"
 viewBox="0.00 0.00 921.00 86.00" xmlns="http://www.w3.org/2000/svg" xmlns:xlink="http://www.w3.org/1999/xlink">
<g id="graph0" class="graph" transform="scale(1 1) rotate(0) translate(4 82)">
<title>CtrlConservativeTemperatureAdvection</title>
<!-- Node1 -->
<g id="node1" class="node">
<title>Node1</title>
<g id="a_node1"><a xlink:title=" ">
<polygon fill="#999999" stroke="#666666" points="913,-54 734,-54 734,-24 913,-24 913,-54"/>
<text text-anchor="start" x="742" y="-42" font-family="Courier,monospace" font-size="10.00">CtrlConservativeTemperature</text>
<text text-anchor="middle" x="823.5" y="-31" font-family="Courier,monospace" font-size="10.00">Advection</text>
</a>
</g>
</g>
<!-- Node2 -->
<g id="node2" class="node">
<title>Node2</title>
<g id="a_node2"><a xlink:href="classDerivativeMaterialInterface.html" target="_top" xlink:title=" ">
<polygon fill="white" stroke="#666666" points="698,-59.5 495,-59.5 495,-18.5 698,-18.5 698,-59.5"/>
<text text-anchor="start" x="503" y="-47.5" font-family="Courier,monospace" font-size="10.00">DerivativeMaterialInterface</text>
<text text-anchor="start" x="503" y="-36.5" font-family="Courier,monospace" font-size="10.00">&lt; JvarMapKernelInterface</text>
<text text-anchor="middle" x="596.5" y="-25.5" font-family="Courier,monospace" font-size="10.00">&lt; CtrlConservativeAdvection &gt; &gt;</text>
</a>
</g>
</g>
<!-- Node2&#45;&gt;Node1 -->
<g id="edge1" class="edge">
<title>Node2&#45;&gt;Node1</title>
<path fill="none" stroke="#63b8ff" d="M709.74,-39C717.72,-39 725.7,-39 733.52,-39"/>
<polygon fill="#63b8ff" stroke="#63b8ff" points="710,-35.5 700,-39 710,-42.5 710,-35.5"/>
</g>
<!-- Node3 -->
<g id="node3" class="node">
<title>Node3</title>
<g id="a_node3"><a xlink:href="classJvarMapKernelInterface.html" target="_top" xlink:title=" ">
<polygon fill="white" stroke="#666666" points="459,-78 268,-78 268,-48 459,-48 459,-78"/>
<text text-anchor="start" x="276" y="-66" font-family="Courier,monospace" font-size="10.00">JvarMapKernelInterface</text>
<text text-anchor="middle" x="363.5" y="-55" font-family="Courier,monospace" font-size="10.00">&lt; CtrlConservativeAdvection &gt;</text>
</a>
</g>
</g>
<!-- Node3&#45;&gt;Node2 -->
<g id="edge2" class="edge">
<title>Node3&#45;&gt;Node2</title>
<path fill="none" stroke="#63b8ff" d="M470.65,-51.97C478.6,-51.14 486.62,-50.31 494.54,-49.49"/>
<polygon fill="#63b8ff" stroke="#63b8ff" points="470.55,-48.46 460.96,-52.98 471.27,-55.43 470.55,-48.46"/>
</g>
<!-- Node4 -->
<g id="node4" class="node">
<title>Node4</title>
<g id="a_node4"><a xlink:href="classJvarMapInterfaceBase.html" target="_top" xlink:title="Base class (&quot;Veneer&quot;) that implements the actual mapping from &#39;jvar&#39; in into the _coupled_moose_vars ...">
<polygon fill="white" stroke="#666666" points="232,-72.5 65,-72.5 65,-53.5 232,-53.5 232,-72.5"/>
<text text-anchor="middle" x="148.5" y="-60.5" font-family="Courier,monospace" font-size="10.00">JvarMapInterfaceBase&lt; T &gt;</text>
</a>
</g>
</g>
<!-- Node4&#45;&gt;Node3 -->
<g id="edge3" class="edge">
<title>Node4&#45;&gt;Node3</title>
<path fill="none" stroke="#63b8ff" d="M243.95,-63C251.85,-63 259.84,-63 267.74,-63"/>
<polygon fill="#63b8ff" stroke="#63b8ff" points="243.97,-59.5 233.97,-63 243.97,-66.5 243.97,-59.5"/>
</g>
<!-- Node5 -->
<g id="node5" class="node">
<title>Node5</title>
<g id="a_node5"><a xlink:title=" ">
<polygon fill="white" stroke="#666666" points="29,-72.5 0,-72.5 0,-53.5 29,-53.5 29,-72.5"/>
<text text-anchor="middle" x="14.5" y="-60.5" font-family="Courier,monospace" font-size="10.00">T</text>
</a>
</g>
</g>
<!-- Node5&#45;&gt;Node4 -->
<g id="edge4" class="edge">
<title>Node5&#45;&gt;Node4</title>
<path fill="none" stroke="#63b8ff" d="M40.42,-63C47.6,-63 55.86,-63 64.54,-63"/>
<polygon fill="#63b8ff" stroke="#63b8ff" points="40.64,-59.5 30.64,-63 40.64,-66.5 40.64,-59.5"/>
</g>
<!-- Node6 -->
<g id="node6" class="node">
<title>Node6</title>
<g id="a_node6"><a xlink:href="classDerivativeMaterialPropertyNameInterface.html" target="_top" xlink:title=" ">
<polygon fill="white" stroke="#666666" points="450,-30 277,-30 277,0 450,0 450,-30"/>
<text text-anchor="start" x="285" y="-18" font-family="Courier,monospace" font-size="10.00">DerivativeMaterialProperty</text>
<text text-anchor="middle" x="363.5" y="-7" font-family="Courier,monospace" font-size="10.00">NameInterface</text>
</a>
</g>
</g>
<!-- Node6&#45;&gt;Node2 -->
<g id="edge5" class="edge">
<title>Node6&#45;&gt;Node2</title>
<path fill="none" stroke="#63b8ff" d="M461.53,-25.08C472.5,-26.22 483.71,-27.39 494.73,-28.53"/>
<polygon fill="#63b8ff" stroke="#63b8ff" points="462,-21.61 451.69,-24.06 461.28,-28.57 462,-21.61"/>
</g>
</g>
</svg>
