<?xml version="1.0" encoding="UTF-8" standalone="no"?>
<!DOCTYPE svg PUBLIC "-//W3C//DTD SVG 1.1//EN"
 "http://www.w3.org/Graphics/SVG/1.1/DTD/svg11.dtd">
<!-- Generated by graphviz version 7.0.5 (20221223.1930)
 -->
<!-- Title: ComputeFVFluxRJThread&lt; RangeType &gt; Pages: 1 -->
<svg width="211pt" height="159pt"
 viewBox="0.00 0.00 211.00 159.00" xmlns="http://www.w3.org/2000/svg" xmlns:xlink="http://www.w3.org/1999/xlink">
<g id="graph0" class="graph" transform="scale(1 1) rotate(0) translate(4 155)">
<title>ComputeFVFluxRJThread&lt; RangeType &gt;</title>
<!-- Node1 -->
<g id="node1" class="node">
<title>Node1</title>
<g id="a_node1"><a xlink:title=" ">
<polygon fill="#999999" stroke="#666666" points="173,-30 30,-30 30,0 173,0 173,-30"/>
<text text-anchor="start" x="38" y="-18" font-family="Courier,monospace" font-size="10.00">ComputeFVFluxRJThread</text>
<text text-anchor="middle" x="101.5" y="-7" font-family="Courier,monospace" font-size="10.00">&lt; RangeType &gt;</text>
</a>
</g>
</g>
<!-- Node2 -->
<g id="node2" class="node">
<title>Node2</title>
<g id="a_node2"><a xlink:href="classComputeFVFluxThread.html" target="_top" xlink:title=" ">
<polygon fill="white" stroke="#666666" points="203,-96 0,-96 0,-66 203,-66 203,-96"/>
<text text-anchor="start" x="8" y="-84" font-family="Courier,monospace" font-size="10.00">ComputeFVFluxThread</text>
<text text-anchor="middle" x="101.5" y="-73" font-family="Courier,monospace" font-size="10.00">&lt; RangeType, AttribVectorTags &gt;</text>
</a>
</g>
</g>
<!-- Node2&#45;&gt;Node1 -->
<g id="edge1" class="edge">
<title>Node2&#45;&gt;Node1</title>
<path fill="none" stroke="#63b8ff" d="M101.5,-54.39C101.5,-46.13 101.5,-37.28 101.5,-30.16"/>
<polygon fill="#63b8ff" stroke="#63b8ff" points="98,-54.28 101.5,-64.28 105,-54.28 98,-54.28"/>
</g>
<!-- Node3 -->
<g id="node3" class="node">
<title>Node3</title>
<g id="a_node3"><a xlink:href="classThreadedFaceLoop.html" target="_top" xlink:title="This loops over a set of mesh faces (i.e.">
<polygon fill="white" stroke="#666666" points="197,-151 6,-151 6,-132 197,-132 197,-151"/>
<text text-anchor="middle" x="101.5" y="-139" font-family="Courier,monospace" font-size="10.00">ThreadedFaceLoop&lt; RangeType &gt;</text>
</a>
</g>
</g>
<!-- Node3&#45;&gt;Node2 -->
<g id="edge2" class="edge">
<title>Node3&#45;&gt;Node2</title>
<path fill="none" stroke="#63b8ff" d="M101.5,-120.51C101.5,-112.49 101.5,-103.43 101.5,-96.11"/>
<polygon fill="#63b8ff" stroke="#63b8ff" points="98,-120.35 101.5,-130.35 105,-120.35 98,-120.35"/>
</g>
</g>
</svg>
