<?xml version="1.0" encoding="UTF-8" standalone="no"?>
<!DOCTYPE svg PUBLIC "-//W3C//DTD SVG 1.1//EN"
 "http://www.w3.org/Graphics/SVG/1.1/DTD/svg11.dtd">
<!-- Generated by graphviz version 7.0.5 (20221223.1930)
 -->
<!-- Title: FVMatAdvection Pages: 1 -->
<!--zoomable 693 -->
<svg id="main" version="1.1" xmlns="http://www.w3.org/2000/svg" xmlns:xlink="http://www.w3.org/1999/xlink" xml:space="preserve" onload="init(evt)">
<style type="text/css"><![CDATA[
.edge:hover path { stroke: red; }
.edge:hover polygon { stroke: red; fill: red; }
]]></style>
<script type="text/javascript"><![CDATA[
var edges = document.getElementsByTagName('g');
if (edges && edges.length) {
  for (var i=0;i<edges.length;i++) {
    if (edges[i].id.substr(0,4)=='edge') {
      edges[i].setAttribute('class','edge');
    }
  }
}
]]></script>
        <defs>
                <circle id="rim" cx="0" cy="0" r="7"/>
                <circle id="rim2" cx="0" cy="0" r="3.5"/>
                <g id="zoomPlus">
                        <use xlink:href="#rim" fill="#404040">
                                <set attributeName="fill" to="#808080" begin="zoomplus.mouseover" end="zoomplus.mouseout"/>
                        </use>
                        <path d="M-4,0h8M0,-4v8" fill="none" stroke="white" stroke-width="1.5" pointer-events="none"/>
                </g>
                <g id="zoomMin">
                        <use xlink:href="#rim" fill="#404040">
                                <set attributeName="fill" to="#808080" begin="zoomminus.mouseover" end="zoomminus.mouseout"/>
                        </use>
                        <path d="M-4,0h8" fill="none" stroke="white" stroke-width="1.5" pointer-events="none"/>
                </g>
                <g id="dirArrow">
                        <path fill="none" stroke="white" stroke-width="1.5" d="M0,-3.0v7 M-2.5,-0.5L0,-3.0L2.5,-0.5"/>
                </g>
               <g id="resetDef">
                       <use xlink:href="#rim2" fill="#404040">
                               <set attributeName="fill" to="#808080" begin="reset.mouseover" end="reset.mouseout"/>
                       </use>
               </g>
        </defs>

<script type="text/javascript">
var viewWidth = 1339;
var viewHeight = 693;
var sectionId = 'dynsection-0';
</script>
<script xlink:href="svgpan.js"/>
<svg id="graph" class="graph">
<g id="viewport">
<title>FVMatAdvection</title>
<!-- Node1 -->
<g id="node1" class="node">
<title>Node1</title>
<g id="a_node1"><a xlink:title=" ">
<polygon fill="#999999" stroke="#666666" points="1331,-137 1230,-137 1230,-118 1331,-118 1331,-137"/>
<text text-anchor="middle" x="1280.5" y="-125" font-family="Courier,monospace" font-size="10.00">FVMatAdvection</text>
</a>
</g>
</g>
<!-- Node2 -->
<g id="node2" class="node">
<title>Node2</title>
<g id="a_node2"><a xlink:href="classFVFluxKernel.html" target="_top" xlink:title="FVFluxKernel is used for calculating residual contributions from numerical fluxes from surface integr...">
<polygon fill="white" stroke="#666666" points="1194,-137 1105,-137 1105,-118 1194,-118 1194,-137"/>
<text text-anchor="middle" x="1149.5" y="-125" font-family="Courier,monospace" font-size="10.00">FVFluxKernel</text>
</a>
</g>
</g>
<!-- Node2&#45;&gt;Node1 -->
<g id="edge1" class="edge">
<title>Node2&#45;&gt;Node1</title>
<path fill="none" stroke="#63b8ff" d="M1205.65,-127.5C1213.62,-127.5 1221.79,-127.5 1229.65,-127.5"/>
<polygon fill="#63b8ff" stroke="#63b8ff" points="1205.69,-124 1195.69,-127.5 1205.69,-131 1205.69,-124"/>
</g>
<!-- Node3 -->
<g id="node3" class="node">
<title>Node3</title>
<g id="a_node3"><a xlink:href="classFVKernel.html" target="_top" xlink:title="FVKernel is a base class for all finite volume method kernels.">
<polygon fill="white" stroke="#666666" points="1000,-259 935,-259 935,-240 1000,-240 1000,-259"/>
<text text-anchor="middle" x="967.5" y="-247" font-family="Courier,monospace" font-size="10.00">FVKernel</text>
</a>
</g>
</g>
<!-- Node3&#45;&gt;Node2 -->
<g id="edge2" class="edge">
<title>Node3&#45;&gt;Node2</title>
<path fill="none" stroke="#63b8ff" d="M1011.11,-239.19C1029.84,-233.44 1051.51,-225.07 1069,-213.5 1101.22,-192.19 1129.41,-155.14 1141.8,-137.45"/>
<polygon fill="#63b8ff" stroke="#63b8ff" points="1010.27,-235.79 1001.64,-241.93 1012.22,-242.51 1010.27,-235.79"/>
</g>
<!-- Node4 -->
<g id="node4" class="node">
<title>Node4</title>
<g id="a_node4"><a xlink:href="classResidualObject.html" target="_top" xlink:title="This is the common base class for objects that give residual contributions.">
<polygon fill="white" stroke="#666666" points="776,-408 675,-408 675,-389 776,-389 776,-408"/>
<text text-anchor="middle" x="725.5" y="-396" font-family="Courier,monospace" font-size="10.00">ResidualObject</text>
</a>
</g>
</g>
<!-- Node4&#45;&gt;Node3 -->
<g id="edge3" class="edge">
<title>Node4&#45;&gt;Node3</title>
<path fill="none" stroke="#63b8ff" d="M751.9,-382.73C801.51,-351.93 910.03,-284.56 950.69,-259.31"/>
<polygon fill="#63b8ff" stroke="#63b8ff" points="750.18,-379.68 743.53,-387.93 753.87,-385.62 750.18,-379.68"/>
</g>
<!-- Node5 -->
<g id="node5" class="node">
<title>Node5</title>
<g id="a_node5"><a xlink:href="classMooseObject.html" target="_top" xlink:title="Every object that can be built by the factory should be derived from this class.">
<polygon fill="white" stroke="#666666" points="534,-611 451,-611 451,-592 534,-592 534,-611"/>
<text text-anchor="middle" x="492.5" y="-599" font-family="Courier,monospace" font-size="10.00">MooseObject</text>
</a>
</g>
</g>
<!-- Node5&#45;&gt;Node4 -->
<g id="edge4" class="edge">
<title>Node5&#45;&gt;Node4</title>
<path fill="none" stroke="#63b8ff" d="M545.38,-598C559.02,-595.34 573.21,-590.88 585,-583.5 657.96,-537.81 706.42,-439.23 720.36,-408.12"/>
<polygon fill="#63b8ff" stroke="#63b8ff" points="544.91,-594.53 535.6,-599.59 546.04,-601.44 544.91,-594.53"/>
</g>
<!-- Node6 -->
<g id="node6" class="node">
<title>Node6</title>
<g id="a_node6"><a xlink:href="classMooseBase.html" target="_top" xlink:title="Base class for everything in MOOSE with a name and a type.">
<polygon fill="white" stroke="#666666" points="310,-685 239,-685 239,-666 310,-666 310,-685"/>
<text text-anchor="middle" x="274.5" y="-673" font-family="Courier,monospace" font-size="10.00">MooseBase</text>
</a>
</g>
</g>
<!-- Node6&#45;&gt;Node5 -->
<g id="edge5" class="edge">
<title>Node6&#45;&gt;Node5</title>
<path fill="none" stroke="#63b8ff" d="M321.62,-668.05C335.41,-665.31 350.46,-661.8 364,-657.5 403.87,-644.85 448.08,-623.72 472.56,-611.35"/>
<polygon fill="#63b8ff" stroke="#63b8ff" points="321.06,-664.59 311.89,-669.89 322.36,-671.47 321.06,-664.59"/>
</g>
<!-- Node7 -->
<g id="node7" class="node">
<title>Node7</title>
<g id="a_node7"><a xlink:href="classMooseBaseParameterInterface.html" target="_top" xlink:title="Every object that can be built by the factory should be derived from this class.">
<polygon fill="white" stroke="#666666" points="364,-648 185,-648 185,-629 364,-629 364,-648"/>
<text text-anchor="middle" x="274.5" y="-636" font-family="Courier,monospace" font-size="10.00">MooseBaseParameterInterface</text>
</a>
</g>
</g>
<!-- Node7&#45;&gt;Node5 -->
<g id="edge6" class="edge">
<title>Node7&#45;&gt;Node5</title>
<path fill="none" stroke="#63b8ff" d="M344.77,-626.63C379.7,-620.65 420.85,-613.6 450.68,-608.49"/>
<polygon fill="#63b8ff" stroke="#63b8ff" points="344.43,-623.14 335.16,-628.28 345.61,-630.04 344.43,-623.14"/>
</g>
<!-- Node8 -->
<g id="node8" class="node">
<title>Node8</title>
<g id="a_node8"><a xlink:href="classMooseBaseErrorInterface.html" target="_top" xlink:title="Interface that provides APIs to output errors/warnings/info messages.">
<polygon fill="white" stroke="#666666" points="352,-611 197,-611 197,-592 352,-592 352,-611"/>
<text text-anchor="middle" x="274.5" y="-599" font-family="Courier,monospace" font-size="10.00">MooseBaseErrorInterface</text>
</a>
</g>
</g>
<!-- Node8&#45;&gt;Node5 -->
<g id="edge7" class="edge">
<title>Node8&#45;&gt;Node5</title>
<path fill="none" stroke="#63b8ff" d="M363.7,-601.5C393.87,-601.5 426.17,-601.5 450.75,-601.5"/>
<polygon fill="#63b8ff" stroke="#63b8ff" points="363.78,-598 353.78,-601.5 363.78,-605 363.78,-598"/>
</g>
<!-- Node9 -->
<g id="node9" class="node">
<title>Node9</title>
<g id="a_node9"><a xlink:href="classConsoleStreamInterface.html" target="_top" xlink:title="An inteface for the _console for outputting to the Console object.">
<polygon fill="white" stroke="#666666" points="149,-611 0,-611 0,-592 149,-592 149,-611"/>
<text text-anchor="middle" x="74.5" y="-599" font-family="Courier,monospace" font-size="10.00">ConsoleStreamInterface</text>
</a>
</g>
</g>
<!-- Node9&#45;&gt;Node8 -->
<g id="edge8" class="edge">
<title>Node9&#45;&gt;Node8</title>
<path fill="none" stroke="#63b8ff" d="M160.62,-601.5C172.62,-601.5 184.9,-601.5 196.73,-601.5"/>
<polygon fill="#63b8ff" stroke="#63b8ff" points="160.74,-598 150.74,-601.5 160.74,-605 160.74,-598"/>
</g>
<!-- Node10 -->
<g id="node10" class="node">
<title>Node10</title>
<g id="a_node10"><a xlink:title=" ">
<polygon fill="white" stroke="#666666" points="352,-574 197,-574 197,-555 352,-555 352,-574"/>
<text text-anchor="middle" x="274.5" y="-562" font-family="Courier,monospace" font-size="10.00">libMesh::ParallelObject</text>
</a>
</g>
</g>
<!-- Node10&#45;&gt;Node5 -->
<g id="edge9" class="edge">
<title>Node10&#45;&gt;Node5</title>
<path fill="none" stroke="#63b8ff" d="M344.77,-576.37C379.7,-582.35 420.85,-589.4 450.68,-594.51"/>
<polygon fill="#63b8ff" stroke="#63b8ff" points="345.61,-572.96 335.16,-574.72 344.43,-579.86 345.61,-572.96"/>
</g>
<!-- Node11 -->
<g id="node11" class="node">
<title>Node11</title>
<g id="a_node11"><a xlink:href="classDataFileInterface.html" target="_top" xlink:title=" ">
<polygon fill="white" stroke="#666666" points="337,-536.5 212,-536.5 212,-506.5 337,-506.5 337,-536.5"/>
<text text-anchor="start" x="220" y="-524.5" font-family="Courier,monospace" font-size="10.00">DataFileInterface&lt;</text>
<text text-anchor="middle" x="274.5" y="-513.5" font-family="Courier,monospace" font-size="10.00"> MooseObject &gt;</text>
</a>
</g>
</g>
<!-- Node11&#45;&gt;Node5 -->
<g id="edge10" class="edge">
<title>Node11&#45;&gt;Node5</title>
<path fill="none" stroke="#63b8ff" d="M347.62,-538.35C353.32,-540.73 358.86,-543.44 364,-546.5 383.71,-558.24 379.83,-572.57 400,-583.5 415.37,-591.83 434.06,-596.34 450.53,-598.76"/>
<polygon fill="#63b8ff" stroke="#63b8ff" points="349.23,-535.22 338.64,-534.94 346.74,-541.76 349.23,-535.22"/>
</g>
<!-- Node12 -->
<g id="node12" class="node">
<title>Node12</title>
<g id="a_node12"><a xlink:href="classSetupInterface.html" target="_top" xlink:title=" ">
<polygon fill="white" stroke="#666666" points="543,-574 442,-574 442,-555 543,-555 543,-574"/>
<text text-anchor="middle" x="492.5" y="-562" font-family="Courier,monospace" font-size="10.00">SetupInterface</text>
</a>
</g>
</g>
<!-- Node12&#45;&gt;Node4 -->
<g id="edge11" class="edge">
<title>Node12&#45;&gt;Node4</title>
<path fill="none" stroke="#63b8ff" d="M554.41,-558.02C565.02,-555.37 575.64,-551.67 585,-546.5 649.29,-510.99 701.2,-435.48 718.41,-408.41"/>
<polygon fill="#63b8ff" stroke="#63b8ff" points="553.92,-554.54 544.89,-560.09 555.4,-561.38 553.92,-554.54"/>
</g>
<!-- Node13 -->
<g id="node13" class="node">
<title>Node13</title>
<g id="a_node13"><a xlink:href="classFunctionInterface.html" target="_top" xlink:title="Interface for objects that need to use functions.">
<polygon fill="white" stroke="#666666" points="552,-537 433,-537 433,-518 552,-518 552,-537"/>
<text text-anchor="middle" x="492.5" y="-525" font-family="Courier,monospace" font-size="10.00">FunctionInterface</text>
</a>
</g>
</g>
<!-- Node13&#45;&gt;Node4 -->
<g id="edge12" class="edge">
<title>Node13&#45;&gt;Node4</title>
<path fill="none" stroke="#63b8ff" d="M563.38,-517.4C570.84,-515.25 578.19,-512.65 585,-509.5 641.18,-483.52 694.72,-430.38 715.46,-408.38"/>
<polygon fill="#63b8ff" stroke="#63b8ff" points="562.69,-513.96 553.88,-519.85 564.43,-520.74 562.69,-513.96"/>
</g>
<!-- Node14 -->
<g id="node14" class="node">
<title>Node14</title>
<g id="a_node14"><a xlink:href="classUserObjectInterface.html" target="_top" xlink:title="Interface for objects that need to use UserObjects.">
<polygon fill="white" stroke="#666666" points="558,-500 427,-500 427,-481 558,-481 558,-500"/>
<text text-anchor="middle" x="492.5" y="-488" font-family="Courier,monospace" font-size="10.00">UserObjectInterface</text>
</a>
</g>
</g>
<!-- Node14&#45;&gt;Node4 -->
<g id="edge13" class="edge">
<title>Node14&#45;&gt;Node4</title>
<path fill="none" stroke="#63b8ff" d="M567.48,-477.9C573.47,-476.29 579.37,-474.5 585,-472.5 633.06,-455.45 684.92,-424.11 709.69,-408.25"/>
<polygon fill="#63b8ff" stroke="#63b8ff" points="566.99,-474.42 558.14,-480.24 568.69,-481.21 566.99,-474.42"/>
</g>
<!-- Node15 -->
<g id="node15" class="node">
<title>Node15</title>
<g id="a_node15"><a xlink:href="classTransientInterface.html" target="_top" xlink:title="Interface for objects that needs transient capabilities.">
<polygon fill="white" stroke="#666666" points="555,-463 430,-463 430,-444 555,-444 555,-463"/>
<text text-anchor="middle" x="492.5" y="-451" font-family="Courier,monospace" font-size="10.00">TransientInterface</text>
</a>
</g>
</g>
<!-- Node15&#45;&gt;Node4 -->
<g id="edge14" class="edge">
<title>Node15&#45;&gt;Node4</title>
<path fill="none" stroke="#63b8ff" d="M558.52,-441.25C567.44,-439.41 576.46,-437.47 585,-435.5 620.77,-427.25 661.28,-416.32 689.4,-408.49"/>
<polygon fill="#63b8ff" stroke="#63b8ff" points="557.92,-437.8 548.81,-443.22 559.31,-444.66 557.92,-437.8"/>
</g>
<!-- Node16 -->
<g id="node16" class="node">
<title>Node16</title>
<g id="a_node16"><a xlink:href="classPostprocessorInterface.html" target="_top" xlink:title="Interface class for classes which interact with Postprocessors.">
<polygon fill="white" stroke="#666666" points="567,-426 418,-426 418,-407 567,-407 567,-426"/>
<text text-anchor="middle" x="492.5" y="-414" font-family="Courier,monospace" font-size="10.00">PostprocessorInterface</text>
</a>
</g>
</g>
<!-- Node16&#45;&gt;Node4 -->
<g id="edge15" class="edge">
<title>Node16&#45;&gt;Node4</title>
<path fill="none" stroke="#63b8ff" d="M578.52,-409.88C610.9,-407.35 646.73,-404.56 674.79,-402.37"/>
<polygon fill="#63b8ff" stroke="#63b8ff" points="578.43,-406.37 568.73,-410.64 578.98,-413.35 578.43,-406.37"/>
</g>
<!-- Node17 -->
<g id="node17" class="node">
<title>Node17</title>
<g id="a_node17"><a xlink:href="classVectorPostprocessorInterface.html" target="_top" xlink:title=" ">
<polygon fill="white" stroke="#666666" points="585,-389 400,-389 400,-370 585,-370 585,-389"/>
<text text-anchor="middle" x="492.5" y="-377" font-family="Courier,monospace" font-size="10.00">VectorPostprocessorInterface</text>
</a>
</g>
</g>
<!-- Node17&#45;&gt;Node4 -->
<g id="edge16" class="edge">
<title>Node17&#45;&gt;Node4</title>
<path fill="none" stroke="#63b8ff" d="M596.61,-387.98C623.74,-390.21 651.79,-392.52 674.69,-394.4"/>
<polygon fill="#63b8ff" stroke="#63b8ff" points="597.22,-384.52 586.97,-387.19 596.65,-391.5 597.22,-384.52"/>
</g>
<!-- Node18 -->
<g id="node18" class="node">
<title>Node18</title>
<g id="a_node18"><a xlink:href="classRandomInterface.html" target="_top" xlink:title="Interface for objects that need parallel consistent random numbers without patterns over the course o...">
<polygon fill="white" stroke="#666666" points="546,-352 439,-352 439,-333 546,-333 546,-352"/>
<text text-anchor="middle" x="492.5" y="-340" font-family="Courier,monospace" font-size="10.00">RandomInterface</text>
</a>
</g>
</g>
<!-- Node18&#45;&gt;Node4 -->
<g id="edge17" class="edge">
<title>Node18&#45;&gt;Node4</title>
<path fill="none" stroke="#63b8ff" d="M555.11,-354.81C565.12,-356.95 575.36,-359.22 585,-361.5 620.6,-369.91 660.97,-380.76 689.09,-388.54"/>
<polygon fill="#63b8ff" stroke="#63b8ff" points="555.94,-351.41 545.43,-352.77 554.49,-358.26 555.94,-351.41"/>
</g>
<!-- Node19 -->
<g id="node19" class="node">
<title>Node19</title>
<g id="a_node19"><a xlink:href="classRestartable.html" target="_top" xlink:title="A class for creating restricted objects.">
<polygon fill="white" stroke="#666666" points="534,-315 451,-315 451,-296 534,-296 534,-315"/>
<text text-anchor="middle" x="492.5" y="-303" font-family="Courier,monospace" font-size="10.00">Restartable</text>
</a>
</g>
</g>
<!-- Node19&#45;&gt;Node4 -->
<g id="edge18" class="edge">
<title>Node19&#45;&gt;Node4</title>
<path fill="none" stroke="#63b8ff" d="M545.51,-313.65C558.61,-316.41 572.49,-319.99 585,-324.5 632.71,-341.71 684.31,-372.69 709.27,-388.55"/>
<polygon fill="#63b8ff" stroke="#63b8ff" points="546.24,-310.22 535.75,-311.71 544.88,-317.09 546.24,-310.22"/>
</g>
<!-- Node20 -->
<g id="node20" class="node">
<title>Node20</title>
<g id="a_node20"><a xlink:href="classMeshChangedInterface.html" target="_top" xlink:title="Interface for notifications that the mesh has changed.">
<polygon fill="white" stroke="#666666" points="561,-278 424,-278 424,-259 561,-259 561,-278"/>
<text text-anchor="middle" x="492.5" y="-266" font-family="Courier,monospace" font-size="10.00">MeshChangedInterface</text>
</a>
</g>
</g>
<!-- Node20&#45;&gt;Node4 -->
<g id="edge19" class="edge">
<title>Node20&#45;&gt;Node4</title>
<path fill="none" stroke="#63b8ff" d="M570.64,-281.75C575.59,-283.44 580.41,-285.35 585,-287.5 641.05,-313.78 694.66,-366.75 715.44,-388.66"/>
<polygon fill="#63b8ff" stroke="#63b8ff" points="571.72,-278.42 561.13,-278.82 569.66,-285.11 571.72,-278.42"/>
</g>
<!-- Node21 -->
<g id="node21" class="node">
<title>Node21</title>
<g id="a_node21"><a xlink:href="classTaggingInterface.html" target="_top" xlink:title=" ">
<polygon fill="white" stroke="#666666" points="549,-241 436,-241 436,-222 549,-222 549,-241"/>
<text text-anchor="middle" x="492.5" y="-229" font-family="Courier,monospace" font-size="10.00">TaggingInterface</text>
</a>
</g>
</g>
<!-- Node21&#45;&gt;Node4 -->
<g id="edge20" class="edge">
<title>Node21&#45;&gt;Node4</title>
<path fill="none" stroke="#63b8ff" d="M560.15,-240.31C568.82,-242.89 577.33,-246.21 585,-250.5 589.14,-252.82 684.72,-355.63 715.23,-388.51"/>
<polygon fill="#63b8ff" stroke="#63b8ff" points="561.18,-236.96 550.62,-237.82 559.41,-243.74 561.18,-236.96"/>
</g>
<!-- Node22 -->
<g id="node22" class="node">
<title>Node22</title>
<g id="a_node22"><a xlink:href="classBlockRestrictable.html" target="_top" xlink:title="An interface that restricts an object to subdomains via the &#39;blocks&#39; input parameter.">
<polygon fill="white" stroke="#666666" points="785,-278 666,-278 666,-259 785,-259 785,-278"/>
<text text-anchor="middle" x="725.5" y="-266" font-family="Courier,monospace" font-size="10.00">BlockRestrictable</text>
</a>
</g>
</g>
<!-- Node22&#45;&gt;Node3 -->
<g id="edge21" class="edge">
<title>Node22&#45;&gt;Node3</title>
<path fill="none" stroke="#63b8ff" d="M796.53,-262.96C842.13,-259.35 899.45,-254.81 934.51,-252.03"/>
<polygon fill="#63b8ff" stroke="#63b8ff" points="796.41,-259.45 786.72,-263.73 796.96,-266.43 796.41,-259.45"/>
</g>
<!-- Node23 -->
<g id="node23" class="node">
<title>Node23</title>
<g id="a_node23"><a xlink:href="classADFunctorInterface.html" target="_top" xlink:title="An interface for accessing Moose::Functors for systems that care about automatic differentiation,...">
<polygon fill="white" stroke="#666666" points="788,-241 663,-241 663,-222 788,-222 788,-241"/>
<text text-anchor="middle" x="725.5" y="-229" font-family="Courier,monospace" font-size="10.00">ADFunctorInterface</text>
</a>
</g>
</g>
<!-- Node23&#45;&gt;Node3 -->
<g id="edge22" class="edge">
<title>Node23&#45;&gt;Node3</title>
<path fill="none" stroke="#63b8ff" d="M799.54,-236.98C844.71,-240.37 900.41,-244.54 934.68,-247.11"/>
<polygon fill="#63b8ff" stroke="#63b8ff" points="800.05,-233.51 789.82,-236.25 799.53,-240.49 800.05,-233.51"/>
</g>
<!-- Node24 -->
<g id="node24" class="node">
<title>Node24</title>
<g id="a_node24"><a xlink:href="classFunctorInterface.html" target="_top" xlink:title="An interface for accessing Moose::Functors.">
<polygon fill="white" stroke="#666666" points="549,-204 436,-204 436,-185 549,-185 549,-204"/>
<text text-anchor="middle" x="492.5" y="-192" font-family="Courier,monospace" font-size="10.00">FunctorInterface</text>
</a>
</g>
</g>
<!-- Node24&#45;&gt;Node23 -->
<g id="edge23" class="edge">
<title>Node24&#45;&gt;Node23</title>
<path fill="none" stroke="#63b8ff" d="M560.53,-205.24C592.74,-210.4 631.09,-216.54 662.6,-221.58"/>
<polygon fill="#63b8ff" stroke="#63b8ff" points="561.34,-201.82 550.91,-203.7 560.23,-208.73 561.34,-201.82"/>
</g>
<!-- Node25 -->
<g id="node25" class="node">
<title>Node25</title>
<g id="a_node25"><a xlink:href="classTwoMaterialPropertyInterface.html" target="_top" xlink:title="This interface is designed for DGKernel, InternalSideUserObject, InterfaceUserObject,...">
<polygon fill="white" stroke="#666666" points="1060,-204 875,-204 875,-185 1060,-185 1060,-204"/>
<text text-anchor="middle" x="967.5" y="-192" font-family="Courier,monospace" font-size="10.00">TwoMaterialPropertyInterface</text>
</a>
</g>
</g>
<!-- Node25&#45;&gt;Node2 -->
<g id="edge24" class="edge">
<title>Node25&#45;&gt;Node2</title>
<path fill="none" stroke="#63b8ff" d="M1049.92,-181.7C1056.46,-179.89 1062.89,-177.83 1069,-175.5 1094.15,-165.89 1120.32,-148.39 1135.47,-137.39"/>
<polygon fill="#63b8ff" stroke="#63b8ff" points="1049.16,-178.28 1040.33,-184.15 1050.89,-185.07 1049.16,-178.28"/>
</g>
<!-- Node26 -->
<g id="node26" class="node">
<title>Node26</title>
<g id="a_node26"><a xlink:href="classMaterialPropertyInterface.html" target="_top" xlink:title="An interface for accessing Materials.">
<polygon fill="white" stroke="#666666" points="809,-204 642,-204 642,-185 809,-185 809,-204"/>
<text text-anchor="middle" x="725.5" y="-192" font-family="Courier,monospace" font-size="10.00">MaterialPropertyInterface</text>
</a>
</g>
</g>
<!-- Node26&#45;&gt;Node25 -->
<g id="edge25" class="edge">
<title>Node26&#45;&gt;Node25</title>
<path fill="none" stroke="#63b8ff" d="M820.9,-194.5C838.54,-194.5 856.96,-194.5 874.53,-194.5"/>
<polygon fill="#63b8ff" stroke="#63b8ff" points="820.94,-191 810.94,-194.5 820.94,-198 820.94,-191"/>
</g>
<!-- Node27 -->
<g id="node27" class="node">
<title>Node27</title>
<g id="a_node27"><a xlink:href="classNeighborMooseVariableInterface.html" target="_top" xlink:title=" ">
<polygon fill="white" stroke="#666666" points="1066,-166.5 869,-166.5 869,-136.5 1066,-136.5 1066,-166.5"/>
<text text-anchor="start" x="877" y="-154.5" font-family="Courier,monospace" font-size="10.00">NeighborMooseVariableInterface</text>
<text text-anchor="middle" x="967.5" y="-143.5" font-family="Courier,monospace" font-size="10.00">&lt; Real &gt;</text>
</a>
</g>
</g>
<!-- Node27&#45;&gt;Node2 -->
<g id="edge26" class="edge">
<title>Node27&#45;&gt;Node2</title>
<path fill="none" stroke="#63b8ff" d="M1077.59,-136.95C1087.03,-135.7 1096.17,-134.48 1104.58,-133.36"/>
<polygon fill="#63b8ff" stroke="#63b8ff" points="1077.35,-133.46 1067.9,-138.25 1078.28,-140.39 1077.35,-133.46"/>
</g>
<!-- Node28 -->
<g id="node28" class="node">
<title>Node28</title>
<g id="a_node28"><a xlink:href="classMooseVariableInterface.html" target="_top" xlink:title="Interface for objects that need to get values of MooseVariables.">
<polygon fill="white" stroke="#666666" points="815,-167 636,-167 636,-148 815,-148 815,-167"/>
<text text-anchor="middle" x="725.5" y="-155" font-family="Courier,monospace" font-size="10.00">MooseVariableInterface&lt; T &gt;</text>
</a>
</g>
</g>
<!-- Node28&#45;&gt;Node27 -->
<g id="edge27" class="edge">
<title>Node28&#45;&gt;Node27</title>
<path fill="none" stroke="#63b8ff" d="M826.37,-155C840.43,-154.65 854.87,-154.29 868.89,-153.94"/>
<polygon fill="#63b8ff" stroke="#63b8ff" points="826.61,-151.5 816.7,-155.25 826.78,-158.49 826.61,-151.5"/>
</g>
<!-- Node29 -->
<g id="node29" class="node">
<title>Node29</title>
<g id="a_node29"><a xlink:href="classNeighborCoupleableMooseVariableDependencyIntermediateInterface.html" target="_top" xlink:title="Intermediate base class that ties together all the interfaces for getting MooseVariables with the Moo...">
<polygon fill="white" stroke="#666666" points="1069,-118.5 866,-118.5 866,-88.5 1069,-88.5 1069,-118.5"/>
<text text-anchor="start" x="874" y="-106.5" font-family="Courier,monospace" font-size="10.00">NeighborCoupleableMooseVariable</text>
<text text-anchor="middle" x="967.5" y="-95.5" font-family="Courier,monospace" font-size="10.00">DependencyIntermediateInterface</text>
</a>
</g>
</g>
<!-- Node29&#45;&gt;Node2 -->
<g id="edge28" class="edge">
<title>Node29&#45;&gt;Node2</title>
<path fill="none" stroke="#63b8ff" d="M1080.49,-118.43C1088.92,-119.56 1097.07,-120.64 1104.62,-121.65"/>
<polygon fill="#63b8ff" stroke="#63b8ff" points="1081.16,-114.99 1070.79,-117.14 1080.24,-121.93 1081.16,-114.99"/>
</g>
<!-- Node30 -->
<g id="node30" class="node">
<title>Node30</title>
<g id="a_node30"><a xlink:href="classNeighborCoupleable.html" target="_top" xlink:title="Enhances Coupleable interface to also couple the values from neighbor elements.">
<polygon fill="white" stroke="#666666" points="788,-130 663,-130 663,-111 788,-111 788,-130"/>
<text text-anchor="middle" x="725.5" y="-118" font-family="Courier,monospace" font-size="10.00">NeighborCoupleable</text>
</a>
</g>
</g>
<!-- Node30&#45;&gt;Node29 -->
<g id="edge29" class="edge">
<title>Node30&#45;&gt;Node29</title>
<path fill="none" stroke="#63b8ff" d="M799.64,-115.32C820.5,-113.84 843.6,-112.21 865.8,-110.63"/>
<polygon fill="#63b8ff" stroke="#63b8ff" points="799.54,-111.82 789.82,-116.02 800.04,-118.8 799.54,-111.82"/>
</g>
<!-- Node31 -->
<g id="node31" class="node">
<title>Node31</title>
<g id="a_node31"><a xlink:href="classCoupleable.html" target="_top" xlink:title="Interface for objects that needs coupling capabilities.">
<polygon fill="white" stroke="#666666" points="531,-130 454,-130 454,-111 531,-111 531,-130"/>
<text text-anchor="middle" x="492.5" y="-118" font-family="Courier,monospace" font-size="10.00">Coupleable</text>
</a>
</g>
</g>
<!-- Node31&#45;&gt;Node30 -->
<g id="edge30" class="edge">
<title>Node31&#45;&gt;Node30</title>
<path fill="none" stroke="#63b8ff" d="M542.76,-120.5C577.79,-120.5 625.09,-120.5 662.66,-120.5"/>
<polygon fill="#63b8ff" stroke="#63b8ff" points="542.9,-117 532.9,-120.5 542.9,-124 542.9,-117"/>
</g>
<!-- Node32 -->
<g id="node32" class="node">
<title>Node32</title>
<g id="a_node32"><a xlink:href="classScalarCoupleable.html" target="_top" xlink:title="Interface for objects that needs scalar coupling capabilities.">
<polygon fill="white" stroke="#666666" points="782,-93 669,-93 669,-74 782,-74 782,-93"/>
<text text-anchor="middle" x="725.5" y="-81" font-family="Courier,monospace" font-size="10.00">ScalarCoupleable</text>
</a>
</g>
</g>
<!-- Node32&#45;&gt;Node29 -->
<g id="edge31" class="edge">
<title>Node32&#45;&gt;Node29</title>
<path fill="none" stroke="#63b8ff" d="M793.83,-89.11C816.12,-90.97 841.44,-93.08 865.68,-95.1"/>
<polygon fill="#63b8ff" stroke="#63b8ff" points="794.23,-85.63 783.97,-88.29 793.65,-92.61 794.23,-85.63"/>
</g>
<!-- Node33 -->
<g id="node33" class="node">
<title>Node33</title>
<g id="a_node33"><a xlink:href="classMooseVariableDependencyInterface.html" target="_top" xlink:title=" ">
<polygon fill="white" stroke="#666666" points="830,-56 621,-56 621,-37 830,-37 830,-56"/>
<text text-anchor="middle" x="725.5" y="-44" font-family="Courier,monospace" font-size="10.00">MooseVariableDependencyInterface</text>
</a>
</g>
</g>
<!-- Node33&#45;&gt;Node29 -->
<g id="edge32" class="edge">
<title>Node33&#45;&gt;Node29</title>
<path fill="none" stroke="#63b8ff" d="M806.16,-58.7C814.27,-60.43 822.33,-62.36 830,-64.5 846.54,-69.1 849.64,-73.31 866,-78.5 876.71,-81.9 888.18,-85.13 899.4,-88.07"/>
<polygon fill="#63b8ff" stroke="#63b8ff" points="807.11,-55.32 796.61,-56.76 805.72,-62.18 807.11,-55.32"/>
</g>
<!-- Node34 -->
<g id="node34" class="node">
<title>Node34</title>
<g id="a_node34"><a xlink:href="classFVFaceResidualObject.html" target="_top" xlink:title="Interface class for a finite volume residual object whose residuals are based on faces.">
<polygon fill="white" stroke="#666666" points="1036,-70 899,-70 899,-51 1036,-51 1036,-70"/>
<text text-anchor="middle" x="967.5" y="-58" font-family="Courier,monospace" font-size="10.00">FVFaceResidualObject</text>
</a>
</g>
</g>
<!-- Node34&#45;&gt;Node2 -->
<g id="edge33" class="edge">
<title>Node34&#45;&gt;Node2</title>
<path fill="none" stroke="#63b8ff" d="M1047.61,-72.67C1054.94,-74.63 1062.17,-76.89 1069,-79.5 1094.15,-89.11 1120.32,-106.61 1135.47,-117.61"/>
<polygon fill="#63b8ff" stroke="#63b8ff" points="1048.47,-69.28 1037.92,-70.29 1046.8,-76.07 1048.47,-69.28"/>
</g>
<!-- Node35 -->
<g id="node35" class="node">
<title>Node35</title>
<g id="a_node35"><a xlink:href="classFaceArgProducerInterface.html" target="_top" xlink:title="An interface for producers of functor face arguments, e.g.">
<polygon fill="white" stroke="#666666" points="1048,-26 887,-26 887,-7 1048,-7 1048,-26"/>
<text text-anchor="middle" x="967.5" y="-14" font-family="Courier,monospace" font-size="10.00">FaceArgProducerInterface</text>
</a>
</g>
</g>
<!-- Node35&#45;&gt;Node2 -->
<g id="edge34" class="edge">
<title>Node35&#45;&gt;Node2</title>
<path fill="none" stroke="#63b8ff" d="M1043.34,-29.9C1052.31,-33 1061.08,-36.81 1069,-41.5 1102.42,-61.27 1130.23,-99.41 1142.19,-117.51"/>
<polygon fill="#63b8ff" stroke="#63b8ff" points="1044.39,-26.56 1033.8,-26.92 1042.3,-33.24 1044.39,-26.56"/>
</g>
<!-- Node36 -->
<g id="node36" class="node">
<title>Node36</title>
<g id="a_node36"><a xlink:href="classFaceArgInterface.html" target="_top" xlink:title="A base class interface for both producers and consumers of functor face arguments,...">
<polygon fill="white" stroke="#666666" points="782,-19 669,-19 669,0 782,0 782,-19"/>
<text text-anchor="middle" x="725.5" y="-7" font-family="Courier,monospace" font-size="10.00">FaceArgInterface</text>
</a>
</g>
</g>
<!-- Node36&#45;&gt;Node35 -->
<g id="edge35" class="edge">
<title>Node36&#45;&gt;Node35</title>
<path fill="none" stroke="#63b8ff" d="M793.69,-11.46C822.59,-12.3 856.6,-13.29 886.77,-14.17"/>
<polygon fill="#63b8ff" stroke="#63b8ff" points="794.08,-7.97 783.98,-11.18 793.87,-14.97 794.08,-7.97"/>
</g>
</g>
</svg>
        <g id="navigator" transform="translate(0 0)" fill="#404254">
                <rect fill="#f2f5e9" fill-opacity="0.5" stroke="#606060" stroke-width=".5" x="0" y="0" width="60" height="60"/>
                <use id="zoomplus" xlink:href="#zoomPlus" x="17" y="9" onmousedown="handleZoom(evt,'in')"/>
                <use id="zoomminus" xlink:href="#zoomMin" x="42" y="9" onmousedown="handleZoom(evt,'out')"/>
                <use id="reset" xlink:href="#resetDef" x="30" y="36" onmousedown="handleReset()"/>
                <g id="arrowUp" xlink:href="#dirArrow" transform="translate(30 24)" onmousedown="handlePan(0,-1)">
                  <use xlink:href="#rim" fill="#404040">
                        <set attributeName="fill" to="#808080" begin="arrowUp.mouseover" end="arrowUp.mouseout"/>
                  </use>
                  <path fill="none" stroke="white" stroke-width="1.5" d="M0,-3.0v7 M-2.5,-0.5L0,-3.0L2.5,-0.5"/>
                </g>
                <g id="arrowRight" xlink:href="#dirArrow" transform="rotate(90) translate(36 -43)" onmousedown="handlePan(1,0)">
                  <use xlink:href="#rim" fill="#404040">
                        <set attributeName="fill" to="#808080" begin="arrowRight.mouseover" end="arrowRight.mouseout"/>
                  </use>
                  <path fill="none" stroke="white" stroke-width="1.5" d="M0,-3.0v7 M-2.5,-0.5L0,-3.0L2.5,-0.5"/>
                </g>
                <g id="arrowDown" xlink:href="#dirArrow" transform="rotate(180) translate(-30 -48)" onmousedown="handlePan(0,1)">
                  <use xlink:href="#rim" fill="#404040">
                        <set attributeName="fill" to="#808080" begin="arrowDown.mouseover" end="arrowDown.mouseout"/>
                  </use>
                  <path fill="none" stroke="white" stroke-width="1.5" d="M0,-3.0v7 M-2.5,-0.5L0,-3.0L2.5,-0.5"/>
                </g>
                <g id="arrowLeft" xlink:href="#dirArrow" transform="rotate(270) translate(-36 17)" onmousedown="handlePan(-1,0)">
                  <use xlink:href="#rim" fill="#404040">
                        <set attributeName="fill" to="#808080" begin="arrowLeft.mouseover" end="arrowLeft.mouseout"/>
                  </use>
                  <path fill="none" stroke="white" stroke-width="1.5" d="M0,-3.0v7 M-2.5,-0.5L0,-3.0L2.5,-0.5"/>
                </g>
        </g>
        <svg viewBox="0 0 15 15" width="100%" height="30px" preserveAspectRatio="xMaxYMin meet">
         <g id="arrow_out" transform="scale(0.3 0.3)">
          <a xlink:href="classFVMatAdvection__inherit__graph_org.svg" target="_base">
           <rect id="button" ry="5" rx="5" y="6" x="6" height="38" width="38"
                fill="#f2f5e9" fill-opacity="0.5" stroke="#606060" stroke-width="1.0"/>
           <path id="arrow"
             d="M 11.500037,31.436501 C 11.940474,20.09759 22.043105,11.32322 32.158766,21.979434 L 37.068811,17.246167 C 37.068811,17.246167 37.088388,32 37.088388,32 L 22.160133,31.978069 C 22.160133,31.978069 26.997745,27.140456 26.997745,27.140456 C 18.528582,18.264221 13.291696,25.230495 11.500037,31.436501 z"
             style="fill:#404040;"/>
          </a>
         </g>
        </svg>
</svg>
