<?xml version="1.0" encoding="UTF-8" standalone="no"?>
<!DOCTYPE svg PUBLIC "-//W3C//DTD SVG 1.1//EN"
 "http://www.w3.org/Graphics/SVG/1.1/DTD/svg11.dtd">
<!-- Generated by graphviz version 7.0.5 (20221223.1930)
 -->
<!-- Title: MortarConsumerInterface Pages: 1 -->
<!--zoomable 286 -->
<svg id="main" version="1.1" xmlns="http://www.w3.org/2000/svg" xmlns:xlink="http://www.w3.org/1999/xlink" xml:space="preserve" onload="init(evt)">
<style type="text/css"><![CDATA[
.edge:hover path { stroke: red; }
.edge:hover polygon { stroke: red; fill: red; }
]]></style>
<script type="text/javascript"><![CDATA[
var edges = document.getElementsByTagName('g');
if (edges && edges.length) {
  for (var i=0;i<edges.length;i++) {
    if (edges[i].id.substr(0,4)=='edge') {
      edges[i].setAttribute('class','edge');
    }
  }
}
]]></script>
        <defs>
                <circle id="rim" cx="0" cy="0" r="7"/>
                <circle id="rim2" cx="0" cy="0" r="3.5"/>
                <g id="zoomPlus">
                        <use xlink:href="#rim" fill="#404040">
                                <set attributeName="fill" to="#808080" begin="zoomplus.mouseover" end="zoomplus.mouseout"/>
                        </use>
                        <path d="M-4,0h8M0,-4v8" fill="none" stroke="white" stroke-width="1.5" pointer-events="none"/>
                </g>
                <g id="zoomMin">
                        <use xlink:href="#rim" fill="#404040">
                                <set attributeName="fill" to="#808080" begin="zoomminus.mouseover" end="zoomminus.mouseout"/>
                        </use>
                        <path d="M-4,0h8" fill="none" stroke="white" stroke-width="1.5" pointer-events="none"/>
                </g>
                <g id="dirArrow">
                        <path fill="none" stroke="white" stroke-width="1.5" d="M0,-3.0v7 M-2.5,-0.5L0,-3.0L2.5,-0.5"/>
                </g>
               <g id="resetDef">
                       <use xlink:href="#rim2" fill="#404040">
                               <set attributeName="fill" to="#808080" begin="reset.mouseover" end="reset.mouseout"/>
                       </use>
               </g>
        </defs>

<script type="text/javascript">
var viewWidth = 1184;
var viewHeight = 286;
var sectionId = 'dynsection-0';
</script>
<script xlink:href="svgpan.js"/>
<svg id="graph" class="graph">
<g id="viewport">
<title>MortarConsumerInterface</title>
<!-- Node1 -->
<g id="node1" class="node">
<title>Node1</title>
<g id="a_node1"><a xlink:title="An interface for accessing mortar mesh data.">
<polygon fill="#999999" stroke="#666666" points="155,-62 0,-62 0,-43 155,-43 155,-62"/>
<text text-anchor="middle" x="77.5" y="-50" font-family="Courier,monospace" font-size="10.00">MortarConsumerInterface</text>
</a>
</g>
</g>
<!-- Node2 -->
<g id="node2" class="node">
<title>Node2</title>
<g id="a_node2"><a xlink:href="classMortarConstraintBase.html" target="_top" xlink:title="User for mortar methods.">
<polygon fill="white" stroke="#666666" points="343,-105 206,-105 206,-86 343,-86 343,-105"/>
<text text-anchor="middle" x="274.5" y="-93" font-family="Courier,monospace" font-size="10.00">MortarConstraintBase</text>
</a>
</g>
</g>
<!-- Node1&#45;&gt;Node2 -->
<g id="edge1" class="edge">
<title>Node1&#45;&gt;Node2</title>
<path fill="none" stroke="#63b8ff" d="M134.76,-64.91C164.42,-71.45 200.33,-79.36 228.18,-85.51"/>
<polygon fill="#63b8ff" stroke="#63b8ff" points="135.72,-61.53 125.21,-62.8 134.22,-68.37 135.72,-61.53"/>
</g>
<!-- Node17 -->
<g id="node17" class="node">
<title>Node17</title>
<g id="a_node17"><a xlink:href="classMortarNodalAuxKernelTempl.html" target="_top" xlink:title="Base class for creating new nodally&#45;based mortar auxiliary kernels.">
<polygon fill="white" stroke="#666666" points="358,-67.5 191,-67.5 191,-37.5 358,-37.5 358,-67.5"/>
<text text-anchor="start" x="199" y="-55.5" font-family="Courier,monospace" font-size="10.00">MortarNodalAuxKernelTempl</text>
<text text-anchor="middle" x="274.5" y="-44.5" font-family="Courier,monospace" font-size="10.00">&lt; ComputeValueType &gt;</text>
</a>
</g>
</g>
<!-- Node1&#45;&gt;Node17 -->
<g id="edge16" class="edge">
<title>Node1&#45;&gt;Node17</title>
<path fill="none" stroke="darkgreen" d="M166.56,-52.5C174.58,-52.5 182.69,-52.5 190.67,-52.5"/>
<polygon fill="darkgreen" stroke="darkgreen" points="166.8,-49 156.8,-52.5 166.8,-56 166.8,-49"/>
</g>
<!-- Node19 -->
<g id="node19" class="node">
<title>Node19</title>
<g id="a_node19"><a xlink:href="classMortarUserObject.html" target="_top" xlink:title="Base class for creating new nodally&#45;based mortar user objects.">
<polygon fill="white" stroke="#666666" points="331,-19 218,-19 218,0 331,0 331,-19"/>
<text text-anchor="middle" x="274.5" y="-7" font-family="Courier,monospace" font-size="10.00">MortarUserObject</text>
</a>
</g>
</g>
<!-- Node1&#45;&gt;Node19 -->
<g id="edge18" class="edge">
<title>Node1&#45;&gt;Node19</title>
<path fill="none" stroke="#63b8ff" d="M134.76,-40.09C164.42,-33.55 200.33,-25.64 228.18,-19.49"/>
<polygon fill="#63b8ff" stroke="#63b8ff" points="134.22,-36.63 125.21,-42.2 135.72,-43.47 134.22,-36.63"/>
</g>
<!-- Node3 -->
<g id="node3" class="node">
<title>Node3</title>
<g id="a_node3"><a xlink:href="classADMortarConstraint.html" target="_top" xlink:title=" ">
<polygon fill="white" stroke="#666666" points="531,-176 406,-176 406,-157 531,-157 531,-176"/>
<text text-anchor="middle" x="468.5" y="-164" font-family="Courier,monospace" font-size="10.00">ADMortarConstraint</text>
</a>
</g>
</g>
<!-- Node2&#45;&gt;Node3 -->
<g id="edge2" class="edge">
<title>Node2&#45;&gt;Node3</title>
<path fill="none" stroke="#63b8ff" d="M312.71,-109.26C350.28,-123.15 407.39,-144.27 440.72,-156.6"/>
<polygon fill="#63b8ff" stroke="#63b8ff" points="314.21,-106.08 303.62,-105.9 311.78,-112.65 314.21,-106.08"/>
</g>
<!-- Node11 -->
<g id="node11" class="node">
<title>Node11</title>
<g id="a_node11"><a xlink:href="classMortarConstraint.html" target="_top" xlink:title=" ">
<polygon fill="white" stroke="#666666" points="525,-102 412,-102 412,-83 525,-83 525,-102"/>
<text text-anchor="middle" x="468.5" y="-90" font-family="Courier,monospace" font-size="10.00">MortarConstraint</text>
</a>
</g>
</g>
<!-- Node2&#45;&gt;Node11 -->
<g id="edge10" class="edge">
<title>Node2&#45;&gt;Node11</title>
<path fill="none" stroke="#63b8ff" d="M354.88,-94.26C373.95,-93.96 393.92,-93.65 411.66,-93.37"/>
<polygon fill="#63b8ff" stroke="#63b8ff" points="354.92,-90.76 344.98,-94.41 355.03,-97.76 354.92,-90.76"/>
</g>
<!-- Node4 -->
<g id="node4" class="node">
<title>Node4</title>
<g id="a_node4"><a xlink:href="classADMortarScalarBase.html" target="_top" xlink:title="This Constraint adds standardized methods for assembling to a primary scalar variable associated with...">
<polygon fill="white" stroke="#666666" points="719,-250 594,-250 594,-231 719,-231 719,-250"/>
<text text-anchor="middle" x="656.5" y="-238" font-family="Courier,monospace" font-size="10.00">ADMortarScalarBase</text>
</a>
</g>
</g>
<!-- Node3&#45;&gt;Node4 -->
<g id="edge3" class="edge">
<title>Node3&#45;&gt;Node4</title>
<path fill="none" stroke="#63b8ff" d="M495.39,-182.01C517.08,-194.44 549.2,-211.56 579,-222.5 587.45,-225.6 596.63,-228.3 605.6,-230.6"/>
<polygon fill="#63b8ff" stroke="#63b8ff" points="497.34,-179.09 486.94,-177.09 493.82,-185.14 497.34,-179.09"/>
</g>
<!-- Node8 -->
<g id="node8" class="node">
<title>Node8</title>
<g id="a_node8"><a xlink:href="classEqualGradientConstraint.html" target="_top" xlink:title="Constrain a specified component of the gradient of a variable to be the same on both sides of an inte...">
<polygon fill="white" stroke="#666666" points="734,-213 579,-213 579,-194 734,-194 734,-213"/>
<text text-anchor="middle" x="656.5" y="-201" font-family="Courier,monospace" font-size="10.00">EqualGradientConstraint</text>
</a>
</g>
</g>
<!-- Node3&#45;&gt;Node8 -->
<g id="edge7" class="edge">
<title>Node3&#45;&gt;Node8</title>
<path fill="none" stroke="#63b8ff" d="M530.6,-178.65C554.88,-183.48 582.46,-188.97 605.52,-193.56"/>
<polygon fill="#63b8ff" stroke="#63b8ff" points="531.32,-175.23 520.83,-176.71 529.95,-182.09 531.32,-175.23"/>
</g>
<!-- Node9 -->
<g id="node9" class="node">
<title>Node9</title>
<g id="a_node9"><a xlink:href="classEqualValueConstraint.html" target="_top" xlink:title="Constrain the value of a variable to be the same on both sides of an interface.">
<polygon fill="white" stroke="#666666" points="725,-176 588,-176 588,-157 725,-157 725,-176"/>
<text text-anchor="middle" x="656.5" y="-164" font-family="Courier,monospace" font-size="10.00">EqualValueConstraint</text>
</a>
</g>
</g>
<!-- Node3&#45;&gt;Node9 -->
<g id="edge8" class="edge">
<title>Node3&#45;&gt;Node9</title>
<path fill="none" stroke="#63b8ff" d="M542.64,-166.5C557.51,-166.5 573.08,-166.5 587.76,-166.5"/>
<polygon fill="#63b8ff" stroke="#63b8ff" points="542.95,-163 532.95,-166.5 542.95,-170 542.95,-163"/>
</g>
<!-- Node10 -->
<g id="node10" class="node">
<title>Node10</title>
<g id="a_node10"><a xlink:href="classFaceFaceConstraint.html" target="_top" xlink:title="This is a deprecated object! Use MortarConstraint instead!">
<polygon fill="white" stroke="#666666" points="719,-139 594,-139 594,-120 719,-120 719,-139"/>
<text text-anchor="middle" x="656.5" y="-127" font-family="Courier,monospace" font-size="10.00">FaceFaceConstraint</text>
</a>
</g>
</g>
<!-- Node3&#45;&gt;Node10 -->
<g id="edge9" class="edge">
<title>Node3&#45;&gt;Node10</title>
<path fill="none" stroke="#63b8ff" d="M530.6,-154.35C554.88,-149.52 582.46,-144.03 605.52,-139.44"/>
<polygon fill="#63b8ff" stroke="#63b8ff" points="529.95,-150.91 520.83,-156.29 531.32,-157.77 529.95,-150.91"/>
</g>
<!-- Node5 -->
<g id="node5" class="node">
<title>Node5</title>
<g id="a_node5"><a xlink:href="classDerivativeMaterialInterface.html" target="_top" xlink:title=" ">
<polygon fill="white" stroke="#666666" points="949,-255.5 770,-255.5 770,-225.5 949,-225.5 949,-255.5"/>
<text text-anchor="start" x="778" y="-243.5" font-family="Courier,monospace" font-size="10.00">DerivativeMaterialInterface</text>
<text text-anchor="middle" x="859.5" y="-232.5" font-family="Courier,monospace" font-size="10.00">&lt; ADMortarScalarBase &gt;</text>
</a>
</g>
</g>
<!-- Node4&#45;&gt;Node5 -->
<g id="edge4" class="edge">
<title>Node4&#45;&gt;Node5</title>
<path fill="none" stroke="#63b8ff" d="M730.86,-240.5C743.51,-240.5 756.78,-240.5 769.79,-240.5"/>
<polygon fill="#63b8ff" stroke="#63b8ff" points="730.96,-237 720.96,-240.5 730.96,-244 730.96,-237"/>
</g>
<!-- Node6 -->
<g id="node6" class="node">
<title>Node6</title>
<g id="a_node6"><a xlink:href="classADPenaltyPeriodicSegmentalConstraint.html" target="_top" xlink:title="This class enforces a periodic boundary condition between a microscale and macroscale field.">
<polygon fill="white" stroke="#666666" points="1167,-277.5 994,-277.5 994,-247.5 1167,-247.5 1167,-277.5"/>
<text text-anchor="start" x="1002" y="-265.5" font-family="Courier,monospace" font-size="10.00">ADPenaltyPeriodicSegmental</text>
<text text-anchor="middle" x="1080.5" y="-254.5" font-family="Courier,monospace" font-size="10.00">Constraint</text>
</a>
</g>
</g>
<!-- Node5&#45;&gt;Node6 -->
<g id="edge5" class="edge">
<title>Node5&#45;&gt;Node6</title>
<path fill="none" stroke="#63b8ff" d="M960.72,-250.57C971.77,-251.68 982.95,-252.8 993.81,-253.89"/>
<polygon fill="#63b8ff" stroke="#63b8ff" points="961.07,-247.08 950.77,-249.57 960.37,-254.05 961.07,-247.08"/>
</g>
<!-- Node7 -->
<g id="node7" class="node">
<title>Node7</title>
<g id="a_node7"><a xlink:href="classADPeriodicSegmentalConstraint.html" target="_top" xlink:title="This class enforces a periodic boundary condition between a microscale and macroscale field.">
<polygon fill="white" stroke="#666666" points="1176,-229 985,-229 985,-210 1176,-210 1176,-229"/>
<text text-anchor="middle" x="1080.5" y="-217" font-family="Courier,monospace" font-size="10.00">ADPeriodicSegmentalConstraint</text>
</a>
</g>
</g>
<!-- Node5&#45;&gt;Node7 -->
<g id="edge6" class="edge">
<title>Node5&#45;&gt;Node7</title>
<path fill="none" stroke="#63b8ff" d="M960.51,-230.91C968.51,-230.14 976.58,-229.37 984.54,-228.61"/>
<polygon fill="#63b8ff" stroke="#63b8ff" points="960.39,-227.41 950.77,-231.84 961.06,-234.37 960.39,-227.41"/>
</g>
<!-- Node12 -->
<g id="node12" class="node">
<title>Node12</title>
<g id="a_node12"><a xlink:href="classMortarScalarBase.html" target="_top" xlink:title="This Constraint adds standardized methods for assembling to a primary scalar variable associated with...">
<polygon fill="white" stroke="#666666" points="713,-102 600,-102 600,-83 713,-83 713,-102"/>
<text text-anchor="middle" x="656.5" y="-90" font-family="Courier,monospace" font-size="10.00">MortarScalarBase</text>
</a>
</g>
</g>
<!-- Node11&#45;&gt;Node12 -->
<g id="edge11" class="edge">
<title>Node11&#45;&gt;Node12</title>
<path fill="none" stroke="#63b8ff" d="M536.59,-92.5C557.3,-92.5 579.87,-92.5 599.73,-92.5"/>
<polygon fill="#63b8ff" stroke="#63b8ff" points="536.82,-89 526.82,-92.5 536.82,-96 536.82,-89"/>
</g>
<!-- Node16 -->
<g id="node16" class="node">
<title>Node16</title>
<g id="a_node16"><a xlink:href="classOldEqualValueConstraint.html" target="_top" xlink:title="Constrain the value of a variable to be the same on both sides of an interface.">
<polygon fill="white" stroke="#666666" points="734,-65 579,-65 579,-46 734,-46 734,-65"/>
<text text-anchor="middle" x="656.5" y="-53" font-family="Courier,monospace" font-size="10.00">OldEqualValueConstraint</text>
</a>
</g>
</g>
<!-- Node11&#45;&gt;Node16 -->
<g id="edge15" class="edge">
<title>Node11&#45;&gt;Node16</title>
<path fill="none" stroke="#63b8ff" d="M530.6,-80.35C554.88,-75.52 582.46,-70.03 605.52,-65.44"/>
<polygon fill="#63b8ff" stroke="#63b8ff" points="529.95,-76.91 520.83,-82.29 531.32,-83.77 529.95,-76.91"/>
</g>
<!-- Node13 -->
<g id="node13" class="node">
<title>Node13</title>
<g id="a_node13"><a xlink:href="classDerivativeMaterialInterface.html" target="_top" xlink:title=" ">
<polygon fill="white" stroke="#666666" points="949,-107.5 770,-107.5 770,-77.5 949,-77.5 949,-107.5"/>
<text text-anchor="start" x="778" y="-95.5" font-family="Courier,monospace" font-size="10.00">DerivativeMaterialInterface</text>
<text text-anchor="middle" x="859.5" y="-84.5" font-family="Courier,monospace" font-size="10.00">&lt; MortarScalarBase &gt;</text>
</a>
</g>
</g>
<!-- Node12&#45;&gt;Node13 -->
<g id="edge12" class="edge">
<title>Node12&#45;&gt;Node13</title>
<path fill="none" stroke="#63b8ff" d="M724.79,-92.5C739.18,-92.5 754.6,-92.5 769.67,-92.5"/>
<polygon fill="#63b8ff" stroke="#63b8ff" points="725,-89 715,-92.5 725,-96 725,-89"/>
</g>
<!-- Node14 -->
<g id="node14" class="node">
<title>Node14</title>
<g id="a_node14"><a xlink:href="classPenaltyPeriodicSegmentalConstraint.html" target="_top" xlink:title="This class enforces a periodic boundary condition between a microscale and macroscale field.">
<polygon fill="white" stroke="#666666" points="1161,-129.5 1000,-129.5 1000,-99.5 1161,-99.5 1161,-129.5"/>
<text text-anchor="start" x="1008" y="-117.5" font-family="Courier,monospace" font-size="10.00">PenaltyPeriodicSegmental</text>
<text text-anchor="middle" x="1080.5" y="-106.5" font-family="Courier,monospace" font-size="10.00">Constraint</text>
</a>
</g>
</g>
<!-- Node13&#45;&gt;Node14 -->
<g id="edge13" class="edge">
<title>Node13&#45;&gt;Node14</title>
<path fill="none" stroke="#63b8ff" d="M960.71,-102.57C973.81,-103.88 987.09,-105.22 999.79,-106.49"/>
<polygon fill="#63b8ff" stroke="#63b8ff" points="961.07,-99.08 950.77,-101.57 960.37,-106.05 961.07,-99.08"/>
</g>
<!-- Node15 -->
<g id="node15" class="node">
<title>Node15</title>
<g id="a_node15"><a xlink:href="classPeriodicSegmentalConstraint.html" target="_top" xlink:title="This class enforces a periodic boundary condition between a microscale and macroscale field.">
<polygon fill="white" stroke="#666666" points="1170,-81 991,-81 991,-62 1170,-62 1170,-81"/>
<text text-anchor="middle" x="1080.5" y="-69" font-family="Courier,monospace" font-size="10.00">PeriodicSegmentalConstraint</text>
</a>
</g>
</g>
<!-- Node13&#45;&gt;Node15 -->
<g id="edge14" class="edge">
<title>Node13&#45;&gt;Node15</title>
<path fill="none" stroke="#63b8ff" d="M960.53,-82.91C970.56,-81.95 980.7,-80.97 990.61,-80.02"/>
<polygon fill="#63b8ff" stroke="#63b8ff" points="960.39,-79.41 950.77,-83.84 961.06,-86.37 960.39,-79.41"/>
</g>
<!-- Node18 -->
<g id="node18" class="node">
<title>Node18</title>
<g id="a_node18"><a xlink:href="classWeightedGapAux.html" target="_top" xlink:title="Compute a weighted gap based on a mortar discretization.">
<polygon fill="white" stroke="#666666" points="543,-62 394,-62 394,-43 543,-43 543,-62"/>
<text text-anchor="middle" x="468.5" y="-50" font-family="Courier,monospace" font-size="10.00">WeightedGapAux&lt; Real &gt;</text>
</a>
</g>
</g>
<!-- Node17&#45;&gt;Node18 -->
<g id="edge17" class="edge">
<title>Node17&#45;&gt;Node18</title>
<path fill="none" stroke="#63b8ff" d="M369.69,-52.5C377.76,-52.5 385.85,-52.5 393.72,-52.5"/>
<polygon fill="#63b8ff" stroke="#63b8ff" points="369.83,-49 359.83,-52.5 369.83,-56 369.83,-49"/>
</g>
</g>
</svg>
        <g id="navigator" transform="translate(0 0)" fill="#404254">
                <rect fill="#f2f5e9" fill-opacity="0.5" stroke="#606060" stroke-width=".5" x="0" y="0" width="60" height="60"/>
                <use id="zoomplus" xlink:href="#zoomPlus" x="17" y="9" onmousedown="handleZoom(evt,'in')"/>
                <use id="zoomminus" xlink:href="#zoomMin" x="42" y="9" onmousedown="handleZoom(evt,'out')"/>
                <use id="reset" xlink:href="#resetDef" x="30" y="36" onmousedown="handleReset()"/>
                <g id="arrowUp" xlink:href="#dirArrow" transform="translate(30 24)" onmousedown="handlePan(0,-1)">
                  <use xlink:href="#rim" fill="#404040">
                        <set attributeName="fill" to="#808080" begin="arrowUp.mouseover" end="arrowUp.mouseout"/>
                  </use>
                  <path fill="none" stroke="white" stroke-width="1.5" d="M0,-3.0v7 M-2.5,-0.5L0,-3.0L2.5,-0.5"/>
                </g>
                <g id="arrowRight" xlink:href="#dirArrow" transform="rotate(90) translate(36 -43)" onmousedown="handlePan(1,0)">
                  <use xlink:href="#rim" fill="#404040">
                        <set attributeName="fill" to="#808080" begin="arrowRight.mouseover" end="arrowRight.mouseout"/>
                  </use>
                  <path fill="none" stroke="white" stroke-width="1.5" d="M0,-3.0v7 M-2.5,-0.5L0,-3.0L2.5,-0.5"/>
                </g>
                <g id="arrowDown" xlink:href="#dirArrow" transform="rotate(180) translate(-30 -48)" onmousedown="handlePan(0,1)">
                  <use xlink:href="#rim" fill="#404040">
                        <set attributeName="fill" to="#808080" begin="arrowDown.mouseover" end="arrowDown.mouseout"/>
                  </use>
                  <path fill="none" stroke="white" stroke-width="1.5" d="M0,-3.0v7 M-2.5,-0.5L0,-3.0L2.5,-0.5"/>
                </g>
                <g id="arrowLeft" xlink:href="#dirArrow" transform="rotate(270) translate(-36 17)" onmousedown="handlePan(-1,0)">
                  <use xlink:href="#rim" fill="#404040">
                        <set attributeName="fill" to="#808080" begin="arrowLeft.mouseover" end="arrowLeft.mouseout"/>
                  </use>
                  <path fill="none" stroke="white" stroke-width="1.5" d="M0,-3.0v7 M-2.5,-0.5L0,-3.0L2.5,-0.5"/>
                </g>
        </g>
        <svg viewBox="0 0 15 15" width="100%" height="30px" preserveAspectRatio="xMaxYMin meet">
         <g id="arrow_out" transform="scale(0.3 0.3)">
          <a xlink:href="classMortarConsumerInterface__inherit__graph_org.svg" target="_base">
           <rect id="button" ry="5" rx="5" y="6" x="6" height="38" width="38"
                fill="#f2f5e9" fill-opacity="0.5" stroke="#606060" stroke-width="1.0"/>
           <path id="arrow"
             d="M 11.500037,31.436501 C 11.940474,20.09759 22.043105,11.32322 32.158766,21.979434 L 37.068811,17.246167 C 37.068811,17.246167 37.088388,32 37.088388,32 L 22.160133,31.978069 C 22.160133,31.978069 26.997745,27.140456 26.997745,27.140456 C 18.528582,18.264221 13.291696,25.230495 11.500037,31.436501 z"
             style="fill:#404040;"/>
          </a>
         </g>
        </svg>
</svg>
