<?xml version="1.0" encoding="UTF-8" standalone="no"?>
<!DOCTYPE svg PUBLIC "-//W3C//DTD SVG 1.1//EN"
 "http://www.w3.org/Graphics/SVG/1.1/DTD/svg11.dtd">
<!-- Generated by graphviz version 7.0.5 (20221223.1930)
 -->
<!-- Title: MooseUtils::Buffer&lt; T &gt; Pages: 1 -->
<svg width="408pt" height="82pt"
 viewBox="0.00 0.00 408.00 82.00" xmlns="http://www.w3.org/2000/svg" xmlns:xlink="http://www.w3.org/1999/xlink">
<g id="graph0" class="graph" transform="scale(1 1) rotate(0) translate(4 78)">
<title>MooseUtils::Buffer&lt; T &gt;</title>
<!-- Node1 -->
<g id="node1" class="node">
<title>Node1</title>
<g id="a_node1"><a xlink:title="Base class for a buffer.">
<polygon fill="#999999" stroke="#666666" points="283,-74 128,-74 128,-55 283,-55 283,-74"/>
<text text-anchor="middle" x="205.5" y="-62" font-family="Courier,monospace" font-size="10.00">MooseUtils::Buffer&lt; T &gt;</text>
</a>
</g>
</g>
<!-- Node2 -->
<g id="node2" class="node">
<title>Node2</title>
<g id="a_node2"><a xlink:href="classMooseUtils_1_1CircularBuffer.html" target="_top" xlink:title="An optimized circular buffer.">
<polygon fill="white" stroke="#666666" points="203,-19 0,-19 0,0 203,0 203,-19"/>
<text text-anchor="middle" x="101.5" y="-7" font-family="Courier,monospace" font-size="10.00">MooseUtils::CircularBuffer&lt; T &gt;</text>
</a>
</g>
</g>
<!-- Node1&#45;&gt;Node2 -->
<g id="edge1" class="edge">
<title>Node1&#45;&gt;Node2</title>
<path fill="none" stroke="#63b8ff" d="M177.83,-49.4C159.11,-39.86 134.95,-27.55 118.88,-19.36"/>
<polygon fill="#63b8ff" stroke="#63b8ff" points="176.01,-52.4 186.51,-53.82 179.19,-46.16 176.01,-52.4"/>
</g>
<!-- Node3 -->
<g id="node3" class="node">
<title>Node3</title>
<g id="a_node3"><a xlink:href="classMooseUtils_1_1LIFOBuffer.html" target="_top" xlink:title="An optimized LIFO (Last In First Out) buffer.">
<polygon fill="white" stroke="#666666" points="400,-19 221,-19 221,0 400,0 400,-19"/>
<text text-anchor="middle" x="310.5" y="-7" font-family="Courier,monospace" font-size="10.00">MooseUtils::LIFOBuffer&lt; T &gt;</text>
</a>
</g>
</g>
<!-- Node1&#45;&gt;Node3 -->
<g id="edge2" class="edge">
<title>Node1&#45;&gt;Node3</title>
<path fill="none" stroke="#63b8ff" d="M233.43,-49.4C252.34,-39.86 276.72,-27.55 292.95,-19.36"/>
<polygon fill="#63b8ff" stroke="#63b8ff" points="232.01,-46.2 224.66,-53.83 235.17,-52.45 232.01,-46.2"/>
</g>
</g>
</svg>
