<?xml version="1.0" encoding="UTF-8" standalone="no"?>
<!DOCTYPE svg PUBLIC "-//W3C//DTD SVG 1.1//EN"
 "http://www.w3.org/Graphics/SVG/1.1/DTD/svg11.dtd">
<!-- Generated by graphviz version 7.0.5 (20221223.1930)
 -->
<!-- Title: MooseVariableDataBase&lt; OutputType &gt; Pages: 1 -->
<svg width="282pt" height="104pt"
 viewBox="0.00 0.00 282.00 104.00" xmlns="http://www.w3.org/2000/svg" xmlns:xlink="http://www.w3.org/1999/xlink">
<g id="graph0" class="graph" transform="scale(1 1) rotate(0) translate(4 100)">
<title>MooseVariableDataBase&lt; OutputType &gt;</title>
<!-- Node1 -->
<g id="node1" class="node">
<title>Node1</title>
<g id="a_node1"><a xlink:title=" ">
<polygon fill="#999999" stroke="#666666" points="207,-96 64,-96 64,-66 207,-66 207,-96"/>
<text text-anchor="start" x="72" y="-84" font-family="Courier,monospace" font-size="10.00">MooseVariableDataBase</text>
<text text-anchor="middle" x="135.5" y="-73" font-family="Courier,monospace" font-size="10.00">&lt; OutputType &gt;</text>
</a>
</g>
</g>
<!-- Node2 -->
<g id="node2" class="node">
<title>Node2</title>
<g id="a_node2"><a xlink:href="classMooseVariableData.html" target="_top" xlink:title=" ">
<polygon fill="white" stroke="#666666" points="125,-30 0,-30 0,0 125,0 125,-30"/>
<text text-anchor="start" x="8" y="-18" font-family="Courier,monospace" font-size="10.00">MooseVariableData&lt;</text>
<text text-anchor="middle" x="62.5" y="-7" font-family="Courier,monospace" font-size="10.00"> OutputType &gt;</text>
</a>
</g>
</g>
<!-- Node1&#45;&gt;Node2 -->
<g id="edge1" class="edge">
<title>Node1&#45;&gt;Node2</title>
<path fill="none" stroke="#63b8ff" d="M110.89,-58.42C100.35,-49.18 88.33,-38.65 78.91,-30.39"/>
<polygon fill="#63b8ff" stroke="#63b8ff" points="108.33,-60.84 118.16,-64.8 112.95,-55.57 108.33,-60.84"/>
</g>
<!-- Node3 -->
<g id="node3" class="node">
<title>Node3</title>
<g id="a_node3"><a xlink:href="classMooseVariableDataFV.html" target="_top" xlink:title=" ">
<polygon fill="white" stroke="#666666" points="274,-30 143,-30 143,0 274,0 274,-30"/>
<text text-anchor="start" x="151" y="-18" font-family="Courier,monospace" font-size="10.00">MooseVariableDataFV</text>
<text text-anchor="middle" x="208.5" y="-7" font-family="Courier,monospace" font-size="10.00">&lt; OutputType &gt;</text>
</a>
</g>
</g>
<!-- Node1&#45;&gt;Node3 -->
<g id="edge2" class="edge">
<title>Node1&#45;&gt;Node3</title>
<path fill="none" stroke="#63b8ff" d="M160.11,-58.42C170.65,-49.18 182.67,-38.65 192.09,-30.39"/>
<polygon fill="#63b8ff" stroke="#63b8ff" points="158.05,-55.57 152.84,-64.8 162.67,-60.84 158.05,-55.57"/>
</g>
</g>
</svg>
