<?xml version="1.0" encoding="UTF-8" standalone="no"?>
<!DOCTYPE svg PUBLIC "-//W3C//DTD SVG 1.1//EN"
 "http://www.w3.org/Graphics/SVG/1.1/DTD/svg11.dtd">
<!-- Generated by graphviz version 7.0.5 (20221223.1930)
 -->
<!-- Title: FEProblemBase Pages: 1 -->
<svg width="1236pt" height="194pt"
 viewBox="0.00 0.00 1236.00 194.00" xmlns="http://www.w3.org/2000/svg" xmlns:xlink="http://www.w3.org/1999/xlink">
<g id="graph0" class="graph" transform="scale(1 1) rotate(0) translate(4 190)">
<title>FEProblemBase</title>
<!-- Node1 -->
<g id="node1" class="node">
<title>Node1</title>
<g id="a_node1"><a xlink:title="Specialization of SubProblem for solving nonlinear equations plus auxiliary equations.">
<polygon fill="#999999" stroke="#666666" points="870,-74 775,-74 775,-55 870,-55 870,-74"/>
<text text-anchor="middle" x="822.5" y="-62" font-family="Courier,monospace" font-size="10.00">FEProblemBase</text>
</a>
</g>
</g>
<!-- Node13 -->
<g id="node13" class="node">
<title>Node13</title>
<g id="a_node13"><a xlink:href="classDumpObjectsProblem.html" target="_top" xlink:title="Specialization of SubProblem for dumping generated objects as input file syntax.">
<polygon fill="white" stroke="#666666" points="1031,-130 906,-130 906,-111 1031,-111 1031,-130"/>
<text text-anchor="middle" x="968.5" y="-118" font-family="Courier,monospace" font-size="10.00">DumpObjectsProblem</text>
</a>
</g>
</g>
<!-- Node1&#45;&gt;Node13 -->
<g id="edge12" class="edge">
<title>Node1&#45;&gt;Node13</title>
<path fill="none" stroke="#63b8ff" d="M852.89,-79.31C868.44,-86.83 888,-95.76 906,-102.5 913.71,-105.39 922.1,-108.11 930.14,-110.52"/>
<polygon fill="#63b8ff" stroke="#63b8ff" points="854.7,-76.31 844.19,-75.05 851.62,-82.59 854.7,-76.31"/>
</g>
<!-- Node14 -->
<g id="node14" class="node">
<title>Node14</title>
<g id="a_node14"><a xlink:href="classEigenProblem.html" target="_top" xlink:title="Problem for solving eigenvalue problems.">
<polygon fill="white" stroke="#666666" points="1013,-93 924,-93 924,-74 1013,-74 1013,-93"/>
<text text-anchor="middle" x="968.5" y="-81" font-family="Courier,monospace" font-size="10.00">EigenProblem</text>
</a>
</g>
</g>
<!-- Node1&#45;&gt;Node14 -->
<g id="edge13" class="edge">
<title>Node1&#45;&gt;Node14</title>
<path fill="none" stroke="#63b8ff" d="M881.42,-72.14C895.6,-74.01 910.53,-75.98 923.91,-77.75"/>
<polygon fill="#63b8ff" stroke="#63b8ff" points="882.13,-68.71 871.75,-70.87 881.21,-75.64 882.13,-68.71"/>
</g>
<!-- Node15 -->
<g id="node15" class="node">
<title>Node15</title>
<g id="a_node15"><a xlink:href="classExternalProblem.html" target="_top" xlink:title=" ">
<polygon fill="white" stroke="#666666" points="1022,-56 915,-56 915,-37 1022,-37 1022,-56"/>
<text text-anchor="middle" x="968.5" y="-44" font-family="Courier,monospace" font-size="10.00">ExternalProblem</text>
</a>
</g>
</g>
<!-- Node1&#45;&gt;Node15 -->
<g id="edge14" class="edge">
<title>Node1&#45;&gt;Node15</title>
<path fill="none" stroke="#63b8ff" d="M881.5,-57.25C892.48,-55.88 903.93,-54.45 914.74,-53.09"/>
<polygon fill="#63b8ff" stroke="#63b8ff" points="881.24,-53.75 871.75,-58.47 882.11,-60.7 881.24,-53.75"/>
</g>
<!-- Node16 -->
<g id="node16" class="node">
<title>Node16</title>
<g id="a_node16"><a xlink:href="classFEProblem.html" target="_top" xlink:title="Specialization of SubProblem for solving nonlinear equations plus auxiliary equations.">
<polygon fill="white" stroke="#666666" points="1004,-19 933,-19 933,0 1004,0 1004,-19"/>
<text text-anchor="middle" x="968.5" y="-7" font-family="Courier,monospace" font-size="10.00">FEProblem</text>
</a>
</g>
</g>
<!-- Node1&#45;&gt;Node16 -->
<g id="edge15" class="edge">
<title>Node1&#45;&gt;Node16</title>
<path fill="none" stroke="#63b8ff" d="M853.55,-49.83C869.01,-42.59 888.29,-34.03 906,-27.5 914.56,-24.34 923.95,-21.36 932.75,-18.77"/>
<polygon fill="#63b8ff" stroke="#63b8ff" points="852.42,-46.49 844.89,-53.94 855.42,-52.81 852.42,-46.49"/>
</g>
<!-- Node2 -->
<g id="node2" class="node">
<title>Node2</title>
<g id="a_node2"><a xlink:href="classSubProblem.html" target="_top" xlink:title="Generic class for solving transient nonlinear problems.">
<polygon fill="white" stroke="#666666" points="736,-93 659,-93 659,-74 736,-74 736,-93"/>
<text text-anchor="middle" x="697.5" y="-81" font-family="Courier,monospace" font-size="10.00">SubProblem</text>
</a>
</g>
</g>
<!-- Node2&#45;&gt;Node1 -->
<g id="edge1" class="edge">
<title>Node2&#45;&gt;Node1</title>
<path fill="none" stroke="#63b8ff" d="M747.54,-75.92C756.54,-74.53 765.9,-73.09 774.83,-71.71"/>
<polygon fill="#63b8ff" stroke="#63b8ff" points="747.25,-72.43 737.9,-77.41 748.32,-79.35 747.25,-72.43"/>
</g>
<!-- Node3 -->
<g id="node3" class="node">
<title>Node3</title>
<g id="a_node3"><a xlink:href="classProblem.html" target="_top" xlink:title="Class that hold the whole problem being solved.">
<polygon fill="white" stroke="#666666" points="620,-93 561,-93 561,-74 620,-74 620,-93"/>
<text text-anchor="middle" x="590.5" y="-81" font-family="Courier,monospace" font-size="10.00">Problem</text>
</a>
</g>
</g>
<!-- Node3&#45;&gt;Node2 -->
<g id="edge2" class="edge">
<title>Node3&#45;&gt;Node2</title>
<path fill="none" stroke="#63b8ff" d="M631.7,-83.5C640.52,-83.5 649.84,-83.5 658.57,-83.5"/>
<polygon fill="#63b8ff" stroke="#63b8ff" points="631.98,-80 621.98,-83.5 631.98,-87 631.98,-80"/>
</g>
<!-- Node4 -->
<g id="node4" class="node">
<title>Node4</title>
<g id="a_node4"><a xlink:href="classMooseObject.html" target="_top" xlink:title="Every object that can be built by the factory should be derived from this class.">
<polygon fill="white" stroke="#666666" points="504,-112 421,-112 421,-93 504,-93 504,-112"/>
<text text-anchor="middle" x="462.5" y="-100" font-family="Courier,monospace" font-size="10.00">MooseObject</text>
</a>
</g>
</g>
<!-- Node4&#45;&gt;Node3 -->
<g id="edge3" class="edge">
<title>Node4&#45;&gt;Node3</title>
<path fill="none" stroke="#63b8ff" d="M515.46,-94.66C530.94,-92.33 547.33,-89.86 560.75,-87.84"/>
<polygon fill="#63b8ff" stroke="#63b8ff" points="515.27,-91.15 505.91,-96.11 516.32,-98.08 515.27,-91.15"/>
</g>
<!-- Node5 -->
<g id="node5" class="node">
<title>Node5</title>
<g id="a_node5"><a xlink:href="classMooseBase.html" target="_top" xlink:title="Base class for everything in MOOSE with a name and a type.">
<polygon fill="white" stroke="#666666" points="310,-186 239,-186 239,-167 310,-167 310,-186"/>
<text text-anchor="middle" x="274.5" y="-174" font-family="Courier,monospace" font-size="10.00">MooseBase</text>
</a>
</g>
</g>
<!-- Node5&#45;&gt;Node4 -->
<g id="edge4" class="edge">
<title>Node5&#45;&gt;Node4</title>
<path fill="none" stroke="#63b8ff" d="M321.58,-170.02C335.48,-167.3 350.59,-163.56 364,-158.5 395.78,-146.5 429.4,-124.94 447.68,-112.36"/>
<polygon fill="#63b8ff" stroke="#63b8ff" points="320.97,-166.58 311.75,-171.8 322.21,-173.47 320.97,-166.58"/>
</g>
<!-- Node6 -->
<g id="node6" class="node">
<title>Node6</title>
<g id="a_node6"><a xlink:href="classMooseBaseParameterInterface.html" target="_top" xlink:title="Every object that can be built by the factory should be derived from this class.">
<polygon fill="white" stroke="#666666" points="364,-149 185,-149 185,-130 364,-130 364,-149"/>
<text text-anchor="middle" x="274.5" y="-137" font-family="Courier,monospace" font-size="10.00">MooseBaseParameterInterface</text>
</a>
</g>
</g>
<!-- Node6&#45;&gt;Node4 -->
<g id="edge5" class="edge">
<title>Node6&#45;&gt;Node4</title>
<path fill="none" stroke="#63b8ff" d="M336.48,-127.37C364.07,-121.88 395.96,-115.54 420.62,-110.63"/>
<polygon fill="#63b8ff" stroke="#63b8ff" points="335.95,-123.91 326.83,-129.29 337.32,-130.77 335.95,-123.91"/>
</g>
<!-- Node7 -->
<g id="node7" class="node">
<title>Node7</title>
<g id="a_node7"><a xlink:href="classMooseBaseErrorInterface.html" target="_top" xlink:title="Interface that provides APIs to output errors/warnings/info messages.">
<polygon fill="white" stroke="#666666" points="352,-112 197,-112 197,-93 352,-93 352,-112"/>
<text text-anchor="middle" x="274.5" y="-100" font-family="Courier,monospace" font-size="10.00">MooseBaseErrorInterface</text>
</a>
</g>
</g>
<!-- Node7&#45;&gt;Node4 -->
<g id="edge6" class="edge">
<title>Node7&#45;&gt;Node4</title>
<path fill="none" stroke="#63b8ff" d="M363.81,-102.5C383.7,-102.5 403.87,-102.5 420.67,-102.5"/>
<polygon fill="#63b8ff" stroke="#63b8ff" points="364.01,-99 354.01,-102.5 364.01,-106 364.01,-99"/>
</g>
<!-- Node8 -->
<g id="node8" class="node">
<title>Node8</title>
<g id="a_node8"><a xlink:href="classConsoleStreamInterface.html" target="_top" xlink:title="An inteface for the _console for outputting to the Console object.">
<polygon fill="white" stroke="#666666" points="149,-112 0,-112 0,-93 149,-93 149,-112"/>
<text text-anchor="middle" x="74.5" y="-100" font-family="Courier,monospace" font-size="10.00">ConsoleStreamInterface</text>
</a>
</g>
</g>
<!-- Node8&#45;&gt;Node7 -->
<g id="edge7" class="edge">
<title>Node8&#45;&gt;Node7</title>
<path fill="none" stroke="#63b8ff" d="M160.62,-102.5C172.62,-102.5 184.9,-102.5 196.73,-102.5"/>
<polygon fill="#63b8ff" stroke="#63b8ff" points="160.74,-99 150.74,-102.5 160.74,-106 160.74,-99"/>
</g>
<!-- Node9 -->
<g id="node9" class="node">
<title>Node9</title>
<g id="a_node9"><a xlink:title=" ">
<polygon fill="white" stroke="#666666" points="352,-75 197,-75 197,-56 352,-56 352,-75"/>
<text text-anchor="middle" x="274.5" y="-63" font-family="Courier,monospace" font-size="10.00">libMesh::ParallelObject</text>
</a>
</g>
</g>
<!-- Node9&#45;&gt;Node4 -->
<g id="edge8" class="edge">
<title>Node9&#45;&gt;Node4</title>
<path fill="none" stroke="#63b8ff" d="M336.48,-77.63C364.07,-83.12 395.96,-89.46 420.62,-94.37"/>
<polygon fill="#63b8ff" stroke="#63b8ff" points="337.32,-74.23 326.83,-75.71 335.95,-81.09 337.32,-74.23"/>
</g>
<!-- Node10 -->
<g id="node10" class="node">
<title>Node10</title>
<g id="a_node10"><a xlink:href="classDataFileInterface.html" target="_top" xlink:title=" ">
<polygon fill="white" stroke="#666666" points="337,-37.5 212,-37.5 212,-7.5 337,-7.5 337,-37.5"/>
<text text-anchor="start" x="220" y="-25.5" font-family="Courier,monospace" font-size="10.00">DataFileInterface&lt;</text>
<text text-anchor="middle" x="274.5" y="-14.5" font-family="Courier,monospace" font-size="10.00"> MooseObject &gt;</text>
</a>
</g>
</g>
<!-- Node10&#45;&gt;Node4 -->
<g id="edge9" class="edge">
<title>Node10&#45;&gt;Node4</title>
<path fill="none" stroke="#63b8ff" d="M347.66,-38.41C353.35,-40.76 358.88,-43.44 364,-46.5 383.97,-58.43 380.15,-72.37 400,-84.5 406.27,-88.33 413.39,-91.38 420.51,-93.8"/>
<polygon fill="#63b8ff" stroke="#63b8ff" points="349.29,-35.28 338.69,-35.07 346.84,-41.84 349.29,-35.28"/>
</g>
<!-- Node11 -->
<g id="node11" class="node">
<title>Node11</title>
<g id="a_node11"><a xlink:href="classPerfGraphInterface.html" target="_top" xlink:title="Interface for objects interacting with the PerfGraph.">
<polygon fill="white" stroke="#666666" points="525,-75 400,-75 400,-56 525,-56 525,-75"/>
<text text-anchor="middle" x="462.5" y="-63" font-family="Courier,monospace" font-size="10.00">PerfGraphInterface</text>
</a>
</g>
</g>
<!-- Node11&#45;&gt;Node3 -->
<g id="edge10" class="edge">
<title>Node11&#45;&gt;Node3</title>
<path fill="none" stroke="#63b8ff" d="M536.62,-75.95C545.09,-77.16 553.31,-78.33 560.64,-79.38"/>
<polygon fill="#63b8ff" stroke="#63b8ff" points="537.29,-72.51 526.89,-74.56 536.3,-79.43 537.29,-72.51"/>
</g>
<!-- Node12 -->
<g id="node12" class="node">
<title>Node12</title>
<g id="a_node12"><a xlink:href="classRestartable.html" target="_top" xlink:title="A class for creating restricted objects.">
<polygon fill="white" stroke="#666666" points="739,-56 656,-56 656,-37 739,-37 739,-56"/>
<text text-anchor="middle" x="697.5" y="-44" font-family="Courier,monospace" font-size="10.00">Restartable</text>
</a>
</g>
</g>
<!-- Node12&#45;&gt;Node1 -->
<g id="edge11" class="edge">
<title>Node12&#45;&gt;Node1</title>
<path fill="none" stroke="#63b8ff" d="M750.6,-54.12C758.63,-55.3 766.87,-56.51 774.77,-57.66"/>
<polygon fill="#63b8ff" stroke="#63b8ff" points="751.36,-50.7 740.95,-52.71 750.34,-57.62 751.36,-50.7"/>
</g>
<!-- Node17 -->
<g id="node17" class="node">
<title>Node17</title>
<g id="a_node17"><a xlink:href="classReferenceResidualProblem.html" target="_top" xlink:title="FEProblemBase derived class to enable convergence checking relative to a user&#45;specified postprocessor...">
<polygon fill="white" stroke="#666666" points="1228,-19 1067,-19 1067,0 1228,0 1228,-19"/>
<text text-anchor="middle" x="1147.5" y="-7" font-family="Courier,monospace" font-size="10.00">ReferenceResidualProblem</text>
</a>
</g>
</g>
<!-- Node16&#45;&gt;Node17 -->
<g id="edge16" class="edge">
<title>Node16&#45;&gt;Node17</title>
<path fill="none" stroke="#63b8ff" d="M1015.87,-9.5C1031.4,-9.5 1049.2,-9.5 1066.56,-9.5"/>
<polygon fill="#63b8ff" stroke="#63b8ff" points="1015.98,-6 1005.98,-9.5 1015.98,-13 1015.98,-6"/>
</g>
</g>
</svg>
