<?xml version="1.0" encoding="UTF-8" standalone="no"?>
<!DOCTYPE svg PUBLIC "-//W3C//DTD SVG 1.1//EN"
 "http://www.w3.org/Graphics/SVG/1.1/DTD/svg11.dtd">
<!-- Generated by graphviz version 7.0.5 (20221223.1930)
 -->
<!-- Title: NeumannCircuitVoltageMoles_KV Pages: 1 -->
<!--zoomable 625 -->
<svg id="main" version="1.1" xmlns="http://www.w3.org/2000/svg" xmlns:xlink="http://www.w3.org/1999/xlink" xml:space="preserve" onload="init(evt)">
<style type="text/css"><![CDATA[
.edge:hover path { stroke: red; }
.edge:hover polygon { stroke: red; fill: red; }
]]></style>
<script type="text/javascript"><![CDATA[
var edges = document.getElementsByTagName('g');
if (edges && edges.length) {
  for (var i=0;i<edges.length;i++) {
    if (edges[i].id.substr(0,4)=='edge') {
      edges[i].setAttribute('class','edge');
    }
  }
}
]]></script>
        <defs>
                <circle id="rim" cx="0" cy="0" r="7"/>
                <circle id="rim2" cx="0" cy="0" r="3.5"/>
                <g id="zoomPlus">
                        <use xlink:href="#rim" fill="#404040">
                                <set attributeName="fill" to="#808080" begin="zoomplus.mouseover" end="zoomplus.mouseout"/>
                        </use>
                        <path d="M-4,0h8M0,-4v8" fill="none" stroke="white" stroke-width="1.5" pointer-events="none"/>
                </g>
                <g id="zoomMin">
                        <use xlink:href="#rim" fill="#404040">
                                <set attributeName="fill" to="#808080" begin="zoomminus.mouseover" end="zoomminus.mouseout"/>
                        </use>
                        <path d="M-4,0h8" fill="none" stroke="white" stroke-width="1.5" pointer-events="none"/>
                </g>
                <g id="dirArrow">
                        <path fill="none" stroke="white" stroke-width="1.5" d="M0,-3.0v7 M-2.5,-0.5L0,-3.0L2.5,-0.5"/>
                </g>
               <g id="resetDef">
                       <use xlink:href="#rim2" fill="#404040">
                               <set attributeName="fill" to="#808080" begin="reset.mouseover" end="reset.mouseout"/>
                       </use>
               </g>
        </defs>

<script type="text/javascript">
var viewWidth = 1668;
var viewHeight = 625;
var sectionId = 'dynsection-0';
</script>
<script xlink:href="svgpan.js"/>
<svg id="graph" class="graph">
<g id="viewport">
<title>NeumannCircuitVoltageMoles_KV</title>
<!-- Node1 -->
<g id="node1" class="node">
<title>Node1</title>
<g id="a_node1"><a xlink:title=" ">
<polygon fill="#999999" stroke="#666666" points="1660,-60 1469,-60 1469,-41 1660,-41 1660,-60"/>
<text text-anchor="middle" x="1564.5" y="-48" font-family="Courier,monospace" font-size="10.00">NeumannCircuitVoltageMoles_KV</text>
</a>
</g>
</g>
<!-- Node2 -->
<g id="node2" class="node">
<title>Node2</title>
<g id="a_node2"><a xlink:href="classADIntegratedBCTempl.html" target="_top" xlink:title="Base class for deriving any boundary condition of a integrated type.">
<polygon fill="white" stroke="#666666" points="1433,-60 1332,-60 1332,-41 1433,-41 1433,-60"/>
<text text-anchor="middle" x="1382.5" y="-48" font-family="Courier,monospace" font-size="10.00">ADIntegratedBC</text>
</a>
</g>
</g>
<!-- Node2&#45;&gt;Node1 -->
<g id="edge1" class="edge">
<title>Node2&#45;&gt;Node1</title>
<path fill="none" stroke="#63b8ff" d="M1444.43,-50.5C1452.3,-50.5 1460.5,-50.5 1468.76,-50.5"/>
<polygon fill="#63b8ff" stroke="#63b8ff" points="1444.68,-47 1434.68,-50.5 1444.68,-54 1444.68,-47"/>
</g>
<!-- Node3 -->
<g id="node3" class="node">
<title>Node3</title>
<g id="a_node3"><a xlink:href="classIntegratedBCBase.html" target="_top" xlink:title="Base class for deriving any boundary condition of a integrated type.">
<polygon fill="white" stroke="#666666" points="1263,-98 1150,-98 1150,-79 1263,-79 1263,-98"/>
<text text-anchor="middle" x="1206.5" y="-86" font-family="Courier,monospace" font-size="10.00">IntegratedBCBase</text>
</a>
</g>
</g>
<!-- Node3&#45;&gt;Node2 -->
<g id="edge2" class="edge">
<title>Node3&#45;&gt;Node2</title>
<path fill="none" stroke="#63b8ff" d="M1264.29,-76.1C1287.46,-71.04 1313.9,-65.26 1335.79,-60.48"/>
<polygon fill="#63b8ff" stroke="#63b8ff" points="1263.72,-72.64 1254.7,-78.19 1265.21,-79.48 1263.72,-72.64"/>
</g>
<!-- Node4 -->
<g id="node4" class="node">
<title>Node4</title>
<g id="a_node4"><a xlink:href="classBoundaryCondition.html" target="_top" xlink:title="Base class for creating new types of boundary conditions.">
<polygon fill="white" stroke="#666666" points="1033,-191 914,-191 914,-172 1033,-172 1033,-191"/>
<text text-anchor="middle" x="973.5" y="-179" font-family="Courier,monospace" font-size="10.00">BoundaryCondition</text>
</a>
</g>
</g>
<!-- Node4&#45;&gt;Node3 -->
<g id="edge3" class="edge">
<title>Node4&#45;&gt;Node3</title>
<path fill="none" stroke="#63b8ff" d="M1009.88,-167.26C1057.21,-148.2 1139.92,-114.9 1180.96,-98.38"/>
<polygon fill="#63b8ff" stroke="#63b8ff" points="1008.59,-164 1000.63,-170.98 1011.21,-170.49 1008.59,-164"/>
</g>
<!-- Node5 -->
<g id="node5" class="node">
<title>Node5</title>
<g id="a_node5"><a xlink:href="classResidualObject.html" target="_top" xlink:title="This is the common base class for objects that give residual contributions.">
<polygon fill="white" stroke="#666666" points="776,-339 675,-339 675,-320 776,-320 776,-339"/>
<text text-anchor="middle" x="725.5" y="-327" font-family="Courier,monospace" font-size="10.00">ResidualObject</text>
</a>
</g>
</g>
<!-- Node5&#45;&gt;Node4 -->
<g id="edge4" class="edge">
<title>Node5&#45;&gt;Node4</title>
<path fill="none" stroke="#63b8ff" d="M752.63,-313.78C803.43,-283.22 914.2,-216.57 956.05,-191.4"/>
<polygon fill="#63b8ff" stroke="#63b8ff" points="751.08,-310.62 744.32,-318.78 754.69,-316.62 751.08,-310.62"/>
</g>
<!-- Node6 -->
<g id="node6" class="node">
<title>Node6</title>
<g id="a_node6"><a xlink:href="classMooseObject.html" target="_top" xlink:title="Every object that can be built by the factory should be derived from this class.">
<polygon fill="white" stroke="#666666" points="534,-543 451,-543 451,-524 534,-524 534,-543"/>
<text text-anchor="middle" x="492.5" y="-531" font-family="Courier,monospace" font-size="10.00">MooseObject</text>
</a>
</g>
</g>
<!-- Node6&#45;&gt;Node5 -->
<g id="edge5" class="edge">
<title>Node6&#45;&gt;Node5</title>
<path fill="none" stroke="#63b8ff" d="M545.39,-530.02C559.03,-527.36 573.22,-522.9 585,-515.5 658.15,-469.56 706.48,-370.45 720.37,-339.17"/>
<polygon fill="#63b8ff" stroke="#63b8ff" points="544.92,-526.55 535.61,-531.61 546.05,-533.46 544.92,-526.55"/>
</g>
<!-- Node7 -->
<g id="node7" class="node">
<title>Node7</title>
<g id="a_node7"><a xlink:href="classMooseBase.html" target="_top" xlink:title="Base class for everything in MOOSE with a name and a type.">
<polygon fill="white" stroke="#666666" points="310,-617 239,-617 239,-598 310,-598 310,-617"/>
<text text-anchor="middle" x="274.5" y="-605" font-family="Courier,monospace" font-size="10.00">MooseBase</text>
</a>
</g>
</g>
<!-- Node7&#45;&gt;Node6 -->
<g id="edge6" class="edge">
<title>Node7&#45;&gt;Node6</title>
<path fill="none" stroke="#63b8ff" d="M321.62,-600.05C335.41,-597.31 350.46,-593.8 364,-589.5 403.87,-576.85 448.08,-555.72 472.56,-543.35"/>
<polygon fill="#63b8ff" stroke="#63b8ff" points="321.06,-596.59 311.89,-601.89 322.36,-603.47 321.06,-596.59"/>
</g>
<!-- Node8 -->
<g id="node8" class="node">
<title>Node8</title>
<g id="a_node8"><a xlink:href="classMooseBaseParameterInterface.html" target="_top" xlink:title="Every object that can be built by the factory should be derived from this class.">
<polygon fill="white" stroke="#666666" points="364,-580 185,-580 185,-561 364,-561 364,-580"/>
<text text-anchor="middle" x="274.5" y="-568" font-family="Courier,monospace" font-size="10.00">MooseBaseParameterInterface</text>
</a>
</g>
</g>
<!-- Node8&#45;&gt;Node6 -->
<g id="edge7" class="edge">
<title>Node8&#45;&gt;Node6</title>
<path fill="none" stroke="#63b8ff" d="M344.77,-558.63C379.7,-552.65 420.85,-545.6 450.68,-540.49"/>
<polygon fill="#63b8ff" stroke="#63b8ff" points="344.43,-555.14 335.16,-560.28 345.61,-562.04 344.43,-555.14"/>
</g>
<!-- Node9 -->
<g id="node9" class="node">
<title>Node9</title>
<g id="a_node9"><a xlink:href="classMooseBaseErrorInterface.html" target="_top" xlink:title="Interface that provides APIs to output errors/warnings/info messages.">
<polygon fill="white" stroke="#666666" points="352,-543 197,-543 197,-524 352,-524 352,-543"/>
<text text-anchor="middle" x="274.5" y="-531" font-family="Courier,monospace" font-size="10.00">MooseBaseErrorInterface</text>
</a>
</g>
</g>
<!-- Node9&#45;&gt;Node6 -->
<g id="edge8" class="edge">
<title>Node9&#45;&gt;Node6</title>
<path fill="none" stroke="#63b8ff" d="M363.7,-533.5C393.87,-533.5 426.17,-533.5 450.75,-533.5"/>
<polygon fill="#63b8ff" stroke="#63b8ff" points="363.78,-530 353.78,-533.5 363.78,-537 363.78,-530"/>
</g>
<!-- Node10 -->
<g id="node10" class="node">
<title>Node10</title>
<g id="a_node10"><a xlink:href="classConsoleStreamInterface.html" target="_top" xlink:title="An inteface for the _console for outputting to the Console object.">
<polygon fill="white" stroke="#666666" points="149,-543 0,-543 0,-524 149,-524 149,-543"/>
<text text-anchor="middle" x="74.5" y="-531" font-family="Courier,monospace" font-size="10.00">ConsoleStreamInterface</text>
</a>
</g>
</g>
<!-- Node10&#45;&gt;Node9 -->
<g id="edge9" class="edge">
<title>Node10&#45;&gt;Node9</title>
<path fill="none" stroke="#63b8ff" d="M160.62,-533.5C172.62,-533.5 184.9,-533.5 196.73,-533.5"/>
<polygon fill="#63b8ff" stroke="#63b8ff" points="160.74,-530 150.74,-533.5 160.74,-537 160.74,-530"/>
</g>
<!-- Node11 -->
<g id="node11" class="node">
<title>Node11</title>
<g id="a_node11"><a xlink:title=" ">
<polygon fill="white" stroke="#666666" points="352,-506 197,-506 197,-487 352,-487 352,-506"/>
<text text-anchor="middle" x="274.5" y="-494" font-family="Courier,monospace" font-size="10.00">libMesh::ParallelObject</text>
</a>
</g>
</g>
<!-- Node11&#45;&gt;Node6 -->
<g id="edge10" class="edge">
<title>Node11&#45;&gt;Node6</title>
<path fill="none" stroke="#63b8ff" d="M344.77,-508.37C379.7,-514.35 420.85,-521.4 450.68,-526.51"/>
<polygon fill="#63b8ff" stroke="#63b8ff" points="345.61,-504.96 335.16,-506.72 344.43,-511.86 345.61,-504.96"/>
</g>
<!-- Node12 -->
<g id="node12" class="node">
<title>Node12</title>
<g id="a_node12"><a xlink:href="classDataFileInterface.html" target="_top" xlink:title=" ">
<polygon fill="white" stroke="#666666" points="337,-468.5 212,-468.5 212,-438.5 337,-438.5 337,-468.5"/>
<text text-anchor="start" x="220" y="-456.5" font-family="Courier,monospace" font-size="10.00">DataFileInterface&lt;</text>
<text text-anchor="middle" x="274.5" y="-445.5" font-family="Courier,monospace" font-size="10.00"> MooseObject &gt;</text>
</a>
</g>
</g>
<!-- Node12&#45;&gt;Node6 -->
<g id="edge11" class="edge">
<title>Node12&#45;&gt;Node6</title>
<path fill="none" stroke="#63b8ff" d="M347.62,-470.35C353.32,-472.73 358.86,-475.44 364,-478.5 383.71,-490.24 379.83,-504.57 400,-515.5 415.37,-523.83 434.06,-528.34 450.53,-530.76"/>
<polygon fill="#63b8ff" stroke="#63b8ff" points="349.23,-467.22 338.64,-466.94 346.74,-473.76 349.23,-467.22"/>
</g>
<!-- Node13 -->
<g id="node13" class="node">
<title>Node13</title>
<g id="a_node13"><a xlink:href="classSetupInterface.html" target="_top" xlink:title=" ">
<polygon fill="white" stroke="#666666" points="543,-506 442,-506 442,-487 543,-487 543,-506"/>
<text text-anchor="middle" x="492.5" y="-494" font-family="Courier,monospace" font-size="10.00">SetupInterface</text>
</a>
</g>
</g>
<!-- Node13&#45;&gt;Node5 -->
<g id="edge12" class="edge">
<title>Node13&#45;&gt;Node5</title>
<path fill="none" stroke="#63b8ff" d="M554.42,-490.04C565.03,-487.39 575.65,-483.69 585,-478.5 649.46,-442.76 701.26,-366.73 718.42,-339.48"/>
<polygon fill="#63b8ff" stroke="#63b8ff" points="553.93,-486.57 544.9,-492.11 555.42,-493.41 553.93,-486.57"/>
</g>
<!-- Node14 -->
<g id="node14" class="node">
<title>Node14</title>
<g id="a_node14"><a xlink:href="classFunctionInterface.html" target="_top" xlink:title="Interface for objects that need to use functions.">
<polygon fill="white" stroke="#666666" points="552,-469 433,-469 433,-450 552,-450 552,-469"/>
<text text-anchor="middle" x="492.5" y="-457" font-family="Courier,monospace" font-size="10.00">FunctionInterface</text>
</a>
</g>
</g>
<!-- Node14&#45;&gt;Node5 -->
<g id="edge13" class="edge">
<title>Node14&#45;&gt;Node5</title>
<path fill="none" stroke="#63b8ff" d="M563.39,-449.43C570.85,-447.27 578.19,-444.67 585,-441.5 641.32,-415.3 694.79,-361.68 715.48,-339.47"/>
<polygon fill="#63b8ff" stroke="#63b8ff" points="562.7,-445.99 553.89,-451.88 564.45,-452.77 562.7,-445.99"/>
</g>
<!-- Node15 -->
<g id="node15" class="node">
<title>Node15</title>
<g id="a_node15"><a xlink:href="classUserObjectInterface.html" target="_top" xlink:title="Interface for objects that need to use UserObjects.">
<polygon fill="white" stroke="#666666" points="558,-432 427,-432 427,-413 558,-413 558,-432"/>
<text text-anchor="middle" x="492.5" y="-420" font-family="Courier,monospace" font-size="10.00">UserObjectInterface</text>
</a>
</g>
</g>
<!-- Node15&#45;&gt;Node5 -->
<g id="edge14" class="edge">
<title>Node15&#45;&gt;Node5</title>
<path fill="none" stroke="#63b8ff" d="M568.24,-409.73C573.97,-408.17 579.61,-406.43 585,-404.5 633.15,-387.26 684.97,-355.48 709.71,-339.39"/>
<polygon fill="#63b8ff" stroke="#63b8ff" points="567.48,-406.32 558.64,-412.16 569.19,-413.1 567.48,-406.32"/>
</g>
<!-- Node16 -->
<g id="node16" class="node">
<title>Node16</title>
<g id="a_node16"><a xlink:href="classTransientInterface.html" target="_top" xlink:title="Interface for objects that needs transient capabilities.">
<polygon fill="white" stroke="#666666" points="555,-395 430,-395 430,-376 555,-376 555,-395"/>
<text text-anchor="middle" x="492.5" y="-383" font-family="Courier,monospace" font-size="10.00">TransientInterface</text>
</a>
</g>
</g>
<!-- Node16&#45;&gt;Node5 -->
<g id="edge15" class="edge">
<title>Node16&#45;&gt;Node5</title>
<path fill="none" stroke="#63b8ff" d="M558.53,-373.3C567.45,-371.46 576.47,-369.5 585,-367.5 621.29,-359 662.42,-347.57 690.56,-339.48"/>
<polygon fill="#63b8ff" stroke="#63b8ff" points="557.93,-369.85 548.83,-375.27 559.32,-376.71 557.93,-369.85"/>
</g>
<!-- Node17 -->
<g id="node17" class="node">
<title>Node17</title>
<g id="a_node17"><a xlink:href="classPostprocessorInterface.html" target="_top" xlink:title="Interface class for classes which interact with Postprocessors.">
<polygon fill="white" stroke="#666666" points="567,-358 418,-358 418,-339 567,-339 567,-358"/>
<text text-anchor="middle" x="492.5" y="-346" font-family="Courier,monospace" font-size="10.00">PostprocessorInterface</text>
</a>
</g>
</g>
<!-- Node17&#45;&gt;Node5 -->
<g id="edge16" class="edge">
<title>Node17&#45;&gt;Node5</title>
<path fill="none" stroke="#63b8ff" d="M578.52,-341.51C610.9,-338.84 646.73,-335.9 674.79,-333.59"/>
<polygon fill="#63b8ff" stroke="#63b8ff" points="578.41,-338 568.73,-342.31 578.99,-344.98 578.41,-338"/>
</g>
<!-- Node18 -->
<g id="node18" class="node">
<title>Node18</title>
<g id="a_node18"><a xlink:href="classVectorPostprocessorInterface.html" target="_top" xlink:title=" ">
<polygon fill="white" stroke="#666666" points="585,-321 400,-321 400,-302 585,-302 585,-321"/>
<text text-anchor="middle" x="492.5" y="-309" font-family="Courier,monospace" font-size="10.00">VectorPostprocessorInterface</text>
</a>
</g>
</g>
<!-- Node18&#45;&gt;Node5 -->
<g id="edge17" class="edge">
<title>Node18&#45;&gt;Node5</title>
<path fill="none" stroke="#63b8ff" d="M596.61,-319.53C623.74,-321.65 651.79,-323.83 674.69,-325.62"/>
<polygon fill="#63b8ff" stroke="#63b8ff" points="597.21,-316.07 586.97,-318.78 596.67,-323.05 597.21,-316.07"/>
</g>
<!-- Node19 -->
<g id="node19" class="node">
<title>Node19</title>
<g id="a_node19"><a xlink:href="classRandomInterface.html" target="_top" xlink:title="Interface for objects that need parallel consistent random numbers without patterns over the course o...">
<polygon fill="white" stroke="#666666" points="546,-284 439,-284 439,-265 546,-265 546,-284"/>
<text text-anchor="middle" x="492.5" y="-272" font-family="Courier,monospace" font-size="10.00">RandomInterface</text>
</a>
</g>
</g>
<!-- Node19&#45;&gt;Node5 -->
<g id="edge18" class="edge">
<title>Node19&#45;&gt;Node5</title>
<path fill="none" stroke="#63b8ff" d="M554.41,-286.72C564.64,-288.9 575.14,-291.2 585,-293.5 620.08,-301.66 659.83,-312.03 687.9,-319.55"/>
<polygon fill="#63b8ff" stroke="#63b8ff" points="555.44,-283.36 544.94,-284.73 554.01,-290.22 555.44,-283.36"/>
</g>
<!-- Node20 -->
<g id="node20" class="node">
<title>Node20</title>
<g id="a_node20"><a xlink:href="classRestartable.html" target="_top" xlink:title="A class for creating restricted objects.">
<polygon fill="white" stroke="#666666" points="534,-247 451,-247 451,-228 534,-228 534,-247"/>
<text text-anchor="middle" x="492.5" y="-235" font-family="Courier,monospace" font-size="10.00">Restartable</text>
</a>
</g>
</g>
<!-- Node20&#45;&gt;Node5 -->
<g id="edge19" class="edge">
<title>Node20&#45;&gt;Node5</title>
<path fill="none" stroke="#63b8ff" d="M545.5,-245.69C558.59,-248.46 572.48,-252.02 585,-256.5 632.62,-273.53 684.26,-304.07 709.25,-319.7"/>
<polygon fill="#63b8ff" stroke="#63b8ff" points="546.22,-242.27 535.73,-243.76 544.86,-249.14 546.22,-242.27"/>
</g>
<!-- Node21 -->
<g id="node21" class="node">
<title>Node21</title>
<g id="a_node21"><a xlink:href="classMeshChangedInterface.html" target="_top" xlink:title="Interface for notifications that the mesh has changed.">
<polygon fill="white" stroke="#666666" points="561,-210 424,-210 424,-191 561,-191 561,-210"/>
<text text-anchor="middle" x="492.5" y="-198" font-family="Courier,monospace" font-size="10.00">MeshChangedInterface</text>
</a>
</g>
</g>
<!-- Node21&#45;&gt;Node5 -->
<g id="edge20" class="edge">
<title>Node21&#45;&gt;Node5</title>
<path fill="none" stroke="#63b8ff" d="M570.63,-213.77C575.58,-215.46 580.41,-217.36 585,-219.5 640.91,-245.56 694.6,-298.04 715.42,-319.75"/>
<polygon fill="#63b8ff" stroke="#63b8ff" points="571.71,-210.44 561.12,-210.85 569.65,-217.13 571.71,-210.44"/>
</g>
<!-- Node22 -->
<g id="node22" class="node">
<title>Node22</title>
<g id="a_node22"><a xlink:href="classTaggingInterface.html" target="_top" xlink:title=" ">
<polygon fill="white" stroke="#666666" points="549,-173 436,-173 436,-154 549,-154 549,-173"/>
<text text-anchor="middle" x="492.5" y="-161" font-family="Courier,monospace" font-size="10.00">TaggingInterface</text>
</a>
</g>
</g>
<!-- Node22&#45;&gt;Node5 -->
<g id="edge21" class="edge">
<title>Node22&#45;&gt;Node5</title>
<path fill="none" stroke="#63b8ff" d="M559.95,-170.78C568.84,-173.58 577.47,-177.37 585,-182.5 609.15,-198.95 601.92,-215.38 621,-237.5 649.9,-270.99 690.72,-303.87 711.4,-319.71"/>
<polygon fill="#63b8ff" stroke="#63b8ff" points="561.07,-167.46 550.51,-168.23 559.25,-174.22 561.07,-167.46"/>
</g>
<!-- Node23 -->
<g id="node23" class="node">
<title>Node23</title>
<g id="a_node23"><a xlink:href="classBoundaryRestrictableRequired.html" target="_top" xlink:title="A class for requiring an object to be boundary restricted.">
<polygon fill="white" stroke="#666666" points="818,-228 633,-228 633,-209 818,-209 818,-228"/>
<text text-anchor="middle" x="725.5" y="-216" font-family="Courier,monospace" font-size="10.00">BoundaryRestrictableRequired</text>
</a>
</g>
</g>
<!-- Node23&#45;&gt;Node4 -->
<g id="edge22" class="edge">
<title>Node23&#45;&gt;Node4</title>
<path fill="none" stroke="#63b8ff" d="M804.04,-206.84C839.51,-201.5 880.84,-195.29 913.69,-190.35"/>
<polygon fill="#63b8ff" stroke="#63b8ff" points="803.61,-203.36 794.24,-208.31 804.65,-210.28 803.61,-203.36"/>
</g>
<!-- Node24 -->
<g id="node24" class="node">
<title>Node24</title>
<g id="a_node24"><a xlink:href="classBoundaryRestrictable.html" target="_top" xlink:title="/class BoundaryRestrictable /brief Provides functionality for limiting the object to certain boundary...">
<polygon fill="white" stroke="#666666" points="561,-136 424,-136 424,-117 561,-117 561,-136"/>
<text text-anchor="middle" x="492.5" y="-124" font-family="Courier,monospace" font-size="10.00">BoundaryRestrictable</text>
</a>
</g>
</g>
<!-- Node24&#45;&gt;Node23 -->
<g id="edge23" class="edge">
<title>Node24&#45;&gt;Node23</title>
<path fill="none" stroke="#63b8ff" d="M571.83,-138.24C576.46,-140.3 580.89,-142.7 585,-145.5 609.15,-161.95 596.59,-184.45 621,-200.5 625.8,-203.66 630.99,-206.31 636.39,-208.53"/>
<polygon fill="#63b8ff" stroke="#63b8ff" points="573.46,-135.12 562.87,-134.8 570.95,-141.65 573.46,-135.12"/>
</g>
<!-- Node25 -->
<g id="node25" class="node">
<title>Node25</title>
<g id="a_node25"><a xlink:href="classDistributionInterface.html" target="_top" xlink:title="Interface for objects that need to use distributions.">
<polygon fill="white" stroke="#666666" points="797,-191 654,-191 654,-172 797,-172 797,-191"/>
<text text-anchor="middle" x="725.5" y="-179" font-family="Courier,monospace" font-size="10.00">DistributionInterface</text>
</a>
</g>
</g>
<!-- Node25&#45;&gt;Node4 -->
<g id="edge24" class="edge">
<title>Node25&#45;&gt;Node4</title>
<path fill="none" stroke="#63b8ff" d="M808.79,-181.5C843.19,-181.5 882.38,-181.5 913.78,-181.5"/>
<polygon fill="#63b8ff" stroke="#63b8ff" points="808.84,-178 798.84,-181.5 808.84,-185 808.84,-178"/>
</g>
<!-- Node26 -->
<g id="node26" class="node">
<title>Node26</title>
<g id="a_node26"><a xlink:href="classGeometricSearchInterface.html" target="_top" xlink:title=" ">
<polygon fill="white" stroke="#666666" points="806,-154 645,-154 645,-135 806,-135 806,-154"/>
<text text-anchor="middle" x="725.5" y="-142" font-family="Courier,monospace" font-size="10.00">GeometricSearchInterface</text>
</a>
</g>
</g>
<!-- Node26&#45;&gt;Node4 -->
<g id="edge25" class="edge">
<title>Node26&#45;&gt;Node4</title>
<path fill="none" stroke="#63b8ff" d="M804.04,-156.16C839.51,-161.5 880.84,-167.71 913.69,-172.65"/>
<polygon fill="#63b8ff" stroke="#63b8ff" points="804.65,-152.72 794.24,-154.69 803.61,-159.64 804.65,-152.72"/>
</g>
<!-- Node27 -->
<g id="node27" class="node">
<title>Node27</title>
<g id="a_node27"><a xlink:href="classCoupleableMooseVariableDependencyIntermediateInterface.html" target="_top" xlink:title="Intermediate base class that ties together all the interfaces for getting MooseVariableFEBases with t...">
<polygon fill="white" stroke="#666666" points="1081,-104.5 866,-104.5 866,-74.5 1081,-74.5 1081,-104.5"/>
<text text-anchor="start" x="874" y="-92.5" font-family="Courier,monospace" font-size="10.00">CoupleableMooseVariableDependency</text>
<text text-anchor="middle" x="973.5" y="-81.5" font-family="Courier,monospace" font-size="10.00">IntermediateInterface</text>
</a>
</g>
</g>
<!-- Node27&#45;&gt;Node3 -->
<g id="edge26" class="edge">
<title>Node27&#45;&gt;Node3</title>
<path fill="none" stroke="#63b8ff" d="M1092.59,-88.99C1112.49,-88.9 1132.3,-88.82 1149.63,-88.74"/>
<polygon fill="#63b8ff" stroke="#63b8ff" points="1092.71,-85.49 1082.72,-89.03 1092.74,-92.49 1092.71,-85.49"/>
</g>
<!-- Node28 -->
<g id="node28" class="node">
<title>Node28</title>
<g id="a_node28"><a xlink:href="classCoupleable.html" target="_top" xlink:title="Interface for objects that needs coupling capabilities.">
<polygon fill="white" stroke="#666666" points="764,-117 687,-117 687,-98 764,-98 764,-117"/>
<text text-anchor="middle" x="725.5" y="-105" font-family="Courier,monospace" font-size="10.00">Coupleable</text>
</a>
</g>
</g>
<!-- Node28&#45;&gt;Node27 -->
<g id="edge27" class="edge">
<title>Node28&#45;&gt;Node27</title>
<path fill="none" stroke="#63b8ff" d="M775.76,-103.9C801.62,-102 834.37,-99.61 865.69,-97.32"/>
<polygon fill="#63b8ff" stroke="#63b8ff" points="775.63,-100.4 765.91,-104.62 776.14,-107.38 775.63,-100.4"/>
</g>
<!-- Node29 -->
<g id="node29" class="node">
<title>Node29</title>
<g id="a_node29"><a xlink:href="classScalarCoupleable.html" target="_top" xlink:title="Interface for objects that needs scalar coupling capabilities.">
<polygon fill="white" stroke="#666666" points="782,-80 669,-80 669,-61 782,-61 782,-80"/>
<text text-anchor="middle" x="725.5" y="-68" font-family="Courier,monospace" font-size="10.00">ScalarCoupleable</text>
</a>
</g>
</g>
<!-- Node29&#45;&gt;Node27 -->
<g id="edge28" class="edge">
<title>Node29&#45;&gt;Node27</title>
<path fill="none" stroke="#63b8ff" d="M793.63,-75.68C815.83,-77.4 841.11,-79.35 865.53,-81.24"/>
<polygon fill="#63b8ff" stroke="#63b8ff" points="794.07,-72.21 783.83,-74.93 793.53,-79.19 794.07,-72.21"/>
</g>
<!-- Node30 -->
<g id="node30" class="node">
<title>Node30</title>
<g id="a_node30"><a xlink:href="classMooseVariableDependencyInterface.html" target="_top" xlink:title=" ">
<polygon fill="white" stroke="#666666" points="830,-43 621,-43 621,-24 830,-24 830,-43"/>
<text text-anchor="middle" x="725.5" y="-31" font-family="Courier,monospace" font-size="10.00">MooseVariableDependencyInterface</text>
</a>
</g>
</g>
<!-- Node30&#45;&gt;Node27 -->
<g id="edge29" class="edge">
<title>Node30&#45;&gt;Node27</title>
<path fill="none" stroke="#63b8ff" d="M805.06,-45.67C813.52,-47.43 821.97,-49.37 830,-51.5 846.44,-55.86 849.69,-59.66 866,-64.5 877.38,-67.88 889.55,-71.1 901.45,-74.03"/>
<polygon fill="#63b8ff" stroke="#63b8ff" points="805.93,-42.28 795.44,-43.77 804.57,-49.15 805.93,-42.28"/>
</g>
<!-- Node31 -->
<g id="node31" class="node">
<title>Node31</title>
<g id="a_node31"><a xlink:href="classMaterialPropertyInterface.html" target="_top" xlink:title="An interface for accessing Materials.">
<polygon fill="white" stroke="#666666" points="1057,-56 890,-56 890,-37 1057,-37 1057,-56"/>
<text text-anchor="middle" x="973.5" y="-44" font-family="Courier,monospace" font-size="10.00">MaterialPropertyInterface</text>
</a>
</g>
</g>
<!-- Node31&#45;&gt;Node3 -->
<g id="edge30" class="edge">
<title>Node31&#45;&gt;Node3</title>
<path fill="none" stroke="#63b8ff" d="M1042.08,-58.49C1055,-60.8 1068.42,-63.22 1081,-65.5 1104.25,-69.72 1129.93,-74.45 1151.89,-78.52"/>
<polygon fill="#63b8ff" stroke="#63b8ff" points="1042.84,-55.07 1032.38,-56.76 1041.61,-61.96 1042.84,-55.07"/>
</g>
<!-- Node32 -->
<g id="node32" class="node">
<title>Node32</title>
<g id="a_node32"><a xlink:href="classMooseVariableInterface.html" target="_top" xlink:title="Interface for objects that need to get values of MooseVariables.">
<polygon fill="white" stroke="#666666" points="1296,-60 1117,-60 1117,-41 1296,-41 1296,-60"/>
<text text-anchor="middle" x="1206.5" y="-48" font-family="Courier,monospace" font-size="10.00">MooseVariableInterface&lt; T &gt;</text>
</a>
</g>
</g>
<!-- Node32&#45;&gt;Node2 -->
<g id="edge31" class="edge">
<title>Node32&#45;&gt;Node2</title>
<path fill="none" stroke="#63b8ff" d="M1307.71,-50.5C1316.03,-50.5 1324.19,-50.5 1331.87,-50.5"/>
<polygon fill="#63b8ff" stroke="#63b8ff" points="1307.8,-47 1297.8,-50.5 1307.8,-54 1307.8,-47"/>
</g>
<!-- Node33 -->
<g id="node33" class="node">
<title>Node33</title>
<g id="a_node33"><a xlink:href="classADFunctorInterface.html" target="_top" xlink:title="An interface for accessing Moose::Functors for systems that care about automatic differentiation,...">
<polygon fill="white" stroke="#666666" points="1269,-22 1144,-22 1144,-3 1269,-3 1269,-22"/>
<text text-anchor="middle" x="1206.5" y="-10" font-family="Courier,monospace" font-size="10.00">ADFunctorInterface</text>
</a>
</g>
</g>
<!-- Node33&#45;&gt;Node2 -->
<g id="edge32" class="edge">
<title>Node33&#45;&gt;Node2</title>
<path fill="none" stroke="#63b8ff" d="M1265.29,-24.85C1275.53,-27.05 1286.08,-29.33 1296,-31.5 1309.37,-34.42 1323.91,-37.64 1337.14,-40.58"/>
<polygon fill="#63b8ff" stroke="#63b8ff" points="1266.35,-21.49 1255.84,-22.81 1264.88,-28.34 1266.35,-21.49"/>
</g>
<!-- Node34 -->
<g id="node34" class="node">
<title>Node34</title>
<g id="a_node34"><a xlink:href="classFunctorInterface.html" target="_top" xlink:title="An interface for accessing Moose::Functors.">
<polygon fill="white" stroke="#666666" points="1030,-19 917,-19 917,0 1030,0 1030,-19"/>
<text text-anchor="middle" x="973.5" y="-7" font-family="Courier,monospace" font-size="10.00">FunctorInterface</text>
</a>
</g>
</g>
<!-- Node34&#45;&gt;Node33 -->
<g id="edge33" class="edge">
<title>Node34&#45;&gt;Node33</title>
<path fill="none" stroke="#63b8ff" d="M1041.53,-10.37C1073.74,-10.79 1112.09,-11.29 1143.6,-11.7"/>
<polygon fill="#63b8ff" stroke="#63b8ff" points="1041.98,-6.88 1031.93,-10.25 1041.89,-13.88 1041.98,-6.88"/>
</g>
</g>
</svg>
        <g id="navigator" transform="translate(0 0)" fill="#404254">
                <rect fill="#f2f5e9" fill-opacity="0.5" stroke="#606060" stroke-width=".5" x="0" y="0" width="60" height="60"/>
                <use id="zoomplus" xlink:href="#zoomPlus" x="17" y="9" onmousedown="handleZoom(evt,'in')"/>
                <use id="zoomminus" xlink:href="#zoomMin" x="42" y="9" onmousedown="handleZoom(evt,'out')"/>
                <use id="reset" xlink:href="#resetDef" x="30" y="36" onmousedown="handleReset()"/>
                <g id="arrowUp" xlink:href="#dirArrow" transform="translate(30 24)" onmousedown="handlePan(0,-1)">
                  <use xlink:href="#rim" fill="#404040">
                        <set attributeName="fill" to="#808080" begin="arrowUp.mouseover" end="arrowUp.mouseout"/>
                  </use>
                  <path fill="none" stroke="white" stroke-width="1.5" d="M0,-3.0v7 M-2.5,-0.5L0,-3.0L2.5,-0.5"/>
                </g>
                <g id="arrowRight" xlink:href="#dirArrow" transform="rotate(90) translate(36 -43)" onmousedown="handlePan(1,0)">
                  <use xlink:href="#rim" fill="#404040">
                        <set attributeName="fill" to="#808080" begin="arrowRight.mouseover" end="arrowRight.mouseout"/>
                  </use>
                  <path fill="none" stroke="white" stroke-width="1.5" d="M0,-3.0v7 M-2.5,-0.5L0,-3.0L2.5,-0.5"/>
                </g>
                <g id="arrowDown" xlink:href="#dirArrow" transform="rotate(180) translate(-30 -48)" onmousedown="handlePan(0,1)">
                  <use xlink:href="#rim" fill="#404040">
                        <set attributeName="fill" to="#808080" begin="arrowDown.mouseover" end="arrowDown.mouseout"/>
                  </use>
                  <path fill="none" stroke="white" stroke-width="1.5" d="M0,-3.0v7 M-2.5,-0.5L0,-3.0L2.5,-0.5"/>
                </g>
                <g id="arrowLeft" xlink:href="#dirArrow" transform="rotate(270) translate(-36 17)" onmousedown="handlePan(-1,0)">
                  <use xlink:href="#rim" fill="#404040">
                        <set attributeName="fill" to="#808080" begin="arrowLeft.mouseover" end="arrowLeft.mouseout"/>
                  </use>
                  <path fill="none" stroke="white" stroke-width="1.5" d="M0,-3.0v7 M-2.5,-0.5L0,-3.0L2.5,-0.5"/>
                </g>
        </g>
        <svg viewBox="0 0 15 15" width="100%" height="30px" preserveAspectRatio="xMaxYMin meet">
         <g id="arrow_out" transform="scale(0.3 0.3)">
          <a xlink:href="classNeumannCircuitVoltageMoles__KV__inherit__graph_org.svg" target="_base">
           <rect id="button" ry="5" rx="5" y="6" x="6" height="38" width="38"
                fill="#f2f5e9" fill-opacity="0.5" stroke="#606060" stroke-width="1.0"/>
           <path id="arrow"
             d="M 11.500037,31.436501 C 11.940474,20.09759 22.043105,11.32322 32.158766,21.979434 L 37.068811,17.246167 C 37.068811,17.246167 37.088388,32 37.088388,32 L 22.160133,31.978069 C 22.160133,31.978069 26.997745,27.140456 26.997745,27.140456 C 18.528582,18.264221 13.291696,25.230495 11.500037,31.436501 z"
             style="fill:#404040;"/>
          </a>
         </g>
        </svg>
</svg>
