<?xml version="1.0" encoding="UTF-8" standalone="no"?>
<!DOCTYPE svg PUBLIC "-//W3C//DTD SVG 1.1//EN"
 "http://www.w3.org/Graphics/SVG/1.1/DTD/svg11.dtd">
<!-- Generated by graphviz version 7.0.5 (20221223.1930)
 -->
<!-- Title: VectorIntegratedBC Pages: 1 -->
<!--zoomable 621 -->
<svg id="main" version="1.1" xmlns="http://www.w3.org/2000/svg" xmlns:xlink="http://www.w3.org/1999/xlink" xml:space="preserve" onload="init(evt)">
<style type="text/css"><![CDATA[
.edge:hover path { stroke: red; }
.edge:hover polygon { stroke: red; fill: red; }
]]></style>
<script type="text/javascript"><![CDATA[
var edges = document.getElementsByTagName('g');
if (edges && edges.length) {
  for (var i=0;i<edges.length;i++) {
    if (edges[i].id.substr(0,4)=='edge') {
      edges[i].setAttribute('class','edge');
    }
  }
}
]]></script>
        <defs>
                <circle id="rim" cx="0" cy="0" r="7"/>
                <circle id="rim2" cx="0" cy="0" r="3.5"/>
                <g id="zoomPlus">
                        <use xlink:href="#rim" fill="#404040">
                                <set attributeName="fill" to="#808080" begin="zoomplus.mouseover" end="zoomplus.mouseout"/>
                        </use>
                        <path d="M-4,0h8M0,-4v8" fill="none" stroke="white" stroke-width="1.5" pointer-events="none"/>
                </g>
                <g id="zoomMin">
                        <use xlink:href="#rim" fill="#404040">
                                <set attributeName="fill" to="#808080" begin="zoomminus.mouseover" end="zoomminus.mouseout"/>
                        </use>
                        <path d="M-4,0h8" fill="none" stroke="white" stroke-width="1.5" pointer-events="none"/>
                </g>
                <g id="dirArrow">
                        <path fill="none" stroke="white" stroke-width="1.5" d="M0,-3.0v7 M-2.5,-0.5L0,-3.0L2.5,-0.5"/>
                </g>
               <g id="resetDef">
                       <use xlink:href="#rim2" fill="#404040">
                               <set attributeName="fill" to="#808080" begin="reset.mouseover" end="reset.mouseout"/>
                       </use>
               </g>
        </defs>

<script type="text/javascript">
var viewWidth = 1656;
var viewHeight = 621;
var sectionId = 'dynsection-0';
</script>
<script xlink:href="svgpan.js"/>
<svg id="graph" class="graph">
<g id="viewport">
<title>VectorIntegratedBC</title>
<!-- Node1 -->
<g id="node1" class="node">
<title>Node1</title>
<g id="a_node1"><a xlink:title="Base class for deriving any boundary condition of a integrated type.">
<polygon fill="#999999" stroke="#666666" points="1427,-56 1302,-56 1302,-37 1427,-37 1427,-56"/>
<text text-anchor="middle" x="1364.5" y="-44" font-family="Courier,monospace" font-size="10.00">VectorIntegratedBC</text>
</a>
</g>
</g>
<!-- Node32 -->
<g id="node32" class="node">
<title>Node32</title>
<g id="a_node32"><a xlink:href="classVectorCurlPenaltyDirichletBC.html" target="_top" xlink:title="Enforces a Dirichlet boundary condition for the curl of vector nonlinear variables in a weak sense by...">
<polygon fill="white" stroke="#666666" points="1648,-93 1463,-93 1463,-74 1648,-74 1648,-93"/>
<text text-anchor="middle" x="1555.5" y="-81" font-family="Courier,monospace" font-size="10.00">VectorCurlPenaltyDirichletBC</text>
</a>
</g>
</g>
<!-- Node1&#45;&gt;Node32 -->
<g id="edge31" class="edge">
<title>Node1&#45;&gt;Node32</title>
<path fill="none" stroke="#63b8ff" d="M1427.25,-58.59C1452,-63.43 1480.18,-68.95 1503.71,-73.56"/>
<polygon fill="#63b8ff" stroke="#63b8ff" points="1428.12,-55.19 1417.63,-56.71 1426.78,-62.06 1428.12,-55.19"/>
</g>
<!-- Node33 -->
<g id="node33" class="node">
<title>Node33</title>
<g id="a_node33"><a xlink:href="classVectorDivPenaltyDirichletBC.html" target="_top" xlink:title="Enforces a Dirichlet boundary condition for the divergence of vector nonlinear variables in a weak se...">
<polygon fill="white" stroke="#666666" points="1645,-56 1466,-56 1466,-37 1645,-37 1645,-56"/>
<text text-anchor="middle" x="1555.5" y="-44" font-family="Courier,monospace" font-size="10.00">VectorDivPenaltyDirichletBC</text>
</a>
</g>
</g>
<!-- Node1&#45;&gt;Node33 -->
<g id="edge32" class="edge">
<title>Node1&#45;&gt;Node33</title>
<path fill="none" stroke="#63b8ff" d="M1438.81,-46.5C1447.63,-46.5 1456.72,-46.5 1465.73,-46.5"/>
<polygon fill="#63b8ff" stroke="#63b8ff" points="1438.9,-43 1428.9,-46.5 1438.9,-50 1438.9,-43"/>
</g>
<!-- Node34 -->
<g id="node34" class="node">
<title>Node34</title>
<g id="a_node34"><a xlink:href="classVectorPenaltyDirichletBC.html" target="_top" xlink:title="Enforces a Dirichlet boundary condition for vector nonlinear variables in a weak sense by applying a ...">
<polygon fill="white" stroke="#666666" points="1636,-19 1475,-19 1475,0 1636,0 1636,-19"/>
<text text-anchor="middle" x="1555.5" y="-7" font-family="Courier,monospace" font-size="10.00">VectorPenaltyDirichletBC</text>
</a>
</g>
</g>
<!-- Node1&#45;&gt;Node34 -->
<g id="edge33" class="edge">
<title>Node1&#45;&gt;Node34</title>
<path fill="none" stroke="#63b8ff" d="M1427.25,-34.41C1452,-29.57 1480.18,-24.05 1503.71,-19.44"/>
<polygon fill="#63b8ff" stroke="#63b8ff" points="1426.78,-30.94 1417.63,-36.29 1428.12,-37.81 1426.78,-30.94"/>
</g>
<!-- Node2 -->
<g id="node2" class="node">
<title>Node2</title>
<g id="a_node2"><a xlink:href="classIntegratedBCBase.html" target="_top" xlink:title="Base class for deriving any boundary condition of a integrated type.">
<polygon fill="white" stroke="#666666" points="1248,-78 1135,-78 1135,-59 1248,-59 1248,-78"/>
<text text-anchor="middle" x="1191.5" y="-66" font-family="Courier,monospace" font-size="10.00">IntegratedBCBase</text>
</a>
</g>
</g>
<!-- Node2&#45;&gt;Node1 -->
<g id="edge1" class="edge">
<title>Node2&#45;&gt;Node1</title>
<path fill="none" stroke="#63b8ff" d="M1259.9,-59.83C1273.71,-58.05 1288.17,-56.19 1301.77,-54.44"/>
<polygon fill="#63b8ff" stroke="#63b8ff" points="1259.46,-56.36 1249.99,-61.1 1260.36,-63.3 1259.46,-56.36"/>
</g>
<!-- Node3 -->
<g id="node3" class="node">
<title>Node3</title>
<g id="a_node3"><a xlink:href="classBoundaryCondition.html" target="_top" xlink:title="Base class for creating new types of boundary conditions.">
<polygon fill="white" stroke="#666666" points="1033,-170 914,-170 914,-151 1033,-151 1033,-170"/>
<text text-anchor="middle" x="973.5" y="-158" font-family="Courier,monospace" font-size="10.00">BoundaryCondition</text>
</a>
</g>
</g>
<!-- Node3&#45;&gt;Node2 -->
<g id="edge2" class="edge">
<title>Node3&#45;&gt;Node2</title>
<path fill="none" stroke="#63b8ff" d="M1008.12,-146.18C1052.33,-127.35 1128.89,-94.74 1167.22,-78.41"/>
<polygon fill="#63b8ff" stroke="#63b8ff" points="1006.84,-142.92 999.01,-150.06 1009.58,-149.36 1006.84,-142.92"/>
</g>
<!-- Node4 -->
<g id="node4" class="node">
<title>Node4</title>
<g id="a_node4"><a xlink:href="classResidualObject.html" target="_top" xlink:title="This is the common base class for objects that give residual contributions.">
<polygon fill="white" stroke="#666666" points="776,-336 675,-336 675,-317 776,-317 776,-336"/>
<text text-anchor="middle" x="725.5" y="-324" font-family="Courier,monospace" font-size="10.00">ResidualObject</text>
</a>
</g>
</g>
<!-- Node4&#45;&gt;Node3 -->
<g id="edge3" class="edge">
<title>Node4&#45;&gt;Node3</title>
<path fill="none" stroke="#63b8ff" d="M750.63,-310.22C801.23,-276.08 917.09,-197.89 957.93,-170.34"/>
<polygon fill="#63b8ff" stroke="#63b8ff" points="748.74,-307.27 742.41,-315.77 752.65,-313.07 748.74,-307.27"/>
</g>
<!-- Node5 -->
<g id="node5" class="node">
<title>Node5</title>
<g id="a_node5"><a xlink:href="classMooseObject.html" target="_top" xlink:title="Every object that can be built by the factory should be derived from this class.">
<polygon fill="white" stroke="#666666" points="534,-539 451,-539 451,-520 534,-520 534,-539"/>
<text text-anchor="middle" x="492.5" y="-527" font-family="Courier,monospace" font-size="10.00">MooseObject</text>
</a>
</g>
</g>
<!-- Node5&#45;&gt;Node4 -->
<g id="edge4" class="edge">
<title>Node5&#45;&gt;Node4</title>
<path fill="none" stroke="#63b8ff" d="M545.38,-526C559.02,-523.34 573.21,-518.88 585,-511.5 657.96,-465.81 706.42,-367.23 720.36,-336.12"/>
<polygon fill="#63b8ff" stroke="#63b8ff" points="544.91,-522.53 535.6,-527.59 546.04,-529.44 544.91,-522.53"/>
</g>
<!-- Node6 -->
<g id="node6" class="node">
<title>Node6</title>
<g id="a_node6"><a xlink:href="classMooseBase.html" target="_top" xlink:title="Base class for everything in MOOSE with a name and a type.">
<polygon fill="white" stroke="#666666" points="310,-613 239,-613 239,-594 310,-594 310,-613"/>
<text text-anchor="middle" x="274.5" y="-601" font-family="Courier,monospace" font-size="10.00">MooseBase</text>
</a>
</g>
</g>
<!-- Node6&#45;&gt;Node5 -->
<g id="edge5" class="edge">
<title>Node6&#45;&gt;Node5</title>
<path fill="none" stroke="#63b8ff" d="M321.62,-596.05C335.41,-593.31 350.46,-589.8 364,-585.5 403.87,-572.85 448.08,-551.72 472.56,-539.35"/>
<polygon fill="#63b8ff" stroke="#63b8ff" points="321.06,-592.59 311.89,-597.89 322.36,-599.47 321.06,-592.59"/>
</g>
<!-- Node7 -->
<g id="node7" class="node">
<title>Node7</title>
<g id="a_node7"><a xlink:href="classMooseBaseParameterInterface.html" target="_top" xlink:title="Every object that can be built by the factory should be derived from this class.">
<polygon fill="white" stroke="#666666" points="364,-576 185,-576 185,-557 364,-557 364,-576"/>
<text text-anchor="middle" x="274.5" y="-564" font-family="Courier,monospace" font-size="10.00">MooseBaseParameterInterface</text>
</a>
</g>
</g>
<!-- Node7&#45;&gt;Node5 -->
<g id="edge6" class="edge">
<title>Node7&#45;&gt;Node5</title>
<path fill="none" stroke="#63b8ff" d="M344.77,-554.63C379.7,-548.65 420.85,-541.6 450.68,-536.49"/>
<polygon fill="#63b8ff" stroke="#63b8ff" points="344.43,-551.14 335.16,-556.28 345.61,-558.04 344.43,-551.14"/>
</g>
<!-- Node8 -->
<g id="node8" class="node">
<title>Node8</title>
<g id="a_node8"><a xlink:href="classMooseBaseErrorInterface.html" target="_top" xlink:title="Interface that provides APIs to output errors/warnings/info messages.">
<polygon fill="white" stroke="#666666" points="352,-539 197,-539 197,-520 352,-520 352,-539"/>
<text text-anchor="middle" x="274.5" y="-527" font-family="Courier,monospace" font-size="10.00">MooseBaseErrorInterface</text>
</a>
</g>
</g>
<!-- Node8&#45;&gt;Node5 -->
<g id="edge7" class="edge">
<title>Node8&#45;&gt;Node5</title>
<path fill="none" stroke="#63b8ff" d="M363.7,-529.5C393.87,-529.5 426.17,-529.5 450.75,-529.5"/>
<polygon fill="#63b8ff" stroke="#63b8ff" points="363.78,-526 353.78,-529.5 363.78,-533 363.78,-526"/>
</g>
<!-- Node9 -->
<g id="node9" class="node">
<title>Node9</title>
<g id="a_node9"><a xlink:href="classConsoleStreamInterface.html" target="_top" xlink:title="An inteface for the _console for outputting to the Console object.">
<polygon fill="white" stroke="#666666" points="149,-539 0,-539 0,-520 149,-520 149,-539"/>
<text text-anchor="middle" x="74.5" y="-527" font-family="Courier,monospace" font-size="10.00">ConsoleStreamInterface</text>
</a>
</g>
</g>
<!-- Node9&#45;&gt;Node8 -->
<g id="edge8" class="edge">
<title>Node9&#45;&gt;Node8</title>
<path fill="none" stroke="#63b8ff" d="M160.62,-529.5C172.62,-529.5 184.9,-529.5 196.73,-529.5"/>
<polygon fill="#63b8ff" stroke="#63b8ff" points="160.74,-526 150.74,-529.5 160.74,-533 160.74,-526"/>
</g>
<!-- Node10 -->
<g id="node10" class="node">
<title>Node10</title>
<g id="a_node10"><a xlink:title=" ">
<polygon fill="white" stroke="#666666" points="352,-502 197,-502 197,-483 352,-483 352,-502"/>
<text text-anchor="middle" x="274.5" y="-490" font-family="Courier,monospace" font-size="10.00">libMesh::ParallelObject</text>
</a>
</g>
</g>
<!-- Node10&#45;&gt;Node5 -->
<g id="edge9" class="edge">
<title>Node10&#45;&gt;Node5</title>
<path fill="none" stroke="#63b8ff" d="M344.77,-504.37C379.7,-510.35 420.85,-517.4 450.68,-522.51"/>
<polygon fill="#63b8ff" stroke="#63b8ff" points="345.61,-500.96 335.16,-502.72 344.43,-507.86 345.61,-500.96"/>
</g>
<!-- Node11 -->
<g id="node11" class="node">
<title>Node11</title>
<g id="a_node11"><a xlink:href="classDataFileInterface.html" target="_top" xlink:title=" ">
<polygon fill="white" stroke="#666666" points="337,-464.5 212,-464.5 212,-434.5 337,-434.5 337,-464.5"/>
<text text-anchor="start" x="220" y="-452.5" font-family="Courier,monospace" font-size="10.00">DataFileInterface&lt;</text>
<text text-anchor="middle" x="274.5" y="-441.5" font-family="Courier,monospace" font-size="10.00"> MooseObject &gt;</text>
</a>
</g>
</g>
<!-- Node11&#45;&gt;Node5 -->
<g id="edge10" class="edge">
<title>Node11&#45;&gt;Node5</title>
<path fill="none" stroke="#63b8ff" d="M347.62,-466.35C353.32,-468.73 358.86,-471.44 364,-474.5 383.71,-486.24 379.83,-500.57 400,-511.5 415.37,-519.83 434.06,-524.34 450.53,-526.76"/>
<polygon fill="#63b8ff" stroke="#63b8ff" points="349.23,-463.22 338.64,-462.94 346.74,-469.76 349.23,-463.22"/>
</g>
<!-- Node12 -->
<g id="node12" class="node">
<title>Node12</title>
<g id="a_node12"><a xlink:href="classSetupInterface.html" target="_top" xlink:title=" ">
<polygon fill="white" stroke="#666666" points="543,-502 442,-502 442,-483 543,-483 543,-502"/>
<text text-anchor="middle" x="492.5" y="-490" font-family="Courier,monospace" font-size="10.00">SetupInterface</text>
</a>
</g>
</g>
<!-- Node12&#45;&gt;Node4 -->
<g id="edge11" class="edge">
<title>Node12&#45;&gt;Node4</title>
<path fill="none" stroke="#63b8ff" d="M554.41,-486.02C565.02,-483.37 575.64,-479.67 585,-474.5 649.29,-438.99 701.2,-363.48 718.41,-336.41"/>
<polygon fill="#63b8ff" stroke="#63b8ff" points="553.92,-482.54 544.89,-488.09 555.4,-489.38 553.92,-482.54"/>
</g>
<!-- Node13 -->
<g id="node13" class="node">
<title>Node13</title>
<g id="a_node13"><a xlink:href="classFunctionInterface.html" target="_top" xlink:title="Interface for objects that need to use functions.">
<polygon fill="white" stroke="#666666" points="552,-465 433,-465 433,-446 552,-446 552,-465"/>
<text text-anchor="middle" x="492.5" y="-453" font-family="Courier,monospace" font-size="10.00">FunctionInterface</text>
</a>
</g>
</g>
<!-- Node13&#45;&gt;Node4 -->
<g id="edge12" class="edge">
<title>Node13&#45;&gt;Node4</title>
<path fill="none" stroke="#63b8ff" d="M563.38,-445.4C570.84,-443.25 578.19,-440.65 585,-437.5 641.18,-411.52 694.72,-358.38 715.46,-336.38"/>
<polygon fill="#63b8ff" stroke="#63b8ff" points="562.69,-441.96 553.88,-447.85 564.43,-448.74 562.69,-441.96"/>
</g>
<!-- Node14 -->
<g id="node14" class="node">
<title>Node14</title>
<g id="a_node14"><a xlink:href="classUserObjectInterface.html" target="_top" xlink:title="Interface for objects that need to use UserObjects.">
<polygon fill="white" stroke="#666666" points="558,-428 427,-428 427,-409 558,-409 558,-428"/>
<text text-anchor="middle" x="492.5" y="-416" font-family="Courier,monospace" font-size="10.00">UserObjectInterface</text>
</a>
</g>
</g>
<!-- Node14&#45;&gt;Node4 -->
<g id="edge13" class="edge">
<title>Node14&#45;&gt;Node4</title>
<path fill="none" stroke="#63b8ff" d="M567.48,-405.9C573.47,-404.29 579.37,-402.5 585,-400.5 633.06,-383.45 684.92,-352.11 709.69,-336.25"/>
<polygon fill="#63b8ff" stroke="#63b8ff" points="566.99,-402.42 558.14,-408.24 568.69,-409.21 566.99,-402.42"/>
</g>
<!-- Node15 -->
<g id="node15" class="node">
<title>Node15</title>
<g id="a_node15"><a xlink:href="classTransientInterface.html" target="_top" xlink:title="Interface for objects that needs transient capabilities.">
<polygon fill="white" stroke="#666666" points="555,-391 430,-391 430,-372 555,-372 555,-391"/>
<text text-anchor="middle" x="492.5" y="-379" font-family="Courier,monospace" font-size="10.00">TransientInterface</text>
</a>
</g>
</g>
<!-- Node15&#45;&gt;Node4 -->
<g id="edge14" class="edge">
<title>Node15&#45;&gt;Node4</title>
<path fill="none" stroke="#63b8ff" d="M558.52,-369.25C567.44,-367.41 576.46,-365.47 585,-363.5 620.77,-355.25 661.28,-344.32 689.4,-336.49"/>
<polygon fill="#63b8ff" stroke="#63b8ff" points="557.92,-365.8 548.81,-371.22 559.31,-372.66 557.92,-365.8"/>
</g>
<!-- Node16 -->
<g id="node16" class="node">
<title>Node16</title>
<g id="a_node16"><a xlink:href="classPostprocessorInterface.html" target="_top" xlink:title="Interface class for classes which interact with Postprocessors.">
<polygon fill="white" stroke="#666666" points="567,-354 418,-354 418,-335 567,-335 567,-354"/>
<text text-anchor="middle" x="492.5" y="-342" font-family="Courier,monospace" font-size="10.00">PostprocessorInterface</text>
</a>
</g>
</g>
<!-- Node16&#45;&gt;Node4 -->
<g id="edge15" class="edge">
<title>Node16&#45;&gt;Node4</title>
<path fill="none" stroke="#63b8ff" d="M578.52,-337.88C610.9,-335.35 646.73,-332.56 674.79,-330.37"/>
<polygon fill="#63b8ff" stroke="#63b8ff" points="578.43,-334.37 568.73,-338.64 578.98,-341.35 578.43,-334.37"/>
</g>
<!-- Node17 -->
<g id="node17" class="node">
<title>Node17</title>
<g id="a_node17"><a xlink:href="classVectorPostprocessorInterface.html" target="_top" xlink:title=" ">
<polygon fill="white" stroke="#666666" points="585,-317 400,-317 400,-298 585,-298 585,-317"/>
<text text-anchor="middle" x="492.5" y="-305" font-family="Courier,monospace" font-size="10.00">VectorPostprocessorInterface</text>
</a>
</g>
</g>
<!-- Node17&#45;&gt;Node4 -->
<g id="edge16" class="edge">
<title>Node17&#45;&gt;Node4</title>
<path fill="none" stroke="#63b8ff" d="M596.61,-315.98C623.74,-318.21 651.79,-320.52 674.69,-322.4"/>
<polygon fill="#63b8ff" stroke="#63b8ff" points="597.22,-312.52 586.97,-315.19 596.65,-319.5 597.22,-312.52"/>
</g>
<!-- Node18 -->
<g id="node18" class="node">
<title>Node18</title>
<g id="a_node18"><a xlink:href="classRandomInterface.html" target="_top" xlink:title="Interface for objects that need parallel consistent random numbers without patterns over the course o...">
<polygon fill="white" stroke="#666666" points="546,-280 439,-280 439,-261 546,-261 546,-280"/>
<text text-anchor="middle" x="492.5" y="-268" font-family="Courier,monospace" font-size="10.00">RandomInterface</text>
</a>
</g>
</g>
<!-- Node18&#45;&gt;Node4 -->
<g id="edge17" class="edge">
<title>Node18&#45;&gt;Node4</title>
<path fill="none" stroke="#63b8ff" d="M555.11,-282.81C565.12,-284.95 575.36,-287.22 585,-289.5 620.6,-297.91 660.97,-308.76 689.09,-316.54"/>
<polygon fill="#63b8ff" stroke="#63b8ff" points="555.94,-279.41 545.43,-280.77 554.49,-286.26 555.94,-279.41"/>
</g>
<!-- Node19 -->
<g id="node19" class="node">
<title>Node19</title>
<g id="a_node19"><a xlink:href="classRestartable.html" target="_top" xlink:title="A class for creating restricted objects.">
<polygon fill="white" stroke="#666666" points="534,-243 451,-243 451,-224 534,-224 534,-243"/>
<text text-anchor="middle" x="492.5" y="-231" font-family="Courier,monospace" font-size="10.00">Restartable</text>
</a>
</g>
</g>
<!-- Node19&#45;&gt;Node4 -->
<g id="edge18" class="edge">
<title>Node19&#45;&gt;Node4</title>
<path fill="none" stroke="#63b8ff" d="M545.51,-241.65C558.61,-244.41 572.49,-247.99 585,-252.5 632.71,-269.71 684.31,-300.69 709.27,-316.55"/>
<polygon fill="#63b8ff" stroke="#63b8ff" points="546.24,-238.22 535.75,-239.71 544.88,-245.09 546.24,-238.22"/>
</g>
<!-- Node20 -->
<g id="node20" class="node">
<title>Node20</title>
<g id="a_node20"><a xlink:href="classMeshChangedInterface.html" target="_top" xlink:title="Interface for notifications that the mesh has changed.">
<polygon fill="white" stroke="#666666" points="561,-206 424,-206 424,-187 561,-187 561,-206"/>
<text text-anchor="middle" x="492.5" y="-194" font-family="Courier,monospace" font-size="10.00">MeshChangedInterface</text>
</a>
</g>
</g>
<!-- Node20&#45;&gt;Node4 -->
<g id="edge19" class="edge">
<title>Node20&#45;&gt;Node4</title>
<path fill="none" stroke="#63b8ff" d="M570.64,-209.75C575.59,-211.44 580.41,-213.35 585,-215.5 641.05,-241.78 694.66,-294.75 715.44,-316.66"/>
<polygon fill="#63b8ff" stroke="#63b8ff" points="571.72,-206.42 561.13,-206.82 569.66,-213.11 571.72,-206.42"/>
</g>
<!-- Node21 -->
<g id="node21" class="node">
<title>Node21</title>
<g id="a_node21"><a xlink:href="classTaggingInterface.html" target="_top" xlink:title=" ">
<polygon fill="white" stroke="#666666" points="549,-169 436,-169 436,-150 549,-150 549,-169"/>
<text text-anchor="middle" x="492.5" y="-157" font-family="Courier,monospace" font-size="10.00">TaggingInterface</text>
</a>
</g>
</g>
<!-- Node21&#45;&gt;Node4 -->
<g id="edge20" class="edge">
<title>Node21&#45;&gt;Node4</title>
<path fill="none" stroke="#63b8ff" d="M560.15,-168.31C568.82,-170.89 577.33,-174.21 585,-178.5 585.52,-178.79 684.47,-283.95 715.39,-316.81"/>
<polygon fill="#63b8ff" stroke="#63b8ff" points="561.18,-164.96 550.62,-165.82 559.41,-171.74 561.18,-164.96"/>
</g>
<!-- Node22 -->
<g id="node22" class="node">
<title>Node22</title>
<g id="a_node22"><a xlink:href="classBoundaryRestrictableRequired.html" target="_top" xlink:title="A class for requiring an object to be boundary restricted.">
<polygon fill="white" stroke="#666666" points="818,-207 633,-207 633,-188 818,-188 818,-207"/>
<text text-anchor="middle" x="725.5" y="-195" font-family="Courier,monospace" font-size="10.00">BoundaryRestrictableRequired</text>
</a>
</g>
</g>
<!-- Node22&#45;&gt;Node3 -->
<g id="edge21" class="edge">
<title>Node22&#45;&gt;Node3</title>
<path fill="none" stroke="#63b8ff" d="M804.04,-185.84C839.51,-180.5 880.84,-174.29 913.69,-169.35"/>
<polygon fill="#63b8ff" stroke="#63b8ff" points="803.61,-182.36 794.24,-187.31 804.65,-189.28 803.61,-182.36"/>
</g>
<!-- Node23 -->
<g id="node23" class="node">
<title>Node23</title>
<g id="a_node23"><a xlink:href="classBoundaryRestrictable.html" target="_top" xlink:title="/class BoundaryRestrictable /brief Provides functionality for limiting the object to certain boundary...">
<polygon fill="white" stroke="#666666" points="561,-132 424,-132 424,-113 561,-113 561,-132"/>
<text text-anchor="middle" x="492.5" y="-120" font-family="Courier,monospace" font-size="10.00">BoundaryRestrictable</text>
</a>
</g>
</g>
<!-- Node23&#45;&gt;Node22 -->
<g id="edge22" class="edge">
<title>Node23&#45;&gt;Node22</title>
<path fill="none" stroke="#63b8ff" d="M571.93,-135.37C576.46,-137.16 580.86,-139.19 585,-141.5 605.32,-152.83 600.5,-168.5 621,-179.5 626.95,-182.69 633.34,-185.33 639.92,-187.52"/>
<polygon fill="#63b8ff" stroke="#63b8ff" points="573.19,-132.11 562.6,-132.14 570.9,-138.72 573.19,-132.11"/>
</g>
<!-- Node24 -->
<g id="node24" class="node">
<title>Node24</title>
<g id="a_node24"><a xlink:href="classDistributionInterface.html" target="_top" xlink:title="Interface for objects that need to use distributions.">
<polygon fill="white" stroke="#666666" points="797,-170 654,-170 654,-151 797,-151 797,-170"/>
<text text-anchor="middle" x="725.5" y="-158" font-family="Courier,monospace" font-size="10.00">DistributionInterface</text>
</a>
</g>
</g>
<!-- Node24&#45;&gt;Node3 -->
<g id="edge23" class="edge">
<title>Node24&#45;&gt;Node3</title>
<path fill="none" stroke="#63b8ff" d="M808.79,-160.5C843.19,-160.5 882.38,-160.5 913.78,-160.5"/>
<polygon fill="#63b8ff" stroke="#63b8ff" points="808.84,-157 798.84,-160.5 808.84,-164 808.84,-157"/>
</g>
<!-- Node25 -->
<g id="node25" class="node">
<title>Node25</title>
<g id="a_node25"><a xlink:href="classGeometricSearchInterface.html" target="_top" xlink:title=" ">
<polygon fill="white" stroke="#666666" points="806,-133 645,-133 645,-114 806,-114 806,-133"/>
<text text-anchor="middle" x="725.5" y="-121" font-family="Courier,monospace" font-size="10.00">GeometricSearchInterface</text>
</a>
</g>
</g>
<!-- Node25&#45;&gt;Node3 -->
<g id="edge24" class="edge">
<title>Node25&#45;&gt;Node3</title>
<path fill="none" stroke="#63b8ff" d="M804.04,-135.16C839.51,-140.5 880.84,-146.71 913.69,-151.65"/>
<polygon fill="#63b8ff" stroke="#63b8ff" points="804.65,-131.72 794.24,-133.69 803.61,-138.64 804.65,-131.72"/>
</g>
<!-- Node26 -->
<g id="node26" class="node">
<title>Node26</title>
<g id="a_node26"><a xlink:href="classCoupleableMooseVariableDependencyIntermediateInterface.html" target="_top" xlink:title="Intermediate base class that ties together all the interfaces for getting MooseVariableFEBases with t...">
<polygon fill="white" stroke="#666666" points="1081,-83.5 866,-83.5 866,-53.5 1081,-53.5 1081,-83.5"/>
<text text-anchor="start" x="874" y="-71.5" font-family="Courier,monospace" font-size="10.00">CoupleableMooseVariableDependency</text>
<text text-anchor="middle" x="973.5" y="-60.5" font-family="Courier,monospace" font-size="10.00">IntermediateInterface</text>
</a>
</g>
</g>
<!-- Node26&#45;&gt;Node2 -->
<g id="edge25" class="edge">
<title>Node26&#45;&gt;Node2</title>
<path fill="none" stroke="#63b8ff" d="M1092.49,-68.5C1107.17,-68.5 1121.61,-68.5 1134.69,-68.5"/>
<polygon fill="#63b8ff" stroke="#63b8ff" points="1092.75,-65 1082.75,-68.5 1092.75,-72 1092.75,-65"/>
</g>
<!-- Node27 -->
<g id="node27" class="node">
<title>Node27</title>
<g id="a_node27"><a xlink:href="classCoupleable.html" target="_top" xlink:title="Interface for objects that needs coupling capabilities.">
<polygon fill="white" stroke="#666666" points="764,-96 687,-96 687,-77 764,-77 764,-96"/>
<text text-anchor="middle" x="725.5" y="-84" font-family="Courier,monospace" font-size="10.00">Coupleable</text>
</a>
</g>
</g>
<!-- Node27&#45;&gt;Node26 -->
<g id="edge26" class="edge">
<title>Node27&#45;&gt;Node26</title>
<path fill="none" stroke="#63b8ff" d="M775.76,-82.9C801.62,-81 834.37,-78.61 865.69,-76.32"/>
<polygon fill="#63b8ff" stroke="#63b8ff" points="775.63,-79.4 765.91,-83.62 776.14,-86.38 775.63,-79.4"/>
</g>
<!-- Node28 -->
<g id="node28" class="node">
<title>Node28</title>
<g id="a_node28"><a xlink:href="classScalarCoupleable.html" target="_top" xlink:title="Interface for objects that needs scalar coupling capabilities.">
<polygon fill="white" stroke="#666666" points="782,-59 669,-59 669,-40 782,-40 782,-59"/>
<text text-anchor="middle" x="725.5" y="-47" font-family="Courier,monospace" font-size="10.00">ScalarCoupleable</text>
</a>
</g>
</g>
<!-- Node28&#45;&gt;Node26 -->
<g id="edge27" class="edge">
<title>Node28&#45;&gt;Node26</title>
<path fill="none" stroke="#63b8ff" d="M793.63,-54.68C815.83,-56.4 841.11,-58.35 865.53,-60.24"/>
<polygon fill="#63b8ff" stroke="#63b8ff" points="794.07,-51.21 783.83,-53.93 793.53,-58.19 794.07,-51.21"/>
</g>
<!-- Node29 -->
<g id="node29" class="node">
<title>Node29</title>
<g id="a_node29"><a xlink:href="classMooseVariableDependencyInterface.html" target="_top" xlink:title=" ">
<polygon fill="white" stroke="#666666" points="830,-22 621,-22 621,-3 830,-3 830,-22"/>
<text text-anchor="middle" x="725.5" y="-10" font-family="Courier,monospace" font-size="10.00">MooseVariableDependencyInterface</text>
</a>
</g>
</g>
<!-- Node29&#45;&gt;Node26 -->
<g id="edge28" class="edge">
<title>Node29&#45;&gt;Node26</title>
<path fill="none" stroke="#63b8ff" d="M805.06,-24.67C813.52,-26.43 821.97,-28.37 830,-30.5 846.44,-34.86 849.69,-38.66 866,-43.5 877.38,-46.88 889.55,-50.1 901.45,-53.03"/>
<polygon fill="#63b8ff" stroke="#63b8ff" points="805.93,-21.28 795.44,-22.77 804.57,-28.15 805.93,-21.28"/>
</g>
<!-- Node30 -->
<g id="node30" class="node">
<title>Node30</title>
<g id="a_node30"><a xlink:href="classMaterialPropertyInterface.html" target="_top" xlink:title="An interface for accessing Materials.">
<polygon fill="white" stroke="#666666" points="1057,-35 890,-35 890,-16 1057,-16 1057,-35"/>
<text text-anchor="middle" x="973.5" y="-23" font-family="Courier,monospace" font-size="10.00">MaterialPropertyInterface</text>
</a>
</g>
</g>
<!-- Node30&#45;&gt;Node2 -->
<g id="edge29" class="edge">
<title>Node30&#45;&gt;Node2</title>
<path fill="none" stroke="#63b8ff" d="M1044.07,-37.51C1056.39,-39.75 1069.08,-42.13 1081,-44.5 1102.76,-48.82 1126.86,-54.06 1146.89,-58.53"/>
<polygon fill="#63b8ff" stroke="#63b8ff" points="1044.84,-34.09 1034.38,-35.76 1043.6,-40.98 1044.84,-34.09"/>
</g>
<!-- Node31 -->
<g id="node31" class="node">
<title>Node31</title>
<g id="a_node31"><a xlink:href="classMooseVariableInterface.html" target="_top" xlink:title=" ">
<polygon fill="white" stroke="#666666" points="1266,-40.5 1117,-40.5 1117,-10.5 1266,-10.5 1266,-40.5"/>
<text text-anchor="start" x="1125" y="-28.5" font-family="Courier,monospace" font-size="10.00">MooseVariableInterface</text>
<text text-anchor="middle" x="1191.5" y="-17.5" font-family="Courier,monospace" font-size="10.00">&lt; RealVectorValue &gt;</text>
</a>
</g>
</g>
<!-- Node31&#45;&gt;Node1 -->
<g id="edge30" class="edge">
<title>Node31&#45;&gt;Node1</title>
<path fill="none" stroke="#63b8ff" d="M1277.19,-35.9C1285.42,-36.91 1293.65,-37.92 1301.59,-38.9"/>
<polygon fill="#63b8ff" stroke="#63b8ff" points="1277.87,-32.46 1267.51,-34.71 1277.01,-39.41 1277.87,-32.46"/>
</g>
</g>
</svg>
        <g id="navigator" transform="translate(0 0)" fill="#404254">
                <rect fill="#f2f5e9" fill-opacity="0.5" stroke="#606060" stroke-width=".5" x="0" y="0" width="60" height="60"/>
                <use id="zoomplus" xlink:href="#zoomPlus" x="17" y="9" onmousedown="handleZoom(evt,'in')"/>
                <use id="zoomminus" xlink:href="#zoomMin" x="42" y="9" onmousedown="handleZoom(evt,'out')"/>
                <use id="reset" xlink:href="#resetDef" x="30" y="36" onmousedown="handleReset()"/>
                <g id="arrowUp" xlink:href="#dirArrow" transform="translate(30 24)" onmousedown="handlePan(0,-1)">
                  <use xlink:href="#rim" fill="#404040">
                        <set attributeName="fill" to="#808080" begin="arrowUp.mouseover" end="arrowUp.mouseout"/>
                  </use>
                  <path fill="none" stroke="white" stroke-width="1.5" d="M0,-3.0v7 M-2.5,-0.5L0,-3.0L2.5,-0.5"/>
                </g>
                <g id="arrowRight" xlink:href="#dirArrow" transform="rotate(90) translate(36 -43)" onmousedown="handlePan(1,0)">
                  <use xlink:href="#rim" fill="#404040">
                        <set attributeName="fill" to="#808080" begin="arrowRight.mouseover" end="arrowRight.mouseout"/>
                  </use>
                  <path fill="none" stroke="white" stroke-width="1.5" d="M0,-3.0v7 M-2.5,-0.5L0,-3.0L2.5,-0.5"/>
                </g>
                <g id="arrowDown" xlink:href="#dirArrow" transform="rotate(180) translate(-30 -48)" onmousedown="handlePan(0,1)">
                  <use xlink:href="#rim" fill="#404040">
                        <set attributeName="fill" to="#808080" begin="arrowDown.mouseover" end="arrowDown.mouseout"/>
                  </use>
                  <path fill="none" stroke="white" stroke-width="1.5" d="M0,-3.0v7 M-2.5,-0.5L0,-3.0L2.5,-0.5"/>
                </g>
                <g id="arrowLeft" xlink:href="#dirArrow" transform="rotate(270) translate(-36 17)" onmousedown="handlePan(-1,0)">
                  <use xlink:href="#rim" fill="#404040">
                        <set attributeName="fill" to="#808080" begin="arrowLeft.mouseover" end="arrowLeft.mouseout"/>
                  </use>
                  <path fill="none" stroke="white" stroke-width="1.5" d="M0,-3.0v7 M-2.5,-0.5L0,-3.0L2.5,-0.5"/>
                </g>
        </g>
        <svg viewBox="0 0 15 15" width="100%" height="30px" preserveAspectRatio="xMaxYMin meet">
         <g id="arrow_out" transform="scale(0.3 0.3)">
          <a xlink:href="classVectorIntegratedBC__inherit__graph_org.svg" target="_base">
           <rect id="button" ry="5" rx="5" y="6" x="6" height="38" width="38"
                fill="#f2f5e9" fill-opacity="0.5" stroke="#606060" stroke-width="1.0"/>
           <path id="arrow"
             d="M 11.500037,31.436501 C 11.940474,20.09759 22.043105,11.32322 32.158766,21.979434 L 37.068811,17.246167 C 37.068811,17.246167 37.088388,32 37.088388,32 L 22.160133,31.978069 C 22.160133,31.978069 26.997745,27.140456 26.997745,27.140456 C 18.528582,18.264221 13.291696,25.230495 11.500037,31.436501 z"
             style="fill:#404040;"/>
          </a>
         </g>
        </svg>
</svg>
