<?xml version="1.0" encoding="UTF-8" standalone="no"?>
<!DOCTYPE svg PUBLIC "-//W3C//DTD SVG 1.1//EN"
 "http://www.w3.org/Graphics/SVG/1.1/DTD/svg11.dtd">
<!-- Generated by graphviz version 7.0.5 (20221223.1930)
 -->
<!-- Title: DiracKernelBase Pages: 1 -->
<!--zoomable 647 -->
<svg id="main" version="1.1" xmlns="http://www.w3.org/2000/svg" xmlns:xlink="http://www.w3.org/1999/xlink" xml:space="preserve" onload="init(evt)">
<style type="text/css"><![CDATA[
.edge:hover path { stroke: red; }
.edge:hover polygon { stroke: red; fill: red; }
]]></style>
<script type="text/javascript"><![CDATA[
var edges = document.getElementsByTagName('g');
if (edges && edges.length) {
  for (var i=0;i<edges.length;i++) {
    if (edges[i].id.substr(0,4)=='edge') {
      edges[i].setAttribute('class','edge');
    }
  }
}
]]></script>
        <defs>
                <circle id="rim" cx="0" cy="0" r="7"/>
                <circle id="rim2" cx="0" cy="0" r="3.5"/>
                <g id="zoomPlus">
                        <use xlink:href="#rim" fill="#404040">
                                <set attributeName="fill" to="#808080" begin="zoomplus.mouseover" end="zoomplus.mouseout"/>
                        </use>
                        <path d="M-4,0h8M0,-4v8" fill="none" stroke="white" stroke-width="1.5" pointer-events="none"/>
                </g>
                <g id="zoomMin">
                        <use xlink:href="#rim" fill="#404040">
                                <set attributeName="fill" to="#808080" begin="zoomminus.mouseover" end="zoomminus.mouseout"/>
                        </use>
                        <path d="M-4,0h8" fill="none" stroke="white" stroke-width="1.5" pointer-events="none"/>
                </g>
                <g id="dirArrow">
                        <path fill="none" stroke="white" stroke-width="1.5" d="M0,-3.0v7 M-2.5,-0.5L0,-3.0L2.5,-0.5"/>
                </g>
               <g id="resetDef">
                       <use xlink:href="#rim2" fill="#404040">
                               <set attributeName="fill" to="#808080" begin="reset.mouseover" end="reset.mouseout"/>
                       </use>
               </g>
        </defs>

<script type="text/javascript">
var viewWidth = 1393;
var viewHeight = 647;
var sectionId = 'dynsection-0';
</script>
<script xlink:href="svgpan.js"/>
<svg id="graph" class="graph">
<g id="viewport">
<title>DiracKernelBase</title>
<!-- Node1 -->
<g id="node1" class="node">
<title>Node1</title>
<g id="a_node1"><a xlink:title="DiracKernelBase is the base class for all DiracKernel type classes.">
<polygon fill="#999999" stroke="#666666" points="1003,-96.5 896,-96.5 896,-77.5 1003,-77.5 1003,-96.5"/>
<text text-anchor="middle" x="949.5" y="-84.5" font-family="Courier,monospace" font-size="10.00">DiracKernelBase</text>
</a>
</g>
</g>
<!-- Node27 -->
<g id="node27" class="node">
<title>Node27</title>
<g id="a_node27"><a xlink:href="classDiracKernelTempl.html" target="_top" xlink:title="A DiracKernel is used when you need to add contributions to the residual by means of multiplying some...">
<polygon fill="white" stroke="#666666" points="1182,-96.5 1039,-96.5 1039,-77.5 1182,-77.5 1182,-96.5"/>
<text text-anchor="middle" x="1110.5" y="-84.5" font-family="Courier,monospace" font-size="10.00">DiracKernelTempl&lt; T &gt;</text>
</a>
</g>
</g>
<!-- Node1&#45;&gt;Node27 -->
<g id="edge26" class="edge">
<title>Node1&#45;&gt;Node27</title>
<path fill="none" stroke="#63b8ff" d="M1014.78,-87C1022.65,-87 1030.72,-87 1038.68,-87"/>
<polygon fill="#63b8ff" stroke="#63b8ff" points="1014.96,-83.5 1004.96,-87 1014.96,-90.5 1014.96,-83.5"/>
</g>
<!-- Node2 -->
<g id="node2" class="node">
<title>Node2</title>
<g id="a_node2"><a xlink:href="classResidualObject.html" target="_top" xlink:title="This is the common base class for objects that give residual contributions.">
<polygon fill="white" stroke="#666666" points="803,-360.5 702,-360.5 702,-341.5 803,-341.5 803,-360.5"/>
<text text-anchor="middle" x="752.5" y="-348.5" font-family="Courier,monospace" font-size="10.00">ResidualObject</text>
</a>
</g>
</g>
<!-- Node2&#45;&gt;Node1 -->
<g id="edge1" class="edge">
<title>Node2&#45;&gt;Node1</title>
<path fill="none" stroke="#63b8ff" d="M767.4,-332.18C805.82,-280.17 912.48,-135.77 941.26,-96.8"/>
<polygon fill="#63b8ff" stroke="#63b8ff" points="764.7,-329.95 761.57,-340.07 770.33,-334.11 764.7,-329.95"/>
</g>
<!-- Node3 -->
<g id="node3" class="node">
<title>Node3</title>
<g id="a_node3"><a xlink:href="classMooseObject.html" target="_top" xlink:title="Every object that can be built by the factory should be derived from this class.">
<polygon fill="white" stroke="#666666" points="546,-564.5 463,-564.5 463,-545.5 546,-545.5 546,-564.5"/>
<text text-anchor="middle" x="504.5" y="-552.5" font-family="Courier,monospace" font-size="10.00">MooseObject</text>
</a>
</g>
</g>
<!-- Node3&#45;&gt;Node2 -->
<g id="edge2" class="edge">
<title>Node3&#45;&gt;Node2</title>
<path fill="none" stroke="#63b8ff" d="M557.63,-553.48C574.95,-551.07 593.71,-546.26 609,-537 683.46,-491.9 733.01,-392.23 747.26,-360.73"/>
<polygon fill="#63b8ff" stroke="#63b8ff" points="557.54,-549.96 548,-554.57 558.33,-556.92 557.54,-549.96"/>
</g>
<!-- Node4 -->
<g id="node4" class="node">
<title>Node4</title>
<g id="a_node4"><a xlink:href="classMooseBase.html" target="_top" xlink:title="Base class for everything in MOOSE with a name and a type.">
<polygon fill="white" stroke="#666666" points="310,-638.5 239,-638.5 239,-619.5 310,-619.5 310,-638.5"/>
<text text-anchor="middle" x="274.5" y="-626.5" font-family="Courier,monospace" font-size="10.00">MooseBase</text>
</a>
</g>
</g>
<!-- Node4&#45;&gt;Node3 -->
<g id="edge3" class="edge">
<title>Node4&#45;&gt;Node3</title>
<path fill="none" stroke="#63b8ff" d="M321.54,-621.28C335.32,-618.53 350.39,-615.08 364,-611 407,-598.11 455.19,-577.26 482.19,-564.97"/>
<polygon fill="#63b8ff" stroke="#63b8ff" points="320.97,-617.82 311.81,-623.14 322.29,-624.7 320.97,-617.82"/>
</g>
<!-- Node5 -->
<g id="node5" class="node">
<title>Node5</title>
<g id="a_node5"><a xlink:href="classMooseBaseParameterInterface.html" target="_top" xlink:title="Every object that can be built by the factory should be derived from this class.">
<polygon fill="white" stroke="#666666" points="364,-601.5 185,-601.5 185,-582.5 364,-582.5 364,-601.5"/>
<text text-anchor="middle" x="274.5" y="-589.5" font-family="Courier,monospace" font-size="10.00">MooseBaseParameterInterface</text>
</a>
</g>
</g>
<!-- Node5&#45;&gt;Node3 -->
<g id="edge4" class="edge">
<title>Node5&#45;&gt;Node3</title>
<path fill="none" stroke="#63b8ff" d="M347.88,-580.25C385.73,-574.11 430.68,-566.82 462.51,-561.65"/>
<polygon fill="#63b8ff" stroke="#63b8ff" points="347.7,-576.74 338.39,-581.79 348.83,-583.65 347.7,-576.74"/>
</g>
<!-- Node6 -->
<g id="node6" class="node">
<title>Node6</title>
<g id="a_node6"><a xlink:href="classMooseBaseErrorInterface.html" target="_top" xlink:title="Interface that provides APIs to output errors/warnings/info messages.">
<polygon fill="white" stroke="#666666" points="352,-564.5 197,-564.5 197,-545.5 352,-545.5 352,-564.5"/>
<text text-anchor="middle" x="274.5" y="-552.5" font-family="Courier,monospace" font-size="10.00">MooseBaseErrorInterface</text>
</a>
</g>
</g>
<!-- Node6&#45;&gt;Node3 -->
<g id="edge5" class="edge">
<title>Node6&#45;&gt;Node3</title>
<path fill="none" stroke="#63b8ff" d="M363.8,-555C397.92,-555 435.28,-555 462.77,-555"/>
<polygon fill="#63b8ff" stroke="#63b8ff" points="363.89,-551.5 353.89,-555 363.89,-558.5 363.89,-551.5"/>
</g>
<!-- Node7 -->
<g id="node7" class="node">
<title>Node7</title>
<g id="a_node7"><a xlink:href="classConsoleStreamInterface.html" target="_top" xlink:title="An inteface for the _console for outputting to the Console object.">
<polygon fill="white" stroke="#666666" points="149,-564.5 0,-564.5 0,-545.5 149,-545.5 149,-564.5"/>
<text text-anchor="middle" x="74.5" y="-552.5" font-family="Courier,monospace" font-size="10.00">ConsoleStreamInterface</text>
</a>
</g>
</g>
<!-- Node7&#45;&gt;Node6 -->
<g id="edge6" class="edge">
<title>Node7&#45;&gt;Node6</title>
<path fill="none" stroke="#63b8ff" d="M160.62,-555C172.62,-555 184.9,-555 196.73,-555"/>
<polygon fill="#63b8ff" stroke="#63b8ff" points="160.74,-551.5 150.74,-555 160.74,-558.5 160.74,-551.5"/>
</g>
<!-- Node8 -->
<g id="node8" class="node">
<title>Node8</title>
<g id="a_node8"><a xlink:title=" ">
<polygon fill="white" stroke="#666666" points="352,-527.5 197,-527.5 197,-508.5 352,-508.5 352,-527.5"/>
<text text-anchor="middle" x="274.5" y="-515.5" font-family="Courier,monospace" font-size="10.00">libMesh::ParallelObject</text>
</a>
</g>
</g>
<!-- Node8&#45;&gt;Node3 -->
<g id="edge7" class="edge">
<title>Node8&#45;&gt;Node3</title>
<path fill="none" stroke="#63b8ff" d="M347.88,-529.75C385.73,-535.89 430.68,-543.18 462.51,-548.35"/>
<polygon fill="#63b8ff" stroke="#63b8ff" points="348.83,-526.35 338.39,-528.21 347.7,-533.26 348.83,-526.35"/>
</g>
<!-- Node9 -->
<g id="node9" class="node">
<title>Node9</title>
<g id="a_node9"><a xlink:href="classDataFileInterface.html" target="_top" xlink:title=" ">
<polygon fill="white" stroke="#666666" points="337,-490 212,-490 212,-460 337,-460 337,-490"/>
<text text-anchor="start" x="220" y="-478" font-family="Courier,monospace" font-size="10.00">DataFileInterface&lt;</text>
<text text-anchor="middle" x="274.5" y="-467" font-family="Courier,monospace" font-size="10.00"> MooseObject &gt;</text>
</a>
</g>
</g>
<!-- Node9&#45;&gt;Node3 -->
<g id="edge8" class="edge">
<title>Node9&#45;&gt;Node3</title>
<path fill="none" stroke="#63b8ff" d="M347.62,-491.85C353.32,-494.23 358.86,-496.94 364,-500 383.71,-511.74 379.71,-526.29 400,-537 419.11,-547.09 442.71,-551.69 462.54,-553.73"/>
<polygon fill="#63b8ff" stroke="#63b8ff" points="349.23,-488.72 338.64,-488.44 346.74,-495.26 349.23,-488.72"/>
</g>
<!-- Node10 -->
<g id="node10" class="node">
<title>Node10</title>
<g id="a_node10"><a xlink:href="classSetupInterface.html" target="_top" xlink:title=" ">
<polygon fill="white" stroke="#666666" points="555,-527.5 454,-527.5 454,-508.5 555,-508.5 555,-527.5"/>
<text text-anchor="middle" x="504.5" y="-515.5" font-family="Courier,monospace" font-size="10.00">SetupInterface</text>
</a>
</g>
</g>
<!-- Node10&#45;&gt;Node2 -->
<g id="edge9" class="edge">
<title>Node10&#45;&gt;Node2</title>
<path fill="none" stroke="#63b8ff" d="M566.26,-514C580.86,-511.29 595.98,-506.94 609,-500 675.01,-464.8 728.22,-387.76 745.53,-360.66"/>
<polygon fill="#63b8ff" stroke="#63b8ff" points="566.06,-510.49 556.74,-515.52 567.16,-517.4 566.06,-510.49"/>
</g>
<!-- Node11 -->
<g id="node11" class="node">
<title>Node11</title>
<g id="a_node11"><a xlink:href="classFunctionInterface.html" target="_top" xlink:title="Interface for objects that need to use functions.">
<polygon fill="white" stroke="#666666" points="564,-490.5 445,-490.5 445,-471.5 564,-471.5 564,-490.5"/>
<text text-anchor="middle" x="504.5" y="-478.5" font-family="Courier,monospace" font-size="10.00">FunctionInterface</text>
</a>
</g>
</g>
<!-- Node11&#45;&gt;Node2 -->
<g id="edge10" class="edge">
<title>Node11&#45;&gt;Node2</title>
<path fill="none" stroke="#63b8ff" d="M575.44,-473.7C586.94,-471.13 598.52,-467.67 609,-463 666.77,-437.26 721.67,-382.89 742.59,-360.72"/>
<polygon fill="#63b8ff" stroke="#63b8ff" points="575.07,-470.2 565.96,-475.59 576.45,-477.06 575.07,-470.2"/>
</g>
<!-- Node12 -->
<g id="node12" class="node">
<title>Node12</title>
<g id="a_node12"><a xlink:href="classUserObjectInterface.html" target="_top" xlink:title="Interface for objects that need to use UserObjects.">
<polygon fill="white" stroke="#666666" points="570,-453.5 439,-453.5 439,-434.5 570,-434.5 570,-453.5"/>
<text text-anchor="middle" x="504.5" y="-441.5" font-family="Courier,monospace" font-size="10.00">UserObjectInterface</text>
</a>
</g>
</g>
<!-- Node12&#45;&gt;Node2 -->
<g id="edge11" class="edge">
<title>Node12&#45;&gt;Node2</title>
<path fill="none" stroke="#63b8ff" d="M581.36,-433.63C590.78,-431.52 600.19,-429 609,-426 658.22,-409.23 711.14,-377.24 736.4,-360.99"/>
<polygon fill="#63b8ff" stroke="#63b8ff" points="580.89,-430.16 571.81,-435.62 582.31,-437.01 580.89,-430.16"/>
</g>
<!-- Node13 -->
<g id="node13" class="node">
<title>Node13</title>
<g id="a_node13"><a xlink:href="classTransientInterface.html" target="_top" xlink:title="Interface for objects that needs transient capabilities.">
<polygon fill="white" stroke="#666666" points="567,-416.5 442,-416.5 442,-397.5 567,-397.5 567,-416.5"/>
<text text-anchor="middle" x="504.5" y="-404.5" font-family="Courier,monospace" font-size="10.00">TransientInterface</text>
</a>
</g>
</g>
<!-- Node13&#45;&gt;Node2 -->
<g id="edge12" class="edge">
<title>Node13&#45;&gt;Node2</title>
<path fill="none" stroke="#63b8ff" d="M578.35,-395.17C588.67,-393.25 599.12,-391.17 609,-389 646.39,-380.78 688.7,-369.2 717.44,-360.99"/>
<polygon fill="#63b8ff" stroke="#63b8ff" points="577.95,-391.68 568.73,-396.91 579.2,-398.57 577.95,-391.68"/>
</g>
<!-- Node14 -->
<g id="node14" class="node">
<title>Node14</title>
<g id="a_node14"><a xlink:href="classPostprocessorInterface.html" target="_top" xlink:title="Interface class for classes which interact with Postprocessors.">
<polygon fill="white" stroke="#666666" points="579,-379.5 430,-379.5 430,-360.5 579,-360.5 579,-379.5"/>
<text text-anchor="middle" x="504.5" y="-367.5" font-family="Courier,monospace" font-size="10.00">PostprocessorInterface</text>
</a>
</g>
</g>
<!-- Node14&#45;&gt;Node2 -->
<g id="edge13" class="edge">
<title>Node14&#45;&gt;Node2</title>
<path fill="none" stroke="#63b8ff" d="M590.61,-363.43C627.61,-360.57 669.67,-357.32 701.51,-354.86"/>
<polygon fill="#63b8ff" stroke="#63b8ff" points="590.52,-359.92 580.82,-364.18 591.06,-366.9 590.52,-359.92"/>
</g>
<!-- Node15 -->
<g id="node15" class="node">
<title>Node15</title>
<g id="a_node15"><a xlink:href="classVectorPostprocessorInterface.html" target="_top" xlink:title=" ">
<polygon fill="white" stroke="#666666" points="597,-342.5 412,-342.5 412,-323.5 597,-323.5 597,-342.5"/>
<text text-anchor="middle" x="504.5" y="-330.5" font-family="Courier,monospace" font-size="10.00">VectorPostprocessorInterface</text>
</a>
</g>
</g>
<!-- Node15&#45;&gt;Node2 -->
<g id="edge14" class="edge">
<title>Node15&#45;&gt;Node2</title>
<path fill="none" stroke="#63b8ff" d="M608.74,-340.55C640.92,-342.91 674.96,-345.4 701.72,-347.36"/>
<polygon fill="#63b8ff" stroke="#63b8ff" points="609.19,-337.08 598.96,-339.84 608.68,-344.06 609.19,-337.08"/>
</g>
<!-- Node16 -->
<g id="node16" class="node">
<title>Node16</title>
<g id="a_node16"><a xlink:href="classRandomInterface.html" target="_top" xlink:title="Interface for objects that need parallel consistent random numbers without patterns over the course o...">
<polygon fill="white" stroke="#666666" points="558,-305.5 451,-305.5 451,-286.5 558,-286.5 558,-305.5"/>
<text text-anchor="middle" x="504.5" y="-293.5" font-family="Courier,monospace" font-size="10.00">RandomInterface</text>
</a>
</g>
</g>
<!-- Node16&#45;&gt;Node2 -->
<g id="edge15" class="edge">
<title>Node16&#45;&gt;Node2</title>
<path fill="none" stroke="#63b8ff" d="M569.59,-307.08C582.66,-309.54 596.3,-312.23 609,-315 645.15,-322.88 686.07,-333.38 714.75,-341.01"/>
<polygon fill="#63b8ff" stroke="#63b8ff" points="570.24,-303.65 559.78,-305.27 568.97,-310.53 570.24,-303.65"/>
</g>
<!-- Node17 -->
<g id="node17" class="node">
<title>Node17</title>
<g id="a_node17"><a xlink:href="classRestartable.html" target="_top" xlink:title="A class for creating restricted objects.">
<polygon fill="white" stroke="#666666" points="546,-268.5 463,-268.5 463,-249.5 546,-249.5 546,-268.5"/>
<text text-anchor="middle" x="504.5" y="-256.5" font-family="Courier,monospace" font-size="10.00">Restartable</text>
</a>
</g>
</g>
<!-- Node17&#45;&gt;Node2 -->
<g id="edge16" class="edge">
<title>Node17&#45;&gt;Node2</title>
<path fill="none" stroke="#63b8ff" d="M557.29,-265.46C574.05,-268.36 592.56,-272.41 609,-278 657.69,-294.54 710.43,-325.3 735.93,-341.09"/>
<polygon fill="#63b8ff" stroke="#63b8ff" points="557.93,-262.02 547.5,-263.88 556.81,-268.93 557.93,-262.02"/>
</g>
<!-- Node18 -->
<g id="node18" class="node">
<title>Node18</title>
<g id="a_node18"><a xlink:href="classMeshChangedInterface.html" target="_top" xlink:title="Interface for notifications that the mesh has changed.">
<polygon fill="white" stroke="#666666" points="573,-231.5 436,-231.5 436,-212.5 573,-212.5 573,-231.5"/>
<text text-anchor="middle" x="504.5" y="-219.5" font-family="Courier,monospace" font-size="10.00">MeshChangedInterface</text>
</a>
</g>
</g>
<!-- Node18&#45;&gt;Node2 -->
<g id="edge17" class="edge">
<title>Node18&#45;&gt;Node2</title>
<path fill="none" stroke="#63b8ff" d="M584.55,-232.43C592.98,-234.74 601.29,-237.56 609,-241 666.09,-266.46 720.95,-319.28 742.22,-341.17"/>
<polygon fill="#63b8ff" stroke="#63b8ff" points="585.45,-229.05 574.91,-230.05 583.77,-235.85 585.45,-229.05"/>
</g>
<!-- Node19 -->
<g id="node19" class="node">
<title>Node19</title>
<g id="a_node19"><a xlink:href="classTaggingInterface.html" target="_top" xlink:title=" ">
<polygon fill="white" stroke="#666666" points="561,-194.5 448,-194.5 448,-175.5 561,-175.5 561,-194.5"/>
<text text-anchor="middle" x="504.5" y="-182.5" font-family="Courier,monospace" font-size="10.00">TaggingInterface</text>
</a>
</g>
</g>
<!-- Node19&#45;&gt;Node2 -->
<g id="edge18" class="edge">
<title>Node19&#45;&gt;Node2</title>
<path fill="none" stroke="#63b8ff" d="M572.37,-191.01C585.02,-193.86 597.79,-198 609,-204 674.19,-238.88 727.52,-314.12 745.22,-341.11"/>
<polygon fill="#63b8ff" stroke="#63b8ff" points="573.3,-187.63 562.81,-189.12 571.94,-194.49 573.3,-187.63"/>
</g>
<!-- Node20 -->
<g id="node20" class="node">
<title>Node20</title>
<g id="a_node20"><a xlink:href="classCoupleableMooseVariableDependencyIntermediateInterface.html" target="_top" xlink:title="Intermediate base class that ties together all the interfaces for getting MooseVariableFEBases with t...">
<polygon fill="white" stroke="#666666" points="860,-145 645,-145 645,-115 860,-115 860,-145"/>
<text text-anchor="start" x="653" y="-133" font-family="Courier,monospace" font-size="10.00">CoupleableMooseVariableDependency</text>
<text text-anchor="middle" x="752.5" y="-122" font-family="Courier,monospace" font-size="10.00">IntermediateInterface</text>
</a>
</g>
</g>
<!-- Node20&#45;&gt;Node1 -->
<g id="edge19" class="edge">
<title>Node20&#45;&gt;Node1</title>
<path fill="none" stroke="#63b8ff" d="M834.65,-112.11C858.11,-106.93 882.87,-101.47 903.28,-96.97"/>
<polygon fill="#63b8ff" stroke="#63b8ff" points="834.11,-108.64 825.1,-114.21 835.62,-115.48 834.11,-108.64"/>
</g>
<!-- Node21 -->
<g id="node21" class="node">
<title>Node21</title>
<g id="a_node21"><a xlink:href="classCoupleable.html" target="_top" xlink:title="Interface for objects that needs coupling capabilities.">
<polygon fill="white" stroke="#666666" points="543,-157.5 466,-157.5 466,-138.5 543,-138.5 543,-157.5"/>
<text text-anchor="middle" x="504.5" y="-145.5" font-family="Courier,monospace" font-size="10.00">Coupleable</text>
</a>
</g>
</g>
<!-- Node21&#45;&gt;Node20 -->
<g id="edge20" class="edge">
<title>Node21&#45;&gt;Node20</title>
<path fill="none" stroke="#63b8ff" d="M554.76,-144.4C580.62,-142.5 613.37,-140.11 644.69,-137.82"/>
<polygon fill="#63b8ff" stroke="#63b8ff" points="554.63,-140.9 544.91,-145.12 555.14,-147.88 554.63,-140.9"/>
</g>
<!-- Node22 -->
<g id="node22" class="node">
<title>Node22</title>
<g id="a_node22"><a xlink:href="classScalarCoupleable.html" target="_top" xlink:title="Interface for objects that needs scalar coupling capabilities.">
<polygon fill="white" stroke="#666666" points="561,-120.5 448,-120.5 448,-101.5 561,-101.5 561,-120.5"/>
<text text-anchor="middle" x="504.5" y="-108.5" font-family="Courier,monospace" font-size="10.00">ScalarCoupleable</text>
</a>
</g>
</g>
<!-- Node22&#45;&gt;Node20 -->
<g id="edge21" class="edge">
<title>Node22&#45;&gt;Node20</title>
<path fill="none" stroke="#63b8ff" d="M572.63,-116.18C594.83,-117.9 620.11,-119.85 644.53,-121.74"/>
<polygon fill="#63b8ff" stroke="#63b8ff" points="573.07,-112.71 562.83,-115.43 572.53,-119.69 573.07,-112.71"/>
</g>
<!-- Node23 -->
<g id="node23" class="node">
<title>Node23</title>
<g id="a_node23"><a xlink:href="classMooseVariableDependencyInterface.html" target="_top" xlink:title=" ">
<polygon fill="white" stroke="#666666" points="609,-83.5 400,-83.5 400,-64.5 609,-64.5 609,-83.5"/>
<text text-anchor="middle" x="504.5" y="-71.5" font-family="Courier,monospace" font-size="10.00">MooseVariableDependencyInterface</text>
</a>
</g>
</g>
<!-- Node23&#45;&gt;Node20 -->
<g id="edge22" class="edge">
<title>Node23&#45;&gt;Node20</title>
<path fill="none" stroke="#63b8ff" d="M580.08,-86.16C589.86,-88.21 599.71,-90.49 609,-93 625.42,-97.44 628.67,-101.23 645,-106 655.37,-109.03 666.4,-111.9 677.29,-114.53"/>
<polygon fill="#63b8ff" stroke="#63b8ff" points="581.07,-82.79 570.57,-84.26 579.69,-89.66 581.07,-82.79"/>
</g>
<!-- Node24 -->
<g id="node24" class="node">
<title>Node24</title>
<g id="a_node24"><a xlink:href="classMaterialPropertyInterface.html" target="_top" xlink:title="An interface for accessing Materials.">
<polygon fill="white" stroke="#666666" points="836,-96.5 669,-96.5 669,-77.5 836,-77.5 836,-96.5"/>
<text text-anchor="middle" x="752.5" y="-84.5" font-family="Courier,monospace" font-size="10.00">MaterialPropertyInterface</text>
</a>
</g>
</g>
<!-- Node24&#45;&gt;Node1 -->
<g id="edge23" class="edge">
<title>Node24&#45;&gt;Node1</title>
<path fill="none" stroke="#63b8ff" d="M847.8,-87C864.21,-87 880.74,-87 895.53,-87"/>
<polygon fill="#63b8ff" stroke="#63b8ff" points="847.99,-83.5 837.99,-87 847.99,-90.5 847.99,-83.5"/>
</g>
<!-- Node25 -->
<g id="node25" class="node">
<title>Node25</title>
<g id="a_node25"><a xlink:href="classGeometricSearchInterface.html" target="_top" xlink:title=" ">
<polygon fill="white" stroke="#666666" points="833,-59.5 672,-59.5 672,-40.5 833,-40.5 833,-59.5"/>
<text text-anchor="middle" x="752.5" y="-47.5" font-family="Courier,monospace" font-size="10.00">GeometricSearchInterface</text>
</a>
</g>
</g>
<!-- Node25&#45;&gt;Node1 -->
<g id="edge24" class="edge">
<title>Node25&#45;&gt;Node1</title>
<path fill="none" stroke="darkgreen" d="M821.78,-61.93C834.49,-64.22 847.66,-66.64 860,-69 873.24,-71.53 887.58,-74.39 900.77,-77.07"/>
<polygon fill="darkgreen" stroke="darkgreen" points="822.7,-58.54 812.24,-60.22 821.47,-65.43 822.7,-58.54"/>
</g>
<!-- Node26 -->
<g id="node26" class="node">
<title>Node26</title>
<g id="a_node26"><a xlink:href="classBlockRestrictable.html" target="_top" xlink:title="An interface that restricts an object to subdomains via the &#39;blocks&#39; input parameter.">
<polygon fill="white" stroke="#666666" points="812,-22.5 693,-22.5 693,-3.5 812,-3.5 812,-22.5"/>
<text text-anchor="middle" x="752.5" y="-10.5" font-family="Courier,monospace" font-size="10.00">BlockRestrictable</text>
</a>
</g>
</g>
<!-- Node26&#45;&gt;Node1 -->
<g id="edge25" class="edge">
<title>Node26&#45;&gt;Node1</title>
<path fill="none" stroke="#63b8ff" d="M823.59,-21.59C835.95,-24.2 848.52,-27.6 860,-32 889.39,-43.27 919.71,-64.63 936.12,-77.16"/>
<polygon fill="#63b8ff" stroke="#63b8ff" points="824.31,-18.16 813.83,-19.69 822.98,-25.04 824.31,-18.16"/>
</g>
<!-- Node28 -->
<g id="node28" class="node">
<title>Node28</title>
<g id="a_node28"><a xlink:href="classConstantPointSource.html" target="_top" xlink:title="TOOD.">
<polygon fill="white" stroke="#666666" points="1367,-174 1236,-174 1236,-144 1367,-144 1367,-174"/>
<text text-anchor="start" x="1244" y="-162" font-family="Courier,monospace" font-size="10.00">ConstantPointSource</text>
<text text-anchor="middle" x="1301.5" y="-151" font-family="Courier,monospace" font-size="10.00">&lt; Real &gt;</text>
</a>
</g>
</g>
<!-- Node27&#45;&gt;Node28 -->
<g id="edge27" class="edge">
<title>Node27&#45;&gt;Node28</title>
<path fill="none" stroke="#63b8ff" d="M1141.42,-101.85C1162.51,-111.97 1191.59,-125.26 1218,-135 1226.12,-137.99 1234.79,-140.86 1243.35,-143.51"/>
<polygon fill="#63b8ff" stroke="#63b8ff" points="1143.06,-98.75 1132.54,-97.53 1140,-105.05 1143.06,-98.75"/>
</g>
<!-- Node29 -->
<g id="node29" class="node">
<title>Node29</title>
<g id="a_node29"><a xlink:href="classFunctionDiracSource.html" target="_top" xlink:title=" ">
<polygon fill="white" stroke="#666666" points="1367,-126 1236,-126 1236,-96 1367,-96 1367,-126"/>
<text text-anchor="start" x="1244" y="-114" font-family="Courier,monospace" font-size="10.00">FunctionDiracSource</text>
<text text-anchor="middle" x="1301.5" y="-103" font-family="Courier,monospace" font-size="10.00">&lt; Real &gt;</text>
</a>
</g>
</g>
<!-- Node27&#45;&gt;Node29 -->
<g id="edge28" class="edge">
<title>Node27&#45;&gt;Node29</title>
<path fill="none" stroke="#63b8ff" d="M1193.61,-97.43C1207.71,-99.22 1222.18,-101.05 1235.73,-102.78"/>
<polygon fill="#63b8ff" stroke="#63b8ff" points="1194.28,-93.98 1183.92,-96.2 1193.4,-100.93 1194.28,-93.98"/>
</g>
<!-- Node30 -->
<g id="node30" class="node">
<title>Node30</title>
<g id="a_node30"><a xlink:href="classReporterPointSource.html" target="_top" xlink:title="A ReporterPointSource DiracKernel is used to create variable valued point sources.">
<polygon fill="white" stroke="#666666" points="1367,-78 1236,-78 1236,-48 1367,-48 1367,-78"/>
<text text-anchor="start" x="1244" y="-66" font-family="Courier,monospace" font-size="10.00">ReporterPointSource</text>
<text text-anchor="middle" x="1301.5" y="-55" font-family="Courier,monospace" font-size="10.00">&lt; Real &gt;</text>
</a>
</g>
</g>
<!-- Node27&#45;&gt;Node30 -->
<g id="edge29" class="edge">
<title>Node27&#45;&gt;Node30</title>
<path fill="none" stroke="#63b8ff" d="M1193.61,-76.57C1207.71,-74.78 1222.18,-72.95 1235.73,-71.22"/>
<polygon fill="#63b8ff" stroke="#63b8ff" points="1193.4,-73.07 1183.92,-77.8 1194.28,-80.02 1193.4,-73.07"/>
</g>
<!-- Node31 -->
<g id="node31" class="node">
<title>Node31</title>
<g id="a_node31"><a xlink:href="classVectorConstantPointSource.html" target="_top" xlink:title="A VectorConstantPointSource DiracKernel is used to add a constant source term at a point.">
<polygon fill="white" stroke="#666666" points="1385,-30 1218,-30 1218,0 1385,0 1385,-30"/>
<text text-anchor="start" x="1226" y="-18" font-family="Courier,monospace" font-size="10.00">VectorConstantPointSource</text>
<text text-anchor="middle" x="1301.5" y="-7" font-family="Courier,monospace" font-size="10.00">&lt; RealVectorValue &gt;</text>
</a>
</g>
</g>
<!-- Node27&#45;&gt;Node31 -->
<g id="edge30" class="edge">
<title>Node27&#45;&gt;Node31</title>
<path fill="none" stroke="#63b8ff" d="M1141.42,-72.15C1162.51,-62.03 1191.59,-48.74 1218,-39 1226.12,-36.01 1234.79,-33.14 1243.35,-30.49"/>
<polygon fill="#63b8ff" stroke="#63b8ff" points="1140,-68.95 1132.54,-76.47 1143.06,-75.25 1140,-68.95"/>
</g>
</g>
</svg>
        <g id="navigator" transform="translate(0 0)" fill="#404254">
                <rect fill="#f2f5e9" fill-opacity="0.5" stroke="#606060" stroke-width=".5" x="0" y="0" width="60" height="60"/>
                <use id="zoomplus" xlink:href="#zoomPlus" x="17" y="9" onmousedown="handleZoom(evt,'in')"/>
                <use id="zoomminus" xlink:href="#zoomMin" x="42" y="9" onmousedown="handleZoom(evt,'out')"/>
                <use id="reset" xlink:href="#resetDef" x="30" y="36" onmousedown="handleReset()"/>
                <g id="arrowUp" xlink:href="#dirArrow" transform="translate(30 24)" onmousedown="handlePan(0,-1)">
                  <use xlink:href="#rim" fill="#404040">
                        <set attributeName="fill" to="#808080" begin="arrowUp.mouseover" end="arrowUp.mouseout"/>
                  </use>
                  <path fill="none" stroke="white" stroke-width="1.5" d="M0,-3.0v7 M-2.5,-0.5L0,-3.0L2.5,-0.5"/>
                </g>
                <g id="arrowRight" xlink:href="#dirArrow" transform="rotate(90) translate(36 -43)" onmousedown="handlePan(1,0)">
                  <use xlink:href="#rim" fill="#404040">
                        <set attributeName="fill" to="#808080" begin="arrowRight.mouseover" end="arrowRight.mouseout"/>
                  </use>
                  <path fill="none" stroke="white" stroke-width="1.5" d="M0,-3.0v7 M-2.5,-0.5L0,-3.0L2.5,-0.5"/>
                </g>
                <g id="arrowDown" xlink:href="#dirArrow" transform="rotate(180) translate(-30 -48)" onmousedown="handlePan(0,1)">
                  <use xlink:href="#rim" fill="#404040">
                        <set attributeName="fill" to="#808080" begin="arrowDown.mouseover" end="arrowDown.mouseout"/>
                  </use>
                  <path fill="none" stroke="white" stroke-width="1.5" d="M0,-3.0v7 M-2.5,-0.5L0,-3.0L2.5,-0.5"/>
                </g>
                <g id="arrowLeft" xlink:href="#dirArrow" transform="rotate(270) translate(-36 17)" onmousedown="handlePan(-1,0)">
                  <use xlink:href="#rim" fill="#404040">
                        <set attributeName="fill" to="#808080" begin="arrowLeft.mouseover" end="arrowLeft.mouseout"/>
                  </use>
                  <path fill="none" stroke="white" stroke-width="1.5" d="M0,-3.0v7 M-2.5,-0.5L0,-3.0L2.5,-0.5"/>
                </g>
        </g>
        <svg viewBox="0 0 15 15" width="100%" height="30px" preserveAspectRatio="xMaxYMin meet">
         <g id="arrow_out" transform="scale(0.3 0.3)">
          <a xlink:href="classDiracKernelBase__inherit__graph_org.svg" target="_base">
           <rect id="button" ry="5" rx="5" y="6" x="6" height="38" width="38"
                fill="#f2f5e9" fill-opacity="0.5" stroke="#606060" stroke-width="1.0"/>
           <path id="arrow"
             d="M 11.500037,31.436501 C 11.940474,20.09759 22.043105,11.32322 32.158766,21.979434 L 37.068811,17.246167 C 37.068811,17.246167 37.088388,32 37.088388,32 L 22.160133,31.978069 C 22.160133,31.978069 26.997745,27.140456 26.997745,27.140456 C 18.528582,18.264221 13.291696,25.230495 11.500037,31.436501 z"
             style="fill:#404040;"/>
          </a>
         </g>
        </svg>
</svg>
