<?xml version="1.0" encoding="UTF-8" standalone="no"?>
<!DOCTYPE svg PUBLIC "-//W3C//DTD SVG 1.1//EN"
 "http://www.w3.org/Graphics/SVG/1.1/DTD/svg11.dtd">
<!-- Generated by graphviz version 7.0.5 (20221223.1930)
 -->
<!-- Title: AnalyticalDiffIndicator Pages: 1 -->
<!--zoomable 446 -->
<svg id="main" version="1.1" xmlns="http://www.w3.org/2000/svg" xmlns:xlink="http://www.w3.org/1999/xlink" xml:space="preserve" onload="init(evt)">
<style type="text/css"><![CDATA[
.edge:hover path { stroke: red; }
.edge:hover polygon { stroke: red; fill: red; }
]]></style>
<script type="text/javascript"><![CDATA[
var edges = document.getElementsByTagName('g');
if (edges && edges.length) {
  for (var i=0;i<edges.length;i++) {
    if (edges[i].id.substr(0,4)=='edge') {
      edges[i].setAttribute('class','edge');
    }
  }
}
]]></script>
        <defs>
                <circle id="rim" cx="0" cy="0" r="7"/>
                <circle id="rim2" cx="0" cy="0" r="3.5"/>
                <g id="zoomPlus">
                        <use xlink:href="#rim" fill="#404040">
                                <set attributeName="fill" to="#808080" begin="zoomplus.mouseover" end="zoomplus.mouseout"/>
                        </use>
                        <path d="M-4,0h8M0,-4v8" fill="none" stroke="white" stroke-width="1.5" pointer-events="none"/>
                </g>
                <g id="zoomMin">
                        <use xlink:href="#rim" fill="#404040">
                                <set attributeName="fill" to="#808080" begin="zoomminus.mouseover" end="zoomminus.mouseout"/>
                        </use>
                        <path d="M-4,0h8" fill="none" stroke="white" stroke-width="1.5" pointer-events="none"/>
                </g>
                <g id="dirArrow">
                        <path fill="none" stroke="white" stroke-width="1.5" d="M0,-3.0v7 M-2.5,-0.5L0,-3.0L2.5,-0.5"/>
                </g>
               <g id="resetDef">
                       <use xlink:href="#rim2" fill="#404040">
                               <set attributeName="fill" to="#808080" begin="reset.mouseover" end="reset.mouseout"/>
                       </use>
               </g>
        </defs>

<script type="text/javascript">
var viewWidth = 1339;
var viewHeight = 446;
var sectionId = 'dynsection-0';
</script>
<script xlink:href="svgpan.js"/>
<svg id="graph" class="graph">
<g id="viewport">
<title>AnalyticalDiffIndicator</title>
<!-- Node1 -->
<g id="node1" class="node">
<title>Node1</title>
<g id="a_node1"><a xlink:title=" ">
<polygon fill="#999999" stroke="#666666" points="1331,-122.5 1176,-122.5 1176,-103.5 1331,-103.5 1331,-122.5"/>
<text text-anchor="middle" x="1253.5" y="-110.5" font-family="Courier,monospace" font-size="10.00">AnalyticalDiffIndicator</text>
</a>
</g>
</g>
<!-- Node2 -->
<g id="node2" class="node">
<title>Node2</title>
<g id="a_node2"><a xlink:href="classElementIntegralIndicator.html" target="_top" xlink:title=" ">
<polygon fill="white" stroke="#666666" points="1140,-122.5 979,-122.5 979,-103.5 1140,-103.5 1140,-122.5"/>
<text text-anchor="middle" x="1059.5" y="-110.5" font-family="Courier,monospace" font-size="10.00">ElementIntegralIndicator</text>
</a>
</g>
</g>
<!-- Node2&#45;&gt;Node1 -->
<g id="edge1" class="edge">
<title>Node2&#45;&gt;Node1</title>
<path fill="none" stroke="#63b8ff" d="M1151.62,-113C1159.7,-113 1167.82,-113 1175.77,-113"/>
<polygon fill="#63b8ff" stroke="#63b8ff" points="1151.77,-109.5 1141.77,-113 1151.77,-116.5 1151.77,-109.5"/>
</g>
<!-- Node3 -->
<g id="node3" class="node">
<title>Node3</title>
<g id="a_node3"><a xlink:href="classElementIndicator.html" target="_top" xlink:title=" ">
<polygon fill="white" stroke="#666666" points="943,-122.5 830,-122.5 830,-103.5 943,-103.5 943,-122.5"/>
<text text-anchor="middle" x="886.5" y="-110.5" font-family="Courier,monospace" font-size="10.00">ElementIndicator</text>
</a>
</g>
</g>
<!-- Node3&#45;&gt;Node2 -->
<g id="edge2" class="edge">
<title>Node3&#45;&gt;Node2</title>
<path fill="none" stroke="#63b8ff" d="M954.83,-113C962.7,-113 970.79,-113 978.8,-113"/>
<polygon fill="#63b8ff" stroke="#63b8ff" points="955.01,-109.5 945.01,-113 955.01,-116.5 955.01,-109.5"/>
</g>
<!-- Node4 -->
<g id="node4" class="node">
<title>Node4</title>
<g id="a_node4"><a xlink:href="classIndicator.html" target="_top" xlink:title=" ">
<polygon fill="white" stroke="#666666" points="755,-215.5 684,-215.5 684,-196.5 755,-196.5 755,-215.5"/>
<text text-anchor="middle" x="719.5" y="-203.5" font-family="Courier,monospace" font-size="10.00">Indicator</text>
</a>
</g>
</g>
<!-- Node4&#45;&gt;Node3 -->
<g id="edge3" class="edge">
<title>Node4&#45;&gt;Node3</title>
<path fill="none" stroke="#63b8ff" d="M766.21,-198.16C775.68,-195.62 785.38,-192.31 794,-188 828.18,-170.92 860.99,-139.07 876.38,-122.93"/>
<polygon fill="#63b8ff" stroke="#63b8ff" points="765.65,-194.69 756.75,-200.44 767.29,-201.5 765.65,-194.69"/>
</g>
<!-- Node5 -->
<g id="node5" class="node">
<title>Node5</title>
<g id="a_node5"><a xlink:href="classMooseObject.html" target="_top" xlink:title="Every object that can be built by the factory should be derived from this class.">
<polygon fill="white" stroke="#666666" points="546,-363.5 463,-363.5 463,-344.5 546,-344.5 546,-363.5"/>
<text text-anchor="middle" x="504.5" y="-351.5" font-family="Courier,monospace" font-size="10.00">MooseObject</text>
</a>
</g>
</g>
<!-- Node5&#45;&gt;Node4 -->
<g id="edge4" class="edge">
<title>Node5&#45;&gt;Node4</title>
<path fill="none" stroke="#63b8ff" d="M557.39,-352.07C574.69,-349.63 593.5,-344.91 609,-336 661.45,-305.86 700.12,-240.63 713.44,-215.83"/>
<polygon fill="#63b8ff" stroke="#63b8ff" points="557.31,-348.56 547.78,-353.19 558.12,-355.51 557.31,-348.56"/>
</g>
<!-- Node6 -->
<g id="node6" class="node">
<title>Node6</title>
<g id="a_node6"><a xlink:href="classMooseBase.html" target="_top" xlink:title="Base class for everything in MOOSE with a name and a type.">
<polygon fill="white" stroke="#666666" points="310,-437.5 239,-437.5 239,-418.5 310,-418.5 310,-437.5"/>
<text text-anchor="middle" x="274.5" y="-425.5" font-family="Courier,monospace" font-size="10.00">MooseBase</text>
</a>
</g>
</g>
<!-- Node6&#45;&gt;Node5 -->
<g id="edge5" class="edge">
<title>Node6&#45;&gt;Node5</title>
<path fill="none" stroke="#63b8ff" d="M321.54,-420.28C335.32,-417.53 350.39,-414.08 364,-410 407,-397.11 455.19,-376.26 482.19,-363.97"/>
<polygon fill="#63b8ff" stroke="#63b8ff" points="320.97,-416.82 311.81,-422.14 322.29,-423.7 320.97,-416.82"/>
</g>
<!-- Node7 -->
<g id="node7" class="node">
<title>Node7</title>
<g id="a_node7"><a xlink:href="classMooseBaseParameterInterface.html" target="_top" xlink:title="Every object that can be built by the factory should be derived from this class.">
<polygon fill="white" stroke="#666666" points="364,-400.5 185,-400.5 185,-381.5 364,-381.5 364,-400.5"/>
<text text-anchor="middle" x="274.5" y="-388.5" font-family="Courier,monospace" font-size="10.00">MooseBaseParameterInterface</text>
</a>
</g>
</g>
<!-- Node7&#45;&gt;Node5 -->
<g id="edge6" class="edge">
<title>Node7&#45;&gt;Node5</title>
<path fill="none" stroke="#63b8ff" d="M347.88,-379.25C385.73,-373.11 430.68,-365.82 462.51,-360.65"/>
<polygon fill="#63b8ff" stroke="#63b8ff" points="347.7,-375.74 338.39,-380.79 348.83,-382.65 347.7,-375.74"/>
</g>
<!-- Node8 -->
<g id="node8" class="node">
<title>Node8</title>
<g id="a_node8"><a xlink:href="classMooseBaseErrorInterface.html" target="_top" xlink:title="Interface that provides APIs to output errors/warnings/info messages.">
<polygon fill="white" stroke="#666666" points="352,-363.5 197,-363.5 197,-344.5 352,-344.5 352,-363.5"/>
<text text-anchor="middle" x="274.5" y="-351.5" font-family="Courier,monospace" font-size="10.00">MooseBaseErrorInterface</text>
</a>
</g>
</g>
<!-- Node8&#45;&gt;Node5 -->
<g id="edge7" class="edge">
<title>Node8&#45;&gt;Node5</title>
<path fill="none" stroke="#63b8ff" d="M363.8,-354C397.92,-354 435.28,-354 462.77,-354"/>
<polygon fill="#63b8ff" stroke="#63b8ff" points="363.89,-350.5 353.89,-354 363.89,-357.5 363.89,-350.5"/>
</g>
<!-- Node9 -->
<g id="node9" class="node">
<title>Node9</title>
<g id="a_node9"><a xlink:href="classConsoleStreamInterface.html" target="_top" xlink:title="An inteface for the _console for outputting to the Console object.">
<polygon fill="white" stroke="#666666" points="149,-363.5 0,-363.5 0,-344.5 149,-344.5 149,-363.5"/>
<text text-anchor="middle" x="74.5" y="-351.5" font-family="Courier,monospace" font-size="10.00">ConsoleStreamInterface</text>
</a>
</g>
</g>
<!-- Node9&#45;&gt;Node8 -->
<g id="edge8" class="edge">
<title>Node9&#45;&gt;Node8</title>
<path fill="none" stroke="#63b8ff" d="M160.62,-354C172.62,-354 184.9,-354 196.73,-354"/>
<polygon fill="#63b8ff" stroke="#63b8ff" points="160.74,-350.5 150.74,-354 160.74,-357.5 160.74,-350.5"/>
</g>
<!-- Node10 -->
<g id="node10" class="node">
<title>Node10</title>
<g id="a_node10"><a xlink:title=" ">
<polygon fill="white" stroke="#666666" points="352,-326.5 197,-326.5 197,-307.5 352,-307.5 352,-326.5"/>
<text text-anchor="middle" x="274.5" y="-314.5" font-family="Courier,monospace" font-size="10.00">libMesh::ParallelObject</text>
</a>
</g>
</g>
<!-- Node10&#45;&gt;Node5 -->
<g id="edge9" class="edge">
<title>Node10&#45;&gt;Node5</title>
<path fill="none" stroke="#63b8ff" d="M347.88,-328.75C385.73,-334.89 430.68,-342.18 462.51,-347.35"/>
<polygon fill="#63b8ff" stroke="#63b8ff" points="348.83,-325.35 338.39,-327.21 347.7,-332.26 348.83,-325.35"/>
</g>
<!-- Node11 -->
<g id="node11" class="node">
<title>Node11</title>
<g id="a_node11"><a xlink:href="classDataFileInterface.html" target="_top" xlink:title=" ">
<polygon fill="white" stroke="#666666" points="337,-289 212,-289 212,-259 337,-259 337,-289"/>
<text text-anchor="start" x="220" y="-277" font-family="Courier,monospace" font-size="10.00">DataFileInterface&lt;</text>
<text text-anchor="middle" x="274.5" y="-266" font-family="Courier,monospace" font-size="10.00"> MooseObject &gt;</text>
</a>
</g>
</g>
<!-- Node11&#45;&gt;Node5 -->
<g id="edge10" class="edge">
<title>Node11&#45;&gt;Node5</title>
<path fill="none" stroke="#63b8ff" d="M347.62,-290.85C353.32,-293.23 358.86,-295.94 364,-299 383.71,-310.74 379.71,-325.29 400,-336 419.11,-346.09 442.71,-350.69 462.54,-352.73"/>
<polygon fill="#63b8ff" stroke="#63b8ff" points="349.23,-287.72 338.64,-287.44 346.74,-294.26 349.23,-287.72"/>
</g>
<!-- Node12 -->
<g id="node12" class="node">
<title>Node12</title>
<g id="a_node12"><a xlink:href="classBlockRestrictable.html" target="_top" xlink:title="An interface that restricts an object to subdomains via the &#39;blocks&#39; input parameter.">
<polygon fill="white" stroke="#666666" points="564,-326.5 445,-326.5 445,-307.5 564,-307.5 564,-326.5"/>
<text text-anchor="middle" x="504.5" y="-314.5" font-family="Courier,monospace" font-size="10.00">BlockRestrictable</text>
</a>
</g>
</g>
<!-- Node12&#45;&gt;Node4 -->
<g id="edge11" class="edge">
<title>Node12&#45;&gt;Node4</title>
<path fill="none" stroke="#63b8ff" d="M575.39,-310.08C586.94,-307.47 598.55,-303.9 609,-299 653.04,-278.37 693.52,-235.21 710.31,-215.81"/>
<polygon fill="#63b8ff" stroke="#63b8ff" points="574.96,-306.6 565.85,-312 576.34,-313.46 574.96,-306.6"/>
</g>
<!-- Node13 -->
<g id="node13" class="node">
<title>Node13</title>
<g id="a_node13"><a xlink:href="classSetupInterface.html" target="_top" xlink:title=" ">
<polygon fill="white" stroke="#666666" points="555,-289.5 454,-289.5 454,-270.5 555,-270.5 555,-289.5"/>
<text text-anchor="middle" x="504.5" y="-277.5" font-family="Courier,monospace" font-size="10.00">SetupInterface</text>
</a>
</g>
</g>
<!-- Node13&#45;&gt;Node4 -->
<g id="edge12" class="edge">
<title>Node13&#45;&gt;Node4</title>
<path fill="none" stroke="#63b8ff" d="M566.61,-272.51C580.73,-269.92 595.56,-266.49 609,-262 644.24,-250.23 682.16,-228.59 702.84,-215.93"/>
<polygon fill="#63b8ff" stroke="#63b8ff" points="566.23,-269.02 556.97,-274.15 567.41,-275.92 566.23,-269.02"/>
</g>
<!-- Node14 -->
<g id="node14" class="node">
<title>Node14</title>
<g id="a_node14"><a xlink:href="classFunctionInterface.html" target="_top" xlink:title="Interface for objects that need to use functions.">
<polygon fill="white" stroke="#666666" points="564,-252.5 445,-252.5 445,-233.5 564,-233.5 564,-252.5"/>
<text text-anchor="middle" x="504.5" y="-240.5" font-family="Courier,monospace" font-size="10.00">FunctionInterface</text>
</a>
</g>
</g>
<!-- Node14&#45;&gt;Node4 -->
<g id="edge13" class="edge">
<title>Node14&#45;&gt;Node4</title>
<path fill="none" stroke="#63b8ff" d="M573.97,-231.11C610.58,-224.75 654.07,-217.19 683.72,-212.04"/>
<polygon fill="#63b8ff" stroke="#63b8ff" points="573.6,-227.62 564.35,-232.78 574.8,-234.51 573.6,-227.62"/>
</g>
<!-- Node15 -->
<g id="node15" class="node">
<title>Node15</title>
<g id="a_node15"><a xlink:href="classUserObjectInterface.html" target="_top" xlink:title="Interface for objects that need to use UserObjects.">
<polygon fill="white" stroke="#666666" points="570,-215.5 439,-215.5 439,-196.5 570,-196.5 570,-215.5"/>
<text text-anchor="middle" x="504.5" y="-203.5" font-family="Courier,monospace" font-size="10.00">UserObjectInterface</text>
</a>
</g>
</g>
<!-- Node15&#45;&gt;Node4 -->
<g id="edge14" class="edge">
<title>Node15&#45;&gt;Node4</title>
<path fill="none" stroke="#63b8ff" d="M581.42,-206C616.34,-206 656.05,-206 683.71,-206"/>
<polygon fill="#63b8ff" stroke="#63b8ff" points="581.79,-202.5 571.79,-206 581.79,-209.5 581.79,-202.5"/>
</g>
<!-- Node16 -->
<g id="node16" class="node">
<title>Node16</title>
<g id="a_node16"><a xlink:href="classMooseVariableDependencyInterface.html" target="_top" xlink:title=" ">
<polygon fill="white" stroke="#666666" points="609,-178.5 400,-178.5 400,-159.5 609,-159.5 609,-178.5"/>
<text text-anchor="middle" x="504.5" y="-166.5" font-family="Courier,monospace" font-size="10.00">MooseVariableDependencyInterface</text>
</a>
</g>
</g>
<!-- Node16&#45;&gt;Node4 -->
<g id="edge15" class="edge">
<title>Node16&#45;&gt;Node4</title>
<path fill="none" stroke="#63b8ff" d="M573.97,-180.89C610.58,-187.25 654.07,-194.81 683.72,-199.96"/>
<polygon fill="#63b8ff" stroke="#63b8ff" points="574.8,-177.49 564.35,-179.22 573.6,-184.38 574.8,-177.49"/>
</g>
<!-- Node17 -->
<g id="node17" class="node">
<title>Node17</title>
<g id="a_node17"><a xlink:href="classRestartable.html" target="_top" xlink:title="A class for creating restricted objects.">
<polygon fill="white" stroke="#666666" points="546,-141.5 463,-141.5 463,-122.5 546,-122.5 546,-141.5"/>
<text text-anchor="middle" x="504.5" y="-129.5" font-family="Courier,monospace" font-size="10.00">Restartable</text>
</a>
</g>
</g>
<!-- Node17&#45;&gt;Node4 -->
<g id="edge16" class="edge">
<title>Node17&#45;&gt;Node4</title>
<path fill="none" stroke="#63b8ff" d="M557.48,-135.21C574.64,-137.89 593.33,-142.64 609,-151 629.24,-161.8 625.08,-176.61 645,-188 656.75,-194.72 670.94,-198.95 683.71,-201.6"/>
<polygon fill="#63b8ff" stroke="#63b8ff" points="558.35,-131.79 547.97,-133.93 557.42,-138.73 558.35,-131.79"/>
</g>
<!-- Node18 -->
<g id="node18" class="node">
<title>Node18</title>
<g id="a_node18"><a xlink:href="classOutputInterface.html" target="_top" xlink:title="A class to provide an common interface to objects requiring &quot;outputs&quot; option.">
<polygon fill="white" stroke="#666666" points="558,-104.5 451,-104.5 451,-85.5 558,-85.5 558,-104.5"/>
<text text-anchor="middle" x="504.5" y="-92.5" font-family="Courier,monospace" font-size="10.00">OutputInterface</text>
</a>
</g>
</g>
<!-- Node18&#45;&gt;Node4 -->
<g id="edge17" class="edge">
<title>Node18&#45;&gt;Node4</title>
<path fill="none" stroke="#63b8ff" d="M569.51,-97.27C583.57,-100.23 597.64,-105.37 609,-114 638.12,-136.13 616.54,-165.03 645,-188 655.84,-196.75 670.3,-201.34 683.53,-203.71"/>
<polygon fill="#63b8ff" stroke="#63b8ff" points="570.23,-93.84 559.78,-95.58 569.04,-100.74 570.23,-93.84"/>
</g>
<!-- Node19 -->
<g id="node19" class="node">
<title>Node19</title>
<g id="a_node19"><a xlink:href="classMaterialPropertyInterface.html" target="_top" xlink:title="An interface for accessing Materials.">
<polygon fill="white" stroke="#666666" points="588,-67.5 421,-67.5 421,-48.5 588,-48.5 588,-67.5"/>
<text text-anchor="middle" x="504.5" y="-55.5" font-family="Courier,monospace" font-size="10.00">MaterialPropertyInterface</text>
</a>
</g>
</g>
<!-- Node19&#45;&gt;Node4 -->
<g id="edge18" class="edge">
<title>Node19&#45;&gt;Node4</title>
<path fill="none" stroke="#63b8ff" d="M598.61,-69.58C602.3,-71.73 605.79,-74.19 609,-77 648.01,-111.17 607.01,-152.7 645,-188 655.39,-197.66 670.1,-202.37 683.63,-204.59"/>
<polygon fill="#63b8ff" stroke="#63b8ff" points="600.32,-66.52 589.8,-65.28 597.25,-72.81 600.32,-66.52"/>
</g>
<!-- Node20 -->
<g id="node20" class="node">
<title>Node20</title>
<g id="a_node20"><a xlink:href="classTransientInterface.html" target="_top" xlink:title="Interface for objects that needs transient capabilities.">
<polygon fill="white" stroke="#666666" points="782,-178.5 657,-178.5 657,-159.5 782,-159.5 782,-178.5"/>
<text text-anchor="middle" x="719.5" y="-166.5" font-family="Courier,monospace" font-size="10.00">TransientInterface</text>
</a>
</g>
</g>
<!-- Node20&#45;&gt;Node3 -->
<g id="edge19" class="edge">
<title>Node20&#45;&gt;Node3</title>
<path fill="none" stroke="#63b8ff" d="M776.98,-156.1C782.76,-154.51 788.52,-152.8 794,-151 818.68,-142.91 846.08,-131.14 864.4,-122.85"/>
<polygon fill="#63b8ff" stroke="#63b8ff" points="776.13,-152.71 767.36,-158.65 777.92,-159.48 776.13,-152.71"/>
</g>
<!-- Node21 -->
<g id="node21" class="node">
<title>Node21</title>
<g id="a_node21"><a xlink:href="classPostprocessorInterface.html" target="_top" xlink:title="Interface class for classes which interact with Postprocessors.">
<polygon fill="white" stroke="#666666" points="794,-141.5 645,-141.5 645,-122.5 794,-122.5 794,-141.5"/>
<text text-anchor="middle" x="719.5" y="-129.5" font-family="Courier,monospace" font-size="10.00">PostprocessorInterface</text>
</a>
</g>
</g>
<!-- Node21&#45;&gt;Node3 -->
<g id="edge20" class="edge">
<title>Node21&#45;&gt;Node3</title>
<path fill="none" stroke="#63b8ff" d="M805.73,-122.19C813.82,-121.25 821.87,-120.33 829.57,-119.44"/>
<polygon fill="#63b8ff" stroke="#63b8ff" points="805.35,-118.71 795.82,-123.33 806.15,-125.66 805.35,-118.71"/>
</g>
<!-- Node22 -->
<g id="node22" class="node">
<title>Node22</title>
<g id="a_node22"><a xlink:href="classCoupleable.html" target="_top" xlink:title="Interface for objects that needs coupling capabilities.">
<polygon fill="white" stroke="#666666" points="758,-104.5 681,-104.5 681,-85.5 758,-85.5 758,-104.5"/>
<text text-anchor="middle" x="719.5" y="-92.5" font-family="Courier,monospace" font-size="10.00">Coupleable</text>
</a>
</g>
</g>
<!-- Node22&#45;&gt;Node3 -->
<g id="edge21" class="edge">
<title>Node22&#45;&gt;Node3</title>
<path fill="none" stroke="#63b8ff" d="M769.7,-100.37C788.56,-102.42 810.22,-104.79 829.67,-106.91"/>
<polygon fill="#63b8ff" stroke="#63b8ff" points="770.18,-96.9 759.86,-99.29 769.42,-103.86 770.18,-96.9"/>
</g>
<!-- Node23 -->
<g id="node23" class="node">
<title>Node23</title>
<g id="a_node23"><a xlink:href="classScalarCoupleable.html" target="_top" xlink:title="Interface for objects that needs scalar coupling capabilities.">
<polygon fill="white" stroke="#666666" points="776,-67.5 663,-67.5 663,-48.5 776,-48.5 776,-67.5"/>
<text text-anchor="middle" x="719.5" y="-55.5" font-family="Courier,monospace" font-size="10.00">ScalarCoupleable</text>
</a>
</g>
</g>
<!-- Node23&#45;&gt;Node3 -->
<g id="edge22" class="edge">
<title>Node23&#45;&gt;Node3</title>
<path fill="none" stroke="#63b8ff" d="M773.52,-70.88C780.45,-72.8 787.42,-74.86 794,-77 817.71,-84.7 844.13,-95.32 862.47,-103.03"/>
<polygon fill="#63b8ff" stroke="#63b8ff" points="774.76,-67.59 764.19,-68.37 772.94,-74.35 774.76,-67.59"/>
</g>
<!-- Node24 -->
<g id="node24" class="node">
<title>Node24</title>
<g id="a_node24"><a xlink:href="classMooseVariableInterface.html" target="_top" xlink:title=" ">
<polygon fill="white" stroke="#666666" points="794,-30 645,-30 645,0 794,0 794,-30"/>
<text text-anchor="start" x="653" y="-18" font-family="Courier,monospace" font-size="10.00">MooseVariableInterface</text>
<text text-anchor="middle" x="719.5" y="-7" font-family="Courier,monospace" font-size="10.00">&lt; Real &gt;</text>
</a>
</g>
</g>
<!-- Node24&#45;&gt;Node3 -->
<g id="edge23" class="edge">
<title>Node24&#45;&gt;Node3</title>
<path fill="none" stroke="#63b8ff" d="M783.54,-34.8C787.13,-36.43 790.65,-38.17 794,-40 826.8,-57.95 859.72,-87.81 875.64,-103.18"/>
<polygon fill="#63b8ff" stroke="#63b8ff" points="785.22,-31.71 774.65,-31.04 782.5,-38.16 785.22,-31.71"/>
</g>
</g>
</svg>
        <g id="navigator" transform="translate(0 0)" fill="#404254">
                <rect fill="#f2f5e9" fill-opacity="0.5" stroke="#606060" stroke-width=".5" x="0" y="0" width="60" height="60"/>
                <use id="zoomplus" xlink:href="#zoomPlus" x="17" y="9" onmousedown="handleZoom(evt,'in')"/>
                <use id="zoomminus" xlink:href="#zoomMin" x="42" y="9" onmousedown="handleZoom(evt,'out')"/>
                <use id="reset" xlink:href="#resetDef" x="30" y="36" onmousedown="handleReset()"/>
                <g id="arrowUp" xlink:href="#dirArrow" transform="translate(30 24)" onmousedown="handlePan(0,-1)">
                  <use xlink:href="#rim" fill="#404040">
                        <set attributeName="fill" to="#808080" begin="arrowUp.mouseover" end="arrowUp.mouseout"/>
                  </use>
                  <path fill="none" stroke="white" stroke-width="1.5" d="M0,-3.0v7 M-2.5,-0.5L0,-3.0L2.5,-0.5"/>
                </g>
                <g id="arrowRight" xlink:href="#dirArrow" transform="rotate(90) translate(36 -43)" onmousedown="handlePan(1,0)">
                  <use xlink:href="#rim" fill="#404040">
                        <set attributeName="fill" to="#808080" begin="arrowRight.mouseover" end="arrowRight.mouseout"/>
                  </use>
                  <path fill="none" stroke="white" stroke-width="1.5" d="M0,-3.0v7 M-2.5,-0.5L0,-3.0L2.5,-0.5"/>
                </g>
                <g id="arrowDown" xlink:href="#dirArrow" transform="rotate(180) translate(-30 -48)" onmousedown="handlePan(0,1)">
                  <use xlink:href="#rim" fill="#404040">
                        <set attributeName="fill" to="#808080" begin="arrowDown.mouseover" end="arrowDown.mouseout"/>
                  </use>
                  <path fill="none" stroke="white" stroke-width="1.5" d="M0,-3.0v7 M-2.5,-0.5L0,-3.0L2.5,-0.5"/>
                </g>
                <g id="arrowLeft" xlink:href="#dirArrow" transform="rotate(270) translate(-36 17)" onmousedown="handlePan(-1,0)">
                  <use xlink:href="#rim" fill="#404040">
                        <set attributeName="fill" to="#808080" begin="arrowLeft.mouseover" end="arrowLeft.mouseout"/>
                  </use>
                  <path fill="none" stroke="white" stroke-width="1.5" d="M0,-3.0v7 M-2.5,-0.5L0,-3.0L2.5,-0.5"/>
                </g>
        </g>
        <svg viewBox="0 0 15 15" width="100%" height="30px" preserveAspectRatio="xMaxYMin meet">
         <g id="arrow_out" transform="scale(0.3 0.3)">
          <a xlink:href="classAnalyticalDiffIndicator__inherit__graph_org.svg" target="_base">
           <rect id="button" ry="5" rx="5" y="6" x="6" height="38" width="38"
                fill="#f2f5e9" fill-opacity="0.5" stroke="#606060" stroke-width="1.0"/>
           <path id="arrow"
             d="M 11.500037,31.436501 C 11.940474,20.09759 22.043105,11.32322 32.158766,21.979434 L 37.068811,17.246167 C 37.068811,17.246167 37.088388,32 37.088388,32 L 22.160133,31.978069 C 22.160133,31.978069 26.997745,27.140456 26.997745,27.140456 C 18.528582,18.264221 13.291696,25.230495 11.500037,31.436501 z"
             style="fill:#404040;"/>
          </a>
         </g>
        </svg>
</svg>
