<?xml version="1.0" encoding="UTF-8" standalone="no"?>
<!DOCTYPE svg PUBLIC "-//W3C//DTD SVG 1.1//EN"
 "http://www.w3.org/Graphics/SVG/1.1/DTD/svg11.dtd">
<!-- Generated by graphviz version 7.0.5 (20221223.1930)
 -->
<!-- Title: MooseVariableFieldBase Pages: 1 -->
<!--zoomable 511 -->
<svg id="main" version="1.1" xmlns="http://www.w3.org/2000/svg" xmlns:xlink="http://www.w3.org/1999/xlink" xml:space="preserve" onload="init(evt)">
<style type="text/css"><![CDATA[
.edge:hover path { stroke: red; }
.edge:hover polygon { stroke: red; fill: red; }
]]></style>
<script type="text/javascript"><![CDATA[
var edges = document.getElementsByTagName('g');
if (edges && edges.length) {
  for (var i=0;i<edges.length;i++) {
    if (edges[i].id.substr(0,4)=='edge') {
      edges[i].setAttribute('class','edge');
    }
  }
}
]]></script>
        <defs>
                <circle id="rim" cx="0" cy="0" r="7"/>
                <circle id="rim2" cx="0" cy="0" r="3.5"/>
                <g id="zoomPlus">
                        <use xlink:href="#rim" fill="#404040">
                                <set attributeName="fill" to="#808080" begin="zoomplus.mouseover" end="zoomplus.mouseout"/>
                        </use>
                        <path d="M-4,0h8M0,-4v8" fill="none" stroke="white" stroke-width="1.5" pointer-events="none"/>
                </g>
                <g id="zoomMin">
                        <use xlink:href="#rim" fill="#404040">
                                <set attributeName="fill" to="#808080" begin="zoomminus.mouseover" end="zoomminus.mouseout"/>
                        </use>
                        <path d="M-4,0h8" fill="none" stroke="white" stroke-width="1.5" pointer-events="none"/>
                </g>
                <g id="dirArrow">
                        <path fill="none" stroke="white" stroke-width="1.5" d="M0,-3.0v7 M-2.5,-0.5L0,-3.0L2.5,-0.5"/>
                </g>
               <g id="resetDef">
                       <use xlink:href="#rim2" fill="#404040">
                               <set attributeName="fill" to="#808080" begin="reset.mouseover" end="reset.mouseout"/>
                       </use>
               </g>
        </defs>

<script type="text/javascript">
var viewWidth = 1494;
var viewHeight = 511;
var sectionId = 'dynsection-0';
</script>
<script xlink:href="svgpan.js"/>
<svg id="graph" class="graph">
<g id="viewport">
<title>MooseVariableFieldBase</title>
<!-- Node1 -->
<g id="node1" class="node">
<title>Node1</title>
<g id="a_node1"><a xlink:title="This class provides an interface for common operations on field variables of both FE and FV types wit...">
<polygon fill="#999999" stroke="#666666" points="859,-373 710,-373 710,-354 859,-354 859,-373"/>
<text text-anchor="middle" x="784.5" y="-361" font-family="Courier,monospace" font-size="10.00">MooseVariableFieldBase</text>
</a>
</g>
</g>
<!-- Node13 -->
<g id="node13" class="node">
<title>Node13</title>
<g id="a_node13"><a xlink:href="classMooseVariableField.html" target="_top" xlink:title=" ">
<polygon fill="white" stroke="#666666" points="1035,-488.5 910,-488.5 910,-458.5 1035,-458.5 1035,-488.5"/>
<text text-anchor="start" x="918" y="-476.5" font-family="Courier,monospace" font-size="10.00">MooseVariableField</text>
<text text-anchor="middle" x="972.5" y="-465.5" font-family="Courier,monospace" font-size="10.00">&lt; Real &gt;</text>
</a>
</g>
</g>
<!-- Node1&#45;&gt;Node13 -->
<g id="edge12" class="edge">
<title>Node1&#45;&gt;Node13</title>
<path fill="none" stroke="#63b8ff" d="M803.61,-381.15C824.21,-400.37 859.6,-430.85 895,-449.5 901.03,-452.68 907.56,-455.52 914.17,-458.04"/>
<polygon fill="#63b8ff" stroke="#63b8ff" points="806.24,-378.82 796.58,-374.47 801.42,-383.9 806.24,-378.82"/>
</g>
<!-- Node14 -->
<g id="node14" class="node">
<title>Node14</title>
<g id="a_node14"><a xlink:href="classMooseVariableField.html" target="_top" xlink:title=" ">
<polygon fill="white" stroke="#666666" points="1050,-440 895,-440 895,-421 1050,-421 1050,-440"/>
<text text-anchor="middle" x="972.5" y="-428" font-family="Courier,monospace" font-size="10.00">MooseVariableField&lt; T &gt;</text>
</a>
</g>
</g>
<!-- Node1&#45;&gt;Node14 -->
<g id="edge13" class="edge">
<title>Node1&#45;&gt;Node14</title>
<path fill="none" stroke="#63b8ff" d="M815.49,-378.3C837.19,-388.6 867.43,-402.11 895,-411.5 904.84,-414.85 915.59,-417.89 925.83,-420.5"/>
<polygon fill="#63b8ff" stroke="#63b8ff" points="817.17,-375.22 806.64,-374.05 814.14,-381.53 817.17,-375.22"/>
</g>
<!-- Node15 -->
<g id="node15" class="node">
<title>Node15</title>
<g id="a_node15"><a xlink:href="classMooseVariableField.html" target="_top" xlink:title=" ">
<polygon fill="white" stroke="#666666" points="1038,-402.5 907,-402.5 907,-372.5 1038,-372.5 1038,-402.5"/>
<text text-anchor="start" x="915" y="-390.5" font-family="Courier,monospace" font-size="10.00">MooseVariableField</text>
<text text-anchor="middle" x="972.5" y="-379.5" font-family="Courier,monospace" font-size="10.00">&lt; RealVectorValue &gt;</text>
</a>
</g>
</g>
<!-- Node1&#45;&gt;Node15 -->
<g id="edge14" class="edge">
<title>Node1&#45;&gt;Node15</title>
<path fill="none" stroke="#63b8ff" d="M870.36,-374.45C882.51,-376.02 894.85,-377.61 906.54,-379.12"/>
<polygon fill="#63b8ff" stroke="#63b8ff" points="871.15,-371.02 860.78,-373.21 870.25,-377.96 871.15,-371.02"/>
</g>
<!-- Node16 -->
<g id="node16" class="node">
<title>Node16</title>
<g id="a_node16"><a xlink:href="classMooseVariableField.html" target="_top" xlink:title=" ">
<polygon fill="white" stroke="#666666" points="1038,-354.5 907,-354.5 907,-324.5 1038,-324.5 1038,-354.5"/>
<text text-anchor="start" x="915" y="-342.5" font-family="Courier,monospace" font-size="10.00">MooseVariableField</text>
<text text-anchor="middle" x="972.5" y="-331.5" font-family="Courier,monospace" font-size="10.00">&lt; RealEigenVector &gt;</text>
</a>
</g>
</g>
<!-- Node1&#45;&gt;Node16 -->
<g id="edge15" class="edge">
<title>Node1&#45;&gt;Node16</title>
<path fill="none" stroke="#63b8ff" d="M870.36,-352.55C882.51,-350.98 894.85,-349.39 906.54,-347.88"/>
<polygon fill="#63b8ff" stroke="#63b8ff" points="870.25,-349.04 860.78,-353.79 871.15,-355.98 870.25,-349.04"/>
</g>
<!-- Node17 -->
<g id="node17" class="node">
<title>Node17</title>
<g id="a_node17"><a xlink:href="classMooseVariableField.html" target="_top" xlink:title=" ">
<polygon fill="white" stroke="#666666" points="1041,-306.5 904,-306.5 904,-276.5 1041,-276.5 1041,-306.5"/>
<text text-anchor="start" x="912" y="-294.5" font-family="Courier,monospace" font-size="10.00">MooseVariableField</text>
<text text-anchor="middle" x="972.5" y="-283.5" font-family="Courier,monospace" font-size="10.00">&lt; ComputeValueType &gt;</text>
</a>
</g>
</g>
<!-- Node1&#45;&gt;Node17 -->
<g id="edge16" class="edge">
<title>Node1&#45;&gt;Node17</title>
<path fill="none" stroke="#63b8ff" d="M816.47,-348.84C838.2,-338.83 868.06,-325.59 895,-315.5 902.95,-312.52 911.46,-309.6 919.8,-306.87"/>
<polygon fill="#63b8ff" stroke="#63b8ff" points="815.18,-345.58 807.59,-352.97 818.13,-351.93 815.18,-345.58"/>
</g>
<!-- Node18 -->
<g id="node18" class="node">
<title>Node18</title>
<g id="a_node18"><a xlink:href="classMooseVariableField.html" target="_top" xlink:title="Class for stuff related to variables.">
<polygon fill="white" stroke="#666666" points="1035,-258.5 910,-258.5 910,-228.5 1035,-228.5 1035,-258.5"/>
<text text-anchor="start" x="918" y="-246.5" font-family="Courier,monospace" font-size="10.00">MooseVariableField</text>
<text text-anchor="middle" x="972.5" y="-235.5" font-family="Courier,monospace" font-size="10.00">&lt; OutputType &gt;</text>
</a>
</g>
</g>
<!-- Node1&#45;&gt;Node18 -->
<g id="edge17" class="edge">
<title>Node1&#45;&gt;Node18</title>
<path fill="none" stroke="#63b8ff" d="M801.67,-345.31C821.64,-323.87 857.59,-288.52 895,-267.5 900.7,-264.3 906.89,-261.46 913.19,-258.96"/>
<polygon fill="#63b8ff" stroke="#63b8ff" points="799.31,-342.7 795.15,-352.44 804.48,-347.42 799.31,-342.7"/>
</g>
<!-- Node2 -->
<g id="node2" class="node">
<title>Node2</title>
<g id="a_node2"><a xlink:href="classMooseVariableBase.html" target="_top" xlink:title=" ">
<polygon fill="white" stroke="#666666" points="674,-373 555,-373 555,-354 674,-354 674,-373"/>
<text text-anchor="middle" x="614.5" y="-361" font-family="Courier,monospace" font-size="10.00">MooseVariableBase</text>
</a>
</g>
</g>
<!-- Node2&#45;&gt;Node1 -->
<g id="edge1" class="edge">
<title>Node2&#45;&gt;Node1</title>
<path fill="none" stroke="#63b8ff" d="M685.72,-363.5C693.64,-363.5 701.74,-363.5 709.71,-363.5"/>
<polygon fill="#63b8ff" stroke="#63b8ff" points="685.77,-360 675.77,-363.5 685.77,-367 685.77,-360"/>
</g>
<!-- Node3 -->
<g id="node3" class="node">
<title>Node3</title>
<g id="a_node3"><a xlink:href="classMooseObject.html" target="_top" xlink:title="Every object that can be built by the factory should be derived from this class.">
<polygon fill="white" stroke="#666666" points="501,-429 418,-429 418,-410 501,-410 501,-429"/>
<text text-anchor="middle" x="459.5" y="-417" font-family="Courier,monospace" font-size="10.00">MooseObject</text>
</a>
</g>
</g>
<!-- Node3&#45;&gt;Node2 -->
<g id="edge2" class="edge">
<title>Node3&#45;&gt;Node2</title>
<path fill="none" stroke="#63b8ff" d="M503.08,-406C508.45,-404.2 513.87,-402.34 519,-400.5 543.05,-391.89 570.18,-381.17 589.17,-373.48"/>
<polygon fill="#63b8ff" stroke="#63b8ff" points="502.03,-402.66 493.63,-409.11 504.22,-409.31 502.03,-402.66"/>
</g>
<!-- Node4 -->
<g id="node4" class="node">
<title>Node4</title>
<g id="a_node4"><a xlink:href="classMooseBase.html" target="_top" xlink:title="Base class for everything in MOOSE with a name and a type.">
<polygon fill="white" stroke="#666666" points="310,-503 239,-503 239,-484 310,-484 310,-503"/>
<text text-anchor="middle" x="274.5" y="-491" font-family="Courier,monospace" font-size="10.00">MooseBase</text>
</a>
</g>
</g>
<!-- Node4&#45;&gt;Node3 -->
<g id="edge3" class="edge">
<title>Node4&#45;&gt;Node3</title>
<path fill="none" stroke="#63b8ff" d="M321.62,-487.14C335.52,-484.42 350.63,-480.65 364,-475.5 394.96,-463.57 427.49,-441.99 445.15,-429.38"/>
<polygon fill="#63b8ff" stroke="#63b8ff" points="321.01,-483.69 311.79,-488.91 322.25,-490.58 321.01,-483.69"/>
</g>
<!-- Node5 -->
<g id="node5" class="node">
<title>Node5</title>
<g id="a_node5"><a xlink:href="classMooseBaseParameterInterface.html" target="_top" xlink:title="Every object that can be built by the factory should be derived from this class.">
<polygon fill="white" stroke="#666666" points="364,-466 185,-466 185,-447 364,-447 364,-466"/>
<text text-anchor="middle" x="274.5" y="-454" font-family="Courier,monospace" font-size="10.00">MooseBaseParameterInterface</text>
</a>
</g>
</g>
<!-- Node5&#45;&gt;Node3 -->
<g id="edge4" class="edge">
<title>Node5&#45;&gt;Node3</title>
<path fill="none" stroke="#63b8ff" d="M335.77,-444.31C362.64,-438.88 393.58,-432.63 417.68,-427.75"/>
<polygon fill="#63b8ff" stroke="#63b8ff" points="335.13,-440.87 326.02,-446.28 336.52,-447.73 335.13,-440.87"/>
</g>
<!-- Node6 -->
<g id="node6" class="node">
<title>Node6</title>
<g id="a_node6"><a xlink:href="classMooseBaseErrorInterface.html" target="_top" xlink:title="Interface that provides APIs to output errors/warnings/info messages.">
<polygon fill="white" stroke="#666666" points="352,-429 197,-429 197,-410 352,-410 352,-429"/>
<text text-anchor="middle" x="274.5" y="-417" font-family="Courier,monospace" font-size="10.00">MooseBaseErrorInterface</text>
</a>
</g>
</g>
<!-- Node6&#45;&gt;Node3 -->
<g id="edge5" class="edge">
<title>Node6&#45;&gt;Node3</title>
<path fill="none" stroke="#63b8ff" d="M363.68,-419.5C382.52,-419.5 401.55,-419.5 417.57,-419.5"/>
<polygon fill="#63b8ff" stroke="#63b8ff" points="363.83,-416 353.83,-419.5 363.83,-423 363.83,-416"/>
</g>
<!-- Node7 -->
<g id="node7" class="node">
<title>Node7</title>
<g id="a_node7"><a xlink:href="classConsoleStreamInterface.html" target="_top" xlink:title="An inteface for the _console for outputting to the Console object.">
<polygon fill="white" stroke="#666666" points="149,-429 0,-429 0,-410 149,-410 149,-429"/>
<text text-anchor="middle" x="74.5" y="-417" font-family="Courier,monospace" font-size="10.00">ConsoleStreamInterface</text>
</a>
</g>
</g>
<!-- Node7&#45;&gt;Node6 -->
<g id="edge6" class="edge">
<title>Node7&#45;&gt;Node6</title>
<path fill="none" stroke="#63b8ff" d="M160.62,-419.5C172.62,-419.5 184.9,-419.5 196.73,-419.5"/>
<polygon fill="#63b8ff" stroke="#63b8ff" points="160.74,-416 150.74,-419.5 160.74,-423 160.74,-416"/>
</g>
<!-- Node8 -->
<g id="node8" class="node">
<title>Node8</title>
<g id="a_node8"><a xlink:title=" ">
<polygon fill="white" stroke="#666666" points="352,-392 197,-392 197,-373 352,-373 352,-392"/>
<text text-anchor="middle" x="274.5" y="-380" font-family="Courier,monospace" font-size="10.00">libMesh::ParallelObject</text>
</a>
</g>
</g>
<!-- Node8&#45;&gt;Node3 -->
<g id="edge7" class="edge">
<title>Node8&#45;&gt;Node3</title>
<path fill="none" stroke="#63b8ff" d="M335.77,-394.69C362.64,-400.12 393.58,-406.37 417.68,-411.25"/>
<polygon fill="#63b8ff" stroke="#63b8ff" points="336.52,-391.27 326.02,-392.72 335.13,-398.13 336.52,-391.27"/>
</g>
<!-- Node9 -->
<g id="node9" class="node">
<title>Node9</title>
<g id="a_node9"><a xlink:href="classDataFileInterface.html" target="_top" xlink:title=" ">
<polygon fill="white" stroke="#666666" points="337,-354.5 212,-354.5 212,-324.5 337,-324.5 337,-354.5"/>
<text text-anchor="start" x="220" y="-342.5" font-family="Courier,monospace" font-size="10.00">DataFileInterface&lt;</text>
<text text-anchor="middle" x="274.5" y="-331.5" font-family="Courier,monospace" font-size="10.00"> MooseObject &gt;</text>
</a>
</g>
</g>
<!-- Node9&#45;&gt;Node3 -->
<g id="edge8" class="edge">
<title>Node9&#45;&gt;Node3</title>
<path fill="none" stroke="#63b8ff" d="M347.62,-355.49C353.32,-357.82 358.86,-360.47 364,-363.5 383.77,-375.14 380.52,-388.38 400,-400.5 405.8,-404.11 412.36,-407.1 418.93,-409.56"/>
<polygon fill="#63b8ff" stroke="#63b8ff" points="349.23,-352.35 338.64,-352.17 346.8,-358.92 349.23,-352.35"/>
</g>
<!-- Node10 -->
<g id="node10" class="node">
<title>Node10</title>
<g id="a_node10"><a xlink:href="classBlockRestrictable.html" target="_top" xlink:title="An interface that restricts an object to subdomains via the &#39;blocks&#39; input parameter.">
<polygon fill="white" stroke="#666666" points="519,-392 400,-392 400,-373 519,-373 519,-392"/>
<text text-anchor="middle" x="459.5" y="-380" font-family="Courier,monospace" font-size="10.00">BlockRestrictable</text>
</a>
</g>
</g>
<!-- Node10&#45;&gt;Node2 -->
<g id="edge9" class="edge">
<title>Node10&#45;&gt;Node2</title>
<path fill="none" stroke="#63b8ff" d="M530.53,-373.8C538.61,-372.8 546.78,-371.79 554.69,-370.8"/>
<polygon fill="#63b8ff" stroke="#63b8ff" points="530.21,-370.32 520.72,-375.02 531.07,-377.26 530.21,-370.32"/>
</g>
<!-- Node11 -->
<g id="node11" class="node">
<title>Node11</title>
<g id="a_node11"><a xlink:href="classOutputInterface.html" target="_top" xlink:title="A class to provide an common interface to objects requiring &quot;outputs&quot; option.">
<polygon fill="white" stroke="#666666" points="513,-355 406,-355 406,-336 513,-336 513,-355"/>
<text text-anchor="middle" x="459.5" y="-343" font-family="Courier,monospace" font-size="10.00">OutputInterface</text>
</a>
</g>
</g>
<!-- Node11&#45;&gt;Node2 -->
<g id="edge10" class="edge">
<title>Node11&#45;&gt;Node2</title>
<path fill="none" stroke="#63b8ff" d="M524.35,-353.01C534.41,-354.2 544.78,-355.41 554.72,-356.58"/>
<polygon fill="#63b8ff" stroke="#63b8ff" points="525,-349.56 514.66,-351.87 524.18,-356.52 525,-349.56"/>
</g>
<!-- Node12 -->
<g id="node12" class="node">
<title>Node12</title>
<g id="a_node12"><a xlink:href="classSetupInterface.html" target="_top" xlink:title=" ">
<polygon fill="white" stroke="#666666" points="510,-318 409,-318 409,-299 510,-299 510,-318"/>
<text text-anchor="middle" x="459.5" y="-306" font-family="Courier,monospace" font-size="10.00">SetupInterface</text>
</a>
</g>
</g>
<!-- Node12&#45;&gt;Node2 -->
<g id="edge11" class="edge">
<title>Node12&#45;&gt;Node2</title>
<path fill="none" stroke="#63b8ff" d="M505.19,-321.87C509.87,-323.39 514.54,-324.94 519,-326.5 543.29,-334.98 570.61,-345.82 589.6,-353.57"/>
<polygon fill="#63b8ff" stroke="#63b8ff" points="506.39,-318.58 495.8,-318.9 504.28,-325.26 506.39,-318.58"/>
</g>
<!-- Node19 -->
<g id="node19" class="node">
<title>Node19</title>
<g id="a_node19"><a xlink:href="classMooseVariableFE.html" target="_top" xlink:title=" ">
<polygon fill="white" stroke="#666666" points="1259,-494 1104,-494 1104,-475 1259,-475 1259,-494"/>
<text text-anchor="middle" x="1181.5" y="-482" font-family="Courier,monospace" font-size="10.00">MooseVariableFE&lt; Real &gt;</text>
</a>
</g>
</g>
<!-- Node18&#45;&gt;Node19 -->
<g id="edge18" class="edge">
<title>Node18&#45;&gt;Node19</title>
<path fill="none" stroke="#63b8ff" d="M1044.53,-262.21C1046.48,-263.83 1048.32,-265.59 1050,-267.5 1109.46,-334.9 1022.74,-402.65 1086,-466.5 1091.05,-471.6 1097.08,-475.5 1103.6,-478.45"/>
<polygon fill="#63b8ff" stroke="#63b8ff" points="1046.79,-259.52 1036.55,-256.81 1042.87,-265.31 1046.79,-259.52"/>
</g>
<!-- Node21 -->
<g id="node21" class="node">
<title>Node21</title>
<g id="a_node21"><a xlink:href="classMooseVariableFE.html" target="_top" xlink:title=" ">
<polygon fill="white" stroke="#666666" points="1250,-457 1113,-457 1113,-438 1250,-438 1250,-457"/>
<text text-anchor="middle" x="1181.5" y="-445" font-family="Courier,monospace" font-size="10.00">MooseVariableFE&lt; T &gt;</text>
</a>
</g>
</g>
<!-- Node18&#45;&gt;Node21 -->
<g id="edge20" class="edge">
<title>Node18&#45;&gt;Node21</title>
<path fill="none" stroke="#63b8ff" d="M1045.01,-262.77C1046.77,-264.24 1048.45,-265.81 1050,-267.5 1099.62,-321.48 1033.6,-377.22 1086,-428.5 1093.42,-435.76 1102.78,-440.61 1112.72,-443.81"/>
<polygon fill="#63b8ff" stroke="#63b8ff" points="1046.97,-259.88 1036.72,-257.19 1043.06,-265.68 1046.97,-259.88"/>
</g>
<!-- Node22 -->
<g id="node22" class="node">
<title>Node22</title>
<g id="a_node22"><a xlink:href="classMooseVariableFE.html" target="_top" xlink:title=" ">
<polygon fill="white" stroke="#666666" points="1271,-419.5 1092,-419.5 1092,-389.5 1271,-389.5 1271,-419.5"/>
<text text-anchor="start" x="1100" y="-407.5" font-family="Courier,monospace" font-size="10.00">MooseVariableFE&lt; RealVector</text>
<text text-anchor="middle" x="1181.5" y="-396.5" font-family="Courier,monospace" font-size="10.00">Value &gt;</text>
</a>
</g>
</g>
<!-- Node18&#45;&gt;Node22 -->
<g id="edge21" class="edge">
<title>Node18&#45;&gt;Node22</title>
<path fill="none" stroke="#63b8ff" d="M1044.94,-263.06C1046.72,-264.44 1048.41,-265.92 1050,-267.5 1087.35,-304.69 1047.63,-344.36 1086,-380.5 1089.45,-383.75 1093.28,-386.58 1097.35,-389.03"/>
<polygon fill="#63b8ff" stroke="#63b8ff" points="1047.01,-260.23 1036.71,-257.75 1043.22,-266.11 1047.01,-260.23"/>
</g>
<!-- Node23 -->
<g id="node23" class="node">
<title>Node23</title>
<g id="a_node23"><a xlink:href="classMooseVariableFE.html" target="_top" xlink:title=" ">
<polygon fill="white" stroke="#666666" points="1268,-371.5 1095,-371.5 1095,-341.5 1268,-341.5 1268,-371.5"/>
<text text-anchor="start" x="1103" y="-359.5" font-family="Courier,monospace" font-size="10.00">MooseVariableFE&lt; RealEigen</text>
<text text-anchor="middle" x="1181.5" y="-348.5" font-family="Courier,monospace" font-size="10.00">Vector &gt;</text>
</a>
</g>
</g>
<!-- Node18&#45;&gt;Node23 -->
<g id="edge22" class="edge">
<title>Node18&#45;&gt;Node23</title>
<path fill="none" stroke="#63b8ff" d="M1045.26,-263.97C1046.9,-265.08 1048.48,-266.26 1050,-267.5 1075.58,-288.38 1059.85,-312.33 1086,-332.5 1090.29,-335.81 1094.98,-338.66 1099.91,-341.13"/>
<polygon fill="#63b8ff" stroke="#63b8ff" points="1047.1,-260.99 1036.69,-258.98 1043.57,-267.04 1047.1,-260.99"/>
</g>
<!-- Node24 -->
<g id="node24" class="node">
<title>Node24</title>
<g id="a_node24"><a xlink:href="classMooseVariableFE.html" target="_top" xlink:title=" ">
<polygon fill="white" stroke="#666666" points="1262,-323.5 1101,-323.5 1101,-293.5 1262,-293.5 1262,-323.5"/>
<text text-anchor="start" x="1109" y="-311.5" font-family="Courier,monospace" font-size="10.00">MooseVariableFE&lt; Compute</text>
<text text-anchor="middle" x="1181.5" y="-300.5" font-family="Courier,monospace" font-size="10.00">ValueType &gt;</text>
</a>
</g>
</g>
<!-- Node18&#45;&gt;Node24 -->
<g id="edge23" class="edge">
<title>Node18&#45;&gt;Node24</title>
<path fill="none" stroke="#63b8ff" d="M1036.42,-262.61C1041.04,-264.2 1045.61,-265.84 1050,-267.5 1066.38,-273.69 1069.48,-277.69 1086,-283.5 1095.76,-286.94 1106.24,-290.16 1116.54,-293.06"/>
<polygon fill="#63b8ff" stroke="#63b8ff" points="1037.65,-259.33 1027.06,-259.46 1035.42,-265.96 1037.65,-259.33"/>
</g>
<!-- Node25 -->
<g id="node25" class="node">
<title>Node25</title>
<g id="a_node25"><a xlink:href="classMooseVariableFV.html" target="_top" xlink:title=" ">
<polygon fill="white" stroke="#666666" points="1259,-275 1104,-275 1104,-256 1259,-256 1259,-275"/>
<text text-anchor="middle" x="1181.5" y="-263" font-family="Courier,monospace" font-size="10.00">MooseVariableFV&lt; Real &gt;</text>
</a>
</g>
</g>
<!-- Node18&#45;&gt;Node25 -->
<g id="edge24" class="edge">
<title>Node18&#45;&gt;Node25</title>
<path fill="none" stroke="#63b8ff" d="M1046.61,-251.27C1065.07,-253.23 1084.95,-255.34 1103.59,-257.33"/>
<polygon fill="#63b8ff" stroke="#63b8ff" points="1047.15,-247.81 1036.83,-250.23 1046.41,-254.77 1047.15,-247.81"/>
</g>
<!-- Node26 -->
<g id="node26" class="node">
<title>Node26</title>
<g id="a_node26"><a xlink:href="classMooseVariableFV.html" target="_top" xlink:title=" ">
<polygon fill="white" stroke="#666666" points="1271,-237.5 1092,-237.5 1092,-207.5 1271,-207.5 1271,-237.5"/>
<text text-anchor="start" x="1100" y="-225.5" font-family="Courier,monospace" font-size="10.00">MooseVariableFV&lt; RealVector</text>
<text text-anchor="middle" x="1181.5" y="-214.5" font-family="Courier,monospace" font-size="10.00">Value &gt;</text>
</a>
</g>
</g>
<!-- Node18&#45;&gt;Node26 -->
<g id="edge25" class="edge">
<title>Node18&#45;&gt;Node26</title>
<path fill="none" stroke="#63b8ff" d="M1046.36,-236.11C1061.06,-234.62 1076.66,-233.03 1091.82,-231.5"/>
<polygon fill="#63b8ff" stroke="#63b8ff" points="1046.43,-232.58 1036.83,-237.07 1047.13,-239.55 1046.43,-232.58"/>
</g>
<!-- Node27 -->
<g id="node27" class="node">
<title>Node27</title>
<g id="a_node27"><a xlink:href="classMooseVariableFV.html" target="_top" xlink:title=" ">
<polygon fill="white" stroke="#666666" points="1268,-189.5 1095,-189.5 1095,-159.5 1268,-159.5 1268,-189.5"/>
<text text-anchor="start" x="1103" y="-177.5" font-family="Courier,monospace" font-size="10.00">MooseVariableFV&lt; RealEigen</text>
<text text-anchor="middle" x="1181.5" y="-166.5" font-family="Courier,monospace" font-size="10.00">Vector &gt;</text>
</a>
</g>
</g>
<!-- Node18&#45;&gt;Node27 -->
<g id="edge26" class="edge">
<title>Node18&#45;&gt;Node27</title>
<path fill="none" stroke="#63b8ff" d="M1019.04,-223.7C1039.31,-215.3 1063.62,-205.78 1086,-198.5 1095.26,-195.49 1105.12,-192.62 1114.85,-189.98"/>
<polygon fill="#63b8ff" stroke="#63b8ff" points="1017.79,-220.42 1009.93,-227.52 1020.5,-226.88 1017.79,-220.42"/>
</g>
<!-- Node28 -->
<g id="node28" class="node">
<title>Node28</title>
<g id="a_node28"><a xlink:href="classMooseVariableFV.html" target="_top" xlink:title=" ">
<polygon fill="white" stroke="#666666" points="1262,-141.5 1101,-141.5 1101,-111.5 1262,-111.5 1262,-141.5"/>
<text text-anchor="start" x="1109" y="-129.5" font-family="Courier,monospace" font-size="10.00">MooseVariableFV&lt; Compute</text>
<text text-anchor="middle" x="1181.5" y="-118.5" font-family="Courier,monospace" font-size="10.00">ValueType &gt;</text>
</a>
</g>
</g>
<!-- Node18&#45;&gt;Node28 -->
<g id="edge27" class="edge">
<title>Node18&#45;&gt;Node28</title>
<path fill="none" stroke="#63b8ff" d="M995.63,-220.03C1016.88,-198.84 1050.85,-168.34 1086,-150.5 1092.49,-147.21 1099.47,-144.34 1106.58,-141.85"/>
<polygon fill="#63b8ff" stroke="#63b8ff" points="993.18,-217.53 988.66,-227.12 998.17,-222.44 993.18,-217.53"/>
</g>
<!-- Node29 -->
<g id="node29" class="node">
<title>Node29</title>
<g id="a_node29"><a xlink:href="classMooseVariableFV.html" target="_top" xlink:title=" ">
<polygon fill="white" stroke="#666666" points="1250,-93 1113,-93 1113,-74 1250,-74 1250,-93"/>
<text text-anchor="middle" x="1181.5" y="-81" font-family="Courier,monospace" font-size="10.00">MooseVariableFV&lt; T &gt;</text>
</a>
</g>
</g>
<!-- Node18&#45;&gt;Node29 -->
<g id="edge28" class="edge">
<title>Node18&#45;&gt;Node29</title>
<path fill="none" stroke="#63b8ff" d="M986.32,-218.27C1004.11,-186.01 1039.41,-130.93 1086,-102.5 1094.14,-97.53 1103.34,-93.83 1112.73,-91.09"/>
<polygon fill="#63b8ff" stroke="#63b8ff" points="983.32,-216.46 981.69,-226.93 989.49,-219.77 983.32,-216.46"/>
</g>
<!-- Node30 -->
<g id="node30" class="node">
<title>Node30</title>
<g id="a_node30"><a xlink:href="classMooseVariableFE.html" target="_top" xlink:title="Class for stuff related to variables.">
<polygon fill="white" stroke="#666666" points="1277,-56 1086,-56 1086,-37 1277,-37 1277,-56"/>
<text text-anchor="middle" x="1181.5" y="-44" font-family="Courier,monospace" font-size="10.00">MooseVariableFE&lt; OutputType &gt;</text>
</a>
</g>
</g>
<!-- Node18&#45;&gt;Node30 -->
<g id="edge29" class="edge">
<title>Node18&#45;&gt;Node30</title>
<path fill="none" stroke="#63b8ff" d="M982.21,-217.33C996.89,-177.52 1030.54,-102.36 1086,-64.5 1090.69,-61.3 1095.8,-58.63 1101.14,-56.41"/>
<polygon fill="#63b8ff" stroke="#63b8ff" points="978.97,-216 978.92,-226.6 985.56,-218.35 978.97,-216"/>
</g>
<!-- Node31 -->
<g id="node31" class="node">
<title>Node31</title>
<g id="a_node31"><a xlink:href="classMooseVariableFV.html" target="_top" xlink:title="This class provides variable solution values for other classes/objects to bind to when looping over f...">
<polygon fill="white" stroke="#666666" points="1277,-19 1086,-19 1086,0 1277,0 1277,-19"/>
<text text-anchor="middle" x="1181.5" y="-7" font-family="Courier,monospace" font-size="10.00">MooseVariableFV&lt; OutputType &gt;</text>
</a>
</g>
</g>
<!-- Node18&#45;&gt;Node31 -->
<g id="edge30" class="edge">
<title>Node18&#45;&gt;Node31</title>
<path fill="none" stroke="#63b8ff" d="M979.3,-217.07C990.93,-170.76 1021.69,-75.33 1086,-27.5 1090.29,-24.31 1094.98,-21.64 1099.91,-19.4"/>
<polygon fill="#63b8ff" stroke="#63b8ff" points="975.91,-216.23 976.99,-226.77 982.71,-217.86 975.91,-216.23"/>
</g>
<!-- Node20 -->
<g id="node20" class="node">
<title>Node20</title>
<g id="a_node20"><a xlink:href="classMooseVariableConstMonomial.html" target="_top" xlink:title=" ">
<polygon fill="white" stroke="#666666" points="1486,-494 1313,-494 1313,-475 1486,-475 1486,-494"/>
<text text-anchor="middle" x="1399.5" y="-482" font-family="Courier,monospace" font-size="10.00">MooseVariableConstMonomial</text>
</a>
</g>
</g>
<!-- Node19&#45;&gt;Node20 -->
<g id="edge19" class="edge">
<title>Node19&#45;&gt;Node20</title>
<path fill="none" stroke="#63b8ff" d="M1270.37,-484.5C1284.38,-484.5 1298.85,-484.5 1312.8,-484.5"/>
<polygon fill="#63b8ff" stroke="#63b8ff" points="1270.78,-481 1260.78,-484.5 1270.78,-488 1270.78,-481"/>
</g>
</g>
</svg>
        <g id="navigator" transform="translate(0 0)" fill="#404254">
                <rect fill="#f2f5e9" fill-opacity="0.5" stroke="#606060" stroke-width=".5" x="0" y="0" width="60" height="60"/>
                <use id="zoomplus" xlink:href="#zoomPlus" x="17" y="9" onmousedown="handleZoom(evt,'in')"/>
                <use id="zoomminus" xlink:href="#zoomMin" x="42" y="9" onmousedown="handleZoom(evt,'out')"/>
                <use id="reset" xlink:href="#resetDef" x="30" y="36" onmousedown="handleReset()"/>
                <g id="arrowUp" xlink:href="#dirArrow" transform="translate(30 24)" onmousedown="handlePan(0,-1)">
                  <use xlink:href="#rim" fill="#404040">
                        <set attributeName="fill" to="#808080" begin="arrowUp.mouseover" end="arrowUp.mouseout"/>
                  </use>
                  <path fill="none" stroke="white" stroke-width="1.5" d="M0,-3.0v7 M-2.5,-0.5L0,-3.0L2.5,-0.5"/>
                </g>
                <g id="arrowRight" xlink:href="#dirArrow" transform="rotate(90) translate(36 -43)" onmousedown="handlePan(1,0)">
                  <use xlink:href="#rim" fill="#404040">
                        <set attributeName="fill" to="#808080" begin="arrowRight.mouseover" end="arrowRight.mouseout"/>
                  </use>
                  <path fill="none" stroke="white" stroke-width="1.5" d="M0,-3.0v7 M-2.5,-0.5L0,-3.0L2.5,-0.5"/>
                </g>
                <g id="arrowDown" xlink:href="#dirArrow" transform="rotate(180) translate(-30 -48)" onmousedown="handlePan(0,1)">
                  <use xlink:href="#rim" fill="#404040">
                        <set attributeName="fill" to="#808080" begin="arrowDown.mouseover" end="arrowDown.mouseout"/>
                  </use>
                  <path fill="none" stroke="white" stroke-width="1.5" d="M0,-3.0v7 M-2.5,-0.5L0,-3.0L2.5,-0.5"/>
                </g>
                <g id="arrowLeft" xlink:href="#dirArrow" transform="rotate(270) translate(-36 17)" onmousedown="handlePan(-1,0)">
                  <use xlink:href="#rim" fill="#404040">
                        <set attributeName="fill" to="#808080" begin="arrowLeft.mouseover" end="arrowLeft.mouseout"/>
                  </use>
                  <path fill="none" stroke="white" stroke-width="1.5" d="M0,-3.0v7 M-2.5,-0.5L0,-3.0L2.5,-0.5"/>
                </g>
        </g>
        <svg viewBox="0 0 15 15" width="100%" height="30px" preserveAspectRatio="xMaxYMin meet">
         <g id="arrow_out" transform="scale(0.3 0.3)">
          <a xlink:href="classMooseVariableFieldBase__inherit__graph_org.svg" target="_base">
           <rect id="button" ry="5" rx="5" y="6" x="6" height="38" width="38"
                fill="#f2f5e9" fill-opacity="0.5" stroke="#606060" stroke-width="1.0"/>
           <path id="arrow"
             d="M 11.500037,31.436501 C 11.940474,20.09759 22.043105,11.32322 32.158766,21.979434 L 37.068811,17.246167 C 37.068811,17.246167 37.088388,32 37.088388,32 L 22.160133,31.978069 C 22.160133,31.978069 26.997745,27.140456 26.997745,27.140456 C 18.528582,18.264221 13.291696,25.230495 11.500037,31.436501 z"
             style="fill:#404040;"/>
          </a>
         </g>
        </svg>
</svg>
