<?xml version="1.0" encoding="UTF-8" standalone="no"?>
<!DOCTYPE svg PUBLIC "-//W3C//DTD SVG 1.1//EN"
 "http://www.w3.org/Graphics/SVG/1.1/DTD/svg11.dtd">
<!-- Generated by graphviz version 7.0.5 (20221223.1930)
 -->
<!-- Title: InterfaceMaterial Pages: 1 -->
<!--zoomable 915 -->
<svg id="main" version="1.1" xmlns="http://www.w3.org/2000/svg" xmlns:xlink="http://www.w3.org/1999/xlink" xml:space="preserve" onload="init(evt)">
<style type="text/css"><![CDATA[
.edge:hover path { stroke: red; }
.edge:hover polygon { stroke: red; fill: red; }
]]></style>
<script type="text/javascript"><![CDATA[
var edges = document.getElementsByTagName('g');
if (edges && edges.length) {
  for (var i=0;i<edges.length;i++) {
    if (edges[i].id.substr(0,4)=='edge') {
      edges[i].setAttribute('class','edge');
    }
  }
}
]]></script>
        <defs>
                <circle id="rim" cx="0" cy="0" r="7"/>
                <circle id="rim2" cx="0" cy="0" r="3.5"/>
                <g id="zoomPlus">
                        <use xlink:href="#rim" fill="#404040">
                                <set attributeName="fill" to="#808080" begin="zoomplus.mouseover" end="zoomplus.mouseout"/>
                        </use>
                        <path d="M-4,0h8M0,-4v8" fill="none" stroke="white" stroke-width="1.5" pointer-events="none"/>
                </g>
                <g id="zoomMin">
                        <use xlink:href="#rim" fill="#404040">
                                <set attributeName="fill" to="#808080" begin="zoomminus.mouseover" end="zoomminus.mouseout"/>
                        </use>
                        <path d="M-4,0h8" fill="none" stroke="white" stroke-width="1.5" pointer-events="none"/>
                </g>
                <g id="dirArrow">
                        <path fill="none" stroke="white" stroke-width="1.5" d="M0,-3.0v7 M-2.5,-0.5L0,-3.0L2.5,-0.5"/>
                </g>
               <g id="resetDef">
                       <use xlink:href="#rim2" fill="#404040">
                               <set attributeName="fill" to="#808080" begin="reset.mouseover" end="reset.mouseout"/>
                       </use>
               </g>
        </defs>

<script type="text/javascript">
var viewWidth = 993;
var viewHeight = 915;
var sectionId = 'dynsection-0';
</script>
<script xlink:href="svgpan.js"/>
<svg id="graph" class="graph">
<g id="viewport">
<title>InterfaceMaterial</title>
<!-- Node1 -->
<g id="node1" class="node">
<title>Node1</title>
<g id="a_node1"><a xlink:title="Interface materials compute MaterialProperties.">
<polygon fill="#999999" stroke="#666666" points="985,-56 866,-56 866,-37 985,-37 985,-56"/>
<text text-anchor="middle" x="925.5" y="-44" font-family="Courier,monospace" font-size="10.00">InterfaceMaterial</text>
</a>
</g>
</g>
<!-- Node2 -->
<g id="node2" class="node">
<title>Node2</title>
<g id="a_node2"><a xlink:href="classMaterialBase.html" target="_top" xlink:title="MaterialBases compute MaterialProperties.">
<polygon fill="white" stroke="#666666" points="782,-444 693,-444 693,-425 782,-425 782,-444"/>
<text text-anchor="middle" x="737.5" y="-432" font-family="Courier,monospace" font-size="10.00">MaterialBase</text>
</a>
</g>
</g>
<!-- Node2&#45;&gt;Node1 -->
<g id="edge1" class="edge">
<title>Node2&#45;&gt;Node1</title>
<path fill="none" stroke="#63b8ff" d="M748.2,-414.27C782.18,-343.38 895.15,-107.72 919.75,-56.41"/>
<polygon fill="#63b8ff" stroke="#63b8ff" points="745.11,-412.62 743.94,-423.15 751.42,-415.65 745.11,-412.62"/>
</g>
<!-- Node3 -->
<g id="node3" class="node">
<title>Node3</title>
<g id="a_node3"><a xlink:href="classMooseObject.html" target="_top" xlink:title="Every object that can be built by the factory should be derived from this class.">
<polygon fill="white" stroke="#666666" points="546,-833 463,-833 463,-814 546,-814 546,-833"/>
<text text-anchor="middle" x="504.5" y="-821" font-family="Courier,monospace" font-size="10.00">MooseObject</text>
</a>
</g>
</g>
<!-- Node3&#45;&gt;Node2 -->
<g id="edge2" class="edge">
<title>Node3&#45;&gt;Node2</title>
<path fill="none" stroke="#63b8ff" d="M557.76,-824.86C575.77,-822.81 594.93,-817.5 609,-805.5 726.13,-705.64 735.82,-492.95 736.48,-444.48"/>
<polygon fill="#63b8ff" stroke="#63b8ff" points="557.66,-821.36 547.97,-825.64 558.21,-828.34 557.66,-821.36"/>
</g>
<!-- Node4 -->
<g id="node4" class="node">
<title>Node4</title>
<g id="a_node4"><a xlink:href="classMooseBase.html" target="_top" xlink:title="Base class for everything in MOOSE with a name and a type.">
<polygon fill="white" stroke="#666666" points="310,-907 239,-907 239,-888 310,-888 310,-907"/>
<text text-anchor="middle" x="274.5" y="-895" font-family="Courier,monospace" font-size="10.00">MooseBase</text>
</a>
</g>
</g>
<!-- Node4&#45;&gt;Node3 -->
<g id="edge3" class="edge">
<title>Node4&#45;&gt;Node3</title>
<path fill="none" stroke="#63b8ff" d="M321.54,-889.78C335.32,-887.03 350.39,-883.58 364,-879.5 407,-866.61 455.19,-845.76 482.19,-833.47"/>
<polygon fill="#63b8ff" stroke="#63b8ff" points="320.97,-886.32 311.81,-891.64 322.29,-893.2 320.97,-886.32"/>
</g>
<!-- Node5 -->
<g id="node5" class="node">
<title>Node5</title>
<g id="a_node5"><a xlink:href="classMooseBaseParameterInterface.html" target="_top" xlink:title="Every object that can be built by the factory should be derived from this class.">
<polygon fill="white" stroke="#666666" points="364,-870 185,-870 185,-851 364,-851 364,-870"/>
<text text-anchor="middle" x="274.5" y="-858" font-family="Courier,monospace" font-size="10.00">MooseBaseParameterInterface</text>
</a>
</g>
</g>
<!-- Node5&#45;&gt;Node3 -->
<g id="edge4" class="edge">
<title>Node5&#45;&gt;Node3</title>
<path fill="none" stroke="#63b8ff" d="M347.88,-848.75C385.73,-842.61 430.68,-835.32 462.51,-830.15"/>
<polygon fill="#63b8ff" stroke="#63b8ff" points="347.7,-845.24 338.39,-850.29 348.83,-852.15 347.7,-845.24"/>
</g>
<!-- Node6 -->
<g id="node6" class="node">
<title>Node6</title>
<g id="a_node6"><a xlink:href="classMooseBaseErrorInterface.html" target="_top" xlink:title="Interface that provides APIs to output errors/warnings/info messages.">
<polygon fill="white" stroke="#666666" points="352,-833 197,-833 197,-814 352,-814 352,-833"/>
<text text-anchor="middle" x="274.5" y="-821" font-family="Courier,monospace" font-size="10.00">MooseBaseErrorInterface</text>
</a>
</g>
</g>
<!-- Node6&#45;&gt;Node3 -->
<g id="edge5" class="edge">
<title>Node6&#45;&gt;Node3</title>
<path fill="none" stroke="#63b8ff" d="M363.8,-823.5C397.92,-823.5 435.28,-823.5 462.77,-823.5"/>
<polygon fill="#63b8ff" stroke="#63b8ff" points="363.89,-820 353.89,-823.5 363.89,-827 363.89,-820"/>
</g>
<!-- Node7 -->
<g id="node7" class="node">
<title>Node7</title>
<g id="a_node7"><a xlink:href="classConsoleStreamInterface.html" target="_top" xlink:title="An inteface for the _console for outputting to the Console object.">
<polygon fill="white" stroke="#666666" points="149,-833 0,-833 0,-814 149,-814 149,-833"/>
<text text-anchor="middle" x="74.5" y="-821" font-family="Courier,monospace" font-size="10.00">ConsoleStreamInterface</text>
</a>
</g>
</g>
<!-- Node7&#45;&gt;Node6 -->
<g id="edge6" class="edge">
<title>Node7&#45;&gt;Node6</title>
<path fill="none" stroke="#63b8ff" d="M160.62,-823.5C172.62,-823.5 184.9,-823.5 196.73,-823.5"/>
<polygon fill="#63b8ff" stroke="#63b8ff" points="160.74,-820 150.74,-823.5 160.74,-827 160.74,-820"/>
</g>
<!-- Node8 -->
<g id="node8" class="node">
<title>Node8</title>
<g id="a_node8"><a xlink:title=" ">
<polygon fill="white" stroke="#666666" points="352,-796 197,-796 197,-777 352,-777 352,-796"/>
<text text-anchor="middle" x="274.5" y="-784" font-family="Courier,monospace" font-size="10.00">libMesh::ParallelObject</text>
</a>
</g>
</g>
<!-- Node8&#45;&gt;Node3 -->
<g id="edge7" class="edge">
<title>Node8&#45;&gt;Node3</title>
<path fill="none" stroke="#63b8ff" d="M347.88,-798.25C385.73,-804.39 430.68,-811.68 462.51,-816.85"/>
<polygon fill="#63b8ff" stroke="#63b8ff" points="348.83,-794.85 338.39,-796.71 347.7,-801.76 348.83,-794.85"/>
</g>
<!-- Node9 -->
<g id="node9" class="node">
<title>Node9</title>
<g id="a_node9"><a xlink:href="classDataFileInterface.html" target="_top" xlink:title=" ">
<polygon fill="white" stroke="#666666" points="337,-758.5 212,-758.5 212,-728.5 337,-728.5 337,-758.5"/>
<text text-anchor="start" x="220" y="-746.5" font-family="Courier,monospace" font-size="10.00">DataFileInterface&lt;</text>
<text text-anchor="middle" x="274.5" y="-735.5" font-family="Courier,monospace" font-size="10.00"> MooseObject &gt;</text>
</a>
</g>
</g>
<!-- Node9&#45;&gt;Node3 -->
<g id="edge8" class="edge">
<title>Node9&#45;&gt;Node3</title>
<path fill="none" stroke="#63b8ff" d="M347.62,-760.35C353.32,-762.73 358.86,-765.44 364,-768.5 383.71,-780.24 379.71,-794.79 400,-805.5 419.11,-815.59 442.71,-820.19 462.54,-822.23"/>
<polygon fill="#63b8ff" stroke="#63b8ff" points="349.23,-757.22 338.64,-756.94 346.74,-763.76 349.23,-757.22"/>
</g>
<!-- Node10 -->
<g id="node10" class="node">
<title>Node10</title>
<g id="a_node10"><a xlink:href="classBlockRestrictable.html" target="_top" xlink:title="An interface that restricts an object to subdomains via the &#39;blocks&#39; input parameter.">
<polygon fill="white" stroke="#666666" points="564,-796 445,-796 445,-777 564,-777 564,-796"/>
<text text-anchor="middle" x="504.5" y="-784" font-family="Courier,monospace" font-size="10.00">BlockRestrictable</text>
</a>
</g>
</g>
<!-- Node10&#45;&gt;Node2 -->
<g id="edge9" class="edge">
<title>Node10&#45;&gt;Node2</title>
<path fill="none" stroke="#63b8ff" d="M575.62,-784.36C587.72,-781.32 599.46,-776.36 609,-768.5 716.54,-679.89 733.52,-489.83 736.07,-444.4"/>
<polygon fill="#63b8ff" stroke="#63b8ff" points="575.02,-780.91 565.93,-786.34 576.43,-787.77 575.02,-780.91"/>
</g>
<!-- Node11 -->
<g id="node11" class="node">
<title>Node11</title>
<g id="a_node11"><a xlink:href="classBoundaryRestrictable.html" target="_top" xlink:title="/class BoundaryRestrictable /brief Provides functionality for limiting the object to certain boundary...">
<polygon fill="white" stroke="#666666" points="573,-759 436,-759 436,-740 573,-740 573,-759"/>
<text text-anchor="middle" x="504.5" y="-747" font-family="Courier,monospace" font-size="10.00">BoundaryRestrictable</text>
</a>
</g>
</g>
<!-- Node11&#45;&gt;Node2 -->
<g id="edge10" class="edge">
<title>Node11&#45;&gt;Node2</title>
<path fill="none" stroke="#63b8ff" d="M584.36,-744.42C593.26,-741.42 601.73,-737.25 609,-731.5 706.96,-654.09 730.95,-486.89 735.55,-444.45"/>
<polygon fill="#63b8ff" stroke="#63b8ff" points="583.48,-741.04 574.8,-747.12 585.38,-747.77 583.48,-741.04"/>
</g>
<!-- Node12 -->
<g id="node12" class="node">
<title>Node12</title>
<g id="a_node12"><a xlink:href="classSetupInterface.html" target="_top" xlink:title=" ">
<polygon fill="white" stroke="#666666" points="555,-722 454,-722 454,-703 555,-703 555,-722"/>
<text text-anchor="middle" x="504.5" y="-710" font-family="Courier,monospace" font-size="10.00">SetupInterface</text>
</a>
</g>
</g>
<!-- Node12&#45;&gt;Node2 -->
<g id="edge11" class="edge">
<title>Node12&#45;&gt;Node2</title>
<path fill="none" stroke="#63b8ff" d="M566.68,-711.42C581.65,-708.7 596.85,-703.61 609,-694.5 697.68,-627.98 728.19,-483.16 734.94,-444.28"/>
<polygon fill="#63b8ff" stroke="#63b8ff" points="566.21,-707.95 556.82,-712.85 567.22,-714.88 566.21,-707.95"/>
</g>
<!-- Node13 -->
<g id="node13" class="node">
<title>Node13</title>
<g id="a_node13"><a xlink:href="classMooseVariableDependencyInterface.html" target="_top" xlink:title=" ">
<polygon fill="white" stroke="#666666" points="609,-685 400,-685 400,-666 609,-666 609,-685"/>
<text text-anchor="middle" x="504.5" y="-673" font-family="Courier,monospace" font-size="10.00">MooseVariableDependencyInterface</text>
</a>
</g>
</g>
<!-- Node13&#45;&gt;Node2 -->
<g id="edge12" class="edge">
<title>Node13&#45;&gt;Node2</title>
<path fill="none" stroke="#63b8ff" d="M604.7,-660.3C606.16,-659.42 607.6,-658.48 609,-657.5 688.59,-601.66 725.08,-479.21 734.17,-444.09"/>
<polygon fill="#63b8ff" stroke="#63b8ff" points="603.21,-657.13 595.94,-664.84 606.43,-663.35 603.21,-657.13"/>
</g>
<!-- Node14 -->
<g id="node14" class="node">
<title>Node14</title>
<g id="a_node14"><a xlink:href="classScalarCoupleable.html" target="_top" xlink:title="Interface for objects that needs scalar coupling capabilities.">
<polygon fill="white" stroke="#666666" points="561,-648 448,-648 448,-629 561,-629 561,-648"/>
<text text-anchor="middle" x="504.5" y="-636" font-family="Courier,monospace" font-size="10.00">ScalarCoupleable</text>
</a>
</g>
</g>
<!-- Node14&#45;&gt;Node2 -->
<g id="edge13" class="edge">
<title>Node14&#45;&gt;Node2</title>
<path fill="none" stroke="#63b8ff" d="M572.59,-634.82C585.38,-631.97 598.14,-627.48 609,-620.5 679.49,-575.22 721.22,-475.67 733.02,-444.22"/>
<polygon fill="#63b8ff" stroke="#63b8ff" points="572.06,-631.36 562.88,-636.65 573.36,-638.24 572.06,-631.36"/>
</g>
<!-- Node15 -->
<g id="node15" class="node">
<title>Node15</title>
<g id="a_node15"><a xlink:href="classFunctionInterface.html" target="_top" xlink:title="Interface for objects that need to use functions.">
<polygon fill="white" stroke="#666666" points="564,-611 445,-611 445,-592 564,-592 564,-611"/>
<text text-anchor="middle" x="504.5" y="-599" font-family="Courier,monospace" font-size="10.00">FunctionInterface</text>
</a>
</g>
</g>
<!-- Node15&#45;&gt;Node2 -->
<g id="edge14" class="edge">
<title>Node15&#45;&gt;Node2</title>
<path fill="none" stroke="#63b8ff" d="M575.49,-596.11C587.17,-593.34 598.79,-589.31 609,-583.5 670.84,-548.29 716.69,-471.26 731.44,-444.16"/>
<polygon fill="#63b8ff" stroke="#63b8ff" points="574.89,-592.66 565.8,-598.1 576.3,-599.52 574.89,-592.66"/>
</g>
<!-- Node16 -->
<g id="node16" class="node">
<title>Node16</title>
<g id="a_node16"><a xlink:href="classDistributionInterface.html" target="_top" xlink:title="Interface for objects that need to use distributions.">
<polygon fill="white" stroke="#666666" points="576,-574 433,-574 433,-555 576,-555 576,-574"/>
<text text-anchor="middle" x="504.5" y="-562" font-family="Courier,monospace" font-size="10.00">DistributionInterface</text>
</a>
</g>
</g>
<!-- Node16&#45;&gt;Node2 -->
<g id="edge15" class="edge">
<title>Node16&#45;&gt;Node2</title>
<path fill="none" stroke="#63b8ff" d="M587.44,-554.62C594.9,-552.43 602.2,-549.75 609,-546.5 662.42,-520.93 710.55,-466.47 728.77,-444.25"/>
<polygon fill="#63b8ff" stroke="#63b8ff" points="586.68,-551.2 577.89,-557.12 588.45,-557.97 586.68,-551.2"/>
</g>
<!-- Node17 -->
<g id="node17" class="node">
<title>Node17</title>
<g id="a_node17"><a xlink:href="classUserObjectInterface.html" target="_top" xlink:title="Interface for objects that need to use UserObjects.">
<polygon fill="white" stroke="#666666" points="570,-537 439,-537 439,-518 570,-518 570,-537"/>
<text text-anchor="middle" x="504.5" y="-525" font-family="Courier,monospace" font-size="10.00">UserObjectInterface</text>
</a>
</g>
</g>
<!-- Node17&#45;&gt;Node2 -->
<g id="edge16" class="edge">
<title>Node17&#45;&gt;Node2</title>
<path fill="none" stroke="#63b8ff" d="M581.5,-517.53C590.9,-515.35 600.26,-512.71 609,-509.5 654.08,-492.94 701.33,-460.56 723.53,-444.3"/>
<polygon fill="#63b8ff" stroke="#63b8ff" points="581.02,-514.05 571.97,-519.56 582.48,-520.9 581.02,-514.05"/>
</g>
<!-- Node18 -->
<g id="node18" class="node">
<title>Node18</title>
<g id="a_node18"><a xlink:href="classTransientInterface.html" target="_top" xlink:title="Interface for objects that needs transient capabilities.">
<polygon fill="white" stroke="#666666" points="567,-500 442,-500 442,-481 567,-481 567,-500"/>
<text text-anchor="middle" x="504.5" y="-488" font-family="Courier,monospace" font-size="10.00">TransientInterface</text>
</a>
</g>
</g>
<!-- Node18&#45;&gt;Node2 -->
<g id="edge17" class="edge">
<title>Node18&#45;&gt;Node2</title>
<path fill="none" stroke="#63b8ff" d="M578.41,-478.93C588.72,-476.97 599.16,-474.81 609,-472.5 642.84,-464.54 680.96,-452.81 706.63,-444.49"/>
<polygon fill="#63b8ff" stroke="#63b8ff" points="578,-475.45 568.8,-480.7 579.27,-482.33 578,-475.45"/>
</g>
<!-- Node19 -->
<g id="node19" class="node">
<title>Node19</title>
<g id="a_node19"><a xlink:href="classPostprocessorInterface.html" target="_top" xlink:title="Interface class for classes which interact with Postprocessors.">
<polygon fill="white" stroke="#666666" points="579,-463 430,-463 430,-444 579,-444 579,-463"/>
<text text-anchor="middle" x="504.5" y="-451" font-family="Courier,monospace" font-size="10.00">PostprocessorInterface</text>
</a>
</g>
</g>
<!-- Node19&#45;&gt;Node2 -->
<g id="edge18" class="edge">
<title>Node19&#45;&gt;Node2</title>
<path fill="none" stroke="#63b8ff" d="M590.35,-446.52C625.09,-443.66 663.82,-440.48 692.68,-438.1"/>
<polygon fill="#63b8ff" stroke="#63b8ff" points="590.41,-443 580.73,-447.31 590.99,-449.98 590.41,-443"/>
</g>
<!-- Node20 -->
<g id="node20" class="node">
<title>Node20</title>
<g id="a_node20"><a xlink:href="classVectorPostprocessorInterface.html" target="_top" xlink:title=" ">
<polygon fill="white" stroke="#666666" points="597,-426 412,-426 412,-407 597,-407 597,-426"/>
<text text-anchor="middle" x="504.5" y="-414" font-family="Courier,monospace" font-size="10.00">VectorPostprocessorInterface</text>
</a>
</g>
</g>
<!-- Node20&#45;&gt;Node2 -->
<g id="edge19" class="edge">
<title>Node20&#45;&gt;Node2</title>
<path fill="none" stroke="#63b8ff" d="M608.71,-424.54C638.23,-426.84 668.84,-429.23 692.69,-431.09"/>
<polygon fill="#63b8ff" stroke="#63b8ff" points="609.21,-421.07 598.97,-423.78 608.67,-428.05 609.21,-421.07"/>
</g>
<!-- Node21 -->
<g id="node21" class="node">
<title>Node21</title>
<g id="a_node21"><a xlink:href="classDependencyResolverInterface.html" target="_top" xlink:title="Interface for sorting dependent vectors of objects.">
<polygon fill="white" stroke="#666666" points="594,-389 415,-389 415,-370 594,-370 594,-389"/>
<text text-anchor="middle" x="504.5" y="-377" font-family="Courier,monospace" font-size="10.00">DependencyResolverInterface</text>
</a>
</g>
</g>
<!-- Node21&#45;&gt;Node2 -->
<g id="edge20" class="edge">
<title>Node21&#45;&gt;Node2</title>
<path fill="none" stroke="#63b8ff" d="M576.39,-391.6C587.34,-393.73 598.5,-396.06 609,-398.5 641.82,-406.13 678.83,-416.82 704.49,-424.56"/>
<polygon fill="#63b8ff" stroke="#63b8ff" points="577.05,-388.16 566.57,-389.73 575.74,-395.04 577.05,-388.16"/>
</g>
<!-- Node22 -->
<g id="node22" class="node">
<title>Node22</title>
<g id="a_node22"><a xlink:href="classRestartable.html" target="_top" xlink:title="A class for creating restricted objects.">
<polygon fill="white" stroke="#666666" points="546,-352 463,-352 463,-333 546,-333 546,-352"/>
<text text-anchor="middle" x="504.5" y="-340" font-family="Courier,monospace" font-size="10.00">Restartable</text>
</a>
</g>
</g>
<!-- Node22&#45;&gt;Node2 -->
<g id="edge21" class="edge">
<title>Node22&#45;&gt;Node2</title>
<path fill="none" stroke="#63b8ff" d="M557.45,-348.51C574.22,-351.38 592.69,-355.53 609,-361.5 653.31,-377.71 700.17,-408.62 722.74,-424.51"/>
<polygon fill="#63b8ff" stroke="#63b8ff" points="558.07,-345.07 547.65,-346.96 556.98,-351.98 558.07,-345.07"/>
</g>
<!-- Node23 -->
<g id="node23" class="node">
<title>Node23</title>
<g id="a_node23"><a xlink:href="classMeshChangedInterface.html" target="_top" xlink:title="Interface for notifications that the mesh has changed.">
<polygon fill="white" stroke="#666666" points="573,-315 436,-315 436,-296 573,-296 573,-315"/>
<text text-anchor="middle" x="504.5" y="-303" font-family="Courier,monospace" font-size="10.00">MeshChangedInterface</text>
</a>
</g>
</g>
<!-- Node23&#45;&gt;Node2 -->
<g id="edge22" class="edge">
<title>Node23&#45;&gt;Node2</title>
<path fill="none" stroke="#63b8ff" d="M584.27,-315.38C592.83,-317.79 601.24,-320.78 609,-324.5 661.73,-349.76 709.89,-402.69 728.44,-424.64"/>
<polygon fill="#63b8ff" stroke="#63b8ff" points="585.41,-312.06 574.86,-313 583.7,-318.85 585.41,-312.06"/>
</g>
<!-- Node24 -->
<g id="node24" class="node">
<title>Node24</title>
<g id="a_node24"><a xlink:href="classOutputInterface.html" target="_top" xlink:title="A class to provide an common interface to objects requiring &quot;outputs&quot; option.">
<polygon fill="white" stroke="#666666" points="558,-278 451,-278 451,-259 558,-259 558,-278"/>
<text text-anchor="middle" x="504.5" y="-266" font-family="Courier,monospace" font-size="10.00">OutputInterface</text>
</a>
</g>
</g>
<!-- Node24&#45;&gt;Node2 -->
<g id="edge23" class="edge">
<title>Node24&#45;&gt;Node2</title>
<path fill="none" stroke="#63b8ff" d="M569.71,-273.37C583.29,-276.26 597.1,-280.7 609,-287.5 670.02,-322.35 716.05,-397.61 731.17,-424.61"/>
<polygon fill="#63b8ff" stroke="#63b8ff" points="570.36,-269.93 559.89,-271.57 569.1,-276.82 570.36,-269.93"/>
</g>
<!-- Node25 -->
<g id="node25" class="node">
<title>Node25</title>
<g id="a_node25"><a xlink:href="classRandomInterface.html" target="_top" xlink:title="Interface for objects that need parallel consistent random numbers without patterns over the course o...">
<polygon fill="white" stroke="#666666" points="558,-241 451,-241 451,-222 558,-222 558,-241"/>
<text text-anchor="middle" x="504.5" y="-229" font-family="Courier,monospace" font-size="10.00">RandomInterface</text>
</a>
</g>
</g>
<!-- Node25&#45;&gt;Node2 -->
<g id="edge24" class="edge">
<title>Node25&#45;&gt;Node2</title>
<path fill="none" stroke="#63b8ff" d="M569.46,-235.24C583.28,-238.17 597.25,-242.92 609,-250.5 678.88,-295.6 721.02,-393.88 732.97,-424.91"/>
<polygon fill="#63b8ff" stroke="#63b8ff" points="570.4,-231.85 559.94,-233.53 569.16,-238.74 570.4,-231.85"/>
</g>
<!-- Node26 -->
<g id="node26" class="node">
<title>Node26</title>
<g id="a_node26"><a xlink:href="classElementIDInterface.html" target="_top" xlink:title=" ">
<polygon fill="white" stroke="#666666" points="567,-204 442,-204 442,-185 567,-185 567,-204"/>
<text text-anchor="middle" x="504.5" y="-192" font-family="Courier,monospace" font-size="10.00">ElementIDInterface</text>
</a>
</g>
</g>
<!-- Node26&#45;&gt;Node2 -->
<g id="edge25" class="edge">
<title>Node26&#45;&gt;Node2</title>
<path fill="none" stroke="#63b8ff" d="M578.25,-199.57C589.21,-202.61 599.88,-207.06 609,-213.5 687.53,-268.92 724.54,-389.18 733.99,-424.53"/>
<polygon fill="#63b8ff" stroke="#63b8ff" points="579.26,-196.22 568.73,-197.33 577.66,-203.03 579.26,-196.22"/>
</g>
<!-- Node27 -->
<g id="node27" class="node">
<title>Node27</title>
<g id="a_node27"><a xlink:href="classGeometricSearchInterface.html" target="_top" xlink:title=" ">
<polygon fill="white" stroke="#666666" points="585,-167 424,-167 424,-148 585,-148 585,-167"/>
<text text-anchor="middle" x="504.5" y="-155" font-family="Courier,monospace" font-size="10.00">GeometricSearchInterface</text>
</a>
</g>
</g>
<!-- Node27&#45;&gt;Node2 -->
<g id="edge26" class="edge">
<title>Node27&#45;&gt;Node2</title>
<path fill="none" stroke="darkgreen" d="M595.82,-168.52C600.48,-170.78 604.91,-173.41 609,-176.5 696.72,-242.73 727.83,-385.67 734.85,-424.56"/>
<polygon fill="darkgreen" stroke="darkgreen" points="597.3,-165.35 586.72,-164.77 594.63,-171.82 597.3,-165.35"/>
</g>
<!-- Node28 -->
<g id="node28" class="node">
<title>Node28</title>
<g id="a_node28"><a xlink:href="classADFunctorInterface.html" target="_top" xlink:title="An interface for accessing Moose::Functors for systems that care about automatic differentiation,...">
<polygon fill="white" stroke="#666666" points="567,-130 442,-130 442,-111 567,-111 567,-130"/>
<text text-anchor="middle" x="504.5" y="-118" font-family="Courier,monospace" font-size="10.00">ADFunctorInterface</text>
</a>
</g>
</g>
<!-- Node28&#45;&gt;Node2 -->
<g id="edge27" class="edge">
<title>Node28&#45;&gt;Node2</title>
<path fill="none" stroke="darkgreen" d="M578.53,-124.56C589.54,-127.71 600.16,-132.46 609,-139.5 706.14,-216.8 730.74,-382.58 735.51,-424.64"/>
<polygon fill="darkgreen" stroke="darkgreen" points="579.44,-121.18 568.9,-122.27 577.82,-127.99 579.44,-121.18"/>
</g>
<!-- Node29 -->
<g id="node29" class="node">
<title>Node29</title>
<g id="a_node29"><a xlink:href="classFunctorInterface.html" target="_top" xlink:title="An interface for accessing Moose::Functors.">
<polygon fill="white" stroke="#666666" points="331,-130 218,-130 218,-111 331,-111 331,-130"/>
<text text-anchor="middle" x="274.5" y="-118" font-family="Courier,monospace" font-size="10.00">FunctorInterface</text>
</a>
</g>
</g>
<!-- Node29&#45;&gt;Node28 -->
<g id="edge28" class="edge">
<title>Node29&#45;&gt;Node28</title>
<path fill="none" stroke="#63b8ff" d="M342.57,-120.5C373.99,-120.5 411.18,-120.5 441.89,-120.5"/>
<polygon fill="#63b8ff" stroke="#63b8ff" points="342.79,-117 332.79,-120.5 342.79,-124 342.79,-117"/>
</g>
<!-- Node30 -->
<g id="node30" class="node">
<title>Node30</title>
<g id="a_node30"><a xlink:href="classSolutionInvalidInterface.html" target="_top" xlink:title="An interface that allows the marking of invalid solutions during a solve.">
<polygon fill="white" stroke="#666666" points="585,-93 424,-93 424,-74 585,-74 585,-93"/>
<text text-anchor="middle" x="504.5" y="-81" font-family="Courier,monospace" font-size="10.00">SolutionInvalidInterface</text>
</a>
</g>
</g>
<!-- Node30&#45;&gt;Node2 -->
<g id="edge29" class="edge">
<title>Node30&#45;&gt;Node2</title>
<path fill="none" stroke="darkgreen" d="M595.51,-93.74C600.32,-96.18 604.87,-99.07 609,-102.5 715.65,-191.04 733.3,-379.61 736.03,-424.68"/>
<polygon fill="darkgreen" stroke="darkgreen" points="597.27,-90.69 586.7,-89.97 594.51,-97.12 597.27,-90.69"/>
</g>
<!-- Node31 -->
<g id="node31" class="node">
<title>Node31</title>
<g id="a_node31"><a xlink:href="classNeighborCoupleable.html" target="_top" xlink:title="Enhances Coupleable interface to also couple the values from neighbor elements.">
<polygon fill="white" stroke="#666666" points="800,-56 675,-56 675,-37 800,-37 800,-56"/>
<text text-anchor="middle" x="737.5" y="-44" font-family="Courier,monospace" font-size="10.00">NeighborCoupleable</text>
</a>
</g>
</g>
<!-- Node31&#45;&gt;Node1 -->
<g id="edge30" class="edge">
<title>Node31&#45;&gt;Node1</title>
<path fill="none" stroke="#63b8ff" d="M811.72,-46.5C829.62,-46.5 848.54,-46.5 865.67,-46.5"/>
<polygon fill="#63b8ff" stroke="#63b8ff" points="811.95,-43 801.95,-46.5 811.95,-50 811.95,-43"/>
</g>
<!-- Node32 -->
<g id="node32" class="node">
<title>Node32</title>
<g id="a_node32"><a xlink:href="classCoupleable.html" target="_top" xlink:title="Interface for objects that needs coupling capabilities.">
<polygon fill="white" stroke="#666666" points="543,-56 466,-56 466,-37 543,-37 543,-56"/>
<text text-anchor="middle" x="504.5" y="-44" font-family="Courier,monospace" font-size="10.00">Coupleable</text>
</a>
</g>
</g>
<!-- Node32&#45;&gt;Node31 -->
<g id="edge31" class="edge">
<title>Node32&#45;&gt;Node31</title>
<path fill="none" stroke="#63b8ff" d="M554.76,-46.5C589.79,-46.5 637.09,-46.5 674.66,-46.5"/>
<polygon fill="#63b8ff" stroke="#63b8ff" points="554.9,-43 544.9,-46.5 554.9,-50 554.9,-43"/>
</g>
<!-- Node33 -->
<g id="node33" class="node">
<title>Node33</title>
<g id="a_node33"><a xlink:href="classTwoMaterialPropertyInterface.html" target="_top" xlink:title="This interface is designed for DGKernel, InternalSideUserObject, InterfaceUserObject,...">
<polygon fill="white" stroke="#666666" points="830,-19 645,-19 645,0 830,0 830,-19"/>
<text text-anchor="middle" x="737.5" y="-7" font-family="Courier,monospace" font-size="10.00">TwoMaterialPropertyInterface</text>
</a>
</g>
</g>
<!-- Node33&#45;&gt;Node1 -->
<g id="edge32" class="edge">
<title>Node33&#45;&gt;Node1</title>
<path fill="none" stroke="#63b8ff" d="M800.37,-21.64C810.28,-23.59 820.42,-25.6 830,-27.5 844.61,-30.41 860.48,-33.59 874.97,-36.5"/>
<polygon fill="#63b8ff" stroke="#63b8ff" points="801.3,-18.25 790.81,-19.75 799.95,-25.12 801.3,-18.25"/>
</g>
<!-- Node34 -->
<g id="node34" class="node">
<title>Node34</title>
<g id="a_node34"><a xlink:href="classMaterialPropertyInterface.html" target="_top" xlink:title="An interface for accessing Materials.">
<polygon fill="white" stroke="#666666" points="588,-19 421,-19 421,0 588,0 588,-19"/>
<text text-anchor="middle" x="504.5" y="-7" font-family="Courier,monospace" font-size="10.00">MaterialPropertyInterface</text>
</a>
</g>
</g>
<!-- Node34&#45;&gt;Node33 -->
<g id="edge33" class="edge">
<title>Node34&#45;&gt;Node33</title>
<path fill="none" stroke="#63b8ff" d="M599.5,-9.5C614.36,-9.5 629.72,-9.5 644.54,-9.5"/>
<polygon fill="#63b8ff" stroke="#63b8ff" points="599.76,-6 589.76,-9.5 599.76,-13 599.76,-6"/>
</g>
</g>
</svg>
        <g id="navigator" transform="translate(0 0)" fill="#404254">
                <rect fill="#f2f5e9" fill-opacity="0.5" stroke="#606060" stroke-width=".5" x="0" y="0" width="60" height="60"/>
                <use id="zoomplus" xlink:href="#zoomPlus" x="17" y="9" onmousedown="handleZoom(evt,'in')"/>
                <use id="zoomminus" xlink:href="#zoomMin" x="42" y="9" onmousedown="handleZoom(evt,'out')"/>
                <use id="reset" xlink:href="#resetDef" x="30" y="36" onmousedown="handleReset()"/>
                <g id="arrowUp" xlink:href="#dirArrow" transform="translate(30 24)" onmousedown="handlePan(0,-1)">
                  <use xlink:href="#rim" fill="#404040">
                        <set attributeName="fill" to="#808080" begin="arrowUp.mouseover" end="arrowUp.mouseout"/>
                  </use>
                  <path fill="none" stroke="white" stroke-width="1.5" d="M0,-3.0v7 M-2.5,-0.5L0,-3.0L2.5,-0.5"/>
                </g>
                <g id="arrowRight" xlink:href="#dirArrow" transform="rotate(90) translate(36 -43)" onmousedown="handlePan(1,0)">
                  <use xlink:href="#rim" fill="#404040">
                        <set attributeName="fill" to="#808080" begin="arrowRight.mouseover" end="arrowRight.mouseout"/>
                  </use>
                  <path fill="none" stroke="white" stroke-width="1.5" d="M0,-3.0v7 M-2.5,-0.5L0,-3.0L2.5,-0.5"/>
                </g>
                <g id="arrowDown" xlink:href="#dirArrow" transform="rotate(180) translate(-30 -48)" onmousedown="handlePan(0,1)">
                  <use xlink:href="#rim" fill="#404040">
                        <set attributeName="fill" to="#808080" begin="arrowDown.mouseover" end="arrowDown.mouseout"/>
                  </use>
                  <path fill="none" stroke="white" stroke-width="1.5" d="M0,-3.0v7 M-2.5,-0.5L0,-3.0L2.5,-0.5"/>
                </g>
                <g id="arrowLeft" xlink:href="#dirArrow" transform="rotate(270) translate(-36 17)" onmousedown="handlePan(-1,0)">
                  <use xlink:href="#rim" fill="#404040">
                        <set attributeName="fill" to="#808080" begin="arrowLeft.mouseover" end="arrowLeft.mouseout"/>
                  </use>
                  <path fill="none" stroke="white" stroke-width="1.5" d="M0,-3.0v7 M-2.5,-0.5L0,-3.0L2.5,-0.5"/>
                </g>
        </g>
        <svg viewBox="0 0 15 15" width="100%" height="30px" preserveAspectRatio="xMaxYMin meet">
         <g id="arrow_out" transform="scale(0.3 0.3)">
          <a xlink:href="classInterfaceMaterial__inherit__graph_org.svg" target="_base">
           <rect id="button" ry="5" rx="5" y="6" x="6" height="38" width="38"
                fill="#f2f5e9" fill-opacity="0.5" stroke="#606060" stroke-width="1.0"/>
           <path id="arrow"
             d="M 11.500037,31.436501 C 11.940474,20.09759 22.043105,11.32322 32.158766,21.979434 L 37.068811,17.246167 C 37.068811,17.246167 37.088388,32 37.088388,32 L 22.160133,31.978069 C 22.160133,31.978069 26.997745,27.140456 26.997745,27.140456 C 18.528582,18.264221 13.291696,25.230495 11.500037,31.436501 z"
             style="fill:#404040;"/>
          </a>
         </g>
        </svg>
</svg>
