<?xml version="1.0" encoding="UTF-8" standalone="no"?>
<!DOCTYPE svg PUBLIC "-//W3C//DTD SVG 1.1//EN"
 "http://www.w3.org/Graphics/SVG/1.1/DTD/svg11.dtd">
<!-- Generated by graphviz version 7.0.5 (20221223.1930)
 -->
<!-- Title: ExecutorInterface Pages: 1 -->
<svg width="127pt" height="137pt"
 viewBox="0.00 0.00 127.00 137.00" xmlns="http://www.w3.org/2000/svg" xmlns:xlink="http://www.w3.org/1999/xlink">
<g id="graph0" class="graph" transform="scale(1 1) rotate(0) translate(4 133)">
<title>ExecutorInterface</title>
<!-- Node1 -->
<g id="node1" class="node">
<title>Node1</title>
<g id="a_node1"><a xlink:title="Interface class for classes which interact with Postprocessors.">
<polygon fill="#999999" stroke="#666666" points="119,-129 0,-129 0,-110 119,-110 119,-129"/>
<text text-anchor="middle" x="59.5" y="-117" font-family="Courier,monospace" font-size="10.00">ExecutorInterface</text>
</a>
</g>
</g>
<!-- Node2 -->
<g id="node2" class="node">
<title>Node2</title>
<g id="a_node2"><a xlink:href="classExecutor.html" target="_top" xlink:title="The Executor class directs the execution flow of simulations.">
<polygon fill="white" stroke="#666666" points="92,-74 27,-74 27,-55 92,-55 92,-74"/>
<text text-anchor="middle" x="59.5" y="-62" font-family="Courier,monospace" font-size="10.00">Executor</text>
</a>
</g>
</g>
<!-- Node1&#45;&gt;Node2 -->
<g id="edge1" class="edge">
<title>Node1&#45;&gt;Node2</title>
<path fill="none" stroke="#63b8ff" d="M59.5,-98.35C59.5,-90.1 59.5,-80.97 59.5,-74.44"/>
<polygon fill="#63b8ff" stroke="#63b8ff" points="56,-98.23 59.5,-108.23 63,-98.23 56,-98.23"/>
</g>
<!-- Node3 -->
<g id="node3" class="node">
<title>Node3</title>
<g id="a_node3"><a xlink:href="classNullExecutor.html" target="_top" xlink:title=" ">
<polygon fill="white" stroke="#666666" points="104,-19 15,-19 15,0 104,0 104,-19"/>
<text text-anchor="middle" x="59.5" y="-7" font-family="Courier,monospace" font-size="10.00">NullExecutor</text>
</a>
</g>
</g>
<!-- Node2&#45;&gt;Node3 -->
<g id="edge2" class="edge">
<title>Node2&#45;&gt;Node3</title>
<path fill="none" stroke="#63b8ff" d="M59.5,-43.35C59.5,-35.1 59.5,-25.97 59.5,-19.44"/>
<polygon fill="#63b8ff" stroke="#63b8ff" points="56,-43.23 59.5,-53.23 63,-43.23 56,-43.23"/>
</g>
</g>
</svg>
