<?xml version="1.0" encoding="UTF-8" standalone="no"?>
<!DOCTYPE svg PUBLIC "-//W3C//DTD SVG 1.1//EN"
 "http://www.w3.org/Graphics/SVG/1.1/DTD/svg11.dtd">
<!-- Generated by graphviz version 7.0.5 (20221223.1930)
 -->
<!-- Title: InterfaceDiffusiveFluxAverageTempl&lt; is_ad &gt; Pages: 1 -->
<!--zoomable 924 -->
<svg id="main" version="1.1" xmlns="http://www.w3.org/2000/svg" xmlns:xlink="http://www.w3.org/1999/xlink" xml:space="preserve" onload="init(evt)">
<style type="text/css"><![CDATA[
.edge:hover path { stroke: red; }
.edge:hover polygon { stroke: red; fill: red; }
]]></style>
<script type="text/javascript"><![CDATA[
var edges = document.getElementsByTagName('g');
if (edges && edges.length) {
  for (var i=0;i<edges.length;i++) {
    if (edges[i].id.substr(0,4)=='edge') {
      edges[i].setAttribute('class','edge');
    }
  }
}
]]></script>
        <defs>
                <circle id="rim" cx="0" cy="0" r="7"/>
                <circle id="rim2" cx="0" cy="0" r="3.5"/>
                <g id="zoomPlus">
                        <use xlink:href="#rim" fill="#404040">
                                <set attributeName="fill" to="#808080" begin="zoomplus.mouseover" end="zoomplus.mouseout"/>
                        </use>
                        <path d="M-4,0h8M0,-4v8" fill="none" stroke="white" stroke-width="1.5" pointer-events="none"/>
                </g>
                <g id="zoomMin">
                        <use xlink:href="#rim" fill="#404040">
                                <set attributeName="fill" to="#808080" begin="zoomminus.mouseover" end="zoomminus.mouseout"/>
                        </use>
                        <path d="M-4,0h8" fill="none" stroke="white" stroke-width="1.5" pointer-events="none"/>
                </g>
                <g id="dirArrow">
                        <path fill="none" stroke="white" stroke-width="1.5" d="M0,-3.0v7 M-2.5,-0.5L0,-3.0L2.5,-0.5"/>
                </g>
               <g id="resetDef">
                       <use xlink:href="#rim2" fill="#404040">
                               <set attributeName="fill" to="#808080" begin="reset.mouseover" end="reset.mouseout"/>
                       </use>
               </g>
        </defs>

<script type="text/javascript">
var viewWidth = 2074;
var viewHeight = 924;
var sectionId = 'dynsection-0';
</script>
<script xlink:href="svgpan.js"/>
<svg id="graph" class="graph">
<g id="viewport">
<title>InterfaceDiffusiveFluxAverageTempl&lt; is_ad &gt;</title>
<!-- Node1 -->
<g id="node1" class="node">
<title>Node1</title>
<g id="a_node1"><a xlink:title=" ">
<polygon fill="#999999" stroke="#666666" points="2066,-109 1875,-109 1875,-79 2066,-79 2066,-109"/>
<text text-anchor="start" x="1883" y="-97" font-family="Courier,monospace" font-size="10.00">InterfaceDiffusiveFluxAverage</text>
<text text-anchor="middle" x="1970.5" y="-86" font-family="Courier,monospace" font-size="10.00">Templ&lt; is_ad &gt;</text>
</a>
</g>
</g>
<!-- Node2 -->
<g id="node2" class="node">
<title>Node2</title>
<g id="a_node2"><a xlink:href="classInterfaceDiffusiveFluxIntegralTempl.html" target="_top" xlink:title="This postprocessor computes an integral of the diffusive flux over an interface.">
<polygon fill="white" stroke="#666666" points="1839,-109 1642,-109 1642,-79 1839,-79 1839,-109"/>
<text text-anchor="start" x="1650" y="-97" font-family="Courier,monospace" font-size="10.00">InterfaceDiffusiveFluxIntegral</text>
<text text-anchor="middle" x="1740.5" y="-86" font-family="Courier,monospace" font-size="10.00">Templ&lt; is_ad &gt;</text>
</a>
</g>
</g>
<!-- Node2&#45;&gt;Node1 -->
<g id="edge1" class="edge">
<title>Node2&#45;&gt;Node1</title>
<path fill="none" stroke="#63b8ff" d="M1850.51,-94C1858.54,-94 1866.61,-94 1874.55,-94"/>
<polygon fill="#63b8ff" stroke="#63b8ff" points="1850.7,-90.5 1840.7,-94 1850.7,-97.5 1850.7,-90.5"/>
</g>
<!-- Node3 -->
<g id="node3" class="node">
<title>Node3</title>
<g id="a_node3"><a xlink:href="classInterfaceIntegralPostprocessor.html" target="_top" xlink:title="This postprocessor add generel capabilities to the InterfacePostprocessor to compute an integral over...">
<polygon fill="white" stroke="#666666" points="1606,-103.5 1409,-103.5 1409,-84.5 1606,-84.5 1606,-103.5"/>
<text text-anchor="middle" x="1507.5" y="-91.5" font-family="Courier,monospace" font-size="10.00">InterfaceIntegralPostprocessor</text>
</a>
</g>
</g>
<!-- Node3&#45;&gt;Node2 -->
<g id="edge2" class="edge">
<title>Node3&#45;&gt;Node2</title>
<path fill="none" stroke="#63b8ff" d="M1617.75,-94C1625.76,-94 1633.81,-94 1641.75,-94"/>
<polygon fill="#63b8ff" stroke="#63b8ff" points="1617.98,-90.5 1607.98,-94 1617.98,-97.5 1617.98,-90.5"/>
</g>
<!-- Node4 -->
<g id="node4" class="node">
<title>Node4</title>
<g id="a_node4"><a xlink:href="classInterfacePostprocessor.html" target="_top" xlink:title="BASE CLASS FOR IMPLEMENTING INTERFACE POSTRPOCESSOR ALL INTERFACE POSTPROCESOR SHOULD DERIVE FROM THI...">
<polygon fill="white" stroke="#666666" points="1373,-103.5 1224,-103.5 1224,-84.5 1373,-84.5 1373,-103.5"/>
<text text-anchor="middle" x="1298.5" y="-91.5" font-family="Courier,monospace" font-size="10.00">InterfacePostprocessor</text>
</a>
</g>
</g>
<!-- Node4&#45;&gt;Node3 -->
<g id="edge3" class="edge">
<title>Node4&#45;&gt;Node3</title>
<path fill="none" stroke="#63b8ff" d="M1384.82,-94C1392.73,-94 1400.79,-94 1408.8,-94"/>
<polygon fill="#63b8ff" stroke="#63b8ff" points="1384.87,-90.5 1374.87,-94 1384.87,-97.5 1384.87,-90.5"/>
</g>
<!-- Node5 -->
<g id="node5" class="node">
<title>Node5</title>
<g id="a_node5"><a xlink:href="classInterfaceUserObject.html" target="_top" xlink:title="Base class for implementing interface user objects.">
<polygon fill="white" stroke="#666666" points="1188,-147.5 1057,-147.5 1057,-128.5 1188,-128.5 1188,-147.5"/>
<text text-anchor="middle" x="1122.5" y="-135.5" font-family="Courier,monospace" font-size="10.00">InterfaceUserObject</text>
</a>
</g>
</g>
<!-- Node5&#45;&gt;Node4 -->
<g id="edge4" class="edge">
<title>Node5&#45;&gt;Node4</title>
<path fill="none" stroke="#63b8ff" d="M1174.08,-125.21C1200.87,-118.43 1233.29,-110.24 1258.17,-103.94"/>
<polygon fill="#63b8ff" stroke="#63b8ff" points="1173.29,-121.8 1164.45,-127.64 1175,-128.59 1173.29,-121.8"/>
</g>
<!-- Node6 -->
<g id="node6" class="node">
<title>Node6</title>
<g id="a_node6"><a xlink:href="classInterfaceUserObjectBase.html" target="_top" xlink:title="Base class for implementing interface user objects.">
<polygon fill="white" stroke="#666666" points="1021,-193.5 866,-193.5 866,-174.5 1021,-174.5 1021,-193.5"/>
<text text-anchor="middle" x="943.5" y="-181.5" font-family="Courier,monospace" font-size="10.00">InterfaceUserObjectBase</text>
</a>
</g>
</g>
<!-- Node6&#45;&gt;Node5 -->
<g id="edge5" class="edge">
<title>Node6&#45;&gt;Node5</title>
<path fill="none" stroke="#63b8ff" d="M993.77,-171.2C1022.03,-163.85 1056.98,-154.77 1083.17,-147.96"/>
<polygon fill="#63b8ff" stroke="#63b8ff" points="993.17,-167.74 984.37,-173.64 994.93,-174.51 993.17,-167.74"/>
</g>
<!-- Node7 -->
<g id="node7" class="node">
<title>Node7</title>
<g id="a_node7"><a xlink:href="classUserObject.html" target="_top" xlink:title="Base class for user&#45;specific data.">
<polygon fill="white" stroke="#666666" points="764,-563.5 687,-563.5 687,-544.5 764,-544.5 764,-563.5"/>
<text text-anchor="middle" x="725.5" y="-551.5" font-family="Courier,monospace" font-size="10.00">UserObject</text>
</a>
</g>
</g>
<!-- Node7&#45;&gt;Node6 -->
<g id="edge6" class="edge">
<title>Node7&#45;&gt;Node6</title>
<path fill="none" stroke="#63b8ff" d="M738.04,-534.24C777.75,-466.21 907.95,-243.18 936.81,-193.76"/>
<polygon fill="#63b8ff" stroke="#63b8ff" points="735.06,-532.4 733.04,-542.8 741.1,-535.92 735.06,-532.4"/>
</g>
<!-- Node8 -->
<g id="node8" class="node">
<title>Node8</title>
<g id="a_node8"><a xlink:href="classMooseObject.html" target="_top" xlink:title="Every object that can be built by the factory should be derived from this class.">
<polygon fill="white" stroke="#666666" points="534,-841.5 451,-841.5 451,-822.5 534,-822.5 534,-841.5"/>
<text text-anchor="middle" x="492.5" y="-829.5" font-family="Courier,monospace" font-size="10.00">MooseObject</text>
</a>
</g>
</g>
<!-- Node8&#45;&gt;Node7 -->
<g id="edge7" class="edge">
<title>Node8&#45;&gt;Node7</title>
<path fill="none" stroke="#63b8ff" d="M545.39,-829.82C559.28,-827.19 573.59,-822.43 585,-814 675.85,-746.88 713.69,-602.49 722.44,-563.74"/>
<polygon fill="#63b8ff" stroke="#63b8ff" points="545.25,-826.3 535.9,-831.27 546.31,-833.22 545.25,-826.3"/>
</g>
<!-- Node9 -->
<g id="node9" class="node">
<title>Node9</title>
<g id="a_node9"><a xlink:href="classMooseBase.html" target="_top" xlink:title="Base class for everything in MOOSE with a name and a type.">
<polygon fill="white" stroke="#666666" points="310,-915.5 239,-915.5 239,-896.5 310,-896.5 310,-915.5"/>
<text text-anchor="middle" x="274.5" y="-903.5" font-family="Courier,monospace" font-size="10.00">MooseBase</text>
</a>
</g>
</g>
<!-- Node9&#45;&gt;Node8 -->
<g id="edge8" class="edge">
<title>Node9&#45;&gt;Node8</title>
<path fill="none" stroke="#63b8ff" d="M321.62,-898.55C335.41,-895.81 350.46,-892.3 364,-888 403.87,-875.35 448.08,-854.22 472.56,-841.85"/>
<polygon fill="#63b8ff" stroke="#63b8ff" points="321.06,-895.09 311.89,-900.39 322.36,-901.97 321.06,-895.09"/>
</g>
<!-- Node10 -->
<g id="node10" class="node">
<title>Node10</title>
<g id="a_node10"><a xlink:href="classMooseBaseParameterInterface.html" target="_top" xlink:title="Every object that can be built by the factory should be derived from this class.">
<polygon fill="white" stroke="#666666" points="364,-878.5 185,-878.5 185,-859.5 364,-859.5 364,-878.5"/>
<text text-anchor="middle" x="274.5" y="-866.5" font-family="Courier,monospace" font-size="10.00">MooseBaseParameterInterface</text>
</a>
</g>
</g>
<!-- Node10&#45;&gt;Node8 -->
<g id="edge9" class="edge">
<title>Node10&#45;&gt;Node8</title>
<path fill="none" stroke="#63b8ff" d="M344.77,-857.13C379.7,-851.15 420.85,-844.1 450.68,-838.99"/>
<polygon fill="#63b8ff" stroke="#63b8ff" points="344.43,-853.64 335.16,-858.78 345.61,-860.54 344.43,-853.64"/>
</g>
<!-- Node11 -->
<g id="node11" class="node">
<title>Node11</title>
<g id="a_node11"><a xlink:href="classMooseBaseErrorInterface.html" target="_top" xlink:title="Interface that provides APIs to output errors/warnings/info messages.">
<polygon fill="white" stroke="#666666" points="352,-841.5 197,-841.5 197,-822.5 352,-822.5 352,-841.5"/>
<text text-anchor="middle" x="274.5" y="-829.5" font-family="Courier,monospace" font-size="10.00">MooseBaseErrorInterface</text>
</a>
</g>
</g>
<!-- Node11&#45;&gt;Node8 -->
<g id="edge10" class="edge">
<title>Node11&#45;&gt;Node8</title>
<path fill="none" stroke="#63b8ff" d="M363.7,-832C393.87,-832 426.17,-832 450.75,-832"/>
<polygon fill="#63b8ff" stroke="#63b8ff" points="363.78,-828.5 353.78,-832 363.78,-835.5 363.78,-828.5"/>
</g>
<!-- Node12 -->
<g id="node12" class="node">
<title>Node12</title>
<g id="a_node12"><a xlink:href="classConsoleStreamInterface.html" target="_top" xlink:title="An inteface for the _console for outputting to the Console object.">
<polygon fill="white" stroke="#666666" points="149,-841.5 0,-841.5 0,-822.5 149,-822.5 149,-841.5"/>
<text text-anchor="middle" x="74.5" y="-829.5" font-family="Courier,monospace" font-size="10.00">ConsoleStreamInterface</text>
</a>
</g>
</g>
<!-- Node12&#45;&gt;Node11 -->
<g id="edge11" class="edge">
<title>Node12&#45;&gt;Node11</title>
<path fill="none" stroke="#63b8ff" d="M160.62,-832C172.62,-832 184.9,-832 196.73,-832"/>
<polygon fill="#63b8ff" stroke="#63b8ff" points="160.74,-828.5 150.74,-832 160.74,-835.5 160.74,-828.5"/>
</g>
<!-- Node13 -->
<g id="node13" class="node">
<title>Node13</title>
<g id="a_node13"><a xlink:title=" ">
<polygon fill="white" stroke="#666666" points="352,-804.5 197,-804.5 197,-785.5 352,-785.5 352,-804.5"/>
<text text-anchor="middle" x="274.5" y="-792.5" font-family="Courier,monospace" font-size="10.00">libMesh::ParallelObject</text>
</a>
</g>
</g>
<!-- Node13&#45;&gt;Node8 -->
<g id="edge12" class="edge">
<title>Node13&#45;&gt;Node8</title>
<path fill="none" stroke="#63b8ff" d="M344.77,-806.87C379.7,-812.85 420.85,-819.9 450.68,-825.01"/>
<polygon fill="#63b8ff" stroke="#63b8ff" points="345.61,-803.46 335.16,-805.22 344.43,-810.36 345.61,-803.46"/>
</g>
<!-- Node14 -->
<g id="node14" class="node">
<title>Node14</title>
<g id="a_node14"><a xlink:href="classDataFileInterface.html" target="_top" xlink:title=" ">
<polygon fill="white" stroke="#666666" points="337,-767 212,-767 212,-737 337,-737 337,-767"/>
<text text-anchor="start" x="220" y="-755" font-family="Courier,monospace" font-size="10.00">DataFileInterface&lt;</text>
<text text-anchor="middle" x="274.5" y="-744" font-family="Courier,monospace" font-size="10.00"> MooseObject &gt;</text>
</a>
</g>
</g>
<!-- Node14&#45;&gt;Node8 -->
<g id="edge13" class="edge">
<title>Node14&#45;&gt;Node8</title>
<path fill="none" stroke="#63b8ff" d="M347.62,-768.85C353.32,-771.23 358.86,-773.94 364,-777 383.71,-788.74 379.83,-803.07 400,-814 415.37,-822.33 434.06,-826.84 450.53,-829.26"/>
<polygon fill="#63b8ff" stroke="#63b8ff" points="349.23,-765.72 338.64,-765.44 346.74,-772.26 349.23,-765.72"/>
</g>
<!-- Node15 -->
<g id="node15" class="node">
<title>Node15</title>
<g id="a_node15"><a xlink:href="classSetupInterface.html" target="_top" xlink:title=" ">
<polygon fill="white" stroke="#666666" points="543,-804.5 442,-804.5 442,-785.5 543,-785.5 543,-804.5"/>
<text text-anchor="middle" x="492.5" y="-792.5" font-family="Courier,monospace" font-size="10.00">SetupInterface</text>
</a>
</g>
</g>
<!-- Node15&#45;&gt;Node7 -->
<g id="edge14" class="edge">
<title>Node15&#45;&gt;Node7</title>
<path fill="none" stroke="#63b8ff" d="M554.61,-790.18C565.37,-787.38 575.99,-783.2 585,-777 666.99,-720.54 710.5,-598.53 721.61,-563.55"/>
<polygon fill="#63b8ff" stroke="#63b8ff" points="553.92,-786.75 544.89,-792.3 555.41,-793.59 553.92,-786.75"/>
</g>
<!-- Node16 -->
<g id="node16" class="node">
<title>Node16</title>
<g id="a_node16"><a xlink:href="classFunctionInterface.html" target="_top" xlink:title="Interface for objects that need to use functions.">
<polygon fill="white" stroke="#666666" points="552,-767.5 433,-767.5 433,-748.5 552,-748.5 552,-767.5"/>
<text text-anchor="middle" x="492.5" y="-755.5" font-family="Courier,monospace" font-size="10.00">FunctionInterface</text>
</a>
</g>
</g>
<!-- Node16&#45;&gt;Node7 -->
<g id="edge15" class="edge">
<title>Node16&#45;&gt;Node7</title>
<path fill="none" stroke="darkgreen" d="M563.08,-749.99C570.8,-747.47 578.29,-744.21 585,-740 658.15,-694.06 706.48,-594.95 720.37,-563.67"/>
<polygon fill="darkgreen" stroke="darkgreen" points="562.2,-746.6 553.52,-752.67 564.09,-753.34 562.2,-746.6"/>
</g>
<!-- Node17 -->
<g id="node17" class="node">
<title>Node17</title>
<g id="a_node17"><a xlink:href="classUserObjectInterface.html" target="_top" xlink:title="Interface for objects that need to use UserObjects.">
<polygon fill="white" stroke="#666666" points="558,-730.5 427,-730.5 427,-711.5 558,-711.5 558,-730.5"/>
<text text-anchor="middle" x="492.5" y="-718.5" font-family="Courier,monospace" font-size="10.00">UserObjectInterface</text>
</a>
</g>
</g>
<!-- Node17&#45;&gt;Node7 -->
<g id="edge16" class="edge">
<title>Node17&#45;&gt;Node7</title>
<path fill="none" stroke="#63b8ff" d="M569.1,-710.12C574.63,-708.13 580,-705.77 585,-703 649.46,-667.26 701.26,-591.23 718.42,-563.98"/>
<polygon fill="#63b8ff" stroke="#63b8ff" points="568.23,-706.72 559.74,-713.07 570.33,-713.4 568.23,-706.72"/>
</g>
<!-- Node18 -->
<g id="node18" class="node">
<title>Node18</title>
<g id="a_node18"><a xlink:href="classPostprocessorInterface.html" target="_top" xlink:title="Interface class for classes which interact with Postprocessors.">
<polygon fill="white" stroke="#666666" points="567,-693.5 418,-693.5 418,-674.5 567,-674.5 567,-693.5"/>
<text text-anchor="middle" x="492.5" y="-681.5" font-family="Courier,monospace" font-size="10.00">PostprocessorInterface</text>
</a>
</g>
</g>
<!-- Node18&#45;&gt;Node7 -->
<g id="edge17" class="edge">
<title>Node18&#45;&gt;Node7</title>
<path fill="none" stroke="darkgreen" d="M573.95,-670.52C577.74,-669.16 581.44,-667.65 585,-666 641.32,-639.8 694.79,-586.18 715.48,-563.97"/>
<polygon fill="darkgreen" stroke="darkgreen" points="572.97,-667.16 564.53,-673.55 575.12,-673.82 572.97,-667.16"/>
</g>
<!-- Node19 -->
<g id="node19" class="node">
<title>Node19</title>
<g id="a_node19"><a xlink:href="classVectorPostprocessorInterface.html" target="_top" xlink:title=" ">
<polygon fill="white" stroke="#666666" points="585,-656.5 400,-656.5 400,-637.5 585,-637.5 585,-656.5"/>
<text text-anchor="middle" x="492.5" y="-644.5" font-family="Courier,monospace" font-size="10.00">VectorPostprocessorInterface</text>
</a>
</g>
</g>
<!-- Node19&#45;&gt;Node7 -->
<g id="edge18" class="edge">
<title>Node19&#45;&gt;Node7</title>
<path fill="none" stroke="darkgreen" d="M568.24,-634.23C573.97,-632.67 579.61,-630.93 585,-629 633.15,-611.76 684.97,-579.98 709.71,-563.89"/>
<polygon fill="darkgreen" stroke="darkgreen" points="567.48,-630.82 558.64,-636.66 569.19,-637.6 567.48,-630.82"/>
</g>
<!-- Node20 -->
<g id="node20" class="node">
<title>Node20</title>
<g id="a_node20"><a xlink:href="classReporterInterface.html" target="_top" xlink:title="Interface to allow object to consume Reporter values.">
<polygon fill="white" stroke="#666666" points="552,-619.5 433,-619.5 433,-600.5 552,-600.5 552,-619.5"/>
<text text-anchor="middle" x="492.5" y="-607.5" font-family="Courier,monospace" font-size="10.00">ReporterInterface</text>
</a>
</g>
</g>
<!-- Node20&#45;&gt;Node7 -->
<g id="edge19" class="edge">
<title>Node20&#45;&gt;Node7</title>
<path fill="none" stroke="darkgreen" d="M558.53,-597.8C567.45,-595.96 576.47,-594 585,-592 621.29,-583.5 662.42,-572.07 690.56,-563.98"/>
<polygon fill="darkgreen" stroke="darkgreen" points="557.93,-594.35 548.83,-599.77 559.32,-601.21 557.93,-594.35"/>
</g>
<!-- Node21 -->
<g id="node21" class="node">
<title>Node21</title>
<g id="a_node21"><a xlink:href="classDistributionInterface.html" target="_top" xlink:title="Interface for objects that need to use distributions.">
<polygon fill="white" stroke="#666666" points="564,-582.5 421,-582.5 421,-563.5 564,-563.5 564,-582.5"/>
<text text-anchor="middle" x="492.5" y="-570.5" font-family="Courier,monospace" font-size="10.00">DistributionInterface</text>
</a>
</g>
</g>
<!-- Node21&#45;&gt;Node7 -->
<g id="edge20" class="edge">
<title>Node21&#45;&gt;Node7</title>
<path fill="none" stroke="darkgreen" d="M575.43,-566.26C613.35,-563.14 656.56,-559.59 686.65,-557.11"/>
<polygon fill="darkgreen" stroke="darkgreen" points="575.57,-562.74 565.89,-567.05 576.14,-569.71 575.57,-562.74"/>
</g>
<!-- Node22 -->
<g id="node22" class="node">
<title>Node22</title>
<g id="a_node22"><a xlink:href="classSamplerInterface.html" target="_top" xlink:title="Interface for objects that need to use samplers.">
<polygon fill="white" stroke="#666666" points="549,-545.5 436,-545.5 436,-526.5 549,-526.5 549,-545.5"/>
<text text-anchor="middle" x="492.5" y="-533.5" font-family="Courier,monospace" font-size="10.00">SamplerInterface</text>
</a>
</g>
</g>
<!-- Node22&#45;&gt;Node7 -->
<g id="edge21" class="edge">
<title>Node22&#45;&gt;Node7</title>
<path fill="none" stroke="darkgreen" d="M560.71,-541.24C601.74,-544.43 652.7,-548.41 686.78,-551.06"/>
<polygon fill="darkgreen" stroke="darkgreen" points="561.17,-537.76 550.93,-540.47 560.63,-544.74 561.17,-537.76"/>
</g>
<!-- Node23 -->
<g id="node23" class="node">
<title>Node23</title>
<g id="a_node23"><a xlink:href="classRestartable.html" target="_top" xlink:title="A class for creating restricted objects.">
<polygon fill="white" stroke="#666666" points="534,-508.5 451,-508.5 451,-489.5 534,-489.5 534,-508.5"/>
<text text-anchor="middle" x="492.5" y="-496.5" font-family="Courier,monospace" font-size="10.00">Restartable</text>
</a>
</g>
</g>
<!-- Node23&#45;&gt;Node7 -->
<g id="edge22" class="edge">
<title>Node23&#45;&gt;Node7</title>
<path fill="none" stroke="darkgreen" d="M545.27,-509.3C558.27,-512.01 572.17,-515.01 585,-518 620.08,-526.16 659.83,-536.53 687.9,-544.05"/>
<polygon fill="darkgreen" stroke="darkgreen" points="546.11,-505.9 535.61,-507.31 544.7,-512.76 546.11,-505.9"/>
</g>
<!-- Node24 -->
<g id="node24" class="node">
<title>Node24</title>
<g id="a_node24"><a xlink:href="classMeshMetaDataInterface.html" target="_top" xlink:title="The Interface used to retrieve mesh meta data (attributes) set by the MeshGenerator system.">
<polygon fill="white" stroke="#666666" points="564,-471.5 421,-471.5 421,-452.5 564,-452.5 564,-471.5"/>
<text text-anchor="middle" x="492.5" y="-459.5" font-family="Courier,monospace" font-size="10.00">MeshMetaDataInterface</text>
</a>
</g>
</g>
<!-- Node24&#45;&gt;Node7 -->
<g id="edge23" class="edge">
<title>Node24&#45;&gt;Node7</title>
<path fill="none" stroke="darkgreen" d="M564.33,-474.65C571.39,-476.52 578.38,-478.63 585,-481 632.62,-498.03 684.26,-528.57 709.25,-544.2"/>
<polygon fill="darkgreen" stroke="darkgreen" points="565.25,-471.27 554.7,-472.27 563.56,-478.07 565.25,-471.27"/>
</g>
<!-- Node25 -->
<g id="node25" class="node">
<title>Node25</title>
<g id="a_node25"><a xlink:href="classMeshChangedInterface.html" target="_top" xlink:title="Interface for notifications that the mesh has changed.">
<polygon fill="white" stroke="#666666" points="561,-434.5 424,-434.5 424,-415.5 561,-415.5 561,-434.5"/>
<text text-anchor="middle" x="492.5" y="-422.5" font-family="Courier,monospace" font-size="10.00">MeshChangedInterface</text>
</a>
</g>
</g>
<!-- Node25&#45;&gt;Node7 -->
<g id="edge24" class="edge">
<title>Node25&#45;&gt;Node7</title>
<path fill="none" stroke="darkgreen" d="M570.63,-438.27C575.58,-439.96 580.41,-441.86 585,-444 640.91,-470.06 694.6,-522.54 715.42,-544.25"/>
<polygon fill="darkgreen" stroke="darkgreen" points="571.71,-434.94 561.12,-435.35 569.65,-441.63 571.71,-434.94"/>
</g>
<!-- Node26 -->
<g id="node26" class="node">
<title>Node26</title>
<g id="a_node26"><a xlink:href="classScalarCoupleable.html" target="_top" xlink:title="Interface for objects that needs scalar coupling capabilities.">
<polygon fill="white" stroke="#666666" points="549,-397.5 436,-397.5 436,-378.5 549,-378.5 549,-397.5"/>
<text text-anchor="middle" x="492.5" y="-385.5" font-family="Courier,monospace" font-size="10.00">ScalarCoupleable</text>
</a>
</g>
</g>
<!-- Node26&#45;&gt;Node7 -->
<g id="edge25" class="edge">
<title>Node26&#45;&gt;Node7</title>
<path fill="none" stroke="darkgreen" d="M560.14,-396.84C568.81,-399.41 577.33,-402.73 585,-407 648.93,-442.61 701.07,-517.4 718.37,-544.19"/>
<polygon fill="darkgreen" stroke="darkgreen" points="561.16,-393.49 550.6,-394.34 559.39,-400.26 561.16,-393.49"/>
</g>
<!-- Node27 -->
<g id="node27" class="node">
<title>Node27</title>
<g id="a_node27"><a xlink:href="classPerfGraphInterface.html" target="_top" xlink:title="Interface for objects interacting with the PerfGraph.">
<polygon fill="white" stroke="#666666" points="555,-360.5 430,-360.5 430,-341.5 555,-341.5 555,-360.5"/>
<text text-anchor="middle" x="492.5" y="-348.5" font-family="Courier,monospace" font-size="10.00">PerfGraphInterface</text>
</a>
</g>
</g>
<!-- Node27&#45;&gt;Node7 -->
<g id="edge26" class="edge">
<title>Node27&#45;&gt;Node7</title>
<path fill="none" stroke="darkgreen" d="M566.03,-360.89C572.71,-363.31 579.15,-366.3 585,-370 657.19,-415.6 705.82,-512.7 720.12,-544.03"/>
<polygon fill="darkgreen" stroke="darkgreen" points="567.44,-357.67 556.85,-358 565.34,-364.34 567.44,-357.67"/>
</g>
<!-- Node28 -->
<g id="node28" class="node">
<title>Node28</title>
<g id="a_node28"><a xlink:href="classDependencyResolverInterface.html" target="_top" xlink:title="Interface for sorting dependent vectors of objects.">
<polygon fill="white" stroke="#666666" points="582,-323.5 403,-323.5 403,-304.5 582,-304.5 582,-323.5"/>
<text text-anchor="middle" x="492.5" y="-311.5" font-family="Courier,monospace" font-size="10.00">DependencyResolverInterface</text>
</a>
</g>
</g>
<!-- Node28&#45;&gt;Node7 -->
<g id="edge27" class="edge">
<title>Node28&#45;&gt;Node7</title>
<path fill="none" stroke="#63b8ff" d="M577.97,-328.68C580.4,-330 582.75,-331.44 585,-333 665.91,-389.1 709.89,-508.89 721.41,-544.08"/>
<polygon fill="#63b8ff" stroke="#63b8ff" points="579.52,-325.54 568.98,-324.49 576.57,-331.89 579.52,-325.54"/>
</g>
<!-- Node29 -->
<g id="node29" class="node">
<title>Node29</title>
<g id="a_node29"><a xlink:href="classBoundaryRestrictableRequired.html" target="_top" xlink:title="A class for requiring an object to be boundary restricted.">
<polygon fill="white" stroke="#666666" points="818,-286.5 633,-286.5 633,-267.5 818,-267.5 818,-286.5"/>
<text text-anchor="middle" x="725.5" y="-274.5" font-family="Courier,monospace" font-size="10.00">BoundaryRestrictableRequired</text>
</a>
</g>
</g>
<!-- Node29&#45;&gt;Node6 -->
<g id="edge28" class="edge">
<title>Node29&#45;&gt;Node6</title>
<path fill="none" stroke="#63b8ff" d="M815.56,-264.02C820.5,-262.52 825.35,-260.86 830,-259 870.76,-242.71 912,-210.2 931.27,-193.86"/>
<polygon fill="#63b8ff" stroke="#63b8ff" points="814.8,-260.6 806.08,-266.62 816.65,-267.35 814.8,-260.6"/>
</g>
<!-- Node30 -->
<g id="node30" class="node">
<title>Node30</title>
<g id="a_node30"><a xlink:href="classBoundaryRestrictable.html" target="_top" xlink:title="/class BoundaryRestrictable /brief Provides functionality for limiting the object to certain boundary...">
<polygon fill="white" stroke="#666666" points="561,-286.5 424,-286.5 424,-267.5 561,-267.5 561,-286.5"/>
<text text-anchor="middle" x="492.5" y="-274.5" font-family="Courier,monospace" font-size="10.00">BoundaryRestrictable</text>
</a>
</g>
</g>
<!-- Node30&#45;&gt;Node29 -->
<g id="edge29" class="edge">
<title>Node30&#45;&gt;Node29</title>
<path fill="none" stroke="#63b8ff" d="M572.74,-277C592.06,-277 612.88,-277 632.73,-277"/>
<polygon fill="#63b8ff" stroke="#63b8ff" points="572.76,-273.5 562.76,-277 572.76,-280.5 572.76,-273.5"/>
</g>
<!-- Node31 -->
<g id="node31" class="node">
<title>Node31</title>
<g id="a_node31"><a xlink:href="classTwoMaterialPropertyInterface.html" target="_top" xlink:title="This interface is designed for DGKernel, InternalSideUserObject, InterfaceUserObject,...">
<polygon fill="white" stroke="#666666" points="818,-249.5 633,-249.5 633,-230.5 818,-230.5 818,-249.5"/>
<text text-anchor="middle" x="725.5" y="-237.5" font-family="Courier,monospace" font-size="10.00">TwoMaterialPropertyInterface</text>
</a>
</g>
</g>
<!-- Node31&#45;&gt;Node6 -->
<g id="edge30" class="edge">
<title>Node31&#45;&gt;Node6</title>
<path fill="none" stroke="#63b8ff" d="M803.95,-227.87C812.77,-226.09 821.61,-224.13 830,-222 860.37,-214.28 894.34,-202.33 916.92,-193.9"/>
<polygon fill="#63b8ff" stroke="#63b8ff" points="803.44,-224.41 794.29,-229.74 804.77,-231.28 803.44,-224.41"/>
</g>
<!-- Node32 -->
<g id="node32" class="node">
<title>Node32</title>
<g id="a_node32"><a xlink:href="classMaterialPropertyInterface.html" target="_top" xlink:title="An interface for accessing Materials.">
<polygon fill="white" stroke="#666666" points="576,-249.5 409,-249.5 409,-230.5 576,-230.5 576,-249.5"/>
<text text-anchor="middle" x="492.5" y="-237.5" font-family="Courier,monospace" font-size="10.00">MaterialPropertyInterface</text>
</a>
</g>
</g>
<!-- Node32&#45;&gt;Node31 -->
<g id="edge31" class="edge">
<title>Node32&#45;&gt;Node31</title>
<path fill="none" stroke="#63b8ff" d="M587.5,-240C602.36,-240 617.72,-240 632.54,-240"/>
<polygon fill="#63b8ff" stroke="#63b8ff" points="587.76,-236.5 577.76,-240 587.76,-243.5 587.76,-236.5"/>
</g>
<!-- Node33 -->
<g id="node33" class="node">
<title>Node33</title>
<g id="a_node33"><a xlink:href="classNeighborCoupleable.html" target="_top" xlink:title="Enhances Coupleable interface to also couple the values from neighbor elements.">
<polygon fill="white" stroke="#666666" points="788,-212.5 663,-212.5 663,-193.5 788,-193.5 788,-212.5"/>
<text text-anchor="middle" x="725.5" y="-200.5" font-family="Courier,monospace" font-size="10.00">NeighborCoupleable</text>
</a>
</g>
</g>
<!-- Node33&#45;&gt;Node6 -->
<g id="edge32" class="edge">
<title>Node33&#45;&gt;Node6</title>
<path fill="none" stroke="#63b8ff" d="M799.63,-196.57C820.87,-194.7 844.13,-192.65 865.6,-190.76"/>
<polygon fill="#63b8ff" stroke="#63b8ff" points="799.56,-193.06 789.9,-197.42 800.17,-200.03 799.56,-193.06"/>
</g>
<!-- Node34 -->
<g id="node34" class="node">
<title>Node34</title>
<g id="a_node34"><a xlink:href="classCoupleable.html" target="_top" xlink:title="Interface for objects that needs coupling capabilities.">
<polygon fill="white" stroke="#666666" points="531,-212.5 454,-212.5 454,-193.5 531,-193.5 531,-212.5"/>
<text text-anchor="middle" x="492.5" y="-200.5" font-family="Courier,monospace" font-size="10.00">Coupleable</text>
</a>
</g>
</g>
<!-- Node34&#45;&gt;Node33 -->
<g id="edge33" class="edge">
<title>Node34&#45;&gt;Node33</title>
<path fill="none" stroke="#63b8ff" d="M542.76,-203C577.79,-203 625.09,-203 662.66,-203"/>
<polygon fill="#63b8ff" stroke="#63b8ff" points="542.9,-199.5 532.9,-203 542.9,-206.5 542.9,-199.5"/>
</g>
<!-- Node35 -->
<g id="node35" class="node">
<title>Node35</title>
<g id="a_node35"><a xlink:href="classMooseVariableDependencyInterface.html" target="_top" xlink:title=" ">
<polygon fill="white" stroke="#666666" points="830,-175.5 621,-175.5 621,-156.5 830,-156.5 830,-175.5"/>
<text text-anchor="middle" x="725.5" y="-163.5" font-family="Courier,monospace" font-size="10.00">MooseVariableDependencyInterface</text>
</a>
</g>
</g>
<!-- Node35&#45;&gt;Node6 -->
<g id="edge34" class="edge">
<title>Node35&#45;&gt;Node6</title>
<path fill="none" stroke="#63b8ff" d="M841.81,-175.61C849.88,-176.28 857.9,-176.95 865.68,-177.6"/>
<polygon fill="#63b8ff" stroke="#63b8ff" points="842.15,-172.13 831.9,-174.78 841.57,-179.1 842.15,-172.13"/>
</g>
<!-- Node36 -->
<g id="node36" class="node">
<title>Node36</title>
<g id="a_node36"><a xlink:href="classTransientInterface.html" target="_top" xlink:title="Interface for objects that needs transient capabilities.">
<polygon fill="white" stroke="#666666" points="788,-138.5 663,-138.5 663,-119.5 788,-119.5 788,-138.5"/>
<text text-anchor="middle" x="725.5" y="-126.5" font-family="Courier,monospace" font-size="10.00">TransientInterface</text>
</a>
</g>
</g>
<!-- Node36&#45;&gt;Node6 -->
<g id="edge35" class="edge">
<title>Node36&#45;&gt;Node6</title>
<path fill="none" stroke="#63b8ff" d="M799.24,-141.14C809.61,-143.22 820.11,-145.52 830,-148 859.44,-155.38 892.44,-166.26 915.04,-174.12"/>
<polygon fill="#63b8ff" stroke="#63b8ff" points="800.05,-137.73 789.56,-139.25 798.71,-144.6 800.05,-137.73"/>
</g>
<!-- Node37 -->
<g id="node37" class="node">
<title>Node37</title>
<g id="a_node37"><a xlink:href="classElementIDInterface.html" target="_top" xlink:title=" ">
<polygon fill="white" stroke="#666666" points="788,-101.5 663,-101.5 663,-82.5 788,-82.5 788,-101.5"/>
<text text-anchor="middle" x="725.5" y="-89.5" font-family="Courier,monospace" font-size="10.00">ElementIDInterface</text>
</a>
</g>
</g>
<!-- Node37&#45;&gt;Node6 -->
<g id="edge36" class="edge">
<title>Node37&#45;&gt;Node6</title>
<path fill="none" stroke="#63b8ff" d="M799.6,-101.68C809.99,-104.12 820.4,-107.18 830,-111 870.24,-127.01 911.39,-158.29 930.89,-174.2"/>
<polygon fill="#63b8ff" stroke="#63b8ff" points="800.36,-98.26 789.85,-99.57 798.89,-105.1 800.36,-98.26"/>
</g>
<!-- Node38 -->
<g id="node38" class="node">
<title>Node38</title>
<g id="a_node38"><a xlink:href="classPostprocessor.html" target="_top" xlink:title="Base class for all Postprocessors.">
<polygon fill="white" stroke="#666666" points="1170,-85.5 1075,-85.5 1075,-66.5 1170,-66.5 1170,-85.5"/>
<text text-anchor="middle" x="1122.5" y="-73.5" font-family="Courier,monospace" font-size="10.00">Postprocessor</text>
</a>
</g>
</g>
<!-- Node38&#45;&gt;Node4 -->
<g id="edge37" class="edge">
<title>Node38&#45;&gt;Node4</title>
<path fill="none" stroke="#63b8ff" d="M1181.22,-81.97C1194.76,-83.37 1209.37,-84.88 1223.51,-86.35"/>
<polygon fill="#63b8ff" stroke="#63b8ff" points="1181.94,-78.53 1171.63,-80.98 1181.22,-85.49 1181.94,-78.53"/>
</g>
<!-- Node39 -->
<g id="node39" class="node">
<title>Node39</title>
<g id="a_node39"><a xlink:href="classOutputInterface.html" target="_top" xlink:title="A class to provide an common interface to objects requiring &quot;outputs&quot; option.">
<polygon fill="white" stroke="#666666" points="997,-104.5 890,-104.5 890,-85.5 997,-85.5 997,-104.5"/>
<text text-anchor="middle" x="943.5" y="-92.5" font-family="Courier,monospace" font-size="10.00">OutputInterface</text>
</a>
</g>
</g>
<!-- Node39&#45;&gt;Node38 -->
<g id="edge38" class="edge">
<title>Node39&#45;&gt;Node38</title>
<path fill="none" stroke="#63b8ff" d="M1008.37,-88.14C1030.32,-85.79 1054.46,-83.2 1074.79,-81.01"/>
<polygon fill="#63b8ff" stroke="#63b8ff" points="1008.2,-84.64 998.63,-89.19 1008.95,-91.6 1008.2,-84.64"/>
</g>
<!-- Node40 -->
<g id="node40" class="node">
<title>Node40</title>
<g id="a_node40"><a xlink:href="classNonADFunctorInterface.html" target="_top" xlink:title="An interface for accessing Moose::Functors for systems that do not care about automatic differentiati...">
<polygon fill="white" stroke="#666666" points="1015,-67.5 872,-67.5 872,-48.5 1015,-48.5 1015,-67.5"/>
<text text-anchor="middle" x="943.5" y="-55.5" font-family="Courier,monospace" font-size="10.00">NonADFunctorInterface</text>
</a>
</g>
</g>
<!-- Node40&#45;&gt;Node38 -->
<g id="edge39" class="edge">
<title>Node40&#45;&gt;Node38</title>
<path fill="none" stroke="#63b8ff" d="M1026.77,-66.37C1043.2,-68.04 1059.92,-69.74 1074.65,-71.24"/>
<polygon fill="#63b8ff" stroke="#63b8ff" points="1027.28,-62.9 1016.98,-65.37 1026.57,-69.86 1027.28,-62.9"/>
</g>
<!-- Node41 -->
<g id="node41" class="node">
<title>Node41</title>
<g id="a_node41"><a xlink:href="classFunctorInterface.html" target="_top" xlink:title="An interface for accessing Moose::Functors.">
<polygon fill="white" stroke="#666666" points="782,-64.5 669,-64.5 669,-45.5 782,-45.5 782,-64.5"/>
<text text-anchor="middle" x="725.5" y="-52.5" font-family="Courier,monospace" font-size="10.00">FunctorInterface</text>
</a>
</g>
</g>
<!-- Node41&#45;&gt;Node40 -->
<g id="edge40" class="edge">
<title>Node41&#45;&gt;Node40</title>
<path fill="none" stroke="#63b8ff" d="M793.88,-55.94C818.62,-56.28 846.69,-56.67 871.72,-57.02"/>
<polygon fill="#63b8ff" stroke="#63b8ff" points="793.97,-52.44 783.92,-55.8 793.87,-59.44 793.97,-52.44"/>
</g>
<!-- Node42 -->
<g id="node42" class="node">
<title>Node42</title>
<g id="a_node42"><a xlink:href="classMoose_1_1FunctorBase.html" target="_top" xlink:title=" ">
<polygon fill="white" stroke="#666666" points="1006,-30 881,-30 881,0 1006,0 1006,-30"/>
<text text-anchor="start" x="889" y="-18" font-family="Courier,monospace" font-size="10.00">Moose::FunctorBase</text>
<text text-anchor="middle" x="943.5" y="-7" font-family="Courier,monospace" font-size="10.00">&lt; Real &gt;</text>
</a>
</g>
</g>
<!-- Node42&#45;&gt;Node38 -->
<g id="edge41" class="edge">
<title>Node42&#45;&gt;Node38</title>
<path fill="none" stroke="#63b8ff" d="M1005.55,-33.86C1010.79,-35.57 1015.99,-37.29 1021,-39 1046.52,-47.69 1075.37,-58.41 1095.59,-66.07"/>
<polygon fill="#63b8ff" stroke="#63b8ff" points="1006.85,-30.6 996.26,-30.87 1004.7,-37.26 1006.85,-30.6"/>
</g>
<!-- Node43 -->
<g id="node43" class="node">
<title>Node43</title>
<g id="a_node43"><a xlink:href="classMoose_1_1FunctorAbstract.html" target="_top" xlink:title="Abstract base class that can be used to hold collections of functors.">
<polygon fill="white" stroke="#666666" points="800,-24.5 651,-24.5 651,-5.5 800,-5.5 800,-24.5"/>
<text text-anchor="middle" x="725.5" y="-12.5" font-family="Courier,monospace" font-size="10.00">Moose::FunctorAbstract</text>
</a>
</g>
</g>
<!-- Node43&#45;&gt;Node42 -->
<g id="edge42" class="edge">
<title>Node43&#45;&gt;Node42</title>
<path fill="none" stroke="#63b8ff" d="M811.74,-15C834.72,-15 859.15,-15 880.6,-15"/>
<polygon fill="#63b8ff" stroke="#63b8ff" points="811.74,-11.5 801.74,-15 811.74,-18.5 811.74,-11.5"/>
</g>
<!-- Node44 -->
<g id="node44" class="node">
<title>Node44</title>
<g id="a_node44"><a xlink:href="classFaceArgInterface.html" target="_top" xlink:title="A base class interface for both producers and consumers of functor face arguments,...">
<polygon fill="white" stroke="#666666" points="549,-24.5 436,-24.5 436,-5.5 549,-5.5 549,-24.5"/>
<text text-anchor="middle" x="492.5" y="-12.5" font-family="Courier,monospace" font-size="10.00">FaceArgInterface</text>
</a>
</g>
</g>
<!-- Node44&#45;&gt;Node43 -->
<g id="edge43" class="edge">
<title>Node44&#45;&gt;Node43</title>
<path fill="none" stroke="#63b8ff" d="M560.79,-15C589,-15 621.89,-15 650.76,-15"/>
<polygon fill="#63b8ff" stroke="#63b8ff" points="560.93,-11.5 550.93,-15 560.93,-18.5 560.93,-11.5"/>
</g>
</g>
</svg>
        <g id="navigator" transform="translate(0 0)" fill="#404254">
                <rect fill="#f2f5e9" fill-opacity="0.5" stroke="#606060" stroke-width=".5" x="0" y="0" width="60" height="60"/>
                <use id="zoomplus" xlink:href="#zoomPlus" x="17" y="9" onmousedown="handleZoom(evt,'in')"/>
                <use id="zoomminus" xlink:href="#zoomMin" x="42" y="9" onmousedown="handleZoom(evt,'out')"/>
                <use id="reset" xlink:href="#resetDef" x="30" y="36" onmousedown="handleReset()"/>
                <g id="arrowUp" xlink:href="#dirArrow" transform="translate(30 24)" onmousedown="handlePan(0,-1)">
                  <use xlink:href="#rim" fill="#404040">
                        <set attributeName="fill" to="#808080" begin="arrowUp.mouseover" end="arrowUp.mouseout"/>
                  </use>
                  <path fill="none" stroke="white" stroke-width="1.5" d="M0,-3.0v7 M-2.5,-0.5L0,-3.0L2.5,-0.5"/>
                </g>
                <g id="arrowRight" xlink:href="#dirArrow" transform="rotate(90) translate(36 -43)" onmousedown="handlePan(1,0)">
                  <use xlink:href="#rim" fill="#404040">
                        <set attributeName="fill" to="#808080" begin="arrowRight.mouseover" end="arrowRight.mouseout"/>
                  </use>
                  <path fill="none" stroke="white" stroke-width="1.5" d="M0,-3.0v7 M-2.5,-0.5L0,-3.0L2.5,-0.5"/>
                </g>
                <g id="arrowDown" xlink:href="#dirArrow" transform="rotate(180) translate(-30 -48)" onmousedown="handlePan(0,1)">
                  <use xlink:href="#rim" fill="#404040">
                        <set attributeName="fill" to="#808080" begin="arrowDown.mouseover" end="arrowDown.mouseout"/>
                  </use>
                  <path fill="none" stroke="white" stroke-width="1.5" d="M0,-3.0v7 M-2.5,-0.5L0,-3.0L2.5,-0.5"/>
                </g>
                <g id="arrowLeft" xlink:href="#dirArrow" transform="rotate(270) translate(-36 17)" onmousedown="handlePan(-1,0)">
                  <use xlink:href="#rim" fill="#404040">
                        <set attributeName="fill" to="#808080" begin="arrowLeft.mouseover" end="arrowLeft.mouseout"/>
                  </use>
                  <path fill="none" stroke="white" stroke-width="1.5" d="M0,-3.0v7 M-2.5,-0.5L0,-3.0L2.5,-0.5"/>
                </g>
        </g>
        <svg viewBox="0 0 15 15" width="100%" height="30px" preserveAspectRatio="xMaxYMin meet">
         <g id="arrow_out" transform="scale(0.3 0.3)">
          <a xlink:href="classInterfaceDiffusiveFluxAverageTempl__inherit__graph_org.svg" target="_base">
           <rect id="button" ry="5" rx="5" y="6" x="6" height="38" width="38"
                fill="#f2f5e9" fill-opacity="0.5" stroke="#606060" stroke-width="1.0"/>
           <path id="arrow"
             d="M 11.500037,31.436501 C 11.940474,20.09759 22.043105,11.32322 32.158766,21.979434 L 37.068811,17.246167 C 37.068811,17.246167 37.088388,32 37.088388,32 L 22.160133,31.978069 C 22.160133,31.978069 26.997745,27.140456 26.997745,27.140456 C 18.528582,18.264221 13.291696,25.230495 11.500037,31.436501 z"
             style="fill:#404040;"/>
          </a>
         </g>
        </svg>
</svg>
