<?xml version="1.0" encoding="UTF-8" standalone="no"?>
<!DOCTYPE svg PUBLIC "-//W3C//DTD SVG 1.1//EN"
 "http://www.w3.org/Graphics/SVG/1.1/DTD/svg11.dtd">
<!-- Generated by graphviz version 7.0.5 (20221223.1930)
 -->
<!-- Title: Moose::FV::Limiter&lt; T &gt; Pages: 1 -->
<svg width="396pt" height="224pt"
 viewBox="0.00 0.00 396.00 223.50" xmlns="http://www.w3.org/2000/svg" xmlns:xlink="http://www.w3.org/1999/xlink">
<g id="graph0" class="graph" transform="scale(1 1) rotate(0) translate(4 219.5)">
<title>Moose::FV::Limiter&lt; T &gt;</title>
<!-- Node1 -->
<g id="node1" class="node">
<title>Node1</title>
<g id="a_node1"><a xlink:title="Base class for defining slope limiters for finite volume or potentially reconstructed Discontinuous&#45;G...">
<polygon fill="#999999" stroke="#666666" points="155,-111 0,-111 0,-92 155,-92 155,-111"/>
<text text-anchor="middle" x="77.5" y="-99" font-family="Courier,monospace" font-size="10.00">Moose::FV::Limiter&lt; T &gt;</text>
</a>
</g>
</g>
<!-- Node2 -->
<g id="node2" class="node">
<title>Node2</title>
<g id="a_node2"><a xlink:href="classMoose_1_1FV_1_1CentralDifferenceLimiter.html" target="_top" xlink:title="Implements a limiter which reproduces a central&#45;differencing scheme, defined by $\beta(r_f) = 1$.">
<polygon fill="white" stroke="#666666" points="382,-215.5 197,-215.5 197,-185.5 382,-185.5 382,-215.5"/>
<text text-anchor="start" x="205" y="-203.5" font-family="Courier,monospace" font-size="10.00">Moose::FV::CentralDifference</text>
<text text-anchor="middle" x="289.5" y="-192.5" font-family="Courier,monospace" font-size="10.00">Limiter&lt; T &gt;</text>
</a>
</g>
</g>
<!-- Node1&#45;&gt;Node2 -->
<g id="edge1" class="edge">
<title>Node1&#45;&gt;Node2</title>
<path fill="none" stroke="#63b8ff" d="M99.07,-118.43C120.7,-135.44 156.35,-161.25 191,-176.5 198.34,-179.73 206.19,-182.58 214.13,-185.07"/>
<polygon fill="#63b8ff" stroke="#63b8ff" points="101.35,-115.77 91.35,-112.26 96.97,-121.24 101.35,-115.77"/>
</g>
<!-- Node3 -->
<g id="node3" class="node">
<title>Node3</title>
<g id="a_node3"><a xlink:href="classMoose_1_1FV_1_1MinModLimiter.html" target="_top" xlink:title="Implements the Min&#45;Mod limiter, defined by $\beta(r_f) = \text{max}(0, \text{min}(1,...">
<polygon fill="white" stroke="#666666" points="385,-167 194,-167 194,-148 385,-148 385,-167"/>
<text text-anchor="middle" x="289.5" y="-155" font-family="Courier,monospace" font-size="10.00">Moose::FV::MinModLimiter&lt; T &gt;</text>
</a>
</g>
</g>
<!-- Node1&#45;&gt;Node3 -->
<g id="edge2" class="edge">
<title>Node1&#45;&gt;Node3</title>
<path fill="none" stroke="#63b8ff" d="M115.3,-115.42C137.08,-123.28 165.34,-132.84 191,-139.5 202.58,-142.51 215.06,-145.21 227.09,-147.55"/>
<polygon fill="#63b8ff" stroke="#63b8ff" points="116.56,-112.15 105.97,-112 114.16,-118.73 116.56,-112.15"/>
</g>
<!-- Node4 -->
<g id="node4" class="node">
<title>Node4</title>
<g id="a_node4"><a xlink:href="classMoose_1_1FV_1_1QUICKLimiter.html" target="_top" xlink:title="Implements a limiter which reproduces the QUICK scheme, defined by $\beta(r_f) = \frac{3+r_f}{4}$.">
<polygon fill="white" stroke="#666666" points="382,-130 197,-130 197,-111 382,-111 382,-130"/>
<text text-anchor="middle" x="289.5" y="-118" font-family="Courier,monospace" font-size="10.00">Moose::FV::QUICKLimiter&lt; T &gt;</text>
</a>
</g>
</g>
<!-- Node1&#45;&gt;Node4 -->
<g id="edge3" class="edge">
<title>Node1&#45;&gt;Node4</title>
<path fill="none" stroke="#63b8ff" d="M166.39,-109.45C176.39,-110.36 186.61,-111.28 196.66,-112.19"/>
<polygon fill="#63b8ff" stroke="#63b8ff" points="166.99,-105.99 156.71,-108.58 166.36,-112.96 166.99,-105.99"/>
</g>
<!-- Node5 -->
<g id="node5" class="node">
<title>Node5</title>
<g id="a_node5"><a xlink:href="classMoose_1_1FV_1_1SOULimiter.html" target="_top" xlink:title="Implements a limiter which reproduces the second&#45;order&#45;upwind scheme, defined by $\beta(r_f) = r_f$.">
<polygon fill="white" stroke="#666666" points="376,-93 203,-93 203,-74 376,-74 376,-93"/>
<text text-anchor="middle" x="289.5" y="-81" font-family="Courier,monospace" font-size="10.00">Moose::FV::SOULimiter&lt; T &gt;</text>
</a>
</g>
</g>
<!-- Node1&#45;&gt;Node5 -->
<g id="edge4" class="edge">
<title>Node1&#45;&gt;Node5</title>
<path fill="none" stroke="#63b8ff" d="M166.58,-93.95C178.56,-92.92 190.84,-91.87 202.77,-90.85"/>
<polygon fill="#63b8ff" stroke="#63b8ff" points="166.38,-90.45 156.71,-94.8 166.98,-97.43 166.38,-90.45"/>
</g>
<!-- Node6 -->
<g id="node6" class="node">
<title>Node6</title>
<g id="a_node6"><a xlink:href="classMoose_1_1FV_1_1UpwindLimiter.html" target="_top" xlink:title="Implements a limiter which reproduces the upwind scheme, defined by $\beta(r_f) = 0$.">
<polygon fill="white" stroke="#666666" points="385,-56 194,-56 194,-37 385,-37 385,-56"/>
<text text-anchor="middle" x="289.5" y="-44" font-family="Courier,monospace" font-size="10.00">Moose::FV::UpwindLimiter&lt; T &gt;</text>
</a>
</g>
</g>
<!-- Node1&#45;&gt;Node6 -->
<g id="edge5" class="edge">
<title>Node1&#45;&gt;Node6</title>
<path fill="none" stroke="#63b8ff" d="M117.13,-87.9C138.69,-80.63 166.13,-71.88 191,-65.5 203.95,-62.18 217.99,-59.13 231.28,-56.49"/>
<polygon fill="#63b8ff" stroke="#63b8ff" points="116.2,-84.52 107.87,-91.06 118.46,-91.14 116.2,-84.52"/>
</g>
<!-- Node7 -->
<g id="node7" class="node">
<title>Node7</title>
<g id="a_node7"><a xlink:href="classMoose_1_1FV_1_1VanLeerLimiter.html" target="_top" xlink:title="Implements the Van Leer limiter, defined by $\beta(r_f) = \frac{r_f + \text{abs}(r_f)}{1 + \text{abs}...">
<polygon fill="white" stroke="#666666" points="388,-19 191,-19 191,0 388,0 388,-19"/>
<text text-anchor="middle" x="289.5" y="-7" font-family="Courier,monospace" font-size="10.00">Moose::FV::VanLeerLimiter&lt; T &gt;</text>
</a>
</g>
</g>
<!-- Node1&#45;&gt;Node7 -->
<g id="edge6" class="edge">
<title>Node1&#45;&gt;Node7</title>
<path fill="none" stroke="#63b8ff" d="M99,-84.7C120.58,-67.89 156.18,-42.57 191,-28.5 200.03,-24.85 209.83,-21.88 219.61,-19.48"/>
<polygon fill="#63b8ff" stroke="#63b8ff" points="96.96,-81.85 91.31,-90.81 101.32,-87.33 96.96,-81.85"/>
</g>
</g>
</svg>
