<?xml version="1.0" encoding="UTF-8" standalone="no"?>
<!DOCTYPE svg PUBLIC "-//W3C//DTD SVG 1.1//EN"
 "http://www.w3.org/Graphics/SVG/1.1/DTD/svg11.dtd">
<!-- Generated by graphviz version 7.0.5 (20221223.1930)
 -->
<!-- Title: ParsedAux Pages: 1 -->
<svg width="927pt" height="779pt"
 viewBox="0.00 0.00 927.00 779.00" xmlns="http://www.w3.org/2000/svg" xmlns:xlink="http://www.w3.org/1999/xlink">
<g id="graph0" class="graph" transform="scale(1 1) rotate(0) translate(4 775)">
<title>ParsedAux</title>
<!-- Node1 -->
<g id="node1" class="node">
<title>Node1</title>
<g id="a_node1"><a xlink:title="AuxKernel that evaluates a parsed function expression.">
<polygon fill="#999999" stroke="#666666" points="919,-330 848,-330 848,-311 919,-311 919,-330"/>
<text text-anchor="middle" x="883.5" y="-318" font-family="Courier,monospace" font-size="10.00">ParsedAux</text>
</a>
</g>
</g>
<!-- Node2 -->
<g id="node2" class="node">
<title>Node2</title>
<g id="a_node2"><a xlink:href="classAuxKernelTempl.html" target="_top" xlink:title=" ">
<polygon fill="white" stroke="#666666" points="782,-352 711,-352 711,-333 782,-333 782,-352"/>
<text text-anchor="middle" x="746.5" y="-340" font-family="Courier,monospace" font-size="10.00">AuxKernel</text>
</a>
</g>
</g>
<!-- Node2&#45;&gt;Node1 -->
<g id="edge1" class="edge">
<title>Node2&#45;&gt;Node1</title>
<path fill="none" stroke="#63b8ff" d="M793.57,-334.99C811.35,-332.1 831.33,-328.84 847.85,-326.15"/>
<polygon fill="#63b8ff" stroke="#63b8ff" points="793.07,-331.53 783.76,-336.59 794.19,-338.44 793.07,-331.53"/>
</g>
<!-- Node3 -->
<g id="node3" class="node">
<title>Node3</title>
<g id="a_node3"><a xlink:href="classMooseObject.html" target="_top" xlink:title="Every object that can be built by the factory should be derived from this class.">
<polygon fill="white" stroke="#666666" points="579,-697 496,-697 496,-678 579,-678 579,-697"/>
<text text-anchor="middle" x="537.5" y="-685" font-family="Courier,monospace" font-size="10.00">MooseObject</text>
</a>
</g>
</g>
<!-- Node3&#45;&gt;Node2 -->
<g id="edge2" class="edge">
<title>Node3&#45;&gt;Node2</title>
<path fill="none" stroke="#63b8ff" d="M590.59,-689.64C609.69,-687.83 630.22,-682.46 645,-669.5 745.02,-581.77 746.95,-397.21 745.87,-352.44"/>
<polygon fill="#63b8ff" stroke="#63b8ff" points="590.53,-686.14 580.77,-690.25 590.96,-693.13 590.53,-686.14"/>
</g>
<!-- Node4 -->
<g id="node4" class="node">
<title>Node4</title>
<g id="a_node4"><a xlink:href="classMooseBase.html" target="_top" xlink:title="Base class for everything in MOOSE with a name and a type.">
<polygon fill="white" stroke="#666666" points="325,-771 254,-771 254,-752 325,-752 325,-771"/>
<text text-anchor="middle" x="289.5" y="-759" font-family="Courier,monospace" font-size="10.00">MooseBase</text>
</a>
</g>
</g>
<!-- Node4&#45;&gt;Node3 -->
<g id="edge3" class="edge">
<title>Node4&#45;&gt;Node3</title>
<path fill="none" stroke="#63b8ff" d="M336.54,-755.54C354.64,-752.66 375.47,-748.69 394,-743.5 438.28,-731.09 487.79,-709.88 515.24,-697.43"/>
<polygon fill="#63b8ff" stroke="#63b8ff" points="336.25,-752.04 326.89,-757 337.3,-758.96 336.25,-752.04"/>
</g>
<!-- Node5 -->
<g id="node5" class="node">
<title>Node5</title>
<g id="a_node5"><a xlink:href="classMooseBaseParameterInterface.html" target="_top" xlink:title="Every object that can be built by the factory should be derived from this class.">
<polygon fill="white" stroke="#666666" points="379,-734 200,-734 200,-715 379,-715 379,-734"/>
<text text-anchor="middle" x="289.5" y="-722" font-family="Courier,monospace" font-size="10.00">MooseBaseParameterInterface</text>
</a>
</g>
</g>
<!-- Node5&#45;&gt;Node3 -->
<g id="edge4" class="edge">
<title>Node5&#45;&gt;Node3</title>
<path fill="none" stroke="#63b8ff" d="M367.87,-712.86C410.2,-706.5 460.92,-698.87 495.6,-693.65"/>
<polygon fill="#63b8ff" stroke="#63b8ff" points="367.61,-709.36 358.24,-714.31 368.65,-716.28 367.61,-709.36"/>
</g>
<!-- Node6 -->
<g id="node6" class="node">
<title>Node6</title>
<g id="a_node6"><a xlink:href="classMooseBaseErrorInterface.html" target="_top" xlink:title="Interface that provides APIs to output errors/warnings/info messages.">
<polygon fill="white" stroke="#666666" points="367,-697 212,-697 212,-678 367,-678 367,-697"/>
<text text-anchor="middle" x="289.5" y="-685" font-family="Courier,monospace" font-size="10.00">MooseBaseErrorInterface</text>
</a>
</g>
</g>
<!-- Node6&#45;&gt;Node3 -->
<g id="edge5" class="edge">
<title>Node6&#45;&gt;Node3</title>
<path fill="none" stroke="#63b8ff" d="M378.69,-687.5C418.6,-687.5 463.83,-687.5 495.61,-687.5"/>
<polygon fill="#63b8ff" stroke="#63b8ff" points="378.84,-684 368.84,-687.5 378.84,-691 378.84,-684"/>
</g>
<!-- Node7 -->
<g id="node7" class="node">
<title>Node7</title>
<g id="a_node7"><a xlink:href="classConsoleStreamInterface.html" target="_top" xlink:title="An inteface for the _console for outputting to the Console object.">
<polygon fill="white" stroke="#666666" points="149,-697 0,-697 0,-678 149,-678 149,-697"/>
<text text-anchor="middle" x="74.5" y="-685" font-family="Courier,monospace" font-size="10.00">ConsoleStreamInterface</text>
</a>
</g>
</g>
<!-- Node7&#45;&gt;Node6 -->
<g id="edge6" class="edge">
<title>Node7&#45;&gt;Node6</title>
<path fill="none" stroke="#63b8ff" d="M160.43,-687.5C177.41,-687.5 195.15,-687.5 211.84,-687.5"/>
<polygon fill="#63b8ff" stroke="#63b8ff" points="160.91,-684 150.91,-687.5 160.91,-691 160.91,-684"/>
</g>
<!-- Node8 -->
<g id="node8" class="node">
<title>Node8</title>
<g id="a_node8"><a xlink:title=" ">
<polygon fill="white" stroke="#666666" points="367,-660 212,-660 212,-641 367,-641 367,-660"/>
<text text-anchor="middle" x="289.5" y="-648" font-family="Courier,monospace" font-size="10.00">libMesh::ParallelObject</text>
</a>
</g>
</g>
<!-- Node8&#45;&gt;Node3 -->
<g id="edge7" class="edge">
<title>Node8&#45;&gt;Node3</title>
<path fill="none" stroke="#63b8ff" d="M367.87,-662.14C410.2,-668.5 460.92,-676.13 495.6,-681.35"/>
<polygon fill="#63b8ff" stroke="#63b8ff" points="368.65,-658.72 358.24,-660.69 367.61,-665.64 368.65,-658.72"/>
</g>
<!-- Node9 -->
<g id="node9" class="node">
<title>Node9</title>
<g id="a_node9"><a xlink:href="classDataFileInterface.html" target="_top" xlink:title=" ">
<polygon fill="white" stroke="#666666" points="352,-622.5 227,-622.5 227,-592.5 352,-592.5 352,-622.5"/>
<text text-anchor="start" x="235" y="-610.5" font-family="Courier,monospace" font-size="10.00">DataFileInterface&lt;</text>
<text text-anchor="middle" x="289.5" y="-599.5" font-family="Courier,monospace" font-size="10.00"> MooseObject &gt;</text>
</a>
</g>
</g>
<!-- Node9&#45;&gt;Node3 -->
<g id="edge8" class="edge">
<title>Node9&#45;&gt;Node3</title>
<path fill="none" stroke="#63b8ff" d="M363.07,-619.49C373.83,-622.82 384.48,-627.08 394,-632.5 413.93,-643.86 409.68,-658.84 430,-669.5 450.09,-680.04 474.98,-684.64 495.65,-686.56"/>
<polygon fill="#63b8ff" stroke="#63b8ff" points="364.35,-616.22 353.78,-616.87 362.45,-622.95 364.35,-616.22"/>
</g>
<!-- Node10 -->
<g id="node10" class="node">
<title>Node10</title>
<g id="a_node10"><a xlink:href="classMooseVariableInterface.html" target="_top" xlink:title="Interface for objects that need to get values of MooseVariables.">
<polygon fill="white" stroke="#666666" points="627,-660 448,-660 448,-641 627,-641 627,-660"/>
<text text-anchor="middle" x="537.5" y="-648" font-family="Courier,monospace" font-size="10.00">MooseVariableInterface&lt; T &gt;</text>
</a>
</g>
</g>
<!-- Node10&#45;&gt;Node2 -->
<g id="edge9" class="edge">
<title>Node10&#45;&gt;Node2</title>
<path fill="none" stroke="#63b8ff" d="M637.4,-638.04C640.06,-636.37 642.6,-634.53 645,-632.5 735.3,-556.08 744.56,-394.12 745.43,-352.44"/>
<polygon fill="#63b8ff" stroke="#63b8ff" points="635.89,-634.89 628.68,-642.65 639.16,-641.07 635.89,-634.89"/>
</g>
<!-- Node11 -->
<g id="node11" class="node">
<title>Node11</title>
<g id="a_node11"><a xlink:href="classBlockRestrictable.html" target="_top" xlink:title="An interface that restricts an object to subdomains via the &#39;blocks&#39; input parameter.">
<polygon fill="white" stroke="#666666" points="597,-623 478,-623 478,-604 597,-604 597,-623"/>
<text text-anchor="middle" x="537.5" y="-611" font-family="Courier,monospace" font-size="10.00">BlockRestrictable</text>
</a>
</g>
</g>
<!-- Node11&#45;&gt;Node2 -->
<g id="edge10" class="edge">
<title>Node11&#45;&gt;Node2</title>
<path fill="none" stroke="#63b8ff" d="M608.48,-612.06C621.67,-609.05 634.58,-603.93 645,-595.5 725.66,-530.26 741.89,-390.9 744.87,-352.48"/>
<polygon fill="#63b8ff" stroke="#63b8ff" points="608.07,-608.58 598.87,-613.84 609.34,-615.46 608.07,-608.58"/>
</g>
<!-- Node12 -->
<g id="node12" class="node">
<title>Node12</title>
<g id="a_node12"><a xlink:href="classBoundaryRestrictable.html" target="_top" xlink:title="/class BoundaryRestrictable /brief Provides functionality for limiting the object to certain boundary...">
<polygon fill="white" stroke="#666666" points="606,-586 469,-586 469,-567 606,-567 606,-586"/>
<text text-anchor="middle" x="537.5" y="-574" font-family="Courier,monospace" font-size="10.00">BoundaryRestrictable</text>
</a>
</g>
</g>
<!-- Node12&#45;&gt;Node2 -->
<g id="edge11" class="edge">
<title>Node12&#45;&gt;Node2</title>
<path fill="none" stroke="#63b8ff" d="M617.35,-572.15C627.31,-569.1 636.84,-564.72 645,-558.5 716.38,-504.09 738.96,-386.72 744.18,-352.22"/>
<polygon fill="#63b8ff" stroke="#63b8ff" points="616.72,-568.7 607.9,-574.58 618.46,-575.48 616.72,-568.7"/>
</g>
<!-- Node13 -->
<g id="node13" class="node">
<title>Node13</title>
<g id="a_node13"><a xlink:href="classSetupInterface.html" target="_top" xlink:title=" ">
<polygon fill="white" stroke="#666666" points="588,-549 487,-549 487,-530 588,-530 588,-549"/>
<text text-anchor="middle" x="537.5" y="-537" font-family="Courier,monospace" font-size="10.00">SetupInterface</text>
</a>
</g>
</g>
<!-- Node13&#45;&gt;Node2 -->
<g id="edge12" class="edge">
<title>Node13&#45;&gt;Node2</title>
<path fill="none" stroke="#63b8ff" d="M599.29,-537.9C615.28,-535.11 631.74,-529.9 645,-520.5 706.67,-476.78 735.29,-382.59 743.17,-352.18"/>
<polygon fill="#63b8ff" stroke="#63b8ff" points="599.25,-534.37 589.84,-539.25 600.24,-541.3 599.25,-534.37"/>
</g>
<!-- Node14 -->
<g id="node14" class="node">
<title>Node14</title>
<g id="a_node14"><a xlink:href="classCoupleableMooseVariableDependencyIntermediateInterface.html" target="_top" xlink:title="Intermediate base class that ties together all the interfaces for getting MooseVariableFEBases with t...">
<polygon fill="white" stroke="#666666" points="645,-511.5 430,-511.5 430,-481.5 645,-481.5 645,-511.5"/>
<text text-anchor="start" x="438" y="-499.5" font-family="Courier,monospace" font-size="10.00">CoupleableMooseVariableDependency</text>
<text text-anchor="middle" x="537.5" y="-488.5" font-family="Courier,monospace" font-size="10.00">IntermediateInterface</text>
</a>
</g>
</g>
<!-- Node14&#45;&gt;Node2 -->
<g id="edge13" class="edge">
<title>Node14&#45;&gt;Node2</title>
<path fill="none" stroke="#63b8ff" d="M638.84,-476.12C640.94,-474.98 643,-473.77 645,-472.5 694.32,-441.08 729.1,-376.62 741,-352.18"/>
<polygon fill="#63b8ff" stroke="#63b8ff" points="637.53,-472.87 630.04,-480.36 640.57,-479.17 637.53,-472.87"/>
</g>
<!-- Node15 -->
<g id="node15" class="node">
<title>Node15</title>
<g id="a_node15"><a xlink:href="classCoupleable.html" target="_top" xlink:title="Interface for objects that needs coupling capabilities.">
<polygon fill="white" stroke="#666666" points="328,-543 251,-543 251,-524 328,-524 328,-543"/>
<text text-anchor="middle" x="289.5" y="-531" font-family="Courier,monospace" font-size="10.00">Coupleable</text>
</a>
</g>
</g>
<!-- Node15&#45;&gt;Node14 -->
<g id="edge14" class="edge">
<title>Node15&#45;&gt;Node14</title>
<path fill="none" stroke="#63b8ff" d="M339.48,-526.13C366.49,-522.07 401.08,-516.87 433.71,-511.96"/>
<polygon fill="#63b8ff" stroke="#63b8ff" points="339.26,-522.63 329.9,-527.57 340.3,-529.55 339.26,-522.63"/>
</g>
<!-- Node16 -->
<g id="node16" class="node">
<title>Node16</title>
<g id="a_node16"><a xlink:href="classScalarCoupleable.html" target="_top" xlink:title="Interface for objects that needs scalar coupling capabilities.">
<polygon fill="white" stroke="#666666" points="346,-506 233,-506 233,-487 346,-487 346,-506"/>
<text text-anchor="middle" x="289.5" y="-494" font-family="Courier,monospace" font-size="10.00">ScalarCoupleable</text>
</a>
</g>
</g>
<!-- Node16&#45;&gt;Node14 -->
<g id="edge15" class="edge">
<title>Node16&#45;&gt;Node14</title>
<path fill="none" stroke="#63b8ff" d="M357.63,-496.5C379.83,-496.5 405.11,-496.5 429.53,-496.5"/>
<polygon fill="#63b8ff" stroke="#63b8ff" points="357.83,-493 347.83,-496.5 357.83,-500 357.83,-493"/>
</g>
<!-- Node17 -->
<g id="node17" class="node">
<title>Node17</title>
<g id="a_node17"><a xlink:href="classMooseVariableDependencyInterface.html" target="_top" xlink:title=" ">
<polygon fill="white" stroke="#666666" points="394,-469 185,-469 185,-450 394,-450 394,-469"/>
<text text-anchor="middle" x="289.5" y="-457" font-family="Courier,monospace" font-size="10.00">MooseVariableDependencyInterface</text>
</a>
</g>
</g>
<!-- Node17&#45;&gt;Node14 -->
<g id="edge16" class="edge">
<title>Node17&#45;&gt;Node14</title>
<path fill="none" stroke="#63b8ff" d="M368.06,-471.17C388.84,-474.29 411.63,-477.72 433.54,-481.01"/>
<polygon fill="#63b8ff" stroke="#63b8ff" points="368.65,-467.72 358.24,-469.69 367.61,-474.64 368.65,-467.72"/>
</g>
<!-- Node18 -->
<g id="node18" class="node">
<title>Node18</title>
<g id="a_node18"><a xlink:href="classFunctionInterface.html" target="_top" xlink:title="Interface for objects that need to use functions.">
<polygon fill="white" stroke="#666666" points="597,-463 478,-463 478,-444 597,-444 597,-463"/>
<text text-anchor="middle" x="537.5" y="-451" font-family="Courier,monospace" font-size="10.00">FunctionInterface</text>
</a>
</g>
</g>
<!-- Node18&#45;&gt;Node2 -->
<g id="edge17" class="edge">
<title>Node18&#45;&gt;Node2</title>
<path fill="none" stroke="#63b8ff" d="M608.34,-447.65C620.95,-444.95 633.68,-441.07 645,-435.5 686.6,-415.04 723.14,-371.79 738.19,-352.34"/>
<polygon fill="#63b8ff" stroke="#63b8ff" points="607.98,-444.16 598.81,-449.46 609.28,-451.04 607.98,-444.16"/>
</g>
<!-- Node19 -->
<g id="node19" class="node">
<title>Node19</title>
<g id="a_node19"><a xlink:href="classUserObjectInterface.html" target="_top" xlink:title="Interface for objects that need to use UserObjects.">
<polygon fill="white" stroke="#666666" points="603,-426 472,-426 472,-407 603,-407 603,-426"/>
<text text-anchor="middle" x="537.5" y="-414" font-family="Courier,monospace" font-size="10.00">UserObjectInterface</text>
</a>
</g>
</g>
<!-- Node19&#45;&gt;Node2 -->
<g id="edge18" class="edge">
<title>Node19&#45;&gt;Node2</title>
<path fill="none" stroke="#63b8ff" d="M614.53,-406.92C624.91,-404.67 635.32,-401.9 645,-398.5 677.98,-386.91 712.83,-365 731.59,-352.29"/>
<polygon fill="#63b8ff" stroke="#63b8ff" points="613.92,-403.48 604.8,-408.87 615.29,-410.34 613.92,-403.48"/>
</g>
<!-- Node20 -->
<g id="node20" class="node">
<title>Node20</title>
<g id="a_node20"><a xlink:href="classTransientInterface.html" target="_top" xlink:title="Interface for objects that needs transient capabilities.">
<polygon fill="white" stroke="#666666" points="600,-389 475,-389 475,-370 600,-370 600,-389"/>
<text text-anchor="middle" x="537.5" y="-377" font-family="Courier,monospace" font-size="10.00">TransientInterface</text>
</a>
</g>
</g>
<!-- Node20&#45;&gt;Node2 -->
<g id="edge19" class="edge">
<title>Node20&#45;&gt;Node2</title>
<path fill="none" stroke="#63b8ff" d="M609.92,-367.63C621.65,-365.62 633.67,-363.53 645,-361.5 666.85,-357.59 691.32,-352.97 710.65,-349.26"/>
<polygon fill="#63b8ff" stroke="#63b8ff" points="609.56,-364.14 600.29,-369.26 610.74,-371.04 609.56,-364.14"/>
</g>
<!-- Node21 -->
<g id="node21" class="node">
<title>Node21</title>
<g id="a_node21"><a xlink:href="classMaterialPropertyInterface.html" target="_top" xlink:title="An interface for accessing Materials.">
<polygon fill="white" stroke="#666666" points="621,-352 454,-352 454,-333 621,-333 621,-352"/>
<text text-anchor="middle" x="537.5" y="-340" font-family="Courier,monospace" font-size="10.00">MaterialPropertyInterface</text>
</a>
</g>
</g>
<!-- Node21&#45;&gt;Node2 -->
<g id="edge20" class="edge">
<title>Node21&#45;&gt;Node2</title>
<path fill="none" stroke="#63b8ff" d="M632.63,-342.5C660.45,-342.5 689.18,-342.5 710.7,-342.5"/>
<polygon fill="#63b8ff" stroke="#63b8ff" points="632.72,-339 622.72,-342.5 632.72,-346 632.72,-339"/>
</g>
<!-- Node22 -->
<g id="node22" class="node">
<title>Node22</title>
<g id="a_node22"><a xlink:href="classPostprocessorInterface.html" target="_top" xlink:title="Interface class for classes which interact with Postprocessors.">
<polygon fill="white" stroke="#666666" points="612,-315 463,-315 463,-296 612,-296 612,-315"/>
<text text-anchor="middle" x="537.5" y="-303" font-family="Courier,monospace" font-size="10.00">PostprocessorInterface</text>
</a>
</g>
</g>
<!-- Node22&#45;&gt;Node2 -->
<g id="edge21" class="edge">
<title>Node22&#45;&gt;Node2</title>
<path fill="none" stroke="#63b8ff" d="M605.63,-317.47C618.69,-319.8 632.27,-322.23 645,-324.5 666.81,-328.4 691.28,-332.78 710.62,-336.25"/>
<polygon fill="#63b8ff" stroke="#63b8ff" points="606.28,-314.03 595.82,-315.72 605.05,-320.92 606.28,-314.03"/>
</g>
<!-- Node23 -->
<g id="node23" class="node">
<title>Node23</title>
<g id="a_node23"><a xlink:href="classDependencyResolverInterface.html" target="_top" xlink:title="Interface for sorting dependent vectors of objects.">
<polygon fill="white" stroke="#666666" points="627,-278 448,-278 448,-259 627,-259 627,-278"/>
<text text-anchor="middle" x="537.5" y="-266" font-family="Courier,monospace" font-size="10.00">DependencyResolverInterface</text>
</a>
</g>
</g>
<!-- Node23&#45;&gt;Node2 -->
<g id="edge22" class="edge">
<title>Node23&#45;&gt;Node2</title>
<path fill="none" stroke="#63b8ff" d="M636.52,-282.5C639.42,-283.73 642.25,-285.06 645,-286.5 665.32,-297.16 661.35,-311.65 681,-323.5 690,-328.93 700.64,-332.89 710.66,-335.74"/>
<polygon fill="#63b8ff" stroke="#63b8ff" points="637.77,-279.23 627.17,-279.02 635.32,-285.79 637.77,-279.23"/>
</g>
<!-- Node24 -->
<g id="node24" class="node">
<title>Node24</title>
<g id="a_node24"><a xlink:href="classRandomInterface.html" target="_top" xlink:title="Interface for objects that need parallel consistent random numbers without patterns over the course o...">
<polygon fill="white" stroke="#666666" points="591,-241 484,-241 484,-222 591,-222 591,-241"/>
<text text-anchor="middle" x="537.5" y="-229" font-family="Courier,monospace" font-size="10.00">RandomInterface</text>
</a>
</g>
</g>
<!-- Node24&#45;&gt;Node2 -->
<g id="edge23" class="edge">
<title>Node24&#45;&gt;Node2</title>
<path fill="none" stroke="#63b8ff" d="M602.78,-232.48C617.76,-235.27 632.86,-240.41 645,-249.5 674.28,-271.42 653.08,-299.88 681,-323.5 689.38,-330.59 700.3,-335.03 710.77,-337.82"/>
<polygon fill="#63b8ff" stroke="#63b8ff" points="603.31,-229.02 592.9,-231.01 602.28,-235.95 603.31,-229.02"/>
</g>
<!-- Node25 -->
<g id="node25" class="node">
<title>Node25</title>
<g id="a_node25"><a xlink:href="classGeometricSearchInterface.html" target="_top" xlink:title=" ">
<polygon fill="white" stroke="#666666" points="618,-204 457,-204 457,-185 618,-185 618,-204"/>
<text text-anchor="middle" x="537.5" y="-192" font-family="Courier,monospace" font-size="10.00">GeometricSearchInterface</text>
</a>
</g>
</g>
<!-- Node25&#45;&gt;Node2 -->
<g id="edge24" class="edge">
<title>Node25&#45;&gt;Node2</title>
<path fill="none" stroke="#63b8ff" d="M629.1,-202.29C634.83,-205.01 640.21,-208.36 645,-212.5 684.25,-246.4 643.83,-287.33 681,-323.5 689.03,-331.32 700.11,-335.94 710.82,-338.67"/>
<polygon fill="#63b8ff" stroke="#63b8ff" points="630.46,-199.06 619.87,-198.63 627.88,-205.57 630.46,-199.06"/>
</g>
<!-- Node26 -->
<g id="node26" class="node">
<title>Node26</title>
<g id="a_node26"><a xlink:href="classRestartable.html" target="_top" xlink:title="A class for creating restricted objects.">
<polygon fill="white" stroke="#666666" points="579,-167 496,-167 496,-148 579,-148 579,-167"/>
<text text-anchor="middle" x="537.5" y="-155" font-family="Courier,monospace" font-size="10.00">Restartable</text>
</a>
</g>
</g>
<!-- Node26&#45;&gt;Node2 -->
<g id="edge25" class="edge">
<title>Node26&#45;&gt;Node2</title>
<path fill="none" stroke="#63b8ff" d="M590.77,-154.88C609.99,-156.62 630.56,-162.05 645,-175.5 694.54,-221.63 634.29,-274.5 681,-323.5 688.81,-331.7 699.97,-336.41 710.81,-339.1"/>
<polygon fill="#63b8ff" stroke="#63b8ff" points="591.05,-151.39 580.87,-154.33 590.66,-158.38 591.05,-151.39"/>
</g>
<!-- Node27 -->
<g id="node27" class="node">
<title>Node27</title>
<g id="a_node27"><a xlink:href="classMeshChangedInterface.html" target="_top" xlink:title="Interface for notifications that the mesh has changed.">
<polygon fill="white" stroke="#666666" points="606,-130 469,-130 469,-111 606,-111 606,-130"/>
<text text-anchor="middle" x="537.5" y="-118" font-family="Courier,monospace" font-size="10.00">MeshChangedInterface</text>
</a>
</g>
</g>
<!-- Node27&#45;&gt;Node2 -->
<g id="edge26" class="edge">
<title>Node27&#45;&gt;Node2</title>
<path fill="none" stroke="#63b8ff" d="M617.36,-122.6C627.65,-125.91 637.28,-130.97 645,-138.5 704.96,-196.99 624.63,-261.54 681,-323.5 688.62,-331.88 699.73,-336.63 710.58,-339.31"/>
<polygon fill="#63b8ff" stroke="#63b8ff" points="618.48,-119.27 607.92,-120.13 616.71,-126.05 618.48,-119.27"/>
</g>
<!-- Node28 -->
<g id="node28" class="node">
<title>Node28</title>
<g id="a_node28"><a xlink:href="classVectorPostprocessorInterface.html" target="_top" xlink:title=" ">
<polygon fill="white" stroke="#666666" points="630,-93 445,-93 445,-74 630,-74 630,-93"/>
<text text-anchor="middle" x="537.5" y="-81" font-family="Courier,monospace" font-size="10.00">VectorPostprocessorInterface</text>
</a>
</g>
</g>
<!-- Node28&#45;&gt;Node2 -->
<g id="edge27" class="edge">
<title>Node28&#45;&gt;Node2</title>
<path fill="none" stroke="darkgreen" d="M639.83,-96.9C641.64,-98.32 643.36,-99.85 645,-101.5 715.44,-172.41 614.9,-248.52 681,-323.5 688.57,-332.08 699.79,-336.88 710.77,-339.53"/>
<polygon fill="darkgreen" stroke="darkgreen" points="641.79,-94 631.49,-91.51 637.99,-99.88 641.79,-94"/>
</g>
<!-- Node29 -->
<g id="node29" class="node">
<title>Node29</title>
<g id="a_node29"><a xlink:href="classElementIDInterface.html" target="_top" xlink:title=" ">
<polygon fill="white" stroke="#666666" points="600,-56 475,-56 475,-37 600,-37 600,-56"/>
<text text-anchor="middle" x="537.5" y="-44" font-family="Courier,monospace" font-size="10.00">ElementIDInterface</text>
</a>
</g>
</g>
<!-- Node29&#45;&gt;Node2 -->
<g id="edge28" class="edge">
<title>Node29&#45;&gt;Node2</title>
<path fill="none" stroke="#63b8ff" d="M611.62,-46.45C624.15,-49.66 636.01,-55.24 645,-64.5 725.96,-147.87 605.14,-235.46 681,-323.5 688.47,-332.17 699.67,-336.98 710.65,-339.63"/>
<polygon fill="#63b8ff" stroke="#63b8ff" points="612.47,-43.05 601.97,-44.5 611.08,-49.91 612.47,-43.05"/>
</g>
<!-- Node30 -->
<g id="node30" class="node">
<title>Node30</title>
<g id="a_node30"><a xlink:href="classNonADFunctorInterface.html" target="_top" xlink:title="An interface for accessing Moose::Functors for systems that do not care about automatic differentiati...">
<polygon fill="white" stroke="#666666" points="609,-19 466,-19 466,0 609,0 609,-19"/>
<text text-anchor="middle" x="537.5" y="-7" font-family="Courier,monospace" font-size="10.00">NonADFunctorInterface</text>
</a>
</g>
</g>
<!-- Node30&#45;&gt;Node2 -->
<g id="edge29" class="edge">
<title>Node30&#45;&gt;Node2</title>
<path fill="none" stroke="darkgreen" d="M620.23,-11.94C629.54,-15.32 638.13,-20.31 645,-27.5 736.51,-123.36 595.35,-222.37 681,-323.5 688.39,-332.23 699.58,-337.06 710.57,-339.7"/>
<polygon fill="darkgreen" stroke="darkgreen" points="621.5,-8.66 610.92,-9.19 619.52,-15.38 621.5,-8.66"/>
</g>
<!-- Node31 -->
<g id="node31" class="node">
<title>Node31</title>
<g id="a_node31"><a xlink:href="classFunctorInterface.html" target="_top" xlink:title="An interface for accessing Moose::Functors.">
<polygon fill="white" stroke="#666666" points="346,-19 233,-19 233,0 346,0 346,-19"/>
<text text-anchor="middle" x="289.5" y="-7" font-family="Courier,monospace" font-size="10.00">FunctorInterface</text>
</a>
</g>
</g>
<!-- Node31&#45;&gt;Node30 -->
<g id="edge30" class="edge">
<title>Node31&#45;&gt;Node30</title>
<path fill="none" stroke="#63b8ff" d="M357.43,-9.5C391.06,-9.5 431.79,-9.5 465.91,-9.5"/>
<polygon fill="#63b8ff" stroke="#63b8ff" points="357.83,-6 347.83,-9.5 357.83,-13 357.83,-6"/>
</g>
<!-- Node32 -->
<g id="node32" class="node">
<title>Node32</title>
<g id="a_node32"><a xlink:href="classFunctionParserUtils.html" target="_top" xlink:title=" ">
<polygon fill="white" stroke="#666666" points="812,-314.5 681,-314.5 681,-284.5 812,-284.5 812,-314.5"/>
<text text-anchor="start" x="689" y="-302.5" font-family="Courier,monospace" font-size="10.00">FunctionParserUtils</text>
<text text-anchor="middle" x="746.5" y="-291.5" font-family="Courier,monospace" font-size="10.00">&lt; false &gt;</text>
</a>
</g>
</g>
<!-- Node32&#45;&gt;Node1 -->
<g id="edge31" class="edge">
<title>Node32&#45;&gt;Node1</title>
<path fill="none" stroke="#63b8ff" d="M823.35,-311.3C831.77,-312.61 840.01,-313.89 847.54,-315.06"/>
<polygon fill="#63b8ff" stroke="#63b8ff" points="824.15,-307.88 813.73,-309.8 823.07,-314.8 824.15,-307.88"/>
</g>
</g>
</svg>
