<?xml version="1.0" encoding="UTF-8" standalone="no"?>
<!DOCTYPE svg PUBLIC "-//W3C//DTD SVG 1.1//EN"
 "http://www.w3.org/Graphics/SVG/1.1/DTD/svg11.dtd">
<!-- Generated by graphviz version 7.0.5 (20221223.1930)
 -->
<!-- Title: DGCoeffDiffusion Pages: 1 -->
<svg width="1572pt" height="617pt"
 viewBox="0.00 0.00 1572.00 617.00" xmlns="http://www.w3.org/2000/svg" xmlns:xlink="http://www.w3.org/1999/xlink">
<g id="graph0" class="graph" transform="scale(1 1) rotate(0) translate(4 613)">
<title>DGCoeffDiffusion</title>
<!-- Node1 -->
<g id="node1" class="node">
<title>Node1</title>
<g id="a_node1"><a xlink:title="DG kernel for diffusion.">
<polygon fill="#999999" stroke="#666666" points="1564,-77 1451,-77 1451,-58 1564,-58 1564,-77"/>
<text text-anchor="middle" x="1507.5" y="-65" font-family="Courier,monospace" font-size="10.00">DGCoeffDiffusion</text>
</a>
</g>
</g>
<!-- Node2 -->
<g id="node2" class="node">
<title>Node2</title>
<g id="a_node2"><a xlink:href="classADDGKernel.html" target="_top" xlink:title=" ">
<polygon fill="white" stroke="#666666" points="1415,-77 1338,-77 1338,-58 1415,-58 1415,-77"/>
<text text-anchor="middle" x="1376.5" y="-65" font-family="Courier,monospace" font-size="10.00">ADDGKernel</text>
</a>
</g>
</g>
<!-- Node2&#45;&gt;Node1 -->
<g id="edge1" class="edge">
<title>Node2&#45;&gt;Node1</title>
<path fill="none" stroke="#63b8ff" d="M1426.5,-67.5C1434.45,-67.5 1442.72,-67.5 1450.81,-67.5"/>
<polygon fill="#63b8ff" stroke="#63b8ff" points="1426.67,-64 1416.67,-67.5 1426.67,-71 1426.67,-64"/>
</g>
<!-- Node3 -->
<g id="node3" class="node">
<title>Node3</title>
<g id="a_node3"><a xlink:href="classDGKernelBase.html" target="_top" xlink:title="Serves as a base class for DGKernel and ADDGKernel.">
<polygon fill="white" stroke="#666666" points="1248,-136 1159,-136 1159,-117 1248,-117 1248,-136"/>
<text text-anchor="middle" x="1203.5" y="-124" font-family="Courier,monospace" font-size="10.00">DGKernelBase</text>
</a>
</g>
</g>
<!-- Node3&#45;&gt;Node2 -->
<g id="edge2" class="edge">
<title>Node3&#45;&gt;Node2</title>
<path fill="none" stroke="#63b8ff" d="M1243.7,-112.98C1275.13,-102.13 1318.52,-87.16 1346.79,-77.41"/>
<polygon fill="#63b8ff" stroke="#63b8ff" points="1242.86,-109.56 1234.55,-116.13 1245.15,-116.18 1242.86,-109.56"/>
</g>
<!-- Node4 -->
<g id="node4" class="node">
<title>Node4</title>
<g id="a_node4"><a xlink:href="classNeighborResidualObject.html" target="_top" xlink:title="This is a base class for objects that can provide residual contributions for both local and neighbor ...">
<polygon fill="white" stroke="#666666" points="1042,-305 893,-305 893,-286 1042,-286 1042,-305"/>
<text text-anchor="middle" x="967.5" y="-293" font-family="Courier,monospace" font-size="10.00">NeighborResidualObject</text>
</a>
</g>
</g>
<!-- Node4&#45;&gt;Node3 -->
<g id="edge3" class="edge">
<title>Node4&#45;&gt;Node3</title>
<path fill="none" stroke="#63b8ff" d="M992.37,-279.17C1012.82,-265.11 1043,-244.19 1069,-225.5 1113.52,-193.5 1165.49,-154.47 1189.33,-136.47"/>
<polygon fill="#63b8ff" stroke="#63b8ff" points="990.42,-276.26 984.15,-284.81 994.38,-282.03 990.42,-276.26"/>
</g>
<!-- Node5 -->
<g id="node5" class="node">
<title>Node5</title>
<g id="a_node5"><a xlink:href="classResidualObject.html" target="_top" xlink:title="This is the common base class for objects that give residual contributions.">
<polygon fill="white" stroke="#666666" points="776,-331 675,-331 675,-312 776,-312 776,-331"/>
<text text-anchor="middle" x="725.5" y="-319" font-family="Courier,monospace" font-size="10.00">ResidualObject</text>
</a>
</g>
</g>
<!-- Node5&#45;&gt;Node4 -->
<g id="edge4" class="edge">
<title>Node5&#45;&gt;Node4</title>
<path fill="none" stroke="#63b8ff" d="M787.65,-314.88C819.63,-311.41 859.01,-307.14 892.68,-303.5"/>
<polygon fill="#63b8ff" stroke="#63b8ff" points="787.3,-311.39 777.73,-315.95 788.05,-318.35 787.3,-311.39"/>
</g>
<!-- Node6 -->
<g id="node6" class="node">
<title>Node6</title>
<g id="a_node6"><a xlink:href="classMooseObject.html" target="_top" xlink:title="Every object that can be built by the factory should be derived from this class.">
<polygon fill="white" stroke="#666666" points="534,-535 451,-535 451,-516 534,-516 534,-535"/>
<text text-anchor="middle" x="492.5" y="-523" font-family="Courier,monospace" font-size="10.00">MooseObject</text>
</a>
</g>
</g>
<!-- Node6&#45;&gt;Node5 -->
<g id="edge5" class="edge">
<title>Node6&#45;&gt;Node5</title>
<path fill="none" stroke="#63b8ff" d="M545.39,-522.02C559.03,-519.36 573.22,-514.9 585,-507.5 658.15,-461.56 706.48,-362.45 720.37,-331.17"/>
<polygon fill="#63b8ff" stroke="#63b8ff" points="544.92,-518.55 535.61,-523.61 546.05,-525.46 544.92,-518.55"/>
</g>
<!-- Node7 -->
<g id="node7" class="node">
<title>Node7</title>
<g id="a_node7"><a xlink:href="classMooseBase.html" target="_top" xlink:title="Base class for everything in MOOSE with a name and a type.">
<polygon fill="white" stroke="#666666" points="310,-609 239,-609 239,-590 310,-590 310,-609"/>
<text text-anchor="middle" x="274.5" y="-597" font-family="Courier,monospace" font-size="10.00">MooseBase</text>
</a>
</g>
</g>
<!-- Node7&#45;&gt;Node6 -->
<g id="edge6" class="edge">
<title>Node7&#45;&gt;Node6</title>
<path fill="none" stroke="#63b8ff" d="M321.62,-592.05C335.41,-589.31 350.46,-585.8 364,-581.5 403.87,-568.85 448.08,-547.72 472.56,-535.35"/>
<polygon fill="#63b8ff" stroke="#63b8ff" points="321.06,-588.59 311.89,-593.89 322.36,-595.47 321.06,-588.59"/>
</g>
<!-- Node8 -->
<g id="node8" class="node">
<title>Node8</title>
<g id="a_node8"><a xlink:href="classMooseBaseParameterInterface.html" target="_top" xlink:title="Every object that can be built by the factory should be derived from this class.">
<polygon fill="white" stroke="#666666" points="364,-572 185,-572 185,-553 364,-553 364,-572"/>
<text text-anchor="middle" x="274.5" y="-560" font-family="Courier,monospace" font-size="10.00">MooseBaseParameterInterface</text>
</a>
</g>
</g>
<!-- Node8&#45;&gt;Node6 -->
<g id="edge7" class="edge">
<title>Node8&#45;&gt;Node6</title>
<path fill="none" stroke="#63b8ff" d="M344.77,-550.63C379.7,-544.65 420.85,-537.6 450.68,-532.49"/>
<polygon fill="#63b8ff" stroke="#63b8ff" points="344.43,-547.14 335.16,-552.28 345.61,-554.04 344.43,-547.14"/>
</g>
<!-- Node9 -->
<g id="node9" class="node">
<title>Node9</title>
<g id="a_node9"><a xlink:href="classMooseBaseErrorInterface.html" target="_top" xlink:title="Interface that provides APIs to output errors/warnings/info messages.">
<polygon fill="white" stroke="#666666" points="352,-535 197,-535 197,-516 352,-516 352,-535"/>
<text text-anchor="middle" x="274.5" y="-523" font-family="Courier,monospace" font-size="10.00">MooseBaseErrorInterface</text>
</a>
</g>
</g>
<!-- Node9&#45;&gt;Node6 -->
<g id="edge8" class="edge">
<title>Node9&#45;&gt;Node6</title>
<path fill="none" stroke="#63b8ff" d="M363.7,-525.5C393.87,-525.5 426.17,-525.5 450.75,-525.5"/>
<polygon fill="#63b8ff" stroke="#63b8ff" points="363.78,-522 353.78,-525.5 363.78,-529 363.78,-522"/>
</g>
<!-- Node10 -->
<g id="node10" class="node">
<title>Node10</title>
<g id="a_node10"><a xlink:href="classConsoleStreamInterface.html" target="_top" xlink:title="An inteface for the _console for outputting to the Console object.">
<polygon fill="white" stroke="#666666" points="149,-535 0,-535 0,-516 149,-516 149,-535"/>
<text text-anchor="middle" x="74.5" y="-523" font-family="Courier,monospace" font-size="10.00">ConsoleStreamInterface</text>
</a>
</g>
</g>
<!-- Node10&#45;&gt;Node9 -->
<g id="edge9" class="edge">
<title>Node10&#45;&gt;Node9</title>
<path fill="none" stroke="#63b8ff" d="M160.62,-525.5C172.62,-525.5 184.9,-525.5 196.73,-525.5"/>
<polygon fill="#63b8ff" stroke="#63b8ff" points="160.74,-522 150.74,-525.5 160.74,-529 160.74,-522"/>
</g>
<!-- Node11 -->
<g id="node11" class="node">
<title>Node11</title>
<g id="a_node11"><a xlink:title=" ">
<polygon fill="white" stroke="#666666" points="352,-498 197,-498 197,-479 352,-479 352,-498"/>
<text text-anchor="middle" x="274.5" y="-486" font-family="Courier,monospace" font-size="10.00">libMesh::ParallelObject</text>
</a>
</g>
</g>
<!-- Node11&#45;&gt;Node6 -->
<g id="edge10" class="edge">
<title>Node11&#45;&gt;Node6</title>
<path fill="none" stroke="#63b8ff" d="M344.77,-500.37C379.7,-506.35 420.85,-513.4 450.68,-518.51"/>
<polygon fill="#63b8ff" stroke="#63b8ff" points="345.61,-496.96 335.16,-498.72 344.43,-503.86 345.61,-496.96"/>
</g>
<!-- Node12 -->
<g id="node12" class="node">
<title>Node12</title>
<g id="a_node12"><a xlink:href="classDataFileInterface.html" target="_top" xlink:title=" ">
<polygon fill="white" stroke="#666666" points="337,-460.5 212,-460.5 212,-430.5 337,-430.5 337,-460.5"/>
<text text-anchor="start" x="220" y="-448.5" font-family="Courier,monospace" font-size="10.00">DataFileInterface&lt;</text>
<text text-anchor="middle" x="274.5" y="-437.5" font-family="Courier,monospace" font-size="10.00"> MooseObject &gt;</text>
</a>
</g>
</g>
<!-- Node12&#45;&gt;Node6 -->
<g id="edge11" class="edge">
<title>Node12&#45;&gt;Node6</title>
<path fill="none" stroke="#63b8ff" d="M347.62,-462.35C353.32,-464.73 358.86,-467.44 364,-470.5 383.71,-482.24 379.83,-496.57 400,-507.5 415.37,-515.83 434.06,-520.34 450.53,-522.76"/>
<polygon fill="#63b8ff" stroke="#63b8ff" points="349.23,-459.22 338.64,-458.94 346.74,-465.76 349.23,-459.22"/>
</g>
<!-- Node13 -->
<g id="node13" class="node">
<title>Node13</title>
<g id="a_node13"><a xlink:href="classSetupInterface.html" target="_top" xlink:title=" ">
<polygon fill="white" stroke="#666666" points="543,-498 442,-498 442,-479 543,-479 543,-498"/>
<text text-anchor="middle" x="492.5" y="-486" font-family="Courier,monospace" font-size="10.00">SetupInterface</text>
</a>
</g>
</g>
<!-- Node13&#45;&gt;Node5 -->
<g id="edge12" class="edge">
<title>Node13&#45;&gt;Node5</title>
<path fill="none" stroke="#63b8ff" d="M554.42,-482.04C565.03,-479.39 575.65,-475.69 585,-470.5 649.46,-434.76 701.26,-358.73 718.42,-331.48"/>
<polygon fill="#63b8ff" stroke="#63b8ff" points="553.93,-478.57 544.9,-484.11 555.42,-485.41 553.93,-478.57"/>
</g>
<!-- Node14 -->
<g id="node14" class="node">
<title>Node14</title>
<g id="a_node14"><a xlink:href="classFunctionInterface.html" target="_top" xlink:title="Interface for objects that need to use functions.">
<polygon fill="white" stroke="#666666" points="552,-461 433,-461 433,-442 552,-442 552,-461"/>
<text text-anchor="middle" x="492.5" y="-449" font-family="Courier,monospace" font-size="10.00">FunctionInterface</text>
</a>
</g>
</g>
<!-- Node14&#45;&gt;Node5 -->
<g id="edge13" class="edge">
<title>Node14&#45;&gt;Node5</title>
<path fill="none" stroke="#63b8ff" d="M563.39,-441.43C570.85,-439.27 578.19,-436.67 585,-433.5 641.32,-407.3 694.79,-353.68 715.48,-331.47"/>
<polygon fill="#63b8ff" stroke="#63b8ff" points="562.7,-437.99 553.89,-443.88 564.45,-444.77 562.7,-437.99"/>
</g>
<!-- Node15 -->
<g id="node15" class="node">
<title>Node15</title>
<g id="a_node15"><a xlink:href="classUserObjectInterface.html" target="_top" xlink:title="Interface for objects that need to use UserObjects.">
<polygon fill="white" stroke="#666666" points="558,-424 427,-424 427,-405 558,-405 558,-424"/>
<text text-anchor="middle" x="492.5" y="-412" font-family="Courier,monospace" font-size="10.00">UserObjectInterface</text>
</a>
</g>
</g>
<!-- Node15&#45;&gt;Node5 -->
<g id="edge14" class="edge">
<title>Node15&#45;&gt;Node5</title>
<path fill="none" stroke="#63b8ff" d="M568.24,-401.73C573.97,-400.17 579.61,-398.43 585,-396.5 633.15,-379.26 684.97,-347.48 709.71,-331.39"/>
<polygon fill="#63b8ff" stroke="#63b8ff" points="567.48,-398.32 558.64,-404.16 569.19,-405.1 567.48,-398.32"/>
</g>
<!-- Node16 -->
<g id="node16" class="node">
<title>Node16</title>
<g id="a_node16"><a xlink:href="classTransientInterface.html" target="_top" xlink:title="Interface for objects that needs transient capabilities.">
<polygon fill="white" stroke="#666666" points="555,-387 430,-387 430,-368 555,-368 555,-387"/>
<text text-anchor="middle" x="492.5" y="-375" font-family="Courier,monospace" font-size="10.00">TransientInterface</text>
</a>
</g>
</g>
<!-- Node16&#45;&gt;Node5 -->
<g id="edge15" class="edge">
<title>Node16&#45;&gt;Node5</title>
<path fill="none" stroke="#63b8ff" d="M558.53,-365.3C567.45,-363.46 576.47,-361.5 585,-359.5 621.29,-351 662.42,-339.57 690.56,-331.48"/>
<polygon fill="#63b8ff" stroke="#63b8ff" points="557.93,-361.85 548.83,-367.27 559.32,-368.71 557.93,-361.85"/>
</g>
<!-- Node17 -->
<g id="node17" class="node">
<title>Node17</title>
<g id="a_node17"><a xlink:href="classPostprocessorInterface.html" target="_top" xlink:title="Interface class for classes which interact with Postprocessors.">
<polygon fill="white" stroke="#666666" points="567,-350 418,-350 418,-331 567,-331 567,-350"/>
<text text-anchor="middle" x="492.5" y="-338" font-family="Courier,monospace" font-size="10.00">PostprocessorInterface</text>
</a>
</g>
</g>
<!-- Node17&#45;&gt;Node5 -->
<g id="edge16" class="edge">
<title>Node17&#45;&gt;Node5</title>
<path fill="none" stroke="#63b8ff" d="M578.52,-333.51C610.9,-330.84 646.73,-327.9 674.79,-325.59"/>
<polygon fill="#63b8ff" stroke="#63b8ff" points="578.41,-330 568.73,-334.31 578.99,-336.98 578.41,-330"/>
</g>
<!-- Node18 -->
<g id="node18" class="node">
<title>Node18</title>
<g id="a_node18"><a xlink:href="classVectorPostprocessorInterface.html" target="_top" xlink:title=" ">
<polygon fill="white" stroke="#666666" points="585,-313 400,-313 400,-294 585,-294 585,-313"/>
<text text-anchor="middle" x="492.5" y="-301" font-family="Courier,monospace" font-size="10.00">VectorPostprocessorInterface</text>
</a>
</g>
</g>
<!-- Node18&#45;&gt;Node5 -->
<g id="edge17" class="edge">
<title>Node18&#45;&gt;Node5</title>
<path fill="none" stroke="#63b8ff" d="M596.61,-311.53C623.74,-313.65 651.79,-315.83 674.69,-317.62"/>
<polygon fill="#63b8ff" stroke="#63b8ff" points="597.21,-308.07 586.97,-310.78 596.67,-315.05 597.21,-308.07"/>
</g>
<!-- Node19 -->
<g id="node19" class="node">
<title>Node19</title>
<g id="a_node19"><a xlink:href="classRandomInterface.html" target="_top" xlink:title="Interface for objects that need parallel consistent random numbers without patterns over the course o...">
<polygon fill="white" stroke="#666666" points="546,-276 439,-276 439,-257 546,-257 546,-276"/>
<text text-anchor="middle" x="492.5" y="-264" font-family="Courier,monospace" font-size="10.00">RandomInterface</text>
</a>
</g>
</g>
<!-- Node19&#45;&gt;Node5 -->
<g id="edge18" class="edge">
<title>Node19&#45;&gt;Node5</title>
<path fill="none" stroke="#63b8ff" d="M554.41,-278.72C564.64,-280.9 575.14,-283.2 585,-285.5 620.08,-293.66 659.83,-304.03 687.9,-311.55"/>
<polygon fill="#63b8ff" stroke="#63b8ff" points="555.44,-275.36 544.94,-276.73 554.01,-282.22 555.44,-275.36"/>
</g>
<!-- Node20 -->
<g id="node20" class="node">
<title>Node20</title>
<g id="a_node20"><a xlink:href="classRestartable.html" target="_top" xlink:title="A class for creating restricted objects.">
<polygon fill="white" stroke="#666666" points="534,-239 451,-239 451,-220 534,-220 534,-239"/>
<text text-anchor="middle" x="492.5" y="-227" font-family="Courier,monospace" font-size="10.00">Restartable</text>
</a>
</g>
</g>
<!-- Node20&#45;&gt;Node5 -->
<g id="edge19" class="edge">
<title>Node20&#45;&gt;Node5</title>
<path fill="none" stroke="#63b8ff" d="M545.5,-237.69C558.59,-240.46 572.48,-244.02 585,-248.5 632.62,-265.53 684.26,-296.07 709.25,-311.7"/>
<polygon fill="#63b8ff" stroke="#63b8ff" points="546.22,-234.27 535.73,-235.76 544.86,-241.14 546.22,-234.27"/>
</g>
<!-- Node21 -->
<g id="node21" class="node">
<title>Node21</title>
<g id="a_node21"><a xlink:href="classMeshChangedInterface.html" target="_top" xlink:title="Interface for notifications that the mesh has changed.">
<polygon fill="white" stroke="#666666" points="561,-202 424,-202 424,-183 561,-183 561,-202"/>
<text text-anchor="middle" x="492.5" y="-190" font-family="Courier,monospace" font-size="10.00">MeshChangedInterface</text>
</a>
</g>
</g>
<!-- Node21&#45;&gt;Node5 -->
<g id="edge20" class="edge">
<title>Node21&#45;&gt;Node5</title>
<path fill="none" stroke="#63b8ff" d="M570.63,-205.77C575.58,-207.46 580.41,-209.36 585,-211.5 640.91,-237.56 694.6,-290.04 715.42,-311.75"/>
<polygon fill="#63b8ff" stroke="#63b8ff" points="571.71,-202.44 561.12,-202.85 569.65,-209.13 571.71,-202.44"/>
</g>
<!-- Node22 -->
<g id="node22" class="node">
<title>Node22</title>
<g id="a_node22"><a xlink:href="classTaggingInterface.html" target="_top" xlink:title=" ">
<polygon fill="white" stroke="#666666" points="549,-165 436,-165 436,-146 549,-146 549,-165"/>
<text text-anchor="middle" x="492.5" y="-153" font-family="Courier,monospace" font-size="10.00">TaggingInterface</text>
</a>
</g>
</g>
<!-- Node22&#45;&gt;Node5 -->
<g id="edge21" class="edge">
<title>Node22&#45;&gt;Node5</title>
<path fill="none" stroke="#63b8ff" d="M560.14,-164.34C568.81,-166.91 577.33,-170.23 585,-174.5 648.93,-210.11 701.07,-284.9 718.37,-311.69"/>
<polygon fill="#63b8ff" stroke="#63b8ff" points="561.16,-160.99 550.6,-161.84 559.39,-167.76 561.16,-160.99"/>
</g>
<!-- Node23 -->
<g id="node23" class="node">
<title>Node23</title>
<g id="a_node23"><a xlink:href="classBlockRestrictable.html" target="_top" xlink:title="An interface that restricts an object to subdomains via the &#39;blocks&#39; input parameter.">
<polygon fill="white" stroke="#666666" points="1027,-216 908,-216 908,-197 1027,-197 1027,-216"/>
<text text-anchor="middle" x="967.5" y="-204" font-family="Courier,monospace" font-size="10.00">BlockRestrictable</text>
</a>
</g>
</g>
<!-- Node23&#45;&gt;Node3 -->
<g id="edge22" class="edge">
<title>Node23&#45;&gt;Node3</title>
<path fill="none" stroke="#63b8ff" d="M1038.46,-196.37C1048.8,-194.18 1059.26,-191.58 1069,-188.5 1112.37,-174.8 1159.97,-150.18 1184.95,-136.44"/>
<polygon fill="#63b8ff" stroke="#63b8ff" points="1037.92,-192.91 1028.79,-198.29 1039.28,-199.78 1037.92,-192.91"/>
</g>
<!-- Node24 -->
<g id="node24" class="node">
<title>Node24</title>
<g id="a_node24"><a xlink:href="classBoundaryRestrictable.html" target="_top" xlink:title="/class BoundaryRestrictable /brief Provides functionality for limiting the object to certain boundary...">
<polygon fill="white" stroke="#666666" points="1036,-179 899,-179 899,-160 1036,-160 1036,-179"/>
<text text-anchor="middle" x="967.5" y="-167" font-family="Courier,monospace" font-size="10.00">BoundaryRestrictable</text>
</a>
</g>
</g>
<!-- Node24&#45;&gt;Node3 -->
<g id="edge23" class="edge">
<title>Node24&#45;&gt;Node3</title>
<path fill="none" stroke="#63b8ff" d="M1033.99,-157.47C1073.82,-150.15 1123.6,-141 1158.69,-134.55"/>
<polygon fill="#63b8ff" stroke="#63b8ff" points="1033.46,-154 1024.26,-159.25 1034.73,-160.89 1033.46,-154"/>
</g>
<!-- Node25 -->
<g id="node25" class="node">
<title>Node25</title>
<g id="a_node25"><a xlink:href="classNeighborCoupleableMooseVariableDependencyIntermediateInterface.html" target="_top" xlink:title="Intermediate base class that ties together all the interfaces for getting MooseVariables with the Moo...">
<polygon fill="white" stroke="#666666" points="1069,-141.5 866,-141.5 866,-111.5 1069,-111.5 1069,-141.5"/>
<text text-anchor="start" x="874" y="-129.5" font-family="Courier,monospace" font-size="10.00">NeighborCoupleableMooseVariable</text>
<text text-anchor="middle" x="967.5" y="-118.5" font-family="Courier,monospace" font-size="10.00">DependencyIntermediateInterface</text>
</a>
</g>
</g>
<!-- Node25&#45;&gt;Node3 -->
<g id="edge24" class="edge">
<title>Node25&#45;&gt;Node3</title>
<path fill="none" stroke="#63b8ff" d="M1080.81,-126.5C1108.42,-126.5 1136.38,-126.5 1158.52,-126.5"/>
<polygon fill="#63b8ff" stroke="#63b8ff" points="1080.95,-123 1070.95,-126.5 1080.95,-130 1080.95,-123"/>
</g>
<!-- Node26 -->
<g id="node26" class="node">
<title>Node26</title>
<g id="a_node26"><a xlink:href="classNeighborCoupleable.html" target="_top" xlink:title="Enhances Coupleable interface to also couple the values from neighbor elements.">
<polygon fill="white" stroke="#666666" points="788,-173 663,-173 663,-154 788,-154 788,-173"/>
<text text-anchor="middle" x="725.5" y="-161" font-family="Courier,monospace" font-size="10.00">NeighborCoupleable</text>
</a>
</g>
</g>
<!-- Node26&#45;&gt;Node25 -->
<g id="edge25" class="edge">
<title>Node26&#45;&gt;Node25</title>
<path fill="none" stroke="#63b8ff" d="M799.42,-152.26C820.48,-149.01 843.85,-145.41 866.26,-141.95"/>
<polygon fill="#63b8ff" stroke="#63b8ff" points="799.15,-148.76 789.8,-153.74 800.22,-155.68 799.15,-148.76"/>
</g>
<!-- Node27 -->
<g id="node27" class="node">
<title>Node27</title>
<g id="a_node27"><a xlink:href="classCoupleable.html" target="_top" xlink:title="Interface for objects that needs coupling capabilities.">
<polygon fill="white" stroke="#666666" points="531,-128 454,-128 454,-109 531,-109 531,-128"/>
<text text-anchor="middle" x="492.5" y="-116" font-family="Courier,monospace" font-size="10.00">Coupleable</text>
</a>
</g>
</g>
<!-- Node27&#45;&gt;Node26 -->
<g id="edge26" class="edge">
<title>Node27&#45;&gt;Node26</title>
<path fill="none" stroke="#63b8ff" d="M542.57,-128.56C556.31,-131.41 571.24,-134.54 585,-137.5 601.02,-140.94 604.92,-142.32 621,-145.5 634.96,-148.26 650.01,-151.01 664.21,-153.5"/>
<polygon fill="#63b8ff" stroke="#63b8ff" points="543.35,-125.15 532.85,-126.55 541.93,-132 543.35,-125.15"/>
</g>
<!-- Node28 -->
<g id="node28" class="node">
<title>Node28</title>
<g id="a_node28"><a xlink:href="classScalarCoupleable.html" target="_top" xlink:title="Interface for objects that needs scalar coupling capabilities.">
<polygon fill="white" stroke="#666666" points="782,-136 669,-136 669,-117 782,-117 782,-136"/>
<text text-anchor="middle" x="725.5" y="-124" font-family="Courier,monospace" font-size="10.00">ScalarCoupleable</text>
</a>
</g>
</g>
<!-- Node28&#45;&gt;Node25 -->
<g id="edge27" class="edge">
<title>Node28&#45;&gt;Node25</title>
<path fill="none" stroke="#63b8ff" d="M793.83,-126.5C816.12,-126.5 841.44,-126.5 865.68,-126.5"/>
<polygon fill="#63b8ff" stroke="#63b8ff" points="793.98,-123 783.98,-126.5 793.98,-130 793.98,-123"/>
</g>
<!-- Node29 -->
<g id="node29" class="node">
<title>Node29</title>
<g id="a_node29"><a xlink:href="classMooseVariableDependencyInterface.html" target="_top" xlink:title=" ">
<polygon fill="white" stroke="#666666" points="830,-99 621,-99 621,-80 830,-80 830,-99"/>
<text text-anchor="middle" x="725.5" y="-87" font-family="Courier,monospace" font-size="10.00">MooseVariableDependencyInterface</text>
</a>
</g>
</g>
<!-- Node29&#45;&gt;Node25 -->
<g id="edge28" class="edge">
<title>Node29&#45;&gt;Node25</title>
<path fill="none" stroke="#63b8ff" d="M802.45,-101.21C822.65,-104.32 844.77,-107.73 866.06,-111.01"/>
<polygon fill="#63b8ff" stroke="#63b8ff" points="803.04,-97.76 792.63,-99.69 801.98,-104.68 803.04,-97.76"/>
</g>
<!-- Node30 -->
<g id="node30" class="node">
<title>Node30</title>
<g id="a_node30"><a xlink:href="classTwoMaterialPropertyInterface.html" target="_top" xlink:title="This interface is designed for DGKernel, InternalSideUserObject, InterfaceUserObject,...">
<polygon fill="white" stroke="#666666" points="1060,-93 875,-93 875,-74 1060,-74 1060,-93"/>
<text text-anchor="middle" x="967.5" y="-81" font-family="Courier,monospace" font-size="10.00">TwoMaterialPropertyInterface</text>
</a>
</g>
</g>
<!-- Node30&#45;&gt;Node3 -->
<g id="edge29" class="edge">
<title>Node30&#45;&gt;Node3</title>
<path fill="none" stroke="#63b8ff" d="M1033.99,-95.53C1073.82,-102.85 1123.6,-112 1158.69,-118.45"/>
<polygon fill="#63b8ff" stroke="#63b8ff" points="1034.73,-92.11 1024.26,-93.75 1033.46,-99 1034.73,-92.11"/>
</g>
<!-- Node31 -->
<g id="node31" class="node">
<title>Node31</title>
<g id="a_node31"><a xlink:href="classMaterialPropertyInterface.html" target="_top" xlink:title="An interface for accessing Materials.">
<polygon fill="white" stroke="#666666" points="809,-62 642,-62 642,-43 809,-43 809,-62"/>
<text text-anchor="middle" x="725.5" y="-50" font-family="Courier,monospace" font-size="10.00">MaterialPropertyInterface</text>
</a>
</g>
</g>
<!-- Node31&#45;&gt;Node30 -->
<g id="edge30" class="edge">
<title>Node31&#45;&gt;Node30</title>
<path fill="none" stroke="#63b8ff" d="M815.17,-63.95C839.53,-67.1 865.74,-70.48 889.39,-73.54"/>
<polygon fill="#63b8ff" stroke="#63b8ff" points="815.63,-60.48 805.26,-62.67 814.73,-67.43 815.63,-60.48"/>
</g>
<!-- Node32 -->
<g id="node32" class="node">
<title>Node32</title>
<g id="a_node32"><a xlink:href="classElementIDInterface.html" target="_top" xlink:title=" ">
<polygon fill="white" stroke="#666666" points="1030,-56 905,-56 905,-37 1030,-37 1030,-56"/>
<text text-anchor="middle" x="967.5" y="-44" font-family="Courier,monospace" font-size="10.00">ElementIDInterface</text>
</a>
</g>
</g>
<!-- Node32&#45;&gt;Node3 -->
<g id="edge31" class="edge">
<title>Node32&#45;&gt;Node3</title>
<path fill="none" stroke="#63b8ff" d="M1041.73,-58.19C1050.99,-60.3 1060.28,-62.73 1069,-65.5 1111.98,-79.16 1159.35,-103.09 1184.49,-116.56"/>
<polygon fill="#63b8ff" stroke="#63b8ff" points="1042.46,-54.77 1031.95,-56.1 1041,-61.62 1042.46,-54.77"/>
</g>
<!-- Node33 -->
<g id="node33" class="node">
<title>Node33</title>
<g id="a_node33"><a xlink:href="classNeighborMooseVariableInterface.html" target="_top" xlink:title=" ">
<polygon fill="white" stroke="#666666" points="1302,-61.5 1105,-61.5 1105,-31.5 1302,-31.5 1302,-61.5"/>
<text text-anchor="start" x="1113" y="-49.5" font-family="Courier,monospace" font-size="10.00">NeighborMooseVariableInterface</text>
<text text-anchor="middle" x="1203.5" y="-38.5" font-family="Courier,monospace" font-size="10.00">&lt; Real &gt;</text>
</a>
</g>
</g>
<!-- Node33&#45;&gt;Node2 -->
<g id="edge32" class="edge">
<title>Node33&#45;&gt;Node2</title>
<path fill="none" stroke="#63b8ff" d="M1313.68,-59.91C1322.07,-60.94 1330.13,-61.93 1337.5,-62.83"/>
<polygon fill="#63b8ff" stroke="#63b8ff" points="1314.34,-56.46 1303.99,-58.72 1313.49,-63.41 1314.34,-56.46"/>
</g>
<!-- Node34 -->
<g id="node34" class="node">
<title>Node34</title>
<g id="a_node34"><a xlink:href="classMooseVariableInterface.html" target="_top" xlink:title="Interface for objects that need to get values of MooseVariables.">
<polygon fill="white" stroke="#666666" points="1057,-19 878,-19 878,0 1057,0 1057,-19"/>
<text text-anchor="middle" x="967.5" y="-7" font-family="Courier,monospace" font-size="10.00">MooseVariableInterface&lt; T &gt;</text>
</a>
</g>
</g>
<!-- Node34&#45;&gt;Node33 -->
<g id="edge33" class="edge">
<title>Node34&#45;&gt;Node33</title>
<path fill="none" stroke="#63b8ff" d="M1042.83,-21.25C1062.44,-24.35 1083.91,-27.75 1104.57,-31.01"/>
<polygon fill="#63b8ff" stroke="#63b8ff" points="1043.43,-17.81 1033.01,-19.7 1042.34,-24.72 1043.43,-17.81"/>
</g>
</g>
</svg>
