<?xml version="1.0" encoding="UTF-8" standalone="no"?>
<!DOCTYPE svg PUBLIC "-//W3C//DTD SVG 1.1//EN"
 "http://www.w3.org/Graphics/SVG/1.1/DTD/svg11.dtd">
<!-- Generated by graphviz version 7.0.5 (20221223.1930)
 -->
<!-- Title: ADNodalBCTempl&lt; T, Base &gt; Pages: 1 -->
<!--zoomable 415 -->
<svg id="main" version="1.1" xmlns="http://www.w3.org/2000/svg" xmlns:xlink="http://www.w3.org/1999/xlink" xml:space="preserve" onload="init(evt)">
<style type="text/css"><![CDATA[
.edge:hover path { stroke: red; }
.edge:hover polygon { stroke: red; fill: red; }
]]></style>
<script type="text/javascript"><![CDATA[
var edges = document.getElementsByTagName('g');
if (edges && edges.length) {
  for (var i=0;i<edges.length;i++) {
    if (edges[i].id.substr(0,4)=='edge') {
      edges[i].setAttribute('class','edge');
    }
  }
}
]]></script>
        <defs>
                <circle id="rim" cx="0" cy="0" r="7"/>
                <circle id="rim2" cx="0" cy="0" r="3.5"/>
                <g id="zoomPlus">
                        <use xlink:href="#rim" fill="#404040">
                                <set attributeName="fill" to="#808080" begin="zoomplus.mouseover" end="zoomplus.mouseout"/>
                        </use>
                        <path d="M-4,0h8M0,-4v8" fill="none" stroke="white" stroke-width="1.5" pointer-events="none"/>
                </g>
                <g id="zoomMin">
                        <use xlink:href="#rim" fill="#404040">
                                <set attributeName="fill" to="#808080" begin="zoomminus.mouseover" end="zoomminus.mouseout"/>
                        </use>
                        <path d="M-4,0h8" fill="none" stroke="white" stroke-width="1.5" pointer-events="none"/>
                </g>
                <g id="dirArrow">
                        <path fill="none" stroke="white" stroke-width="1.5" d="M0,-3.0v7 M-2.5,-0.5L0,-3.0L2.5,-0.5"/>
                </g>
               <g id="resetDef">
                       <use xlink:href="#rim2" fill="#404040">
                               <set attributeName="fill" to="#808080" begin="reset.mouseover" end="reset.mouseout"/>
                       </use>
               </g>
        </defs>

<script type="text/javascript">
var viewWidth = 957;
var viewHeight = 415;
var sectionId = 'dynsection-0';
</script>
<script xlink:href="svgpan.js"/>
<svg id="graph" class="graph">
<g id="viewport">
<title>ADNodalBCTempl&lt; T, Base &gt;</title>
<!-- Node1 -->
<g id="node1" class="node">
<title>Node1</title>
<g id="a_node1"><a xlink:title="Base class for deriving any automatic differentiation boundary condition of a integrated type.">
<polygon fill="#999999" stroke="#666666" points="489,-188 364,-188 364,-158 489,-158 489,-188"/>
<text text-anchor="start" x="372" y="-176" font-family="Courier,monospace" font-size="10.00">ADNodalBCTempl&lt; T,</text>
<text text-anchor="middle" x="426.5" y="-165" font-family="Courier,monospace" font-size="10.00"> Base &gt;</text>
</a>
</g>
</g>
<!-- Node6 -->
<g id="node6" class="node">
<title>Node6</title>
<g id="a_node6"><a xlink:href="classADDirichletBCBaseTempl.html" target="_top" xlink:title=" ">
<polygon fill="white" stroke="#666666" points="704,-369 555,-369 555,-339 704,-339 704,-369"/>
<text text-anchor="start" x="563" y="-357" font-family="Courier,monospace" font-size="10.00">ADDirichletBCBaseTempl</text>
<text text-anchor="middle" x="629.5" y="-346" font-family="Courier,monospace" font-size="10.00">&lt; Real &gt;</text>
</a>
</g>
</g>
<!-- Node1&#45;&gt;Node6 -->
<g id="edge5" class="edge">
<title>Node1&#45;&gt;Node6</title>
<path fill="none" stroke="#63b8ff" d="M438.68,-198.7C453.83,-230.71 483.81,-285.06 525,-317 536.84,-326.18 551.15,-333.21 565.3,-338.54"/>
<polygon fill="#63b8ff" stroke="#63b8ff" points="441.93,-197.39 434.57,-189.76 435.56,-200.31 441.93,-197.39"/>
</g>
<!-- Node10 -->
<g id="node10" class="node">
<title>Node10</title>
<g id="a_node10"><a xlink:href="classADDirichletBCBaseTempl.html" target="_top" xlink:title=" ">
<polygon fill="white" stroke="#666666" points="704,-308 555,-308 555,-278 704,-278 704,-308"/>
<text text-anchor="start" x="563" y="-296" font-family="Courier,monospace" font-size="10.00">ADDirichletBCBaseTempl</text>
<text text-anchor="middle" x="629.5" y="-285" font-family="Courier,monospace" font-size="10.00">&lt; RealVectorValue &gt;</text>
</a>
</g>
</g>
<!-- Node1&#45;&gt;Node10 -->
<g id="edge9" class="edge">
<title>Node1&#45;&gt;Node10</title>
<path fill="none" stroke="#63b8ff" d="M445.43,-197.06C463.19,-219.15 492.4,-251.07 525,-269 534.13,-274.02 544.27,-278 554.54,-281.14"/>
<polygon fill="#63b8ff" stroke="#63b8ff" points="448.4,-195.18 439.48,-189.46 442.89,-199.49 448.4,-195.18"/>
</g>
<!-- Node12 -->
<g id="node12" class="node">
<title>Node12</title>
<g id="a_node12"><a xlink:href="classADVectorMatchedValueBC.html" target="_top" xlink:title="Implements a simple coupled boundary condition where u=v on the boundary.">
<polygon fill="white" stroke="#666666" points="734,-260 525,-260 525,-230 734,-230 734,-260"/>
<text text-anchor="start" x="533" y="-248" font-family="Courier,monospace" font-size="10.00">ADVectorMatchedValueBC</text>
<text text-anchor="middle" x="629.5" y="-237" font-family="Courier,monospace" font-size="10.00">&lt; RealVectorValue, NodalBCBase &gt;</text>
</a>
</g>
</g>
<!-- Node1&#45;&gt;Node12 -->
<g id="edge11" class="edge">
<title>Node1&#45;&gt;Node12</title>
<path fill="none" stroke="#63b8ff" d="M464.5,-193.72C482.36,-203.07 504.35,-213.63 525,-221 533.86,-224.16 543.3,-227.01 552.73,-229.56"/>
<polygon fill="#63b8ff" stroke="#63b8ff" points="466.31,-190.72 455.84,-189.1 463.02,-196.9 466.31,-190.72"/>
</g>
<!-- Node13 -->
<g id="node13" class="node">
<title>Node13</title>
<g id="a_node13"><a xlink:href="classCircuitDirichletPotential.html" target="_top" xlink:title="Boundary condition of a Dirichlet type.">
<polygon fill="white" stroke="#666666" points="713,-212 546,-212 546,-182 713,-182 713,-212"/>
<text text-anchor="start" x="554" y="-200" font-family="Courier,monospace" font-size="10.00">CircuitDirichletPotential</text>
<text text-anchor="middle" x="629.5" y="-189" font-family="Courier,monospace" font-size="10.00">&lt; Real, NodalBCBase &gt;</text>
</a>
</g>
</g>
<!-- Node1&#45;&gt;Node13 -->
<g id="edge12" class="edge">
<title>Node1&#45;&gt;Node13</title>
<path fill="none" stroke="#63b8ff" d="M500.48,-181.71C515.16,-183.47 530.69,-185.32 545.67,-187.11"/>
<polygon fill="#63b8ff" stroke="#63b8ff" points="501.29,-178.29 490.95,-180.58 500.46,-185.24 501.29,-178.29"/>
</g>
<!-- Node14 -->
<g id="node14" class="node">
<title>Node14</title>
<g id="a_node14"><a xlink:href="classElectronTemperatureDirichletBC.html" target="_top" xlink:title="Implements a simple coupled boundary condition where u=v on the boundary.">
<polygon fill="white" stroke="#666666" points="722,-164 537,-164 537,-134 722,-134 722,-164"/>
<text text-anchor="start" x="545" y="-152" font-family="Courier,monospace" font-size="10.00">ElectronTemperatureDirichlet</text>
<text text-anchor="middle" x="629.5" y="-141" font-family="Courier,monospace" font-size="10.00">BC&lt; Real, NodalBCBase &gt;</text>
</a>
</g>
</g>
<!-- Node1&#45;&gt;Node14 -->
<g id="edge13" class="edge">
<title>Node1&#45;&gt;Node14</title>
<path fill="none" stroke="#63b8ff" d="M500.56,-164.28C512.34,-162.87 524.67,-161.4 536.83,-159.95"/>
<polygon fill="#63b8ff" stroke="#63b8ff" points="500.46,-160.76 490.95,-165.42 501.29,-167.71 500.46,-160.76"/>
</g>
<!-- Node15 -->
<g id="node15" class="node">
<title>Node15</title>
<g id="a_node15"><a xlink:href="classGenericNodalBC_3_01true_01_4.html" target="_top" xlink:title=" ">
<polygon fill="white" stroke="#666666" points="704,-115.5 555,-115.5 555,-96.5 704,-96.5 704,-115.5"/>
<text text-anchor="middle" x="629.5" y="-103.5" font-family="Courier,monospace" font-size="10.00">GenericNodalBC&lt; true &gt;</text>
</a>
</g>
</g>
<!-- Node1&#45;&gt;Node15 -->
<g id="edge14" class="edge">
<title>Node1&#45;&gt;Node15</title>
<path fill="none" stroke="#63b8ff" d="M463.59,-152.26C481.55,-142.71 503.89,-131.99 525,-125 535.93,-121.38 547.74,-118.4 559.35,-115.95"/>
<polygon fill="#63b8ff" stroke="#63b8ff" points="462.01,-149.13 454.89,-156.98 465.35,-155.28 462.01,-149.13"/>
</g>
<!-- Node16 -->
<g id="node16" class="node">
<title>Node16</title>
<g id="a_node16"><a xlink:href="classLogDensityDirichletBC.html" target="_top" xlink:title="Implements a simple coupled boundary condition where u=v on the boundary.">
<polygon fill="white" stroke="#666666" points="701,-78 558,-78 558,-48 701,-48 701,-78"/>
<text text-anchor="start" x="566" y="-66" font-family="Courier,monospace" font-size="10.00">LogDensityDirichletBC</text>
<text text-anchor="middle" x="629.5" y="-55" font-family="Courier,monospace" font-size="10.00">&lt; Real, NodalBCBase &gt;</text>
</a>
</g>
</g>
<!-- Node1&#45;&gt;Node16 -->
<g id="edge15" class="edge">
<title>Node1&#45;&gt;Node16</title>
<path fill="none" stroke="#63b8ff" d="M448,-149.29C466.26,-129.68 494.72,-102.59 525,-87 535.09,-81.81 546.3,-77.73 557.52,-74.52"/>
<polygon fill="#63b8ff" stroke="#63b8ff" points="445.5,-146.84 441.37,-156.59 450.68,-151.54 445.5,-146.84"/>
</g>
<!-- Node17 -->
<g id="node17" class="node">
<title>Node17</title>
<g id="a_node17"><a xlink:href="classMatchedValueLogBC.html" target="_top" xlink:title="Implements a simple coupled boundary condition where u=v on the boundary.">
<polygon fill="white" stroke="#666666" points="698,-30 561,-30 561,0 698,0 698,-30"/>
<text text-anchor="start" x="569" y="-18" font-family="Courier,monospace" font-size="10.00">MatchedValueLogBC&lt;</text>
<text text-anchor="middle" x="629.5" y="-7" font-family="Courier,monospace" font-size="10.00"> Real, NodalBCBase &gt;</text>
</a>
</g>
</g>
<!-- Node1&#45;&gt;Node17 -->
<g id="edge16" class="edge">
<title>Node1&#45;&gt;Node17</title>
<path fill="none" stroke="#63b8ff" d="M439.04,-147.47C454.26,-116.82 483.98,-66.16 525,-39 535.69,-31.92 548.2,-26.92 560.76,-23.39"/>
<polygon fill="#63b8ff" stroke="#63b8ff" points="435.92,-145.89 434.75,-156.42 442.23,-148.91 435.92,-145.89"/>
</g>
<!-- Node2 -->
<g id="node2" class="node">
<title>Node2</title>
<g id="a_node2"><a xlink:title=" ">
<polygon fill="white" stroke="#666666" points="259,-219.5 218,-219.5 218,-200.5 259,-200.5 259,-219.5"/>
<text text-anchor="middle" x="238.5" y="-207.5" font-family="Courier,monospace" font-size="10.00">Base</text>
</a>
</g>
</g>
<!-- Node2&#45;&gt;Node1 -->
<g id="edge1" class="edge">
<title>Node2&#45;&gt;Node1</title>
<path fill="none" stroke="#63b8ff" d="M270.53,-203.83C295.88,-198.79 332.49,-191.5 363.76,-185.28"/>
<polygon fill="#63b8ff" stroke="#63b8ff" points="270.01,-200.36 260.89,-205.75 271.38,-207.23 270.01,-200.36"/>
</g>
<!-- Node3 -->
<g id="node3" class="node">
<title>Node3</title>
<g id="a_node3"><a xlink:href="classMooseVariableInterface.html" target="_top" xlink:title="Interface for objects that need to get values of MooseVariables.">
<polygon fill="white" stroke="#666666" points="328,-182.5 149,-182.5 149,-163.5 328,-163.5 328,-182.5"/>
<text text-anchor="middle" x="238.5" y="-170.5" font-family="Courier,monospace" font-size="10.00">MooseVariableInterface&lt; T &gt;</text>
</a>
</g>
</g>
<!-- Node3&#45;&gt;Node1 -->
<g id="edge2" class="edge">
<title>Node3&#45;&gt;Node1</title>
<path fill="none" stroke="#63b8ff" d="M339.9,-173C348.01,-173 356.05,-173 363.76,-173"/>
<polygon fill="#63b8ff" stroke="#63b8ff" points="339.93,-169.5 329.93,-173 339.93,-176.5 339.93,-169.5"/>
</g>
<!-- Node4 -->
<g id="node4" class="node">
<title>Node4</title>
<g id="a_node4"><a xlink:href="classADFunctorInterface.html" target="_top" xlink:title="An interface for accessing Moose::Functors for systems that care about automatic differentiation,...">
<polygon fill="white" stroke="#666666" points="301,-145.5 176,-145.5 176,-126.5 301,-126.5 301,-145.5"/>
<text text-anchor="middle" x="238.5" y="-133.5" font-family="Courier,monospace" font-size="10.00">ADFunctorInterface</text>
</a>
</g>
</g>
<!-- Node4&#45;&gt;Node1 -->
<g id="edge3" class="edge">
<title>Node4&#45;&gt;Node1</title>
<path fill="none" stroke="#63b8ff" d="M300.62,-148.16C320.81,-152.17 343.28,-156.65 363.54,-160.67"/>
<polygon fill="#63b8ff" stroke="#63b8ff" points="301.32,-144.73 290.83,-146.21 299.95,-151.59 301.32,-144.73"/>
</g>
<!-- Node5 -->
<g id="node5" class="node">
<title>Node5</title>
<g id="a_node5"><a xlink:href="classFunctorInterface.html" target="_top" xlink:title="An interface for accessing Moose::Functors.">
<polygon fill="white" stroke="#666666" points="113,-145.5 0,-145.5 0,-126.5 113,-126.5 113,-145.5"/>
<text text-anchor="middle" x="56.5" y="-133.5" font-family="Courier,monospace" font-size="10.00">FunctorInterface</text>
</a>
</g>
</g>
<!-- Node5&#45;&gt;Node4 -->
<g id="edge4" class="edge">
<title>Node5&#45;&gt;Node4</title>
<path fill="none" stroke="#63b8ff" d="M124.79,-136C141.45,-136 159.23,-136 175.62,-136"/>
<polygon fill="#63b8ff" stroke="#63b8ff" points="124.98,-132.5 114.98,-136 124.98,-139.5 124.98,-132.5"/>
</g>
<!-- Node7 -->
<g id="node7" class="node">
<title>Node7</title>
<g id="a_node7"><a xlink:href="classADDirichletBC.html" target="_top" xlink:title="Boundary condition of a Dirichlet type.">
<polygon fill="white" stroke="#666666" points="907,-406.5 812,-406.5 812,-387.5 907,-387.5 907,-406.5"/>
<text text-anchor="middle" x="859.5" y="-394.5" font-family="Courier,monospace" font-size="10.00">ADDirichletBC</text>
</a>
</g>
</g>
<!-- Node6&#45;&gt;Node7 -->
<g id="edge6" class="edge">
<title>Node6&#45;&gt;Node7</title>
<path fill="none" stroke="#63b8ff" d="M715.12,-369.96C747.72,-376.11 783.77,-382.91 811.56,-388.15"/>
<polygon fill="#63b8ff" stroke="#63b8ff" points="716.17,-366.6 705.7,-368.18 714.88,-373.47 716.17,-366.6"/>
</g>
<!-- Node8 -->
<g id="node8" class="node">
<title>Node8</title>
<g id="a_node8"><a xlink:href="classADFunctionDirichletBC.html" target="_top" xlink:title="Boundary condition of a Dirichlet type.">
<polygon fill="white" stroke="#666666" points="931,-369.5 788,-369.5 788,-350.5 931,-350.5 931,-369.5"/>
<text text-anchor="middle" x="859.5" y="-357.5" font-family="Courier,monospace" font-size="10.00">ADFunctionDirichletBC</text>
</a>
</g>
</g>
<!-- Node6&#45;&gt;Node8 -->
<g id="edge7" class="edge">
<title>Node6&#45;&gt;Node8</title>
<path fill="none" stroke="#63b8ff" d="M715.7,-356.24C739.44,-356.87 764.95,-357.54 787.76,-358.14"/>
<polygon fill="#63b8ff" stroke="#63b8ff" points="715.81,-352.74 705.72,-355.98 715.63,-359.74 715.81,-352.74"/>
</g>
<!-- Node9 -->
<g id="node9" class="node">
<title>Node9</title>
<g id="a_node9"><a xlink:href="classFunctorDirichletBC.html" target="_top" xlink:title="Dirichlet boundary condition with functor inputs.">
<polygon fill="white" stroke="#666666" points="922,-332.5 797,-332.5 797,-313.5 922,-313.5 922,-332.5"/>
<text text-anchor="middle" x="859.5" y="-320.5" font-family="Courier,monospace" font-size="10.00">FunctorDirichletBC</text>
</a>
</g>
</g>
<!-- Node6&#45;&gt;Node9 -->
<g id="edge8" class="edge">
<title>Node6&#45;&gt;Node9</title>
<path fill="none" stroke="#63b8ff" d="M715.56,-342.43C742.42,-338.78 771.57,-334.82 796.5,-331.43"/>
<polygon fill="#63b8ff" stroke="#63b8ff" points="715.15,-338.96 705.71,-343.77 716.09,-345.89 715.15,-338.96"/>
</g>
<!-- Node11 -->
<g id="node11" class="node">
<title>Node11</title>
<g id="a_node11"><a xlink:href="classADVectorFunctionDirichletBC.html" target="_top" xlink:title="Boundary condition of a Dirichlet type.">
<polygon fill="white" stroke="#666666" points="949,-295.5 770,-295.5 770,-276.5 949,-276.5 949,-295.5"/>
<text text-anchor="middle" x="859.5" y="-283.5" font-family="Courier,monospace" font-size="10.00">ADVectorFunctionDirichletBC</text>
</a>
</g>
</g>
<!-- Node10&#45;&gt;Node11 -->
<g id="edge10" class="edge">
<title>Node10&#45;&gt;Node11</title>
<path fill="none" stroke="#63b8ff" d="M715.61,-290.39C733.21,-289.85 751.78,-289.28 769.51,-288.73"/>
<polygon fill="#63b8ff" stroke="#63b8ff" points="715.61,-286.89 705.72,-290.69 715.83,-293.88 715.61,-286.89"/>
</g>
</g>
</svg>
        <g id="navigator" transform="translate(0 0)" fill="#404254">
                <rect fill="#f2f5e9" fill-opacity="0.5" stroke="#606060" stroke-width=".5" x="0" y="0" width="60" height="60"/>
                <use id="zoomplus" xlink:href="#zoomPlus" x="17" y="9" onmousedown="handleZoom(evt,'in')"/>
                <use id="zoomminus" xlink:href="#zoomMin" x="42" y="9" onmousedown="handleZoom(evt,'out')"/>
                <use id="reset" xlink:href="#resetDef" x="30" y="36" onmousedown="handleReset()"/>
                <g id="arrowUp" xlink:href="#dirArrow" transform="translate(30 24)" onmousedown="handlePan(0,-1)">
                  <use xlink:href="#rim" fill="#404040">
                        <set attributeName="fill" to="#808080" begin="arrowUp.mouseover" end="arrowUp.mouseout"/>
                  </use>
                  <path fill="none" stroke="white" stroke-width="1.5" d="M0,-3.0v7 M-2.5,-0.5L0,-3.0L2.5,-0.5"/>
                </g>
                <g id="arrowRight" xlink:href="#dirArrow" transform="rotate(90) translate(36 -43)" onmousedown="handlePan(1,0)">
                  <use xlink:href="#rim" fill="#404040">
                        <set attributeName="fill" to="#808080" begin="arrowRight.mouseover" end="arrowRight.mouseout"/>
                  </use>
                  <path fill="none" stroke="white" stroke-width="1.5" d="M0,-3.0v7 M-2.5,-0.5L0,-3.0L2.5,-0.5"/>
                </g>
                <g id="arrowDown" xlink:href="#dirArrow" transform="rotate(180) translate(-30 -48)" onmousedown="handlePan(0,1)">
                  <use xlink:href="#rim" fill="#404040">
                        <set attributeName="fill" to="#808080" begin="arrowDown.mouseover" end="arrowDown.mouseout"/>
                  </use>
                  <path fill="none" stroke="white" stroke-width="1.5" d="M0,-3.0v7 M-2.5,-0.5L0,-3.0L2.5,-0.5"/>
                </g>
                <g id="arrowLeft" xlink:href="#dirArrow" transform="rotate(270) translate(-36 17)" onmousedown="handlePan(-1,0)">
                  <use xlink:href="#rim" fill="#404040">
                        <set attributeName="fill" to="#808080" begin="arrowLeft.mouseover" end="arrowLeft.mouseout"/>
                  </use>
                  <path fill="none" stroke="white" stroke-width="1.5" d="M0,-3.0v7 M-2.5,-0.5L0,-3.0L2.5,-0.5"/>
                </g>
        </g>
        <svg viewBox="0 0 15 15" width="100%" height="30px" preserveAspectRatio="xMaxYMin meet">
         <g id="arrow_out" transform="scale(0.3 0.3)">
          <a xlink:href="classADNodalBCTempl__inherit__graph_org.svg" target="_base">
           <rect id="button" ry="5" rx="5" y="6" x="6" height="38" width="38"
                fill="#f2f5e9" fill-opacity="0.5" stroke="#606060" stroke-width="1.0"/>
           <path id="arrow"
             d="M 11.500037,31.436501 C 11.940474,20.09759 22.043105,11.32322 32.158766,21.979434 L 37.068811,17.246167 C 37.068811,17.246167 37.088388,32 37.088388,32 L 22.160133,31.978069 C 22.160133,31.978069 26.997745,27.140456 26.997745,27.140456 C 18.528582,18.264221 13.291696,25.230495 11.500037,31.436501 z"
             style="fill:#404040;"/>
          </a>
         </g>
        </svg>
</svg>
