<?xml version="1.0" encoding="UTF-8" standalone="no"?>
<!DOCTYPE svg PUBLIC "-//W3C//DTD SVG 1.1//EN"
 "http://www.w3.org/Graphics/SVG/1.1/DTD/svg11.dtd">
<!-- Generated by graphviz version 7.0.5 (20221223.1930)
 -->
<!-- Title: ScalarInitialCondition Pages: 1 -->
<svg width="927pt" height="249pt"
 viewBox="0.00 0.00 927.00 249.00" xmlns="http://www.w3.org/2000/svg" xmlns:xlink="http://www.w3.org/1999/xlink">
<g id="graph0" class="graph" transform="scale(1 1) rotate(0) translate(4 245)">
<title>ScalarInitialCondition</title>
<!-- Node1 -->
<g id="node1" class="node">
<title>Node1</title>
<g id="a_node1"><a xlink:title="InitialConditions are objects that set the initial value of variables.">
<polygon fill="#999999" stroke="#666666" points="764,-93 615,-93 615,-74 764,-74 764,-93"/>
<text text-anchor="middle" x="689.5" y="-81" font-family="Courier,monospace" font-size="10.00">ScalarInitialCondition</text>
</a>
</g>
</g>
<!-- Node13 -->
<g id="node13" class="node">
<title>Node13</title>
<g id="a_node13"><a xlink:href="classFunctionScalarIC.html" target="_top" xlink:title=" ">
<polygon fill="white" stroke="#666666" points="916,-149 803,-149 803,-130 916,-130 916,-149"/>
<text text-anchor="middle" x="859.5" y="-137" font-family="Courier,monospace" font-size="10.00">FunctionScalarIC</text>
</a>
</g>
</g>
<!-- Node1&#45;&gt;Node13 -->
<g id="edge12" class="edge">
<title>Node1&#45;&gt;Node13</title>
<path fill="none" stroke="#63b8ff" d="M730.4,-97.11C751.14,-104.15 776.91,-112.85 800,-120.5 808.92,-123.46 818.62,-126.62 827.51,-129.51"/>
<polygon fill="#63b8ff" stroke="#63b8ff" points="731.78,-93.88 721.18,-93.97 729.52,-100.51 731.78,-93.88"/>
</g>
<!-- Node14 -->
<g id="node14" class="node">
<title>Node14</title>
<g id="a_node14"><a xlink:href="classScalarComponentIC.html" target="_top" xlink:title="Initial condition to set different values on each component of scalar variable.">
<polygon fill="white" stroke="#666666" points="919,-112 800,-112 800,-93 919,-93 919,-112"/>
<text text-anchor="middle" x="859.5" y="-100" font-family="Courier,monospace" font-size="10.00">ScalarComponentIC</text>
</a>
</g>
</g>
<!-- Node1&#45;&gt;Node14 -->
<g id="edge13" class="edge">
<title>Node1&#45;&gt;Node14</title>
<path fill="none" stroke="#63b8ff" d="M775.59,-93.12C783.68,-94.04 791.75,-94.95 799.5,-95.83"/>
<polygon fill="#63b8ff" stroke="#63b8ff" points="776.02,-89.65 765.69,-92 775.23,-96.61 776.02,-89.65"/>
</g>
<!-- Node15 -->
<g id="node15" class="node">
<title>Node15</title>
<g id="a_node15"><a xlink:href="classScalarConstantIC.html" target="_top" xlink:title="ScalarConstantIC just returns a constant value.">
<polygon fill="white" stroke="#666666" points="916,-75 803,-75 803,-56 916,-56 916,-75"/>
<text text-anchor="middle" x="859.5" y="-63" font-family="Courier,monospace" font-size="10.00">ScalarConstantIC</text>
</a>
</g>
</g>
<!-- Node1&#45;&gt;Node15 -->
<g id="edge14" class="edge">
<title>Node1&#45;&gt;Node15</title>
<path fill="none" stroke="#63b8ff" d="M775.4,-74.4C784.61,-73.42 793.81,-72.43 802.55,-71.49"/>
<polygon fill="#63b8ff" stroke="#63b8ff" points="775.26,-70.9 765.69,-75.44 776.01,-77.86 775.26,-70.9"/>
</g>
<!-- Node16 -->
<g id="node16" class="node">
<title>Node16</title>
<g id="a_node16"><a xlink:href="classScalarSolutionIC.html" target="_top" xlink:title="Class for reading an initial condition from a solution user object.">
<polygon fill="white" stroke="#666666" points="916,-38 803,-38 803,-19 916,-19 916,-38"/>
<text text-anchor="middle" x="859.5" y="-26" font-family="Courier,monospace" font-size="10.00">ScalarSolutionIC</text>
</a>
</g>
</g>
<!-- Node1&#45;&gt;Node16 -->
<g id="edge15" class="edge">
<title>Node1&#45;&gt;Node16</title>
<path fill="none" stroke="#63b8ff" d="M729.92,-69.89C750.71,-62.78 776.69,-54.02 800,-46.5 808.29,-43.82 817.27,-41.02 825.65,-38.43"/>
<polygon fill="#63b8ff" stroke="#63b8ff" points="729,-66.5 720.68,-73.06 731.27,-73.13 729,-66.5"/>
</g>
<!-- Node2 -->
<g id="node2" class="node">
<title>Node2</title>
<g id="a_node2"><a xlink:href="classMooseObject.html" target="_top" xlink:title="Every object that can be built by the factory should be derived from this class.">
<polygon fill="white" stroke="#666666" points="531,-167 448,-167 448,-148 531,-148 531,-167"/>
<text text-anchor="middle" x="489.5" y="-155" font-family="Courier,monospace" font-size="10.00">MooseObject</text>
</a>
</g>
</g>
<!-- Node2&#45;&gt;Node1 -->
<g id="edge1" class="edge">
<title>Node2&#45;&gt;Node1</title>
<path fill="none" stroke="#63b8ff" d="M542.19,-148.71C554.43,-146 567.31,-142.61 579,-138.5 613.51,-126.35 651.08,-105.7 672.02,-93.45"/>
<polygon fill="#63b8ff" stroke="#63b8ff" points="541.74,-145.23 532.67,-150.7 543.17,-152.08 541.74,-145.23"/>
</g>
<!-- Node3 -->
<g id="node3" class="node">
<title>Node3</title>
<g id="a_node3"><a xlink:href="classMooseBase.html" target="_top" xlink:title="Base class for everything in MOOSE with a name and a type.">
<polygon fill="white" stroke="#666666" points="310,-241 239,-241 239,-222 310,-222 310,-241"/>
<text text-anchor="middle" x="274.5" y="-229" font-family="Courier,monospace" font-size="10.00">MooseBase</text>
</a>
</g>
</g>
<!-- Node3&#45;&gt;Node2 -->
<g id="edge2" class="edge">
<title>Node3&#45;&gt;Node2</title>
<path fill="none" stroke="#63b8ff" d="M321.65,-224.13C335.44,-221.39 350.48,-217.86 364,-213.5 403.03,-200.93 446.16,-179.77 470.03,-167.38"/>
<polygon fill="#63b8ff" stroke="#63b8ff" points="321.09,-220.67 311.91,-225.96 322.38,-227.55 321.09,-220.67"/>
</g>
<!-- Node4 -->
<g id="node4" class="node">
<title>Node4</title>
<g id="a_node4"><a xlink:href="classMooseBaseParameterInterface.html" target="_top" xlink:title="Every object that can be built by the factory should be derived from this class.">
<polygon fill="white" stroke="#666666" points="364,-204 185,-204 185,-185 364,-185 364,-204"/>
<text text-anchor="middle" x="274.5" y="-192" font-family="Courier,monospace" font-size="10.00">MooseBaseParameterInterface</text>
</a>
</g>
</g>
<!-- Node4&#45;&gt;Node2 -->
<g id="edge3" class="edge">
<title>Node4&#45;&gt;Node2</title>
<path fill="none" stroke="#63b8ff" d="M344.17,-182.57C378.28,-176.65 418.33,-169.69 447.58,-164.61"/>
<polygon fill="#63b8ff" stroke="#63b8ff" points="343.6,-179.12 334.35,-184.28 344.8,-186.01 343.6,-179.12"/>
</g>
<!-- Node5 -->
<g id="node5" class="node">
<title>Node5</title>
<g id="a_node5"><a xlink:href="classMooseBaseErrorInterface.html" target="_top" xlink:title="Interface that provides APIs to output errors/warnings/info messages.">
<polygon fill="white" stroke="#666666" points="352,-167 197,-167 197,-148 352,-148 352,-167"/>
<text text-anchor="middle" x="274.5" y="-155" font-family="Courier,monospace" font-size="10.00">MooseBaseErrorInterface</text>
</a>
</g>
</g>
<!-- Node5&#45;&gt;Node2 -->
<g id="edge4" class="edge">
<title>Node5&#45;&gt;Node2</title>
<path fill="none" stroke="#63b8ff" d="M363.85,-157.5C392.9,-157.5 423.82,-157.5 447.59,-157.5"/>
<polygon fill="#63b8ff" stroke="#63b8ff" points="363.91,-154 353.91,-157.5 363.91,-161 363.91,-154"/>
</g>
<!-- Node6 -->
<g id="node6" class="node">
<title>Node6</title>
<g id="a_node6"><a xlink:href="classConsoleStreamInterface.html" target="_top" xlink:title="An inteface for the _console for outputting to the Console object.">
<polygon fill="white" stroke="#666666" points="149,-167 0,-167 0,-148 149,-148 149,-167"/>
<text text-anchor="middle" x="74.5" y="-155" font-family="Courier,monospace" font-size="10.00">ConsoleStreamInterface</text>
</a>
</g>
</g>
<!-- Node6&#45;&gt;Node5 -->
<g id="edge5" class="edge">
<title>Node6&#45;&gt;Node5</title>
<path fill="none" stroke="#63b8ff" d="M160.62,-157.5C172.62,-157.5 184.9,-157.5 196.73,-157.5"/>
<polygon fill="#63b8ff" stroke="#63b8ff" points="160.74,-154 150.74,-157.5 160.74,-161 160.74,-154"/>
</g>
<!-- Node7 -->
<g id="node7" class="node">
<title>Node7</title>
<g id="a_node7"><a xlink:title=" ">
<polygon fill="white" stroke="#666666" points="352,-130 197,-130 197,-111 352,-111 352,-130"/>
<text text-anchor="middle" x="274.5" y="-118" font-family="Courier,monospace" font-size="10.00">libMesh::ParallelObject</text>
</a>
</g>
</g>
<!-- Node7&#45;&gt;Node2 -->
<g id="edge6" class="edge">
<title>Node7&#45;&gt;Node2</title>
<path fill="none" stroke="#63b8ff" d="M344.17,-132.43C378.28,-138.35 418.33,-145.31 447.58,-150.39"/>
<polygon fill="#63b8ff" stroke="#63b8ff" points="344.8,-128.99 334.35,-130.72 343.6,-135.88 344.8,-128.99"/>
</g>
<!-- Node8 -->
<g id="node8" class="node">
<title>Node8</title>
<g id="a_node8"><a xlink:href="classDataFileInterface.html" target="_top" xlink:title=" ">
<polygon fill="white" stroke="#666666" points="337,-92.5 212,-92.5 212,-62.5 337,-62.5 337,-92.5"/>
<text text-anchor="start" x="220" y="-80.5" font-family="Courier,monospace" font-size="10.00">DataFileInterface&lt;</text>
<text text-anchor="middle" x="274.5" y="-69.5" font-family="Courier,monospace" font-size="10.00"> MooseObject &gt;</text>
</a>
</g>
</g>
<!-- Node8&#45;&gt;Node2 -->
<g id="edge7" class="edge">
<title>Node8&#45;&gt;Node2</title>
<path fill="none" stroke="#63b8ff" d="M347.62,-93.49C353.32,-95.82 358.86,-98.47 364,-101.5 383.77,-113.14 379.92,-127.39 400,-138.5 414.44,-146.49 431.92,-151.12 447.52,-153.8"/>
<polygon fill="#63b8ff" stroke="#63b8ff" points="349.23,-90.35 338.64,-90.17 346.8,-96.92 349.23,-90.35"/>
</g>
<!-- Node9 -->
<g id="node9" class="node">
<title>Node9</title>
<g id="a_node9"><a xlink:href="classScalarCoupleable.html" target="_top" xlink:title="Interface for objects that needs scalar coupling capabilities.">
<polygon fill="white" stroke="#666666" points="546,-130 433,-130 433,-111 546,-111 546,-130"/>
<text text-anchor="middle" x="489.5" y="-118" font-family="Courier,monospace" font-size="10.00">ScalarCoupleable</text>
</a>
</g>
</g>
<!-- Node9&#45;&gt;Node1 -->
<g id="edge8" class="edge">
<title>Node9&#45;&gt;Node1</title>
<path fill="none" stroke="#63b8ff" d="M555.05,-108.44C580.94,-103.6 610.43,-98.09 635.08,-93.48"/>
<polygon fill="#63b8ff" stroke="#63b8ff" points="554.5,-104.98 545.31,-110.26 555.78,-111.86 554.5,-104.98"/>
</g>
<!-- Node10 -->
<g id="node10" class="node">
<title>Node10</title>
<g id="a_node10"><a xlink:href="classFunctionInterface.html" target="_top" xlink:title="Interface for objects that need to use functions.">
<polygon fill="white" stroke="#666666" points="549,-93 430,-93 430,-74 549,-74 549,-93"/>
<text text-anchor="middle" x="489.5" y="-81" font-family="Courier,monospace" font-size="10.00">FunctionInterface</text>
</a>
</g>
</g>
<!-- Node10&#45;&gt;Node1 -->
<g id="edge9" class="edge">
<title>Node10&#45;&gt;Node1</title>
<path fill="none" stroke="#63b8ff" d="M560.67,-83.5C578.2,-83.5 597.05,-83.5 614.75,-83.5"/>
<polygon fill="#63b8ff" stroke="#63b8ff" points="560.88,-80 550.88,-83.5 560.88,-87 560.88,-80"/>
</g>
<!-- Node11 -->
<g id="node11" class="node">
<title>Node11</title>
<g id="a_node11"><a xlink:href="classUserObjectInterface.html" target="_top" xlink:title="Interface for objects that need to use UserObjects.">
<polygon fill="white" stroke="#666666" points="555,-56 424,-56 424,-37 555,-37 555,-56"/>
<text text-anchor="middle" x="489.5" y="-44" font-family="Courier,monospace" font-size="10.00">UserObjectInterface</text>
</a>
</g>
</g>
<!-- Node11&#45;&gt;Node1 -->
<g id="edge10" class="edge">
<title>Node11&#45;&gt;Node1</title>
<path fill="none" stroke="#63b8ff" d="M555.05,-58.56C580.94,-63.4 610.43,-68.91 635.08,-73.52"/>
<polygon fill="#63b8ff" stroke="#63b8ff" points="555.78,-55.14 545.31,-56.74 554.5,-62.02 555.78,-55.14"/>
</g>
<!-- Node12 -->
<g id="node12" class="node">
<title>Node12</title>
<g id="a_node12"><a xlink:href="classDependencyResolverInterface.html" target="_top" xlink:title="Interface for sorting dependent vectors of objects.">
<polygon fill="white" stroke="#666666" points="579,-19 400,-19 400,0 579,0 579,-19"/>
<text text-anchor="middle" x="489.5" y="-7" font-family="Courier,monospace" font-size="10.00">DependencyResolverInterface</text>
</a>
</g>
</g>
<!-- Node12&#45;&gt;Node1 -->
<g id="edge11" class="edge">
<title>Node12&#45;&gt;Node1</title>
<path fill="none" stroke="#63b8ff" d="M561.44,-22.13C567.43,-23.74 573.36,-25.53 579,-27.5 613.87,-39.7 651.61,-60.99 672.43,-73.51"/>
<polygon fill="#63b8ff" stroke="#63b8ff" points="562.63,-18.82 552.08,-19.79 560.93,-25.61 562.63,-18.82"/>
</g>
</g>
</svg>
