<?xml version="1.0" encoding="UTF-8" standalone="no"?>
<!DOCTYPE svg PUBLIC "-//W3C//DTD SVG 1.1//EN"
 "http://www.w3.org/Graphics/SVG/1.1/DTD/svg11.dtd">
<!-- Generated by graphviz version 7.0.5 (20221223.1930)
 -->
<!-- Title: VTKOutput Pages: 1 -->
<svg width="1391pt" height="397pt"
 viewBox="0.00 0.00 1391.00 397.00" xmlns="http://www.w3.org/2000/svg" xmlns:xlink="http://www.w3.org/1999/xlink">
<g id="graph0" class="graph" transform="scale(1 1) rotate(0) translate(4 393)">
<title>VTKOutput</title>
<!-- Node1 -->
<g id="node1" class="node">
<title>Node1</title>
<g id="a_node1"><a xlink:title=" ">
<polygon fill="#999999" stroke="#666666" points="1383,-148 1312,-148 1312,-129 1383,-129 1383,-148"/>
<text text-anchor="middle" x="1347.5" y="-136" font-family="Courier,monospace" font-size="10.00">VTKOutput</text>
</a>
</g>
</g>
<!-- Node2 -->
<g id="node2" class="node">
<title>Node2</title>
<g id="a_node2"><a xlink:href="classOversampleOutput.html" target="_top" xlink:title="Based class for providing re&#45;positioning and oversampling support to output objects.">
<polygon fill="white" stroke="#666666" points="1276,-148 1163,-148 1163,-129 1276,-129 1276,-148"/>
<text text-anchor="middle" x="1219.5" y="-136" font-family="Courier,monospace" font-size="10.00">OversampleOutput</text>
</a>
</g>
</g>
<!-- Node2&#45;&gt;Node1 -->
<g id="edge1" class="edge">
<title>Node2&#45;&gt;Node1</title>
<path fill="none" stroke="#63b8ff" d="M1287.76,-138.5C1296.01,-138.5 1304.17,-138.5 1311.65,-138.5"/>
<polygon fill="#63b8ff" stroke="#63b8ff" points="1288.01,-135 1278.01,-138.5 1288.01,-142 1288.01,-135"/>
</g>
<!-- Node3 -->
<g id="node3" class="node">
<title>Node3</title>
<g id="a_node3"><a xlink:href="classAdvancedOutput.html" target="_top" xlink:title="Based class for output objects.">
<polygon fill="white" stroke="#666666" points="1127,-148 1026,-148 1026,-129 1127,-129 1127,-148"/>
<text text-anchor="middle" x="1076.5" y="-136" font-family="Courier,monospace" font-size="10.00">AdvancedOutput</text>
</a>
</g>
</g>
<!-- Node3&#45;&gt;Node2 -->
<g id="edge2" class="edge">
<title>Node3&#45;&gt;Node2</title>
<path fill="none" stroke="#63b8ff" d="M1138.66,-138.5C1146.59,-138.5 1154.67,-138.5 1162.51,-138.5"/>
<polygon fill="#63b8ff" stroke="#63b8ff" points="1138.72,-135 1128.72,-138.5 1138.72,-142 1138.72,-135"/>
</g>
<!-- Node4 -->
<g id="node4" class="node">
<title>Node4</title>
<g id="a_node4"><a xlink:href="classFileOutput.html" target="_top" xlink:title="An outputter with filename support.">
<polygon fill="white" stroke="#666666" points="990,-148 913,-148 913,-129 990,-129 990,-148"/>
<text text-anchor="middle" x="951.5" y="-136" font-family="Courier,monospace" font-size="10.00">FileOutput</text>
</a>
</g>
</g>
<!-- Node4&#45;&gt;Node3 -->
<g id="edge3" class="edge">
<title>Node4&#45;&gt;Node3</title>
<path fill="none" stroke="#63b8ff" d="M1001.72,-138.5C1009.62,-138.5 1017.8,-138.5 1025.71,-138.5"/>
<polygon fill="#63b8ff" stroke="#63b8ff" points="1001.92,-135 991.92,-138.5 1001.92,-142 1001.92,-135"/>
</g>
<!-- Node5 -->
<g id="node5" class="node">
<title>Node5</title>
<g id="a_node5"><a xlink:href="classPetscOutput.html" target="_top" xlink:title="Adds the ability to output on every nonlinear and/or linear residual.">
<polygon fill="white" stroke="#666666" points="877,-148 794,-148 794,-129 877,-129 877,-148"/>
<text text-anchor="middle" x="835.5" y="-136" font-family="Courier,monospace" font-size="10.00">PetscOutput</text>
</a>
</g>
</g>
<!-- Node5&#45;&gt;Node4 -->
<g id="edge4" class="edge">
<title>Node5&#45;&gt;Node4</title>
<path fill="none" stroke="#63b8ff" d="M888.61,-138.5C896.7,-138.5 904.92,-138.5 912.61,-138.5"/>
<polygon fill="#63b8ff" stroke="#63b8ff" points="888.85,-135 878.85,-138.5 888.85,-142 888.85,-135"/>
</g>
<!-- Node6 -->
<g id="node6" class="node">
<title>Node6</title>
<g id="a_node6"><a xlink:href="classOutput.html" target="_top" xlink:title="Based class for output objects.">
<polygon fill="white" stroke="#666666" points="716,-167 663,-167 663,-148 716,-148 716,-167"/>
<text text-anchor="middle" x="689.5" y="-155" font-family="Courier,monospace" font-size="10.00">Output</text>
</a>
</g>
</g>
<!-- Node6&#45;&gt;Node5 -->
<g id="edge5" class="edge">
<title>Node6&#45;&gt;Node5</title>
<path fill="none" stroke="#63b8ff" d="M727.54,-152.61C747.79,-149.94 772.93,-146.62 793.74,-143.88"/>
<polygon fill="#63b8ff" stroke="#63b8ff" points="727.2,-149.13 717.74,-153.91 728.12,-156.07 727.2,-149.13"/>
</g>
<!-- Node7 -->
<g id="node7" class="node">
<title>Node7</title>
<g id="a_node7"><a xlink:href="classMooseObject.html" target="_top" xlink:title="Every object that can be built by the factory should be derived from this class.">
<polygon fill="white" stroke="#666666" points="534,-315 451,-315 451,-296 534,-296 534,-315"/>
<text text-anchor="middle" x="492.5" y="-303" font-family="Courier,monospace" font-size="10.00">MooseObject</text>
</a>
</g>
</g>
<!-- Node7&#45;&gt;Node6 -->
<g id="edge6" class="edge">
<title>Node7&#45;&gt;Node6</title>
<path fill="none" stroke="#63b8ff" d="M545.62,-301.72C559.15,-299.05 573.22,-294.66 585,-287.5 635.53,-256.77 671.5,-191.89 683.83,-167.26"/>
<polygon fill="#63b8ff" stroke="#63b8ff" points="545.23,-298.24 535.94,-303.33 546.38,-305.14 545.23,-298.24"/>
</g>
<!-- Node8 -->
<g id="node8" class="node">
<title>Node8</title>
<g id="a_node8"><a xlink:href="classMooseBase.html" target="_top" xlink:title="Base class for everything in MOOSE with a name and a type.">
<polygon fill="white" stroke="#666666" points="310,-389 239,-389 239,-370 310,-370 310,-389"/>
<text text-anchor="middle" x="274.5" y="-377" font-family="Courier,monospace" font-size="10.00">MooseBase</text>
</a>
</g>
</g>
<!-- Node8&#45;&gt;Node7 -->
<g id="edge7" class="edge">
<title>Node8&#45;&gt;Node7</title>
<path fill="none" stroke="#63b8ff" d="M321.62,-372.05C335.41,-369.31 350.46,-365.8 364,-361.5 403.87,-348.85 448.08,-327.72 472.56,-315.35"/>
<polygon fill="#63b8ff" stroke="#63b8ff" points="321.06,-368.59 311.89,-373.89 322.36,-375.47 321.06,-368.59"/>
</g>
<!-- Node9 -->
<g id="node9" class="node">
<title>Node9</title>
<g id="a_node9"><a xlink:href="classMooseBaseParameterInterface.html" target="_top" xlink:title="Every object that can be built by the factory should be derived from this class.">
<polygon fill="white" stroke="#666666" points="364,-352 185,-352 185,-333 364,-333 364,-352"/>
<text text-anchor="middle" x="274.5" y="-340" font-family="Courier,monospace" font-size="10.00">MooseBaseParameterInterface</text>
</a>
</g>
</g>
<!-- Node9&#45;&gt;Node7 -->
<g id="edge8" class="edge">
<title>Node9&#45;&gt;Node7</title>
<path fill="none" stroke="#63b8ff" d="M344.77,-330.63C379.7,-324.65 420.85,-317.6 450.68,-312.49"/>
<polygon fill="#63b8ff" stroke="#63b8ff" points="344.43,-327.14 335.16,-332.28 345.61,-334.04 344.43,-327.14"/>
</g>
<!-- Node10 -->
<g id="node10" class="node">
<title>Node10</title>
<g id="a_node10"><a xlink:href="classMooseBaseErrorInterface.html" target="_top" xlink:title="Interface that provides APIs to output errors/warnings/info messages.">
<polygon fill="white" stroke="#666666" points="352,-315 197,-315 197,-296 352,-296 352,-315"/>
<text text-anchor="middle" x="274.5" y="-303" font-family="Courier,monospace" font-size="10.00">MooseBaseErrorInterface</text>
</a>
</g>
</g>
<!-- Node10&#45;&gt;Node7 -->
<g id="edge9" class="edge">
<title>Node10&#45;&gt;Node7</title>
<path fill="none" stroke="#63b8ff" d="M363.7,-305.5C393.87,-305.5 426.17,-305.5 450.75,-305.5"/>
<polygon fill="#63b8ff" stroke="#63b8ff" points="363.78,-302 353.78,-305.5 363.78,-309 363.78,-302"/>
</g>
<!-- Node11 -->
<g id="node11" class="node">
<title>Node11</title>
<g id="a_node11"><a xlink:href="classConsoleStreamInterface.html" target="_top" xlink:title="An inteface for the _console for outputting to the Console object.">
<polygon fill="white" stroke="#666666" points="149,-315 0,-315 0,-296 149,-296 149,-315"/>
<text text-anchor="middle" x="74.5" y="-303" font-family="Courier,monospace" font-size="10.00">ConsoleStreamInterface</text>
</a>
</g>
</g>
<!-- Node11&#45;&gt;Node10 -->
<g id="edge10" class="edge">
<title>Node11&#45;&gt;Node10</title>
<path fill="none" stroke="#63b8ff" d="M160.62,-305.5C172.62,-305.5 184.9,-305.5 196.73,-305.5"/>
<polygon fill="#63b8ff" stroke="#63b8ff" points="160.74,-302 150.74,-305.5 160.74,-309 160.74,-302"/>
</g>
<!-- Node12 -->
<g id="node12" class="node">
<title>Node12</title>
<g id="a_node12"><a xlink:title=" ">
<polygon fill="white" stroke="#666666" points="352,-278 197,-278 197,-259 352,-259 352,-278"/>
<text text-anchor="middle" x="274.5" y="-266" font-family="Courier,monospace" font-size="10.00">libMesh::ParallelObject</text>
</a>
</g>
</g>
<!-- Node12&#45;&gt;Node7 -->
<g id="edge11" class="edge">
<title>Node12&#45;&gt;Node7</title>
<path fill="none" stroke="#63b8ff" d="M344.77,-280.37C379.7,-286.35 420.85,-293.4 450.68,-298.51"/>
<polygon fill="#63b8ff" stroke="#63b8ff" points="345.61,-276.96 335.16,-278.72 344.43,-283.86 345.61,-276.96"/>
</g>
<!-- Node13 -->
<g id="node13" class="node">
<title>Node13</title>
<g id="a_node13"><a xlink:href="classDataFileInterface.html" target="_top" xlink:title=" ">
<polygon fill="white" stroke="#666666" points="337,-240.5 212,-240.5 212,-210.5 337,-210.5 337,-240.5"/>
<text text-anchor="start" x="220" y="-228.5" font-family="Courier,monospace" font-size="10.00">DataFileInterface&lt;</text>
<text text-anchor="middle" x="274.5" y="-217.5" font-family="Courier,monospace" font-size="10.00"> MooseObject &gt;</text>
</a>
</g>
</g>
<!-- Node13&#45;&gt;Node7 -->
<g id="edge12" class="edge">
<title>Node13&#45;&gt;Node7</title>
<path fill="none" stroke="#63b8ff" d="M347.62,-242.35C353.32,-244.73 358.86,-247.44 364,-250.5 383.71,-262.24 379.83,-276.57 400,-287.5 415.37,-295.83 434.06,-300.34 450.53,-302.76"/>
<polygon fill="#63b8ff" stroke="#63b8ff" points="349.23,-239.22 338.64,-238.94 346.74,-245.76 349.23,-239.22"/>
</g>
<!-- Node14 -->
<g id="node14" class="node">
<title>Node14</title>
<g id="a_node14"><a xlink:href="classRestartable.html" target="_top" xlink:title="A class for creating restricted objects.">
<polygon fill="white" stroke="#666666" points="534,-278 451,-278 451,-259 534,-259 534,-278"/>
<text text-anchor="middle" x="492.5" y="-266" font-family="Courier,monospace" font-size="10.00">Restartable</text>
</a>
</g>
</g>
<!-- Node14&#45;&gt;Node6 -->
<g id="edge13" class="edge">
<title>Node14&#45;&gt;Node6</title>
<path fill="none" stroke="#63b8ff" d="M545.25,-263.31C558.67,-260.64 572.78,-256.6 585,-250.5 627.14,-229.46 665.14,-186.51 680.85,-167.24"/>
<polygon fill="#63b8ff" stroke="#63b8ff" points="544.94,-259.81 535.69,-264.98 546.14,-266.7 544.94,-259.81"/>
</g>
<!-- Node15 -->
<g id="node15" class="node">
<title>Node15</title>
<g id="a_node15"><a xlink:href="classMeshChangedInterface.html" target="_top" xlink:title="Interface for notifications that the mesh has changed.">
<polygon fill="white" stroke="#666666" points="561,-241 424,-241 424,-222 561,-222 561,-241"/>
<text text-anchor="middle" x="492.5" y="-229" font-family="Courier,monospace" font-size="10.00">MeshChangedInterface</text>
</a>
</g>
</g>
<!-- Node15&#45;&gt;Node6 -->
<g id="edge14" class="edge">
<title>Node15&#45;&gt;Node6</title>
<path fill="none" stroke="#63b8ff" d="M568.25,-218.75C573.97,-217.18 579.62,-215.44 585,-213.5 618.45,-201.47 654.25,-179.93 673.74,-167.35"/>
<polygon fill="#63b8ff" stroke="#63b8ff" points="567.48,-215.33 558.65,-221.18 569.2,-222.12 567.48,-215.33"/>
</g>
<!-- Node16 -->
<g id="node16" class="node">
<title>Node16</title>
<g id="a_node16"><a xlink:href="classSetupInterface.html" target="_top" xlink:title=" ">
<polygon fill="white" stroke="#666666" points="543,-204 442,-204 442,-185 543,-185 543,-204"/>
<text text-anchor="middle" x="492.5" y="-192" font-family="Courier,monospace" font-size="10.00">SetupInterface</text>
</a>
</g>
</g>
<!-- Node16&#45;&gt;Node6 -->
<g id="edge15" class="edge">
<title>Node16&#45;&gt;Node6</title>
<path fill="none" stroke="#63b8ff" d="M554.47,-182.93C590.84,-176.03 635.13,-167.63 662.58,-162.42"/>
<polygon fill="#63b8ff" stroke="#63b8ff" points="554.12,-179.43 544.95,-184.74 555.43,-186.31 554.12,-179.43"/>
</g>
<!-- Node17 -->
<g id="node17" class="node">
<title>Node17</title>
<g id="a_node17"><a xlink:href="classFunctionInterface.html" target="_top" xlink:title="Interface for objects that need to use functions.">
<polygon fill="white" stroke="#666666" points="552,-167 433,-167 433,-148 552,-148 552,-167"/>
<text text-anchor="middle" x="492.5" y="-155" font-family="Courier,monospace" font-size="10.00">FunctionInterface</text>
</a>
</g>
</g>
<!-- Node17&#45;&gt;Node6 -->
<g id="edge16" class="edge">
<title>Node17&#45;&gt;Node6</title>
<path fill="none" stroke="#63b8ff" d="M563.72,-157.5C598.13,-157.5 637.46,-157.5 662.61,-157.5"/>
<polygon fill="#63b8ff" stroke="#63b8ff" points="563.78,-154 553.78,-157.5 563.78,-161 563.78,-154"/>
</g>
<!-- Node18 -->
<g id="node18" class="node">
<title>Node18</title>
<g id="a_node18"><a xlink:href="classPostprocessorInterface.html" target="_top" xlink:title="Interface class for classes which interact with Postprocessors.">
<polygon fill="white" stroke="#666666" points="567,-130 418,-130 418,-111 567,-111 567,-130"/>
<text text-anchor="middle" x="492.5" y="-118" font-family="Courier,monospace" font-size="10.00">PostprocessorInterface</text>
</a>
</g>
</g>
<!-- Node18&#45;&gt;Node6 -->
<g id="edge17" class="edge">
<title>Node18&#45;&gt;Node6</title>
<path fill="none" stroke="#63b8ff" d="M556.92,-132.53C592.88,-139.36 635.91,-147.52 662.74,-152.61"/>
<polygon fill="#63b8ff" stroke="#63b8ff" points="557.98,-129.17 547.5,-130.75 556.67,-136.05 557.98,-129.17"/>
</g>
<!-- Node19 -->
<g id="node19" class="node">
<title>Node19</title>
<g id="a_node19"><a xlink:href="classVectorPostprocessorInterface.html" target="_top" xlink:title=" ">
<polygon fill="white" stroke="#666666" points="585,-93 400,-93 400,-74 585,-74 585,-93"/>
<text text-anchor="middle" x="492.5" y="-81" font-family="Courier,monospace" font-size="10.00">VectorPostprocessorInterface</text>
</a>
</g>
</g>
<!-- Node19&#45;&gt;Node6 -->
<g id="edge18" class="edge">
<title>Node19&#45;&gt;Node6</title>
<path fill="none" stroke="#63b8ff" d="M577.12,-97.61C579.82,-98.81 582.46,-100.1 585,-101.5 605.38,-112.72 601,-127.61 621,-139.5 633.61,-147 649.38,-151.43 662.51,-154.02"/>
<polygon fill="#63b8ff" stroke="#63b8ff" points="578.41,-94.36 567.82,-94.03 575.89,-100.89 578.41,-94.36"/>
</g>
<!-- Node20 -->
<g id="node20" class="node">
<title>Node20</title>
<g id="a_node20"><a xlink:href="classReporterInterface.html" target="_top" xlink:title="Interface to allow object to consume Reporter values.">
<polygon fill="white" stroke="#666666" points="552,-56 433,-56 433,-37 552,-37 552,-56"/>
<text text-anchor="middle" x="492.5" y="-44" font-family="Courier,monospace" font-size="10.00">ReporterInterface</text>
</a>
</g>
</g>
<!-- Node20&#45;&gt;Node6 -->
<g id="edge19" class="edge">
<title>Node20&#45;&gt;Node6</title>
<path fill="none" stroke="#63b8ff" d="M563.05,-52.94C570.95,-55.71 578.49,-59.46 585,-64.5 614.24,-87.13 592.53,-115.91 621,-139.5 632.67,-149.17 649.04,-153.69 662.73,-155.78"/>
<polygon fill="#63b8ff" stroke="#63b8ff" points="564.15,-49.61 553.57,-50.16 562.18,-56.33 564.15,-49.61"/>
</g>
<!-- Node21 -->
<g id="node21" class="node">
<title>Node21</title>
<g id="a_node21"><a xlink:href="classPerfGraphInterface.html" target="_top" xlink:title="Interface for objects interacting with the PerfGraph.">
<polygon fill="white" stroke="#666666" points="555,-19 430,-19 430,0 555,0 555,-19"/>
<text text-anchor="middle" x="492.5" y="-7" font-family="Courier,monospace" font-size="10.00">PerfGraphInterface</text>
</a>
</g>
</g>
<!-- Node21&#45;&gt;Node6 -->
<g id="edge20" class="edge">
<title>Node21&#45;&gt;Node6</title>
<path fill="none" stroke="#63b8ff" d="M565.8,-15.91C572.81,-18.74 579.39,-22.51 585,-27.5 624.07,-62.25 583.11,-103.47 621,-139.5 632.07,-150.03 648.6,-154.56 662.53,-156.44"/>
<polygon fill="#63b8ff" stroke="#63b8ff" points="567.31,-12.72 556.72,-12.88 565.1,-19.36 567.31,-12.72"/>
</g>
<!-- Node22 -->
<g id="node22" class="node">
<title>Node22</title>
<g id="a_node22"><a xlink:href="classPetscOutputInterface.html" target="_top" xlink:title=" ">
<polygon fill="white" stroke="#666666" points="758,-130 621,-130 621,-111 758,-111 758,-130"/>
<text text-anchor="middle" x="689.5" y="-118" font-family="Courier,monospace" font-size="10.00">PetscOutputInterface</text>
</a>
</g>
</g>
<!-- Node22&#45;&gt;Node5 -->
<g id="edge21" class="edge">
<title>Node22&#45;&gt;Node5</title>
<path fill="none" stroke="#63b8ff" d="M769.64,-130.39C777.94,-131.43 786.12,-132.45 793.71,-133.4"/>
<polygon fill="#63b8ff" stroke="#63b8ff" points="770.14,-126.93 759.79,-129.16 769.27,-133.87 770.14,-126.93"/>
</g>
</g>
</svg>
