<?xml version="1.0" encoding="UTF-8" standalone="no"?>
<!DOCTYPE svg PUBLIC "-//W3C//DTD SVG 1.1//EN"
 "http://www.w3.org/Graphics/SVG/1.1/DTD/svg11.dtd">
<!-- Generated by graphviz version 7.0.5 (20221223.1930)
 -->
<!-- Title: PiecewiseMultiInterpolation Pages: 1 -->
<svg width="1058pt" height="409pt"
 viewBox="0.00 0.00 1058.00 408.50" xmlns="http://www.w3.org/2000/svg" xmlns:xlink="http://www.w3.org/1999/xlink">
<g id="graph0" class="graph" transform="scale(1 1) rotate(0) translate(4 404.5)">
<title>PiecewiseMultiInterpolation</title>
<!-- Node1 -->
<g id="node1" class="node">
<title>Node1</title>
<g id="a_node1"><a xlink:title="Uses GriddedData to define data on a grid, and does linear interpolation on that data to provide func...">
<polygon fill="#999999" stroke="#666666" points="865,-178.5 686,-178.5 686,-159.5 865,-159.5 865,-178.5"/>
<text text-anchor="middle" x="775.5" y="-166.5" font-family="Courier,monospace" font-size="10.00">PiecewiseMultiInterpolation</text>
</a>
</g>
</g>
<!-- Node20 -->
<g id="node20" class="node">
<title>Node20</title>
<g id="a_node20"><a xlink:href="classPiecewiseMulticonstant.html" target="_top" xlink:title="Uses GriddedData to define data on a grid, and does linear interpolation on that data to provide func...">
<polygon fill="white" stroke="#666666" points="1050,-197.5 901,-197.5 901,-178.5 1050,-178.5 1050,-197.5"/>
<text text-anchor="middle" x="975.5" y="-185.5" font-family="Courier,monospace" font-size="10.00">PiecewiseMulticonstant</text>
</a>
</g>
</g>
<!-- Node1&#45;&gt;Node20 -->
<g id="edge19" class="edge">
<title>Node1&#45;&gt;Node20</title>
<path fill="none" stroke="#63b8ff" d="M876.76,-178.62C884.84,-179.4 892.9,-180.17 900.73,-180.92"/>
<polygon fill="#63b8ff" stroke="#63b8ff" points="877.16,-175.14 866.87,-177.67 876.49,-182.11 877.16,-175.14"/>
</g>
<!-- Node21 -->
<g id="node21" class="node">
<title>Node21</title>
<g id="a_node21"><a xlink:href="classPiecewiseMultilinear.html" target="_top" xlink:title="Uses GriddedData to define data on a grid, and does linear interpolation on that data to provide func...">
<polygon fill="white" stroke="#666666" points="1044,-160.5 907,-160.5 907,-141.5 1044,-141.5 1044,-160.5"/>
<text text-anchor="middle" x="975.5" y="-148.5" font-family="Courier,monospace" font-size="10.00">PiecewiseMultilinear</text>
</a>
</g>
</g>
<!-- Node1&#45;&gt;Node21 -->
<g id="edge20" class="edge">
<title>Node1&#45;&gt;Node21</title>
<path fill="none" stroke="#63b8ff" d="M876.79,-159.88C886.92,-158.96 897.03,-158.04 906.7,-157.16"/>
<polygon fill="#63b8ff" stroke="#63b8ff" points="876.51,-156.39 866.87,-160.78 877.15,-163.36 876.51,-156.39"/>
</g>
<!-- Node2 -->
<g id="node2" class="node">
<title>Node2</title>
<g id="a_node2"><a xlink:href="classFunction.html" target="_top" xlink:title="Base class for function objects.">
<polygon fill="white" stroke="#666666" points="650,-178.5 585,-178.5 585,-159.5 650,-159.5 650,-178.5"/>
<text text-anchor="middle" x="617.5" y="-166.5" font-family="Courier,monospace" font-size="10.00">Function</text>
</a>
</g>
</g>
<!-- Node2&#45;&gt;Node1 -->
<g id="edge1" class="edge">
<title>Node2&#45;&gt;Node1</title>
<path fill="none" stroke="#63b8ff" d="M661.75,-169C669.27,-169 677.32,-169 685.54,-169"/>
<polygon fill="#63b8ff" stroke="#63b8ff" points="661.96,-165.5 651.96,-169 661.96,-172.5 661.96,-165.5"/>
</g>
<!-- Node3 -->
<g id="node3" class="node">
<title>Node3</title>
<g id="a_node3"><a xlink:href="classMooseObject.html" target="_top" xlink:title="Every object that can be built by the factory should be derived from this class.">
<polygon fill="white" stroke="#666666" points="516,-326.5 433,-326.5 433,-307.5 516,-307.5 516,-326.5"/>
<text text-anchor="middle" x="474.5" y="-314.5" font-family="Courier,monospace" font-size="10.00">MooseObject</text>
</a>
</g>
</g>
<!-- Node3&#45;&gt;Node2 -->
<g id="edge2" class="edge">
<title>Node3&#45;&gt;Node2</title>
<path fill="none" stroke="#63b8ff" d="M527.44,-310.22C535.19,-307.59 542.68,-303.97 549,-299 589.79,-266.95 608.43,-203.43 614.33,-178.94"/>
<polygon fill="#63b8ff" stroke="#63b8ff" points="526.54,-306.84 517.86,-312.91 528.44,-313.57 526.54,-306.84"/>
</g>
<!-- Node4 -->
<g id="node4" class="node">
<title>Node4</title>
<g id="a_node4"><a xlink:href="classMooseBase.html" target="_top" xlink:title="Base class for everything in MOOSE with a name and a type.">
<polygon fill="white" stroke="#666666" points="310,-400.5 239,-400.5 239,-381.5 310,-381.5 310,-400.5"/>
<text text-anchor="middle" x="274.5" y="-388.5" font-family="Courier,monospace" font-size="10.00">MooseBase</text>
</a>
</g>
</g>
<!-- Node4&#45;&gt;Node3 -->
<g id="edge3" class="edge">
<title>Node4&#45;&gt;Node3</title>
<path fill="none" stroke="#63b8ff" d="M321.43,-384.12C335.32,-381.38 350.47,-377.73 364,-373 398.87,-360.8 436.61,-339.51 457.43,-326.99"/>
<polygon fill="#63b8ff" stroke="#63b8ff" points="320.81,-380.67 311.61,-385.93 322.08,-387.56 320.81,-380.67"/>
</g>
<!-- Node5 -->
<g id="node5" class="node">
<title>Node5</title>
<g id="a_node5"><a xlink:href="classMooseBaseParameterInterface.html" target="_top" xlink:title="Every object that can be built by the factory should be derived from this class.">
<polygon fill="white" stroke="#666666" points="364,-363.5 185,-363.5 185,-344.5 364,-344.5 364,-363.5"/>
<text text-anchor="middle" x="274.5" y="-351.5" font-family="Courier,monospace" font-size="10.00">MooseBaseParameterInterface</text>
</a>
</g>
</g>
<!-- Node5&#45;&gt;Node3 -->
<g id="edge4" class="edge">
<title>Node5&#45;&gt;Node3</title>
<path fill="none" stroke="#63b8ff" d="M339.81,-341.98C370.33,-336.28 405.88,-329.64 432.65,-324.63"/>
<polygon fill="#63b8ff" stroke="#63b8ff" points="339.5,-338.48 330.31,-343.76 340.78,-345.36 339.5,-338.48"/>
</g>
<!-- Node6 -->
<g id="node6" class="node">
<title>Node6</title>
<g id="a_node6"><a xlink:href="classMooseBaseErrorInterface.html" target="_top" xlink:title="Interface that provides APIs to output errors/warnings/info messages.">
<polygon fill="white" stroke="#666666" points="352,-326.5 197,-326.5 197,-307.5 352,-307.5 352,-326.5"/>
<text text-anchor="middle" x="274.5" y="-314.5" font-family="Courier,monospace" font-size="10.00">MooseBaseErrorInterface</text>
</a>
</g>
</g>
<!-- Node6&#45;&gt;Node3 -->
<g id="edge5" class="edge">
<title>Node6&#45;&gt;Node3</title>
<path fill="none" stroke="#63b8ff" d="M363.68,-317C387.75,-317 412.68,-317 432.69,-317"/>
<polygon fill="#63b8ff" stroke="#63b8ff" points="363.85,-313.5 353.85,-317 363.85,-320.5 363.85,-313.5"/>
</g>
<!-- Node7 -->
<g id="node7" class="node">
<title>Node7</title>
<g id="a_node7"><a xlink:href="classConsoleStreamInterface.html" target="_top" xlink:title="An inteface for the _console for outputting to the Console object.">
<polygon fill="white" stroke="#666666" points="149,-326.5 0,-326.5 0,-307.5 149,-307.5 149,-326.5"/>
<text text-anchor="middle" x="74.5" y="-314.5" font-family="Courier,monospace" font-size="10.00">ConsoleStreamInterface</text>
</a>
</g>
</g>
<!-- Node7&#45;&gt;Node6 -->
<g id="edge6" class="edge">
<title>Node7&#45;&gt;Node6</title>
<path fill="none" stroke="#63b8ff" d="M160.62,-317C172.62,-317 184.9,-317 196.73,-317"/>
<polygon fill="#63b8ff" stroke="#63b8ff" points="160.74,-313.5 150.74,-317 160.74,-320.5 160.74,-313.5"/>
</g>
<!-- Node8 -->
<g id="node8" class="node">
<title>Node8</title>
<g id="a_node8"><a xlink:title=" ">
<polygon fill="white" stroke="#666666" points="352,-289.5 197,-289.5 197,-270.5 352,-270.5 352,-289.5"/>
<text text-anchor="middle" x="274.5" y="-277.5" font-family="Courier,monospace" font-size="10.00">libMesh::ParallelObject</text>
</a>
</g>
</g>
<!-- Node8&#45;&gt;Node3 -->
<g id="edge7" class="edge">
<title>Node8&#45;&gt;Node3</title>
<path fill="none" stroke="#63b8ff" d="M339.81,-292.02C370.33,-297.72 405.88,-304.36 432.65,-309.37"/>
<polygon fill="#63b8ff" stroke="#63b8ff" points="340.78,-288.64 330.31,-290.24 339.5,-295.52 340.78,-288.64"/>
</g>
<!-- Node9 -->
<g id="node9" class="node">
<title>Node9</title>
<g id="a_node9"><a xlink:href="classDataFileInterface.html" target="_top" xlink:title=" ">
<polygon fill="white" stroke="#666666" points="337,-252 212,-252 212,-222 337,-222 337,-252"/>
<text text-anchor="start" x="220" y="-240" font-family="Courier,monospace" font-size="10.00">DataFileInterface&lt;</text>
<text text-anchor="middle" x="274.5" y="-229" font-family="Courier,monospace" font-size="10.00"> MooseObject &gt;</text>
</a>
</g>
</g>
<!-- Node9&#45;&gt;Node3 -->
<g id="edge8" class="edge">
<title>Node9&#45;&gt;Node3</title>
<path fill="none" stroke="#63b8ff" d="M347.62,-253.85C353.32,-256.23 358.86,-258.94 364,-262 383.71,-273.74 380.08,-287.61 400,-299 409.92,-304.68 421.59,-308.57 432.67,-311.24"/>
<polygon fill="#63b8ff" stroke="#63b8ff" points="349.23,-250.72 338.64,-250.44 346.74,-257.26 349.23,-250.72"/>
</g>
<!-- Node10 -->
<g id="node10" class="node">
<title>Node10</title>
<g id="a_node10"><a xlink:href="classSetupInterface.html" target="_top" xlink:title=" ">
<polygon fill="white" stroke="#666666" points="525,-289.5 424,-289.5 424,-270.5 525,-270.5 525,-289.5"/>
<text text-anchor="middle" x="474.5" y="-277.5" font-family="Courier,monospace" font-size="10.00">SetupInterface</text>
</a>
</g>
</g>
<!-- Node10&#45;&gt;Node2 -->
<g id="edge9" class="edge">
<title>Node10&#45;&gt;Node2</title>
<path fill="none" stroke="#63b8ff" d="M536.14,-268.9C540.67,-266.96 545.01,-264.68 549,-262 581.13,-240.42 603.33,-198.14 612.19,-178.92"/>
<polygon fill="#63b8ff" stroke="#63b8ff" points="534.97,-265.6 526.78,-272.32 537.37,-272.18 534.97,-265.6"/>
</g>
<!-- Node11 -->
<g id="node11" class="node">
<title>Node11</title>
<g id="a_node11"><a xlink:href="classTransientInterface.html" target="_top" xlink:title="Interface for objects that needs transient capabilities.">
<polygon fill="white" stroke="#666666" points="537,-252.5 412,-252.5 412,-233.5 537,-233.5 537,-252.5"/>
<text text-anchor="middle" x="474.5" y="-240.5" font-family="Courier,monospace" font-size="10.00">TransientInterface</text>
</a>
</g>
</g>
<!-- Node11&#45;&gt;Node2 -->
<g id="edge10" class="edge">
<title>Node11&#45;&gt;Node2</title>
<path fill="none" stroke="#63b8ff" d="M539.43,-229.26C542.72,-227.96 545.93,-226.55 549,-225 572.67,-213.09 595.34,-191.5 607.44,-178.89"/>
<polygon fill="#63b8ff" stroke="#63b8ff" points="538.43,-225.9 530.16,-232.52 540.76,-232.51 538.43,-225.9"/>
</g>
<!-- Node12 -->
<g id="node12" class="node">
<title>Node12</title>
<g id="a_node12"><a xlink:href="classPostprocessorInterface.html" target="_top" xlink:title="Interface class for classes which interact with Postprocessors.">
<polygon fill="white" stroke="#666666" points="549,-215.5 400,-215.5 400,-196.5 549,-196.5 549,-215.5"/>
<text text-anchor="middle" x="474.5" y="-203.5" font-family="Courier,monospace" font-size="10.00">PostprocessorInterface</text>
</a>
</g>
</g>
<!-- Node12&#45;&gt;Node2 -->
<g id="edge11" class="edge">
<title>Node12&#45;&gt;Node2</title>
<path fill="none" stroke="#63b8ff" d="M528.09,-193.35C535.13,-191.59 542.25,-189.78 549,-188 560.66,-184.93 573.39,-181.4 584.63,-178.21"/>
<polygon fill="#63b8ff" stroke="#63b8ff" points="527.49,-189.9 518.62,-195.7 529.17,-196.69 527.49,-189.9"/>
</g>
<!-- Node13 -->
<g id="node13" class="node">
<title>Node13</title>
<g id="a_node13"><a xlink:href="classUserObjectInterface.html" target="_top" xlink:title="Interface for objects that need to use UserObjects.">
<polygon fill="white" stroke="#666666" points="540,-178.5 409,-178.5 409,-159.5 540,-159.5 540,-178.5"/>
<text text-anchor="middle" x="474.5" y="-166.5" font-family="Courier,monospace" font-size="10.00">UserObjectInterface</text>
</a>
</g>
</g>
<!-- Node13&#45;&gt;Node2 -->
<g id="edge12" class="edge">
<title>Node13&#45;&gt;Node2</title>
<path fill="none" stroke="#63b8ff" d="M551.5,-169C563.25,-169 574.78,-169 584.8,-169"/>
<polygon fill="#63b8ff" stroke="#63b8ff" points="551.74,-165.5 541.74,-169 551.74,-172.5 551.74,-165.5"/>
</g>
<!-- Node14 -->
<g id="node14" class="node">
<title>Node14</title>
<g id="a_node14"><a xlink:href="classRestartable.html" target="_top" xlink:title="A class for creating restricted objects.">
<polygon fill="white" stroke="#666666" points="516,-141.5 433,-141.5 433,-122.5 516,-122.5 516,-141.5"/>
<text text-anchor="middle" x="474.5" y="-129.5" font-family="Courier,monospace" font-size="10.00">Restartable</text>
</a>
</g>
</g>
<!-- Node14&#45;&gt;Node2 -->
<g id="edge13" class="edge">
<title>Node14&#45;&gt;Node2</title>
<path fill="none" stroke="#63b8ff" d="M525.13,-144.78C533.12,-146.85 541.29,-148.98 549,-151 560.61,-154.05 573.34,-157.43 584.58,-160.43"/>
<polygon fill="#63b8ff" stroke="#63b8ff" points="526.07,-141.4 515.51,-142.28 524.31,-148.18 526.07,-141.4"/>
</g>
<!-- Node15 -->
<g id="node15" class="node">
<title>Node15</title>
<g id="a_node15"><a xlink:href="classMeshChangedInterface.html" target="_top" xlink:title="Interface for notifications that the mesh has changed.">
<polygon fill="white" stroke="#666666" points="543,-104.5 406,-104.5 406,-85.5 543,-85.5 543,-104.5"/>
<text text-anchor="middle" x="474.5" y="-92.5" font-family="Courier,monospace" font-size="10.00">MeshChangedInterface</text>
</a>
</g>
</g>
<!-- Node15&#45;&gt;Node2 -->
<g id="edge14" class="edge">
<title>Node15&#45;&gt;Node2</title>
<path fill="none" stroke="#63b8ff" d="M536.68,-108.61C540.93,-110.23 545.08,-112.02 549,-114 572.47,-125.87 595.22,-147.01 607.38,-159.34"/>
<polygon fill="#63b8ff" stroke="#63b8ff" points="538.01,-105.37 527.41,-105.45 535.75,-111.99 538.01,-105.37"/>
</g>
<!-- Node16 -->
<g id="node16" class="node">
<title>Node16</title>
<g id="a_node16"><a xlink:href="classScalarCoupleable.html" target="_top" xlink:title="Interface for objects that needs scalar coupling capabilities.">
<polygon fill="white" stroke="#666666" points="531,-67.5 418,-67.5 418,-48.5 531,-48.5 531,-67.5"/>
<text text-anchor="middle" x="474.5" y="-55.5" font-family="Courier,monospace" font-size="10.00">ScalarCoupleable</text>
</a>
</g>
</g>
<!-- Node16&#45;&gt;Node2 -->
<g id="edge15" class="edge">
<title>Node16&#45;&gt;Node2</title>
<path fill="none" stroke="#63b8ff" d="M541.49,-72.55C544.1,-73.9 546.61,-75.38 549,-77 580.82,-98.55 603.18,-140.27 612.14,-159.22"/>
<polygon fill="#63b8ff" stroke="#63b8ff" points="543.03,-69.4 532.47,-68.54 540.19,-75.8 543.03,-69.4"/>
</g>
<!-- Node17 -->
<g id="node17" class="node">
<title>Node17</title>
<g id="a_node17"><a xlink:href="classMoose_1_1FunctorBase.html" target="_top" xlink:title=" ">
<polygon fill="white" stroke="#666666" points="537,-30 412,-30 412,0 537,0 537,-30"/>
<text text-anchor="start" x="420" y="-18" font-family="Courier,monospace" font-size="10.00">Moose::FunctorBase</text>
<text text-anchor="middle" x="474.5" y="-7" font-family="Courier,monospace" font-size="10.00">&lt; Real &gt;</text>
</a>
</g>
</g>
<!-- Node17&#45;&gt;Node2 -->
<g id="edge16" class="edge">
<title>Node17&#45;&gt;Node2</title>
<path fill="none" stroke="#63b8ff" d="M545.61,-36.32C546.78,-37.18 547.91,-38.07 549,-39 588.55,-72.57 607.93,-135.19 614.17,-159.24"/>
<polygon fill="#63b8ff" stroke="#63b8ff" points="547.77,-33.55 537.44,-31.19 544.05,-39.47 547.77,-33.55"/>
</g>
<!-- Node18 -->
<g id="node18" class="node">
<title>Node18</title>
<g id="a_node18"><a xlink:href="classMoose_1_1FunctorAbstract.html" target="_top" xlink:title="Abstract base class that can be used to hold collections of functors.">
<polygon fill="white" stroke="#666666" points="349,-24.5 200,-24.5 200,-5.5 349,-5.5 349,-24.5"/>
<text text-anchor="middle" x="274.5" y="-12.5" font-family="Courier,monospace" font-size="10.00">Moose::FunctorAbstract</text>
</a>
</g>
</g>
<!-- Node18&#45;&gt;Node17 -->
<g id="edge17" class="edge">
<title>Node18&#45;&gt;Node17</title>
<path fill="none" stroke="#63b8ff" d="M360.44,-15C377.66,-15 395.46,-15 411.7,-15"/>
<polygon fill="#63b8ff" stroke="#63b8ff" points="360.74,-11.5 350.74,-15 360.74,-18.5 360.74,-11.5"/>
</g>
<!-- Node19 -->
<g id="node19" class="node">
<title>Node19</title>
<g id="a_node19"><a xlink:href="classFaceArgInterface.html" target="_top" xlink:title="A base class interface for both producers and consumers of functor face arguments,...">
<polygon fill="white" stroke="#666666" points="131,-24.5 18,-24.5 18,-5.5 131,-5.5 131,-24.5"/>
<text text-anchor="middle" x="74.5" y="-12.5" font-family="Courier,monospace" font-size="10.00">FaceArgInterface</text>
</a>
</g>
</g>
<!-- Node19&#45;&gt;Node18 -->
<g id="edge18" class="edge">
<title>Node19&#45;&gt;Node18</title>
<path fill="none" stroke="#63b8ff" d="M142.88,-15C161.13,-15 180.98,-15 199.57,-15"/>
<polygon fill="#63b8ff" stroke="#63b8ff" points="142.96,-11.5 132.96,-15 142.96,-18.5 142.96,-11.5"/>
</g>
</g>
</svg>
