<?xml version="1.0" encoding="UTF-8" standalone="no"?>
<!DOCTYPE svg PUBLIC "-//W3C//DTD SVG 1.1//EN"
 "http://www.w3.org/Graphics/SVG/1.1/DTD/svg11.dtd">
<!-- Generated by graphviz version 7.0.5 (20221223.1930)
 -->
<!-- Title: FVBodyForce Pages: 1 -->
<svg width="1363pt" height="546pt"
 viewBox="0.00 0.00 1363.00 546.00" xmlns="http://www.w3.org/2000/svg" xmlns:xlink="http://www.w3.org/1999/xlink">
<g id="graph0" class="graph" transform="scale(1 1) rotate(0) translate(4 542)">
<title>FVBodyForce</title>
<!-- Node1 -->
<g id="node1" class="node">
<title>Node1</title>
<g id="a_node1"><a xlink:title="This kernel implements a generic functional body force term: $ &#45; c \cdof f$.">
<polygon fill="#999999" stroke="#666666" points="1355,-86 1272,-86 1272,-67 1355,-67 1355,-86"/>
<text text-anchor="middle" x="1313.5" y="-74" font-family="Courier,monospace" font-size="10.00">FVBodyForce</text>
</a>
</g>
</g>
<!-- Node2 -->
<g id="node2" class="node">
<title>Node2</title>
<g id="a_node2"><a xlink:href="classFVElementalKernel.html" target="_top" xlink:title="FVElemental is used for calculating residual contributions from volume integral terms of a PDE where ...">
<polygon fill="white" stroke="#666666" points="1236,-86 1117,-86 1117,-67 1236,-67 1236,-86"/>
<text text-anchor="middle" x="1176.5" y="-74" font-family="Courier,monospace" font-size="10.00">FVElementalKernel</text>
</a>
</g>
</g>
<!-- Node2&#45;&gt;Node1 -->
<g id="edge1" class="edge">
<title>Node2&#45;&gt;Node1</title>
<path fill="none" stroke="#63b8ff" d="M1247.57,-76.5C1255.84,-76.5 1264.05,-76.5 1271.71,-76.5"/>
<polygon fill="#63b8ff" stroke="#63b8ff" points="1247.83,-73 1237.83,-76.5 1247.83,-80 1247.83,-73"/>
</g>
<!-- Node3 -->
<g id="node3" class="node">
<title>Node3</title>
<g id="a_node3"><a xlink:href="classFVKernel.html" target="_top" xlink:title="FVKernel is a base class for all finite volume method kernels.">
<polygon fill="white" stroke="#666666" points="1006,-163 941,-163 941,-144 1006,-144 1006,-163"/>
<text text-anchor="middle" x="973.5" y="-151" font-family="Courier,monospace" font-size="10.00">FVKernel</text>
</a>
</g>
</g>
<!-- Node3&#45;&gt;Node2 -->
<g id="edge2" class="edge">
<title>Node3&#45;&gt;Node2</title>
<path fill="none" stroke="#63b8ff" d="M1017.37,-143.95C1037.05,-139.03 1060.52,-132.39 1081,-124.5 1109.16,-113.65 1140.02,-97 1158.57,-86.44"/>
<polygon fill="#63b8ff" stroke="#63b8ff" points="1016.63,-140.53 1007.73,-146.29 1018.28,-147.33 1016.63,-140.53"/>
</g>
<!-- Node4 -->
<g id="node4" class="node">
<title>Node4</title>
<g id="a_node4"><a xlink:href="classResidualObject.html" target="_top" xlink:title="This is the common base class for objects that give residual contributions.">
<polygon fill="white" stroke="#666666" points="776,-260 675,-260 675,-241 776,-241 776,-260"/>
<text text-anchor="middle" x="725.5" y="-248" font-family="Courier,monospace" font-size="10.00">ResidualObject</text>
</a>
</g>
</g>
<!-- Node4&#45;&gt;Node3 -->
<g id="edge3" class="edge">
<title>Node4&#45;&gt;Node3</title>
<path fill="none" stroke="#63b8ff" d="M761.84,-236.56C812.24,-216.69 903.52,-180.7 947.49,-163.36"/>
<polygon fill="#63b8ff" stroke="#63b8ff" points="760.87,-233.19 752.85,-240.11 763.44,-239.7 760.87,-233.19"/>
</g>
<!-- Node5 -->
<g id="node5" class="node">
<title>Node5</title>
<g id="a_node5"><a xlink:href="classMooseObject.html" target="_top" xlink:title="Every object that can be built by the factory should be derived from this class.">
<polygon fill="white" stroke="#666666" points="534,-464 451,-464 451,-445 534,-445 534,-464"/>
<text text-anchor="middle" x="492.5" y="-452" font-family="Courier,monospace" font-size="10.00">MooseObject</text>
</a>
</g>
</g>
<!-- Node5&#45;&gt;Node4 -->
<g id="edge4" class="edge">
<title>Node5&#45;&gt;Node4</title>
<path fill="none" stroke="#63b8ff" d="M545.39,-451.02C559.03,-448.36 573.22,-443.9 585,-436.5 658.15,-390.56 706.48,-291.45 720.37,-260.17"/>
<polygon fill="#63b8ff" stroke="#63b8ff" points="544.92,-447.55 535.61,-452.61 546.05,-454.46 544.92,-447.55"/>
</g>
<!-- Node6 -->
<g id="node6" class="node">
<title>Node6</title>
<g id="a_node6"><a xlink:href="classMooseBase.html" target="_top" xlink:title="Base class for everything in MOOSE with a name and a type.">
<polygon fill="white" stroke="#666666" points="310,-538 239,-538 239,-519 310,-519 310,-538"/>
<text text-anchor="middle" x="274.5" y="-526" font-family="Courier,monospace" font-size="10.00">MooseBase</text>
</a>
</g>
</g>
<!-- Node6&#45;&gt;Node5 -->
<g id="edge5" class="edge">
<title>Node6&#45;&gt;Node5</title>
<path fill="none" stroke="#63b8ff" d="M321.62,-521.05C335.41,-518.31 350.46,-514.8 364,-510.5 403.87,-497.85 448.08,-476.72 472.56,-464.35"/>
<polygon fill="#63b8ff" stroke="#63b8ff" points="321.06,-517.59 311.89,-522.89 322.36,-524.47 321.06,-517.59"/>
</g>
<!-- Node7 -->
<g id="node7" class="node">
<title>Node7</title>
<g id="a_node7"><a xlink:href="classMooseBaseParameterInterface.html" target="_top" xlink:title="Every object that can be built by the factory should be derived from this class.">
<polygon fill="white" stroke="#666666" points="364,-501 185,-501 185,-482 364,-482 364,-501"/>
<text text-anchor="middle" x="274.5" y="-489" font-family="Courier,monospace" font-size="10.00">MooseBaseParameterInterface</text>
</a>
</g>
</g>
<!-- Node7&#45;&gt;Node5 -->
<g id="edge6" class="edge">
<title>Node7&#45;&gt;Node5</title>
<path fill="none" stroke="#63b8ff" d="M344.77,-479.63C379.7,-473.65 420.85,-466.6 450.68,-461.49"/>
<polygon fill="#63b8ff" stroke="#63b8ff" points="344.43,-476.14 335.16,-481.28 345.61,-483.04 344.43,-476.14"/>
</g>
<!-- Node8 -->
<g id="node8" class="node">
<title>Node8</title>
<g id="a_node8"><a xlink:href="classMooseBaseErrorInterface.html" target="_top" xlink:title="Interface that provides APIs to output errors/warnings/info messages.">
<polygon fill="white" stroke="#666666" points="352,-464 197,-464 197,-445 352,-445 352,-464"/>
<text text-anchor="middle" x="274.5" y="-452" font-family="Courier,monospace" font-size="10.00">MooseBaseErrorInterface</text>
</a>
</g>
</g>
<!-- Node8&#45;&gt;Node5 -->
<g id="edge7" class="edge">
<title>Node8&#45;&gt;Node5</title>
<path fill="none" stroke="#63b8ff" d="M363.7,-454.5C393.87,-454.5 426.17,-454.5 450.75,-454.5"/>
<polygon fill="#63b8ff" stroke="#63b8ff" points="363.78,-451 353.78,-454.5 363.78,-458 363.78,-451"/>
</g>
<!-- Node9 -->
<g id="node9" class="node">
<title>Node9</title>
<g id="a_node9"><a xlink:href="classConsoleStreamInterface.html" target="_top" xlink:title="An inteface for the _console for outputting to the Console object.">
<polygon fill="white" stroke="#666666" points="149,-464 0,-464 0,-445 149,-445 149,-464"/>
<text text-anchor="middle" x="74.5" y="-452" font-family="Courier,monospace" font-size="10.00">ConsoleStreamInterface</text>
</a>
</g>
</g>
<!-- Node9&#45;&gt;Node8 -->
<g id="edge8" class="edge">
<title>Node9&#45;&gt;Node8</title>
<path fill="none" stroke="#63b8ff" d="M160.62,-454.5C172.62,-454.5 184.9,-454.5 196.73,-454.5"/>
<polygon fill="#63b8ff" stroke="#63b8ff" points="160.74,-451 150.74,-454.5 160.74,-458 160.74,-451"/>
</g>
<!-- Node10 -->
<g id="node10" class="node">
<title>Node10</title>
<g id="a_node10"><a xlink:title=" ">
<polygon fill="white" stroke="#666666" points="352,-427 197,-427 197,-408 352,-408 352,-427"/>
<text text-anchor="middle" x="274.5" y="-415" font-family="Courier,monospace" font-size="10.00">libMesh::ParallelObject</text>
</a>
</g>
</g>
<!-- Node10&#45;&gt;Node5 -->
<g id="edge9" class="edge">
<title>Node10&#45;&gt;Node5</title>
<path fill="none" stroke="#63b8ff" d="M344.77,-429.37C379.7,-435.35 420.85,-442.4 450.68,-447.51"/>
<polygon fill="#63b8ff" stroke="#63b8ff" points="345.61,-425.96 335.16,-427.72 344.43,-432.86 345.61,-425.96"/>
</g>
<!-- Node11 -->
<g id="node11" class="node">
<title>Node11</title>
<g id="a_node11"><a xlink:href="classDataFileInterface.html" target="_top" xlink:title=" ">
<polygon fill="white" stroke="#666666" points="337,-389.5 212,-389.5 212,-359.5 337,-359.5 337,-389.5"/>
<text text-anchor="start" x="220" y="-377.5" font-family="Courier,monospace" font-size="10.00">DataFileInterface&lt;</text>
<text text-anchor="middle" x="274.5" y="-366.5" font-family="Courier,monospace" font-size="10.00"> MooseObject &gt;</text>
</a>
</g>
</g>
<!-- Node11&#45;&gt;Node5 -->
<g id="edge10" class="edge">
<title>Node11&#45;&gt;Node5</title>
<path fill="none" stroke="#63b8ff" d="M347.62,-391.35C353.32,-393.73 358.86,-396.44 364,-399.5 383.71,-411.24 379.83,-425.57 400,-436.5 415.37,-444.83 434.06,-449.34 450.53,-451.76"/>
<polygon fill="#63b8ff" stroke="#63b8ff" points="349.23,-388.22 338.64,-387.94 346.74,-394.76 349.23,-388.22"/>
</g>
<!-- Node12 -->
<g id="node12" class="node">
<title>Node12</title>
<g id="a_node12"><a xlink:href="classSetupInterface.html" target="_top" xlink:title=" ">
<polygon fill="white" stroke="#666666" points="543,-427 442,-427 442,-408 543,-408 543,-427"/>
<text text-anchor="middle" x="492.5" y="-415" font-family="Courier,monospace" font-size="10.00">SetupInterface</text>
</a>
</g>
</g>
<!-- Node12&#45;&gt;Node4 -->
<g id="edge11" class="edge">
<title>Node12&#45;&gt;Node4</title>
<path fill="none" stroke="#63b8ff" d="M554.42,-411.04C565.03,-408.39 575.65,-404.69 585,-399.5 649.46,-363.76 701.26,-287.73 718.42,-260.48"/>
<polygon fill="#63b8ff" stroke="#63b8ff" points="553.93,-407.57 544.9,-413.11 555.42,-414.41 553.93,-407.57"/>
</g>
<!-- Node13 -->
<g id="node13" class="node">
<title>Node13</title>
<g id="a_node13"><a xlink:href="classFunctionInterface.html" target="_top" xlink:title="Interface for objects that need to use functions.">
<polygon fill="white" stroke="#666666" points="552,-390 433,-390 433,-371 552,-371 552,-390"/>
<text text-anchor="middle" x="492.5" y="-378" font-family="Courier,monospace" font-size="10.00">FunctionInterface</text>
</a>
</g>
</g>
<!-- Node13&#45;&gt;Node4 -->
<g id="edge12" class="edge">
<title>Node13&#45;&gt;Node4</title>
<path fill="none" stroke="#63b8ff" d="M563.39,-370.43C570.85,-368.27 578.19,-365.67 585,-362.5 641.32,-336.3 694.79,-282.68 715.48,-260.47"/>
<polygon fill="#63b8ff" stroke="#63b8ff" points="562.7,-366.99 553.89,-372.88 564.45,-373.77 562.7,-366.99"/>
</g>
<!-- Node14 -->
<g id="node14" class="node">
<title>Node14</title>
<g id="a_node14"><a xlink:href="classUserObjectInterface.html" target="_top" xlink:title="Interface for objects that need to use UserObjects.">
<polygon fill="white" stroke="#666666" points="558,-353 427,-353 427,-334 558,-334 558,-353"/>
<text text-anchor="middle" x="492.5" y="-341" font-family="Courier,monospace" font-size="10.00">UserObjectInterface</text>
</a>
</g>
</g>
<!-- Node14&#45;&gt;Node4 -->
<g id="edge13" class="edge">
<title>Node14&#45;&gt;Node4</title>
<path fill="none" stroke="#63b8ff" d="M568.24,-330.73C573.97,-329.17 579.61,-327.43 585,-325.5 633.15,-308.26 684.97,-276.48 709.71,-260.39"/>
<polygon fill="#63b8ff" stroke="#63b8ff" points="567.48,-327.32 558.64,-333.16 569.19,-334.1 567.48,-327.32"/>
</g>
<!-- Node15 -->
<g id="node15" class="node">
<title>Node15</title>
<g id="a_node15"><a xlink:href="classTransientInterface.html" target="_top" xlink:title="Interface for objects that needs transient capabilities.">
<polygon fill="white" stroke="#666666" points="555,-316 430,-316 430,-297 555,-297 555,-316"/>
<text text-anchor="middle" x="492.5" y="-304" font-family="Courier,monospace" font-size="10.00">TransientInterface</text>
</a>
</g>
</g>
<!-- Node15&#45;&gt;Node4 -->
<g id="edge14" class="edge">
<title>Node15&#45;&gt;Node4</title>
<path fill="none" stroke="#63b8ff" d="M558.53,-294.3C567.45,-292.46 576.47,-290.5 585,-288.5 621.29,-280 662.42,-268.57 690.56,-260.48"/>
<polygon fill="#63b8ff" stroke="#63b8ff" points="557.93,-290.85 548.83,-296.27 559.32,-297.71 557.93,-290.85"/>
</g>
<!-- Node16 -->
<g id="node16" class="node">
<title>Node16</title>
<g id="a_node16"><a xlink:href="classPostprocessorInterface.html" target="_top" xlink:title="Interface class for classes which interact with Postprocessors.">
<polygon fill="white" stroke="#666666" points="567,-279 418,-279 418,-260 567,-260 567,-279"/>
<text text-anchor="middle" x="492.5" y="-267" font-family="Courier,monospace" font-size="10.00">PostprocessorInterface</text>
</a>
</g>
</g>
<!-- Node16&#45;&gt;Node4 -->
<g id="edge15" class="edge">
<title>Node16&#45;&gt;Node4</title>
<path fill="none" stroke="#63b8ff" d="M578.52,-262.51C610.9,-259.84 646.73,-256.9 674.79,-254.59"/>
<polygon fill="#63b8ff" stroke="#63b8ff" points="578.41,-259 568.73,-263.31 578.99,-265.98 578.41,-259"/>
</g>
<!-- Node17 -->
<g id="node17" class="node">
<title>Node17</title>
<g id="a_node17"><a xlink:href="classVectorPostprocessorInterface.html" target="_top" xlink:title=" ">
<polygon fill="white" stroke="#666666" points="585,-242 400,-242 400,-223 585,-223 585,-242"/>
<text text-anchor="middle" x="492.5" y="-230" font-family="Courier,monospace" font-size="10.00">VectorPostprocessorInterface</text>
</a>
</g>
</g>
<!-- Node17&#45;&gt;Node4 -->
<g id="edge16" class="edge">
<title>Node17&#45;&gt;Node4</title>
<path fill="none" stroke="#63b8ff" d="M596.61,-240.53C623.74,-242.65 651.79,-244.83 674.69,-246.62"/>
<polygon fill="#63b8ff" stroke="#63b8ff" points="597.21,-237.07 586.97,-239.78 596.67,-244.05 597.21,-237.07"/>
</g>
<!-- Node18 -->
<g id="node18" class="node">
<title>Node18</title>
<g id="a_node18"><a xlink:href="classRandomInterface.html" target="_top" xlink:title="Interface for objects that need parallel consistent random numbers without patterns over the course o...">
<polygon fill="white" stroke="#666666" points="546,-205 439,-205 439,-186 546,-186 546,-205"/>
<text text-anchor="middle" x="492.5" y="-193" font-family="Courier,monospace" font-size="10.00">RandomInterface</text>
</a>
</g>
</g>
<!-- Node18&#45;&gt;Node4 -->
<g id="edge17" class="edge">
<title>Node18&#45;&gt;Node4</title>
<path fill="none" stroke="#63b8ff" d="M554.41,-207.72C564.64,-209.9 575.14,-212.2 585,-214.5 620.08,-222.66 659.83,-233.03 687.9,-240.55"/>
<polygon fill="#63b8ff" stroke="#63b8ff" points="555.44,-204.36 544.94,-205.73 554.01,-211.22 555.44,-204.36"/>
</g>
<!-- Node19 -->
<g id="node19" class="node">
<title>Node19</title>
<g id="a_node19"><a xlink:href="classRestartable.html" target="_top" xlink:title="A class for creating restricted objects.">
<polygon fill="white" stroke="#666666" points="534,-168 451,-168 451,-149 534,-149 534,-168"/>
<text text-anchor="middle" x="492.5" y="-156" font-family="Courier,monospace" font-size="10.00">Restartable</text>
</a>
</g>
</g>
<!-- Node19&#45;&gt;Node4 -->
<g id="edge18" class="edge">
<title>Node19&#45;&gt;Node4</title>
<path fill="none" stroke="#63b8ff" d="M545.5,-166.69C558.59,-169.46 572.48,-173.02 585,-177.5 632.62,-194.53 684.26,-225.07 709.25,-240.7"/>
<polygon fill="#63b8ff" stroke="#63b8ff" points="546.22,-163.27 535.73,-164.76 544.86,-170.14 546.22,-163.27"/>
</g>
<!-- Node20 -->
<g id="node20" class="node">
<title>Node20</title>
<g id="a_node20"><a xlink:href="classMeshChangedInterface.html" target="_top" xlink:title="Interface for notifications that the mesh has changed.">
<polygon fill="white" stroke="#666666" points="561,-131 424,-131 424,-112 561,-112 561,-131"/>
<text text-anchor="middle" x="492.5" y="-119" font-family="Courier,monospace" font-size="10.00">MeshChangedInterface</text>
</a>
</g>
</g>
<!-- Node20&#45;&gt;Node4 -->
<g id="edge19" class="edge">
<title>Node20&#45;&gt;Node4</title>
<path fill="none" stroke="#63b8ff" d="M571.9,-134.44C576.44,-136.21 580.84,-138.22 585,-140.5 605.11,-151.54 603.55,-162.6 621,-177.5 650.26,-202.49 687.88,-227.42 708.76,-240.7"/>
<polygon fill="#63b8ff" stroke="#63b8ff" points="573.14,-131.17 562.55,-131.23 570.87,-137.79 573.14,-131.17"/>
</g>
<!-- Node21 -->
<g id="node21" class="node">
<title>Node21</title>
<g id="a_node21"><a xlink:href="classTaggingInterface.html" target="_top" xlink:title=" ">
<polygon fill="white" stroke="#666666" points="549,-94 436,-94 436,-75 549,-75 549,-94"/>
<text text-anchor="middle" x="492.5" y="-82" font-family="Courier,monospace" font-size="10.00">TaggingInterface</text>
</a>
</g>
</g>
<!-- Node21&#45;&gt;Node4 -->
<g id="edge20" class="edge">
<title>Node21&#45;&gt;Node4</title>
<path fill="none" stroke="#63b8ff" d="M560.24,-90.82C569.16,-93.75 577.72,-97.83 585,-103.5 613.86,-125.96 597.31,-149.64 621,-177.5 644.93,-205.64 682.02,-228.29 704.7,-240.53"/>
<polygon fill="#63b8ff" stroke="#63b8ff" points="561.28,-87.47 550.71,-88.19 559.42,-94.22 561.28,-87.47"/>
</g>
<!-- Node22 -->
<g id="node22" class="node">
<title>Node22</title>
<g id="a_node22"><a xlink:href="classBlockRestrictable.html" target="_top" xlink:title="An interface that restricts an object to subdomains via the &#39;blocks&#39; input parameter.">
<polygon fill="white" stroke="#666666" points="785,-168 666,-168 666,-149 785,-149 785,-168"/>
<text text-anchor="middle" x="725.5" y="-156" font-family="Courier,monospace" font-size="10.00">BlockRestrictable</text>
</a>
</g>
</g>
<!-- Node22&#45;&gt;Node3 -->
<g id="edge21" class="edge">
<title>Node22&#45;&gt;Node3</title>
<path fill="none" stroke="#63b8ff" d="M796.87,-157.07C844.28,-156.11 904.55,-154.88 940.74,-154.15"/>
<polygon fill="#63b8ff" stroke="#63b8ff" points="796.86,-153.57 786.94,-157.27 797.01,-160.57 796.86,-153.57"/>
</g>
<!-- Node23 -->
<g id="node23" class="node">
<title>Node23</title>
<g id="a_node23"><a xlink:href="classADFunctorInterface.html" target="_top" xlink:title="An interface for accessing Moose::Functors for systems that care about automatic differentiation,...">
<polygon fill="white" stroke="#666666" points="788,-131 663,-131 663,-112 788,-112 788,-131"/>
<text text-anchor="middle" x="725.5" y="-119" font-family="Courier,monospace" font-size="10.00">ADFunctorInterface</text>
</a>
</g>
</g>
<!-- Node23&#45;&gt;Node3 -->
<g id="edge22" class="edge">
<title>Node23&#45;&gt;Node3</title>
<path fill="none" stroke="#63b8ff" d="M799.63,-131.01C846.63,-137.13 905.33,-144.76 940.81,-149.38"/>
<polygon fill="#63b8ff" stroke="#63b8ff" points="800.13,-127.55 789.76,-129.73 799.22,-134.49 800.13,-127.55"/>
</g>
<!-- Node24 -->
<g id="node24" class="node">
<title>Node24</title>
<g id="a_node24"><a xlink:href="classFunctorInterface.html" target="_top" xlink:title="An interface for accessing Moose::Functors.">
<polygon fill="white" stroke="#666666" points="549,-57 436,-57 436,-38 549,-38 549,-57"/>
<text text-anchor="middle" x="492.5" y="-45" font-family="Courier,monospace" font-size="10.00">FunctorInterface</text>
</a>
</g>
</g>
<!-- Node24&#45;&gt;Node23 -->
<g id="edge23" class="edge">
<title>Node24&#45;&gt;Node23</title>
<path fill="none" stroke="#63b8ff" d="M560.09,-56.43C568.76,-58.99 577.3,-62.27 585,-66.5 605.11,-77.54 600.71,-92.79 621,-103.5 633.74,-110.23 648.48,-114.51 662.76,-117.23"/>
<polygon fill="#63b8ff" stroke="#63b8ff" points="561.11,-53.08 550.55,-53.94 559.34,-59.85 561.11,-53.08"/>
</g>
<!-- Node25 -->
<g id="node25" class="node">
<title>Node25</title>
<g id="a_node25"><a xlink:href="classMooseVariableInterface.html" target="_top" xlink:title=" ">
<polygon fill="white" stroke="#666666" points="1048,-115.5 899,-115.5 899,-85.5 1048,-85.5 1048,-115.5"/>
<text text-anchor="start" x="907" y="-103.5" font-family="Courier,monospace" font-size="10.00">MooseVariableInterface</text>
<text text-anchor="middle" x="973.5" y="-92.5" font-family="Courier,monospace" font-size="10.00">&lt; Real &gt;</text>
</a>
</g>
</g>
<!-- Node25&#45;&gt;Node2 -->
<g id="edge24" class="edge">
<title>Node25&#45;&gt;Node2</title>
<path fill="none" stroke="#63b8ff" d="M1059.69,-90.33C1078.91,-88.03 1098.9,-85.65 1116.75,-83.52"/>
<polygon fill="#63b8ff" stroke="#63b8ff" points="1059.51,-86.83 1049.99,-91.49 1060.34,-93.78 1059.51,-86.83"/>
</g>
<!-- Node26 -->
<g id="node26" class="node">
<title>Node26</title>
<g id="a_node26"><a xlink:href="classCoupleableMooseVariableDependencyIntermediateInterface.html" target="_top" xlink:title="Intermediate base class that ties together all the interfaces for getting MooseVariableFEBases with t...">
<polygon fill="white" stroke="#666666" points="1081,-67.5 866,-67.5 866,-37.5 1081,-37.5 1081,-67.5"/>
<text text-anchor="start" x="874" y="-55.5" font-family="Courier,monospace" font-size="10.00">CoupleableMooseVariableDependency</text>
<text text-anchor="middle" x="973.5" y="-44.5" font-family="Courier,monospace" font-size="10.00">IntermediateInterface</text>
</a>
</g>
</g>
<!-- Node26&#45;&gt;Node2 -->
<g id="edge25" class="edge">
<title>Node26&#45;&gt;Node2</title>
<path fill="none" stroke="#63b8ff" d="M1092.75,-66.62C1100.97,-67.6 1109.02,-68.56 1116.68,-69.48"/>
<polygon fill="#63b8ff" stroke="#63b8ff" points="1093.32,-63.16 1082.98,-65.45 1092.49,-70.11 1093.32,-63.16"/>
</g>
<!-- Node27 -->
<g id="node27" class="node">
<title>Node27</title>
<g id="a_node27"><a xlink:href="classCoupleable.html" target="_top" xlink:title="Interface for objects that needs coupling capabilities.">
<polygon fill="white" stroke="#666666" points="764,-94 687,-94 687,-75 764,-75 764,-94"/>
<text text-anchor="middle" x="725.5" y="-82" font-family="Courier,monospace" font-size="10.00">Coupleable</text>
</a>
</g>
</g>
<!-- Node27&#45;&gt;Node26 -->
<g id="edge26" class="edge">
<title>Node27&#45;&gt;Node26</title>
<path fill="none" stroke="#63b8ff" d="M775.76,-78.09C801.62,-74.73 834.37,-70.47 865.69,-66.39"/>
<polygon fill="#63b8ff" stroke="#63b8ff" points="775.36,-74.61 765.9,-79.37 776.27,-81.56 775.36,-74.61"/>
</g>
<!-- Node28 -->
<g id="node28" class="node">
<title>Node28</title>
<g id="a_node28"><a xlink:href="classScalarCoupleable.html" target="_top" xlink:title="Interface for objects that needs scalar coupling capabilities.">
<polygon fill="white" stroke="#666666" points="782,-57 669,-57 669,-38 782,-38 782,-57"/>
<text text-anchor="middle" x="725.5" y="-45" font-family="Courier,monospace" font-size="10.00">ScalarCoupleable</text>
</a>
</g>
</g>
<!-- Node28&#45;&gt;Node26 -->
<g id="edge27" class="edge">
<title>Node28&#45;&gt;Node26</title>
<path fill="none" stroke="#63b8ff" d="M793.63,-48.86C815.83,-49.32 841.11,-49.83 865.53,-50.33"/>
<polygon fill="#63b8ff" stroke="#63b8ff" points="793.9,-45.37 783.83,-48.67 793.76,-52.37 793.9,-45.37"/>
</g>
<!-- Node29 -->
<g id="node29" class="node">
<title>Node29</title>
<g id="a_node29"><a xlink:href="classMooseVariableDependencyInterface.html" target="_top" xlink:title=" ">
<polygon fill="white" stroke="#666666" points="830,-20 621,-20 621,-1 830,-1 830,-20"/>
<text text-anchor="middle" x="725.5" y="-8" font-family="Courier,monospace" font-size="10.00">MooseVariableDependencyInterface</text>
</a>
</g>
</g>
<!-- Node29&#45;&gt;Node26 -->
<g id="edge28" class="edge">
<title>Node29&#45;&gt;Node26</title>
<path fill="none" stroke="#63b8ff" d="M795.96,-22.36C822.65,-26.92 853.52,-32.19 881.91,-37.03"/>
<polygon fill="#63b8ff" stroke="#63b8ff" points="796.74,-18.94 786.29,-20.71 795.56,-25.84 796.74,-18.94"/>
</g>
<!-- Node30 -->
<g id="node30" class="node">
<title>Node30</title>
<g id="a_node30"><a xlink:href="classMaterialPropertyInterface.html" target="_top" xlink:title="An interface for accessing Materials.">
<polygon fill="white" stroke="#666666" points="1057,-19 890,-19 890,0 1057,0 1057,-19"/>
<text text-anchor="middle" x="973.5" y="-7" font-family="Courier,monospace" font-size="10.00">MaterialPropertyInterface</text>
</a>
</g>
</g>
<!-- Node30&#45;&gt;Node2 -->
<g id="edge29" class="edge">
<title>Node30&#45;&gt;Node2</title>
<path fill="none" stroke="#63b8ff" d="M1057.97,-21.95C1065.83,-23.86 1073.62,-26.03 1081,-28.5 1110.14,-38.26 1141.48,-55.71 1159.74,-66.67"/>
<polygon fill="#63b8ff" stroke="#63b8ff" points="1058.83,-18.56 1048.31,-19.78 1057.29,-25.39 1058.83,-18.56"/>
</g>
</g>
</svg>
