<?xml version="1.0" encoding="UTF-8" standalone="no"?>
<!DOCTYPE svg PUBLIC "-//W3C//DTD SVG 1.1//EN"
 "http://www.w3.org/Graphics/SVG/1.1/DTD/svg11.dtd">
<!-- Generated by graphviz version 7.0.5 (20221223.1930)
 -->
<!-- Title: ArrayIntegratedBC Pages: 1 -->
<!--zoomable 639 -->
<svg id="main" version="1.1" xmlns="http://www.w3.org/2000/svg" xmlns:xlink="http://www.w3.org/1999/xlink" xml:space="preserve" onload="init(evt)">
<style type="text/css"><![CDATA[
.edge:hover path { stroke: red; }
.edge:hover polygon { stroke: red; fill: red; }
]]></style>
<script type="text/javascript"><![CDATA[
var edges = document.getElementsByTagName('g');
if (edges && edges.length) {
  for (var i=0;i<edges.length;i++) {
    if (edges[i].id.substr(0,4)=='edge') {
      edges[i].setAttribute('class','edge');
    }
  }
}
]]></script>
        <defs>
                <circle id="rim" cx="0" cy="0" r="7"/>
                <circle id="rim2" cx="0" cy="0" r="3.5"/>
                <g id="zoomPlus">
                        <use xlink:href="#rim" fill="#404040">
                                <set attributeName="fill" to="#808080" begin="zoomplus.mouseover" end="zoomplus.mouseout"/>
                        </use>
                        <path d="M-4,0h8M0,-4v8" fill="none" stroke="white" stroke-width="1.5" pointer-events="none"/>
                </g>
                <g id="zoomMin">
                        <use xlink:href="#rim" fill="#404040">
                                <set attributeName="fill" to="#808080" begin="zoomminus.mouseover" end="zoomminus.mouseout"/>
                        </use>
                        <path d="M-4,0h8" fill="none" stroke="white" stroke-width="1.5" pointer-events="none"/>
                </g>
                <g id="dirArrow">
                        <path fill="none" stroke="white" stroke-width="1.5" d="M0,-3.0v7 M-2.5,-0.5L0,-3.0L2.5,-0.5"/>
                </g>
               <g id="resetDef">
                       <use xlink:href="#rim2" fill="#404040">
                               <set attributeName="fill" to="#808080" begin="reset.mouseover" end="reset.mouseout"/>
                       </use>
               </g>
        </defs>

<script type="text/javascript">
var viewWidth = 1793;
var viewHeight = 639;
var sectionId = 'dynsection-0';
</script>
<script xlink:href="svgpan.js"/>
<svg id="graph" class="graph">
<g id="viewport">
<title>ArrayIntegratedBC</title>
<!-- Node1 -->
<g id="node1" class="node">
<title>Node1</title>
<g id="a_node1"><a xlink:title="Base class for deriving any boundary condition of a integrated type.">
<polygon fill="#999999" stroke="#666666" points="1421,-74 1302,-74 1302,-55 1421,-55 1421,-74"/>
<text text-anchor="middle" x="1361.5" y="-62" font-family="Courier,monospace" font-size="10.00">ArrayIntegratedBC</text>
</a>
</g>
</g>
<!-- Node32 -->
<g id="node32" class="node">
<title>Node32</title>
<g id="a_node32"><a xlink:href="classArrayLowerDIntegratedBC.html" target="_top" xlink:title="Base class for deriving any boundary condition of a integrated type.">
<polygon fill="white" stroke="#666666" points="1612,-130 1457,-130 1457,-111 1612,-111 1612,-130"/>
<text text-anchor="middle" x="1534.5" y="-118" font-family="Courier,monospace" font-size="10.00">ArrayLowerDIntegratedBC</text>
</a>
</g>
</g>
<!-- Node1&#45;&gt;Node32 -->
<g id="edge31" class="edge">
<title>Node1&#45;&gt;Node32</title>
<path fill="none" stroke="#63b8ff" d="M1394.84,-78.92C1412.89,-86.6 1435.92,-95.82 1457,-102.5 1466.37,-105.47 1476.51,-108.19 1486.26,-110.57"/>
<polygon fill="#63b8ff" stroke="#63b8ff" points="1396.26,-75.72 1385.69,-74.97 1393.49,-82.15 1396.26,-75.72"/>
</g>
<!-- Node34 -->
<g id="node34" class="node">
<title>Node34</title>
<g id="a_node34"><a xlink:href="classArrayNeumannBC.html" target="_top" xlink:title=" ">
<polygon fill="white" stroke="#666666" points="1585,-93 1484,-93 1484,-74 1585,-74 1585,-93"/>
<text text-anchor="middle" x="1534.5" y="-81" font-family="Courier,monospace" font-size="10.00">ArrayNeumannBC</text>
</a>
</g>
</g>
<!-- Node1&#45;&gt;Node34 -->
<g id="edge33" class="edge">
<title>Node1&#45;&gt;Node34</title>
<path fill="none" stroke="#63b8ff" d="M1432.47,-72.27C1449.63,-74.18 1467.65,-76.18 1483.65,-77.96"/>
<polygon fill="#63b8ff" stroke="#63b8ff" points="1433.18,-68.83 1422.85,-71.21 1432.41,-75.79 1433.18,-68.83"/>
</g>
<!-- Node35 -->
<g id="node35" class="node">
<title>Node35</title>
<g id="a_node35"><a xlink:href="classArrayPenaltyDirichletBC.html" target="_top" xlink:title=" ">
<polygon fill="white" stroke="#666666" points="1612,-56 1457,-56 1457,-37 1612,-37 1612,-56"/>
<text text-anchor="middle" x="1534.5" y="-44" font-family="Courier,monospace" font-size="10.00">ArrayPenaltyDirichletBC</text>
</a>
</g>
</g>
<!-- Node1&#45;&gt;Node35 -->
<g id="edge34" class="edge">
<title>Node1&#45;&gt;Node35</title>
<path fill="none" stroke="#63b8ff" d="M1432.76,-57.1C1440.67,-56.27 1448.75,-55.42 1456.73,-54.58"/>
<polygon fill="#63b8ff" stroke="#63b8ff" points="1432.43,-53.62 1422.85,-58.15 1433.17,-60.58 1432.43,-53.62"/>
</g>
<!-- Node36 -->
<g id="node36" class="node">
<title>Node36</title>
<g id="a_node36"><a xlink:href="classArrayVacuumBC.html" target="_top" xlink:title=" ">
<polygon fill="white" stroke="#666666" points="1582,-19 1487,-19 1487,0 1582,0 1582,-19"/>
<text text-anchor="middle" x="1534.5" y="-7" font-family="Courier,monospace" font-size="10.00">ArrayVacuumBC</text>
</a>
</g>
</g>
<!-- Node1&#45;&gt;Node36 -->
<g id="edge35" class="edge">
<title>Node1&#45;&gt;Node36</title>
<path fill="none" stroke="#63b8ff" d="M1395.59,-50.21C1413.54,-42.8 1436.24,-33.97 1457,-27.5 1466.51,-24.54 1476.82,-21.8 1486.69,-19.4"/>
<polygon fill="#63b8ff" stroke="#63b8ff" points="1394.36,-46.93 1386.49,-54.02 1397.06,-53.39 1394.36,-46.93"/>
</g>
<!-- Node2 -->
<g id="node2" class="node">
<title>Node2</title>
<g id="a_node2"><a xlink:href="classIntegratedBCBase.html" target="_top" xlink:title="Base class for deriving any boundary condition of a integrated type.">
<polygon fill="white" stroke="#666666" points="1248,-96 1135,-96 1135,-77 1248,-77 1248,-96"/>
<text text-anchor="middle" x="1191.5" y="-84" font-family="Courier,monospace" font-size="10.00">IntegratedBCBase</text>
</a>
</g>
</g>
<!-- Node2&#45;&gt;Node1 -->
<g id="edge1" class="edge">
<title>Node2&#45;&gt;Node1</title>
<path fill="none" stroke="#63b8ff" d="M1259.46,-77.73C1273.4,-75.91 1288.01,-73.99 1301.64,-72.21"/>
<polygon fill="#63b8ff" stroke="#63b8ff" points="1259.4,-74.21 1249.94,-78.98 1260.31,-81.15 1259.4,-74.21"/>
</g>
<!-- Node3 -->
<g id="node3" class="node">
<title>Node3</title>
<g id="a_node3"><a xlink:href="classBoundaryCondition.html" target="_top" xlink:title="Base class for creating new types of boundary conditions.">
<polygon fill="white" stroke="#666666" points="1033,-188 914,-188 914,-169 1033,-169 1033,-188"/>
<text text-anchor="middle" x="973.5" y="-176" font-family="Courier,monospace" font-size="10.00">BoundaryCondition</text>
</a>
</g>
</g>
<!-- Node3&#45;&gt;Node2 -->
<g id="edge2" class="edge">
<title>Node3&#45;&gt;Node2</title>
<path fill="none" stroke="#63b8ff" d="M1008.12,-164.18C1052.33,-145.35 1128.89,-112.74 1167.22,-96.41"/>
<polygon fill="#63b8ff" stroke="#63b8ff" points="1006.84,-160.92 999.01,-168.06 1009.58,-167.36 1006.84,-160.92"/>
</g>
<!-- Node4 -->
<g id="node4" class="node">
<title>Node4</title>
<g id="a_node4"><a xlink:href="classResidualObject.html" target="_top" xlink:title="This is the common base class for objects that give residual contributions.">
<polygon fill="white" stroke="#666666" points="776,-354 675,-354 675,-335 776,-335 776,-354"/>
<text text-anchor="middle" x="725.5" y="-342" font-family="Courier,monospace" font-size="10.00">ResidualObject</text>
</a>
</g>
</g>
<!-- Node4&#45;&gt;Node3 -->
<g id="edge3" class="edge">
<title>Node4&#45;&gt;Node3</title>
<path fill="none" stroke="#63b8ff" d="M750.63,-328.22C801.23,-294.08 917.09,-215.89 957.93,-188.34"/>
<polygon fill="#63b8ff" stroke="#63b8ff" points="748.74,-325.27 742.41,-333.77 752.65,-331.07 748.74,-325.27"/>
</g>
<!-- Node5 -->
<g id="node5" class="node">
<title>Node5</title>
<g id="a_node5"><a xlink:href="classMooseObject.html" target="_top" xlink:title="Every object that can be built by the factory should be derived from this class.">
<polygon fill="white" stroke="#666666" points="534,-557 451,-557 451,-538 534,-538 534,-557"/>
<text text-anchor="middle" x="492.5" y="-545" font-family="Courier,monospace" font-size="10.00">MooseObject</text>
</a>
</g>
</g>
<!-- Node5&#45;&gt;Node4 -->
<g id="edge4" class="edge">
<title>Node5&#45;&gt;Node4</title>
<path fill="none" stroke="#63b8ff" d="M545.38,-544C559.02,-541.34 573.21,-536.88 585,-529.5 657.96,-483.81 706.42,-385.23 720.36,-354.12"/>
<polygon fill="#63b8ff" stroke="#63b8ff" points="544.91,-540.53 535.6,-545.59 546.04,-547.44 544.91,-540.53"/>
</g>
<!-- Node6 -->
<g id="node6" class="node">
<title>Node6</title>
<g id="a_node6"><a xlink:href="classMooseBase.html" target="_top" xlink:title="Base class for everything in MOOSE with a name and a type.">
<polygon fill="white" stroke="#666666" points="310,-631 239,-631 239,-612 310,-612 310,-631"/>
<text text-anchor="middle" x="274.5" y="-619" font-family="Courier,monospace" font-size="10.00">MooseBase</text>
</a>
</g>
</g>
<!-- Node6&#45;&gt;Node5 -->
<g id="edge5" class="edge">
<title>Node6&#45;&gt;Node5</title>
<path fill="none" stroke="#63b8ff" d="M321.62,-614.05C335.41,-611.31 350.46,-607.8 364,-603.5 403.87,-590.85 448.08,-569.72 472.56,-557.35"/>
<polygon fill="#63b8ff" stroke="#63b8ff" points="321.06,-610.59 311.89,-615.89 322.36,-617.47 321.06,-610.59"/>
</g>
<!-- Node7 -->
<g id="node7" class="node">
<title>Node7</title>
<g id="a_node7"><a xlink:href="classMooseBaseParameterInterface.html" target="_top" xlink:title="Every object that can be built by the factory should be derived from this class.">
<polygon fill="white" stroke="#666666" points="364,-594 185,-594 185,-575 364,-575 364,-594"/>
<text text-anchor="middle" x="274.5" y="-582" font-family="Courier,monospace" font-size="10.00">MooseBaseParameterInterface</text>
</a>
</g>
</g>
<!-- Node7&#45;&gt;Node5 -->
<g id="edge6" class="edge">
<title>Node7&#45;&gt;Node5</title>
<path fill="none" stroke="#63b8ff" d="M344.77,-572.63C379.7,-566.65 420.85,-559.6 450.68,-554.49"/>
<polygon fill="#63b8ff" stroke="#63b8ff" points="344.43,-569.14 335.16,-574.28 345.61,-576.04 344.43,-569.14"/>
</g>
<!-- Node8 -->
<g id="node8" class="node">
<title>Node8</title>
<g id="a_node8"><a xlink:href="classMooseBaseErrorInterface.html" target="_top" xlink:title="Interface that provides APIs to output errors/warnings/info messages.">
<polygon fill="white" stroke="#666666" points="352,-557 197,-557 197,-538 352,-538 352,-557"/>
<text text-anchor="middle" x="274.5" y="-545" font-family="Courier,monospace" font-size="10.00">MooseBaseErrorInterface</text>
</a>
</g>
</g>
<!-- Node8&#45;&gt;Node5 -->
<g id="edge7" class="edge">
<title>Node8&#45;&gt;Node5</title>
<path fill="none" stroke="#63b8ff" d="M363.7,-547.5C393.87,-547.5 426.17,-547.5 450.75,-547.5"/>
<polygon fill="#63b8ff" stroke="#63b8ff" points="363.78,-544 353.78,-547.5 363.78,-551 363.78,-544"/>
</g>
<!-- Node9 -->
<g id="node9" class="node">
<title>Node9</title>
<g id="a_node9"><a xlink:href="classConsoleStreamInterface.html" target="_top" xlink:title="An inteface for the _console for outputting to the Console object.">
<polygon fill="white" stroke="#666666" points="149,-557 0,-557 0,-538 149,-538 149,-557"/>
<text text-anchor="middle" x="74.5" y="-545" font-family="Courier,monospace" font-size="10.00">ConsoleStreamInterface</text>
</a>
</g>
</g>
<!-- Node9&#45;&gt;Node8 -->
<g id="edge8" class="edge">
<title>Node9&#45;&gt;Node8</title>
<path fill="none" stroke="#63b8ff" d="M160.62,-547.5C172.62,-547.5 184.9,-547.5 196.73,-547.5"/>
<polygon fill="#63b8ff" stroke="#63b8ff" points="160.74,-544 150.74,-547.5 160.74,-551 160.74,-544"/>
</g>
<!-- Node10 -->
<g id="node10" class="node">
<title>Node10</title>
<g id="a_node10"><a xlink:title=" ">
<polygon fill="white" stroke="#666666" points="352,-520 197,-520 197,-501 352,-501 352,-520"/>
<text text-anchor="middle" x="274.5" y="-508" font-family="Courier,monospace" font-size="10.00">libMesh::ParallelObject</text>
</a>
</g>
</g>
<!-- Node10&#45;&gt;Node5 -->
<g id="edge9" class="edge">
<title>Node10&#45;&gt;Node5</title>
<path fill="none" stroke="#63b8ff" d="M344.77,-522.37C379.7,-528.35 420.85,-535.4 450.68,-540.51"/>
<polygon fill="#63b8ff" stroke="#63b8ff" points="345.61,-518.96 335.16,-520.72 344.43,-525.86 345.61,-518.96"/>
</g>
<!-- Node11 -->
<g id="node11" class="node">
<title>Node11</title>
<g id="a_node11"><a xlink:href="classDataFileInterface.html" target="_top" xlink:title=" ">
<polygon fill="white" stroke="#666666" points="337,-482.5 212,-482.5 212,-452.5 337,-452.5 337,-482.5"/>
<text text-anchor="start" x="220" y="-470.5" font-family="Courier,monospace" font-size="10.00">DataFileInterface&lt;</text>
<text text-anchor="middle" x="274.5" y="-459.5" font-family="Courier,monospace" font-size="10.00"> MooseObject &gt;</text>
</a>
</g>
</g>
<!-- Node11&#45;&gt;Node5 -->
<g id="edge10" class="edge">
<title>Node11&#45;&gt;Node5</title>
<path fill="none" stroke="#63b8ff" d="M347.62,-484.35C353.32,-486.73 358.86,-489.44 364,-492.5 383.71,-504.24 379.83,-518.57 400,-529.5 415.37,-537.83 434.06,-542.34 450.53,-544.76"/>
<polygon fill="#63b8ff" stroke="#63b8ff" points="349.23,-481.22 338.64,-480.94 346.74,-487.76 349.23,-481.22"/>
</g>
<!-- Node12 -->
<g id="node12" class="node">
<title>Node12</title>
<g id="a_node12"><a xlink:href="classSetupInterface.html" target="_top" xlink:title=" ">
<polygon fill="white" stroke="#666666" points="543,-520 442,-520 442,-501 543,-501 543,-520"/>
<text text-anchor="middle" x="492.5" y="-508" font-family="Courier,monospace" font-size="10.00">SetupInterface</text>
</a>
</g>
</g>
<!-- Node12&#45;&gt;Node4 -->
<g id="edge11" class="edge">
<title>Node12&#45;&gt;Node4</title>
<path fill="none" stroke="#63b8ff" d="M554.41,-504.02C565.02,-501.37 575.64,-497.67 585,-492.5 649.29,-456.99 701.2,-381.48 718.41,-354.41"/>
<polygon fill="#63b8ff" stroke="#63b8ff" points="553.92,-500.54 544.89,-506.09 555.4,-507.38 553.92,-500.54"/>
</g>
<!-- Node13 -->
<g id="node13" class="node">
<title>Node13</title>
<g id="a_node13"><a xlink:href="classFunctionInterface.html" target="_top" xlink:title="Interface for objects that need to use functions.">
<polygon fill="white" stroke="#666666" points="552,-483 433,-483 433,-464 552,-464 552,-483"/>
<text text-anchor="middle" x="492.5" y="-471" font-family="Courier,monospace" font-size="10.00">FunctionInterface</text>
</a>
</g>
</g>
<!-- Node13&#45;&gt;Node4 -->
<g id="edge12" class="edge">
<title>Node13&#45;&gt;Node4</title>
<path fill="none" stroke="#63b8ff" d="M563.38,-463.4C570.84,-461.25 578.19,-458.65 585,-455.5 641.18,-429.52 694.72,-376.38 715.46,-354.38"/>
<polygon fill="#63b8ff" stroke="#63b8ff" points="562.69,-459.96 553.88,-465.85 564.43,-466.74 562.69,-459.96"/>
</g>
<!-- Node14 -->
<g id="node14" class="node">
<title>Node14</title>
<g id="a_node14"><a xlink:href="classUserObjectInterface.html" target="_top" xlink:title="Interface for objects that need to use UserObjects.">
<polygon fill="white" stroke="#666666" points="558,-446 427,-446 427,-427 558,-427 558,-446"/>
<text text-anchor="middle" x="492.5" y="-434" font-family="Courier,monospace" font-size="10.00">UserObjectInterface</text>
</a>
</g>
</g>
<!-- Node14&#45;&gt;Node4 -->
<g id="edge13" class="edge">
<title>Node14&#45;&gt;Node4</title>
<path fill="none" stroke="#63b8ff" d="M567.48,-423.9C573.47,-422.29 579.37,-420.5 585,-418.5 633.06,-401.45 684.92,-370.11 709.69,-354.25"/>
<polygon fill="#63b8ff" stroke="#63b8ff" points="566.99,-420.42 558.14,-426.24 568.69,-427.21 566.99,-420.42"/>
</g>
<!-- Node15 -->
<g id="node15" class="node">
<title>Node15</title>
<g id="a_node15"><a xlink:href="classTransientInterface.html" target="_top" xlink:title="Interface for objects that needs transient capabilities.">
<polygon fill="white" stroke="#666666" points="555,-409 430,-409 430,-390 555,-390 555,-409"/>
<text text-anchor="middle" x="492.5" y="-397" font-family="Courier,monospace" font-size="10.00">TransientInterface</text>
</a>
</g>
</g>
<!-- Node15&#45;&gt;Node4 -->
<g id="edge14" class="edge">
<title>Node15&#45;&gt;Node4</title>
<path fill="none" stroke="#63b8ff" d="M558.52,-387.25C567.44,-385.41 576.46,-383.47 585,-381.5 620.77,-373.25 661.28,-362.32 689.4,-354.49"/>
<polygon fill="#63b8ff" stroke="#63b8ff" points="557.92,-383.8 548.81,-389.22 559.31,-390.66 557.92,-383.8"/>
</g>
<!-- Node16 -->
<g id="node16" class="node">
<title>Node16</title>
<g id="a_node16"><a xlink:href="classPostprocessorInterface.html" target="_top" xlink:title="Interface class for classes which interact with Postprocessors.">
<polygon fill="white" stroke="#666666" points="567,-372 418,-372 418,-353 567,-353 567,-372"/>
<text text-anchor="middle" x="492.5" y="-360" font-family="Courier,monospace" font-size="10.00">PostprocessorInterface</text>
</a>
</g>
</g>
<!-- Node16&#45;&gt;Node4 -->
<g id="edge15" class="edge">
<title>Node16&#45;&gt;Node4</title>
<path fill="none" stroke="#63b8ff" d="M578.52,-355.88C610.9,-353.35 646.73,-350.56 674.79,-348.37"/>
<polygon fill="#63b8ff" stroke="#63b8ff" points="578.43,-352.37 568.73,-356.64 578.98,-359.35 578.43,-352.37"/>
</g>
<!-- Node17 -->
<g id="node17" class="node">
<title>Node17</title>
<g id="a_node17"><a xlink:href="classVectorPostprocessorInterface.html" target="_top" xlink:title=" ">
<polygon fill="white" stroke="#666666" points="585,-335 400,-335 400,-316 585,-316 585,-335"/>
<text text-anchor="middle" x="492.5" y="-323" font-family="Courier,monospace" font-size="10.00">VectorPostprocessorInterface</text>
</a>
</g>
</g>
<!-- Node17&#45;&gt;Node4 -->
<g id="edge16" class="edge">
<title>Node17&#45;&gt;Node4</title>
<path fill="none" stroke="#63b8ff" d="M596.61,-333.98C623.74,-336.21 651.79,-338.52 674.69,-340.4"/>
<polygon fill="#63b8ff" stroke="#63b8ff" points="597.22,-330.52 586.97,-333.19 596.65,-337.5 597.22,-330.52"/>
</g>
<!-- Node18 -->
<g id="node18" class="node">
<title>Node18</title>
<g id="a_node18"><a xlink:href="classRandomInterface.html" target="_top" xlink:title="Interface for objects that need parallel consistent random numbers without patterns over the course o...">
<polygon fill="white" stroke="#666666" points="546,-298 439,-298 439,-279 546,-279 546,-298"/>
<text text-anchor="middle" x="492.5" y="-286" font-family="Courier,monospace" font-size="10.00">RandomInterface</text>
</a>
</g>
</g>
<!-- Node18&#45;&gt;Node4 -->
<g id="edge17" class="edge">
<title>Node18&#45;&gt;Node4</title>
<path fill="none" stroke="#63b8ff" d="M555.11,-300.81C565.12,-302.95 575.36,-305.22 585,-307.5 620.6,-315.91 660.97,-326.76 689.09,-334.54"/>
<polygon fill="#63b8ff" stroke="#63b8ff" points="555.94,-297.41 545.43,-298.77 554.49,-304.26 555.94,-297.41"/>
</g>
<!-- Node19 -->
<g id="node19" class="node">
<title>Node19</title>
<g id="a_node19"><a xlink:href="classRestartable.html" target="_top" xlink:title="A class for creating restricted objects.">
<polygon fill="white" stroke="#666666" points="534,-261 451,-261 451,-242 534,-242 534,-261"/>
<text text-anchor="middle" x="492.5" y="-249" font-family="Courier,monospace" font-size="10.00">Restartable</text>
</a>
</g>
</g>
<!-- Node19&#45;&gt;Node4 -->
<g id="edge18" class="edge">
<title>Node19&#45;&gt;Node4</title>
<path fill="none" stroke="#63b8ff" d="M545.51,-259.65C558.61,-262.41 572.49,-265.99 585,-270.5 632.71,-287.71 684.31,-318.69 709.27,-334.55"/>
<polygon fill="#63b8ff" stroke="#63b8ff" points="546.24,-256.22 535.75,-257.71 544.88,-263.09 546.24,-256.22"/>
</g>
<!-- Node20 -->
<g id="node20" class="node">
<title>Node20</title>
<g id="a_node20"><a xlink:href="classMeshChangedInterface.html" target="_top" xlink:title="Interface for notifications that the mesh has changed.">
<polygon fill="white" stroke="#666666" points="561,-224 424,-224 424,-205 561,-205 561,-224"/>
<text text-anchor="middle" x="492.5" y="-212" font-family="Courier,monospace" font-size="10.00">MeshChangedInterface</text>
</a>
</g>
</g>
<!-- Node20&#45;&gt;Node4 -->
<g id="edge19" class="edge">
<title>Node20&#45;&gt;Node4</title>
<path fill="none" stroke="#63b8ff" d="M570.64,-227.75C575.59,-229.44 580.41,-231.35 585,-233.5 641.05,-259.78 694.66,-312.75 715.44,-334.66"/>
<polygon fill="#63b8ff" stroke="#63b8ff" points="571.72,-224.42 561.13,-224.82 569.66,-231.11 571.72,-224.42"/>
</g>
<!-- Node21 -->
<g id="node21" class="node">
<title>Node21</title>
<g id="a_node21"><a xlink:href="classTaggingInterface.html" target="_top" xlink:title=" ">
<polygon fill="white" stroke="#666666" points="549,-187 436,-187 436,-168 549,-168 549,-187"/>
<text text-anchor="middle" x="492.5" y="-175" font-family="Courier,monospace" font-size="10.00">TaggingInterface</text>
</a>
</g>
</g>
<!-- Node21&#45;&gt;Node4 -->
<g id="edge20" class="edge">
<title>Node21&#45;&gt;Node4</title>
<path fill="none" stroke="#63b8ff" d="M560.15,-186.31C568.82,-188.89 577.33,-192.21 585,-196.5 585.52,-196.79 684.47,-301.95 715.39,-334.81"/>
<polygon fill="#63b8ff" stroke="#63b8ff" points="561.18,-182.96 550.62,-183.82 559.41,-189.74 561.18,-182.96"/>
</g>
<!-- Node22 -->
<g id="node22" class="node">
<title>Node22</title>
<g id="a_node22"><a xlink:href="classBoundaryRestrictableRequired.html" target="_top" xlink:title="A class for requiring an object to be boundary restricted.">
<polygon fill="white" stroke="#666666" points="818,-225 633,-225 633,-206 818,-206 818,-225"/>
<text text-anchor="middle" x="725.5" y="-213" font-family="Courier,monospace" font-size="10.00">BoundaryRestrictableRequired</text>
</a>
</g>
</g>
<!-- Node22&#45;&gt;Node3 -->
<g id="edge21" class="edge">
<title>Node22&#45;&gt;Node3</title>
<path fill="none" stroke="#63b8ff" d="M804.04,-203.84C839.51,-198.5 880.84,-192.29 913.69,-187.35"/>
<polygon fill="#63b8ff" stroke="#63b8ff" points="803.61,-200.36 794.24,-205.31 804.65,-207.28 803.61,-200.36"/>
</g>
<!-- Node23 -->
<g id="node23" class="node">
<title>Node23</title>
<g id="a_node23"><a xlink:href="classBoundaryRestrictable.html" target="_top" xlink:title="/class BoundaryRestrictable /brief Provides functionality for limiting the object to certain boundary...">
<polygon fill="white" stroke="#666666" points="561,-150 424,-150 424,-131 561,-131 561,-150"/>
<text text-anchor="middle" x="492.5" y="-138" font-family="Courier,monospace" font-size="10.00">BoundaryRestrictable</text>
</a>
</g>
</g>
<!-- Node23&#45;&gt;Node22 -->
<g id="edge22" class="edge">
<title>Node23&#45;&gt;Node22</title>
<path fill="none" stroke="#63b8ff" d="M571.93,-153.37C576.46,-155.16 580.86,-157.19 585,-159.5 605.32,-170.83 600.5,-186.5 621,-197.5 626.95,-200.69 633.34,-203.33 639.92,-205.52"/>
<polygon fill="#63b8ff" stroke="#63b8ff" points="573.19,-150.11 562.6,-150.14 570.9,-156.72 573.19,-150.11"/>
</g>
<!-- Node24 -->
<g id="node24" class="node">
<title>Node24</title>
<g id="a_node24"><a xlink:href="classDistributionInterface.html" target="_top" xlink:title="Interface for objects that need to use distributions.">
<polygon fill="white" stroke="#666666" points="797,-188 654,-188 654,-169 797,-169 797,-188"/>
<text text-anchor="middle" x="725.5" y="-176" font-family="Courier,monospace" font-size="10.00">DistributionInterface</text>
</a>
</g>
</g>
<!-- Node24&#45;&gt;Node3 -->
<g id="edge23" class="edge">
<title>Node24&#45;&gt;Node3</title>
<path fill="none" stroke="#63b8ff" d="M808.79,-178.5C843.19,-178.5 882.38,-178.5 913.78,-178.5"/>
<polygon fill="#63b8ff" stroke="#63b8ff" points="808.84,-175 798.84,-178.5 808.84,-182 808.84,-175"/>
</g>
<!-- Node25 -->
<g id="node25" class="node">
<title>Node25</title>
<g id="a_node25"><a xlink:href="classGeometricSearchInterface.html" target="_top" xlink:title=" ">
<polygon fill="white" stroke="#666666" points="806,-151 645,-151 645,-132 806,-132 806,-151"/>
<text text-anchor="middle" x="725.5" y="-139" font-family="Courier,monospace" font-size="10.00">GeometricSearchInterface</text>
</a>
</g>
</g>
<!-- Node25&#45;&gt;Node3 -->
<g id="edge24" class="edge">
<title>Node25&#45;&gt;Node3</title>
<path fill="none" stroke="#63b8ff" d="M804.04,-153.16C839.51,-158.5 880.84,-164.71 913.69,-169.65"/>
<polygon fill="#63b8ff" stroke="#63b8ff" points="804.65,-149.72 794.24,-151.69 803.61,-156.64 804.65,-149.72"/>
</g>
<!-- Node26 -->
<g id="node26" class="node">
<title>Node26</title>
<g id="a_node26"><a xlink:href="classCoupleableMooseVariableDependencyIntermediateInterface.html" target="_top" xlink:title="Intermediate base class that ties together all the interfaces for getting MooseVariableFEBases with t...">
<polygon fill="white" stroke="#666666" points="1081,-101.5 866,-101.5 866,-71.5 1081,-71.5 1081,-101.5"/>
<text text-anchor="start" x="874" y="-89.5" font-family="Courier,monospace" font-size="10.00">CoupleableMooseVariableDependency</text>
<text text-anchor="middle" x="973.5" y="-78.5" font-family="Courier,monospace" font-size="10.00">IntermediateInterface</text>
</a>
</g>
</g>
<!-- Node26&#45;&gt;Node2 -->
<g id="edge25" class="edge">
<title>Node26&#45;&gt;Node2</title>
<path fill="none" stroke="#63b8ff" d="M1092.49,-86.5C1107.17,-86.5 1121.61,-86.5 1134.69,-86.5"/>
<polygon fill="#63b8ff" stroke="#63b8ff" points="1092.75,-83 1082.75,-86.5 1092.75,-90 1092.75,-83"/>
</g>
<!-- Node27 -->
<g id="node27" class="node">
<title>Node27</title>
<g id="a_node27"><a xlink:href="classCoupleable.html" target="_top" xlink:title="Interface for objects that needs coupling capabilities.">
<polygon fill="white" stroke="#666666" points="764,-114 687,-114 687,-95 764,-95 764,-114"/>
<text text-anchor="middle" x="725.5" y="-102" font-family="Courier,monospace" font-size="10.00">Coupleable</text>
</a>
</g>
</g>
<!-- Node27&#45;&gt;Node26 -->
<g id="edge26" class="edge">
<title>Node27&#45;&gt;Node26</title>
<path fill="none" stroke="#63b8ff" d="M775.76,-100.9C801.62,-99 834.37,-96.61 865.69,-94.32"/>
<polygon fill="#63b8ff" stroke="#63b8ff" points="775.63,-97.4 765.91,-101.62 776.14,-104.38 775.63,-97.4"/>
</g>
<!-- Node28 -->
<g id="node28" class="node">
<title>Node28</title>
<g id="a_node28"><a xlink:href="classScalarCoupleable.html" target="_top" xlink:title="Interface for objects that needs scalar coupling capabilities.">
<polygon fill="white" stroke="#666666" points="782,-77 669,-77 669,-58 782,-58 782,-77"/>
<text text-anchor="middle" x="725.5" y="-65" font-family="Courier,monospace" font-size="10.00">ScalarCoupleable</text>
</a>
</g>
</g>
<!-- Node28&#45;&gt;Node26 -->
<g id="edge27" class="edge">
<title>Node28&#45;&gt;Node26</title>
<path fill="none" stroke="#63b8ff" d="M793.63,-72.68C815.83,-74.4 841.11,-76.35 865.53,-78.24"/>
<polygon fill="#63b8ff" stroke="#63b8ff" points="794.07,-69.21 783.83,-71.93 793.53,-76.19 794.07,-69.21"/>
</g>
<!-- Node29 -->
<g id="node29" class="node">
<title>Node29</title>
<g id="a_node29"><a xlink:href="classMooseVariableDependencyInterface.html" target="_top" xlink:title=" ">
<polygon fill="white" stroke="#666666" points="830,-40 621,-40 621,-21 830,-21 830,-40"/>
<text text-anchor="middle" x="725.5" y="-28" font-family="Courier,monospace" font-size="10.00">MooseVariableDependencyInterface</text>
</a>
</g>
</g>
<!-- Node29&#45;&gt;Node26 -->
<g id="edge28" class="edge">
<title>Node29&#45;&gt;Node26</title>
<path fill="none" stroke="#63b8ff" d="M805.06,-42.67C813.52,-44.43 821.97,-46.37 830,-48.5 846.44,-52.86 849.69,-56.66 866,-61.5 877.38,-64.88 889.55,-68.1 901.45,-71.03"/>
<polygon fill="#63b8ff" stroke="#63b8ff" points="805.93,-39.28 795.44,-40.77 804.57,-46.15 805.93,-39.28"/>
</g>
<!-- Node30 -->
<g id="node30" class="node">
<title>Node30</title>
<g id="a_node30"><a xlink:href="classMaterialPropertyInterface.html" target="_top" xlink:title="An interface for accessing Materials.">
<polygon fill="white" stroke="#666666" points="1057,-53 890,-53 890,-34 1057,-34 1057,-53"/>
<text text-anchor="middle" x="973.5" y="-41" font-family="Courier,monospace" font-size="10.00">MaterialPropertyInterface</text>
</a>
</g>
</g>
<!-- Node30&#45;&gt;Node2 -->
<g id="edge29" class="edge">
<title>Node30&#45;&gt;Node2</title>
<path fill="none" stroke="#63b8ff" d="M1044.07,-55.51C1056.39,-57.75 1069.08,-60.13 1081,-62.5 1102.76,-66.82 1126.86,-72.06 1146.89,-76.53"/>
<polygon fill="#63b8ff" stroke="#63b8ff" points="1044.84,-52.09 1034.38,-53.76 1043.6,-58.98 1044.84,-52.09"/>
</g>
<!-- Node31 -->
<g id="node31" class="node">
<title>Node31</title>
<g id="a_node31"><a xlink:href="classMooseVariableInterface.html" target="_top" xlink:title=" ">
<polygon fill="white" stroke="#666666" points="1266,-58.5 1117,-58.5 1117,-28.5 1266,-28.5 1266,-58.5"/>
<text text-anchor="start" x="1125" y="-46.5" font-family="Courier,monospace" font-size="10.00">MooseVariableInterface</text>
<text text-anchor="middle" x="1191.5" y="-35.5" font-family="Courier,monospace" font-size="10.00">&lt; RealEigenVector &gt;</text>
</a>
</g>
</g>
<!-- Node31&#45;&gt;Node1 -->
<g id="edge30" class="edge">
<title>Node31&#45;&gt;Node1</title>
<path fill="none" stroke="#63b8ff" d="M1277.59,-54.14C1285.68,-55.15 1293.75,-56.16 1301.5,-57.13"/>
<polygon fill="#63b8ff" stroke="#63b8ff" points="1278.05,-50.67 1267.69,-52.9 1277.18,-57.61 1278.05,-50.67"/>
</g>
<!-- Node33 -->
<g id="node33" class="node">
<title>Node33</title>
<g id="a_node33"><a xlink:href="classArrayHFEMDirichletBC.html" target="_top" xlink:title=" ">
<polygon fill="white" stroke="#666666" points="1785,-130 1648,-130 1648,-111 1785,-111 1785,-130"/>
<text text-anchor="middle" x="1716.5" y="-118" font-family="Courier,monospace" font-size="10.00">ArrayHFEMDirichletBC</text>
</a>
</g>
</g>
<!-- Node32&#45;&gt;Node33 -->
<g id="edge32" class="edge">
<title>Node32&#45;&gt;Node33</title>
<path fill="none" stroke="#63b8ff" d="M1623.72,-120.5C1631.78,-120.5 1639.87,-120.5 1647.71,-120.5"/>
<polygon fill="#63b8ff" stroke="#63b8ff" points="1623.87,-117 1613.87,-120.5 1623.87,-124 1623.87,-117"/>
</g>
</g>
</svg>
        <g id="navigator" transform="translate(0 0)" fill="#404254">
                <rect fill="#f2f5e9" fill-opacity="0.5" stroke="#606060" stroke-width=".5" x="0" y="0" width="60" height="60"/>
                <use id="zoomplus" xlink:href="#zoomPlus" x="17" y="9" onmousedown="handleZoom(evt,'in')"/>
                <use id="zoomminus" xlink:href="#zoomMin" x="42" y="9" onmousedown="handleZoom(evt,'out')"/>
                <use id="reset" xlink:href="#resetDef" x="30" y="36" onmousedown="handleReset()"/>
                <g id="arrowUp" xlink:href="#dirArrow" transform="translate(30 24)" onmousedown="handlePan(0,-1)">
                  <use xlink:href="#rim" fill="#404040">
                        <set attributeName="fill" to="#808080" begin="arrowUp.mouseover" end="arrowUp.mouseout"/>
                  </use>
                  <path fill="none" stroke="white" stroke-width="1.5" d="M0,-3.0v7 M-2.5,-0.5L0,-3.0L2.5,-0.5"/>
                </g>
                <g id="arrowRight" xlink:href="#dirArrow" transform="rotate(90) translate(36 -43)" onmousedown="handlePan(1,0)">
                  <use xlink:href="#rim" fill="#404040">
                        <set attributeName="fill" to="#808080" begin="arrowRight.mouseover" end="arrowRight.mouseout"/>
                  </use>
                  <path fill="none" stroke="white" stroke-width="1.5" d="M0,-3.0v7 M-2.5,-0.5L0,-3.0L2.5,-0.5"/>
                </g>
                <g id="arrowDown" xlink:href="#dirArrow" transform="rotate(180) translate(-30 -48)" onmousedown="handlePan(0,1)">
                  <use xlink:href="#rim" fill="#404040">
                        <set attributeName="fill" to="#808080" begin="arrowDown.mouseover" end="arrowDown.mouseout"/>
                  </use>
                  <path fill="none" stroke="white" stroke-width="1.5" d="M0,-3.0v7 M-2.5,-0.5L0,-3.0L2.5,-0.5"/>
                </g>
                <g id="arrowLeft" xlink:href="#dirArrow" transform="rotate(270) translate(-36 17)" onmousedown="handlePan(-1,0)">
                  <use xlink:href="#rim" fill="#404040">
                        <set attributeName="fill" to="#808080" begin="arrowLeft.mouseover" end="arrowLeft.mouseout"/>
                  </use>
                  <path fill="none" stroke="white" stroke-width="1.5" d="M0,-3.0v7 M-2.5,-0.5L0,-3.0L2.5,-0.5"/>
                </g>
        </g>
        <svg viewBox="0 0 15 15" width="100%" height="30px" preserveAspectRatio="xMaxYMin meet">
         <g id="arrow_out" transform="scale(0.3 0.3)">
          <a xlink:href="classArrayIntegratedBC__inherit__graph_org.svg" target="_base">
           <rect id="button" ry="5" rx="5" y="6" x="6" height="38" width="38"
                fill="#f2f5e9" fill-opacity="0.5" stroke="#606060" stroke-width="1.0"/>
           <path id="arrow"
             d="M 11.500037,31.436501 C 11.940474,20.09759 22.043105,11.32322 32.158766,21.979434 L 37.068811,17.246167 C 37.068811,17.246167 37.088388,32 37.088388,32 L 22.160133,31.978069 C 22.160133,31.978069 26.997745,27.140456 26.997745,27.140456 C 18.528582,18.264221 13.291696,25.230495 11.500037,31.436501 z"
             style="fill:#404040;"/>
          </a>
         </g>
        </svg>
</svg>
