<?xml version="1.0" encoding="UTF-8" standalone="no"?>
<!DOCTYPE svg PUBLIC "-//W3C//DTD SVG 1.1//EN"
 "http://www.w3.org/Graphics/SVG/1.1/DTD/svg11.dtd">
<!-- Generated by graphviz version 7.0.5 (20221223.1930)
 -->
<!-- Title: InterfaceUserObjectBase Pages: 1 -->
<!--zoomable 841 -->
<svg id="main" version="1.1" xmlns="http://www.w3.org/2000/svg" xmlns:xlink="http://www.w3.org/1999/xlink" xml:space="preserve" onload="init(evt)">
<style type="text/css"><![CDATA[
.edge:hover path { stroke: red; }
.edge:hover polygon { stroke: red; fill: red; }
]]></style>
<script type="text/javascript"><![CDATA[
var edges = document.getElementsByTagName('g');
if (edges && edges.length) {
  for (var i=0;i<edges.length;i++) {
    if (edges[i].id.substr(0,4)=='edge') {
      edges[i].setAttribute('class','edge');
    }
  }
}
]]></script>
        <defs>
                <circle id="rim" cx="0" cy="0" r="7"/>
                <circle id="rim2" cx="0" cy="0" r="3.5"/>
                <g id="zoomPlus">
                        <use xlink:href="#rim" fill="#404040">
                                <set attributeName="fill" to="#808080" begin="zoomplus.mouseover" end="zoomplus.mouseout"/>
                        </use>
                        <path d="M-4,0h8M0,-4v8" fill="none" stroke="white" stroke-width="1.5" pointer-events="none"/>
                </g>
                <g id="zoomMin">
                        <use xlink:href="#rim" fill="#404040">
                                <set attributeName="fill" to="#808080" begin="zoomminus.mouseover" end="zoomminus.mouseout"/>
                        </use>
                        <path d="M-4,0h8" fill="none" stroke="white" stroke-width="1.5" pointer-events="none"/>
                </g>
                <g id="dirArrow">
                        <path fill="none" stroke="white" stroke-width="1.5" d="M0,-3.0v7 M-2.5,-0.5L0,-3.0L2.5,-0.5"/>
                </g>
               <g id="resetDef">
                       <use xlink:href="#rim2" fill="#404040">
                               <set attributeName="fill" to="#808080" begin="reset.mouseover" end="reset.mouseout"/>
                       </use>
               </g>
        </defs>

<script type="text/javascript">
var viewWidth = 2110;
var viewHeight = 841;
var sectionId = 'dynsection-0';
</script>
<script xlink:href="svgpan.js"/>
<svg id="graph" class="graph">
<g id="viewport">
<title>InterfaceUserObjectBase</title>
<!-- Node1 -->
<g id="node1" class="node">
<title>Node1</title>
<g id="a_node1"><a xlink:title="Base class for implementing interface user objects.">
<polygon fill="#999999" stroke="#666666" points="1021,-130 866,-130 866,-111 1021,-111 1021,-130"/>
<text text-anchor="middle" x="943.5" y="-118" font-family="Courier,monospace" font-size="10.00">InterfaceUserObjectBase</text>
</a>
</g>
</g>
<!-- Node33 -->
<g id="node33" class="node">
<title>Node33</title>
<g id="a_node33"><a xlink:href="classInterfaceUserObject.html" target="_top" xlink:title="Base class for implementing interface user objects.">
<polygon fill="white" stroke="#666666" points="1188,-130 1057,-130 1057,-111 1188,-111 1188,-130"/>
<text text-anchor="middle" x="1122.5" y="-118" font-family="Courier,monospace" font-size="10.00">InterfaceUserObject</text>
</a>
</g>
</g>
<!-- Node1&#45;&gt;Node33 -->
<g id="edge32" class="edge">
<title>Node1&#45;&gt;Node33</title>
<path fill="none" stroke="#63b8ff" d="M1032.72,-120.5C1040.77,-120.5 1048.82,-120.5 1056.62,-120.5"/>
<polygon fill="#63b8ff" stroke="#63b8ff" points="1032.88,-117 1022.88,-120.5 1032.88,-124 1032.88,-117"/>
</g>
<!-- Node2 -->
<g id="node2" class="node">
<title>Node2</title>
<g id="a_node2"><a xlink:href="classUserObject.html" target="_top" xlink:title="Base class for user&#45;specific data.">
<polygon fill="white" stroke="#666666" points="764,-481 687,-481 687,-462 764,-462 764,-481"/>
<text text-anchor="middle" x="725.5" y="-469" font-family="Courier,monospace" font-size="10.00">UserObject</text>
</a>
</g>
</g>
<!-- Node2&#45;&gt;Node1 -->
<g id="edge1" class="edge">
<title>Node2&#45;&gt;Node1</title>
<path fill="none" stroke="#63b8ff" d="M738.3,-452.33C778.15,-387.57 906.89,-178.36 936.42,-130.37"/>
<polygon fill="#63b8ff" stroke="#63b8ff" points="735.56,-450.11 733.3,-460.46 741.52,-453.77 735.56,-450.11"/>
</g>
<!-- Node3 -->
<g id="node3" class="node">
<title>Node3</title>
<g id="a_node3"><a xlink:href="classMooseObject.html" target="_top" xlink:title="Every object that can be built by the factory should be derived from this class.">
<polygon fill="white" stroke="#666666" points="534,-759 451,-759 451,-740 534,-740 534,-759"/>
<text text-anchor="middle" x="492.5" y="-747" font-family="Courier,monospace" font-size="10.00">MooseObject</text>
</a>
</g>
</g>
<!-- Node3&#45;&gt;Node2 -->
<g id="edge2" class="edge">
<title>Node3&#45;&gt;Node2</title>
<path fill="none" stroke="#63b8ff" d="M545.39,-747.32C559.28,-744.69 573.59,-739.93 585,-731.5 675.85,-664.38 713.69,-519.99 722.44,-481.24"/>
<polygon fill="#63b8ff" stroke="#63b8ff" points="545.25,-743.8 535.9,-748.77 546.31,-750.72 545.25,-743.8"/>
</g>
<!-- Node4 -->
<g id="node4" class="node">
<title>Node4</title>
<g id="a_node4"><a xlink:href="classMooseBase.html" target="_top" xlink:title="Base class for everything in MOOSE with a name and a type.">
<polygon fill="white" stroke="#666666" points="310,-833 239,-833 239,-814 310,-814 310,-833"/>
<text text-anchor="middle" x="274.5" y="-821" font-family="Courier,monospace" font-size="10.00">MooseBase</text>
</a>
</g>
</g>
<!-- Node4&#45;&gt;Node3 -->
<g id="edge3" class="edge">
<title>Node4&#45;&gt;Node3</title>
<path fill="none" stroke="#63b8ff" d="M321.62,-816.05C335.41,-813.31 350.46,-809.8 364,-805.5 403.87,-792.85 448.08,-771.72 472.56,-759.35"/>
<polygon fill="#63b8ff" stroke="#63b8ff" points="321.06,-812.59 311.89,-817.89 322.36,-819.47 321.06,-812.59"/>
</g>
<!-- Node5 -->
<g id="node5" class="node">
<title>Node5</title>
<g id="a_node5"><a xlink:href="classMooseBaseParameterInterface.html" target="_top" xlink:title="Every object that can be built by the factory should be derived from this class.">
<polygon fill="white" stroke="#666666" points="364,-796 185,-796 185,-777 364,-777 364,-796"/>
<text text-anchor="middle" x="274.5" y="-784" font-family="Courier,monospace" font-size="10.00">MooseBaseParameterInterface</text>
</a>
</g>
</g>
<!-- Node5&#45;&gt;Node3 -->
<g id="edge4" class="edge">
<title>Node5&#45;&gt;Node3</title>
<path fill="none" stroke="#63b8ff" d="M344.77,-774.63C379.7,-768.65 420.85,-761.6 450.68,-756.49"/>
<polygon fill="#63b8ff" stroke="#63b8ff" points="344.43,-771.14 335.16,-776.28 345.61,-778.04 344.43,-771.14"/>
</g>
<!-- Node6 -->
<g id="node6" class="node">
<title>Node6</title>
<g id="a_node6"><a xlink:href="classMooseBaseErrorInterface.html" target="_top" xlink:title="Interface that provides APIs to output errors/warnings/info messages.">
<polygon fill="white" stroke="#666666" points="352,-759 197,-759 197,-740 352,-740 352,-759"/>
<text text-anchor="middle" x="274.5" y="-747" font-family="Courier,monospace" font-size="10.00">MooseBaseErrorInterface</text>
</a>
</g>
</g>
<!-- Node6&#45;&gt;Node3 -->
<g id="edge5" class="edge">
<title>Node6&#45;&gt;Node3</title>
<path fill="none" stroke="#63b8ff" d="M363.7,-749.5C393.87,-749.5 426.17,-749.5 450.75,-749.5"/>
<polygon fill="#63b8ff" stroke="#63b8ff" points="363.78,-746 353.78,-749.5 363.78,-753 363.78,-746"/>
</g>
<!-- Node7 -->
<g id="node7" class="node">
<title>Node7</title>
<g id="a_node7"><a xlink:href="classConsoleStreamInterface.html" target="_top" xlink:title="An inteface for the _console for outputting to the Console object.">
<polygon fill="white" stroke="#666666" points="149,-759 0,-759 0,-740 149,-740 149,-759"/>
<text text-anchor="middle" x="74.5" y="-747" font-family="Courier,monospace" font-size="10.00">ConsoleStreamInterface</text>
</a>
</g>
</g>
<!-- Node7&#45;&gt;Node6 -->
<g id="edge6" class="edge">
<title>Node7&#45;&gt;Node6</title>
<path fill="none" stroke="#63b8ff" d="M160.62,-749.5C172.62,-749.5 184.9,-749.5 196.73,-749.5"/>
<polygon fill="#63b8ff" stroke="#63b8ff" points="160.74,-746 150.74,-749.5 160.74,-753 160.74,-746"/>
</g>
<!-- Node8 -->
<g id="node8" class="node">
<title>Node8</title>
<g id="a_node8"><a xlink:title=" ">
<polygon fill="white" stroke="#666666" points="352,-722 197,-722 197,-703 352,-703 352,-722"/>
<text text-anchor="middle" x="274.5" y="-710" font-family="Courier,monospace" font-size="10.00">libMesh::ParallelObject</text>
</a>
</g>
</g>
<!-- Node8&#45;&gt;Node3 -->
<g id="edge7" class="edge">
<title>Node8&#45;&gt;Node3</title>
<path fill="none" stroke="#63b8ff" d="M344.77,-724.37C379.7,-730.35 420.85,-737.4 450.68,-742.51"/>
<polygon fill="#63b8ff" stroke="#63b8ff" points="345.61,-720.96 335.16,-722.72 344.43,-727.86 345.61,-720.96"/>
</g>
<!-- Node9 -->
<g id="node9" class="node">
<title>Node9</title>
<g id="a_node9"><a xlink:href="classDataFileInterface.html" target="_top" xlink:title=" ">
<polygon fill="white" stroke="#666666" points="337,-684.5 212,-684.5 212,-654.5 337,-654.5 337,-684.5"/>
<text text-anchor="start" x="220" y="-672.5" font-family="Courier,monospace" font-size="10.00">DataFileInterface&lt;</text>
<text text-anchor="middle" x="274.5" y="-661.5" font-family="Courier,monospace" font-size="10.00"> MooseObject &gt;</text>
</a>
</g>
</g>
<!-- Node9&#45;&gt;Node3 -->
<g id="edge8" class="edge">
<title>Node9&#45;&gt;Node3</title>
<path fill="none" stroke="#63b8ff" d="M347.62,-686.35C353.32,-688.73 358.86,-691.44 364,-694.5 383.71,-706.24 379.83,-720.57 400,-731.5 415.37,-739.83 434.06,-744.34 450.53,-746.76"/>
<polygon fill="#63b8ff" stroke="#63b8ff" points="349.23,-683.22 338.64,-682.94 346.74,-689.76 349.23,-683.22"/>
</g>
<!-- Node10 -->
<g id="node10" class="node">
<title>Node10</title>
<g id="a_node10"><a xlink:href="classSetupInterface.html" target="_top" xlink:title=" ">
<polygon fill="white" stroke="#666666" points="543,-722 442,-722 442,-703 543,-703 543,-722"/>
<text text-anchor="middle" x="492.5" y="-710" font-family="Courier,monospace" font-size="10.00">SetupInterface</text>
</a>
</g>
</g>
<!-- Node10&#45;&gt;Node2 -->
<g id="edge9" class="edge">
<title>Node10&#45;&gt;Node2</title>
<path fill="none" stroke="#63b8ff" d="M554.61,-707.68C565.37,-704.88 575.99,-700.7 585,-694.5 666.99,-638.04 710.5,-516.03 721.61,-481.05"/>
<polygon fill="#63b8ff" stroke="#63b8ff" points="553.92,-704.25 544.89,-709.8 555.41,-711.09 553.92,-704.25"/>
</g>
<!-- Node11 -->
<g id="node11" class="node">
<title>Node11</title>
<g id="a_node11"><a xlink:href="classFunctionInterface.html" target="_top" xlink:title="Interface for objects that need to use functions.">
<polygon fill="white" stroke="#666666" points="552,-685 433,-685 433,-666 552,-666 552,-685"/>
<text text-anchor="middle" x="492.5" y="-673" font-family="Courier,monospace" font-size="10.00">FunctionInterface</text>
</a>
</g>
</g>
<!-- Node11&#45;&gt;Node2 -->
<g id="edge10" class="edge">
<title>Node11&#45;&gt;Node2</title>
<path fill="none" stroke="darkgreen" d="M563.08,-667.49C570.8,-664.97 578.29,-661.71 585,-657.5 658.15,-611.56 706.48,-512.45 720.37,-481.17"/>
<polygon fill="darkgreen" stroke="darkgreen" points="562.2,-664.1 553.52,-670.17 564.09,-670.84 562.2,-664.1"/>
</g>
<!-- Node12 -->
<g id="node12" class="node">
<title>Node12</title>
<g id="a_node12"><a xlink:href="classUserObjectInterface.html" target="_top" xlink:title="Interface for objects that need to use UserObjects.">
<polygon fill="white" stroke="#666666" points="558,-648 427,-648 427,-629 558,-629 558,-648"/>
<text text-anchor="middle" x="492.5" y="-636" font-family="Courier,monospace" font-size="10.00">UserObjectInterface</text>
</a>
</g>
</g>
<!-- Node12&#45;&gt;Node2 -->
<g id="edge11" class="edge">
<title>Node12&#45;&gt;Node2</title>
<path fill="none" stroke="#63b8ff" d="M569.1,-627.62C574.63,-625.63 580,-623.27 585,-620.5 649.46,-584.76 701.26,-508.73 718.42,-481.48"/>
<polygon fill="#63b8ff" stroke="#63b8ff" points="568.23,-624.22 559.74,-630.57 570.33,-630.9 568.23,-624.22"/>
</g>
<!-- Node13 -->
<g id="node13" class="node">
<title>Node13</title>
<g id="a_node13"><a xlink:href="classPostprocessorInterface.html" target="_top" xlink:title="Interface class for classes which interact with Postprocessors.">
<polygon fill="white" stroke="#666666" points="567,-611 418,-611 418,-592 567,-592 567,-611"/>
<text text-anchor="middle" x="492.5" y="-599" font-family="Courier,monospace" font-size="10.00">PostprocessorInterface</text>
</a>
</g>
</g>
<!-- Node13&#45;&gt;Node2 -->
<g id="edge12" class="edge">
<title>Node13&#45;&gt;Node2</title>
<path fill="none" stroke="darkgreen" d="M573.95,-588.02C577.74,-586.66 581.44,-585.15 585,-583.5 641.32,-557.3 694.79,-503.68 715.48,-481.47"/>
<polygon fill="darkgreen" stroke="darkgreen" points="572.97,-584.66 564.53,-591.05 575.12,-591.32 572.97,-584.66"/>
</g>
<!-- Node14 -->
<g id="node14" class="node">
<title>Node14</title>
<g id="a_node14"><a xlink:href="classVectorPostprocessorInterface.html" target="_top" xlink:title=" ">
<polygon fill="white" stroke="#666666" points="585,-574 400,-574 400,-555 585,-555 585,-574"/>
<text text-anchor="middle" x="492.5" y="-562" font-family="Courier,monospace" font-size="10.00">VectorPostprocessorInterface</text>
</a>
</g>
</g>
<!-- Node14&#45;&gt;Node2 -->
<g id="edge13" class="edge">
<title>Node14&#45;&gt;Node2</title>
<path fill="none" stroke="darkgreen" d="M568.24,-551.73C573.97,-550.17 579.61,-548.43 585,-546.5 633.15,-529.26 684.97,-497.48 709.71,-481.39"/>
<polygon fill="darkgreen" stroke="darkgreen" points="567.48,-548.32 558.64,-554.16 569.19,-555.1 567.48,-548.32"/>
</g>
<!-- Node15 -->
<g id="node15" class="node">
<title>Node15</title>
<g id="a_node15"><a xlink:href="classReporterInterface.html" target="_top" xlink:title="Interface to allow object to consume Reporter values.">
<polygon fill="white" stroke="#666666" points="552,-537 433,-537 433,-518 552,-518 552,-537"/>
<text text-anchor="middle" x="492.5" y="-525" font-family="Courier,monospace" font-size="10.00">ReporterInterface</text>
</a>
</g>
</g>
<!-- Node15&#45;&gt;Node2 -->
<g id="edge14" class="edge">
<title>Node15&#45;&gt;Node2</title>
<path fill="none" stroke="darkgreen" d="M558.53,-515.3C567.45,-513.46 576.47,-511.5 585,-509.5 621.29,-501 662.42,-489.57 690.56,-481.48"/>
<polygon fill="darkgreen" stroke="darkgreen" points="557.93,-511.85 548.83,-517.27 559.32,-518.71 557.93,-511.85"/>
</g>
<!-- Node16 -->
<g id="node16" class="node">
<title>Node16</title>
<g id="a_node16"><a xlink:href="classDistributionInterface.html" target="_top" xlink:title="Interface for objects that need to use distributions.">
<polygon fill="white" stroke="#666666" points="564,-500 421,-500 421,-481 564,-481 564,-500"/>
<text text-anchor="middle" x="492.5" y="-488" font-family="Courier,monospace" font-size="10.00">DistributionInterface</text>
</a>
</g>
</g>
<!-- Node16&#45;&gt;Node2 -->
<g id="edge15" class="edge">
<title>Node16&#45;&gt;Node2</title>
<path fill="none" stroke="darkgreen" d="M575.43,-483.76C613.35,-480.64 656.56,-477.09 686.65,-474.61"/>
<polygon fill="darkgreen" stroke="darkgreen" points="575.57,-480.24 565.89,-484.55 576.14,-487.21 575.57,-480.24"/>
</g>
<!-- Node17 -->
<g id="node17" class="node">
<title>Node17</title>
<g id="a_node17"><a xlink:href="classSamplerInterface.html" target="_top" xlink:title="Interface for objects that need to use samplers.">
<polygon fill="white" stroke="#666666" points="549,-463 436,-463 436,-444 549,-444 549,-463"/>
<text text-anchor="middle" x="492.5" y="-451" font-family="Courier,monospace" font-size="10.00">SamplerInterface</text>
</a>
</g>
</g>
<!-- Node17&#45;&gt;Node2 -->
<g id="edge16" class="edge">
<title>Node17&#45;&gt;Node2</title>
<path fill="none" stroke="darkgreen" d="M560.71,-458.74C601.74,-461.93 652.7,-465.91 686.78,-468.56"/>
<polygon fill="darkgreen" stroke="darkgreen" points="561.17,-455.26 550.93,-457.97 560.63,-462.24 561.17,-455.26"/>
</g>
<!-- Node18 -->
<g id="node18" class="node">
<title>Node18</title>
<g id="a_node18"><a xlink:href="classRestartable.html" target="_top" xlink:title="A class for creating restricted objects.">
<polygon fill="white" stroke="#666666" points="534,-426 451,-426 451,-407 534,-407 534,-426"/>
<text text-anchor="middle" x="492.5" y="-414" font-family="Courier,monospace" font-size="10.00">Restartable</text>
</a>
</g>
</g>
<!-- Node18&#45;&gt;Node2 -->
<g id="edge17" class="edge">
<title>Node18&#45;&gt;Node2</title>
<path fill="none" stroke="darkgreen" d="M545.27,-426.8C558.27,-429.51 572.17,-432.51 585,-435.5 620.08,-443.66 659.83,-454.03 687.9,-461.55"/>
<polygon fill="darkgreen" stroke="darkgreen" points="546.11,-423.4 535.61,-424.81 544.7,-430.26 546.11,-423.4"/>
</g>
<!-- Node19 -->
<g id="node19" class="node">
<title>Node19</title>
<g id="a_node19"><a xlink:href="classMeshMetaDataInterface.html" target="_top" xlink:title="The Interface used to retrieve mesh meta data (attributes) set by the MeshGenerator system.">
<polygon fill="white" stroke="#666666" points="564,-389 421,-389 421,-370 564,-370 564,-389"/>
<text text-anchor="middle" x="492.5" y="-377" font-family="Courier,monospace" font-size="10.00">MeshMetaDataInterface</text>
</a>
</g>
</g>
<!-- Node19&#45;&gt;Node2 -->
<g id="edge18" class="edge">
<title>Node19&#45;&gt;Node2</title>
<path fill="none" stroke="darkgreen" d="M564.33,-392.15C571.39,-394.02 578.38,-396.13 585,-398.5 632.62,-415.53 684.26,-446.07 709.25,-461.7"/>
<polygon fill="darkgreen" stroke="darkgreen" points="565.25,-388.77 554.7,-389.77 563.56,-395.57 565.25,-388.77"/>
</g>
<!-- Node20 -->
<g id="node20" class="node">
<title>Node20</title>
<g id="a_node20"><a xlink:href="classMeshChangedInterface.html" target="_top" xlink:title="Interface for notifications that the mesh has changed.">
<polygon fill="white" stroke="#666666" points="561,-352 424,-352 424,-333 561,-333 561,-352"/>
<text text-anchor="middle" x="492.5" y="-340" font-family="Courier,monospace" font-size="10.00">MeshChangedInterface</text>
</a>
</g>
</g>
<!-- Node20&#45;&gt;Node2 -->
<g id="edge19" class="edge">
<title>Node20&#45;&gt;Node2</title>
<path fill="none" stroke="darkgreen" d="M570.63,-355.77C575.58,-357.46 580.41,-359.36 585,-361.5 640.91,-387.56 694.6,-440.04 715.42,-461.75"/>
<polygon fill="darkgreen" stroke="darkgreen" points="571.71,-352.44 561.12,-352.85 569.65,-359.13 571.71,-352.44"/>
</g>
<!-- Node21 -->
<g id="node21" class="node">
<title>Node21</title>
<g id="a_node21"><a xlink:href="classScalarCoupleable.html" target="_top" xlink:title="Interface for objects that needs scalar coupling capabilities.">
<polygon fill="white" stroke="#666666" points="549,-315 436,-315 436,-296 549,-296 549,-315"/>
<text text-anchor="middle" x="492.5" y="-303" font-family="Courier,monospace" font-size="10.00">ScalarCoupleable</text>
</a>
</g>
</g>
<!-- Node21&#45;&gt;Node2 -->
<g id="edge20" class="edge">
<title>Node21&#45;&gt;Node2</title>
<path fill="none" stroke="darkgreen" d="M560.14,-314.34C568.81,-316.91 577.33,-320.23 585,-324.5 648.93,-360.11 701.07,-434.9 718.37,-461.69"/>
<polygon fill="darkgreen" stroke="darkgreen" points="561.16,-310.99 550.6,-311.84 559.39,-317.76 561.16,-310.99"/>
</g>
<!-- Node22 -->
<g id="node22" class="node">
<title>Node22</title>
<g id="a_node22"><a xlink:href="classPerfGraphInterface.html" target="_top" xlink:title="Interface for objects interacting with the PerfGraph.">
<polygon fill="white" stroke="#666666" points="555,-278 430,-278 430,-259 555,-259 555,-278"/>
<text text-anchor="middle" x="492.5" y="-266" font-family="Courier,monospace" font-size="10.00">PerfGraphInterface</text>
</a>
</g>
</g>
<!-- Node22&#45;&gt;Node2 -->
<g id="edge21" class="edge">
<title>Node22&#45;&gt;Node2</title>
<path fill="none" stroke="darkgreen" d="M566.03,-278.39C572.71,-280.81 579.15,-283.8 585,-287.5 657.19,-333.1 705.82,-430.2 720.12,-461.53"/>
<polygon fill="darkgreen" stroke="darkgreen" points="567.44,-275.17 556.85,-275.5 565.34,-281.84 567.44,-275.17"/>
</g>
<!-- Node23 -->
<g id="node23" class="node">
<title>Node23</title>
<g id="a_node23"><a xlink:href="classDependencyResolverInterface.html" target="_top" xlink:title="Interface for sorting dependent vectors of objects.">
<polygon fill="white" stroke="#666666" points="582,-241 403,-241 403,-222 582,-222 582,-241"/>
<text text-anchor="middle" x="492.5" y="-229" font-family="Courier,monospace" font-size="10.00">DependencyResolverInterface</text>
</a>
</g>
</g>
<!-- Node23&#45;&gt;Node2 -->
<g id="edge22" class="edge">
<title>Node23&#45;&gt;Node2</title>
<path fill="none" stroke="#63b8ff" d="M577.97,-246.18C580.4,-247.5 582.75,-248.94 585,-250.5 665.91,-306.6 709.89,-426.39 721.41,-461.58"/>
<polygon fill="#63b8ff" stroke="#63b8ff" points="579.52,-243.04 568.98,-241.99 576.57,-249.39 579.52,-243.04"/>
</g>
<!-- Node24 -->
<g id="node24" class="node">
<title>Node24</title>
<g id="a_node24"><a xlink:href="classBoundaryRestrictableRequired.html" target="_top" xlink:title="A class for requiring an object to be boundary restricted.">
<polygon fill="white" stroke="#666666" points="818,-204 633,-204 633,-185 818,-185 818,-204"/>
<text text-anchor="middle" x="725.5" y="-192" font-family="Courier,monospace" font-size="10.00">BoundaryRestrictableRequired</text>
</a>
</g>
</g>
<!-- Node24&#45;&gt;Node1 -->
<g id="edge23" class="edge">
<title>Node24&#45;&gt;Node1</title>
<path fill="none" stroke="#63b8ff" d="M810.68,-181.99C817.28,-180.36 823.78,-178.54 830,-176.5 866.07,-164.67 905.08,-143.05 926.37,-130.41"/>
<polygon fill="#63b8ff" stroke="#63b8ff" points="809.98,-178.56 801.01,-184.2 811.54,-185.38 809.98,-178.56"/>
</g>
<!-- Node25 -->
<g id="node25" class="node">
<title>Node25</title>
<g id="a_node25"><a xlink:href="classBoundaryRestrictable.html" target="_top" xlink:title="/class BoundaryRestrictable /brief Provides functionality for limiting the object to certain boundary...">
<polygon fill="white" stroke="#666666" points="561,-204 424,-204 424,-185 561,-185 561,-204"/>
<text text-anchor="middle" x="492.5" y="-192" font-family="Courier,monospace" font-size="10.00">BoundaryRestrictable</text>
</a>
</g>
</g>
<!-- Node25&#45;&gt;Node24 -->
<g id="edge24" class="edge">
<title>Node25&#45;&gt;Node24</title>
<path fill="none" stroke="#63b8ff" d="M572.74,-194.5C592.06,-194.5 612.88,-194.5 632.73,-194.5"/>
<polygon fill="#63b8ff" stroke="#63b8ff" points="572.76,-191 562.76,-194.5 572.76,-198 572.76,-191"/>
</g>
<!-- Node26 -->
<g id="node26" class="node">
<title>Node26</title>
<g id="a_node26"><a xlink:href="classTwoMaterialPropertyInterface.html" target="_top" xlink:title="This interface is designed for DGKernel, InternalSideUserObject, InterfaceUserObject,...">
<polygon fill="white" stroke="#666666" points="818,-167 633,-167 633,-148 818,-148 818,-167"/>
<text text-anchor="middle" x="725.5" y="-155" font-family="Courier,monospace" font-size="10.00">TwoMaterialPropertyInterface</text>
</a>
</g>
</g>
<!-- Node26&#45;&gt;Node1 -->
<g id="edge25" class="edge">
<title>Node26&#45;&gt;Node1</title>
<path fill="none" stroke="#63b8ff" d="M795.78,-145.63C824.3,-140.75 856.97,-135.15 884.23,-130.48"/>
<polygon fill="#63b8ff" stroke="#63b8ff" points="795.43,-142.14 786.16,-147.28 796.61,-149.04 795.43,-142.14"/>
</g>
<!-- Node27 -->
<g id="node27" class="node">
<title>Node27</title>
<g id="a_node27"><a xlink:href="classMaterialPropertyInterface.html" target="_top" xlink:title="An interface for accessing Materials.">
<polygon fill="white" stroke="#666666" points="576,-167 409,-167 409,-148 576,-148 576,-167"/>
<text text-anchor="middle" x="492.5" y="-155" font-family="Courier,monospace" font-size="10.00">MaterialPropertyInterface</text>
</a>
</g>
</g>
<!-- Node27&#45;&gt;Node26 -->
<g id="edge26" class="edge">
<title>Node27&#45;&gt;Node26</title>
<path fill="none" stroke="#63b8ff" d="M587.5,-157.5C602.36,-157.5 617.72,-157.5 632.54,-157.5"/>
<polygon fill="#63b8ff" stroke="#63b8ff" points="587.76,-154 577.76,-157.5 587.76,-161 587.76,-154"/>
</g>
<!-- Node28 -->
<g id="node28" class="node">
<title>Node28</title>
<g id="a_node28"><a xlink:href="classNeighborCoupleable.html" target="_top" xlink:title="Enhances Coupleable interface to also couple the values from neighbor elements.">
<polygon fill="white" stroke="#666666" points="788,-130 663,-130 663,-111 788,-111 788,-130"/>
<text text-anchor="middle" x="725.5" y="-118" font-family="Courier,monospace" font-size="10.00">NeighborCoupleable</text>
</a>
</g>
</g>
<!-- Node28&#45;&gt;Node1 -->
<g id="edge27" class="edge">
<title>Node28&#45;&gt;Node1</title>
<path fill="none" stroke="#63b8ff" d="M799.63,-120.5C820.87,-120.5 844.13,-120.5 865.6,-120.5"/>
<polygon fill="#63b8ff" stroke="#63b8ff" points="799.91,-117 789.91,-120.5 799.91,-124 799.91,-117"/>
</g>
<!-- Node29 -->
<g id="node29" class="node">
<title>Node29</title>
<g id="a_node29"><a xlink:href="classCoupleable.html" target="_top" xlink:title="Interface for objects that needs coupling capabilities.">
<polygon fill="white" stroke="#666666" points="531,-130 454,-130 454,-111 531,-111 531,-130"/>
<text text-anchor="middle" x="492.5" y="-118" font-family="Courier,monospace" font-size="10.00">Coupleable</text>
</a>
</g>
</g>
<!-- Node29&#45;&gt;Node28 -->
<g id="edge28" class="edge">
<title>Node29&#45;&gt;Node28</title>
<path fill="none" stroke="#63b8ff" d="M542.76,-120.5C577.79,-120.5 625.09,-120.5 662.66,-120.5"/>
<polygon fill="#63b8ff" stroke="#63b8ff" points="542.9,-117 532.9,-120.5 542.9,-124 542.9,-117"/>
</g>
<!-- Node30 -->
<g id="node30" class="node">
<title>Node30</title>
<g id="a_node30"><a xlink:href="classMooseVariableDependencyInterface.html" target="_top" xlink:title=" ">
<polygon fill="white" stroke="#666666" points="830,-93 621,-93 621,-74 830,-74 830,-93"/>
<text text-anchor="middle" x="725.5" y="-81" font-family="Courier,monospace" font-size="10.00">MooseVariableDependencyInterface</text>
</a>
</g>
</g>
<!-- Node30&#45;&gt;Node1 -->
<g id="edge29" class="edge">
<title>Node30&#45;&gt;Node1</title>
<path fill="none" stroke="#63b8ff" d="M795.78,-95.37C824.3,-100.25 856.97,-105.85 884.23,-110.52"/>
<polygon fill="#63b8ff" stroke="#63b8ff" points="796.61,-91.96 786.16,-93.72 795.43,-98.86 796.61,-91.96"/>
</g>
<!-- Node31 -->
<g id="node31" class="node">
<title>Node31</title>
<g id="a_node31"><a xlink:href="classTransientInterface.html" target="_top" xlink:title="Interface for objects that needs transient capabilities.">
<polygon fill="white" stroke="#666666" points="788,-56 663,-56 663,-37 788,-37 788,-56"/>
<text text-anchor="middle" x="725.5" y="-44" font-family="Courier,monospace" font-size="10.00">TransientInterface</text>
</a>
</g>
</g>
<!-- Node31&#45;&gt;Node1 -->
<g id="edge30" class="edge">
<title>Node31&#45;&gt;Node1</title>
<path fill="none" stroke="#63b8ff" d="M799.62,-57.33C809.93,-59.61 820.32,-62.31 830,-65.5 865.72,-77.26 904.54,-98.25 925.96,-110.61"/>
<polygon fill="#63b8ff" stroke="#63b8ff" points="800.47,-53.94 789.97,-55.34 799.06,-60.79 800.47,-53.94"/>
</g>
<!-- Node32 -->
<g id="node32" class="node">
<title>Node32</title>
<g id="a_node32"><a xlink:href="classElementIDInterface.html" target="_top" xlink:title=" ">
<polygon fill="white" stroke="#666666" points="788,-19 663,-19 663,0 788,0 788,-19"/>
<text text-anchor="middle" x="725.5" y="-7" font-family="Courier,monospace" font-size="10.00">ElementIDInterface</text>
</a>
</g>
</g>
<!-- Node32&#45;&gt;Node1 -->
<g id="edge31" class="edge">
<title>Node32&#45;&gt;Node1</title>
<path fill="none" stroke="#63b8ff" d="M799.27,-18.04C809.85,-20.65 820.4,-24.06 830,-28.5 874.42,-49.06 916.12,-91.29 933.72,-110.54"/>
<polygon fill="#63b8ff" stroke="#63b8ff" points="800.27,-14.68 789.75,-15.93 798.76,-21.51 800.27,-14.68"/>
</g>
<!-- Node34 -->
<g id="node34" class="node">
<title>Node34</title>
<g id="a_node34"><a xlink:href="classInterfacePostprocessor.html" target="_top" xlink:title="BASE CLASS FOR IMPLEMENTING INTERFACE POSTRPOCESSOR ALL INTERFACE POSTPROCESOR SHOULD DERIVE FROM THI...">
<polygon fill="white" stroke="#666666" points="1391,-172 1242,-172 1242,-153 1391,-153 1391,-172"/>
<text text-anchor="middle" x="1316.5" y="-160" font-family="Courier,monospace" font-size="10.00">InterfacePostprocessor</text>
</a>
</g>
</g>
<!-- Node33&#45;&gt;Node34 -->
<g id="edge33" class="edge">
<title>Node33&#45;&gt;Node34</title>
<path fill="none" stroke="#63b8ff" d="M1180.08,-132.88C1208.74,-139.15 1243.07,-146.66 1269.99,-152.55"/>
<polygon fill="#63b8ff" stroke="#63b8ff" points="1181,-129.49 1170.48,-130.78 1179.5,-136.33 1181,-129.49"/>
</g>
<!-- Node40 -->
<g id="node40" class="node">
<title>Node40</title>
<g id="a_node40"><a xlink:href="classInterfaceValueUserObject.html" target="_top" xlink:title="A special InterfaceUserObject computing average values across an interface given the average type (se...">
<polygon fill="white" stroke="#666666" points="1397,-130 1236,-130 1236,-111 1397,-111 1397,-130"/>
<text text-anchor="middle" x="1316.5" y="-118" font-family="Courier,monospace" font-size="10.00">InterfaceValueUserObject</text>
</a>
</g>
</g>
<!-- Node33&#45;&gt;Node40 -->
<g id="edge39" class="edge">
<title>Node33&#45;&gt;Node40</title>
<path fill="none" stroke="#63b8ff" d="M1199.49,-120.5C1211.39,-120.5 1223.73,-120.5 1235.71,-120.5"/>
<polygon fill="#63b8ff" stroke="#63b8ff" points="1199.75,-117 1189.75,-120.5 1199.75,-124 1199.75,-117"/>
</g>
<!-- Node46 -->
<g id="node46" class="node">
<title>Node46</title>
<g id="a_node46"><a xlink:href="classInterfaceVectorPostprocessor.html" target="_top" xlink:title=" ">
<polygon fill="white" stroke="#666666" points="1409,-93 1224,-93 1224,-74 1409,-74 1409,-93"/>
<text text-anchor="middle" x="1316.5" y="-81" font-family="Courier,monospace" font-size="10.00">InterfaceVectorPostprocessor</text>
</a>
</g>
</g>
<!-- Node33&#45;&gt;Node46 -->
<g id="edge45" class="edge">
<title>Node33&#45;&gt;Node46</title>
<path fill="none" stroke="#63b8ff" d="M1186.43,-108.37C1211.46,-103.55 1239.9,-98.07 1263.7,-93.48"/>
<polygon fill="#63b8ff" stroke="#63b8ff" points="1185.85,-104.92 1176.69,-110.25 1187.17,-111.79 1185.85,-104.92"/>
</g>
<!-- Node35 -->
<g id="node35" class="node">
<title>Node35</title>
<g id="a_node35"><a xlink:href="classInterfaceIntegralPostprocessor.html" target="_top" xlink:title="This postprocessor add generel capabilities to the InterfacePostprocessor to compute an integral over...">
<polygon fill="white" stroke="#666666" points="1642,-187 1445,-187 1445,-168 1642,-168 1642,-187"/>
<text text-anchor="middle" x="1543.5" y="-175" font-family="Courier,monospace" font-size="10.00">InterfaceIntegralPostprocessor</text>
</a>
</g>
</g>
<!-- Node34&#45;&gt;Node35 -->
<g id="edge34" class="edge">
<title>Node34&#45;&gt;Node35</title>
<path fill="none" stroke="#63b8ff" d="M1402.84,-168.19C1416.54,-169.1 1430.8,-170.05 1444.76,-170.98"/>
<polygon fill="#63b8ff" stroke="#63b8ff" points="1403.21,-164.71 1393,-167.53 1402.74,-171.69 1403.21,-164.71"/>
</g>
<!-- Node36 -->
<g id="node36" class="node">
<title>Node36</title>
<g id="a_node36"><a xlink:href="classInterfaceDiffusiveFluxIntegralTempl.html" target="_top" xlink:title="This postprocessor computes an integral of the diffusive flux over an interface.">
<polygon fill="white" stroke="#666666" points="1875,-240.5 1678,-240.5 1678,-210.5 1875,-210.5 1875,-240.5"/>
<text text-anchor="start" x="1686" y="-228.5" font-family="Courier,monospace" font-size="10.00">InterfaceDiffusiveFluxIntegral</text>
<text text-anchor="middle" x="1776.5" y="-217.5" font-family="Courier,monospace" font-size="10.00">Templ&lt; is_ad &gt;</text>
</a>
</g>
</g>
<!-- Node35&#45;&gt;Node36 -->
<g id="edge35" class="edge">
<title>Node35&#45;&gt;Node36</title>
<path fill="none" stroke="#63b8ff" d="M1603.43,-189.74C1633.2,-195.93 1669.64,-203.5 1701.31,-210.08"/>
<polygon fill="#63b8ff" stroke="#63b8ff" points="1604.35,-186.36 1593.85,-187.75 1602.92,-193.21 1604.35,-186.36"/>
</g>
<!-- Node38 -->
<g id="node38" class="node">
<title>Node38</title>
<g id="a_node38"><a xlink:href="classInterfaceIntegralVariableValuePostprocessor.html" target="_top" xlink:title="This postprocessor computes a weighted (by area) integral of the specified variable.">
<polygon fill="white" stroke="#666666" points="1860,-192.5 1693,-192.5 1693,-162.5 1860,-162.5 1860,-192.5"/>
<text text-anchor="start" x="1701" y="-180.5" font-family="Courier,monospace" font-size="10.00">InterfaceIntegralVariable</text>
<text text-anchor="middle" x="1776.5" y="-169.5" font-family="Courier,monospace" font-size="10.00">ValuePostprocessor</text>
</a>
</g>
</g>
<!-- Node35&#45;&gt;Node38 -->
<g id="edge37" class="edge">
<title>Node35&#45;&gt;Node38</title>
<path fill="none" stroke="#63b8ff" d="M1653.89,-177.5C1666.95,-177.5 1680.1,-177.5 1692.7,-177.5"/>
<polygon fill="#63b8ff" stroke="#63b8ff" points="1653.98,-174 1643.98,-177.5 1653.98,-181 1653.98,-174"/>
</g>
<!-- Node37 -->
<g id="node37" class="node">
<title>Node37</title>
<g id="a_node37"><a xlink:href="classInterfaceDiffusiveFluxAverageTempl.html" target="_top" xlink:title=" ">
<polygon fill="white" stroke="#666666" points="2102,-240.5 1911,-240.5 1911,-210.5 2102,-210.5 2102,-240.5"/>
<text text-anchor="start" x="1919" y="-228.5" font-family="Courier,monospace" font-size="10.00">InterfaceDiffusiveFluxAverage</text>
<text text-anchor="middle" x="2006.5" y="-217.5" font-family="Courier,monospace" font-size="10.00">Templ&lt; is_ad &gt;</text>
</a>
</g>
</g>
<!-- Node36&#45;&gt;Node37 -->
<g id="edge36" class="edge">
<title>Node36&#45;&gt;Node37</title>
<path fill="none" stroke="#63b8ff" d="M1886.51,-225.5C1894.54,-225.5 1902.61,-225.5 1910.55,-225.5"/>
<polygon fill="#63b8ff" stroke="#63b8ff" points="1886.7,-222 1876.7,-225.5 1886.7,-229 1886.7,-222"/>
</g>
<!-- Node39 -->
<g id="node39" class="node">
<title>Node39</title>
<g id="a_node39"><a xlink:href="classInterfaceAverageVariableValuePostprocessor.html" target="_top" xlink:title="This postprocessor computes a spatial average value of the specified variable value on the interface.">
<polygon fill="white" stroke="#666666" points="2087,-192.5 1926,-192.5 1926,-162.5 2087,-162.5 2087,-192.5"/>
<text text-anchor="start" x="1934" y="-180.5" font-family="Courier,monospace" font-size="10.00">InterfaceAverageVariable</text>
<text text-anchor="middle" x="2006.5" y="-169.5" font-family="Courier,monospace" font-size="10.00">ValuePostprocessor</text>
</a>
</g>
</g>
<!-- Node38&#45;&gt;Node39 -->
<g id="edge38" class="edge">
<title>Node38&#45;&gt;Node39</title>
<path fill="none" stroke="#63b8ff" d="M1871.8,-177.5C1889.69,-177.5 1908.25,-177.5 1925.65,-177.5"/>
<polygon fill="#63b8ff" stroke="#63b8ff" points="1871.97,-174 1861.97,-177.5 1871.97,-181 1871.97,-174"/>
</g>
<!-- Node41 -->
<g id="node41" class="node">
<title>Node41</title>
<g id="a_node41"><a xlink:href="classInterfaceQpUserObjectBase.html" target="_top" xlink:title="This is a base class for userobjects collecting values of variables or material properites across an ...">
<polygon fill="white" stroke="#666666" points="1627,-115 1460,-115 1460,-96 1627,-96 1627,-115"/>
<text text-anchor="middle" x="1543.5" y="-103" font-family="Courier,monospace" font-size="10.00">InterfaceQpUserObjectBase</text>
</a>
</g>
</g>
<!-- Node40&#45;&gt;Node41 -->
<g id="edge40" class="edge">
<title>Node40&#45;&gt;Node41</title>
<path fill="none" stroke="#63b8ff" d="M1408.49,-114.43C1425.44,-113.3 1443.07,-112.13 1459.76,-111.02"/>
<polygon fill="#63b8ff" stroke="#63b8ff" points="1408.72,-110.91 1398.97,-115.07 1409.18,-117.9 1408.72,-110.91"/>
</g>
<!-- Node42 -->
<g id="node42" class="node">
<title>Node42</title>
<g id="a_node42"><a xlink:href="classInterfaceQpMaterialPropertyBaseUserObject.html" target="_top" xlink:title=" ">
<polygon fill="white" stroke="#666666" points="1866,-144.5 1687,-144.5 1687,-114.5 1866,-114.5 1866,-144.5"/>
<text text-anchor="start" x="1695" y="-132.5" font-family="Courier,monospace" font-size="10.00">InterfaceQpMaterialProperty</text>
<text text-anchor="middle" x="1776.5" y="-121.5" font-family="Courier,monospace" font-size="10.00">BaseUserObject&lt; Real &gt;</text>
</a>
</g>
</g>
<!-- Node41&#45;&gt;Node42 -->
<g id="edge41" class="edge">
<title>Node41&#45;&gt;Node42</title>
<path fill="none" stroke="#63b8ff" d="M1638.68,-115.28C1654.55,-116.93 1670.97,-118.64 1686.69,-120.27"/>
<polygon fill="#63b8ff" stroke="#63b8ff" points="1639.06,-111.81 1628.75,-114.25 1638.33,-118.77 1639.06,-111.81"/>
</g>
<!-- Node44 -->
<g id="node44" class="node">
<title>Node44</title>
<g id="a_node44"><a xlink:href="classInterfaceQpMaterialPropertyBaseUserObject.html" target="_top" xlink:title="Specialization of InterfaceQpUserObjectBase for material properties.">
<polygon fill="white" stroke="#666666" points="1866,-96.5 1687,-96.5 1687,-66.5 1866,-66.5 1866,-96.5"/>
<text text-anchor="start" x="1695" y="-84.5" font-family="Courier,monospace" font-size="10.00">InterfaceQpMaterialProperty</text>
<text text-anchor="middle" x="1776.5" y="-73.5" font-family="Courier,monospace" font-size="10.00">BaseUserObject&lt; T &gt;</text>
</a>
</g>
</g>
<!-- Node41&#45;&gt;Node44 -->
<g id="edge43" class="edge">
<title>Node41&#45;&gt;Node44</title>
<path fill="none" stroke="#63b8ff" d="M1638.68,-95.72C1654.55,-94.07 1670.97,-92.36 1686.69,-90.73"/>
<polygon fill="#63b8ff" stroke="#63b8ff" points="1638.33,-92.23 1628.75,-96.75 1639.06,-99.19 1638.33,-92.23"/>
</g>
<!-- Node45 -->
<g id="node45" class="node">
<title>Node45</title>
<g id="a_node45"><a xlink:href="classInterfaceQpValueUserObject.html" target="_top" xlink:title="Specialization of InterfaceQpUserObjectBase for scalar variables.">
<polygon fill="white" stroke="#666666" points="1863,-48 1690,-48 1690,-29 1863,-29 1863,-48"/>
<text text-anchor="middle" x="1776.5" y="-36" font-family="Courier,monospace" font-size="10.00">InterfaceQpValueUserObject</text>
</a>
</g>
</g>
<!-- Node41&#45;&gt;Node45 -->
<g id="edge44" class="edge">
<title>Node41&#45;&gt;Node45</title>
<path fill="none" stroke="#63b8ff" d="M1579.44,-91.28C1606.1,-80.83 1643.93,-66.89 1678,-57.5 1690.39,-54.09 1703.82,-51.05 1716.64,-48.46"/>
<polygon fill="#63b8ff" stroke="#63b8ff" points="1578.16,-88.02 1570.15,-94.96 1580.74,-94.53 1578.16,-88.02"/>
</g>
<!-- Node43 -->
<g id="node43" class="node">
<title>Node43</title>
<g id="a_node43"><a xlink:href="classInterfaceQpMaterialPropertyRealUO.html" target="_top" xlink:title="Specialization of InterfaceQpMaterialPropertyBaseUserObject for Real material properties.">
<polygon fill="white" stroke="#666666" points="2096,-144.5 1917,-144.5 1917,-114.5 2096,-114.5 2096,-144.5"/>
<text text-anchor="start" x="1925" y="-132.5" font-family="Courier,monospace" font-size="10.00">InterfaceQpMaterialProperty</text>
<text text-anchor="middle" x="2006.5" y="-121.5" font-family="Courier,monospace" font-size="10.00">RealUO</text>
</a>
</g>
</g>
<!-- Node42&#45;&gt;Node43 -->
<g id="edge42" class="edge">
<title>Node42&#45;&gt;Node43</title>
<path fill="none" stroke="#63b8ff" d="M1877.62,-129.5C1890.59,-129.5 1903.8,-129.5 1916.56,-129.5"/>
<polygon fill="#63b8ff" stroke="#63b8ff" points="1877.82,-126 1867.82,-129.5 1877.82,-133 1877.82,-126"/>
</g>
</g>
</svg>
        <g id="navigator" transform="translate(0 0)" fill="#404254">
                <rect fill="#f2f5e9" fill-opacity="0.5" stroke="#606060" stroke-width=".5" x="0" y="0" width="60" height="60"/>
                <use id="zoomplus" xlink:href="#zoomPlus" x="17" y="9" onmousedown="handleZoom(evt,'in')"/>
                <use id="zoomminus" xlink:href="#zoomMin" x="42" y="9" onmousedown="handleZoom(evt,'out')"/>
                <use id="reset" xlink:href="#resetDef" x="30" y="36" onmousedown="handleReset()"/>
                <g id="arrowUp" xlink:href="#dirArrow" transform="translate(30 24)" onmousedown="handlePan(0,-1)">
                  <use xlink:href="#rim" fill="#404040">
                        <set attributeName="fill" to="#808080" begin="arrowUp.mouseover" end="arrowUp.mouseout"/>
                  </use>
                  <path fill="none" stroke="white" stroke-width="1.5" d="M0,-3.0v7 M-2.5,-0.5L0,-3.0L2.5,-0.5"/>
                </g>
                <g id="arrowRight" xlink:href="#dirArrow" transform="rotate(90) translate(36 -43)" onmousedown="handlePan(1,0)">
                  <use xlink:href="#rim" fill="#404040">
                        <set attributeName="fill" to="#808080" begin="arrowRight.mouseover" end="arrowRight.mouseout"/>
                  </use>
                  <path fill="none" stroke="white" stroke-width="1.5" d="M0,-3.0v7 M-2.5,-0.5L0,-3.0L2.5,-0.5"/>
                </g>
                <g id="arrowDown" xlink:href="#dirArrow" transform="rotate(180) translate(-30 -48)" onmousedown="handlePan(0,1)">
                  <use xlink:href="#rim" fill="#404040">
                        <set attributeName="fill" to="#808080" begin="arrowDown.mouseover" end="arrowDown.mouseout"/>
                  </use>
                  <path fill="none" stroke="white" stroke-width="1.5" d="M0,-3.0v7 M-2.5,-0.5L0,-3.0L2.5,-0.5"/>
                </g>
                <g id="arrowLeft" xlink:href="#dirArrow" transform="rotate(270) translate(-36 17)" onmousedown="handlePan(-1,0)">
                  <use xlink:href="#rim" fill="#404040">
                        <set attributeName="fill" to="#808080" begin="arrowLeft.mouseover" end="arrowLeft.mouseout"/>
                  </use>
                  <path fill="none" stroke="white" stroke-width="1.5" d="M0,-3.0v7 M-2.5,-0.5L0,-3.0L2.5,-0.5"/>
                </g>
        </g>
        <svg viewBox="0 0 15 15" width="100%" height="30px" preserveAspectRatio="xMaxYMin meet">
         <g id="arrow_out" transform="scale(0.3 0.3)">
          <a xlink:href="classInterfaceUserObjectBase__inherit__graph_org.svg" target="_base">
           <rect id="button" ry="5" rx="5" y="6" x="6" height="38" width="38"
                fill="#f2f5e9" fill-opacity="0.5" stroke="#606060" stroke-width="1.0"/>
           <path id="arrow"
             d="M 11.500037,31.436501 C 11.940474,20.09759 22.043105,11.32322 32.158766,21.979434 L 37.068811,17.246167 C 37.068811,17.246167 37.088388,32 37.088388,32 L 22.160133,31.978069 C 22.160133,31.978069 26.997745,27.140456 26.997745,27.140456 C 18.528582,18.264221 13.291696,25.230495 11.500037,31.436501 z"
             style="fill:#404040;"/>
          </a>
         </g>
        </svg>
</svg>
