<?xml version="1.0" encoding="UTF-8" standalone="no"?>
<!DOCTYPE svg PUBLIC "-//W3C//DTD SVG 1.1//EN"
 "http://www.w3.org/Graphics/SVG/1.1/DTD/svg11.dtd">
<!-- Generated by graphviz version 7.0.5 (20221223.1930)
 -->
<!-- Title: SideIntegralVariablePostprocessor Pages: 1 -->
<svg width="2056pt" height="946pt"
 viewBox="0.00 0.00 2056.00 946.00" xmlns="http://www.w3.org/2000/svg" xmlns:xlink="http://www.w3.org/1999/xlink">
<g id="graph0" class="graph" transform="scale(1 1) rotate(0) translate(4 942)">
<title>SideIntegralVariablePostprocessor</title>
<!-- Node1 -->
<g id="node1" class="node">
<title>Node1</title>
<g id="a_node1"><a xlink:title="This postprocessor computes a surface integral of the specified variable.">
<polygon fill="#999999" stroke="#666666" points="1618,-105 1403,-105 1403,-86 1618,-86 1618,-105"/>
<text text-anchor="middle" x="1510.5" y="-93" font-family="Courier,monospace" font-size="10.00">SideIntegralVariablePostprocessor</text>
</a>
</g>
</g>
<!-- Node43 -->
<g id="node43" class="node">
<title>Node43</title>
<g id="a_node43"><a xlink:href="classSideDiffusiveFluxIntegralTempl.html" target="_top" xlink:title=" ">
<polygon fill="white" stroke="#666666" points="1821,-192.5 1654,-192.5 1654,-162.5 1821,-162.5 1821,-192.5"/>
<text text-anchor="start" x="1662" y="-180.5" font-family="Courier,monospace" font-size="10.00">SideDiffusiveFluxIntegral</text>
<text text-anchor="middle" x="1737.5" y="-169.5" font-family="Courier,monospace" font-size="10.00">Templ&lt; is_ad, Real &gt;</text>
</a>
</g>
</g>
<!-- Node1&#45;&gt;Node43 -->
<g id="edge43" class="edge">
<title>Node1&#45;&gt;Node43</title>
<path fill="none" stroke="#63b8ff" d="M1545.31,-109.55C1574.03,-121.3 1616.44,-138.22 1654,-151.5 1664.19,-155.1 1675.18,-158.74 1685.71,-162.1"/>
<polygon fill="#63b8ff" stroke="#63b8ff" points="1546.99,-106.46 1536.41,-105.89 1544.33,-112.93 1546.99,-106.46"/>
</g>
<!-- Node45 -->
<g id="node45" class="node">
<title>Node45</title>
<g id="a_node45"><a xlink:href="classSideAverageValue.html" target="_top" xlink:title="This postprocessor computes a volume integral of the specified variable.">
<polygon fill="white" stroke="#666666" points="1794,-142 1681,-142 1681,-123 1794,-123 1794,-142"/>
<text text-anchor="middle" x="1737.5" y="-130" font-family="Courier,monospace" font-size="10.00">SideAverageValue</text>
</a>
</g>
</g>
<!-- Node1&#45;&gt;Node45 -->
<g id="edge45" class="edge">
<title>Node1&#45;&gt;Node45</title>
<path fill="none" stroke="#63b8ff" d="M1583.05,-107.27C1614.67,-112.47 1651.28,-118.49 1680.82,-123.34"/>
<polygon fill="#63b8ff" stroke="#63b8ff" points="1584.02,-103.88 1573.59,-105.71 1582.88,-110.79 1584.02,-103.88"/>
</g>
<!-- Node47 -->
<g id="node47" class="node">
<title>Node47</title>
<g id="a_node47"><a xlink:href="classSideCurrent.html" target="_top" xlink:title="This postprocessor computes a side integral of current density.">
<polygon fill="white" stroke="#666666" points="1779,-105 1696,-105 1696,-86 1779,-86 1779,-105"/>
<text text-anchor="middle" x="1737.5" y="-93" font-family="Courier,monospace" font-size="10.00">SideCurrent</text>
</a>
</g>
</g>
<!-- Node1&#45;&gt;Node47 -->
<g id="edge47" class="edge">
<title>Node1&#45;&gt;Node47</title>
<path fill="none" stroke="#63b8ff" d="M1629.66,-95.5C1653.35,-95.5 1676.7,-95.5 1695.5,-95.5"/>
<polygon fill="#63b8ff" stroke="#63b8ff" points="1629.91,-92 1619.91,-95.5 1629.91,-99 1629.91,-92"/>
</g>
<!-- Node48 -->
<g id="node48" class="node">
<title>Node48</title>
<g id="a_node48"><a xlink:href="classSideDiffusiveFluxIntegralTempl.html" target="_top" xlink:title="This postprocessor computes a side integral of the mass flux.">
<polygon fill="white" stroke="#666666" points="1821,-67.5 1654,-67.5 1654,-37.5 1821,-37.5 1821,-67.5"/>
<text text-anchor="start" x="1662" y="-55.5" font-family="Courier,monospace" font-size="10.00">SideDiffusiveFluxIntegral</text>
<text text-anchor="middle" x="1737.5" y="-44.5" font-family="Courier,monospace" font-size="10.00">Templ&lt; is_ad, T &gt;</text>
</a>
</g>
</g>
<!-- Node1&#45;&gt;Node48 -->
<g id="edge48" class="edge">
<title>Node1&#45;&gt;Node48</title>
<path fill="none" stroke="#63b8ff" d="M1574.88,-83.39C1599.91,-78.6 1628.98,-73.05 1655.51,-67.98"/>
<polygon fill="#63b8ff" stroke="#63b8ff" points="1574.34,-79.93 1565.17,-85.24 1575.65,-86.8 1574.34,-79.93"/>
</g>
<!-- Node49 -->
<g id="node49" class="node">
<title>Node49</title>
<g id="a_node49"><a xlink:href="classSideTotFluxIntegral.html" target="_top" xlink:title="This postprocessor computes a side integral of the mass flux.">
<polygon fill="white" stroke="#666666" points="1803,-19 1672,-19 1672,0 1803,0 1803,-19"/>
<text text-anchor="middle" x="1737.5" y="-7" font-family="Courier,monospace" font-size="10.00">SideTotFluxIntegral</text>
</a>
</g>
</g>
<!-- Node1&#45;&gt;Node49 -->
<g id="edge49" class="edge">
<title>Node1&#45;&gt;Node49</title>
<path fill="none" stroke="#63b8ff" d="M1539.35,-80.22C1567.55,-65.28 1612.76,-42.76 1654,-28.5 1664,-25.04 1674.9,-22.03 1685.41,-19.48"/>
<polygon fill="#63b8ff" stroke="#63b8ff" points="1537.92,-77.02 1530.76,-84.83 1541.23,-83.19 1537.92,-77.02"/>
</g>
<!-- Node2 -->
<g id="node2" class="node">
<title>Node2</title>
<g id="a_node2"><a xlink:href="classSideIntegralPostprocessor.html" target="_top" xlink:title="This postprocessor computes a surface integral of the specified variable on a sideset on the boundary...">
<polygon fill="white" stroke="#666666" points="1367,-149 1200,-149 1200,-130 1367,-130 1367,-149"/>
<text text-anchor="middle" x="1283.5" y="-137" font-family="Courier,monospace" font-size="10.00">SideIntegralPostprocessor</text>
</a>
</g>
</g>
<!-- Node2&#45;&gt;Node1 -->
<g id="edge1" class="edge">
<title>Node2&#45;&gt;Node1</title>
<path fill="none" stroke="#63b8ff" d="M1346.68,-127.34C1381.92,-120.45 1425.46,-111.93 1458.65,-105.44"/>
<polygon fill="#63b8ff" stroke="#63b8ff" points="1346.18,-123.87 1337.04,-129.23 1347.53,-130.74 1346.18,-123.87"/>
</g>
<!-- Node3 -->
<g id="node3" class="node">
<title>Node3</title>
<g id="a_node3"><a xlink:href="classSidePostprocessor.html" target="_top" xlink:title="Base class for postprocessors executed on one or more sidesets.">
<polygon fill="white" stroke="#666666" points="1143,-161 1024,-161 1024,-142 1143,-142 1143,-161"/>
<text text-anchor="middle" x="1083.5" y="-149" font-family="Courier,monospace" font-size="10.00">SidePostprocessor</text>
</a>
</g>
</g>
<!-- Node3&#45;&gt;Node2 -->
<g id="edge2" class="edge">
<title>Node3&#45;&gt;Node2</title>
<path fill="none" stroke="#63b8ff" d="M1154.8,-147.24C1169.32,-146.36 1184.75,-145.42 1199.67,-144.52"/>
<polygon fill="#63b8ff" stroke="#63b8ff" points="1154.65,-143.74 1144.88,-147.84 1155.07,-150.73 1154.65,-143.74"/>
</g>
<!-- Node4 -->
<g id="node4" class="node">
<title>Node4</title>
<g id="a_node4"><a xlink:href="classSideUserObject.html" target="_top" xlink:title="Base class for user objects executed one or more sidesets, which may be on the outer boundary of the ...">
<polygon fill="white" stroke="#666666" points="967,-327 866,-327 866,-308 967,-308 967,-327"/>
<text text-anchor="middle" x="916.5" y="-315" font-family="Courier,monospace" font-size="10.00">SideUserObject</text>
</a>
</g>
</g>
<!-- Node4&#45;&gt;Node3 -->
<g id="edge3" class="edge">
<title>Node4&#45;&gt;Node3</title>
<path fill="none" stroke="#63b8ff" d="M935.22,-299.67C970,-264.68 1046.13,-188.09 1072.93,-161.13"/>
<polygon fill="#63b8ff" stroke="#63b8ff" points="932.96,-296.98 928.39,-306.54 937.93,-301.91 932.96,-296.98"/>
</g>
<!-- Node5 -->
<g id="node5" class="node">
<title>Node5</title>
<g id="a_node5"><a xlink:href="classUserObject.html" target="_top" xlink:title="Base class for user&#45;specific data.">
<polygon fill="white" stroke="#666666" points="764,-586 687,-586 687,-567 764,-567 764,-586"/>
<text text-anchor="middle" x="725.5" y="-574" font-family="Courier,monospace" font-size="10.00">UserObject</text>
</a>
</g>
</g>
<!-- Node5&#45;&gt;Node4 -->
<g id="edge4" class="edge">
<title>Node5&#45;&gt;Node4</title>
<path fill="none" stroke="#63b8ff" d="M740.24,-557.67C777.63,-506.44 880.24,-365.83 908.31,-327.35"/>
<polygon fill="#63b8ff" stroke="#63b8ff" points="737.64,-555.3 734.57,-565.44 743.29,-559.43 737.64,-555.3"/>
</g>
<!-- Node6 -->
<g id="node6" class="node">
<title>Node6</title>
<g id="a_node6"><a xlink:href="classMooseObject.html" target="_top" xlink:title="Every object that can be built by the factory should be derived from this class.">
<polygon fill="white" stroke="#666666" points="534,-864 451,-864 451,-845 534,-845 534,-864"/>
<text text-anchor="middle" x="492.5" y="-852" font-family="Courier,monospace" font-size="10.00">MooseObject</text>
</a>
</g>
</g>
<!-- Node6&#45;&gt;Node5 -->
<g id="edge5" class="edge">
<title>Node6&#45;&gt;Node5</title>
<path fill="none" stroke="#63b8ff" d="M545.39,-852.32C559.28,-849.69 573.59,-844.93 585,-836.5 675.85,-769.38 713.69,-624.99 722.44,-586.24"/>
<polygon fill="#63b8ff" stroke="#63b8ff" points="545.25,-848.8 535.9,-853.77 546.31,-855.72 545.25,-848.8"/>
</g>
<!-- Node7 -->
<g id="node7" class="node">
<title>Node7</title>
<g id="a_node7"><a xlink:href="classMooseBase.html" target="_top" xlink:title="Base class for everything in MOOSE with a name and a type.">
<polygon fill="white" stroke="#666666" points="310,-938 239,-938 239,-919 310,-919 310,-938"/>
<text text-anchor="middle" x="274.5" y="-926" font-family="Courier,monospace" font-size="10.00">MooseBase</text>
</a>
</g>
</g>
<!-- Node7&#45;&gt;Node6 -->
<g id="edge6" class="edge">
<title>Node7&#45;&gt;Node6</title>
<path fill="none" stroke="#63b8ff" d="M321.62,-921.05C335.41,-918.31 350.46,-914.8 364,-910.5 403.87,-897.85 448.08,-876.72 472.56,-864.35"/>
<polygon fill="#63b8ff" stroke="#63b8ff" points="321.06,-917.59 311.89,-922.89 322.36,-924.47 321.06,-917.59"/>
</g>
<!-- Node8 -->
<g id="node8" class="node">
<title>Node8</title>
<g id="a_node8"><a xlink:href="classMooseBaseParameterInterface.html" target="_top" xlink:title="Every object that can be built by the factory should be derived from this class.">
<polygon fill="white" stroke="#666666" points="364,-901 185,-901 185,-882 364,-882 364,-901"/>
<text text-anchor="middle" x="274.5" y="-889" font-family="Courier,monospace" font-size="10.00">MooseBaseParameterInterface</text>
</a>
</g>
</g>
<!-- Node8&#45;&gt;Node6 -->
<g id="edge7" class="edge">
<title>Node8&#45;&gt;Node6</title>
<path fill="none" stroke="#63b8ff" d="M344.77,-879.63C379.7,-873.65 420.85,-866.6 450.68,-861.49"/>
<polygon fill="#63b8ff" stroke="#63b8ff" points="344.43,-876.14 335.16,-881.28 345.61,-883.04 344.43,-876.14"/>
</g>
<!-- Node9 -->
<g id="node9" class="node">
<title>Node9</title>
<g id="a_node9"><a xlink:href="classMooseBaseErrorInterface.html" target="_top" xlink:title="Interface that provides APIs to output errors/warnings/info messages.">
<polygon fill="white" stroke="#666666" points="352,-864 197,-864 197,-845 352,-845 352,-864"/>
<text text-anchor="middle" x="274.5" y="-852" font-family="Courier,monospace" font-size="10.00">MooseBaseErrorInterface</text>
</a>
</g>
</g>
<!-- Node9&#45;&gt;Node6 -->
<g id="edge8" class="edge">
<title>Node9&#45;&gt;Node6</title>
<path fill="none" stroke="#63b8ff" d="M363.7,-854.5C393.87,-854.5 426.17,-854.5 450.75,-854.5"/>
<polygon fill="#63b8ff" stroke="#63b8ff" points="363.78,-851 353.78,-854.5 363.78,-858 363.78,-851"/>
</g>
<!-- Node10 -->
<g id="node10" class="node">
<title>Node10</title>
<g id="a_node10"><a xlink:href="classConsoleStreamInterface.html" target="_top" xlink:title="An inteface for the _console for outputting to the Console object.">
<polygon fill="white" stroke="#666666" points="149,-864 0,-864 0,-845 149,-845 149,-864"/>
<text text-anchor="middle" x="74.5" y="-852" font-family="Courier,monospace" font-size="10.00">ConsoleStreamInterface</text>
</a>
</g>
</g>
<!-- Node10&#45;&gt;Node9 -->
<g id="edge9" class="edge">
<title>Node10&#45;&gt;Node9</title>
<path fill="none" stroke="#63b8ff" d="M160.62,-854.5C172.62,-854.5 184.9,-854.5 196.73,-854.5"/>
<polygon fill="#63b8ff" stroke="#63b8ff" points="160.74,-851 150.74,-854.5 160.74,-858 160.74,-851"/>
</g>
<!-- Node11 -->
<g id="node11" class="node">
<title>Node11</title>
<g id="a_node11"><a xlink:title=" ">
<polygon fill="white" stroke="#666666" points="352,-827 197,-827 197,-808 352,-808 352,-827"/>
<text text-anchor="middle" x="274.5" y="-815" font-family="Courier,monospace" font-size="10.00">libMesh::ParallelObject</text>
</a>
</g>
</g>
<!-- Node11&#45;&gt;Node6 -->
<g id="edge10" class="edge">
<title>Node11&#45;&gt;Node6</title>
<path fill="none" stroke="#63b8ff" d="M344.77,-829.37C379.7,-835.35 420.85,-842.4 450.68,-847.51"/>
<polygon fill="#63b8ff" stroke="#63b8ff" points="345.61,-825.96 335.16,-827.72 344.43,-832.86 345.61,-825.96"/>
</g>
<!-- Node12 -->
<g id="node12" class="node">
<title>Node12</title>
<g id="a_node12"><a xlink:href="classDataFileInterface.html" target="_top" xlink:title=" ">
<polygon fill="white" stroke="#666666" points="337,-789.5 212,-789.5 212,-759.5 337,-759.5 337,-789.5"/>
<text text-anchor="start" x="220" y="-777.5" font-family="Courier,monospace" font-size="10.00">DataFileInterface&lt;</text>
<text text-anchor="middle" x="274.5" y="-766.5" font-family="Courier,monospace" font-size="10.00"> MooseObject &gt;</text>
</a>
</g>
</g>
<!-- Node12&#45;&gt;Node6 -->
<g id="edge11" class="edge">
<title>Node12&#45;&gt;Node6</title>
<path fill="none" stroke="#63b8ff" d="M347.62,-791.35C353.32,-793.73 358.86,-796.44 364,-799.5 383.71,-811.24 379.83,-825.57 400,-836.5 415.37,-844.83 434.06,-849.34 450.53,-851.76"/>
<polygon fill="#63b8ff" stroke="#63b8ff" points="349.23,-788.22 338.64,-787.94 346.74,-794.76 349.23,-788.22"/>
</g>
<!-- Node13 -->
<g id="node13" class="node">
<title>Node13</title>
<g id="a_node13"><a xlink:href="classSetupInterface.html" target="_top" xlink:title=" ">
<polygon fill="white" stroke="#666666" points="543,-827 442,-827 442,-808 543,-808 543,-827"/>
<text text-anchor="middle" x="492.5" y="-815" font-family="Courier,monospace" font-size="10.00">SetupInterface</text>
</a>
</g>
</g>
<!-- Node13&#45;&gt;Node5 -->
<g id="edge12" class="edge">
<title>Node13&#45;&gt;Node5</title>
<path fill="none" stroke="#63b8ff" d="M554.61,-812.68C565.37,-809.88 575.99,-805.7 585,-799.5 666.99,-743.04 710.5,-621.03 721.61,-586.05"/>
<polygon fill="#63b8ff" stroke="#63b8ff" points="553.92,-809.25 544.89,-814.8 555.41,-816.09 553.92,-809.25"/>
</g>
<!-- Node14 -->
<g id="node14" class="node">
<title>Node14</title>
<g id="a_node14"><a xlink:href="classFunctionInterface.html" target="_top" xlink:title="Interface for objects that need to use functions.">
<polygon fill="white" stroke="#666666" points="552,-790 433,-790 433,-771 552,-771 552,-790"/>
<text text-anchor="middle" x="492.5" y="-778" font-family="Courier,monospace" font-size="10.00">FunctionInterface</text>
</a>
</g>
</g>
<!-- Node14&#45;&gt;Node5 -->
<g id="edge13" class="edge">
<title>Node14&#45;&gt;Node5</title>
<path fill="none" stroke="darkgreen" d="M563.08,-772.49C570.8,-769.97 578.29,-766.71 585,-762.5 658.15,-716.56 706.48,-617.45 720.37,-586.17"/>
<polygon fill="darkgreen" stroke="darkgreen" points="562.2,-769.1 553.52,-775.17 564.09,-775.84 562.2,-769.1"/>
</g>
<!-- Node15 -->
<g id="node15" class="node">
<title>Node15</title>
<g id="a_node15"><a xlink:href="classUserObjectInterface.html" target="_top" xlink:title="Interface for objects that need to use UserObjects.">
<polygon fill="white" stroke="#666666" points="558,-753 427,-753 427,-734 558,-734 558,-753"/>
<text text-anchor="middle" x="492.5" y="-741" font-family="Courier,monospace" font-size="10.00">UserObjectInterface</text>
</a>
</g>
</g>
<!-- Node15&#45;&gt;Node5 -->
<g id="edge14" class="edge">
<title>Node15&#45;&gt;Node5</title>
<path fill="none" stroke="#63b8ff" d="M569.1,-732.62C574.63,-730.63 580,-728.27 585,-725.5 649.46,-689.76 701.26,-613.73 718.42,-586.48"/>
<polygon fill="#63b8ff" stroke="#63b8ff" points="568.23,-729.22 559.74,-735.57 570.33,-735.9 568.23,-729.22"/>
</g>
<!-- Node16 -->
<g id="node16" class="node">
<title>Node16</title>
<g id="a_node16"><a xlink:href="classPostprocessorInterface.html" target="_top" xlink:title="Interface class for classes which interact with Postprocessors.">
<polygon fill="white" stroke="#666666" points="567,-716 418,-716 418,-697 567,-697 567,-716"/>
<text text-anchor="middle" x="492.5" y="-704" font-family="Courier,monospace" font-size="10.00">PostprocessorInterface</text>
</a>
</g>
</g>
<!-- Node16&#45;&gt;Node5 -->
<g id="edge15" class="edge">
<title>Node16&#45;&gt;Node5</title>
<path fill="none" stroke="darkgreen" d="M573.95,-693.02C577.74,-691.66 581.44,-690.15 585,-688.5 641.32,-662.3 694.79,-608.68 715.48,-586.47"/>
<polygon fill="darkgreen" stroke="darkgreen" points="572.97,-689.66 564.53,-696.05 575.12,-696.32 572.97,-689.66"/>
</g>
<!-- Node17 -->
<g id="node17" class="node">
<title>Node17</title>
<g id="a_node17"><a xlink:href="classVectorPostprocessorInterface.html" target="_top" xlink:title=" ">
<polygon fill="white" stroke="#666666" points="585,-679 400,-679 400,-660 585,-660 585,-679"/>
<text text-anchor="middle" x="492.5" y="-667" font-family="Courier,monospace" font-size="10.00">VectorPostprocessorInterface</text>
</a>
</g>
</g>
<!-- Node17&#45;&gt;Node5 -->
<g id="edge16" class="edge">
<title>Node17&#45;&gt;Node5</title>
<path fill="none" stroke="darkgreen" d="M568.24,-656.73C573.97,-655.17 579.61,-653.43 585,-651.5 633.15,-634.26 684.97,-602.48 709.71,-586.39"/>
<polygon fill="darkgreen" stroke="darkgreen" points="567.48,-653.32 558.64,-659.16 569.19,-660.1 567.48,-653.32"/>
</g>
<!-- Node18 -->
<g id="node18" class="node">
<title>Node18</title>
<g id="a_node18"><a xlink:href="classReporterInterface.html" target="_top" xlink:title="Interface to allow object to consume Reporter values.">
<polygon fill="white" stroke="#666666" points="552,-642 433,-642 433,-623 552,-623 552,-642"/>
<text text-anchor="middle" x="492.5" y="-630" font-family="Courier,monospace" font-size="10.00">ReporterInterface</text>
</a>
</g>
</g>
<!-- Node18&#45;&gt;Node5 -->
<g id="edge17" class="edge">
<title>Node18&#45;&gt;Node5</title>
<path fill="none" stroke="darkgreen" d="M558.53,-620.3C567.45,-618.46 576.47,-616.5 585,-614.5 621.29,-606 662.42,-594.57 690.56,-586.48"/>
<polygon fill="darkgreen" stroke="darkgreen" points="557.93,-616.85 548.83,-622.27 559.32,-623.71 557.93,-616.85"/>
</g>
<!-- Node19 -->
<g id="node19" class="node">
<title>Node19</title>
<g id="a_node19"><a xlink:href="classDistributionInterface.html" target="_top" xlink:title="Interface for objects that need to use distributions.">
<polygon fill="white" stroke="#666666" points="564,-605 421,-605 421,-586 564,-586 564,-605"/>
<text text-anchor="middle" x="492.5" y="-593" font-family="Courier,monospace" font-size="10.00">DistributionInterface</text>
</a>
</g>
</g>
<!-- Node19&#45;&gt;Node5 -->
<g id="edge18" class="edge">
<title>Node19&#45;&gt;Node5</title>
<path fill="none" stroke="darkgreen" d="M575.43,-588.76C613.35,-585.64 656.56,-582.09 686.65,-579.61"/>
<polygon fill="darkgreen" stroke="darkgreen" points="575.57,-585.24 565.89,-589.55 576.14,-592.21 575.57,-585.24"/>
</g>
<!-- Node20 -->
<g id="node20" class="node">
<title>Node20</title>
<g id="a_node20"><a xlink:href="classSamplerInterface.html" target="_top" xlink:title="Interface for objects that need to use samplers.">
<polygon fill="white" stroke="#666666" points="549,-568 436,-568 436,-549 549,-549 549,-568"/>
<text text-anchor="middle" x="492.5" y="-556" font-family="Courier,monospace" font-size="10.00">SamplerInterface</text>
</a>
</g>
</g>
<!-- Node20&#45;&gt;Node5 -->
<g id="edge19" class="edge">
<title>Node20&#45;&gt;Node5</title>
<path fill="none" stroke="darkgreen" d="M560.71,-563.74C601.74,-566.93 652.7,-570.91 686.78,-573.56"/>
<polygon fill="darkgreen" stroke="darkgreen" points="561.17,-560.26 550.93,-562.97 560.63,-567.24 561.17,-560.26"/>
</g>
<!-- Node21 -->
<g id="node21" class="node">
<title>Node21</title>
<g id="a_node21"><a xlink:href="classRestartable.html" target="_top" xlink:title="A class for creating restricted objects.">
<polygon fill="white" stroke="#666666" points="534,-531 451,-531 451,-512 534,-512 534,-531"/>
<text text-anchor="middle" x="492.5" y="-519" font-family="Courier,monospace" font-size="10.00">Restartable</text>
</a>
</g>
</g>
<!-- Node21&#45;&gt;Node5 -->
<g id="edge20" class="edge">
<title>Node21&#45;&gt;Node5</title>
<path fill="none" stroke="darkgreen" d="M545.27,-531.8C558.27,-534.51 572.17,-537.51 585,-540.5 620.08,-548.66 659.83,-559.03 687.9,-566.55"/>
<polygon fill="darkgreen" stroke="darkgreen" points="546.11,-528.4 535.61,-529.81 544.7,-535.26 546.11,-528.4"/>
</g>
<!-- Node22 -->
<g id="node22" class="node">
<title>Node22</title>
<g id="a_node22"><a xlink:href="classMeshMetaDataInterface.html" target="_top" xlink:title="The Interface used to retrieve mesh meta data (attributes) set by the MeshGenerator system.">
<polygon fill="white" stroke="#666666" points="564,-494 421,-494 421,-475 564,-475 564,-494"/>
<text text-anchor="middle" x="492.5" y="-482" font-family="Courier,monospace" font-size="10.00">MeshMetaDataInterface</text>
</a>
</g>
</g>
<!-- Node22&#45;&gt;Node5 -->
<g id="edge21" class="edge">
<title>Node22&#45;&gt;Node5</title>
<path fill="none" stroke="darkgreen" d="M564.33,-497.15C571.39,-499.02 578.38,-501.13 585,-503.5 632.62,-520.53 684.26,-551.07 709.25,-566.7"/>
<polygon fill="darkgreen" stroke="darkgreen" points="565.25,-493.77 554.7,-494.77 563.56,-500.57 565.25,-493.77"/>
</g>
<!-- Node23 -->
<g id="node23" class="node">
<title>Node23</title>
<g id="a_node23"><a xlink:href="classMeshChangedInterface.html" target="_top" xlink:title="Interface for notifications that the mesh has changed.">
<polygon fill="white" stroke="#666666" points="561,-457 424,-457 424,-438 561,-438 561,-457"/>
<text text-anchor="middle" x="492.5" y="-445" font-family="Courier,monospace" font-size="10.00">MeshChangedInterface</text>
</a>
</g>
</g>
<!-- Node23&#45;&gt;Node5 -->
<g id="edge22" class="edge">
<title>Node23&#45;&gt;Node5</title>
<path fill="none" stroke="darkgreen" d="M570.63,-460.77C575.58,-462.46 580.41,-464.36 585,-466.5 640.91,-492.56 694.6,-545.04 715.42,-566.75"/>
<polygon fill="darkgreen" stroke="darkgreen" points="571.71,-457.44 561.12,-457.85 569.65,-464.13 571.71,-457.44"/>
</g>
<!-- Node24 -->
<g id="node24" class="node">
<title>Node24</title>
<g id="a_node24"><a xlink:href="classScalarCoupleable.html" target="_top" xlink:title="Interface for objects that needs scalar coupling capabilities.">
<polygon fill="white" stroke="#666666" points="549,-420 436,-420 436,-401 549,-401 549,-420"/>
<text text-anchor="middle" x="492.5" y="-408" font-family="Courier,monospace" font-size="10.00">ScalarCoupleable</text>
</a>
</g>
</g>
<!-- Node24&#45;&gt;Node5 -->
<g id="edge23" class="edge">
<title>Node24&#45;&gt;Node5</title>
<path fill="none" stroke="darkgreen" d="M560.14,-419.34C568.81,-421.91 577.33,-425.23 585,-429.5 648.93,-465.11 701.07,-539.9 718.37,-566.69"/>
<polygon fill="darkgreen" stroke="darkgreen" points="561.16,-415.99 550.6,-416.84 559.39,-422.76 561.16,-415.99"/>
</g>
<!-- Node25 -->
<g id="node25" class="node">
<title>Node25</title>
<g id="a_node25"><a xlink:href="classPerfGraphInterface.html" target="_top" xlink:title="Interface for objects interacting with the PerfGraph.">
<polygon fill="white" stroke="#666666" points="555,-383 430,-383 430,-364 555,-364 555,-383"/>
<text text-anchor="middle" x="492.5" y="-371" font-family="Courier,monospace" font-size="10.00">PerfGraphInterface</text>
</a>
</g>
</g>
<!-- Node25&#45;&gt;Node5 -->
<g id="edge24" class="edge">
<title>Node25&#45;&gt;Node5</title>
<path fill="none" stroke="darkgreen" d="M566.03,-383.39C572.71,-385.81 579.15,-388.8 585,-392.5 603.51,-404.2 692.05,-529.97 717.59,-566.56"/>
<polygon fill="darkgreen" stroke="darkgreen" points="567.44,-380.17 556.85,-380.5 565.34,-386.84 567.44,-380.17"/>
</g>
<!-- Node26 -->
<g id="node26" class="node">
<title>Node26</title>
<g id="a_node26"><a xlink:href="classDependencyResolverInterface.html" target="_top" xlink:title="Interface for sorting dependent vectors of objects.">
<polygon fill="white" stroke="#666666" points="582,-346 403,-346 403,-327 582,-327 582,-346"/>
<text text-anchor="middle" x="492.5" y="-334" font-family="Courier,monospace" font-size="10.00">DependencyResolverInterface</text>
</a>
</g>
</g>
<!-- Node26&#45;&gt;Node5 -->
<g id="edge25" class="edge">
<title>Node26&#45;&gt;Node5</title>
<path fill="none" stroke="#63b8ff" d="M579.46,-351.63C581.37,-352.83 583.22,-354.12 585,-355.5 613.86,-377.96 602.41,-398 621,-429.5 652.88,-483.53 698.5,-543.34 716.64,-566.54"/>
<polygon fill="#63b8ff" stroke="#63b8ff" points="581.23,-348.61 570.76,-347.04 577.97,-354.8 581.23,-348.61"/>
</g>
<!-- Node27 -->
<g id="node27" class="node">
<title>Node27</title>
<g id="a_node27"><a xlink:href="classBoundaryRestrictableRequired.html" target="_top" xlink:title="A class for requiring an object to be boundary restricted.">
<polygon fill="white" stroke="#666666" points="818,-420 633,-420 633,-401 818,-401 818,-420"/>
<text text-anchor="middle" x="725.5" y="-408" font-family="Courier,monospace" font-size="10.00">BoundaryRestrictableRequired</text>
</a>
</g>
</g>
<!-- Node27&#45;&gt;Node4 -->
<g id="edge26" class="edge">
<title>Node27&#45;&gt;Node4</title>
<path fill="none" stroke="#63b8ff" d="M819.22,-397.05C822.91,-395.68 826.52,-394.16 830,-392.5 863.31,-376.57 893.58,-343.89 907.47,-327.44"/>
<polygon fill="#63b8ff" stroke="#63b8ff" points="818.44,-393.62 810.05,-400.09 820.64,-400.26 818.44,-393.62"/>
</g>
<!-- Node28 -->
<g id="node28" class="node">
<title>Node28</title>
<g id="a_node28"><a xlink:href="classBoundaryRestrictable.html" target="_top" xlink:title="/class BoundaryRestrictable /brief Provides functionality for limiting the object to certain boundary...">
<polygon fill="white" stroke="#666666" points="561,-309 424,-309 424,-290 561,-290 561,-309"/>
<text text-anchor="middle" x="492.5" y="-297" font-family="Courier,monospace" font-size="10.00">BoundaryRestrictable</text>
</a>
</g>
</g>
<!-- Node28&#45;&gt;Node27 -->
<g id="edge27" class="edge">
<title>Node28&#45;&gt;Node27</title>
<path fill="none" stroke="#63b8ff" d="M571.75,-310.4C576.46,-312.66 580.93,-315.33 585,-318.5 613.86,-340.96 591.78,-370.51 621,-392.5 625.15,-395.63 629.66,-398.28 634.4,-400.52"/>
<polygon fill="#63b8ff" stroke="#63b8ff" points="573.11,-307.18 562.52,-306.68 570.49,-313.67 573.11,-307.18"/>
</g>
<!-- Node29 -->
<g id="node29" class="node">
<title>Node29</title>
<g id="a_node29"><a xlink:href="classMaterialPropertyInterface.html" target="_top" xlink:title="An interface for accessing Materials.">
<polygon fill="white" stroke="#666666" points="809,-383 642,-383 642,-364 809,-364 809,-383"/>
<text text-anchor="middle" x="725.5" y="-371" font-family="Courier,monospace" font-size="10.00">MaterialPropertyInterface</text>
</a>
</g>
</g>
<!-- Node29&#45;&gt;Node4 -->
<g id="edge28" class="edge">
<title>Node29&#45;&gt;Node4</title>
<path fill="none" stroke="#63b8ff" d="M808.57,-361.15C815.87,-359.47 823.11,-357.6 830,-355.5 853.78,-348.27 879.67,-336.11 896.66,-327.49"/>
<polygon fill="#63b8ff" stroke="#63b8ff" points="807.99,-357.7 798.95,-363.23 809.47,-364.54 807.99,-357.7"/>
</g>
<!-- Node30 -->
<g id="node30" class="node">
<title>Node30</title>
<g id="a_node30"><a xlink:href="classCoupleable.html" target="_top" xlink:title="Interface for objects that needs coupling capabilities.">
<polygon fill="white" stroke="#666666" points="764,-346 687,-346 687,-327 764,-327 764,-346"/>
<text text-anchor="middle" x="725.5" y="-334" font-family="Courier,monospace" font-size="10.00">Coupleable</text>
</a>
</g>
</g>
<!-- Node30&#45;&gt;Node4 -->
<g id="edge29" class="edge">
<title>Node30&#45;&gt;Node4</title>
<path fill="none" stroke="#63b8ff" d="M775.69,-331.55C803.36,-328.77 837.81,-325.31 865.59,-322.52"/>
<polygon fill="#63b8ff" stroke="#63b8ff" points="775.4,-328.07 765.8,-332.55 776.1,-335.03 775.4,-328.07"/>
</g>
<!-- Node31 -->
<g id="node31" class="node">
<title>Node31</title>
<g id="a_node31"><a xlink:href="classMooseVariableDependencyInterface.html" target="_top" xlink:title=" ">
<polygon fill="white" stroke="#666666" points="830,-309 621,-309 621,-290 830,-290 830,-309"/>
<text text-anchor="middle" x="725.5" y="-297" font-family="Courier,monospace" font-size="10.00">MooseVariableDependencyInterface</text>
</a>
</g>
</g>
<!-- Node31&#45;&gt;Node4 -->
<g id="edge30" class="edge">
<title>Node31&#45;&gt;Node4</title>
<path fill="none" stroke="#63b8ff" d="M841.61,-310.46C850.05,-311.27 858.26,-312.05 865.95,-312.78"/>
<polygon fill="#63b8ff" stroke="#63b8ff" points="842.19,-307 831.91,-309.54 841.53,-313.97 842.19,-307"/>
</g>
<!-- Node32 -->
<g id="node32" class="node">
<title>Node32</title>
<g id="a_node32"><a xlink:href="classTransientInterface.html" target="_top" xlink:title="Interface for objects that needs transient capabilities.">
<polygon fill="white" stroke="#666666" points="788,-272 663,-272 663,-253 788,-253 788,-272"/>
<text text-anchor="middle" x="725.5" y="-260" font-family="Courier,monospace" font-size="10.00">TransientInterface</text>
</a>
</g>
</g>
<!-- Node32&#45;&gt;Node4 -->
<g id="edge31" class="edge">
<title>Node32&#45;&gt;Node4</title>
<path fill="none" stroke="#63b8ff" d="M799.46,-273.84C809.8,-276.04 820.23,-278.58 830,-281.5 853.15,-288.41 878.53,-299.58 895.57,-307.65"/>
<polygon fill="#63b8ff" stroke="#63b8ff" points="800.3,-270.43 789.8,-271.88 798.91,-277.29 800.3,-270.43"/>
</g>
<!-- Node33 -->
<g id="node33" class="node">
<title>Node33</title>
<g id="a_node33"><a xlink:href="classElementIDInterface.html" target="_top" xlink:title=" ">
<polygon fill="white" stroke="#666666" points="788,-235 663,-235 663,-216 788,-216 788,-235"/>
<text text-anchor="middle" x="725.5" y="-223" font-family="Courier,monospace" font-size="10.00">ElementIDInterface</text>
</a>
</g>
</g>
<!-- Node33&#45;&gt;Node4 -->
<g id="edge32" class="edge">
<title>Node33&#45;&gt;Node4</title>
<path fill="none" stroke="#63b8ff" d="M799.36,-233.86C809.93,-236.5 820.45,-239.96 830,-244.5 862.78,-260.1 893.06,-291.57 907.17,-307.61"/>
<polygon fill="#63b8ff" stroke="#63b8ff" points="800.37,-230.5 789.84,-231.73 798.84,-237.33 800.37,-230.5"/>
</g>
<!-- Node34 -->
<g id="node34" class="node">
<title>Node34</title>
<g id="a_node34"><a xlink:href="classPostprocessor.html" target="_top" xlink:title="Base class for all Postprocessors.">
<polygon fill="white" stroke="#666666" points="964,-161 869,-161 869,-142 964,-142 964,-161"/>
<text text-anchor="middle" x="916.5" y="-149" font-family="Courier,monospace" font-size="10.00">Postprocessor</text>
</a>
</g>
</g>
<!-- Node34&#45;&gt;Node3 -->
<g id="edge33" class="edge">
<title>Node34&#45;&gt;Node3</title>
<path fill="none" stroke="#63b8ff" d="M975.47,-151.5C991.13,-151.5 1008.07,-151.5 1023.77,-151.5"/>
<polygon fill="#63b8ff" stroke="#63b8ff" points="975.85,-148 965.85,-151.5 975.85,-155 975.85,-148"/>
</g>
<!-- Node35 -->
<g id="node35" class="node">
<title>Node35</title>
<g id="a_node35"><a xlink:href="classOutputInterface.html" target="_top" xlink:title="A class to provide an common interface to objects requiring &quot;outputs&quot; option.">
<polygon fill="white" stroke="#666666" points="779,-198 672,-198 672,-179 779,-179 779,-198"/>
<text text-anchor="middle" x="725.5" y="-186" font-family="Courier,monospace" font-size="10.00">OutputInterface</text>
</a>
</g>
</g>
<!-- Node35&#45;&gt;Node34 -->
<g id="edge34" class="edge">
<title>Node35&#45;&gt;Node34</title>
<path fill="none" stroke="#63b8ff" d="M790.54,-177.84C803.62,-175.53 817.27,-173.02 830,-170.5 843.87,-167.75 858.95,-164.5 872.52,-161.46"/>
<polygon fill="#63b8ff" stroke="#63b8ff" points="789.98,-174.39 780.73,-179.55 791.18,-181.28 789.98,-174.39"/>
</g>
<!-- Node36 -->
<g id="node36" class="node">
<title>Node36</title>
<g id="a_node36"><a xlink:href="classNonADFunctorInterface.html" target="_top" xlink:title="An interface for accessing Moose::Functors for systems that do not care about automatic differentiati...">
<polygon fill="white" stroke="#666666" points="797,-161 654,-161 654,-142 797,-142 797,-161"/>
<text text-anchor="middle" x="725.5" y="-149" font-family="Courier,monospace" font-size="10.00">NonADFunctorInterface</text>
</a>
</g>
</g>
<!-- Node36&#45;&gt;Node34 -->
<g id="edge35" class="edge">
<title>Node36&#45;&gt;Node34</title>
<path fill="none" stroke="#63b8ff" d="M808.69,-151.5C829.18,-151.5 850.45,-151.5 868.57,-151.5"/>
<polygon fill="#63b8ff" stroke="#63b8ff" points="808.93,-148 798.93,-151.5 808.93,-155 808.93,-148"/>
</g>
<!-- Node37 -->
<g id="node37" class="node">
<title>Node37</title>
<g id="a_node37"><a xlink:href="classFunctorInterface.html" target="_top" xlink:title="An interface for accessing Moose::Functors.">
<polygon fill="white" stroke="#666666" points="549,-161 436,-161 436,-142 549,-142 549,-161"/>
<text text-anchor="middle" x="492.5" y="-149" font-family="Courier,monospace" font-size="10.00">FunctorInterface</text>
</a>
</g>
</g>
<!-- Node37&#45;&gt;Node36 -->
<g id="edge36" class="edge">
<title>Node37&#45;&gt;Node36</title>
<path fill="none" stroke="#63b8ff" d="M560.76,-151.5C589.96,-151.5 624.18,-151.5 653.77,-151.5"/>
<polygon fill="#63b8ff" stroke="#63b8ff" points="560.93,-148 550.93,-151.5 560.93,-155 560.93,-148"/>
</g>
<!-- Node38 -->
<g id="node38" class="node">
<title>Node38</title>
<g id="a_node38"><a xlink:href="classMoose_1_1FunctorBase.html" target="_top" xlink:title=" ">
<polygon fill="white" stroke="#666666" points="788,-123.5 663,-123.5 663,-93.5 788,-93.5 788,-123.5"/>
<text text-anchor="start" x="671" y="-111.5" font-family="Courier,monospace" font-size="10.00">Moose::FunctorBase</text>
<text text-anchor="middle" x="725.5" y="-100.5" font-family="Courier,monospace" font-size="10.00">&lt; Real &gt;</text>
</a>
</g>
</g>
<!-- Node38&#45;&gt;Node34 -->
<g id="edge37" class="edge">
<title>Node38&#45;&gt;Node34</title>
<path fill="none" stroke="#63b8ff" d="M799.43,-125.09C823.84,-130.65 850.27,-136.66 871.74,-141.54"/>
<polygon fill="#63b8ff" stroke="#63b8ff" points="800.39,-121.72 789.86,-122.92 798.84,-128.55 800.39,-121.72"/>
</g>
<!-- Node39 -->
<g id="node39" class="node">
<title>Node39</title>
<g id="a_node39"><a xlink:href="classMoose_1_1FunctorAbstract.html" target="_top" xlink:title="Abstract base class that can be used to hold collections of functors.">
<polygon fill="white" stroke="#666666" points="567,-116 418,-116 418,-97 567,-97 567,-116"/>
<text text-anchor="middle" x="492.5" y="-104" font-family="Courier,monospace" font-size="10.00">Moose::FunctorAbstract</text>
</a>
</g>
</g>
<!-- Node39&#45;&gt;Node38 -->
<g id="edge38" class="edge">
<title>Node39&#45;&gt;Node38</title>
<path fill="none" stroke="#63b8ff" d="M578.58,-107.24C606.46,-107.48 636.88,-107.74 662.7,-107.96"/>
<polygon fill="#63b8ff" stroke="#63b8ff" points="578.77,-103.74 568.74,-107.15 578.71,-110.74 578.77,-103.74"/>
</g>
<!-- Node40 -->
<g id="node40" class="node">
<title>Node40</title>
<g id="a_node40"><a xlink:href="classFaceArgInterface.html" target="_top" xlink:title="A base class interface for both producers and consumers of functor face arguments,...">
<polygon fill="white" stroke="#666666" points="331,-95 218,-95 218,-76 331,-76 331,-95"/>
<text text-anchor="middle" x="274.5" y="-83" font-family="Courier,monospace" font-size="10.00">FaceArgInterface</text>
</a>
</g>
</g>
<!-- Node40&#45;&gt;Node39 -->
<g id="edge39" class="edge">
<title>Node40&#45;&gt;Node39</title>
<path fill="none" stroke="#63b8ff" d="M342.78,-92.04C366.49,-94.35 393.27,-96.95 417.51,-99.31"/>
<polygon fill="#63b8ff" stroke="#63b8ff" points="343.2,-88.57 332.91,-91.08 342.53,-95.53 343.2,-88.57"/>
</g>
<!-- Node42 -->
<g id="node42" class="node">
<title>Node42</title>
<g id="a_node42"><a xlink:href="classFaceArgProducerInterface.html" target="_top" xlink:title="An interface for producers of functor face arguments, e.g.">
<polygon fill="white" stroke="#666666" points="1164,-99 1003,-99 1003,-80 1164,-80 1164,-99"/>
<text text-anchor="middle" x="1083.5" y="-87" font-family="Courier,monospace" font-size="10.00">FaceArgProducerInterface</text>
</a>
</g>
</g>
<!-- Node40&#45;&gt;Node42 -->
<g id="edge42" class="edge">
<title>Node40&#45;&gt;Node42</title>
<path fill="none" stroke="#63b8ff" d="M342.67,-84.87C446.97,-84.01 654.17,-82.76 830,-84.5 887.76,-85.07 952.95,-86.38 1002.62,-87.51"/>
<polygon fill="#63b8ff" stroke="#63b8ff" points="342.87,-81.37 332.9,-84.95 342.93,-88.37 342.87,-81.37"/>
</g>
<!-- Node41 -->
<g id="node41" class="node">
<title>Node41</title>
<g id="a_node41"><a xlink:href="classMooseVariableInterface.html" target="_top" xlink:title=" ">
<polygon fill="white" stroke="#666666" points="1358,-67.5 1209,-67.5 1209,-37.5 1358,-37.5 1358,-67.5"/>
<text text-anchor="start" x="1217" y="-55.5" font-family="Courier,monospace" font-size="10.00">MooseVariableInterface</text>
<text text-anchor="middle" x="1283.5" y="-44.5" font-family="Courier,monospace" font-size="10.00">&lt; Real &gt;</text>
</a>
</g>
</g>
<!-- Node41&#45;&gt;Node1 -->
<g id="edge40" class="edge">
<title>Node41&#45;&gt;Node1</title>
<path fill="none" stroke="#63b8ff" d="M1369.62,-68.77C1399.07,-74.39 1431.17,-80.53 1457.19,-85.5"/>
<polygon fill="#63b8ff" stroke="#63b8ff" points="1370.45,-65.36 1359.97,-66.92 1369.14,-72.24 1370.45,-65.36"/>
</g>
<!-- Node42&#45;&gt;Node1 -->
<g id="edge41" class="edge">
<title>Node42&#45;&gt;Node1</title>
<path fill="none" stroke="#63b8ff" d="M1175.74,-90.79C1242.29,-91.73 1332.7,-93 1402.63,-93.99"/>
<polygon fill="#63b8ff" stroke="#63b8ff" points="1176,-87.29 1165.95,-90.65 1175.9,-94.29 1176,-87.29"/>
</g>
<!-- Node44 -->
<g id="node44" class="node">
<title>Node44</title>
<g id="a_node44"><a xlink:href="classSideDiffusiveFluxAverageTempl.html" target="_top" xlink:title=" ">
<polygon fill="white" stroke="#666666" points="2033,-193.5 1872,-193.5 1872,-163.5 2033,-163.5 2033,-193.5"/>
<text text-anchor="start" x="1880" y="-181.5" font-family="Courier,monospace" font-size="10.00">SideDiffusiveFluxAverage</text>
<text text-anchor="middle" x="1952.5" y="-170.5" font-family="Courier,monospace" font-size="10.00">Templ&lt; is_ad &gt;</text>
</a>
</g>
</g>
<!-- Node43&#45;&gt;Node44 -->
<g id="edge44" class="edge">
<title>Node43&#45;&gt;Node44</title>
<path fill="none" stroke="#63b8ff" d="M1832.76,-177.94C1845.71,-178 1858.9,-178.07 1871.56,-178.12"/>
<polygon fill="#63b8ff" stroke="#63b8ff" points="1832.99,-174.44 1822.97,-177.9 1832.96,-181.44 1832.99,-174.44"/>
</g>
<!-- Node46 -->
<g id="node46" class="node">
<title>Node46</title>
<g id="a_node46"><a xlink:href="classAxisymmetricCenterlineAverageValue.html" target="_top" xlink:title="This postprocessor computes a line integral of the specified variable along the centerline of an axis...">
<polygon fill="white" stroke="#666666" points="2048,-145.5 1857,-145.5 1857,-115.5 2048,-115.5 2048,-145.5"/>
<text text-anchor="start" x="1865" y="-133.5" font-family="Courier,monospace" font-size="10.00">AxisymmetricCenterlineAverage</text>
<text text-anchor="middle" x="1952.5" y="-122.5" font-family="Courier,monospace" font-size="10.00">Value</text>
</a>
</g>
</g>
<!-- Node45&#45;&gt;Node46 -->
<g id="edge46" class="edge">
<title>Node45&#45;&gt;Node46</title>
<path fill="none" stroke="#63b8ff" d="M1805.96,-131.87C1822.11,-131.71 1839.66,-131.55 1856.79,-131.39"/>
<polygon fill="#63b8ff" stroke="#63b8ff" points="1805.94,-128.37 1795.98,-131.96 1806.01,-135.37 1805.94,-128.37"/>
</g>
</g>
</svg>
