<?xml version="1.0" encoding="UTF-8" standalone="no"?>
<!DOCTYPE svg PUBLIC "-//W3C//DTD SVG 1.1//EN"
 "http://www.w3.org/Graphics/SVG/1.1/DTD/svg11.dtd">
<!-- Generated by graphviz version 7.0.5 (20221223.1930)
 -->
<!-- Title: AdvancedOutput Pages: 1 -->
<!--zoomable 416 -->
<svg id="main" version="1.1" xmlns="http://www.w3.org/2000/svg" xmlns:xlink="http://www.w3.org/1999/xlink" xml:space="preserve" onload="init(evt)">
<style type="text/css"><![CDATA[
.edge:hover path { stroke: red; }
.edge:hover polygon { stroke: red; fill: red; }
]]></style>
<script type="text/javascript"><![CDATA[
var edges = document.getElementsByTagName('g');
if (edges && edges.length) {
  for (var i=0;i<edges.length;i++) {
    if (edges[i].id.substr(0,4)=='edge') {
      edges[i].setAttribute('class','edge');
    }
  }
}
]]></script>
        <defs>
                <circle id="rim" cx="0" cy="0" r="7"/>
                <circle id="rim2" cx="0" cy="0" r="3.5"/>
                <g id="zoomPlus">
                        <use xlink:href="#rim" fill="#404040">
                                <set attributeName="fill" to="#808080" begin="zoomplus.mouseover" end="zoomplus.mouseout"/>
                        </use>
                        <path d="M-4,0h8M0,-4v8" fill="none" stroke="white" stroke-width="1.5" pointer-events="none"/>
                </g>
                <g id="zoomMin">
                        <use xlink:href="#rim" fill="#404040">
                                <set attributeName="fill" to="#808080" begin="zoomminus.mouseover" end="zoomminus.mouseout"/>
                        </use>
                        <path d="M-4,0h8" fill="none" stroke="white" stroke-width="1.5" pointer-events="none"/>
                </g>
                <g id="dirArrow">
                        <path fill="none" stroke="white" stroke-width="1.5" d="M0,-3.0v7 M-2.5,-0.5L0,-3.0L2.5,-0.5"/>
                </g>
               <g id="resetDef">
                       <use xlink:href="#rim2" fill="#404040">
                               <set attributeName="fill" to="#808080" begin="reset.mouseover" end="reset.mouseout"/>
                       </use>
               </g>
        </defs>

<script type="text/javascript">
var viewWidth = 1391;
var viewHeight = 416;
var sectionId = 'dynsection-0';
</script>
<script xlink:href="svgpan.js"/>
<svg id="graph" class="graph">
<g id="viewport">
<title>AdvancedOutput</title>
<!-- Node1 -->
<g id="node1" class="node">
<title>Node1</title>
<g id="a_node1"><a xlink:title="Based class for output objects.">
<polygon fill="#999999" stroke="#666666" points="1127,-167 1026,-167 1026,-148 1127,-148 1127,-167"/>
<text text-anchor="middle" x="1076.5" y="-155" font-family="Courier,monospace" font-size="10.00">AdvancedOutput</text>
</a>
</g>
</g>
<!-- Node21 -->
<g id="node21" class="node">
<title>Node21</title>
<g id="a_node21"><a xlink:href="classJSONOutput.html" target="_top" xlink:title=" ">
<polygon fill="white" stroke="#666666" points="1258,-241 1181,-241 1181,-222 1258,-222 1258,-241"/>
<text text-anchor="middle" x="1219.5" y="-229" font-family="Courier,monospace" font-size="10.00">JSONOutput</text>
</a>
</g>
</g>
<!-- Node1&#45;&gt;Node21 -->
<g id="edge20" class="edge">
<title>Node1&#45;&gt;Node21</title>
<path fill="none" stroke="#63b8ff" d="M1099.12,-173.99C1115.86,-186.17 1139.99,-202.48 1163,-213.5 1169.3,-216.52 1176.24,-219.22 1183.01,-221.55"/>
<polygon fill="#63b8ff" stroke="#63b8ff" points="1101.52,-171.42 1091.4,-168.27 1097.35,-177.04 1101.52,-171.42"/>
</g>
<!-- Node22 -->
<g id="node22" class="node">
<title>Node22</title>
<g id="a_node22"><a xlink:href="classNemesis.html" target="_top" xlink:title="Class for output data to the Nemesis format.">
<polygon fill="white" stroke="#666666" points="1249,-204 1190,-204 1190,-185 1249,-185 1249,-204"/>
<text text-anchor="middle" x="1219.5" y="-192" font-family="Courier,monospace" font-size="10.00">Nemesis</text>
</a>
</g>
</g>
<!-- Node1&#45;&gt;Node22 -->
<g id="edge21" class="edge">
<title>Node1&#45;&gt;Node22</title>
<path fill="none" stroke="#63b8ff" d="M1126.33,-170.31C1147.41,-175.85 1171.36,-182.13 1189.56,-186.91"/>
<polygon fill="#63b8ff" stroke="#63b8ff" points="1127.31,-166.95 1116.75,-167.8 1125.53,-173.72 1127.31,-166.95"/>
</g>
<!-- Node23 -->
<g id="node23" class="node">
<title>Node23</title>
<g id="a_node23"><a xlink:href="classOversampleOutput.html" target="_top" xlink:title="Based class for providing re&#45;positioning and oversampling support to output objects.">
<polygon fill="white" stroke="#666666" points="1276,-167 1163,-167 1163,-148 1276,-148 1276,-167"/>
<text text-anchor="middle" x="1219.5" y="-155" font-family="Courier,monospace" font-size="10.00">OversampleOutput</text>
</a>
</g>
</g>
<!-- Node1&#45;&gt;Node23 -->
<g id="edge22" class="edge">
<title>Node1&#45;&gt;Node23</title>
<path fill="none" stroke="#63b8ff" d="M1138.66,-157.5C1146.59,-157.5 1154.67,-157.5 1162.51,-157.5"/>
<polygon fill="#63b8ff" stroke="#63b8ff" points="1138.72,-154 1128.72,-157.5 1138.72,-161 1138.72,-154"/>
</g>
<!-- Node29 -->
<g id="node29" class="node">
<title>Node29</title>
<g id="a_node29"><a xlink:href="classTableOutput.html" target="_top" xlink:title="Base class for scalar variables and postprocessors output objects.">
<polygon fill="white" stroke="#666666" points="1261,-93 1178,-93 1178,-74 1261,-74 1261,-93"/>
<text text-anchor="middle" x="1219.5" y="-81" font-family="Courier,monospace" font-size="10.00">TableOutput</text>
</a>
</g>
</g>
<!-- Node1&#45;&gt;Node29 -->
<g id="edge28" class="edge">
<title>Node1&#45;&gt;Node29</title>
<path fill="none" stroke="#63b8ff" d="M1106.5,-142.28C1134.46,-127.61 1175.94,-105.84 1199.79,-93.32"/>
<polygon fill="#63b8ff" stroke="#63b8ff" points="1105.08,-139.07 1097.86,-146.82 1108.34,-145.27 1105.08,-139.07"/>
</g>
<!-- Node33 -->
<g id="node33" class="node">
<title>Node33</title>
<g id="a_node33"><a xlink:href="classXMLOutput.html" target="_top" xlink:title=" ">
<polygon fill="white" stroke="#666666" points="1255,-56 1184,-56 1184,-37 1255,-37 1255,-56"/>
<text text-anchor="middle" x="1219.5" y="-44" font-family="Courier,monospace" font-size="10.00">XMLOutput</text>
</a>
</g>
</g>
<!-- Node1&#45;&gt;Node33 -->
<g id="edge32" class="edge">
<title>Node1&#45;&gt;Node33</title>
<path fill="none" stroke="#63b8ff" d="M1090.45,-138.34C1105.55,-117.37 1132.38,-84.15 1163,-64.5 1169.22,-60.51 1176.41,-57.33 1183.51,-54.82"/>
<polygon fill="#63b8ff" stroke="#63b8ff" points="1087.75,-136.09 1084.88,-146.29 1093.48,-140.1 1087.75,-136.09"/>
</g>
<!-- Node2 -->
<g id="node2" class="node">
<title>Node2</title>
<g id="a_node2"><a xlink:href="classFileOutput.html" target="_top" xlink:title="An outputter with filename support.">
<polygon fill="white" stroke="#666666" points="990,-167 913,-167 913,-148 990,-148 990,-167"/>
<text text-anchor="middle" x="951.5" y="-155" font-family="Courier,monospace" font-size="10.00">FileOutput</text>
</a>
</g>
</g>
<!-- Node2&#45;&gt;Node1 -->
<g id="edge1" class="edge">
<title>Node2&#45;&gt;Node1</title>
<path fill="none" stroke="#63b8ff" d="M1001.72,-157.5C1009.62,-157.5 1017.8,-157.5 1025.71,-157.5"/>
<polygon fill="#63b8ff" stroke="#63b8ff" points="1001.92,-154 991.92,-157.5 1001.92,-161 1001.92,-154"/>
</g>
<!-- Node3 -->
<g id="node3" class="node">
<title>Node3</title>
<g id="a_node3"><a xlink:href="classPetscOutput.html" target="_top" xlink:title="Adds the ability to output on every nonlinear and/or linear residual.">
<polygon fill="white" stroke="#666666" points="877,-167 794,-167 794,-148 877,-148 877,-167"/>
<text text-anchor="middle" x="835.5" y="-155" font-family="Courier,monospace" font-size="10.00">PetscOutput</text>
</a>
</g>
</g>
<!-- Node3&#45;&gt;Node2 -->
<g id="edge2" class="edge">
<title>Node3&#45;&gt;Node2</title>
<path fill="none" stroke="#63b8ff" d="M888.61,-157.5C896.7,-157.5 904.92,-157.5 912.61,-157.5"/>
<polygon fill="#63b8ff" stroke="#63b8ff" points="888.85,-154 878.85,-157.5 888.85,-161 888.85,-154"/>
</g>
<!-- Node4 -->
<g id="node4" class="node">
<title>Node4</title>
<g id="a_node4"><a xlink:href="classOutput.html" target="_top" xlink:title="Based class for output objects.">
<polygon fill="white" stroke="#666666" points="716,-186 663,-186 663,-167 716,-167 716,-186"/>
<text text-anchor="middle" x="689.5" y="-174" font-family="Courier,monospace" font-size="10.00">Output</text>
</a>
</g>
</g>
<!-- Node4&#45;&gt;Node3 -->
<g id="edge3" class="edge">
<title>Node4&#45;&gt;Node3</title>
<path fill="none" stroke="#63b8ff" d="M727.54,-171.61C747.79,-168.94 772.93,-165.62 793.74,-162.88"/>
<polygon fill="#63b8ff" stroke="#63b8ff" points="727.2,-168.13 717.74,-172.91 728.12,-175.07 727.2,-168.13"/>
</g>
<!-- Node5 -->
<g id="node5" class="node">
<title>Node5</title>
<g id="a_node5"><a xlink:href="classMooseObject.html" target="_top" xlink:title="Every object that can be built by the factory should be derived from this class.">
<polygon fill="white" stroke="#666666" points="534,-334 451,-334 451,-315 534,-315 534,-334"/>
<text text-anchor="middle" x="492.5" y="-322" font-family="Courier,monospace" font-size="10.00">MooseObject</text>
</a>
</g>
</g>
<!-- Node5&#45;&gt;Node4 -->
<g id="edge4" class="edge">
<title>Node5&#45;&gt;Node4</title>
<path fill="none" stroke="#63b8ff" d="M545.62,-320.72C559.15,-318.05 573.22,-313.66 585,-306.5 635.53,-275.77 671.5,-210.89 683.83,-186.26"/>
<polygon fill="#63b8ff" stroke="#63b8ff" points="545.23,-317.24 535.94,-322.33 546.38,-324.14 545.23,-317.24"/>
</g>
<!-- Node6 -->
<g id="node6" class="node">
<title>Node6</title>
<g id="a_node6"><a xlink:href="classMooseBase.html" target="_top" xlink:title="Base class for everything in MOOSE with a name and a type.">
<polygon fill="white" stroke="#666666" points="310,-408 239,-408 239,-389 310,-389 310,-408"/>
<text text-anchor="middle" x="274.5" y="-396" font-family="Courier,monospace" font-size="10.00">MooseBase</text>
</a>
</g>
</g>
<!-- Node6&#45;&gt;Node5 -->
<g id="edge5" class="edge">
<title>Node6&#45;&gt;Node5</title>
<path fill="none" stroke="#63b8ff" d="M321.62,-391.05C335.41,-388.31 350.46,-384.8 364,-380.5 403.87,-367.85 448.08,-346.72 472.56,-334.35"/>
<polygon fill="#63b8ff" stroke="#63b8ff" points="321.06,-387.59 311.89,-392.89 322.36,-394.47 321.06,-387.59"/>
</g>
<!-- Node7 -->
<g id="node7" class="node">
<title>Node7</title>
<g id="a_node7"><a xlink:href="classMooseBaseParameterInterface.html" target="_top" xlink:title="Every object that can be built by the factory should be derived from this class.">
<polygon fill="white" stroke="#666666" points="364,-371 185,-371 185,-352 364,-352 364,-371"/>
<text text-anchor="middle" x="274.5" y="-359" font-family="Courier,monospace" font-size="10.00">MooseBaseParameterInterface</text>
</a>
</g>
</g>
<!-- Node7&#45;&gt;Node5 -->
<g id="edge6" class="edge">
<title>Node7&#45;&gt;Node5</title>
<path fill="none" stroke="#63b8ff" d="M344.77,-349.63C379.7,-343.65 420.85,-336.6 450.68,-331.49"/>
<polygon fill="#63b8ff" stroke="#63b8ff" points="344.43,-346.14 335.16,-351.28 345.61,-353.04 344.43,-346.14"/>
</g>
<!-- Node8 -->
<g id="node8" class="node">
<title>Node8</title>
<g id="a_node8"><a xlink:href="classMooseBaseErrorInterface.html" target="_top" xlink:title="Interface that provides APIs to output errors/warnings/info messages.">
<polygon fill="white" stroke="#666666" points="352,-334 197,-334 197,-315 352,-315 352,-334"/>
<text text-anchor="middle" x="274.5" y="-322" font-family="Courier,monospace" font-size="10.00">MooseBaseErrorInterface</text>
</a>
</g>
</g>
<!-- Node8&#45;&gt;Node5 -->
<g id="edge7" class="edge">
<title>Node8&#45;&gt;Node5</title>
<path fill="none" stroke="#63b8ff" d="M363.7,-324.5C393.87,-324.5 426.17,-324.5 450.75,-324.5"/>
<polygon fill="#63b8ff" stroke="#63b8ff" points="363.78,-321 353.78,-324.5 363.78,-328 363.78,-321"/>
</g>
<!-- Node9 -->
<g id="node9" class="node">
<title>Node9</title>
<g id="a_node9"><a xlink:href="classConsoleStreamInterface.html" target="_top" xlink:title="An inteface for the _console for outputting to the Console object.">
<polygon fill="white" stroke="#666666" points="149,-334 0,-334 0,-315 149,-315 149,-334"/>
<text text-anchor="middle" x="74.5" y="-322" font-family="Courier,monospace" font-size="10.00">ConsoleStreamInterface</text>
</a>
</g>
</g>
<!-- Node9&#45;&gt;Node8 -->
<g id="edge8" class="edge">
<title>Node9&#45;&gt;Node8</title>
<path fill="none" stroke="#63b8ff" d="M160.62,-324.5C172.62,-324.5 184.9,-324.5 196.73,-324.5"/>
<polygon fill="#63b8ff" stroke="#63b8ff" points="160.74,-321 150.74,-324.5 160.74,-328 160.74,-321"/>
</g>
<!-- Node10 -->
<g id="node10" class="node">
<title>Node10</title>
<g id="a_node10"><a xlink:title=" ">
<polygon fill="white" stroke="#666666" points="352,-297 197,-297 197,-278 352,-278 352,-297"/>
<text text-anchor="middle" x="274.5" y="-285" font-family="Courier,monospace" font-size="10.00">libMesh::ParallelObject</text>
</a>
</g>
</g>
<!-- Node10&#45;&gt;Node5 -->
<g id="edge9" class="edge">
<title>Node10&#45;&gt;Node5</title>
<path fill="none" stroke="#63b8ff" d="M344.77,-299.37C379.7,-305.35 420.85,-312.4 450.68,-317.51"/>
<polygon fill="#63b8ff" stroke="#63b8ff" points="345.61,-295.96 335.16,-297.72 344.43,-302.86 345.61,-295.96"/>
</g>
<!-- Node11 -->
<g id="node11" class="node">
<title>Node11</title>
<g id="a_node11"><a xlink:href="classDataFileInterface.html" target="_top" xlink:title=" ">
<polygon fill="white" stroke="#666666" points="337,-259.5 212,-259.5 212,-229.5 337,-229.5 337,-259.5"/>
<text text-anchor="start" x="220" y="-247.5" font-family="Courier,monospace" font-size="10.00">DataFileInterface&lt;</text>
<text text-anchor="middle" x="274.5" y="-236.5" font-family="Courier,monospace" font-size="10.00"> MooseObject &gt;</text>
</a>
</g>
</g>
<!-- Node11&#45;&gt;Node5 -->
<g id="edge10" class="edge">
<title>Node11&#45;&gt;Node5</title>
<path fill="none" stroke="#63b8ff" d="M347.62,-261.35C353.32,-263.73 358.86,-266.44 364,-269.5 383.71,-281.24 379.83,-295.57 400,-306.5 415.37,-314.83 434.06,-319.34 450.53,-321.76"/>
<polygon fill="#63b8ff" stroke="#63b8ff" points="349.23,-258.22 338.64,-257.94 346.74,-264.76 349.23,-258.22"/>
</g>
<!-- Node12 -->
<g id="node12" class="node">
<title>Node12</title>
<g id="a_node12"><a xlink:href="classRestartable.html" target="_top" xlink:title="A class for creating restricted objects.">
<polygon fill="white" stroke="#666666" points="534,-297 451,-297 451,-278 534,-278 534,-297"/>
<text text-anchor="middle" x="492.5" y="-285" font-family="Courier,monospace" font-size="10.00">Restartable</text>
</a>
</g>
</g>
<!-- Node12&#45;&gt;Node4 -->
<g id="edge11" class="edge">
<title>Node12&#45;&gt;Node4</title>
<path fill="none" stroke="#63b8ff" d="M545.25,-282.31C558.67,-279.64 572.78,-275.6 585,-269.5 627.14,-248.46 665.14,-205.51 680.85,-186.24"/>
<polygon fill="#63b8ff" stroke="#63b8ff" points="544.94,-278.81 535.69,-283.98 546.14,-285.7 544.94,-278.81"/>
</g>
<!-- Node13 -->
<g id="node13" class="node">
<title>Node13</title>
<g id="a_node13"><a xlink:href="classMeshChangedInterface.html" target="_top" xlink:title="Interface for notifications that the mesh has changed.">
<polygon fill="white" stroke="#666666" points="561,-260 424,-260 424,-241 561,-241 561,-260"/>
<text text-anchor="middle" x="492.5" y="-248" font-family="Courier,monospace" font-size="10.00">MeshChangedInterface</text>
</a>
</g>
</g>
<!-- Node13&#45;&gt;Node4 -->
<g id="edge12" class="edge">
<title>Node13&#45;&gt;Node4</title>
<path fill="none" stroke="#63b8ff" d="M568.25,-237.75C573.97,-236.18 579.62,-234.44 585,-232.5 618.45,-220.47 654.25,-198.93 673.74,-186.35"/>
<polygon fill="#63b8ff" stroke="#63b8ff" points="567.48,-234.33 558.65,-240.18 569.2,-241.12 567.48,-234.33"/>
</g>
<!-- Node14 -->
<g id="node14" class="node">
<title>Node14</title>
<g id="a_node14"><a xlink:href="classSetupInterface.html" target="_top" xlink:title=" ">
<polygon fill="white" stroke="#666666" points="543,-223 442,-223 442,-204 543,-204 543,-223"/>
<text text-anchor="middle" x="492.5" y="-211" font-family="Courier,monospace" font-size="10.00">SetupInterface</text>
</a>
</g>
</g>
<!-- Node14&#45;&gt;Node4 -->
<g id="edge13" class="edge">
<title>Node14&#45;&gt;Node4</title>
<path fill="none" stroke="#63b8ff" d="M554.47,-201.93C590.84,-195.03 635.13,-186.63 662.58,-181.42"/>
<polygon fill="#63b8ff" stroke="#63b8ff" points="554.12,-198.43 544.95,-203.74 555.43,-205.31 554.12,-198.43"/>
</g>
<!-- Node15 -->
<g id="node15" class="node">
<title>Node15</title>
<g id="a_node15"><a xlink:href="classFunctionInterface.html" target="_top" xlink:title="Interface for objects that need to use functions.">
<polygon fill="white" stroke="#666666" points="552,-186 433,-186 433,-167 552,-167 552,-186"/>
<text text-anchor="middle" x="492.5" y="-174" font-family="Courier,monospace" font-size="10.00">FunctionInterface</text>
</a>
</g>
</g>
<!-- Node15&#45;&gt;Node4 -->
<g id="edge14" class="edge">
<title>Node15&#45;&gt;Node4</title>
<path fill="none" stroke="#63b8ff" d="M563.72,-176.5C598.13,-176.5 637.46,-176.5 662.61,-176.5"/>
<polygon fill="#63b8ff" stroke="#63b8ff" points="563.78,-173 553.78,-176.5 563.78,-180 563.78,-173"/>
</g>
<!-- Node16 -->
<g id="node16" class="node">
<title>Node16</title>
<g id="a_node16"><a xlink:href="classPostprocessorInterface.html" target="_top" xlink:title="Interface class for classes which interact with Postprocessors.">
<polygon fill="white" stroke="#666666" points="567,-149 418,-149 418,-130 567,-130 567,-149"/>
<text text-anchor="middle" x="492.5" y="-137" font-family="Courier,monospace" font-size="10.00">PostprocessorInterface</text>
</a>
</g>
</g>
<!-- Node16&#45;&gt;Node4 -->
<g id="edge15" class="edge">
<title>Node16&#45;&gt;Node4</title>
<path fill="none" stroke="#63b8ff" d="M556.92,-151.53C592.88,-158.36 635.91,-166.52 662.74,-171.61"/>
<polygon fill="#63b8ff" stroke="#63b8ff" points="557.98,-148.17 547.5,-149.75 556.67,-155.05 557.98,-148.17"/>
</g>
<!-- Node17 -->
<g id="node17" class="node">
<title>Node17</title>
<g id="a_node17"><a xlink:href="classVectorPostprocessorInterface.html" target="_top" xlink:title=" ">
<polygon fill="white" stroke="#666666" points="585,-112 400,-112 400,-93 585,-93 585,-112"/>
<text text-anchor="middle" x="492.5" y="-100" font-family="Courier,monospace" font-size="10.00">VectorPostprocessorInterface</text>
</a>
</g>
</g>
<!-- Node17&#45;&gt;Node4 -->
<g id="edge16" class="edge">
<title>Node17&#45;&gt;Node4</title>
<path fill="none" stroke="#63b8ff" d="M577.12,-116.61C579.82,-117.81 582.46,-119.1 585,-120.5 605.38,-131.72 601,-146.61 621,-158.5 633.61,-166 649.38,-170.43 662.51,-173.02"/>
<polygon fill="#63b8ff" stroke="#63b8ff" points="578.41,-113.36 567.82,-113.03 575.89,-119.89 578.41,-113.36"/>
</g>
<!-- Node18 -->
<g id="node18" class="node">
<title>Node18</title>
<g id="a_node18"><a xlink:href="classReporterInterface.html" target="_top" xlink:title="Interface to allow object to consume Reporter values.">
<polygon fill="white" stroke="#666666" points="552,-75 433,-75 433,-56 552,-56 552,-75"/>
<text text-anchor="middle" x="492.5" y="-63" font-family="Courier,monospace" font-size="10.00">ReporterInterface</text>
</a>
</g>
</g>
<!-- Node18&#45;&gt;Node4 -->
<g id="edge17" class="edge">
<title>Node18&#45;&gt;Node4</title>
<path fill="none" stroke="#63b8ff" d="M563.05,-71.94C570.95,-74.71 578.49,-78.46 585,-83.5 614.24,-106.13 592.53,-134.91 621,-158.5 632.67,-168.17 649.04,-172.69 662.73,-174.78"/>
<polygon fill="#63b8ff" stroke="#63b8ff" points="564.15,-68.61 553.57,-69.16 562.18,-75.33 564.15,-68.61"/>
</g>
<!-- Node19 -->
<g id="node19" class="node">
<title>Node19</title>
<g id="a_node19"><a xlink:href="classPerfGraphInterface.html" target="_top" xlink:title="Interface for objects interacting with the PerfGraph.">
<polygon fill="white" stroke="#666666" points="555,-38 430,-38 430,-19 555,-19 555,-38"/>
<text text-anchor="middle" x="492.5" y="-26" font-family="Courier,monospace" font-size="10.00">PerfGraphInterface</text>
</a>
</g>
</g>
<!-- Node19&#45;&gt;Node4 -->
<g id="edge18" class="edge">
<title>Node19&#45;&gt;Node4</title>
<path fill="none" stroke="#63b8ff" d="M565.8,-34.91C572.81,-37.74 579.39,-41.51 585,-46.5 624.07,-81.25 583.11,-122.47 621,-158.5 632.07,-169.03 648.6,-173.56 662.53,-175.44"/>
<polygon fill="#63b8ff" stroke="#63b8ff" points="567.31,-31.72 556.72,-31.88 565.1,-38.36 567.31,-31.72"/>
</g>
<!-- Node20 -->
<g id="node20" class="node">
<title>Node20</title>
<g id="a_node20"><a xlink:href="classPetscOutputInterface.html" target="_top" xlink:title=" ">
<polygon fill="white" stroke="#666666" points="758,-149 621,-149 621,-130 758,-130 758,-149"/>
<text text-anchor="middle" x="689.5" y="-137" font-family="Courier,monospace" font-size="10.00">PetscOutputInterface</text>
</a>
</g>
</g>
<!-- Node20&#45;&gt;Node3 -->
<g id="edge19" class="edge">
<title>Node20&#45;&gt;Node3</title>
<path fill="none" stroke="#63b8ff" d="M769.64,-149.39C777.94,-150.43 786.12,-151.45 793.71,-152.4"/>
<polygon fill="#63b8ff" stroke="#63b8ff" points="770.14,-145.93 759.79,-148.16 769.27,-152.87 770.14,-145.93"/>
</g>
<!-- Node24 -->
<g id="node24" class="node">
<title>Node24</title>
<g id="a_node24"><a xlink:href="classExodus.html" target="_top" xlink:title="Class for output data to the ExodusII format.">
<polygon fill="white" stroke="#666666" points="1374,-278 1321,-278 1321,-259 1374,-259 1374,-278"/>
<text text-anchor="middle" x="1347.5" y="-266" font-family="Courier,monospace" font-size="10.00">Exodus</text>
</a>
</g>
</g>
<!-- Node23&#45;&gt;Node24 -->
<g id="edge23" class="edge">
<title>Node23&#45;&gt;Node24</title>
<path fill="none" stroke="#63b8ff" d="M1271.42,-172.92C1273.03,-174.03 1274.56,-175.22 1276,-176.5 1303.4,-200.72 1286.5,-224.28 1312,-250.5 1315.01,-253.6 1318.68,-256.27 1322.48,-258.54"/>
<polygon fill="#63b8ff" stroke="#63b8ff" points="1273.4,-170.02 1262.97,-168.13 1269.94,-176.11 1273.4,-170.02"/>
</g>
<!-- Node25 -->
<g id="node25" class="node">
<title>Node25</title>
<g id="a_node25"><a xlink:href="classGMVOutput.html" target="_top" xlink:title="Class for output data to the GMVOutputII format.">
<polygon fill="white" stroke="#666666" points="1383,-241 1312,-241 1312,-222 1383,-222 1383,-241"/>
<text text-anchor="middle" x="1347.5" y="-229" font-family="Courier,monospace" font-size="10.00">GMVOutput</text>
</a>
</g>
</g>
<!-- Node23&#45;&gt;Node25 -->
<g id="edge24" class="edge">
<title>Node23&#45;&gt;Node25</title>
<path fill="none" stroke="#63b8ff" d="M1267.88,-171.97C1270.7,-173.36 1273.43,-174.87 1276,-176.5 1295.38,-188.77 1293.6,-199.8 1312,-213.5 1316.01,-216.49 1320.58,-219.25 1325.06,-221.67"/>
<polygon fill="#63b8ff" stroke="#63b8ff" points="1269.4,-168.81 1258.84,-168.03 1266.61,-175.23 1269.4,-168.81"/>
</g>
<!-- Node26 -->
<g id="node26" class="node">
<title>Node26</title>
<g id="a_node26"><a xlink:href="classTecplot.html" target="_top" xlink:title="Class for output data to the TecplotII format.">
<polygon fill="white" stroke="#666666" points="1377,-204 1318,-204 1318,-185 1377,-185 1377,-204"/>
<text text-anchor="middle" x="1347.5" y="-192" font-family="Courier,monospace" font-size="10.00">Tecplot</text>
</a>
</g>
</g>
<!-- Node23&#45;&gt;Node26 -->
<g id="edge25" class="edge">
<title>Node23&#45;&gt;Node26</title>
<path fill="none" stroke="#63b8ff" d="M1264.87,-170.53C1282.44,-175.69 1302.13,-181.47 1317.77,-186.06"/>
<polygon fill="#63b8ff" stroke="#63b8ff" points="1266.3,-167.3 1255.72,-167.84 1264.33,-174.02 1266.3,-167.3"/>
</g>
<!-- Node27 -->
<g id="node27" class="node">
<title>Node27</title>
<g id="a_node27"><a xlink:href="classVTKOutput.html" target="_top" xlink:title=" ">
<polygon fill="white" stroke="#666666" points="1383,-167 1312,-167 1312,-148 1383,-148 1383,-167"/>
<text text-anchor="middle" x="1347.5" y="-155" font-family="Courier,monospace" font-size="10.00">VTKOutput</text>
</a>
</g>
</g>
<!-- Node23&#45;&gt;Node27 -->
<g id="edge26" class="edge">
<title>Node23&#45;&gt;Node27</title>
<path fill="none" stroke="#63b8ff" d="M1287.76,-157.5C1296.01,-157.5 1304.17,-157.5 1311.65,-157.5"/>
<polygon fill="#63b8ff" stroke="#63b8ff" points="1288.01,-154 1278.01,-157.5 1288.01,-161 1288.01,-154"/>
</g>
<!-- Node28 -->
<g id="node28" class="node">
<title>Node28</title>
<g id="a_node28"><a xlink:href="classXDA.html" target="_top" xlink:title="Class for output data to the XDAII format.">
<polygon fill="white" stroke="#666666" points="1365,-130 1330,-130 1330,-111 1365,-111 1365,-130"/>
<text text-anchor="middle" x="1347.5" y="-118" font-family="Courier,monospace" font-size="10.00">XDA</text>
</a>
</g>
</g>
<!-- Node23&#45;&gt;Node28 -->
<g id="edge27" class="edge">
<title>Node23&#45;&gt;Node28</title>
<path fill="none" stroke="#63b8ff" d="M1265.23,-144.36C1287.55,-137.81 1313.22,-130.27 1329.64,-125.45"/>
<polygon fill="#63b8ff" stroke="#63b8ff" points="1264.33,-140.98 1255.72,-147.16 1266.3,-147.7 1264.33,-140.98"/>
</g>
<!-- Node30 -->
<g id="node30" class="node">
<title>Node30</title>
<g id="a_node30"><a xlink:href="classCSV.html" target="_top" xlink:title="Based class for adding basic filename support to output base class.">
<polygon fill="white" stroke="#666666" points="1365,-93 1330,-93 1330,-74 1365,-74 1365,-93"/>
<text text-anchor="middle" x="1347.5" y="-81" font-family="Courier,monospace" font-size="10.00">CSV</text>
</a>
</g>
</g>
<!-- Node29&#45;&gt;Node30 -->
<g id="edge29" class="edge">
<title>Node29&#45;&gt;Node30</title>
<path fill="none" stroke="#63b8ff" d="M1272.81,-83.5C1293.15,-83.5 1315.02,-83.5 1329.6,-83.5"/>
<polygon fill="#63b8ff" stroke="#63b8ff" points="1272.92,-80 1262.92,-83.5 1272.92,-87 1272.92,-80"/>
</g>
<!-- Node31 -->
<g id="node31" class="node">
<title>Node31</title>
<g id="a_node31"><a xlink:href="classConsole.html" target="_top" xlink:title="An output object for writing to the console (screen)">
<polygon fill="white" stroke="#666666" points="1377,-56 1318,-56 1318,-37 1377,-37 1377,-56"/>
<text text-anchor="middle" x="1347.5" y="-44" font-family="Courier,monospace" font-size="10.00">Console</text>
</a>
</g>
</g>
<!-- Node29&#45;&gt;Node31 -->
<g id="edge30" class="edge">
<title>Node29&#45;&gt;Node31</title>
<path fill="none" stroke="#63b8ff" d="M1264.87,-70.47C1282.44,-65.31 1302.13,-59.53 1317.77,-54.94"/>
<polygon fill="#63b8ff" stroke="#63b8ff" points="1264.33,-66.98 1255.72,-73.16 1266.3,-73.7 1264.33,-66.98"/>
</g>
<!-- Node32 -->
<g id="node32" class="node">
<title>Node32</title>
<g id="a_node32"><a xlink:href="classGnuplot.html" target="_top" xlink:title="Based class for adding basic filename support to output base class.">
<polygon fill="white" stroke="#666666" points="1377,-19 1318,-19 1318,0 1377,0 1377,-19"/>
<text text-anchor="middle" x="1347.5" y="-7" font-family="Courier,monospace" font-size="10.00">Gnuplot</text>
</a>
</g>
</g>
<!-- Node29&#45;&gt;Node32 -->
<g id="edge31" class="edge">
<title>Node29&#45;&gt;Node32</title>
<path fill="none" stroke="#63b8ff" d="M1267.88,-69.03C1270.7,-67.64 1273.43,-66.13 1276,-64.5 1295.38,-52.23 1293.6,-41.2 1312,-27.5 1316.01,-24.51 1320.58,-21.75 1325.06,-19.33"/>
<polygon fill="#63b8ff" stroke="#63b8ff" points="1266.61,-65.77 1258.84,-72.97 1269.4,-72.19 1266.61,-65.77"/>
</g>
</g>
</svg>
        <g id="navigator" transform="translate(0 0)" fill="#404254">
                <rect fill="#f2f5e9" fill-opacity="0.5" stroke="#606060" stroke-width=".5" x="0" y="0" width="60" height="60"/>
                <use id="zoomplus" xlink:href="#zoomPlus" x="17" y="9" onmousedown="handleZoom(evt,'in')"/>
                <use id="zoomminus" xlink:href="#zoomMin" x="42" y="9" onmousedown="handleZoom(evt,'out')"/>
                <use id="reset" xlink:href="#resetDef" x="30" y="36" onmousedown="handleReset()"/>
                <g id="arrowUp" xlink:href="#dirArrow" transform="translate(30 24)" onmousedown="handlePan(0,-1)">
                  <use xlink:href="#rim" fill="#404040">
                        <set attributeName="fill" to="#808080" begin="arrowUp.mouseover" end="arrowUp.mouseout"/>
                  </use>
                  <path fill="none" stroke="white" stroke-width="1.5" d="M0,-3.0v7 M-2.5,-0.5L0,-3.0L2.5,-0.5"/>
                </g>
                <g id="arrowRight" xlink:href="#dirArrow" transform="rotate(90) translate(36 -43)" onmousedown="handlePan(1,0)">
                  <use xlink:href="#rim" fill="#404040">
                        <set attributeName="fill" to="#808080" begin="arrowRight.mouseover" end="arrowRight.mouseout"/>
                  </use>
                  <path fill="none" stroke="white" stroke-width="1.5" d="M0,-3.0v7 M-2.5,-0.5L0,-3.0L2.5,-0.5"/>
                </g>
                <g id="arrowDown" xlink:href="#dirArrow" transform="rotate(180) translate(-30 -48)" onmousedown="handlePan(0,1)">
                  <use xlink:href="#rim" fill="#404040">
                        <set attributeName="fill" to="#808080" begin="arrowDown.mouseover" end="arrowDown.mouseout"/>
                  </use>
                  <path fill="none" stroke="white" stroke-width="1.5" d="M0,-3.0v7 M-2.5,-0.5L0,-3.0L2.5,-0.5"/>
                </g>
                <g id="arrowLeft" xlink:href="#dirArrow" transform="rotate(270) translate(-36 17)" onmousedown="handlePan(-1,0)">
                  <use xlink:href="#rim" fill="#404040">
                        <set attributeName="fill" to="#808080" begin="arrowLeft.mouseover" end="arrowLeft.mouseout"/>
                  </use>
                  <path fill="none" stroke="white" stroke-width="1.5" d="M0,-3.0v7 M-2.5,-0.5L0,-3.0L2.5,-0.5"/>
                </g>
        </g>
        <svg viewBox="0 0 15 15" width="100%" height="30px" preserveAspectRatio="xMaxYMin meet">
         <g id="arrow_out" transform="scale(0.3 0.3)">
          <a xlink:href="classAdvancedOutput__inherit__graph_org.svg" target="_base">
           <rect id="button" ry="5" rx="5" y="6" x="6" height="38" width="38"
                fill="#f2f5e9" fill-opacity="0.5" stroke="#606060" stroke-width="1.0"/>
           <path id="arrow"
             d="M 11.500037,31.436501 C 11.940474,20.09759 22.043105,11.32322 32.158766,21.979434 L 37.068811,17.246167 C 37.068811,17.246167 37.088388,32 37.088388,32 L 22.160133,31.978069 C 22.160133,31.978069 26.997745,27.140456 26.997745,27.140456 C 18.528582,18.264221 13.291696,25.230495 11.500037,31.436501 z"
             style="fill:#404040;"/>
          </a>
         </g>
        </svg>
</svg>
