<?xml version="1.0" encoding="UTF-8" standalone="no"?>
<!DOCTYPE svg PUBLIC "-//W3C//DTD SVG 1.1//EN"
 "http://www.w3.org/Graphics/SVG/1.1/DTD/svg11.dtd">
<!-- Generated by graphviz version 7.0.5 (20221223.1930)
 -->
<!-- Title: ThreadedElementLoopBase&lt; RangeType &gt; Pages: 1 -->
<!--zoomable 446 -->
<svg id="main" version="1.1" xmlns="http://www.w3.org/2000/svg" xmlns:xlink="http://www.w3.org/1999/xlink" xml:space="preserve" onload="init(evt)">
<style type="text/css"><![CDATA[
.edge:hover path { stroke: red; }
.edge:hover polygon { stroke: red; fill: red; }
]]></style>
<script type="text/javascript"><![CDATA[
var edges = document.getElementsByTagName('g');
if (edges && edges.length) {
  for (var i=0;i<edges.length;i++) {
    if (edges[i].id.substr(0,4)=='edge') {
      edges[i].setAttribute('class','edge');
    }
  }
}
]]></script>
        <defs>
                <circle id="rim" cx="0" cy="0" r="7"/>
                <circle id="rim2" cx="0" cy="0" r="3.5"/>
                <g id="zoomPlus">
                        <use xlink:href="#rim" fill="#404040">
                                <set attributeName="fill" to="#808080" begin="zoomplus.mouseover" end="zoomplus.mouseout"/>
                        </use>
                        <path d="M-4,0h8M0,-4v8" fill="none" stroke="white" stroke-width="1.5" pointer-events="none"/>
                </g>
                <g id="zoomMin">
                        <use xlink:href="#rim" fill="#404040">
                                <set attributeName="fill" to="#808080" begin="zoomminus.mouseover" end="zoomminus.mouseout"/>
                        </use>
                        <path d="M-4,0h8" fill="none" stroke="white" stroke-width="1.5" pointer-events="none"/>
                </g>
                <g id="dirArrow">
                        <path fill="none" stroke="white" stroke-width="1.5" d="M0,-3.0v7 M-2.5,-0.5L0,-3.0L2.5,-0.5"/>
                </g>
               <g id="resetDef">
                       <use xlink:href="#rim2" fill="#404040">
                               <set attributeName="fill" to="#808080" begin="reset.mouseover" end="reset.mouseout"/>
                       </use>
               </g>
        </defs>

<script type="text/javascript">
var viewWidth = 1214;
var viewHeight = 446;
var sectionId = 'dynsection-0';
</script>
<script xlink:href="svgpan.js"/>
<svg id="graph" class="graph">
<g id="viewport">
<title>ThreadedElementLoopBase&lt; RangeType &gt;</title>
<!-- Node1 -->
<g id="node1" class="node">
<title>Node1</title>
<g id="a_node1"><a xlink:title="Base class for assembly&#45;like calculations.">
<polygon fill="#999999" stroke="#666666" points="155,-203.5 0,-203.5 0,-173.5 155,-173.5 155,-203.5"/>
<text text-anchor="start" x="8" y="-191.5" font-family="Courier,monospace" font-size="10.00">ThreadedElementLoopBase</text>
<text text-anchor="middle" x="77.5" y="-180.5" font-family="Courier,monospace" font-size="10.00">&lt; RangeType &gt;</text>
</a>
</g>
</g>
<!-- Node2 -->
<g id="node2" class="node">
<title>Node2</title>
<g id="a_node2"><a xlink:href="classThreadedElementLoop.html" target="_top" xlink:title=" ">
<polygon fill="white" stroke="#666666" points="340,-368.5 209,-368.5 209,-338.5 340,-338.5 340,-368.5"/>
<text text-anchor="start" x="217" y="-356.5" font-family="Courier,monospace" font-size="10.00">ThreadedElementLoop</text>
<text text-anchor="middle" x="274.5" y="-345.5" font-family="Courier,monospace" font-size="10.00">&lt; DistElemRange &gt;</text>
</a>
</g>
</g>
<!-- Node1&#45;&gt;Node2 -->
<g id="edge1" class="edge">
<title>Node1&#45;&gt;Node2</title>
<path fill="none" stroke="#63b8ff" d="M105.24,-211.12C145.51,-245.2 220.7,-308.82 255.26,-338.07"/>
<polygon fill="#63b8ff" stroke="#63b8ff" points="107.55,-208.49 97.65,-204.7 103.02,-213.84 107.55,-208.49"/>
</g>
<!-- Node4 -->
<g id="node4" class="node">
<title>Node4</title>
<g id="a_node4"><a xlink:href="classThreadedElementLoop.html" target="_top" xlink:title=" ">
<polygon fill="white" stroke="#666666" points="340,-227.5 209,-227.5 209,-197.5 340,-197.5 340,-227.5"/>
<text text-anchor="start" x="217" y="-215.5" font-family="Courier,monospace" font-size="10.00">ThreadedElementLoop</text>
<text text-anchor="middle" x="274.5" y="-204.5" font-family="Courier,monospace" font-size="10.00">&lt; ConstElemRange &gt;</text>
</a>
</g>
</g>
<!-- Node1&#45;&gt;Node4 -->
<g id="edge3" class="edge">
<title>Node1&#45;&gt;Node4</title>
<path fill="none" stroke="#63b8ff" d="M166.59,-199.34C180.78,-201.09 195.24,-202.87 208.75,-204.53"/>
<polygon fill="#63b8ff" stroke="#63b8ff" points="167.14,-195.88 156.79,-198.14 166.29,-202.83 167.14,-195.88"/>
</g>
<!-- Node21 -->
<g id="node21" class="node">
<title>Node21</title>
<g id="a_node21"><a xlink:href="classThreadedElementLoop.html" target="_top" xlink:title=" ">
<polygon fill="white" stroke="#666666" points="358,-179.5 191,-179.5 191,-149.5 358,-149.5 358,-179.5"/>
<text text-anchor="start" x="199" y="-167.5" font-family="Courier,monospace" font-size="10.00">ThreadedElementLoop</text>
<text text-anchor="middle" x="274.5" y="-156.5" font-family="Courier,monospace" font-size="10.00">&lt; ConstElemPointerRange &gt;</text>
</a>
</g>
</g>
<!-- Node1&#45;&gt;Node21 -->
<g id="edge20" class="edge">
<title>Node1&#45;&gt;Node21</title>
<path fill="none" stroke="#63b8ff" d="M166.56,-177.66C174.58,-176.67 182.69,-175.68 190.67,-174.69"/>
<polygon fill="#63b8ff" stroke="#63b8ff" points="166.29,-174.17 156.79,-178.86 167.14,-181.12 166.29,-174.17"/>
</g>
<!-- Node23 -->
<g id="node23" class="node">
<title>Node23</title>
<g id="a_node23"><a xlink:href="classThreadedElementLoop.html" target="_top" xlink:title="Base class for assembly&#45;like calculations.">
<polygon fill="white" stroke="#666666" points="340,-131.5 209,-131.5 209,-101.5 340,-101.5 340,-131.5"/>
<text text-anchor="start" x="217" y="-119.5" font-family="Courier,monospace" font-size="10.00">ThreadedElementLoop</text>
<text text-anchor="middle" x="274.5" y="-108.5" font-family="Courier,monospace" font-size="10.00">&lt; RangeType &gt;</text>
</a>
</g>
</g>
<!-- Node1&#45;&gt;Node23 -->
<g id="edge22" class="edge">
<title>Node1&#45;&gt;Node23</title>
<path fill="none" stroke="#63b8ff" d="M121.93,-168.53C142.61,-159.39 167.84,-148.78 191,-140.5 199.43,-137.49 208.44,-134.57 217.29,-131.87"/>
<polygon fill="#63b8ff" stroke="#63b8ff" points="120.65,-165.27 112.94,-172.54 123.5,-171.66 120.65,-165.27"/>
</g>
<!-- Node3 -->
<g id="node3" class="node">
<title>Node3</title>
<g id="a_node3"><a xlink:href="classComputeDiracThread.html" target="_top" xlink:title=" ">
<polygon fill="white" stroke="#666666" points="549,-438 424,-438 424,-419 549,-419 549,-438"/>
<text text-anchor="middle" x="486.5" y="-426" font-family="Courier,monospace" font-size="10.00">ComputeDiracThread</text>
</a>
</g>
</g>
<!-- Node2&#45;&gt;Node3 -->
<g id="edge2" class="edge">
<title>Node2&#45;&gt;Node3</title>
<path fill="none" stroke="#63b8ff" d="M312.93,-374C335.79,-385.8 365.93,-400.1 394,-409.5 404.62,-413.05 416.16,-416.07 427.35,-418.59"/>
<polygon fill="#63b8ff" stroke="#63b8ff" points="314.8,-371.02 304.32,-369.48 311.55,-377.22 314.8,-371.02"/>
</g>
<!-- Node5 -->
<g id="node5" class="node">
<title>Node5</title>
<g id="a_node5"><a xlink:href="classComputeElemAuxVarsThread.html" target="_top" xlink:title=" ">
<polygon fill="white" stroke="#666666" points="567,-400.5 406,-400.5 406,-370.5 567,-370.5 567,-400.5"/>
<text text-anchor="start" x="414" y="-388.5" font-family="Courier,monospace" font-size="10.00">ComputeElemAuxVarsThread</text>
<text text-anchor="middle" x="486.5" y="-377.5" font-family="Courier,monospace" font-size="10.00">&lt; AuxKernelType &gt;</text>
</a>
</g>
</g>
<!-- Node4&#45;&gt;Node5 -->
<g id="edge4" class="edge">
<title>Node4&#45;&gt;Node5</title>
<path fill="none" stroke="#63b8ff" d="M292.28,-237.26C318.43,-275.15 368.52,-344.89 394,-361.5 399.09,-364.82 404.62,-367.68 410.36,-370.14"/>
<polygon fill="#63b8ff" stroke="#63b8ff" points="295.28,-235.44 286.74,-229.17 289.5,-239.4 295.28,-235.44"/>
</g>
<!-- Node6 -->
<g id="node6" class="node">
<title>Node6</title>
<g id="a_node6"><a xlink:href="classComputeElemDampingThread.html" target="_top" xlink:title=" ">
<polygon fill="white" stroke="#666666" points="567,-352 406,-352 406,-333 567,-333 567,-352"/>
<text text-anchor="middle" x="486.5" y="-340" font-family="Courier,monospace" font-size="10.00">ComputeElemDampingThread</text>
</a>
</g>
</g>
<!-- Node4&#45;&gt;Node6 -->
<g id="edge5" class="edge">
<title>Node4&#45;&gt;Node6</title>
<path fill="none" stroke="#63b8ff" d="M293.78,-236.48C314.96,-262.44 352.31,-303.02 394,-324.5 400.33,-327.76 407.19,-330.44 414.21,-332.62"/>
<polygon fill="#63b8ff" stroke="#63b8ff" points="296.65,-234.46 287.68,-228.82 291.17,-238.82 296.65,-234.46"/>
</g>
<!-- Node7 -->
<g id="node7" class="node">
<title>Node7</title>
<g id="a_node7"><a xlink:href="classComputeIndicatorThread.html" target="_top" xlink:title=" ">
<polygon fill="white" stroke="#666666" points="561,-315 412,-315 412,-296 561,-296 561,-315"/>
<text text-anchor="middle" x="486.5" y="-303" font-family="Courier,monospace" font-size="10.00">ComputeIndicatorThread</text>
</a>
</g>
</g>
<!-- Node4&#45;&gt;Node7 -->
<g id="edge6" class="edge">
<title>Node4&#45;&gt;Node7</title>
<path fill="none" stroke="#63b8ff" d="M303.99,-234.81C327.02,-251.76 360.95,-274.33 394,-287.5 402.12,-290.74 410.89,-293.41 419.67,-295.61"/>
<polygon fill="#63b8ff" stroke="#63b8ff" points="306.13,-232.04 296.02,-228.84 301.93,-237.64 306.13,-232.04"/>
</g>
<!-- Node8 -->
<g id="node8" class="node">
<title>Node8</title>
<g id="a_node8"><a xlink:href="classComputeMarkerThread.html" target="_top" xlink:title=" ">
<polygon fill="white" stroke="#666666" points="552,-278 421,-278 421,-259 552,-259 552,-278"/>
<text text-anchor="middle" x="486.5" y="-266" font-family="Courier,monospace" font-size="10.00">ComputeMarkerThread</text>
</a>
</g>
</g>
<!-- Node4&#45;&gt;Node8 -->
<g id="edge7" class="edge">
<title>Node4&#45;&gt;Node8</title>
<path fill="none" stroke="#63b8ff" d="M330.33,-231.55C350.24,-238.07 372.99,-245.09 394,-250.5 405.44,-253.45 417.8,-256.18 429.62,-258.58"/>
<polygon fill="#63b8ff" stroke="#63b8ff" points="331.63,-228.29 321.04,-228.46 329.42,-234.93 331.63,-228.29"/>
</g>
<!-- Node9 -->
<g id="node9" class="node">
<title>Node9</title>
<g id="a_node9"><a xlink:href="classComputeMaterialsObjectThread.html" target="_top" xlink:title=" ">
<polygon fill="white" stroke="#666666" points="579,-241 394,-241 394,-222 579,-222 579,-241"/>
<text text-anchor="middle" x="486.5" y="-229" font-family="Courier,monospace" font-size="10.00">ComputeMaterialsObjectThread</text>
</a>
</g>
</g>
<!-- Node4&#45;&gt;Node9 -->
<g id="edge8" class="edge">
<title>Node4&#45;&gt;Node9</title>
<path fill="none" stroke="#63b8ff" d="M351.5,-219.38C365.16,-220.61 379.53,-221.91 393.59,-223.18"/>
<polygon fill="#63b8ff" stroke="#63b8ff" points="352,-215.91 341.73,-218.49 351.37,-222.88 352,-215.91"/>
</g>
<!-- Node10 -->
<g id="node10" class="node">
<title>Node10</title>
<g id="a_node10"><a xlink:href="classComputeUserObjectsThread.html" target="_top" xlink:title="Class for threaded computation of UserObjects.">
<polygon fill="white" stroke="#666666" points="567,-204 406,-204 406,-185 567,-185 567,-204"/>
<text text-anchor="middle" x="486.5" y="-192" font-family="Courier,monospace" font-size="10.00">ComputeUserObjectsThread</text>
</a>
</g>
</g>
<!-- Node4&#45;&gt;Node10 -->
<g id="edge9" class="edge">
<title>Node4&#45;&gt;Node10</title>
<path fill="none" stroke="#63b8ff" d="M351.61,-205.98C369.24,-204.47 388.04,-202.85 405.81,-201.33"/>
<polygon fill="#63b8ff" stroke="#63b8ff" points="351.39,-202.48 341.73,-206.82 351.99,-209.46 351.39,-202.48"/>
</g>
<!-- Node11 -->
<g id="node11" class="node">
<title>Node11</title>
<g id="a_node11"><a xlink:href="classFlagElementsThread.html" target="_top" xlink:title=" ">
<polygon fill="white" stroke="#666666" points="549,-167 424,-167 424,-148 549,-148 549,-167"/>
<text text-anchor="middle" x="486.5" y="-155" font-family="Courier,monospace" font-size="10.00">FlagElementsThread</text>
</a>
</g>
</g>
<!-- Node4&#45;&gt;Node11 -->
<g id="edge10" class="edge">
<title>Node4&#45;&gt;Node11</title>
<path fill="none" stroke="#63b8ff" d="M340.42,-193.87C346.37,-192.08 352.3,-190.28 358,-188.5 374.1,-183.48 377.72,-180.89 394,-176.5 406.38,-173.16 419.83,-170.08 432.51,-167.41"/>
<polygon fill="#63b8ff" stroke="#63b8ff" points="339.77,-190.41 331.18,-196.62 341.76,-197.12 339.77,-190.41"/>
</g>
<!-- Node12 -->
<g id="node12" class="node">
<title>Node12</title>
<g id="a_node12"><a xlink:href="classMaxVarNDofsPerElem.html" target="_top" xlink:title=" ">
<polygon fill="white" stroke="#666666" points="549,-130 424,-130 424,-111 549,-111 549,-130"/>
<text text-anchor="middle" x="486.5" y="-118" font-family="Courier,monospace" font-size="10.00">MaxVarNDofsPerElem</text>
</a>
</g>
</g>
<!-- Node4&#45;&gt;Node12 -->
<g id="edge11" class="edge">
<title>Node4&#45;&gt;Node12</title>
<path fill="none" stroke="#63b8ff" d="M350.63,-193.11C353.18,-191.68 355.65,-190.15 358,-188.5 380.15,-173.02 371.26,-154.1 394,-139.5 402.87,-133.8 413.14,-129.77 423.52,-126.93"/>
<polygon fill="#63b8ff" stroke="#63b8ff" points="349.24,-189.89 341.82,-197.45 352.33,-196.17 349.24,-189.89"/>
</g>
<!-- Node13 -->
<g id="node13" class="node">
<title>Node13</title>
<g id="a_node13"><a xlink:href="classNonlinearThread.html" target="_top" xlink:title=" ">
<polygon fill="white" stroke="#666666" points="540,-93 433,-93 433,-74 540,-74 540,-93"/>
<text text-anchor="middle" x="486.5" y="-81" font-family="Courier,monospace" font-size="10.00">NonlinearThread</text>
</a>
</g>
</g>
<!-- Node4&#45;&gt;Node13 -->
<g id="edge12" class="edge">
<title>Node4&#45;&gt;Node13</title>
<path fill="none" stroke="#63b8ff" d="M350.13,-194.49C352.91,-192.68 355.55,-190.69 358,-188.5 388.91,-160.91 362.03,-128.86 394,-102.5 404.89,-93.52 418.95,-88.45 432.76,-85.67"/>
<polygon fill="#63b8ff" stroke="#63b8ff" points="348.6,-191.33 341.55,-199.23 351.99,-197.46 348.6,-191.33"/>
</g>
<!-- Node20 -->
<g id="node20" class="node">
<title>Node20</title>
<g id="a_node20"><a xlink:href="classUpdateErrorVectorsThread.html" target="_top" xlink:title=" ">
<polygon fill="white" stroke="#666666" points="567,-56 406,-56 406,-37 567,-37 567,-56"/>
<text text-anchor="middle" x="486.5" y="-44" font-family="Courier,monospace" font-size="10.00">UpdateErrorVectorsThread</text>
</a>
</g>
</g>
<!-- Node4&#45;&gt;Node20 -->
<g id="edge19" class="edge">
<title>Node4&#45;&gt;Node20</title>
<path fill="none" stroke="#63b8ff" d="M350.28,-194.95C353.03,-193.02 355.63,-190.87 358,-188.5 398.57,-147.91 351.67,-103.25 394,-64.5 397.58,-61.22 401.58,-58.46 405.85,-56.15"/>
<polygon fill="#63b8ff" stroke="#63b8ff" points="348.54,-191.91 341.67,-199.98 352.07,-197.96 348.54,-191.91"/>
</g>
<!-- Node14 -->
<g id="node14" class="node">
<title>Node14</title>
<g id="a_node14"><a xlink:href="classComputeJacobianThread.html" target="_top" xlink:title=" ">
<polygon fill="white" stroke="#666666" points="773,-136 630,-136 630,-117 773,-117 773,-136"/>
<text text-anchor="middle" x="701.5" y="-124" font-family="Courier,monospace" font-size="10.00">ComputeJacobianThread</text>
</a>
</g>
</g>
<!-- Node13&#45;&gt;Node14 -->
<g id="edge13" class="edge">
<title>Node13&#45;&gt;Node14</title>
<path fill="none" stroke="#63b8ff" d="M548.1,-95.73C580.66,-102.31 620.31,-110.31 651,-116.51"/>
<polygon fill="#63b8ff" stroke="#63b8ff" points="548.88,-92.32 538.39,-93.77 547.5,-99.18 548.88,-92.32"/>
</g>
<!-- Node18 -->
<g id="node18" class="node">
<title>Node18</title>
<g id="a_node18"><a xlink:href="classComputeResidualAndJacobianThread.html" target="_top" xlink:title=" ">
<polygon fill="white" stroke="#666666" points="788,-98.5 615,-98.5 615,-68.5 788,-68.5 788,-98.5"/>
<text text-anchor="start" x="623" y="-86.5" font-family="Courier,monospace" font-size="10.00">ComputeResidualAndJacobian</text>
<text text-anchor="middle" x="701.5" y="-75.5" font-family="Courier,monospace" font-size="10.00">Thread</text>
</a>
</g>
</g>
<!-- Node13&#45;&gt;Node18 -->
<g id="edge17" class="edge">
<title>Node13&#45;&gt;Node18</title>
<path fill="none" stroke="#63b8ff" d="M551.78,-83.5C571.57,-83.5 593.68,-83.5 614.67,-83.5"/>
<polygon fill="#63b8ff" stroke="#63b8ff" points="551.94,-80 541.94,-83.5 551.94,-87 551.94,-80"/>
</g>
<!-- Node19 -->
<g id="node19" class="node">
<title>Node19</title>
<g id="a_node19"><a xlink:href="classComputeResidualThread.html" target="_top" xlink:title=" ">
<polygon fill="white" stroke="#666666" points="773,-50 630,-50 630,-31 773,-31 773,-50"/>
<text text-anchor="middle" x="701.5" y="-38" font-family="Courier,monospace" font-size="10.00">ComputeResidualThread</text>
</a>
</g>
</g>
<!-- Node13&#45;&gt;Node19 -->
<g id="edge18" class="edge">
<title>Node13&#45;&gt;Node19</title>
<path fill="none" stroke="#63b8ff" d="M548.1,-71.27C580.66,-64.69 620.31,-56.69 651,-50.49"/>
<polygon fill="#63b8ff" stroke="#63b8ff" points="547.5,-67.82 538.39,-73.23 548.88,-74.68 547.5,-67.82"/>
</g>
<!-- Node15 -->
<g id="node15" class="node">
<title>Node15</title>
<g id="a_node15"><a xlink:href="classComputeFullJacobianThread.html" target="_top" xlink:title=" ">
<polygon fill="white" stroke="#666666" points="991,-136 824,-136 824,-117 991,-117 991,-136"/>
<text text-anchor="middle" x="907.5" y="-124" font-family="Courier,monospace" font-size="10.00">ComputeFullJacobianThread</text>
</a>
</g>
</g>
<!-- Node14&#45;&gt;Node15 -->
<g id="edge14" class="edge">
<title>Node14&#45;&gt;Node15</title>
<path fill="none" stroke="#63b8ff" d="M784.46,-126.5C797.35,-126.5 810.68,-126.5 823.58,-126.5"/>
<polygon fill="#63b8ff" stroke="#63b8ff" points="784.79,-123 774.79,-126.5 784.79,-130 784.79,-123"/>
</g>
<!-- Node16 -->
<g id="node16" class="node">
<title>Node16</title>
<g id="a_node16"><a xlink:href="classComputeJacobianBlocksThread.html" target="_top" xlink:title="Specialization for filling multiple &quot;small&quot; preconditioning matrices simulatenously.">
<polygon fill="white" stroke="#666666" points="1206,-158 1027,-158 1027,-139 1206,-139 1206,-158"/>
<text text-anchor="middle" x="1116.5" y="-146" font-family="Courier,monospace" font-size="10.00">ComputeJacobianBlocksThread</text>
</a>
</g>
</g>
<!-- Node15&#45;&gt;Node16 -->
<g id="edge15" class="edge">
<title>Node15&#45;&gt;Node16</title>
<path fill="none" stroke="#63b8ff" d="M1002.55,-136.5C1010.63,-137.35 1018.78,-138.22 1026.82,-139.07"/>
<polygon fill="#63b8ff" stroke="#63b8ff" points="1003.02,-133.03 992.71,-135.45 1002.28,-139.99 1003.02,-133.03"/>
</g>
<!-- Node17 -->
<g id="node17" class="node">
<title>Node17</title>
<g id="a_node17"><a xlink:href="classComputeJacobianForScalingThread.html" target="_top" xlink:title=" ">
<polygon fill="white" stroke="#666666" points="1200,-120.5 1033,-120.5 1033,-90.5 1200,-90.5 1200,-120.5"/>
<text text-anchor="start" x="1041" y="-108.5" font-family="Courier,monospace" font-size="10.00">ComputeJacobianForScaling</text>
<text text-anchor="middle" x="1116.5" y="-97.5" font-family="Courier,monospace" font-size="10.00">Thread</text>
</a>
</g>
</g>
<!-- Node15&#45;&gt;Node17 -->
<g id="edge16" class="edge">
<title>Node15&#45;&gt;Node17</title>
<path fill="none" stroke="#63b8ff" d="M1002.47,-116.97C1012.52,-115.95 1022.69,-114.92 1032.59,-113.91"/>
<polygon fill="#63b8ff" stroke="#63b8ff" points="1002.31,-113.47 992.71,-117.96 1003.01,-120.43 1002.31,-113.47"/>
</g>
<!-- Node22 -->
<g id="node22" class="node">
<title>Node22</title>
<g id="a_node22"><a xlink:href="classProjectMaterialProperties.html" target="_top" xlink:title=" ">
<polygon fill="white" stroke="#666666" points="570,-19 403,-19 403,0 570,0 570,-19"/>
<text text-anchor="middle" x="486.5" y="-7" font-family="Courier,monospace" font-size="10.00">ProjectMaterialProperties</text>
</a>
</g>
</g>
<!-- Node21&#45;&gt;Node22 -->
<g id="edge21" class="edge">
<title>Node21&#45;&gt;Node22</title>
<path fill="none" stroke="#63b8ff" d="M355.7,-142.62C356.48,-141.94 357.25,-141.23 358,-140.5 395.74,-103.7 354.66,-62.58 394,-27.5 397.5,-24.37 401.39,-21.73 405.52,-19.49"/>
<polygon fill="#63b8ff" stroke="#63b8ff" points="353.89,-139.61 347.83,-148.3 357.99,-145.28 353.89,-139.61"/>
</g>
</g>
</svg>
        <g id="navigator" transform="translate(0 0)" fill="#404254">
                <rect fill="#f2f5e9" fill-opacity="0.5" stroke="#606060" stroke-width=".5" x="0" y="0" width="60" height="60"/>
                <use id="zoomplus" xlink:href="#zoomPlus" x="17" y="9" onmousedown="handleZoom(evt,'in')"/>
                <use id="zoomminus" xlink:href="#zoomMin" x="42" y="9" onmousedown="handleZoom(evt,'out')"/>
                <use id="reset" xlink:href="#resetDef" x="30" y="36" onmousedown="handleReset()"/>
                <g id="arrowUp" xlink:href="#dirArrow" transform="translate(30 24)" onmousedown="handlePan(0,-1)">
                  <use xlink:href="#rim" fill="#404040">
                        <set attributeName="fill" to="#808080" begin="arrowUp.mouseover" end="arrowUp.mouseout"/>
                  </use>
                  <path fill="none" stroke="white" stroke-width="1.5" d="M0,-3.0v7 M-2.5,-0.5L0,-3.0L2.5,-0.5"/>
                </g>
                <g id="arrowRight" xlink:href="#dirArrow" transform="rotate(90) translate(36 -43)" onmousedown="handlePan(1,0)">
                  <use xlink:href="#rim" fill="#404040">
                        <set attributeName="fill" to="#808080" begin="arrowRight.mouseover" end="arrowRight.mouseout"/>
                  </use>
                  <path fill="none" stroke="white" stroke-width="1.5" d="M0,-3.0v7 M-2.5,-0.5L0,-3.0L2.5,-0.5"/>
                </g>
                <g id="arrowDown" xlink:href="#dirArrow" transform="rotate(180) translate(-30 -48)" onmousedown="handlePan(0,1)">
                  <use xlink:href="#rim" fill="#404040">
                        <set attributeName="fill" to="#808080" begin="arrowDown.mouseover" end="arrowDown.mouseout"/>
                  </use>
                  <path fill="none" stroke="white" stroke-width="1.5" d="M0,-3.0v7 M-2.5,-0.5L0,-3.0L2.5,-0.5"/>
                </g>
                <g id="arrowLeft" xlink:href="#dirArrow" transform="rotate(270) translate(-36 17)" onmousedown="handlePan(-1,0)">
                  <use xlink:href="#rim" fill="#404040">
                        <set attributeName="fill" to="#808080" begin="arrowLeft.mouseover" end="arrowLeft.mouseout"/>
                  </use>
                  <path fill="none" stroke="white" stroke-width="1.5" d="M0,-3.0v7 M-2.5,-0.5L0,-3.0L2.5,-0.5"/>
                </g>
        </g>
        <svg viewBox="0 0 15 15" width="100%" height="30px" preserveAspectRatio="xMaxYMin meet">
         <g id="arrow_out" transform="scale(0.3 0.3)">
          <a xlink:href="classThreadedElementLoopBase__inherit__graph_org.svg" target="_base">
           <rect id="button" ry="5" rx="5" y="6" x="6" height="38" width="38"
                fill="#f2f5e9" fill-opacity="0.5" stroke="#606060" stroke-width="1.0"/>
           <path id="arrow"
             d="M 11.500037,31.436501 C 11.940474,20.09759 22.043105,11.32322 32.158766,21.979434 L 37.068811,17.246167 C 37.068811,17.246167 37.088388,32 37.088388,32 L 22.160133,31.978069 C 22.160133,31.978069 26.997745,27.140456 26.997745,27.140456 C 18.528582,18.264221 13.291696,25.230495 11.500037,31.436501 z"
             style="fill:#404040;"/>
          </a>
         </g>
        </svg>
</svg>
