<?xml version="1.0" encoding="UTF-8" standalone="no"?>
<!DOCTYPE svg PUBLIC "-//W3C//DTD SVG 1.1//EN"
 "http://www.w3.org/Graphics/SVG/1.1/DTD/svg11.dtd">
<!-- Generated by graphviz version 7.0.5 (20221223.1930)
 -->
<!-- Title: SidePostprocessor Pages: 1 -->
<svg width="2026pt" height="857pt"
 viewBox="0.00 0.00 2026.00 857.00" xmlns="http://www.w3.org/2000/svg" xmlns:xlink="http://www.w3.org/1999/xlink">
<g id="graph0" class="graph" transform="scale(1 1) rotate(0) translate(4 853)">
<title>SidePostprocessor</title>
<!-- Node1 -->
<g id="node1" class="node">
<title>Node1</title>
<g id="a_node1"><a xlink:title="Base class for postprocessors executed on one or more sidesets.">
<polygon fill="#999999" stroke="#666666" points="1122,-146 1003,-146 1003,-127 1122,-127 1122,-146"/>
<text text-anchor="middle" x="1062.5" y="-134" font-family="Courier,monospace" font-size="10.00">SidePostprocessor</text>
</a>
</g>
</g>
<!-- Node39 -->
<g id="node39" class="node">
<title>Node39</title>
<g id="a_node39"><a xlink:href="classSideIntegralPostprocessor.html" target="_top" xlink:title="This postprocessor computes a surface integral of the specified variable on a sideset on the boundary...">
<polygon fill="white" stroke="#666666" points="1325,-233 1158,-233 1158,-214 1325,-214 1325,-233"/>
<text text-anchor="middle" x="1241.5" y="-221" font-family="Courier,monospace" font-size="10.00">SideIntegralPostprocessor</text>
</a>
</g>
</g>
<!-- Node1&#45;&gt;Node39 -->
<g id="edge38" class="edge">
<title>Node1&#45;&gt;Node39</title>
<path fill="none" stroke="#63b8ff" d="M1093.76,-151.37C1129.84,-169.11 1189.15,-198.26 1220.16,-213.5"/>
<polygon fill="#63b8ff" stroke="#63b8ff" points="1095.68,-148.42 1085.16,-147.15 1092.59,-154.7 1095.68,-148.42"/>
</g>
<!-- Node55 -->
<g id="node55" class="node">
<title>Node55</title>
<g id="a_node55"><a xlink:href="classSideVariablePostprocessor.html" target="_top" xlink:title=" ">
<polygon fill="white" stroke="#666666" points="1325,-128 1158,-128 1158,-109 1325,-109 1325,-128"/>
<text text-anchor="middle" x="1241.5" y="-116" font-family="Courier,monospace" font-size="10.00">SideVariablePostprocessor</text>
</a>
</g>
</g>
<!-- Node1&#45;&gt;Node55 -->
<g id="edge54" class="edge">
<title>Node1&#45;&gt;Node55</title>
<path fill="none" stroke="#63b8ff" d="M1133.73,-129.36C1141.55,-128.56 1149.58,-127.75 1157.54,-126.94"/>
<polygon fill="#63b8ff" stroke="#63b8ff" points="1133.54,-125.86 1123.94,-130.35 1134.25,-132.82 1133.54,-125.86"/>
</g>
<!-- Node2 -->
<g id="node2" class="node">
<title>Node2</title>
<g id="a_node2"><a xlink:href="classSideUserObject.html" target="_top" xlink:title="Base class for user objects executed one or more sidesets, which may be on the outer boundary of the ...">
<polygon fill="white" stroke="#666666" points="967,-238 866,-238 866,-219 967,-219 967,-238"/>
<text text-anchor="middle" x="916.5" y="-226" font-family="Courier,monospace" font-size="10.00">SideUserObject</text>
</a>
</g>
</g>
<!-- Node2&#45;&gt;Node1 -->
<g id="edge1" class="edge">
<title>Node2&#45;&gt;Node1</title>
<path fill="none" stroke="#63b8ff" d="M942.23,-212.7C972.08,-193.63 1021.37,-162.14 1046.2,-146.27"/>
<polygon fill="#63b8ff" stroke="#63b8ff" points="940.73,-209.51 934.19,-217.84 944.5,-215.41 940.73,-209.51"/>
</g>
<!-- Node3 -->
<g id="node3" class="node">
<title>Node3</title>
<g id="a_node3"><a xlink:href="classUserObject.html" target="_top" xlink:title="Base class for user&#45;specific data.">
<polygon fill="white" stroke="#666666" points="764,-497 687,-497 687,-478 764,-478 764,-497"/>
<text text-anchor="middle" x="725.5" y="-485" font-family="Courier,monospace" font-size="10.00">UserObject</text>
</a>
</g>
</g>
<!-- Node3&#45;&gt;Node2 -->
<g id="edge2" class="edge">
<title>Node3&#45;&gt;Node2</title>
<path fill="none" stroke="#63b8ff" d="M740.24,-468.67C777.63,-417.44 880.24,-276.83 908.31,-238.35"/>
<polygon fill="#63b8ff" stroke="#63b8ff" points="737.64,-466.3 734.57,-476.44 743.29,-470.43 737.64,-466.3"/>
</g>
<!-- Node4 -->
<g id="node4" class="node">
<title>Node4</title>
<g id="a_node4"><a xlink:href="classMooseObject.html" target="_top" xlink:title="Every object that can be built by the factory should be derived from this class.">
<polygon fill="white" stroke="#666666" points="534,-775 451,-775 451,-756 534,-756 534,-775"/>
<text text-anchor="middle" x="492.5" y="-763" font-family="Courier,monospace" font-size="10.00">MooseObject</text>
</a>
</g>
</g>
<!-- Node4&#45;&gt;Node3 -->
<g id="edge3" class="edge">
<title>Node4&#45;&gt;Node3</title>
<path fill="none" stroke="#63b8ff" d="M545.39,-763.32C559.28,-760.69 573.59,-755.93 585,-747.5 675.85,-680.38 713.69,-535.99 722.44,-497.24"/>
<polygon fill="#63b8ff" stroke="#63b8ff" points="545.25,-759.8 535.9,-764.77 546.31,-766.72 545.25,-759.8"/>
</g>
<!-- Node5 -->
<g id="node5" class="node">
<title>Node5</title>
<g id="a_node5"><a xlink:href="classMooseBase.html" target="_top" xlink:title="Base class for everything in MOOSE with a name and a type.">
<polygon fill="white" stroke="#666666" points="310,-849 239,-849 239,-830 310,-830 310,-849"/>
<text text-anchor="middle" x="274.5" y="-837" font-family="Courier,monospace" font-size="10.00">MooseBase</text>
</a>
</g>
</g>
<!-- Node5&#45;&gt;Node4 -->
<g id="edge4" class="edge">
<title>Node5&#45;&gt;Node4</title>
<path fill="none" stroke="#63b8ff" d="M321.62,-832.05C335.41,-829.31 350.46,-825.8 364,-821.5 403.87,-808.85 448.08,-787.72 472.56,-775.35"/>
<polygon fill="#63b8ff" stroke="#63b8ff" points="321.06,-828.59 311.89,-833.89 322.36,-835.47 321.06,-828.59"/>
</g>
<!-- Node6 -->
<g id="node6" class="node">
<title>Node6</title>
<g id="a_node6"><a xlink:href="classMooseBaseParameterInterface.html" target="_top" xlink:title="Every object that can be built by the factory should be derived from this class.">
<polygon fill="white" stroke="#666666" points="364,-812 185,-812 185,-793 364,-793 364,-812"/>
<text text-anchor="middle" x="274.5" y="-800" font-family="Courier,monospace" font-size="10.00">MooseBaseParameterInterface</text>
</a>
</g>
</g>
<!-- Node6&#45;&gt;Node4 -->
<g id="edge5" class="edge">
<title>Node6&#45;&gt;Node4</title>
<path fill="none" stroke="#63b8ff" d="M344.77,-790.63C379.7,-784.65 420.85,-777.6 450.68,-772.49"/>
<polygon fill="#63b8ff" stroke="#63b8ff" points="344.43,-787.14 335.16,-792.28 345.61,-794.04 344.43,-787.14"/>
</g>
<!-- Node7 -->
<g id="node7" class="node">
<title>Node7</title>
<g id="a_node7"><a xlink:href="classMooseBaseErrorInterface.html" target="_top" xlink:title="Interface that provides APIs to output errors/warnings/info messages.">
<polygon fill="white" stroke="#666666" points="352,-775 197,-775 197,-756 352,-756 352,-775"/>
<text text-anchor="middle" x="274.5" y="-763" font-family="Courier,monospace" font-size="10.00">MooseBaseErrorInterface</text>
</a>
</g>
</g>
<!-- Node7&#45;&gt;Node4 -->
<g id="edge6" class="edge">
<title>Node7&#45;&gt;Node4</title>
<path fill="none" stroke="#63b8ff" d="M363.7,-765.5C393.87,-765.5 426.17,-765.5 450.75,-765.5"/>
<polygon fill="#63b8ff" stroke="#63b8ff" points="363.78,-762 353.78,-765.5 363.78,-769 363.78,-762"/>
</g>
<!-- Node8 -->
<g id="node8" class="node">
<title>Node8</title>
<g id="a_node8"><a xlink:href="classConsoleStreamInterface.html" target="_top" xlink:title="An inteface for the _console for outputting to the Console object.">
<polygon fill="white" stroke="#666666" points="149,-775 0,-775 0,-756 149,-756 149,-775"/>
<text text-anchor="middle" x="74.5" y="-763" font-family="Courier,monospace" font-size="10.00">ConsoleStreamInterface</text>
</a>
</g>
</g>
<!-- Node8&#45;&gt;Node7 -->
<g id="edge7" class="edge">
<title>Node8&#45;&gt;Node7</title>
<path fill="none" stroke="#63b8ff" d="M160.62,-765.5C172.62,-765.5 184.9,-765.5 196.73,-765.5"/>
<polygon fill="#63b8ff" stroke="#63b8ff" points="160.74,-762 150.74,-765.5 160.74,-769 160.74,-762"/>
</g>
<!-- Node9 -->
<g id="node9" class="node">
<title>Node9</title>
<g id="a_node9"><a xlink:title=" ">
<polygon fill="white" stroke="#666666" points="352,-738 197,-738 197,-719 352,-719 352,-738"/>
<text text-anchor="middle" x="274.5" y="-726" font-family="Courier,monospace" font-size="10.00">libMesh::ParallelObject</text>
</a>
</g>
</g>
<!-- Node9&#45;&gt;Node4 -->
<g id="edge8" class="edge">
<title>Node9&#45;&gt;Node4</title>
<path fill="none" stroke="#63b8ff" d="M344.77,-740.37C379.7,-746.35 420.85,-753.4 450.68,-758.51"/>
<polygon fill="#63b8ff" stroke="#63b8ff" points="345.61,-736.96 335.16,-738.72 344.43,-743.86 345.61,-736.96"/>
</g>
<!-- Node10 -->
<g id="node10" class="node">
<title>Node10</title>
<g id="a_node10"><a xlink:href="classDataFileInterface.html" target="_top" xlink:title=" ">
<polygon fill="white" stroke="#666666" points="337,-700.5 212,-700.5 212,-670.5 337,-670.5 337,-700.5"/>
<text text-anchor="start" x="220" y="-688.5" font-family="Courier,monospace" font-size="10.00">DataFileInterface&lt;</text>
<text text-anchor="middle" x="274.5" y="-677.5" font-family="Courier,monospace" font-size="10.00"> MooseObject &gt;</text>
</a>
</g>
</g>
<!-- Node10&#45;&gt;Node4 -->
<g id="edge9" class="edge">
<title>Node10&#45;&gt;Node4</title>
<path fill="none" stroke="#63b8ff" d="M347.62,-702.35C353.32,-704.73 358.86,-707.44 364,-710.5 383.71,-722.24 379.83,-736.57 400,-747.5 415.37,-755.83 434.06,-760.34 450.53,-762.76"/>
<polygon fill="#63b8ff" stroke="#63b8ff" points="349.23,-699.22 338.64,-698.94 346.74,-705.76 349.23,-699.22"/>
</g>
<!-- Node11 -->
<g id="node11" class="node">
<title>Node11</title>
<g id="a_node11"><a xlink:href="classSetupInterface.html" target="_top" xlink:title=" ">
<polygon fill="white" stroke="#666666" points="543,-738 442,-738 442,-719 543,-719 543,-738"/>
<text text-anchor="middle" x="492.5" y="-726" font-family="Courier,monospace" font-size="10.00">SetupInterface</text>
</a>
</g>
</g>
<!-- Node11&#45;&gt;Node3 -->
<g id="edge10" class="edge">
<title>Node11&#45;&gt;Node3</title>
<path fill="none" stroke="#63b8ff" d="M554.61,-723.68C565.37,-720.88 575.99,-716.7 585,-710.5 666.99,-654.04 710.5,-532.03 721.61,-497.05"/>
<polygon fill="#63b8ff" stroke="#63b8ff" points="553.92,-720.25 544.89,-725.8 555.41,-727.09 553.92,-720.25"/>
</g>
<!-- Node12 -->
<g id="node12" class="node">
<title>Node12</title>
<g id="a_node12"><a xlink:href="classFunctionInterface.html" target="_top" xlink:title="Interface for objects that need to use functions.">
<polygon fill="white" stroke="#666666" points="552,-701 433,-701 433,-682 552,-682 552,-701"/>
<text text-anchor="middle" x="492.5" y="-689" font-family="Courier,monospace" font-size="10.00">FunctionInterface</text>
</a>
</g>
</g>
<!-- Node12&#45;&gt;Node3 -->
<g id="edge11" class="edge">
<title>Node12&#45;&gt;Node3</title>
<path fill="none" stroke="darkgreen" d="M563.08,-683.49C570.8,-680.97 578.29,-677.71 585,-673.5 658.15,-627.56 706.48,-528.45 720.37,-497.17"/>
<polygon fill="darkgreen" stroke="darkgreen" points="562.2,-680.1 553.52,-686.17 564.09,-686.84 562.2,-680.1"/>
</g>
<!-- Node13 -->
<g id="node13" class="node">
<title>Node13</title>
<g id="a_node13"><a xlink:href="classUserObjectInterface.html" target="_top" xlink:title="Interface for objects that need to use UserObjects.">
<polygon fill="white" stroke="#666666" points="558,-664 427,-664 427,-645 558,-645 558,-664"/>
<text text-anchor="middle" x="492.5" y="-652" font-family="Courier,monospace" font-size="10.00">UserObjectInterface</text>
</a>
</g>
</g>
<!-- Node13&#45;&gt;Node3 -->
<g id="edge12" class="edge">
<title>Node13&#45;&gt;Node3</title>
<path fill="none" stroke="#63b8ff" d="M569.1,-643.62C574.63,-641.63 580,-639.27 585,-636.5 649.46,-600.76 701.26,-524.73 718.42,-497.48"/>
<polygon fill="#63b8ff" stroke="#63b8ff" points="568.23,-640.22 559.74,-646.57 570.33,-646.9 568.23,-640.22"/>
</g>
<!-- Node14 -->
<g id="node14" class="node">
<title>Node14</title>
<g id="a_node14"><a xlink:href="classPostprocessorInterface.html" target="_top" xlink:title="Interface class for classes which interact with Postprocessors.">
<polygon fill="white" stroke="#666666" points="567,-627 418,-627 418,-608 567,-608 567,-627"/>
<text text-anchor="middle" x="492.5" y="-615" font-family="Courier,monospace" font-size="10.00">PostprocessorInterface</text>
</a>
</g>
</g>
<!-- Node14&#45;&gt;Node3 -->
<g id="edge13" class="edge">
<title>Node14&#45;&gt;Node3</title>
<path fill="none" stroke="darkgreen" d="M573.95,-604.02C577.74,-602.66 581.44,-601.15 585,-599.5 641.32,-573.3 694.79,-519.68 715.48,-497.47"/>
<polygon fill="darkgreen" stroke="darkgreen" points="572.97,-600.66 564.53,-607.05 575.12,-607.32 572.97,-600.66"/>
</g>
<!-- Node15 -->
<g id="node15" class="node">
<title>Node15</title>
<g id="a_node15"><a xlink:href="classVectorPostprocessorInterface.html" target="_top" xlink:title=" ">
<polygon fill="white" stroke="#666666" points="585,-590 400,-590 400,-571 585,-571 585,-590"/>
<text text-anchor="middle" x="492.5" y="-578" font-family="Courier,monospace" font-size="10.00">VectorPostprocessorInterface</text>
</a>
</g>
</g>
<!-- Node15&#45;&gt;Node3 -->
<g id="edge14" class="edge">
<title>Node15&#45;&gt;Node3</title>
<path fill="none" stroke="darkgreen" d="M568.24,-567.73C573.97,-566.17 579.61,-564.43 585,-562.5 633.15,-545.26 684.97,-513.48 709.71,-497.39"/>
<polygon fill="darkgreen" stroke="darkgreen" points="567.48,-564.32 558.64,-570.16 569.19,-571.1 567.48,-564.32"/>
</g>
<!-- Node16 -->
<g id="node16" class="node">
<title>Node16</title>
<g id="a_node16"><a xlink:href="classReporterInterface.html" target="_top" xlink:title="Interface to allow object to consume Reporter values.">
<polygon fill="white" stroke="#666666" points="552,-553 433,-553 433,-534 552,-534 552,-553"/>
<text text-anchor="middle" x="492.5" y="-541" font-family="Courier,monospace" font-size="10.00">ReporterInterface</text>
</a>
</g>
</g>
<!-- Node16&#45;&gt;Node3 -->
<g id="edge15" class="edge">
<title>Node16&#45;&gt;Node3</title>
<path fill="none" stroke="darkgreen" d="M558.53,-531.3C567.45,-529.46 576.47,-527.5 585,-525.5 621.29,-517 662.42,-505.57 690.56,-497.48"/>
<polygon fill="darkgreen" stroke="darkgreen" points="557.93,-527.85 548.83,-533.27 559.32,-534.71 557.93,-527.85"/>
</g>
<!-- Node17 -->
<g id="node17" class="node">
<title>Node17</title>
<g id="a_node17"><a xlink:href="classDistributionInterface.html" target="_top" xlink:title="Interface for objects that need to use distributions.">
<polygon fill="white" stroke="#666666" points="564,-516 421,-516 421,-497 564,-497 564,-516"/>
<text text-anchor="middle" x="492.5" y="-504" font-family="Courier,monospace" font-size="10.00">DistributionInterface</text>
</a>
</g>
</g>
<!-- Node17&#45;&gt;Node3 -->
<g id="edge16" class="edge">
<title>Node17&#45;&gt;Node3</title>
<path fill="none" stroke="darkgreen" d="M575.43,-499.76C613.35,-496.64 656.56,-493.09 686.65,-490.61"/>
<polygon fill="darkgreen" stroke="darkgreen" points="575.57,-496.24 565.89,-500.55 576.14,-503.21 575.57,-496.24"/>
</g>
<!-- Node18 -->
<g id="node18" class="node">
<title>Node18</title>
<g id="a_node18"><a xlink:href="classSamplerInterface.html" target="_top" xlink:title="Interface for objects that need to use samplers.">
<polygon fill="white" stroke="#666666" points="549,-479 436,-479 436,-460 549,-460 549,-479"/>
<text text-anchor="middle" x="492.5" y="-467" font-family="Courier,monospace" font-size="10.00">SamplerInterface</text>
</a>
</g>
</g>
<!-- Node18&#45;&gt;Node3 -->
<g id="edge17" class="edge">
<title>Node18&#45;&gt;Node3</title>
<path fill="none" stroke="darkgreen" d="M560.71,-474.74C601.74,-477.93 652.7,-481.91 686.78,-484.56"/>
<polygon fill="darkgreen" stroke="darkgreen" points="561.17,-471.26 550.93,-473.97 560.63,-478.24 561.17,-471.26"/>
</g>
<!-- Node19 -->
<g id="node19" class="node">
<title>Node19</title>
<g id="a_node19"><a xlink:href="classRestartable.html" target="_top" xlink:title="A class for creating restricted objects.">
<polygon fill="white" stroke="#666666" points="534,-442 451,-442 451,-423 534,-423 534,-442"/>
<text text-anchor="middle" x="492.5" y="-430" font-family="Courier,monospace" font-size="10.00">Restartable</text>
</a>
</g>
</g>
<!-- Node19&#45;&gt;Node3 -->
<g id="edge18" class="edge">
<title>Node19&#45;&gt;Node3</title>
<path fill="none" stroke="darkgreen" d="M545.27,-442.8C558.27,-445.51 572.17,-448.51 585,-451.5 620.08,-459.66 659.83,-470.03 687.9,-477.55"/>
<polygon fill="darkgreen" stroke="darkgreen" points="546.11,-439.4 535.61,-440.81 544.7,-446.26 546.11,-439.4"/>
</g>
<!-- Node20 -->
<g id="node20" class="node">
<title>Node20</title>
<g id="a_node20"><a xlink:href="classMeshMetaDataInterface.html" target="_top" xlink:title="The Interface used to retrieve mesh meta data (attributes) set by the MeshGenerator system.">
<polygon fill="white" stroke="#666666" points="564,-405 421,-405 421,-386 564,-386 564,-405"/>
<text text-anchor="middle" x="492.5" y="-393" font-family="Courier,monospace" font-size="10.00">MeshMetaDataInterface</text>
</a>
</g>
</g>
<!-- Node20&#45;&gt;Node3 -->
<g id="edge19" class="edge">
<title>Node20&#45;&gt;Node3</title>
<path fill="none" stroke="darkgreen" d="M564.33,-408.15C571.39,-410.02 578.38,-412.13 585,-414.5 632.62,-431.53 684.26,-462.07 709.25,-477.7"/>
<polygon fill="darkgreen" stroke="darkgreen" points="565.25,-404.77 554.7,-405.77 563.56,-411.57 565.25,-404.77"/>
</g>
<!-- Node21 -->
<g id="node21" class="node">
<title>Node21</title>
<g id="a_node21"><a xlink:href="classMeshChangedInterface.html" target="_top" xlink:title="Interface for notifications that the mesh has changed.">
<polygon fill="white" stroke="#666666" points="561,-368 424,-368 424,-349 561,-349 561,-368"/>
<text text-anchor="middle" x="492.5" y="-356" font-family="Courier,monospace" font-size="10.00">MeshChangedInterface</text>
</a>
</g>
</g>
<!-- Node21&#45;&gt;Node3 -->
<g id="edge20" class="edge">
<title>Node21&#45;&gt;Node3</title>
<path fill="none" stroke="darkgreen" d="M570.63,-371.77C575.58,-373.46 580.41,-375.36 585,-377.5 640.91,-403.56 694.6,-456.04 715.42,-477.75"/>
<polygon fill="darkgreen" stroke="darkgreen" points="571.71,-368.44 561.12,-368.85 569.65,-375.13 571.71,-368.44"/>
</g>
<!-- Node22 -->
<g id="node22" class="node">
<title>Node22</title>
<g id="a_node22"><a xlink:href="classScalarCoupleable.html" target="_top" xlink:title="Interface for objects that needs scalar coupling capabilities.">
<polygon fill="white" stroke="#666666" points="549,-331 436,-331 436,-312 549,-312 549,-331"/>
<text text-anchor="middle" x="492.5" y="-319" font-family="Courier,monospace" font-size="10.00">ScalarCoupleable</text>
</a>
</g>
</g>
<!-- Node22&#45;&gt;Node3 -->
<g id="edge21" class="edge">
<title>Node22&#45;&gt;Node3</title>
<path fill="none" stroke="darkgreen" d="M560.14,-330.34C568.81,-332.91 577.33,-336.23 585,-340.5 648.93,-376.11 701.07,-450.9 718.37,-477.69"/>
<polygon fill="darkgreen" stroke="darkgreen" points="561.16,-326.99 550.6,-327.84 559.39,-333.76 561.16,-326.99"/>
</g>
<!-- Node23 -->
<g id="node23" class="node">
<title>Node23</title>
<g id="a_node23"><a xlink:href="classPerfGraphInterface.html" target="_top" xlink:title="Interface for objects interacting with the PerfGraph.">
<polygon fill="white" stroke="#666666" points="555,-294 430,-294 430,-275 555,-275 555,-294"/>
<text text-anchor="middle" x="492.5" y="-282" font-family="Courier,monospace" font-size="10.00">PerfGraphInterface</text>
</a>
</g>
</g>
<!-- Node23&#45;&gt;Node3 -->
<g id="edge22" class="edge">
<title>Node23&#45;&gt;Node3</title>
<path fill="none" stroke="darkgreen" d="M566.03,-294.39C572.71,-296.81 579.15,-299.8 585,-303.5 603.51,-315.2 692.05,-440.97 717.59,-477.56"/>
<polygon fill="darkgreen" stroke="darkgreen" points="567.44,-291.17 556.85,-291.5 565.34,-297.84 567.44,-291.17"/>
</g>
<!-- Node24 -->
<g id="node24" class="node">
<title>Node24</title>
<g id="a_node24"><a xlink:href="classDependencyResolverInterface.html" target="_top" xlink:title="Interface for sorting dependent vectors of objects.">
<polygon fill="white" stroke="#666666" points="582,-257 403,-257 403,-238 582,-238 582,-257"/>
<text text-anchor="middle" x="492.5" y="-245" font-family="Courier,monospace" font-size="10.00">DependencyResolverInterface</text>
</a>
</g>
</g>
<!-- Node24&#45;&gt;Node3 -->
<g id="edge23" class="edge">
<title>Node24&#45;&gt;Node3</title>
<path fill="none" stroke="#63b8ff" d="M579.46,-262.63C581.37,-263.83 583.22,-265.12 585,-266.5 613.86,-288.96 602.41,-309 621,-340.5 652.88,-394.53 698.5,-454.34 716.64,-477.54"/>
<polygon fill="#63b8ff" stroke="#63b8ff" points="581.23,-259.61 570.76,-258.04 577.97,-265.8 581.23,-259.61"/>
</g>
<!-- Node25 -->
<g id="node25" class="node">
<title>Node25</title>
<g id="a_node25"><a xlink:href="classBoundaryRestrictableRequired.html" target="_top" xlink:title="A class for requiring an object to be boundary restricted.">
<polygon fill="white" stroke="#666666" points="818,-331 633,-331 633,-312 818,-312 818,-331"/>
<text text-anchor="middle" x="725.5" y="-319" font-family="Courier,monospace" font-size="10.00">BoundaryRestrictableRequired</text>
</a>
</g>
</g>
<!-- Node25&#45;&gt;Node2 -->
<g id="edge24" class="edge">
<title>Node25&#45;&gt;Node2</title>
<path fill="none" stroke="#63b8ff" d="M819.22,-308.05C822.91,-306.68 826.52,-305.16 830,-303.5 863.31,-287.57 893.58,-254.89 907.47,-238.44"/>
<polygon fill="#63b8ff" stroke="#63b8ff" points="818.44,-304.62 810.05,-311.09 820.64,-311.26 818.44,-304.62"/>
</g>
<!-- Node26 -->
<g id="node26" class="node">
<title>Node26</title>
<g id="a_node26"><a xlink:href="classBoundaryRestrictable.html" target="_top" xlink:title="/class BoundaryRestrictable /brief Provides functionality for limiting the object to certain boundary...">
<polygon fill="white" stroke="#666666" points="561,-220 424,-220 424,-201 561,-201 561,-220"/>
<text text-anchor="middle" x="492.5" y="-208" font-family="Courier,monospace" font-size="10.00">BoundaryRestrictable</text>
</a>
</g>
</g>
<!-- Node26&#45;&gt;Node25 -->
<g id="edge25" class="edge">
<title>Node26&#45;&gt;Node25</title>
<path fill="none" stroke="#63b8ff" d="M571.75,-221.4C576.46,-223.66 580.93,-226.33 585,-229.5 613.86,-251.96 591.78,-281.51 621,-303.5 625.15,-306.63 629.66,-309.28 634.4,-311.52"/>
<polygon fill="#63b8ff" stroke="#63b8ff" points="573.11,-218.18 562.52,-217.68 570.49,-224.67 573.11,-218.18"/>
</g>
<!-- Node27 -->
<g id="node27" class="node">
<title>Node27</title>
<g id="a_node27"><a xlink:href="classMaterialPropertyInterface.html" target="_top" xlink:title="An interface for accessing Materials.">
<polygon fill="white" stroke="#666666" points="809,-294 642,-294 642,-275 809,-275 809,-294"/>
<text text-anchor="middle" x="725.5" y="-282" font-family="Courier,monospace" font-size="10.00">MaterialPropertyInterface</text>
</a>
</g>
</g>
<!-- Node27&#45;&gt;Node2 -->
<g id="edge26" class="edge">
<title>Node27&#45;&gt;Node2</title>
<path fill="none" stroke="#63b8ff" d="M808.57,-272.15C815.87,-270.47 823.11,-268.6 830,-266.5 853.78,-259.27 879.67,-247.11 896.66,-238.49"/>
<polygon fill="#63b8ff" stroke="#63b8ff" points="807.99,-268.7 798.95,-274.23 809.47,-275.54 807.99,-268.7"/>
</g>
<!-- Node28 -->
<g id="node28" class="node">
<title>Node28</title>
<g id="a_node28"><a xlink:href="classCoupleable.html" target="_top" xlink:title="Interface for objects that needs coupling capabilities.">
<polygon fill="white" stroke="#666666" points="764,-257 687,-257 687,-238 764,-238 764,-257"/>
<text text-anchor="middle" x="725.5" y="-245" font-family="Courier,monospace" font-size="10.00">Coupleable</text>
</a>
</g>
</g>
<!-- Node28&#45;&gt;Node2 -->
<g id="edge27" class="edge">
<title>Node28&#45;&gt;Node2</title>
<path fill="none" stroke="#63b8ff" d="M775.69,-242.55C803.36,-239.77 837.81,-236.31 865.59,-233.52"/>
<polygon fill="#63b8ff" stroke="#63b8ff" points="775.4,-239.07 765.8,-243.55 776.1,-246.03 775.4,-239.07"/>
</g>
<!-- Node29 -->
<g id="node29" class="node">
<title>Node29</title>
<g id="a_node29"><a xlink:href="classMooseVariableDependencyInterface.html" target="_top" xlink:title=" ">
<polygon fill="white" stroke="#666666" points="830,-220 621,-220 621,-201 830,-201 830,-220"/>
<text text-anchor="middle" x="725.5" y="-208" font-family="Courier,monospace" font-size="10.00">MooseVariableDependencyInterface</text>
</a>
</g>
</g>
<!-- Node29&#45;&gt;Node2 -->
<g id="edge28" class="edge">
<title>Node29&#45;&gt;Node2</title>
<path fill="none" stroke="#63b8ff" d="M841.61,-221.46C850.05,-222.27 858.26,-223.05 865.95,-223.78"/>
<polygon fill="#63b8ff" stroke="#63b8ff" points="842.19,-218 831.91,-220.54 841.53,-224.97 842.19,-218"/>
</g>
<!-- Node30 -->
<g id="node30" class="node">
<title>Node30</title>
<g id="a_node30"><a xlink:href="classTransientInterface.html" target="_top" xlink:title="Interface for objects that needs transient capabilities.">
<polygon fill="white" stroke="#666666" points="788,-183 663,-183 663,-164 788,-164 788,-183"/>
<text text-anchor="middle" x="725.5" y="-171" font-family="Courier,monospace" font-size="10.00">TransientInterface</text>
</a>
</g>
</g>
<!-- Node30&#45;&gt;Node2 -->
<g id="edge29" class="edge">
<title>Node30&#45;&gt;Node2</title>
<path fill="none" stroke="#63b8ff" d="M799.46,-184.84C809.8,-187.04 820.23,-189.58 830,-192.5 853.15,-199.41 878.53,-210.58 895.57,-218.65"/>
<polygon fill="#63b8ff" stroke="#63b8ff" points="800.3,-181.43 789.8,-182.88 798.91,-188.29 800.3,-181.43"/>
</g>
<!-- Node31 -->
<g id="node31" class="node">
<title>Node31</title>
<g id="a_node31"><a xlink:href="classElementIDInterface.html" target="_top" xlink:title=" ">
<polygon fill="white" stroke="#666666" points="788,-146 663,-146 663,-127 788,-127 788,-146"/>
<text text-anchor="middle" x="725.5" y="-134" font-family="Courier,monospace" font-size="10.00">ElementIDInterface</text>
</a>
</g>
</g>
<!-- Node31&#45;&gt;Node2 -->
<g id="edge30" class="edge">
<title>Node31&#45;&gt;Node2</title>
<path fill="none" stroke="#63b8ff" d="M799.36,-144.86C809.93,-147.5 820.45,-150.96 830,-155.5 862.78,-171.1 893.06,-202.57 907.17,-218.61"/>
<polygon fill="#63b8ff" stroke="#63b8ff" points="800.37,-141.5 789.84,-142.73 798.84,-148.33 800.37,-141.5"/>
</g>
<!-- Node32 -->
<g id="node32" class="node">
<title>Node32</title>
<g id="a_node32"><a xlink:href="classPostprocessor.html" target="_top" xlink:title="Base class for all Postprocessors.">
<polygon fill="white" stroke="#666666" points="964,-91 869,-91 869,-72 964,-72 964,-91"/>
<text text-anchor="middle" x="916.5" y="-79" font-family="Courier,monospace" font-size="10.00">Postprocessor</text>
</a>
</g>
</g>
<!-- Node32&#45;&gt;Node1 -->
<g id="edge31" class="edge">
<title>Node32&#45;&gt;Node1</title>
<path fill="none" stroke="#63b8ff" d="M954.3,-95.56C979.73,-105.27 1012.94,-117.95 1035.62,-126.61"/>
<polygon fill="#63b8ff" stroke="#63b8ff" points="955.58,-92.3 944.99,-92 953.08,-98.84 955.58,-92.3"/>
</g>
<!-- Node33 -->
<g id="node33" class="node">
<title>Node33</title>
<g id="a_node33"><a xlink:href="classOutputInterface.html" target="_top" xlink:title="A class to provide an common interface to objects requiring &quot;outputs&quot; option.">
<polygon fill="white" stroke="#666666" points="779,-109 672,-109 672,-90 779,-90 779,-109"/>
<text text-anchor="middle" x="725.5" y="-97" font-family="Courier,monospace" font-size="10.00">OutputInterface</text>
</a>
</g>
</g>
<!-- Node33&#45;&gt;Node32 -->
<g id="edge32" class="edge">
<title>Node33&#45;&gt;Node32</title>
<path fill="none" stroke="#63b8ff" d="M790.53,-93.4C816.16,-90.96 845.14,-88.2 868.73,-85.95"/>
<polygon fill="#63b8ff" stroke="#63b8ff" points="790.53,-89.89 780.91,-94.32 791.19,-96.85 790.53,-89.89"/>
</g>
<!-- Node34 -->
<g id="node34" class="node">
<title>Node34</title>
<g id="a_node34"><a xlink:href="classNonADFunctorInterface.html" target="_top" xlink:title="An interface for accessing Moose::Functors for systems that do not care about automatic differentiati...">
<polygon fill="white" stroke="#666666" points="797,-72 654,-72 654,-53 797,-53 797,-72"/>
<text text-anchor="middle" x="725.5" y="-60" font-family="Courier,monospace" font-size="10.00">NonADFunctorInterface</text>
</a>
</g>
</g>
<!-- Node34&#45;&gt;Node32 -->
<g id="edge33" class="edge">
<title>Node34&#45;&gt;Node32</title>
<path fill="none" stroke="#63b8ff" d="M808.69,-70.76C829.18,-72.82 850.45,-74.96 868.57,-76.78"/>
<polygon fill="#63b8ff" stroke="#63b8ff" points="809.22,-67.3 798.92,-69.78 808.52,-74.26 809.22,-67.3"/>
</g>
<!-- Node35 -->
<g id="node35" class="node">
<title>Node35</title>
<g id="a_node35"><a xlink:href="classFunctorInterface.html" target="_top" xlink:title="An interface for accessing Moose::Functors.">
<polygon fill="white" stroke="#666666" points="549,-72 436,-72 436,-53 549,-53 549,-72"/>
<text text-anchor="middle" x="492.5" y="-60" font-family="Courier,monospace" font-size="10.00">FunctorInterface</text>
</a>
</g>
</g>
<!-- Node35&#45;&gt;Node34 -->
<g id="edge34" class="edge">
<title>Node35&#45;&gt;Node34</title>
<path fill="none" stroke="#63b8ff" d="M560.76,-62.5C589.96,-62.5 624.18,-62.5 653.77,-62.5"/>
<polygon fill="#63b8ff" stroke="#63b8ff" points="560.93,-59 550.93,-62.5 560.93,-66 560.93,-59"/>
</g>
<!-- Node36 -->
<g id="node36" class="node">
<title>Node36</title>
<g id="a_node36"><a xlink:href="classMoose_1_1FunctorBase.html" target="_top" xlink:title=" ">
<polygon fill="white" stroke="#666666" points="788,-34.5 663,-34.5 663,-4.5 788,-4.5 788,-34.5"/>
<text text-anchor="start" x="671" y="-22.5" font-family="Courier,monospace" font-size="10.00">Moose::FunctorBase</text>
<text text-anchor="middle" x="725.5" y="-11.5" font-family="Courier,monospace" font-size="10.00">&lt; Real &gt;</text>
</a>
</g>
</g>
<!-- Node36&#45;&gt;Node32 -->
<g id="edge35" class="edge">
<title>Node36&#45;&gt;Node32</title>
<path fill="none" stroke="#63b8ff" d="M799.48,-34.58C809.81,-37.25 820.24,-40.23 830,-43.5 853.41,-51.34 879.17,-63.26 896.22,-71.66"/>
<polygon fill="#63b8ff" stroke="#63b8ff" points="800.35,-31.19 789.8,-32.17 798.66,-37.98 800.35,-31.19"/>
</g>
<!-- Node37 -->
<g id="node37" class="node">
<title>Node37</title>
<g id="a_node37"><a xlink:href="classMoose_1_1FunctorAbstract.html" target="_top" xlink:title="Abstract base class that can be used to hold collections of functors.">
<polygon fill="white" stroke="#666666" points="567,-29 418,-29 418,-10 567,-10 567,-29"/>
<text text-anchor="middle" x="492.5" y="-17" font-family="Courier,monospace" font-size="10.00">Moose::FunctorAbstract</text>
</a>
</g>
</g>
<!-- Node37&#45;&gt;Node36 -->
<g id="edge36" class="edge">
<title>Node37&#45;&gt;Node36</title>
<path fill="none" stroke="#63b8ff" d="M578.58,-19.5C606.46,-19.5 636.88,-19.5 662.7,-19.5"/>
<polygon fill="#63b8ff" stroke="#63b8ff" points="578.74,-16 568.74,-19.5 578.74,-23 578.74,-16"/>
</g>
<!-- Node38 -->
<g id="node38" class="node">
<title>Node38</title>
<g id="a_node38"><a xlink:href="classFaceArgInterface.html" target="_top" xlink:title="A base class interface for both producers and consumers of functor face arguments,...">
<polygon fill="white" stroke="#666666" points="331,-29 218,-29 218,-10 331,-10 331,-29"/>
<text text-anchor="middle" x="274.5" y="-17" font-family="Courier,monospace" font-size="10.00">FaceArgInterface</text>
</a>
</g>
</g>
<!-- Node38&#45;&gt;Node37 -->
<g id="edge37" class="edge">
<title>Node38&#45;&gt;Node37</title>
<path fill="none" stroke="#63b8ff" d="M342.78,-19.5C366.49,-19.5 393.27,-19.5 417.51,-19.5"/>
<polygon fill="#63b8ff" stroke="#63b8ff" points="342.92,-16 332.92,-19.5 342.92,-23 342.92,-16"/>
</g>
<!-- Node40 -->
<g id="node40" class="node">
<title>Node40</title>
<g id="a_node40"><a xlink:href="classAreaPostprocessor.html" target="_top" xlink:title="This postprocessor computes the area of a specified block.">
<polygon fill="white" stroke="#666666" points="1528,-361 1409,-361 1409,-342 1528,-342 1528,-361"/>
<text text-anchor="middle" x="1468.5" y="-349" font-family="Courier,monospace" font-size="10.00">AreaPostprocessor</text>
</a>
</g>
</g>
<!-- Node39&#45;&gt;Node40 -->
<g id="edge39" class="edge">
<title>Node39&#45;&gt;Node40</title>
<path fill="none" stroke="#63b8ff" d="M1256.81,-242.37C1277.04,-267.58 1316.54,-311.59 1361,-333.5 1375.63,-340.71 1392.62,-345.1 1408.67,-347.75"/>
<polygon fill="#63b8ff" stroke="#63b8ff" points="1259.65,-240.33 1250.73,-234.62 1254.14,-244.65 1259.65,-240.33"/>
</g>
<!-- Node41 -->
<g id="node41" class="node">
<title>Node41</title>
<g id="a_node41"><a xlink:href="classFunctionSideIntegral.html" target="_top" xlink:title="This postprocessor computes the integral of a function over a specified boundary.">
<polygon fill="white" stroke="#666666" points="1537,-324 1400,-324 1400,-305 1537,-305 1537,-324"/>
<text text-anchor="middle" x="1468.5" y="-312" font-family="Courier,monospace" font-size="10.00">FunctionSideIntegral</text>
</a>
</g>
</g>
<!-- Node39&#45;&gt;Node41 -->
<g id="edge40" class="edge">
<title>Node39&#45;&gt;Node41</title>
<path fill="none" stroke="#63b8ff" d="M1264.3,-240.18C1287.15,-256.81 1324.71,-281.79 1361,-295.5 1373.21,-300.11 1386.64,-303.62 1399.73,-306.29"/>
<polygon fill="#63b8ff" stroke="#63b8ff" points="1266.51,-237.46 1256.39,-234.31 1262.34,-243.08 1266.51,-237.46"/>
</g>
<!-- Node43 -->
<g id="node43" class="node">
<title>Node43</title>
<g id="a_node43"><a xlink:href="classSideAdvectiveFluxIntegralTempl.html" target="_top" xlink:title="This postprocessor computes a side integral of the mass flux.">
<polygon fill="white" stroke="#666666" points="1552,-286.5 1385,-286.5 1385,-256.5 1552,-256.5 1552,-286.5"/>
<text text-anchor="start" x="1393" y="-274.5" font-family="Courier,monospace" font-size="10.00">SideAdvectiveFluxIntegral</text>
<text text-anchor="middle" x="1468.5" y="-263.5" font-family="Courier,monospace" font-size="10.00">Templ&lt; is_ad &gt;</text>
</a>
</g>
</g>
<!-- Node39&#45;&gt;Node43 -->
<g id="edge42" class="edge">
<title>Node39&#45;&gt;Node43</title>
<path fill="none" stroke="#63b8ff" d="M1300.28,-235.83C1329.21,-242 1364.53,-249.53 1395.24,-256.08"/>
<polygon fill="#63b8ff" stroke="#63b8ff" points="1301.11,-232.42 1290.6,-233.76 1299.65,-239.27 1301.11,-232.42"/>
</g>
<!-- Node44 -->
<g id="node44" class="node">
<title>Node44</title>
<g id="a_node44"><a xlink:href="classSideIntegralFunctorPostprocessorTempl.html" target="_top" xlink:title="This postprocessor computes a surface integral of the specified functor.">
<polygon fill="white" stroke="#666666" points="1573,-238.5 1364,-238.5 1364,-208.5 1573,-208.5 1573,-238.5"/>
<text text-anchor="start" x="1372" y="-226.5" font-family="Courier,monospace" font-size="10.00">SideIntegralFunctorPostprocessor</text>
<text text-anchor="middle" x="1468.5" y="-215.5" font-family="Courier,monospace" font-size="10.00">Templ&lt; is_ad &gt;</text>
</a>
</g>
</g>
<!-- Node39&#45;&gt;Node44 -->
<g id="edge43" class="edge">
<title>Node39&#45;&gt;Node44</title>
<path fill="none" stroke="#63b8ff" d="M1336.6,-223.5C1345.59,-223.5 1354.74,-223.5 1363.82,-223.5"/>
<polygon fill="#63b8ff" stroke="#63b8ff" points="1336.84,-220 1326.84,-223.5 1336.84,-227 1336.84,-220"/>
</g>
<!-- Node45 -->
<g id="node45" class="node">
<title>Node45</title>
<g id="a_node45"><a xlink:href="classSideIntegralMaterialPropertyTempl.html" target="_top" xlink:title="Computes the integral of a material property over a side set.">
<polygon fill="white" stroke="#666666" points="1561,-190.5 1376,-190.5 1376,-160.5 1561,-160.5 1561,-190.5"/>
<text text-anchor="start" x="1384" y="-178.5" font-family="Courier,monospace" font-size="10.00">SideIntegralMaterialProperty</text>
<text text-anchor="middle" x="1468.5" y="-167.5" font-family="Courier,monospace" font-size="10.00">Templ&lt; is_ad &gt;</text>
</a>
</g>
</g>
<!-- Node39&#45;&gt;Node45 -->
<g id="edge44" class="edge">
<title>Node39&#45;&gt;Node45</title>
<path fill="none" stroke="#63b8ff" d="M1300.28,-211.17C1329.21,-205 1364.53,-197.47 1395.24,-190.92"/>
<polygon fill="#63b8ff" stroke="#63b8ff" points="1299.65,-207.73 1290.6,-213.24 1301.11,-214.58 1299.65,-207.73"/>
</g>
<!-- Node47 -->
<g id="node47" class="node">
<title>Node47</title>
<g id="a_node47"><a xlink:href="classSideIntegralVariablePostprocessor.html" target="_top" xlink:title="This postprocessor computes a surface integral of the specified variable.">
<polygon fill="white" stroke="#666666" points="1576,-142 1361,-142 1361,-123 1576,-123 1576,-142"/>
<text text-anchor="middle" x="1468.5" y="-130" font-family="Courier,monospace" font-size="10.00">SideIntegralVariablePostprocessor</text>
</a>
</g>
</g>
<!-- Node39&#45;&gt;Node47 -->
<g id="edge46" class="edge">
<title>Node39&#45;&gt;Node47</title>
<path fill="none" stroke="#63b8ff" d="M1264.3,-206.82C1287.15,-190.19 1324.71,-165.21 1361,-151.5 1370.66,-147.85 1381.09,-144.89 1391.51,-142.49"/>
<polygon fill="#63b8ff" stroke="#63b8ff" points="1262.34,-203.92 1256.39,-212.69 1266.51,-209.54 1262.34,-203.92"/>
</g>
<!-- Node42 -->
<g id="node42" class="node">
<title>Node42</title>
<g id="a_node42"><a xlink:href="classFunctionSideAverage.html" target="_top" xlink:title="Computes the average of a function over a boundary.">
<polygon fill="white" stroke="#666666" points="1767,-324 1636,-324 1636,-305 1767,-305 1767,-324"/>
<text text-anchor="middle" x="1701.5" y="-312" font-family="Courier,monospace" font-size="10.00">FunctionSideAverage</text>
</a>
</g>
</g>
<!-- Node41&#45;&gt;Node42 -->
<g id="edge41" class="edge">
<title>Node41&#45;&gt;Node42</title>
<path fill="none" stroke="#63b8ff" d="M1548.74,-314.5C1577.04,-314.5 1608.58,-314.5 1635.53,-314.5"/>
<polygon fill="#63b8ff" stroke="#63b8ff" points="1548.76,-311 1538.76,-314.5 1548.76,-318 1548.76,-311"/>
</g>
<!-- Node46 -->
<g id="node46" class="node">
<title>Node46</title>
<g id="a_node46"><a xlink:href="classSideAverageMaterialPropertyTempl.html" target="_top" xlink:title="Computes the average of a material property over a side set.">
<polygon fill="white" stroke="#666666" points="1791,-275.5 1612,-275.5 1612,-245.5 1791,-245.5 1791,-275.5"/>
<text text-anchor="start" x="1620" y="-263.5" font-family="Courier,monospace" font-size="10.00">SideAverageMaterialProperty</text>
<text text-anchor="middle" x="1701.5" y="-252.5" font-family="Courier,monospace" font-size="10.00">Templ&lt; is_ad &gt;</text>
</a>
</g>
</g>
<!-- Node45&#45;&gt;Node46 -->
<g id="edge45" class="edge">
<title>Node45&#45;&gt;Node46</title>
<path fill="none" stroke="#63b8ff" d="M1567.78,-195.3C1570.59,-196.61 1573.34,-198.01 1576,-199.5 1596.02,-210.71 1592.23,-224.86 1612,-236.5 1617.63,-239.81 1623.72,-242.68 1629.99,-245.15"/>
<polygon fill="#63b8ff" stroke="#63b8ff" points="1569.33,-192.16 1558.75,-191.51 1566.62,-198.61 1569.33,-192.16"/>
</g>
<!-- Node48 -->
<g id="node48" class="node">
<title>Node48</title>
<g id="a_node48"><a xlink:href="classSideDiffusiveFluxIntegralTempl.html" target="_top" xlink:title=" ">
<polygon fill="white" stroke="#666666" points="1785,-227.5 1618,-227.5 1618,-197.5 1785,-197.5 1785,-227.5"/>
<text text-anchor="start" x="1626" y="-215.5" font-family="Courier,monospace" font-size="10.00">SideDiffusiveFluxIntegral</text>
<text text-anchor="middle" x="1701.5" y="-204.5" font-family="Courier,monospace" font-size="10.00">Templ&lt; is_ad, Real &gt;</text>
</a>
</g>
</g>
<!-- Node47&#45;&gt;Node48 -->
<g id="edge47" class="edge">
<title>Node47&#45;&gt;Node48</title>
<path fill="none" stroke="#63b8ff" d="M1564.6,-146.24C1568.52,-147.81 1572.34,-149.56 1576,-151.5 1596.27,-162.25 1592.23,-176.86 1612,-188.5 1617.63,-191.81 1623.72,-194.68 1629.99,-197.15"/>
<polygon fill="#63b8ff" stroke="#63b8ff" points="1566.03,-143.03 1555.44,-142.98 1563.68,-149.63 1566.03,-143.03"/>
</g>
<!-- Node50 -->
<g id="node50" class="node">
<title>Node50</title>
<g id="a_node50"><a xlink:href="classSideAverageValue.html" target="_top" xlink:title="This postprocessor computes a volume integral of the specified variable.">
<polygon fill="white" stroke="#666666" points="1758,-179 1645,-179 1645,-160 1758,-160 1758,-179"/>
<text text-anchor="middle" x="1701.5" y="-167" font-family="Courier,monospace" font-size="10.00">SideAverageValue</text>
</a>
</g>
</g>
<!-- Node47&#45;&gt;Node50 -->
<g id="edge49" class="edge">
<title>Node47&#45;&gt;Node50</title>
<path fill="none" stroke="#63b8ff" d="M1542.66,-144.22C1575.61,-149.5 1613.89,-155.63 1644.5,-160.53"/>
<polygon fill="#63b8ff" stroke="#63b8ff" points="1543.63,-140.83 1533.2,-142.7 1542.52,-147.74 1543.63,-140.83"/>
</g>
<!-- Node52 -->
<g id="node52" class="node">
<title>Node52</title>
<g id="a_node52"><a xlink:href="classSideCurrent.html" target="_top" xlink:title="This postprocessor computes a side integral of current density.">
<polygon fill="white" stroke="#666666" points="1743,-142 1660,-142 1660,-123 1743,-123 1743,-142"/>
<text text-anchor="middle" x="1701.5" y="-130" font-family="Courier,monospace" font-size="10.00">SideCurrent</text>
</a>
</g>
</g>
<!-- Node47&#45;&gt;Node52 -->
<g id="edge51" class="edge">
<title>Node47&#45;&gt;Node52</title>
<path fill="none" stroke="#63b8ff" d="M1587.71,-132.5C1613.61,-132.5 1639.34,-132.5 1659.67,-132.5"/>
<polygon fill="#63b8ff" stroke="#63b8ff" points="1587.72,-129 1577.72,-132.5 1587.72,-136 1587.72,-129"/>
</g>
<!-- Node53 -->
<g id="node53" class="node">
<title>Node53</title>
<g id="a_node53"><a xlink:href="classSideDiffusiveFluxIntegralTempl.html" target="_top" xlink:title="This postprocessor computes a side integral of the mass flux.">
<polygon fill="white" stroke="#666666" points="1785,-104.5 1618,-104.5 1618,-74.5 1785,-74.5 1785,-104.5"/>
<text text-anchor="start" x="1626" y="-92.5" font-family="Courier,monospace" font-size="10.00">SideDiffusiveFluxIntegral</text>
<text text-anchor="middle" x="1701.5" y="-81.5" font-family="Courier,monospace" font-size="10.00">Templ&lt; is_ad, T &gt;</text>
</a>
</g>
</g>
<!-- Node47&#45;&gt;Node53 -->
<g id="edge52" class="edge">
<title>Node47&#45;&gt;Node53</title>
<path fill="none" stroke="#63b8ff" d="M1534.28,-120.44C1560.18,-115.62 1590.34,-110.01 1617.8,-104.89"/>
<polygon fill="#63b8ff" stroke="#63b8ff" points="1533.76,-116.98 1524.56,-122.25 1535.04,-123.86 1533.76,-116.98"/>
</g>
<!-- Node54 -->
<g id="node54" class="node">
<title>Node54</title>
<g id="a_node54"><a xlink:href="classSideTotFluxIntegral.html" target="_top" xlink:title="This postprocessor computes a side integral of the mass flux.">
<polygon fill="white" stroke="#666666" points="1767,-56 1636,-56 1636,-37 1767,-37 1767,-56"/>
<text text-anchor="middle" x="1701.5" y="-44" font-family="Courier,monospace" font-size="10.00">SideTotFluxIntegral</text>
</a>
</g>
</g>
<!-- Node47&#45;&gt;Node54 -->
<g id="edge53" class="edge">
<title>Node47&#45;&gt;Node54</title>
<path fill="none" stroke="#63b8ff" d="M1496.84,-117.34C1524.97,-102.3 1570.43,-79.53 1612,-65.5 1622.42,-61.98 1633.76,-58.97 1644.74,-56.44"/>
<polygon fill="#63b8ff" stroke="#63b8ff" points="1495.41,-114.13 1488.29,-121.97 1498.75,-120.29 1495.41,-114.13"/>
</g>
<!-- Node49 -->
<g id="node49" class="node">
<title>Node49</title>
<g id="a_node49"><a xlink:href="classSideDiffusiveFluxAverageTempl.html" target="_top" xlink:title=" ">
<polygon fill="white" stroke="#666666" points="2003,-229.5 1842,-229.5 1842,-199.5 2003,-199.5 2003,-229.5"/>
<text text-anchor="start" x="1850" y="-217.5" font-family="Courier,monospace" font-size="10.00">SideDiffusiveFluxAverage</text>
<text text-anchor="middle" x="1922.5" y="-206.5" font-family="Courier,monospace" font-size="10.00">Templ&lt; is_ad &gt;</text>
</a>
</g>
</g>
<!-- Node48&#45;&gt;Node49 -->
<g id="edge48" class="edge">
<title>Node48&#45;&gt;Node49</title>
<path fill="none" stroke="#63b8ff" d="M1796.7,-213.36C1811.75,-213.5 1827.18,-213.64 1841.85,-213.77"/>
<polygon fill="#63b8ff" stroke="#63b8ff" points="1796.84,-209.86 1786.81,-213.27 1796.78,-216.86 1796.84,-209.86"/>
</g>
<!-- Node51 -->
<g id="node51" class="node">
<title>Node51</title>
<g id="a_node51"><a xlink:href="classAxisymmetricCenterlineAverageValue.html" target="_top" xlink:title="This postprocessor computes a line integral of the specified variable along the centerline of an axis...">
<polygon fill="white" stroke="#666666" points="2018,-181.5 1827,-181.5 1827,-151.5 2018,-151.5 2018,-181.5"/>
<text text-anchor="start" x="1835" y="-169.5" font-family="Courier,monospace" font-size="10.00">AxisymmetricCenterlineAverage</text>
<text text-anchor="middle" x="1922.5" y="-158.5" font-family="Courier,monospace" font-size="10.00">Value</text>
</a>
</g>
</g>
<!-- Node50&#45;&gt;Node51 -->
<g id="edge50" class="edge">
<title>Node50&#45;&gt;Node51</title>
<path fill="none" stroke="#63b8ff" d="M1769.84,-168.58C1787.78,-168.33 1807.51,-168.06 1826.63,-167.8"/>
<polygon fill="#63b8ff" stroke="#63b8ff" points="1769.79,-165.08 1759.84,-168.71 1769.89,-172.08 1769.79,-165.08"/>
</g>
<!-- Node56 -->
<g id="node56" class="node">
<title>Node56</title>
<g id="a_node56"><a xlink:href="classExtremeValueBase.html" target="_top" xlink:title=" ">
<polygon fill="white" stroke="#666666" points="1567,-64.5 1370,-64.5 1370,-34.5 1567,-34.5 1567,-64.5"/>
<text text-anchor="start" x="1378" y="-52.5" font-family="Courier,monospace" font-size="10.00">ExtremeValueBase&lt; SideVariable</text>
<text text-anchor="middle" x="1468.5" y="-41.5" font-family="Courier,monospace" font-size="10.00">Postprocessor &gt;</text>
</a>
</g>
</g>
<!-- Node55&#45;&gt;Node56 -->
<g id="edge55" class="edge">
<title>Node55&#45;&gt;Node56</title>
<path fill="none" stroke="#63b8ff" d="M1285.32,-105.37C1322.84,-93.86 1377.42,-77.12 1417.05,-64.97"/>
<polygon fill="#63b8ff" stroke="#63b8ff" points="1284.72,-101.89 1276.18,-108.17 1286.77,-108.58 1284.72,-101.89"/>
</g>
<!-- Node57 -->
<g id="node57" class="node">
<title>Node57</title>
<g id="a_node57"><a xlink:href="classSideExtremeValue.html" target="_top" xlink:title="A postprocessor for collecting the side min or max value.">
<polygon fill="white" stroke="#666666" points="1758,-19 1645,-19 1645,0 1758,0 1758,-19"/>
<text text-anchor="middle" x="1701.5" y="-7" font-family="Courier,monospace" font-size="10.00">SideExtremeValue</text>
</a>
</g>
</g>
<!-- Node56&#45;&gt;Node57 -->
<g id="edge56" class="edge">
<title>Node56&#45;&gt;Node57</title>
<path fill="none" stroke="#63b8ff" d="M1570.1,-32.08C1595.73,-27.64 1622.34,-23.03 1644.8,-19.15"/>
<polygon fill="#63b8ff" stroke="#63b8ff" points="1569.56,-28.62 1560.3,-33.78 1570.75,-35.52 1569.56,-28.62"/>
</g>
</g>
</svg>
