<?xml version="1.0" encoding="UTF-8" standalone="no"?>
<!DOCTYPE svg PUBLIC "-//W3C//DTD SVG 1.1//EN"
 "http://www.w3.org/Graphics/SVG/1.1/DTD/svg11.dtd">
<!-- Generated by graphviz version 7.0.5 (20221223.1930)
 -->
<!-- Title: NonlinearThread Pages: 1 -->
<!--zoomable 346 -->
<svg id="main" version="1.1" xmlns="http://www.w3.org/2000/svg" xmlns:xlink="http://www.w3.org/1999/xlink" xml:space="preserve" onload="init(evt)">
<style type="text/css"><![CDATA[
.edge:hover path { stroke: red; }
.edge:hover polygon { stroke: red; fill: red; }
]]></style>
<script type="text/javascript"><![CDATA[
var edges = document.getElementsByTagName('g');
if (edges && edges.length) {
  for (var i=0;i<edges.length;i++) {
    if (edges[i].id.substr(0,4)=='edge') {
      edges[i].setAttribute('class','edge');
    }
  }
}
]]></script>
        <defs>
                <circle id="rim" cx="0" cy="0" r="7"/>
                <circle id="rim2" cx="0" cy="0" r="3.5"/>
                <g id="zoomPlus">
                        <use xlink:href="#rim" fill="#404040">
                                <set attributeName="fill" to="#808080" begin="zoomplus.mouseover" end="zoomplus.mouseout"/>
                        </use>
                        <path d="M-4,0h8M0,-4v8" fill="none" stroke="white" stroke-width="1.5" pointer-events="none"/>
                </g>
                <g id="zoomMin">
                        <use xlink:href="#rim" fill="#404040">
                                <set attributeName="fill" to="#808080" begin="zoomminus.mouseover" end="zoomminus.mouseout"/>
                        </use>
                        <path d="M-4,0h8" fill="none" stroke="white" stroke-width="1.5" pointer-events="none"/>
                </g>
                <g id="dirArrow">
                        <path fill="none" stroke="white" stroke-width="1.5" d="M0,-3.0v7 M-2.5,-0.5L0,-3.0L2.5,-0.5"/>
                </g>
               <g id="resetDef">
                       <use xlink:href="#rim2" fill="#404040">
                               <set attributeName="fill" to="#808080" begin="reset.mouseover" end="reset.mouseout"/>
                       </use>
               </g>
        </defs>

<script type="text/javascript">
var viewWidth = 616;
var viewHeight = 346;
var sectionId = 'dynsection-0';
</script>
<script xlink:href="svgpan.js"/>
<svg id="graph" class="graph">
<g id="viewport">
<title>NonlinearThread</title>
<!-- Node1 -->
<g id="node1" class="node">
<title>Node1</title>
<g id="a_node1"><a xlink:title=" ">
<polygon fill="#999999" stroke="#666666" points="414,-206 307,-206 307,-187 414,-187 414,-206"/>
<text text-anchor="middle" x="360.5" y="-194" font-family="Courier,monospace" font-size="10.00">NonlinearThread</text>
</a>
</g>
</g>
<!-- Node4 -->
<g id="node4" class="node">
<title>Node4</title>
<g id="a_node4"><a xlink:href="classComputeJacobianThread.html" target="_top" xlink:title=" ">
<polygon fill="white" stroke="#666666" points="256,-145.5 113,-145.5 113,-126.5 256,-126.5 256,-145.5"/>
<text text-anchor="middle" x="184.5" y="-133.5" font-family="Courier,monospace" font-size="10.00">ComputeJacobianThread</text>
</a>
</g>
</g>
<!-- Node1&#45;&gt;Node4 -->
<g id="edge3" class="edge">
<title>Node1&#45;&gt;Node4</title>
<path fill="none" stroke="#63b8ff" d="M323.03,-183.05C289.55,-171.92 241.31,-155.88 211.48,-145.97"/>
<polygon fill="#63b8ff" stroke="#63b8ff" points="321.74,-186.3 332.33,-186.14 323.95,-179.66 321.74,-186.3"/>
</g>
<!-- Node8 -->
<g id="node8" class="node">
<title>Node8</title>
<g id="a_node8"><a xlink:href="classComputeResidualAndJacobianThread.html" target="_top" xlink:title=" ">
<polygon fill="white" stroke="#666666" points="447,-151 274,-151 274,-121 447,-121 447,-151"/>
<text text-anchor="start" x="282" y="-139" font-family="Courier,monospace" font-size="10.00">ComputeResidualAndJacobian</text>
<text text-anchor="middle" x="360.5" y="-128" font-family="Courier,monospace" font-size="10.00">Thread</text>
</a>
</g>
</g>
<!-- Node1&#45;&gt;Node8 -->
<g id="edge7" class="edge">
<title>Node1&#45;&gt;Node8</title>
<path fill="none" stroke="#63b8ff" d="M360.5,-175.51C360.5,-167.49 360.5,-158.43 360.5,-151.11"/>
<polygon fill="#63b8ff" stroke="#63b8ff" points="357,-175.35 360.5,-185.35 364,-175.35 357,-175.35"/>
</g>
<!-- Node9 -->
<g id="node9" class="node">
<title>Node9</title>
<g id="a_node9"><a xlink:href="classComputeResidualThread.html" target="_top" xlink:title=" ">
<polygon fill="white" stroke="#666666" points="608,-145.5 465,-145.5 465,-126.5 608,-126.5 608,-145.5"/>
<text text-anchor="middle" x="536.5" y="-133.5" font-family="Courier,monospace" font-size="10.00">ComputeResidualThread</text>
</a>
</g>
</g>
<!-- Node1&#45;&gt;Node9 -->
<g id="edge8" class="edge">
<title>Node1&#45;&gt;Node9</title>
<path fill="none" stroke="#63b8ff" d="M397.97,-183.05C431.45,-171.92 479.69,-155.88 509.52,-145.97"/>
<polygon fill="#63b8ff" stroke="#63b8ff" points="397.05,-179.66 388.67,-186.14 399.26,-186.3 397.05,-179.66"/>
</g>
<!-- Node2 -->
<g id="node2" class="node">
<title>Node2</title>
<g id="a_node2"><a xlink:href="classThreadedElementLoop.html" target="_top" xlink:title=" ">
<polygon fill="white" stroke="#666666" points="426,-272 295,-272 295,-242 426,-242 426,-272"/>
<text text-anchor="start" x="303" y="-260" font-family="Courier,monospace" font-size="10.00">ThreadedElementLoop</text>
<text text-anchor="middle" x="360.5" y="-249" font-family="Courier,monospace" font-size="10.00">&lt; ConstElemRange &gt;</text>
</a>
</g>
</g>
<!-- Node2&#45;&gt;Node1 -->
<g id="edge1" class="edge">
<title>Node2&#45;&gt;Node1</title>
<path fill="none" stroke="#63b8ff" d="M360.5,-230.3C360.5,-221.65 360.5,-212.58 360.5,-206.18"/>
<polygon fill="#63b8ff" stroke="#63b8ff" points="357,-230.03 360.5,-240.03 364,-230.03 357,-230.03"/>
</g>
<!-- Node3 -->
<g id="node3" class="node">
<title>Node3</title>
<g id="a_node3"><a xlink:href="classThreadedElementLoopBase.html" target="_top" xlink:title="Base class for assembly&#45;like calculations.">
<polygon fill="white" stroke="#666666" points="438,-338 283,-338 283,-308 438,-308 438,-338"/>
<text text-anchor="start" x="291" y="-326" font-family="Courier,monospace" font-size="10.00">ThreadedElementLoopBase</text>
<text text-anchor="middle" x="360.5" y="-315" font-family="Courier,monospace" font-size="10.00">&lt; RangeType &gt;</text>
</a>
</g>
</g>
<!-- Node3&#45;&gt;Node2 -->
<g id="edge2" class="edge">
<title>Node3&#45;&gt;Node2</title>
<path fill="none" stroke="#63b8ff" d="M360.5,-296.39C360.5,-288.13 360.5,-279.28 360.5,-272.16"/>
<polygon fill="#63b8ff" stroke="#63b8ff" points="357,-296.28 360.5,-306.28 364,-296.28 357,-296.28"/>
</g>
<!-- Node5 -->
<g id="node5" class="node">
<title>Node5</title>
<g id="a_node5"><a xlink:href="classComputeFullJacobianThread.html" target="_top" xlink:title=" ">
<polygon fill="white" stroke="#666666" points="268,-85 101,-85 101,-66 268,-66 268,-85"/>
<text text-anchor="middle" x="184.5" y="-73" font-family="Courier,monospace" font-size="10.00">ComputeFullJacobianThread</text>
</a>
</g>
</g>
<!-- Node4&#45;&gt;Node5 -->
<g id="edge4" class="edge">
<title>Node4&#45;&gt;Node5</title>
<path fill="none" stroke="#63b8ff" d="M184.5,-115.16C184.5,-104.95 184.5,-93.04 184.5,-85.17"/>
<polygon fill="#63b8ff" stroke="#63b8ff" points="181,-114.85 184.5,-124.85 188,-114.85 181,-114.85"/>
</g>
<!-- Node6 -->
<g id="node6" class="node">
<title>Node6</title>
<g id="a_node6"><a xlink:href="classComputeJacobianBlocksThread.html" target="_top" xlink:title="Specialization for filling multiple &quot;small&quot; preconditioning matrices simulatenously.">
<polygon fill="white" stroke="#666666" points="179,-24.5 0,-24.5 0,-5.5 179,-5.5 179,-24.5"/>
<text text-anchor="middle" x="89.5" y="-12.5" font-family="Courier,monospace" font-size="10.00">ComputeJacobianBlocksThread</text>
</a>
</g>
</g>
<!-- Node5&#45;&gt;Node6 -->
<g id="edge5" class="edge">
<title>Node5&#45;&gt;Node6</title>
<path fill="none" stroke="#63b8ff" d="M160.39,-59.66C142.63,-48.72 119.04,-34.19 104.06,-24.97"/>
<polygon fill="#63b8ff" stroke="#63b8ff" points="158.43,-62.56 168.78,-64.82 162.1,-56.6 158.43,-62.56"/>
</g>
<!-- Node7 -->
<g id="node7" class="node">
<title>Node7</title>
<g id="a_node7"><a xlink:href="classComputeJacobianForScalingThread.html" target="_top" xlink:title=" ">
<polygon fill="white" stroke="#666666" points="364,-30 197,-30 197,0 364,0 364,-30"/>
<text text-anchor="start" x="205" y="-18" font-family="Courier,monospace" font-size="10.00">ComputeJacobianForScaling</text>
<text text-anchor="middle" x="280.5" y="-7" font-family="Courier,monospace" font-size="10.00">Thread</text>
</a>
</g>
</g>
<!-- Node5&#45;&gt;Node7 -->
<g id="edge6" class="edge">
<title>Node5&#45;&gt;Node7</title>
<path fill="none" stroke="#63b8ff" d="M208.55,-59.85C223.3,-50.86 242.11,-39.39 256.8,-30.44"/>
<polygon fill="#63b8ff" stroke="#63b8ff" points="207.09,-56.63 200.37,-64.83 210.73,-62.61 207.09,-56.63"/>
</g>
</g>
</svg>
        <g id="navigator" transform="translate(0 0)" fill="#404254">
                <rect fill="#f2f5e9" fill-opacity="0.5" stroke="#606060" stroke-width=".5" x="0" y="0" width="60" height="60"/>
                <use id="zoomplus" xlink:href="#zoomPlus" x="17" y="9" onmousedown="handleZoom(evt,'in')"/>
                <use id="zoomminus" xlink:href="#zoomMin" x="42" y="9" onmousedown="handleZoom(evt,'out')"/>
                <use id="reset" xlink:href="#resetDef" x="30" y="36" onmousedown="handleReset()"/>
                <g id="arrowUp" xlink:href="#dirArrow" transform="translate(30 24)" onmousedown="handlePan(0,-1)">
                  <use xlink:href="#rim" fill="#404040">
                        <set attributeName="fill" to="#808080" begin="arrowUp.mouseover" end="arrowUp.mouseout"/>
                  </use>
                  <path fill="none" stroke="white" stroke-width="1.5" d="M0,-3.0v7 M-2.5,-0.5L0,-3.0L2.5,-0.5"/>
                </g>
                <g id="arrowRight" xlink:href="#dirArrow" transform="rotate(90) translate(36 -43)" onmousedown="handlePan(1,0)">
                  <use xlink:href="#rim" fill="#404040">
                        <set attributeName="fill" to="#808080" begin="arrowRight.mouseover" end="arrowRight.mouseout"/>
                  </use>
                  <path fill="none" stroke="white" stroke-width="1.5" d="M0,-3.0v7 M-2.5,-0.5L0,-3.0L2.5,-0.5"/>
                </g>
                <g id="arrowDown" xlink:href="#dirArrow" transform="rotate(180) translate(-30 -48)" onmousedown="handlePan(0,1)">
                  <use xlink:href="#rim" fill="#404040">
                        <set attributeName="fill" to="#808080" begin="arrowDown.mouseover" end="arrowDown.mouseout"/>
                  </use>
                  <path fill="none" stroke="white" stroke-width="1.5" d="M0,-3.0v7 M-2.5,-0.5L0,-3.0L2.5,-0.5"/>
                </g>
                <g id="arrowLeft" xlink:href="#dirArrow" transform="rotate(270) translate(-36 17)" onmousedown="handlePan(-1,0)">
                  <use xlink:href="#rim" fill="#404040">
                        <set attributeName="fill" to="#808080" begin="arrowLeft.mouseover" end="arrowLeft.mouseout"/>
                  </use>
                  <path fill="none" stroke="white" stroke-width="1.5" d="M0,-3.0v7 M-2.5,-0.5L0,-3.0L2.5,-0.5"/>
                </g>
        </g>
        <svg viewBox="0 0 15 15" width="100%" height="30px" preserveAspectRatio="xMaxYMin meet">
         <g id="arrow_out" transform="scale(0.3 0.3)">
          <a xlink:href="classNonlinearThread__inherit__graph_org.svg" target="_base">
           <rect id="button" ry="5" rx="5" y="6" x="6" height="38" width="38"
                fill="#f2f5e9" fill-opacity="0.5" stroke="#606060" stroke-width="1.0"/>
           <path id="arrow"
             d="M 11.500037,31.436501 C 11.940474,20.09759 22.043105,11.32322 32.158766,21.979434 L 37.068811,17.246167 C 37.068811,17.246167 37.088388,32 37.088388,32 L 22.160133,31.978069 C 22.160133,31.978069 26.997745,27.140456 26.997745,27.140456 C 18.528582,18.264221 13.291696,25.230495 11.500037,31.436501 z"
             style="fill:#404040;"/>
          </a>
         </g>
        </svg>
</svg>
