<?xml version="1.0" encoding="UTF-8" standalone="no"?>
<!DOCTYPE svg PUBLIC "-//W3C//DTD SVG 1.1//EN"
 "http://www.w3.org/Graphics/SVG/1.1/DTD/svg11.dtd">
<!-- Generated by graphviz version 7.0.5 (20221223.1930)
 -->
<!-- Title: SolutionInvalidity Pages: 1 -->
<svg width="276pt" height="82pt"
 viewBox="0.00 0.00 276.00 82.00" xmlns="http://www.w3.org/2000/svg" xmlns:xlink="http://www.w3.org/1999/xlink">
<g id="graph0" class="graph" transform="scale(1 1) rotate(0) translate(4 78)">
<title>SolutionInvalidity</title>
<!-- Node1 -->
<g id="node1" class="node">
<title>Node1</title>
<g id="a_node1"><a xlink:title="The SolutionInvalidity will contain all the information about the occurrence(s) of solution invalidit...">
<polygon fill="#999999" stroke="#666666" points="208,-19 83,-19 83,0 208,0 208,-19"/>
<text text-anchor="middle" x="145.5" y="-7" font-family="Courier,monospace" font-size="10.00">SolutionInvalidity</text>
</a>
</g>
</g>
<!-- Node2 -->
<g id="node2" class="node">
<title>Node2</title>
<g id="a_node2"><a xlink:href="classConsoleStreamInterface.html" target="_top" xlink:title="An inteface for the _console for outputting to the Console object.">
<polygon fill="white" stroke="#666666" points="149,-74 0,-74 0,-55 149,-55 149,-74"/>
<text text-anchor="middle" x="74.5" y="-62" font-family="Courier,monospace" font-size="10.00">ConsoleStreamInterface</text>
</a>
</g>
</g>
<!-- Node2&#45;&gt;Node1 -->
<g id="edge1" class="edge">
<title>Node2&#45;&gt;Node1</title>
<path fill="none" stroke="darkgreen" d="M95.75,-47.64C108.14,-38.39 123.32,-27.05 133.63,-19.36"/>
<polygon fill="darkgreen" stroke="darkgreen" points="93.68,-44.82 87.76,-53.6 97.86,-50.43 93.68,-44.82"/>
</g>
<!-- Node3 -->
<g id="node3" class="node">
<title>Node3</title>
<g id="a_node3"><a xlink:title=" ">
<polygon fill="white" stroke="#666666" points="268,-74 167,-74 167,-55 268,-55 268,-74"/>
<text text-anchor="middle" x="217.5" y="-62" font-family="Courier,monospace" font-size="10.00">ParallelObject</text>
</a>
</g>
</g>
<!-- Node3&#45;&gt;Node1 -->
<g id="edge2" class="edge">
<title>Node3&#45;&gt;Node1</title>
<path fill="none" stroke="#63b8ff" d="M196.33,-47.92C183.69,-38.61 168.09,-27.13 157.53,-19.36"/>
<polygon fill="#63b8ff" stroke="#63b8ff" points="193.94,-50.5 204.07,-53.61 198.09,-44.87 193.94,-50.5"/>
</g>
</g>
</svg>
