<?xml version="1.0" encoding="UTF-8" standalone="no"?>
<!DOCTYPE svg PUBLIC "-//W3C//DTD SVG 1.1//EN"
 "http://www.w3.org/Graphics/SVG/1.1/DTD/svg11.dtd">
<!-- Generated by graphviz version 7.0.5 (20221223.1930)
 -->
<!-- Title: LayeredExtremumMaterialProperty Pages: 1 -->
<!--zoomable 677 -->
<svg id="main" version="1.1" xmlns="http://www.w3.org/2000/svg" xmlns:xlink="http://www.w3.org/1999/xlink" xml:space="preserve" onload="init(evt)">
<style type="text/css"><![CDATA[
.edge:hover path { stroke: red; }
.edge:hover polygon { stroke: red; fill: red; }
]]></style>
<script type="text/javascript"><![CDATA[
var edges = document.getElementsByTagName('g');
if (edges && edges.length) {
  for (var i=0;i<edges.length;i++) {
    if (edges[i].id.substr(0,4)=='edge') {
      edges[i].setAttribute('class','edge');
    }
  }
}
]]></script>
        <defs>
                <circle id="rim" cx="0" cy="0" r="7"/>
                <circle id="rim2" cx="0" cy="0" r="3.5"/>
                <g id="zoomPlus">
                        <use xlink:href="#rim" fill="#404040">
                                <set attributeName="fill" to="#808080" begin="zoomplus.mouseover" end="zoomplus.mouseout"/>
                        </use>
                        <path d="M-4,0h8M0,-4v8" fill="none" stroke="white" stroke-width="1.5" pointer-events="none"/>
                </g>
                <g id="zoomMin">
                        <use xlink:href="#rim" fill="#404040">
                                <set attributeName="fill" to="#808080" begin="zoomminus.mouseover" end="zoomminus.mouseout"/>
                        </use>
                        <path d="M-4,0h8" fill="none" stroke="white" stroke-width="1.5" pointer-events="none"/>
                </g>
                <g id="dirArrow">
                        <path fill="none" stroke="white" stroke-width="1.5" d="M0,-3.0v7 M-2.5,-0.5L0,-3.0L2.5,-0.5"/>
                </g>
               <g id="resetDef">
                       <use xlink:href="#rim2" fill="#404040">
                               <set attributeName="fill" to="#808080" begin="reset.mouseover" end="reset.mouseout"/>
                       </use>
               </g>
        </defs>

<script type="text/javascript">
var viewWidth = 1638;
var viewHeight = 677;
var sectionId = 'dynsection-0';
</script>
<script xlink:href="svgpan.js"/>
<svg id="graph" class="graph">
<g id="viewport">
<title>LayeredExtremumMaterialProperty</title>
<!-- Node1 -->
<g id="node1" class="node">
<title>Node1</title>
<g id="a_node1"><a xlink:title="This UserObject computes volume integrals of a variable storing partial sums for the specified number...">
<polygon fill="#999999" stroke="#666666" points="1630,-139 1427,-139 1427,-120 1630,-120 1630,-139"/>
<text text-anchor="middle" x="1528.5" y="-127" font-family="Courier,monospace" font-size="10.00">LayeredExtremumMaterialProperty</text>
</a>
</g>
</g>
<!-- Node2 -->
<g id="node2" class="node">
<title>Node2</title>
<g id="a_node2"><a xlink:href="classElementExtremeMaterialPropertyTempl.html" target="_top" xlink:title="Determines the minimum or maximum of a material property over a volume.">
<polygon fill="white" stroke="#666666" points="1391,-172 1194,-172 1194,-153 1391,-153 1391,-172"/>
<text text-anchor="middle" x="1292.5" y="-160" font-family="Courier,monospace" font-size="10.00">ElementExtremeMaterialProperty</text>
</a>
</g>
</g>
<!-- Node2&#45;&gt;Node1 -->
<g id="edge1" class="edge">
<title>Node2&#45;&gt;Node1</title>
<path fill="none" stroke="#63b8ff" d="M1375.54,-150.93C1402.08,-147.19 1431.26,-143.07 1456.9,-139.46"/>
<polygon fill="#63b8ff" stroke="#63b8ff" points="1375.25,-147.44 1365.84,-152.3 1376.23,-154.37 1375.25,-147.44"/>
</g>
<!-- Node3 -->
<g id="node3" class="node">
<title>Node3</title>
<g id="a_node3"><a xlink:href="classElementPostprocessor.html" target="_top" xlink:title=" ">
<polygon fill="white" stroke="#666666" points="1158,-186 1021,-186 1021,-167 1158,-167 1158,-186"/>
<text text-anchor="middle" x="1089.5" y="-174" font-family="Courier,monospace" font-size="10.00">ElementPostprocessor</text>
</a>
</g>
</g>
<!-- Node3&#45;&gt;Node2 -->
<g id="edge2" class="edge">
<title>Node3&#45;&gt;Node2</title>
<path fill="none" stroke="#63b8ff" d="M1169.67,-170.99C1177.55,-170.44 1185.62,-169.87 1193.67,-169.31"/>
<polygon fill="#63b8ff" stroke="#63b8ff" points="1169.51,-167.49 1159.78,-171.67 1170,-174.47 1169.51,-167.49"/>
</g>
<!-- Node4 -->
<g id="node4" class="node">
<title>Node4</title>
<g id="a_node4"><a xlink:href="classElementUserObject.html" target="_top" xlink:title=" ">
<polygon fill="white" stroke="#666666" points="985,-186 866,-186 866,-167 985,-167 985,-186"/>
<text text-anchor="middle" x="925.5" y="-174" font-family="Courier,monospace" font-size="10.00">ElementUserObject</text>
</a>
</g>
</g>
<!-- Node4&#45;&gt;Node3 -->
<g id="edge3" class="edge">
<title>Node4&#45;&gt;Node3</title>
<path fill="none" stroke="#63b8ff" d="M996.83,-176.5C1004.7,-176.5 1012.7,-176.5 1020.53,-176.5"/>
<polygon fill="#63b8ff" stroke="#63b8ff" points="996.96,-173 986.96,-176.5 996.96,-180 996.96,-173"/>
</g>
<!-- Node5 -->
<g id="node5" class="node">
<title>Node5</title>
<g id="a_node5"><a xlink:href="classUserObject.html" target="_top" xlink:title="Base class for user&#45;specific data.">
<polygon fill="white" stroke="#666666" points="764,-279 687,-279 687,-260 764,-260 764,-279"/>
<text text-anchor="middle" x="725.5" y="-267" font-family="Courier,monospace" font-size="10.00">UserObject</text>
</a>
</g>
</g>
<!-- Node5&#45;&gt;Node4 -->
<g id="edge4" class="edge">
<title>Node5&#45;&gt;Node4</title>
<path fill="none" stroke="#63b8ff" d="M775.5,-265.43C793.23,-262.69 813.05,-258.13 830,-250.5 865.53,-234.51 899.58,-202.39 915.35,-186.24"/>
<polygon fill="#63b8ff" stroke="#63b8ff" points="775.13,-261.94 765.7,-266.77 776.08,-268.88 775.13,-261.94"/>
</g>
<!-- Node6 -->
<g id="node6" class="node">
<title>Node6</title>
<g id="a_node6"><a xlink:href="classMooseObject.html" target="_top" xlink:title="Every object that can be built by the factory should be derived from this class.">
<polygon fill="white" stroke="#666666" points="534,-500 451,-500 451,-481 534,-481 534,-500"/>
<text text-anchor="middle" x="492.5" y="-488" font-family="Courier,monospace" font-size="10.00">MooseObject</text>
</a>
</g>
</g>
<!-- Node6&#45;&gt;Node5 -->
<g id="edge5" class="edge">
<title>Node6&#45;&gt;Node5</title>
<path fill="none" stroke="#63b8ff" d="M545.26,-490.75C559.82,-488.29 574.52,-483 585,-472.5 644.17,-413.21 561.18,-346.14 621,-287.5 638,-270.84 664.56,-266.49 686.52,-266.22"/>
<polygon fill="#63b8ff" stroke="#63b8ff" points="545.22,-487.23 535.73,-491.94 546.08,-494.18 545.22,-487.23"/>
</g>
<!-- Node7 -->
<g id="node7" class="node">
<title>Node7</title>
<g id="a_node7"><a xlink:href="classMooseBase.html" target="_top" xlink:title="Base class for everything in MOOSE with a name and a type.">
<polygon fill="white" stroke="#666666" points="310,-564 239,-564 239,-545 310,-545 310,-564"/>
<text text-anchor="middle" x="274.5" y="-552" font-family="Courier,monospace" font-size="10.00">MooseBase</text>
</a>
</g>
</g>
<!-- Node7&#45;&gt;Node6 -->
<g id="edge6" class="edge">
<title>Node7&#45;&gt;Node6</title>
<path fill="none" stroke="#63b8ff" d="M321.22,-549.18C335.35,-546.49 350.68,-542.48 364,-536.5 382.24,-528.31 381.77,-517.73 400,-509.5 415.82,-502.36 434.4,-497.86 450.67,-495.06"/>
<polygon fill="#63b8ff" stroke="#63b8ff" points="320.97,-545.67 311.7,-550.8 322.15,-552.57 320.97,-545.67"/>
</g>
<!-- Node8 -->
<g id="node8" class="node">
<title>Node8</title>
<g id="a_node8"><a xlink:href="classMooseBaseParameterInterface.html" target="_top" xlink:title="Every object that can be built by the factory should be derived from this class.">
<polygon fill="white" stroke="#666666" points="364,-527 185,-527 185,-508 364,-508 364,-527"/>
<text text-anchor="middle" x="274.5" y="-515" font-family="Courier,monospace" font-size="10.00">MooseBaseParameterInterface</text>
</a>
</g>
</g>
<!-- Node8&#45;&gt;Node6 -->
<g id="edge7" class="edge">
<title>Node8&#45;&gt;Node6</title>
<path fill="none" stroke="#63b8ff" d="M366.47,-506.13C395.82,-502.46 426.91,-498.57 450.74,-495.6"/>
<polygon fill="#63b8ff" stroke="#63b8ff" points="366.31,-502.62 356.82,-507.34 367.18,-509.57 366.31,-502.62"/>
</g>
<!-- Node9 -->
<g id="node9" class="node">
<title>Node9</title>
<g id="a_node9"><a xlink:href="classMooseBaseErrorInterface.html" target="_top" xlink:title="Interface that provides APIs to output errors/warnings/info messages.">
<polygon fill="white" stroke="#666666" points="352,-490 197,-490 197,-471 352,-471 352,-490"/>
<text text-anchor="middle" x="274.5" y="-478" font-family="Courier,monospace" font-size="10.00">MooseBaseErrorInterface</text>
</a>
</g>
</g>
<!-- Node9&#45;&gt;Node6 -->
<g id="edge8" class="edge">
<title>Node9&#45;&gt;Node6</title>
<path fill="none" stroke="#63b8ff" d="M363.7,-484.58C393.87,-485.98 426.17,-487.48 450.75,-488.61"/>
<polygon fill="#63b8ff" stroke="#63b8ff" points="363.92,-481.09 353.77,-484.12 363.6,-488.08 363.92,-481.09"/>
</g>
<!-- Node10 -->
<g id="node10" class="node">
<title>Node10</title>
<g id="a_node10"><a xlink:href="classConsoleStreamInterface.html" target="_top" xlink:title="An inteface for the _console for outputting to the Console object.">
<polygon fill="white" stroke="#666666" points="149,-490 0,-490 0,-471 149,-471 149,-490"/>
<text text-anchor="middle" x="74.5" y="-478" font-family="Courier,monospace" font-size="10.00">ConsoleStreamInterface</text>
</a>
</g>
</g>
<!-- Node10&#45;&gt;Node9 -->
<g id="edge9" class="edge">
<title>Node10&#45;&gt;Node9</title>
<path fill="none" stroke="#63b8ff" d="M160.62,-480.5C172.62,-480.5 184.9,-480.5 196.73,-480.5"/>
<polygon fill="#63b8ff" stroke="#63b8ff" points="160.74,-477 150.74,-480.5 160.74,-484 160.74,-477"/>
</g>
<!-- Node11 -->
<g id="node11" class="node">
<title>Node11</title>
<g id="a_node11"><a xlink:title=" ">
<polygon fill="white" stroke="#666666" points="352,-453 197,-453 197,-434 352,-434 352,-453"/>
<text text-anchor="middle" x="274.5" y="-441" font-family="Courier,monospace" font-size="10.00">libMesh::ParallelObject</text>
</a>
</g>
</g>
<!-- Node11&#45;&gt;Node6 -->
<g id="edge10" class="edge">
<title>Node11&#45;&gt;Node6</title>
<path fill="none" stroke="#63b8ff" d="M335.41,-455.86C345,-457.98 354.79,-460.23 364,-462.5 380.13,-466.47 383.84,-468.67 400,-472.5 416.54,-476.42 434.91,-480.15 450.82,-483.19"/>
<polygon fill="#63b8ff" stroke="#63b8ff" points="336.3,-452.47 325.79,-453.76 334.81,-459.31 336.3,-452.47"/>
</g>
<!-- Node12 -->
<g id="node12" class="node">
<title>Node12</title>
<g id="a_node12"><a xlink:href="classDataFileInterface.html" target="_top" xlink:title=" ">
<polygon fill="white" stroke="#666666" points="337,-415.5 212,-415.5 212,-385.5 337,-385.5 337,-415.5"/>
<text text-anchor="start" x="220" y="-403.5" font-family="Courier,monospace" font-size="10.00">DataFileInterface&lt;</text>
<text text-anchor="middle" x="274.5" y="-392.5" font-family="Courier,monospace" font-size="10.00"> MooseObject &gt;</text>
</a>
</g>
</g>
<!-- Node12&#45;&gt;Node6 -->
<g id="edge11" class="edge">
<title>Node12&#45;&gt;Node6</title>
<path fill="none" stroke="#63b8ff" d="M347.75,-416.57C353.46,-419.13 358.96,-422.08 364,-425.5 385.77,-440.28 377.65,-458.62 400,-472.5 415.13,-481.89 434.15,-486.54 450.93,-488.78"/>
<polygon fill="#63b8ff" stroke="#63b8ff" points="349.28,-413.42 338.7,-412.96 346.69,-419.92 349.28,-413.42"/>
</g>
<!-- Node13 -->
<g id="node13" class="node">
<title>Node13</title>
<g id="a_node13"><a xlink:href="classSetupInterface.html" target="_top" xlink:title=" ">
<polygon fill="white" stroke="#666666" points="543,-463 442,-463 442,-444 543,-444 543,-463"/>
<text text-anchor="middle" x="492.5" y="-451" font-family="Courier,monospace" font-size="10.00">SetupInterface</text>
</a>
</g>
</g>
<!-- Node13&#45;&gt;Node5 -->
<g id="edge12" class="edge">
<title>Node13&#45;&gt;Node5</title>
<path fill="none" stroke="#63b8ff" d="M554.31,-451.46C565.66,-448.51 576.58,-443.56 585,-435.5 633.92,-388.71 571.57,-333.75 621,-287.5 638.31,-271.3 664.73,-266.91 686.54,-266.52"/>
<polygon fill="#63b8ff" stroke="#63b8ff" points="553.93,-447.96 544.85,-453.41 555.35,-454.82 553.93,-447.96"/>
</g>
<!-- Node14 -->
<g id="node14" class="node">
<title>Node14</title>
<g id="a_node14"><a xlink:href="classFunctionInterface.html" target="_top" xlink:title="Interface for objects that need to use functions.">
<polygon fill="white" stroke="#666666" points="552,-426 433,-426 433,-407 552,-407 552,-426"/>
<text text-anchor="middle" x="492.5" y="-414" font-family="Courier,monospace" font-size="10.00">FunctionInterface</text>
</a>
</g>
</g>
<!-- Node14&#45;&gt;Node5 -->
<g id="edge13" class="edge">
<title>Node14&#45;&gt;Node5</title>
<path fill="none" stroke="darkgreen" d="M563.43,-410.17C571.33,-407.18 578.76,-403.08 585,-397.5 623.34,-363.21 582.1,-321.16 621,-287.5 638.86,-272.04 665.14,-267.62 686.74,-267.02"/>
<polygon fill="darkgreen" stroke="darkgreen" points="562.39,-406.83 553.88,-413.15 564.47,-413.51 562.39,-406.83"/>
</g>
<!-- Node15 -->
<g id="node15" class="node">
<title>Node15</title>
<g id="a_node15"><a xlink:href="classUserObjectInterface.html" target="_top" xlink:title="Interface for objects that need to use UserObjects.">
<polygon fill="white" stroke="#666666" points="558,-389 427,-389 427,-370 558,-370 558,-389"/>
<text text-anchor="middle" x="492.5" y="-377" font-family="Courier,monospace" font-size="10.00">UserObjectInterface</text>
</a>
</g>
</g>
<!-- Node15&#45;&gt;Node5 -->
<g id="edge14" class="edge">
<title>Node15&#45;&gt;Node5</title>
<path fill="none" stroke="#63b8ff" d="M568.89,-369.87C574.64,-367.37 580.11,-364.29 585,-360.5 613.61,-338.36 592.04,-309.17 621,-287.5 639.69,-273.51 665.57,-269.01 686.77,-268.01"/>
<polygon fill="#63b8ff" stroke="#63b8ff" points="567.87,-366.51 559.69,-373.24 570.28,-373.08 567.87,-366.51"/>
</g>
<!-- Node16 -->
<g id="node16" class="node">
<title>Node16</title>
<g id="a_node16"><a xlink:href="classPostprocessorInterface.html" target="_top" xlink:title="Interface class for classes which interact with Postprocessors.">
<polygon fill="white" stroke="#666666" points="567,-352 418,-352 418,-333 567,-333 567,-352"/>
<text text-anchor="middle" x="492.5" y="-340" font-family="Courier,monospace" font-size="10.00">PostprocessorInterface</text>
</a>
</g>
</g>
<!-- Node16&#45;&gt;Node5 -->
<g id="edge15" class="edge">
<title>Node16&#45;&gt;Node5</title>
<path fill="none" stroke="darkgreen" d="M573.6,-328.81C577.54,-327.23 581.36,-325.47 585,-323.5 604.91,-312.75 600.92,-297.92 621,-287.5 641.23,-277 666.39,-272.46 686.83,-270.57"/>
<polygon fill="darkgreen" stroke="darkgreen" points="572.66,-325.43 564.41,-332.07 575.01,-332.02 572.66,-325.43"/>
</g>
<!-- Node17 -->
<g id="node17" class="node">
<title>Node17</title>
<g id="a_node17"><a xlink:href="classVectorPostprocessorInterface.html" target="_top" xlink:title=" ">
<polygon fill="white" stroke="#666666" points="585,-315 400,-315 400,-296 585,-296 585,-315"/>
<text text-anchor="middle" x="492.5" y="-303" font-family="Courier,monospace" font-size="10.00">VectorPostprocessorInterface</text>
</a>
</g>
</g>
<!-- Node17&#45;&gt;Node5 -->
<g id="edge16" class="edge">
<title>Node17&#45;&gt;Node5</title>
<path fill="none" stroke="darkgreen" d="M568.73,-293.78C608.19,-287.63 654.82,-280.36 686.71,-275.39"/>
<polygon fill="darkgreen" stroke="darkgreen" points="568.38,-290.29 559.04,-295.29 569.45,-297.21 568.38,-290.29"/>
</g>
<!-- Node18 -->
<g id="node18" class="node">
<title>Node18</title>
<g id="a_node18"><a xlink:href="classReporterInterface.html" target="_top" xlink:title="Interface to allow object to consume Reporter values.">
<polygon fill="white" stroke="#666666" points="552,-278 433,-278 433,-259 552,-259 552,-278"/>
<text text-anchor="middle" x="492.5" y="-266" font-family="Courier,monospace" font-size="10.00">ReporterInterface</text>
</a>
</g>
</g>
<!-- Node18&#45;&gt;Node5 -->
<g id="edge17" class="edge">
<title>Node18&#45;&gt;Node5</title>
<path fill="none" stroke="darkgreen" d="M563.82,-268.8C604.26,-268.98 653.49,-269.19 686.71,-269.34"/>
<polygon fill="darkgreen" stroke="darkgreen" points="563.92,-265.3 553.9,-268.76 563.89,-272.3 563.92,-265.3"/>
</g>
<!-- Node19 -->
<g id="node19" class="node">
<title>Node19</title>
<g id="a_node19"><a xlink:href="classDistributionInterface.html" target="_top" xlink:title="Interface for objects that need to use distributions.">
<polygon fill="white" stroke="#666666" points="564,-241 421,-241 421,-222 564,-222 564,-241"/>
<text text-anchor="middle" x="492.5" y="-229" font-family="Courier,monospace" font-size="10.00">DistributionInterface</text>
</a>
</g>
</g>
<!-- Node19&#45;&gt;Node5 -->
<g id="edge18" class="edge">
<title>Node19&#45;&gt;Node5</title>
<path fill="none" stroke="darkgreen" d="M565.53,-243.35C605.61,-249.94 653.87,-257.88 686.62,-263.27"/>
<polygon fill="darkgreen" stroke="darkgreen" points="566.12,-239.9 555.69,-241.73 564.99,-246.81 566.12,-239.9"/>
</g>
<!-- Node20 -->
<g id="node20" class="node">
<title>Node20</title>
<g id="a_node20"><a xlink:href="classSamplerInterface.html" target="_top" xlink:title="Interface for objects that need to use samplers.">
<polygon fill="white" stroke="#666666" points="549,-204 436,-204 436,-185 549,-185 549,-204"/>
<text text-anchor="middle" x="492.5" y="-192" font-family="Courier,monospace" font-size="10.00">SamplerInterface</text>
</a>
</g>
</g>
<!-- Node20&#45;&gt;Node5 -->
<g id="edge19" class="edge">
<title>Node20&#45;&gt;Node5</title>
<path fill="none" stroke="darkgreen" d="M560.13,-202.54C568.8,-205.03 577.32,-208.27 585,-212.5 605.38,-223.72 600.55,-239.41 621,-250.5 641.07,-261.39 666.22,-266.17 686.7,-268.22"/>
<polygon fill="darkgreen" stroke="darkgreen" points="561.15,-199.19 550.6,-200.14 559.44,-205.97 561.15,-199.19"/>
</g>
<!-- Node21 -->
<g id="node21" class="node">
<title>Node21</title>
<g id="a_node21"><a xlink:href="classRestartable.html" target="_top" xlink:title="A class for creating restricted objects.">
<polygon fill="white" stroke="#666666" points="534,-19 451,-19 451,0 534,0 534,-19"/>
<text text-anchor="middle" x="492.5" y="-7" font-family="Courier,monospace" font-size="10.00">Restartable</text>
</a>
</g>
</g>
<!-- Node21&#45;&gt;Node5 -->
<g id="edge20" class="edge">
<title>Node21&#45;&gt;Node5</title>
<path fill="none" stroke="darkgreen" d="M545.47,-9.04C560.04,-11.49 574.69,-16.83 585,-27.5 654.77,-99.69 550.78,-178.75 621,-250.5 637.74,-267.6 664.45,-272.18 686.54,-272.57"/>
<polygon fill="darkgreen" stroke="darkgreen" points="546.28,-5.61 535.92,-7.87 545.42,-12.56 546.28,-5.61"/>
</g>
<!-- Node41 -->
<g id="node41" class="node">
<title>Node41</title>
<g id="a_node41"><a xlink:href="classLayeredBase.html" target="_top" xlink:title="This base class computes volume integrals of a variable storing partial sums for the specified number...">
<polygon fill="white" stroke="#666666" points="1131,-74 1048,-74 1048,-55 1131,-55 1131,-74"/>
<text text-anchor="middle" x="1089.5" y="-62" font-family="Courier,monospace" font-size="10.00">LayeredBase</text>
</a>
</g>
</g>
<!-- Node21&#45;&gt;Node41 -->
<g id="edge41" class="edge">
<title>Node21&#45;&gt;Node41</title>
<path fill="none" stroke="#8b1a1a" d="M545.6,-11.12C611.82,-13.48 729.6,-18.69 830,-28.5 907.34,-36.06 997.07,-49.64 1047.88,-57.79"/>
<polygon fill="#8b1a1a" stroke="#8b1a1a" points="545.87,-7.62 535.76,-10.78 545.63,-14.62 545.87,-7.62"/>
</g>
<!-- Node22 -->
<g id="node22" class="node">
<title>Node22</title>
<g id="a_node22"><a xlink:href="classMeshMetaDataInterface.html" target="_top" xlink:title="The Interface used to retrieve mesh meta data (attributes) set by the MeshGenerator system.">
<polygon fill="white" stroke="#666666" points="564,-167 421,-167 421,-148 564,-148 564,-167"/>
<text text-anchor="middle" x="492.5" y="-155" font-family="Courier,monospace" font-size="10.00">MeshMetaDataInterface</text>
</a>
</g>
</g>
<!-- Node22&#45;&gt;Node5 -->
<g id="edge21" class="edge">
<title>Node22&#45;&gt;Node5</title>
<path fill="none" stroke="darkgreen" d="M574.84,-169.02C578.42,-170.9 581.83,-173.05 585,-175.5 614.24,-198.13 591.62,-228.05 621,-250.5 639.58,-264.7 665.46,-269.45 686.69,-270.65"/>
<polygon fill="darkgreen" stroke="darkgreen" points="576.33,-165.86 565.77,-165.03 573.51,-172.26 576.33,-165.86"/>
</g>
<!-- Node23 -->
<g id="node23" class="node">
<title>Node23</title>
<g id="a_node23"><a xlink:href="classMeshChangedInterface.html" target="_top" xlink:title="Interface for notifications that the mesh has changed.">
<polygon fill="white" stroke="#666666" points="561,-130 424,-130 424,-111 561,-111 561,-130"/>
<text text-anchor="middle" x="492.5" y="-118" font-family="Courier,monospace" font-size="10.00">MeshChangedInterface</text>
</a>
</g>
</g>
<!-- Node23&#45;&gt;Node5 -->
<g id="edge22" class="edge">
<title>Node23&#45;&gt;Node5</title>
<path fill="none" stroke="darkgreen" d="M571.63,-129.54C576.46,-131.97 580.98,-134.92 585,-138.5 624.07,-173.25 581.71,-216 621,-250.5 638.78,-266.11 665.05,-270.79 686.68,-271.6"/>
<polygon fill="darkgreen" stroke="darkgreen" points="573.35,-126.46 562.77,-125.84 570.65,-132.92 573.35,-126.46"/>
</g>
<!-- Node24 -->
<g id="node24" class="node">
<title>Node24</title>
<g id="a_node24"><a xlink:href="classScalarCoupleable.html" target="_top" xlink:title="Interface for objects that needs scalar coupling capabilities.">
<polygon fill="white" stroke="#666666" points="549,-93 436,-93 436,-74 549,-74 549,-93"/>
<text text-anchor="middle" x="492.5" y="-81" font-family="Courier,monospace" font-size="10.00">ScalarCoupleable</text>
</a>
</g>
</g>
<!-- Node24&#45;&gt;Node5 -->
<g id="edge23" class="edge">
<title>Node24&#45;&gt;Node5</title>
<path fill="none" stroke="darkgreen" d="M560.1,-87.23C569.33,-90.27 578.03,-94.82 585,-101.5 634.19,-148.63 571.51,-203.68 621,-250.5 638.25,-266.82 664.67,-271.47 686.5,-272.08"/>
<polygon fill="darkgreen" stroke="darkgreen" points="561.11,-83.88 550.55,-84.7 559.32,-90.65 561.11,-83.88"/>
</g>
<!-- Node25 -->
<g id="node25" class="node">
<title>Node25</title>
<g id="a_node25"><a xlink:href="classPerfGraphInterface.html" target="_top" xlink:title="Interface for objects interacting with the PerfGraph.">
<polygon fill="white" stroke="#666666" points="555,-56 430,-56 430,-37 555,-37 555,-56"/>
<text text-anchor="middle" x="492.5" y="-44" font-family="Courier,monospace" font-size="10.00">PerfGraphInterface</text>
</a>
</g>
</g>
<!-- Node25&#45;&gt;Node5 -->
<g id="edge24" class="edge">
<title>Node25&#45;&gt;Node5</title>
<path fill="none" stroke="darkgreen" d="M565.82,-52C572.95,-54.97 579.55,-59.03 585,-64.5 644.45,-124.13 561.18,-191.25 621,-250.5 638,-267.34 664.71,-271.92 686.73,-272.38"/>
<polygon fill="darkgreen" stroke="darkgreen" points="567.1,-48.73 556.51,-48.85 564.86,-55.36 567.1,-48.73"/>
</g>
<!-- Node26 -->
<g id="node26" class="node">
<title>Node26</title>
<g id="a_node26"><a xlink:href="classDependencyResolverInterface.html" target="_top" xlink:title="Interface for sorting dependent vectors of objects.">
<polygon fill="white" stroke="#666666" points="582,-537 403,-537 403,-518 582,-518 582,-537"/>
<text text-anchor="middle" x="492.5" y="-525" font-family="Courier,monospace" font-size="10.00">DependencyResolverInterface</text>
</a>
</g>
</g>
<!-- Node26&#45;&gt;Node5 -->
<g id="edge25" class="edge">
<title>Node26&#45;&gt;Node5</title>
<path fill="none" stroke="#63b8ff" d="M583.84,-510.66C584.23,-510.28 584.62,-509.89 585,-509.5 654.49,-437.65 550.73,-358.58 621,-287.5 637.8,-270.51 664.51,-266.19 686.58,-266.03"/>
<polygon fill="#63b8ff" stroke="#63b8ff" points="581.83,-507.79 576.06,-516.68 586.11,-513.32 581.83,-507.79"/>
</g>
<!-- Node27 -->
<g id="node27" class="node">
<title>Node27</title>
<g id="a_node27"><a xlink:href="classBlockRestrictable.html" target="_top" xlink:title="An interface that restricts an object to subdomains via the &#39;blocks&#39; input parameter.">
<polygon fill="white" stroke="#666666" points="785,-242 666,-242 666,-223 785,-223 785,-242"/>
<text text-anchor="middle" x="725.5" y="-230" font-family="Courier,monospace" font-size="10.00">BlockRestrictable</text>
</a>
</g>
</g>
<!-- Node27&#45;&gt;Node4 -->
<g id="edge26" class="edge">
<title>Node27&#45;&gt;Node4</title>
<path fill="none" stroke="#63b8ff" d="M796.45,-221.55C807.75,-219.24 819.26,-216.56 830,-213.5 855.59,-206.21 883.87,-194.65 902.76,-186.39"/>
<polygon fill="#63b8ff" stroke="#63b8ff" points="795.88,-218.09 786.73,-223.44 797.22,-224.96 795.88,-218.09"/>
</g>
<!-- Node28 -->
<g id="node28" class="node">
<title>Node28</title>
<g id="a_node28"><a xlink:href="classMaterialPropertyInterface.html" target="_top" xlink:title="An interface for accessing Materials.">
<polygon fill="white" stroke="#666666" points="809,-205 642,-205 642,-186 809,-186 809,-205"/>
<text text-anchor="middle" x="725.5" y="-193" font-family="Courier,monospace" font-size="10.00">MaterialPropertyInterface</text>
</a>
</g>
</g>
<!-- Node28&#45;&gt;Node4 -->
<g id="edge27" class="edge">
<title>Node28&#45;&gt;Node4</title>
<path fill="none" stroke="#63b8ff" d="M820.51,-186.48C835.94,-185 851.53,-183.5 865.78,-182.13"/>
<polygon fill="#63b8ff" stroke="#63b8ff" points="820.45,-182.97 810.83,-187.41 821.12,-189.94 820.45,-182.97"/>
</g>
<!-- Node29 -->
<g id="node29" class="node">
<title>Node29</title>
<g id="a_node29"><a xlink:href="classCoupleable.html" target="_top" xlink:title="Interface for objects that needs coupling capabilities.">
<polygon fill="white" stroke="#666666" points="764,-168 687,-168 687,-149 764,-149 764,-168"/>
<text text-anchor="middle" x="725.5" y="-156" font-family="Courier,monospace" font-size="10.00">Coupleable</text>
</a>
</g>
</g>
<!-- Node29&#45;&gt;Node4 -->
<g id="edge28" class="edge">
<title>Node29&#45;&gt;Node4</title>
<path fill="none" stroke="#63b8ff" d="M775.43,-162.95C802.68,-165.43 836.79,-168.53 865.51,-171.14"/>
<polygon fill="#63b8ff" stroke="#63b8ff" points="775.99,-159.48 765.72,-162.07 775.36,-166.46 775.99,-159.48"/>
</g>
<!-- Node30 -->
<g id="node30" class="node">
<title>Node30</title>
<g id="a_node30"><a xlink:href="classMooseVariableDependencyInterface.html" target="_top" xlink:title=" ">
<polygon fill="white" stroke="#666666" points="830,-131 621,-131 621,-112 830,-112 830,-131"/>
<text text-anchor="middle" x="725.5" y="-119" font-family="Courier,monospace" font-size="10.00">MooseVariableDependencyInterface</text>
</a>
</g>
</g>
<!-- Node30&#45;&gt;Node4 -->
<g id="edge29" class="edge">
<title>Node30&#45;&gt;Node4</title>
<path fill="none" stroke="#63b8ff" d="M806.63,-133.78C814.58,-135.49 822.48,-137.4 830,-139.5 855.62,-146.67 883.9,-158.25 902.78,-166.55"/>
<polygon fill="#63b8ff" stroke="#63b8ff" points="807.39,-130.36 796.9,-131.79 805.99,-137.22 807.39,-130.36"/>
</g>
<!-- Node31 -->
<g id="node31" class="node">
<title>Node31</title>
<g id="a_node31"><a xlink:href="classTransientInterface.html" target="_top" xlink:title="Interface for objects that needs transient capabilities.">
<polygon fill="white" stroke="#666666" points="788,-94 663,-94 663,-75 788,-75 788,-94"/>
<text text-anchor="middle" x="725.5" y="-82" font-family="Courier,monospace" font-size="10.00">TransientInterface</text>
</a>
</g>
</g>
<!-- Node31&#45;&gt;Node4 -->
<g id="edge30" class="edge">
<title>Node31&#45;&gt;Node4</title>
<path fill="none" stroke="#63b8ff" d="M799.39,-92.5C809.91,-94.98 820.41,-98.24 830,-102.5 865.61,-118.33 899.62,-150.52 915.37,-166.72"/>
<polygon fill="#63b8ff" stroke="#63b8ff" points="800.44,-89.14 789.93,-90.49 798.98,-95.99 800.44,-89.14"/>
</g>
<!-- Node32 -->
<g id="node32" class="node">
<title>Node32</title>
<g id="a_node32"><a xlink:href="classRandomInterface.html" target="_top" xlink:title="Interface for objects that need parallel consistent random numbers without patterns over the course o...">
<polygon fill="white" stroke="#666666" points="779,-57 672,-57 672,-38 779,-38 779,-57"/>
<text text-anchor="middle" x="725.5" y="-45" font-family="Courier,monospace" font-size="10.00">RandomInterface</text>
</a>
</g>
</g>
<!-- Node32&#45;&gt;Node4 -->
<g id="edge31" class="edge">
<title>Node32&#45;&gt;Node4</title>
<path fill="none" stroke="#63b8ff" d="M790.74,-51.6C804.32,-54.36 818.12,-58.72 830,-65.5 874.18,-90.73 907.24,-144.77 919.41,-166.82"/>
<polygon fill="#63b8ff" stroke="#63b8ff" points="791.38,-48.16 780.93,-49.89 790.18,-55.05 791.38,-48.16"/>
</g>
<!-- Node33 -->
<g id="node33" class="node">
<title>Node33</title>
<g id="a_node33"><a xlink:href="classElementIDInterface.html" target="_top" xlink:title=" ">
<polygon fill="white" stroke="#666666" points="788,-316 663,-316 663,-297 788,-297 788,-316"/>
<text text-anchor="middle" x="725.5" y="-304" font-family="Courier,monospace" font-size="10.00">ElementIDInterface</text>
</a>
</g>
</g>
<!-- Node33&#45;&gt;Node4 -->
<g id="edge32" class="edge">
<title>Node33&#45;&gt;Node4</title>
<path fill="none" stroke="#63b8ff" d="M799.46,-299.64C810.13,-296.8 820.66,-292.89 830,-287.5 873.84,-262.19 906.86,-208.68 919.21,-186.48"/>
<polygon fill="#63b8ff" stroke="#63b8ff" points="798.75,-296.21 789.79,-301.87 800.32,-303.03 798.75,-296.21"/>
</g>
<!-- Node34 -->
<g id="node34" class="node">
<title>Node34</title>
<g id="a_node34"><a xlink:href="classPostprocessor.html" target="_top" xlink:title="Base class for all Postprocessors.">
<polygon fill="white" stroke="#666666" points="973,-610 878,-610 878,-591 973,-591 973,-610"/>
<text text-anchor="middle" x="925.5" y="-598" font-family="Courier,monospace" font-size="10.00">Postprocessor</text>
</a>
</g>
</g>
<!-- Node34&#45;&gt;Node3 -->
<g id="edge33" class="edge">
<title>Node34&#45;&gt;Node3</title>
<path fill="none" stroke="#63b8ff" d="M934.16,-580.44C962.94,-505.13 1063.97,-240.7 1084.75,-186.32"/>
<polygon fill="#63b8ff" stroke="#63b8ff" points="931.03,-578.84 930.73,-589.43 937.57,-581.34 931.03,-578.84"/>
</g>
<!-- Node35 -->
<g id="node35" class="node">
<title>Node35</title>
<g id="a_node35"><a xlink:href="classOutputInterface.html" target="_top" xlink:title="A class to provide an common interface to objects requiring &quot;outputs&quot; option.">
<polygon fill="white" stroke="#666666" points="779,-669 672,-669 672,-650 779,-650 779,-669"/>
<text text-anchor="middle" x="725.5" y="-657" font-family="Courier,monospace" font-size="10.00">OutputInterface</text>
</a>
</g>
</g>
<!-- Node35&#45;&gt;Node34 -->
<g id="edge34" class="edge">
<title>Node35&#45;&gt;Node34</title>
<path fill="none" stroke="#63b8ff" d="M790.4,-650.83C803.63,-648.36 817.37,-645.28 830,-641.5 857.07,-633.4 886.72,-619.68 905.46,-610.36"/>
<polygon fill="#63b8ff" stroke="#63b8ff" points="790.18,-647.32 780.94,-652.51 791.4,-654.21 790.18,-647.32"/>
</g>
<!-- Node36 -->
<g id="node36" class="node">
<title>Node36</title>
<g id="a_node36"><a xlink:href="classNonADFunctorInterface.html" target="_top" xlink:title="An interface for accessing Moose::Functors for systems that do not care about automatic differentiati...">
<polygon fill="white" stroke="#666666" points="797,-632 654,-632 654,-613 797,-613 797,-632"/>
<text text-anchor="middle" x="725.5" y="-620" font-family="Courier,monospace" font-size="10.00">NonADFunctorInterface</text>
</a>
</g>
</g>
<!-- Node36&#45;&gt;Node34 -->
<g id="edge35" class="edge">
<title>Node36&#45;&gt;Node34</title>
<path fill="none" stroke="#63b8ff" d="M808.81,-613.35C832.26,-610.75 857.01,-608 877.56,-605.72"/>
<polygon fill="#63b8ff" stroke="#63b8ff" points="808.48,-609.87 798.93,-614.45 809.25,-616.83 808.48,-609.87"/>
</g>
<!-- Node37 -->
<g id="node37" class="node">
<title>Node37</title>
<g id="a_node37"><a xlink:href="classFunctorInterface.html" target="_top" xlink:title="An interface for accessing Moose::Functors.">
<polygon fill="white" stroke="#666666" points="549,-632 436,-632 436,-613 549,-613 549,-632"/>
<text text-anchor="middle" x="492.5" y="-620" font-family="Courier,monospace" font-size="10.00">FunctorInterface</text>
</a>
</g>
</g>
<!-- Node37&#45;&gt;Node36 -->
<g id="edge36" class="edge">
<title>Node37&#45;&gt;Node36</title>
<path fill="none" stroke="#63b8ff" d="M560.76,-622.5C589.96,-622.5 624.18,-622.5 653.77,-622.5"/>
<polygon fill="#63b8ff" stroke="#63b8ff" points="560.93,-619 550.93,-622.5 560.93,-626 560.93,-619"/>
</g>
<!-- Node38 -->
<g id="node38" class="node">
<title>Node38</title>
<g id="a_node38"><a xlink:href="classMoose_1_1FunctorBase.html" target="_top" xlink:title=" ">
<polygon fill="white" stroke="#666666" points="788,-594.5 663,-594.5 663,-564.5 788,-564.5 788,-594.5"/>
<text text-anchor="start" x="671" y="-582.5" font-family="Courier,monospace" font-size="10.00">Moose::FunctorBase</text>
<text text-anchor="middle" x="725.5" y="-571.5" font-family="Courier,monospace" font-size="10.00">&lt; Real &gt;</text>
</a>
</g>
</g>
<!-- Node38&#45;&gt;Node34 -->
<g id="edge37" class="edge">
<title>Node38&#45;&gt;Node34</title>
<path fill="none" stroke="#63b8ff" d="M799.7,-587.26C825.74,-590.02 854.33,-593.06 877.57,-595.52"/>
<polygon fill="#63b8ff" stroke="#63b8ff" points="800.15,-583.79 789.84,-586.22 799.41,-590.75 800.15,-583.79"/>
</g>
<!-- Node39 -->
<g id="node39" class="node">
<title>Node39</title>
<g id="a_node39"><a xlink:href="classMoose_1_1FunctorAbstract.html" target="_top" xlink:title="Abstract base class that can be used to hold collections of functors.">
<polygon fill="white" stroke="#666666" points="567,-592 418,-592 418,-573 567,-573 567,-592"/>
<text text-anchor="middle" x="492.5" y="-580" font-family="Courier,monospace" font-size="10.00">Moose::FunctorAbstract</text>
</a>
</g>
</g>
<!-- Node39&#45;&gt;Node38 -->
<g id="edge38" class="edge">
<title>Node39&#45;&gt;Node38</title>
<path fill="none" stroke="#63b8ff" d="M578.58,-581.4C606.46,-581.03 636.88,-580.64 662.7,-580.3"/>
<polygon fill="#63b8ff" stroke="#63b8ff" points="578.69,-577.89 568.74,-581.52 578.78,-584.89 578.69,-577.89"/>
</g>
<!-- Node40 -->
<g id="node40" class="node">
<title>Node40</title>
<g id="a_node40"><a xlink:href="classFaceArgInterface.html" target="_top" xlink:title="A base class interface for both producers and consumers of functor face arguments,...">
<polygon fill="white" stroke="#666666" points="331,-601 218,-601 218,-582 331,-582 331,-601"/>
<text text-anchor="middle" x="274.5" y="-589" font-family="Courier,monospace" font-size="10.00">FaceArgInterface</text>
</a>
</g>
</g>
<!-- Node40&#45;&gt;Node39 -->
<g id="edge39" class="edge">
<title>Node40&#45;&gt;Node39</title>
<path fill="none" stroke="#63b8ff" d="M342.78,-588.7C366.49,-587.71 393.27,-586.59 417.51,-585.58"/>
<polygon fill="#63b8ff" stroke="#63b8ff" points="342.76,-585.19 332.92,-589.11 343.06,-592.19 342.76,-585.19"/>
</g>
<!-- Node41&#45;&gt;Node1 -->
<g id="edge40" class="edge">
<title>Node41&#45;&gt;Node1</title>
<path fill="none" stroke="#63b8ff" d="M1142.38,-72.22C1221.69,-84.01 1373.07,-106.53 1460.56,-119.54"/>
<polygon fill="#63b8ff" stroke="#63b8ff" points="1143.12,-68.79 1132.72,-70.78 1142.09,-75.71 1143.12,-68.79"/>
</g>
</g>
</svg>
        <g id="navigator" transform="translate(0 0)" fill="#404254">
                <rect fill="#f2f5e9" fill-opacity="0.5" stroke="#606060" stroke-width=".5" x="0" y="0" width="60" height="60"/>
                <use id="zoomplus" xlink:href="#zoomPlus" x="17" y="9" onmousedown="handleZoom(evt,'in')"/>
                <use id="zoomminus" xlink:href="#zoomMin" x="42" y="9" onmousedown="handleZoom(evt,'out')"/>
                <use id="reset" xlink:href="#resetDef" x="30" y="36" onmousedown="handleReset()"/>
                <g id="arrowUp" xlink:href="#dirArrow" transform="translate(30 24)" onmousedown="handlePan(0,-1)">
                  <use xlink:href="#rim" fill="#404040">
                        <set attributeName="fill" to="#808080" begin="arrowUp.mouseover" end="arrowUp.mouseout"/>
                  </use>
                  <path fill="none" stroke="white" stroke-width="1.5" d="M0,-3.0v7 M-2.5,-0.5L0,-3.0L2.5,-0.5"/>
                </g>
                <g id="arrowRight" xlink:href="#dirArrow" transform="rotate(90) translate(36 -43)" onmousedown="handlePan(1,0)">
                  <use xlink:href="#rim" fill="#404040">
                        <set attributeName="fill" to="#808080" begin="arrowRight.mouseover" end="arrowRight.mouseout"/>
                  </use>
                  <path fill="none" stroke="white" stroke-width="1.5" d="M0,-3.0v7 M-2.5,-0.5L0,-3.0L2.5,-0.5"/>
                </g>
                <g id="arrowDown" xlink:href="#dirArrow" transform="rotate(180) translate(-30 -48)" onmousedown="handlePan(0,1)">
                  <use xlink:href="#rim" fill="#404040">
                        <set attributeName="fill" to="#808080" begin="arrowDown.mouseover" end="arrowDown.mouseout"/>
                  </use>
                  <path fill="none" stroke="white" stroke-width="1.5" d="M0,-3.0v7 M-2.5,-0.5L0,-3.0L2.5,-0.5"/>
                </g>
                <g id="arrowLeft" xlink:href="#dirArrow" transform="rotate(270) translate(-36 17)" onmousedown="handlePan(-1,0)">
                  <use xlink:href="#rim" fill="#404040">
                        <set attributeName="fill" to="#808080" begin="arrowLeft.mouseover" end="arrowLeft.mouseout"/>
                  </use>
                  <path fill="none" stroke="white" stroke-width="1.5" d="M0,-3.0v7 M-2.5,-0.5L0,-3.0L2.5,-0.5"/>
                </g>
        </g>
        <svg viewBox="0 0 15 15" width="100%" height="30px" preserveAspectRatio="xMaxYMin meet">
         <g id="arrow_out" transform="scale(0.3 0.3)">
          <a xlink:href="classLayeredExtremumMaterialProperty__inherit__graph_org.svg" target="_base">
           <rect id="button" ry="5" rx="5" y="6" x="6" height="38" width="38"
                fill="#f2f5e9" fill-opacity="0.5" stroke="#606060" stroke-width="1.0"/>
           <path id="arrow"
             d="M 11.500037,31.436501 C 11.940474,20.09759 22.043105,11.32322 32.158766,21.979434 L 37.068811,17.246167 C 37.068811,17.246167 37.088388,32 37.088388,32 L 22.160133,31.978069 C 22.160133,31.978069 26.997745,27.140456 26.997745,27.140456 C 18.528582,18.264221 13.291696,25.230495 11.500037,31.436501 z"
             style="fill:#404040;"/>
          </a>
         </g>
        </svg>
</svg>
