<?xml version="1.0" encoding="UTF-8" standalone="no"?>
<!DOCTYPE svg PUBLIC "-//W3C//DTD SVG 1.1//EN"
 "http://www.w3.org/Graphics/SVG/1.1/DTD/svg11.dtd">
<!-- Generated by graphviz version 7.0.5 (20221223.1930)
 -->
<!-- Title: FaceArgProducerInterface Pages: 1 -->
<!--zoomable 912 -->
<svg id="main" version="1.1" xmlns="http://www.w3.org/2000/svg" xmlns:xlink="http://www.w3.org/1999/xlink" xml:space="preserve" onload="init(evt)">
<style type="text/css"><![CDATA[
.edge:hover path { stroke: red; }
.edge:hover polygon { stroke: red; fill: red; }
]]></style>
<script type="text/javascript"><![CDATA[
var edges = document.getElementsByTagName('g');
if (edges && edges.length) {
  for (var i=0;i<edges.length;i++) {
    if (edges[i].id.substr(0,4)=='edge') {
      edges[i].setAttribute('class','edge');
    }
  }
}
]]></script>
        <defs>
                <circle id="rim" cx="0" cy="0" r="7"/>
                <circle id="rim2" cx="0" cy="0" r="3.5"/>
                <g id="zoomPlus">
                        <use xlink:href="#rim" fill="#404040">
                                <set attributeName="fill" to="#808080" begin="zoomplus.mouseover" end="zoomplus.mouseout"/>
                        </use>
                        <path d="M-4,0h8M0,-4v8" fill="none" stroke="white" stroke-width="1.5" pointer-events="none"/>
                </g>
                <g id="zoomMin">
                        <use xlink:href="#rim" fill="#404040">
                                <set attributeName="fill" to="#808080" begin="zoomminus.mouseover" end="zoomminus.mouseout"/>
                        </use>
                        <path d="M-4,0h8" fill="none" stroke="white" stroke-width="1.5" pointer-events="none"/>
                </g>
                <g id="dirArrow">
                        <path fill="none" stroke="white" stroke-width="1.5" d="M0,-3.0v7 M-2.5,-0.5L0,-3.0L2.5,-0.5"/>
                </g>
               <g id="resetDef">
                       <use xlink:href="#rim2" fill="#404040">
                               <set attributeName="fill" to="#808080" begin="reset.mouseover" end="reset.mouseout"/>
                       </use>
               </g>
        </defs>

<script type="text/javascript">
var viewWidth = 1256;
var viewHeight = 912;
var sectionId = 'dynsection-0';
</script>
<script xlink:href="svgpan.js"/>
<svg id="graph" class="graph">
<g id="viewport">
<title>FaceArgProducerInterface</title>
<!-- Node1 -->
<g id="node1" class="node">
<title>Node1</title>
<g id="a_node1"><a xlink:title="An interface for producers of functor face arguments, e.g.">
<polygon fill="#999999" stroke="#666666" points="310,-286 149,-286 149,-267 310,-267 310,-286"/>
<text text-anchor="middle" x="229.5" y="-274" font-family="Courier,monospace" font-size="10.00">FaceArgProducerInterface</text>
</a>
</g>
</g>
<!-- Node3 -->
<g id="node3" class="node">
<title>Node3</title>
<g id="a_node3"><a xlink:href="classFVBoundaryCondition.html" target="_top" xlink:title="Base class for creating new types of boundary conditions.">
<polygon fill="white" stroke="#666666" points="519,-658 388,-658 388,-639 519,-639 519,-658"/>
<text text-anchor="middle" x="453.5" y="-646" font-family="Courier,monospace" font-size="10.00">FVBoundaryCondition</text>
</a>
</g>
</g>
<!-- Node1&#45;&gt;Node3 -->
<g id="edge2" class="edge">
<title>Node1&#45;&gt;Node3</title>
<path fill="none" stroke="#63b8ff" d="M238.2,-296.89C254.82,-339.8 296.58,-441.87 346,-519.5 376.73,-567.76 423.23,-618.14 443.03,-638.79"/>
<polygon fill="#63b8ff" stroke="#63b8ff" points="241.49,-295.71 234.65,-287.62 234.96,-298.21 241.49,-295.71"/>
</g>
<!-- Node17 -->
<g id="node17" class="node">
<title>Node17</title>
<g id="a_node17"><a xlink:href="classFVFluxKernel.html" target="_top" xlink:title="FVFluxKernel is used for calculating residual contributions from numerical fluxes from surface integr...">
<polygon fill="white" stroke="#666666" points="498,-510 409,-510 409,-491 498,-491 498,-510"/>
<text text-anchor="middle" x="453.5" y="-498" font-family="Courier,monospace" font-size="10.00">FVFluxKernel</text>
</a>
</g>
</g>
<!-- Node1&#45;&gt;Node17 -->
<g id="edge16" class="edge">
<title>Node1&#45;&gt;Node17</title>
<path fill="none" stroke="#63b8ff" d="M248.25,-294.41C292.86,-339.42 408.51,-456.11 442.79,-490.7"/>
<polygon fill="#63b8ff" stroke="#63b8ff" points="250.92,-292.13 241.39,-287.49 245.94,-297.06 250.92,-292.13"/>
</g>
<!-- Node24 -->
<g id="node24" class="node">
<title>Node24</title>
<g id="a_node24"><a xlink:href="classFVInterfaceKernel.html" target="_top" xlink:title="Base class for creating kernels that interface physics between subdomains.">
<polygon fill="white" stroke="#666666" points="513,-340 394,-340 394,-321 513,-321 513,-340"/>
<text text-anchor="middle" x="453.5" y="-328" font-family="Courier,monospace" font-size="10.00">FVInterfaceKernel</text>
</a>
</g>
</g>
<!-- Node1&#45;&gt;Node24 -->
<g id="edge23" class="edge">
<title>Node1&#45;&gt;Node24</title>
<path fill="none" stroke="#63b8ff" d="M282.46,-289.14C321.91,-298.73 375.38,-311.74 411.76,-320.59"/>
<polygon fill="#63b8ff" stroke="#63b8ff" points="283.49,-285.79 272.95,-286.83 281.84,-292.59 283.49,-285.79"/>
</g>
<!-- Node29 -->
<g id="node29" class="node">
<title>Node29</title>
<g id="a_node29"><a xlink:href="classInterfaceIntegralVariableValuePostprocessor.html" target="_top" xlink:title="This postprocessor computes a weighted (by area) integral of the specified variable.">
<polygon fill="white" stroke="#666666" points="537,-291.5 370,-291.5 370,-261.5 537,-261.5 537,-291.5"/>
<text text-anchor="start" x="378" y="-279.5" font-family="Courier,monospace" font-size="10.00">InterfaceIntegralVariable</text>
<text text-anchor="middle" x="453.5" y="-268.5" font-family="Courier,monospace" font-size="10.00">ValuePostprocessor</text>
</a>
</g>
</g>
<!-- Node1&#45;&gt;Node29 -->
<g id="edge28" class="edge">
<title>Node1&#45;&gt;Node29</title>
<path fill="none" stroke="#63b8ff" d="M321.76,-276.5C337.61,-276.5 354.02,-276.5 369.64,-276.5"/>
<polygon fill="#63b8ff" stroke="#63b8ff" points="321.85,-273 311.85,-276.5 321.85,-280 321.85,-273"/>
</g>
<!-- Node31 -->
<g id="node31" class="node">
<title>Node31</title>
<g id="a_node31"><a xlink:href="classInternalSideIntegralVariablePostprocessor.html" target="_top" xlink:title="This postprocessor computes an integral on internal mesh sides of the specified variable.">
<polygon fill="white" stroke="#666666" points="546,-243.5 361,-243.5 361,-213.5 546,-213.5 546,-243.5"/>
<text text-anchor="start" x="369" y="-231.5" font-family="Courier,monospace" font-size="10.00">InternalSideIntegralVariable</text>
<text text-anchor="middle" x="453.5" y="-220.5" font-family="Courier,monospace" font-size="10.00">Postprocessor</text>
</a>
</g>
</g>
<!-- Node1&#45;&gt;Node31 -->
<g id="edge30" class="edge">
<title>Node1&#45;&gt;Node31</title>
<path fill="none" stroke="#63b8ff" d="M287.51,-264.17C316.06,-258 350.9,-250.47 381.2,-243.92"/>
<polygon fill="#63b8ff" stroke="#63b8ff" points="287.01,-260.7 277.98,-266.23 288.49,-267.54 287.01,-260.7"/>
</g>
<!-- Node33 -->
<g id="node33" class="node">
<title>Node33</title>
<g id="a_node33"><a xlink:href="classSideIntegralFunctorPostprocessorTempl.html" target="_top" xlink:title="This postprocessor computes a surface integral of the specified functor.">
<polygon fill="white" stroke="#666666" points="558,-195.5 349,-195.5 349,-165.5 558,-165.5 558,-195.5"/>
<text text-anchor="start" x="357" y="-183.5" font-family="Courier,monospace" font-size="10.00">SideIntegralFunctorPostprocessor</text>
<text text-anchor="middle" x="453.5" y="-172.5" font-family="Courier,monospace" font-size="10.00">Templ&lt; is_ad &gt;</text>
</a>
</g>
</g>
<!-- Node1&#45;&gt;Node33 -->
<g id="edge32" class="edge">
<title>Node1&#45;&gt;Node33</title>
<path fill="none" stroke="#63b8ff" d="M252.17,-259.86C274.52,-243.48 310.96,-218.88 346,-204.5 353.89,-201.26 362.3,-198.42 370.8,-195.93"/>
<polygon fill="#63b8ff" stroke="#63b8ff" points="250.36,-256.85 244.44,-265.63 254.55,-262.46 250.36,-256.85"/>
</g>
<!-- Node34 -->
<g id="node34" class="node">
<title>Node34</title>
<g id="a_node34"><a xlink:href="classSideIntegralVariablePostprocessor.html" target="_top" xlink:title="This postprocessor computes a surface integral of the specified variable.">
<polygon fill="white" stroke="#666666" points="561,-131 346,-131 346,-112 561,-112 561,-131"/>
<text text-anchor="middle" x="453.5" y="-119" font-family="Courier,monospace" font-size="10.00">SideIntegralVariablePostprocessor</text>
</a>
</g>
</g>
<!-- Node1&#45;&gt;Node34 -->
<g id="edge33" class="edge">
<title>Node1&#45;&gt;Node34</title>
<path fill="none" stroke="#63b8ff" d="M244.18,-257.25C263.85,-230.91 302.56,-183.8 346,-156.5 364.21,-145.06 386.54,-136.97 406.04,-131.48"/>
<polygon fill="#63b8ff" stroke="#63b8ff" points="241.35,-255.18 238.28,-265.32 247.01,-259.31 241.35,-255.18"/>
</g>
<!-- Node2 -->
<g id="node2" class="node">
<title>Node2</title>
<g id="a_node2"><a xlink:href="classFaceArgInterface.html" target="_top" xlink:title="A base class interface for both producers and consumers of functor face arguments,...">
<polygon fill="white" stroke="#666666" points="113,-286 0,-286 0,-267 113,-267 113,-286"/>
<text text-anchor="middle" x="56.5" y="-274" font-family="Courier,monospace" font-size="10.00">FaceArgInterface</text>
</a>
</g>
</g>
<!-- Node2&#45;&gt;Node1 -->
<g id="edge1" class="edge">
<title>Node2&#45;&gt;Node1</title>
<path fill="none" stroke="#63b8ff" d="M124.83,-276.5C132.7,-276.5 140.79,-276.5 148.8,-276.5"/>
<polygon fill="#63b8ff" stroke="#63b8ff" points="125.01,-273 115.01,-276.5 125.01,-280 125.01,-273"/>
</g>
<!-- Node4 -->
<g id="node4" class="node">
<title>Node4</title>
<g id="a_node4"><a xlink:href="classFVDirichletBCBase.html" target="_top" xlink:title="Base class for finite volume Dirichlet boundaray conditions.">
<polygon fill="white" stroke="#666666" points="743,-824 624,-824 624,-805 743,-805 743,-824"/>
<text text-anchor="middle" x="683.5" y="-812" font-family="Courier,monospace" font-size="10.00">FVDirichletBCBase</text>
</a>
</g>
</g>
<!-- Node3&#45;&gt;Node4 -->
<g id="edge3" class="edge">
<title>Node3&#45;&gt;Node4</title>
<path fill="none" stroke="#63b8ff" d="M477.16,-665C524.21,-699.25 631.22,-777.16 668.99,-804.66"/>
<polygon fill="#63b8ff" stroke="#63b8ff" points="479.45,-662.33 469.3,-659.28 475.33,-667.99 479.45,-662.33"/>
</g>
<!-- Node9 -->
<g id="node9" class="node">
<title>Node9</title>
<g id="a_node9"><a xlink:href="classFVFluxBC.html" target="_top" xlink:title="Provides an interface for computing residual contributions from finite volume numerical fluxes comput...">
<polygon fill="white" stroke="#666666" points="716,-658 651,-658 651,-639 716,-639 716,-658"/>
<text text-anchor="middle" x="683.5" y="-646" font-family="Courier,monospace" font-size="10.00">FVFluxBC</text>
</a>
</g>
</g>
<!-- Node3&#45;&gt;Node9 -->
<g id="edge8" class="edge">
<title>Node3&#45;&gt;Node9</title>
<path fill="none" stroke="#63b8ff" d="M530.53,-648.5C571.35,-648.5 619.52,-648.5 650.5,-648.5"/>
<polygon fill="#63b8ff" stroke="#63b8ff" points="530.74,-645 520.74,-648.5 530.74,-652 530.74,-645"/>
</g>
<!-- Node5 -->
<g id="node5" class="node">
<title>Node5</title>
<g id="a_node5"><a xlink:href="classFVDirichletBC.html" target="_top" xlink:title="Base class for finite volume Dirichlet boundary conditions.">
<polygon fill="white" stroke="#666666" points="949,-904 854,-904 854,-885 949,-885 949,-904"/>
<text text-anchor="middle" x="901.5" y="-892" font-family="Courier,monospace" font-size="10.00">FVDirichletBC</text>
</a>
</g>
</g>
<!-- Node4&#45;&gt;Node5 -->
<g id="edge4" class="edge">
<title>Node4&#45;&gt;Node5</title>
<path fill="none" stroke="#63b8ff" d="M710.07,-830.27C734.03,-844.37 771.26,-864.6 806,-876.5 821.17,-881.7 838.25,-885.53 853.68,-888.28"/>
<polygon fill="#63b8ff" stroke="#63b8ff" points="712.04,-827.36 701.66,-825.23 708.44,-833.37 712.04,-827.36"/>
</g>
<!-- Node6 -->
<g id="node6" class="node">
<title>Node6</title>
<g id="a_node6"><a xlink:href="classFVFunctionDirichletBC.html" target="_top" xlink:title="Applies a Dirichlet boundary condition with a value prescribed by a function.">
<polygon fill="white" stroke="#666666" points="973,-867 830,-867 830,-848 973,-848 973,-867"/>
<text text-anchor="middle" x="901.5" y="-855" font-family="Courier,monospace" font-size="10.00">FVFunctionDirichletBC</text>
</a>
</g>
</g>
<!-- Node4&#45;&gt;Node6 -->
<g id="edge5" class="edge">
<title>Node4&#45;&gt;Node6</title>
<path fill="none" stroke="#63b8ff" d="M745.52,-826.65C778.62,-833.24 819.04,-841.28 850.3,-847.51"/>
<polygon fill="#63b8ff" stroke="#63b8ff" points="746.57,-823.29 736.08,-824.77 745.21,-830.15 746.57,-823.29"/>
</g>
<!-- Node7 -->
<g id="node7" class="node">
<title>Node7</title>
<g id="a_node7"><a xlink:href="classFVFunctorDirichletBCTempl.html" target="_top" xlink:title=" ">
<polygon fill="white" stroke="#666666" points="985,-829.5 818,-829.5 818,-799.5 985,-799.5 985,-829.5"/>
<text text-anchor="start" x="826" y="-817.5" font-family="Courier,monospace" font-size="10.00">FVFunctorDirichletBCTempl</text>
<text text-anchor="middle" x="901.5" y="-806.5" font-family="Courier,monospace" font-size="10.00">&lt; is_ad &gt;</text>
</a>
</g>
</g>
<!-- Node4&#45;&gt;Node7 -->
<g id="edge6" class="edge">
<title>Node4&#45;&gt;Node7</title>
<path fill="none" stroke="#63b8ff" d="M754.55,-814.5C774.75,-814.5 796.98,-814.5 817.87,-814.5"/>
<polygon fill="#63b8ff" stroke="#63b8ff" points="754.75,-811 744.75,-814.5 754.75,-818 754.75,-811"/>
</g>
<!-- Node8 -->
<g id="node8" class="node">
<title>Node8</title>
<g id="a_node8"><a xlink:href="classFVPostprocessorDirichletBC.html" target="_top" xlink:title=" ">
<polygon fill="white" stroke="#666666" points="988,-781 815,-781 815,-762 988,-762 988,-781"/>
<text text-anchor="middle" x="901.5" y="-769" font-family="Courier,monospace" font-size="10.00">FVPostprocessorDirichletBC</text>
</a>
</g>
</g>
<!-- Node4&#45;&gt;Node8 -->
<g id="edge7" class="edge">
<title>Node4&#45;&gt;Node8</title>
<path fill="none" stroke="#63b8ff" d="M745.52,-802.35C778.62,-795.76 819.04,-787.72 850.3,-781.49"/>
<polygon fill="#63b8ff" stroke="#63b8ff" points="745.21,-798.85 736.08,-804.23 746.57,-805.71 745.21,-798.85"/>
</g>
<!-- Node10 -->
<g id="node10" class="node">
<title>Node10</title>
<g id="a_node10"><a xlink:href="classFVBoundaryScalarLagrangeMultiplierConstraint.html" target="_top" xlink:title="Base class for implementing constraints on boundaries for finite volume variables using scalar Lagran...">
<polygon fill="white" stroke="#666666" points="982,-743.5 821,-743.5 821,-713.5 982,-713.5 982,-743.5"/>
<text text-anchor="start" x="829" y="-731.5" font-family="Courier,monospace" font-size="10.00">FVBoundaryScalarLagrange</text>
<text text-anchor="middle" x="901.5" y="-720.5" font-family="Courier,monospace" font-size="10.00">MultiplierConstraint</text>
</a>
</g>
</g>
<!-- Node9&#45;&gt;Node10 -->
<g id="edge9" class="edge">
<title>Node9&#45;&gt;Node10</title>
<path fill="none" stroke="#63b8ff" d="M712.93,-663.41C737.17,-675.68 773.2,-692.88 806,-704.5 814.7,-707.58 823.97,-710.43 833.19,-713.02"/>
<polygon fill="#63b8ff" stroke="#63b8ff" points="714.84,-660.46 704.34,-659.01 711.65,-666.69 714.84,-660.46"/>
</g>
<!-- Node12 -->
<g id="node12" class="node">
<title>Node12</title>
<g id="a_node12"><a xlink:href="classFVConstantScalarOutflowBC.html" target="_top" xlink:title="Constant velocity scalar advection boundary conditions.">
<polygon fill="white" stroke="#666666" points="985,-695 818,-695 818,-676 985,-676 985,-695"/>
<text text-anchor="middle" x="901.5" y="-683" font-family="Courier,monospace" font-size="10.00">FVConstantScalarOutflowBC</text>
</a>
</g>
</g>
<!-- Node9&#45;&gt;Node12 -->
<g id="edge11" class="edge">
<title>Node9&#45;&gt;Node12</title>
<path fill="none" stroke="#63b8ff" d="M727.45,-655.86C760.4,-661.5 806.23,-669.35 842.45,-675.56"/>
<polygon fill="#63b8ff" stroke="#63b8ff" points="728.31,-652.45 717.86,-654.22 727.13,-659.35 728.31,-652.45"/>
</g>
<!-- Node13 -->
<g id="node13" class="node">
<title>Node13</title>
<g id="a_node13"><a xlink:href="classFVFunctionNeumannBC.html" target="_top" xlink:title="Neumann boundary (== fixed inflow) condition for finite volume scheme.">
<polygon fill="white" stroke="#666666" points="967,-658 836,-658 836,-639 967,-639 967,-658"/>
<text text-anchor="middle" x="901.5" y="-646" font-family="Courier,monospace" font-size="10.00">FVFunctionNeumannBC</text>
</a>
</g>
</g>
<!-- Node9&#45;&gt;Node13 -->
<g id="edge12" class="edge">
<title>Node9&#45;&gt;Node13</title>
<path fill="none" stroke="#63b8ff" d="M727.65,-648.5C758.63,-648.5 800.9,-648.5 835.89,-648.5"/>
<polygon fill="#63b8ff" stroke="#63b8ff" points="727.89,-645 717.89,-648.5 727.89,-652 727.89,-645"/>
</g>
<!-- Node14 -->
<g id="node14" class="node">
<title>Node14</title>
<g id="a_node14"><a xlink:href="classFVFunctorNeumannBC.html" target="_top" xlink:title="Neumann boundary (== inflow) condition for finite volume scheme where the inflow is given as a functo...">
<polygon fill="white" stroke="#666666" points="964,-621 839,-621 839,-602 964,-602 964,-621"/>
<text text-anchor="middle" x="901.5" y="-609" font-family="Courier,monospace" font-size="10.00">FVFunctorNeumannBC</text>
</a>
</g>
</g>
<!-- Node9&#45;&gt;Node14 -->
<g id="edge13" class="edge">
<title>Node9&#45;&gt;Node14</title>
<path fill="none" stroke="#63b8ff" d="M727.45,-641.14C760.4,-635.5 806.23,-627.65 842.45,-621.44"/>
<polygon fill="#63b8ff" stroke="#63b8ff" points="727.13,-637.65 717.86,-642.78 728.31,-644.55 727.13,-637.65"/>
</g>
<!-- Node15 -->
<g id="node15" class="node">
<title>Node15</title>
<g id="a_node15"><a xlink:href="classFVNeumannBC.html" target="_top" xlink:title="Neumann boundary (== fixed inflow) condition for finite volume scheme.">
<polygon fill="white" stroke="#666666" points="943,-584 860,-584 860,-565 943,-565 943,-584"/>
<text text-anchor="middle" x="901.5" y="-572" font-family="Courier,monospace" font-size="10.00">FVNeumannBC</text>
</a>
</g>
</g>
<!-- Node9&#45;&gt;Node15 -->
<g id="edge14" class="edge">
<title>Node9&#45;&gt;Node15</title>
<path fill="none" stroke="#63b8ff" d="M727.19,-644.58C741.45,-641.97 757,-637.66 770,-630.5 790.1,-619.43 785.85,-604.47 806,-593.5 822.31,-584.61 842.25,-579.86 859.59,-577.33"/>
<polygon fill="#63b8ff" stroke="#63b8ff" points="726.94,-641.07 717.61,-646.08 728.03,-647.99 726.94,-641.07"/>
</g>
<!-- Node16 -->
<g id="node16" class="node">
<title>Node16</title>
<g id="a_node16"><a xlink:href="classFVOrthogonalBoundaryDiffusion.html" target="_top" xlink:title="This class computes a boundary diffusion flux by taking the difference between a provided boundary va...">
<polygon fill="white" stroke="#666666" points="997,-547 806,-547 806,-528 997,-528 997,-547"/>
<text text-anchor="middle" x="901.5" y="-535" font-family="Courier,monospace" font-size="10.00">FVOrthogonalBoundaryDiffusion</text>
</a>
</g>
</g>
<!-- Node9&#45;&gt;Node16 -->
<g id="edge15" class="edge">
<title>Node9&#45;&gt;Node16</title>
<path fill="none" stroke="#63b8ff" d="M727.2,-647.08C742,-644.74 757.9,-639.95 770,-630.5 798.83,-608 777.07,-578.87 806,-556.5 810.77,-552.81 816.06,-549.79 821.64,-547.31"/>
<polygon fill="#63b8ff" stroke="#63b8ff" points="727.19,-643.55 717.68,-648.24 728.04,-650.5 727.19,-643.55"/>
</g>
<!-- Node11 -->
<g id="node11" class="node">
<title>Node11</title>
<g id="a_node11"><a xlink:href="classFVBoundaryIntegralValueConstraint.html" target="_top" xlink:title="This boundary object implements the residuals that enforce the constraint on the boundary.">
<polygon fill="white" stroke="#666666" points="1248,-738 1033,-738 1033,-719 1248,-719 1248,-738"/>
<text text-anchor="middle" x="1140.5" y="-726" font-family="Courier,monospace" font-size="10.00">FVBoundaryIntegralValueConstraint</text>
</a>
</g>
</g>
<!-- Node10&#45;&gt;Node11 -->
<g id="edge10" class="edge">
<title>Node10&#45;&gt;Node11</title>
<path fill="none" stroke="#63b8ff" d="M993.9,-728.5C1006.58,-728.5 1019.69,-728.5 1032.61,-728.5"/>
<polygon fill="#63b8ff" stroke="#63b8ff" points="993.92,-725 983.92,-728.5 993.92,-732 993.92,-725"/>
</g>
<!-- Node18 -->
<g id="node18" class="node">
<title>Node18</title>
<g id="a_node18"><a xlink:href="classFVAdvection.html" target="_top" xlink:title=" ">
<polygon fill="white" stroke="#666666" points="725,-621 642,-621 642,-602 725,-602 725,-621"/>
<text text-anchor="middle" x="683.5" y="-609" font-family="Courier,monospace" font-size="10.00">FVAdvection</text>
</a>
</g>
</g>
<!-- Node17&#45;&gt;Node18 -->
<g id="edge17" class="edge">
<title>Node17&#45;&gt;Node18</title>
<path fill="none" stroke="#63b8ff" d="M474.94,-517.4C501.43,-538.43 549.85,-573.96 597,-593.5 611.01,-599.31 627.13,-603.32 641.56,-606.06"/>
<polygon fill="#63b8ff" stroke="#63b8ff" points="477.37,-514.86 467.39,-511.31 472.98,-520.31 477.37,-514.86"/>
</g>
<!-- Node19 -->
<g id="node19" class="node">
<title>Node19</title>
<g id="a_node19"><a xlink:href="classFVAnisotropicDiffusion.html" target="_top" xlink:title="FVAnisotropicDiffusion implements a standard diffusion term but with a diagonal tensor diffusion coef...">
<polygon fill="white" stroke="#666666" points="758,-584 609,-584 609,-565 758,-565 758,-584"/>
<text text-anchor="middle" x="683.5" y="-572" font-family="Courier,monospace" font-size="10.00">FVAnisotropicDiffusion</text>
</a>
</g>
</g>
<!-- Node17&#45;&gt;Node19 -->
<g id="edge18" class="edge">
<title>Node17&#45;&gt;Node19</title>
<path fill="none" stroke="#63b8ff" d="M486.49,-514.85C515.02,-527.22 558.16,-544.87 597,-556.5 607.03,-559.5 617.86,-562.19 628.34,-564.52"/>
<polygon fill="#63b8ff" stroke="#63b8ff" points="488.26,-511.81 477.7,-511 485.45,-518.22 488.26,-511.81"/>
</g>
<!-- Node20 -->
<g id="node20" class="node">
<title>Node20</title>
<g id="a_node20"><a xlink:href="classFVDiffusion.html" target="_top" xlink:title="FVDiffusion implements a standard diffusion term:">
<polygon fill="white" stroke="#666666" points="725,-547 642,-547 642,-528 725,-528 725,-547"/>
<text text-anchor="middle" x="683.5" y="-535" font-family="Courier,monospace" font-size="10.00">FVDiffusion</text>
</a>
</g>
</g>
<!-- Node17&#45;&gt;Node20 -->
<g id="edge19" class="edge">
<title>Node17&#45;&gt;Node20</title>
<path fill="none" stroke="#63b8ff" d="M509.82,-509.48C550.52,-516.08 604.95,-524.92 641.74,-530.89"/>
<polygon fill="#63b8ff" stroke="#63b8ff" points="510.39,-506.02 499.95,-507.88 509.26,-512.93 510.39,-506.02"/>
</g>
<!-- Node21 -->
<g id="node21" class="node">
<title>Node21</title>
<g id="a_node21"><a xlink:href="classFVDivergence.html" target="_top" xlink:title="FVDivergence implements a standard divergence term:">
<polygon fill="white" stroke="#666666" points="728,-510 639,-510 639,-491 728,-491 728,-510"/>
<text text-anchor="middle" x="683.5" y="-498" font-family="Courier,monospace" font-size="10.00">FVDivergence</text>
</a>
</g>
</g>
<!-- Node17&#45;&gt;Node21 -->
<g id="edge20" class="edge">
<title>Node17&#45;&gt;Node21</title>
<path fill="none" stroke="#63b8ff" d="M509.78,-500.5C549.37,-500.5 601.97,-500.5 638.67,-500.5"/>
<polygon fill="#63b8ff" stroke="#63b8ff" points="509.97,-497 499.97,-500.5 509.97,-504 509.97,-497"/>
</g>
<!-- Node22 -->
<g id="node22" class="node">
<title>Node22</title>
<g id="a_node22"><a xlink:href="classFVMatAdvection.html" target="_top" xlink:title=" ">
<polygon fill="white" stroke="#666666" points="734,-473 633,-473 633,-454 734,-454 734,-473"/>
<text text-anchor="middle" x="683.5" y="-461" font-family="Courier,monospace" font-size="10.00">FVMatAdvection</text>
</a>
</g>
</g>
<!-- Node17&#45;&gt;Node22 -->
<g id="edge21" class="edge">
<title>Node17&#45;&gt;Node22</title>
<path fill="none" stroke="#63b8ff" d="M509.7,-491.54C547.21,-485.45 596.42,-477.47 632.73,-471.58"/>
<polygon fill="#63b8ff" stroke="#63b8ff" points="509.26,-488.07 499.95,-493.12 510.39,-494.98 509.26,-488.07"/>
</g>
<!-- Node23 -->
<g id="node23" class="node">
<title>Node23</title>
<g id="a_node23"><a xlink:href="classFVOrthogonalDiffusion.html" target="_top" xlink:title="This class computes the intercell diffusion flux by taking the difference between neighboring cell ce...">
<polygon fill="white" stroke="#666666" points="755,-436 612,-436 612,-417 755,-417 755,-436"/>
<text text-anchor="middle" x="683.5" y="-424" font-family="Courier,monospace" font-size="10.00">FVOrthogonalDiffusion</text>
</a>
</g>
</g>
<!-- Node17&#45;&gt;Node23 -->
<g id="edge22" class="edge">
<title>Node17&#45;&gt;Node23</title>
<path fill="none" stroke="#63b8ff" d="M487.43,-486.17C516,-474.13 558.68,-457.08 597,-445.5 608.21,-442.11 620.41,-439.04 631.99,-436.41"/>
<polygon fill="#63b8ff" stroke="#63b8ff" points="486.07,-482.95 478.23,-490.08 488.81,-489.39 486.07,-482.95"/>
</g>
<!-- Node25 -->
<g id="node25" class="node">
<title>Node25</title>
<g id="a_node25"><a xlink:href="classFVDiffusionInterface.html" target="_top" xlink:title=" ">
<polygon fill="white" stroke="#666666" points="752,-399 615,-399 615,-380 752,-380 752,-399"/>
<text text-anchor="middle" x="683.5" y="-387" font-family="Courier,monospace" font-size="10.00">FVDiffusionInterface</text>
</a>
</g>
</g>
<!-- Node24&#45;&gt;Node25 -->
<g id="edge24" class="edge">
<title>Node24&#45;&gt;Node25</title>
<path fill="none" stroke="#63b8ff" d="M499.08,-343.69C527.09,-351.81 564.04,-362.22 597,-370.5 609.39,-373.61 622.85,-376.73 635.35,-379.51"/>
<polygon fill="#63b8ff" stroke="#63b8ff" points="500.08,-340.34 489.5,-340.9 498.12,-347.06 500.08,-340.34"/>
</g>
<!-- Node26 -->
<g id="node26" class="node">
<title>Node26</title>
<g id="a_node26"><a xlink:href="classFVOneVarDiffusionInterface.html" target="_top" xlink:title=" ">
<polygon fill="white" stroke="#666666" points="770,-362 597,-362 597,-343 770,-343 770,-362"/>
<text text-anchor="middle" x="683.5" y="-350" font-family="Courier,monospace" font-size="10.00">FVOneVarDiffusionInterface</text>
</a>
</g>
</g>
<!-- Node24&#45;&gt;Node26 -->
<g id="edge25" class="edge">
<title>Node24&#45;&gt;Node26</title>
<path fill="none" stroke="#63b8ff" d="M524.54,-337.26C547.39,-339.46 573.03,-341.94 596.9,-344.24"/>
<polygon fill="#63b8ff" stroke="#63b8ff" points="525.01,-333.79 514.72,-336.31 524.34,-340.76 525.01,-333.79"/>
</g>
<!-- Node27 -->
<g id="node27" class="node">
<title>Node27</title>
<g id="a_node27"><a xlink:href="classFVScalarLagrangeMultiplierInterface.html" target="_top" xlink:title=" ">
<polygon fill="white" stroke="#666666" points="770,-324.5 597,-324.5 597,-294.5 770,-294.5 770,-324.5"/>
<text text-anchor="start" x="605" y="-312.5" font-family="Courier,monospace" font-size="10.00">FVScalarLagrangeMultiplier</text>
<text text-anchor="middle" x="683.5" y="-301.5" font-family="Courier,monospace" font-size="10.00">Interface</text>
</a>
</g>
</g>
<!-- Node24&#45;&gt;Node27 -->
<g id="edge26" class="edge">
<title>Node24&#45;&gt;Node27</title>
<path fill="none" stroke="#63b8ff" d="M524.54,-324.05C547.39,-321.94 573.03,-319.58 596.9,-317.38"/>
<polygon fill="#63b8ff" stroke="#63b8ff" points="524.36,-320.55 514.72,-324.95 525,-327.52 524.36,-320.55"/>
</g>
<!-- Node28 -->
<g id="node28" class="node">
<title>Node28</title>
<g id="a_node28"><a xlink:href="classFVTwoVarContinuityConstraint.html" target="_top" xlink:title=" ">
<polygon fill="white" stroke="#666666" points="994,-319 809,-319 809,-300 994,-300 994,-319"/>
<text text-anchor="middle" x="901.5" y="-307" font-family="Courier,monospace" font-size="10.00">FVTwoVarContinuityConstraint</text>
</a>
</g>
</g>
<!-- Node27&#45;&gt;Node28 -->
<g id="edge27" class="edge">
<title>Node27&#45;&gt;Node28</title>
<path fill="none" stroke="#63b8ff" d="M781.79,-309.5C790.77,-309.5 799.85,-309.5 808.78,-309.5"/>
<polygon fill="#63b8ff" stroke="#63b8ff" points="782,-306 772,-309.5 782,-313 782,-306"/>
</g>
<!-- Node30 -->
<g id="node30" class="node">
<title>Node30</title>
<g id="a_node30"><a xlink:href="classInterfaceAverageVariableValuePostprocessor.html" target="_top" xlink:title="This postprocessor computes a spatial average value of the specified variable value on the interface.">
<polygon fill="white" stroke="#666666" points="764,-276.5 603,-276.5 603,-246.5 764,-246.5 764,-276.5"/>
<text text-anchor="start" x="611" y="-264.5" font-family="Courier,monospace" font-size="10.00">InterfaceAverageVariable</text>
<text text-anchor="middle" x="683.5" y="-253.5" font-family="Courier,monospace" font-size="10.00">ValuePostprocessor</text>
</a>
</g>
</g>
<!-- Node29&#45;&gt;Node30 -->
<g id="edge29" class="edge">
<title>Node29&#45;&gt;Node30</title>
<path fill="none" stroke="#63b8ff" d="M548.8,-270.3C566.69,-269.12 585.25,-267.9 602.65,-266.75"/>
<polygon fill="#63b8ff" stroke="#63b8ff" points="548.72,-266.79 538.97,-270.94 549.18,-273.78 548.72,-266.79"/>
</g>
<!-- Node32 -->
<g id="node32" class="node">
<title>Node32</title>
<g id="a_node32"><a xlink:href="classElementSidesL2Norm.html" target="_top" xlink:title="This postprocessor computes the L2 norm of a variable over element sides.">
<polygon fill="white" stroke="#666666" points="746,-228 621,-228 621,-209 746,-209 746,-228"/>
<text text-anchor="middle" x="683.5" y="-216" font-family="Courier,monospace" font-size="10.00">ElementSidesL2Norm</text>
</a>
</g>
</g>
<!-- Node31&#45;&gt;Node32 -->
<g id="edge31" class="edge">
<title>Node31&#45;&gt;Node32</title>
<path fill="none" stroke="#63b8ff" d="M557.46,-223.98C579.03,-223.04 601.13,-222.07 620.63,-221.21"/>
<polygon fill="#63b8ff" stroke="#63b8ff" points="557.6,-220.47 547.76,-224.41 557.91,-227.47 557.6,-220.47"/>
</g>
<!-- Node35 -->
<g id="node35" class="node">
<title>Node35</title>
<g id="a_node35"><a xlink:href="classSideDiffusiveFluxIntegralTempl.html" target="_top" xlink:title=" ">
<polygon fill="white" stroke="#666666" points="767,-190.5 600,-190.5 600,-160.5 767,-160.5 767,-190.5"/>
<text text-anchor="start" x="608" y="-178.5" font-family="Courier,monospace" font-size="10.00">SideDiffusiveFluxIntegral</text>
<text text-anchor="middle" x="683.5" y="-167.5" font-family="Courier,monospace" font-size="10.00">Templ&lt; is_ad, Real &gt;</text>
</a>
</g>
</g>
<!-- Node34&#45;&gt;Node35 -->
<g id="edge34" class="edge">
<title>Node34&#45;&gt;Node35</title>
<path fill="none" stroke="#63b8ff" d="M507.74,-134.11C540.47,-141.86 582.65,-151.85 617.37,-160.07"/>
<polygon fill="#63b8ff" stroke="#63b8ff" points="508.59,-130.72 498.06,-131.82 506.98,-137.53 508.59,-130.72"/>
</g>
<!-- Node37 -->
<g id="node37" class="node">
<title>Node37</title>
<g id="a_node37"><a xlink:href="classSideAverageValue.html" target="_top" xlink:title="This postprocessor computes a volume integral of the specified variable.">
<polygon fill="white" stroke="#666666" points="740,-142 627,-142 627,-123 740,-123 740,-142"/>
<text text-anchor="middle" x="683.5" y="-130" font-family="Courier,monospace" font-size="10.00">SideAverageValue</text>
</a>
</g>
</g>
<!-- Node34&#45;&gt;Node37 -->
<g id="edge36" class="edge">
<title>Node34&#45;&gt;Node37</title>
<path fill="none" stroke="#63b8ff" d="M572.87,-127.21C591.66,-128.12 610.3,-129.02 626.72,-129.81"/>
<polygon fill="#63b8ff" stroke="#63b8ff" points="573.16,-123.72 563,-126.73 572.82,-130.71 573.16,-123.72"/>
</g>
<!-- Node39 -->
<g id="node39" class="node">
<title>Node39</title>
<g id="a_node39"><a xlink:href="classSideCurrent.html" target="_top" xlink:title="This postprocessor computes a side integral of current density.">
<polygon fill="white" stroke="#666666" points="725,-105 642,-105 642,-86 725,-86 725,-105"/>
<text text-anchor="middle" x="683.5" y="-93" font-family="Courier,monospace" font-size="10.00">SideCurrent</text>
</a>
</g>
</g>
<!-- Node34&#45;&gt;Node39 -->
<g id="edge38" class="edge">
<title>Node34&#45;&gt;Node39</title>
<path fill="none" stroke="#63b8ff" d="M553.35,-110.23C584.4,-106.69 616.98,-102.97 641.65,-100.16"/>
<polygon fill="#63b8ff" stroke="#63b8ff" points="553.04,-106.74 543.5,-111.35 553.83,-113.69 553.04,-106.74"/>
</g>
<!-- Node40 -->
<g id="node40" class="node">
<title>Node40</title>
<g id="a_node40"><a xlink:href="classSideDiffusiveFluxIntegralTempl.html" target="_top" xlink:title="This postprocessor computes a side integral of the mass flux.">
<polygon fill="white" stroke="#666666" points="767,-67.5 600,-67.5 600,-37.5 767,-37.5 767,-67.5"/>
<text text-anchor="start" x="608" y="-55.5" font-family="Courier,monospace" font-size="10.00">SideDiffusiveFluxIntegral</text>
<text text-anchor="middle" x="683.5" y="-44.5" font-family="Courier,monospace" font-size="10.00">Templ&lt; is_ad, T &gt;</text>
</a>
</g>
</g>
<!-- Node34&#45;&gt;Node40 -->
<g id="edge39" class="edge">
<title>Node34&#45;&gt;Node40</title>
<path fill="none" stroke="#63b8ff" d="M495.72,-108.1C524.12,-98.96 562.76,-86.71 597,-76.5 606.46,-73.68 616.53,-70.77 626.32,-67.99"/>
<polygon fill="#63b8ff" stroke="#63b8ff" points="494.87,-104.69 486.43,-111.09 497.02,-111.35 494.87,-104.69"/>
</g>
<!-- Node41 -->
<g id="node41" class="node">
<title>Node41</title>
<g id="a_node41"><a xlink:href="classSideTotFluxIntegral.html" target="_top" xlink:title="This postprocessor computes a side integral of the mass flux.">
<polygon fill="white" stroke="#666666" points="749,-19 618,-19 618,0 749,0 749,-19"/>
<text text-anchor="middle" x="683.5" y="-7" font-family="Courier,monospace" font-size="10.00">SideTotFluxIntegral</text>
</a>
</g>
</g>
<!-- Node34&#45;&gt;Node41 -->
<g id="edge40" class="edge">
<title>Node34&#45;&gt;Node41</title>
<path fill="none" stroke="#63b8ff" d="M474.97,-104.68C501.5,-83.74 549.96,-48.3 597,-28.5 605.69,-24.84 615.18,-21.84 624.59,-19.39"/>
<polygon fill="#63b8ff" stroke="#63b8ff" points="473.03,-101.76 467.41,-110.74 477.4,-107.22 473.03,-101.76"/>
</g>
<!-- Node36 -->
<g id="node36" class="node">
<title>Node36</title>
<g id="a_node36"><a xlink:href="classSideDiffusiveFluxAverageTempl.html" target="_top" xlink:title=" ">
<polygon fill="white" stroke="#666666" points="982,-192.5 821,-192.5 821,-162.5 982,-162.5 982,-192.5"/>
<text text-anchor="start" x="829" y="-180.5" font-family="Courier,monospace" font-size="10.00">SideDiffusiveFluxAverage</text>
<text text-anchor="middle" x="901.5" y="-169.5" font-family="Courier,monospace" font-size="10.00">Templ&lt; is_ad &gt;</text>
</a>
</g>
</g>
<!-- Node35&#45;&gt;Node36 -->
<g id="edge35" class="edge">
<title>Node35&#45;&gt;Node36</title>
<path fill="none" stroke="#63b8ff" d="M778.57,-176.37C792.61,-176.5 806.97,-176.63 820.67,-176.76"/>
<polygon fill="#63b8ff" stroke="#63b8ff" points="778.94,-172.87 768.91,-176.28 778.87,-179.87 778.94,-172.87"/>
</g>
<!-- Node38 -->
<g id="node38" class="node">
<title>Node38</title>
<g id="a_node38"><a xlink:href="classAxisymmetricCenterlineAverageValue.html" target="_top" xlink:title="This postprocessor computes a line integral of the specified variable along the centerline of an axis...">
<polygon fill="white" stroke="#666666" points="997,-144.5 806,-144.5 806,-114.5 997,-114.5 997,-144.5"/>
<text text-anchor="start" x="814" y="-132.5" font-family="Courier,monospace" font-size="10.00">AxisymmetricCenterlineAverage</text>
<text text-anchor="middle" x="901.5" y="-121.5" font-family="Courier,monospace" font-size="10.00">Value</text>
</a>
</g>
</g>
<!-- Node37&#45;&gt;Node38 -->
<g id="edge37" class="edge">
<title>Node37&#45;&gt;Node38</title>
<path fill="none" stroke="#63b8ff" d="M751.47,-131.57C768.69,-131.33 787.56,-131.07 805.9,-130.81"/>
<polygon fill="#63b8ff" stroke="#63b8ff" points="751.87,-128.06 741.92,-131.7 751.97,-135.06 751.87,-128.06"/>
</g>
</g>
</svg>
        <g id="navigator" transform="translate(0 0)" fill="#404254">
                <rect fill="#f2f5e9" fill-opacity="0.5" stroke="#606060" stroke-width=".5" x="0" y="0" width="60" height="60"/>
                <use id="zoomplus" xlink:href="#zoomPlus" x="17" y="9" onmousedown="handleZoom(evt,'in')"/>
                <use id="zoomminus" xlink:href="#zoomMin" x="42" y="9" onmousedown="handleZoom(evt,'out')"/>
                <use id="reset" xlink:href="#resetDef" x="30" y="36" onmousedown="handleReset()"/>
                <g id="arrowUp" xlink:href="#dirArrow" transform="translate(30 24)" onmousedown="handlePan(0,-1)">
                  <use xlink:href="#rim" fill="#404040">
                        <set attributeName="fill" to="#808080" begin="arrowUp.mouseover" end="arrowUp.mouseout"/>
                  </use>
                  <path fill="none" stroke="white" stroke-width="1.5" d="M0,-3.0v7 M-2.5,-0.5L0,-3.0L2.5,-0.5"/>
                </g>
                <g id="arrowRight" xlink:href="#dirArrow" transform="rotate(90) translate(36 -43)" onmousedown="handlePan(1,0)">
                  <use xlink:href="#rim" fill="#404040">
                        <set attributeName="fill" to="#808080" begin="arrowRight.mouseover" end="arrowRight.mouseout"/>
                  </use>
                  <path fill="none" stroke="white" stroke-width="1.5" d="M0,-3.0v7 M-2.5,-0.5L0,-3.0L2.5,-0.5"/>
                </g>
                <g id="arrowDown" xlink:href="#dirArrow" transform="rotate(180) translate(-30 -48)" onmousedown="handlePan(0,1)">
                  <use xlink:href="#rim" fill="#404040">
                        <set attributeName="fill" to="#808080" begin="arrowDown.mouseover" end="arrowDown.mouseout"/>
                  </use>
                  <path fill="none" stroke="white" stroke-width="1.5" d="M0,-3.0v7 M-2.5,-0.5L0,-3.0L2.5,-0.5"/>
                </g>
                <g id="arrowLeft" xlink:href="#dirArrow" transform="rotate(270) translate(-36 17)" onmousedown="handlePan(-1,0)">
                  <use xlink:href="#rim" fill="#404040">
                        <set attributeName="fill" to="#808080" begin="arrowLeft.mouseover" end="arrowLeft.mouseout"/>
                  </use>
                  <path fill="none" stroke="white" stroke-width="1.5" d="M0,-3.0v7 M-2.5,-0.5L0,-3.0L2.5,-0.5"/>
                </g>
        </g>
        <svg viewBox="0 0 15 15" width="100%" height="30px" preserveAspectRatio="xMaxYMin meet">
         <g id="arrow_out" transform="scale(0.3 0.3)">
          <a xlink:href="classFaceArgProducerInterface__inherit__graph_org.svg" target="_base">
           <rect id="button" ry="5" rx="5" y="6" x="6" height="38" width="38"
                fill="#f2f5e9" fill-opacity="0.5" stroke="#606060" stroke-width="1.0"/>
           <path id="arrow"
             d="M 11.500037,31.436501 C 11.940474,20.09759 22.043105,11.32322 32.158766,21.979434 L 37.068811,17.246167 C 37.068811,17.246167 37.088388,32 37.088388,32 L 22.160133,31.978069 C 22.160133,31.978069 26.997745,27.140456 26.997745,27.140456 C 18.528582,18.264221 13.291696,25.230495 11.500037,31.436501 z"
             style="fill:#404040;"/>
          </a>
         </g>
        </svg>
</svg>
