<?xml version="1.0" encoding="UTF-8" standalone="no"?>
<!DOCTYPE svg PUBLIC "-//W3C//DTD SVG 1.1//EN"
 "http://www.w3.org/Graphics/SVG/1.1/DTD/svg11.dtd">
<!-- Generated by graphviz version 7.0.5 (20221223.1930)
 -->
<!-- Title: Moose::LibtorchArtificialNeuralNet Pages: 1 -->
<svg width="330pt" height="93pt"
 viewBox="0.00 0.00 330.00 93.00" xmlns="http://www.w3.org/2000/svg" xmlns:xlink="http://www.w3.org/1999/xlink">
<g id="graph0" class="graph" transform="scale(1 1) rotate(0) translate(4 89)">
<title>Moose::LibtorchArtificialNeuralNet</title>
<!-- Node1 -->
<g id="node1" class="node">
<title>Node1</title>
<g id="a_node1"><a xlink:title=" ">
<polygon fill="#999999" stroke="#666666" points="228,-30 61,-30 61,0 228,0 228,-30"/>
<text text-anchor="start" x="69" y="-18" font-family="Courier,monospace" font-size="10.00">Moose::LibtorchArtificial</text>
<text text-anchor="middle" x="144.5" y="-7" font-family="Courier,monospace" font-size="10.00">NeuralNet</text>
</a>
</g>
</g>
<!-- Node2 -->
<g id="node2" class="node">
<title>Node2</title>
<g id="a_node2"><a xlink:title=" ">
<polygon fill="white" stroke="#666666" points="119,-85 0,-85 0,-66 119,-66 119,-85"/>
<text text-anchor="middle" x="59.5" y="-73" font-family="Courier,monospace" font-size="10.00">torch::nn::Module</text>
</a>
</g>
</g>
<!-- Node2&#45;&gt;Node1 -->
<g id="edge1" class="edge">
<title>Node2&#45;&gt;Node1</title>
<path fill="none" stroke="#63b8ff" d="M81.55,-59.33C94.49,-50.42 110.76,-39.22 123.52,-30.44"/>
<polygon fill="#63b8ff" stroke="#63b8ff" points="79.91,-56.2 73.66,-64.76 83.88,-61.97 79.91,-56.2"/>
</g>
<!-- Node3 -->
<g id="node3" class="node">
<title>Node3</title>
<g id="a_node3"><a xlink:href="classMoose_1_1LibtorchNeuralNetBase.html" target="_top" xlink:title="This base class is meant to gather the functions and members common in every neural network based on ...">
<polygon fill="white" stroke="#666666" points="322,-85 137,-85 137,-66 322,-66 322,-85"/>
<text text-anchor="middle" x="229.5" y="-73" font-family="Courier,monospace" font-size="10.00">Moose::LibtorchNeuralNetBase</text>
</a>
</g>
</g>
<!-- Node3&#45;&gt;Node1 -->
<g id="edge2" class="edge">
<title>Node3&#45;&gt;Node1</title>
<path fill="none" stroke="#63b8ff" d="M207.45,-59.33C194.51,-50.42 178.24,-39.22 165.48,-30.44"/>
<polygon fill="#63b8ff" stroke="#63b8ff" points="205.12,-61.97 215.34,-64.76 209.09,-56.2 205.12,-61.97"/>
</g>
</g>
</svg>
