<?xml version="1.0" encoding="UTF-8" standalone="no"?>
<!DOCTYPE svg PUBLIC "-//W3C//DTD SVG 1.1//EN"
 "http://www.w3.org/Graphics/SVG/1.1/DTD/svg11.dtd">
<!-- Generated by graphviz version 7.0.5 (20221223.1930)
 -->
<!-- Title: MortarNodalGeometryOutput Pages: 1 -->
<svg width="885pt" height="397pt"
 viewBox="0.00 0.00 885.00 397.00" xmlns="http://www.w3.org/2000/svg" xmlns:xlink="http://www.w3.org/1999/xlink">
<g id="graph0" class="graph" transform="scale(1 1) rotate(0) translate(4 393)">
<title>MortarNodalGeometryOutput</title>
<!-- Node1 -->
<g id="node1" class="node">
<title>Node1</title>
<g id="a_node1"><a xlink:title=" ">
<polygon fill="#999999" stroke="#666666" points="877,-167 710,-167 710,-148 877,-148 877,-167"/>
<text text-anchor="middle" x="793.5" y="-155" font-family="Courier,monospace" font-size="10.00">MortarNodalGeometryOutput</text>
</a>
</g>
</g>
<!-- Node2 -->
<g id="node2" class="node">
<title>Node2</title>
<g id="a_node2"><a xlink:href="classOutput.html" target="_top" xlink:title="Based class for output objects.">
<polygon fill="white" stroke="#666666" points="674,-167 621,-167 621,-148 674,-148 674,-167"/>
<text text-anchor="middle" x="647.5" y="-155" font-family="Courier,monospace" font-size="10.00">Output</text>
</a>
</g>
</g>
<!-- Node2&#45;&gt;Node1 -->
<g id="edge1" class="edge">
<title>Node2&#45;&gt;Node1</title>
<path fill="none" stroke="#63b8ff" d="M685.72,-157.5C693.17,-157.5 701.28,-157.5 709.59,-157.5"/>
<polygon fill="#63b8ff" stroke="#63b8ff" points="685.76,-154 675.76,-157.5 685.76,-161 685.76,-154"/>
</g>
<!-- Node3 -->
<g id="node3" class="node">
<title>Node3</title>
<g id="a_node3"><a xlink:href="classMooseObject.html" target="_top" xlink:title="Every object that can be built by the factory should be derived from this class.">
<polygon fill="white" stroke="#666666" points="534,-315 451,-315 451,-296 534,-296 534,-315"/>
<text text-anchor="middle" x="492.5" y="-303" font-family="Courier,monospace" font-size="10.00">MooseObject</text>
</a>
</g>
</g>
<!-- Node3&#45;&gt;Node2 -->
<g id="edge2" class="edge">
<title>Node3&#45;&gt;Node2</title>
<path fill="none" stroke="#63b8ff" d="M545.31,-303.11C559.32,-300.36 573.72,-295.35 585,-286.5 624.82,-255.25 640.23,-191.89 644.85,-167.44"/>
<polygon fill="#63b8ff" stroke="#63b8ff" points="545.04,-299.61 535.71,-304.64 546.13,-306.53 545.04,-299.61"/>
</g>
<!-- Node4 -->
<g id="node4" class="node">
<title>Node4</title>
<g id="a_node4"><a xlink:href="classMooseBase.html" target="_top" xlink:title="Base class for everything in MOOSE with a name and a type.">
<polygon fill="white" stroke="#666666" points="310,-389 239,-389 239,-370 310,-370 310,-389"/>
<text text-anchor="middle" x="274.5" y="-377" font-family="Courier,monospace" font-size="10.00">MooseBase</text>
</a>
</g>
</g>
<!-- Node4&#45;&gt;Node3 -->
<g id="edge3" class="edge">
<title>Node4&#45;&gt;Node3</title>
<path fill="none" stroke="#63b8ff" d="M321.62,-372.05C335.41,-369.31 350.46,-365.8 364,-361.5 403.87,-348.85 448.08,-327.72 472.56,-315.35"/>
<polygon fill="#63b8ff" stroke="#63b8ff" points="321.06,-368.59 311.89,-373.89 322.36,-375.47 321.06,-368.59"/>
</g>
<!-- Node5 -->
<g id="node5" class="node">
<title>Node5</title>
<g id="a_node5"><a xlink:href="classMooseBaseParameterInterface.html" target="_top" xlink:title="Every object that can be built by the factory should be derived from this class.">
<polygon fill="white" stroke="#666666" points="364,-352 185,-352 185,-333 364,-333 364,-352"/>
<text text-anchor="middle" x="274.5" y="-340" font-family="Courier,monospace" font-size="10.00">MooseBaseParameterInterface</text>
</a>
</g>
</g>
<!-- Node5&#45;&gt;Node3 -->
<g id="edge4" class="edge">
<title>Node5&#45;&gt;Node3</title>
<path fill="none" stroke="#63b8ff" d="M344.77,-330.63C379.7,-324.65 420.85,-317.6 450.68,-312.49"/>
<polygon fill="#63b8ff" stroke="#63b8ff" points="344.43,-327.14 335.16,-332.28 345.61,-334.04 344.43,-327.14"/>
</g>
<!-- Node6 -->
<g id="node6" class="node">
<title>Node6</title>
<g id="a_node6"><a xlink:href="classMooseBaseErrorInterface.html" target="_top" xlink:title="Interface that provides APIs to output errors/warnings/info messages.">
<polygon fill="white" stroke="#666666" points="352,-315 197,-315 197,-296 352,-296 352,-315"/>
<text text-anchor="middle" x="274.5" y="-303" font-family="Courier,monospace" font-size="10.00">MooseBaseErrorInterface</text>
</a>
</g>
</g>
<!-- Node6&#45;&gt;Node3 -->
<g id="edge5" class="edge">
<title>Node6&#45;&gt;Node3</title>
<path fill="none" stroke="#63b8ff" d="M363.7,-305.5C393.87,-305.5 426.17,-305.5 450.75,-305.5"/>
<polygon fill="#63b8ff" stroke="#63b8ff" points="363.78,-302 353.78,-305.5 363.78,-309 363.78,-302"/>
</g>
<!-- Node7 -->
<g id="node7" class="node">
<title>Node7</title>
<g id="a_node7"><a xlink:href="classConsoleStreamInterface.html" target="_top" xlink:title="An inteface for the _console for outputting to the Console object.">
<polygon fill="white" stroke="#666666" points="149,-315 0,-315 0,-296 149,-296 149,-315"/>
<text text-anchor="middle" x="74.5" y="-303" font-family="Courier,monospace" font-size="10.00">ConsoleStreamInterface</text>
</a>
</g>
</g>
<!-- Node7&#45;&gt;Node6 -->
<g id="edge6" class="edge">
<title>Node7&#45;&gt;Node6</title>
<path fill="none" stroke="#63b8ff" d="M160.62,-305.5C172.62,-305.5 184.9,-305.5 196.73,-305.5"/>
<polygon fill="#63b8ff" stroke="#63b8ff" points="160.74,-302 150.74,-305.5 160.74,-309 160.74,-302"/>
</g>
<!-- Node8 -->
<g id="node8" class="node">
<title>Node8</title>
<g id="a_node8"><a xlink:title=" ">
<polygon fill="white" stroke="#666666" points="352,-278 197,-278 197,-259 352,-259 352,-278"/>
<text text-anchor="middle" x="274.5" y="-266" font-family="Courier,monospace" font-size="10.00">libMesh::ParallelObject</text>
</a>
</g>
</g>
<!-- Node8&#45;&gt;Node3 -->
<g id="edge7" class="edge">
<title>Node8&#45;&gt;Node3</title>
<path fill="none" stroke="#63b8ff" d="M344.77,-280.37C379.7,-286.35 420.85,-293.4 450.68,-298.51"/>
<polygon fill="#63b8ff" stroke="#63b8ff" points="345.61,-276.96 335.16,-278.72 344.43,-283.86 345.61,-276.96"/>
</g>
<!-- Node9 -->
<g id="node9" class="node">
<title>Node9</title>
<g id="a_node9"><a xlink:href="classDataFileInterface.html" target="_top" xlink:title=" ">
<polygon fill="white" stroke="#666666" points="337,-240.5 212,-240.5 212,-210.5 337,-210.5 337,-240.5"/>
<text text-anchor="start" x="220" y="-228.5" font-family="Courier,monospace" font-size="10.00">DataFileInterface&lt;</text>
<text text-anchor="middle" x="274.5" y="-217.5" font-family="Courier,monospace" font-size="10.00"> MooseObject &gt;</text>
</a>
</g>
</g>
<!-- Node9&#45;&gt;Node3 -->
<g id="edge8" class="edge">
<title>Node9&#45;&gt;Node3</title>
<path fill="none" stroke="#63b8ff" d="M347.62,-241.49C353.32,-243.82 358.86,-246.47 364,-249.5 383.77,-261.14 379.89,-275.46 400,-286.5 415.36,-294.93 434.05,-299.63 450.52,-302.24"/>
<polygon fill="#63b8ff" stroke="#63b8ff" points="349.23,-238.35 338.64,-238.17 346.8,-244.92 349.23,-238.35"/>
</g>
<!-- Node10 -->
<g id="node10" class="node">
<title>Node10</title>
<g id="a_node10"><a xlink:href="classRestartable.html" target="_top" xlink:title="A class for creating restricted objects.">
<polygon fill="white" stroke="#666666" points="534,-278 451,-278 451,-259 534,-259 534,-278"/>
<text text-anchor="middle" x="492.5" y="-266" font-family="Courier,monospace" font-size="10.00">Restartable</text>
</a>
</g>
</g>
<!-- Node10&#45;&gt;Node2 -->
<g id="edge9" class="edge">
<title>Node10&#45;&gt;Node2</title>
<path fill="none" stroke="#63b8ff" d="M545.68,-264.8C559.33,-262 573.44,-257.29 585,-249.5 615.91,-228.67 635.29,-186.57 642.86,-167.41"/>
<polygon fill="#63b8ff" stroke="#63b8ff" points="545.15,-261.34 535.89,-266.49 546.34,-268.24 545.15,-261.34"/>
</g>
<!-- Node11 -->
<g id="node11" class="node">
<title>Node11</title>
<g id="a_node11"><a xlink:href="classMeshChangedInterface.html" target="_top" xlink:title="Interface for notifications that the mesh has changed.">
<polygon fill="white" stroke="#666666" points="561,-241 424,-241 424,-222 561,-222 561,-241"/>
<text text-anchor="middle" x="492.5" y="-229" font-family="Courier,monospace" font-size="10.00">MeshChangedInterface</text>
</a>
</g>
</g>
<!-- Node11&#45;&gt;Node2 -->
<g id="edge10" class="edge">
<title>Node11&#45;&gt;Node2</title>
<path fill="none" stroke="#63b8ff" d="M571.98,-218.12C576.47,-216.46 580.84,-214.6 585,-212.5 607.25,-201.27 627.67,-179.9 638.46,-167.36"/>
<polygon fill="#63b8ff" stroke="#63b8ff" points="571.18,-214.7 562.78,-221.16 573.37,-221.35 571.18,-214.7"/>
</g>
<!-- Node12 -->
<g id="node12" class="node">
<title>Node12</title>
<g id="a_node12"><a xlink:href="classSetupInterface.html" target="_top" xlink:title=" ">
<polygon fill="white" stroke="#666666" points="543,-204 442,-204 442,-185 543,-185 543,-204"/>
<text text-anchor="middle" x="492.5" y="-192" font-family="Courier,monospace" font-size="10.00">SetupInterface</text>
</a>
</g>
</g>
<!-- Node12&#45;&gt;Node2 -->
<g id="edge11" class="edge">
<title>Node12&#45;&gt;Node2</title>
<path fill="none" stroke="#63b8ff" d="M554.12,-182.63C564.45,-180.4 575.06,-177.98 585,-175.5 596.76,-172.56 609.66,-168.86 620.59,-165.58"/>
<polygon fill="#63b8ff" stroke="#63b8ff" points="553.59,-179.16 544.53,-184.65 555.04,-186.01 553.59,-179.16"/>
</g>
<!-- Node13 -->
<g id="node13" class="node">
<title>Node13</title>
<g id="a_node13"><a xlink:href="classFunctionInterface.html" target="_top" xlink:title="Interface for objects that need to use functions.">
<polygon fill="white" stroke="#666666" points="552,-167 433,-167 433,-148 552,-148 552,-167"/>
<text text-anchor="middle" x="492.5" y="-155" font-family="Courier,monospace" font-size="10.00">FunctionInterface</text>
</a>
</g>
</g>
<!-- Node13&#45;&gt;Node2 -->
<g id="edge12" class="edge">
<title>Node13&#45;&gt;Node2</title>
<path fill="none" stroke="#63b8ff" d="M563.7,-157.5C583.95,-157.5 604.79,-157.5 620.5,-157.5"/>
<polygon fill="#63b8ff" stroke="#63b8ff" points="563.73,-154 553.73,-157.5 563.73,-161 563.73,-154"/>
</g>
<!-- Node14 -->
<g id="node14" class="node">
<title>Node14</title>
<g id="a_node14"><a xlink:href="classPostprocessorInterface.html" target="_top" xlink:title="Interface class for classes which interact with Postprocessors.">
<polygon fill="white" stroke="#666666" points="567,-130 418,-130 418,-111 567,-111 567,-130"/>
<text text-anchor="middle" x="492.5" y="-118" font-family="Courier,monospace" font-size="10.00">PostprocessorInterface</text>
</a>
</g>
</g>
<!-- Node14&#45;&gt;Node2 -->
<g id="edge13" class="edge">
<title>Node14&#45;&gt;Node2</title>
<path fill="none" stroke="#63b8ff" d="M559.93,-132.71C568.4,-134.52 576.92,-136.46 585,-138.5 596.81,-141.48 609.71,-145.36 620.64,-148.85"/>
<polygon fill="#63b8ff" stroke="#63b8ff" points="560.85,-129.33 550.35,-130.72 559.43,-136.18 560.85,-129.33"/>
</g>
<!-- Node15 -->
<g id="node15" class="node">
<title>Node15</title>
<g id="a_node15"><a xlink:href="classVectorPostprocessorInterface.html" target="_top" xlink:title=" ">
<polygon fill="white" stroke="#666666" points="585,-93 400,-93 400,-74 585,-74 585,-93"/>
<text text-anchor="middle" x="492.5" y="-81" font-family="Courier,monospace" font-size="10.00">VectorPostprocessorInterface</text>
</a>
</g>
</g>
<!-- Node15&#45;&gt;Node2 -->
<g id="edge14" class="edge">
<title>Node15&#45;&gt;Node2</title>
<path fill="none" stroke="#63b8ff" d="M575.43,-97.23C578.72,-98.53 581.92,-99.95 585,-101.5 607.7,-112.93 628.26,-135.11 638.89,-147.86"/>
<polygon fill="#63b8ff" stroke="#63b8ff" points="576.75,-93.99 566.16,-94 574.45,-100.6 576.75,-93.99"/>
</g>
<!-- Node16 -->
<g id="node16" class="node">
<title>Node16</title>
<g id="a_node16"><a xlink:href="classReporterInterface.html" target="_top" xlink:title="Interface to allow object to consume Reporter values.">
<polygon fill="white" stroke="#666666" points="552,-56 433,-56 433,-37 552,-37 552,-56"/>
<text text-anchor="middle" x="492.5" y="-44" font-family="Courier,monospace" font-size="10.00">ReporterInterface</text>
</a>
</g>
</g>
<!-- Node16&#45;&gt;Node2 -->
<g id="edge15" class="edge">
<title>Node16&#45;&gt;Node2</title>
<path fill="none" stroke="#63b8ff" d="M563.33,-54.12C571.01,-56.71 578.42,-60.09 585,-64.5 616.36,-85.51 635.63,-128.47 643.03,-147.75"/>
<polygon fill="#63b8ff" stroke="#63b8ff" points="564.38,-50.78 553.81,-51.39 562.45,-57.51 564.38,-50.78"/>
</g>
<!-- Node17 -->
<g id="node17" class="node">
<title>Node17</title>
<g id="a_node17"><a xlink:href="classPerfGraphInterface.html" target="_top" xlink:title="Interface for objects interacting with the PerfGraph.">
<polygon fill="white" stroke="#666666" points="555,-19 430,-19 430,0 555,0 555,-19"/>
<text text-anchor="middle" x="492.5" y="-7" font-family="Courier,monospace" font-size="10.00">PerfGraphInterface</text>
</a>
</g>
</g>
<!-- Node17&#45;&gt;Node2 -->
<g id="edge16" class="edge">
<title>Node17&#45;&gt;Node2</title>
<path fill="none" stroke="#63b8ff" d="M566.27,-17.09C573,-19.72 579.38,-23.13 585,-27.5 625.38,-58.95 640.53,-123.39 644.96,-147.82"/>
<polygon fill="#63b8ff" stroke="#63b8ff" points="567.51,-13.81 556.92,-14.02 565.33,-20.46 567.51,-13.81"/>
</g>
</g>
</svg>
