<?xml version="1.0" encoding="UTF-8" standalone="no"?>
<!DOCTYPE svg PUBLIC "-//W3C//DTD SVG 1.1//EN"
 "http://www.w3.org/Graphics/SVG/1.1/DTD/svg11.dtd">
<!-- Generated by graphviz version 7.0.5 (20221223.1930)
 -->
<!-- Title: FVFunctionDirichletBC Pages: 1 -->
<svg width="1118pt" height="729pt"
 viewBox="0.00 0.00 1118.00 729.00" xmlns="http://www.w3.org/2000/svg" xmlns:xlink="http://www.w3.org/1999/xlink">
<g id="graph0" class="graph" transform="scale(1 1) rotate(0) translate(4 725)">
<title>FVFunctionDirichletBC</title>
<!-- Node1 -->
<g id="node1" class="node">
<title>Node1</title>
<g id="a_node1"><a xlink:title="Applies a Dirichlet boundary condition with a value prescribed by a function.">
<polygon fill="#999999" stroke="#666666" points="1110,-308 967,-308 967,-289 1110,-289 1110,-308"/>
<text text-anchor="middle" x="1038.5" y="-296" font-family="Courier,monospace" font-size="10.00">FVFunctionDirichletBC</text>
</a>
</g>
</g>
<!-- Node2 -->
<g id="node2" class="node">
<title>Node2</title>
<g id="a_node2"><a xlink:href="classFVDirichletBCBase.html" target="_top" xlink:title="Base class for finite volume Dirichlet boundaray conditions.">
<polygon fill="white" stroke="#666666" points="931,-308 812,-308 812,-289 931,-289 931,-308"/>
<text text-anchor="middle" x="871.5" y="-296" font-family="Courier,monospace" font-size="10.00">FVDirichletBCBase</text>
</a>
</g>
</g>
<!-- Node2&#45;&gt;Node1 -->
<g id="edge1" class="edge">
<title>Node2&#45;&gt;Node1</title>
<path fill="none" stroke="#63b8ff" d="M942.63,-298.5C950.57,-298.5 958.67,-298.5 966.62,-298.5"/>
<polygon fill="#63b8ff" stroke="#63b8ff" points="942.65,-295 932.65,-298.5 942.65,-302 942.65,-295"/>
</g>
<!-- Node3 -->
<g id="node3" class="node">
<title>Node3</title>
<g id="a_node3"><a xlink:href="classFVBoundaryCondition.html" target="_top" xlink:title="Base class for creating new types of boundary conditions.">
<polygon fill="white" stroke="#666666" points="776,-308 645,-308 645,-289 776,-289 776,-308"/>
<text text-anchor="middle" x="710.5" y="-296" font-family="Courier,monospace" font-size="10.00">FVBoundaryCondition</text>
</a>
</g>
</g>
<!-- Node3&#45;&gt;Node2 -->
<g id="edge2" class="edge">
<title>Node3&#45;&gt;Node2</title>
<path fill="none" stroke="#63b8ff" d="M787.51,-298.5C795.58,-298.5 803.69,-298.5 811.52,-298.5"/>
<polygon fill="#63b8ff" stroke="#63b8ff" points="787.68,-295 777.68,-298.5 787.68,-302 787.68,-295"/>
</g>
<!-- Node4 -->
<g id="node4" class="node">
<title>Node4</title>
<g id="a_node4"><a xlink:href="classMooseObject.html" target="_top" xlink:title="Every object that can be built by the factory should be derived from this class.">
<polygon fill="white" stroke="#666666" points="546,-629 463,-629 463,-610 546,-610 546,-629"/>
<text text-anchor="middle" x="504.5" y="-617" font-family="Courier,monospace" font-size="10.00">MooseObject</text>
</a>
</g>
</g>
<!-- Node4&#45;&gt;Node3 -->
<g id="edge3" class="edge">
<title>Node4&#45;&gt;Node3</title>
<path fill="none" stroke="#63b8ff" d="M542.55,-605.09C564.44,-594.93 591.26,-579.41 609,-558.5 677.41,-477.87 702.25,-345.47 708.07,-308.41"/>
<polygon fill="#63b8ff" stroke="#63b8ff" points="541.37,-601.78 533.64,-609.03 544.2,-608.18 541.37,-601.78"/>
</g>
<!-- Node5 -->
<g id="node5" class="node">
<title>Node5</title>
<g id="a_node5"><a xlink:href="classMooseBase.html" target="_top" xlink:title="Base class for everything in MOOSE with a name and a type.">
<polygon fill="white" stroke="#666666" points="310,-721 239,-721 239,-702 310,-702 310,-721"/>
<text text-anchor="middle" x="274.5" y="-709" font-family="Courier,monospace" font-size="10.00">MooseBase</text>
</a>
</g>
</g>
<!-- Node5&#45;&gt;Node4 -->
<g id="edge4" class="edge">
<title>Node5&#45;&gt;Node4</title>
<path fill="none" stroke="#63b8ff" d="M321.48,-704.74C335.37,-702.01 350.51,-698.34 364,-693.5 411.74,-676.39 463.33,-645.36 488.28,-629.47"/>
<polygon fill="#63b8ff" stroke="#63b8ff" points="320.86,-701.3 311.66,-706.54 322.12,-708.18 320.86,-701.3"/>
</g>
<!-- Node6 -->
<g id="node6" class="node">
<title>Node6</title>
<g id="a_node6"><a xlink:href="classMooseBaseParameterInterface.html" target="_top" xlink:title="Every object that can be built by the factory should be derived from this class.">
<polygon fill="white" stroke="#666666" points="364,-684 185,-684 185,-665 364,-665 364,-684"/>
<text text-anchor="middle" x="274.5" y="-672" font-family="Courier,monospace" font-size="10.00">MooseBaseParameterInterface</text>
</a>
</g>
</g>
<!-- Node6&#45;&gt;Node4 -->
<g id="edge5" class="edge">
<title>Node6&#45;&gt;Node4</title>
<path fill="none" stroke="#63b8ff" d="M338.34,-662.19C346.98,-660.36 355.72,-658.44 364,-656.5 399.74,-648.13 440.26,-637.23 468.38,-629.42"/>
<polygon fill="#63b8ff" stroke="#63b8ff" points="337.65,-658.76 328.57,-664.23 339.07,-665.62 337.65,-658.76"/>
</g>
<!-- Node7 -->
<g id="node7" class="node">
<title>Node7</title>
<g id="a_node7"><a xlink:href="classMooseBaseErrorInterface.html" target="_top" xlink:title="Interface that provides APIs to output errors/warnings/info messages.">
<polygon fill="white" stroke="#666666" points="352,-647 197,-647 197,-628 352,-628 352,-647"/>
<text text-anchor="middle" x="274.5" y="-635" font-family="Courier,monospace" font-size="10.00">MooseBaseErrorInterface</text>
</a>
</g>
</g>
<!-- Node7&#45;&gt;Node4 -->
<g id="edge6" class="edge">
<title>Node7&#45;&gt;Node4</title>
<path fill="none" stroke="#63b8ff" d="M363.8,-630.53C397.92,-627.84 435.28,-624.89 462.77,-622.72"/>
<polygon fill="#63b8ff" stroke="#63b8ff" points="363.57,-627.04 353.88,-631.31 364.13,-634.01 363.57,-627.04"/>
</g>
<!-- Node8 -->
<g id="node8" class="node">
<title>Node8</title>
<g id="a_node8"><a xlink:href="classConsoleStreamInterface.html" target="_top" xlink:title="An inteface for the _console for outputting to the Console object.">
<polygon fill="white" stroke="#666666" points="149,-647 0,-647 0,-628 149,-628 149,-647"/>
<text text-anchor="middle" x="74.5" y="-635" font-family="Courier,monospace" font-size="10.00">ConsoleStreamInterface</text>
</a>
</g>
</g>
<!-- Node8&#45;&gt;Node7 -->
<g id="edge7" class="edge">
<title>Node8&#45;&gt;Node7</title>
<path fill="none" stroke="#63b8ff" d="M160.62,-637.5C172.62,-637.5 184.9,-637.5 196.73,-637.5"/>
<polygon fill="#63b8ff" stroke="#63b8ff" points="160.74,-634 150.74,-637.5 160.74,-641 160.74,-634"/>
</g>
<!-- Node9 -->
<g id="node9" class="node">
<title>Node9</title>
<g id="a_node9"><a xlink:title=" ">
<polygon fill="white" stroke="#666666" points="352,-610 197,-610 197,-591 352,-591 352,-610"/>
<text text-anchor="middle" x="274.5" y="-598" font-family="Courier,monospace" font-size="10.00">libMesh::ParallelObject</text>
</a>
</g>
</g>
<!-- Node9&#45;&gt;Node4 -->
<g id="edge8" class="edge">
<title>Node9&#45;&gt;Node4</title>
<path fill="none" stroke="#63b8ff" d="M363.8,-607.86C397.92,-610.7 435.28,-613.81 462.77,-616.11"/>
<polygon fill="#63b8ff" stroke="#63b8ff" points="364.14,-604.37 353.88,-607.03 363.56,-611.35 364.14,-604.37"/>
</g>
<!-- Node10 -->
<g id="node10" class="node">
<title>Node10</title>
<g id="a_node10"><a xlink:href="classDataFileInterface.html" target="_top" xlink:title=" ">
<polygon fill="white" stroke="#666666" points="337,-572.5 212,-572.5 212,-542.5 337,-542.5 337,-572.5"/>
<text text-anchor="start" x="220" y="-560.5" font-family="Courier,monospace" font-size="10.00">DataFileInterface&lt;</text>
<text text-anchor="middle" x="274.5" y="-549.5" font-family="Courier,monospace" font-size="10.00"> MooseObject &gt;</text>
</a>
</g>
</g>
<!-- Node10&#45;&gt;Node4 -->
<g id="edge9" class="edge">
<title>Node10&#45;&gt;Node4</title>
<path fill="none" stroke="#63b8ff" d="M343.32,-575.94C383.8,-586.95 433.61,-600.5 466.84,-609.53"/>
<polygon fill="#63b8ff" stroke="#63b8ff" points="344.47,-572.63 333.91,-573.38 342.64,-579.38 344.47,-572.63"/>
</g>
<!-- Node11 -->
<g id="node11" class="node">
<title>Node11</title>
<g id="a_node11"><a xlink:href="classBoundaryRestrictableRequired.html" target="_top" xlink:title="A class for requiring an object to be boundary restricted.">
<polygon fill="white" stroke="#666666" points="597,-549 412,-549 412,-530 597,-530 597,-549"/>
<text text-anchor="middle" x="504.5" y="-537" font-family="Courier,monospace" font-size="10.00">BoundaryRestrictableRequired</text>
</a>
</g>
</g>
<!-- Node11&#45;&gt;Node3 -->
<g id="edge10" class="edge">
<title>Node11&#45;&gt;Node3</title>
<path fill="none" stroke="#63b8ff" d="M605.51,-524.03C606.7,-523.22 607.87,-522.38 609,-521.5 682.15,-464.76 703.59,-342.94 708.35,-308.03"/>
<polygon fill="#63b8ff" stroke="#63b8ff" points="604.18,-520.76 597.27,-528.79 607.68,-526.82 604.18,-520.76"/>
</g>
<!-- Node12 -->
<g id="node12" class="node">
<title>Node12</title>
<g id="a_node12"><a xlink:href="classBoundaryRestrictable.html" target="_top" xlink:title="/class BoundaryRestrictable /brief Provides functionality for limiting the object to certain boundary...">
<polygon fill="white" stroke="#666666" points="343,-524 206,-524 206,-505 343,-505 343,-524"/>
<text text-anchor="middle" x="274.5" y="-512" font-family="Courier,monospace" font-size="10.00">BoundaryRestrictable</text>
</a>
</g>
</g>
<!-- Node12&#45;&gt;Node11 -->
<g id="edge11" class="edge">
<title>Node12&#45;&gt;Node11</title>
<path fill="none" stroke="#63b8ff" d="M354.68,-523.18C373.28,-525.22 393.25,-527.41 412.33,-529.5"/>
<polygon fill="#63b8ff" stroke="#63b8ff" points="355.12,-519.71 344.79,-522.1 354.35,-526.67 355.12,-519.71"/>
</g>
<!-- Node13 -->
<g id="node13" class="node">
<title>Node13</title>
<g id="a_node13"><a xlink:href="classSetupInterface.html" target="_top" xlink:title=" ">
<polygon fill="white" stroke="#666666" points="555,-512 454,-512 454,-493 555,-493 555,-512"/>
<text text-anchor="middle" x="504.5" y="-500" font-family="Courier,monospace" font-size="10.00">SetupInterface</text>
</a>
</g>
</g>
<!-- Node13&#45;&gt;Node3 -->
<g id="edge12" class="edge">
<title>Node13&#45;&gt;Node3</title>
<path fill="none" stroke="#63b8ff" d="M566.65,-501.05C581.56,-498.33 596.73,-493.33 609,-484.5 672.75,-438.62 700.15,-339.47 707.42,-308.17"/>
<polygon fill="#63b8ff" stroke="#63b8ff" points="566.23,-497.58 556.85,-502.5 567.25,-504.5 566.23,-497.58"/>
</g>
<!-- Node14 -->
<g id="node14" class="node">
<title>Node14</title>
<g id="a_node14"><a xlink:href="classFunctionInterface.html" target="_top" xlink:title="Interface for objects that need to use functions.">
<polygon fill="white" stroke="#666666" points="564,-475 445,-475 445,-456 564,-456 564,-475"/>
<text text-anchor="middle" x="504.5" y="-463" font-family="Courier,monospace" font-size="10.00">FunctionInterface</text>
</a>
</g>
</g>
<!-- Node14&#45;&gt;Node3 -->
<g id="edge13" class="edge">
<title>Node14&#45;&gt;Node3</title>
<path fill="none" stroke="#63b8ff" d="M575.66,-461.18C587.42,-458.3 599.02,-453.96 609,-447.5 663.73,-412.05 696.08,-335.17 706.12,-308.14"/>
<polygon fill="#63b8ff" stroke="#63b8ff" points="574.96,-457.75 565.87,-463.2 576.37,-464.6 574.96,-457.75"/>
</g>
<!-- Node15 -->
<g id="node15" class="node">
<title>Node15</title>
<g id="a_node15"><a xlink:href="classDistributionInterface.html" target="_top" xlink:title="Interface for objects that need to use distributions.">
<polygon fill="white" stroke="#666666" points="576,-438 433,-438 433,-419 576,-419 576,-438"/>
<text text-anchor="middle" x="504.5" y="-426" font-family="Courier,monospace" font-size="10.00">DistributionInterface</text>
</a>
</g>
</g>
<!-- Node15&#45;&gt;Node3 -->
<g id="edge14" class="edge">
<title>Node15&#45;&gt;Node3</title>
<path fill="none" stroke="#63b8ff" d="M587.25,-419.66C594.84,-417.26 602.22,-414.25 609,-410.5 654.94,-385.06 690.69,-330.52 703.94,-308.26"/>
<polygon fill="#63b8ff" stroke="#63b8ff" points="586.57,-416.21 577.87,-422.26 588.44,-422.96 586.57,-416.21"/>
</g>
<!-- Node16 -->
<g id="node16" class="node">
<title>Node16</title>
<g id="a_node16"><a xlink:href="classUserObjectInterface.html" target="_top" xlink:title="Interface for objects that need to use UserObjects.">
<polygon fill="white" stroke="#666666" points="570,-401 439,-401 439,-382 570,-382 570,-401"/>
<text text-anchor="middle" x="504.5" y="-389" font-family="Courier,monospace" font-size="10.00">UserObjectInterface</text>
</a>
</g>
</g>
<!-- Node16&#45;&gt;Node3 -->
<g id="edge15" class="edge">
<title>Node16&#45;&gt;Node3</title>
<path fill="none" stroke="#63b8ff" d="M581.47,-382.54C590.94,-380.19 600.33,-377.23 609,-373.5 646.39,-357.4 682.78,-324.8 699.68,-308.4"/>
<polygon fill="#63b8ff" stroke="#63b8ff" points="580.83,-379.1 571.83,-384.69 582.35,-385.93 580.83,-379.1"/>
</g>
<!-- Node17 -->
<g id="node17" class="node">
<title>Node17</title>
<g id="a_node17"><a xlink:href="classTransientInterface.html" target="_top" xlink:title="Interface for objects that needs transient capabilities.">
<polygon fill="white" stroke="#666666" points="567,-364 442,-364 442,-345 567,-345 567,-364"/>
<text text-anchor="middle" x="504.5" y="-352" font-family="Courier,monospace" font-size="10.00">TransientInterface</text>
</a>
</g>
</g>
<!-- Node17&#45;&gt;Node3 -->
<g id="edge16" class="edge">
<title>Node17&#45;&gt;Node3</title>
<path fill="none" stroke="#63b8ff" d="M578.58,-343.58C588.86,-341.52 599.25,-339.17 609,-336.5 636.53,-328.97 667.05,-316.87 687.15,-308.35"/>
<polygon fill="#63b8ff" stroke="#63b8ff" points="578.15,-340.1 568.98,-345.41 579.46,-346.97 578.15,-340.1"/>
</g>
<!-- Node18 -->
<g id="node18" class="node">
<title>Node18</title>
<g id="a_node18"><a xlink:href="classPostprocessorInterface.html" target="_top" xlink:title="Interface class for classes which interact with Postprocessors.">
<polygon fill="white" stroke="#666666" points="579,-327 430,-327 430,-308 579,-308 579,-327"/>
<text text-anchor="middle" x="504.5" y="-315" font-family="Courier,monospace" font-size="10.00">PostprocessorInterface</text>
</a>
</g>
</g>
<!-- Node18&#45;&gt;Node3 -->
<g id="edge17" class="edge">
<title>Node18&#45;&gt;Node3</title>
<path fill="none" stroke="#63b8ff" d="M590.82,-309.55C608.81,-307.88 627.5,-306.14 644.59,-304.55"/>
<polygon fill="#63b8ff" stroke="#63b8ff" points="590.58,-306.06 580.94,-310.47 591.23,-313.03 590.58,-306.06"/>
</g>
<!-- Node19 -->
<g id="node19" class="node">
<title>Node19</title>
<g id="a_node19"><a xlink:href="classVectorPostprocessorInterface.html" target="_top" xlink:title=" ">
<polygon fill="white" stroke="#666666" points="597,-290 412,-290 412,-271 597,-271 597,-290"/>
<text text-anchor="middle" x="504.5" y="-278" font-family="Courier,monospace" font-size="10.00">VectorPostprocessorInterface</text>
</a>
</g>
</g>
<!-- Node19&#45;&gt;Node3 -->
<g id="edge18" class="edge">
<title>Node19&#45;&gt;Node3</title>
<path fill="none" stroke="#63b8ff" d="M608.62,-289.6C620.9,-290.68 633.16,-291.76 644.68,-292.78"/>
<polygon fill="#63b8ff" stroke="#63b8ff" points="609.13,-286.13 598.86,-288.74 608.52,-293.1 609.13,-286.13"/>
</g>
<!-- Node20 -->
<g id="node20" class="node">
<title>Node20</title>
<g id="a_node20"><a xlink:href="classGeometricSearchInterface.html" target="_top" xlink:title=" ">
<polygon fill="white" stroke="#666666" points="585,-253 424,-253 424,-234 585,-234 585,-253"/>
<text text-anchor="middle" x="504.5" y="-241" font-family="Courier,monospace" font-size="10.00">GeometricSearchInterface</text>
</a>
</g>
</g>
<!-- Node20&#45;&gt;Node3 -->
<g id="edge19" class="edge">
<title>Node20&#45;&gt;Node3</title>
<path fill="none" stroke="#63b8ff" d="M580.07,-255.69C589.86,-257.72 599.71,-260 609,-262.5 635.67,-269.67 665.34,-280.69 685.48,-288.65"/>
<polygon fill="#63b8ff" stroke="#63b8ff" points="581.06,-252.32 570.57,-253.79 579.69,-259.18 581.06,-252.32"/>
</g>
<!-- Node21 -->
<g id="node21" class="node">
<title>Node21</title>
<g id="a_node21"><a xlink:href="classMeshChangedInterface.html" target="_top" xlink:title="Interface for notifications that the mesh has changed.">
<polygon fill="white" stroke="#666666" points="573,-216 436,-216 436,-197 573,-197 573,-216"/>
<text text-anchor="middle" x="504.5" y="-204" font-family="Courier,monospace" font-size="10.00">MeshChangedInterface</text>
</a>
</g>
</g>
<!-- Node21&#45;&gt;Node3 -->
<g id="edge20" class="edge">
<title>Node21&#45;&gt;Node3</title>
<path fill="none" stroke="#63b8ff" d="M584.45,-217.16C592.9,-219.43 601.24,-222.17 609,-225.5 645.87,-241.3 682.22,-272.68 699.34,-288.65"/>
<polygon fill="#63b8ff" stroke="#63b8ff" points="585.33,-213.78 574.79,-214.81 583.68,-220.58 585.33,-213.78"/>
</g>
<!-- Node22 -->
<g id="node22" class="node">
<title>Node22</title>
<g id="a_node22"><a xlink:href="classTaggingInterface.html" target="_top" xlink:title=" ">
<polygon fill="white" stroke="#666666" points="561,-179 448,-179 448,-160 561,-160 561,-179"/>
<text text-anchor="middle" x="504.5" y="-167" font-family="Courier,monospace" font-size="10.00">TaggingInterface</text>
</a>
</g>
</g>
<!-- Node22&#45;&gt;Node3 -->
<g id="edge21" class="edge">
<title>Node22&#45;&gt;Node3</title>
<path fill="none" stroke="#63b8ff" d="M572.51,-175.25C585.15,-178.12 597.88,-182.34 609,-188.5 654.25,-213.58 690.14,-266.61 703.67,-288.61"/>
<polygon fill="#63b8ff" stroke="#63b8ff" points="573.45,-171.86 562.96,-173.35 572.09,-178.73 573.45,-171.86"/>
</g>
<!-- Node23 -->
<g id="node23" class="node">
<title>Node23</title>
<g id="a_node23"><a xlink:href="classMooseVariableInterface.html" target="_top" xlink:title=" ">
<polygon fill="white" stroke="#666666" points="579,-141.5 430,-141.5 430,-111.5 579,-111.5 579,-141.5"/>
<text text-anchor="start" x="438" y="-129.5" font-family="Courier,monospace" font-size="10.00">MooseVariableInterface</text>
<text text-anchor="middle" x="504.5" y="-118.5" font-family="Courier,monospace" font-size="10.00">&lt; Real &gt;</text>
</a>
</g>
</g>
<!-- Node23&#45;&gt;Node3 -->
<g id="edge22" class="edge">
<title>Node23&#45;&gt;Node3</title>
<path fill="none" stroke="#63b8ff" d="M590.05,-141.24C596.74,-144.09 603.16,-147.47 609,-151.5 661.92,-188.02 695.19,-262.24 705.81,-288.79"/>
<polygon fill="#63b8ff" stroke="#63b8ff" points="591.37,-138 580.78,-137.75 588.9,-144.55 591.37,-138"/>
</g>
<!-- Node24 -->
<g id="node24" class="node">
<title>Node24</title>
<g id="a_node24"><a xlink:href="classMooseVariableDependencyInterface.html" target="_top" xlink:title=" ">
<polygon fill="white" stroke="#666666" points="609,-93 400,-93 400,-74 609,-74 609,-93"/>
<text text-anchor="middle" x="504.5" y="-81" font-family="Courier,monospace" font-size="10.00">MooseVariableDependencyInterface</text>
</a>
</g>
</g>
<!-- Node24&#45;&gt;Node3 -->
<g id="edge23" class="edge">
<title>Node24&#45;&gt;Node3</title>
<path fill="none" stroke="#63b8ff" d="M603.37,-98.71C605.3,-99.89 607.19,-101.15 609,-102.5 674.98,-151.55 701.02,-256.46 707.67,-288.8"/>
<polygon fill="#63b8ff" stroke="#63b8ff" points="605.1,-95.66 594.61,-94.15 601.86,-101.87 605.1,-95.66"/>
</g>
<!-- Node25 -->
<g id="node25" class="node">
<title>Node25</title>
<g id="a_node25"><a xlink:href="classADFunctorInterface.html" target="_top" xlink:title="An interface for accessing Moose::Functors for systems that care about automatic differentiation,...">
<polygon fill="white" stroke="#666666" points="567,-56 442,-56 442,-37 567,-37 567,-56"/>
<text text-anchor="middle" x="504.5" y="-44" font-family="Courier,monospace" font-size="10.00">ADFunctorInterface</text>
</a>
</g>
</g>
<!-- Node25&#45;&gt;Node3 -->
<g id="edge24" class="edge">
<title>Node25&#45;&gt;Node3</title>
<path fill="none" stroke="#63b8ff" d="M578.53,-50.56C589.54,-53.71 600.16,-58.46 609,-65.5 684.12,-125.33 704.18,-252.22 708.48,-288.58"/>
<polygon fill="#63b8ff" stroke="#63b8ff" points="579.45,-47.18 568.91,-48.26 577.82,-53.99 579.45,-47.18"/>
</g>
<!-- Node26 -->
<g id="node26" class="node">
<title>Node26</title>
<g id="a_node26"><a xlink:href="classFunctorInterface.html" target="_top" xlink:title="An interface for accessing Moose::Functors.">
<polygon fill="white" stroke="#666666" points="331,-56 218,-56 218,-37 331,-37 331,-56"/>
<text text-anchor="middle" x="274.5" y="-44" font-family="Courier,monospace" font-size="10.00">FunctorInterface</text>
</a>
</g>
</g>
<!-- Node26&#45;&gt;Node25 -->
<g id="edge25" class="edge">
<title>Node26&#45;&gt;Node25</title>
<path fill="none" stroke="#63b8ff" d="M342.57,-46.5C373.99,-46.5 411.18,-46.5 441.89,-46.5"/>
<polygon fill="#63b8ff" stroke="#63b8ff" points="342.79,-43 332.79,-46.5 342.79,-50 342.79,-43"/>
</g>
<!-- Node27 -->
<g id="node27" class="node">
<title>Node27</title>
<g id="a_node27"><a xlink:href="classFaceArgProducerInterface.html" target="_top" xlink:title="An interface for producers of functor face arguments, e.g.">
<polygon fill="white" stroke="#666666" points="585,-19 424,-19 424,0 585,0 585,-19"/>
<text text-anchor="middle" x="504.5" y="-7" font-family="Courier,monospace" font-size="10.00">FaceArgProducerInterface</text>
</a>
</g>
</g>
<!-- Node27&#45;&gt;Node3 -->
<g id="edge26" class="edge">
<title>Node27&#45;&gt;Node3</title>
<path fill="none" stroke="#63b8ff" d="M595.91,-18.97C600.58,-21.35 604.99,-24.16 609,-27.5 694.25,-98.43 707.21,-248.86 709.16,-288.67"/>
<polygon fill="#63b8ff" stroke="#63b8ff" points="597.3,-15.76 586.73,-15.06 594.56,-22.2 597.3,-15.76"/>
</g>
<!-- Node28 -->
<g id="node28" class="node">
<title>Node28</title>
<g id="a_node28"><a xlink:href="classFaceArgInterface.html" target="_top" xlink:title="A base class interface for both producers and consumers of functor face arguments,...">
<polygon fill="white" stroke="#666666" points="331,-19 218,-19 218,0 331,0 331,-19"/>
<text text-anchor="middle" x="274.5" y="-7" font-family="Courier,monospace" font-size="10.00">FaceArgInterface</text>
</a>
</g>
</g>
<!-- Node28&#45;&gt;Node27 -->
<g id="edge27" class="edge">
<title>Node28&#45;&gt;Node27</title>
<path fill="none" stroke="#63b8ff" d="M342.67,-9.5C368.1,-9.5 397.29,-9.5 423.76,-9.5"/>
<polygon fill="#63b8ff" stroke="#63b8ff" points="342.79,-6 332.79,-9.5 342.79,-13 342.79,-6"/>
</g>
</g>
</svg>
