<?xml version="1.0" encoding="UTF-8" standalone="no"?>
<!DOCTYPE svg PUBLIC "-//W3C//DTD SVG 1.1//EN"
 "http://www.w3.org/Graphics/SVG/1.1/DTD/svg11.dtd">
<!-- Generated by graphviz version 7.0.5 (20221223.1930)
 -->
<!-- Title: ParsedMaterialBase Pages: 1 -->
<svg width="318pt" height="93pt"
 viewBox="0.00 0.00 318.00 93.00" xmlns="http://www.w3.org/2000/svg" xmlns:xlink="http://www.w3.org/1999/xlink">
<g id="graph0" class="graph" transform="scale(1 1) rotate(0) translate(4 89)">
<title>ParsedMaterialBase</title>
<!-- Node1 -->
<g id="node1" class="node">
<title>Node1</title>
<g id="a_node1"><a xlink:title="Helper class for ParsedMaterial and DerivativeParsedMaterial to declare and read the input parameters...">
<polygon fill="#999999" stroke="#666666" points="225,-85 100,-85 100,-66 225,-66 225,-85"/>
<text text-anchor="middle" x="162.5" y="-73" font-family="Courier,monospace" font-size="10.00">ParsedMaterialBase</text>
</a>
</g>
</g>
<!-- Node2 -->
<g id="node2" class="node">
<title>Node2</title>
<g id="a_node2"><a xlink:href="classDerivativeParsedMaterialTempl.html" target="_top" xlink:title="Class to evaluate a parsed function (for example a free energy) and automatically provide all derivat...">
<polygon fill="white" stroke="#666666" points="161,-30 0,-30 0,0 161,0 161,-30"/>
<text text-anchor="start" x="8" y="-18" font-family="Courier,monospace" font-size="10.00">DerivativeParsedMaterial</text>
<text text-anchor="middle" x="80.5" y="-7" font-family="Courier,monospace" font-size="10.00">Templ&lt; is_ad &gt;</text>
</a>
</g>
</g>
<!-- Node1&#45;&gt;Node2 -->
<g id="edge1" class="edge">
<title>Node1&#45;&gt;Node2</title>
<path fill="none" stroke="#63b8ff" d="M140.86,-59.06C128.43,-50.2 112.93,-39.13 100.74,-30.44"/>
<polygon fill="#63b8ff" stroke="#63b8ff" points="138.64,-61.78 148.81,-64.74 142.71,-56.08 138.64,-61.78"/>
</g>
<!-- Node3 -->
<g id="node3" class="node">
<title>Node3</title>
<g id="a_node3"><a xlink:href="classParsedMaterialTempl.html" target="_top" xlink:title="FunctionMaterialBase child class to evaluate a parsed function.">
<polygon fill="white" stroke="#666666" points="310,-30 179,-30 179,0 310,0 310,-30"/>
<text text-anchor="start" x="187" y="-18" font-family="Courier,monospace" font-size="10.00">ParsedMaterialTempl</text>
<text text-anchor="middle" x="244.5" y="-7" font-family="Courier,monospace" font-size="10.00">&lt; is_ad &gt;</text>
</a>
</g>
</g>
<!-- Node1&#45;&gt;Node3 -->
<g id="edge2" class="edge">
<title>Node1&#45;&gt;Node3</title>
<path fill="none" stroke="#63b8ff" d="M184.14,-59.06C196.57,-50.2 212.07,-39.13 224.26,-30.44"/>
<polygon fill="#63b8ff" stroke="#63b8ff" points="182.29,-56.08 176.19,-64.74 186.36,-61.78 182.29,-56.08"/>
</g>
</g>
</svg>
