<?xml version="1.0" encoding="UTF-8" standalone="no"?>
<!DOCTYPE svg PUBLIC "-//W3C//DTD SVG 1.1//EN"
 "http://www.w3.org/Graphics/SVG/1.1/DTD/svg11.dtd">
<!-- Generated by graphviz version 7.0.5 (20221223.1930)
 -->
<!-- Title: InternalSideUserObject Pages: 1 -->
<svg width="1895pt" height="804pt"
 viewBox="0.00 0.00 1895.00 804.00" xmlns="http://www.w3.org/2000/svg" xmlns:xlink="http://www.w3.org/1999/xlink">
<g id="graph0" class="graph" transform="scale(1 1) rotate(0) translate(4 800)">
<title>InternalSideUserObject</title>
<!-- Node1 -->
<g id="node1" class="node">
<title>Node1</title>
<g id="a_node1"><a xlink:title="Base class for user objects executed on all element sides internal to one or more blocks,...">
<polygon fill="#999999" stroke="#666666" points="1015,-130 866,-130 866,-111 1015,-111 1015,-130"/>
<text text-anchor="middle" x="940.5" y="-118" font-family="Courier,monospace" font-size="10.00">InternalSideUserObject</text>
</a>
</g>
</g>
<!-- Node32 -->
<g id="node32" class="node">
<title>Node32</title>
<g id="a_node32"><a xlink:href="classInternalSidePostprocessor.html" target="_top" xlink:title=" ">
<polygon fill="white" stroke="#666666" points="1236,-149 1069,-149 1069,-130 1236,-130 1236,-149"/>
<text text-anchor="middle" x="1152.5" y="-137" font-family="Courier,monospace" font-size="10.00">InternalSidePostprocessor</text>
</a>
</g>
</g>
<!-- Node1&#45;&gt;Node32 -->
<g id="edge31" class="edge">
<title>Node1&#45;&gt;Node32</title>
<path fill="none" stroke="#63b8ff" d="M1026.31,-128.17C1040.26,-129.44 1054.71,-130.74 1068.61,-132"/>
<polygon fill="#63b8ff" stroke="#63b8ff" points="1027.02,-124.72 1016.75,-127.31 1026.39,-131.7 1027.02,-124.72"/>
</g>
<!-- Node36 -->
<g id="node36" class="node">
<title>Node36</title>
<g id="a_node36"><a xlink:href="classInternalSideVectorPostprocessor.html" target="_top" xlink:title=" ">
<polygon fill="white" stroke="#666666" points="1254,-112 1051,-112 1051,-93 1254,-93 1254,-112"/>
<text text-anchor="middle" x="1152.5" y="-100" font-family="Courier,monospace" font-size="10.00">InternalSideVectorPostprocessor</text>
</a>
</g>
</g>
<!-- Node1&#45;&gt;Node36 -->
<g id="edge35" class="edge">
<title>Node1&#45;&gt;Node36</title>
<path fill="none" stroke="#63b8ff" d="M1026.68,-113.2C1034.58,-112.52 1042.63,-111.83 1050.66,-111.14"/>
<polygon fill="#63b8ff" stroke="#63b8ff" points="1026.42,-109.71 1016.75,-114.05 1027.01,-116.68 1026.42,-109.71"/>
</g>
<!-- Node2 -->
<g id="node2" class="node">
<title>Node2</title>
<g id="a_node2"><a xlink:href="classUserObject.html" target="_top" xlink:title="Base class for user&#45;specific data.">
<polygon fill="white" stroke="#666666" points="764,-444 687,-444 687,-425 764,-425 764,-444"/>
<text text-anchor="middle" x="725.5" y="-432" font-family="Courier,monospace" font-size="10.00">UserObject</text>
</a>
</g>
</g>
<!-- Node2&#45;&gt;Node1 -->
<g id="edge1" class="edge">
<title>Node2&#45;&gt;Node1</title>
<path fill="none" stroke="#63b8ff" d="M739.46,-415.4C779.85,-355.85 902.61,-174.89 932.76,-130.44"/>
<polygon fill="#63b8ff" stroke="#63b8ff" points="736.68,-413.27 733.96,-423.51 742.47,-417.19 736.68,-413.27"/>
</g>
<!-- Node3 -->
<g id="node3" class="node">
<title>Node3</title>
<g id="a_node3"><a xlink:href="classMooseObject.html" target="_top" xlink:title="Every object that can be built by the factory should be derived from this class.">
<polygon fill="white" stroke="#666666" points="534,-722 451,-722 451,-703 534,-703 534,-722"/>
<text text-anchor="middle" x="492.5" y="-710" font-family="Courier,monospace" font-size="10.00">MooseObject</text>
</a>
</g>
</g>
<!-- Node3&#45;&gt;Node2 -->
<g id="edge2" class="edge">
<title>Node3&#45;&gt;Node2</title>
<path fill="none" stroke="#63b8ff" d="M545.39,-710.32C559.28,-707.69 573.59,-702.93 585,-694.5 675.85,-627.38 713.69,-482.99 722.44,-444.24"/>
<polygon fill="#63b8ff" stroke="#63b8ff" points="545.25,-706.8 535.9,-711.77 546.31,-713.72 545.25,-706.8"/>
</g>
<!-- Node4 -->
<g id="node4" class="node">
<title>Node4</title>
<g id="a_node4"><a xlink:href="classMooseBase.html" target="_top" xlink:title="Base class for everything in MOOSE with a name and a type.">
<polygon fill="white" stroke="#666666" points="310,-796 239,-796 239,-777 310,-777 310,-796"/>
<text text-anchor="middle" x="274.5" y="-784" font-family="Courier,monospace" font-size="10.00">MooseBase</text>
</a>
</g>
</g>
<!-- Node4&#45;&gt;Node3 -->
<g id="edge3" class="edge">
<title>Node4&#45;&gt;Node3</title>
<path fill="none" stroke="#63b8ff" d="M321.62,-779.05C335.41,-776.31 350.46,-772.8 364,-768.5 403.87,-755.85 448.08,-734.72 472.56,-722.35"/>
<polygon fill="#63b8ff" stroke="#63b8ff" points="321.06,-775.59 311.89,-780.89 322.36,-782.47 321.06,-775.59"/>
</g>
<!-- Node5 -->
<g id="node5" class="node">
<title>Node5</title>
<g id="a_node5"><a xlink:href="classMooseBaseParameterInterface.html" target="_top" xlink:title="Every object that can be built by the factory should be derived from this class.">
<polygon fill="white" stroke="#666666" points="364,-759 185,-759 185,-740 364,-740 364,-759"/>
<text text-anchor="middle" x="274.5" y="-747" font-family="Courier,monospace" font-size="10.00">MooseBaseParameterInterface</text>
</a>
</g>
</g>
<!-- Node5&#45;&gt;Node3 -->
<g id="edge4" class="edge">
<title>Node5&#45;&gt;Node3</title>
<path fill="none" stroke="#63b8ff" d="M344.77,-737.63C379.7,-731.65 420.85,-724.6 450.68,-719.49"/>
<polygon fill="#63b8ff" stroke="#63b8ff" points="344.43,-734.14 335.16,-739.28 345.61,-741.04 344.43,-734.14"/>
</g>
<!-- Node6 -->
<g id="node6" class="node">
<title>Node6</title>
<g id="a_node6"><a xlink:href="classMooseBaseErrorInterface.html" target="_top" xlink:title="Interface that provides APIs to output errors/warnings/info messages.">
<polygon fill="white" stroke="#666666" points="352,-722 197,-722 197,-703 352,-703 352,-722"/>
<text text-anchor="middle" x="274.5" y="-710" font-family="Courier,monospace" font-size="10.00">MooseBaseErrorInterface</text>
</a>
</g>
</g>
<!-- Node6&#45;&gt;Node3 -->
<g id="edge5" class="edge">
<title>Node6&#45;&gt;Node3</title>
<path fill="none" stroke="#63b8ff" d="M363.7,-712.5C393.87,-712.5 426.17,-712.5 450.75,-712.5"/>
<polygon fill="#63b8ff" stroke="#63b8ff" points="363.78,-709 353.78,-712.5 363.78,-716 363.78,-709"/>
</g>
<!-- Node7 -->
<g id="node7" class="node">
<title>Node7</title>
<g id="a_node7"><a xlink:href="classConsoleStreamInterface.html" target="_top" xlink:title="An inteface for the _console for outputting to the Console object.">
<polygon fill="white" stroke="#666666" points="149,-722 0,-722 0,-703 149,-703 149,-722"/>
<text text-anchor="middle" x="74.5" y="-710" font-family="Courier,monospace" font-size="10.00">ConsoleStreamInterface</text>
</a>
</g>
</g>
<!-- Node7&#45;&gt;Node6 -->
<g id="edge6" class="edge">
<title>Node7&#45;&gt;Node6</title>
<path fill="none" stroke="#63b8ff" d="M160.62,-712.5C172.62,-712.5 184.9,-712.5 196.73,-712.5"/>
<polygon fill="#63b8ff" stroke="#63b8ff" points="160.74,-709 150.74,-712.5 160.74,-716 160.74,-709"/>
</g>
<!-- Node8 -->
<g id="node8" class="node">
<title>Node8</title>
<g id="a_node8"><a xlink:title=" ">
<polygon fill="white" stroke="#666666" points="352,-685 197,-685 197,-666 352,-666 352,-685"/>
<text text-anchor="middle" x="274.5" y="-673" font-family="Courier,monospace" font-size="10.00">libMesh::ParallelObject</text>
</a>
</g>
</g>
<!-- Node8&#45;&gt;Node3 -->
<g id="edge7" class="edge">
<title>Node8&#45;&gt;Node3</title>
<path fill="none" stroke="#63b8ff" d="M344.77,-687.37C379.7,-693.35 420.85,-700.4 450.68,-705.51"/>
<polygon fill="#63b8ff" stroke="#63b8ff" points="345.61,-683.96 335.16,-685.72 344.43,-690.86 345.61,-683.96"/>
</g>
<!-- Node9 -->
<g id="node9" class="node">
<title>Node9</title>
<g id="a_node9"><a xlink:href="classDataFileInterface.html" target="_top" xlink:title=" ">
<polygon fill="white" stroke="#666666" points="337,-647.5 212,-647.5 212,-617.5 337,-617.5 337,-647.5"/>
<text text-anchor="start" x="220" y="-635.5" font-family="Courier,monospace" font-size="10.00">DataFileInterface&lt;</text>
<text text-anchor="middle" x="274.5" y="-624.5" font-family="Courier,monospace" font-size="10.00"> MooseObject &gt;</text>
</a>
</g>
</g>
<!-- Node9&#45;&gt;Node3 -->
<g id="edge8" class="edge">
<title>Node9&#45;&gt;Node3</title>
<path fill="none" stroke="#63b8ff" d="M347.62,-649.35C353.32,-651.73 358.86,-654.44 364,-657.5 383.71,-669.24 379.83,-683.57 400,-694.5 415.37,-702.83 434.06,-707.34 450.53,-709.76"/>
<polygon fill="#63b8ff" stroke="#63b8ff" points="349.23,-646.22 338.64,-645.94 346.74,-652.76 349.23,-646.22"/>
</g>
<!-- Node10 -->
<g id="node10" class="node">
<title>Node10</title>
<g id="a_node10"><a xlink:href="classSetupInterface.html" target="_top" xlink:title=" ">
<polygon fill="white" stroke="#666666" points="543,-685 442,-685 442,-666 543,-666 543,-685"/>
<text text-anchor="middle" x="492.5" y="-673" font-family="Courier,monospace" font-size="10.00">SetupInterface</text>
</a>
</g>
</g>
<!-- Node10&#45;&gt;Node2 -->
<g id="edge9" class="edge">
<title>Node10&#45;&gt;Node2</title>
<path fill="none" stroke="#63b8ff" d="M554.61,-670.68C565.37,-667.88 575.99,-663.7 585,-657.5 666.99,-601.04 710.5,-479.03 721.61,-444.05"/>
<polygon fill="#63b8ff" stroke="#63b8ff" points="553.92,-667.25 544.89,-672.8 555.41,-674.09 553.92,-667.25"/>
</g>
<!-- Node11 -->
<g id="node11" class="node">
<title>Node11</title>
<g id="a_node11"><a xlink:href="classFunctionInterface.html" target="_top" xlink:title="Interface for objects that need to use functions.">
<polygon fill="white" stroke="#666666" points="552,-648 433,-648 433,-629 552,-629 552,-648"/>
<text text-anchor="middle" x="492.5" y="-636" font-family="Courier,monospace" font-size="10.00">FunctionInterface</text>
</a>
</g>
</g>
<!-- Node11&#45;&gt;Node2 -->
<g id="edge10" class="edge">
<title>Node11&#45;&gt;Node2</title>
<path fill="none" stroke="darkgreen" d="M563.08,-630.49C570.8,-627.97 578.29,-624.71 585,-620.5 658.15,-574.56 706.48,-475.45 720.37,-444.17"/>
<polygon fill="darkgreen" stroke="darkgreen" points="562.2,-627.1 553.52,-633.17 564.09,-633.84 562.2,-627.1"/>
</g>
<!-- Node12 -->
<g id="node12" class="node">
<title>Node12</title>
<g id="a_node12"><a xlink:href="classUserObjectInterface.html" target="_top" xlink:title="Interface for objects that need to use UserObjects.">
<polygon fill="white" stroke="#666666" points="558,-611 427,-611 427,-592 558,-592 558,-611"/>
<text text-anchor="middle" x="492.5" y="-599" font-family="Courier,monospace" font-size="10.00">UserObjectInterface</text>
</a>
</g>
</g>
<!-- Node12&#45;&gt;Node2 -->
<g id="edge11" class="edge">
<title>Node12&#45;&gt;Node2</title>
<path fill="none" stroke="#63b8ff" d="M569.1,-590.62C574.63,-588.63 580,-586.27 585,-583.5 649.46,-547.76 701.26,-471.73 718.42,-444.48"/>
<polygon fill="#63b8ff" stroke="#63b8ff" points="568.23,-587.22 559.74,-593.57 570.33,-593.9 568.23,-587.22"/>
</g>
<!-- Node13 -->
<g id="node13" class="node">
<title>Node13</title>
<g id="a_node13"><a xlink:href="classPostprocessorInterface.html" target="_top" xlink:title="Interface class for classes which interact with Postprocessors.">
<polygon fill="white" stroke="#666666" points="567,-574 418,-574 418,-555 567,-555 567,-574"/>
<text text-anchor="middle" x="492.5" y="-562" font-family="Courier,monospace" font-size="10.00">PostprocessorInterface</text>
</a>
</g>
</g>
<!-- Node13&#45;&gt;Node2 -->
<g id="edge12" class="edge">
<title>Node13&#45;&gt;Node2</title>
<path fill="none" stroke="darkgreen" d="M573.95,-551.02C577.74,-549.66 581.44,-548.15 585,-546.5 641.32,-520.3 694.79,-466.68 715.48,-444.47"/>
<polygon fill="darkgreen" stroke="darkgreen" points="572.97,-547.66 564.53,-554.05 575.12,-554.32 572.97,-547.66"/>
</g>
<!-- Node14 -->
<g id="node14" class="node">
<title>Node14</title>
<g id="a_node14"><a xlink:href="classVectorPostprocessorInterface.html" target="_top" xlink:title=" ">
<polygon fill="white" stroke="#666666" points="585,-537 400,-537 400,-518 585,-518 585,-537"/>
<text text-anchor="middle" x="492.5" y="-525" font-family="Courier,monospace" font-size="10.00">VectorPostprocessorInterface</text>
</a>
</g>
</g>
<!-- Node14&#45;&gt;Node2 -->
<g id="edge13" class="edge">
<title>Node14&#45;&gt;Node2</title>
<path fill="none" stroke="darkgreen" d="M568.24,-514.73C573.97,-513.17 579.61,-511.43 585,-509.5 633.15,-492.26 684.97,-460.48 709.71,-444.39"/>
<polygon fill="darkgreen" stroke="darkgreen" points="567.48,-511.32 558.64,-517.16 569.19,-518.1 567.48,-511.32"/>
</g>
<!-- Node15 -->
<g id="node15" class="node">
<title>Node15</title>
<g id="a_node15"><a xlink:href="classReporterInterface.html" target="_top" xlink:title="Interface to allow object to consume Reporter values.">
<polygon fill="white" stroke="#666666" points="552,-500 433,-500 433,-481 552,-481 552,-500"/>
<text text-anchor="middle" x="492.5" y="-488" font-family="Courier,monospace" font-size="10.00">ReporterInterface</text>
</a>
</g>
</g>
<!-- Node15&#45;&gt;Node2 -->
<g id="edge14" class="edge">
<title>Node15&#45;&gt;Node2</title>
<path fill="none" stroke="darkgreen" d="M558.53,-478.3C567.45,-476.46 576.47,-474.5 585,-472.5 621.29,-464 662.42,-452.57 690.56,-444.48"/>
<polygon fill="darkgreen" stroke="darkgreen" points="557.93,-474.85 548.83,-480.27 559.32,-481.71 557.93,-474.85"/>
</g>
<!-- Node16 -->
<g id="node16" class="node">
<title>Node16</title>
<g id="a_node16"><a xlink:href="classDistributionInterface.html" target="_top" xlink:title="Interface for objects that need to use distributions.">
<polygon fill="white" stroke="#666666" points="564,-463 421,-463 421,-444 564,-444 564,-463"/>
<text text-anchor="middle" x="492.5" y="-451" font-family="Courier,monospace" font-size="10.00">DistributionInterface</text>
</a>
</g>
</g>
<!-- Node16&#45;&gt;Node2 -->
<g id="edge15" class="edge">
<title>Node16&#45;&gt;Node2</title>
<path fill="none" stroke="darkgreen" d="M575.43,-446.76C613.35,-443.64 656.56,-440.09 686.65,-437.61"/>
<polygon fill="darkgreen" stroke="darkgreen" points="575.57,-443.24 565.89,-447.55 576.14,-450.21 575.57,-443.24"/>
</g>
<!-- Node17 -->
<g id="node17" class="node">
<title>Node17</title>
<g id="a_node17"><a xlink:href="classSamplerInterface.html" target="_top" xlink:title="Interface for objects that need to use samplers.">
<polygon fill="white" stroke="#666666" points="549,-426 436,-426 436,-407 549,-407 549,-426"/>
<text text-anchor="middle" x="492.5" y="-414" font-family="Courier,monospace" font-size="10.00">SamplerInterface</text>
</a>
</g>
</g>
<!-- Node17&#45;&gt;Node2 -->
<g id="edge16" class="edge">
<title>Node17&#45;&gt;Node2</title>
<path fill="none" stroke="darkgreen" d="M560.71,-421.74C601.74,-424.93 652.7,-428.91 686.78,-431.56"/>
<polygon fill="darkgreen" stroke="darkgreen" points="561.17,-418.26 550.93,-420.97 560.63,-425.24 561.17,-418.26"/>
</g>
<!-- Node18 -->
<g id="node18" class="node">
<title>Node18</title>
<g id="a_node18"><a xlink:href="classRestartable.html" target="_top" xlink:title="A class for creating restricted objects.">
<polygon fill="white" stroke="#666666" points="534,-389 451,-389 451,-370 534,-370 534,-389"/>
<text text-anchor="middle" x="492.5" y="-377" font-family="Courier,monospace" font-size="10.00">Restartable</text>
</a>
</g>
</g>
<!-- Node18&#45;&gt;Node2 -->
<g id="edge17" class="edge">
<title>Node18&#45;&gt;Node2</title>
<path fill="none" stroke="darkgreen" d="M545.27,-389.8C558.27,-392.51 572.17,-395.51 585,-398.5 620.08,-406.66 659.83,-417.03 687.9,-424.55"/>
<polygon fill="darkgreen" stroke="darkgreen" points="546.11,-386.4 535.61,-387.81 544.7,-393.26 546.11,-386.4"/>
</g>
<!-- Node19 -->
<g id="node19" class="node">
<title>Node19</title>
<g id="a_node19"><a xlink:href="classMeshMetaDataInterface.html" target="_top" xlink:title="The Interface used to retrieve mesh meta data (attributes) set by the MeshGenerator system.">
<polygon fill="white" stroke="#666666" points="564,-352 421,-352 421,-333 564,-333 564,-352"/>
<text text-anchor="middle" x="492.5" y="-340" font-family="Courier,monospace" font-size="10.00">MeshMetaDataInterface</text>
</a>
</g>
</g>
<!-- Node19&#45;&gt;Node2 -->
<g id="edge18" class="edge">
<title>Node19&#45;&gt;Node2</title>
<path fill="none" stroke="darkgreen" d="M564.33,-355.15C571.39,-357.02 578.38,-359.13 585,-361.5 632.62,-378.53 684.26,-409.07 709.25,-424.7"/>
<polygon fill="darkgreen" stroke="darkgreen" points="565.25,-351.77 554.7,-352.77 563.56,-358.57 565.25,-351.77"/>
</g>
<!-- Node20 -->
<g id="node20" class="node">
<title>Node20</title>
<g id="a_node20"><a xlink:href="classMeshChangedInterface.html" target="_top" xlink:title="Interface for notifications that the mesh has changed.">
<polygon fill="white" stroke="#666666" points="561,-315 424,-315 424,-296 561,-296 561,-315"/>
<text text-anchor="middle" x="492.5" y="-303" font-family="Courier,monospace" font-size="10.00">MeshChangedInterface</text>
</a>
</g>
</g>
<!-- Node20&#45;&gt;Node2 -->
<g id="edge19" class="edge">
<title>Node20&#45;&gt;Node2</title>
<path fill="none" stroke="darkgreen" d="M570.63,-318.77C575.58,-320.46 580.41,-322.36 585,-324.5 640.91,-350.56 694.6,-403.04 715.42,-424.75"/>
<polygon fill="darkgreen" stroke="darkgreen" points="571.71,-315.44 561.12,-315.85 569.65,-322.13 571.71,-315.44"/>
</g>
<!-- Node21 -->
<g id="node21" class="node">
<title>Node21</title>
<g id="a_node21"><a xlink:href="classScalarCoupleable.html" target="_top" xlink:title="Interface for objects that needs scalar coupling capabilities.">
<polygon fill="white" stroke="#666666" points="549,-278 436,-278 436,-259 549,-259 549,-278"/>
<text text-anchor="middle" x="492.5" y="-266" font-family="Courier,monospace" font-size="10.00">ScalarCoupleable</text>
</a>
</g>
</g>
<!-- Node21&#45;&gt;Node2 -->
<g id="edge20" class="edge">
<title>Node21&#45;&gt;Node2</title>
<path fill="none" stroke="darkgreen" d="M560.14,-277.34C568.81,-279.91 577.33,-283.23 585,-287.5 648.93,-323.11 701.07,-397.9 718.37,-424.69"/>
<polygon fill="darkgreen" stroke="darkgreen" points="561.16,-273.99 550.6,-274.84 559.39,-280.76 561.16,-273.99"/>
</g>
<!-- Node22 -->
<g id="node22" class="node">
<title>Node22</title>
<g id="a_node22"><a xlink:href="classPerfGraphInterface.html" target="_top" xlink:title="Interface for objects interacting with the PerfGraph.">
<polygon fill="white" stroke="#666666" points="555,-241 430,-241 430,-222 555,-222 555,-241"/>
<text text-anchor="middle" x="492.5" y="-229" font-family="Courier,monospace" font-size="10.00">PerfGraphInterface</text>
</a>
</g>
</g>
<!-- Node22&#45;&gt;Node2 -->
<g id="edge21" class="edge">
<title>Node22&#45;&gt;Node2</title>
<path fill="none" stroke="darkgreen" d="M566.03,-241.39C572.71,-243.81 579.15,-246.8 585,-250.5 657.19,-296.1 705.82,-393.2 720.12,-424.53"/>
<polygon fill="darkgreen" stroke="darkgreen" points="567.44,-238.17 556.85,-238.5 565.34,-244.84 567.44,-238.17"/>
</g>
<!-- Node23 -->
<g id="node23" class="node">
<title>Node23</title>
<g id="a_node23"><a xlink:href="classDependencyResolverInterface.html" target="_top" xlink:title="Interface for sorting dependent vectors of objects.">
<polygon fill="white" stroke="#666666" points="582,-204 403,-204 403,-185 582,-185 582,-204"/>
<text text-anchor="middle" x="492.5" y="-192" font-family="Courier,monospace" font-size="10.00">DependencyResolverInterface</text>
</a>
</g>
</g>
<!-- Node23&#45;&gt;Node2 -->
<g id="edge22" class="edge">
<title>Node23&#45;&gt;Node2</title>
<path fill="none" stroke="#63b8ff" d="M577.97,-209.18C580.4,-210.5 582.75,-211.94 585,-213.5 665.91,-269.6 709.89,-389.39 721.41,-424.58"/>
<polygon fill="#63b8ff" stroke="#63b8ff" points="579.52,-206.04 568.98,-204.99 576.57,-212.39 579.52,-206.04"/>
</g>
<!-- Node24 -->
<g id="node24" class="node">
<title>Node24</title>
<g id="a_node24"><a xlink:href="classBlockRestrictable.html" target="_top" xlink:title="An interface that restricts an object to subdomains via the &#39;blocks&#39; input parameter.">
<polygon fill="white" stroke="#666666" points="785,-204 666,-204 666,-185 785,-185 785,-204"/>
<text text-anchor="middle" x="725.5" y="-192" font-family="Courier,monospace" font-size="10.00">BlockRestrictable</text>
</a>
</g>
</g>
<!-- Node24&#45;&gt;Node1 -->
<g id="edge23" class="edge">
<title>Node24&#45;&gt;Node1</title>
<path fill="none" stroke="#63b8ff" d="M796.53,-185.27C807.86,-182.94 819.36,-180.05 830,-176.5 865.24,-164.73 903.16,-143.09 923.84,-130.43"/>
<polygon fill="#63b8ff" stroke="#63b8ff" points="795.94,-181.82 786.77,-187.14 797.25,-188.7 795.94,-181.82"/>
</g>
<!-- Node25 -->
<g id="node25" class="node">
<title>Node25</title>
<g id="a_node25"><a xlink:href="classTwoMaterialPropertyInterface.html" target="_top" xlink:title="This interface is designed for DGKernel, InternalSideUserObject, InterfaceUserObject,...">
<polygon fill="white" stroke="#666666" points="818,-167 633,-167 633,-148 818,-148 818,-167"/>
<text text-anchor="middle" x="725.5" y="-155" font-family="Courier,monospace" font-size="10.00">TwoMaterialPropertyInterface</text>
</a>
</g>
</g>
<!-- Node25&#45;&gt;Node1 -->
<g id="edge24" class="edge">
<title>Node25&#45;&gt;Node1</title>
<path fill="none" stroke="#63b8ff" d="M795.19,-145.57C823.23,-140.7 855.27,-135.13 882.04,-130.48"/>
<polygon fill="#63b8ff" stroke="#63b8ff" points="794.6,-142.12 785.35,-147.28 795.8,-149.01 794.6,-142.12"/>
</g>
<!-- Node26 -->
<g id="node26" class="node">
<title>Node26</title>
<g id="a_node26"><a xlink:href="classMaterialPropertyInterface.html" target="_top" xlink:title="An interface for accessing Materials.">
<polygon fill="white" stroke="#666666" points="576,-167 409,-167 409,-148 576,-148 576,-167"/>
<text text-anchor="middle" x="492.5" y="-155" font-family="Courier,monospace" font-size="10.00">MaterialPropertyInterface</text>
</a>
</g>
</g>
<!-- Node26&#45;&gt;Node25 -->
<g id="edge25" class="edge">
<title>Node26&#45;&gt;Node25</title>
<path fill="none" stroke="#63b8ff" d="M587.5,-157.5C602.36,-157.5 617.72,-157.5 632.54,-157.5"/>
<polygon fill="#63b8ff" stroke="#63b8ff" points="587.76,-154 577.76,-157.5 587.76,-161 587.76,-154"/>
</g>
<!-- Node27 -->
<g id="node27" class="node">
<title>Node27</title>
<g id="a_node27"><a xlink:href="classNeighborCoupleable.html" target="_top" xlink:title="Enhances Coupleable interface to also couple the values from neighbor elements.">
<polygon fill="white" stroke="#666666" points="788,-130 663,-130 663,-111 788,-111 788,-130"/>
<text text-anchor="middle" x="725.5" y="-118" font-family="Courier,monospace" font-size="10.00">NeighborCoupleable</text>
</a>
</g>
</g>
<!-- Node27&#45;&gt;Node1 -->
<g id="edge26" class="edge">
<title>Node27&#45;&gt;Node1</title>
<path fill="none" stroke="#63b8ff" d="M799.69,-120.5C821.04,-120.5 844.38,-120.5 865.77,-120.5"/>
<polygon fill="#63b8ff" stroke="#63b8ff" points="799.91,-117 789.91,-120.5 799.91,-124 799.91,-117"/>
</g>
<!-- Node28 -->
<g id="node28" class="node">
<title>Node28</title>
<g id="a_node28"><a xlink:href="classCoupleable.html" target="_top" xlink:title="Interface for objects that needs coupling capabilities.">
<polygon fill="white" stroke="#666666" points="531,-130 454,-130 454,-111 531,-111 531,-130"/>
<text text-anchor="middle" x="492.5" y="-118" font-family="Courier,monospace" font-size="10.00">Coupleable</text>
</a>
</g>
</g>
<!-- Node28&#45;&gt;Node27 -->
<g id="edge27" class="edge">
<title>Node28&#45;&gt;Node27</title>
<path fill="none" stroke="#63b8ff" d="M542.76,-120.5C577.79,-120.5 625.09,-120.5 662.66,-120.5"/>
<polygon fill="#63b8ff" stroke="#63b8ff" points="542.9,-117 532.9,-120.5 542.9,-124 542.9,-117"/>
</g>
<!-- Node29 -->
<g id="node29" class="node">
<title>Node29</title>
<g id="a_node29"><a xlink:href="classMooseVariableDependencyInterface.html" target="_top" xlink:title=" ">
<polygon fill="white" stroke="#666666" points="830,-93 621,-93 621,-74 830,-74 830,-93"/>
<text text-anchor="middle" x="725.5" y="-81" font-family="Courier,monospace" font-size="10.00">MooseVariableDependencyInterface</text>
</a>
</g>
</g>
<!-- Node29&#45;&gt;Node1 -->
<g id="edge28" class="edge">
<title>Node29&#45;&gt;Node1</title>
<path fill="none" stroke="#63b8ff" d="M795.19,-95.43C823.23,-100.3 855.27,-105.87 882.04,-110.52"/>
<polygon fill="#63b8ff" stroke="#63b8ff" points="795.8,-91.99 785.35,-93.72 794.6,-98.88 795.8,-91.99"/>
</g>
<!-- Node30 -->
<g id="node30" class="node">
<title>Node30</title>
<g id="a_node30"><a xlink:href="classTransientInterface.html" target="_top" xlink:title="Interface for objects that needs transient capabilities.">
<polygon fill="white" stroke="#666666" points="788,-56 663,-56 663,-37 788,-37 788,-56"/>
<text text-anchor="middle" x="725.5" y="-44" font-family="Courier,monospace" font-size="10.00">TransientInterface</text>
</a>
</g>
</g>
<!-- Node30&#45;&gt;Node1 -->
<g id="edge29" class="edge">
<title>Node30&#45;&gt;Node1</title>
<path fill="none" stroke="#63b8ff" d="M799.45,-57.19C809.82,-59.49 820.27,-62.24 830,-65.5 864.89,-77.2 902.63,-98.2 923.44,-110.59"/>
<polygon fill="#63b8ff" stroke="#63b8ff" points="800.24,-53.78 789.73,-55.18 798.82,-60.64 800.24,-53.78"/>
</g>
<!-- Node31 -->
<g id="node31" class="node">
<title>Node31</title>
<g id="a_node31"><a xlink:href="classElementIDInterface.html" target="_top" xlink:title=" ">
<polygon fill="white" stroke="#666666" points="788,-19 663,-19 663,0 788,0 788,-19"/>
<text text-anchor="middle" x="725.5" y="-7" font-family="Courier,monospace" font-size="10.00">ElementIDInterface</text>
</a>
</g>
</g>
<!-- Node31&#45;&gt;Node1 -->
<g id="edge30" class="edge">
<title>Node31&#45;&gt;Node1</title>
<path fill="none" stroke="#63b8ff" d="M799.33,-17.93C809.9,-20.55 820.43,-23.99 830,-28.5 873.58,-49.02 913.99,-91.28 931.01,-110.54"/>
<polygon fill="#63b8ff" stroke="#63b8ff" points="800.33,-14.57 789.81,-15.81 798.81,-21.4 800.33,-14.57"/>
</g>
<!-- Node33 -->
<g id="node33" class="node">
<title>Node33</title>
<g id="a_node33"><a xlink:href="classInternalSideIntegralPostprocessor.html" target="_top" xlink:title="This postprocessor computes a surface integral of the specified variable on internal sides of the mes...">
<polygon fill="white" stroke="#666666" points="1505,-149 1290,-149 1290,-130 1505,-130 1505,-149"/>
<text text-anchor="middle" x="1397.5" y="-137" font-family="Courier,monospace" font-size="10.00">InternalSideIntegralPostprocessor</text>
</a>
</g>
</g>
<!-- Node32&#45;&gt;Node33 -->
<g id="edge32" class="edge">
<title>Node32&#45;&gt;Node33</title>
<path fill="none" stroke="#63b8ff" d="M1247.87,-139.5C1261.63,-139.5 1275.88,-139.5 1289.87,-139.5"/>
<polygon fill="#63b8ff" stroke="#63b8ff" points="1247.96,-136 1237.96,-139.5 1247.96,-143 1247.96,-136"/>
</g>
<!-- Node34 -->
<g id="node34" class="node">
<title>Node34</title>
<g id="a_node34"><a xlink:href="classInternalSideIntegralVariablePostprocessor.html" target="_top" xlink:title="This postprocessor computes an integral on internal mesh sides of the specified variable.">
<polygon fill="white" stroke="#666666" points="1726,-154.5 1541,-154.5 1541,-124.5 1726,-124.5 1726,-154.5"/>
<text text-anchor="start" x="1549" y="-142.5" font-family="Courier,monospace" font-size="10.00">InternalSideIntegralVariable</text>
<text text-anchor="middle" x="1633.5" y="-131.5" font-family="Courier,monospace" font-size="10.00">Postprocessor</text>
</a>
</g>
</g>
<!-- Node33&#45;&gt;Node34 -->
<g id="edge33" class="edge">
<title>Node33&#45;&gt;Node34</title>
<path fill="none" stroke="#63b8ff" d="M1516.61,-139.5C1524.66,-139.5 1532.71,-139.5 1540.6,-139.5"/>
<polygon fill="#63b8ff" stroke="#63b8ff" points="1516.74,-136 1506.74,-139.5 1516.74,-143 1516.74,-136"/>
</g>
<!-- Node35 -->
<g id="node35" class="node">
<title>Node35</title>
<g id="a_node35"><a xlink:href="classElementSidesL2Norm.html" target="_top" xlink:title="This postprocessor computes the L2 norm of a variable over element sides.">
<polygon fill="white" stroke="#666666" points="1887,-149 1762,-149 1762,-130 1887,-130 1887,-149"/>
<text text-anchor="middle" x="1824.5" y="-137" font-family="Courier,monospace" font-size="10.00">ElementSidesL2Norm</text>
</a>
</g>
</g>
<!-- Node34&#45;&gt;Node35 -->
<g id="edge34" class="edge">
<title>Node34&#45;&gt;Node35</title>
<path fill="none" stroke="#63b8ff" d="M1737.51,-139.5C1745.76,-139.5 1753.92,-139.5 1761.75,-139.5"/>
<polygon fill="#63b8ff" stroke="#63b8ff" points="1737.75,-136 1727.75,-139.5 1737.75,-143 1737.75,-136"/>
</g>
</g>
</svg>
