<?xml version="1.0" encoding="UTF-8" standalone="no"?>
<!DOCTYPE svg PUBLIC "-//W3C//DTD SVG 1.1//EN"
 "http://www.w3.org/Graphics/SVG/1.1/DTD/svg11.dtd">
<!-- Generated by graphviz version 7.0.5 (20221223.1930)
 -->
<!-- Title: FVKernel Pages: 1 -->
<svg width="1422pt" height="579pt"
 viewBox="0.00 0.00 1422.00 579.00" xmlns="http://www.w3.org/2000/svg" xmlns:xlink="http://www.w3.org/1999/xlink">
<g id="graph0" class="graph" transform="scale(1 1) rotate(0) translate(4 575)">
<title>FVKernel</title>
<!-- Node1 -->
<g id="node1" class="node">
<title>Node1</title>
<g id="a_node1"><a xlink:title="FVKernel is a base class for all finite volume method kernels.">
<polygon fill="#999999" stroke="#666666" points="847,-228 782,-228 782,-209 847,-209 847,-228"/>
<text text-anchor="middle" x="814.5" y="-216" font-family="Courier,monospace" font-size="10.00">FVKernel</text>
</a>
</g>
</g>
<!-- Node23 -->
<g id="node23" class="node">
<title>Node23</title>
<g id="a_node23"><a xlink:href="classFVElementalKernel.html" target="_top" xlink:title="FVElemental is used for calculating residual contributions from volume integral terms of a PDE where ...">
<polygon fill="white" stroke="#666666" points="1002,-327 883,-327 883,-308 1002,-308 1002,-327"/>
<text text-anchor="middle" x="942.5" y="-315" font-family="Courier,monospace" font-size="10.00">FVElementalKernel</text>
</a>
</g>
</g>
<!-- Node1&#45;&gt;Node23 -->
<g id="edge22" class="edge">
<title>Node1&#45;&gt;Node23</title>
<path fill="none" stroke="#63b8ff" d="M836.92,-235.33C863.38,-256.12 907.53,-290.81 929.01,-307.69"/>
<polygon fill="#63b8ff" stroke="#63b8ff" points="839.26,-232.72 829.23,-229.29 834.93,-238.22 839.26,-232.72"/>
</g>
<!-- Node33 -->
<g id="node33" class="node">
<title>Node33</title>
<g id="a_node33"><a xlink:href="classFVFluxKernel.html" target="_top" xlink:title="FVFluxKernel is used for calculating residual contributions from numerical fluxes from surface integr...">
<polygon fill="white" stroke="#666666" points="987,-130 898,-130 898,-111 987,-111 987,-130"/>
<text text-anchor="middle" x="942.5" y="-118" font-family="Courier,monospace" font-size="10.00">FVFluxKernel</text>
</a>
</g>
</g>
<!-- Node1&#45;&gt;Node33 -->
<g id="edge32" class="edge">
<title>Node1&#45;&gt;Node33</title>
<path fill="none" stroke="#63b8ff" d="M836.92,-201.84C863.38,-181.26 907.53,-146.92 929.01,-130.22"/>
<polygon fill="#63b8ff" stroke="#63b8ff" points="834.98,-198.91 829.24,-207.82 839.28,-204.44 834.98,-198.91"/>
</g>
<!-- Node2 -->
<g id="node2" class="node">
<title>Node2</title>
<g id="a_node2"><a xlink:href="classResidualObject.html" target="_top" xlink:title="This is the common base class for objects that give residual contributions.">
<polygon fill="white" stroke="#666666" points="734,-293 633,-293 633,-274 734,-274 734,-293"/>
<text text-anchor="middle" x="683.5" y="-281" font-family="Courier,monospace" font-size="10.00">ResidualObject</text>
</a>
</g>
</g>
<!-- Node2&#45;&gt;Node1 -->
<g id="edge1" class="edge">
<title>Node2&#45;&gt;Node1</title>
<path fill="none" stroke="#63b8ff" d="M714.23,-268.52C738.64,-256.22 772.53,-239.14 793.72,-228.47"/>
<polygon fill="#63b8ff" stroke="#63b8ff" points="712.8,-265.32 705.44,-272.95 715.95,-271.57 712.8,-265.32"/>
</g>
<!-- Node3 -->
<g id="node3" class="node">
<title>Node3</title>
<g id="a_node3"><a xlink:href="classMooseObject.html" target="_top" xlink:title="Every object that can be built by the factory should be derived from this class.">
<polygon fill="white" stroke="#666666" points="534,-497 451,-497 451,-478 534,-478 534,-497"/>
<text text-anchor="middle" x="492.5" y="-485" font-family="Courier,monospace" font-size="10.00">MooseObject</text>
</a>
</g>
</g>
<!-- Node3&#45;&gt;Node2 -->
<g id="edge2" class="edge">
<title>Node3&#45;&gt;Node2</title>
<path fill="none" stroke="#63b8ff" d="M545.44,-485.39C559.34,-482.77 573.64,-477.98 585,-469.5 647.53,-422.84 673.65,-324.21 680.54,-293.11"/>
<polygon fill="#63b8ff" stroke="#63b8ff" points="545.31,-481.87 535.95,-486.83 546.36,-488.79 545.31,-481.87"/>
</g>
<!-- Node4 -->
<g id="node4" class="node">
<title>Node4</title>
<g id="a_node4"><a xlink:href="classMooseBase.html" target="_top" xlink:title="Base class for everything in MOOSE with a name and a type.">
<polygon fill="white" stroke="#666666" points="310,-571 239,-571 239,-552 310,-552 310,-571"/>
<text text-anchor="middle" x="274.5" y="-559" font-family="Courier,monospace" font-size="10.00">MooseBase</text>
</a>
</g>
</g>
<!-- Node4&#45;&gt;Node3 -->
<g id="edge3" class="edge">
<title>Node4&#45;&gt;Node3</title>
<path fill="none" stroke="#63b8ff" d="M321.62,-554.05C335.41,-551.31 350.46,-547.8 364,-543.5 403.87,-530.85 448.08,-509.72 472.56,-497.35"/>
<polygon fill="#63b8ff" stroke="#63b8ff" points="321.06,-550.59 311.89,-555.89 322.36,-557.47 321.06,-550.59"/>
</g>
<!-- Node5 -->
<g id="node5" class="node">
<title>Node5</title>
<g id="a_node5"><a xlink:href="classMooseBaseParameterInterface.html" target="_top" xlink:title="Every object that can be built by the factory should be derived from this class.">
<polygon fill="white" stroke="#666666" points="364,-534 185,-534 185,-515 364,-515 364,-534"/>
<text text-anchor="middle" x="274.5" y="-522" font-family="Courier,monospace" font-size="10.00">MooseBaseParameterInterface</text>
</a>
</g>
</g>
<!-- Node5&#45;&gt;Node3 -->
<g id="edge4" class="edge">
<title>Node5&#45;&gt;Node3</title>
<path fill="none" stroke="#63b8ff" d="M344.77,-512.63C379.7,-506.65 420.85,-499.6 450.68,-494.49"/>
<polygon fill="#63b8ff" stroke="#63b8ff" points="344.43,-509.14 335.16,-514.28 345.61,-516.04 344.43,-509.14"/>
</g>
<!-- Node6 -->
<g id="node6" class="node">
<title>Node6</title>
<g id="a_node6"><a xlink:href="classMooseBaseErrorInterface.html" target="_top" xlink:title="Interface that provides APIs to output errors/warnings/info messages.">
<polygon fill="white" stroke="#666666" points="352,-497 197,-497 197,-478 352,-478 352,-497"/>
<text text-anchor="middle" x="274.5" y="-485" font-family="Courier,monospace" font-size="10.00">MooseBaseErrorInterface</text>
</a>
</g>
</g>
<!-- Node6&#45;&gt;Node3 -->
<g id="edge5" class="edge">
<title>Node6&#45;&gt;Node3</title>
<path fill="none" stroke="#63b8ff" d="M363.7,-487.5C393.87,-487.5 426.17,-487.5 450.75,-487.5"/>
<polygon fill="#63b8ff" stroke="#63b8ff" points="363.78,-484 353.78,-487.5 363.78,-491 363.78,-484"/>
</g>
<!-- Node7 -->
<g id="node7" class="node">
<title>Node7</title>
<g id="a_node7"><a xlink:href="classConsoleStreamInterface.html" target="_top" xlink:title="An inteface for the _console for outputting to the Console object.">
<polygon fill="white" stroke="#666666" points="149,-497 0,-497 0,-478 149,-478 149,-497"/>
<text text-anchor="middle" x="74.5" y="-485" font-family="Courier,monospace" font-size="10.00">ConsoleStreamInterface</text>
</a>
</g>
</g>
<!-- Node7&#45;&gt;Node6 -->
<g id="edge6" class="edge">
<title>Node7&#45;&gt;Node6</title>
<path fill="none" stroke="#63b8ff" d="M160.62,-487.5C172.62,-487.5 184.9,-487.5 196.73,-487.5"/>
<polygon fill="#63b8ff" stroke="#63b8ff" points="160.74,-484 150.74,-487.5 160.74,-491 160.74,-484"/>
</g>
<!-- Node8 -->
<g id="node8" class="node">
<title>Node8</title>
<g id="a_node8"><a xlink:title=" ">
<polygon fill="white" stroke="#666666" points="352,-460 197,-460 197,-441 352,-441 352,-460"/>
<text text-anchor="middle" x="274.5" y="-448" font-family="Courier,monospace" font-size="10.00">libMesh::ParallelObject</text>
</a>
</g>
</g>
<!-- Node8&#45;&gt;Node3 -->
<g id="edge7" class="edge">
<title>Node8&#45;&gt;Node3</title>
<path fill="none" stroke="#63b8ff" d="M344.77,-462.37C379.7,-468.35 420.85,-475.4 450.68,-480.51"/>
<polygon fill="#63b8ff" stroke="#63b8ff" points="345.61,-458.96 335.16,-460.72 344.43,-465.86 345.61,-458.96"/>
</g>
<!-- Node9 -->
<g id="node9" class="node">
<title>Node9</title>
<g id="a_node9"><a xlink:href="classDataFileInterface.html" target="_top" xlink:title=" ">
<polygon fill="white" stroke="#666666" points="337,-422.5 212,-422.5 212,-392.5 337,-392.5 337,-422.5"/>
<text text-anchor="start" x="220" y="-410.5" font-family="Courier,monospace" font-size="10.00">DataFileInterface&lt;</text>
<text text-anchor="middle" x="274.5" y="-399.5" font-family="Courier,monospace" font-size="10.00"> MooseObject &gt;</text>
</a>
</g>
</g>
<!-- Node9&#45;&gt;Node3 -->
<g id="edge8" class="edge">
<title>Node9&#45;&gt;Node3</title>
<path fill="none" stroke="#63b8ff" d="M347.62,-424.35C353.32,-426.73 358.86,-429.44 364,-432.5 383.71,-444.24 379.83,-458.57 400,-469.5 415.37,-477.83 434.06,-482.34 450.53,-484.76"/>
<polygon fill="#63b8ff" stroke="#63b8ff" points="349.23,-421.22 338.64,-420.94 346.74,-427.76 349.23,-421.22"/>
</g>
<!-- Node10 -->
<g id="node10" class="node">
<title>Node10</title>
<g id="a_node10"><a xlink:href="classSetupInterface.html" target="_top" xlink:title=" ">
<polygon fill="white" stroke="#666666" points="543,-460 442,-460 442,-441 543,-441 543,-460"/>
<text text-anchor="middle" x="492.5" y="-448" font-family="Courier,monospace" font-size="10.00">SetupInterface</text>
</a>
</g>
</g>
<!-- Node10&#45;&gt;Node2 -->
<g id="edge9" class="edge">
<title>Node10&#45;&gt;Node2</title>
<path fill="none" stroke="#63b8ff" d="M554.51,-445.53C565.28,-442.75 575.93,-438.61 585,-432.5 638.33,-396.58 669.36,-320.67 679.13,-293.46"/>
<polygon fill="#63b8ff" stroke="#63b8ff" points="553.81,-442.1 544.79,-447.64 555.3,-448.94 553.81,-442.1"/>
</g>
<!-- Node11 -->
<g id="node11" class="node">
<title>Node11</title>
<g id="a_node11"><a xlink:href="classFunctionInterface.html" target="_top" xlink:title="Interface for objects that need to use functions.">
<polygon fill="white" stroke="#666666" points="552,-423 433,-423 433,-404 552,-404 552,-423"/>
<text text-anchor="middle" x="492.5" y="-411" font-family="Courier,monospace" font-size="10.00">FunctionInterface</text>
</a>
</g>
</g>
<!-- Node11&#45;&gt;Node2 -->
<g id="edge10" class="edge">
<title>Node11&#45;&gt;Node2</title>
<path fill="none" stroke="#63b8ff" d="M563.11,-404.91C570.77,-402.49 578.24,-399.41 585,-395.5 629.86,-369.56 664.38,-315.31 677.14,-293.2"/>
<polygon fill="#63b8ff" stroke="#63b8ff" points="562.38,-401.48 553.66,-407.5 564.23,-408.23 562.38,-401.48"/>
</g>
<!-- Node12 -->
<g id="node12" class="node">
<title>Node12</title>
<g id="a_node12"><a xlink:href="classUserObjectInterface.html" target="_top" xlink:title="Interface for objects that need to use UserObjects.">
<polygon fill="white" stroke="#666666" points="558,-386 427,-386 427,-367 558,-367 558,-386"/>
<text text-anchor="middle" x="492.5" y="-374" font-family="Courier,monospace" font-size="10.00">UserObjectInterface</text>
</a>
</g>
</g>
<!-- Node12&#45;&gt;Node2 -->
<g id="edge11" class="edge">
<title>Node12&#45;&gt;Node2</title>
<path fill="none" stroke="#63b8ff" d="M568.92,-364.6C574.46,-362.84 579.88,-360.82 585,-358.5 621.38,-342.04 656.64,-309.61 673,-293.32"/>
<polygon fill="#63b8ff" stroke="#63b8ff" points="568.28,-361.14 559.63,-367.26 570.2,-367.87 568.28,-361.14"/>
</g>
<!-- Node13 -->
<g id="node13" class="node">
<title>Node13</title>
<g id="a_node13"><a xlink:href="classTransientInterface.html" target="_top" xlink:title="Interface for objects that needs transient capabilities.">
<polygon fill="white" stroke="#666666" points="555,-349 430,-349 430,-330 555,-330 555,-349"/>
<text text-anchor="middle" x="492.5" y="-337" font-family="Courier,monospace" font-size="10.00">TransientInterface</text>
</a>
</g>
</g>
<!-- Node13&#45;&gt;Node2 -->
<g id="edge12" class="edge">
<title>Node13&#45;&gt;Node2</title>
<path fill="none" stroke="#63b8ff" d="M563.5,-327.06C570.81,-325.37 578.08,-323.51 585,-321.5 611.52,-313.79 640.92,-301.84 660.43,-293.4"/>
<polygon fill="#63b8ff" stroke="#63b8ff" points="562.93,-323.6 553.92,-329.18 564.44,-330.44 562.93,-323.6"/>
</g>
<!-- Node14 -->
<g id="node14" class="node">
<title>Node14</title>
<g id="a_node14"><a xlink:href="classPostprocessorInterface.html" target="_top" xlink:title="Interface class for classes which interact with Postprocessors.">
<polygon fill="white" stroke="#666666" points="567,-312 418,-312 418,-293 567,-293 567,-312"/>
<text text-anchor="middle" x="492.5" y="-300" font-family="Courier,monospace" font-size="10.00">PostprocessorInterface</text>
</a>
</g>
</g>
<!-- Node14&#45;&gt;Node2 -->
<g id="edge13" class="edge">
<title>Node14&#45;&gt;Node2</title>
<path fill="none" stroke="#63b8ff" d="M578.76,-293.93C597.17,-292.08 616.05,-290.18 632.57,-288.52"/>
<polygon fill="#63b8ff" stroke="#63b8ff" points="578.49,-290.44 568.89,-294.92 579.19,-297.4 578.49,-290.44"/>
</g>
<!-- Node15 -->
<g id="node15" class="node">
<title>Node15</title>
<g id="a_node15"><a xlink:href="classVectorPostprocessorInterface.html" target="_top" xlink:title=" ">
<polygon fill="white" stroke="#666666" points="585,-275 400,-275 400,-256 585,-256 585,-275"/>
<text text-anchor="middle" x="492.5" y="-263" font-family="Courier,monospace" font-size="10.00">VectorPostprocessorInterface</text>
</a>
</g>
</g>
<!-- Node15&#45;&gt;Node2 -->
<g id="edge14" class="edge">
<title>Node15&#45;&gt;Node2</title>
<path fill="none" stroke="#63b8ff" d="M596.35,-275.3C608.97,-276.5 621.39,-277.68 632.69,-278.76"/>
<polygon fill="#63b8ff" stroke="#63b8ff" points="597.03,-271.84 586.74,-274.38 596.36,-278.81 597.03,-271.84"/>
</g>
<!-- Node16 -->
<g id="node16" class="node">
<title>Node16</title>
<g id="a_node16"><a xlink:href="classRandomInterface.html" target="_top" xlink:title="Interface for objects that need parallel consistent random numbers without patterns over the course o...">
<polygon fill="white" stroke="#666666" points="546,-238 439,-238 439,-219 546,-219 546,-238"/>
<text text-anchor="middle" x="492.5" y="-226" font-family="Courier,monospace" font-size="10.00">RandomInterface</text>
</a>
</g>
</g>
<!-- Node16&#45;&gt;Node2 -->
<g id="edge15" class="edge">
<title>Node16&#45;&gt;Node2</title>
<path fill="none" stroke="#63b8ff" d="M557.05,-240.42C566.48,-242.55 576.03,-244.93 585,-247.5 610.67,-254.86 639.25,-265.74 658.79,-273.61"/>
<polygon fill="#63b8ff" stroke="#63b8ff" points="558.08,-237.06 547.57,-238.34 556.59,-243.9 558.08,-237.06"/>
</g>
<!-- Node17 -->
<g id="node17" class="node">
<title>Node17</title>
<g id="a_node17"><a xlink:href="classRestartable.html" target="_top" xlink:title="A class for creating restricted objects.">
<polygon fill="white" stroke="#666666" points="534,-201 451,-201 451,-182 534,-182 534,-201"/>
<text text-anchor="middle" x="492.5" y="-189" font-family="Courier,monospace" font-size="10.00">Restartable</text>
</a>
</g>
</g>
<!-- Node17&#45;&gt;Node2 -->
<g id="edge16" class="edge">
<title>Node17&#45;&gt;Node2</title>
<path fill="none" stroke="#63b8ff" d="M545.28,-198.15C558.59,-200.96 572.64,-204.92 585,-210.5 603.23,-218.73 604.99,-225.51 621,-237.5 637.65,-249.97 656.84,-264.32 669.3,-273.63"/>
<polygon fill="#63b8ff" stroke="#63b8ff" points="546.29,-194.78 535.81,-196.34 544.98,-201.66 546.29,-194.78"/>
</g>
<!-- Node18 -->
<g id="node18" class="node">
<title>Node18</title>
<g id="a_node18"><a xlink:href="classMeshChangedInterface.html" target="_top" xlink:title="Interface for notifications that the mesh has changed.">
<polygon fill="white" stroke="#666666" points="561,-164 424,-164 424,-145 561,-145 561,-164"/>
<text text-anchor="middle" x="492.5" y="-152" font-family="Courier,monospace" font-size="10.00">MeshChangedInterface</text>
</a>
</g>
</g>
<!-- Node18&#45;&gt;Node2 -->
<g id="edge17" class="edge">
<title>Node18&#45;&gt;Node2</title>
<path fill="none" stroke="#63b8ff" d="M571.79,-165.8C576.46,-167.97 580.91,-170.51 585,-173.5 611.34,-192.77 599.47,-212.97 621,-237.5 633.93,-252.23 652.29,-265.21 665.58,-273.59"/>
<polygon fill="#63b8ff" stroke="#63b8ff" points="573.29,-162.63 562.7,-162.21 570.72,-169.14 573.29,-162.63"/>
</g>
<!-- Node19 -->
<g id="node19" class="node">
<title>Node19</title>
<g id="a_node19"><a xlink:href="classTaggingInterface.html" target="_top" xlink:title=" ">
<polygon fill="white" stroke="#666666" points="549,-127 436,-127 436,-108 549,-108 549,-127"/>
<text text-anchor="middle" x="492.5" y="-115" font-family="Courier,monospace" font-size="10.00">TaggingInterface</text>
</a>
</g>
</g>
<!-- Node19&#45;&gt;Node2 -->
<g id="edge18" class="edge">
<title>Node19&#45;&gt;Node2</title>
<path fill="none" stroke="#63b8ff" d="M560.5,-122.99C569.45,-126.03 577.95,-130.36 585,-136.5 620.93,-167.8 592.71,-199.15 621,-237.5 632.4,-252.95 650.43,-265.57 664.03,-273.66"/>
<polygon fill="#63b8ff" stroke="#63b8ff" points="561.45,-119.62 550.88,-120.3 559.57,-126.37 561.45,-119.62"/>
</g>
<!-- Node20 -->
<g id="node20" class="node">
<title>Node20</title>
<g id="a_node20"><a xlink:href="classBlockRestrictable.html" target="_top" xlink:title="An interface that restricts an object to subdomains via the &#39;blocks&#39; input parameter.">
<polygon fill="white" stroke="#666666" points="743,-228 624,-228 624,-209 743,-209 743,-228"/>
<text text-anchor="middle" x="683.5" y="-216" font-family="Courier,monospace" font-size="10.00">BlockRestrictable</text>
</a>
</g>
</g>
<!-- Node20&#45;&gt;Node1 -->
<g id="edge19" class="edge">
<title>Node20&#45;&gt;Node1</title>
<path fill="none" stroke="#63b8ff" d="M754.77,-218.5C764.13,-218.5 773.32,-218.5 781.55,-218.5"/>
<polygon fill="#63b8ff" stroke="#63b8ff" points="754.85,-215 744.85,-218.5 754.85,-222 754.85,-215"/>
</g>
<!-- Node21 -->
<g id="node21" class="node">
<title>Node21</title>
<g id="a_node21"><a xlink:href="classADFunctorInterface.html" target="_top" xlink:title="An interface for accessing Moose::Functors for systems that care about automatic differentiation,...">
<polygon fill="white" stroke="#666666" points="746,-136 621,-136 621,-117 746,-117 746,-136"/>
<text text-anchor="middle" x="683.5" y="-124" font-family="Courier,monospace" font-size="10.00">ADFunctorInterface</text>
</a>
</g>
</g>
<!-- Node21&#45;&gt;Node1 -->
<g id="edge20" class="edge">
<title>Node21&#45;&gt;Node1</title>
<path fill="none" stroke="#63b8ff" d="M707.35,-142.8C734.16,-161.92 777.75,-193 799.79,-208.73"/>
<polygon fill="#63b8ff" stroke="#63b8ff" points="709.71,-140.18 699.54,-137.22 705.65,-145.88 709.71,-140.18"/>
</g>
<!-- Node22 -->
<g id="node22" class="node">
<title>Node22</title>
<g id="a_node22"><a xlink:href="classFunctorInterface.html" target="_top" xlink:title="An interface for accessing Moose::Functors.">
<polygon fill="white" stroke="#666666" points="549,-90 436,-90 436,-71 549,-71 549,-90"/>
<text text-anchor="middle" x="492.5" y="-78" font-family="Courier,monospace" font-size="10.00">FunctorInterface</text>
</a>
</g>
</g>
<!-- Node22&#45;&gt;Node21 -->
<g id="edge21" class="edge">
<title>Node22&#45;&gt;Node21</title>
<path fill="none" stroke="#63b8ff" d="M559.54,-92.79C568.13,-94.6 576.79,-96.52 585,-98.5 607.08,-103.83 631.67,-110.9 650.63,-116.6"/>
<polygon fill="#63b8ff" stroke="#63b8ff" points="560.32,-89.38 549.82,-90.8 558.92,-96.24 560.32,-89.38"/>
</g>
<!-- Node24 -->
<g id="node24" class="node">
<title>Node24</title>
<g id="a_node24"><a xlink:href="classFVBodyForce.html" target="_top" xlink:title="This kernel implements a generic functional body force term: $ &#45; c \cdof f$.">
<polygon fill="white" stroke="#666666" points="1166,-438 1083,-438 1083,-419 1166,-419 1166,-438"/>
<text text-anchor="middle" x="1124.5" y="-426" font-family="Courier,monospace" font-size="10.00">FVBodyForce</text>
</a>
</g>
</g>
<!-- Node23&#45;&gt;Node24 -->
<g id="edge23" class="edge">
<title>Node23&#45;&gt;Node24</title>
<path fill="none" stroke="#63b8ff" d="M957.14,-336.3C973.75,-357.74 1003.85,-392.18 1038,-410.5 1051.63,-417.82 1067.98,-422.16 1082.71,-424.74"/>
<polygon fill="#63b8ff" stroke="#63b8ff" points="960.02,-334.31 951.21,-328.42 954.43,-338.51 960.02,-334.31"/>
</g>
<!-- Node25 -->
<g id="node25" class="node">
<title>Node25</title>
<g id="a_node25"><a xlink:href="classFVCoupledForce.html" target="_top" xlink:title="Simple class to demonstrate off diagonal Jacobian contributions.">
<polygon fill="white" stroke="#666666" points="1175,-401 1074,-401 1074,-382 1175,-382 1175,-401"/>
<text text-anchor="middle" x="1124.5" y="-389" font-family="Courier,monospace" font-size="10.00">FVCoupledForce</text>
</a>
</g>
</g>
<!-- Node23&#45;&gt;Node25 -->
<g id="edge24" class="edge">
<title>Node23&#45;&gt;Node25</title>
<path fill="none" stroke="#63b8ff" d="M966.17,-333.83C984.66,-346.42 1011.91,-363.34 1038,-373.5 1049.31,-377.9 1061.9,-381.31 1073.87,-383.92"/>
<polygon fill="#63b8ff" stroke="#63b8ff" points="968.31,-331.05 958.1,-328.22 964.31,-336.8 968.31,-331.05"/>
</g>
<!-- Node26 -->
<g id="node26" class="node">
<title>Node26</title>
<g id="a_node26"><a xlink:href="classFVFunctorTimeKernel.html" target="_top" xlink:title=" ">
<polygon fill="white" stroke="#666666" points="1190,-364 1059,-364 1059,-345 1190,-345 1190,-364"/>
<text text-anchor="middle" x="1124.5" y="-352" font-family="Courier,monospace" font-size="10.00">FVFunctorTimeKernel</text>
</a>
</g>
</g>
<!-- Node23&#45;&gt;Node26 -->
<g id="edge25" class="edge">
<title>Node23&#45;&gt;Node26</title>
<path fill="none" stroke="#63b8ff" d="M1002.95,-329.72C1026.37,-334.53 1052.92,-339.99 1075.13,-344.56"/>
<polygon fill="#63b8ff" stroke="#63b8ff" points="1003.72,-326.31 993.22,-327.72 1002.31,-333.16 1003.72,-326.31"/>
</g>
<!-- Node27 -->
<g id="node27" class="node">
<title>Node27</title>
<g id="a_node27"><a xlink:href="classFVReaction.html" target="_top" xlink:title=" ">
<polygon fill="white" stroke="#666666" points="1163,-327 1086,-327 1086,-308 1163,-308 1163,-327"/>
<text text-anchor="middle" x="1124.5" y="-315" font-family="Courier,monospace" font-size="10.00">FVReaction</text>
</a>
</g>
</g>
<!-- Node23&#45;&gt;Node27 -->
<g id="edge26" class="edge">
<title>Node23&#45;&gt;Node27</title>
<path fill="none" stroke="#63b8ff" d="M1013.88,-317.5C1038.35,-317.5 1064.86,-317.5 1085.67,-317.5"/>
<polygon fill="#63b8ff" stroke="#63b8ff" points="1013.95,-314 1003.95,-317.5 1013.95,-321 1013.95,-314"/>
</g>
<!-- Node28 -->
<g id="node28" class="node">
<title>Node28</title>
<g id="a_node28"><a xlink:href="classFVScalarLagrangeMultiplierConstraint.html" target="_top" xlink:title="Base class for implementing constraints on finite volume variable elemental values using scalar Lagra...">
<polygon fill="white" stroke="#666666" points="1211,-289.5 1038,-289.5 1038,-259.5 1211,-259.5 1211,-289.5"/>
<text text-anchor="start" x="1046" y="-277.5" font-family="Courier,monospace" font-size="10.00">FVScalarLagrangeMultiplier</text>
<text text-anchor="middle" x="1124.5" y="-266.5" font-family="Courier,monospace" font-size="10.00">Constraint</text>
</a>
</g>
</g>
<!-- Node23&#45;&gt;Node28 -->
<g id="edge27" class="edge">
<title>Node23&#45;&gt;Node28</title>
<path fill="none" stroke="#63b8ff" d="M996.38,-304.87C1015.9,-300.2 1038.25,-294.87 1058.71,-289.98"/>
<polygon fill="#63b8ff" stroke="#63b8ff" points="995.63,-301.45 986.72,-307.18 997.26,-308.26 995.63,-301.45"/>
</g>
<!-- Node32 -->
<g id="node32" class="node">
<title>Node32</title>
<g id="a_node32"><a xlink:href="classFVTimeKernel.html" target="_top" xlink:title=" ">
<polygon fill="white" stroke="#666666" points="1169,-241 1080,-241 1080,-222 1169,-222 1169,-241"/>
<text text-anchor="middle" x="1124.5" y="-229" font-family="Courier,monospace" font-size="10.00">FVTimeKernel</text>
</a>
</g>
</g>
<!-- Node23&#45;&gt;Node32 -->
<g id="edge31" class="edge">
<title>Node23&#45;&gt;Node32</title>
<path fill="none" stroke="#63b8ff" d="M962.72,-300.34C980.88,-285.04 1009.51,-263.14 1038,-250.5 1051.06,-244.7 1066.06,-240.6 1079.81,-237.73"/>
<polygon fill="#63b8ff" stroke="#63b8ff" points="960.67,-297.49 955.38,-306.67 965.24,-302.79 960.67,-297.49"/>
</g>
<!-- Node29 -->
<g id="node29" class="node">
<title>Node29</title>
<g id="a_node29"><a xlink:href="classFVBoundedValueConstraint.html" target="_top" xlink:title="This Kernel implements the residuals that enforce the constraint.">
<polygon fill="white" stroke="#666666" points="1411,-321 1250,-321 1250,-302 1411,-302 1411,-321"/>
<text text-anchor="middle" x="1330.5" y="-309" font-family="Courier,monospace" font-size="10.00">FVBoundedValueConstraint</text>
</a>
</g>
</g>
<!-- Node28&#45;&gt;Node29 -->
<g id="edge28" class="edge">
<title>Node28&#45;&gt;Node29</title>
<path fill="none" stroke="#63b8ff" d="M1221.99,-292C1240,-295.27 1258.23,-298.57 1274.44,-301.51"/>
<polygon fill="#63b8ff" stroke="#63b8ff" points="1222.79,-288.59 1212.32,-290.25 1221.54,-295.48 1222.79,-288.59"/>
</g>
<!-- Node30 -->
<g id="node30" class="node">
<title>Node30</title>
<g id="a_node30"><a xlink:href="classFVIntegralValueConstraint.html" target="_top" xlink:title="This Kernel implements the residuals that enforce the constraint.">
<polygon fill="white" stroke="#666666" points="1414,-284 1247,-284 1247,-265 1414,-265 1414,-284"/>
<text text-anchor="middle" x="1330.5" y="-272" font-family="Courier,monospace" font-size="10.00">FVIntegralValueConstraint</text>
</a>
</g>
</g>
<!-- Node28&#45;&gt;Node30 -->
<g id="edge29" class="edge">
<title>Node28&#45;&gt;Node30</title>
<path fill="none" stroke="#63b8ff" d="M1222.69,-274.5C1230.69,-274.5 1238.73,-274.5 1246.61,-274.5"/>
<polygon fill="#63b8ff" stroke="#63b8ff" points="1222.94,-271 1212.94,-274.5 1222.94,-278 1222.94,-271"/>
</g>
<!-- Node31 -->
<g id="node31" class="node">
<title>Node31</title>
<g id="a_node31"><a xlink:href="classFVPointValueConstraint.html" target="_top" xlink:title="This Kernel implements the residuals that enforce the constraint.">
<polygon fill="white" stroke="#666666" points="1405,-247 1256,-247 1256,-228 1405,-228 1405,-247"/>
<text text-anchor="middle" x="1330.5" y="-235" font-family="Courier,monospace" font-size="10.00">FVPointValueConstraint</text>
</a>
</g>
</g>
<!-- Node28&#45;&gt;Node31 -->
<g id="edge30" class="edge">
<title>Node28&#45;&gt;Node31</title>
<path fill="none" stroke="#63b8ff" d="M1221.99,-257C1240,-253.73 1258.23,-250.43 1274.44,-247.49"/>
<polygon fill="#63b8ff" stroke="#63b8ff" points="1221.54,-253.52 1212.32,-258.75 1222.79,-260.41 1221.54,-253.52"/>
</g>
<!-- Node34 -->
<g id="node34" class="node">
<title>Node34</title>
<g id="a_node34"><a xlink:href="classFVAdvection.html" target="_top" xlink:title=" ">
<polygon fill="white" stroke="#666666" points="1166,-204 1083,-204 1083,-185 1166,-185 1166,-204"/>
<text text-anchor="middle" x="1124.5" y="-192" font-family="Courier,monospace" font-size="10.00">FVAdvection</text>
</a>
</g>
</g>
<!-- Node33&#45;&gt;Node34 -->
<g id="edge33" class="edge">
<title>Node33&#45;&gt;Node34</title>
<path fill="none" stroke="#63b8ff" d="M966.17,-136.83C984.66,-149.42 1011.91,-166.34 1038,-176.5 1052.14,-182 1068.27,-185.95 1082.69,-188.72"/>
<polygon fill="#63b8ff" stroke="#63b8ff" points="968.31,-134.05 958.1,-131.22 964.31,-139.8 968.31,-134.05"/>
</g>
<!-- Node35 -->
<g id="node35" class="node">
<title>Node35</title>
<g id="a_node35"><a xlink:href="classFVAnisotropicDiffusion.html" target="_top" xlink:title="FVAnisotropicDiffusion implements a standard diffusion term but with a diagonal tensor diffusion coef...">
<polygon fill="white" stroke="#666666" points="1199,-167 1050,-167 1050,-148 1199,-148 1199,-167"/>
<text text-anchor="middle" x="1124.5" y="-155" font-family="Courier,monospace" font-size="10.00">FVAnisotropicDiffusion</text>
</a>
</g>
</g>
<!-- Node33&#45;&gt;Node35 -->
<g id="edge34" class="edge">
<title>Node33&#45;&gt;Node35</title>
<path fill="none" stroke="#63b8ff" d="M998.34,-131.77C1022.76,-136.79 1051.29,-142.66 1074.94,-147.52"/>
<polygon fill="#63b8ff" stroke="#63b8ff" points="999.06,-128.35 988.56,-129.76 997.65,-135.2 999.06,-128.35"/>
</g>
<!-- Node36 -->
<g id="node36" class="node">
<title>Node36</title>
<g id="a_node36"><a xlink:href="classFVDiffusion.html" target="_top" xlink:title="FVDiffusion implements a standard diffusion term:">
<polygon fill="white" stroke="#666666" points="1166,-130 1083,-130 1083,-111 1166,-111 1166,-130"/>
<text text-anchor="middle" x="1124.5" y="-118" font-family="Courier,monospace" font-size="10.00">FVDiffusion</text>
</a>
</g>
</g>
<!-- Node33&#45;&gt;Node36 -->
<g id="edge35" class="edge">
<title>Node33&#45;&gt;Node36</title>
<path fill="none" stroke="#63b8ff" d="M998.38,-120.5C1025.57,-120.5 1057.84,-120.5 1082.8,-120.5"/>
<polygon fill="#63b8ff" stroke="#63b8ff" points="998.59,-117 988.59,-120.5 998.59,-124 998.59,-117"/>
</g>
<!-- Node37 -->
<g id="node37" class="node">
<title>Node37</title>
<g id="a_node37"><a xlink:href="classFVDivergence.html" target="_top" xlink:title="FVDivergence implements a standard divergence term:">
<polygon fill="white" stroke="#666666" points="1169,-93 1080,-93 1080,-74 1169,-74 1169,-93"/>
<text text-anchor="middle" x="1124.5" y="-81" font-family="Courier,monospace" font-size="10.00">FVDivergence</text>
</a>
</g>
</g>
<!-- Node33&#45;&gt;Node37 -->
<g id="edge36" class="edge">
<title>Node33&#45;&gt;Node37</title>
<path fill="none" stroke="#63b8ff" d="M998.32,-109.23C1024.41,-103.87 1055.2,-97.54 1079.7,-92.5"/>
<polygon fill="#63b8ff" stroke="#63b8ff" points="997.65,-105.8 988.56,-111.24 999.06,-112.65 997.65,-105.8"/>
</g>
<!-- Node38 -->
<g id="node38" class="node">
<title>Node38</title>
<g id="a_node38"><a xlink:href="classFVMatAdvection.html" target="_top" xlink:title=" ">
<polygon fill="white" stroke="#666666" points="1175,-56 1074,-56 1074,-37 1175,-37 1175,-56"/>
<text text-anchor="middle" x="1124.5" y="-44" font-family="Courier,monospace" font-size="10.00">FVMatAdvection</text>
</a>
</g>
</g>
<!-- Node33&#45;&gt;Node38 -->
<g id="edge37" class="edge">
<title>Node33&#45;&gt;Node38</title>
<path fill="none" stroke="#63b8ff" d="M966.17,-104.17C984.66,-91.58 1011.91,-74.66 1038,-64.5 1049.31,-60.1 1061.9,-56.69 1073.87,-54.08"/>
<polygon fill="#63b8ff" stroke="#63b8ff" points="964.31,-101.2 958.1,-109.78 968.31,-106.95 964.31,-101.2"/>
</g>
<!-- Node39 -->
<g id="node39" class="node">
<title>Node39</title>
<g id="a_node39"><a xlink:href="classFVOrthogonalDiffusion.html" target="_top" xlink:title="This class computes the intercell diffusion flux by taking the difference between neighboring cell ce...">
<polygon fill="white" stroke="#666666" points="1196,-19 1053,-19 1053,0 1196,0 1196,-19"/>
<text text-anchor="middle" x="1124.5" y="-7" font-family="Courier,monospace" font-size="10.00">FVOrthogonalDiffusion</text>
</a>
</g>
</g>
<!-- Node33&#45;&gt;Node39 -->
<g id="edge38" class="edge">
<title>Node33&#45;&gt;Node39</title>
<path fill="none" stroke="#63b8ff" d="M957.14,-101.7C973.75,-80.26 1003.85,-45.82 1038,-27.5 1044.02,-24.27 1050.56,-21.62 1057.26,-19.45"/>
<polygon fill="#63b8ff" stroke="#63b8ff" points="954.43,-99.49 951.21,-109.58 960.02,-103.69 954.43,-99.49"/>
</g>
</g>
</svg>
