<?xml version="1.0" encoding="UTF-8" standalone="no"?>
<!DOCTYPE svg PUBLIC "-//W3C//DTD SVG 1.1//EN"
 "http://www.w3.org/Graphics/SVG/1.1/DTD/svg11.dtd">
<!-- Generated by graphviz version 7.0.5 (20221223.1930)
 -->
<!-- Title: SideIntegralFunctorPostprocessorTempl&lt; is_ad &gt; Pages: 1 -->
<svg width="1620pt" height="870pt"
 viewBox="0.00 0.00 1620.00 870.00" xmlns="http://www.w3.org/2000/svg" xmlns:xlink="http://www.w3.org/1999/xlink">
<g id="graph0" class="graph" transform="scale(1 1) rotate(0) translate(4 866)">
<title>SideIntegralFunctorPostprocessorTempl&lt; is_ad &gt;</title>
<!-- Node1 -->
<g id="node1" class="node">
<title>Node1</title>
<g id="a_node1"><a xlink:title="This postprocessor computes a surface integral of the specified functor.">
<polygon fill="#999999" stroke="#666666" points="1612,-59.5 1403,-59.5 1403,-29.5 1612,-29.5 1612,-59.5"/>
<text text-anchor="start" x="1411" y="-47.5" font-family="Courier,monospace" font-size="10.00">SideIntegralFunctorPostprocessor</text>
<text text-anchor="middle" x="1507.5" y="-36.5" font-family="Courier,monospace" font-size="10.00">Templ&lt; is_ad &gt;</text>
</a>
</g>
</g>
<!-- Node2 -->
<g id="node2" class="node">
<title>Node2</title>
<g id="a_node2"><a xlink:href="classSideIntegralPostprocessor.html" target="_top" xlink:title="This postprocessor computes a surface integral of the specified variable on a sideset on the boundary...">
<polygon fill="white" stroke="#666666" points="1367,-79 1200,-79 1200,-60 1367,-60 1367,-79"/>
<text text-anchor="middle" x="1283.5" y="-67" font-family="Courier,monospace" font-size="10.00">SideIntegralPostprocessor</text>
</a>
</g>
</g>
<!-- Node2&#45;&gt;Node1 -->
<g id="edge1" class="edge">
<title>Node2&#45;&gt;Node1</title>
<path fill="none" stroke="#63b8ff" d="M1378.87,-58.87C1386.72,-57.99 1394.68,-57.09 1402.59,-56.2"/>
<polygon fill="#63b8ff" stroke="#63b8ff" points="1378.53,-55.39 1368.98,-59.99 1379.31,-62.34 1378.53,-55.39"/>
</g>
<!-- Node3 -->
<g id="node3" class="node">
<title>Node3</title>
<g id="a_node3"><a xlink:href="classSidePostprocessor.html" target="_top" xlink:title="Base class for postprocessors executed on one or more sidesets.">
<polygon fill="white" stroke="#666666" points="1143,-85 1024,-85 1024,-66 1143,-66 1143,-85"/>
<text text-anchor="middle" x="1083.5" y="-73" font-family="Courier,monospace" font-size="10.00">SidePostprocessor</text>
</a>
</g>
</g>
<!-- Node3&#45;&gt;Node2 -->
<g id="edge2" class="edge">
<title>Node3&#45;&gt;Node2</title>
<path fill="none" stroke="#63b8ff" d="M1154.8,-73.37C1169.32,-72.93 1184.75,-72.46 1199.67,-72.01"/>
<polygon fill="#63b8ff" stroke="#63b8ff" points="1154.77,-69.87 1144.88,-73.67 1154.98,-76.87 1154.77,-69.87"/>
</g>
<!-- Node4 -->
<g id="node4" class="node">
<title>Node4</title>
<g id="a_node4"><a xlink:href="classSideUserObject.html" target="_top" xlink:title="Base class for user objects executed one or more sidesets, which may be on the outer boundary of the ...">
<polygon fill="white" stroke="#666666" points="967,-251 866,-251 866,-232 967,-232 967,-251"/>
<text text-anchor="middle" x="916.5" y="-239" font-family="Courier,monospace" font-size="10.00">SideUserObject</text>
</a>
</g>
</g>
<!-- Node4&#45;&gt;Node3 -->
<g id="edge3" class="edge">
<title>Node4&#45;&gt;Node3</title>
<path fill="none" stroke="#63b8ff" d="M935.22,-223.67C970,-188.68 1046.13,-112.09 1072.93,-85.13"/>
<polygon fill="#63b8ff" stroke="#63b8ff" points="932.96,-220.98 928.39,-230.54 937.93,-225.91 932.96,-220.98"/>
</g>
<!-- Node5 -->
<g id="node5" class="node">
<title>Node5</title>
<g id="a_node5"><a xlink:href="classUserObject.html" target="_top" xlink:title="Base class for user&#45;specific data.">
<polygon fill="white" stroke="#666666" points="764,-510 687,-510 687,-491 764,-491 764,-510"/>
<text text-anchor="middle" x="725.5" y="-498" font-family="Courier,monospace" font-size="10.00">UserObject</text>
</a>
</g>
</g>
<!-- Node5&#45;&gt;Node4 -->
<g id="edge4" class="edge">
<title>Node5&#45;&gt;Node4</title>
<path fill="none" stroke="#63b8ff" d="M740.24,-481.67C777.63,-430.44 880.24,-289.83 908.31,-251.35"/>
<polygon fill="#63b8ff" stroke="#63b8ff" points="737.64,-479.3 734.57,-489.44 743.29,-483.43 737.64,-479.3"/>
</g>
<!-- Node6 -->
<g id="node6" class="node">
<title>Node6</title>
<g id="a_node6"><a xlink:href="classMooseObject.html" target="_top" xlink:title="Every object that can be built by the factory should be derived from this class.">
<polygon fill="white" stroke="#666666" points="534,-788 451,-788 451,-769 534,-769 534,-788"/>
<text text-anchor="middle" x="492.5" y="-776" font-family="Courier,monospace" font-size="10.00">MooseObject</text>
</a>
</g>
</g>
<!-- Node6&#45;&gt;Node5 -->
<g id="edge5" class="edge">
<title>Node6&#45;&gt;Node5</title>
<path fill="none" stroke="#63b8ff" d="M545.39,-776.32C559.28,-773.69 573.59,-768.93 585,-760.5 675.85,-693.38 713.69,-548.99 722.44,-510.24"/>
<polygon fill="#63b8ff" stroke="#63b8ff" points="545.25,-772.8 535.9,-777.77 546.31,-779.72 545.25,-772.8"/>
</g>
<!-- Node7 -->
<g id="node7" class="node">
<title>Node7</title>
<g id="a_node7"><a xlink:href="classMooseBase.html" target="_top" xlink:title="Base class for everything in MOOSE with a name and a type.">
<polygon fill="white" stroke="#666666" points="310,-862 239,-862 239,-843 310,-843 310,-862"/>
<text text-anchor="middle" x="274.5" y="-850" font-family="Courier,monospace" font-size="10.00">MooseBase</text>
</a>
</g>
</g>
<!-- Node7&#45;&gt;Node6 -->
<g id="edge6" class="edge">
<title>Node7&#45;&gt;Node6</title>
<path fill="none" stroke="#63b8ff" d="M321.62,-845.05C335.41,-842.31 350.46,-838.8 364,-834.5 403.87,-821.85 448.08,-800.72 472.56,-788.35"/>
<polygon fill="#63b8ff" stroke="#63b8ff" points="321.06,-841.59 311.89,-846.89 322.36,-848.47 321.06,-841.59"/>
</g>
<!-- Node8 -->
<g id="node8" class="node">
<title>Node8</title>
<g id="a_node8"><a xlink:href="classMooseBaseParameterInterface.html" target="_top" xlink:title="Every object that can be built by the factory should be derived from this class.">
<polygon fill="white" stroke="#666666" points="364,-825 185,-825 185,-806 364,-806 364,-825"/>
<text text-anchor="middle" x="274.5" y="-813" font-family="Courier,monospace" font-size="10.00">MooseBaseParameterInterface</text>
</a>
</g>
</g>
<!-- Node8&#45;&gt;Node6 -->
<g id="edge7" class="edge">
<title>Node8&#45;&gt;Node6</title>
<path fill="none" stroke="#63b8ff" d="M344.77,-803.63C379.7,-797.65 420.85,-790.6 450.68,-785.49"/>
<polygon fill="#63b8ff" stroke="#63b8ff" points="344.43,-800.14 335.16,-805.28 345.61,-807.04 344.43,-800.14"/>
</g>
<!-- Node9 -->
<g id="node9" class="node">
<title>Node9</title>
<g id="a_node9"><a xlink:href="classMooseBaseErrorInterface.html" target="_top" xlink:title="Interface that provides APIs to output errors/warnings/info messages.">
<polygon fill="white" stroke="#666666" points="352,-788 197,-788 197,-769 352,-769 352,-788"/>
<text text-anchor="middle" x="274.5" y="-776" font-family="Courier,monospace" font-size="10.00">MooseBaseErrorInterface</text>
</a>
</g>
</g>
<!-- Node9&#45;&gt;Node6 -->
<g id="edge8" class="edge">
<title>Node9&#45;&gt;Node6</title>
<path fill="none" stroke="#63b8ff" d="M363.7,-778.5C393.87,-778.5 426.17,-778.5 450.75,-778.5"/>
<polygon fill="#63b8ff" stroke="#63b8ff" points="363.78,-775 353.78,-778.5 363.78,-782 363.78,-775"/>
</g>
<!-- Node10 -->
<g id="node10" class="node">
<title>Node10</title>
<g id="a_node10"><a xlink:href="classConsoleStreamInterface.html" target="_top" xlink:title="An inteface for the _console for outputting to the Console object.">
<polygon fill="white" stroke="#666666" points="149,-788 0,-788 0,-769 149,-769 149,-788"/>
<text text-anchor="middle" x="74.5" y="-776" font-family="Courier,monospace" font-size="10.00">ConsoleStreamInterface</text>
</a>
</g>
</g>
<!-- Node10&#45;&gt;Node9 -->
<g id="edge9" class="edge">
<title>Node10&#45;&gt;Node9</title>
<path fill="none" stroke="#63b8ff" d="M160.62,-778.5C172.62,-778.5 184.9,-778.5 196.73,-778.5"/>
<polygon fill="#63b8ff" stroke="#63b8ff" points="160.74,-775 150.74,-778.5 160.74,-782 160.74,-775"/>
</g>
<!-- Node11 -->
<g id="node11" class="node">
<title>Node11</title>
<g id="a_node11"><a xlink:title=" ">
<polygon fill="white" stroke="#666666" points="352,-751 197,-751 197,-732 352,-732 352,-751"/>
<text text-anchor="middle" x="274.5" y="-739" font-family="Courier,monospace" font-size="10.00">libMesh::ParallelObject</text>
</a>
</g>
</g>
<!-- Node11&#45;&gt;Node6 -->
<g id="edge10" class="edge">
<title>Node11&#45;&gt;Node6</title>
<path fill="none" stroke="#63b8ff" d="M344.77,-753.37C379.7,-759.35 420.85,-766.4 450.68,-771.51"/>
<polygon fill="#63b8ff" stroke="#63b8ff" points="345.61,-749.96 335.16,-751.72 344.43,-756.86 345.61,-749.96"/>
</g>
<!-- Node12 -->
<g id="node12" class="node">
<title>Node12</title>
<g id="a_node12"><a xlink:href="classDataFileInterface.html" target="_top" xlink:title=" ">
<polygon fill="white" stroke="#666666" points="337,-713.5 212,-713.5 212,-683.5 337,-683.5 337,-713.5"/>
<text text-anchor="start" x="220" y="-701.5" font-family="Courier,monospace" font-size="10.00">DataFileInterface&lt;</text>
<text text-anchor="middle" x="274.5" y="-690.5" font-family="Courier,monospace" font-size="10.00"> MooseObject &gt;</text>
</a>
</g>
</g>
<!-- Node12&#45;&gt;Node6 -->
<g id="edge11" class="edge">
<title>Node12&#45;&gt;Node6</title>
<path fill="none" stroke="#63b8ff" d="M347.62,-715.35C353.32,-717.73 358.86,-720.44 364,-723.5 383.71,-735.24 379.83,-749.57 400,-760.5 415.37,-768.83 434.06,-773.34 450.53,-775.76"/>
<polygon fill="#63b8ff" stroke="#63b8ff" points="349.23,-712.22 338.64,-711.94 346.74,-718.76 349.23,-712.22"/>
</g>
<!-- Node13 -->
<g id="node13" class="node">
<title>Node13</title>
<g id="a_node13"><a xlink:href="classSetupInterface.html" target="_top" xlink:title=" ">
<polygon fill="white" stroke="#666666" points="543,-751 442,-751 442,-732 543,-732 543,-751"/>
<text text-anchor="middle" x="492.5" y="-739" font-family="Courier,monospace" font-size="10.00">SetupInterface</text>
</a>
</g>
</g>
<!-- Node13&#45;&gt;Node5 -->
<g id="edge12" class="edge">
<title>Node13&#45;&gt;Node5</title>
<path fill="none" stroke="#63b8ff" d="M554.61,-736.68C565.37,-733.88 575.99,-729.7 585,-723.5 666.99,-667.04 710.5,-545.03 721.61,-510.05"/>
<polygon fill="#63b8ff" stroke="#63b8ff" points="553.92,-733.25 544.89,-738.8 555.41,-740.09 553.92,-733.25"/>
</g>
<!-- Node14 -->
<g id="node14" class="node">
<title>Node14</title>
<g id="a_node14"><a xlink:href="classFunctionInterface.html" target="_top" xlink:title="Interface for objects that need to use functions.">
<polygon fill="white" stroke="#666666" points="552,-714 433,-714 433,-695 552,-695 552,-714"/>
<text text-anchor="middle" x="492.5" y="-702" font-family="Courier,monospace" font-size="10.00">FunctionInterface</text>
</a>
</g>
</g>
<!-- Node14&#45;&gt;Node5 -->
<g id="edge13" class="edge">
<title>Node14&#45;&gt;Node5</title>
<path fill="none" stroke="darkgreen" d="M563.08,-696.49C570.8,-693.97 578.29,-690.71 585,-686.5 658.15,-640.56 706.48,-541.45 720.37,-510.17"/>
<polygon fill="darkgreen" stroke="darkgreen" points="562.2,-693.1 553.52,-699.17 564.09,-699.84 562.2,-693.1"/>
</g>
<!-- Node15 -->
<g id="node15" class="node">
<title>Node15</title>
<g id="a_node15"><a xlink:href="classUserObjectInterface.html" target="_top" xlink:title="Interface for objects that need to use UserObjects.">
<polygon fill="white" stroke="#666666" points="558,-677 427,-677 427,-658 558,-658 558,-677"/>
<text text-anchor="middle" x="492.5" y="-665" font-family="Courier,monospace" font-size="10.00">UserObjectInterface</text>
</a>
</g>
</g>
<!-- Node15&#45;&gt;Node5 -->
<g id="edge14" class="edge">
<title>Node15&#45;&gt;Node5</title>
<path fill="none" stroke="#63b8ff" d="M569.1,-656.62C574.63,-654.63 580,-652.27 585,-649.5 649.46,-613.76 701.26,-537.73 718.42,-510.48"/>
<polygon fill="#63b8ff" stroke="#63b8ff" points="568.23,-653.22 559.74,-659.57 570.33,-659.9 568.23,-653.22"/>
</g>
<!-- Node16 -->
<g id="node16" class="node">
<title>Node16</title>
<g id="a_node16"><a xlink:href="classPostprocessorInterface.html" target="_top" xlink:title="Interface class for classes which interact with Postprocessors.">
<polygon fill="white" stroke="#666666" points="567,-640 418,-640 418,-621 567,-621 567,-640"/>
<text text-anchor="middle" x="492.5" y="-628" font-family="Courier,monospace" font-size="10.00">PostprocessorInterface</text>
</a>
</g>
</g>
<!-- Node16&#45;&gt;Node5 -->
<g id="edge15" class="edge">
<title>Node16&#45;&gt;Node5</title>
<path fill="none" stroke="darkgreen" d="M573.95,-617.02C577.74,-615.66 581.44,-614.15 585,-612.5 641.32,-586.3 694.79,-532.68 715.48,-510.47"/>
<polygon fill="darkgreen" stroke="darkgreen" points="572.97,-613.66 564.53,-620.05 575.12,-620.32 572.97,-613.66"/>
</g>
<!-- Node17 -->
<g id="node17" class="node">
<title>Node17</title>
<g id="a_node17"><a xlink:href="classVectorPostprocessorInterface.html" target="_top" xlink:title=" ">
<polygon fill="white" stroke="#666666" points="585,-603 400,-603 400,-584 585,-584 585,-603"/>
<text text-anchor="middle" x="492.5" y="-591" font-family="Courier,monospace" font-size="10.00">VectorPostprocessorInterface</text>
</a>
</g>
</g>
<!-- Node17&#45;&gt;Node5 -->
<g id="edge16" class="edge">
<title>Node17&#45;&gt;Node5</title>
<path fill="none" stroke="darkgreen" d="M568.24,-580.73C573.97,-579.17 579.61,-577.43 585,-575.5 633.15,-558.26 684.97,-526.48 709.71,-510.39"/>
<polygon fill="darkgreen" stroke="darkgreen" points="567.48,-577.32 558.64,-583.16 569.19,-584.1 567.48,-577.32"/>
</g>
<!-- Node18 -->
<g id="node18" class="node">
<title>Node18</title>
<g id="a_node18"><a xlink:href="classReporterInterface.html" target="_top" xlink:title="Interface to allow object to consume Reporter values.">
<polygon fill="white" stroke="#666666" points="552,-566 433,-566 433,-547 552,-547 552,-566"/>
<text text-anchor="middle" x="492.5" y="-554" font-family="Courier,monospace" font-size="10.00">ReporterInterface</text>
</a>
</g>
</g>
<!-- Node18&#45;&gt;Node5 -->
<g id="edge17" class="edge">
<title>Node18&#45;&gt;Node5</title>
<path fill="none" stroke="darkgreen" d="M558.53,-544.3C567.45,-542.46 576.47,-540.5 585,-538.5 621.29,-530 662.42,-518.57 690.56,-510.48"/>
<polygon fill="darkgreen" stroke="darkgreen" points="557.93,-540.85 548.83,-546.27 559.32,-547.71 557.93,-540.85"/>
</g>
<!-- Node19 -->
<g id="node19" class="node">
<title>Node19</title>
<g id="a_node19"><a xlink:href="classDistributionInterface.html" target="_top" xlink:title="Interface for objects that need to use distributions.">
<polygon fill="white" stroke="#666666" points="564,-529 421,-529 421,-510 564,-510 564,-529"/>
<text text-anchor="middle" x="492.5" y="-517" font-family="Courier,monospace" font-size="10.00">DistributionInterface</text>
</a>
</g>
</g>
<!-- Node19&#45;&gt;Node5 -->
<g id="edge18" class="edge">
<title>Node19&#45;&gt;Node5</title>
<path fill="none" stroke="darkgreen" d="M575.43,-512.76C613.35,-509.64 656.56,-506.09 686.65,-503.61"/>
<polygon fill="darkgreen" stroke="darkgreen" points="575.57,-509.24 565.89,-513.55 576.14,-516.21 575.57,-509.24"/>
</g>
<!-- Node20 -->
<g id="node20" class="node">
<title>Node20</title>
<g id="a_node20"><a xlink:href="classSamplerInterface.html" target="_top" xlink:title="Interface for objects that need to use samplers.">
<polygon fill="white" stroke="#666666" points="549,-492 436,-492 436,-473 549,-473 549,-492"/>
<text text-anchor="middle" x="492.5" y="-480" font-family="Courier,monospace" font-size="10.00">SamplerInterface</text>
</a>
</g>
</g>
<!-- Node20&#45;&gt;Node5 -->
<g id="edge19" class="edge">
<title>Node20&#45;&gt;Node5</title>
<path fill="none" stroke="darkgreen" d="M560.71,-487.74C601.74,-490.93 652.7,-494.91 686.78,-497.56"/>
<polygon fill="darkgreen" stroke="darkgreen" points="561.17,-484.26 550.93,-486.97 560.63,-491.24 561.17,-484.26"/>
</g>
<!-- Node21 -->
<g id="node21" class="node">
<title>Node21</title>
<g id="a_node21"><a xlink:href="classRestartable.html" target="_top" xlink:title="A class for creating restricted objects.">
<polygon fill="white" stroke="#666666" points="534,-455 451,-455 451,-436 534,-436 534,-455"/>
<text text-anchor="middle" x="492.5" y="-443" font-family="Courier,monospace" font-size="10.00">Restartable</text>
</a>
</g>
</g>
<!-- Node21&#45;&gt;Node5 -->
<g id="edge20" class="edge">
<title>Node21&#45;&gt;Node5</title>
<path fill="none" stroke="darkgreen" d="M545.27,-455.8C558.27,-458.51 572.17,-461.51 585,-464.5 620.08,-472.66 659.83,-483.03 687.9,-490.55"/>
<polygon fill="darkgreen" stroke="darkgreen" points="546.11,-452.4 535.61,-453.81 544.7,-459.26 546.11,-452.4"/>
</g>
<!-- Node22 -->
<g id="node22" class="node">
<title>Node22</title>
<g id="a_node22"><a xlink:href="classMeshMetaDataInterface.html" target="_top" xlink:title="The Interface used to retrieve mesh meta data (attributes) set by the MeshGenerator system.">
<polygon fill="white" stroke="#666666" points="564,-418 421,-418 421,-399 564,-399 564,-418"/>
<text text-anchor="middle" x="492.5" y="-406" font-family="Courier,monospace" font-size="10.00">MeshMetaDataInterface</text>
</a>
</g>
</g>
<!-- Node22&#45;&gt;Node5 -->
<g id="edge21" class="edge">
<title>Node22&#45;&gt;Node5</title>
<path fill="none" stroke="darkgreen" d="M564.33,-421.15C571.39,-423.02 578.38,-425.13 585,-427.5 632.62,-444.53 684.26,-475.07 709.25,-490.7"/>
<polygon fill="darkgreen" stroke="darkgreen" points="565.25,-417.77 554.7,-418.77 563.56,-424.57 565.25,-417.77"/>
</g>
<!-- Node23 -->
<g id="node23" class="node">
<title>Node23</title>
<g id="a_node23"><a xlink:href="classMeshChangedInterface.html" target="_top" xlink:title="Interface for notifications that the mesh has changed.">
<polygon fill="white" stroke="#666666" points="561,-381 424,-381 424,-362 561,-362 561,-381"/>
<text text-anchor="middle" x="492.5" y="-369" font-family="Courier,monospace" font-size="10.00">MeshChangedInterface</text>
</a>
</g>
</g>
<!-- Node23&#45;&gt;Node5 -->
<g id="edge22" class="edge">
<title>Node23&#45;&gt;Node5</title>
<path fill="none" stroke="darkgreen" d="M570.63,-384.77C575.58,-386.46 580.41,-388.36 585,-390.5 640.91,-416.56 694.6,-469.04 715.42,-490.75"/>
<polygon fill="darkgreen" stroke="darkgreen" points="571.71,-381.44 561.12,-381.85 569.65,-388.13 571.71,-381.44"/>
</g>
<!-- Node24 -->
<g id="node24" class="node">
<title>Node24</title>
<g id="a_node24"><a xlink:href="classScalarCoupleable.html" target="_top" xlink:title="Interface for objects that needs scalar coupling capabilities.">
<polygon fill="white" stroke="#666666" points="549,-344 436,-344 436,-325 549,-325 549,-344"/>
<text text-anchor="middle" x="492.5" y="-332" font-family="Courier,monospace" font-size="10.00">ScalarCoupleable</text>
</a>
</g>
</g>
<!-- Node24&#45;&gt;Node5 -->
<g id="edge23" class="edge">
<title>Node24&#45;&gt;Node5</title>
<path fill="none" stroke="darkgreen" d="M560.14,-343.34C568.81,-345.91 577.33,-349.23 585,-353.5 648.93,-389.11 701.07,-463.9 718.37,-490.69"/>
<polygon fill="darkgreen" stroke="darkgreen" points="561.16,-339.99 550.6,-340.84 559.39,-346.76 561.16,-339.99"/>
</g>
<!-- Node25 -->
<g id="node25" class="node">
<title>Node25</title>
<g id="a_node25"><a xlink:href="classPerfGraphInterface.html" target="_top" xlink:title="Interface for objects interacting with the PerfGraph.">
<polygon fill="white" stroke="#666666" points="555,-307 430,-307 430,-288 555,-288 555,-307"/>
<text text-anchor="middle" x="492.5" y="-295" font-family="Courier,monospace" font-size="10.00">PerfGraphInterface</text>
</a>
</g>
</g>
<!-- Node25&#45;&gt;Node5 -->
<g id="edge24" class="edge">
<title>Node25&#45;&gt;Node5</title>
<path fill="none" stroke="darkgreen" d="M566.03,-307.39C572.71,-309.81 579.15,-312.8 585,-316.5 603.51,-328.2 692.05,-453.97 717.59,-490.56"/>
<polygon fill="darkgreen" stroke="darkgreen" points="567.44,-304.17 556.85,-304.5 565.34,-310.84 567.44,-304.17"/>
</g>
<!-- Node26 -->
<g id="node26" class="node">
<title>Node26</title>
<g id="a_node26"><a xlink:href="classDependencyResolverInterface.html" target="_top" xlink:title="Interface for sorting dependent vectors of objects.">
<polygon fill="white" stroke="#666666" points="582,-270 403,-270 403,-251 582,-251 582,-270"/>
<text text-anchor="middle" x="492.5" y="-258" font-family="Courier,monospace" font-size="10.00">DependencyResolverInterface</text>
</a>
</g>
</g>
<!-- Node26&#45;&gt;Node5 -->
<g id="edge25" class="edge">
<title>Node26&#45;&gt;Node5</title>
<path fill="none" stroke="#63b8ff" d="M579.46,-275.63C581.37,-276.83 583.22,-278.12 585,-279.5 613.86,-301.96 602.41,-322 621,-353.5 652.88,-407.53 698.5,-467.34 716.64,-490.54"/>
<polygon fill="#63b8ff" stroke="#63b8ff" points="581.23,-272.61 570.76,-271.04 577.97,-278.8 581.23,-272.61"/>
</g>
<!-- Node27 -->
<g id="node27" class="node">
<title>Node27</title>
<g id="a_node27"><a xlink:href="classBoundaryRestrictableRequired.html" target="_top" xlink:title="A class for requiring an object to be boundary restricted.">
<polygon fill="white" stroke="#666666" points="818,-344 633,-344 633,-325 818,-325 818,-344"/>
<text text-anchor="middle" x="725.5" y="-332" font-family="Courier,monospace" font-size="10.00">BoundaryRestrictableRequired</text>
</a>
</g>
</g>
<!-- Node27&#45;&gt;Node4 -->
<g id="edge26" class="edge">
<title>Node27&#45;&gt;Node4</title>
<path fill="none" stroke="#63b8ff" d="M819.22,-321.05C822.91,-319.68 826.52,-318.16 830,-316.5 863.31,-300.57 893.58,-267.89 907.47,-251.44"/>
<polygon fill="#63b8ff" stroke="#63b8ff" points="818.44,-317.62 810.05,-324.09 820.64,-324.26 818.44,-317.62"/>
</g>
<!-- Node28 -->
<g id="node28" class="node">
<title>Node28</title>
<g id="a_node28"><a xlink:href="classBoundaryRestrictable.html" target="_top" xlink:title="/class BoundaryRestrictable /brief Provides functionality for limiting the object to certain boundary...">
<polygon fill="white" stroke="#666666" points="561,-233 424,-233 424,-214 561,-214 561,-233"/>
<text text-anchor="middle" x="492.5" y="-221" font-family="Courier,monospace" font-size="10.00">BoundaryRestrictable</text>
</a>
</g>
</g>
<!-- Node28&#45;&gt;Node27 -->
<g id="edge27" class="edge">
<title>Node28&#45;&gt;Node27</title>
<path fill="none" stroke="#63b8ff" d="M571.75,-234.4C576.46,-236.66 580.93,-239.33 585,-242.5 613.86,-264.96 591.78,-294.51 621,-316.5 625.15,-319.63 629.66,-322.28 634.4,-324.52"/>
<polygon fill="#63b8ff" stroke="#63b8ff" points="573.11,-231.18 562.52,-230.68 570.49,-237.67 573.11,-231.18"/>
</g>
<!-- Node29 -->
<g id="node29" class="node">
<title>Node29</title>
<g id="a_node29"><a xlink:href="classMaterialPropertyInterface.html" target="_top" xlink:title="An interface for accessing Materials.">
<polygon fill="white" stroke="#666666" points="809,-307 642,-307 642,-288 809,-288 809,-307"/>
<text text-anchor="middle" x="725.5" y="-295" font-family="Courier,monospace" font-size="10.00">MaterialPropertyInterface</text>
</a>
</g>
</g>
<!-- Node29&#45;&gt;Node4 -->
<g id="edge28" class="edge">
<title>Node29&#45;&gt;Node4</title>
<path fill="none" stroke="#63b8ff" d="M808.57,-285.15C815.87,-283.47 823.11,-281.6 830,-279.5 853.78,-272.27 879.67,-260.11 896.66,-251.49"/>
<polygon fill="#63b8ff" stroke="#63b8ff" points="807.99,-281.7 798.95,-287.23 809.47,-288.54 807.99,-281.7"/>
</g>
<!-- Node30 -->
<g id="node30" class="node">
<title>Node30</title>
<g id="a_node30"><a xlink:href="classCoupleable.html" target="_top" xlink:title="Interface for objects that needs coupling capabilities.">
<polygon fill="white" stroke="#666666" points="764,-270 687,-270 687,-251 764,-251 764,-270"/>
<text text-anchor="middle" x="725.5" y="-258" font-family="Courier,monospace" font-size="10.00">Coupleable</text>
</a>
</g>
</g>
<!-- Node30&#45;&gt;Node4 -->
<g id="edge29" class="edge">
<title>Node30&#45;&gt;Node4</title>
<path fill="none" stroke="#63b8ff" d="M775.69,-255.55C803.36,-252.77 837.81,-249.31 865.59,-246.52"/>
<polygon fill="#63b8ff" stroke="#63b8ff" points="775.4,-252.07 765.8,-256.55 776.1,-259.03 775.4,-252.07"/>
</g>
<!-- Node31 -->
<g id="node31" class="node">
<title>Node31</title>
<g id="a_node31"><a xlink:href="classMooseVariableDependencyInterface.html" target="_top" xlink:title=" ">
<polygon fill="white" stroke="#666666" points="830,-233 621,-233 621,-214 830,-214 830,-233"/>
<text text-anchor="middle" x="725.5" y="-221" font-family="Courier,monospace" font-size="10.00">MooseVariableDependencyInterface</text>
</a>
</g>
</g>
<!-- Node31&#45;&gt;Node4 -->
<g id="edge30" class="edge">
<title>Node31&#45;&gt;Node4</title>
<path fill="none" stroke="#63b8ff" d="M841.61,-234.46C850.05,-235.27 858.26,-236.05 865.95,-236.78"/>
<polygon fill="#63b8ff" stroke="#63b8ff" points="842.19,-231 831.91,-233.54 841.53,-237.97 842.19,-231"/>
</g>
<!-- Node32 -->
<g id="node32" class="node">
<title>Node32</title>
<g id="a_node32"><a xlink:href="classTransientInterface.html" target="_top" xlink:title="Interface for objects that needs transient capabilities.">
<polygon fill="white" stroke="#666666" points="788,-196 663,-196 663,-177 788,-177 788,-196"/>
<text text-anchor="middle" x="725.5" y="-184" font-family="Courier,monospace" font-size="10.00">TransientInterface</text>
</a>
</g>
</g>
<!-- Node32&#45;&gt;Node4 -->
<g id="edge31" class="edge">
<title>Node32&#45;&gt;Node4</title>
<path fill="none" stroke="#63b8ff" d="M799.46,-197.84C809.8,-200.04 820.23,-202.58 830,-205.5 853.15,-212.41 878.53,-223.58 895.57,-231.65"/>
<polygon fill="#63b8ff" stroke="#63b8ff" points="800.3,-194.43 789.8,-195.88 798.91,-201.29 800.3,-194.43"/>
</g>
<!-- Node33 -->
<g id="node33" class="node">
<title>Node33</title>
<g id="a_node33"><a xlink:href="classElementIDInterface.html" target="_top" xlink:title=" ">
<polygon fill="white" stroke="#666666" points="788,-159 663,-159 663,-140 788,-140 788,-159"/>
<text text-anchor="middle" x="725.5" y="-147" font-family="Courier,monospace" font-size="10.00">ElementIDInterface</text>
</a>
</g>
</g>
<!-- Node33&#45;&gt;Node4 -->
<g id="edge32" class="edge">
<title>Node33&#45;&gt;Node4</title>
<path fill="none" stroke="#63b8ff" d="M799.36,-157.86C809.93,-160.5 820.45,-163.96 830,-168.5 862.78,-184.1 893.06,-215.57 907.17,-231.61"/>
<polygon fill="#63b8ff" stroke="#63b8ff" points="800.37,-154.5 789.84,-155.73 798.84,-161.33 800.37,-154.5"/>
</g>
<!-- Node34 -->
<g id="node34" class="node">
<title>Node34</title>
<g id="a_node34"><a xlink:href="classPostprocessor.html" target="_top" xlink:title="Base class for all Postprocessors.">
<polygon fill="white" stroke="#666666" points="964,-85 869,-85 869,-66 964,-66 964,-85"/>
<text text-anchor="middle" x="916.5" y="-73" font-family="Courier,monospace" font-size="10.00">Postprocessor</text>
</a>
</g>
</g>
<!-- Node34&#45;&gt;Node3 -->
<g id="edge33" class="edge">
<title>Node34&#45;&gt;Node3</title>
<path fill="none" stroke="#63b8ff" d="M975.47,-75.5C991.13,-75.5 1008.07,-75.5 1023.77,-75.5"/>
<polygon fill="#63b8ff" stroke="#63b8ff" points="975.85,-72 965.85,-75.5 975.85,-79 975.85,-72"/>
</g>
<!-- Node35 -->
<g id="node35" class="node">
<title>Node35</title>
<g id="a_node35"><a xlink:href="classOutputInterface.html" target="_top" xlink:title="A class to provide an common interface to objects requiring &quot;outputs&quot; option.">
<polygon fill="white" stroke="#666666" points="779,-122 672,-122 672,-103 779,-103 779,-122"/>
<text text-anchor="middle" x="725.5" y="-110" font-family="Courier,monospace" font-size="10.00">OutputInterface</text>
</a>
</g>
</g>
<!-- Node35&#45;&gt;Node34 -->
<g id="edge34" class="edge">
<title>Node35&#45;&gt;Node34</title>
<path fill="none" stroke="#63b8ff" d="M790.54,-101.84C803.62,-99.53 817.27,-97.02 830,-94.5 843.87,-91.75 858.95,-88.5 872.52,-85.46"/>
<polygon fill="#63b8ff" stroke="#63b8ff" points="789.98,-98.39 780.73,-103.55 791.18,-105.28 789.98,-98.39"/>
</g>
<!-- Node36 -->
<g id="node36" class="node">
<title>Node36</title>
<g id="a_node36"><a xlink:href="classNonADFunctorInterface.html" target="_top" xlink:title="An interface for accessing Moose::Functors for systems that do not care about automatic differentiati...">
<polygon fill="white" stroke="#666666" points="797,-85 654,-85 654,-66 797,-66 797,-85"/>
<text text-anchor="middle" x="725.5" y="-73" font-family="Courier,monospace" font-size="10.00">NonADFunctorInterface</text>
</a>
</g>
</g>
<!-- Node36&#45;&gt;Node34 -->
<g id="edge35" class="edge">
<title>Node36&#45;&gt;Node34</title>
<path fill="none" stroke="#63b8ff" d="M808.69,-75.5C829.18,-75.5 850.45,-75.5 868.57,-75.5"/>
<polygon fill="#63b8ff" stroke="#63b8ff" points="808.93,-72 798.93,-75.5 808.93,-79 808.93,-72"/>
</g>
<!-- Node37 -->
<g id="node37" class="node">
<title>Node37</title>
<g id="a_node37"><a xlink:href="classFunctorInterface.html" target="_top" xlink:title="An interface for accessing Moose::Functors.">
<polygon fill="white" stroke="#666666" points="549,-85 436,-85 436,-66 549,-66 549,-85"/>
<text text-anchor="middle" x="492.5" y="-73" font-family="Courier,monospace" font-size="10.00">FunctorInterface</text>
</a>
</g>
</g>
<!-- Node37&#45;&gt;Node36 -->
<g id="edge36" class="edge">
<title>Node37&#45;&gt;Node36</title>
<path fill="none" stroke="#63b8ff" d="M560.76,-75.5C589.96,-75.5 624.18,-75.5 653.77,-75.5"/>
<polygon fill="#63b8ff" stroke="#63b8ff" points="560.93,-72 550.93,-75.5 560.93,-79 560.93,-72"/>
</g>
<!-- Node38 -->
<g id="node38" class="node">
<title>Node38</title>
<g id="a_node38"><a xlink:href="classMoose_1_1FunctorBase.html" target="_top" xlink:title=" ">
<polygon fill="white" stroke="#666666" points="788,-47.5 663,-47.5 663,-17.5 788,-17.5 788,-47.5"/>
<text text-anchor="start" x="671" y="-35.5" font-family="Courier,monospace" font-size="10.00">Moose::FunctorBase</text>
<text text-anchor="middle" x="725.5" y="-24.5" font-family="Courier,monospace" font-size="10.00">&lt; Real &gt;</text>
</a>
</g>
</g>
<!-- Node38&#45;&gt;Node34 -->
<g id="edge37" class="edge">
<title>Node38&#45;&gt;Node34</title>
<path fill="none" stroke="#63b8ff" d="M799.43,-49.09C823.84,-54.65 850.27,-60.66 871.74,-65.54"/>
<polygon fill="#63b8ff" stroke="#63b8ff" points="800.39,-45.72 789.86,-46.92 798.84,-52.55 800.39,-45.72"/>
</g>
<!-- Node39 -->
<g id="node39" class="node">
<title>Node39</title>
<g id="a_node39"><a xlink:href="classMoose_1_1FunctorAbstract.html" target="_top" xlink:title="Abstract base class that can be used to hold collections of functors.">
<polygon fill="white" stroke="#666666" points="567,-40 418,-40 418,-21 567,-21 567,-40"/>
<text text-anchor="middle" x="492.5" y="-28" font-family="Courier,monospace" font-size="10.00">Moose::FunctorAbstract</text>
</a>
</g>
</g>
<!-- Node39&#45;&gt;Node38 -->
<g id="edge38" class="edge">
<title>Node39&#45;&gt;Node38</title>
<path fill="none" stroke="#63b8ff" d="M578.58,-31.24C606.46,-31.48 636.88,-31.74 662.7,-31.96"/>
<polygon fill="#63b8ff" stroke="#63b8ff" points="578.77,-27.74 568.74,-31.15 578.71,-34.74 578.77,-27.74"/>
</g>
<!-- Node40 -->
<g id="node40" class="node">
<title>Node40</title>
<g id="a_node40"><a xlink:href="classFaceArgInterface.html" target="_top" xlink:title="A base class interface for both producers and consumers of functor face arguments,...">
<polygon fill="white" stroke="#666666" points="331,-19 218,-19 218,0 331,0 331,-19"/>
<text text-anchor="middle" x="274.5" y="-7" font-family="Courier,monospace" font-size="10.00">FaceArgInterface</text>
</a>
</g>
</g>
<!-- Node40&#45;&gt;Node39 -->
<g id="edge39" class="edge">
<title>Node40&#45;&gt;Node39</title>
<path fill="none" stroke="#63b8ff" d="M342.78,-16.04C366.49,-18.35 393.27,-20.95 417.51,-23.31"/>
<polygon fill="#63b8ff" stroke="#63b8ff" points="343.2,-12.57 332.91,-15.08 342.53,-19.53 343.2,-12.57"/>
</g>
<!-- Node41 -->
<g id="node41" class="node">
<title>Node41</title>
<g id="a_node41"><a xlink:href="classFaceArgProducerInterface.html" target="_top" xlink:title="An interface for producers of functor face arguments, e.g.">
<polygon fill="white" stroke="#666666" points="1164,-23 1003,-23 1003,-4 1164,-4 1164,-23"/>
<text text-anchor="middle" x="1083.5" y="-11" font-family="Courier,monospace" font-size="10.00">FaceArgProducerInterface</text>
</a>
</g>
</g>
<!-- Node40&#45;&gt;Node41 -->
<g id="edge41" class="edge">
<title>Node40&#45;&gt;Node41</title>
<path fill="none" stroke="#63b8ff" d="M342.67,-8.87C446.97,-8.01 654.17,-6.76 830,-8.5 887.76,-9.07 952.95,-10.38 1002.62,-11.51"/>
<polygon fill="#63b8ff" stroke="#63b8ff" points="342.87,-5.37 332.9,-8.95 342.93,-12.37 342.87,-5.37"/>
</g>
<!-- Node41&#45;&gt;Node1 -->
<g id="edge40" class="edge">
<title>Node41&#45;&gt;Node1</title>
<path fill="none" stroke="#63b8ff" d="M1175.7,-20.2C1242.43,-25.1 1333.07,-31.76 1402.59,-36.87"/>
<polygon fill="#63b8ff" stroke="#63b8ff" points="1176.11,-16.72 1165.88,-19.48 1175.6,-23.7 1176.11,-16.72"/>
</g>
</g>
</svg>
