<?xml version="1.0" encoding="UTF-8" standalone="no"?>
<!DOCTYPE svg PUBLIC "-//W3C//DTD SVG 1.1//EN"
 "http://www.w3.org/Graphics/SVG/1.1/DTD/svg11.dtd">
<!-- Generated by graphviz version 7.0.5 (20221223.1930)
 -->
<!-- Title: MultiAppShapeEvaluationTransfer Pages: 1 -->
<svg width="1422pt" height="212pt"
 viewBox="0.00 0.00 1422.00 212.00" xmlns="http://www.w3.org/2000/svg" xmlns:xlink="http://www.w3.org/1999/xlink">
<g id="graph0" class="graph" transform="scale(1 1) rotate(0) translate(4 208)">
<title>MultiAppShapeEvaluationTransfer</title>
<!-- Node1 -->
<g id="node1" class="node">
<title>Node1</title>
<g id="a_node1"><a xlink:title="Transfers a vector of variables.">
<polygon fill="#999999" stroke="#666666" points="1414,-74 1211,-74 1211,-55 1414,-55 1414,-74"/>
<text text-anchor="middle" x="1312.5" y="-62" font-family="Courier,monospace" font-size="10.00">MultiAppShapeEvaluationTransfer</text>
</a>
</g>
</g>
<!-- Node2 -->
<g id="node2" class="node">
<title>Node2</title>
<g id="a_node2"><a xlink:href="classMultiAppConservativeTransfer.html" target="_top" xlink:title="Transfers variables on possibly different meshes while conserving a user defined property (Postproces...">
<polygon fill="white" stroke="#666666" points="1175,-74 990,-74 990,-55 1175,-55 1175,-74"/>
<text text-anchor="middle" x="1082.5" y="-62" font-family="Courier,monospace" font-size="10.00">MultiAppConservativeTransfer</text>
</a>
</g>
</g>
<!-- Node2&#45;&gt;Node1 -->
<g id="edge1" class="edge">
<title>Node2&#45;&gt;Node1</title>
<path fill="none" stroke="#63b8ff" d="M1186.51,-64.5C1194.52,-64.5 1202.6,-64.5 1210.6,-64.5"/>
<polygon fill="#63b8ff" stroke="#63b8ff" points="1186.76,-61 1176.76,-64.5 1186.76,-68 1186.76,-61"/>
</g>
<!-- Node3 -->
<g id="node3" class="node">
<title>Node3</title>
<g id="a_node3"><a xlink:href="classMultiAppFieldTransfer.html" target="_top" xlink:title="Intermediary class that allows variable names as inputs.">
<polygon fill="white" stroke="#666666" points="954,-74 811,-74 811,-55 954,-55 954,-74"/>
<text text-anchor="middle" x="882.5" y="-62" font-family="Courier,monospace" font-size="10.00">MultiAppFieldTransfer</text>
</a>
</g>
</g>
<!-- Node3&#45;&gt;Node2 -->
<g id="edge2" class="edge">
<title>Node3&#45;&gt;Node2</title>
<path fill="none" stroke="#63b8ff" d="M965.83,-64.5C973.7,-64.5 981.71,-64.5 989.66,-64.5"/>
<polygon fill="#63b8ff" stroke="#63b8ff" points="965.94,-61 955.94,-64.5 965.94,-68 965.94,-61"/>
</g>
<!-- Node4 -->
<g id="node4" class="node">
<title>Node4</title>
<g id="a_node4"><a xlink:href="classMultiAppTransfer.html" target="_top" xlink:title="Base class for all MultiAppTransfer objects.">
<polygon fill="white" stroke="#666666" points="775,-74 662,-74 662,-55 775,-55 775,-74"/>
<text text-anchor="middle" x="718.5" y="-62" font-family="Courier,monospace" font-size="10.00">MultiAppTransfer</text>
</a>
</g>
</g>
<!-- Node4&#45;&gt;Node3 -->
<g id="edge3" class="edge">
<title>Node4&#45;&gt;Node3</title>
<path fill="none" stroke="#63b8ff" d="M786.72,-64.5C794.66,-64.5 802.78,-64.5 810.77,-64.5"/>
<polygon fill="#63b8ff" stroke="#63b8ff" points="786.76,-61 776.76,-64.5 786.76,-68 786.76,-61"/>
</g>
<!-- Node5 -->
<g id="node5" class="node">
<title>Node5</title>
<g id="a_node5"><a xlink:href="classTransfer.html" target="_top" xlink:title="Base class for all Transfer objects.">
<polygon fill="white" stroke="#666666" points="626,-74 561,-74 561,-55 626,-55 626,-74"/>
<text text-anchor="middle" x="593.5" y="-62" font-family="Courier,monospace" font-size="10.00">Transfer</text>
</a>
</g>
</g>
<!-- Node5&#45;&gt;Node4 -->
<g id="edge4" class="edge">
<title>Node5&#45;&gt;Node4</title>
<path fill="none" stroke="#63b8ff" d="M637.87,-64.5C645.62,-64.5 653.8,-64.5 661.84,-64.5"/>
<polygon fill="#63b8ff" stroke="#63b8ff" points="638.01,-61 628.01,-64.5 638.01,-68 638.01,-61"/>
</g>
<!-- Node6 -->
<g id="node6" class="node">
<title>Node6</title>
<g id="a_node6"><a xlink:href="classMooseObject.html" target="_top" xlink:title="Every object that can be built by the factory should be derived from this class.">
<polygon fill="white" stroke="#666666" points="504,-130 421,-130 421,-111 504,-111 504,-130"/>
<text text-anchor="middle" x="462.5" y="-118" font-family="Courier,monospace" font-size="10.00">MooseObject</text>
</a>
</g>
</g>
<!-- Node6&#45;&gt;Node5 -->
<g id="edge5" class="edge">
<title>Node6&#45;&gt;Node5</title>
<path fill="none" stroke="#63b8ff" d="M510.69,-106.99C515.57,-105.28 520.42,-103.44 525,-101.5 543.34,-93.74 563.19,-82.48 576.59,-74.42"/>
<polygon fill="#63b8ff" stroke="#63b8ff" points="509.85,-103.58 501.47,-110.07 512.06,-110.23 509.85,-103.58"/>
</g>
<!-- Node7 -->
<g id="node7" class="node">
<title>Node7</title>
<g id="a_node7"><a xlink:href="classMooseBase.html" target="_top" xlink:title="Base class for everything in MOOSE with a name and a type.">
<polygon fill="white" stroke="#666666" points="310,-204 239,-204 239,-185 310,-185 310,-204"/>
<text text-anchor="middle" x="274.5" y="-192" font-family="Courier,monospace" font-size="10.00">MooseBase</text>
</a>
</g>
</g>
<!-- Node7&#45;&gt;Node6 -->
<g id="edge6" class="edge">
<title>Node7&#45;&gt;Node6</title>
<path fill="none" stroke="#63b8ff" d="M321.58,-188.02C335.48,-185.3 350.59,-181.56 364,-176.5 395.78,-164.5 429.4,-142.94 447.68,-130.36"/>
<polygon fill="#63b8ff" stroke="#63b8ff" points="320.97,-184.58 311.75,-189.8 322.21,-191.47 320.97,-184.58"/>
</g>
<!-- Node8 -->
<g id="node8" class="node">
<title>Node8</title>
<g id="a_node8"><a xlink:href="classMooseBaseParameterInterface.html" target="_top" xlink:title="Every object that can be built by the factory should be derived from this class.">
<polygon fill="white" stroke="#666666" points="364,-167 185,-167 185,-148 364,-148 364,-167"/>
<text text-anchor="middle" x="274.5" y="-155" font-family="Courier,monospace" font-size="10.00">MooseBaseParameterInterface</text>
</a>
</g>
</g>
<!-- Node8&#45;&gt;Node6 -->
<g id="edge7" class="edge">
<title>Node8&#45;&gt;Node6</title>
<path fill="none" stroke="#63b8ff" d="M336.48,-145.37C364.07,-139.88 395.96,-133.54 420.62,-128.63"/>
<polygon fill="#63b8ff" stroke="#63b8ff" points="335.95,-141.91 326.83,-147.29 337.32,-148.77 335.95,-141.91"/>
</g>
<!-- Node9 -->
<g id="node9" class="node">
<title>Node9</title>
<g id="a_node9"><a xlink:href="classMooseBaseErrorInterface.html" target="_top" xlink:title="Interface that provides APIs to output errors/warnings/info messages.">
<polygon fill="white" stroke="#666666" points="352,-130 197,-130 197,-111 352,-111 352,-130"/>
<text text-anchor="middle" x="274.5" y="-118" font-family="Courier,monospace" font-size="10.00">MooseBaseErrorInterface</text>
</a>
</g>
</g>
<!-- Node9&#45;&gt;Node6 -->
<g id="edge8" class="edge">
<title>Node9&#45;&gt;Node6</title>
<path fill="none" stroke="#63b8ff" d="M363.81,-120.5C383.7,-120.5 403.87,-120.5 420.67,-120.5"/>
<polygon fill="#63b8ff" stroke="#63b8ff" points="364.01,-117 354.01,-120.5 364.01,-124 364.01,-117"/>
</g>
<!-- Node10 -->
<g id="node10" class="node">
<title>Node10</title>
<g id="a_node10"><a xlink:href="classConsoleStreamInterface.html" target="_top" xlink:title="An inteface for the _console for outputting to the Console object.">
<polygon fill="white" stroke="#666666" points="149,-130 0,-130 0,-111 149,-111 149,-130"/>
<text text-anchor="middle" x="74.5" y="-118" font-family="Courier,monospace" font-size="10.00">ConsoleStreamInterface</text>
</a>
</g>
</g>
<!-- Node10&#45;&gt;Node9 -->
<g id="edge9" class="edge">
<title>Node10&#45;&gt;Node9</title>
<path fill="none" stroke="#63b8ff" d="M160.62,-120.5C172.62,-120.5 184.9,-120.5 196.73,-120.5"/>
<polygon fill="#63b8ff" stroke="#63b8ff" points="160.74,-117 150.74,-120.5 160.74,-124 160.74,-117"/>
</g>
<!-- Node11 -->
<g id="node11" class="node">
<title>Node11</title>
<g id="a_node11"><a xlink:title=" ">
<polygon fill="white" stroke="#666666" points="352,-93 197,-93 197,-74 352,-74 352,-93"/>
<text text-anchor="middle" x="274.5" y="-81" font-family="Courier,monospace" font-size="10.00">libMesh::ParallelObject</text>
</a>
</g>
</g>
<!-- Node11&#45;&gt;Node6 -->
<g id="edge10" class="edge">
<title>Node11&#45;&gt;Node6</title>
<path fill="none" stroke="#63b8ff" d="M336.48,-95.63C364.07,-101.12 395.96,-107.46 420.62,-112.37"/>
<polygon fill="#63b8ff" stroke="#63b8ff" points="337.32,-92.23 326.83,-93.71 335.95,-99.09 337.32,-92.23"/>
</g>
<!-- Node12 -->
<g id="node12" class="node">
<title>Node12</title>
<g id="a_node12"><a xlink:href="classDataFileInterface.html" target="_top" xlink:title=" ">
<polygon fill="white" stroke="#666666" points="337,-55.5 212,-55.5 212,-25.5 337,-25.5 337,-55.5"/>
<text text-anchor="start" x="220" y="-43.5" font-family="Courier,monospace" font-size="10.00">DataFileInterface&lt;</text>
<text text-anchor="middle" x="274.5" y="-32.5" font-family="Courier,monospace" font-size="10.00"> MooseObject &gt;</text>
</a>
</g>
</g>
<!-- Node12&#45;&gt;Node6 -->
<g id="edge11" class="edge">
<title>Node12&#45;&gt;Node6</title>
<path fill="none" stroke="#63b8ff" d="M347.62,-56.49C353.32,-58.82 358.86,-61.47 364,-64.5 383.77,-76.14 380.43,-89.52 400,-101.5 406.29,-105.35 413.42,-108.48 420.55,-111"/>
<polygon fill="#63b8ff" stroke="#63b8ff" points="349.23,-53.35 338.64,-53.17 346.8,-59.92 349.23,-53.35"/>
</g>
<!-- Node13 -->
<g id="node13" class="node">
<title>Node13</title>
<g id="a_node13"><a xlink:href="classSetupInterface.html" target="_top" xlink:title=" ">
<polygon fill="white" stroke="#666666" points="513,-93 412,-93 412,-74 513,-74 513,-93"/>
<text text-anchor="middle" x="462.5" y="-81" font-family="Courier,monospace" font-size="10.00">SetupInterface</text>
</a>
</g>
</g>
<!-- Node13&#45;&gt;Node5 -->
<g id="edge12" class="edge">
<title>Node13&#45;&gt;Node5</title>
<path fill="none" stroke="#63b8ff" d="M524.69,-74.49C537.13,-72.66 549.73,-70.8 560.63,-69.19"/>
<polygon fill="#63b8ff" stroke="#63b8ff" points="524.26,-71.01 514.87,-75.93 525.28,-77.94 524.26,-71.01"/>
</g>
<!-- Node14 -->
<g id="node14" class="node">
<title>Node14</title>
<g id="a_node14"><a xlink:href="classRestartable.html" target="_top" xlink:title="A class for creating restricted objects.">
<polygon fill="white" stroke="#666666" points="504,-56 421,-56 421,-37 504,-37 504,-56"/>
<text text-anchor="middle" x="462.5" y="-44" font-family="Courier,monospace" font-size="10.00">Restartable</text>
</a>
</g>
</g>
<!-- Node14&#45;&gt;Node5 -->
<g id="edge13" class="edge">
<title>Node14&#45;&gt;Node5</title>
<path fill="none" stroke="#63b8ff" d="M515.68,-53.78C530.86,-55.9 546.99,-58.15 560.53,-60.04"/>
<polygon fill="#63b8ff" stroke="#63b8ff" points="516.2,-50.32 505.82,-52.4 515.24,-57.25 516.2,-50.32"/>
</g>
<!-- Node15 -->
<g id="node15" class="node">
<title>Node15</title>
<g id="a_node15"><a xlink:href="classPerfGraphInterface.html" target="_top" xlink:title="Interface for objects interacting with the PerfGraph.">
<polygon fill="white" stroke="#666666" points="525,-19 400,-19 400,0 525,0 525,-19"/>
<text text-anchor="middle" x="462.5" y="-7" font-family="Courier,monospace" font-size="10.00">PerfGraphInterface</text>
</a>
</g>
</g>
<!-- Node15&#45;&gt;Node5 -->
<g id="edge14" class="edge">
<title>Node15&#45;&gt;Node5</title>
<path fill="none" stroke="#63b8ff" d="M513.11,-23C517.17,-24.41 521.18,-25.92 525,-27.5 543.39,-35.13 563.24,-46.41 576.62,-54.51"/>
<polygon fill="#63b8ff" stroke="#63b8ff" points="514.36,-19.72 503.77,-19.94 512.18,-26.38 514.36,-19.72"/>
</g>
</g>
</svg>
