<?xml version="1.0" encoding="UTF-8" standalone="no"?>
<!DOCTYPE svg PUBLIC "-//W3C//DTD SVG 1.1//EN"
 "http://www.w3.org/Graphics/SVG/1.1/DTD/svg11.dtd">
<!-- Generated by graphviz version 7.0.5 (20221223.1930)
 -->
<!-- Title: MoosePreconditioner Pages: 1 -->
<svg width="957pt" height="212pt"
 viewBox="0.00 0.00 957.00 212.00" xmlns="http://www.w3.org/2000/svg" xmlns:xlink="http://www.w3.org/1999/xlink">
<g id="graph0" class="graph" transform="scale(1 1) rotate(0) translate(4 208)">
<title>MoosePreconditioner</title>
<!-- Node1 -->
<g id="node1" class="node">
<title>Node1</title>
<g id="a_node1"><a xlink:title="Base class for MOOSE preconditioners.">
<polygon fill="#999999" stroke="#666666" points="692,-93 561,-93 561,-74 692,-74 692,-93"/>
<text text-anchor="middle" x="626.5" y="-81" font-family="Courier,monospace" font-size="10.00">MoosePreconditioner</text>
</a>
</g>
</g>
<!-- Node11 -->
<g id="node11" class="node">
<title>Node11</title>
<g id="a_node11"><a xlink:href="classFieldSplitPreconditioner.html" target="_top" xlink:title="Implements a preconditioner designed to map onto PETSc&#39;s PCFieldSplit.">
<polygon fill="white" stroke="#666666" points="919,-167 758,-167 758,-148 919,-148 919,-167"/>
<text text-anchor="middle" x="838.5" y="-155" font-family="Courier,monospace" font-size="10.00">FieldSplitPreconditioner</text>
</a>
</g>
</g>
<!-- Node1&#45;&gt;Node11 -->
<g id="edge10" class="edge">
<title>Node1&#45;&gt;Node11</title>
<path fill="none" stroke="#63b8ff" d="M650.76,-99.53C670.46,-112.33 699.9,-129.7 728,-139.5 737.46,-142.8 747.59,-145.5 757.74,-147.71"/>
<polygon fill="#63b8ff" stroke="#63b8ff" points="652.93,-96.77 642.67,-94.15 649.06,-102.6 652.93,-96.77"/>
</g>
<!-- Node12 -->
<g id="node12" class="node">
<title>Node12</title>
<g id="a_node12"><a xlink:href="classFiniteDifferencePreconditioner.html" target="_top" xlink:title="Finite difference preconditioner.">
<polygon fill="white" stroke="#666666" points="937,-130 740,-130 740,-111 937,-111 937,-130"/>
<text text-anchor="middle" x="838.5" y="-118" font-family="Courier,monospace" font-size="10.00">FiniteDifferencePreconditioner</text>
</a>
</g>
</g>
<!-- Node1&#45;&gt;Node12 -->
<g id="edge11" class="edge">
<title>Node1&#45;&gt;Node12</title>
<path fill="none" stroke="#63b8ff" d="M693.98,-95.46C705.33,-97.49 717,-99.56 728,-101.5 744.72,-104.45 762.89,-107.61 779.53,-110.5"/>
<polygon fill="#63b8ff" stroke="#63b8ff" points="694.73,-92.04 684.27,-93.72 693.5,-98.93 694.73,-92.04"/>
</g>
<!-- Node13 -->
<g id="node13" class="node">
<title>Node13</title>
<g id="a_node13"><a xlink:href="classPhysicsBasedPreconditioner.html" target="_top" xlink:title="Implements a segregated solve preconditioner.">
<polygon fill="white" stroke="#666666" points="925,-93 752,-93 752,-74 925,-74 925,-93"/>
<text text-anchor="middle" x="838.5" y="-81" font-family="Courier,monospace" font-size="10.00">PhysicsBasedPreconditioner</text>
</a>
</g>
</g>
<!-- Node1&#45;&gt;Node13 -->
<g id="edge12" class="edge">
<title>Node1&#45;&gt;Node13</title>
<path fill="none" stroke="#63b8ff" d="M703.45,-83.5C719.12,-83.5 735.73,-83.5 751.73,-83.5"/>
<polygon fill="#63b8ff" stroke="#63b8ff" points="703.73,-80 693.73,-83.5 703.73,-87 703.73,-80"/>
</g>
<!-- Node14 -->
<g id="node14" class="node">
<title>Node14</title>
<g id="a_node14"><a xlink:href="classSingleMatrixPreconditioner.html" target="_top" xlink:title="Single matrix preconditioner.">
<polygon fill="white" stroke="#666666" points="925,-56 752,-56 752,-37 925,-37 925,-56"/>
<text text-anchor="middle" x="838.5" y="-44" font-family="Courier,monospace" font-size="10.00">SingleMatrixPreconditioner</text>
</a>
</g>
</g>
<!-- Node1&#45;&gt;Node14 -->
<g id="edge13" class="edge">
<title>Node1&#45;&gt;Node14</title>
<path fill="none" stroke="#63b8ff" d="M690.15,-71.42C702.68,-69.07 715.75,-66.66 728,-64.5 743.27,-61.8 759.77,-59.02 775.21,-56.48"/>
<polygon fill="#63b8ff" stroke="#63b8ff" points="689.51,-67.98 680.33,-73.27 690.8,-74.85 689.51,-67.98"/>
</g>
<!-- Node15 -->
<g id="node15" class="node">
<title>Node15</title>
<g id="a_node15"><a xlink:href="classVariableCondensationPreconditioner.html" target="_top" xlink:title="Interface for condensing out LMs for the dual mortar approach.">
<polygon fill="white" stroke="#666666" points="949,-19 728,-19 728,0 949,0 949,-19"/>
<text text-anchor="middle" x="838.5" y="-7" font-family="Courier,monospace" font-size="10.00">VariableCondensationPreconditioner</text>
</a>
</g>
</g>
<!-- Node1&#45;&gt;Node15 -->
<g id="edge14" class="edge">
<title>Node1&#45;&gt;Node15</title>
<path fill="none" stroke="#63b8ff" d="M650.76,-67.47C670.46,-54.67 699.9,-37.3 728,-27.5 737.19,-24.3 747.01,-21.65 756.86,-19.48"/>
<polygon fill="#63b8ff" stroke="#63b8ff" points="649.06,-64.4 642.67,-72.85 652.93,-70.23 649.06,-64.4"/>
</g>
<!-- Node2 -->
<g id="node2" class="node">
<title>Node2</title>
<g id="a_node2"><a xlink:href="classMooseObject.html" target="_top" xlink:title="Every object that can be built by the factory should be derived from this class.">
<polygon fill="white" stroke="#666666" points="504,-130 421,-130 421,-111 504,-111 504,-130"/>
<text text-anchor="middle" x="462.5" y="-118" font-family="Courier,monospace" font-size="10.00">MooseObject</text>
</a>
</g>
</g>
<!-- Node2&#45;&gt;Node1 -->
<g id="edge1" class="edge">
<title>Node2&#45;&gt;Node1</title>
<path fill="none" stroke="#63b8ff" d="M515.56,-108.61C536.92,-103.73 561.38,-98.14 581.79,-93.48"/>
<polygon fill="#63b8ff" stroke="#63b8ff" points="514.82,-105.19 505.85,-110.83 516.38,-112.01 514.82,-105.19"/>
</g>
<!-- Node3 -->
<g id="node3" class="node">
<title>Node3</title>
<g id="a_node3"><a xlink:href="classMooseBase.html" target="_top" xlink:title="Base class for everything in MOOSE with a name and a type.">
<polygon fill="white" stroke="#666666" points="310,-204 239,-204 239,-185 310,-185 310,-204"/>
<text text-anchor="middle" x="274.5" y="-192" font-family="Courier,monospace" font-size="10.00">MooseBase</text>
</a>
</g>
</g>
<!-- Node3&#45;&gt;Node2 -->
<g id="edge2" class="edge">
<title>Node3&#45;&gt;Node2</title>
<path fill="none" stroke="#63b8ff" d="M321.58,-188.02C335.48,-185.3 350.59,-181.56 364,-176.5 395.78,-164.5 429.4,-142.94 447.68,-130.36"/>
<polygon fill="#63b8ff" stroke="#63b8ff" points="320.97,-184.58 311.75,-189.8 322.21,-191.47 320.97,-184.58"/>
</g>
<!-- Node4 -->
<g id="node4" class="node">
<title>Node4</title>
<g id="a_node4"><a xlink:href="classMooseBaseParameterInterface.html" target="_top" xlink:title="Every object that can be built by the factory should be derived from this class.">
<polygon fill="white" stroke="#666666" points="364,-167 185,-167 185,-148 364,-148 364,-167"/>
<text text-anchor="middle" x="274.5" y="-155" font-family="Courier,monospace" font-size="10.00">MooseBaseParameterInterface</text>
</a>
</g>
</g>
<!-- Node4&#45;&gt;Node2 -->
<g id="edge3" class="edge">
<title>Node4&#45;&gt;Node2</title>
<path fill="none" stroke="#63b8ff" d="M336.48,-145.37C364.07,-139.88 395.96,-133.54 420.62,-128.63"/>
<polygon fill="#63b8ff" stroke="#63b8ff" points="335.95,-141.91 326.83,-147.29 337.32,-148.77 335.95,-141.91"/>
</g>
<!-- Node5 -->
<g id="node5" class="node">
<title>Node5</title>
<g id="a_node5"><a xlink:href="classMooseBaseErrorInterface.html" target="_top" xlink:title="Interface that provides APIs to output errors/warnings/info messages.">
<polygon fill="white" stroke="#666666" points="352,-130 197,-130 197,-111 352,-111 352,-130"/>
<text text-anchor="middle" x="274.5" y="-118" font-family="Courier,monospace" font-size="10.00">MooseBaseErrorInterface</text>
</a>
</g>
</g>
<!-- Node5&#45;&gt;Node2 -->
<g id="edge4" class="edge">
<title>Node5&#45;&gt;Node2</title>
<path fill="none" stroke="#63b8ff" d="M363.81,-120.5C383.7,-120.5 403.87,-120.5 420.67,-120.5"/>
<polygon fill="#63b8ff" stroke="#63b8ff" points="364.01,-117 354.01,-120.5 364.01,-124 364.01,-117"/>
</g>
<!-- Node6 -->
<g id="node6" class="node">
<title>Node6</title>
<g id="a_node6"><a xlink:href="classConsoleStreamInterface.html" target="_top" xlink:title="An inteface for the _console for outputting to the Console object.">
<polygon fill="white" stroke="#666666" points="149,-130 0,-130 0,-111 149,-111 149,-130"/>
<text text-anchor="middle" x="74.5" y="-118" font-family="Courier,monospace" font-size="10.00">ConsoleStreamInterface</text>
</a>
</g>
</g>
<!-- Node6&#45;&gt;Node5 -->
<g id="edge5" class="edge">
<title>Node6&#45;&gt;Node5</title>
<path fill="none" stroke="#63b8ff" d="M160.62,-120.5C172.62,-120.5 184.9,-120.5 196.73,-120.5"/>
<polygon fill="#63b8ff" stroke="#63b8ff" points="160.74,-117 150.74,-120.5 160.74,-124 160.74,-117"/>
</g>
<!-- Node7 -->
<g id="node7" class="node">
<title>Node7</title>
<g id="a_node7"><a xlink:title=" ">
<polygon fill="white" stroke="#666666" points="352,-93 197,-93 197,-74 352,-74 352,-93"/>
<text text-anchor="middle" x="274.5" y="-81" font-family="Courier,monospace" font-size="10.00">libMesh::ParallelObject</text>
</a>
</g>
</g>
<!-- Node7&#45;&gt;Node2 -->
<g id="edge6" class="edge">
<title>Node7&#45;&gt;Node2</title>
<path fill="none" stroke="#63b8ff" d="M336.48,-95.63C364.07,-101.12 395.96,-107.46 420.62,-112.37"/>
<polygon fill="#63b8ff" stroke="#63b8ff" points="337.32,-92.23 326.83,-93.71 335.95,-99.09 337.32,-92.23"/>
</g>
<!-- Node8 -->
<g id="node8" class="node">
<title>Node8</title>
<g id="a_node8"><a xlink:href="classDataFileInterface.html" target="_top" xlink:title=" ">
<polygon fill="white" stroke="#666666" points="337,-55.5 212,-55.5 212,-25.5 337,-25.5 337,-55.5"/>
<text text-anchor="start" x="220" y="-43.5" font-family="Courier,monospace" font-size="10.00">DataFileInterface&lt;</text>
<text text-anchor="middle" x="274.5" y="-32.5" font-family="Courier,monospace" font-size="10.00"> MooseObject &gt;</text>
</a>
</g>
</g>
<!-- Node8&#45;&gt;Node2 -->
<g id="edge7" class="edge">
<title>Node8&#45;&gt;Node2</title>
<path fill="none" stroke="#63b8ff" d="M347.62,-56.49C353.32,-58.82 358.86,-61.47 364,-64.5 383.77,-76.14 380.43,-89.52 400,-101.5 406.29,-105.35 413.42,-108.48 420.55,-111"/>
<polygon fill="#63b8ff" stroke="#63b8ff" points="349.23,-53.35 338.64,-53.17 346.8,-59.92 349.23,-53.35"/>
</g>
<!-- Node9 -->
<g id="node9" class="node">
<title>Node9</title>
<g id="a_node9"><a xlink:href="classRestartable.html" target="_top" xlink:title="A class for creating restricted objects.">
<polygon fill="white" stroke="#666666" points="504,-93 421,-93 421,-74 504,-74 504,-93"/>
<text text-anchor="middle" x="462.5" y="-81" font-family="Courier,monospace" font-size="10.00">Restartable</text>
</a>
</g>
</g>
<!-- Node9&#45;&gt;Node1 -->
<g id="edge8" class="edge">
<title>Node9&#45;&gt;Node1</title>
<path fill="none" stroke="#63b8ff" d="M515.56,-83.5C529.92,-83.5 545.68,-83.5 560.67,-83.5"/>
<polygon fill="#63b8ff" stroke="#63b8ff" points="515.89,-80 505.89,-83.5 515.89,-87 515.89,-80"/>
</g>
<!-- Node10 -->
<g id="node10" class="node">
<title>Node10</title>
<g id="a_node10"><a xlink:href="classPerfGraphInterface.html" target="_top" xlink:title="Interface for objects interacting with the PerfGraph.">
<polygon fill="white" stroke="#666666" points="525,-56 400,-56 400,-37 525,-37 525,-56"/>
<text text-anchor="middle" x="462.5" y="-44" font-family="Courier,monospace" font-size="10.00">PerfGraphInterface</text>
</a>
</g>
</g>
<!-- Node10&#45;&gt;Node1 -->
<g id="edge9" class="edge">
<title>Node10&#45;&gt;Node1</title>
<path fill="none" stroke="#63b8ff" d="M517.87,-58.92C538.73,-63.68 562.25,-69.05 581.97,-73.56"/>
<polygon fill="#63b8ff" stroke="#63b8ff" points="518.92,-55.57 508.39,-56.75 517.36,-62.39 518.92,-55.57"/>
</g>
</g>
</svg>
