<?xml version="1.0" encoding="UTF-8" standalone="no"?>
<!DOCTYPE svg PUBLIC "-//W3C//DTD SVG 1.1//EN"
 "http://www.w3.org/Graphics/SVG/1.1/DTD/svg11.dtd">
<!-- Generated by graphviz version 7.0.5 (20221223.1930)
 -->
<!-- Title: CompileTimeDerivatives::CTBase Pages: 1 -->
<svg width="581pt" height="566pt"
 viewBox="0.00 0.00 581.00 566.00" xmlns="http://www.w3.org/2000/svg" xmlns:xlink="http://www.w3.org/1999/xlink">
<g id="graph0" class="graph" transform="scale(1 1) rotate(0) translate(4 562)">
<title>CompileTimeDerivatives::CTBase</title>
<!-- Node1 -->
<g id="node1" class="node">
<title>Node1</title>
<g id="a_node1"><a xlink:title="All compile time derivative system objects derive from this (empty) base class.">
<polygon fill="#999999" stroke="#666666" points="149,-222 0,-222 0,-192 149,-192 149,-222"/>
<text text-anchor="start" x="8" y="-210" font-family="Courier,monospace" font-size="10.00">CompileTimeDerivatives</text>
<text text-anchor="middle" x="74.5" y="-199" font-family="Courier,monospace" font-size="10.00">::CTBase</text>
</a>
</g>
</g>
<!-- Node2 -->
<g id="node2" class="node">
<title>Node2</title>
<g id="a_node2"><a xlink:href="classCompileTimeDerivatives_1_1CTUnary.html" target="_top" xlink:title=" ">
<polygon fill="white" stroke="#666666" points="349,-486 200,-486 200,-456 349,-456 349,-486"/>
<text text-anchor="start" x="208" y="-474" font-family="Courier,monospace" font-size="10.00">CompileTimeDerivatives</text>
<text text-anchor="middle" x="274.5" y="-463" font-family="Courier,monospace" font-size="10.00">::CTUnary&lt; B &gt;</text>
</a>
</g>
</g>
<!-- Node1&#45;&gt;Node2 -->
<g id="edge1" class="edge">
<title>Node1&#45;&gt;Node2</title>
<path fill="none" stroke="#63b8ff" d="M89.94,-231.9C109.81,-265.5 147.41,-326.69 185,-375 208.52,-405.24 239.56,-437.39 257.93,-455.75"/>
<polygon fill="#63b8ff" stroke="#63b8ff" points="93.21,-230.56 85.13,-223.71 87.17,-234.11 93.21,-230.56"/>
</g>
<!-- Node4 -->
<g id="node4" class="node">
<title>Node4</title>
<g id="a_node4"><a xlink:href="classCompileTimeDerivatives_1_1CTArrayRef.html" target="_top" xlink:title="Array variable value, referencing an entry in an indexable container of T types.">
<polygon fill="white" stroke="#666666" points="358,-366 191,-366 191,-336 358,-336 358,-366"/>
<text text-anchor="start" x="199" y="-354" font-family="Courier,monospace" font-size="10.00">CompileTimeDerivatives</text>
<text text-anchor="middle" x="274.5" y="-343" font-family="Courier,monospace" font-size="10.00">::CTArrayRef&lt; tag, T, I &gt;</text>
</a>
</g>
</g>
<!-- Node1&#45;&gt;Node4 -->
<g id="edge3" class="edge">
<title>Node1&#45;&gt;Node4</title>
<path fill="none" stroke="#63b8ff" d="M91.58,-231.75C110.63,-259.11 144.91,-302.53 185,-327 190.44,-330.32 196.33,-333.18 202.42,-335.66"/>
<polygon fill="#63b8ff" stroke="#63b8ff" points="94.63,-230.02 86.12,-223.72 88.84,-233.95 94.63,-230.02"/>
</g>
<!-- Node5 -->
<g id="node5" class="node">
<title>Node5</title>
<g id="a_node5"><a xlink:href="classCompileTimeDerivatives_1_1CTBinary.html" target="_top" xlink:title="Base class for a binary operator/function.">
<polygon fill="white" stroke="#666666" points="349,-318 200,-318 200,-288 349,-288 349,-318"/>
<text text-anchor="start" x="208" y="-306" font-family="Courier,monospace" font-size="10.00">CompileTimeDerivatives</text>
<text text-anchor="middle" x="274.5" y="-295" font-family="Courier,monospace" font-size="10.00">::CTBinary&lt; L, R &gt;</text>
</a>
</g>
</g>
<!-- Node1&#45;&gt;Node5 -->
<g id="edge4" class="edge">
<title>Node1&#45;&gt;Node5</title>
<path fill="none" stroke="#63b8ff" d="M103.68,-229.15C124.98,-244.97 155.5,-265.71 185,-279 192.11,-282.2 199.74,-285.06 207.44,-287.59"/>
<polygon fill="#63b8ff" stroke="#63b8ff" points="105.88,-226.42 95.79,-223.19 101.66,-232.01 105.88,-226.42"/>
</g>
<!-- Node13 -->
<g id="node13" class="node">
<title>Node13</title>
<g id="a_node13"><a xlink:href="classCompileTimeDerivatives_1_1CTNullBase.html" target="_top" xlink:title=" ">
<polygon fill="white" stroke="#666666" points="349,-270 200,-270 200,-240 349,-240 349,-270"/>
<text text-anchor="start" x="208" y="-258" font-family="Courier,monospace" font-size="10.00">CompileTimeDerivatives</text>
<text text-anchor="middle" x="274.5" y="-247" font-family="Courier,monospace" font-size="10.00">::CTNullBase</text>
</a>
</g>
</g>
<!-- Node1&#45;&gt;Node13 -->
<g id="edge12" class="edge">
<title>Node1&#45;&gt;Node13</title>
<path fill="none" stroke="#63b8ff" d="M150.3,-225.13C169.92,-229.89 190.9,-234.98 209.88,-239.58"/>
<polygon fill="#63b8ff" stroke="#63b8ff" points="151.25,-221.76 140.71,-222.81 149.6,-228.57 151.25,-221.76"/>
</g>
<!-- Node15 -->
<g id="node15" class="node">
<title>Node15</title>
<g id="a_node15"><a xlink:href="classCompileTimeDerivatives_1_1CTOneBase.html" target="_top" xlink:title=" ">
<polygon fill="white" stroke="#666666" points="349,-222 200,-222 200,-192 349,-192 349,-222"/>
<text text-anchor="start" x="208" y="-210" font-family="Courier,monospace" font-size="10.00">CompileTimeDerivatives</text>
<text text-anchor="middle" x="274.5" y="-199" font-family="Courier,monospace" font-size="10.00">::CTOneBase</text>
</a>
</g>
</g>
<!-- Node1&#45;&gt;Node15 -->
<g id="edge14" class="edge">
<title>Node1&#45;&gt;Node15</title>
<path fill="none" stroke="#63b8ff" d="M160.57,-207C173.6,-207 186.95,-207 199.71,-207"/>
<polygon fill="#63b8ff" stroke="#63b8ff" points="160.74,-203.5 150.74,-207 160.74,-210.5 160.74,-203.5"/>
</g>
<!-- Node17 -->
<g id="node17" class="node">
<title>Node17</title>
<g id="a_node17"><a xlink:href="classCompileTimeDerivatives_1_1CTRef.html" target="_top" xlink:title="Variable value, referencing a variable of type T.">
<polygon fill="white" stroke="#666666" points="349,-174 200,-174 200,-144 349,-144 349,-174"/>
<text text-anchor="start" x="208" y="-162" font-family="Courier,monospace" font-size="10.00">CompileTimeDerivatives</text>
<text text-anchor="middle" x="274.5" y="-151" font-family="Courier,monospace" font-size="10.00">::CTRef&lt; tag, T &gt;</text>
</a>
</g>
</g>
<!-- Node1&#45;&gt;Node17 -->
<g id="edge16" class="edge">
<title>Node1&#45;&gt;Node17</title>
<path fill="none" stroke="#63b8ff" d="M150.3,-188.87C169.92,-184.11 190.9,-179.02 209.88,-174.42"/>
<polygon fill="#63b8ff" stroke="#63b8ff" points="149.6,-185.43 140.71,-191.19 151.25,-192.24 149.6,-185.43"/>
</g>
<!-- Node18 -->
<g id="node18" class="node">
<title>Node18</title>
<g id="a_node18"><a xlink:href="classCompileTimeDerivatives_1_1CTStandardDeviation.html" target="_top" xlink:title=" ">
<polygon fill="white" stroke="#666666" points="364,-126 185,-126 185,-96 364,-96 364,-126"/>
<text text-anchor="start" x="193" y="-114" font-family="Courier,monospace" font-size="10.00">CompileTimeDerivatives</text>
<text text-anchor="middle" x="274.5" y="-103" font-family="Courier,monospace" font-size="10.00">::CTStandardDeviation&lt; Ds &gt;</text>
</a>
</g>
</g>
<!-- Node1&#45;&gt;Node18 -->
<g id="edge17" class="edge">
<title>Node1&#45;&gt;Node18</title>
<path fill="none" stroke="#63b8ff" d="M103.68,-184.85C124.98,-169.03 155.5,-148.29 185,-135 192.11,-131.8 199.74,-128.94 207.44,-126.41"/>
<polygon fill="#63b8ff" stroke="#63b8ff" points="101.66,-181.99 95.79,-190.81 105.88,-187.58 101.66,-181.99"/>
</g>
<!-- Node19 -->
<g id="node19" class="node">
<title>Node19</title>
<g id="a_node19"><a xlink:href="classCompileTimeDerivatives_1_1CTUnary.html" target="_top" xlink:title="Base class for a unary operator/function.">
<polygon fill="white" stroke="#666666" points="349,-78 200,-78 200,-48 349,-48 349,-78"/>
<text text-anchor="start" x="208" y="-66" font-family="Courier,monospace" font-size="10.00">CompileTimeDerivatives</text>
<text text-anchor="middle" x="274.5" y="-55" font-family="Courier,monospace" font-size="10.00">::CTUnary&lt; T &gt;</text>
</a>
</g>
</g>
<!-- Node1&#45;&gt;Node19 -->
<g id="edge18" class="edge">
<title>Node1&#45;&gt;Node19</title>
<path fill="none" stroke="#63b8ff" d="M91.58,-182.25C110.63,-154.89 144.91,-111.47 185,-87 190.44,-83.68 196.33,-80.82 202.42,-78.34"/>
<polygon fill="#63b8ff" stroke="#63b8ff" points="88.84,-180.05 86.12,-190.28 94.63,-183.98 88.84,-180.05"/>
</g>
<!-- Node21 -->
<g id="node21" class="node">
<title>Node21</title>
<g id="a_node21"><a xlink:href="classCompileTimeDerivatives_1_1CTValue.html" target="_top" xlink:title="Constant value.">
<polygon fill="white" stroke="#666666" points="349,-30 200,-30 200,0 349,0 349,-30"/>
<text text-anchor="start" x="208" y="-18" font-family="Courier,monospace" font-size="10.00">CompileTimeDerivatives</text>
<text text-anchor="middle" x="274.5" y="-7" font-family="Courier,monospace" font-size="10.00">::CTValue&lt; tag, T &gt;</text>
</a>
</g>
</g>
<!-- Node1&#45;&gt;Node21 -->
<g id="edge20" class="edge">
<title>Node1&#45;&gt;Node21</title>
<path fill="none" stroke="#63b8ff" d="M85.35,-181.05C100.82,-143.86 134.36,-75.85 185,-39 189.51,-35.72 194.43,-32.89 199.58,-30.45"/>
<polygon fill="#63b8ff" stroke="#63b8ff" points="82.18,-179.55 81.7,-190.13 88.68,-182.16 82.18,-179.55"/>
</g>
<!-- Node3 -->
<g id="node3" class="node">
<title>Node3</title>
<g id="a_node3"><a xlink:href="classCompileTimeDerivatives_1_1CTIPow.html" target="_top" xlink:title="Integer exponent power operator.">
<polygon fill="white" stroke="#666666" points="561,-558 412,-558 412,-528 561,-528 561,-558"/>
<text text-anchor="start" x="420" y="-546" font-family="Courier,monospace" font-size="10.00">CompileTimeDerivatives</text>
<text text-anchor="middle" x="486.5" y="-535" font-family="Courier,monospace" font-size="10.00">::CTIPow&lt; B, E &gt;</text>
</a>
</g>
</g>
<!-- Node2&#45;&gt;Node3 -->
<g id="edge2" class="edge">
<title>Node2&#45;&gt;Node3</title>
<path fill="none" stroke="#63b8ff" d="M323.28,-490.63C346.28,-499.78 374.38,-510.49 400,-519 408.92,-521.97 418.45,-524.88 427.78,-527.6"/>
<polygon fill="#63b8ff" stroke="#63b8ff" points="324.75,-487.45 314.16,-486.99 322.15,-493.95 324.75,-487.45"/>
</g>
<!-- Node6 -->
<g id="node6" class="node">
<title>Node6</title>
<g id="a_node6"><a xlink:href="classCompileTimeDerivatives_1_1CTAdd.html" target="_top" xlink:title="Addition operator node.">
<polygon fill="white" stroke="#666666" points="561,-510 412,-510 412,-480 561,-480 561,-510"/>
<text text-anchor="start" x="420" y="-498" font-family="Courier,monospace" font-size="10.00">CompileTimeDerivatives</text>
<text text-anchor="middle" x="486.5" y="-487" font-family="Courier,monospace" font-size="10.00">::CTAdd&lt; L, R &gt;</text>
</a>
</g>
</g>
<!-- Node5&#45;&gt;Node6 -->
<g id="edge5" class="edge">
<title>Node5&#45;&gt;Node6</title>
<path fill="none" stroke="#63b8ff" d="M358.36,-321.98C360.35,-323.53 362.23,-325.2 364,-327 410.18,-374.11 354.03,-423.69 400,-471 403.44,-474.54 407.35,-477.57 411.57,-480.16"/>
<polygon fill="#63b8ff" stroke="#63b8ff" points="360.65,-319.29 350.36,-316.77 356.83,-325.16 360.65,-319.29"/>
</g>
<!-- Node7 -->
<g id="node7" class="node">
<title>Node7</title>
<g id="a_node7"><a xlink:href="classCompileTimeDerivatives_1_1CTCompare.html" target="_top" xlink:title="Binary comparison operator node.">
<polygon fill="white" stroke="#666666" points="561,-462 412,-462 412,-432 561,-432 561,-462"/>
<text text-anchor="start" x="420" y="-450" font-family="Courier,monospace" font-size="10.00">CompileTimeDerivatives</text>
<text text-anchor="middle" x="486.5" y="-439" font-family="Courier,monospace" font-size="10.00">::CTCompare&lt; C, L, R &gt;</text>
</a>
</g>
</g>
<!-- Node5&#45;&gt;Node7 -->
<g id="edge6" class="edge">
<title>Node5&#45;&gt;Node7</title>
<path fill="none" stroke="#63b8ff" d="M358.86,-322.81C360.65,-324.12 362.37,-325.51 364,-327 397.7,-357.67 366.44,-392.18 400,-423 403.63,-426.34 407.7,-429.21 412.02,-431.7"/>
<polygon fill="#63b8ff" stroke="#63b8ff" points="361.05,-320.04 350.71,-317.74 357.35,-325.99 361.05,-320.04"/>
</g>
<!-- Node8 -->
<g id="node8" class="node">
<title>Node8</title>
<g id="a_node8"><a xlink:href="classCompileTimeDerivatives_1_1CTConditional.html" target="_top" xlink:title="Base class for a ternary functions.">
<polygon fill="white" stroke="#666666" points="573,-414 400,-414 400,-384 573,-384 573,-414"/>
<text text-anchor="start" x="408" y="-402" font-family="Courier,monospace" font-size="10.00">CompileTimeDerivatives</text>
<text text-anchor="middle" x="486.5" y="-391" font-family="Courier,monospace" font-size="10.00">::CTConditional&lt; C, L, R &gt;</text>
</a>
</g>
</g>
<!-- Node5&#45;&gt;Node8 -->
<g id="edge7" class="edge">
<title>Node5&#45;&gt;Node8</title>
<path fill="none" stroke="#63b8ff" d="M358.34,-323.47C360.28,-324.58 362.17,-325.76 364,-327 386.07,-341.97 378,-359.93 400,-375 404.83,-378.31 410.12,-381.17 415.61,-383.63"/>
<polygon fill="#63b8ff" stroke="#63b8ff" points="360.14,-320.46 349.64,-319.06 356.98,-326.7 360.14,-320.46"/>
</g>
<!-- Node9 -->
<g id="node9" class="node">
<title>Node9</title>
<g id="a_node9"><a xlink:href="classCompileTimeDerivatives_1_1CTDiv.html" target="_top" xlink:title="Division operator node.">
<polygon fill="white" stroke="#666666" points="561,-366 412,-366 412,-336 561,-336 561,-366"/>
<text text-anchor="start" x="420" y="-354" font-family="Courier,monospace" font-size="10.00">CompileTimeDerivatives</text>
<text text-anchor="middle" x="486.5" y="-343" font-family="Courier,monospace" font-size="10.00">::CTDiv&lt; L, R &gt;</text>
</a>
</g>
</g>
<!-- Node5&#45;&gt;Node9 -->
<g id="edge8" class="edge">
<title>Node5&#45;&gt;Node9</title>
<path fill="none" stroke="#63b8ff" d="M354.25,-321C375.23,-325.8 397.71,-330.93 418.03,-335.58"/>
<polygon fill="#63b8ff" stroke="#63b8ff" points="355.11,-317.61 344.58,-318.79 353.55,-324.43 355.11,-317.61"/>
</g>
<!-- Node10 -->
<g id="node10" class="node">
<title>Node10</title>
<g id="a_node10"><a xlink:href="classCompileTimeDerivatives_1_1CTMul.html" target="_top" xlink:title="Multiplication operator node.">
<polygon fill="white" stroke="#666666" points="561,-318 412,-318 412,-288 561,-288 561,-318"/>
<text text-anchor="start" x="420" y="-306" font-family="Courier,monospace" font-size="10.00">CompileTimeDerivatives</text>
<text text-anchor="middle" x="486.5" y="-295" font-family="Courier,monospace" font-size="10.00">::CTMul&lt; L, R &gt;</text>
</a>
</g>
</g>
<!-- Node5&#45;&gt;Node10 -->
<g id="edge9" class="edge">
<title>Node5&#45;&gt;Node10</title>
<path fill="none" stroke="#63b8ff" d="M360.28,-303C377.27,-303 394.99,-303 411.58,-303"/>
<polygon fill="#63b8ff" stroke="#63b8ff" points="360.76,-299.5 350.76,-303 360.76,-306.5 360.76,-299.5"/>
</g>
<!-- Node11 -->
<g id="node11" class="node">
<title>Node11</title>
<g id="a_node11"><a xlink:href="classCompileTimeDerivatives_1_1CTPow.html" target="_top" xlink:title="Power operator where both base and exponent can be arbitrary operators.">
<polygon fill="white" stroke="#666666" points="561,-270 412,-270 412,-240 561,-240 561,-270"/>
<text text-anchor="start" x="420" y="-258" font-family="Courier,monospace" font-size="10.00">CompileTimeDerivatives</text>
<text text-anchor="middle" x="486.5" y="-247" font-family="Courier,monospace" font-size="10.00">::CTPow&lt; L, R &gt;</text>
</a>
</g>
</g>
<!-- Node5&#45;&gt;Node11 -->
<g id="edge10" class="edge">
<title>Node5&#45;&gt;Node11</title>
<path fill="none" stroke="#63b8ff" d="M354.25,-285C375.23,-280.2 397.71,-275.07 418.03,-270.42"/>
<polygon fill="#63b8ff" stroke="#63b8ff" points="353.55,-281.57 344.58,-287.21 355.11,-288.39 353.55,-281.57"/>
</g>
<!-- Node12 -->
<g id="node12" class="node">
<title>Node12</title>
<g id="a_node12"><a xlink:href="classCompileTimeDerivatives_1_1CTSub.html" target="_top" xlink:title="Subtraction operator node.">
<polygon fill="white" stroke="#666666" points="561,-222 412,-222 412,-192 561,-192 561,-222"/>
<text text-anchor="start" x="420" y="-210" font-family="Courier,monospace" font-size="10.00">CompileTimeDerivatives</text>
<text text-anchor="middle" x="486.5" y="-199" font-family="Courier,monospace" font-size="10.00">::CTSub&lt; L, R &gt;</text>
</a>
</g>
</g>
<!-- Node5&#45;&gt;Node12 -->
<g id="edge11" class="edge">
<title>Node5&#45;&gt;Node12</title>
<path fill="none" stroke="#63b8ff" d="M358.34,-282.53C360.28,-281.42 362.17,-280.24 364,-279 386.07,-264.03 378,-246.07 400,-231 404.83,-227.69 410.12,-224.83 415.61,-222.37"/>
<polygon fill="#63b8ff" stroke="#63b8ff" points="356.98,-279.3 349.64,-286.94 360.14,-285.54 356.98,-279.3"/>
</g>
<!-- Node14 -->
<g id="node14" class="node">
<title>Node14</title>
<g id="a_node14"><a xlink:href="classCompileTimeDerivatives_1_1CTNull.html" target="_top" xlink:title="Template class to represent a &quot;zero&quot; value.">
<polygon fill="white" stroke="#666666" points="561,-174 412,-174 412,-144 561,-144 561,-174"/>
<text text-anchor="start" x="420" y="-162" font-family="Courier,monospace" font-size="10.00">CompileTimeDerivatives</text>
<text text-anchor="middle" x="486.5" y="-151" font-family="Courier,monospace" font-size="10.00">::CTNull&lt; T &gt;</text>
</a>
</g>
</g>
<!-- Node13&#45;&gt;Node14 -->
<g id="edge13" class="edge">
<title>Node13&#45;&gt;Node14</title>
<path fill="none" stroke="#63b8ff" d="M358.34,-234.53C360.28,-233.42 362.17,-232.24 364,-231 386.07,-216.03 378,-198.07 400,-183 404.83,-179.69 410.12,-176.83 415.61,-174.37"/>
<polygon fill="#63b8ff" stroke="#63b8ff" points="356.98,-231.3 349.64,-238.94 360.14,-237.54 356.98,-231.3"/>
</g>
<!-- Node16 -->
<g id="node16" class="node">
<title>Node16</title>
<g id="a_node16"><a xlink:href="classCompileTimeDerivatives_1_1CTOne.html" target="_top" xlink:title="Template class to represent a &quot;one&quot; value.">
<polygon fill="white" stroke="#666666" points="561,-126 412,-126 412,-96 561,-96 561,-126"/>
<text text-anchor="start" x="420" y="-114" font-family="Courier,monospace" font-size="10.00">CompileTimeDerivatives</text>
<text text-anchor="middle" x="486.5" y="-103" font-family="Courier,monospace" font-size="10.00">::CTOne&lt; T &gt;</text>
</a>
</g>
</g>
<!-- Node15&#45;&gt;Node16 -->
<g id="edge15" class="edge">
<title>Node15&#45;&gt;Node16</title>
<path fill="none" stroke="#63b8ff" d="M358.34,-186.53C360.28,-185.42 362.17,-184.24 364,-183 386.07,-168.03 378,-150.07 400,-135 404.83,-131.69 410.12,-128.83 415.61,-126.37"/>
<polygon fill="#63b8ff" stroke="#63b8ff" points="356.98,-183.3 349.64,-190.94 360.14,-189.54 356.98,-183.3"/>
</g>
<!-- Node20 -->
<g id="node20" class="node">
<title>Node20</title>
<g id="a_node20"><a xlink:href="classCompileTimeDerivatives_1_1CTUnaryMinus.html" target="_top" xlink:title="Unary minus.">
<polygon fill="white" stroke="#666666" points="561,-78 412,-78 412,-48 561,-48 561,-78"/>
<text text-anchor="start" x="420" y="-66" font-family="Courier,monospace" font-size="10.00">CompileTimeDerivatives</text>
<text text-anchor="middle" x="486.5" y="-55" font-family="Courier,monospace" font-size="10.00">::CTUnaryMinus&lt; T &gt;</text>
</a>
</g>
</g>
<!-- Node19&#45;&gt;Node20 -->
<g id="edge19" class="edge">
<title>Node19&#45;&gt;Node20</title>
<path fill="none" stroke="#63b8ff" d="M360.28,-63C377.27,-63 394.99,-63 411.58,-63"/>
<polygon fill="#63b8ff" stroke="#63b8ff" points="360.76,-59.5 350.76,-63 360.76,-66.5 360.76,-59.5"/>
</g>
</g>
</svg>
