<?xml version="1.0" encoding="UTF-8" standalone="no"?>
<!DOCTYPE svg PUBLIC "-//W3C//DTD SVG 1.1//EN"
 "http://www.w3.org/Graphics/SVG/1.1/DTD/svg11.dtd">
<!-- Generated by graphviz version 7.0.5 (20221223.1930)
 -->
<!-- Title: DerivativeMaterialInterface&lt; T &gt; Pages: 1 -->
<svg width="259pt" height="148pt"
 viewBox="0.00 0.00 259.00 148.00" xmlns="http://www.w3.org/2000/svg" xmlns:xlink="http://www.w3.org/1999/xlink">
<g id="graph0" class="graph" transform="scale(1 1) rotate(0) translate(4 144)">
<title>DerivativeMaterialInterface&lt; T &gt;</title>
<!-- Node1 -->
<g id="node1" class="node">
<title>Node1</title>
<g id="a_node1"><a xlink:title="Interface class (&quot;Veneer&quot;) to provide generator methods for derivative material property names.">
<polygon fill="#999999" stroke="#666666" points="209,-74 0,-74 0,-55 209,-55 209,-74"/>
<text text-anchor="middle" x="104.5" y="-62" font-family="Courier,monospace" font-size="10.00">DerivativeMaterialInterface&lt; T &gt;</text>
</a>
</g>
</g>
<!-- Node4 -->
<g id="node4" class="node">
<title>Node4</title>
<g id="a_node4"><a xlink:href="classDerivativeKernelInterface.html" target="_top" xlink:title="Interface class (&quot;Veneer&quot;) to provide generator methods for derivative material property names,...">
<polygon fill="white" stroke="#666666" points="203,-19 6,-19 6,0 203,0 203,-19"/>
<text text-anchor="middle" x="104.5" y="-7" font-family="Courier,monospace" font-size="10.00">DerivativeKernelInterface&lt; T &gt;</text>
</a>
</g>
</g>
<!-- Node1&#45;&gt;Node4 -->
<g id="edge3" class="edge">
<title>Node1&#45;&gt;Node4</title>
<path fill="none" stroke="#63b8ff" d="M104.5,-43.35C104.5,-35.1 104.5,-25.97 104.5,-19.44"/>
<polygon fill="#63b8ff" stroke="#63b8ff" points="101,-43.23 104.5,-53.23 108,-43.23 101,-43.23"/>
</g>
<!-- Node2 -->
<g id="node2" class="node">
<title>Node2</title>
<g id="a_node2"><a xlink:title=" ">
<polygon fill="white" stroke="#666666" points="60,-134.5 31,-134.5 31,-115.5 60,-115.5 60,-134.5"/>
<text text-anchor="middle" x="45.5" y="-122.5" font-family="Courier,monospace" font-size="10.00">T</text>
</a>
</g>
</g>
<!-- Node2&#45;&gt;Node1 -->
<g id="edge1" class="edge">
<title>Node2&#45;&gt;Node1</title>
<path fill="none" stroke="#63b8ff" d="M62.36,-107.28C73.13,-96.6 86.67,-83.17 95.45,-74.47"/>
<polygon fill="#63b8ff" stroke="#63b8ff" points="60.17,-104.52 55.54,-114.05 65.1,-109.49 60.17,-104.52"/>
</g>
<!-- Node3 -->
<g id="node3" class="node">
<title>Node3</title>
<g id="a_node3"><a xlink:href="classDerivativeMaterialPropertyNameInterface.html" target="_top" xlink:title=" ">
<polygon fill="white" stroke="#666666" points="251,-140 78,-140 78,-110 251,-110 251,-140"/>
<text text-anchor="start" x="86" y="-128" font-family="Courier,monospace" font-size="10.00">DerivativeMaterialProperty</text>
<text text-anchor="middle" x="164.5" y="-117" font-family="Courier,monospace" font-size="10.00">NameInterface</text>
</a>
</g>
</g>
<!-- Node3&#45;&gt;Node1 -->
<g id="edge2" class="edge">
<title>Node3&#45;&gt;Node1</title>
<path fill="none" stroke="#63b8ff" d="M141.44,-101.51C131.63,-91.96 120.79,-81.38 113.4,-74.18"/>
<polygon fill="#63b8ff" stroke="#63b8ff" points="138.98,-104.01 148.58,-108.48 143.87,-99 138.98,-104.01"/>
</g>
</g>
</svg>
