<?xml version="1.0" encoding="UTF-8" standalone="no"?>
<!DOCTYPE svg PUBLIC "-//W3C//DTD SVG 1.1//EN"
 "http://www.w3.org/Graphics/SVG/1.1/DTD/svg11.dtd">
<!-- Generated by graphviz version 7.0.5 (20221223.1930)
 -->
<!-- Title: Marker Pages: 1 -->
<!--zoomable 434 -->
<svg id="main" version="1.1" xmlns="http://www.w3.org/2000/svg" xmlns:xlink="http://www.w3.org/1999/xlink" xml:space="preserve" onload="init(evt)">
<style type="text/css"><![CDATA[
.edge:hover path { stroke: red; }
.edge:hover polygon { stroke: red; fill: red; }
]]></style>
<script type="text/javascript"><![CDATA[
var edges = document.getElementsByTagName('g');
if (edges && edges.length) {
  for (var i=0;i<edges.length;i++) {
    if (edges[i].id.substr(0,4)=='edge') {
      edges[i].setAttribute('class','edge');
    }
  }
}
]]></script>
        <defs>
                <circle id="rim" cx="0" cy="0" r="7"/>
                <circle id="rim2" cx="0" cy="0" r="3.5"/>
                <g id="zoomPlus">
                        <use xlink:href="#rim" fill="#404040">
                                <set attributeName="fill" to="#808080" begin="zoomplus.mouseover" end="zoomplus.mouseout"/>
                        </use>
                        <path d="M-4,0h8M0,-4v8" fill="none" stroke="white" stroke-width="1.5" pointer-events="none"/>
                </g>
                <g id="zoomMin">
                        <use xlink:href="#rim" fill="#404040">
                                <set attributeName="fill" to="#808080" begin="zoomminus.mouseover" end="zoomminus.mouseout"/>
                        </use>
                        <path d="M-4,0h8" fill="none" stroke="white" stroke-width="1.5" pointer-events="none"/>
                </g>
                <g id="dirArrow">
                        <path fill="none" stroke="white" stroke-width="1.5" d="M0,-3.0v7 M-2.5,-0.5L0,-3.0L2.5,-0.5"/>
                </g>
               <g id="resetDef">
                       <use xlink:href="#rim2" fill="#404040">
                               <set attributeName="fill" to="#808080" begin="reset.mouseover" end="reset.mouseout"/>
                       </use>
               </g>
        </defs>

<script type="text/javascript">
var viewWidth = 1070;
var viewHeight = 434;
var sectionId = 'dynsection-0';
</script>
<script xlink:href="svgpan.js"/>
<svg id="graph" class="graph">
<g id="viewport">
<title>Marker</title>
<!-- Node1 -->
<g id="node1" class="node">
<title>Node1</title>
<g id="a_node1"><a xlink:title=" ">
<polygon fill="#999999" stroke="#666666" points="698,-185 645,-185 645,-166 698,-166 698,-185"/>
<text text-anchor="middle" x="671.5" y="-173" font-family="Courier,monospace" font-size="10.00">Marker</text>
</a>
</g>
</g>
<!-- Node18 -->
<g id="node18" class="node">
<title>Node18</title>
<g id="a_node18"><a xlink:href="classBoundaryMarker.html" target="_top" xlink:title="Marks all elements near a given boundary for refinement/coarsening.">
<polygon fill="white" stroke="#666666" points="862,-333 761,-333 761,-314 862,-314 862,-333"/>
<text text-anchor="middle" x="811.5" y="-321" font-family="Courier,monospace" font-size="10.00">BoundaryMarker</text>
</a>
</g>
</g>
<!-- Node1&#45;&gt;Node18 -->
<g id="edge17" class="edge">
<title>Node1&#45;&gt;Node18</title>
<path fill="none" stroke="#63b8ff" d="M676.47,-196.32C683.12,-225.33 699.35,-277.48 734,-305.5 741.64,-311.68 751.03,-315.8 760.59,-318.54"/>
<polygon fill="#63b8ff" stroke="#63b8ff" points="679.98,-195.99 674.49,-186.93 673.13,-197.44 679.98,-195.99"/>
</g>
<!-- Node19 -->
<g id="node19" class="node">
<title>Node19</title>
<g id="a_node19"><a xlink:href="classBoundaryPreservedMarker.html" target="_top" xlink:title=" ">
<polygon fill="white" stroke="#666666" points="889,-296 734,-296 734,-277 889,-277 889,-296"/>
<text text-anchor="middle" x="811.5" y="-284" font-family="Courier,monospace" font-size="10.00">BoundaryPreservedMarker</text>
</a>
</g>
</g>
<!-- Node1&#45;&gt;Node19 -->
<g id="edge18" class="edge">
<title>Node1&#45;&gt;Node19</title>
<path fill="none" stroke="#63b8ff" d="M680.58,-195.99C690.11,-217.41 708.01,-250.38 734,-268.5 738.59,-271.7 743.67,-274.34 748.97,-276.51"/>
<polygon fill="#63b8ff" stroke="#63b8ff" points="683.84,-194.7 676.74,-186.84 677.39,-197.41 683.84,-194.7"/>
</g>
<!-- Node20 -->
<g id="node20" class="node">
<title>Node20</title>
<g id="a_node20"><a xlink:href="classBoxMarker.html" target="_top" xlink:title=" ">
<polygon fill="white" stroke="#666666" points="847,-259 776,-259 776,-240 847,-240 847,-259"/>
<text text-anchor="middle" x="811.5" y="-247" font-family="Courier,monospace" font-size="10.00">BoxMarker</text>
</a>
</g>
</g>
<!-- Node1&#45;&gt;Node20 -->
<g id="edge19" class="edge">
<title>Node1&#45;&gt;Node20</title>
<path fill="none" stroke="#63b8ff" d="M687.92,-193.77C699.39,-206.21 716.11,-222.08 734,-231.5 746.8,-238.24 762.11,-242.49 775.66,-245.15"/>
<polygon fill="#63b8ff" stroke="#63b8ff" points="690.8,-191.74 681.55,-186.58 685.56,-196.39 690.8,-191.74"/>
</g>
<!-- Node21 -->
<g id="node21" class="node">
<title>Node21</title>
<g id="a_node21"><a xlink:href="classComboMarker.html" target="_top" xlink:title="Combines multiple marker fields.">
<polygon fill="white" stroke="#666666" points="853,-222 770,-222 770,-203 853,-203 853,-222"/>
<text text-anchor="middle" x="811.5" y="-210" font-family="Courier,monospace" font-size="10.00">ComboMarker</text>
</a>
</g>
</g>
<!-- Node1&#45;&gt;Node21 -->
<g id="edge20" class="edge">
<title>Node1&#45;&gt;Node21</title>
<path fill="none" stroke="#63b8ff" d="M709.15,-187.27C717.3,-189.77 725.92,-192.3 734,-194.5 745.59,-197.65 758.25,-200.76 769.87,-203.49"/>
<polygon fill="#63b8ff" stroke="#63b8ff" points="710.45,-184.01 699.86,-184.39 708.38,-190.7 710.45,-184.01"/>
</g>
<!-- Node22 -->
<g id="node22" class="node">
<title>Node22</title>
<g id="a_node22"><a xlink:href="classIndicatorMarker.html" target="_top" xlink:title=" ">
<polygon fill="white" stroke="#666666" points="865,-185 758,-185 758,-166 865,-166 865,-185"/>
<text text-anchor="middle" x="811.5" y="-173" font-family="Courier,monospace" font-size="10.00">IndicatorMarker</text>
</a>
</g>
</g>
<!-- Node1&#45;&gt;Node22 -->
<g id="edge21" class="edge">
<title>Node1&#45;&gt;Node22</title>
<path fill="none" stroke="#63b8ff" d="M709.65,-175.5C724.36,-175.5 741.54,-175.5 757.51,-175.5"/>
<polygon fill="#63b8ff" stroke="#63b8ff" points="709.97,-172 699.97,-175.5 709.97,-179 709.97,-172"/>
</g>
<!-- Node25 -->
<g id="node25" class="node">
<title>Node25</title>
<g id="a_node25"><a xlink:href="classOrientedBoxMarker.html" target="_top" xlink:title="Creates a box of specified width, length and height, with its center at specified position,...">
<polygon fill="white" stroke="#666666" points="871,-148 752,-148 752,-129 871,-129 871,-148"/>
<text text-anchor="middle" x="811.5" y="-136" font-family="Courier,monospace" font-size="10.00">OrientedBoxMarker</text>
</a>
</g>
</g>
<!-- Node1&#45;&gt;Node25 -->
<g id="edge24" class="edge">
<title>Node1&#45;&gt;Node25</title>
<path fill="none" stroke="#63b8ff" d="M709.15,-163.73C717.3,-161.23 725.92,-158.7 734,-156.5 744.27,-153.71 755.38,-150.95 765.87,-148.46"/>
<polygon fill="#63b8ff" stroke="#63b8ff" points="708.38,-160.3 699.86,-166.61 710.45,-166.99 708.38,-160.3"/>
</g>
<!-- Node26 -->
<g id="node26" class="node">
<title>Node26</title>
<g id="a_node26"><a xlink:href="classQuadraturePointMarker.html" target="_top" xlink:title=" ">
<polygon fill="white" stroke="#666666" points="883,-111 740,-111 740,-92 883,-92 883,-111"/>
<text text-anchor="middle" x="811.5" y="-99" font-family="Courier,monospace" font-size="10.00">QuadraturePointMarker</text>
</a>
</g>
</g>
<!-- Node1&#45;&gt;Node26 -->
<g id="edge25" class="edge">
<title>Node1&#45;&gt;Node26</title>
<path fill="none" stroke="#63b8ff" d="M687.92,-157.23C699.39,-144.79 716.11,-128.92 734,-119.5 740.16,-116.26 746.9,-113.59 753.74,-111.4"/>
<polygon fill="#63b8ff" stroke="#63b8ff" points="685.56,-154.61 681.55,-164.42 690.8,-159.26 685.56,-154.61"/>
</g>
<!-- Node29 -->
<g id="node29" class="node">
<title>Node29</title>
<g id="a_node29"><a xlink:href="classReporterPointMarker.html" target="_top" xlink:title="Marks all elements as inside/empty if they do/don&#39;t contain a point.">
<polygon fill="white" stroke="#666666" points="877,-74 746,-74 746,-55 877,-55 877,-74"/>
<text text-anchor="middle" x="811.5" y="-62" font-family="Courier,monospace" font-size="10.00">ReporterPointMarker</text>
</a>
</g>
</g>
<!-- Node1&#45;&gt;Node29 -->
<g id="edge28" class="edge">
<title>Node1&#45;&gt;Node29</title>
<path fill="none" stroke="#63b8ff" d="M680.58,-155.01C690.11,-133.59 708.01,-100.62 734,-82.5 738.59,-79.3 743.67,-76.66 748.97,-74.49"/>
<polygon fill="#63b8ff" stroke="#63b8ff" points="677.39,-153.59 676.74,-164.16 683.84,-156.3 677.39,-153.59"/>
</g>
<!-- Node30 -->
<g id="node30" class="node">
<title>Node30</title>
<g id="a_node30"><a xlink:href="classUniformMarker.html" target="_top" xlink:title=" ">
<polygon fill="white" stroke="#666666" points="859,-37 764,-37 764,-18 859,-18 859,-37"/>
<text text-anchor="middle" x="811.5" y="-25" font-family="Courier,monospace" font-size="10.00">UniformMarker</text>
</a>
</g>
</g>
<!-- Node1&#45;&gt;Node30 -->
<g id="edge29" class="edge">
<title>Node1&#45;&gt;Node30</title>
<path fill="none" stroke="#63b8ff" d="M676.47,-154.68C683.12,-125.67 699.35,-73.52 734,-45.5 742.49,-38.64 753.14,-34.3 763.78,-31.59"/>
<polygon fill="#63b8ff" stroke="#63b8ff" points="673.13,-153.56 674.49,-164.07 679.98,-155.01 673.13,-153.56"/>
</g>
<!-- Node2 -->
<g id="node2" class="node">
<title>Node2</title>
<g id="a_node2"><a xlink:href="classMooseObject.html" target="_top" xlink:title="Every object that can be built by the factory should be derived from this class.">
<polygon fill="white" stroke="#666666" points="546,-352 463,-352 463,-333 546,-333 546,-352"/>
<text text-anchor="middle" x="504.5" y="-340" font-family="Courier,monospace" font-size="10.00">MooseObject</text>
</a>
</g>
</g>
<!-- Node2&#45;&gt;Node1 -->
<g id="edge1" class="edge">
<title>Node2&#45;&gt;Node1</title>
<path fill="none" stroke="#63b8ff" d="M557.59,-343.36C575.5,-341.25 594.63,-336.02 609,-324.5 654.42,-288.09 666.63,-212.48 669.61,-185.41"/>
<polygon fill="#63b8ff" stroke="#63b8ff" points="557.54,-339.86 547.87,-344.19 558.13,-346.83 557.54,-339.86"/>
</g>
<!-- Node3 -->
<g id="node3" class="node">
<title>Node3</title>
<g id="a_node3"><a xlink:href="classMooseBase.html" target="_top" xlink:title="Base class for everything in MOOSE with a name and a type.">
<polygon fill="white" stroke="#666666" points="310,-426 239,-426 239,-407 310,-407 310,-426"/>
<text text-anchor="middle" x="274.5" y="-414" font-family="Courier,monospace" font-size="10.00">MooseBase</text>
</a>
</g>
</g>
<!-- Node3&#45;&gt;Node2 -->
<g id="edge2" class="edge">
<title>Node3&#45;&gt;Node2</title>
<path fill="none" stroke="#63b8ff" d="M321.54,-408.78C335.32,-406.03 350.39,-402.58 364,-398.5 407,-385.61 455.19,-364.76 482.19,-352.47"/>
<polygon fill="#63b8ff" stroke="#63b8ff" points="320.97,-405.32 311.81,-410.64 322.29,-412.2 320.97,-405.32"/>
</g>
<!-- Node4 -->
<g id="node4" class="node">
<title>Node4</title>
<g id="a_node4"><a xlink:href="classMooseBaseParameterInterface.html" target="_top" xlink:title="Every object that can be built by the factory should be derived from this class.">
<polygon fill="white" stroke="#666666" points="364,-389 185,-389 185,-370 364,-370 364,-389"/>
<text text-anchor="middle" x="274.5" y="-377" font-family="Courier,monospace" font-size="10.00">MooseBaseParameterInterface</text>
</a>
</g>
</g>
<!-- Node4&#45;&gt;Node2 -->
<g id="edge3" class="edge">
<title>Node4&#45;&gt;Node2</title>
<path fill="none" stroke="#63b8ff" d="M347.88,-367.75C385.73,-361.61 430.68,-354.32 462.51,-349.15"/>
<polygon fill="#63b8ff" stroke="#63b8ff" points="347.7,-364.24 338.39,-369.29 348.83,-371.15 347.7,-364.24"/>
</g>
<!-- Node5 -->
<g id="node5" class="node">
<title>Node5</title>
<g id="a_node5"><a xlink:href="classMooseBaseErrorInterface.html" target="_top" xlink:title="Interface that provides APIs to output errors/warnings/info messages.">
<polygon fill="white" stroke="#666666" points="352,-352 197,-352 197,-333 352,-333 352,-352"/>
<text text-anchor="middle" x="274.5" y="-340" font-family="Courier,monospace" font-size="10.00">MooseBaseErrorInterface</text>
</a>
</g>
</g>
<!-- Node5&#45;&gt;Node2 -->
<g id="edge4" class="edge">
<title>Node5&#45;&gt;Node2</title>
<path fill="none" stroke="#63b8ff" d="M363.8,-342.5C397.92,-342.5 435.28,-342.5 462.77,-342.5"/>
<polygon fill="#63b8ff" stroke="#63b8ff" points="363.89,-339 353.89,-342.5 363.89,-346 363.89,-339"/>
</g>
<!-- Node6 -->
<g id="node6" class="node">
<title>Node6</title>
<g id="a_node6"><a xlink:href="classConsoleStreamInterface.html" target="_top" xlink:title="An inteface for the _console for outputting to the Console object.">
<polygon fill="white" stroke="#666666" points="149,-352 0,-352 0,-333 149,-333 149,-352"/>
<text text-anchor="middle" x="74.5" y="-340" font-family="Courier,monospace" font-size="10.00">ConsoleStreamInterface</text>
</a>
</g>
</g>
<!-- Node6&#45;&gt;Node5 -->
<g id="edge5" class="edge">
<title>Node6&#45;&gt;Node5</title>
<path fill="none" stroke="#63b8ff" d="M160.62,-342.5C172.62,-342.5 184.9,-342.5 196.73,-342.5"/>
<polygon fill="#63b8ff" stroke="#63b8ff" points="160.74,-339 150.74,-342.5 160.74,-346 160.74,-339"/>
</g>
<!-- Node7 -->
<g id="node7" class="node">
<title>Node7</title>
<g id="a_node7"><a xlink:title=" ">
<polygon fill="white" stroke="#666666" points="352,-315 197,-315 197,-296 352,-296 352,-315"/>
<text text-anchor="middle" x="274.5" y="-303" font-family="Courier,monospace" font-size="10.00">libMesh::ParallelObject</text>
</a>
</g>
</g>
<!-- Node7&#45;&gt;Node2 -->
<g id="edge6" class="edge">
<title>Node7&#45;&gt;Node2</title>
<path fill="none" stroke="#63b8ff" d="M347.88,-317.25C385.73,-323.39 430.68,-330.68 462.51,-335.85"/>
<polygon fill="#63b8ff" stroke="#63b8ff" points="348.83,-313.85 338.39,-315.71 347.7,-320.76 348.83,-313.85"/>
</g>
<!-- Node8 -->
<g id="node8" class="node">
<title>Node8</title>
<g id="a_node8"><a xlink:href="classDataFileInterface.html" target="_top" xlink:title=" ">
<polygon fill="white" stroke="#666666" points="337,-277.5 212,-277.5 212,-247.5 337,-247.5 337,-277.5"/>
<text text-anchor="start" x="220" y="-265.5" font-family="Courier,monospace" font-size="10.00">DataFileInterface&lt;</text>
<text text-anchor="middle" x="274.5" y="-254.5" font-family="Courier,monospace" font-size="10.00"> MooseObject &gt;</text>
</a>
</g>
</g>
<!-- Node8&#45;&gt;Node2 -->
<g id="edge7" class="edge">
<title>Node8&#45;&gt;Node2</title>
<path fill="none" stroke="#63b8ff" d="M347.62,-279.35C353.32,-281.73 358.86,-284.44 364,-287.5 383.71,-299.24 379.71,-313.79 400,-324.5 419.11,-334.59 442.71,-339.19 462.54,-341.23"/>
<polygon fill="#63b8ff" stroke="#63b8ff" points="349.23,-276.22 338.64,-275.94 346.74,-282.76 349.23,-276.22"/>
</g>
<!-- Node9 -->
<g id="node9" class="node">
<title>Node9</title>
<g id="a_node9"><a xlink:href="classBlockRestrictable.html" target="_top" xlink:title="An interface that restricts an object to subdomains via the &#39;blocks&#39; input parameter.">
<polygon fill="white" stroke="#666666" points="564,-315 445,-315 445,-296 564,-296 564,-315"/>
<text text-anchor="middle" x="504.5" y="-303" font-family="Courier,monospace" font-size="10.00">BlockRestrictable</text>
</a>
</g>
</g>
<!-- Node9&#45;&gt;Node1 -->
<g id="edge8" class="edge">
<title>Node9&#45;&gt;Node1</title>
<path fill="none" stroke="#63b8ff" d="M575.4,-302.12C587.37,-299.17 599.12,-294.56 609,-287.5 645.28,-261.58 662.5,-207.32 668.23,-185.2"/>
<polygon fill="#63b8ff" stroke="#63b8ff" points="574.96,-298.64 565.87,-304.08 576.37,-305.49 574.96,-298.64"/>
</g>
<!-- Node10 -->
<g id="node10" class="node">
<title>Node10</title>
<g id="a_node10"><a xlink:href="classSetupInterface.html" target="_top" xlink:title=" ">
<polygon fill="white" stroke="#666666" points="555,-278 454,-278 454,-259 555,-259 555,-278"/>
<text text-anchor="middle" x="504.5" y="-266" font-family="Courier,monospace" font-size="10.00">SetupInterface</text>
</a>
</g>
</g>
<!-- Node10&#45;&gt;Node1 -->
<g id="edge9" class="edge">
<title>Node10&#45;&gt;Node1</title>
<path fill="none" stroke="#63b8ff" d="M566.43,-265.23C581.09,-262.51 596.2,-257.97 609,-250.5 636.2,-234.63 656.48,-201.93 665.43,-185.45"/>
<polygon fill="#63b8ff" stroke="#63b8ff" points="566.19,-261.73 556.85,-266.74 567.27,-268.64 566.19,-261.73"/>
</g>
<!-- Node11 -->
<g id="node11" class="node">
<title>Node11</title>
<g id="a_node11"><a xlink:href="classDependencyResolverInterface.html" target="_top" xlink:title="Interface for sorting dependent vectors of objects.">
<polygon fill="white" stroke="#666666" points="594,-241 415,-241 415,-222 594,-222 594,-241"/>
<text text-anchor="middle" x="504.5" y="-229" font-family="Courier,monospace" font-size="10.00">DependencyResolverInterface</text>
</a>
</g>
</g>
<!-- Node11&#45;&gt;Node1 -->
<g id="edge10" class="edge">
<title>Node11&#45;&gt;Node1</title>
<path fill="none" stroke="#63b8ff" d="M593.44,-218.63C598.76,-217.11 603.99,-215.4 609,-213.5 627.3,-206.55 646.14,-193.96 658.06,-185.18"/>
<polygon fill="#63b8ff" stroke="#63b8ff" points="592.67,-215.21 583.88,-221.13 594.44,-221.99 592.67,-215.21"/>
</g>
<!-- Node12 -->
<g id="node12" class="node">
<title>Node12</title>
<g id="a_node12"><a xlink:href="classMooseVariableDependencyInterface.html" target="_top" xlink:title=" ">
<polygon fill="white" stroke="#666666" points="609,-204 400,-204 400,-185 609,-185 609,-204"/>
<text text-anchor="middle" x="504.5" y="-192" font-family="Courier,monospace" font-size="10.00">MooseVariableDependencyInterface</text>
</a>
</g>
</g>
<!-- Node12&#45;&gt;Node1 -->
<g id="edge11" class="edge">
<title>Node12&#45;&gt;Node1</title>
<path fill="none" stroke="#63b8ff" d="M603.13,-183.26C618.47,-181.49 633.09,-179.81 644.76,-178.46"/>
<polygon fill="#63b8ff" stroke="#63b8ff" points="602.9,-179.76 593.37,-184.38 603.7,-186.71 602.9,-179.76"/>
</g>
<!-- Node13 -->
<g id="node13" class="node">
<title>Node13</title>
<g id="a_node13"><a xlink:href="classUserObjectInterface.html" target="_top" xlink:title="Interface for objects that need to use UserObjects.">
<polygon fill="white" stroke="#666666" points="570,-167 439,-167 439,-148 570,-148 570,-167"/>
<text text-anchor="middle" x="504.5" y="-155" font-family="Courier,monospace" font-size="10.00">UserObjectInterface</text>
</a>
</g>
</g>
<!-- Node13&#45;&gt;Node1 -->
<g id="edge12" class="edge">
<title>Node13&#45;&gt;Node1</title>
<path fill="none" stroke="#63b8ff" d="M581.63,-165.81C604.29,-168.28 627.6,-170.82 644.65,-172.68"/>
<polygon fill="#63b8ff" stroke="#63b8ff" points="582.06,-162.33 571.74,-164.73 581.3,-169.29 582.06,-162.33"/>
</g>
<!-- Node14 -->
<g id="node14" class="node">
<title>Node14</title>
<g id="a_node14"><a xlink:href="classRestartable.html" target="_top" xlink:title="A class for creating restricted objects.">
<polygon fill="white" stroke="#666666" points="546,-130 463,-130 463,-111 546,-111 546,-130"/>
<text text-anchor="middle" x="504.5" y="-118" font-family="Courier,monospace" font-size="10.00">Restartable</text>
</a>
</g>
</g>
<!-- Node14&#45;&gt;Node1 -->
<g id="edge13" class="edge">
<title>Node14&#45;&gt;Node1</title>
<path fill="none" stroke="#63b8ff" d="M557.52,-125.72C574.3,-128.4 592.75,-132.44 609,-138.5 626.98,-145.2 645.58,-157.23 657.55,-165.75"/>
<polygon fill="#63b8ff" stroke="#63b8ff" points="558.12,-122.27 547.72,-124.28 557.11,-129.19 558.12,-122.27"/>
</g>
<!-- Node15 -->
<g id="node15" class="node">
<title>Node15</title>
<g id="a_node15"><a xlink:href="classPostprocessorInterface.html" target="_top" xlink:title="Interface class for classes which interact with Postprocessors.">
<polygon fill="white" stroke="#666666" points="579,-93 430,-93 430,-74 579,-74 579,-93"/>
<text text-anchor="middle" x="504.5" y="-81" font-family="Courier,monospace" font-size="10.00">PostprocessorInterface</text>
</a>
</g>
</g>
<!-- Node15&#45;&gt;Node1 -->
<g id="edge14" class="edge">
<title>Node15&#45;&gt;Node1</title>
<path fill="none" stroke="#63b8ff" d="M589.93,-92.92C596.6,-95.23 603.04,-98.05 609,-101.5 636.03,-117.15 656.39,-149.42 665.4,-165.68"/>
<polygon fill="#63b8ff" stroke="#63b8ff" points="591.34,-89.69 580.76,-90.15 589.32,-96.39 591.34,-89.69"/>
</g>
<!-- Node16 -->
<g id="node16" class="node">
<title>Node16</title>
<g id="a_node16"><a xlink:href="classMeshChangedInterface.html" target="_top" xlink:title="Interface for notifications that the mesh has changed.">
<polygon fill="white" stroke="#666666" points="573,-56 436,-56 436,-37 573,-37 573,-56"/>
<text text-anchor="middle" x="504.5" y="-44" font-family="Courier,monospace" font-size="10.00">MeshChangedInterface</text>
</a>
</g>
</g>
<!-- Node16&#45;&gt;Node1 -->
<g id="edge15" class="edge">
<title>Node16&#45;&gt;Node1</title>
<path fill="none" stroke="#63b8ff" d="M584.2,-52.42C593.05,-55.28 601.55,-59.2 609,-64.5 644.9,-90.05 662.24,-143.43 668.11,-165.56"/>
<polygon fill="#63b8ff" stroke="#63b8ff" points="585.3,-49.09 574.73,-49.81 583.45,-55.84 585.3,-49.09"/>
</g>
<!-- Node17 -->
<g id="node17" class="node">
<title>Node17</title>
<g id="a_node17"><a xlink:href="classOutputInterface.html" target="_top" xlink:title="A class to provide an common interface to objects requiring &quot;outputs&quot; option.">
<polygon fill="white" stroke="#666666" points="558,-19 451,-19 451,0 558,0 558,-19"/>
<text text-anchor="middle" x="504.5" y="-7" font-family="Courier,monospace" font-size="10.00">OutputInterface</text>
</a>
</g>
</g>
<!-- Node17&#45;&gt;Node1 -->
<g id="edge16" class="edge">
<title>Node17&#45;&gt;Node1</title>
<path fill="none" stroke="#63b8ff" d="M569.64,-10.56C583.76,-13.41 597.82,-18.56 609,-27.5 654.2,-63.65 666.55,-138.76 669.59,-165.65"/>
<polygon fill="#63b8ff" stroke="#63b8ff" points="570.28,-7.12 559.85,-8.99 569.17,-14.03 570.28,-7.12"/>
</g>
<!-- Node23 -->
<g id="node23" class="node">
<title>Node23</title>
<g id="a_node23"><a xlink:href="classErrorFractionMarker.html" target="_top" xlink:title=" ">
<polygon fill="white" stroke="#666666" points="1059,-203 928,-203 928,-184 1059,-184 1059,-203"/>
<text text-anchor="middle" x="993.5" y="-191" font-family="Courier,monospace" font-size="10.00">ErrorFractionMarker</text>
</a>
</g>
</g>
<!-- Node22&#45;&gt;Node23 -->
<g id="edge22" class="edge">
<title>Node22&#45;&gt;Node23</title>
<path fill="none" stroke="#63b8ff" d="M876.35,-181.89C893.03,-183.55 911.02,-185.35 927.74,-187.02"/>
<polygon fill="#63b8ff" stroke="#63b8ff" points="876.85,-178.42 866.55,-180.91 876.16,-185.38 876.85,-178.42"/>
</g>
<!-- Node24 -->
<g id="node24" class="node">
<title>Node24</title>
<g id="a_node24"><a xlink:href="classErrorToleranceMarker.html" target="_top" xlink:title=" ">
<polygon fill="white" stroke="#666666" points="1062,-166 925,-166 925,-147 1062,-147 1062,-166"/>
<text text-anchor="middle" x="993.5" y="-154" font-family="Courier,monospace" font-size="10.00">ErrorToleranceMarker</text>
</a>
</g>
</g>
<!-- Node22&#45;&gt;Node24 -->
<g id="edge23" class="edge">
<title>Node22&#45;&gt;Node24</title>
<path fill="none" stroke="#63b8ff" d="M876.26,-168.77C891.99,-167.11 908.88,-165.33 924.79,-163.65"/>
<polygon fill="#63b8ff" stroke="#63b8ff" points="876.13,-165.26 866.55,-169.79 876.86,-172.23 876.13,-165.26"/>
</g>
<!-- Node27 -->
<g id="node27" class="node">
<title>Node27</title>
<g id="a_node27"><a xlink:href="classValueRangeMarker.html" target="_top" xlink:title=" ">
<polygon fill="white" stroke="#666666" points="1050,-129 937,-129 937,-110 1050,-110 1050,-129"/>
<text text-anchor="middle" x="993.5" y="-117" font-family="Courier,monospace" font-size="10.00">ValueRangeMarker</text>
</a>
</g>
</g>
<!-- Node26&#45;&gt;Node27 -->
<g id="edge26" class="edge">
<title>Node26&#45;&gt;Node27</title>
<path fill="none" stroke="#63b8ff" d="M894.7,-109.72C908.91,-111.14 923.39,-112.59 936.7,-113.92"/>
<polygon fill="#63b8ff" stroke="#63b8ff" points="895.19,-106.25 884.89,-108.74 894.49,-113.22 895.19,-106.25"/>
</g>
<!-- Node28 -->
<g id="node28" class="node">
<title>Node28</title>
<g id="a_node28"><a xlink:href="classValueThresholdMarker.html" target="_top" xlink:title=" ">
<polygon fill="white" stroke="#666666" points="1062,-92 925,-92 925,-73 1062,-73 1062,-92"/>
<text text-anchor="middle" x="993.5" y="-80" font-family="Courier,monospace" font-size="10.00">ValueThresholdMarker</text>
</a>
</g>
</g>
<!-- Node26&#45;&gt;Node28 -->
<g id="edge27" class="edge">
<title>Node26&#45;&gt;Node28</title>
<path fill="none" stroke="#63b8ff" d="M894.63,-92.83C904.66,-91.77 914.83,-90.7 924.62,-89.66"/>
<polygon fill="#63b8ff" stroke="#63b8ff" points="894.46,-89.33 884.89,-93.86 895.2,-96.29 894.46,-89.33"/>
</g>
</g>
</svg>
        <g id="navigator" transform="translate(0 0)" fill="#404254">
                <rect fill="#f2f5e9" fill-opacity="0.5" stroke="#606060" stroke-width=".5" x="0" y="0" width="60" height="60"/>
                <use id="zoomplus" xlink:href="#zoomPlus" x="17" y="9" onmousedown="handleZoom(evt,'in')"/>
                <use id="zoomminus" xlink:href="#zoomMin" x="42" y="9" onmousedown="handleZoom(evt,'out')"/>
                <use id="reset" xlink:href="#resetDef" x="30" y="36" onmousedown="handleReset()"/>
                <g id="arrowUp" xlink:href="#dirArrow" transform="translate(30 24)" onmousedown="handlePan(0,-1)">
                  <use xlink:href="#rim" fill="#404040">
                        <set attributeName="fill" to="#808080" begin="arrowUp.mouseover" end="arrowUp.mouseout"/>
                  </use>
                  <path fill="none" stroke="white" stroke-width="1.5" d="M0,-3.0v7 M-2.5,-0.5L0,-3.0L2.5,-0.5"/>
                </g>
                <g id="arrowRight" xlink:href="#dirArrow" transform="rotate(90) translate(36 -43)" onmousedown="handlePan(1,0)">
                  <use xlink:href="#rim" fill="#404040">
                        <set attributeName="fill" to="#808080" begin="arrowRight.mouseover" end="arrowRight.mouseout"/>
                  </use>
                  <path fill="none" stroke="white" stroke-width="1.5" d="M0,-3.0v7 M-2.5,-0.5L0,-3.0L2.5,-0.5"/>
                </g>
                <g id="arrowDown" xlink:href="#dirArrow" transform="rotate(180) translate(-30 -48)" onmousedown="handlePan(0,1)">
                  <use xlink:href="#rim" fill="#404040">
                        <set attributeName="fill" to="#808080" begin="arrowDown.mouseover" end="arrowDown.mouseout"/>
                  </use>
                  <path fill="none" stroke="white" stroke-width="1.5" d="M0,-3.0v7 M-2.5,-0.5L0,-3.0L2.5,-0.5"/>
                </g>
                <g id="arrowLeft" xlink:href="#dirArrow" transform="rotate(270) translate(-36 17)" onmousedown="handlePan(-1,0)">
                  <use xlink:href="#rim" fill="#404040">
                        <set attributeName="fill" to="#808080" begin="arrowLeft.mouseover" end="arrowLeft.mouseout"/>
                  </use>
                  <path fill="none" stroke="white" stroke-width="1.5" d="M0,-3.0v7 M-2.5,-0.5L0,-3.0L2.5,-0.5"/>
                </g>
        </g>
        <svg viewBox="0 0 15 15" width="100%" height="30px" preserveAspectRatio="xMaxYMin meet">
         <g id="arrow_out" transform="scale(0.3 0.3)">
          <a xlink:href="classMarker__inherit__graph_org.svg" target="_base">
           <rect id="button" ry="5" rx="5" y="6" x="6" height="38" width="38"
                fill="#f2f5e9" fill-opacity="0.5" stroke="#606060" stroke-width="1.0"/>
           <path id="arrow"
             d="M 11.500037,31.436501 C 11.940474,20.09759 22.043105,11.32322 32.158766,21.979434 L 37.068811,17.246167 C 37.068811,17.246167 37.088388,32 37.088388,32 L 22.160133,31.978069 C 22.160133,31.978069 26.997745,27.140456 26.997745,27.140456 C 18.528582,18.264221 13.291696,25.230495 11.500037,31.436501 z"
             style="fill:#404040;"/>
          </a>
         </g>
        </svg>
</svg>
