<?xml version="1.0" encoding="UTF-8" standalone="no"?>
<!DOCTYPE svg PUBLIC "-//W3C//DTD SVG 1.1//EN"
 "http://www.w3.org/Graphics/SVG/1.1/DTD/svg11.dtd">
<!-- Generated by graphviz version 7.0.5 (20221223.1930)
 -->
<!-- Title: GenericKernel&lt; is_ad &gt; Pages: 1 -->
<svg width="1709pt" height="662pt"
 viewBox="0.00 0.00 1709.00 661.50" xmlns="http://www.w3.org/2000/svg" xmlns:xlink="http://www.w3.org/1999/xlink">
<g id="graph0" class="graph" transform="scale(1 1) rotate(0) translate(4 657.5)">
<title>GenericKernel&lt; is_ad &gt;</title>
<!-- Node1 -->
<g id="node1" class="node">
<title>Node1</title>
<g id="a_node1"><a xlink:title=" ">
<polygon fill="#999999" stroke="#666666" points="1319,-110.5 1170,-110.5 1170,-91.5 1319,-91.5 1319,-110.5"/>
<text text-anchor="middle" x="1244.5" y="-98.5" font-family="Courier,monospace" font-size="10.00">GenericKernel&lt; is_ad &gt;</text>
</a>
</g>
</g>
<!-- Node31 -->
<g id="node31" class="node">
<title>Node31</title>
<g id="a_node31"><a xlink:href="classBodyForceTempl.html" target="_top" xlink:title="This kernel implements a generic functional body force term: $ &#45; c \cdof f \cdot \phi_i $.">
<polygon fill="white" stroke="#666666" points="1522,-203.5 1367,-203.5 1367,-184.5 1522,-184.5 1522,-203.5"/>
<text text-anchor="middle" x="1444.5" y="-191.5" font-family="Courier,monospace" font-size="10.00">BodyForceTempl&lt; is_ad &gt;</text>
</a>
</g>
</g>
<!-- Node1&#45;&gt;Node31 -->
<g id="edge30" class="edge">
<title>Node1&#45;&gt;Node31</title>
<path fill="none" stroke="#63b8ff" d="M1266.51,-118.05C1287.66,-134.41 1321.82,-158.68 1355,-173 1365.44,-177.5 1377.01,-181.14 1388.24,-184.03"/>
<polygon fill="#63b8ff" stroke="#63b8ff" points="1268.7,-115.33 1258.68,-111.88 1264.37,-120.82 1268.7,-115.33"/>
</g>
<!-- Node33 -->
<g id="node33" class="node">
<title>Node33</title>
<g id="a_node33"><a xlink:href="classCoupledForceTempl.html" target="_top" xlink:title="Implements a source term proportional to the value of a coupled variable.">
<polygon fill="white" stroke="#666666" points="1507,-164 1382,-164 1382,-134 1507,-134 1507,-164"/>
<text text-anchor="start" x="1390" y="-152" font-family="Courier,monospace" font-size="10.00">CoupledForceTempl&lt;</text>
<text text-anchor="middle" x="1444.5" y="-141" font-family="Courier,monospace" font-size="10.00"> is_ad &gt;</text>
</a>
</g>
</g>
<!-- Node1&#45;&gt;Node33 -->
<g id="edge32" class="edge">
<title>Node1&#45;&gt;Node33</title>
<path fill="none" stroke="#63b8ff" d="M1297.6,-113.63C1323.43,-119.89 1354.81,-127.5 1381.83,-134.05"/>
<polygon fill="#63b8ff" stroke="#63b8ff" points="1298.54,-110.26 1288,-111.3 1296.89,-117.06 1298.54,-110.26"/>
</g>
<!-- Node35 -->
<g id="node35" class="node">
<title>Node35</title>
<g id="a_node35"><a xlink:href="classReactionSecondOrderLogTempl.html" target="_top" xlink:title=" ">
<polygon fill="white" stroke="#666666" points="1534,-116 1355,-116 1355,-86 1534,-86 1534,-116"/>
<text text-anchor="start" x="1363" y="-104" font-family="Courier,monospace" font-size="10.00">ReactionSecondOrderLogTempl</text>
<text text-anchor="middle" x="1444.5" y="-93" font-family="Courier,monospace" font-size="10.00">&lt; is_ad &gt;</text>
</a>
</g>
</g>
<!-- Node1&#45;&gt;Node35 -->
<g id="edge34" class="edge">
<title>Node1&#45;&gt;Node35</title>
<path fill="none" stroke="#63b8ff" d="M1330.73,-101C1338.65,-101 1346.69,-101 1354.65,-101"/>
<polygon fill="#63b8ff" stroke="#63b8ff" points="1330.74,-97.5 1320.74,-101 1330.74,-104.5 1330.74,-97.5"/>
</g>
<!-- Node36 -->
<g id="node36" class="node">
<title>Node36</title>
<g id="a_node36"><a xlink:href="classReactionTempl.html" target="_top" xlink:title="Implements a simple consuming reaction term with weak form $(\psi_i, \lambda u_h)$.">
<polygon fill="white" stroke="#666666" points="1519,-67.5 1370,-67.5 1370,-48.5 1519,-48.5 1519,-67.5"/>
<text text-anchor="middle" x="1444.5" y="-55.5" font-family="Courier,monospace" font-size="10.00">ReactionTempl&lt; is_ad &gt;</text>
</a>
</g>
</g>
<!-- Node1&#45;&gt;Node36 -->
<g id="edge35" class="edge">
<title>Node1&#45;&gt;Node36</title>
<path fill="none" stroke="#63b8ff" d="M1301.73,-88.63C1318.83,-84.88 1337.68,-80.76 1355,-77 1368.67,-74.03 1383.53,-70.84 1397.1,-67.92"/>
<polygon fill="#63b8ff" stroke="#63b8ff" points="1301.27,-85.14 1292.25,-90.71 1302.77,-91.98 1301.27,-85.14"/>
</g>
<!-- Node38 -->
<g id="node38" class="node">
<title>Node38</title>
<g id="a_node38"><a xlink:href="classReactionThirdOrderLogTempl.html" target="_top" xlink:title=" ">
<polygon fill="white" stroke="#666666" points="1531,-30 1358,-30 1358,0 1531,0 1531,-30"/>
<text text-anchor="start" x="1366" y="-18" font-family="Courier,monospace" font-size="10.00">ReactionThirdOrderLogTempl</text>
<text text-anchor="middle" x="1444.5" y="-7" font-family="Courier,monospace" font-size="10.00">&lt; is_ad &gt;</text>
</a>
</g>
</g>
<!-- Node1&#45;&gt;Node38 -->
<g id="edge37" class="edge">
<title>Node1&#45;&gt;Node38</title>
<path fill="none" stroke="#63b8ff" d="M1269.78,-84.9C1291.4,-71.14 1324.27,-51.63 1355,-39 1362.66,-35.85 1370.85,-32.99 1379.06,-30.44"/>
<polygon fill="#63b8ff" stroke="#63b8ff" points="1267.9,-81.94 1261.4,-90.31 1271.7,-87.82 1267.9,-81.94"/>
</g>
<!-- Node2 -->
<g id="node2" class="node">
<title>Node2</title>
<g id="a_node2"><a xlink:href="classKernel.html" target="_top" xlink:title=" ">
<polygon fill="white" stroke="#666666" points="1134,-110.5 1081,-110.5 1081,-91.5 1134,-91.5 1134,-110.5"/>
<text text-anchor="middle" x="1107.5" y="-98.5" font-family="Courier,monospace" font-size="10.00">Kernel</text>
</a>
</g>
</g>
<!-- Node2&#45;&gt;Node1 -->
<g id="edge1" class="edge">
<title>Node2&#45;&gt;Node1</title>
<path fill="none" stroke="#63b8ff" d="M1145.46,-101C1153,-101 1161.19,-101 1169.51,-101"/>
<polygon fill="#63b8ff" stroke="#63b8ff" points="1145.72,-97.5 1135.72,-101 1145.72,-104.5 1145.72,-97.5"/>
</g>
<!-- Node3 -->
<g id="node3" class="node">
<title>Node3</title>
<g id="a_node3"><a xlink:href="classKernelBase.html" target="_top" xlink:title="This is the common base class for the three main kernel types implemented in MOOSE,...">
<polygon fill="white" stroke="#666666" points="1009,-132.5 932,-132.5 932,-113.5 1009,-113.5 1009,-132.5"/>
<text text-anchor="middle" x="970.5" y="-120.5" font-family="Courier,monospace" font-size="10.00">KernelBase</text>
</a>
</g>
</g>
<!-- Node3&#45;&gt;Node2 -->
<g id="edge2" class="edge">
<title>Node3&#45;&gt;Node2</title>
<path fill="none" stroke="#63b8ff" d="M1020.78,-114.97C1041.11,-111.66 1063.83,-107.95 1080.76,-105.19"/>
<polygon fill="#63b8ff" stroke="#63b8ff" points="1020.26,-111.51 1010.96,-116.57 1021.39,-118.42 1020.26,-111.51"/>
</g>
<!-- Node4 -->
<g id="node4" class="node">
<title>Node4</title>
<g id="a_node4"><a xlink:href="classResidualObject.html" target="_top" xlink:title="This is the common base class for objects that give residual contributions.">
<polygon fill="white" stroke="#666666" points="803,-375.5 702,-375.5 702,-356.5 803,-356.5 803,-375.5"/>
<text text-anchor="middle" x="752.5" y="-363.5" font-family="Courier,monospace" font-size="10.00">ResidualObject</text>
</a>
</g>
</g>
<!-- Node4&#45;&gt;Node3 -->
<g id="edge3" class="edge">
<title>Node4&#45;&gt;Node3</title>
<path fill="none" stroke="#63b8ff" d="M769.81,-347.65C812.75,-299.34 927.84,-169.86 960.66,-132.95"/>
<polygon fill="#63b8ff" stroke="#63b8ff" points="767.27,-345.24 763.24,-355.04 772.5,-349.89 767.27,-345.24"/>
</g>
<!-- Node5 -->
<g id="node5" class="node">
<title>Node5</title>
<g id="a_node5"><a xlink:href="classMooseObject.html" target="_top" xlink:title="Every object that can be built by the factory should be derived from this class.">
<polygon fill="white" stroke="#666666" points="546,-579.5 463,-579.5 463,-560.5 546,-560.5 546,-579.5"/>
<text text-anchor="middle" x="504.5" y="-567.5" font-family="Courier,monospace" font-size="10.00">MooseObject</text>
</a>
</g>
</g>
<!-- Node5&#45;&gt;Node4 -->
<g id="edge4" class="edge">
<title>Node5&#45;&gt;Node4</title>
<path fill="none" stroke="#63b8ff" d="M557.63,-568.48C574.95,-566.07 593.71,-561.26 609,-552 683.46,-506.9 733.01,-407.23 747.26,-375.73"/>
<polygon fill="#63b8ff" stroke="#63b8ff" points="557.54,-564.96 548,-569.57 558.33,-571.92 557.54,-564.96"/>
</g>
<!-- Node6 -->
<g id="node6" class="node">
<title>Node6</title>
<g id="a_node6"><a xlink:href="classMooseBase.html" target="_top" xlink:title="Base class for everything in MOOSE with a name and a type.">
<polygon fill="white" stroke="#666666" points="310,-653.5 239,-653.5 239,-634.5 310,-634.5 310,-653.5"/>
<text text-anchor="middle" x="274.5" y="-641.5" font-family="Courier,monospace" font-size="10.00">MooseBase</text>
</a>
</g>
</g>
<!-- Node6&#45;&gt;Node5 -->
<g id="edge5" class="edge">
<title>Node6&#45;&gt;Node5</title>
<path fill="none" stroke="#63b8ff" d="M321.54,-636.28C335.32,-633.53 350.39,-630.08 364,-626 407,-613.11 455.19,-592.26 482.19,-579.97"/>
<polygon fill="#63b8ff" stroke="#63b8ff" points="320.97,-632.82 311.81,-638.14 322.29,-639.7 320.97,-632.82"/>
</g>
<!-- Node7 -->
<g id="node7" class="node">
<title>Node7</title>
<g id="a_node7"><a xlink:href="classMooseBaseParameterInterface.html" target="_top" xlink:title="Every object that can be built by the factory should be derived from this class.">
<polygon fill="white" stroke="#666666" points="364,-616.5 185,-616.5 185,-597.5 364,-597.5 364,-616.5"/>
<text text-anchor="middle" x="274.5" y="-604.5" font-family="Courier,monospace" font-size="10.00">MooseBaseParameterInterface</text>
</a>
</g>
</g>
<!-- Node7&#45;&gt;Node5 -->
<g id="edge6" class="edge">
<title>Node7&#45;&gt;Node5</title>
<path fill="none" stroke="#63b8ff" d="M347.88,-595.25C385.73,-589.11 430.68,-581.82 462.51,-576.65"/>
<polygon fill="#63b8ff" stroke="#63b8ff" points="347.7,-591.74 338.39,-596.79 348.83,-598.65 347.7,-591.74"/>
</g>
<!-- Node8 -->
<g id="node8" class="node">
<title>Node8</title>
<g id="a_node8"><a xlink:href="classMooseBaseErrorInterface.html" target="_top" xlink:title="Interface that provides APIs to output errors/warnings/info messages.">
<polygon fill="white" stroke="#666666" points="352,-579.5 197,-579.5 197,-560.5 352,-560.5 352,-579.5"/>
<text text-anchor="middle" x="274.5" y="-567.5" font-family="Courier,monospace" font-size="10.00">MooseBaseErrorInterface</text>
</a>
</g>
</g>
<!-- Node8&#45;&gt;Node5 -->
<g id="edge7" class="edge">
<title>Node8&#45;&gt;Node5</title>
<path fill="none" stroke="#63b8ff" d="M363.8,-570C397.92,-570 435.28,-570 462.77,-570"/>
<polygon fill="#63b8ff" stroke="#63b8ff" points="363.89,-566.5 353.89,-570 363.89,-573.5 363.89,-566.5"/>
</g>
<!-- Node9 -->
<g id="node9" class="node">
<title>Node9</title>
<g id="a_node9"><a xlink:href="classConsoleStreamInterface.html" target="_top" xlink:title="An inteface for the _console for outputting to the Console object.">
<polygon fill="white" stroke="#666666" points="149,-579.5 0,-579.5 0,-560.5 149,-560.5 149,-579.5"/>
<text text-anchor="middle" x="74.5" y="-567.5" font-family="Courier,monospace" font-size="10.00">ConsoleStreamInterface</text>
</a>
</g>
</g>
<!-- Node9&#45;&gt;Node8 -->
<g id="edge8" class="edge">
<title>Node9&#45;&gt;Node8</title>
<path fill="none" stroke="#63b8ff" d="M160.62,-570C172.62,-570 184.9,-570 196.73,-570"/>
<polygon fill="#63b8ff" stroke="#63b8ff" points="160.74,-566.5 150.74,-570 160.74,-573.5 160.74,-566.5"/>
</g>
<!-- Node10 -->
<g id="node10" class="node">
<title>Node10</title>
<g id="a_node10"><a xlink:title=" ">
<polygon fill="white" stroke="#666666" points="352,-542.5 197,-542.5 197,-523.5 352,-523.5 352,-542.5"/>
<text text-anchor="middle" x="274.5" y="-530.5" font-family="Courier,monospace" font-size="10.00">libMesh::ParallelObject</text>
</a>
</g>
</g>
<!-- Node10&#45;&gt;Node5 -->
<g id="edge9" class="edge">
<title>Node10&#45;&gt;Node5</title>
<path fill="none" stroke="#63b8ff" d="M347.88,-544.75C385.73,-550.89 430.68,-558.18 462.51,-563.35"/>
<polygon fill="#63b8ff" stroke="#63b8ff" points="348.83,-541.35 338.39,-543.21 347.7,-548.26 348.83,-541.35"/>
</g>
<!-- Node11 -->
<g id="node11" class="node">
<title>Node11</title>
<g id="a_node11"><a xlink:href="classDataFileInterface.html" target="_top" xlink:title=" ">
<polygon fill="white" stroke="#666666" points="337,-505 212,-505 212,-475 337,-475 337,-505"/>
<text text-anchor="start" x="220" y="-493" font-family="Courier,monospace" font-size="10.00">DataFileInterface&lt;</text>
<text text-anchor="middle" x="274.5" y="-482" font-family="Courier,monospace" font-size="10.00"> MooseObject &gt;</text>
</a>
</g>
</g>
<!-- Node11&#45;&gt;Node5 -->
<g id="edge10" class="edge">
<title>Node11&#45;&gt;Node5</title>
<path fill="none" stroke="#63b8ff" d="M347.62,-506.85C353.32,-509.23 358.86,-511.94 364,-515 383.71,-526.74 379.71,-541.29 400,-552 419.11,-562.09 442.71,-566.69 462.54,-568.73"/>
<polygon fill="#63b8ff" stroke="#63b8ff" points="349.23,-503.72 338.64,-503.44 346.74,-510.26 349.23,-503.72"/>
</g>
<!-- Node12 -->
<g id="node12" class="node">
<title>Node12</title>
<g id="a_node12"><a xlink:href="classSetupInterface.html" target="_top" xlink:title=" ">
<polygon fill="white" stroke="#666666" points="555,-542.5 454,-542.5 454,-523.5 555,-523.5 555,-542.5"/>
<text text-anchor="middle" x="504.5" y="-530.5" font-family="Courier,monospace" font-size="10.00">SetupInterface</text>
</a>
</g>
</g>
<!-- Node12&#45;&gt;Node4 -->
<g id="edge11" class="edge">
<title>Node12&#45;&gt;Node4</title>
<path fill="none" stroke="#63b8ff" d="M566.26,-529C580.86,-526.29 595.98,-521.94 609,-515 675.01,-479.8 728.22,-402.76 745.53,-375.66"/>
<polygon fill="#63b8ff" stroke="#63b8ff" points="566.06,-525.49 556.74,-530.52 567.16,-532.4 566.06,-525.49"/>
</g>
<!-- Node13 -->
<g id="node13" class="node">
<title>Node13</title>
<g id="a_node13"><a xlink:href="classFunctionInterface.html" target="_top" xlink:title="Interface for objects that need to use functions.">
<polygon fill="white" stroke="#666666" points="564,-505.5 445,-505.5 445,-486.5 564,-486.5 564,-505.5"/>
<text text-anchor="middle" x="504.5" y="-493.5" font-family="Courier,monospace" font-size="10.00">FunctionInterface</text>
</a>
</g>
</g>
<!-- Node13&#45;&gt;Node4 -->
<g id="edge12" class="edge">
<title>Node13&#45;&gt;Node4</title>
<path fill="none" stroke="#63b8ff" d="M575.44,-488.7C586.94,-486.13 598.52,-482.67 609,-478 666.77,-452.26 721.67,-397.89 742.59,-375.72"/>
<polygon fill="#63b8ff" stroke="#63b8ff" points="575.07,-485.2 565.96,-490.59 576.45,-492.06 575.07,-485.2"/>
</g>
<!-- Node14 -->
<g id="node14" class="node">
<title>Node14</title>
<g id="a_node14"><a xlink:href="classUserObjectInterface.html" target="_top" xlink:title="Interface for objects that need to use UserObjects.">
<polygon fill="white" stroke="#666666" points="570,-468.5 439,-468.5 439,-449.5 570,-449.5 570,-468.5"/>
<text text-anchor="middle" x="504.5" y="-456.5" font-family="Courier,monospace" font-size="10.00">UserObjectInterface</text>
</a>
</g>
</g>
<!-- Node14&#45;&gt;Node4 -->
<g id="edge13" class="edge">
<title>Node14&#45;&gt;Node4</title>
<path fill="none" stroke="#63b8ff" d="M581.36,-448.63C590.78,-446.52 600.19,-444 609,-441 658.22,-424.23 711.14,-392.24 736.4,-375.99"/>
<polygon fill="#63b8ff" stroke="#63b8ff" points="580.89,-445.16 571.81,-450.62 582.31,-452.01 580.89,-445.16"/>
</g>
<!-- Node15 -->
<g id="node15" class="node">
<title>Node15</title>
<g id="a_node15"><a xlink:href="classTransientInterface.html" target="_top" xlink:title="Interface for objects that needs transient capabilities.">
<polygon fill="white" stroke="#666666" points="567,-431.5 442,-431.5 442,-412.5 567,-412.5 567,-431.5"/>
<text text-anchor="middle" x="504.5" y="-419.5" font-family="Courier,monospace" font-size="10.00">TransientInterface</text>
</a>
</g>
</g>
<!-- Node15&#45;&gt;Node4 -->
<g id="edge14" class="edge">
<title>Node15&#45;&gt;Node4</title>
<path fill="none" stroke="#63b8ff" d="M578.35,-410.17C588.67,-408.25 599.12,-406.17 609,-404 646.39,-395.78 688.7,-384.2 717.44,-375.99"/>
<polygon fill="#63b8ff" stroke="#63b8ff" points="577.95,-406.68 568.73,-411.91 579.2,-413.57 577.95,-406.68"/>
</g>
<!-- Node16 -->
<g id="node16" class="node">
<title>Node16</title>
<g id="a_node16"><a xlink:href="classPostprocessorInterface.html" target="_top" xlink:title="Interface class for classes which interact with Postprocessors.">
<polygon fill="white" stroke="#666666" points="579,-394.5 430,-394.5 430,-375.5 579,-375.5 579,-394.5"/>
<text text-anchor="middle" x="504.5" y="-382.5" font-family="Courier,monospace" font-size="10.00">PostprocessorInterface</text>
</a>
</g>
</g>
<!-- Node16&#45;&gt;Node4 -->
<g id="edge15" class="edge">
<title>Node16&#45;&gt;Node4</title>
<path fill="none" stroke="#63b8ff" d="M590.61,-378.43C627.61,-375.57 669.67,-372.32 701.51,-369.86"/>
<polygon fill="#63b8ff" stroke="#63b8ff" points="590.52,-374.92 580.82,-379.18 591.06,-381.9 590.52,-374.92"/>
</g>
<!-- Node17 -->
<g id="node17" class="node">
<title>Node17</title>
<g id="a_node17"><a xlink:href="classVectorPostprocessorInterface.html" target="_top" xlink:title=" ">
<polygon fill="white" stroke="#666666" points="597,-357.5 412,-357.5 412,-338.5 597,-338.5 597,-357.5"/>
<text text-anchor="middle" x="504.5" y="-345.5" font-family="Courier,monospace" font-size="10.00">VectorPostprocessorInterface</text>
</a>
</g>
</g>
<!-- Node17&#45;&gt;Node4 -->
<g id="edge16" class="edge">
<title>Node17&#45;&gt;Node4</title>
<path fill="none" stroke="#63b8ff" d="M608.74,-355.55C640.92,-357.91 674.96,-360.4 701.72,-362.36"/>
<polygon fill="#63b8ff" stroke="#63b8ff" points="609.19,-352.08 598.96,-354.84 608.68,-359.06 609.19,-352.08"/>
</g>
<!-- Node18 -->
<g id="node18" class="node">
<title>Node18</title>
<g id="a_node18"><a xlink:href="classRandomInterface.html" target="_top" xlink:title="Interface for objects that need parallel consistent random numbers without patterns over the course o...">
<polygon fill="white" stroke="#666666" points="558,-320.5 451,-320.5 451,-301.5 558,-301.5 558,-320.5"/>
<text text-anchor="middle" x="504.5" y="-308.5" font-family="Courier,monospace" font-size="10.00">RandomInterface</text>
</a>
</g>
</g>
<!-- Node18&#45;&gt;Node4 -->
<g id="edge17" class="edge">
<title>Node18&#45;&gt;Node4</title>
<path fill="none" stroke="#63b8ff" d="M569.59,-322.08C582.66,-324.54 596.3,-327.23 609,-330 645.15,-337.88 686.07,-348.38 714.75,-356.01"/>
<polygon fill="#63b8ff" stroke="#63b8ff" points="570.24,-318.65 559.78,-320.27 568.97,-325.53 570.24,-318.65"/>
</g>
<!-- Node19 -->
<g id="node19" class="node">
<title>Node19</title>
<g id="a_node19"><a xlink:href="classRestartable.html" target="_top" xlink:title="A class for creating restricted objects.">
<polygon fill="white" stroke="#666666" points="546,-283.5 463,-283.5 463,-264.5 546,-264.5 546,-283.5"/>
<text text-anchor="middle" x="504.5" y="-271.5" font-family="Courier,monospace" font-size="10.00">Restartable</text>
</a>
</g>
</g>
<!-- Node19&#45;&gt;Node4 -->
<g id="edge18" class="edge">
<title>Node19&#45;&gt;Node4</title>
<path fill="none" stroke="#63b8ff" d="M557.29,-280.46C574.05,-283.36 592.56,-287.41 609,-293 657.69,-309.54 710.43,-340.3 735.93,-356.09"/>
<polygon fill="#63b8ff" stroke="#63b8ff" points="557.93,-277.02 547.5,-278.88 556.81,-283.93 557.93,-277.02"/>
</g>
<!-- Node20 -->
<g id="node20" class="node">
<title>Node20</title>
<g id="a_node20"><a xlink:href="classMeshChangedInterface.html" target="_top" xlink:title="Interface for notifications that the mesh has changed.">
<polygon fill="white" stroke="#666666" points="573,-246.5 436,-246.5 436,-227.5 573,-227.5 573,-246.5"/>
<text text-anchor="middle" x="504.5" y="-234.5" font-family="Courier,monospace" font-size="10.00">MeshChangedInterface</text>
</a>
</g>
</g>
<!-- Node20&#45;&gt;Node4 -->
<g id="edge19" class="edge">
<title>Node20&#45;&gt;Node4</title>
<path fill="none" stroke="#63b8ff" d="M584.55,-247.43C592.98,-249.74 601.29,-252.56 609,-256 666.09,-281.46 720.95,-334.28 742.22,-356.17"/>
<polygon fill="#63b8ff" stroke="#63b8ff" points="585.45,-244.05 574.91,-245.05 583.77,-250.85 585.45,-244.05"/>
</g>
<!-- Node21 -->
<g id="node21" class="node">
<title>Node21</title>
<g id="a_node21"><a xlink:href="classTaggingInterface.html" target="_top" xlink:title=" ">
<polygon fill="white" stroke="#666666" points="561,-209.5 448,-209.5 448,-190.5 561,-190.5 561,-209.5"/>
<text text-anchor="middle" x="504.5" y="-197.5" font-family="Courier,monospace" font-size="10.00">TaggingInterface</text>
</a>
</g>
</g>
<!-- Node21&#45;&gt;Node4 -->
<g id="edge20" class="edge">
<title>Node21&#45;&gt;Node4</title>
<path fill="none" stroke="#63b8ff" d="M572.37,-206.01C585.02,-208.86 597.79,-213 609,-219 674.19,-253.88 727.52,-329.12 745.22,-356.11"/>
<polygon fill="#63b8ff" stroke="#63b8ff" points="573.3,-202.63 562.81,-204.12 571.94,-209.49 573.3,-202.63"/>
</g>
<!-- Node22 -->
<g id="node22" class="node">
<title>Node22</title>
<g id="a_node22"><a xlink:href="classBlockRestrictable.html" target="_top" xlink:title="An interface that restricts an object to subdomains via the &#39;blocks&#39; input parameter.">
<polygon fill="white" stroke="#666666" points="812,-197.5 693,-197.5 693,-178.5 812,-178.5 812,-197.5"/>
<text text-anchor="middle" x="752.5" y="-185.5" font-family="Courier,monospace" font-size="10.00">BlockRestrictable</text>
</a>
</g>
</g>
<!-- Node22&#45;&gt;Node3 -->
<g id="edge21" class="edge">
<title>Node22&#45;&gt;Node3</title>
<path fill="none" stroke="#63b8ff" d="M823.51,-177.79C835.78,-175.36 848.35,-172.44 860,-169 892.43,-159.42 928.25,-143.24 949.8,-132.84"/>
<polygon fill="#63b8ff" stroke="#63b8ff" points="823.02,-174.32 813.84,-179.61 824.32,-181.2 823.02,-174.32"/>
</g>
<!-- Node23 -->
<g id="node23" class="node">
<title>Node23</title>
<g id="a_node23"><a xlink:href="classCoupleableMooseVariableDependencyIntermediateInterface.html" target="_top" xlink:title="Intermediate base class that ties together all the interfaces for getting MooseVariableFEBases with t...">
<polygon fill="white" stroke="#666666" points="860,-160 645,-160 645,-130 860,-130 860,-160"/>
<text text-anchor="start" x="653" y="-148" font-family="Courier,monospace" font-size="10.00">CoupleableMooseVariableDependency</text>
<text text-anchor="middle" x="752.5" y="-137" font-family="Courier,monospace" font-size="10.00">IntermediateInterface</text>
</a>
</g>
</g>
<!-- Node23&#45;&gt;Node3 -->
<g id="edge22" class="edge">
<title>Node23&#45;&gt;Node3</title>
<path fill="none" stroke="#63b8ff" d="M871.68,-132.96C893.49,-130.74 914.75,-128.58 931.85,-126.83"/>
<polygon fill="#63b8ff" stroke="#63b8ff" points="871.33,-129.48 861.74,-133.98 872.04,-136.44 871.33,-129.48"/>
</g>
<!-- Node24 -->
<g id="node24" class="node">
<title>Node24</title>
<g id="a_node24"><a xlink:href="classCoupleable.html" target="_top" xlink:title="Interface for objects that needs coupling capabilities.">
<polygon fill="white" stroke="#666666" points="543,-172.5 466,-172.5 466,-153.5 543,-153.5 543,-172.5"/>
<text text-anchor="middle" x="504.5" y="-160.5" font-family="Courier,monospace" font-size="10.00">Coupleable</text>
</a>
</g>
</g>
<!-- Node24&#45;&gt;Node23 -->
<g id="edge23" class="edge">
<title>Node24&#45;&gt;Node23</title>
<path fill="none" stroke="#63b8ff" d="M554.76,-159.4C580.62,-157.5 613.37,-155.11 644.69,-152.82"/>
<polygon fill="#63b8ff" stroke="#63b8ff" points="554.63,-155.9 544.91,-160.12 555.14,-162.88 554.63,-155.9"/>
</g>
<!-- Node25 -->
<g id="node25" class="node">
<title>Node25</title>
<g id="a_node25"><a xlink:href="classScalarCoupleable.html" target="_top" xlink:title="Interface for objects that needs scalar coupling capabilities.">
<polygon fill="white" stroke="#666666" points="561,-135.5 448,-135.5 448,-116.5 561,-116.5 561,-135.5"/>
<text text-anchor="middle" x="504.5" y="-123.5" font-family="Courier,monospace" font-size="10.00">ScalarCoupleable</text>
</a>
</g>
</g>
<!-- Node25&#45;&gt;Node23 -->
<g id="edge24" class="edge">
<title>Node25&#45;&gt;Node23</title>
<path fill="none" stroke="#63b8ff" d="M572.63,-131.18C594.83,-132.9 620.11,-134.85 644.53,-136.74"/>
<polygon fill="#63b8ff" stroke="#63b8ff" points="573.07,-127.71 562.83,-130.43 572.53,-134.69 573.07,-127.71"/>
</g>
<!-- Node26 -->
<g id="node26" class="node">
<title>Node26</title>
<g id="a_node26"><a xlink:href="classMooseVariableDependencyInterface.html" target="_top" xlink:title=" ">
<polygon fill="white" stroke="#666666" points="609,-98.5 400,-98.5 400,-79.5 609,-79.5 609,-98.5"/>
<text text-anchor="middle" x="504.5" y="-86.5" font-family="Courier,monospace" font-size="10.00">MooseVariableDependencyInterface</text>
</a>
</g>
</g>
<!-- Node26&#45;&gt;Node23 -->
<g id="edge25" class="edge">
<title>Node26&#45;&gt;Node23</title>
<path fill="none" stroke="#63b8ff" d="M580.08,-101.16C589.86,-103.21 599.71,-105.49 609,-108 625.42,-112.44 628.67,-116.23 645,-121 655.37,-124.03 666.4,-126.9 677.29,-129.53"/>
<polygon fill="#63b8ff" stroke="#63b8ff" points="581.07,-97.79 570.57,-99.26 579.69,-104.66 581.07,-97.79"/>
</g>
<!-- Node27 -->
<g id="node27" class="node">
<title>Node27</title>
<g id="a_node27"><a xlink:href="classMaterialPropertyInterface.html" target="_top" xlink:title="An interface for accessing Materials.">
<polygon fill="white" stroke="#666666" points="836,-111.5 669,-111.5 669,-92.5 836,-92.5 836,-111.5"/>
<text text-anchor="middle" x="752.5" y="-99.5" font-family="Courier,monospace" font-size="10.00">MaterialPropertyInterface</text>
</a>
</g>
</g>
<!-- Node27&#45;&gt;Node3 -->
<g id="edge26" class="edge">
<title>Node27&#45;&gt;Node3</title>
<path fill="none" stroke="#63b8ff" d="M847.66,-111.15C877.29,-114.03 908.32,-117.05 931.66,-119.32"/>
<polygon fill="#63b8ff" stroke="#63b8ff" points="848.19,-107.69 837.9,-110.21 847.51,-114.66 848.19,-107.69"/>
</g>
<!-- Node28 -->
<g id="node28" class="node">
<title>Node28</title>
<g id="a_node28"><a xlink:href="classGeometricSearchInterface.html" target="_top" xlink:title=" ">
<polygon fill="white" stroke="#666666" points="833,-74.5 672,-74.5 672,-55.5 833,-55.5 833,-74.5"/>
<text text-anchor="middle" x="752.5" y="-62.5" font-family="Courier,monospace" font-size="10.00">GeometricSearchInterface</text>
</a>
</g>
</g>
<!-- Node28&#45;&gt;Node3 -->
<g id="edge27" class="edge">
<title>Node28&#45;&gt;Node3</title>
<path fill="none" stroke="darkgreen" d="M843.16,-77.72C848.92,-79.28 854.57,-81.03 860,-83 877.41,-89.31 878.87,-96.95 896,-104 907.33,-108.67 920.13,-112.45 931.84,-115.38"/>
<polygon fill="darkgreen" stroke="darkgreen" points="844.01,-74.32 833.46,-75.3 842.32,-81.11 844.01,-74.32"/>
</g>
<!-- Node29 -->
<g id="node29" class="node">
<title>Node29</title>
<g id="a_node29"><a xlink:href="classElementIDInterface.html" target="_top" xlink:title=" ">
<polygon fill="white" stroke="#666666" points="815,-37.5 690,-37.5 690,-18.5 815,-18.5 815,-37.5"/>
<text text-anchor="middle" x="752.5" y="-25.5" font-family="Courier,monospace" font-size="10.00">ElementIDInterface</text>
</a>
</g>
</g>
<!-- Node29&#45;&gt;Node3 -->
<g id="edge28" class="edge">
<title>Node29&#45;&gt;Node3</title>
<path fill="none" stroke="#63b8ff" d="M826.37,-31.85C838.29,-34.8 849.99,-39.28 860,-46 885.19,-62.91 871.56,-86.02 896,-104 906.3,-111.57 919.35,-116.14 931.58,-118.88"/>
<polygon fill="#63b8ff" stroke="#63b8ff" points="827.4,-28.49 816.9,-29.88 825.97,-35.35 827.4,-28.49"/>
</g>
<!-- Node30 -->
<g id="node30" class="node">
<title>Node30</title>
<g id="a_node30"><a xlink:href="classMooseVariableInterface.html" target="_top" xlink:title=" ">
<polygon fill="white" stroke="#666666" points="1045,-95 896,-95 896,-65 1045,-65 1045,-95"/>
<text text-anchor="start" x="904" y="-83" font-family="Courier,monospace" font-size="10.00">MooseVariableInterface</text>
<text text-anchor="middle" x="970.5" y="-72" font-family="Courier,monospace" font-size="10.00">&lt; Real &gt;</text>
</a>
</g>
</g>
<!-- Node30&#45;&gt;Node2 -->
<g id="edge29" class="edge">
<title>Node30&#45;&gt;Node2</title>
<path fill="none" stroke="#63b8ff" d="M1056.49,-93.22C1065.17,-94.57 1073.43,-95.86 1080.65,-96.98"/>
<polygon fill="#63b8ff" stroke="#63b8ff" points="1057.23,-89.79 1046.82,-91.72 1056.16,-96.71 1057.23,-89.79"/>
</g>
<!-- Node32 -->
<g id="node32" class="node">
<title>Node32</title>
<g id="a_node32"><a xlink:href="classUserForcingFunction.html" target="_top" xlink:title="Deprecated, use BodyForce.">
<polygon fill="white" stroke="#666666" points="1701,-210 1570,-210 1570,-180 1701,-180 1701,-210"/>
<text text-anchor="start" x="1578" y="-198" font-family="Courier,monospace" font-size="10.00">UserForcingFunction</text>
<text text-anchor="middle" x="1635.5" y="-187" font-family="Courier,monospace" font-size="10.00">&lt; false &gt;</text>
</a>
</g>
</g>
<!-- Node31&#45;&gt;Node32 -->
<g id="edge31" class="edge">
<title>Node31&#45;&gt;Node32</title>
<path fill="none" stroke="#63b8ff" d="M1533.53,-194.47C1545.74,-194.53 1558.1,-194.6 1569.79,-194.66"/>
<polygon fill="#63b8ff" stroke="#63b8ff" points="1533.91,-190.97 1523.89,-194.41 1533.87,-197.97 1533.91,-190.97"/>
</g>
<!-- Node34 -->
<g id="node34" class="node">
<title>Node34</title>
<g id="a_node34"><a xlink:href="classADMatCoupledForce.html" target="_top" xlink:title="Kernel representing the contribution of the PDE term $mv$, where $m$ is a material property coefficie...">
<polygon fill="white" stroke="#666666" points="1698,-162 1573,-162 1573,-132 1698,-132 1698,-162"/>
<text text-anchor="start" x="1581" y="-150" font-family="Courier,monospace" font-size="10.00">ADMatCoupledForce&lt;</text>
<text text-anchor="middle" x="1635.5" y="-139" font-family="Courier,monospace" font-size="10.00"> true &gt;</text>
</a>
</g>
</g>
<!-- Node33&#45;&gt;Node34 -->
<g id="edge33" class="edge">
<title>Node33&#45;&gt;Node34</title>
<path fill="none" stroke="#63b8ff" d="M1518.66,-148.23C1536.54,-148.04 1555.51,-147.84 1572.8,-147.65"/>
<polygon fill="#63b8ff" stroke="#63b8ff" points="1518.86,-144.72 1508.9,-148.33 1518.94,-151.72 1518.86,-144.72"/>
</g>
<!-- Node37 -->
<g id="node37" class="node">
<title>Node37</title>
<g id="a_node37"><a xlink:href="classCoefReactionTempl.html" target="_top" xlink:title=" ">
<polygon fill="white" stroke="#666666" points="1698,-73 1573,-73 1573,-43 1698,-43 1698,-73"/>
<text text-anchor="start" x="1581" y="-61" font-family="Courier,monospace" font-size="10.00">CoefReactionTempl&lt;</text>
<text text-anchor="middle" x="1635.5" y="-50" font-family="Courier,monospace" font-size="10.00"> is_ad &gt;</text>
</a>
</g>
</g>
<!-- Node36&#45;&gt;Node37 -->
<g id="edge36" class="edge">
<title>Node36&#45;&gt;Node37</title>
<path fill="none" stroke="#63b8ff" d="M1530.63,-58C1544.76,-58 1559.17,-58 1572.59,-58"/>
<polygon fill="#63b8ff" stroke="#63b8ff" points="1530.9,-54.5 1520.9,-58 1530.9,-61.5 1530.9,-54.5"/>
</g>
</g>
</svg>
