<?xml version="1.0" encoding="UTF-8" standalone="no"?>
<!DOCTYPE svg PUBLIC "-//W3C//DTD SVG 1.1//EN"
 "http://www.w3.org/Graphics/SVG/1.1/DTD/svg11.dtd">
<!-- Generated by graphviz version 7.0.5 (20221223.1930)
 -->
<!-- Title: MooseObjectWarehouse&lt; T &gt; Pages: 1 -->
<svg width="677pt" height="881pt"
 viewBox="0.00 0.00 677.00 880.50" xmlns="http://www.w3.org/2000/svg" xmlns:xlink="http://www.w3.org/1999/xlink">
<g id="graph0" class="graph" transform="scale(1 1) rotate(0) translate(4 876.5)">
<title>MooseObjectWarehouse&lt; T &gt;</title>
<!-- Node1 -->
<g id="node1" class="node">
<title>Node1</title>
<g id="a_node1"><a xlink:title="A storage container for MooseObjects that inherit from SetupInterface.">
<polygon fill="#999999" stroke="#666666" points="394,-435 227,-435 227,-416 394,-416 394,-435"/>
<text text-anchor="middle" x="310.5" y="-423" font-family="Courier,monospace" font-size="10.00">MooseObjectWarehouse&lt; T &gt;</text>
</a>
</g>
</g>
<!-- Node3 -->
<g id="node3" class="node">
<title>Node3</title>
<g id="a_node3"><a xlink:href="classExecuteMooseObjectWarehouse.html" target="_top" xlink:title=" ">
<polygon fill="white" stroke="#666666" points="639,-872.5 460,-872.5 460,-842.5 639,-842.5 639,-872.5"/>
<text text-anchor="start" x="468" y="-860.5" font-family="Courier,monospace" font-size="10.00">ExecuteMooseObjectWarehouse</text>
<text text-anchor="middle" x="549.5" y="-849.5" font-family="Courier,monospace" font-size="10.00">&lt; AuxScalarKernel &gt;</text>
</a>
</g>
</g>
<!-- Node1&#45;&gt;Node3 -->
<g id="edge2" class="edge">
<title>Node1&#45;&gt;Node3</title>
<path fill="none" stroke="#63b8ff" d="M314.74,-446.8C326.74,-522.84 371,-779.2 430,-833.5 438.49,-841.32 448.81,-846.89 459.77,-850.81"/>
<polygon fill="#63b8ff" stroke="#63b8ff" points="318.21,-446.33 313.22,-436.99 311.29,-447.41 318.21,-446.33"/>
</g>
<!-- Node4 -->
<g id="node4" class="node">
<title>Node4</title>
<g id="a_node4"><a xlink:href="classExecuteMooseObjectWarehouse.html" target="_top" xlink:title=" ">
<polygon fill="white" stroke="#666666" points="639,-824.5 460,-824.5 460,-794.5 639,-794.5 639,-824.5"/>
<text text-anchor="start" x="468" y="-812.5" font-family="Courier,monospace" font-size="10.00">ExecuteMooseObjectWarehouse</text>
<text text-anchor="middle" x="549.5" y="-801.5" font-family="Courier,monospace" font-size="10.00">&lt; AuxKernelTempl&lt; Real &gt; &gt;</text>
</a>
</g>
</g>
<!-- Node1&#45;&gt;Node4 -->
<g id="edge3" class="edge">
<title>Node1&#45;&gt;Node4</title>
<path fill="none" stroke="#63b8ff" d="M311.59,-446.83C313.07,-509.35 326.44,-693.5 430,-785.5 438.55,-793.1 448.83,-798.55 459.72,-802.42"/>
<polygon fill="#63b8ff" stroke="#63b8ff" points="315.09,-446.88 311.44,-436.93 308.09,-446.98 315.09,-446.88"/>
</g>
<!-- Node5 -->
<g id="node5" class="node">
<title>Node5</title>
<g id="a_node5"><a xlink:href="classExecuteMooseObjectWarehouse.html" target="_top" xlink:title=" ">
<polygon fill="white" stroke="#666666" points="669,-776.5 430,-776.5 430,-746.5 669,-746.5 669,-776.5"/>
<text text-anchor="start" x="438" y="-764.5" font-family="Courier,monospace" font-size="10.00">ExecuteMooseObjectWarehouse</text>
<text text-anchor="middle" x="549.5" y="-753.5" font-family="Courier,monospace" font-size="10.00">&lt; AuxKernelTempl&lt; RealVectorValue &gt; &gt;</text>
</a>
</g>
</g>
<!-- Node1&#45;&gt;Node5 -->
<g id="edge4" class="edge">
<title>Node1&#45;&gt;Node5</title>
<path fill="none" stroke="#63b8ff" d="M312.79,-446.6C317.45,-503.27 338.41,-659.75 430,-737.5 433.84,-740.76 438,-743.62 442.39,-746.13"/>
<polygon fill="#63b8ff" stroke="#63b8ff" points="316.29,-446.49 312.08,-436.77 309.31,-446.99 316.29,-446.49"/>
</g>
<!-- Node6 -->
<g id="node6" class="node">
<title>Node6</title>
<g id="a_node6"><a xlink:href="classExecuteMooseObjectWarehouse.html" target="_top" xlink:title=" ">
<polygon fill="white" stroke="#666666" points="639,-728.5 460,-728.5 460,-698.5 639,-698.5 639,-728.5"/>
<text text-anchor="start" x="468" y="-716.5" font-family="Courier,monospace" font-size="10.00">ExecuteMooseObjectWarehouse</text>
<text text-anchor="middle" x="549.5" y="-705.5" font-family="Courier,monospace" font-size="10.00">&lt; AuxKernelTempl &gt;</text>
</a>
</g>
</g>
<!-- Node1&#45;&gt;Node6 -->
<g id="edge5" class="edge">
<title>Node1&#45;&gt;Node6</title>
<path fill="none" stroke="#63b8ff" d="M314.41,-446.69C322.55,-497.33 350.4,-625.87 430,-689.5 438.69,-696.45 448.86,-701.55 459.53,-705.26"/>
<polygon fill="#63b8ff" stroke="#63b8ff" points="317.88,-446.2 312.94,-436.83 310.95,-447.24 317.88,-446.2"/>
</g>
<!-- Node7 -->
<g id="node7" class="node">
<title>Node7</title>
<g id="a_node7"><a xlink:href="classExecuteMooseObjectWarehouse.html" target="_top" xlink:title=" ">
<polygon fill="white" stroke="#666666" points="639,-680.5 460,-680.5 460,-650.5 639,-650.5 639,-680.5"/>
<text text-anchor="start" x="468" y="-668.5" font-family="Courier,monospace" font-size="10.00">ExecuteMooseObjectWarehouse</text>
<text text-anchor="middle" x="549.5" y="-657.5" font-family="Courier,monospace" font-size="10.00">&lt; UserObject &gt;</text>
</a>
</g>
</g>
<!-- Node1&#45;&gt;Node7 -->
<g id="edge6" class="edge">
<title>Node1&#45;&gt;Node7</title>
<path fill="none" stroke="#63b8ff" d="M316.5,-446.06C328.23,-489.62 361.81,-591.32 430,-641.5 438.88,-648.03 449.09,-652.89 459.73,-656.5"/>
<polygon fill="#63b8ff" stroke="#63b8ff" points="319.96,-445.46 314.08,-436.65 313.18,-447.2 319.96,-445.46"/>
</g>
<!-- Node8 -->
<g id="node8" class="node">
<title>Node8</title>
<g id="a_node8"><a xlink:href="classExecuteMooseObjectWarehouse.html" target="_top" xlink:title=" ">
<polygon fill="white" stroke="#666666" points="639,-632.5 460,-632.5 460,-602.5 639,-602.5 639,-632.5"/>
<text text-anchor="start" x="468" y="-620.5" font-family="Courier,monospace" font-size="10.00">ExecuteMooseObjectWarehouse</text>
<text text-anchor="middle" x="549.5" y="-609.5" font-family="Courier,monospace" font-size="10.00">&lt; MultiApp &gt;</text>
</a>
</g>
</g>
<!-- Node1&#45;&gt;Node8 -->
<g id="edge7" class="edge">
<title>Node1&#45;&gt;Node8</title>
<path fill="none" stroke="#63b8ff" d="M319.65,-445.63C335.28,-481.54 373.09,-556.36 430,-593.5 439.05,-599.41 449.26,-603.91 459.79,-607.33"/>
<polygon fill="#63b8ff" stroke="#63b8ff" points="323.05,-444.68 315.94,-436.83 316.6,-447.4 323.05,-444.68"/>
</g>
<!-- Node9 -->
<g id="node9" class="node">
<title>Node9</title>
<g id="a_node9"><a xlink:href="classExecuteMooseObjectWarehouse.html" target="_top" xlink:title=" ">
<polygon fill="white" stroke="#666666" points="639,-584.5 460,-584.5 460,-554.5 639,-554.5 639,-584.5"/>
<text text-anchor="start" x="468" y="-572.5" font-family="Courier,monospace" font-size="10.00">ExecuteMooseObjectWarehouse</text>
<text text-anchor="middle" x="549.5" y="-561.5" font-family="Courier,monospace" font-size="10.00">&lt; TransientMultiApp &gt;</text>
</a>
</g>
</g>
<!-- Node1&#45;&gt;Node9 -->
<g id="edge8" class="edge">
<title>Node1&#45;&gt;Node9</title>
<path fill="none" stroke="#63b8ff" d="M324.37,-444.32C343.89,-471.29 383.64,-520.43 430,-545.5 439.23,-550.49 449.38,-554.45 459.73,-557.59"/>
<polygon fill="#63b8ff" stroke="#63b8ff" points="327.41,-442.55 318.78,-436.4 321.69,-446.59 327.41,-442.55"/>
</g>
<!-- Node10 -->
<g id="node10" class="node">
<title>Node10</title>
<g id="a_node10"><a xlink:href="classExecuteMooseObjectWarehouse.html" target="_top" xlink:title=" ">
<polygon fill="white" stroke="#666666" points="639,-536.5 460,-536.5 460,-506.5 639,-506.5 639,-536.5"/>
<text text-anchor="start" x="468" y="-524.5" font-family="Courier,monospace" font-size="10.00">ExecuteMooseObjectWarehouse</text>
<text text-anchor="middle" x="549.5" y="-513.5" font-family="Courier,monospace" font-size="10.00">&lt; Transfer &gt;</text>
</a>
</g>
</g>
<!-- Node1&#45;&gt;Node10 -->
<g id="edge9" class="edge">
<title>Node1&#45;&gt;Node10</title>
<path fill="none" stroke="#63b8ff" d="M333.37,-442.01C356.27,-458.5 393.87,-483.37 430,-497.5 439.38,-501.17 449.41,-504.31 459.52,-506.98"/>
<polygon fill="#63b8ff" stroke="#63b8ff" points="335.57,-439.28 325.44,-436.19 331.43,-444.93 335.57,-439.28"/>
</g>
<!-- Node11 -->
<g id="node11" class="node">
<title>Node11</title>
<g id="a_node11"><a xlink:href="classExecuteMooseObjectWarehouse.html" target="_top" xlink:title=" ">
<polygon fill="white" stroke="#666666" points="639,-488.5 460,-488.5 460,-458.5 639,-458.5 639,-488.5"/>
<text text-anchor="start" x="468" y="-476.5" font-family="Courier,monospace" font-size="10.00">ExecuteMooseObjectWarehouse</text>
<text text-anchor="middle" x="549.5" y="-465.5" font-family="Courier,monospace" font-size="10.00">&lt; Control &gt;</text>
</a>
</g>
</g>
<!-- Node1&#45;&gt;Node11 -->
<g id="edge10" class="edge">
<title>Node1&#45;&gt;Node11</title>
<path fill="none" stroke="#63b8ff" d="M371.55,-437.66C402.18,-443.87 439.75,-451.48 472.39,-458.08"/>
<polygon fill="#63b8ff" stroke="#63b8ff" points="372.59,-434.3 362.09,-435.75 371.2,-441.16 372.59,-434.3"/>
</g>
<!-- Node12 -->
<g id="node12" class="node">
<title>Node12</title>
<g id="a_node12"><a xlink:href="classMooseObjectTagWarehouse.html" target="_top" xlink:title=" ">
<polygon fill="white" stroke="#666666" points="627,-440.5 472,-440.5 472,-410.5 627,-410.5 627,-440.5"/>
<text text-anchor="start" x="480" y="-428.5" font-family="Courier,monospace" font-size="10.00">MooseObjectTagWarehouse</text>
<text text-anchor="middle" x="549.5" y="-417.5" font-family="Courier,monospace" font-size="10.00">&lt; DiracKernelBase &gt;</text>
</a>
</g>
</g>
<!-- Node1&#45;&gt;Node12 -->
<g id="edge11" class="edge">
<title>Node1&#45;&gt;Node12</title>
<path fill="none" stroke="#63b8ff" d="M405.7,-425.5C427.57,-425.5 450.59,-425.5 471.61,-425.5"/>
<polygon fill="#63b8ff" stroke="#63b8ff" points="405.9,-422 395.9,-425.5 405.9,-429 405.9,-422"/>
</g>
<!-- Node13 -->
<g id="node13" class="node">
<title>Node13</title>
<g id="a_node13"><a xlink:href="classMooseObjectTagWarehouse.html" target="_top" xlink:title=" ">
<polygon fill="white" stroke="#666666" points="627,-392.5 472,-392.5 472,-362.5 627,-362.5 627,-392.5"/>
<text text-anchor="start" x="480" y="-380.5" font-family="Courier,monospace" font-size="10.00">MooseObjectTagWarehouse</text>
<text text-anchor="middle" x="549.5" y="-369.5" font-family="Courier,monospace" font-size="10.00">&lt; NodalKernelBase &gt;</text>
</a>
</g>
</g>
<!-- Node1&#45;&gt;Node13 -->
<g id="edge12" class="edge">
<title>Node1&#45;&gt;Node13</title>
<path fill="none" stroke="#63b8ff" d="M371.55,-413.34C402.18,-407.13 439.75,-399.52 472.39,-392.92"/>
<polygon fill="#63b8ff" stroke="#63b8ff" points="371.2,-409.84 362.09,-415.25 372.59,-416.7 371.2,-409.84"/>
</g>
<!-- Node14 -->
<g id="node14" class="node">
<title>Node14</title>
<g id="a_node14"><a xlink:href="classMooseObjectTagWarehouse.html" target="_top" xlink:title=" ">
<polygon fill="white" stroke="#666666" points="627,-344.5 472,-344.5 472,-314.5 627,-314.5 627,-344.5"/>
<text text-anchor="start" x="480" y="-332.5" font-family="Courier,monospace" font-size="10.00">MooseObjectTagWarehouse</text>
<text text-anchor="middle" x="549.5" y="-321.5" font-family="Courier,monospace" font-size="10.00">&lt; KernelBase &gt;</text>
</a>
</g>
</g>
<!-- Node1&#45;&gt;Node14 -->
<g id="edge13" class="edge">
<title>Node1&#45;&gt;Node14</title>
<path fill="none" stroke="#63b8ff" d="M333.37,-408.99C356.27,-392.5 393.87,-367.63 430,-353.5 443.1,-348.38 457.46,-344.29 471.52,-341.05"/>
<polygon fill="#63b8ff" stroke="#63b8ff" points="331.43,-406.07 325.44,-414.81 335.57,-411.72 331.43,-406.07"/>
</g>
<!-- Node15 -->
<g id="node15" class="node">
<title>Node15</title>
<g id="a_node15"><a xlink:href="classMooseObjectTagWarehouse.html" target="_top" xlink:title=" ">
<polygon fill="white" stroke="#666666" points="627,-296.5 472,-296.5 472,-266.5 627,-266.5 627,-296.5"/>
<text text-anchor="start" x="480" y="-284.5" font-family="Courier,monospace" font-size="10.00">MooseObjectTagWarehouse</text>
<text text-anchor="middle" x="549.5" y="-273.5" font-family="Courier,monospace" font-size="10.00">&lt; ScalarKernelBase &gt;</text>
</a>
</g>
</g>
<!-- Node1&#45;&gt;Node15 -->
<g id="edge14" class="edge">
<title>Node1&#45;&gt;Node15</title>
<path fill="none" stroke="#63b8ff" d="M324.37,-406.68C343.89,-379.71 383.64,-330.57 430,-305.5 442.74,-298.61 457.22,-293.69 471.58,-290.18"/>
<polygon fill="#63b8ff" stroke="#63b8ff" points="321.69,-404.41 318.78,-414.6 327.41,-408.45 321.69,-404.41"/>
</g>
<!-- Node16 -->
<g id="node16" class="node">
<title>Node16</title>
<g id="a_node16"><a xlink:href="classMooseObjectTagWarehouse.html" target="_top" xlink:title=" ">
<polygon fill="white" stroke="#666666" points="627,-248.5 472,-248.5 472,-218.5 627,-218.5 627,-248.5"/>
<text text-anchor="start" x="480" y="-236.5" font-family="Courier,monospace" font-size="10.00">MooseObjectTagWarehouse</text>
<text text-anchor="middle" x="549.5" y="-225.5" font-family="Courier,monospace" font-size="10.00">&lt; DGKernelBase &gt;</text>
</a>
</g>
</g>
<!-- Node1&#45;&gt;Node16 -->
<g id="edge15" class="edge">
<title>Node1&#45;&gt;Node16</title>
<path fill="none" stroke="#63b8ff" d="M319.65,-405.37C335.28,-369.46 373.09,-294.64 430,-257.5 442.39,-249.41 456.95,-243.96 471.53,-240.3"/>
<polygon fill="#63b8ff" stroke="#63b8ff" points="316.6,-403.6 315.94,-414.17 323.05,-406.32 316.6,-403.6"/>
</g>
<!-- Node17 -->
<g id="node17" class="node">
<title>Node17</title>
<g id="a_node17"><a xlink:href="classMooseObjectTagWarehouse.html" target="_top" xlink:title=" ">
<polygon fill="white" stroke="#666666" points="627,-200.5 472,-200.5 472,-170.5 627,-170.5 627,-200.5"/>
<text text-anchor="start" x="480" y="-188.5" font-family="Courier,monospace" font-size="10.00">MooseObjectTagWarehouse</text>
<text text-anchor="middle" x="549.5" y="-177.5" font-family="Courier,monospace" font-size="10.00">&lt; InterfaceKernelBase &gt;</text>
</a>
</g>
</g>
<!-- Node1&#45;&gt;Node17 -->
<g id="edge16" class="edge">
<title>Node1&#45;&gt;Node17</title>
<path fill="none" stroke="#63b8ff" d="M316.5,-404.94C328.23,-361.38 361.81,-259.68 430,-209.5 442.17,-200.54 456.87,-194.72 471.71,-190.99"/>
<polygon fill="#63b8ff" stroke="#63b8ff" points="313.18,-403.8 314.08,-414.35 319.96,-405.54 313.18,-403.8"/>
</g>
<!-- Node18 -->
<g id="node18" class="node">
<title>Node18</title>
<g id="a_node18"><a xlink:href="classMooseObjectTagWarehouse.html" target="_top" xlink:title=" ">
<polygon fill="white" stroke="#666666" points="627,-152.5 472,-152.5 472,-122.5 627,-122.5 627,-152.5"/>
<text text-anchor="start" x="480" y="-140.5" font-family="Courier,monospace" font-size="10.00">MooseObjectTagWarehouse</text>
<text text-anchor="middle" x="549.5" y="-129.5" font-family="Courier,monospace" font-size="10.00">&lt; IntegratedBCBase &gt;</text>
</a>
</g>
</g>
<!-- Node1&#45;&gt;Node18 -->
<g id="edge17" class="edge">
<title>Node1&#45;&gt;Node18</title>
<path fill="none" stroke="#63b8ff" d="M314.41,-404.31C322.55,-353.67 350.4,-225.13 430,-161.5 441.97,-151.93 456.75,-145.87 471.76,-142.09"/>
<polygon fill="#63b8ff" stroke="#63b8ff" points="310.95,-403.76 312.94,-414.17 317.88,-404.8 310.95,-403.76"/>
</g>
<!-- Node19 -->
<g id="node19" class="node">
<title>Node19</title>
<g id="a_node19"><a xlink:href="classMooseObjectTagWarehouse.html" target="_top" xlink:title=" ">
<polygon fill="white" stroke="#666666" points="627,-104.5 472,-104.5 472,-74.5 627,-74.5 627,-104.5"/>
<text text-anchor="start" x="480" y="-92.5" font-family="Courier,monospace" font-size="10.00">MooseObjectTagWarehouse</text>
<text text-anchor="middle" x="549.5" y="-81.5" font-family="Courier,monospace" font-size="10.00">&lt; NodalBCBase &gt;</text>
</a>
</g>
</g>
<!-- Node1&#45;&gt;Node19 -->
<g id="edge18" class="edge">
<title>Node1&#45;&gt;Node19</title>
<path fill="none" stroke="#63b8ff" d="M312.79,-404.4C317.45,-347.73 338.41,-191.25 430,-113.5 441.76,-103.52 456.54,-97.29 471.63,-93.48"/>
<polygon fill="#63b8ff" stroke="#63b8ff" points="309.31,-404.01 312.08,-414.23 316.29,-404.51 309.31,-404.01"/>
</g>
<!-- Node20 -->
<g id="node20" class="node">
<title>Node20</title>
<g id="a_node20"><a xlink:href="classExecuteMooseObjectWarehouse.html" target="_top" xlink:title="A class for storing MooseObjects based on execution flag.">
<polygon fill="white" stroke="#666666" points="654,-56 445,-56 445,-37 654,-37 654,-56"/>
<text text-anchor="middle" x="549.5" y="-44" font-family="Courier,monospace" font-size="10.00">ExecuteMooseObjectWarehouse&lt; T &gt;</text>
</a>
</g>
</g>
<!-- Node1&#45;&gt;Node20 -->
<g id="edge19" class="edge">
<title>Node1&#45;&gt;Node20</title>
<path fill="none" stroke="#63b8ff" d="M311.4,-404.38C312.35,-341.71 324.35,-155.56 430,-65.5 434.44,-61.72 439.33,-58.53 444.51,-55.86"/>
<polygon fill="#63b8ff" stroke="#63b8ff" points="307.9,-404.27 311.35,-414.29 314.9,-404.31 307.9,-404.27"/>
</g>
<!-- Node21 -->
<g id="node21" class="node">
<title>Node21</title>
<g id="a_node21"><a xlink:href="classMooseObjectTagWarehouse.html" target="_top" xlink:title="A storage container for MooseObjects that inherit from SetupInterface.">
<polygon fill="white" stroke="#666666" points="642,-19 457,-19 457,0 642,0 642,-19"/>
<text text-anchor="middle" x="549.5" y="-7" font-family="Courier,monospace" font-size="10.00">MooseObjectTagWarehouse&lt; T &gt;</text>
</a>
</g>
</g>
<!-- Node1&#45;&gt;Node21 -->
<g id="edge20" class="edge">
<title>Node1&#45;&gt;Node21</title>
<path fill="none" stroke="#63b8ff" d="M314.73,-404.61C326.7,-330.09 370.88,-78.95 430,-27.5 437.77,-20.74 446.97,-15.92 456.75,-12.54"/>
<polygon fill="#63b8ff" stroke="#63b8ff" points="311.32,-403.78 313.22,-414.21 318.24,-404.88 311.32,-403.78"/>
</g>
<!-- Node2 -->
<g id="node2" class="node">
<title>Node2</title>
<g id="a_node2"><a xlink:href="classMooseObjectWarehouseBase.html" target="_top" xlink:title="A base storage container for MooseObjects.">
<polygon fill="white" stroke="#666666" points="191,-435 0,-435 0,-416 191,-416 191,-435"/>
<text text-anchor="middle" x="95.5" y="-423" font-family="Courier,monospace" font-size="10.00">MooseObjectWarehouseBase&lt; T &gt;</text>
</a>
</g>
</g>
<!-- Node2&#45;&gt;Node1 -->
<g id="edge1" class="edge">
<title>Node2&#45;&gt;Node1</title>
<path fill="none" stroke="#63b8ff" d="M202.81,-425.5C210.85,-425.5 218.89,-425.5 226.74,-425.5"/>
<polygon fill="#63b8ff" stroke="#63b8ff" points="202.99,-422 192.99,-425.5 202.99,-429 202.99,-422"/>
</g>
</g>
</svg>
