<?xml version="1.0" encoding="UTF-8" standalone="no"?>
<!DOCTYPE svg PUBLIC "-//W3C//DTD SVG 1.1//EN"
 "http://www.w3.org/Graphics/SVG/1.1/DTD/svg11.dtd">
<!-- Generated by graphviz version 7.0.5 (20221223.1930)
 -->
<!-- Title: TemperatureOutflowBC Pages: 1 -->
<svg width="384pt" height="280pt"
 viewBox="0.00 0.00 384.00 280.00" xmlns="http://www.w3.org/2000/svg" xmlns:xlink="http://www.w3.org/1999/xlink">
<g id="graph0" class="graph" transform="scale(1 1) rotate(0) translate(4 276)">
<title>TemperatureOutflowBC</title>
<!-- Node1 -->
<g id="node1" class="node">
<title>Node1</title>
<g id="a_node1"><a xlink:title=" ">
<polygon fill="#999999" stroke="#666666" points="259,-19 122,-19 122,0 259,0 259,-19"/>
<text text-anchor="middle" x="190.5" y="-7" font-family="Courier,monospace" font-size="10.00">TemperatureOutflowBC</text>
</a>
</g>
</g>
<!-- Node2 -->
<g id="node2" class="node">
<title>Node2</title>
<g id="a_node2"><a xlink:href="classDerivativeMaterialInterface.html" target="_top" xlink:title=" ">
<polygon fill="white" stroke="#666666" points="289,-96 92,-96 92,-55 289,-55 289,-96"/>
<text text-anchor="start" x="100" y="-84" font-family="Courier,monospace" font-size="10.00">DerivativeMaterialInterface</text>
<text text-anchor="start" x="100" y="-73" font-family="Courier,monospace" font-size="10.00">&lt; JvarMapIntegratedBCInterface</text>
<text text-anchor="middle" x="190.5" y="-62" font-family="Courier,monospace" font-size="10.00">&lt; OutflowBC &gt; &gt;</text>
</a>
</g>
</g>
<!-- Node2&#45;&gt;Node1 -->
<g id="edge1" class="edge">
<title>Node2&#45;&gt;Node1</title>
<path fill="none" stroke="#63b8ff" d="M190.5,-43.23C190.5,-34.38 190.5,-25.45 190.5,-19.16"/>
<polygon fill="#63b8ff" stroke="#63b8ff" points="187,-43.09 190.5,-53.09 194,-43.09 187,-43.09"/>
</g>
<!-- Node3 -->
<g id="node3" class="node">
<title>Node3</title>
<g id="a_node3"><a xlink:href="classJvarMapIntegratedBCInterface.html" target="_top" xlink:title=" ">
<polygon fill="white" stroke="#666666" points="185,-162 0,-162 0,-132 185,-132 185,-162"/>
<text text-anchor="start" x="8" y="-150" font-family="Courier,monospace" font-size="10.00">JvarMapIntegratedBCInterface</text>
<text text-anchor="middle" x="92.5" y="-139" font-family="Courier,monospace" font-size="10.00">&lt; OutflowBC &gt;</text>
</a>
</g>
</g>
<!-- Node3&#45;&gt;Node2 -->
<g id="edge2" class="edge">
<title>Node3&#45;&gt;Node2</title>
<path fill="none" stroke="#63b8ff" d="M122.11,-125C134.9,-115.93 149.8,-105.37 162.42,-96.42"/>
<polygon fill="#63b8ff" stroke="#63b8ff" points="120.17,-122.08 114.04,-130.72 124.22,-127.79 120.17,-122.08"/>
</g>
<!-- Node4 -->
<g id="node4" class="node">
<title>Node4</title>
<g id="a_node4"><a xlink:href="classJvarMapInterfaceBase.html" target="_top" xlink:title="Base class (&quot;Veneer&quot;) that implements the actual mapping from &#39;jvar&#39; in into the _coupled_moose_vars ...">
<polygon fill="white" stroke="#666666" points="176,-217 9,-217 9,-198 176,-198 176,-217"/>
<text text-anchor="middle" x="92.5" y="-205" font-family="Courier,monospace" font-size="10.00">JvarMapInterfaceBase&lt; T &gt;</text>
</a>
</g>
</g>
<!-- Node4&#45;&gt;Node3 -->
<g id="edge3" class="edge">
<title>Node4&#45;&gt;Node3</title>
<path fill="none" stroke="#63b8ff" d="M92.5,-186.51C92.5,-178.49 92.5,-169.43 92.5,-162.11"/>
<polygon fill="#63b8ff" stroke="#63b8ff" points="89,-186.35 92.5,-196.35 96,-186.35 89,-186.35"/>
</g>
<!-- Node5 -->
<g id="node5" class="node">
<title>Node5</title>
<g id="a_node5"><a xlink:title=" ">
<polygon fill="white" stroke="#666666" points="107,-272 78,-272 78,-253 107,-253 107,-272"/>
<text text-anchor="middle" x="92.5" y="-260" font-family="Courier,monospace" font-size="10.00">T</text>
</a>
</g>
</g>
<!-- Node5&#45;&gt;Node4 -->
<g id="edge4" class="edge">
<title>Node5&#45;&gt;Node4</title>
<path fill="none" stroke="#63b8ff" d="M92.5,-241.35C92.5,-233.1 92.5,-223.97 92.5,-217.44"/>
<polygon fill="#63b8ff" stroke="#63b8ff" points="89,-241.23 92.5,-251.23 96,-241.23 89,-241.23"/>
</g>
<!-- Node6 -->
<g id="node6" class="node">
<title>Node6</title>
<g id="a_node6"><a xlink:href="classDerivativeMaterialPropertyNameInterface.html" target="_top" xlink:title=" ">
<polygon fill="white" stroke="#666666" points="376,-162 203,-162 203,-132 376,-132 376,-162"/>
<text text-anchor="start" x="211" y="-150" font-family="Courier,monospace" font-size="10.00">DerivativeMaterialProperty</text>
<text text-anchor="middle" x="289.5" y="-139" font-family="Courier,monospace" font-size="10.00">NameInterface</text>
</a>
</g>
</g>
<!-- Node6&#45;&gt;Node2 -->
<g id="edge5" class="edge">
<title>Node6&#45;&gt;Node2</title>
<path fill="none" stroke="#63b8ff" d="M259.59,-125C246.67,-115.93 231.62,-105.37 218.87,-96.42"/>
<polygon fill="#63b8ff" stroke="#63b8ff" points="257.55,-127.85 267.75,-130.73 261.57,-122.12 257.55,-127.85"/>
</g>
</g>
</svg>
