<?xml version="1.0" encoding="UTF-8" standalone="no"?>
<!DOCTYPE svg PUBLIC "-//W3C//DTD SVG 1.1//EN"
 "http://www.w3.org/Graphics/SVG/1.1/DTD/svg11.dtd">
<!-- Generated by graphviz version 7.0.5 (20221223.1930)
 -->
<!-- Title: Moose::FunctorEnvelope&lt; T &gt; Pages: 1 -->
<svg width="354pt" height="192pt"
 viewBox="0.00 0.00 354.00 192.00" xmlns="http://www.w3.org/2000/svg" xmlns:xlink="http://www.w3.org/1999/xlink">
<g id="graph0" class="graph" transform="scale(1 1) rotate(0) translate(4 188)">
<title>Moose::FunctorEnvelope&lt; T &gt;</title>
<!-- Node1 -->
<g id="node1" class="node">
<title>Node1</title>
<g id="a_node1"><a xlink:title="This is a wrapper that forwards calls to the implementation, which can be switched out at any time wi...">
<polygon fill="#999999" stroke="#666666" points="258,-19 79,-19 79,0 258,0 258,-19"/>
<text text-anchor="middle" x="168.5" y="-7" font-family="Courier,monospace" font-size="10.00">Moose::FunctorEnvelope&lt; T &gt;</text>
</a>
</g>
</g>
<!-- Node2 -->
<g id="node2" class="node">
<title>Node2</title>
<g id="a_node2"><a xlink:href="classMoose_1_1FunctorBase.html" target="_top" xlink:title="Base class template for functor objects.">
<polygon fill="white" stroke="#666666" points="155,-74 0,-74 0,-55 155,-55 155,-74"/>
<text text-anchor="middle" x="77.5" y="-62" font-family="Courier,monospace" font-size="10.00">Moose::FunctorBase&lt; T &gt;</text>
</a>
</g>
</g>
<!-- Node2&#45;&gt;Node1 -->
<g id="edge1" class="edge">
<title>Node2&#45;&gt;Node1</title>
<path fill="none" stroke="#63b8ff" d="M102.86,-48.73C119.07,-39.29 139.56,-27.36 153.29,-19.36"/>
<polygon fill="#63b8ff" stroke="#63b8ff" points="101.12,-45.69 94.24,-53.75 104.65,-51.74 101.12,-45.69"/>
</g>
<!-- Node3 -->
<g id="node3" class="node">
<title>Node3</title>
<g id="a_node3"><a xlink:href="classMoose_1_1FunctorAbstract.html" target="_top" xlink:title="Abstract base class that can be used to hold collections of functors.">
<polygon fill="white" stroke="#666666" points="152,-129 3,-129 3,-110 152,-110 152,-129"/>
<text text-anchor="middle" x="77.5" y="-117" font-family="Courier,monospace" font-size="10.00">Moose::FunctorAbstract</text>
</a>
</g>
</g>
<!-- Node3&#45;&gt;Node2 -->
<g id="edge2" class="edge">
<title>Node3&#45;&gt;Node2</title>
<path fill="none" stroke="#63b8ff" d="M77.5,-98.35C77.5,-90.1 77.5,-80.97 77.5,-74.44"/>
<polygon fill="#63b8ff" stroke="#63b8ff" points="74,-98.23 77.5,-108.23 81,-98.23 74,-98.23"/>
</g>
<!-- Node4 -->
<g id="node4" class="node">
<title>Node4</title>
<g id="a_node4"><a xlink:href="classFaceArgInterface.html" target="_top" xlink:title="A base class interface for both producers and consumers of functor face arguments,...">
<polygon fill="white" stroke="#666666" points="134,-184 21,-184 21,-165 134,-165 134,-184"/>
<text text-anchor="middle" x="77.5" y="-172" font-family="Courier,monospace" font-size="10.00">FaceArgInterface</text>
</a>
</g>
</g>
<!-- Node4&#45;&gt;Node3 -->
<g id="edge3" class="edge">
<title>Node4&#45;&gt;Node3</title>
<path fill="none" stroke="#63b8ff" d="M77.5,-153.35C77.5,-145.1 77.5,-135.97 77.5,-129.44"/>
<polygon fill="#63b8ff" stroke="#63b8ff" points="74,-153.23 77.5,-163.23 81,-153.23 74,-153.23"/>
</g>
<!-- Node5 -->
<g id="node5" class="node">
<title>Node5</title>
<g id="a_node5"><a xlink:href="classMoose_1_1FunctorEnvelopeBase.html" target="_top" xlink:title="A non&#45;templated base class for functors that allow an owner object to hold different class template i...">
<polygon fill="white" stroke="#666666" points="346,-74 173,-74 173,-55 346,-55 346,-74"/>
<text text-anchor="middle" x="259.5" y="-62" font-family="Courier,monospace" font-size="10.00">Moose::FunctorEnvelopeBase</text>
</a>
</g>
</g>
<!-- Node5&#45;&gt;Node1 -->
<g id="edge4" class="edge">
<title>Node5&#45;&gt;Node1</title>
<path fill="none" stroke="#63b8ff" d="M234.14,-48.73C217.93,-39.29 197.44,-27.36 183.71,-19.36"/>
<polygon fill="#63b8ff" stroke="#63b8ff" points="232.35,-51.74 242.76,-53.75 235.88,-45.69 232.35,-51.74"/>
</g>
</g>
</svg>
