<?xml version="1.0" encoding="UTF-8" standalone="no"?>
<!DOCTYPE svg PUBLIC "-//W3C//DTD SVG 1.1//EN"
 "http://www.w3.org/Graphics/SVG/1.1/DTD/svg11.dtd">
<!-- Generated by graphviz version 7.0.5 (20221223.1930)
 -->
<!-- Title: CentralDifference Pages: 1 -->
<svg width="1183pt" height="187pt"
 viewBox="0.00 0.00 1183.00 186.50" xmlns="http://www.w3.org/2000/svg" xmlns:xlink="http://www.w3.org/1999/xlink">
<g id="graph0" class="graph" transform="scale(1 1) rotate(0) translate(4 182.5)">
<title>CentralDifference</title>
<!-- Node1 -->
<g id="node1" class="node">
<title>Node1</title>
<g id="a_node1"><a xlink:title="Implements a truly explicit (no nonlinear solve) Central Difference time integration scheme.">
<polygon fill="#999999" stroke="#666666" points="1175,-66.5 1056,-66.5 1056,-47.5 1175,-47.5 1175,-66.5"/>
<text text-anchor="middle" x="1115.5" y="-54.5" font-family="Courier,monospace" font-size="10.00">CentralDifference</text>
</a>
</g>
</g>
<!-- Node2 -->
<g id="node2" class="node">
<title>Node2</title>
<g id="a_node2"><a xlink:href="classActuallyExplicitEuler.html" target="_top" xlink:title="Implements a truly explicit (no nonlinear solve) first&#45;order, forward Euler time integration scheme.">
<polygon fill="white" stroke="#666666" points="1020,-66.5 877,-66.5 877,-47.5 1020,-47.5 1020,-66.5"/>
<text text-anchor="middle" x="948.5" y="-54.5" font-family="Courier,monospace" font-size="10.00">ActuallyExplicitEuler</text>
</a>
</g>
</g>
<!-- Node2&#45;&gt;Node1 -->
<g id="edge1" class="edge">
<title>Node2&#45;&gt;Node1</title>
<path fill="none" stroke="#63b8ff" d="M1031.75,-57C1039.77,-57 1047.8,-57 1055.53,-57"/>
<polygon fill="#63b8ff" stroke="#63b8ff" points="1031.95,-53.5 1021.95,-57 1031.95,-60.5 1031.95,-53.5"/>
</g>
<!-- Node3 -->
<g id="node3" class="node">
<title>Node3</title>
<g id="a_node3"><a xlink:href="classExplicitTimeIntegrator.html" target="_top" xlink:title="Base class for explicit time integrators that are implemented without using a nonlinear solver.">
<polygon fill="white" stroke="#666666" points="841,-66.5 692,-66.5 692,-47.5 841,-47.5 841,-66.5"/>
<text text-anchor="middle" x="766.5" y="-54.5" font-family="Courier,monospace" font-size="10.00">ExplicitTimeIntegrator</text>
</a>
</g>
</g>
<!-- Node3&#45;&gt;Node2 -->
<g id="edge2" class="edge">
<title>Node3&#45;&gt;Node2</title>
<path fill="none" stroke="#63b8ff" d="M852.76,-57C860.77,-57 868.84,-57 876.69,-57"/>
<polygon fill="#63b8ff" stroke="#63b8ff" points="853.01,-53.5 843.01,-57 853.01,-60.5 853.01,-53.5"/>
</g>
<!-- Node4 -->
<g id="node4" class="node">
<title>Node4</title>
<g id="a_node4"><a xlink:href="classTimeIntegrator.html" target="_top" xlink:title="Base class for time integrators.">
<polygon fill="white" stroke="#666666" points="638,-85.5 537,-85.5 537,-66.5 638,-66.5 638,-85.5"/>
<text text-anchor="middle" x="587.5" y="-73.5" font-family="Courier,monospace" font-size="10.00">TimeIntegrator</text>
</a>
</g>
</g>
<!-- Node4&#45;&gt;Node3 -->
<g id="edge3" class="edge">
<title>Node4&#45;&gt;Node3</title>
<path fill="none" stroke="#63b8ff" d="M649.44,-69.46C663.03,-68 677.59,-66.44 691.65,-64.93"/>
<polygon fill="#63b8ff" stroke="#63b8ff" points="649.35,-65.95 639.78,-70.5 650.1,-72.91 649.35,-65.95"/>
</g>
<!-- Node5 -->
<g id="node5" class="node">
<title>Node5</title>
<g id="a_node5"><a xlink:href="classMooseObject.html" target="_top" xlink:title="Every object that can be built by the factory should be derived from this class.">
<polygon fill="white" stroke="#666666" points="483,-104.5 400,-104.5 400,-85.5 483,-85.5 483,-104.5"/>
<text text-anchor="middle" x="441.5" y="-92.5" font-family="Courier,monospace" font-size="10.00">MooseObject</text>
</a>
</g>
</g>
<!-- Node5&#45;&gt;Node4 -->
<g id="edge4" class="edge">
<title>Node5&#45;&gt;Node4</title>
<path fill="none" stroke="#63b8ff" d="M494.58,-88.13C508.26,-86.32 522.99,-84.38 536.56,-82.59"/>
<polygon fill="#63b8ff" stroke="#63b8ff" points="494.34,-84.63 484.88,-89.41 495.25,-91.57 494.34,-84.63"/>
</g>
<!-- Node6 -->
<g id="node6" class="node">
<title>Node6</title>
<g id="a_node6"><a xlink:href="classMooseBase.html" target="_top" xlink:title="Base class for everything in MOOSE with a name and a type.">
<polygon fill="white" stroke="#666666" points="310,-178.5 239,-178.5 239,-159.5 310,-159.5 310,-178.5"/>
<text text-anchor="middle" x="274.5" y="-166.5" font-family="Courier,monospace" font-size="10.00">MooseBase</text>
</a>
</g>
</g>
<!-- Node6&#45;&gt;Node5 -->
<g id="edge5" class="edge">
<title>Node6&#45;&gt;Node5</title>
<path fill="none" stroke="#63b8ff" d="M321.18,-163.58C335.3,-160.89 350.65,-156.9 364,-151 390.19,-139.42 416.12,-117.71 430.04,-104.99"/>
<polygon fill="#63b8ff" stroke="#63b8ff" points="320.93,-160.07 311.67,-165.21 322.11,-166.97 320.93,-160.07"/>
</g>
<!-- Node7 -->
<g id="node7" class="node">
<title>Node7</title>
<g id="a_node7"><a xlink:href="classMooseBaseParameterInterface.html" target="_top" xlink:title="Every object that can be built by the factory should be derived from this class.">
<polygon fill="white" stroke="#666666" points="364,-141.5 185,-141.5 185,-122.5 364,-122.5 364,-141.5"/>
<text text-anchor="middle" x="274.5" y="-129.5" font-family="Courier,monospace" font-size="10.00">MooseBaseParameterInterface</text>
</a>
</g>
</g>
<!-- Node7&#45;&gt;Node5 -->
<g id="edge6" class="edge">
<title>Node7&#45;&gt;Node5</title>
<path fill="none" stroke="#63b8ff" d="M337.35,-119.77C346.3,-117.9 355.4,-115.94 364,-114 376.28,-111.23 389.61,-107.99 401.66,-104.99"/>
<polygon fill="#63b8ff" stroke="#63b8ff" points="336.69,-116.33 327.61,-121.79 338.11,-123.19 336.69,-116.33"/>
</g>
<!-- Node8 -->
<g id="node8" class="node">
<title>Node8</title>
<g id="a_node8"><a xlink:href="classMooseBaseErrorInterface.html" target="_top" xlink:title="Interface that provides APIs to output errors/warnings/info messages.">
<polygon fill="white" stroke="#666666" points="352,-104.5 197,-104.5 197,-85.5 352,-85.5 352,-104.5"/>
<text text-anchor="middle" x="274.5" y="-92.5" font-family="Courier,monospace" font-size="10.00">MooseBaseErrorInterface</text>
</a>
</g>
</g>
<!-- Node8&#45;&gt;Node5 -->
<g id="edge7" class="edge">
<title>Node8&#45;&gt;Node5</title>
<path fill="none" stroke="#63b8ff" d="M363.7,-95C376.2,-95 388.53,-95 399.52,-95"/>
<polygon fill="#63b8ff" stroke="#63b8ff" points="363.72,-91.5 353.72,-95 363.72,-98.5 363.72,-91.5"/>
</g>
<!-- Node9 -->
<g id="node9" class="node">
<title>Node9</title>
<g id="a_node9"><a xlink:href="classConsoleStreamInterface.html" target="_top" xlink:title="An inteface for the _console for outputting to the Console object.">
<polygon fill="white" stroke="#666666" points="149,-104.5 0,-104.5 0,-85.5 149,-85.5 149,-104.5"/>
<text text-anchor="middle" x="74.5" y="-92.5" font-family="Courier,monospace" font-size="10.00">ConsoleStreamInterface</text>
</a>
</g>
</g>
<!-- Node9&#45;&gt;Node8 -->
<g id="edge8" class="edge">
<title>Node9&#45;&gt;Node8</title>
<path fill="none" stroke="#63b8ff" d="M160.62,-95C172.62,-95 184.9,-95 196.73,-95"/>
<polygon fill="#63b8ff" stroke="#63b8ff" points="160.74,-91.5 150.74,-95 160.74,-98.5 160.74,-91.5"/>
</g>
<!-- Node10 -->
<g id="node10" class="node">
<title>Node10</title>
<g id="a_node10"><a xlink:title=" ">
<polygon fill="white" stroke="#666666" points="352,-67.5 197,-67.5 197,-48.5 352,-48.5 352,-67.5"/>
<text text-anchor="middle" x="274.5" y="-55.5" font-family="Courier,monospace" font-size="10.00">libMesh::ParallelObject</text>
</a>
</g>
</g>
<!-- Node10&#45;&gt;Node5 -->
<g id="edge9" class="edge">
<title>Node10&#45;&gt;Node5</title>
<path fill="none" stroke="#63b8ff" d="M333.99,-70.39C344.01,-72.56 354.31,-74.82 364,-77 375.58,-79.61 388.13,-82.52 399.64,-85.23"/>
<polygon fill="#63b8ff" stroke="#63b8ff" points="334.84,-66.99 324.32,-68.3 333.36,-73.83 334.84,-66.99"/>
</g>
<!-- Node11 -->
<g id="node11" class="node">
<title>Node11</title>
<g id="a_node11"><a xlink:href="classDataFileInterface.html" target="_top" xlink:title=" ">
<polygon fill="white" stroke="#666666" points="337,-30 212,-30 212,0 337,0 337,-30"/>
<text text-anchor="start" x="220" y="-18" font-family="Courier,monospace" font-size="10.00">DataFileInterface&lt;</text>
<text text-anchor="middle" x="274.5" y="-7" font-family="Courier,monospace" font-size="10.00"> MooseObject &gt;</text>
</a>
</g>
</g>
<!-- Node11&#45;&gt;Node5 -->
<g id="edge10" class="edge">
<title>Node11&#45;&gt;Node5</title>
<path fill="none" stroke="#63b8ff" d="M347.66,-30.91C353.35,-33.26 358.88,-35.94 364,-39 383.97,-50.93 381,-63.57 400,-77 404.27,-80.02 409.13,-82.71 413.97,-85.02"/>
<polygon fill="#63b8ff" stroke="#63b8ff" points="349.29,-27.78 338.69,-27.57 346.84,-34.34 349.29,-27.78"/>
</g>
<!-- Node12 -->
<g id="node12" class="node">
<title>Node12</title>
<g id="a_node12"><a xlink:href="classRestartable.html" target="_top" xlink:title="A class for creating restricted objects.">
<polygon fill="white" stroke="#666666" points="483,-67.5 400,-67.5 400,-48.5 483,-48.5 483,-67.5"/>
<text text-anchor="middle" x="441.5" y="-55.5" font-family="Courier,monospace" font-size="10.00">Restartable</text>
</a>
</g>
</g>
<!-- Node12&#45;&gt;Node4 -->
<g id="edge11" class="edge">
<title>Node12&#45;&gt;Node4</title>
<path fill="none" stroke="#63b8ff" d="M494.58,-64.51C508.26,-66.22 522.99,-68.06 536.56,-69.76"/>
<polygon fill="#63b8ff" stroke="#63b8ff" points="495.24,-61.07 484.88,-63.3 494.37,-68.01 495.24,-61.07"/>
</g>
<!-- Node13 -->
<g id="node13" class="node">
<title>Node13</title>
<g id="a_node13"><a xlink:href="classMeshChangedInterface.html" target="_top" xlink:title="Interface for notifications that the mesh has changed.">
<polygon fill="white" stroke="#666666" points="656,-48.5 519,-48.5 519,-29.5 656,-29.5 656,-48.5"/>
<text text-anchor="middle" x="587.5" y="-36.5" font-family="Courier,monospace" font-size="10.00">MeshChangedInterface</text>
</a>
</g>
</g>
<!-- Node13&#45;&gt;Node3 -->
<g id="edge12" class="edge">
<title>Node13&#45;&gt;Node3</title>
<path fill="none" stroke="#63b8ff" d="M667.88,-47.07C675.76,-47.87 683.75,-48.69 691.57,-49.48"/>
<polygon fill="#63b8ff" stroke="#63b8ff" points="668.24,-43.59 657.93,-46.06 667.53,-50.55 668.24,-43.59"/>
</g>
</g>
</svg>
