<?xml version="1.0" encoding="UTF-8" standalone="no"?>
<!DOCTYPE svg PUBLIC "-//W3C//DTD SVG 1.1//EN"
 "http://www.w3.org/Graphics/SVG/1.1/DTD/svg11.dtd">
<!-- Generated by graphviz version 7.0.5 (20221223.1930)
 -->
<!-- Title: InterfaceKernelTempl&lt; T &gt; Pages: 1 -->
<!--zoomable 652 -->
<svg id="main" version="1.1" xmlns="http://www.w3.org/2000/svg" xmlns:xlink="http://www.w3.org/1999/xlink" xml:space="preserve" onload="init(evt)">
<style type="text/css"><![CDATA[
.edge:hover path { stroke: red; }
.edge:hover polygon { stroke: red; fill: red; }
]]></style>
<script type="text/javascript"><![CDATA[
var edges = document.getElementsByTagName('g');
if (edges && edges.length) {
  for (var i=0;i<edges.length;i++) {
    if (edges[i].id.substr(0,4)=='edge') {
      edges[i].setAttribute('class','edge');
    }
  }
}
]]></script>
        <defs>
                <circle id="rim" cx="0" cy="0" r="7"/>
                <circle id="rim2" cx="0" cy="0" r="3.5"/>
                <g id="zoomPlus">
                        <use xlink:href="#rim" fill="#404040">
                                <set attributeName="fill" to="#808080" begin="zoomplus.mouseover" end="zoomplus.mouseout"/>
                        </use>
                        <path d="M-4,0h8M0,-4v8" fill="none" stroke="white" stroke-width="1.5" pointer-events="none"/>
                </g>
                <g id="zoomMin">
                        <use xlink:href="#rim" fill="#404040">
                                <set attributeName="fill" to="#808080" begin="zoomminus.mouseover" end="zoomminus.mouseout"/>
                        </use>
                        <path d="M-4,0h8" fill="none" stroke="white" stroke-width="1.5" pointer-events="none"/>
                </g>
                <g id="dirArrow">
                        <path fill="none" stroke="white" stroke-width="1.5" d="M0,-3.0v7 M-2.5,-0.5L0,-3.0L2.5,-0.5"/>
                </g>
               <g id="resetDef">
                       <use xlink:href="#rim2" fill="#404040">
                               <set attributeName="fill" to="#808080" begin="reset.mouseover" end="reset.mouseout"/>
                       </use>
               </g>
        </defs>

<script type="text/javascript">
var viewWidth = 1961;
var viewHeight = 652;
var sectionId = 'dynsection-0';
</script>
<script xlink:href="svgpan.js"/>
<svg id="graph" class="graph">
<g id="viewport">
<title>InterfaceKernelTempl&lt; T &gt;</title>
<!-- Node1 -->
<g id="node1" class="node">
<title>Node1</title>
<g id="a_node1"><a xlink:title="InterfaceKernel and VectorInterfaceKernel is responsible for interfacing physics across subdomains.">
<polygon fill="#999999" stroke="#666666" points="1535,-120.5 1368,-120.5 1368,-101.5 1535,-101.5 1535,-120.5"/>
<text text-anchor="middle" x="1451.5" y="-108.5" font-family="Courier,monospace" font-size="10.00">InterfaceKernelTempl&lt; T &gt;</text>
</a>
</g>
</g>
<!-- Node33 -->
<g id="node33" class="node">
<title>Node33</title>
<g id="a_node33"><a xlink:href="classGenericInterfaceKernelTempl.html" target="_top" xlink:title=" ">
<polygon fill="white" stroke="#666666" points="1750,-222 1571,-222 1571,-192 1750,-192 1750,-222"/>
<text text-anchor="start" x="1579" y="-210" font-family="Courier,monospace" font-size="10.00">GenericInterfaceKernelTempl</text>
<text text-anchor="middle" x="1660.5" y="-199" font-family="Courier,monospace" font-size="10.00">&lt; T, is_ad &gt;</text>
</a>
</g>
</g>
<!-- Node1&#45;&gt;Node33 -->
<g id="edge32" class="edge">
<title>Node1&#45;&gt;Node33</title>
<path fill="none" stroke="#63b8ff" d="M1475.32,-127.55C1498.44,-143.66 1535.74,-167.87 1571,-183 1578.46,-186.2 1586.46,-189.08 1594.49,-191.64"/>
<polygon fill="#63b8ff" stroke="#63b8ff" points="1477.46,-124.78 1467.27,-121.86 1473.42,-130.49 1477.46,-124.78"/>
</g>
<!-- Node35 -->
<g id="node35" class="node">
<title>Node35</title>
<g id="a_node35"><a xlink:href="classInterTemperatureAdvection.html" target="_top" xlink:title=" ">
<polygon fill="white" stroke="#666666" points="1744,-174 1577,-174 1577,-144 1744,-144 1744,-174"/>
<text text-anchor="start" x="1585" y="-162" font-family="Courier,monospace" font-size="10.00">InterTemperatureAdvection</text>
<text text-anchor="middle" x="1660.5" y="-151" font-family="Courier,monospace" font-size="10.00">&lt; Real &gt;</text>
</a>
</g>
</g>
<!-- Node1&#45;&gt;Node35 -->
<g id="edge34" class="edge">
<title>Node1&#45;&gt;Node35</title>
<path fill="none" stroke="#63b8ff" d="M1506.36,-123.49C1532.85,-129.63 1565.02,-137.09 1593.02,-143.58"/>
<polygon fill="#63b8ff" stroke="#63b8ff" points="1507.4,-120.14 1496.86,-121.29 1505.82,-126.96 1507.4,-120.14"/>
</g>
<!-- Node36 -->
<g id="node36" class="node">
<title>Node36</title>
<g id="a_node36"><a xlink:href="classInterfaceDiffusion.html" target="_top" xlink:title="DG kernel for interfacing diffusion between two variables on adjacent blocks.">
<polygon fill="white" stroke="#666666" points="1723,-126 1598,-126 1598,-96 1723,-96 1723,-126"/>
<text text-anchor="start" x="1606" y="-114" font-family="Courier,monospace" font-size="10.00">InterfaceDiffusion</text>
<text text-anchor="middle" x="1660.5" y="-103" font-family="Courier,monospace" font-size="10.00">&lt; Real &gt;</text>
</a>
</g>
</g>
<!-- Node1&#45;&gt;Node36 -->
<g id="edge35" class="edge">
<title>Node1&#45;&gt;Node36</title>
<path fill="none" stroke="#63b8ff" d="M1546.53,-111C1563.87,-111 1581.57,-111 1597.65,-111"/>
<polygon fill="#63b8ff" stroke="#63b8ff" points="1546.72,-107.5 1536.72,-111 1546.72,-114.5 1546.72,-107.5"/>
</g>
<!-- Node37 -->
<g id="node37" class="node">
<title>Node37</title>
<g id="a_node37"><a xlink:href="classInterfaceReaction.html" target="_top" xlink:title="Implements a reaction to establish ReactionRate=k_f*u&#45;k_b*v at interface.">
<polygon fill="white" stroke="#666666" points="1723,-78 1598,-78 1598,-48 1723,-48 1723,-78"/>
<text text-anchor="start" x="1606" y="-66" font-family="Courier,monospace" font-size="10.00">InterfaceReaction&lt;</text>
<text text-anchor="middle" x="1660.5" y="-55" font-family="Courier,monospace" font-size="10.00"> Real &gt;</text>
</a>
</g>
</g>
<!-- Node1&#45;&gt;Node37 -->
<g id="edge36" class="edge">
<title>Node1&#45;&gt;Node37</title>
<path fill="none" stroke="#63b8ff" d="M1506.56,-98.46C1534.54,-91.98 1568.81,-84.03 1597.82,-77.3"/>
<polygon fill="#63b8ff" stroke="#63b8ff" points="1505.82,-95.04 1496.86,-100.71 1507.4,-101.86 1505.82,-95.04"/>
</g>
<!-- Node38 -->
<g id="node38" class="node">
<title>Node38</title>
<g id="a_node38"><a xlink:href="classInterfaceTimeKernel.html" target="_top" xlink:title="InterfaceTimeKernel is responsible for adding time derivative contributions for physics across interf...">
<polygon fill="white" stroke="#666666" points="1726,-30 1595,-30 1595,0 1726,0 1726,-30"/>
<text text-anchor="start" x="1603" y="-18" font-family="Courier,monospace" font-size="10.00">InterfaceTimeKernel</text>
<text text-anchor="middle" x="1660.5" y="-7" font-family="Courier,monospace" font-size="10.00">&lt; Real &gt;</text>
</a>
</g>
</g>
<!-- Node1&#45;&gt;Node38 -->
<g id="edge37" class="edge">
<title>Node1&#45;&gt;Node38</title>
<path fill="none" stroke="#63b8ff" d="M1475.32,-94.45C1498.44,-78.34 1535.74,-54.13 1571,-39 1578.61,-35.74 1586.78,-32.81 1594.96,-30.21"/>
<polygon fill="#63b8ff" stroke="#63b8ff" points="1473.42,-91.51 1467.27,-100.14 1477.46,-97.22 1473.42,-91.51"/>
</g>
<!-- Node2 -->
<g id="node2" class="node">
<title>Node2</title>
<g id="a_node2"><a xlink:href="classInterfaceKernelBase.html" target="_top" xlink:title="InterfaceKernelBase is the base class for all InterfaceKernel type classes.">
<polygon fill="white" stroke="#666666" points="1284,-157.5 1153,-157.5 1153,-138.5 1284,-138.5 1284,-157.5"/>
<text text-anchor="middle" x="1218.5" y="-145.5" font-family="Courier,monospace" font-size="10.00">InterfaceKernelBase</text>
</a>
</g>
</g>
<!-- Node2&#45;&gt;Node1 -->
<g id="edge1" class="edge">
<title>Node2&#45;&gt;Node1</title>
<path fill="none" stroke="#63b8ff" d="M1292.79,-136.26C1323.47,-131.35 1358.77,-125.69 1388.18,-120.98"/>
<polygon fill="#63b8ff" stroke="#63b8ff" points="1292.52,-132.76 1283.2,-137.8 1293.63,-139.67 1292.52,-132.76"/>
</g>
<!-- Node3 -->
<g id="node3" class="node">
<title>Node3</title>
<g id="a_node3"><a xlink:href="classNeighborResidualObject.html" target="_top" xlink:title="This is a base class for objects that can provide residual contributions for both local and neighbor ...">
<polygon fill="white" stroke="#666666" points="1042,-330.5 893,-330.5 893,-311.5 1042,-311.5 1042,-330.5"/>
<text text-anchor="middle" x="967.5" y="-318.5" font-family="Courier,monospace" font-size="10.00">NeighborResidualObject</text>
</a>
</g>
</g>
<!-- Node3&#45;&gt;Node2 -->
<g id="edge2" class="edge">
<title>Node3&#45;&gt;Node2</title>
<path fill="none" stroke="#63b8ff" d="M991.8,-304.81C1042.6,-269.52 1162.06,-186.52 1203.25,-157.9"/>
<polygon fill="#63b8ff" stroke="#63b8ff" points="990.06,-301.76 983.84,-310.34 994.05,-307.51 990.06,-301.76"/>
</g>
<!-- Node4 -->
<g id="node4" class="node">
<title>Node4</title>
<g id="a_node4"><a xlink:href="classResidualObject.html" target="_top" xlink:title="This is the common base class for objects that give residual contributions.">
<polygon fill="white" stroke="#666666" points="776,-365.5 675,-365.5 675,-346.5 776,-346.5 776,-365.5"/>
<text text-anchor="middle" x="725.5" y="-353.5" font-family="Courier,monospace" font-size="10.00">ResidualObject</text>
</a>
</g>
</g>
<!-- Node4&#45;&gt;Node3 -->
<g id="edge3" class="edge">
<title>Node4&#45;&gt;Node3</title>
<path fill="none" stroke="#63b8ff" d="M787.34,-347.13C821.13,-342.2 863.26,-336.06 898.18,-330.96"/>
<polygon fill="#63b8ff" stroke="#63b8ff" points="787.12,-343.62 777.73,-348.53 788.13,-350.55 787.12,-343.62"/>
</g>
<!-- Node5 -->
<g id="node5" class="node">
<title>Node5</title>
<g id="a_node5"><a xlink:href="classMooseObject.html" target="_top" xlink:title="Every object that can be built by the factory should be derived from this class.">
<polygon fill="white" stroke="#666666" points="534,-569.5 451,-569.5 451,-550.5 534,-550.5 534,-569.5"/>
<text text-anchor="middle" x="492.5" y="-557.5" font-family="Courier,monospace" font-size="10.00">MooseObject</text>
</a>
</g>
</g>
<!-- Node5&#45;&gt;Node4 -->
<g id="edge4" class="edge">
<title>Node5&#45;&gt;Node4</title>
<path fill="none" stroke="#63b8ff" d="M545.39,-556.52C559.03,-553.86 573.22,-549.4 585,-542 658.15,-496.06 706.48,-396.95 720.37,-365.67"/>
<polygon fill="#63b8ff" stroke="#63b8ff" points="544.92,-553.05 535.61,-558.11 546.05,-559.96 544.92,-553.05"/>
</g>
<!-- Node6 -->
<g id="node6" class="node">
<title>Node6</title>
<g id="a_node6"><a xlink:href="classMooseBase.html" target="_top" xlink:title="Base class for everything in MOOSE with a name and a type.">
<polygon fill="white" stroke="#666666" points="310,-643.5 239,-643.5 239,-624.5 310,-624.5 310,-643.5"/>
<text text-anchor="middle" x="274.5" y="-631.5" font-family="Courier,monospace" font-size="10.00">MooseBase</text>
</a>
</g>
</g>
<!-- Node6&#45;&gt;Node5 -->
<g id="edge5" class="edge">
<title>Node6&#45;&gt;Node5</title>
<path fill="none" stroke="#63b8ff" d="M321.62,-626.55C335.41,-623.81 350.46,-620.3 364,-616 403.87,-603.35 448.08,-582.22 472.56,-569.85"/>
<polygon fill="#63b8ff" stroke="#63b8ff" points="321.06,-623.09 311.89,-628.39 322.36,-629.97 321.06,-623.09"/>
</g>
<!-- Node7 -->
<g id="node7" class="node">
<title>Node7</title>
<g id="a_node7"><a xlink:href="classMooseBaseParameterInterface.html" target="_top" xlink:title="Every object that can be built by the factory should be derived from this class.">
<polygon fill="white" stroke="#666666" points="364,-606.5 185,-606.5 185,-587.5 364,-587.5 364,-606.5"/>
<text text-anchor="middle" x="274.5" y="-594.5" font-family="Courier,monospace" font-size="10.00">MooseBaseParameterInterface</text>
</a>
</g>
</g>
<!-- Node7&#45;&gt;Node5 -->
<g id="edge6" class="edge">
<title>Node7&#45;&gt;Node5</title>
<path fill="none" stroke="#63b8ff" d="M344.77,-585.13C379.7,-579.15 420.85,-572.1 450.68,-566.99"/>
<polygon fill="#63b8ff" stroke="#63b8ff" points="344.43,-581.64 335.16,-586.78 345.61,-588.54 344.43,-581.64"/>
</g>
<!-- Node8 -->
<g id="node8" class="node">
<title>Node8</title>
<g id="a_node8"><a xlink:href="classMooseBaseErrorInterface.html" target="_top" xlink:title="Interface that provides APIs to output errors/warnings/info messages.">
<polygon fill="white" stroke="#666666" points="352,-569.5 197,-569.5 197,-550.5 352,-550.5 352,-569.5"/>
<text text-anchor="middle" x="274.5" y="-557.5" font-family="Courier,monospace" font-size="10.00">MooseBaseErrorInterface</text>
</a>
</g>
</g>
<!-- Node8&#45;&gt;Node5 -->
<g id="edge7" class="edge">
<title>Node8&#45;&gt;Node5</title>
<path fill="none" stroke="#63b8ff" d="M363.7,-560C393.87,-560 426.17,-560 450.75,-560"/>
<polygon fill="#63b8ff" stroke="#63b8ff" points="363.78,-556.5 353.78,-560 363.78,-563.5 363.78,-556.5"/>
</g>
<!-- Node9 -->
<g id="node9" class="node">
<title>Node9</title>
<g id="a_node9"><a xlink:href="classConsoleStreamInterface.html" target="_top" xlink:title="An inteface for the _console for outputting to the Console object.">
<polygon fill="white" stroke="#666666" points="149,-569.5 0,-569.5 0,-550.5 149,-550.5 149,-569.5"/>
<text text-anchor="middle" x="74.5" y="-557.5" font-family="Courier,monospace" font-size="10.00">ConsoleStreamInterface</text>
</a>
</g>
</g>
<!-- Node9&#45;&gt;Node8 -->
<g id="edge8" class="edge">
<title>Node9&#45;&gt;Node8</title>
<path fill="none" stroke="#63b8ff" d="M160.62,-560C172.62,-560 184.9,-560 196.73,-560"/>
<polygon fill="#63b8ff" stroke="#63b8ff" points="160.74,-556.5 150.74,-560 160.74,-563.5 160.74,-556.5"/>
</g>
<!-- Node10 -->
<g id="node10" class="node">
<title>Node10</title>
<g id="a_node10"><a xlink:title=" ">
<polygon fill="white" stroke="#666666" points="352,-532.5 197,-532.5 197,-513.5 352,-513.5 352,-532.5"/>
<text text-anchor="middle" x="274.5" y="-520.5" font-family="Courier,monospace" font-size="10.00">libMesh::ParallelObject</text>
</a>
</g>
</g>
<!-- Node10&#45;&gt;Node5 -->
<g id="edge9" class="edge">
<title>Node10&#45;&gt;Node5</title>
<path fill="none" stroke="#63b8ff" d="M344.77,-534.87C379.7,-540.85 420.85,-547.9 450.68,-553.01"/>
<polygon fill="#63b8ff" stroke="#63b8ff" points="345.61,-531.46 335.16,-533.22 344.43,-538.36 345.61,-531.46"/>
</g>
<!-- Node11 -->
<g id="node11" class="node">
<title>Node11</title>
<g id="a_node11"><a xlink:href="classDataFileInterface.html" target="_top" xlink:title=" ">
<polygon fill="white" stroke="#666666" points="337,-495 212,-495 212,-465 337,-465 337,-495"/>
<text text-anchor="start" x="220" y="-483" font-family="Courier,monospace" font-size="10.00">DataFileInterface&lt;</text>
<text text-anchor="middle" x="274.5" y="-472" font-family="Courier,monospace" font-size="10.00"> MooseObject &gt;</text>
</a>
</g>
</g>
<!-- Node11&#45;&gt;Node5 -->
<g id="edge10" class="edge">
<title>Node11&#45;&gt;Node5</title>
<path fill="none" stroke="#63b8ff" d="M347.62,-496.85C353.32,-499.23 358.86,-501.94 364,-505 383.71,-516.74 379.83,-531.07 400,-542 415.37,-550.33 434.06,-554.84 450.53,-557.26"/>
<polygon fill="#63b8ff" stroke="#63b8ff" points="349.23,-493.72 338.64,-493.44 346.74,-500.26 349.23,-493.72"/>
</g>
<!-- Node12 -->
<g id="node12" class="node">
<title>Node12</title>
<g id="a_node12"><a xlink:href="classSetupInterface.html" target="_top" xlink:title=" ">
<polygon fill="white" stroke="#666666" points="543,-532.5 442,-532.5 442,-513.5 543,-513.5 543,-532.5"/>
<text text-anchor="middle" x="492.5" y="-520.5" font-family="Courier,monospace" font-size="10.00">SetupInterface</text>
</a>
</g>
</g>
<!-- Node12&#45;&gt;Node4 -->
<g id="edge11" class="edge">
<title>Node12&#45;&gt;Node4</title>
<path fill="none" stroke="#63b8ff" d="M554.42,-516.54C565.03,-513.89 575.65,-510.19 585,-505 649.46,-469.26 701.26,-393.23 718.42,-365.98"/>
<polygon fill="#63b8ff" stroke="#63b8ff" points="553.93,-513.07 544.9,-518.61 555.42,-519.91 553.93,-513.07"/>
</g>
<!-- Node13 -->
<g id="node13" class="node">
<title>Node13</title>
<g id="a_node13"><a xlink:href="classFunctionInterface.html" target="_top" xlink:title="Interface for objects that need to use functions.">
<polygon fill="white" stroke="#666666" points="552,-495.5 433,-495.5 433,-476.5 552,-476.5 552,-495.5"/>
<text text-anchor="middle" x="492.5" y="-483.5" font-family="Courier,monospace" font-size="10.00">FunctionInterface</text>
</a>
</g>
</g>
<!-- Node13&#45;&gt;Node4 -->
<g id="edge12" class="edge">
<title>Node13&#45;&gt;Node4</title>
<path fill="none" stroke="#63b8ff" d="M563.39,-475.93C570.85,-473.77 578.19,-471.17 585,-468 641.32,-441.8 694.79,-388.18 715.48,-365.97"/>
<polygon fill="#63b8ff" stroke="#63b8ff" points="562.7,-472.49 553.89,-478.38 564.45,-479.27 562.7,-472.49"/>
</g>
<!-- Node14 -->
<g id="node14" class="node">
<title>Node14</title>
<g id="a_node14"><a xlink:href="classUserObjectInterface.html" target="_top" xlink:title="Interface for objects that need to use UserObjects.">
<polygon fill="white" stroke="#666666" points="558,-458.5 427,-458.5 427,-439.5 558,-439.5 558,-458.5"/>
<text text-anchor="middle" x="492.5" y="-446.5" font-family="Courier,monospace" font-size="10.00">UserObjectInterface</text>
</a>
</g>
</g>
<!-- Node14&#45;&gt;Node4 -->
<g id="edge13" class="edge">
<title>Node14&#45;&gt;Node4</title>
<path fill="none" stroke="#63b8ff" d="M568.24,-436.23C573.97,-434.67 579.61,-432.93 585,-431 633.15,-413.76 684.97,-381.98 709.71,-365.89"/>
<polygon fill="#63b8ff" stroke="#63b8ff" points="567.48,-432.82 558.64,-438.66 569.19,-439.6 567.48,-432.82"/>
</g>
<!-- Node15 -->
<g id="node15" class="node">
<title>Node15</title>
<g id="a_node15"><a xlink:href="classTransientInterface.html" target="_top" xlink:title="Interface for objects that needs transient capabilities.">
<polygon fill="white" stroke="#666666" points="555,-421.5 430,-421.5 430,-402.5 555,-402.5 555,-421.5"/>
<text text-anchor="middle" x="492.5" y="-409.5" font-family="Courier,monospace" font-size="10.00">TransientInterface</text>
</a>
</g>
</g>
<!-- Node15&#45;&gt;Node4 -->
<g id="edge14" class="edge">
<title>Node15&#45;&gt;Node4</title>
<path fill="none" stroke="#63b8ff" d="M558.53,-399.8C567.45,-397.96 576.47,-396 585,-394 621.29,-385.5 662.42,-374.07 690.56,-365.98"/>
<polygon fill="#63b8ff" stroke="#63b8ff" points="557.93,-396.35 548.83,-401.77 559.32,-403.21 557.93,-396.35"/>
</g>
<!-- Node16 -->
<g id="node16" class="node">
<title>Node16</title>
<g id="a_node16"><a xlink:href="classPostprocessorInterface.html" target="_top" xlink:title="Interface class for classes which interact with Postprocessors.">
<polygon fill="white" stroke="#666666" points="567,-384.5 418,-384.5 418,-365.5 567,-365.5 567,-384.5"/>
<text text-anchor="middle" x="492.5" y="-372.5" font-family="Courier,monospace" font-size="10.00">PostprocessorInterface</text>
</a>
</g>
</g>
<!-- Node16&#45;&gt;Node4 -->
<g id="edge15" class="edge">
<title>Node16&#45;&gt;Node4</title>
<path fill="none" stroke="#63b8ff" d="M578.52,-368.01C610.9,-365.34 646.73,-362.4 674.79,-360.09"/>
<polygon fill="#63b8ff" stroke="#63b8ff" points="578.41,-364.5 568.73,-368.81 578.99,-371.48 578.41,-364.5"/>
</g>
<!-- Node17 -->
<g id="node17" class="node">
<title>Node17</title>
<g id="a_node17"><a xlink:href="classVectorPostprocessorInterface.html" target="_top" xlink:title=" ">
<polygon fill="white" stroke="#666666" points="585,-347.5 400,-347.5 400,-328.5 585,-328.5 585,-347.5"/>
<text text-anchor="middle" x="492.5" y="-335.5" font-family="Courier,monospace" font-size="10.00">VectorPostprocessorInterface</text>
</a>
</g>
</g>
<!-- Node17&#45;&gt;Node4 -->
<g id="edge16" class="edge">
<title>Node17&#45;&gt;Node4</title>
<path fill="none" stroke="#63b8ff" d="M596.61,-346.03C623.74,-348.15 651.79,-350.33 674.69,-352.12"/>
<polygon fill="#63b8ff" stroke="#63b8ff" points="597.21,-342.57 586.97,-345.28 596.67,-349.55 597.21,-342.57"/>
</g>
<!-- Node18 -->
<g id="node18" class="node">
<title>Node18</title>
<g id="a_node18"><a xlink:href="classRandomInterface.html" target="_top" xlink:title="Interface for objects that need parallel consistent random numbers without patterns over the course o...">
<polygon fill="white" stroke="#666666" points="546,-310.5 439,-310.5 439,-291.5 546,-291.5 546,-310.5"/>
<text text-anchor="middle" x="492.5" y="-298.5" font-family="Courier,monospace" font-size="10.00">RandomInterface</text>
</a>
</g>
</g>
<!-- Node18&#45;&gt;Node4 -->
<g id="edge17" class="edge">
<title>Node18&#45;&gt;Node4</title>
<path fill="none" stroke="#63b8ff" d="M554.41,-313.22C564.64,-315.4 575.14,-317.7 585,-320 620.08,-328.16 659.83,-338.53 687.9,-346.05"/>
<polygon fill="#63b8ff" stroke="#63b8ff" points="555.44,-309.86 544.94,-311.23 554.01,-316.72 555.44,-309.86"/>
</g>
<!-- Node19 -->
<g id="node19" class="node">
<title>Node19</title>
<g id="a_node19"><a xlink:href="classRestartable.html" target="_top" xlink:title="A class for creating restricted objects.">
<polygon fill="white" stroke="#666666" points="534,-273.5 451,-273.5 451,-254.5 534,-254.5 534,-273.5"/>
<text text-anchor="middle" x="492.5" y="-261.5" font-family="Courier,monospace" font-size="10.00">Restartable</text>
</a>
</g>
</g>
<!-- Node19&#45;&gt;Node4 -->
<g id="edge18" class="edge">
<title>Node19&#45;&gt;Node4</title>
<path fill="none" stroke="#63b8ff" d="M545.5,-272.19C558.59,-274.96 572.48,-278.52 585,-283 632.62,-300.03 684.26,-330.57 709.25,-346.2"/>
<polygon fill="#63b8ff" stroke="#63b8ff" points="546.22,-268.77 535.73,-270.26 544.86,-275.64 546.22,-268.77"/>
</g>
<!-- Node20 -->
<g id="node20" class="node">
<title>Node20</title>
<g id="a_node20"><a xlink:href="classMeshChangedInterface.html" target="_top" xlink:title="Interface for notifications that the mesh has changed.">
<polygon fill="white" stroke="#666666" points="561,-236.5 424,-236.5 424,-217.5 561,-217.5 561,-236.5"/>
<text text-anchor="middle" x="492.5" y="-224.5" font-family="Courier,monospace" font-size="10.00">MeshChangedInterface</text>
</a>
</g>
</g>
<!-- Node20&#45;&gt;Node4 -->
<g id="edge19" class="edge">
<title>Node20&#45;&gt;Node4</title>
<path fill="none" stroke="#63b8ff" d="M570.63,-240.27C575.58,-241.96 580.41,-243.86 585,-246 640.91,-272.06 694.6,-324.54 715.42,-346.25"/>
<polygon fill="#63b8ff" stroke="#63b8ff" points="571.71,-236.94 561.12,-237.35 569.65,-243.63 571.71,-236.94"/>
</g>
<!-- Node21 -->
<g id="node21" class="node">
<title>Node21</title>
<g id="a_node21"><a xlink:href="classTaggingInterface.html" target="_top" xlink:title=" ">
<polygon fill="white" stroke="#666666" points="549,-199.5 436,-199.5 436,-180.5 549,-180.5 549,-199.5"/>
<text text-anchor="middle" x="492.5" y="-187.5" font-family="Courier,monospace" font-size="10.00">TaggingInterface</text>
</a>
</g>
</g>
<!-- Node21&#45;&gt;Node4 -->
<g id="edge20" class="edge">
<title>Node21&#45;&gt;Node4</title>
<path fill="none" stroke="#63b8ff" d="M560.14,-198.84C568.81,-201.41 577.33,-204.73 585,-209 648.93,-244.61 701.07,-319.4 718.37,-346.19"/>
<polygon fill="#63b8ff" stroke="#63b8ff" points="561.16,-195.49 550.6,-196.34 559.39,-202.26 561.16,-195.49"/>
</g>
<!-- Node22 -->
<g id="node22" class="node">
<title>Node22</title>
<g id="a_node22"><a xlink:href="classBoundaryRestrictable.html" target="_top" xlink:title="/class BoundaryRestrictable /brief Provides functionality for limiting the object to certain boundary...">
<polygon fill="white" stroke="#666666" points="1036,-222.5 899,-222.5 899,-203.5 1036,-203.5 1036,-222.5"/>
<text text-anchor="middle" x="967.5" y="-210.5" font-family="Courier,monospace" font-size="10.00">BoundaryRestrictable</text>
</a>
</g>
</g>
<!-- Node22&#45;&gt;Node2 -->
<g id="edge21" class="edge">
<title>Node22&#45;&gt;Node2</title>
<path fill="none" stroke="#63b8ff" d="M1038.51,-200.82C1048.78,-198.73 1059.19,-196.44 1069,-194 1111.17,-183.52 1159.03,-168.03 1188.75,-157.97"/>
<polygon fill="#63b8ff" stroke="#63b8ff" points="1038.08,-197.34 1028.95,-202.72 1039.44,-204.21 1038.08,-197.34"/>
</g>
<!-- Node23 -->
<g id="node23" class="node">
<title>Node23</title>
<g id="a_node23"><a xlink:href="classNeighborCoupleableMooseVariableDependencyIntermediateInterface.html" target="_top" xlink:title="Intermediate base class that ties together all the interfaces for getting MooseVariables with the Moo...">
<polygon fill="white" stroke="#666666" points="1069,-185 866,-185 866,-155 1069,-155 1069,-185"/>
<text text-anchor="start" x="874" y="-173" font-family="Courier,monospace" font-size="10.00">NeighborCoupleableMooseVariable</text>
<text text-anchor="middle" x="967.5" y="-162" font-family="Courier,monospace" font-size="10.00">DependencyIntermediateInterface</text>
</a>
</g>
</g>
<!-- Node23&#45;&gt;Node2 -->
<g id="edge22" class="edge">
<title>Node23&#45;&gt;Node2</title>
<path fill="none" stroke="#63b8ff" d="M1080.66,-160.09C1105.27,-157.92 1130.53,-155.68 1152.54,-153.74"/>
<polygon fill="#63b8ff" stroke="#63b8ff" points="1080.58,-156.58 1070.93,-160.95 1081.2,-163.56 1080.58,-156.58"/>
</g>
<!-- Node24 -->
<g id="node24" class="node">
<title>Node24</title>
<g id="a_node24"><a xlink:href="classNeighborCoupleable.html" target="_top" xlink:title="Enhances Coupleable interface to also couple the values from neighbor elements.">
<polygon fill="white" stroke="#666666" points="788,-216.5 663,-216.5 663,-197.5 788,-197.5 788,-216.5"/>
<text text-anchor="middle" x="725.5" y="-204.5" font-family="Courier,monospace" font-size="10.00">NeighborCoupleable</text>
</a>
</g>
</g>
<!-- Node24&#45;&gt;Node23 -->
<g id="edge23" class="edge">
<title>Node24&#45;&gt;Node23</title>
<path fill="none" stroke="#63b8ff" d="M799.42,-195.76C820.48,-192.51 843.85,-188.91 866.26,-185.45"/>
<polygon fill="#63b8ff" stroke="#63b8ff" points="799.15,-192.26 789.8,-197.24 800.22,-199.18 799.15,-192.26"/>
</g>
<!-- Node25 -->
<g id="node25" class="node">
<title>Node25</title>
<g id="a_node25"><a xlink:href="classCoupleable.html" target="_top" xlink:title="Interface for objects that needs coupling capabilities.">
<polygon fill="white" stroke="#666666" points="531,-162.5 454,-162.5 454,-143.5 531,-143.5 531,-162.5"/>
<text text-anchor="middle" x="492.5" y="-150.5" font-family="Courier,monospace" font-size="10.00">Coupleable</text>
</a>
</g>
</g>
<!-- Node25&#45;&gt;Node24 -->
<g id="edge24" class="edge">
<title>Node25&#45;&gt;Node24</title>
<path fill="none" stroke="#63b8ff" d="M542.33,-160.92C556.29,-163.78 571.4,-167.45 585,-172 601.78,-177.62 604.13,-183.66 621,-189 634.21,-193.18 648.7,-196.47 662.55,-199.02"/>
<polygon fill="#63b8ff" stroke="#63b8ff" points="543.4,-157.56 532.91,-159.09 542.06,-164.43 543.4,-157.56"/>
</g>
<!-- Node26 -->
<g id="node26" class="node">
<title>Node26</title>
<g id="a_node26"><a xlink:href="classScalarCoupleable.html" target="_top" xlink:title="Interface for objects that needs scalar coupling capabilities.">
<polygon fill="white" stroke="#666666" points="782,-179.5 669,-179.5 669,-160.5 782,-160.5 782,-179.5"/>
<text text-anchor="middle" x="725.5" y="-167.5" font-family="Courier,monospace" font-size="10.00">ScalarCoupleable</text>
</a>
</g>
</g>
<!-- Node26&#45;&gt;Node23 -->
<g id="edge25" class="edge">
<title>Node26&#45;&gt;Node23</title>
<path fill="none" stroke="#63b8ff" d="M793.83,-170C816.12,-170 841.44,-170 865.68,-170"/>
<polygon fill="#63b8ff" stroke="#63b8ff" points="793.98,-166.5 783.98,-170 793.98,-173.5 793.98,-166.5"/>
</g>
<!-- Node27 -->
<g id="node27" class="node">
<title>Node27</title>
<g id="a_node27"><a xlink:href="classMooseVariableDependencyInterface.html" target="_top" xlink:title=" ">
<polygon fill="white" stroke="#666666" points="830,-142.5 621,-142.5 621,-123.5 830,-123.5 830,-142.5"/>
<text text-anchor="middle" x="725.5" y="-130.5" font-family="Courier,monospace" font-size="10.00">MooseVariableDependencyInterface</text>
</a>
</g>
</g>
<!-- Node27&#45;&gt;Node23 -->
<g id="edge26" class="edge">
<title>Node27&#45;&gt;Node23</title>
<path fill="none" stroke="#63b8ff" d="M802.45,-144.71C822.65,-147.82 844.77,-151.23 866.06,-154.51"/>
<polygon fill="#63b8ff" stroke="#63b8ff" points="803.04,-141.26 792.63,-143.19 801.98,-148.18 803.04,-141.26"/>
</g>
<!-- Node28 -->
<g id="node28" class="node">
<title>Node28</title>
<g id="a_node28"><a xlink:href="classTwoMaterialPropertyInterface.html" target="_top" xlink:title="This interface is designed for DGKernel, InternalSideUserObject, InterfaceUserObject,...">
<polygon fill="white" stroke="#666666" points="1060,-136.5 875,-136.5 875,-117.5 1060,-117.5 1060,-136.5"/>
<text text-anchor="middle" x="967.5" y="-124.5" font-family="Courier,monospace" font-size="10.00">TwoMaterialPropertyInterface</text>
</a>
</g>
</g>
<!-- Node28&#45;&gt;Node2 -->
<g id="edge27" class="edge">
<title>Node28&#45;&gt;Node2</title>
<path fill="none" stroke="#63b8ff" d="M1071.45,-135.68C1099.02,-138.01 1128.03,-140.45 1152.88,-142.55"/>
<polygon fill="#63b8ff" stroke="#63b8ff" points="1071.92,-132.21 1061.67,-134.86 1071.34,-139.19 1071.92,-132.21"/>
</g>
<!-- Node29 -->
<g id="node29" class="node">
<title>Node29</title>
<g id="a_node29"><a xlink:href="classMaterialPropertyInterface.html" target="_top" xlink:title="An interface for accessing Materials.">
<polygon fill="white" stroke="#666666" points="809,-105.5 642,-105.5 642,-86.5 809,-86.5 809,-105.5"/>
<text text-anchor="middle" x="725.5" y="-93.5" font-family="Courier,monospace" font-size="10.00">MaterialPropertyInterface</text>
</a>
</g>
</g>
<!-- Node29&#45;&gt;Node28 -->
<g id="edge28" class="edge">
<title>Node29&#45;&gt;Node28</title>
<path fill="none" stroke="#63b8ff" d="M815.17,-107.45C839.53,-110.6 865.74,-113.98 889.39,-117.04"/>
<polygon fill="#63b8ff" stroke="#63b8ff" points="815.63,-103.98 805.26,-106.17 814.73,-110.93 815.63,-103.98"/>
</g>
<!-- Node30 -->
<g id="node30" class="node">
<title>Node30</title>
<g id="a_node30"><a xlink:href="classElementIDInterface.html" target="_top" xlink:title=" ">
<polygon fill="white" stroke="#666666" points="1030,-99.5 905,-99.5 905,-80.5 1030,-80.5 1030,-99.5"/>
<text text-anchor="middle" x="967.5" y="-87.5" font-family="Courier,monospace" font-size="10.00">ElementIDInterface</text>
</a>
</g>
</g>
<!-- Node30&#45;&gt;Node2 -->
<g id="edge29" class="edge">
<title>Node30&#45;&gt;Node2</title>
<path fill="none" stroke="#63b8ff" d="M1036.28,-102.14C1047.25,-104.3 1058.46,-106.62 1069,-109 1108,-117.8 1152.28,-129.67 1182.27,-138"/>
<polygon fill="#63b8ff" stroke="#63b8ff" points="1036.95,-98.71 1026.47,-100.25 1035.63,-105.58 1036.95,-98.71"/>
</g>
<!-- Node31 -->
<g id="node31" class="node">
<title>Node31</title>
<g id="a_node31"><a xlink:href="classNeighborMooseVariableInterface.html" target="_top" xlink:title="Enhances MooseVariableInterface interface provide values from neighbor elements.">
<polygon fill="white" stroke="#666666" points="1332,-102.5 1105,-102.5 1105,-83.5 1332,-83.5 1332,-102.5"/>
<text text-anchor="middle" x="1218.5" y="-90.5" font-family="Courier,monospace" font-size="10.00">NeighborMooseVariableInterface&lt; T &gt;</text>
</a>
</g>
</g>
<!-- Node31&#45;&gt;Node1 -->
<g id="edge30" class="edge">
<title>Node31&#45;&gt;Node1</title>
<path fill="none" stroke="#63b8ff" d="M1343.73,-102.68C1351.81,-103.31 1359.83,-103.93 1367.63,-104.54"/>
<polygon fill="#63b8ff" stroke="#63b8ff" points="1344.04,-99.19 1333.8,-101.91 1343.5,-106.17 1344.04,-99.19"/>
</g>
<!-- Node32 -->
<g id="node32" class="node">
<title>Node32</title>
<g id="a_node32"><a xlink:href="classMooseVariableInterface.html" target="_top" xlink:title="Interface for objects that need to get values of MooseVariables.">
<polygon fill="white" stroke="#666666" points="1057,-62.5 878,-62.5 878,-43.5 1057,-43.5 1057,-62.5"/>
<text text-anchor="middle" x="967.5" y="-50.5" font-family="Courier,monospace" font-size="10.00">MooseVariableInterface&lt; T &gt;</text>
</a>
</g>
</g>
<!-- Node32&#45;&gt;Node31 -->
<g id="edge31" class="edge">
<title>Node32&#45;&gt;Node31</title>
<path fill="none" stroke="#63b8ff" d="M1041.69,-64.76C1077.9,-70.57 1121.14,-77.52 1155.67,-83.07"/>
<polygon fill="#63b8ff" stroke="#63b8ff" points="1042.61,-61.36 1032.19,-63.23 1041.5,-68.27 1042.61,-61.36"/>
</g>
<!-- Node34 -->
<g id="node34" class="node">
<title>Node34</title>
<g id="a_node34"><a xlink:href="classPenaltyInterfaceDiffusionTempl.html" target="_top" xlink:title="Interface kernel for interfacing diffusion between two variables on adjacent blocks.">
<polygon fill="white" stroke="#666666" points="1953,-222 1786,-222 1786,-192 1953,-192 1953,-222"/>
<text text-anchor="start" x="1794" y="-210" font-family="Courier,monospace" font-size="10.00">PenaltyInterfaceDiffusion</text>
<text text-anchor="middle" x="1869.5" y="-199" font-family="Courier,monospace" font-size="10.00">Templ&lt; T, is_ad &gt;</text>
</a>
</g>
</g>
<!-- Node33&#45;&gt;Node34 -->
<g id="edge33" class="edge">
<title>Node33&#45;&gt;Node34</title>
<path fill="none" stroke="#63b8ff" d="M1761.81,-207C1769.85,-207 1777.91,-207 1785.81,-207"/>
<polygon fill="#63b8ff" stroke="#63b8ff" points="1762,-203.5 1752,-207 1762,-210.5 1762,-203.5"/>
</g>
</g>
</svg>
        <g id="navigator" transform="translate(0 0)" fill="#404254">
                <rect fill="#f2f5e9" fill-opacity="0.5" stroke="#606060" stroke-width=".5" x="0" y="0" width="60" height="60"/>
                <use id="zoomplus" xlink:href="#zoomPlus" x="17" y="9" onmousedown="handleZoom(evt,'in')"/>
                <use id="zoomminus" xlink:href="#zoomMin" x="42" y="9" onmousedown="handleZoom(evt,'out')"/>
                <use id="reset" xlink:href="#resetDef" x="30" y="36" onmousedown="handleReset()"/>
                <g id="arrowUp" xlink:href="#dirArrow" transform="translate(30 24)" onmousedown="handlePan(0,-1)">
                  <use xlink:href="#rim" fill="#404040">
                        <set attributeName="fill" to="#808080" begin="arrowUp.mouseover" end="arrowUp.mouseout"/>
                  </use>
                  <path fill="none" stroke="white" stroke-width="1.5" d="M0,-3.0v7 M-2.5,-0.5L0,-3.0L2.5,-0.5"/>
                </g>
                <g id="arrowRight" xlink:href="#dirArrow" transform="rotate(90) translate(36 -43)" onmousedown="handlePan(1,0)">
                  <use xlink:href="#rim" fill="#404040">
                        <set attributeName="fill" to="#808080" begin="arrowRight.mouseover" end="arrowRight.mouseout"/>
                  </use>
                  <path fill="none" stroke="white" stroke-width="1.5" d="M0,-3.0v7 M-2.5,-0.5L0,-3.0L2.5,-0.5"/>
                </g>
                <g id="arrowDown" xlink:href="#dirArrow" transform="rotate(180) translate(-30 -48)" onmousedown="handlePan(0,1)">
                  <use xlink:href="#rim" fill="#404040">
                        <set attributeName="fill" to="#808080" begin="arrowDown.mouseover" end="arrowDown.mouseout"/>
                  </use>
                  <path fill="none" stroke="white" stroke-width="1.5" d="M0,-3.0v7 M-2.5,-0.5L0,-3.0L2.5,-0.5"/>
                </g>
                <g id="arrowLeft" xlink:href="#dirArrow" transform="rotate(270) translate(-36 17)" onmousedown="handlePan(-1,0)">
                  <use xlink:href="#rim" fill="#404040">
                        <set attributeName="fill" to="#808080" begin="arrowLeft.mouseover" end="arrowLeft.mouseout"/>
                  </use>
                  <path fill="none" stroke="white" stroke-width="1.5" d="M0,-3.0v7 M-2.5,-0.5L0,-3.0L2.5,-0.5"/>
                </g>
        </g>
        <svg viewBox="0 0 15 15" width="100%" height="30px" preserveAspectRatio="xMaxYMin meet">
         <g id="arrow_out" transform="scale(0.3 0.3)">
          <a xlink:href="classInterfaceKernelTempl__inherit__graph_org.svg" target="_base">
           <rect id="button" ry="5" rx="5" y="6" x="6" height="38" width="38"
                fill="#f2f5e9" fill-opacity="0.5" stroke="#606060" stroke-width="1.0"/>
           <path id="arrow"
             d="M 11.500037,31.436501 C 11.940474,20.09759 22.043105,11.32322 32.158766,21.979434 L 37.068811,17.246167 C 37.068811,17.246167 37.088388,32 37.088388,32 L 22.160133,31.978069 C 22.160133,31.978069 26.997745,27.140456 26.997745,27.140456 C 18.528582,18.264221 13.291696,25.230495 11.500037,31.436501 z"
             style="fill:#404040;"/>
          </a>
         </g>
        </svg>
</svg>
