<?xml version="1.0" encoding="UTF-8" standalone="no"?>
<!DOCTYPE svg PUBLIC "-//W3C//DTD SVG 1.1//EN"
 "http://www.w3.org/Graphics/SVG/1.1/DTD/svg11.dtd">
<!-- Generated by graphviz version 7.0.5 (20221223.1930)
 -->
<!-- Title: MeshDivision Pages: 1 -->
<!--zoomable 286 -->
<svg id="main" version="1.1" xmlns="http://www.w3.org/2000/svg" xmlns:xlink="http://www.w3.org/1999/xlink" xml:space="preserve" onload="init(evt)">
<style type="text/css"><![CDATA[
.edge:hover path { stroke: red; }
.edge:hover polygon { stroke: red; fill: red; }
]]></style>
<script type="text/javascript"><![CDATA[
var edges = document.getElementsByTagName('g');
if (edges && edges.length) {
  for (var i=0;i<edges.length;i++) {
    if (edges[i].id.substr(0,4)=='edge') {
      edges[i].setAttribute('class','edge');
    }
  }
}
]]></script>
        <defs>
                <circle id="rim" cx="0" cy="0" r="7"/>
                <circle id="rim2" cx="0" cy="0" r="3.5"/>
                <g id="zoomPlus">
                        <use xlink:href="#rim" fill="#404040">
                                <set attributeName="fill" to="#808080" begin="zoomplus.mouseover" end="zoomplus.mouseout"/>
                        </use>
                        <path d="M-4,0h8M0,-4v8" fill="none" stroke="white" stroke-width="1.5" pointer-events="none"/>
                </g>
                <g id="zoomMin">
                        <use xlink:href="#rim" fill="#404040">
                                <set attributeName="fill" to="#808080" begin="zoomminus.mouseover" end="zoomminus.mouseout"/>
                        </use>
                        <path d="M-4,0h8" fill="none" stroke="white" stroke-width="1.5" pointer-events="none"/>
                </g>
                <g id="dirArrow">
                        <path fill="none" stroke="white" stroke-width="1.5" d="M0,-3.0v7 M-2.5,-0.5L0,-3.0L2.5,-0.5"/>
                </g>
               <g id="resetDef">
                       <use xlink:href="#rim2" fill="#404040">
                               <set attributeName="fill" to="#808080" begin="reset.mouseover" end="reset.mouseout"/>
                       </use>
               </g>
        </defs>

<script type="text/javascript">
var viewWidth = 885;
var viewHeight = 286;
var sectionId = 'dynsection-0';
</script>
<script xlink:href="svgpan.js"/>
<svg id="graph" class="graph">
<g id="viewport">
<title>MeshDivision</title>
<!-- Node1 -->
<g id="node1" class="node">
<title>Node1</title>
<g id="a_node1"><a xlink:title="Base class for MeshDivision objects.">
<polygon fill="#999999" stroke="#666666" points="662,-148 573,-148 573,-129 662,-129 662,-148"/>
<text text-anchor="middle" x="617.5" y="-136" font-family="Courier,monospace" font-size="10.00">MeshDivision</text>
</a>
</g>
</g>
<!-- Node11 -->
<g id="node11" class="node">
<title>Node11</title>
<g id="a_node11"><a xlink:href="classCartesianGridDivision.html" target="_top" xlink:title="Divides the mesh based on a Cartesian grid.">
<polygon fill="white" stroke="#666666" points="859,-278 716,-278 716,-259 859,-259 859,-278"/>
<text text-anchor="middle" x="787.5" y="-266" font-family="Courier,monospace" font-size="10.00">CartesianGridDivision</text>
</a>
</g>
</g>
<!-- Node1&#45;&gt;Node11 -->
<g id="edge10" class="edge">
<title>Node1&#45;&gt;Node11</title>
<path fill="none" stroke="#63b8ff" d="M627.16,-158.89C639.15,-184.54 663.34,-227.94 698,-250.5 703.52,-254.09 709.61,-256.99 715.93,-259.33"/>
<polygon fill="#63b8ff" stroke="#63b8ff" points="630.41,-157.58 623.13,-149.88 624.01,-160.44 630.41,-157.58"/>
</g>
<!-- Node12 -->
<g id="node12" class="node">
<title>Node12</title>
<g id="a_node12"><a xlink:href="classCylindricalGridDivision.html" target="_top" xlink:title="Divides the mesh based on a cylindrical grid.">
<polygon fill="white" stroke="#666666" points="865,-241 710,-241 710,-222 865,-222 865,-241"/>
<text text-anchor="middle" x="787.5" y="-229" font-family="Courier,monospace" font-size="10.00">CylindricalGridDivision</text>
</a>
</g>
</g>
<!-- Node1&#45;&gt;Node12 -->
<g id="edge11" class="edge">
<title>Node1&#45;&gt;Node12</title>
<path fill="none" stroke="#63b8ff" d="M632.89,-157.06C647.41,-174.43 671.42,-199.72 698,-213.5 704.26,-216.75 711.06,-219.41 718.01,-221.59"/>
<polygon fill="#63b8ff" stroke="#63b8ff" points="635.81,-155.1 626.8,-149.53 630.36,-159.5 635.81,-155.1"/>
</g>
<!-- Node13 -->
<g id="node13" class="node">
<title>Node13</title>
<g id="a_node13"><a xlink:href="classExtraElementIntegerDivision.html" target="_top" xlink:title="Divides the mesh based on the extra element IDs.">
<polygon fill="white" stroke="#666666" points="877,-204 698,-204 698,-185 877,-185 877,-204"/>
<text text-anchor="middle" x="787.5" y="-192" font-family="Courier,monospace" font-size="10.00">ExtraElementIntegerDivision</text>
</a>
</g>
</g>
<!-- Node1&#45;&gt;Node13 -->
<g id="edge12" class="edge">
<title>Node1&#45;&gt;Node13</title>
<path fill="none" stroke="#63b8ff" d="M646.09,-153.75C661.07,-161.5 680.14,-170.52 698,-176.5 707.37,-179.64 717.48,-182.32 727.41,-184.58"/>
<polygon fill="#63b8ff" stroke="#63b8ff" points="647.79,-150.69 637.31,-149.1 644.51,-156.88 647.79,-150.69"/>
</g>
<!-- Node14 -->
<g id="node14" class="node">
<title>Node14</title>
<g id="a_node14"><a xlink:href="classFunctorBinnedValuesDivision.html" target="_top" xlink:title="Divides the mesh based on the binned values of a functor.">
<polygon fill="white" stroke="#666666" points="877,-167 698,-167 698,-148 877,-148 877,-167"/>
<text text-anchor="middle" x="787.5" y="-155" font-family="Courier,monospace" font-size="10.00">FunctorBinnedValuesDivision</text>
</a>
</g>
</g>
<!-- Node1&#45;&gt;Node14 -->
<g id="edge13" class="edge">
<title>Node1&#45;&gt;Node14</title>
<path fill="none" stroke="#63b8ff" d="M673.57,-144.73C681.55,-145.63 689.93,-146.58 698.36,-147.53"/>
<polygon fill="#63b8ff" stroke="#63b8ff" points="674.04,-141.26 663.71,-143.61 673.25,-148.21 674.04,-141.26"/>
</g>
<!-- Node15 -->
<g id="node15" class="node">
<title>Node15</title>
<g id="a_node15"><a xlink:href="classNearestPositionsDivision.html" target="_top" xlink:title="Divides the mesh based on a nearest&#45;neighbor algorithm applied to the positions from a Positions obje...">
<polygon fill="white" stroke="#666666" points="868,-130 707,-130 707,-111 868,-111 868,-130"/>
<text text-anchor="middle" x="787.5" y="-118" font-family="Courier,monospace" font-size="10.00">NearestPositionsDivision</text>
</a>
</g>
</g>
<!-- Node1&#45;&gt;Node15 -->
<g id="edge14" class="edge">
<title>Node1&#45;&gt;Node15</title>
<path fill="none" stroke="#63b8ff" d="M673.4,-132.62C684.01,-131.48 695.33,-130.27 706.56,-129.07"/>
<polygon fill="#63b8ff" stroke="#63b8ff" points="673.28,-129.11 663.71,-133.66 674.02,-136.07 673.28,-129.11"/>
</g>
<!-- Node16 -->
<g id="node16" class="node">
<title>Node16</title>
<g id="a_node16"><a xlink:href="classNestedDivision.html" target="_top" xlink:title="Divides the mesh based on nested divisions.">
<polygon fill="white" stroke="#666666" points="838,-93 737,-93 737,-74 838,-74 838,-93"/>
<text text-anchor="middle" x="787.5" y="-81" font-family="Courier,monospace" font-size="10.00">NestedDivision</text>
</a>
</g>
</g>
<!-- Node1&#45;&gt;Node16 -->
<g id="edge15" class="edge">
<title>Node1&#45;&gt;Node16</title>
<path fill="none" stroke="#63b8ff" d="M646.72,-123.38C661.63,-115.91 680.43,-107.29 698,-101.5 710.36,-97.43 724.01,-94.11 736.81,-91.47"/>
<polygon fill="#63b8ff" stroke="#63b8ff" points="645.28,-120.19 637.98,-127.87 648.47,-126.42 645.28,-120.19"/>
</g>
<!-- Node17 -->
<g id="node17" class="node">
<title>Node17</title>
<g id="a_node17"><a xlink:href="classSphericalGridDivision.html" target="_top" xlink:title="Divides the mesh based on a spherical grid.">
<polygon fill="white" stroke="#666666" points="859,-56 716,-56 716,-37 859,-37 859,-56"/>
<text text-anchor="middle" x="787.5" y="-44" font-family="Courier,monospace" font-size="10.00">SphericalGridDivision</text>
</a>
</g>
</g>
<!-- Node1&#45;&gt;Node17 -->
<g id="edge16" class="edge">
<title>Node1&#45;&gt;Node17</title>
<path fill="none" stroke="#63b8ff" d="M633.18,-119.91C647.76,-102.79 671.69,-78.04 698,-64.5 704.27,-61.27 711.08,-58.62 718.03,-56.45"/>
<polygon fill="#63b8ff" stroke="#63b8ff" points="630.7,-117.41 627.05,-127.36 636.11,-121.86 630.7,-117.41"/>
</g>
<!-- Node18 -->
<g id="node18" class="node">
<title>Node18</title>
<g id="a_node18"><a xlink:href="classSubdomainsDivision.html" target="_top" xlink:title="Divides the mesh based on the subdomains.">
<polygon fill="white" stroke="#666666" points="850,-19 725,-19 725,0 850,0 850,-19"/>
<text text-anchor="middle" x="787.5" y="-7" font-family="Courier,monospace" font-size="10.00">SubdomainsDivision</text>
</a>
</g>
</g>
<!-- Node1&#45;&gt;Node18 -->
<g id="edge17" class="edge">
<title>Node1&#45;&gt;Node18</title>
<path fill="none" stroke="#63b8ff" d="M627.21,-118.29C639.26,-92.87 663.5,-49.86 698,-27.5 706.03,-22.3 715.25,-18.55 724.65,-15.87"/>
<polygon fill="#63b8ff" stroke="#63b8ff" points="624.1,-116.66 623.16,-127.21 630.48,-119.55 624.1,-116.66"/>
</g>
<!-- Node2 -->
<g id="node2" class="node">
<title>Node2</title>
<g id="a_node2"><a xlink:href="classMooseObject.html" target="_top" xlink:title="Every object that can be built by the factory should be derived from this class.">
<polygon fill="white" stroke="#666666" points="510,-185 427,-185 427,-166 510,-166 510,-185"/>
<text text-anchor="middle" x="468.5" y="-173" font-family="Courier,monospace" font-size="10.00">MooseObject</text>
</a>
</g>
</g>
<!-- Node2&#45;&gt;Node1 -->
<g id="edge1" class="edge">
<title>Node2&#45;&gt;Node1</title>
<path fill="none" stroke="#63b8ff" d="M519.88,-162.82C538.55,-158.12 559.44,-152.86 577,-148.44"/>
<polygon fill="#63b8ff" stroke="#63b8ff" points="519.2,-159.38 510.36,-165.22 520.91,-166.17 519.2,-159.38"/>
</g>
<!-- Node3 -->
<g id="node3" class="node">
<title>Node3</title>
<g id="a_node3"><a xlink:href="classMooseBase.html" target="_top" xlink:title="Base class for everything in MOOSE with a name and a type.">
<polygon fill="white" stroke="#666666" points="310,-259 239,-259 239,-240 310,-240 310,-259"/>
<text text-anchor="middle" x="274.5" y="-247" font-family="Courier,monospace" font-size="10.00">MooseBase</text>
</a>
</g>
</g>
<!-- Node3&#45;&gt;Node2 -->
<g id="edge2" class="edge">
<title>Node3&#45;&gt;Node2</title>
<path fill="none" stroke="#63b8ff" d="M321.5,-242.81C335.39,-240.08 350.53,-236.39 364,-231.5 397.41,-219.37 433.22,-197.86 452.73,-185.32"/>
<polygon fill="#63b8ff" stroke="#63b8ff" points="320.89,-239.37 311.68,-244.61 322.14,-246.25 320.89,-239.37"/>
</g>
<!-- Node4 -->
<g id="node4" class="node">
<title>Node4</title>
<g id="a_node4"><a xlink:href="classMooseBaseParameterInterface.html" target="_top" xlink:title="Every object that can be built by the factory should be derived from this class.">
<polygon fill="white" stroke="#666666" points="364,-222 185,-222 185,-203 364,-203 364,-222"/>
<text text-anchor="middle" x="274.5" y="-210" font-family="Courier,monospace" font-size="10.00">MooseBaseParameterInterface</text>
</a>
</g>
</g>
<!-- Node4&#45;&gt;Node2 -->
<g id="edge3" class="edge">
<title>Node4&#45;&gt;Node2</title>
<path fill="none" stroke="#63b8ff" d="M338.48,-200.36C367.47,-194.78 401.03,-188.31 426.65,-183.37"/>
<polygon fill="#63b8ff" stroke="#63b8ff" points="337.85,-196.92 328.69,-202.25 339.17,-203.79 337.85,-196.92"/>
</g>
<!-- Node5 -->
<g id="node5" class="node">
<title>Node5</title>
<g id="a_node5"><a xlink:href="classMooseBaseErrorInterface.html" target="_top" xlink:title="Interface that provides APIs to output errors/warnings/info messages.">
<polygon fill="white" stroke="#666666" points="352,-185 197,-185 197,-166 352,-166 352,-185"/>
<text text-anchor="middle" x="274.5" y="-173" font-family="Courier,monospace" font-size="10.00">MooseBaseErrorInterface</text>
</a>
</g>
</g>
<!-- Node5&#45;&gt;Node2 -->
<g id="edge4" class="edge">
<title>Node5&#45;&gt;Node2</title>
<path fill="none" stroke="#63b8ff" d="M363.87,-175.5C385.79,-175.5 408.24,-175.5 426.61,-175.5"/>
<polygon fill="#63b8ff" stroke="#63b8ff" points="364,-172 354,-175.5 364,-179 364,-172"/>
</g>
<!-- Node6 -->
<g id="node6" class="node">
<title>Node6</title>
<g id="a_node6"><a xlink:href="classConsoleStreamInterface.html" target="_top" xlink:title="An inteface for the _console for outputting to the Console object.">
<polygon fill="white" stroke="#666666" points="149,-185 0,-185 0,-166 149,-166 149,-185"/>
<text text-anchor="middle" x="74.5" y="-173" font-family="Courier,monospace" font-size="10.00">ConsoleStreamInterface</text>
</a>
</g>
</g>
<!-- Node6&#45;&gt;Node5 -->
<g id="edge5" class="edge">
<title>Node6&#45;&gt;Node5</title>
<path fill="none" stroke="#63b8ff" d="M160.62,-175.5C172.62,-175.5 184.9,-175.5 196.73,-175.5"/>
<polygon fill="#63b8ff" stroke="#63b8ff" points="160.74,-172 150.74,-175.5 160.74,-179 160.74,-172"/>
</g>
<!-- Node7 -->
<g id="node7" class="node">
<title>Node7</title>
<g id="a_node7"><a xlink:title=" ">
<polygon fill="white" stroke="#666666" points="352,-148 197,-148 197,-129 352,-129 352,-148"/>
<text text-anchor="middle" x="274.5" y="-136" font-family="Courier,monospace" font-size="10.00">libMesh::ParallelObject</text>
</a>
</g>
</g>
<!-- Node7&#45;&gt;Node2 -->
<g id="edge6" class="edge">
<title>Node7&#45;&gt;Node2</title>
<path fill="none" stroke="#63b8ff" d="M338.48,-150.64C367.47,-156.22 401.03,-162.69 426.65,-167.63"/>
<polygon fill="#63b8ff" stroke="#63b8ff" points="339.17,-147.21 328.69,-148.75 337.85,-154.08 339.17,-147.21"/>
</g>
<!-- Node8 -->
<g id="node8" class="node">
<title>Node8</title>
<g id="a_node8"><a xlink:href="classDataFileInterface.html" target="_top" xlink:title=" ">
<polygon fill="white" stroke="#666666" points="337,-110.5 212,-110.5 212,-80.5 337,-80.5 337,-110.5"/>
<text text-anchor="start" x="220" y="-98.5" font-family="Courier,monospace" font-size="10.00">DataFileInterface&lt;</text>
<text text-anchor="middle" x="274.5" y="-87.5" font-family="Courier,monospace" font-size="10.00"> MooseObject &gt;</text>
</a>
</g>
</g>
<!-- Node8&#45;&gt;Node2 -->
<g id="edge7" class="edge">
<title>Node8&#45;&gt;Node2</title>
<path fill="none" stroke="#63b8ff" d="M347.62,-111.49C353.32,-113.82 358.86,-116.47 364,-119.5 383.77,-131.14 380.28,-144.77 400,-156.5 408.16,-161.36 417.61,-165.02 426.82,-167.76"/>
<polygon fill="#63b8ff" stroke="#63b8ff" points="349.23,-108.35 338.64,-108.17 346.8,-114.92 349.23,-108.35"/>
</g>
<!-- Node9 -->
<g id="node9" class="node">
<title>Node9</title>
<g id="a_node9"><a xlink:href="classSetupInterface.html" target="_top" xlink:title=" ">
<polygon fill="white" stroke="#666666" points="519,-148 418,-148 418,-129 519,-129 519,-148"/>
<text text-anchor="middle" x="468.5" y="-136" font-family="Courier,monospace" font-size="10.00">SetupInterface</text>
</a>
</g>
</g>
<!-- Node9&#45;&gt;Node1 -->
<g id="edge8" class="edge">
<title>Node9&#45;&gt;Node1</title>
<path fill="none" stroke="#63b8ff" d="M530.45,-138.5C544.62,-138.5 559.43,-138.5 572.69,-138.5"/>
<polygon fill="#63b8ff" stroke="#63b8ff" points="530.78,-135 520.78,-138.5 530.78,-142 530.78,-135"/>
</g>
<!-- Node10 -->
<g id="node10" class="node">
<title>Node10</title>
<g id="a_node10"><a xlink:href="classMeshChangedInterface.html" target="_top" xlink:title="Interface for notifications that the mesh has changed.">
<polygon fill="white" stroke="#666666" points="537,-111 400,-111 400,-92 537,-92 537,-111"/>
<text text-anchor="middle" x="468.5" y="-99" font-family="Courier,monospace" font-size="10.00">MeshChangedInterface</text>
</a>
</g>
</g>
<!-- Node10&#45;&gt;Node1 -->
<g id="edge9" class="edge">
<title>Node10&#45;&gt;Node1</title>
<path fill="none" stroke="#63b8ff" d="M519.88,-114.18C538.55,-118.88 559.44,-124.14 577,-128.56"/>
<polygon fill="#63b8ff" stroke="#63b8ff" points="520.91,-110.83 510.36,-111.78 519.2,-117.62 520.91,-110.83"/>
</g>
</g>
</svg>
        <g id="navigator" transform="translate(0 0)" fill="#404254">
                <rect fill="#f2f5e9" fill-opacity="0.5" stroke="#606060" stroke-width=".5" x="0" y="0" width="60" height="60"/>
                <use id="zoomplus" xlink:href="#zoomPlus" x="17" y="9" onmousedown="handleZoom(evt,'in')"/>
                <use id="zoomminus" xlink:href="#zoomMin" x="42" y="9" onmousedown="handleZoom(evt,'out')"/>
                <use id="reset" xlink:href="#resetDef" x="30" y="36" onmousedown="handleReset()"/>
                <g id="arrowUp" xlink:href="#dirArrow" transform="translate(30 24)" onmousedown="handlePan(0,-1)">
                  <use xlink:href="#rim" fill="#404040">
                        <set attributeName="fill" to="#808080" begin="arrowUp.mouseover" end="arrowUp.mouseout"/>
                  </use>
                  <path fill="none" stroke="white" stroke-width="1.5" d="M0,-3.0v7 M-2.5,-0.5L0,-3.0L2.5,-0.5"/>
                </g>
                <g id="arrowRight" xlink:href="#dirArrow" transform="rotate(90) translate(36 -43)" onmousedown="handlePan(1,0)">
                  <use xlink:href="#rim" fill="#404040">
                        <set attributeName="fill" to="#808080" begin="arrowRight.mouseover" end="arrowRight.mouseout"/>
                  </use>
                  <path fill="none" stroke="white" stroke-width="1.5" d="M0,-3.0v7 M-2.5,-0.5L0,-3.0L2.5,-0.5"/>
                </g>
                <g id="arrowDown" xlink:href="#dirArrow" transform="rotate(180) translate(-30 -48)" onmousedown="handlePan(0,1)">
                  <use xlink:href="#rim" fill="#404040">
                        <set attributeName="fill" to="#808080" begin="arrowDown.mouseover" end="arrowDown.mouseout"/>
                  </use>
                  <path fill="none" stroke="white" stroke-width="1.5" d="M0,-3.0v7 M-2.5,-0.5L0,-3.0L2.5,-0.5"/>
                </g>
                <g id="arrowLeft" xlink:href="#dirArrow" transform="rotate(270) translate(-36 17)" onmousedown="handlePan(-1,0)">
                  <use xlink:href="#rim" fill="#404040">
                        <set attributeName="fill" to="#808080" begin="arrowLeft.mouseover" end="arrowLeft.mouseout"/>
                  </use>
                  <path fill="none" stroke="white" stroke-width="1.5" d="M0,-3.0v7 M-2.5,-0.5L0,-3.0L2.5,-0.5"/>
                </g>
        </g>
        <svg viewBox="0 0 15 15" width="100%" height="30px" preserveAspectRatio="xMaxYMin meet">
         <g id="arrow_out" transform="scale(0.3 0.3)">
          <a xlink:href="classMeshDivision__inherit__graph_org.svg" target="_base">
           <rect id="button" ry="5" rx="5" y="6" x="6" height="38" width="38"
                fill="#f2f5e9" fill-opacity="0.5" stroke="#606060" stroke-width="1.0"/>
           <path id="arrow"
             d="M 11.500037,31.436501 C 11.940474,20.09759 22.043105,11.32322 32.158766,21.979434 L 37.068811,17.246167 C 37.068811,17.246167 37.088388,32 37.088388,32 L 22.160133,31.978069 C 22.160133,31.978069 26.997745,27.140456 26.997745,27.140456 C 18.528582,18.264221 13.291696,25.230495 11.500037,31.436501 z"
             style="fill:#404040;"/>
          </a>
         </g>
        </svg>
</svg>
