<?xml version="1.0" encoding="UTF-8" standalone="no"?>
<!DOCTYPE svg PUBLIC "-//W3C//DTD SVG 1.1//EN"
 "http://www.w3.org/Graphics/SVG/1.1/DTD/svg11.dtd">
<!-- Generated by graphviz version 7.0.5 (20221223.1930)
 -->
<!-- Title: MaterialPropertyBase&lt; T, is_ad &gt; Pages: 1 -->
<svg width="491pt" height="364pt"
 viewBox="0.00 0.00 491.00 364.00" xmlns="http://www.w3.org/2000/svg" xmlns:xlink="http://www.w3.org/1999/xlink">
<g id="graph0" class="graph" transform="scale(1 1) rotate(0) translate(4 360)">
<title>MaterialPropertyBase&lt; T, is_ad &gt;</title>
<!-- Node1 -->
<g id="node1" class="node">
<title>Node1</title>
<g id="a_node1"><a xlink:title="Concrete definition of a parameter value for a specified type.">
<polygon fill="#999999" stroke="#666666" points="268,-198 131,-198 131,-168 268,-168 268,-198"/>
<text text-anchor="start" x="139" y="-186" font-family="Courier,monospace" font-size="10.00">MaterialPropertyBase</text>
<text text-anchor="middle" x="199.5" y="-175" font-family="Courier,monospace" font-size="10.00">&lt; T, is_ad &gt;</text>
</a>
</g>
</g>
<!-- Node3 -->
<g id="node3" class="node">
<title>Node3</title>
<g id="a_node3"><a xlink:href="classADMaterialProperty.html" target="_top" xlink:title=" ">
<polygon fill="white" stroke="#666666" points="456,-356 331,-356 331,-326 456,-326 456,-356"/>
<text text-anchor="start" x="339" y="-344" font-family="Courier,monospace" font-size="10.00">ADMaterialProperty</text>
<text text-anchor="middle" x="393.5" y="-333" font-family="Courier,monospace" font-size="10.00">&lt; Real &gt;</text>
</a>
</g>
</g>
<!-- Node1&#45;&gt;Node3 -->
<g id="edge2" class="edge">
<title>Node1&#45;&gt;Node3</title>
<path fill="none" stroke="#63b8ff" d="M213.37,-208.35C230.12,-238.75 262.24,-289.1 304,-317 312.07,-322.39 321.33,-326.58 330.74,-329.83"/>
<polygon fill="#63b8ff" stroke="#63b8ff" points="216.62,-207 208.81,-199.83 210.45,-210.3 216.62,-207"/>
</g>
<!-- Node4 -->
<g id="node4" class="node">
<title>Node4</title>
<g id="a_node4"><a xlink:href="classADMaterialProperty.html" target="_top" xlink:title=" ">
<polygon fill="white" stroke="#666666" points="459,-308 328,-308 328,-278 459,-278 459,-308"/>
<text text-anchor="start" x="336" y="-296" font-family="Courier,monospace" font-size="10.00">ADMaterialProperty</text>
<text text-anchor="middle" x="393.5" y="-285" font-family="Courier,monospace" font-size="10.00">&lt; RealVectorValue &gt;</text>
</a>
</g>
</g>
<!-- Node1&#45;&gt;Node4 -->
<g id="edge3" class="edge">
<title>Node1&#45;&gt;Node4</title>
<path fill="none" stroke="#63b8ff" d="M222.77,-206.44C242.43,-225.85 272.76,-252.77 304,-269 311.49,-272.89 319.67,-276.2 327.93,-279"/>
<polygon fill="#63b8ff" stroke="#63b8ff" points="225.37,-204.09 215.84,-199.46 220.4,-209.02 225.37,-204.09"/>
</g>
<!-- Node5 -->
<g id="node5" class="node">
<title>Node5</title>
<g id="a_node5"><a xlink:href="classMaterialProperty.html" target="_top" xlink:title=" ">
<polygon fill="white" stroke="#666666" points="474,-259.5 313,-259.5 313,-240.5 474,-240.5 474,-259.5"/>
<text text-anchor="middle" x="393.5" y="-247.5" font-family="Courier,monospace" font-size="10.00">MaterialProperty&lt; Real &gt;</text>
</a>
</g>
</g>
<!-- Node1&#45;&gt;Node5 -->
<g id="edge4" class="edge">
<title>Node1&#45;&gt;Node5</title>
<path fill="none" stroke="#63b8ff" d="M239.33,-203.52C258.4,-212.94 281.97,-223.63 304,-231 314.43,-234.49 325.78,-237.49 336.75,-240.01"/>
<polygon fill="#63b8ff" stroke="#63b8ff" points="241.09,-200.48 230.59,-199.12 237.95,-206.74 241.09,-200.48"/>
</g>
<!-- Node6 -->
<g id="node6" class="node">
<title>Node6</title>
<g id="a_node6"><a xlink:href="classMaterialProperty.html" target="_top" xlink:title=" ">
<polygon fill="white" stroke="#666666" points="480,-222 307,-222 307,-192 480,-192 480,-222"/>
<text text-anchor="start" x="315" y="-210" font-family="Courier,monospace" font-size="10.00">MaterialProperty&lt; RankFour</text>
<text text-anchor="middle" x="393.5" y="-199" font-family="Courier,monospace" font-size="10.00">Tensor &gt;</text>
</a>
</g>
</g>
<!-- Node1&#45;&gt;Node6 -->
<g id="edge5" class="edge">
<title>Node1&#45;&gt;Node6</title>
<path fill="none" stroke="#63b8ff" d="M279.67,-192.9C288.62,-194.01 297.77,-195.16 306.8,-196.29"/>
<polygon fill="#63b8ff" stroke="#63b8ff" points="280.32,-189.45 269.96,-191.68 279.45,-196.4 280.32,-189.45"/>
</g>
<!-- Node7 -->
<g id="node7" class="node">
<title>Node7</title>
<g id="a_node7"><a xlink:href="classMaterialProperty.html" target="_top" xlink:title=" ">
<polygon fill="white" stroke="#666666" points="477,-174 310,-174 310,-144 477,-144 477,-174"/>
<text text-anchor="start" x="318" y="-162" font-family="Courier,monospace" font-size="10.00">MaterialProperty&lt; RankTwo</text>
<text text-anchor="middle" x="393.5" y="-151" font-family="Courier,monospace" font-size="10.00">Tensor &gt;</text>
</a>
</g>
</g>
<!-- Node1&#45;&gt;Node7 -->
<g id="edge6" class="edge">
<title>Node1&#45;&gt;Node7</title>
<path fill="none" stroke="#63b8ff" d="M279.59,-173.11C289.56,-171.87 299.78,-170.59 309.81,-169.34"/>
<polygon fill="#63b8ff" stroke="#63b8ff" points="279.45,-169.6 269.96,-174.32 280.32,-176.55 279.45,-169.6"/>
</g>
<!-- Node8 -->
<g id="node8" class="node">
<title>Node8</title>
<g id="a_node8"><a xlink:href="classMaterialProperty.html" target="_top" xlink:title=" ">
<polygon fill="white" stroke="#666666" points="483,-126 304,-126 304,-96 483,-96 483,-126"/>
<text text-anchor="start" x="312" y="-114" font-family="Courier,monospace" font-size="10.00">MaterialProperty&lt; RealEigen</text>
<text text-anchor="middle" x="393.5" y="-103" font-family="Courier,monospace" font-size="10.00">Vector &gt;</text>
</a>
</g>
</g>
<!-- Node1&#45;&gt;Node8 -->
<g id="edge7" class="edge">
<title>Node1&#45;&gt;Node8</title>
<path fill="none" stroke="#63b8ff" d="M240.6,-162.47C259.52,-153.29 282.59,-142.8 304,-135 312.38,-131.95 321.32,-129.08 330.19,-126.47"/>
<polygon fill="#63b8ff" stroke="#63b8ff" points="239.06,-159.33 231.63,-166.88 242.15,-165.61 239.06,-159.33"/>
</g>
<!-- Node9 -->
<g id="node9" class="node">
<title>Node9</title>
<g id="a_node9"><a xlink:href="classMaterialProperty.html" target="_top" xlink:title=" ">
<polygon fill="white" stroke="#666666" points="483,-78 304,-78 304,-48 483,-48 483,-78"/>
<text text-anchor="start" x="312" y="-66" font-family="Courier,monospace" font-size="10.00">MaterialProperty&lt; RealEigen</text>
<text text-anchor="middle" x="393.5" y="-55" font-family="Courier,monospace" font-size="10.00">Matrix &gt;</text>
</a>
</g>
</g>
<!-- Node1&#45;&gt;Node9 -->
<g id="edge8" class="edge">
<title>Node1&#45;&gt;Node9</title>
<path fill="none" stroke="#63b8ff" d="M220.33,-158.88C239.54,-137.03 270.62,-105.51 304,-87 309.85,-83.76 316.16,-80.93 322.62,-78.48"/>
<polygon fill="#63b8ff" stroke="#63b8ff" points="217.7,-156.57 213.83,-166.44 223,-161.14 217.7,-156.57"/>
</g>
<!-- Node10 -->
<g id="node10" class="node">
<title>Node10</title>
<g id="a_node10"><a xlink:href="classMaterialProperty.html" target="_top" xlink:title=" ">
<polygon fill="white" stroke="#666666" points="480,-30 307,-30 307,0 480,0 480,-30"/>
<text text-anchor="start" x="315" y="-18" font-family="Courier,monospace" font-size="10.00">MaterialProperty&lt; unsigned</text>
<text text-anchor="middle" x="393.5" y="-7" font-family="Courier,monospace" font-size="10.00"> int &gt;</text>
</a>
</g>
</g>
<!-- Node1&#45;&gt;Node10 -->
<g id="edge9" class="edge">
<title>Node1&#45;&gt;Node10</title>
<path fill="none" stroke="#63b8ff" d="M211.92,-157.7C227.87,-125.27 259.9,-69.57 304,-39 308.71,-35.73 313.85,-32.91 319.19,-30.48"/>
<polygon fill="#63b8ff" stroke="#63b8ff" points="208.93,-155.84 207.79,-166.37 215.25,-158.85 208.93,-155.84"/>
</g>
<!-- Node2 -->
<g id="node2" class="node">
<title>Node2</title>
<g id="a_node2"><a xlink:href="classPropertyValue.html" target="_top" xlink:title="Abstract definition of a property value.">
<polygon fill="white" stroke="#666666" points="95,-192.5 0,-192.5 0,-173.5 95,-173.5 95,-192.5"/>
<text text-anchor="middle" x="47.5" y="-180.5" font-family="Courier,monospace" font-size="10.00">PropertyValue</text>
</a>
</g>
</g>
<!-- Node2&#45;&gt;Node1 -->
<g id="edge1" class="edge">
<title>Node2&#45;&gt;Node1</title>
<path fill="none" stroke="#63b8ff" d="M106.51,-183C114.43,-183 122.62,-183 130.69,-183"/>
<polygon fill="#63b8ff" stroke="#63b8ff" points="106.65,-179.5 96.65,-183 106.65,-186.5 106.65,-179.5"/>
</g>
</g>
</svg>
