<?xml version="1.0" encoding="UTF-8" standalone="no"?>
<!DOCTYPE svg PUBLIC "-//W3C//DTD SVG 1.1//EN"
 "http://www.w3.org/Graphics/SVG/1.1/DTD/svg11.dtd">
<!-- Generated by graphviz version 7.0.5 (20221223.1930)
 -->
<!-- Title: Moose::LibtorchTorchScriptNeuralNet Pages: 1 -->
<svg width="336pt" height="104pt"
 viewBox="0.00 0.00 336.00 104.00" xmlns="http://www.w3.org/2000/svg" xmlns:xlink="http://www.w3.org/1999/xlink">
<g id="graph0" class="graph" transform="scale(1 1) rotate(0) translate(4 100)">
<title>Moose::LibtorchTorchScriptNeuralNet</title>
<!-- Node1 -->
<g id="node1" class="node">
<title>Node1</title>
<g id="a_node1"><a xlink:title=" ">
<polygon fill="#999999" stroke="#666666" points="235,-30 62,-30 62,0 235,0 235,-30"/>
<text text-anchor="start" x="70" y="-18" font-family="Courier,monospace" font-size="10.00">Moose::LibtorchTorchScript</text>
<text text-anchor="middle" x="148.5" y="-7" font-family="Courier,monospace" font-size="10.00">NeuralNet</text>
</a>
</g>
</g>
<!-- Node2 -->
<g id="node2" class="node">
<title>Node2</title>
<g id="a_node2"><a xlink:title=" ">
<polygon fill="white" stroke="#666666" points="125,-96 0,-96 0,-66 125,-66 125,-96"/>
<text text-anchor="start" x="8" y="-84" font-family="Courier,monospace" font-size="10.00">torch::jit::script</text>
<text text-anchor="middle" x="62.5" y="-73" font-family="Courier,monospace" font-size="10.00">::Module</text>
</a>
</g>
</g>
<!-- Node2&#45;&gt;Node1 -->
<g id="edge1" class="edge">
<title>Node2&#45;&gt;Node1</title>
<path fill="none" stroke="#63b8ff" d="M90.75,-58.97C103.34,-49.61 117.85,-38.81 129.17,-30.39"/>
<polygon fill="#63b8ff" stroke="#63b8ff" points="88.73,-56.11 82.8,-64.89 92.91,-61.73 88.73,-56.11"/>
</g>
<!-- Node3 -->
<g id="node3" class="node">
<title>Node3</title>
<g id="a_node3"><a xlink:href="classMoose_1_1LibtorchNeuralNetBase.html" target="_top" xlink:title="This base class is meant to gather the functions and members common in every neural network based on ...">
<polygon fill="white" stroke="#666666" points="328,-90.5 143,-90.5 143,-71.5 328,-71.5 328,-90.5"/>
<text text-anchor="middle" x="235.5" y="-78.5" font-family="Courier,monospace" font-size="10.00">Moose::LibtorchNeuralNetBase</text>
</a>
</g>
</g>
<!-- Node3&#45;&gt;Node1 -->
<g id="edge2" class="edge">
<title>Node3&#45;&gt;Node1</title>
<path fill="none" stroke="#63b8ff" d="M214.46,-64.52C200.38,-54.16 181.97,-40.62 168.18,-30.48"/>
<polygon fill="#63b8ff" stroke="#63b8ff" points="212.05,-67.1 222.18,-70.2 216.2,-61.46 212.05,-67.1"/>
</g>
</g>
</svg>
