<?xml version="1.0" encoding="UTF-8" standalone="no"?>
<!DOCTYPE svg PUBLIC "-//W3C//DTD SVG 1.1//EN"
 "http://www.w3.org/Graphics/SVG/1.1/DTD/svg11.dtd">
<!-- Generated by graphviz version 7.0.5 (20221223.1930)
 -->
<!-- Title: MultiAppConservativeTransfer Pages: 1 -->
<svg width="1637pt" height="278pt"
 viewBox="0.00 0.00 1637.00 277.50" xmlns="http://www.w3.org/2000/svg" xmlns:xlink="http://www.w3.org/1999/xlink">
<g id="graph0" class="graph" transform="scale(1 1) rotate(0) translate(4 273.5)">
<title>MultiAppConservativeTransfer</title>
<!-- Node1 -->
<g id="node1" class="node">
<title>Node1</title>
<g id="a_node1"><a xlink:title="Transfers variables on possibly different meshes while conserving a user defined property (Postproces...">
<polygon fill="#999999" stroke="#666666" points="1175,-111 990,-111 990,-92 1175,-92 1175,-111"/>
<text text-anchor="middle" x="1082.5" y="-99" font-family="Courier,monospace" font-size="10.00">MultiAppConservativeTransfer</text>
</a>
</g>
</g>
<!-- Node15 -->
<g id="node15" class="node">
<title>Node15</title>
<g id="a_node15"><a xlink:href="classMultiAppGeneralFieldTransfer.html" target="_top" xlink:title="It is a general field transfer.">
<polygon fill="white" stroke="#666666" points="1405,-216 1220,-216 1220,-197 1405,-197 1405,-216"/>
<text text-anchor="middle" x="1312.5" y="-204" font-family="Courier,monospace" font-size="10.00">MultiAppGeneralFieldTransfer</text>
</a>
</g>
</g>
<!-- Node1&#45;&gt;Node15 -->
<g id="edge14" class="edge">
<title>Node1&#45;&gt;Node15</title>
<path fill="none" stroke="#63b8ff" d="M1103.31,-118.69C1127.19,-138.45 1169.33,-170.36 1211,-187.5 1219.95,-191.18 1229.64,-194.15 1239.36,-196.56"/>
<polygon fill="#63b8ff" stroke="#63b8ff" points="1105.59,-116.03 1095.69,-112.26 1101.08,-121.38 1105.59,-116.03"/>
</g>
<!-- Node19 -->
<g id="node19" class="node">
<title>Node19</title>
<g id="a_node19"><a xlink:href="classMultiAppGeometricInterpolationTransfer.html" target="_top" xlink:title="Interpolate variable values using geometry/mesh&#45;based coefficients.">
<polygon fill="white" stroke="#666666" points="1411,-178.5 1214,-178.5 1214,-148.5 1411,-148.5 1411,-178.5"/>
<text text-anchor="start" x="1222" y="-166.5" font-family="Courier,monospace" font-size="10.00">MultiAppGeometricInterpolation</text>
<text text-anchor="middle" x="1312.5" y="-155.5" font-family="Courier,monospace" font-size="10.00">Transfer</text>
</a>
</g>
</g>
<!-- Node1&#45;&gt;Node19 -->
<g id="edge18" class="edge">
<title>Node1&#45;&gt;Node19</title>
<path fill="none" stroke="#63b8ff" d="M1125.89,-114.77C1150.61,-122.35 1182.46,-131.85 1211,-139.5 1221.74,-142.38 1233.18,-145.27 1244.34,-148"/>
<polygon fill="#63b8ff" stroke="#63b8ff" points="1127.1,-111.48 1116.51,-111.88 1125.03,-118.17 1127.1,-111.48"/>
</g>
<!-- Node20 -->
<g id="node20" class="node">
<title>Node20</title>
<g id="a_node20"><a xlink:href="classMultiAppNearestNodeTransfer.html" target="_top" xlink:title="Copy the value to the target domain from the nearest node in the source domain.">
<polygon fill="white" stroke="#666666" points="1402,-130 1223,-130 1223,-111 1402,-111 1402,-130"/>
<text text-anchor="middle" x="1312.5" y="-118" font-family="Courier,monospace" font-size="10.00">MultiAppNearestNodeTransfer</text>
</a>
</g>
</g>
<!-- Node1&#45;&gt;Node20 -->
<g id="edge19" class="edge">
<title>Node1&#45;&gt;Node20</title>
<path fill="none" stroke="#63b8ff" d="M1186.66,-110.1C1198.64,-111.09 1210.77,-112.11 1222.53,-113.09"/>
<polygon fill="#63b8ff" stroke="#63b8ff" points="1187.02,-106.61 1176.76,-109.27 1186.43,-113.59 1187.02,-106.61"/>
</g>
<!-- Node21 -->
<g id="node21" class="node">
<title>Node21</title>
<g id="a_node21"><a xlink:href="classMultiAppProjectionTransfer.html" target="_top" xlink:title="Project values from one domain to another.">
<polygon fill="white" stroke="#666666" points="1399,-93 1226,-93 1226,-74 1399,-74 1399,-93"/>
<text text-anchor="middle" x="1312.5" y="-81" font-family="Courier,monospace" font-size="10.00">MultiAppProjectionTransfer</text>
</a>
</g>
</g>
<!-- Node1&#45;&gt;Node21 -->
<g id="edge20" class="edge">
<title>Node1&#45;&gt;Node21</title>
<path fill="none" stroke="#63b8ff" d="M1186.69,-93.35C1199.78,-92.32 1213.07,-91.27 1225.84,-90.26"/>
<polygon fill="#63b8ff" stroke="#63b8ff" points="1186.45,-89.86 1176.76,-94.14 1187,-96.84 1186.45,-89.86"/>
</g>
<!-- Node22 -->
<g id="node22" class="node">
<title>Node22</title>
<g id="a_node22"><a xlink:href="classMultiAppShapeEvaluationTransfer.html" target="_top" xlink:title="Transfers a vector of variables.">
<polygon fill="white" stroke="#666666" points="1414,-56 1211,-56 1211,-37 1414,-37 1414,-56"/>
<text text-anchor="middle" x="1312.5" y="-44" font-family="Courier,monospace" font-size="10.00">MultiAppShapeEvaluationTransfer</text>
</a>
</g>
</g>
<!-- Node1&#45;&gt;Node22 -->
<g id="edge21" class="edge">
<title>Node1&#45;&gt;Node22</title>
<path fill="none" stroke="#63b8ff" d="M1126.56,-88.32C1151.16,-81.05 1182.65,-72.17 1211,-65.5 1224.83,-62.25 1239.83,-59.17 1253.92,-56.48"/>
<polygon fill="#63b8ff" stroke="#63b8ff" points="1125.82,-84.89 1117.24,-91.1 1127.82,-91.59 1125.82,-84.89"/>
</g>
<!-- Node23 -->
<g id="node23" class="node">
<title>Node23</title>
<g id="a_node23"><a xlink:href="classMultiAppUserObjectTransfer.html" target="_top" xlink:title="Loops over a target mesh and uses either node or element centroid location (based on the target varia...">
<polygon fill="white" stroke="#666666" points="1399,-19 1226,-19 1226,0 1399,0 1399,-19"/>
<text text-anchor="middle" x="1312.5" y="-7" font-family="Courier,monospace" font-size="10.00">MultiAppUserObjectTransfer</text>
</a>
</g>
</g>
<!-- Node1&#45;&gt;Node23 -->
<g id="edge22" class="edge">
<title>Node1&#45;&gt;Node23</title>
<path fill="none" stroke="#63b8ff" d="M1106.03,-85.13C1130.61,-68.09 1171.72,-41.91 1211,-27.5 1219.74,-24.3 1229.12,-21.65 1238.51,-19.46"/>
<polygon fill="#63b8ff" stroke="#63b8ff" points="1104.25,-82.11 1098.1,-90.73 1108.29,-87.83 1104.25,-82.11"/>
</g>
<!-- Node2 -->
<g id="node2" class="node">
<title>Node2</title>
<g id="a_node2"><a xlink:href="classMultiAppFieldTransfer.html" target="_top" xlink:title="Intermediary class that allows variable names as inputs.">
<polygon fill="white" stroke="#666666" points="954,-111 811,-111 811,-92 954,-92 954,-111"/>
<text text-anchor="middle" x="882.5" y="-99" font-family="Courier,monospace" font-size="10.00">MultiAppFieldTransfer</text>
</a>
</g>
</g>
<!-- Node2&#45;&gt;Node1 -->
<g id="edge1" class="edge">
<title>Node2&#45;&gt;Node1</title>
<path fill="none" stroke="#63b8ff" d="M965.83,-101.5C973.7,-101.5 981.71,-101.5 989.66,-101.5"/>
<polygon fill="#63b8ff" stroke="#63b8ff" points="965.94,-98 955.94,-101.5 965.94,-105 965.94,-98"/>
</g>
<!-- Node3 -->
<g id="node3" class="node">
<title>Node3</title>
<g id="a_node3"><a xlink:href="classMultiAppTransfer.html" target="_top" xlink:title="Base class for all MultiAppTransfer objects.">
<polygon fill="white" stroke="#666666" points="775,-111 662,-111 662,-92 775,-92 775,-111"/>
<text text-anchor="middle" x="718.5" y="-99" font-family="Courier,monospace" font-size="10.00">MultiAppTransfer</text>
</a>
</g>
</g>
<!-- Node3&#45;&gt;Node2 -->
<g id="edge2" class="edge">
<title>Node3&#45;&gt;Node2</title>
<path fill="none" stroke="#63b8ff" d="M786.72,-101.5C794.66,-101.5 802.78,-101.5 810.77,-101.5"/>
<polygon fill="#63b8ff" stroke="#63b8ff" points="786.76,-98 776.76,-101.5 786.76,-105 786.76,-98"/>
</g>
<!-- Node4 -->
<g id="node4" class="node">
<title>Node4</title>
<g id="a_node4"><a xlink:href="classTransfer.html" target="_top" xlink:title="Base class for all Transfer objects.">
<polygon fill="white" stroke="#666666" points="626,-111 561,-111 561,-92 626,-92 626,-111"/>
<text text-anchor="middle" x="593.5" y="-99" font-family="Courier,monospace" font-size="10.00">Transfer</text>
</a>
</g>
</g>
<!-- Node4&#45;&gt;Node3 -->
<g id="edge3" class="edge">
<title>Node4&#45;&gt;Node3</title>
<path fill="none" stroke="#63b8ff" d="M637.87,-101.5C645.62,-101.5 653.8,-101.5 661.84,-101.5"/>
<polygon fill="#63b8ff" stroke="#63b8ff" points="638.01,-98 628.01,-101.5 638.01,-105 638.01,-98"/>
</g>
<!-- Node5 -->
<g id="node5" class="node">
<title>Node5</title>
<g id="a_node5"><a xlink:href="classMooseObject.html" target="_top" xlink:title="Every object that can be built by the factory should be derived from this class.">
<polygon fill="white" stroke="#666666" points="504,-167 421,-167 421,-148 504,-148 504,-167"/>
<text text-anchor="middle" x="462.5" y="-155" font-family="Courier,monospace" font-size="10.00">MooseObject</text>
</a>
</g>
</g>
<!-- Node5&#45;&gt;Node4 -->
<g id="edge4" class="edge">
<title>Node5&#45;&gt;Node4</title>
<path fill="none" stroke="#63b8ff" d="M513.13,-144.05C517.18,-142.63 521.19,-141.11 525,-139.5 543.71,-131.62 563.84,-119.81 577.19,-111.46"/>
<polygon fill="#63b8ff" stroke="#63b8ff" points="512.2,-140.67 503.79,-147.12 514.39,-147.32 512.2,-140.67"/>
</g>
<!-- Node6 -->
<g id="node6" class="node">
<title>Node6</title>
<g id="a_node6"><a xlink:href="classMooseBase.html" target="_top" xlink:title="Base class for everything in MOOSE with a name and a type.">
<polygon fill="white" stroke="#666666" points="310,-241 239,-241 239,-222 310,-222 310,-241"/>
<text text-anchor="middle" x="274.5" y="-229" font-family="Courier,monospace" font-size="10.00">MooseBase</text>
</a>
</g>
</g>
<!-- Node6&#45;&gt;Node5 -->
<g id="edge5" class="edge">
<title>Node6&#45;&gt;Node5</title>
<path fill="none" stroke="#63b8ff" d="M321.58,-225.02C335.48,-222.3 350.59,-218.56 364,-213.5 395.78,-201.5 429.4,-179.94 447.68,-167.36"/>
<polygon fill="#63b8ff" stroke="#63b8ff" points="320.97,-221.58 311.75,-226.8 322.21,-228.47 320.97,-221.58"/>
</g>
<!-- Node7 -->
<g id="node7" class="node">
<title>Node7</title>
<g id="a_node7"><a xlink:href="classMooseBaseParameterInterface.html" target="_top" xlink:title="Every object that can be built by the factory should be derived from this class.">
<polygon fill="white" stroke="#666666" points="364,-204 185,-204 185,-185 364,-185 364,-204"/>
<text text-anchor="middle" x="274.5" y="-192" font-family="Courier,monospace" font-size="10.00">MooseBaseParameterInterface</text>
</a>
</g>
</g>
<!-- Node7&#45;&gt;Node5 -->
<g id="edge6" class="edge">
<title>Node7&#45;&gt;Node5</title>
<path fill="none" stroke="#63b8ff" d="M336.48,-182.37C364.07,-176.88 395.96,-170.54 420.62,-165.63"/>
<polygon fill="#63b8ff" stroke="#63b8ff" points="335.95,-178.91 326.83,-184.29 337.32,-185.77 335.95,-178.91"/>
</g>
<!-- Node8 -->
<g id="node8" class="node">
<title>Node8</title>
<g id="a_node8"><a xlink:href="classMooseBaseErrorInterface.html" target="_top" xlink:title="Interface that provides APIs to output errors/warnings/info messages.">
<polygon fill="white" stroke="#666666" points="352,-167 197,-167 197,-148 352,-148 352,-167"/>
<text text-anchor="middle" x="274.5" y="-155" font-family="Courier,monospace" font-size="10.00">MooseBaseErrorInterface</text>
</a>
</g>
</g>
<!-- Node8&#45;&gt;Node5 -->
<g id="edge7" class="edge">
<title>Node8&#45;&gt;Node5</title>
<path fill="none" stroke="#63b8ff" d="M363.81,-157.5C383.7,-157.5 403.87,-157.5 420.67,-157.5"/>
<polygon fill="#63b8ff" stroke="#63b8ff" points="364.01,-154 354.01,-157.5 364.01,-161 364.01,-154"/>
</g>
<!-- Node9 -->
<g id="node9" class="node">
<title>Node9</title>
<g id="a_node9"><a xlink:href="classConsoleStreamInterface.html" target="_top" xlink:title="An inteface for the _console for outputting to the Console object.">
<polygon fill="white" stroke="#666666" points="149,-167 0,-167 0,-148 149,-148 149,-167"/>
<text text-anchor="middle" x="74.5" y="-155" font-family="Courier,monospace" font-size="10.00">ConsoleStreamInterface</text>
</a>
</g>
</g>
<!-- Node9&#45;&gt;Node8 -->
<g id="edge8" class="edge">
<title>Node9&#45;&gt;Node8</title>
<path fill="none" stroke="#63b8ff" d="M160.62,-157.5C172.62,-157.5 184.9,-157.5 196.73,-157.5"/>
<polygon fill="#63b8ff" stroke="#63b8ff" points="160.74,-154 150.74,-157.5 160.74,-161 160.74,-154"/>
</g>
<!-- Node10 -->
<g id="node10" class="node">
<title>Node10</title>
<g id="a_node10"><a xlink:title=" ">
<polygon fill="white" stroke="#666666" points="352,-130 197,-130 197,-111 352,-111 352,-130"/>
<text text-anchor="middle" x="274.5" y="-118" font-family="Courier,monospace" font-size="10.00">libMesh::ParallelObject</text>
</a>
</g>
</g>
<!-- Node10&#45;&gt;Node5 -->
<g id="edge9" class="edge">
<title>Node10&#45;&gt;Node5</title>
<path fill="none" stroke="#63b8ff" d="M336.48,-132.63C364.07,-138.12 395.96,-144.46 420.62,-149.37"/>
<polygon fill="#63b8ff" stroke="#63b8ff" points="337.32,-129.23 326.83,-130.71 335.95,-136.09 337.32,-129.23"/>
</g>
<!-- Node11 -->
<g id="node11" class="node">
<title>Node11</title>
<g id="a_node11"><a xlink:href="classDataFileInterface.html" target="_top" xlink:title=" ">
<polygon fill="white" stroke="#666666" points="337,-92.5 212,-92.5 212,-62.5 337,-62.5 337,-92.5"/>
<text text-anchor="start" x="220" y="-80.5" font-family="Courier,monospace" font-size="10.00">DataFileInterface&lt;</text>
<text text-anchor="middle" x="274.5" y="-69.5" font-family="Courier,monospace" font-size="10.00"> MooseObject &gt;</text>
</a>
</g>
</g>
<!-- Node11&#45;&gt;Node5 -->
<g id="edge10" class="edge">
<title>Node11&#45;&gt;Node5</title>
<path fill="none" stroke="#63b8ff" d="M347.62,-94.35C353.32,-96.73 358.86,-99.44 364,-102.5 383.71,-114.24 380.34,-127.67 400,-139.5 406.29,-143.29 413.43,-146.32 420.55,-148.73"/>
<polygon fill="#63b8ff" stroke="#63b8ff" points="349.23,-91.22 338.64,-90.94 346.74,-97.76 349.23,-91.22"/>
</g>
<!-- Node12 -->
<g id="node12" class="node">
<title>Node12</title>
<g id="a_node12"><a xlink:href="classSetupInterface.html" target="_top" xlink:title=" ">
<polygon fill="white" stroke="#666666" points="513,-130 412,-130 412,-111 513,-111 513,-130"/>
<text text-anchor="middle" x="462.5" y="-118" font-family="Courier,monospace" font-size="10.00">SetupInterface</text>
</a>
</g>
</g>
<!-- Node12&#45;&gt;Node4 -->
<g id="edge11" class="edge">
<title>Node12&#45;&gt;Node4</title>
<path fill="none" stroke="#63b8ff" d="M524.69,-111.49C537.13,-109.66 549.73,-107.8 560.63,-106.19"/>
<polygon fill="#63b8ff" stroke="#63b8ff" points="524.26,-108.01 514.87,-112.93 525.28,-114.94 524.26,-108.01"/>
</g>
<!-- Node13 -->
<g id="node13" class="node">
<title>Node13</title>
<g id="a_node13"><a xlink:href="classRestartable.html" target="_top" xlink:title="A class for creating restricted objects.">
<polygon fill="white" stroke="#666666" points="504,-93 421,-93 421,-74 504,-74 504,-93"/>
<text text-anchor="middle" x="462.5" y="-81" font-family="Courier,monospace" font-size="10.00">Restartable</text>
</a>
</g>
</g>
<!-- Node13&#45;&gt;Node4 -->
<g id="edge12" class="edge">
<title>Node13&#45;&gt;Node4</title>
<path fill="none" stroke="#63b8ff" d="M515.68,-90.78C530.86,-92.9 546.99,-95.15 560.53,-97.04"/>
<polygon fill="#63b8ff" stroke="#63b8ff" points="516.2,-87.32 505.82,-89.4 515.24,-94.25 516.2,-87.32"/>
</g>
<!-- Node14 -->
<g id="node14" class="node">
<title>Node14</title>
<g id="a_node14"><a xlink:href="classPerfGraphInterface.html" target="_top" xlink:title="Interface for objects interacting with the PerfGraph.">
<polygon fill="white" stroke="#666666" points="525,-56 400,-56 400,-37 525,-37 525,-56"/>
<text text-anchor="middle" x="462.5" y="-44" font-family="Courier,monospace" font-size="10.00">PerfGraphInterface</text>
</a>
</g>
</g>
<!-- Node14&#45;&gt;Node4 -->
<g id="edge13" class="edge">
<title>Node14&#45;&gt;Node4</title>
<path fill="none" stroke="#63b8ff" d="M510.48,-59.99C515.43,-61.72 520.35,-63.56 525,-65.5 543.02,-73.01 562.6,-83.76 576.01,-91.56"/>
<polygon fill="#63b8ff" stroke="#63b8ff" points="511.71,-56.71 501.12,-56.9 509.51,-63.36 511.71,-56.71"/>
</g>
<!-- Node16 -->
<g id="node16" class="node">
<title>Node16</title>
<g id="a_node16"><a xlink:href="classMultiAppGeneralFieldNearestLocationTransfer.html" target="_top" xlink:title="Performs a geometric interpolation based on the values at the nearest nodes to a target location in t...">
<polygon fill="white" stroke="#666666" points="1629,-269.5 1450,-269.5 1450,-239.5 1629,-239.5 1629,-269.5"/>
<text text-anchor="start" x="1458" y="-257.5" font-family="Courier,monospace" font-size="10.00">MultiAppGeneralFieldNearest</text>
<text text-anchor="middle" x="1539.5" y="-246.5" font-family="Courier,monospace" font-size="10.00">LocationTransfer</text>
</a>
</g>
</g>
<!-- Node15&#45;&gt;Node16 -->
<g id="edge15" class="edge">
<title>Node15&#45;&gt;Node16</title>
<path fill="none" stroke="#63b8ff" d="M1371.28,-218.83C1400.21,-225 1435.53,-232.53 1466.24,-239.08"/>
<polygon fill="#63b8ff" stroke="#63b8ff" points="1372.11,-215.42 1361.6,-216.76 1370.65,-222.27 1372.11,-215.42"/>
</g>
<!-- Node17 -->
<g id="node17" class="node">
<title>Node17</title>
<g id="a_node17"><a xlink:href="classMultiAppGeneralFieldShapeEvaluationTransfer.html" target="_top" xlink:title="Evaluates origin shape functions to compute the target variables.">
<polygon fill="white" stroke="#666666" points="1623,-221.5 1456,-221.5 1456,-191.5 1623,-191.5 1623,-221.5"/>
<text text-anchor="start" x="1464" y="-209.5" font-family="Courier,monospace" font-size="10.00">MultiAppGeneralFieldShape</text>
<text text-anchor="middle" x="1539.5" y="-198.5" font-family="Courier,monospace" font-size="10.00">EvaluationTransfer</text>
</a>
</g>
</g>
<!-- Node15&#45;&gt;Node17 -->
<g id="edge16" class="edge">
<title>Node15&#45;&gt;Node17</title>
<path fill="none" stroke="#63b8ff" d="M1416.73,-206.5C1429.77,-206.5 1442.97,-206.5 1455.63,-206.5"/>
<polygon fill="#63b8ff" stroke="#63b8ff" points="1416.85,-203 1406.85,-206.5 1416.85,-210 1416.85,-203"/>
</g>
<!-- Node18 -->
<g id="node18" class="node">
<title>Node18</title>
<g id="a_node18"><a xlink:href="classMultiAppGeneralFieldUserObjectTransfer.html" target="_top" xlink:title="Transfers values computed in the origin mesh by the source user object spatialValue() routine at loca...">
<polygon fill="white" stroke="#666666" points="1620,-173.5 1459,-173.5 1459,-143.5 1620,-143.5 1620,-173.5"/>
<text text-anchor="start" x="1467" y="-161.5" font-family="Courier,monospace" font-size="10.00">MultiAppGeneralFieldUser</text>
<text text-anchor="middle" x="1539.5" y="-150.5" font-family="Courier,monospace" font-size="10.00">ObjectTransfer</text>
</a>
</g>
</g>
<!-- Node15&#45;&gt;Node18 -->
<g id="edge17" class="edge">
<title>Node15&#45;&gt;Node18</title>
<path fill="none" stroke="#63b8ff" d="M1379.87,-194.36C1391.27,-192.16 1402.99,-189.82 1414,-187.5 1433.65,-183.36 1454.97,-178.52 1474.32,-173.99"/>
<polygon fill="#63b8ff" stroke="#63b8ff" points="1379.26,-190.91 1370.1,-196.23 1380.58,-197.79 1379.26,-190.91"/>
</g>
</g>
</svg>
