<?xml version="1.0" encoding="UTF-8" standalone="no"?>
<!DOCTYPE svg PUBLIC "-//W3C//DTD SVG 1.1//EN"
 "http://www.w3.org/Graphics/SVG/1.1/DTD/svg11.dtd">
<!-- Generated by graphviz version 7.0.5 (20221223.1930)
 -->
<!-- Title: PropertyValue Pages: 1 -->
<svg width="527pt" height="686pt"
 viewBox="0.00 0.00 527.00 686.00" xmlns="http://www.w3.org/2000/svg" xmlns:xlink="http://www.w3.org/1999/xlink">
<g id="graph0" class="graph" transform="scale(1 1) rotate(0) translate(4 682)">
<title>PropertyValue</title>
<!-- Node1 -->
<g id="node1" class="node">
<title>Node1</title>
<g id="a_node1"><a xlink:title="Abstract definition of a property value.">
<polygon fill="#999999" stroke="#666666" points="95,-432.5 0,-432.5 0,-413.5 95,-413.5 95,-432.5"/>
<text text-anchor="middle" x="47.5" y="-420.5" font-family="Courier,monospace" font-size="10.00">PropertyValue</text>
</a>
</g>
</g>
<!-- Node2 -->
<g id="node2" class="node">
<title>Node2</title>
<g id="a_node2"><a xlink:href="classMaterialPropertyBase.html" target="_top" xlink:title=" ">
<polygon fill="white" stroke="#666666" points="286,-678 149,-678 149,-648 286,-648 286,-678"/>
<text text-anchor="start" x="157" y="-666" font-family="Courier,monospace" font-size="10.00">MaterialPropertyBase</text>
<text text-anchor="middle" x="217.5" y="-655" font-family="Courier,monospace" font-size="10.00">&lt; Real, true &gt;</text>
</a>
</g>
</g>
<!-- Node1&#45;&gt;Node2 -->
<g id="edge1" class="edge">
<title>Node1&#45;&gt;Node2</title>
<path fill="none" stroke="#63b8ff" d="M50.38,-444.18C55.37,-487.35 72.84,-585.91 131,-639 136.24,-643.78 142.35,-647.62 148.86,-650.7"/>
<polygon fill="#63b8ff" stroke="#63b8ff" points="53.88,-443.99 49.38,-434.4 46.92,-444.7 53.88,-443.99"/>
</g>
<!-- Node3 -->
<g id="node3" class="node">
<title>Node3</title>
<g id="a_node3"><a xlink:href="classMaterialPropertyBase.html" target="_top" xlink:title=" ">
<polygon fill="white" stroke="#666666" points="286,-630 149,-630 149,-600 286,-600 286,-630"/>
<text text-anchor="start" x="157" y="-618" font-family="Courier,monospace" font-size="10.00">MaterialPropertyBase</text>
<text text-anchor="middle" x="217.5" y="-607" font-family="Courier,monospace" font-size="10.00">&lt; T, true &gt;</text>
</a>
</g>
</g>
<!-- Node1&#45;&gt;Node3 -->
<g id="edge2" class="edge">
<title>Node1&#45;&gt;Node3</title>
<path fill="none" stroke="#63b8ff" d="M52.83,-443.57C61.38,-479.06 83.86,-551.77 131,-591 136.33,-595.44 142.43,-599.06 148.87,-602.01"/>
<polygon fill="#63b8ff" stroke="#63b8ff" points="56.32,-443.14 50.7,-434.16 49.49,-444.69 56.32,-443.14"/>
</g>
<!-- Node5 -->
<g id="node5" class="node">
<title>Node5</title>
<g id="a_node5"><a xlink:href="classMaterialPropertyBase.html" target="_top" xlink:title=" ">
<polygon fill="white" stroke="#666666" points="286,-582 149,-582 149,-552 286,-552 286,-582"/>
<text text-anchor="start" x="157" y="-570" font-family="Courier,monospace" font-size="10.00">MaterialPropertyBase</text>
<text text-anchor="middle" x="217.5" y="-559" font-family="Courier,monospace" font-size="10.00">&lt; Real, false &gt;</text>
</a>
</g>
</g>
<!-- Node1&#45;&gt;Node5 -->
<g id="edge4" class="edge">
<title>Node1&#45;&gt;Node5</title>
<path fill="none" stroke="#63b8ff" d="M57.04,-443.26C69.4,-470.12 94.82,-517.11 131,-543 136.39,-546.86 142.38,-550.1 148.62,-552.82"/>
<polygon fill="#63b8ff" stroke="#63b8ff" points="60.27,-441.92 53.03,-434.18 53.87,-444.74 60.27,-441.92"/>
</g>
<!-- Node6 -->
<g id="node6" class="node">
<title>Node6</title>
<g id="a_node6"><a xlink:href="classMaterialPropertyBase.html" target="_top" xlink:title=" ">
<polygon fill="white" stroke="#666666" points="301,-534 134,-534 134,-504 301,-504 301,-534"/>
<text text-anchor="start" x="142" y="-522" font-family="Courier,monospace" font-size="10.00">MaterialPropertyBase</text>
<text text-anchor="middle" x="217.5" y="-511" font-family="Courier,monospace" font-size="10.00">&lt; RankFourTensor, false &gt;</text>
</a>
</g>
</g>
<!-- Node1&#45;&gt;Node6 -->
<g id="edge5" class="edge">
<title>Node1&#45;&gt;Node6</title>
<path fill="none" stroke="#63b8ff" d="M64.71,-441.16C80.22,-457.47 105.04,-480.96 131,-495 136.97,-498.23 143.41,-501.05 149.99,-503.52"/>
<polygon fill="#63b8ff" stroke="#63b8ff" points="67.49,-439.01 58.13,-434.05 62.36,-443.76 67.49,-439.01"/>
</g>
<!-- Node7 -->
<g id="node7" class="node">
<title>Node7</title>
<g id="a_node7"><a xlink:href="classMaterialPropertyBase.html" target="_top" xlink:title=" ">
<polygon fill="white" stroke="#666666" points="298,-486 137,-486 137,-456 298,-456 298,-486"/>
<text text-anchor="start" x="145" y="-474" font-family="Courier,monospace" font-size="10.00">MaterialPropertyBase</text>
<text text-anchor="middle" x="217.5" y="-463" font-family="Courier,monospace" font-size="10.00">&lt; RankTwoTensor, false &gt;</text>
</a>
</g>
</g>
<!-- Node1&#45;&gt;Node7 -->
<g id="edge6" class="edge">
<title>Node1&#45;&gt;Node7</title>
<path fill="none" stroke="#63b8ff" d="M93.44,-436.16C105.62,-439.7 118.81,-443.52 131,-447 140.78,-449.8 151.21,-452.75 161.29,-455.58"/>
<polygon fill="#63b8ff" stroke="#63b8ff" points="94.63,-432.86 84.05,-433.42 92.67,-439.58 94.63,-432.86"/>
</g>
<!-- Node8 -->
<g id="node8" class="node">
<title>Node8</title>
<g id="a_node8"><a xlink:href="classMaterialPropertyBase.html" target="_top" xlink:title=" ">
<polygon fill="white" stroke="#666666" points="286,-438 149,-438 149,-408 286,-408 286,-438"/>
<text text-anchor="start" x="157" y="-426" font-family="Courier,monospace" font-size="10.00">MaterialPropertyBase</text>
<text text-anchor="middle" x="217.5" y="-415" font-family="Courier,monospace" font-size="10.00">&lt; T, false &gt;</text>
</a>
</g>
</g>
<!-- Node1&#45;&gt;Node8 -->
<g id="edge7" class="edge">
<title>Node1&#45;&gt;Node8</title>
<path fill="none" stroke="#63b8ff" d="M106.44,-423C120.03,-423 134.62,-423 148.6,-423"/>
<polygon fill="#63b8ff" stroke="#63b8ff" points="106.81,-419.5 96.81,-423 106.81,-426.5 106.81,-419.5"/>
</g>
<!-- Node10 -->
<g id="node10" class="node">
<title>Node10</title>
<g id="a_node10"><a xlink:href="classMaterialPropertyBase.html" target="_top" xlink:title=" ">
<polygon fill="white" stroke="#666666" points="301,-390 134,-390 134,-360 301,-360 301,-390"/>
<text text-anchor="start" x="142" y="-378" font-family="Courier,monospace" font-size="10.00">MaterialPropertyBase</text>
<text text-anchor="middle" x="217.5" y="-367" font-family="Courier,monospace" font-size="10.00">&lt; RealVectorValue, true &gt;</text>
</a>
</g>
</g>
<!-- Node1&#45;&gt;Node10 -->
<g id="edge9" class="edge">
<title>Node1&#45;&gt;Node10</title>
<path fill="none" stroke="#63b8ff" d="M93.44,-409.84C105.62,-406.3 118.81,-402.48 131,-399 140.78,-396.2 151.21,-393.25 161.29,-390.42"/>
<polygon fill="#63b8ff" stroke="#63b8ff" points="92.67,-406.42 84.05,-412.58 94.63,-413.14 92.67,-406.42"/>
</g>
<!-- Node11 -->
<g id="node11" class="node">
<title>Node11</title>
<g id="a_node11"><a xlink:href="classMaterialPropertyBase.html" target="_top" xlink:title=" ">
<polygon fill="white" stroke="#666666" points="304,-342 131,-342 131,-312 304,-312 304,-342"/>
<text text-anchor="start" x="139" y="-330" font-family="Courier,monospace" font-size="10.00">MaterialPropertyBase</text>
<text text-anchor="middle" x="217.5" y="-319" font-family="Courier,monospace" font-size="10.00">&lt; RealEigenVector, false &gt;</text>
</a>
</g>
</g>
<!-- Node1&#45;&gt;Node11 -->
<g id="edge10" class="edge">
<title>Node1&#45;&gt;Node11</title>
<path fill="none" stroke="#63b8ff" d="M64.71,-404.84C80.22,-388.53 105.04,-365.04 131,-351 136.97,-347.77 143.41,-344.95 149.99,-342.48"/>
<polygon fill="#63b8ff" stroke="#63b8ff" points="62.36,-402.24 58.13,-411.95 67.49,-406.99 62.36,-402.24"/>
</g>
<!-- Node12 -->
<g id="node12" class="node">
<title>Node12</title>
<g id="a_node12"><a xlink:href="classMaterialPropertyBase.html" target="_top" xlink:title=" ">
<polygon fill="white" stroke="#666666" points="304,-294 131,-294 131,-264 304,-264 304,-294"/>
<text text-anchor="start" x="139" y="-282" font-family="Courier,monospace" font-size="10.00">MaterialPropertyBase</text>
<text text-anchor="middle" x="217.5" y="-271" font-family="Courier,monospace" font-size="10.00">&lt; RealEigenMatrix, false &gt;</text>
</a>
</g>
</g>
<!-- Node1&#45;&gt;Node12 -->
<g id="edge11" class="edge">
<title>Node1&#45;&gt;Node12</title>
<path fill="none" stroke="#63b8ff" d="M57.04,-402.74C69.4,-375.88 94.82,-328.89 131,-303 135.64,-299.68 140.72,-296.82 146.03,-294.35"/>
<polygon fill="#63b8ff" stroke="#63b8ff" points="53.87,-401.26 53.03,-411.82 60.27,-404.08 53.87,-401.26"/>
</g>
<!-- Node13 -->
<g id="node13" class="node">
<title>Node13</title>
<g id="a_node13"><a xlink:href="classMaterialPropertyBase.html" target="_top" xlink:title=" ">
<polygon fill="white" stroke="#666666" points="295,-246 140,-246 140,-216 295,-216 295,-246"/>
<text text-anchor="start" x="148" y="-234" font-family="Courier,monospace" font-size="10.00">MaterialPropertyBase</text>
<text text-anchor="middle" x="217.5" y="-223" font-family="Courier,monospace" font-size="10.00">&lt; unsigned int, false &gt;</text>
</a>
</g>
</g>
<!-- Node1&#45;&gt;Node13 -->
<g id="edge12" class="edge">
<title>Node1&#45;&gt;Node13</title>
<path fill="none" stroke="#63b8ff" d="M52.83,-402.43C61.38,-366.94 83.86,-294.23 131,-255 134.91,-251.75 139.23,-248.93 143.8,-246.5"/>
<polygon fill="#63b8ff" stroke="#63b8ff" points="49.49,-401.31 50.7,-411.84 56.32,-402.86 49.49,-401.31"/>
</g>
<!-- Node14 -->
<g id="node14" class="node">
<title>Node14</title>
<g id="a_node14"><a xlink:href="classMaterialPropertyBase.html" target="_top" xlink:title="Concrete definition of a parameter value for a specified type.">
<polygon fill="white" stroke="#666666" points="286,-198 149,-198 149,-168 286,-168 286,-198"/>
<text text-anchor="start" x="157" y="-186" font-family="Courier,monospace" font-size="10.00">MaterialPropertyBase</text>
<text text-anchor="middle" x="217.5" y="-175" font-family="Courier,monospace" font-size="10.00">&lt; T, is_ad &gt;</text>
</a>
</g>
</g>
<!-- Node1&#45;&gt;Node14 -->
<g id="edge13" class="edge">
<title>Node1&#45;&gt;Node14</title>
<path fill="none" stroke="#63b8ff" d="M50.38,-401.82C55.37,-358.65 72.84,-260.09 131,-207 136.24,-202.22 142.35,-198.38 148.86,-195.3"/>
<polygon fill="#63b8ff" stroke="#63b8ff" points="46.92,-401.3 49.38,-411.6 53.88,-402.01 46.92,-401.3"/>
</g>
<!-- Node4 -->
<g id="node4" class="node">
<title>Node4</title>
<g id="a_node4"><a xlink:href="classADMaterialProperty.html" target="_top" xlink:title=" ">
<polygon fill="white" stroke="#666666" points="507,-624.5 352,-624.5 352,-605.5 507,-605.5 507,-624.5"/>
<text text-anchor="middle" x="429.5" y="-612.5" font-family="Courier,monospace" font-size="10.00">ADMaterialProperty&lt; T &gt;</text>
</a>
</g>
</g>
<!-- Node3&#45;&gt;Node4 -->
<g id="edge3" class="edge">
<title>Node3&#45;&gt;Node4</title>
<path fill="none" stroke="#63b8ff" d="M297.83,-615C315.49,-615 334.18,-615 351.73,-615"/>
<polygon fill="#63b8ff" stroke="#63b8ff" points="297.9,-611.5 287.9,-615 297.9,-618.5 297.9,-611.5"/>
</g>
<!-- Node9 -->
<g id="node9" class="node">
<title>Node9</title>
<g id="a_node9"><a xlink:href="classMaterialProperty.html" target="_top" xlink:title=" ">
<polygon fill="white" stroke="#666666" points="501,-432.5 358,-432.5 358,-413.5 501,-413.5 501,-432.5"/>
<text text-anchor="middle" x="429.5" y="-420.5" font-family="Courier,monospace" font-size="10.00">MaterialProperty&lt; T &gt;</text>
</a>
</g>
</g>
<!-- Node8&#45;&gt;Node9 -->
<g id="edge8" class="edge">
<title>Node8&#45;&gt;Node9</title>
<path fill="none" stroke="#63b8ff" d="M297.79,-423C317.44,-423 338.37,-423 357.59,-423"/>
<polygon fill="#63b8ff" stroke="#63b8ff" points="297.9,-419.5 287.9,-423 297.9,-426.5 297.9,-419.5"/>
</g>
<!-- Node15 -->
<g id="node15" class="node">
<title>Node15</title>
<g id="a_node15"><a xlink:href="classADMaterialProperty.html" target="_top" xlink:title=" ">
<polygon fill="white" stroke="#666666" points="492,-356 367,-356 367,-326 492,-326 492,-356"/>
<text text-anchor="start" x="375" y="-344" font-family="Courier,monospace" font-size="10.00">ADMaterialProperty</text>
<text text-anchor="middle" x="429.5" y="-333" font-family="Courier,monospace" font-size="10.00">&lt; Real &gt;</text>
</a>
</g>
</g>
<!-- Node14&#45;&gt;Node15 -->
<g id="edge14" class="edge">
<title>Node14&#45;&gt;Node15</title>
<path fill="none" stroke="#63b8ff" d="M296.24,-200.73C299,-202.62 301.6,-204.7 304,-207 341.14,-242.59 302.7,-281.57 340,-317 347.5,-324.13 356.9,-329.18 366.75,-332.76"/>
<polygon fill="#63b8ff" stroke="#63b8ff" points="298.1,-197.76 287.68,-195.8 294.6,-203.83 298.1,-197.76"/>
</g>
<!-- Node16 -->
<g id="node16" class="node">
<title>Node16</title>
<g id="a_node16"><a xlink:href="classADMaterialProperty.html" target="_top" xlink:title=" ">
<polygon fill="white" stroke="#666666" points="495,-308 364,-308 364,-278 495,-278 495,-308"/>
<text text-anchor="start" x="372" y="-296" font-family="Courier,monospace" font-size="10.00">ADMaterialProperty</text>
<text text-anchor="middle" x="429.5" y="-285" font-family="Courier,monospace" font-size="10.00">&lt; RealVectorValue &gt;</text>
</a>
</g>
</g>
<!-- Node14&#45;&gt;Node16 -->
<g id="edge15" class="edge">
<title>Node14&#45;&gt;Node16</title>
<path fill="none" stroke="#63b8ff" d="M296.33,-201.78C299,-203.38 301.57,-205.12 304,-207 329.19,-226.52 314.73,-249.6 340,-269 347.07,-274.43 355.28,-278.63 363.8,-281.88"/>
<polygon fill="#63b8ff" stroke="#63b8ff" points="298.09,-198.76 287.6,-197.26 294.87,-204.97 298.09,-198.76"/>
</g>
<!-- Node17 -->
<g id="node17" class="node">
<title>Node17</title>
<g id="a_node17"><a xlink:href="classMaterialProperty.html" target="_top" xlink:title=" ">
<polygon fill="white" stroke="#666666" points="510,-259.5 349,-259.5 349,-240.5 510,-240.5 510,-259.5"/>
<text text-anchor="middle" x="429.5" y="-247.5" font-family="Courier,monospace" font-size="10.00">MaterialProperty&lt; Real &gt;</text>
</a>
</g>
</g>
<!-- Node14&#45;&gt;Node17 -->
<g id="edge16" class="edge">
<title>Node14&#45;&gt;Node17</title>
<path fill="none" stroke="#63b8ff" d="M292.46,-202.16C296.41,-203.68 300.28,-205.29 304,-207 321.47,-215.03 322.29,-223.52 340,-231 348.69,-234.67 358.16,-237.66 367.58,-240.09"/>
<polygon fill="#63b8ff" stroke="#63b8ff" points="293.9,-198.96 283.31,-198.87 291.54,-205.54 293.9,-198.96"/>
</g>
<!-- Node18 -->
<g id="node18" class="node">
<title>Node18</title>
<g id="a_node18"><a xlink:href="classMaterialProperty.html" target="_top" xlink:title=" ">
<polygon fill="white" stroke="#666666" points="516,-222 343,-222 343,-192 516,-192 516,-222"/>
<text text-anchor="start" x="351" y="-210" font-family="Courier,monospace" font-size="10.00">MaterialProperty&lt; RankFour</text>
<text text-anchor="middle" x="429.5" y="-199" font-family="Courier,monospace" font-size="10.00">Tensor &gt;</text>
</a>
</g>
</g>
<!-- Node14&#45;&gt;Node18 -->
<g id="edge17" class="edge">
<title>Node14&#45;&gt;Node18</title>
<path fill="none" stroke="#63b8ff" d="M297.53,-192.03C312.31,-193.72 327.82,-195.49 342.79,-197.2"/>
<polygon fill="#63b8ff" stroke="#63b8ff" points="298.23,-188.59 287.89,-190.93 297.43,-195.54 298.23,-188.59"/>
</g>
<!-- Node19 -->
<g id="node19" class="node">
<title>Node19</title>
<g id="a_node19"><a xlink:href="classMaterialProperty.html" target="_top" xlink:title=" ">
<polygon fill="white" stroke="#666666" points="513,-174 346,-174 346,-144 513,-144 513,-174"/>
<text text-anchor="start" x="354" y="-162" font-family="Courier,monospace" font-size="10.00">MaterialProperty&lt; RankTwo</text>
<text text-anchor="middle" x="429.5" y="-151" font-family="Courier,monospace" font-size="10.00">Tensor &gt;</text>
</a>
</g>
</g>
<!-- Node14&#45;&gt;Node19 -->
<g id="edge18" class="edge">
<title>Node14&#45;&gt;Node19</title>
<path fill="none" stroke="#63b8ff" d="M297.67,-173.95C313.4,-172.15 329.95,-170.26 345.79,-168.45"/>
<polygon fill="#63b8ff" stroke="#63b8ff" points="297.43,-170.46 287.89,-175.07 298.23,-177.41 297.43,-170.46"/>
</g>
<!-- Node20 -->
<g id="node20" class="node">
<title>Node20</title>
<g id="a_node20"><a xlink:href="classMaterialProperty.html" target="_top" xlink:title=" ">
<polygon fill="white" stroke="#666666" points="519,-126 340,-126 340,-96 519,-96 519,-126"/>
<text text-anchor="start" x="348" y="-114" font-family="Courier,monospace" font-size="10.00">MaterialProperty&lt; RealEigen</text>
<text text-anchor="middle" x="429.5" y="-103" font-family="Courier,monospace" font-size="10.00">Vector &gt;</text>
</a>
</g>
</g>
<!-- Node14&#45;&gt;Node20 -->
<g id="edge19" class="edge">
<title>Node14&#45;&gt;Node20</title>
<path fill="none" stroke="#63b8ff" d="M265.11,-163.18C287.53,-154 314.94,-143.32 340,-135 349.07,-131.99 358.74,-129.07 368.25,-126.37"/>
<polygon fill="#63b8ff" stroke="#63b8ff" points="263.84,-159.92 255.93,-166.97 266.51,-166.39 263.84,-159.92"/>
</g>
<!-- Node21 -->
<g id="node21" class="node">
<title>Node21</title>
<g id="a_node21"><a xlink:href="classMaterialProperty.html" target="_top" xlink:title=" ">
<polygon fill="white" stroke="#666666" points="519,-78 340,-78 340,-48 519,-48 519,-78"/>
<text text-anchor="start" x="348" y="-66" font-family="Courier,monospace" font-size="10.00">MaterialProperty&lt; RealEigen</text>
<text text-anchor="middle" x="429.5" y="-55" font-family="Courier,monospace" font-size="10.00">Matrix &gt;</text>
</a>
</g>
</g>
<!-- Node14&#45;&gt;Node21 -->
<g id="edge20" class="edge">
<title>Node14&#45;&gt;Node21</title>
<path fill="none" stroke="#63b8ff" d="M241.68,-159.9C264.75,-138.14 302.11,-106.09 340,-87 346.4,-83.78 353.28,-80.94 360.28,-78.47"/>
<polygon fill="#63b8ff" stroke="#63b8ff" points="239.45,-157.19 234.66,-166.64 244.29,-162.24 239.45,-157.19"/>
</g>
<!-- Node22 -->
<g id="node22" class="node">
<title>Node22</title>
<g id="a_node22"><a xlink:href="classMaterialProperty.html" target="_top" xlink:title=" ">
<polygon fill="white" stroke="#666666" points="516,-30 343,-30 343,0 516,0 516,-30"/>
<text text-anchor="start" x="351" y="-18" font-family="Courier,monospace" font-size="10.00">MaterialProperty&lt; unsigned</text>
<text text-anchor="middle" x="429.5" y="-7" font-family="Courier,monospace" font-size="10.00"> int &gt;</text>
</a>
</g>
</g>
<!-- Node14&#45;&gt;Node22 -->
<g id="edge21" class="edge">
<title>Node14&#45;&gt;Node22</title>
<path fill="none" stroke="#63b8ff" d="M232.78,-158.14C252.65,-125.79 291.71,-69.77 340,-39 345.1,-35.75 350.64,-32.93 356.37,-30.5"/>
<polygon fill="#63b8ff" stroke="#63b8ff" points="229.93,-156.08 227.79,-166.46 235.94,-159.68 229.93,-156.08"/>
</g>
</g>
</svg>
