<?xml version="1.0" encoding="UTF-8" standalone="no"?>
<!DOCTYPE svg PUBLIC "-//W3C//DTD SVG 1.1//EN"
 "http://www.w3.org/Graphics/SVG/1.1/DTD/svg11.dtd">
<!-- Generated by graphviz version 7.0.5 (20221223.1930)
 -->
<!-- Title: ReporterVectorContext&lt; T &gt; Pages: 1 -->
<svg width="181pt" height="203pt"
 viewBox="0.00 0.00 181.00 203.00" xmlns="http://www.w3.org/2000/svg" xmlns:xlink="http://www.w3.org/1999/xlink">
<g id="graph0" class="graph" transform="scale(1 1) rotate(0) translate(4 199)">
<title>ReporterVectorContext&lt; T &gt;</title>
<!-- Node1 -->
<g id="node1" class="node">
<title>Node1</title>
<g id="a_node1"><a xlink:title="This context is specific for vector types of reporters, mainly for declaring a vector of the type fro...">
<polygon fill="#999999" stroke="#666666" points="173,-19 0,-19 0,0 173,0 173,-19"/>
<text text-anchor="middle" x="86.5" y="-7" font-family="Courier,monospace" font-size="10.00">ReporterVectorContext&lt; T &gt;</text>
</a>
</g>
</g>
<!-- Node2 -->
<g id="node2" class="node">
<title>Node2</title>
<g id="a_node2"><a xlink:href="classReporterContext.html" target="_top" xlink:title=" ">
<polygon fill="white" stroke="#666666" points="155,-85 18,-85 18,-55 155,-55 155,-85"/>
<text text-anchor="start" x="26" y="-73" font-family="Courier,monospace" font-size="10.00">ReporterContext&lt; std</text>
<text text-anchor="middle" x="86.5" y="-62" font-family="Courier,monospace" font-size="10.00">::vector&lt; T &gt; &gt;</text>
</a>
</g>
</g>
<!-- Node2&#45;&gt;Node1 -->
<g id="edge1" class="edge">
<title>Node2&#45;&gt;Node1</title>
<path fill="none" stroke="#63b8ff" d="M86.5,-43.3C86.5,-34.65 86.5,-25.58 86.5,-19.18"/>
<polygon fill="#63b8ff" stroke="#63b8ff" points="83,-43.03 86.5,-53.03 90,-43.03 83,-43.03"/>
</g>
<!-- Node3 -->
<g id="node3" class="node">
<title>Node3</title>
<g id="a_node3"><a xlink:href="classReporterContextBase.html" target="_top" xlink:title="This is a helper class to aid with parallel communication of compute Reporter values as well as provi...">
<polygon fill="white" stroke="#666666" points="152,-140 21,-140 21,-121 152,-121 152,-140"/>
<text text-anchor="middle" x="86.5" y="-128" font-family="Courier,monospace" font-size="10.00">ReporterContextBase</text>
</a>
</g>
</g>
<!-- Node3&#45;&gt;Node2 -->
<g id="edge2" class="edge">
<title>Node3&#45;&gt;Node2</title>
<path fill="none" stroke="#63b8ff" d="M86.5,-109.51C86.5,-101.49 86.5,-92.43 86.5,-85.11"/>
<polygon fill="#63b8ff" stroke="#63b8ff" points="83,-109.35 86.5,-119.35 90,-109.35 83,-109.35"/>
</g>
<!-- Node4 -->
<g id="node4" class="node">
<title>Node4</title>
<g id="a_node4"><a xlink:title=" ">
<polygon fill="white" stroke="#666666" points="164,-195 9,-195 9,-176 164,-176 164,-195"/>
<text text-anchor="middle" x="86.5" y="-183" font-family="Courier,monospace" font-size="10.00">libMesh::ParallelObject</text>
</a>
</g>
</g>
<!-- Node4&#45;&gt;Node3 -->
<g id="edge3" class="edge">
<title>Node4&#45;&gt;Node3</title>
<path fill="none" stroke="#63b8ff" d="M86.5,-164.35C86.5,-156.1 86.5,-146.97 86.5,-140.44"/>
<polygon fill="#63b8ff" stroke="#63b8ff" points="83,-164.23 86.5,-174.23 90,-164.23 83,-164.23"/>
</g>
</g>
</svg>
