<?xml version="1.0" encoding="UTF-8" standalone="no"?>
<!DOCTYPE svg PUBLIC "-//W3C//DTD SVG 1.1//EN"
 "http://www.w3.org/Graphics/SVG/1.1/DTD/svg11.dtd">
<!-- Generated by graphviz version 7.0.5 (20221223.1930)
 -->
<!-- Title: GhostLowerDElems Pages: 1 -->
<svg width="885pt" height="187pt"
 viewBox="0.00 0.00 885.00 186.50" xmlns="http://www.w3.org/2000/svg" xmlns:xlink="http://www.w3.org/1999/xlink">
<g id="graph0" class="graph" transform="scale(1 1) rotate(0) translate(4 182.5)">
<title>GhostLowerDElems</title>
<!-- Node1 -->
<g id="node1" class="node">
<title>Node1</title>
<g id="a_node1"><a xlink:title=" ">
<polygon fill="#999999" stroke="#666666" points="877,-85.5 764,-85.5 764,-66.5 877,-66.5 877,-85.5"/>
<text text-anchor="middle" x="820.5" y="-73.5" font-family="Courier,monospace" font-size="10.00">GhostLowerDElems</text>
</a>
</g>
</g>
<!-- Node2 -->
<g id="node2" class="node">
<title>Node2</title>
<g id="a_node2"><a xlink:href="classRelationshipManager.html" target="_top" xlink:title="RelationshipManagers are used for describing what kinds of non&#45;local resources are needed for an obje...">
<polygon fill="white" stroke="#666666" points="728,-85.5 597,-85.5 597,-66.5 728,-66.5 728,-85.5"/>
<text text-anchor="middle" x="662.5" y="-73.5" font-family="Courier,monospace" font-size="10.00">RelationshipManager</text>
</a>
</g>
</g>
<!-- Node2&#45;&gt;Node1 -->
<g id="edge1" class="edge">
<title>Node2&#45;&gt;Node1</title>
<path fill="none" stroke="#63b8ff" d="M739.65,-76C747.72,-76 755.82,-76 763.59,-76"/>
<polygon fill="#63b8ff" stroke="#63b8ff" points="739.82,-72.5 729.82,-76 739.82,-79.5 739.82,-72.5"/>
</g>
<!-- Node3 -->
<g id="node3" class="node">
<title>Node3</title>
<g id="a_node3"><a xlink:href="classMooseObject.html" target="_top" xlink:title="Every object that can be built by the factory should be derived from this class.">
<polygon fill="white" stroke="#666666" points="522,-104.5 439,-104.5 439,-85.5 522,-85.5 522,-104.5"/>
<text text-anchor="middle" x="480.5" y="-92.5" font-family="Courier,monospace" font-size="10.00">MooseObject</text>
</a>
</g>
</g>
<!-- Node3&#45;&gt;Node2 -->
<g id="edge2" class="edge">
<title>Node3&#45;&gt;Node2</title>
<path fill="none" stroke="#63b8ff" d="M533.59,-89.5C553.33,-87.42 576.05,-85.02 596.81,-82.83"/>
<polygon fill="#63b8ff" stroke="#63b8ff" points="533.43,-86 523.85,-90.53 534.16,-92.96 533.43,-86"/>
</g>
<!-- Node4 -->
<g id="node4" class="node">
<title>Node4</title>
<g id="a_node4"><a xlink:href="classMooseBase.html" target="_top" xlink:title="Base class for everything in MOOSE with a name and a type.">
<polygon fill="white" stroke="#666666" points="310,-178.5 239,-178.5 239,-159.5 310,-159.5 310,-178.5"/>
<text text-anchor="middle" x="274.5" y="-166.5" font-family="Courier,monospace" font-size="10.00">MooseBase</text>
</a>
</g>
</g>
<!-- Node4&#45;&gt;Node3 -->
<g id="edge3" class="edge">
<title>Node4&#45;&gt;Node3</title>
<path fill="none" stroke="#63b8ff" d="M321.73,-161.87C335.52,-159.14 350.54,-155.55 364,-151 400.52,-138.65 440.43,-117.42 462.47,-104.95"/>
<polygon fill="#63b8ff" stroke="#63b8ff" points="321.17,-158.41 311.98,-163.69 322.46,-165.29 321.17,-158.41"/>
</g>
<!-- Node5 -->
<g id="node5" class="node">
<title>Node5</title>
<g id="a_node5"><a xlink:href="classMooseBaseParameterInterface.html" target="_top" xlink:title="Every object that can be built by the factory should be derived from this class.">
<polygon fill="white" stroke="#666666" points="364,-141.5 185,-141.5 185,-122.5 364,-122.5 364,-141.5"/>
<text text-anchor="middle" x="274.5" y="-129.5" font-family="Courier,monospace" font-size="10.00">MooseBaseParameterInterface</text>
</a>
</g>
</g>
<!-- Node5&#45;&gt;Node3 -->
<g id="edge4" class="edge">
<title>Node5&#45;&gt;Node3</title>
<path fill="none" stroke="#63b8ff" d="M341.5,-120.03C373.5,-114.23 410.92,-107.44 438.71,-102.4"/>
<polygon fill="#63b8ff" stroke="#63b8ff" points="341.14,-116.54 331.93,-121.77 342.39,-123.43 341.14,-116.54"/>
</g>
<!-- Node6 -->
<g id="node6" class="node">
<title>Node6</title>
<g id="a_node6"><a xlink:href="classMooseBaseErrorInterface.html" target="_top" xlink:title="Interface that provides APIs to output errors/warnings/info messages.">
<polygon fill="white" stroke="#666666" points="352,-104.5 197,-104.5 197,-85.5 352,-85.5 352,-104.5"/>
<text text-anchor="middle" x="274.5" y="-92.5" font-family="Courier,monospace" font-size="10.00">MooseBaseErrorInterface</text>
</a>
</g>
</g>
<!-- Node6&#45;&gt;Node3 -->
<g id="edge5" class="edge">
<title>Node6&#45;&gt;Node3</title>
<path fill="none" stroke="#63b8ff" d="M363.81,-95C389.91,-95 417.22,-95 438.75,-95"/>
<polygon fill="#63b8ff" stroke="#63b8ff" points="363.85,-91.5 353.85,-95 363.85,-98.5 363.85,-91.5"/>
</g>
<!-- Node7 -->
<g id="node7" class="node">
<title>Node7</title>
<g id="a_node7"><a xlink:href="classConsoleStreamInterface.html" target="_top" xlink:title="An inteface for the _console for outputting to the Console object.">
<polygon fill="white" stroke="#666666" points="149,-104.5 0,-104.5 0,-85.5 149,-85.5 149,-104.5"/>
<text text-anchor="middle" x="74.5" y="-92.5" font-family="Courier,monospace" font-size="10.00">ConsoleStreamInterface</text>
</a>
</g>
</g>
<!-- Node7&#45;&gt;Node6 -->
<g id="edge6" class="edge">
<title>Node7&#45;&gt;Node6</title>
<path fill="none" stroke="#63b8ff" d="M160.62,-95C172.62,-95 184.9,-95 196.73,-95"/>
<polygon fill="#63b8ff" stroke="#63b8ff" points="160.74,-91.5 150.74,-95 160.74,-98.5 160.74,-91.5"/>
</g>
<!-- Node8 -->
<g id="node8" class="node">
<title>Node8</title>
<g id="a_node8"><a xlink:title=" ">
<polygon fill="white" stroke="#666666" points="352,-67.5 197,-67.5 197,-48.5 352,-48.5 352,-67.5"/>
<text text-anchor="middle" x="274.5" y="-55.5" font-family="Courier,monospace" font-size="10.00">libMesh::ParallelObject</text>
</a>
</g>
</g>
<!-- Node8&#45;&gt;Node3 -->
<g id="edge7" class="edge">
<title>Node8&#45;&gt;Node3</title>
<path fill="none" stroke="#63b8ff" d="M341.5,-69.97C373.5,-75.77 410.92,-82.56 438.71,-87.6"/>
<polygon fill="#63b8ff" stroke="#63b8ff" points="342.39,-66.57 331.93,-68.23 341.14,-73.46 342.39,-66.57"/>
</g>
<!-- Node9 -->
<g id="node9" class="node">
<title>Node9</title>
<g id="a_node9"><a xlink:href="classDataFileInterface.html" target="_top" xlink:title=" ">
<polygon fill="white" stroke="#666666" points="337,-30 212,-30 212,0 337,0 337,-30"/>
<text text-anchor="start" x="220" y="-18" font-family="Courier,monospace" font-size="10.00">DataFileInterface&lt;</text>
<text text-anchor="middle" x="274.5" y="-7" font-family="Courier,monospace" font-size="10.00"> MooseObject &gt;</text>
</a>
</g>
</g>
<!-- Node9&#45;&gt;Node3 -->
<g id="edge8" class="edge">
<title>Node9&#45;&gt;Node3</title>
<path fill="none" stroke="#63b8ff" d="M347.62,-30.99C353.32,-33.32 358.86,-35.97 364,-39 383.77,-50.64 380.05,-64.66 400,-76 411.72,-82.66 425.69,-87 438.63,-89.81"/>
<polygon fill="#63b8ff" stroke="#63b8ff" points="349.23,-27.85 338.64,-27.67 346.8,-34.42 349.23,-27.85"/>
</g>
<!-- Node10 -->
<g id="node10" class="node">
<title>Node10</title>
<g id="a_node10"><a xlink:title=" ">
<polygon fill="white" stroke="#666666" points="561,-67.5 400,-67.5 400,-48.5 561,-48.5 561,-67.5"/>
<text text-anchor="middle" x="480.5" y="-55.5" font-family="Courier,monospace" font-size="10.00">libMesh::GhostingFunctor</text>
</a>
</g>
</g>
<!-- Node10&#45;&gt;Node2 -->
<g id="edge9" class="edge">
<title>Node10&#45;&gt;Node2</title>
<path fill="none" stroke="#63b8ff" d="M572.82,-67.13C580.84,-67.93 588.85,-68.73 596.59,-69.51"/>
<polygon fill="#63b8ff" stroke="#63b8ff" points="573.3,-63.66 563,-66.15 572.61,-70.63 573.3,-63.66"/>
</g>
</g>
</svg>
