<?xml version="1.0" encoding="UTF-8" standalone="no"?>
<!DOCTYPE svg PUBLIC "-//W3C//DTD SVG 1.1//EN"
 "http://www.w3.org/Graphics/SVG/1.1/DTD/svg11.dtd">
<!-- Generated by graphviz version 7.0.5 (20221223.1930)
 -->
<!-- Title: InternalSideVectorPostprocessor Pages: 1 -->
<!--zoomable 841 -->
<svg id="main" version="1.1" xmlns="http://www.w3.org/2000/svg" xmlns:xlink="http://www.w3.org/1999/xlink" xml:space="preserve" onload="init(evt)">
<style type="text/css"><![CDATA[
.edge:hover path { stroke: red; }
.edge:hover polygon { stroke: red; fill: red; }
]]></style>
<script type="text/javascript"><![CDATA[
var edges = document.getElementsByTagName('g');
if (edges && edges.length) {
  for (var i=0;i<edges.length;i++) {
    if (edges[i].id.substr(0,4)=='edge') {
      edges[i].setAttribute('class','edge');
    }
  }
}
]]></script>
        <defs>
                <circle id="rim" cx="0" cy="0" r="7"/>
                <circle id="rim2" cx="0" cy="0" r="3.5"/>
                <g id="zoomPlus">
                        <use xlink:href="#rim" fill="#404040">
                                <set attributeName="fill" to="#808080" begin="zoomplus.mouseover" end="zoomplus.mouseout"/>
                        </use>
                        <path d="M-4,0h8M0,-4v8" fill="none" stroke="white" stroke-width="1.5" pointer-events="none"/>
                </g>
                <g id="zoomMin">
                        <use xlink:href="#rim" fill="#404040">
                                <set attributeName="fill" to="#808080" begin="zoomminus.mouseover" end="zoomminus.mouseout"/>
                        </use>
                        <path d="M-4,0h8" fill="none" stroke="white" stroke-width="1.5" pointer-events="none"/>
                </g>
                <g id="dirArrow">
                        <path fill="none" stroke="white" stroke-width="1.5" d="M0,-3.0v7 M-2.5,-0.5L0,-3.0L2.5,-0.5"/>
                </g>
               <g id="resetDef">
                       <use xlink:href="#rim2" fill="#404040">
                               <set attributeName="fill" to="#808080" begin="reset.mouseover" end="reset.mouseout"/>
                       </use>
               </g>
        </defs>

<script type="text/javascript">
var viewWidth = 1262;
var viewHeight = 841;
var sectionId = 'dynsection-0';
</script>
<script xlink:href="svgpan.js"/>
<svg id="graph" class="graph">
<g id="viewport">
<title>InternalSideVectorPostprocessor</title>
<!-- Node1 -->
<g id="node1" class="node">
<title>Node1</title>
<g id="a_node1"><a xlink:title=" ">
<polygon fill="#999999" stroke="#666666" points="1254,-92 1051,-92 1051,-73 1254,-73 1254,-92"/>
<text text-anchor="middle" x="1152.5" y="-80" font-family="Courier,monospace" font-size="10.00">InternalSideVectorPostprocessor</text>
</a>
</g>
</g>
<!-- Node2 -->
<g id="node2" class="node">
<title>Node2</title>
<g id="a_node2"><a xlink:href="classInternalSideUserObject.html" target="_top" xlink:title="Base class for user objects executed on all element sides internal to one or more blocks,...">
<polygon fill="white" stroke="#666666" points="1015,-148 866,-148 866,-129 1015,-129 1015,-148"/>
<text text-anchor="middle" x="940.5" y="-136" font-family="Courier,monospace" font-size="10.00">InternalSideUserObject</text>
</a>
</g>
</g>
<!-- Node2&#45;&gt;Node1 -->
<g id="edge1" class="edge">
<title>Node2&#45;&gt;Node1</title>
<path fill="none" stroke="#63b8ff" d="M989.32,-125.75C1027.17,-115.66 1079.27,-101.76 1114.1,-92.47"/>
<polygon fill="#63b8ff" stroke="#63b8ff" points="988.78,-122.27 980.02,-128.23 990.59,-129.03 988.78,-122.27"/>
</g>
<!-- Node3 -->
<g id="node3" class="node">
<title>Node3</title>
<g id="a_node3"><a xlink:href="classUserObject.html" target="_top" xlink:title="Base class for user&#45;specific data.">
<polygon fill="white" stroke="#666666" points="764,-481 687,-481 687,-462 764,-462 764,-481"/>
<text text-anchor="middle" x="725.5" y="-469" font-family="Courier,monospace" font-size="10.00">UserObject</text>
</a>
</g>
</g>
<!-- Node3&#45;&gt;Node2 -->
<g id="edge2" class="edge">
<title>Node3&#45;&gt;Node2</title>
<path fill="none" stroke="#63b8ff" d="M738.94,-452.06C778.97,-389.48 903.56,-194.69 933.15,-148.43"/>
<polygon fill="#63b8ff" stroke="#63b8ff" points="736.13,-449.95 733.69,-460.26 742.03,-453.72 736.13,-449.95"/>
</g>
<!-- Node4 -->
<g id="node4" class="node">
<title>Node4</title>
<g id="a_node4"><a xlink:href="classMooseObject.html" target="_top" xlink:title="Every object that can be built by the factory should be derived from this class.">
<polygon fill="white" stroke="#666666" points="534,-759 451,-759 451,-740 534,-740 534,-759"/>
<text text-anchor="middle" x="492.5" y="-747" font-family="Courier,monospace" font-size="10.00">MooseObject</text>
</a>
</g>
</g>
<!-- Node4&#45;&gt;Node3 -->
<g id="edge3" class="edge">
<title>Node4&#45;&gt;Node3</title>
<path fill="none" stroke="#63b8ff" d="M545.39,-747.32C559.28,-744.69 573.59,-739.93 585,-731.5 675.85,-664.38 713.69,-519.99 722.44,-481.24"/>
<polygon fill="#63b8ff" stroke="#63b8ff" points="545.25,-743.8 535.9,-748.77 546.31,-750.72 545.25,-743.8"/>
</g>
<!-- Node5 -->
<g id="node5" class="node">
<title>Node5</title>
<g id="a_node5"><a xlink:href="classMooseBase.html" target="_top" xlink:title="Base class for everything in MOOSE with a name and a type.">
<polygon fill="white" stroke="#666666" points="310,-833 239,-833 239,-814 310,-814 310,-833"/>
<text text-anchor="middle" x="274.5" y="-821" font-family="Courier,monospace" font-size="10.00">MooseBase</text>
</a>
</g>
</g>
<!-- Node5&#45;&gt;Node4 -->
<g id="edge4" class="edge">
<title>Node5&#45;&gt;Node4</title>
<path fill="none" stroke="#63b8ff" d="M321.62,-816.05C335.41,-813.31 350.46,-809.8 364,-805.5 403.87,-792.85 448.08,-771.72 472.56,-759.35"/>
<polygon fill="#63b8ff" stroke="#63b8ff" points="321.06,-812.59 311.89,-817.89 322.36,-819.47 321.06,-812.59"/>
</g>
<!-- Node6 -->
<g id="node6" class="node">
<title>Node6</title>
<g id="a_node6"><a xlink:href="classMooseBaseParameterInterface.html" target="_top" xlink:title="Every object that can be built by the factory should be derived from this class.">
<polygon fill="white" stroke="#666666" points="364,-796 185,-796 185,-777 364,-777 364,-796"/>
<text text-anchor="middle" x="274.5" y="-784" font-family="Courier,monospace" font-size="10.00">MooseBaseParameterInterface</text>
</a>
</g>
</g>
<!-- Node6&#45;&gt;Node4 -->
<g id="edge5" class="edge">
<title>Node6&#45;&gt;Node4</title>
<path fill="none" stroke="#63b8ff" d="M344.77,-774.63C379.7,-768.65 420.85,-761.6 450.68,-756.49"/>
<polygon fill="#63b8ff" stroke="#63b8ff" points="344.43,-771.14 335.16,-776.28 345.61,-778.04 344.43,-771.14"/>
</g>
<!-- Node7 -->
<g id="node7" class="node">
<title>Node7</title>
<g id="a_node7"><a xlink:href="classMooseBaseErrorInterface.html" target="_top" xlink:title="Interface that provides APIs to output errors/warnings/info messages.">
<polygon fill="white" stroke="#666666" points="352,-759 197,-759 197,-740 352,-740 352,-759"/>
<text text-anchor="middle" x="274.5" y="-747" font-family="Courier,monospace" font-size="10.00">MooseBaseErrorInterface</text>
</a>
</g>
</g>
<!-- Node7&#45;&gt;Node4 -->
<g id="edge6" class="edge">
<title>Node7&#45;&gt;Node4</title>
<path fill="none" stroke="#63b8ff" d="M363.7,-749.5C393.87,-749.5 426.17,-749.5 450.75,-749.5"/>
<polygon fill="#63b8ff" stroke="#63b8ff" points="363.78,-746 353.78,-749.5 363.78,-753 363.78,-746"/>
</g>
<!-- Node8 -->
<g id="node8" class="node">
<title>Node8</title>
<g id="a_node8"><a xlink:href="classConsoleStreamInterface.html" target="_top" xlink:title="An inteface for the _console for outputting to the Console object.">
<polygon fill="white" stroke="#666666" points="149,-759 0,-759 0,-740 149,-740 149,-759"/>
<text text-anchor="middle" x="74.5" y="-747" font-family="Courier,monospace" font-size="10.00">ConsoleStreamInterface</text>
</a>
</g>
</g>
<!-- Node8&#45;&gt;Node7 -->
<g id="edge7" class="edge">
<title>Node8&#45;&gt;Node7</title>
<path fill="none" stroke="#63b8ff" d="M160.62,-749.5C172.62,-749.5 184.9,-749.5 196.73,-749.5"/>
<polygon fill="#63b8ff" stroke="#63b8ff" points="160.74,-746 150.74,-749.5 160.74,-753 160.74,-746"/>
</g>
<!-- Node9 -->
<g id="node9" class="node">
<title>Node9</title>
<g id="a_node9"><a xlink:title=" ">
<polygon fill="white" stroke="#666666" points="352,-722 197,-722 197,-703 352,-703 352,-722"/>
<text text-anchor="middle" x="274.5" y="-710" font-family="Courier,monospace" font-size="10.00">libMesh::ParallelObject</text>
</a>
</g>
</g>
<!-- Node9&#45;&gt;Node4 -->
<g id="edge8" class="edge">
<title>Node9&#45;&gt;Node4</title>
<path fill="none" stroke="#63b8ff" d="M344.77,-724.37C379.7,-730.35 420.85,-737.4 450.68,-742.51"/>
<polygon fill="#63b8ff" stroke="#63b8ff" points="345.61,-720.96 335.16,-722.72 344.43,-727.86 345.61,-720.96"/>
</g>
<!-- Node10 -->
<g id="node10" class="node">
<title>Node10</title>
<g id="a_node10"><a xlink:href="classDataFileInterface.html" target="_top" xlink:title=" ">
<polygon fill="white" stroke="#666666" points="337,-684.5 212,-684.5 212,-654.5 337,-654.5 337,-684.5"/>
<text text-anchor="start" x="220" y="-672.5" font-family="Courier,monospace" font-size="10.00">DataFileInterface&lt;</text>
<text text-anchor="middle" x="274.5" y="-661.5" font-family="Courier,monospace" font-size="10.00"> MooseObject &gt;</text>
</a>
</g>
</g>
<!-- Node10&#45;&gt;Node4 -->
<g id="edge9" class="edge">
<title>Node10&#45;&gt;Node4</title>
<path fill="none" stroke="#63b8ff" d="M347.62,-686.35C353.32,-688.73 358.86,-691.44 364,-694.5 383.71,-706.24 379.83,-720.57 400,-731.5 415.37,-739.83 434.06,-744.34 450.53,-746.76"/>
<polygon fill="#63b8ff" stroke="#63b8ff" points="349.23,-683.22 338.64,-682.94 346.74,-689.76 349.23,-683.22"/>
</g>
<!-- Node11 -->
<g id="node11" class="node">
<title>Node11</title>
<g id="a_node11"><a xlink:href="classSetupInterface.html" target="_top" xlink:title=" ">
<polygon fill="white" stroke="#666666" points="543,-722 442,-722 442,-703 543,-703 543,-722"/>
<text text-anchor="middle" x="492.5" y="-710" font-family="Courier,monospace" font-size="10.00">SetupInterface</text>
</a>
</g>
</g>
<!-- Node11&#45;&gt;Node3 -->
<g id="edge10" class="edge">
<title>Node11&#45;&gt;Node3</title>
<path fill="none" stroke="#63b8ff" d="M554.61,-707.68C565.37,-704.88 575.99,-700.7 585,-694.5 666.99,-638.04 710.5,-516.03 721.61,-481.05"/>
<polygon fill="#63b8ff" stroke="#63b8ff" points="553.92,-704.25 544.89,-709.8 555.41,-711.09 553.92,-704.25"/>
</g>
<!-- Node12 -->
<g id="node12" class="node">
<title>Node12</title>
<g id="a_node12"><a xlink:href="classFunctionInterface.html" target="_top" xlink:title="Interface for objects that need to use functions.">
<polygon fill="white" stroke="#666666" points="552,-685 433,-685 433,-666 552,-666 552,-685"/>
<text text-anchor="middle" x="492.5" y="-673" font-family="Courier,monospace" font-size="10.00">FunctionInterface</text>
</a>
</g>
</g>
<!-- Node12&#45;&gt;Node3 -->
<g id="edge11" class="edge">
<title>Node12&#45;&gt;Node3</title>
<path fill="none" stroke="darkgreen" d="M563.08,-667.49C570.8,-664.97 578.29,-661.71 585,-657.5 658.15,-611.56 706.48,-512.45 720.37,-481.17"/>
<polygon fill="darkgreen" stroke="darkgreen" points="562.2,-664.1 553.52,-670.17 564.09,-670.84 562.2,-664.1"/>
</g>
<!-- Node13 -->
<g id="node13" class="node">
<title>Node13</title>
<g id="a_node13"><a xlink:href="classUserObjectInterface.html" target="_top" xlink:title="Interface for objects that need to use UserObjects.">
<polygon fill="white" stroke="#666666" points="558,-648 427,-648 427,-629 558,-629 558,-648"/>
<text text-anchor="middle" x="492.5" y="-636" font-family="Courier,monospace" font-size="10.00">UserObjectInterface</text>
</a>
</g>
</g>
<!-- Node13&#45;&gt;Node3 -->
<g id="edge12" class="edge">
<title>Node13&#45;&gt;Node3</title>
<path fill="none" stroke="#63b8ff" d="M569.1,-627.62C574.63,-625.63 580,-623.27 585,-620.5 649.46,-584.76 701.26,-508.73 718.42,-481.48"/>
<polygon fill="#63b8ff" stroke="#63b8ff" points="568.23,-624.22 559.74,-630.57 570.33,-630.9 568.23,-624.22"/>
</g>
<!-- Node14 -->
<g id="node14" class="node">
<title>Node14</title>
<g id="a_node14"><a xlink:href="classPostprocessorInterface.html" target="_top" xlink:title="Interface class for classes which interact with Postprocessors.">
<polygon fill="white" stroke="#666666" points="567,-611 418,-611 418,-592 567,-592 567,-611"/>
<text text-anchor="middle" x="492.5" y="-599" font-family="Courier,monospace" font-size="10.00">PostprocessorInterface</text>
</a>
</g>
</g>
<!-- Node14&#45;&gt;Node3 -->
<g id="edge13" class="edge">
<title>Node14&#45;&gt;Node3</title>
<path fill="none" stroke="darkgreen" d="M573.95,-588.02C577.74,-586.66 581.44,-585.15 585,-583.5 641.32,-557.3 694.79,-503.68 715.48,-481.47"/>
<polygon fill="darkgreen" stroke="darkgreen" points="572.97,-584.66 564.53,-591.05 575.12,-591.32 572.97,-584.66"/>
</g>
<!-- Node15 -->
<g id="node15" class="node">
<title>Node15</title>
<g id="a_node15"><a xlink:href="classVectorPostprocessorInterface.html" target="_top" xlink:title=" ">
<polygon fill="white" stroke="#666666" points="585,-574 400,-574 400,-555 585,-555 585,-574"/>
<text text-anchor="middle" x="492.5" y="-562" font-family="Courier,monospace" font-size="10.00">VectorPostprocessorInterface</text>
</a>
</g>
</g>
<!-- Node15&#45;&gt;Node3 -->
<g id="edge14" class="edge">
<title>Node15&#45;&gt;Node3</title>
<path fill="none" stroke="darkgreen" d="M568.24,-551.73C573.97,-550.17 579.61,-548.43 585,-546.5 633.15,-529.26 684.97,-497.48 709.71,-481.39"/>
<polygon fill="darkgreen" stroke="darkgreen" points="567.48,-548.32 558.64,-554.16 569.19,-555.1 567.48,-548.32"/>
</g>
<!-- Node16 -->
<g id="node16" class="node">
<title>Node16</title>
<g id="a_node16"><a xlink:href="classReporterInterface.html" target="_top" xlink:title="Interface to allow object to consume Reporter values.">
<polygon fill="white" stroke="#666666" points="552,-537 433,-537 433,-518 552,-518 552,-537"/>
<text text-anchor="middle" x="492.5" y="-525" font-family="Courier,monospace" font-size="10.00">ReporterInterface</text>
</a>
</g>
</g>
<!-- Node16&#45;&gt;Node3 -->
<g id="edge15" class="edge">
<title>Node16&#45;&gt;Node3</title>
<path fill="none" stroke="darkgreen" d="M558.53,-515.3C567.45,-513.46 576.47,-511.5 585,-509.5 621.29,-501 662.42,-489.57 690.56,-481.48"/>
<polygon fill="darkgreen" stroke="darkgreen" points="557.93,-511.85 548.83,-517.27 559.32,-518.71 557.93,-511.85"/>
</g>
<!-- Node17 -->
<g id="node17" class="node">
<title>Node17</title>
<g id="a_node17"><a xlink:href="classDistributionInterface.html" target="_top" xlink:title="Interface for objects that need to use distributions.">
<polygon fill="white" stroke="#666666" points="564,-500 421,-500 421,-481 564,-481 564,-500"/>
<text text-anchor="middle" x="492.5" y="-488" font-family="Courier,monospace" font-size="10.00">DistributionInterface</text>
</a>
</g>
</g>
<!-- Node17&#45;&gt;Node3 -->
<g id="edge16" class="edge">
<title>Node17&#45;&gt;Node3</title>
<path fill="none" stroke="darkgreen" d="M575.43,-483.76C613.35,-480.64 656.56,-477.09 686.65,-474.61"/>
<polygon fill="darkgreen" stroke="darkgreen" points="575.57,-480.24 565.89,-484.55 576.14,-487.21 575.57,-480.24"/>
</g>
<!-- Node18 -->
<g id="node18" class="node">
<title>Node18</title>
<g id="a_node18"><a xlink:href="classSamplerInterface.html" target="_top" xlink:title="Interface for objects that need to use samplers.">
<polygon fill="white" stroke="#666666" points="549,-463 436,-463 436,-444 549,-444 549,-463"/>
<text text-anchor="middle" x="492.5" y="-451" font-family="Courier,monospace" font-size="10.00">SamplerInterface</text>
</a>
</g>
</g>
<!-- Node18&#45;&gt;Node3 -->
<g id="edge17" class="edge">
<title>Node18&#45;&gt;Node3</title>
<path fill="none" stroke="darkgreen" d="M560.71,-458.74C601.74,-461.93 652.7,-465.91 686.78,-468.56"/>
<polygon fill="darkgreen" stroke="darkgreen" points="561.17,-455.26 550.93,-457.97 560.63,-462.24 561.17,-455.26"/>
</g>
<!-- Node19 -->
<g id="node19" class="node">
<title>Node19</title>
<g id="a_node19"><a xlink:href="classRestartable.html" target="_top" xlink:title="A class for creating restricted objects.">
<polygon fill="white" stroke="#666666" points="534,-426 451,-426 451,-407 534,-407 534,-426"/>
<text text-anchor="middle" x="492.5" y="-414" font-family="Courier,monospace" font-size="10.00">Restartable</text>
</a>
</g>
</g>
<!-- Node19&#45;&gt;Node3 -->
<g id="edge18" class="edge">
<title>Node19&#45;&gt;Node3</title>
<path fill="none" stroke="darkgreen" d="M545.27,-426.8C558.27,-429.51 572.17,-432.51 585,-435.5 620.08,-443.66 659.83,-454.03 687.9,-461.55"/>
<polygon fill="darkgreen" stroke="darkgreen" points="546.11,-423.4 535.61,-424.81 544.7,-430.26 546.11,-423.4"/>
</g>
<!-- Node20 -->
<g id="node20" class="node">
<title>Node20</title>
<g id="a_node20"><a xlink:href="classMeshMetaDataInterface.html" target="_top" xlink:title="The Interface used to retrieve mesh meta data (attributes) set by the MeshGenerator system.">
<polygon fill="white" stroke="#666666" points="564,-389 421,-389 421,-370 564,-370 564,-389"/>
<text text-anchor="middle" x="492.5" y="-377" font-family="Courier,monospace" font-size="10.00">MeshMetaDataInterface</text>
</a>
</g>
</g>
<!-- Node20&#45;&gt;Node3 -->
<g id="edge19" class="edge">
<title>Node20&#45;&gt;Node3</title>
<path fill="none" stroke="darkgreen" d="M564.33,-392.15C571.39,-394.02 578.38,-396.13 585,-398.5 632.62,-415.53 684.26,-446.07 709.25,-461.7"/>
<polygon fill="darkgreen" stroke="darkgreen" points="565.25,-388.77 554.7,-389.77 563.56,-395.57 565.25,-388.77"/>
</g>
<!-- Node21 -->
<g id="node21" class="node">
<title>Node21</title>
<g id="a_node21"><a xlink:href="classMeshChangedInterface.html" target="_top" xlink:title="Interface for notifications that the mesh has changed.">
<polygon fill="white" stroke="#666666" points="561,-352 424,-352 424,-333 561,-333 561,-352"/>
<text text-anchor="middle" x="492.5" y="-340" font-family="Courier,monospace" font-size="10.00">MeshChangedInterface</text>
</a>
</g>
</g>
<!-- Node21&#45;&gt;Node3 -->
<g id="edge20" class="edge">
<title>Node21&#45;&gt;Node3</title>
<path fill="none" stroke="darkgreen" d="M570.63,-355.77C575.58,-357.46 580.41,-359.36 585,-361.5 640.91,-387.56 694.6,-440.04 715.42,-461.75"/>
<polygon fill="darkgreen" stroke="darkgreen" points="571.71,-352.44 561.12,-352.85 569.65,-359.13 571.71,-352.44"/>
</g>
<!-- Node22 -->
<g id="node22" class="node">
<title>Node22</title>
<g id="a_node22"><a xlink:href="classScalarCoupleable.html" target="_top" xlink:title="Interface for objects that needs scalar coupling capabilities.">
<polygon fill="white" stroke="#666666" points="549,-315 436,-315 436,-296 549,-296 549,-315"/>
<text text-anchor="middle" x="492.5" y="-303" font-family="Courier,monospace" font-size="10.00">ScalarCoupleable</text>
</a>
</g>
</g>
<!-- Node22&#45;&gt;Node3 -->
<g id="edge21" class="edge">
<title>Node22&#45;&gt;Node3</title>
<path fill="none" stroke="darkgreen" d="M560.14,-314.34C568.81,-316.91 577.33,-320.23 585,-324.5 648.93,-360.11 701.07,-434.9 718.37,-461.69"/>
<polygon fill="darkgreen" stroke="darkgreen" points="561.16,-310.99 550.6,-311.84 559.39,-317.76 561.16,-310.99"/>
</g>
<!-- Node23 -->
<g id="node23" class="node">
<title>Node23</title>
<g id="a_node23"><a xlink:href="classPerfGraphInterface.html" target="_top" xlink:title="Interface for objects interacting with the PerfGraph.">
<polygon fill="white" stroke="#666666" points="555,-278 430,-278 430,-259 555,-259 555,-278"/>
<text text-anchor="middle" x="492.5" y="-266" font-family="Courier,monospace" font-size="10.00">PerfGraphInterface</text>
</a>
</g>
</g>
<!-- Node23&#45;&gt;Node3 -->
<g id="edge22" class="edge">
<title>Node23&#45;&gt;Node3</title>
<path fill="none" stroke="darkgreen" d="M566.03,-278.39C572.71,-280.81 579.15,-283.8 585,-287.5 657.19,-333.1 705.82,-430.2 720.12,-461.53"/>
<polygon fill="darkgreen" stroke="darkgreen" points="567.44,-275.17 556.85,-275.5 565.34,-281.84 567.44,-275.17"/>
</g>
<!-- Node24 -->
<g id="node24" class="node">
<title>Node24</title>
<g id="a_node24"><a xlink:href="classDependencyResolverInterface.html" target="_top" xlink:title="Interface for sorting dependent vectors of objects.">
<polygon fill="white" stroke="#666666" points="582,-241 403,-241 403,-222 582,-222 582,-241"/>
<text text-anchor="middle" x="492.5" y="-229" font-family="Courier,monospace" font-size="10.00">DependencyResolverInterface</text>
</a>
</g>
</g>
<!-- Node24&#45;&gt;Node3 -->
<g id="edge23" class="edge">
<title>Node24&#45;&gt;Node3</title>
<path fill="none" stroke="#63b8ff" d="M577.97,-246.18C580.4,-247.5 582.75,-248.94 585,-250.5 665.91,-306.6 709.89,-426.39 721.41,-461.58"/>
<polygon fill="#63b8ff" stroke="#63b8ff" points="579.52,-243.04 568.98,-241.99 576.57,-249.39 579.52,-243.04"/>
</g>
<!-- Node25 -->
<g id="node25" class="node">
<title>Node25</title>
<g id="a_node25"><a xlink:href="classBlockRestrictable.html" target="_top" xlink:title="An interface that restricts an object to subdomains via the &#39;blocks&#39; input parameter.">
<polygon fill="white" stroke="#666666" points="785,-241 666,-241 666,-222 785,-222 785,-241"/>
<text text-anchor="middle" x="725.5" y="-229" font-family="Courier,monospace" font-size="10.00">BlockRestrictable</text>
</a>
</g>
</g>
<!-- Node25&#45;&gt;Node2 -->
<g id="edge24" class="edge">
<title>Node25&#45;&gt;Node2</title>
<path fill="none" stroke="#63b8ff" d="M796.75,-223.48C808.1,-221 819.55,-217.75 830,-213.5 869.91,-197.26 909.94,-164.73 928.62,-148.37"/>
<polygon fill="#63b8ff" stroke="#63b8ff" points="796.09,-220.05 786.96,-225.42 797.45,-226.91 796.09,-220.05"/>
</g>
<!-- Node26 -->
<g id="node26" class="node">
<title>Node26</title>
<g id="a_node26"><a xlink:href="classTwoMaterialPropertyInterface.html" target="_top" xlink:title="This interface is designed for DGKernel, InternalSideUserObject, InterfaceUserObject,...">
<polygon fill="white" stroke="#666666" points="818,-204 633,-204 633,-185 818,-185 818,-204"/>
<text text-anchor="middle" x="725.5" y="-192" font-family="Courier,monospace" font-size="10.00">TwoMaterialPropertyInterface</text>
</a>
</g>
</g>
<!-- Node26&#45;&gt;Node2 -->
<g id="edge25" class="edge">
<title>Node26&#45;&gt;Node2</title>
<path fill="none" stroke="#63b8ff" d="M804.65,-182.3C813.24,-180.55 821.84,-178.61 830,-176.5 859.61,-168.84 892.66,-156.88 914.63,-148.43"/>
<polygon fill="#63b8ff" stroke="#63b8ff" points="804,-178.86 794.86,-184.22 805.35,-185.73 804,-178.86"/>
</g>
<!-- Node27 -->
<g id="node27" class="node">
<title>Node27</title>
<g id="a_node27"><a xlink:href="classMaterialPropertyInterface.html" target="_top" xlink:title="An interface for accessing Materials.">
<polygon fill="white" stroke="#666666" points="576,-204 409,-204 409,-185 576,-185 576,-204"/>
<text text-anchor="middle" x="492.5" y="-192" font-family="Courier,monospace" font-size="10.00">MaterialPropertyInterface</text>
</a>
</g>
</g>
<!-- Node27&#45;&gt;Node26 -->
<g id="edge26" class="edge">
<title>Node27&#45;&gt;Node26</title>
<path fill="none" stroke="#63b8ff" d="M587.5,-194.5C602.36,-194.5 617.72,-194.5 632.54,-194.5"/>
<polygon fill="#63b8ff" stroke="#63b8ff" points="587.76,-191 577.76,-194.5 587.76,-198 587.76,-191"/>
</g>
<!-- Node28 -->
<g id="node28" class="node">
<title>Node28</title>
<g id="a_node28"><a xlink:href="classNeighborCoupleable.html" target="_top" xlink:title="Enhances Coupleable interface to also couple the values from neighbor elements.">
<polygon fill="white" stroke="#666666" points="788,-167 663,-167 663,-148 788,-148 788,-167"/>
<text text-anchor="middle" x="725.5" y="-155" font-family="Courier,monospace" font-size="10.00">NeighborCoupleable</text>
</a>
</g>
</g>
<!-- Node28&#45;&gt;Node2 -->
<g id="edge27" class="edge">
<title>Node28&#45;&gt;Node2</title>
<path fill="none" stroke="#63b8ff" d="M799.69,-150.97C821.04,-149.07 844.38,-146.98 865.77,-145.08"/>
<polygon fill="#63b8ff" stroke="#63b8ff" points="799.55,-147.47 789.9,-151.84 800.17,-154.44 799.55,-147.47"/>
</g>
<!-- Node29 -->
<g id="node29" class="node">
<title>Node29</title>
<g id="a_node29"><a xlink:href="classCoupleable.html" target="_top" xlink:title="Interface for objects that needs coupling capabilities.">
<polygon fill="white" stroke="#666666" points="531,-167 454,-167 454,-148 531,-148 531,-167"/>
<text text-anchor="middle" x="492.5" y="-155" font-family="Courier,monospace" font-size="10.00">Coupleable</text>
</a>
</g>
</g>
<!-- Node29&#45;&gt;Node28 -->
<g id="edge28" class="edge">
<title>Node29&#45;&gt;Node28</title>
<path fill="none" stroke="#63b8ff" d="M542.76,-157.5C577.79,-157.5 625.09,-157.5 662.66,-157.5"/>
<polygon fill="#63b8ff" stroke="#63b8ff" points="542.9,-154 532.9,-157.5 542.9,-161 542.9,-154"/>
</g>
<!-- Node30 -->
<g id="node30" class="node">
<title>Node30</title>
<g id="a_node30"><a xlink:href="classMooseVariableDependencyInterface.html" target="_top" xlink:title=" ">
<polygon fill="white" stroke="#666666" points="830,-130 621,-130 621,-111 830,-111 830,-130"/>
<text text-anchor="middle" x="725.5" y="-118" font-family="Courier,monospace" font-size="10.00">MooseVariableDependencyInterface</text>
</a>
</g>
</g>
<!-- Node30&#45;&gt;Node2 -->
<g id="edge29" class="edge">
<title>Node30&#45;&gt;Node2</title>
<path fill="none" stroke="#63b8ff" d="M841.4,-130.21C849.59,-130.9 857.73,-131.59 865.6,-132.25"/>
<polygon fill="#63b8ff" stroke="#63b8ff" points="841.96,-126.74 831.7,-129.39 841.37,-133.72 841.96,-126.74"/>
</g>
<!-- Node31 -->
<g id="node31" class="node">
<title>Node31</title>
<g id="a_node31"><a xlink:href="classTransientInterface.html" target="_top" xlink:title="Interface for objects that needs transient capabilities.">
<polygon fill="white" stroke="#666666" points="788,-93 663,-93 663,-74 788,-74 788,-93"/>
<text text-anchor="middle" x="725.5" y="-81" font-family="Courier,monospace" font-size="10.00">TransientInterface</text>
</a>
</g>
</g>
<!-- Node31&#45;&gt;Node2 -->
<g id="edge30" class="edge">
<title>Node31&#45;&gt;Node2</title>
<path fill="none" stroke="#63b8ff" d="M799.47,-95.61C809.77,-97.69 820.18,-100 830,-102.5 858.7,-109.82 890.81,-120.7 912.8,-128.59"/>
<polygon fill="#63b8ff" stroke="#63b8ff" points="800.34,-92.21 789.85,-93.73 799,-99.08 800.34,-92.21"/>
</g>
<!-- Node32 -->
<g id="node32" class="node">
<title>Node32</title>
<g id="a_node32"><a xlink:href="classElementIDInterface.html" target="_top" xlink:title=" ">
<polygon fill="white" stroke="#666666" points="788,-56 663,-56 663,-37 788,-37 788,-56"/>
<text text-anchor="middle" x="725.5" y="-44" font-family="Courier,monospace" font-size="10.00">ElementIDInterface</text>
</a>
</g>
</g>
<!-- Node32&#45;&gt;Node2 -->
<g id="edge31" class="edge">
<title>Node32&#45;&gt;Node2</title>
<path fill="none" stroke="#63b8ff" d="M799.64,-56.07C810.03,-58.53 820.42,-61.62 830,-65.5 869.39,-81.45 909.35,-112.76 928.25,-128.69"/>
<polygon fill="#63b8ff" stroke="#63b8ff" points="800.41,-52.65 789.9,-53.95 798.93,-59.49 800.41,-52.65"/>
</g>
<!-- Node33 -->
<g id="node33" class="node">
<title>Node33</title>
<g id="a_node33"><a xlink:href="classVectorPostprocessor.html" target="_top" xlink:title="Base class for Postprocessors that produce a vector of values.">
<polygon fill="white" stroke="#666666" points="1006,-74 875,-74 875,-55 1006,-55 1006,-74"/>
<text text-anchor="middle" x="940.5" y="-62" font-family="Courier,monospace" font-size="10.00">VectorPostprocessor</text>
</a>
</g>
</g>
<!-- Node33&#45;&gt;Node1 -->
<g id="edge32" class="edge">
<title>Node33&#45;&gt;Node1</title>
<path fill="none" stroke="#63b8ff" d="M1017.67,-71.03C1028.41,-71.95 1039.58,-72.91 1050.69,-73.86"/>
<polygon fill="#63b8ff" stroke="#63b8ff" points="1017.99,-67.54 1007.73,-70.18 1017.39,-74.52 1017.99,-67.54"/>
</g>
<!-- Node34 -->
<g id="node34" class="node">
<title>Node34</title>
<g id="a_node34"><a xlink:href="classOutputInterface.html" target="_top" xlink:title="A class to provide an common interface to objects requiring &quot;outputs&quot; option.">
<polygon fill="white" stroke="#666666" points="779,-19 672,-19 672,0 779,0 779,-19"/>
<text text-anchor="middle" x="725.5" y="-7" font-family="Courier,monospace" font-size="10.00">OutputInterface</text>
</a>
</g>
</g>
<!-- Node34&#45;&gt;Node33 -->
<g id="edge33" class="edge">
<title>Node34&#45;&gt;Node33</title>
<path fill="none" stroke="#63b8ff" d="M790.78,-19.1C803.84,-21.49 817.42,-24.3 830,-27.5 859.17,-34.92 891.75,-46.35 913.73,-54.54"/>
<polygon fill="#63b8ff" stroke="#63b8ff" points="791.43,-15.66 780.98,-17.37 790.22,-22.55 791.43,-15.66"/>
</g>
</g>
</svg>
        <g id="navigator" transform="translate(0 0)" fill="#404254">
                <rect fill="#f2f5e9" fill-opacity="0.5" stroke="#606060" stroke-width=".5" x="0" y="0" width="60" height="60"/>
                <use id="zoomplus" xlink:href="#zoomPlus" x="17" y="9" onmousedown="handleZoom(evt,'in')"/>
                <use id="zoomminus" xlink:href="#zoomMin" x="42" y="9" onmousedown="handleZoom(evt,'out')"/>
                <use id="reset" xlink:href="#resetDef" x="30" y="36" onmousedown="handleReset()"/>
                <g id="arrowUp" xlink:href="#dirArrow" transform="translate(30 24)" onmousedown="handlePan(0,-1)">
                  <use xlink:href="#rim" fill="#404040">
                        <set attributeName="fill" to="#808080" begin="arrowUp.mouseover" end="arrowUp.mouseout"/>
                  </use>
                  <path fill="none" stroke="white" stroke-width="1.5" d="M0,-3.0v7 M-2.5,-0.5L0,-3.0L2.5,-0.5"/>
                </g>
                <g id="arrowRight" xlink:href="#dirArrow" transform="rotate(90) translate(36 -43)" onmousedown="handlePan(1,0)">
                  <use xlink:href="#rim" fill="#404040">
                        <set attributeName="fill" to="#808080" begin="arrowRight.mouseover" end="arrowRight.mouseout"/>
                  </use>
                  <path fill="none" stroke="white" stroke-width="1.5" d="M0,-3.0v7 M-2.5,-0.5L0,-3.0L2.5,-0.5"/>
                </g>
                <g id="arrowDown" xlink:href="#dirArrow" transform="rotate(180) translate(-30 -48)" onmousedown="handlePan(0,1)">
                  <use xlink:href="#rim" fill="#404040">
                        <set attributeName="fill" to="#808080" begin="arrowDown.mouseover" end="arrowDown.mouseout"/>
                  </use>
                  <path fill="none" stroke="white" stroke-width="1.5" d="M0,-3.0v7 M-2.5,-0.5L0,-3.0L2.5,-0.5"/>
                </g>
                <g id="arrowLeft" xlink:href="#dirArrow" transform="rotate(270) translate(-36 17)" onmousedown="handlePan(-1,0)">
                  <use xlink:href="#rim" fill="#404040">
                        <set attributeName="fill" to="#808080" begin="arrowLeft.mouseover" end="arrowLeft.mouseout"/>
                  </use>
                  <path fill="none" stroke="white" stroke-width="1.5" d="M0,-3.0v7 M-2.5,-0.5L0,-3.0L2.5,-0.5"/>
                </g>
        </g>
        <svg viewBox="0 0 15 15" width="100%" height="30px" preserveAspectRatio="xMaxYMin meet">
         <g id="arrow_out" transform="scale(0.3 0.3)">
          <a xlink:href="classInternalSideVectorPostprocessor__inherit__graph_org.svg" target="_base">
           <rect id="button" ry="5" rx="5" y="6" x="6" height="38" width="38"
                fill="#f2f5e9" fill-opacity="0.5" stroke="#606060" stroke-width="1.0"/>
           <path id="arrow"
             d="M 11.500037,31.436501 C 11.940474,20.09759 22.043105,11.32322 32.158766,21.979434 L 37.068811,17.246167 C 37.068811,17.246167 37.088388,32 37.088388,32 L 22.160133,31.978069 C 22.160133,31.978069 26.997745,27.140456 26.997745,27.140456 C 18.528582,18.264221 13.291696,25.230495 11.500037,31.436501 z"
             style="fill:#404040;"/>
          </a>
         </g>
        </svg>
</svg>
