<?xml version="1.0" encoding="UTF-8" standalone="no"?>
<!DOCTYPE svg PUBLIC "-//W3C//DTD SVG 1.1//EN"
 "http://www.w3.org/Graphics/SVG/1.1/DTD/svg11.dtd">
<!-- Generated by graphviz version 7.0.5 (20221223.1930)
 -->
<!-- Title: Moose::LibtorchNeuralNetBase Pages: 1 -->
<svg width="366pt" height="93pt"
 viewBox="0.00 0.00 366.00 93.00" xmlns="http://www.w3.org/2000/svg" xmlns:xlink="http://www.w3.org/1999/xlink">
<g id="graph0" class="graph" transform="scale(1 1) rotate(0) translate(4 89)">
<title>Moose::LibtorchNeuralNetBase</title>
<!-- Node1 -->
<g id="node1" class="node">
<title>Node1</title>
<g id="a_node1"><a xlink:title="This base class is meant to gather the functions and members common in every neural network based on ...">
<polygon fill="#999999" stroke="#666666" points="270,-85 85,-85 85,-66 270,-66 270,-85"/>
<text text-anchor="middle" x="177.5" y="-73" font-family="Courier,monospace" font-size="10.00">Moose::LibtorchNeuralNetBase</text>
</a>
</g>
</g>
<!-- Node2 -->
<g id="node2" class="node">
<title>Node2</title>
<g id="a_node2"><a xlink:href="classMoose_1_1LibtorchArtificialNeuralNet.html" target="_top" xlink:title=" ">
<polygon fill="white" stroke="#666666" points="167,-30 0,-30 0,0 167,0 167,-30"/>
<text text-anchor="start" x="8" y="-18" font-family="Courier,monospace" font-size="10.00">Moose::LibtorchArtificial</text>
<text text-anchor="middle" x="83.5" y="-7" font-family="Courier,monospace" font-size="10.00">NeuralNet</text>
</a>
</g>
</g>
<!-- Node1&#45;&gt;Node2 -->
<g id="edge1" class="edge">
<title>Node1&#45;&gt;Node2</title>
<path fill="none" stroke="#63b8ff" d="M153.54,-59.59C139.15,-50.64 120.95,-39.3 106.7,-30.44"/>
<polygon fill="#63b8ff" stroke="#63b8ff" points="151.6,-62.5 161.94,-64.82 155.3,-56.56 151.6,-62.5"/>
</g>
<!-- Node3 -->
<g id="node3" class="node">
<title>Node3</title>
<g id="a_node3"><a xlink:href="classMoose_1_1LibtorchTorchScriptNeuralNet.html" target="_top" xlink:title=" ">
<polygon fill="white" stroke="#666666" points="358,-30 185,-30 185,0 358,0 358,-30"/>
<text text-anchor="start" x="193" y="-18" font-family="Courier,monospace" font-size="10.00">Moose::LibtorchTorchScript</text>
<text text-anchor="middle" x="271.5" y="-7" font-family="Courier,monospace" font-size="10.00">NeuralNet</text>
</a>
</g>
</g>
<!-- Node1&#45;&gt;Node3 -->
<g id="edge2" class="edge">
<title>Node1&#45;&gt;Node3</title>
<path fill="none" stroke="#63b8ff" d="M201.46,-59.59C215.85,-50.64 234.05,-39.3 248.3,-30.44"/>
<polygon fill="#63b8ff" stroke="#63b8ff" points="199.7,-56.56 193.06,-64.82 203.4,-62.5 199.7,-56.56"/>
</g>
</g>
</svg>
