<?xml version="1.0" encoding="UTF-8" standalone="no"?>
<!DOCTYPE svg PUBLIC "-//W3C//DTD SVG 1.1//EN"
 "http://www.w3.org/Graphics/SVG/1.1/DTD/svg11.dtd">
<!-- Generated by graphviz version 7.0.5 (20221223.1930)
 -->
<!-- Title: NodalKernel Pages: 1 -->
<svg width="1548pt" height="607pt"
 viewBox="0.00 0.00 1548.00 606.50" xmlns="http://www.w3.org/2000/svg" xmlns:xlink="http://www.w3.org/1999/xlink">
<g id="graph0" class="graph" transform="scale(1 1) rotate(0) translate(4 602.5)">
<title>NodalKernel</title>
<!-- Node1 -->
<g id="node1" class="node">
<title>Node1</title>
<g id="a_node1"><a xlink:title="Base class for creating nodal kernels with hand&#45;coded Jacobians.">
<polygon fill="#999999" stroke="#666666" points="1122,-159.5 1039,-159.5 1039,-140.5 1122,-140.5 1122,-159.5"/>
<text text-anchor="middle" x="1080.5" y="-147.5" font-family="Courier,monospace" font-size="10.00">NodalKernel</text>
</a>
</g>
</g>
<!-- Node29 -->
<g id="node29" class="node">
<title>Node29</title>
<g id="a_node29"><a xlink:href="classConstantRate.html" target="_top" xlink:title="Represents the rate in a simple ODE of du/dt = rate.">
<polygon fill="white" stroke="#666666" points="1292,-289.5 1203,-289.5 1203,-270.5 1292,-270.5 1292,-289.5"/>
<text text-anchor="middle" x="1247.5" y="-277.5" font-family="Courier,monospace" font-size="10.00">ConstantRate</text>
</a>
</g>
</g>
<!-- Node1&#45;&gt;Node29 -->
<g id="edge28" class="edge">
<title>Node1&#45;&gt;Node29</title>
<path fill="none" stroke="#63b8ff" d="M1089.62,-170.39C1100.94,-196.02 1123.98,-239.41 1158,-262 1171.06,-270.67 1187.42,-275.32 1202.51,-277.76"/>
<polygon fill="#63b8ff" stroke="#63b8ff" points="1092.94,-169.25 1085.84,-161.39 1086.49,-171.96 1092.94,-169.25"/>
</g>
<!-- Node30 -->
<g id="node30" class="node">
<title>Node30</title>
<g id="a_node30"><a xlink:href="classCoupledForceNodalKernel.html" target="_top" xlink:title="Adds a force proportional to the value of the coupled variable.">
<polygon fill="white" stroke="#666666" points="1325,-252.5 1170,-252.5 1170,-233.5 1325,-233.5 1325,-252.5"/>
<text text-anchor="middle" x="1247.5" y="-240.5" font-family="Courier,monospace" font-size="10.00">CoupledForceNodalKernel</text>
</a>
</g>
</g>
<!-- Node1&#45;&gt;Node30 -->
<g id="edge29" class="edge">
<title>Node1&#45;&gt;Node30</title>
<path fill="none" stroke="#63b8ff" d="M1095.2,-168.57C1109.05,-185.95 1132.08,-211.24 1158,-225 1164.09,-228.24 1170.71,-230.89 1177.48,-233.07"/>
<polygon fill="#63b8ff" stroke="#63b8ff" points="1098.28,-166.84 1089.41,-161.05 1092.73,-171.11 1098.28,-166.84"/>
</g>
<!-- Node31 -->
<g id="node31" class="node">
<title>Node31</title>
<g id="a_node31"><a xlink:href="classLowerBoundNodalKernel.html" target="_top" xlink:title="Class used to enforce a lower bound on a coupled variable.">
<polygon fill="white" stroke="#666666" points="1319,-215.5 1176,-215.5 1176,-196.5 1319,-196.5 1319,-215.5"/>
<text text-anchor="middle" x="1247.5" y="-203.5" font-family="Courier,monospace" font-size="10.00">LowerBoundNodalKernel</text>
</a>
</g>
</g>
<!-- Node1&#45;&gt;Node31 -->
<g id="edge30" class="edge">
<title>Node1&#45;&gt;Node31</title>
<path fill="none" stroke="#63b8ff" d="M1107.98,-165.29C1122.38,-173.05 1140.73,-182.07 1158,-188 1167.19,-191.16 1177.13,-193.84 1186.9,-196.1"/>
<polygon fill="#63b8ff" stroke="#63b8ff" points="1110.04,-162.43 1099.59,-160.66 1106.65,-168.56 1110.04,-162.43"/>
</g>
<!-- Node32 -->
<g id="node32" class="node">
<title>Node32</title>
<g id="a_node32"><a xlink:href="classPenaltyDirichletNodalKernel.html" target="_top" xlink:title=" ">
<polygon fill="white" stroke="#666666" points="1337,-178.5 1158,-178.5 1158,-159.5 1337,-159.5 1337,-178.5"/>
<text text-anchor="middle" x="1247.5" y="-166.5" font-family="Courier,monospace" font-size="10.00">PenaltyDirichletNodalKernel</text>
</a>
</g>
</g>
<!-- Node1&#45;&gt;Node32 -->
<g id="edge31" class="edge">
<title>Node1&#45;&gt;Node32</title>
<path fill="none" stroke="#63b8ff" d="M1133.7,-156.01C1142.02,-156.97 1150.83,-157.98 1159.7,-159"/>
<polygon fill="#63b8ff" stroke="#63b8ff" points="1134.12,-152.54 1123.79,-154.87 1133.32,-159.49 1134.12,-152.54"/>
</g>
<!-- Node33 -->
<g id="node33" class="node">
<title>Node33</title>
<g id="a_node33"><a xlink:href="classReactionNodalKernel.html" target="_top" xlink:title="Represents a nodal reaction term equivalent to $a * u$.">
<polygon fill="white" stroke="#666666" points="1313,-141.5 1182,-141.5 1182,-122.5 1313,-122.5 1313,-141.5"/>
<text text-anchor="middle" x="1247.5" y="-129.5" font-family="Courier,monospace" font-size="10.00">ReactionNodalKernel</text>
</a>
</g>
</g>
<!-- Node1&#45;&gt;Node33 -->
<g id="edge32" class="edge">
<title>Node1&#45;&gt;Node33</title>
<path fill="none" stroke="#63b8ff" d="M1133.62,-144.31C1148.91,-142.65 1165.81,-140.8 1181.78,-139.06"/>
<polygon fill="#63b8ff" stroke="#63b8ff" points="1133.35,-140.82 1123.79,-145.39 1134.11,-147.78 1133.35,-140.82"/>
</g>
<!-- Node34 -->
<g id="node34" class="node">
<title>Node34</title>
<g id="a_node34"><a xlink:href="classTimeNodalKernel.html" target="_top" xlink:title="Represents a simple ODE of du/dt &#45; rate = 0.">
<polygon fill="white" stroke="#666666" points="1301,-104.5 1194,-104.5 1194,-85.5 1301,-85.5 1301,-104.5"/>
<text text-anchor="middle" x="1247.5" y="-92.5" font-family="Courier,monospace" font-size="10.00">TimeNodalKernel</text>
</a>
</g>
</g>
<!-- Node1&#45;&gt;Node34 -->
<g id="edge33" class="edge">
<title>Node1&#45;&gt;Node34</title>
<path fill="none" stroke="#63b8ff" d="M1109.65,-134.86C1123.84,-127.72 1141.49,-119.58 1158,-114 1169.32,-110.18 1181.71,-106.95 1193.55,-104.3"/>
<polygon fill="#63b8ff" stroke="#63b8ff" points="1108.19,-131.67 1100.91,-139.36 1111.4,-137.9 1108.19,-131.67"/>
</g>
<!-- Node36 -->
<g id="node36" class="node">
<title>Node36</title>
<g id="a_node36"><a xlink:href="classUpperBoundNodalKernel.html" target="_top" xlink:title="Class used to enforce a upper bound on a coupled variable.">
<polygon fill="white" stroke="#666666" points="1319,-67.5 1176,-67.5 1176,-48.5 1319,-48.5 1319,-67.5"/>
<text text-anchor="middle" x="1247.5" y="-55.5" font-family="Courier,monospace" font-size="10.00">UpperBoundNodalKernel</text>
</a>
</g>
</g>
<!-- Node1&#45;&gt;Node36 -->
<g id="edge35" class="edge">
<title>Node1&#45;&gt;Node36</title>
<path fill="none" stroke="#63b8ff" d="M1095.95,-131.25C1109.97,-114.41 1132.77,-90.35 1158,-77 1164.94,-73.32 1172.55,-70.36 1180.3,-67.97"/>
<polygon fill="#63b8ff" stroke="#63b8ff" points="1093.25,-129.03 1089.71,-139.01 1098.7,-133.41 1093.25,-129.03"/>
</g>
<!-- Node37 -->
<g id="node37" class="node">
<title>Node37</title>
<g id="a_node37"><a xlink:href="classUserForcingFunctionNodalKernel.html" target="_top" xlink:title="Represents the rate in a simple ODE of du/dt = f.">
<polygon fill="white" stroke="#666666" points="1328,-30 1167,-30 1167,0 1328,0 1328,-30"/>
<text text-anchor="start" x="1175" y="-18" font-family="Courier,monospace" font-size="10.00">UserForcingFunctionNodal</text>
<text text-anchor="middle" x="1247.5" y="-7" font-family="Courier,monospace" font-size="10.00">Kernel</text>
</a>
</g>
</g>
<!-- Node1&#45;&gt;Node37 -->
<g id="edge36" class="edge">
<title>Node1&#45;&gt;Node37</title>
<path fill="none" stroke="#63b8ff" d="M1090.06,-129.79C1101.73,-104.69 1125.02,-62.35 1158,-39 1162.68,-35.69 1167.79,-32.83 1173.12,-30.37"/>
<polygon fill="#63b8ff" stroke="#63b8ff" points="1086.88,-128.33 1086.01,-138.89 1093.27,-131.17 1086.88,-128.33"/>
</g>
<!-- Node2 -->
<g id="node2" class="node">
<title>Node2</title>
<g id="a_node2"><a xlink:href="classNodalKernelBase.html" target="_top" xlink:title="Base class for creating new types of nodal kernels.">
<polygon fill="white" stroke="#666666" points="1003,-159.5 896,-159.5 896,-140.5 1003,-140.5 1003,-159.5"/>
<text text-anchor="middle" x="949.5" y="-147.5" font-family="Courier,monospace" font-size="10.00">NodalKernelBase</text>
</a>
</g>
</g>
<!-- Node2&#45;&gt;Node1 -->
<g id="edge1" class="edge">
<title>Node2&#45;&gt;Node1</title>
<path fill="none" stroke="#63b8ff" d="M1014.82,-150C1022.98,-150 1031.14,-150 1038.79,-150"/>
<polygon fill="#63b8ff" stroke="#63b8ff" points="1014.86,-146.5 1004.85,-150 1014.85,-153.5 1014.86,-146.5"/>
</g>
<!-- Node3 -->
<g id="node3" class="node">
<title>Node3</title>
<g id="a_node3"><a xlink:href="classResidualObject.html" target="_top" xlink:title="This is the common base class for objects that give residual contributions.">
<polygon fill="white" stroke="#666666" points="803,-320.5 702,-320.5 702,-301.5 803,-301.5 803,-320.5"/>
<text text-anchor="middle" x="752.5" y="-308.5" font-family="Courier,monospace" font-size="10.00">ResidualObject</text>
</a>
</g>
</g>
<!-- Node3&#45;&gt;Node2 -->
<g id="edge2" class="edge">
<title>Node3&#45;&gt;Node2</title>
<path fill="none" stroke="#63b8ff" d="M775.01,-293.87C796.61,-276.62 830.78,-249.17 860,-225 887.93,-201.89 920.34,-174.2 937.12,-159.8"/>
<polygon fill="#63b8ff" stroke="#63b8ff" points="772.86,-291.12 767.22,-300.09 777.22,-296.59 772.86,-291.12"/>
</g>
<!-- Node4 -->
<g id="node4" class="node">
<title>Node4</title>
<g id="a_node4"><a xlink:href="classMooseObject.html" target="_top" xlink:title="Every object that can be built by the factory should be derived from this class.">
<polygon fill="white" stroke="#666666" points="546,-524.5 463,-524.5 463,-505.5 546,-505.5 546,-524.5"/>
<text text-anchor="middle" x="504.5" y="-512.5" font-family="Courier,monospace" font-size="10.00">MooseObject</text>
</a>
</g>
</g>
<!-- Node4&#45;&gt;Node3 -->
<g id="edge3" class="edge">
<title>Node4&#45;&gt;Node3</title>
<path fill="none" stroke="#63b8ff" d="M557.63,-513.48C574.95,-511.07 593.71,-506.26 609,-497 683.46,-451.9 733.01,-352.23 747.26,-320.73"/>
<polygon fill="#63b8ff" stroke="#63b8ff" points="557.54,-509.96 548,-514.57 558.33,-516.92 557.54,-509.96"/>
</g>
<!-- Node5 -->
<g id="node5" class="node">
<title>Node5</title>
<g id="a_node5"><a xlink:href="classMooseBase.html" target="_top" xlink:title="Base class for everything in MOOSE with a name and a type.">
<polygon fill="white" stroke="#666666" points="310,-598.5 239,-598.5 239,-579.5 310,-579.5 310,-598.5"/>
<text text-anchor="middle" x="274.5" y="-586.5" font-family="Courier,monospace" font-size="10.00">MooseBase</text>
</a>
</g>
</g>
<!-- Node5&#45;&gt;Node4 -->
<g id="edge4" class="edge">
<title>Node5&#45;&gt;Node4</title>
<path fill="none" stroke="#63b8ff" d="M321.54,-581.28C335.32,-578.53 350.39,-575.08 364,-571 407,-558.11 455.19,-537.26 482.19,-524.97"/>
<polygon fill="#63b8ff" stroke="#63b8ff" points="320.97,-577.82 311.81,-583.14 322.29,-584.7 320.97,-577.82"/>
</g>
<!-- Node6 -->
<g id="node6" class="node">
<title>Node6</title>
<g id="a_node6"><a xlink:href="classMooseBaseParameterInterface.html" target="_top" xlink:title="Every object that can be built by the factory should be derived from this class.">
<polygon fill="white" stroke="#666666" points="364,-561.5 185,-561.5 185,-542.5 364,-542.5 364,-561.5"/>
<text text-anchor="middle" x="274.5" y="-549.5" font-family="Courier,monospace" font-size="10.00">MooseBaseParameterInterface</text>
</a>
</g>
</g>
<!-- Node6&#45;&gt;Node4 -->
<g id="edge5" class="edge">
<title>Node6&#45;&gt;Node4</title>
<path fill="none" stroke="#63b8ff" d="M347.88,-540.25C385.73,-534.11 430.68,-526.82 462.51,-521.65"/>
<polygon fill="#63b8ff" stroke="#63b8ff" points="347.7,-536.74 338.39,-541.79 348.83,-543.65 347.7,-536.74"/>
</g>
<!-- Node7 -->
<g id="node7" class="node">
<title>Node7</title>
<g id="a_node7"><a xlink:href="classMooseBaseErrorInterface.html" target="_top" xlink:title="Interface that provides APIs to output errors/warnings/info messages.">
<polygon fill="white" stroke="#666666" points="352,-524.5 197,-524.5 197,-505.5 352,-505.5 352,-524.5"/>
<text text-anchor="middle" x="274.5" y="-512.5" font-family="Courier,monospace" font-size="10.00">MooseBaseErrorInterface</text>
</a>
</g>
</g>
<!-- Node7&#45;&gt;Node4 -->
<g id="edge6" class="edge">
<title>Node7&#45;&gt;Node4</title>
<path fill="none" stroke="#63b8ff" d="M363.8,-515C397.92,-515 435.28,-515 462.77,-515"/>
<polygon fill="#63b8ff" stroke="#63b8ff" points="363.89,-511.5 353.89,-515 363.89,-518.5 363.89,-511.5"/>
</g>
<!-- Node8 -->
<g id="node8" class="node">
<title>Node8</title>
<g id="a_node8"><a xlink:href="classConsoleStreamInterface.html" target="_top" xlink:title="An inteface for the _console for outputting to the Console object.">
<polygon fill="white" stroke="#666666" points="149,-524.5 0,-524.5 0,-505.5 149,-505.5 149,-524.5"/>
<text text-anchor="middle" x="74.5" y="-512.5" font-family="Courier,monospace" font-size="10.00">ConsoleStreamInterface</text>
</a>
</g>
</g>
<!-- Node8&#45;&gt;Node7 -->
<g id="edge7" class="edge">
<title>Node8&#45;&gt;Node7</title>
<path fill="none" stroke="#63b8ff" d="M160.62,-515C172.62,-515 184.9,-515 196.73,-515"/>
<polygon fill="#63b8ff" stroke="#63b8ff" points="160.74,-511.5 150.74,-515 160.74,-518.5 160.74,-511.5"/>
</g>
<!-- Node9 -->
<g id="node9" class="node">
<title>Node9</title>
<g id="a_node9"><a xlink:title=" ">
<polygon fill="white" stroke="#666666" points="352,-487.5 197,-487.5 197,-468.5 352,-468.5 352,-487.5"/>
<text text-anchor="middle" x="274.5" y="-475.5" font-family="Courier,monospace" font-size="10.00">libMesh::ParallelObject</text>
</a>
</g>
</g>
<!-- Node9&#45;&gt;Node4 -->
<g id="edge8" class="edge">
<title>Node9&#45;&gt;Node4</title>
<path fill="none" stroke="#63b8ff" d="M347.88,-489.75C385.73,-495.89 430.68,-503.18 462.51,-508.35"/>
<polygon fill="#63b8ff" stroke="#63b8ff" points="348.83,-486.35 338.39,-488.21 347.7,-493.26 348.83,-486.35"/>
</g>
<!-- Node10 -->
<g id="node10" class="node">
<title>Node10</title>
<g id="a_node10"><a xlink:href="classDataFileInterface.html" target="_top" xlink:title=" ">
<polygon fill="white" stroke="#666666" points="337,-450 212,-450 212,-420 337,-420 337,-450"/>
<text text-anchor="start" x="220" y="-438" font-family="Courier,monospace" font-size="10.00">DataFileInterface&lt;</text>
<text text-anchor="middle" x="274.5" y="-427" font-family="Courier,monospace" font-size="10.00"> MooseObject &gt;</text>
</a>
</g>
</g>
<!-- Node10&#45;&gt;Node4 -->
<g id="edge9" class="edge">
<title>Node10&#45;&gt;Node4</title>
<path fill="none" stroke="#63b8ff" d="M347.62,-451.85C353.32,-454.23 358.86,-456.94 364,-460 383.71,-471.74 379.71,-486.29 400,-497 419.11,-507.09 442.71,-511.69 462.54,-513.73"/>
<polygon fill="#63b8ff" stroke="#63b8ff" points="349.23,-448.72 338.64,-448.44 346.74,-455.26 349.23,-448.72"/>
</g>
<!-- Node11 -->
<g id="node11" class="node">
<title>Node11</title>
<g id="a_node11"><a xlink:href="classSetupInterface.html" target="_top" xlink:title=" ">
<polygon fill="white" stroke="#666666" points="555,-487.5 454,-487.5 454,-468.5 555,-468.5 555,-487.5"/>
<text text-anchor="middle" x="504.5" y="-475.5" font-family="Courier,monospace" font-size="10.00">SetupInterface</text>
</a>
</g>
</g>
<!-- Node11&#45;&gt;Node3 -->
<g id="edge10" class="edge">
<title>Node11&#45;&gt;Node3</title>
<path fill="none" stroke="#63b8ff" d="M566.26,-474C580.86,-471.29 595.98,-466.94 609,-460 675.01,-424.8 728.22,-347.76 745.53,-320.66"/>
<polygon fill="#63b8ff" stroke="#63b8ff" points="566.06,-470.49 556.74,-475.52 567.16,-477.4 566.06,-470.49"/>
</g>
<!-- Node12 -->
<g id="node12" class="node">
<title>Node12</title>
<g id="a_node12"><a xlink:href="classFunctionInterface.html" target="_top" xlink:title="Interface for objects that need to use functions.">
<polygon fill="white" stroke="#666666" points="564,-450.5 445,-450.5 445,-431.5 564,-431.5 564,-450.5"/>
<text text-anchor="middle" x="504.5" y="-438.5" font-family="Courier,monospace" font-size="10.00">FunctionInterface</text>
</a>
</g>
</g>
<!-- Node12&#45;&gt;Node3 -->
<g id="edge11" class="edge">
<title>Node12&#45;&gt;Node3</title>
<path fill="none" stroke="#63b8ff" d="M575.44,-433.7C586.94,-431.13 598.52,-427.67 609,-423 666.77,-397.26 721.67,-342.89 742.59,-320.72"/>
<polygon fill="#63b8ff" stroke="#63b8ff" points="575.07,-430.2 565.96,-435.59 576.45,-437.06 575.07,-430.2"/>
</g>
<!-- Node13 -->
<g id="node13" class="node">
<title>Node13</title>
<g id="a_node13"><a xlink:href="classUserObjectInterface.html" target="_top" xlink:title="Interface for objects that need to use UserObjects.">
<polygon fill="white" stroke="#666666" points="570,-413.5 439,-413.5 439,-394.5 570,-394.5 570,-413.5"/>
<text text-anchor="middle" x="504.5" y="-401.5" font-family="Courier,monospace" font-size="10.00">UserObjectInterface</text>
</a>
</g>
</g>
<!-- Node13&#45;&gt;Node3 -->
<g id="edge12" class="edge">
<title>Node13&#45;&gt;Node3</title>
<path fill="none" stroke="#63b8ff" d="M581.36,-393.63C590.78,-391.52 600.19,-389 609,-386 658.22,-369.23 711.14,-337.24 736.4,-320.99"/>
<polygon fill="#63b8ff" stroke="#63b8ff" points="580.89,-390.16 571.81,-395.62 582.31,-397.01 580.89,-390.16"/>
</g>
<!-- Node14 -->
<g id="node14" class="node">
<title>Node14</title>
<g id="a_node14"><a xlink:href="classTransientInterface.html" target="_top" xlink:title="Interface for objects that needs transient capabilities.">
<polygon fill="white" stroke="#666666" points="567,-376.5 442,-376.5 442,-357.5 567,-357.5 567,-376.5"/>
<text text-anchor="middle" x="504.5" y="-364.5" font-family="Courier,monospace" font-size="10.00">TransientInterface</text>
</a>
</g>
</g>
<!-- Node14&#45;&gt;Node3 -->
<g id="edge13" class="edge">
<title>Node14&#45;&gt;Node3</title>
<path fill="none" stroke="#63b8ff" d="M578.35,-355.17C588.67,-353.25 599.12,-351.17 609,-349 646.39,-340.78 688.7,-329.2 717.44,-320.99"/>
<polygon fill="#63b8ff" stroke="#63b8ff" points="577.95,-351.68 568.73,-356.91 579.2,-358.57 577.95,-351.68"/>
</g>
<!-- Node15 -->
<g id="node15" class="node">
<title>Node15</title>
<g id="a_node15"><a xlink:href="classPostprocessorInterface.html" target="_top" xlink:title="Interface class for classes which interact with Postprocessors.">
<polygon fill="white" stroke="#666666" points="579,-339.5 430,-339.5 430,-320.5 579,-320.5 579,-339.5"/>
<text text-anchor="middle" x="504.5" y="-327.5" font-family="Courier,monospace" font-size="10.00">PostprocessorInterface</text>
</a>
</g>
</g>
<!-- Node15&#45;&gt;Node3 -->
<g id="edge14" class="edge">
<title>Node15&#45;&gt;Node3</title>
<path fill="none" stroke="#63b8ff" d="M590.61,-323.43C627.61,-320.57 669.67,-317.32 701.51,-314.86"/>
<polygon fill="#63b8ff" stroke="#63b8ff" points="590.52,-319.92 580.82,-324.18 591.06,-326.9 590.52,-319.92"/>
</g>
<!-- Node16 -->
<g id="node16" class="node">
<title>Node16</title>
<g id="a_node16"><a xlink:href="classVectorPostprocessorInterface.html" target="_top" xlink:title=" ">
<polygon fill="white" stroke="#666666" points="597,-302.5 412,-302.5 412,-283.5 597,-283.5 597,-302.5"/>
<text text-anchor="middle" x="504.5" y="-290.5" font-family="Courier,monospace" font-size="10.00">VectorPostprocessorInterface</text>
</a>
</g>
</g>
<!-- Node16&#45;&gt;Node3 -->
<g id="edge15" class="edge">
<title>Node16&#45;&gt;Node3</title>
<path fill="none" stroke="#63b8ff" d="M608.74,-300.55C640.92,-302.91 674.96,-305.4 701.72,-307.36"/>
<polygon fill="#63b8ff" stroke="#63b8ff" points="609.19,-297.08 598.96,-299.84 608.68,-304.06 609.19,-297.08"/>
</g>
<!-- Node17 -->
<g id="node17" class="node">
<title>Node17</title>
<g id="a_node17"><a xlink:href="classRandomInterface.html" target="_top" xlink:title="Interface for objects that need parallel consistent random numbers without patterns over the course o...">
<polygon fill="white" stroke="#666666" points="558,-265.5 451,-265.5 451,-246.5 558,-246.5 558,-265.5"/>
<text text-anchor="middle" x="504.5" y="-253.5" font-family="Courier,monospace" font-size="10.00">RandomInterface</text>
</a>
</g>
</g>
<!-- Node17&#45;&gt;Node3 -->
<g id="edge16" class="edge">
<title>Node17&#45;&gt;Node3</title>
<path fill="none" stroke="#63b8ff" d="M569.59,-267.08C582.66,-269.54 596.3,-272.23 609,-275 645.15,-282.88 686.07,-293.38 714.75,-301.01"/>
<polygon fill="#63b8ff" stroke="#63b8ff" points="570.24,-263.65 559.78,-265.27 568.97,-270.53 570.24,-263.65"/>
</g>
<!-- Node18 -->
<g id="node18" class="node">
<title>Node18</title>
<g id="a_node18"><a xlink:href="classRestartable.html" target="_top" xlink:title="A class for creating restricted objects.">
<polygon fill="white" stroke="#666666" points="546,-228.5 463,-228.5 463,-209.5 546,-209.5 546,-228.5"/>
<text text-anchor="middle" x="504.5" y="-216.5" font-family="Courier,monospace" font-size="10.00">Restartable</text>
</a>
</g>
</g>
<!-- Node18&#45;&gt;Node3 -->
<g id="edge17" class="edge">
<title>Node18&#45;&gt;Node3</title>
<path fill="none" stroke="#63b8ff" d="M557.29,-225.46C574.05,-228.36 592.56,-232.41 609,-238 657.69,-254.54 710.43,-285.3 735.93,-301.09"/>
<polygon fill="#63b8ff" stroke="#63b8ff" points="557.93,-222.02 547.5,-223.88 556.81,-228.93 557.93,-222.02"/>
</g>
<!-- Node19 -->
<g id="node19" class="node">
<title>Node19</title>
<g id="a_node19"><a xlink:href="classMeshChangedInterface.html" target="_top" xlink:title="Interface for notifications that the mesh has changed.">
<polygon fill="white" stroke="#666666" points="573,-191.5 436,-191.5 436,-172.5 573,-172.5 573,-191.5"/>
<text text-anchor="middle" x="504.5" y="-179.5" font-family="Courier,monospace" font-size="10.00">MeshChangedInterface</text>
</a>
</g>
</g>
<!-- Node19&#45;&gt;Node3 -->
<g id="edge18" class="edge">
<title>Node19&#45;&gt;Node3</title>
<path fill="none" stroke="#63b8ff" d="M584.55,-192.43C592.98,-194.74 601.29,-197.56 609,-201 623.77,-207.59 707.82,-275.44 739.46,-301.18"/>
<polygon fill="#63b8ff" stroke="#63b8ff" points="585.45,-189.05 574.91,-190.05 583.77,-195.85 585.45,-189.05"/>
</g>
<!-- Node20 -->
<g id="node20" class="node">
<title>Node20</title>
<g id="a_node20"><a xlink:href="classTaggingInterface.html" target="_top" xlink:title=" ">
<polygon fill="white" stroke="#666666" points="561,-154.5 448,-154.5 448,-135.5 561,-135.5 561,-154.5"/>
<text text-anchor="middle" x="504.5" y="-142.5" font-family="Courier,monospace" font-size="10.00">TaggingInterface</text>
</a>
</g>
</g>
<!-- Node20&#45;&gt;Node3 -->
<g id="edge19" class="edge">
<title>Node20&#45;&gt;Node3</title>
<path fill="none" stroke="#63b8ff" d="M572.19,-148.63C585.22,-151.64 598.18,-156.44 609,-164 634.81,-182.02 624.42,-201.17 645,-225 672.8,-257.2 713.79,-286.41 735.94,-301.08"/>
<polygon fill="#63b8ff" stroke="#63b8ff" points="573.24,-145.27 562.76,-146.8 571.91,-152.14 573.24,-145.27"/>
</g>
<!-- Node21 -->
<g id="node21" class="node">
<title>Node21</title>
<g id="a_node21"><a xlink:href="classBlockRestrictable.html" target="_top" xlink:title="An interface that restricts an object to subdomains via the &#39;blocks&#39; input parameter.">
<polygon fill="white" stroke="#666666" points="812,-215.5 693,-215.5 693,-196.5 812,-196.5 812,-215.5"/>
<text text-anchor="middle" x="752.5" y="-203.5" font-family="Courier,monospace" font-size="10.00">BlockRestrictable</text>
</a>
</g>
</g>
<!-- Node21&#45;&gt;Node2 -->
<g id="edge20" class="edge">
<title>Node21&#45;&gt;Node2</title>
<path fill="none" stroke="#63b8ff" d="M823.54,-196.61C835.81,-194.27 848.36,-191.43 860,-188 884.54,-180.77 911.36,-168.61 928.97,-159.99"/>
<polygon fill="#63b8ff" stroke="#63b8ff" points="823.1,-193.13 813.88,-198.35 824.34,-200.02 823.1,-193.13"/>
</g>
<!-- Node22 -->
<g id="node22" class="node">
<title>Node22</title>
<g id="a_node22"><a xlink:href="classBoundaryRestrictable.html" target="_top" xlink:title="/class BoundaryRestrictable /brief Provides functionality for limiting the object to certain boundary...">
<polygon fill="white" stroke="#666666" points="821,-178.5 684,-178.5 684,-159.5 821,-159.5 821,-178.5"/>
<text text-anchor="middle" x="752.5" y="-166.5" font-family="Courier,monospace" font-size="10.00">BoundaryRestrictable</text>
</a>
</g>
</g>
<!-- Node22&#45;&gt;Node2 -->
<g id="edge21" class="edge">
<title>Node22&#45;&gt;Node2</title>
<path fill="none" stroke="#63b8ff" d="M832.69,-161.28C853.85,-159.22 876.2,-157.05 895.56,-155.16"/>
<polygon fill="#63b8ff" stroke="#63b8ff" points="832.55,-157.78 822.93,-162.23 833.23,-164.75 832.55,-157.78"/>
</g>
<!-- Node23 -->
<g id="node23" class="node">
<title>Node23</title>
<g id="a_node23"><a xlink:href="classGeometricSearchInterface.html" target="_top" xlink:title=" ">
<polygon fill="white" stroke="#666666" points="833,-141.5 672,-141.5 672,-122.5 833,-122.5 833,-141.5"/>
<text text-anchor="middle" x="752.5" y="-129.5" font-family="Courier,monospace" font-size="10.00">GeometricSearchInterface</text>
</a>
</g>
</g>
<!-- Node23&#45;&gt;Node2 -->
<g id="edge22" class="edge">
<title>Node23&#45;&gt;Node2</title>
<path fill="none" stroke="#63b8ff" d="M844.8,-140.43C862.28,-142.04 880.03,-143.68 895.79,-145.13"/>
<polygon fill="#63b8ff" stroke="#63b8ff" points="845.16,-136.95 834.88,-139.51 844.52,-143.92 845.16,-136.95"/>
</g>
<!-- Node24 -->
<g id="node24" class="node">
<title>Node24</title>
<g id="a_node24"><a xlink:href="classCoupleableMooseVariableDependencyIntermediateInterface.html" target="_top" xlink:title="Intermediate base class that ties together all the interfaces for getting MooseVariableFEBases with t...">
<polygon fill="white" stroke="#666666" points="860,-104 645,-104 645,-74 860,-74 860,-104"/>
<text text-anchor="start" x="653" y="-92" font-family="Courier,monospace" font-size="10.00">CoupleableMooseVariableDependency</text>
<text text-anchor="middle" x="752.5" y="-81" font-family="Courier,monospace" font-size="10.00">IntermediateInterface</text>
</a>
</g>
</g>
<!-- Node24&#45;&gt;Node2 -->
<g id="edge23" class="edge">
<title>Node24&#45;&gt;Node2</title>
<path fill="none" stroke="#63b8ff" d="M837.11,-107.31C844.89,-109.41 852.62,-111.65 860,-114 883.23,-121.4 908.96,-132.17 926.67,-140"/>
<polygon fill="#63b8ff" stroke="#63b8ff" points="838.12,-103.96 827.56,-104.82 836.35,-110.73 838.12,-103.96"/>
</g>
<!-- Node25 -->
<g id="node25" class="node">
<title>Node25</title>
<g id="a_node25"><a xlink:href="classCoupleable.html" target="_top" xlink:title="Interface for objects that needs coupling capabilities.">
<polygon fill="white" stroke="#666666" points="543,-117.5 466,-117.5 466,-98.5 543,-98.5 543,-117.5"/>
<text text-anchor="middle" x="504.5" y="-105.5" font-family="Courier,monospace" font-size="10.00">Coupleable</text>
</a>
</g>
</g>
<!-- Node25&#45;&gt;Node24 -->
<g id="edge24" class="edge">
<title>Node25&#45;&gt;Node24</title>
<path fill="none" stroke="#63b8ff" d="M554.76,-104.2C580.62,-102.2 613.37,-99.67 644.69,-97.25"/>
<polygon fill="#63b8ff" stroke="#63b8ff" points="554.61,-100.7 544.91,-104.96 555.15,-107.68 554.61,-100.7"/>
</g>
<!-- Node26 -->
<g id="node26" class="node">
<title>Node26</title>
<g id="a_node26"><a xlink:href="classScalarCoupleable.html" target="_top" xlink:title="Interface for objects that needs scalar coupling capabilities.">
<polygon fill="white" stroke="#666666" points="561,-80.5 448,-80.5 448,-61.5 561,-61.5 561,-80.5"/>
<text text-anchor="middle" x="504.5" y="-68.5" font-family="Courier,monospace" font-size="10.00">ScalarCoupleable</text>
</a>
</g>
</g>
<!-- Node26&#45;&gt;Node24 -->
<g id="edge25" class="edge">
<title>Node26&#45;&gt;Node24</title>
<path fill="none" stroke="#63b8ff" d="M572.63,-75.91C594.83,-77.54 620.11,-79.39 644.53,-81.17"/>
<polygon fill="#63b8ff" stroke="#63b8ff" points="573.06,-72.43 562.83,-75.19 572.55,-79.42 573.06,-72.43"/>
</g>
<!-- Node27 -->
<g id="node27" class="node">
<title>Node27</title>
<g id="a_node27"><a xlink:href="classMooseVariableDependencyInterface.html" target="_top" xlink:title=" ">
<polygon fill="white" stroke="#666666" points="609,-43.5 400,-43.5 400,-24.5 609,-24.5 609,-43.5"/>
<text text-anchor="middle" x="504.5" y="-31.5" font-family="Courier,monospace" font-size="10.00">MooseVariableDependencyInterface</text>
</a>
</g>
</g>
<!-- Node27&#45;&gt;Node24 -->
<g id="edge26" class="edge">
<title>Node27&#45;&gt;Node24</title>
<path fill="none" stroke="#63b8ff" d="M579.21,-46.22C589.27,-48.27 599.42,-50.54 609,-53 625.33,-57.2 628.75,-60.47 645,-65 655.68,-67.98 667.04,-70.84 678.21,-73.5"/>
<polygon fill="#63b8ff" stroke="#63b8ff" points="579.9,-42.79 569.41,-44.29 578.55,-49.65 579.9,-42.79"/>
</g>
<!-- Node28 -->
<g id="node28" class="node">
<title>Node28</title>
<g id="a_node28"><a xlink:href="classMooseVariableInterface.html" target="_top" xlink:title=" ">
<polygon fill="white" stroke="#666666" points="827,-56 678,-56 678,-26 827,-26 827,-56"/>
<text text-anchor="start" x="686" y="-44" font-family="Courier,monospace" font-size="10.00">MooseVariableInterface</text>
<text text-anchor="middle" x="752.5" y="-33" font-family="Courier,monospace" font-size="10.00">&lt; Real &gt;</text>
</a>
</g>
</g>
<!-- Node28&#45;&gt;Node2 -->
<g id="edge27" class="edge">
<title>Node28&#45;&gt;Node2</title>
<path fill="none" stroke="#63b8ff" d="M838.13,-55.54C845.73,-58.18 853.14,-61.31 860,-65 895.84,-84.27 927.46,-122.1 941.21,-140.07"/>
<polygon fill="#63b8ff" stroke="#63b8ff" points="839.33,-52.25 828.74,-52.57 837.22,-58.92 839.33,-52.25"/>
</g>
<!-- Node35 -->
<g id="node35" class="node">
<title>Node35</title>
<g id="a_node35"><a xlink:href="classTimeDerivativeNodalKernel.html" target="_top" xlink:title="Represents du/dt.">
<polygon fill="white" stroke="#666666" points="1540,-104.5 1373,-104.5 1373,-85.5 1540,-85.5 1540,-104.5"/>
<text text-anchor="middle" x="1456.5" y="-92.5" font-family="Courier,monospace" font-size="10.00">TimeDerivativeNodalKernel</text>
</a>
</g>
</g>
<!-- Node34&#45;&gt;Node35 -->
<g id="edge34" class="edge">
<title>Node34&#45;&gt;Node35</title>
<path fill="none" stroke="#63b8ff" d="M1312.77,-95C1331.71,-95 1352.72,-95 1372.65,-95"/>
<polygon fill="#63b8ff" stroke="#63b8ff" points="1312.78,-91.5 1302.78,-95 1312.78,-98.5 1312.78,-91.5"/>
</g>
</g>
</svg>
