<?xml version="1.0" encoding="UTF-8" standalone="no"?>
<!DOCTYPE svg PUBLIC "-//W3C//DTD SVG 1.1//EN"
 "http://www.w3.org/Graphics/SVG/1.1/DTD/svg11.dtd">
<!-- Generated by graphviz version 7.0.5 (20221223.1930)
 -->
<!-- Title: SideIntegralVariableUserObject Pages: 1 -->
<!--zoomable 722 -->
<svg id="main" version="1.1" xmlns="http://www.w3.org/2000/svg" xmlns:xlink="http://www.w3.org/1999/xlink" xml:space="preserve" onload="init(evt)">
<style type="text/css"><![CDATA[
.edge:hover path { stroke: red; }
.edge:hover polygon { stroke: red; fill: red; }
]]></style>
<script type="text/javascript"><![CDATA[
var edges = document.getElementsByTagName('g');
if (edges && edges.length) {
  for (var i=0;i<edges.length;i++) {
    if (edges[i].id.substr(0,4)=='edge') {
      edges[i].setAttribute('class','edge');
    }
  }
}
]]></script>
        <defs>
                <circle id="rim" cx="0" cy="0" r="7"/>
                <circle id="rim2" cx="0" cy="0" r="3.5"/>
                <g id="zoomPlus">
                        <use xlink:href="#rim" fill="#404040">
                                <set attributeName="fill" to="#808080" begin="zoomplus.mouseover" end="zoomplus.mouseout"/>
                        </use>
                        <path d="M-4,0h8M0,-4v8" fill="none" stroke="white" stroke-width="1.5" pointer-events="none"/>
                </g>
                <g id="zoomMin">
                        <use xlink:href="#rim" fill="#404040">
                                <set attributeName="fill" to="#808080" begin="zoomminus.mouseover" end="zoomminus.mouseout"/>
                        </use>
                        <path d="M-4,0h8" fill="none" stroke="white" stroke-width="1.5" pointer-events="none"/>
                </g>
                <g id="dirArrow">
                        <path fill="none" stroke="white" stroke-width="1.5" d="M0,-3.0v7 M-2.5,-0.5L0,-3.0L2.5,-0.5"/>
                </g>
               <g id="resetDef">
                       <use xlink:href="#rim2" fill="#404040">
                               <set attributeName="fill" to="#808080" begin="reset.mouseover" end="reset.mouseout"/>
                       </use>
               </g>
        </defs>

<script type="text/javascript">
var viewWidth = 2408;
var viewHeight = 722;
var sectionId = 'dynsection-0';
</script>
<script xlink:href="svgpan.js"/>
<svg id="graph" class="graph">
<g id="viewport">
<title>SideIntegralVariableUserObject</title>
<!-- Node1 -->
<g id="node1" class="node">
<title>Node1</title>
<g id="a_node1"><a xlink:title="This postprocessor computes a volume integral of the specified variable.">
<polygon fill="#999999" stroke="#666666" points="1349,-123.5 1188,-123.5 1188,-93.5 1349,-93.5 1349,-123.5"/>
<text text-anchor="start" x="1196" y="-111.5" font-family="Courier,monospace" font-size="10.00">SideIntegralVariableUser</text>
<text text-anchor="middle" x="1268.5" y="-100.5" font-family="Courier,monospace" font-size="10.00">Object</text>
</a>
</g>
</g>
<!-- Node34 -->
<g id="node34" class="node">
<title>Node34</title>
<g id="a_node34"><a xlink:href="classLayeredSideIntegralBase.html" target="_top" xlink:title=" ">
<polygon fill="white" stroke="#666666" points="1606,-207.5 1385,-207.5 1385,-177.5 1606,-177.5 1606,-207.5"/>
<text text-anchor="start" x="1393" y="-195.5" font-family="Courier,monospace" font-size="10.00">LayeredSideIntegralBase</text>
<text text-anchor="middle" x="1495.5" y="-184.5" font-family="Courier,monospace" font-size="10.00">&lt; SideIntegralVariableUserObject &gt;</text>
</a>
</g>
</g>
<!-- Node1&#45;&gt;Node34 -->
<g id="edge33" class="edge">
<title>Node1&#45;&gt;Node34</title>
<path fill="none" stroke="#63b8ff" d="M1304.02,-129.5C1326.42,-142.34 1356.63,-158.23 1385,-168.5 1393.78,-171.68 1403.12,-174.51 1412.5,-177.01"/>
<polygon fill="#63b8ff" stroke="#63b8ff" points="1306.02,-126.61 1295.62,-124.6 1302.5,-132.66 1306.02,-126.61"/>
</g>
<!-- Node39 -->
<g id="node39" class="node">
<title>Node39</title>
<g id="a_node39"><a xlink:href="classNearestPointBase.html" target="_top" xlink:title=" ">
<polygon fill="white" stroke="#666666" points="1603,-159 1388,-159 1388,-118 1603,-118 1603,-159"/>
<text text-anchor="start" x="1396" y="-147" font-family="Courier,monospace" font-size="10.00">NearestPointBase&lt; Layered</text>
<text text-anchor="start" x="1396" y="-136" font-family="Courier,monospace" font-size="10.00">SideAverage, SideIntegralVariable</text>
<text text-anchor="middle" x="1495.5" y="-125" font-family="Courier,monospace" font-size="10.00">UserObject &gt;</text>
</a>
</g>
</g>
<!-- Node1&#45;&gt;Node39 -->
<g id="edge38" class="edge">
<title>Node1&#45;&gt;Node39</title>
<path fill="none" stroke="#63b8ff" d="M1360.62,-120.65C1369.52,-121.84 1378.61,-123.05 1387.65,-124.25"/>
<polygon fill="#63b8ff" stroke="#63b8ff" points="1361.34,-117.21 1350.96,-119.36 1360.41,-124.15 1361.34,-117.21"/>
</g>
<!-- Node41 -->
<g id="node41" class="node">
<title>Node41</title>
<g id="a_node41"><a xlink:href="classNearestPointBase.html" target="_top" xlink:title=" ">
<polygon fill="white" stroke="#666666" points="1603,-100 1388,-100 1388,-59 1603,-59 1603,-100"/>
<text text-anchor="start" x="1396" y="-88" font-family="Courier,monospace" font-size="10.00">NearestPointBase&lt; Layered</text>
<text text-anchor="start" x="1396" y="-77" font-family="Courier,monospace" font-size="10.00">SideDiffusiveFluxAverage,</text>
<text text-anchor="middle" x="1495.5" y="-66" font-family="Courier,monospace" font-size="10.00"> SideIntegralVariableUserObject &gt;</text>
</a>
</g>
</g>
<!-- Node1&#45;&gt;Node41 -->
<g id="edge40" class="edge">
<title>Node1&#45;&gt;Node41</title>
<path fill="none" stroke="#63b8ff" d="M1360.62,-96.76C1369.52,-95.61 1378.61,-94.44 1387.65,-93.27"/>
<polygon fill="#63b8ff" stroke="#63b8ff" points="1360.43,-93.25 1350.96,-98 1361.33,-100.19 1360.43,-93.25"/>
</g>
<!-- Node43 -->
<g id="node43" class="node">
<title>Node43</title>
<g id="a_node43"><a xlink:href="classNearestPointBase.html" target="_top" xlink:title=" ">
<polygon fill="white" stroke="#666666" points="1606,-41 1385,-41 1385,0 1606,0 1606,-41"/>
<text text-anchor="start" x="1393" y="-29" font-family="Courier,monospace" font-size="10.00">NearestPointBase&lt; Layered</text>
<text text-anchor="start" x="1393" y="-18" font-family="Courier,monospace" font-size="10.00">SideIntegral, SideIntegralVariable</text>
<text text-anchor="middle" x="1495.5" y="-7" font-family="Courier,monospace" font-size="10.00">UserObject &gt;</text>
</a>
</g>
</g>
<!-- Node1&#45;&gt;Node43 -->
<g id="edge42" class="edge">
<title>Node1&#45;&gt;Node43</title>
<path fill="none" stroke="#63b8ff" d="M1305.4,-87.64C1327.75,-75.3 1357.41,-60.06 1385,-49.5 1392.44,-46.65 1400.26,-43.98 1408.17,-41.5"/>
<polygon fill="#63b8ff" stroke="#63b8ff" points="1303.71,-84.58 1296.69,-92.52 1307.13,-90.69 1303.71,-84.58"/>
</g>
<!-- Node2 -->
<g id="node2" class="node">
<title>Node2</title>
<g id="a_node2"><a xlink:href="classSideIntegralUserObject.html" target="_top" xlink:title="This postprocessor computes a side integral of the specified variable over a given boundary.">
<polygon fill="white" stroke="#666666" points="1152,-140 1003,-140 1003,-121 1152,-121 1152,-140"/>
<text text-anchor="middle" x="1077.5" y="-128" font-family="Courier,monospace" font-size="10.00">SideIntegralUserObject</text>
</a>
</g>
</g>
<!-- Node2&#45;&gt;Node1 -->
<g id="edge1" class="edge">
<title>Node2&#45;&gt;Node1</title>
<path fill="none" stroke="#63b8ff" d="M1163.64,-120.59C1171.66,-119.66 1179.77,-118.71 1187.73,-117.79"/>
<polygon fill="#63b8ff" stroke="#63b8ff" points="1163.42,-117.09 1153.89,-121.72 1164.23,-124.04 1163.42,-117.09"/>
</g>
<!-- Node3 -->
<g id="node3" class="node">
<title>Node3</title>
<g id="a_node3"><a xlink:href="classSideUserObject.html" target="_top" xlink:title="Base class for user objects executed one or more sidesets, which may be on the outer boundary of the ...">
<polygon fill="white" stroke="#666666" points="967,-140 866,-140 866,-121 967,-121 967,-140"/>
<text text-anchor="middle" x="916.5" y="-128" font-family="Courier,monospace" font-size="10.00">SideUserObject</text>
</a>
</g>
</g>
<!-- Node3&#45;&gt;Node2 -->
<g id="edge2" class="edge">
<title>Node3&#45;&gt;Node2</title>
<path fill="none" stroke="#63b8ff" d="M978.66,-130.5C986.51,-130.5 994.61,-130.5 1002.64,-130.5"/>
<polygon fill="#63b8ff" stroke="#63b8ff" points="978.89,-127 968.89,-130.5 978.89,-134 978.89,-127"/>
</g>
<!-- Node4 -->
<g id="node4" class="node">
<title>Node4</title>
<g id="a_node4"><a xlink:href="classUserObject.html" target="_top" xlink:title="Base class for user&#45;specific data.">
<polygon fill="white" stroke="#666666" points="764,-362 687,-362 687,-343 764,-343 764,-362"/>
<text text-anchor="middle" x="725.5" y="-350" font-family="Courier,monospace" font-size="10.00">UserObject</text>
</a>
</g>
</g>
<!-- Node4&#45;&gt;Node3 -->
<g id="edge3" class="edge">
<title>Node4&#45;&gt;Node3</title>
<path fill="none" stroke="#63b8ff" d="M742.32,-333.92C780.69,-288.85 877.75,-174.84 907.02,-140.46"/>
<polygon fill="#63b8ff" stroke="#63b8ff" points="739.66,-331.64 735.85,-341.52 744.99,-336.18 739.66,-331.64"/>
</g>
<!-- Node5 -->
<g id="node5" class="node">
<title>Node5</title>
<g id="a_node5"><a xlink:href="classMooseObject.html" target="_top" xlink:title="Every object that can be built by the factory should be derived from this class.">
<polygon fill="white" stroke="#666666" points="534,-640 451,-640 451,-621 534,-621 534,-640"/>
<text text-anchor="middle" x="492.5" y="-628" font-family="Courier,monospace" font-size="10.00">MooseObject</text>
</a>
</g>
</g>
<!-- Node5&#45;&gt;Node4 -->
<g id="edge4" class="edge">
<title>Node5&#45;&gt;Node4</title>
<path fill="none" stroke="#63b8ff" d="M545.39,-628.32C559.28,-625.69 573.59,-620.93 585,-612.5 675.85,-545.38 713.69,-400.99 722.44,-362.24"/>
<polygon fill="#63b8ff" stroke="#63b8ff" points="545.25,-624.8 535.9,-629.77 546.31,-631.72 545.25,-624.8"/>
</g>
<!-- Node6 -->
<g id="node6" class="node">
<title>Node6</title>
<g id="a_node6"><a xlink:href="classMooseBase.html" target="_top" xlink:title="Base class for everything in MOOSE with a name and a type.">
<polygon fill="white" stroke="#666666" points="310,-714 239,-714 239,-695 310,-695 310,-714"/>
<text text-anchor="middle" x="274.5" y="-702" font-family="Courier,monospace" font-size="10.00">MooseBase</text>
</a>
</g>
</g>
<!-- Node6&#45;&gt;Node5 -->
<g id="edge5" class="edge">
<title>Node6&#45;&gt;Node5</title>
<path fill="none" stroke="#63b8ff" d="M321.62,-697.05C335.41,-694.31 350.46,-690.8 364,-686.5 403.87,-673.85 448.08,-652.72 472.56,-640.35"/>
<polygon fill="#63b8ff" stroke="#63b8ff" points="321.06,-693.59 311.89,-698.89 322.36,-700.47 321.06,-693.59"/>
</g>
<!-- Node7 -->
<g id="node7" class="node">
<title>Node7</title>
<g id="a_node7"><a xlink:href="classMooseBaseParameterInterface.html" target="_top" xlink:title="Every object that can be built by the factory should be derived from this class.">
<polygon fill="white" stroke="#666666" points="364,-677 185,-677 185,-658 364,-658 364,-677"/>
<text text-anchor="middle" x="274.5" y="-665" font-family="Courier,monospace" font-size="10.00">MooseBaseParameterInterface</text>
</a>
</g>
</g>
<!-- Node7&#45;&gt;Node5 -->
<g id="edge6" class="edge">
<title>Node7&#45;&gt;Node5</title>
<path fill="none" stroke="#63b8ff" d="M344.77,-655.63C379.7,-649.65 420.85,-642.6 450.68,-637.49"/>
<polygon fill="#63b8ff" stroke="#63b8ff" points="344.43,-652.14 335.16,-657.28 345.61,-659.04 344.43,-652.14"/>
</g>
<!-- Node8 -->
<g id="node8" class="node">
<title>Node8</title>
<g id="a_node8"><a xlink:href="classMooseBaseErrorInterface.html" target="_top" xlink:title="Interface that provides APIs to output errors/warnings/info messages.">
<polygon fill="white" stroke="#666666" points="352,-640 197,-640 197,-621 352,-621 352,-640"/>
<text text-anchor="middle" x="274.5" y="-628" font-family="Courier,monospace" font-size="10.00">MooseBaseErrorInterface</text>
</a>
</g>
</g>
<!-- Node8&#45;&gt;Node5 -->
<g id="edge7" class="edge">
<title>Node8&#45;&gt;Node5</title>
<path fill="none" stroke="#63b8ff" d="M363.7,-630.5C393.87,-630.5 426.17,-630.5 450.75,-630.5"/>
<polygon fill="#63b8ff" stroke="#63b8ff" points="363.78,-627 353.78,-630.5 363.78,-634 363.78,-627"/>
</g>
<!-- Node9 -->
<g id="node9" class="node">
<title>Node9</title>
<g id="a_node9"><a xlink:href="classConsoleStreamInterface.html" target="_top" xlink:title="An inteface for the _console for outputting to the Console object.">
<polygon fill="white" stroke="#666666" points="149,-640 0,-640 0,-621 149,-621 149,-640"/>
<text text-anchor="middle" x="74.5" y="-628" font-family="Courier,monospace" font-size="10.00">ConsoleStreamInterface</text>
</a>
</g>
</g>
<!-- Node9&#45;&gt;Node8 -->
<g id="edge8" class="edge">
<title>Node9&#45;&gt;Node8</title>
<path fill="none" stroke="#63b8ff" d="M160.62,-630.5C172.62,-630.5 184.9,-630.5 196.73,-630.5"/>
<polygon fill="#63b8ff" stroke="#63b8ff" points="160.74,-627 150.74,-630.5 160.74,-634 160.74,-627"/>
</g>
<!-- Node10 -->
<g id="node10" class="node">
<title>Node10</title>
<g id="a_node10"><a xlink:title=" ">
<polygon fill="white" stroke="#666666" points="352,-603 197,-603 197,-584 352,-584 352,-603"/>
<text text-anchor="middle" x="274.5" y="-591" font-family="Courier,monospace" font-size="10.00">libMesh::ParallelObject</text>
</a>
</g>
</g>
<!-- Node10&#45;&gt;Node5 -->
<g id="edge9" class="edge">
<title>Node10&#45;&gt;Node5</title>
<path fill="none" stroke="#63b8ff" d="M344.77,-605.37C379.7,-611.35 420.85,-618.4 450.68,-623.51"/>
<polygon fill="#63b8ff" stroke="#63b8ff" points="345.61,-601.96 335.16,-603.72 344.43,-608.86 345.61,-601.96"/>
</g>
<!-- Node11 -->
<g id="node11" class="node">
<title>Node11</title>
<g id="a_node11"><a xlink:href="classDataFileInterface.html" target="_top" xlink:title=" ">
<polygon fill="white" stroke="#666666" points="337,-565.5 212,-565.5 212,-535.5 337,-535.5 337,-565.5"/>
<text text-anchor="start" x="220" y="-553.5" font-family="Courier,monospace" font-size="10.00">DataFileInterface&lt;</text>
<text text-anchor="middle" x="274.5" y="-542.5" font-family="Courier,monospace" font-size="10.00"> MooseObject &gt;</text>
</a>
</g>
</g>
<!-- Node11&#45;&gt;Node5 -->
<g id="edge10" class="edge">
<title>Node11&#45;&gt;Node5</title>
<path fill="none" stroke="#63b8ff" d="M347.62,-567.35C353.32,-569.73 358.86,-572.44 364,-575.5 383.71,-587.24 379.83,-601.57 400,-612.5 415.37,-620.83 434.06,-625.34 450.53,-627.76"/>
<polygon fill="#63b8ff" stroke="#63b8ff" points="349.23,-564.22 338.64,-563.94 346.74,-570.76 349.23,-564.22"/>
</g>
<!-- Node12 -->
<g id="node12" class="node">
<title>Node12</title>
<g id="a_node12"><a xlink:href="classSetupInterface.html" target="_top" xlink:title=" ">
<polygon fill="white" stroke="#666666" points="543,-603 442,-603 442,-584 543,-584 543,-603"/>
<text text-anchor="middle" x="492.5" y="-591" font-family="Courier,monospace" font-size="10.00">SetupInterface</text>
</a>
</g>
</g>
<!-- Node12&#45;&gt;Node4 -->
<g id="edge11" class="edge">
<title>Node12&#45;&gt;Node4</title>
<path fill="none" stroke="#63b8ff" d="M554.61,-588.68C565.37,-585.88 575.99,-581.7 585,-575.5 666.99,-519.04 710.5,-397.03 721.61,-362.05"/>
<polygon fill="#63b8ff" stroke="#63b8ff" points="553.92,-585.25 544.89,-590.8 555.41,-592.09 553.92,-585.25"/>
</g>
<!-- Node13 -->
<g id="node13" class="node">
<title>Node13</title>
<g id="a_node13"><a xlink:href="classFunctionInterface.html" target="_top" xlink:title="Interface for objects that need to use functions.">
<polygon fill="white" stroke="#666666" points="552,-566 433,-566 433,-547 552,-547 552,-566"/>
<text text-anchor="middle" x="492.5" y="-554" font-family="Courier,monospace" font-size="10.00">FunctionInterface</text>
</a>
</g>
</g>
<!-- Node13&#45;&gt;Node4 -->
<g id="edge12" class="edge">
<title>Node13&#45;&gt;Node4</title>
<path fill="none" stroke="darkgreen" d="M563.08,-548.49C570.8,-545.97 578.29,-542.71 585,-538.5 658.15,-492.56 706.48,-393.45 720.37,-362.17"/>
<polygon fill="darkgreen" stroke="darkgreen" points="562.2,-545.1 553.52,-551.17 564.09,-551.84 562.2,-545.1"/>
</g>
<!-- Node14 -->
<g id="node14" class="node">
<title>Node14</title>
<g id="a_node14"><a xlink:href="classUserObjectInterface.html" target="_top" xlink:title="Interface for objects that need to use UserObjects.">
<polygon fill="white" stroke="#666666" points="558,-529 427,-529 427,-510 558,-510 558,-529"/>
<text text-anchor="middle" x="492.5" y="-517" font-family="Courier,monospace" font-size="10.00">UserObjectInterface</text>
</a>
</g>
</g>
<!-- Node14&#45;&gt;Node4 -->
<g id="edge13" class="edge">
<title>Node14&#45;&gt;Node4</title>
<path fill="none" stroke="#63b8ff" d="M569.1,-508.62C574.63,-506.63 580,-504.27 585,-501.5 649.46,-465.76 701.26,-389.73 718.42,-362.48"/>
<polygon fill="#63b8ff" stroke="#63b8ff" points="568.23,-505.22 559.74,-511.57 570.33,-511.9 568.23,-505.22"/>
</g>
<!-- Node15 -->
<g id="node15" class="node">
<title>Node15</title>
<g id="a_node15"><a xlink:href="classPostprocessorInterface.html" target="_top" xlink:title="Interface class for classes which interact with Postprocessors.">
<polygon fill="white" stroke="#666666" points="567,-492 418,-492 418,-473 567,-473 567,-492"/>
<text text-anchor="middle" x="492.5" y="-480" font-family="Courier,monospace" font-size="10.00">PostprocessorInterface</text>
</a>
</g>
</g>
<!-- Node15&#45;&gt;Node4 -->
<g id="edge14" class="edge">
<title>Node15&#45;&gt;Node4</title>
<path fill="none" stroke="darkgreen" d="M573.95,-469.02C577.74,-467.66 581.44,-466.15 585,-464.5 641.32,-438.3 694.79,-384.68 715.48,-362.47"/>
<polygon fill="darkgreen" stroke="darkgreen" points="572.97,-465.66 564.53,-472.05 575.12,-472.32 572.97,-465.66"/>
</g>
<!-- Node16 -->
<g id="node16" class="node">
<title>Node16</title>
<g id="a_node16"><a xlink:href="classVectorPostprocessorInterface.html" target="_top" xlink:title=" ">
<polygon fill="white" stroke="#666666" points="585,-455 400,-455 400,-436 585,-436 585,-455"/>
<text text-anchor="middle" x="492.5" y="-443" font-family="Courier,monospace" font-size="10.00">VectorPostprocessorInterface</text>
</a>
</g>
</g>
<!-- Node16&#45;&gt;Node4 -->
<g id="edge15" class="edge">
<title>Node16&#45;&gt;Node4</title>
<path fill="none" stroke="darkgreen" d="M568.24,-432.73C573.97,-431.17 579.61,-429.43 585,-427.5 633.15,-410.26 684.97,-378.48 709.71,-362.39"/>
<polygon fill="darkgreen" stroke="darkgreen" points="567.48,-429.32 558.64,-435.16 569.19,-436.1 567.48,-429.32"/>
</g>
<!-- Node17 -->
<g id="node17" class="node">
<title>Node17</title>
<g id="a_node17"><a xlink:href="classReporterInterface.html" target="_top" xlink:title="Interface to allow object to consume Reporter values.">
<polygon fill="white" stroke="#666666" points="552,-418 433,-418 433,-399 552,-399 552,-418"/>
<text text-anchor="middle" x="492.5" y="-406" font-family="Courier,monospace" font-size="10.00">ReporterInterface</text>
</a>
</g>
</g>
<!-- Node17&#45;&gt;Node4 -->
<g id="edge16" class="edge">
<title>Node17&#45;&gt;Node4</title>
<path fill="none" stroke="darkgreen" d="M558.53,-396.3C567.45,-394.46 576.47,-392.5 585,-390.5 621.29,-382 662.42,-370.57 690.56,-362.48"/>
<polygon fill="darkgreen" stroke="darkgreen" points="557.93,-392.85 548.83,-398.27 559.32,-399.71 557.93,-392.85"/>
</g>
<!-- Node18 -->
<g id="node18" class="node">
<title>Node18</title>
<g id="a_node18"><a xlink:href="classDistributionInterface.html" target="_top" xlink:title="Interface for objects that need to use distributions.">
<polygon fill="white" stroke="#666666" points="564,-381 421,-381 421,-362 564,-362 564,-381"/>
<text text-anchor="middle" x="492.5" y="-369" font-family="Courier,monospace" font-size="10.00">DistributionInterface</text>
</a>
</g>
</g>
<!-- Node18&#45;&gt;Node4 -->
<g id="edge17" class="edge">
<title>Node18&#45;&gt;Node4</title>
<path fill="none" stroke="darkgreen" d="M575.43,-364.76C613.35,-361.64 656.56,-358.09 686.65,-355.61"/>
<polygon fill="darkgreen" stroke="darkgreen" points="575.57,-361.24 565.89,-365.55 576.14,-368.21 575.57,-361.24"/>
</g>
<!-- Node19 -->
<g id="node19" class="node">
<title>Node19</title>
<g id="a_node19"><a xlink:href="classSamplerInterface.html" target="_top" xlink:title="Interface for objects that need to use samplers.">
<polygon fill="white" stroke="#666666" points="549,-344 436,-344 436,-325 549,-325 549,-344"/>
<text text-anchor="middle" x="492.5" y="-332" font-family="Courier,monospace" font-size="10.00">SamplerInterface</text>
</a>
</g>
</g>
<!-- Node19&#45;&gt;Node4 -->
<g id="edge18" class="edge">
<title>Node19&#45;&gt;Node4</title>
<path fill="none" stroke="darkgreen" d="M560.71,-339.74C601.74,-342.93 652.7,-346.91 686.78,-349.56"/>
<polygon fill="darkgreen" stroke="darkgreen" points="561.17,-336.26 550.93,-338.97 560.63,-343.24 561.17,-336.26"/>
</g>
<!-- Node20 -->
<g id="node20" class="node">
<title>Node20</title>
<g id="a_node20"><a xlink:href="classRestartable.html" target="_top" xlink:title="A class for creating restricted objects.">
<polygon fill="white" stroke="#666666" points="534,-307 451,-307 451,-288 534,-288 534,-307"/>
<text text-anchor="middle" x="492.5" y="-295" font-family="Courier,monospace" font-size="10.00">Restartable</text>
</a>
</g>
</g>
<!-- Node20&#45;&gt;Node4 -->
<g id="edge19" class="edge">
<title>Node20&#45;&gt;Node4</title>
<path fill="none" stroke="darkgreen" d="M545.27,-307.8C558.27,-310.51 572.17,-313.51 585,-316.5 620.08,-324.66 659.83,-335.03 687.9,-342.55"/>
<polygon fill="darkgreen" stroke="darkgreen" points="546.11,-304.4 535.61,-305.81 544.7,-311.26 546.11,-304.4"/>
</g>
<!-- Node21 -->
<g id="node21" class="node">
<title>Node21</title>
<g id="a_node21"><a xlink:href="classMeshMetaDataInterface.html" target="_top" xlink:title="The Interface used to retrieve mesh meta data (attributes) set by the MeshGenerator system.">
<polygon fill="white" stroke="#666666" points="564,-270 421,-270 421,-251 564,-251 564,-270"/>
<text text-anchor="middle" x="492.5" y="-258" font-family="Courier,monospace" font-size="10.00">MeshMetaDataInterface</text>
</a>
</g>
</g>
<!-- Node21&#45;&gt;Node4 -->
<g id="edge20" class="edge">
<title>Node21&#45;&gt;Node4</title>
<path fill="none" stroke="darkgreen" d="M564.33,-273.15C571.39,-275.02 578.38,-277.13 585,-279.5 632.62,-296.53 684.26,-327.07 709.25,-342.7"/>
<polygon fill="darkgreen" stroke="darkgreen" points="565.25,-269.77 554.7,-270.77 563.56,-276.57 565.25,-269.77"/>
</g>
<!-- Node22 -->
<g id="node22" class="node">
<title>Node22</title>
<g id="a_node22"><a xlink:href="classMeshChangedInterface.html" target="_top" xlink:title="Interface for notifications that the mesh has changed.">
<polygon fill="white" stroke="#666666" points="561,-233 424,-233 424,-214 561,-214 561,-233"/>
<text text-anchor="middle" x="492.5" y="-221" font-family="Courier,monospace" font-size="10.00">MeshChangedInterface</text>
</a>
</g>
</g>
<!-- Node22&#45;&gt;Node4 -->
<g id="edge21" class="edge">
<title>Node22&#45;&gt;Node4</title>
<path fill="none" stroke="darkgreen" d="M570.63,-236.77C575.58,-238.46 580.41,-240.36 585,-242.5 640.91,-268.56 694.6,-321.04 715.42,-342.75"/>
<polygon fill="darkgreen" stroke="darkgreen" points="571.71,-233.44 561.12,-233.85 569.65,-240.13 571.71,-233.44"/>
</g>
<!-- Node23 -->
<g id="node23" class="node">
<title>Node23</title>
<g id="a_node23"><a xlink:href="classScalarCoupleable.html" target="_top" xlink:title="Interface for objects that needs scalar coupling capabilities.">
<polygon fill="white" stroke="#666666" points="549,-196 436,-196 436,-177 549,-177 549,-196"/>
<text text-anchor="middle" x="492.5" y="-184" font-family="Courier,monospace" font-size="10.00">ScalarCoupleable</text>
</a>
</g>
</g>
<!-- Node23&#45;&gt;Node4 -->
<g id="edge22" class="edge">
<title>Node23&#45;&gt;Node4</title>
<path fill="none" stroke="darkgreen" d="M560.14,-195.34C568.81,-197.91 577.33,-201.23 585,-205.5 648.93,-241.11 701.07,-315.9 718.37,-342.69"/>
<polygon fill="darkgreen" stroke="darkgreen" points="561.16,-191.99 550.6,-192.84 559.39,-198.76 561.16,-191.99"/>
</g>
<!-- Node24 -->
<g id="node24" class="node">
<title>Node24</title>
<g id="a_node24"><a xlink:href="classPerfGraphInterface.html" target="_top" xlink:title="Interface for objects interacting with the PerfGraph.">
<polygon fill="white" stroke="#666666" points="555,-159 430,-159 430,-140 555,-140 555,-159"/>
<text text-anchor="middle" x="492.5" y="-147" font-family="Courier,monospace" font-size="10.00">PerfGraphInterface</text>
</a>
</g>
</g>
<!-- Node24&#45;&gt;Node4 -->
<g id="edge23" class="edge">
<title>Node24&#45;&gt;Node4</title>
<path fill="none" stroke="darkgreen" d="M566,-158.86C572.73,-161.38 579.19,-164.54 585,-168.5 609.15,-184.95 603.84,-199.86 621,-223.5 654.4,-269.51 698.05,-321.52 716.11,-342.72"/>
<polygon fill="darkgreen" stroke="darkgreen" points="567.3,-155.6 556.71,-155.86 565.15,-162.26 567.3,-155.6"/>
</g>
<!-- Node25 -->
<g id="node25" class="node">
<title>Node25</title>
<g id="a_node25"><a xlink:href="classDependencyResolverInterface.html" target="_top" xlink:title="Interface for sorting dependent vectors of objects.">
<polygon fill="white" stroke="#666666" points="582,-122 403,-122 403,-103 582,-103 582,-122"/>
<text text-anchor="middle" x="492.5" y="-110" font-family="Courier,monospace" font-size="10.00">DependencyResolverInterface</text>
</a>
</g>
</g>
<!-- Node25&#45;&gt;Node4 -->
<g id="edge24" class="edge">
<title>Node25&#45;&gt;Node4</title>
<path fill="none" stroke="#63b8ff" d="M580.35,-127.95C581.96,-129.06 583.51,-130.24 585,-131.5 618.55,-159.83 599.01,-185.5 621,-223.5 649.19,-272.21 694.88,-321.95 714.75,-342.59"/>
<polygon fill="#63b8ff" stroke="#63b8ff" points="582.36,-125.07 571.95,-123.1 578.86,-131.13 582.36,-125.07"/>
</g>
<!-- Node26 -->
<g id="node26" class="node">
<title>Node26</title>
<g id="a_node26"><a xlink:href="classBoundaryRestrictableRequired.html" target="_top" xlink:title="A class for requiring an object to be boundary restricted.">
<polygon fill="white" stroke="#666666" points="818,-214 633,-214 633,-195 818,-195 818,-214"/>
<text text-anchor="middle" x="725.5" y="-202" font-family="Courier,monospace" font-size="10.00">BoundaryRestrictableRequired</text>
</a>
</g>
</g>
<!-- Node26&#45;&gt;Node3 -->
<g id="edge25" class="edge">
<title>Node26&#45;&gt;Node3</title>
<path fill="none" stroke="#63b8ff" d="M815.39,-191.52C820.39,-190.03 825.29,-188.36 830,-186.5 858.88,-175.1 888.23,-153.12 903.91,-140.35"/>
<polygon fill="#63b8ff" stroke="#63b8ff" points="814.51,-188.13 805.78,-194.13 816.35,-194.89 814.51,-188.13"/>
</g>
<!-- Node27 -->
<g id="node27" class="node">
<title>Node27</title>
<g id="a_node27"><a xlink:href="classBoundaryRestrictable.html" target="_top" xlink:title="/class BoundaryRestrictable /brief Provides functionality for limiting the object to certain boundary...">
<polygon fill="white" stroke="#666666" points="561,-85 424,-85 424,-66 561,-66 561,-85"/>
<text text-anchor="middle" x="492.5" y="-73" font-family="Courier,monospace" font-size="10.00">BoundaryRestrictable</text>
</a>
</g>
</g>
<!-- Node27&#45;&gt;Node26 -->
<g id="edge26" class="edge">
<title>Node27&#45;&gt;Node26</title>
<path fill="none" stroke="#63b8ff" d="M571.4,-84.81C576.28,-87.18 580.88,-90.04 585,-93.5 618.96,-121.98 586.73,-158.4 621,-186.5 624.81,-189.62 628.96,-192.29 633.35,-194.55"/>
<polygon fill="#63b8ff" stroke="#63b8ff" points="573.05,-81.7 562.46,-81.19 570.42,-88.19 573.05,-81.7"/>
</g>
<!-- Node28 -->
<g id="node28" class="node">
<title>Node28</title>
<g id="a_node28"><a xlink:href="classMaterialPropertyInterface.html" target="_top" xlink:title="An interface for accessing Materials.">
<polygon fill="white" stroke="#666666" points="809,-177 642,-177 642,-158 809,-158 809,-177"/>
<text text-anchor="middle" x="725.5" y="-165" font-family="Courier,monospace" font-size="10.00">MaterialPropertyInterface</text>
</a>
</g>
</g>
<!-- Node28&#45;&gt;Node3 -->
<g id="edge27" class="edge">
<title>Node28&#45;&gt;Node3</title>
<path fill="none" stroke="#63b8ff" d="M797.91,-155.53C808.68,-153.59 819.64,-151.55 830,-149.5 843.87,-146.75 858.95,-143.5 872.52,-140.46"/>
<polygon fill="#63b8ff" stroke="#63b8ff" points="797.51,-152.04 788.28,-157.24 798.74,-158.94 797.51,-152.04"/>
</g>
<!-- Node29 -->
<g id="node29" class="node">
<title>Node29</title>
<g id="a_node29"><a xlink:href="classCoupleable.html" target="_top" xlink:title="Interface for objects that needs coupling capabilities.">
<polygon fill="white" stroke="#666666" points="764,-140 687,-140 687,-121 764,-121 764,-140"/>
<text text-anchor="middle" x="725.5" y="-128" font-family="Courier,monospace" font-size="10.00">Coupleable</text>
</a>
</g>
</g>
<!-- Node29&#45;&gt;Node3 -->
<g id="edge28" class="edge">
<title>Node29&#45;&gt;Node3</title>
<path fill="none" stroke="#63b8ff" d="M775.69,-130.5C803.36,-130.5 837.81,-130.5 865.59,-130.5"/>
<polygon fill="#63b8ff" stroke="#63b8ff" points="775.81,-127 765.81,-130.5 775.81,-134 775.81,-127"/>
</g>
<!-- Node30 -->
<g id="node30" class="node">
<title>Node30</title>
<g id="a_node30"><a xlink:href="classMooseVariableDependencyInterface.html" target="_top" xlink:title=" ">
<polygon fill="white" stroke="#666666" points="830,-103 621,-103 621,-84 830,-84 830,-103"/>
<text text-anchor="middle" x="725.5" y="-91" font-family="Courier,monospace" font-size="10.00">MooseVariableDependencyInterface</text>
</a>
</g>
</g>
<!-- Node30&#45;&gt;Node3 -->
<g id="edge29" class="edge">
<title>Node30&#45;&gt;Node3</title>
<path fill="none" stroke="#63b8ff" d="M797.91,-105.47C808.68,-107.41 819.64,-109.45 830,-111.5 843.87,-114.25 858.95,-117.5 872.52,-120.54"/>
<polygon fill="#63b8ff" stroke="#63b8ff" points="798.74,-102.06 788.28,-103.76 797.51,-108.96 798.74,-102.06"/>
</g>
<!-- Node31 -->
<g id="node31" class="node">
<title>Node31</title>
<g id="a_node31"><a xlink:href="classTransientInterface.html" target="_top" xlink:title="Interface for objects that needs transient capabilities.">
<polygon fill="white" stroke="#666666" points="788,-66 663,-66 663,-47 788,-47 788,-66"/>
<text text-anchor="middle" x="725.5" y="-54" font-family="Courier,monospace" font-size="10.00">TransientInterface</text>
</a>
</g>
</g>
<!-- Node31&#45;&gt;Node3 -->
<g id="edge30" class="edge">
<title>Node31&#45;&gt;Node3</title>
<path fill="none" stroke="#63b8ff" d="M799.61,-65.36C810,-67.72 820.41,-70.71 830,-74.5 858.88,-85.9 888.23,-107.88 903.91,-120.65"/>
<polygon fill="#63b8ff" stroke="#63b8ff" points="800.37,-61.94 789.87,-63.34 798.95,-68.79 800.37,-61.94"/>
</g>
<!-- Node32 -->
<g id="node32" class="node">
<title>Node32</title>
<g id="a_node32"><a xlink:href="classElementIDInterface.html" target="_top" xlink:title=" ">
<polygon fill="white" stroke="#666666" points="788,-29 663,-29 663,-10 788,-10 788,-29"/>
<text text-anchor="middle" x="725.5" y="-17" font-family="Courier,monospace" font-size="10.00">ElementIDInterface</text>
</a>
</g>
</g>
<!-- Node32&#45;&gt;Node3 -->
<g id="edge31" class="edge">
<title>Node32&#45;&gt;Node3</title>
<path fill="none" stroke="#63b8ff" d="M799.46,-25.96C810.1,-28.65 820.61,-32.38 830,-37.5 867.54,-58 897.5,-101.23 909.64,-120.67"/>
<polygon fill="#63b8ff" stroke="#63b8ff" points="800.38,-22.58 789.86,-23.84 798.87,-29.41 800.38,-22.58"/>
</g>
<!-- Node33 -->
<g id="node33" class="node">
<title>Node33</title>
<g id="a_node33"><a xlink:href="classMooseVariableInterface.html" target="_top" xlink:title=" ">
<polygon fill="white" stroke="#666666" points="1152,-102.5 1003,-102.5 1003,-72.5 1152,-72.5 1152,-102.5"/>
<text text-anchor="start" x="1011" y="-90.5" font-family="Courier,monospace" font-size="10.00">MooseVariableInterface</text>
<text text-anchor="middle" x="1077.5" y="-79.5" font-family="Courier,monospace" font-size="10.00">&lt; Real &gt;</text>
</a>
</g>
</g>
<!-- Node33&#45;&gt;Node1 -->
<g id="edge32" class="edge">
<title>Node33&#45;&gt;Node1</title>
<path fill="none" stroke="#63b8ff" d="M1163.64,-96.96C1171.66,-97.85 1179.77,-98.75 1187.73,-99.64"/>
<polygon fill="#63b8ff" stroke="#63b8ff" points="1164.21,-93.5 1153.89,-95.88 1163.44,-100.46 1164.21,-93.5"/>
</g>
<!-- Node35 -->
<g id="node35" class="node">
<title>Node35</title>
<g id="a_node35"><a xlink:href="classLayeredSideIntegral.html" target="_top" xlink:title="This UserObject computes volume integrals of a variable storing partial sums for the specified number...">
<polygon fill="white" stroke="#666666" points="1812,-202 1681,-202 1681,-183 1812,-183 1812,-202"/>
<text text-anchor="middle" x="1746.5" y="-190" font-family="Courier,monospace" font-size="10.00">LayeredSideIntegral</text>
</a>
</g>
</g>
<!-- Node34&#45;&gt;Node35 -->
<g id="edge34" class="edge">
<title>Node34&#45;&gt;Node35</title>
<path fill="none" stroke="#63b8ff" d="M1617.79,-192.5C1639.55,-192.5 1661.44,-192.5 1680.8,-192.5"/>
<polygon fill="#63b8ff" stroke="#63b8ff" points="1617.95,-189 1607.95,-192.5 1617.95,-196 1617.95,-189"/>
</g>
<!-- Node36 -->
<g id="node36" class="node">
<title>Node36</title>
<g id="a_node36"><a xlink:href="classLayeredSideAverageBase.html" target="_top" xlink:title=" ">
<polygon fill="white" stroke="#666666" points="2042,-207.5 1887,-207.5 1887,-177.5 2042,-177.5 2042,-207.5"/>
<text text-anchor="start" x="1895" y="-195.5" font-family="Courier,monospace" font-size="10.00">LayeredSideAverageBase</text>
<text text-anchor="middle" x="1964.5" y="-184.5" font-family="Courier,monospace" font-size="10.00">&lt; LayeredSideIntegral &gt;</text>
</a>
</g>
</g>
<!-- Node35&#45;&gt;Node36 -->
<g id="edge35" class="edge">
<title>Node35&#45;&gt;Node36</title>
<path fill="none" stroke="#63b8ff" d="M1823.76,-192.5C1844.13,-192.5 1866.15,-192.5 1886.56,-192.5"/>
<polygon fill="#63b8ff" stroke="#63b8ff" points="1823.82,-189 1813.82,-192.5 1823.82,-196 1823.82,-189"/>
</g>
<!-- Node37 -->
<g id="node37" class="node">
<title>Node37</title>
<g id="a_node37"><a xlink:href="classLayeredSideAverage.html" target="_top" xlink:title="This UserObject computes side averages of a variable storing partial sums for the specified number of...">
<polygon fill="white" stroke="#666666" points="2203,-202 2078,-202 2078,-183 2203,-183 2203,-202"/>
<text text-anchor="middle" x="2140.5" y="-190" font-family="Courier,monospace" font-size="10.00">LayeredSideAverage</text>
</a>
</g>
</g>
<!-- Node36&#45;&gt;Node37 -->
<g id="edge36" class="edge">
<title>Node36&#45;&gt;Node37</title>
<path fill="none" stroke="#63b8ff" d="M2053.75,-192.5C2061.84,-192.5 2069.92,-192.5 2077.7,-192.5"/>
<polygon fill="#63b8ff" stroke="#63b8ff" points="2053.84,-189 2043.84,-192.5 2053.84,-196 2053.84,-189"/>
</g>
<!-- Node38 -->
<g id="node38" class="node">
<title>Node38</title>
<g id="a_node38"><a xlink:href="classLayeredSideDiffusiveFluxAverage.html" target="_top" xlink:title="This UserObject computes side averages of a flux storing partial sums for the specified number of int...">
<polygon fill="white" stroke="#666666" points="2400,-207.5 2239,-207.5 2239,-177.5 2400,-177.5 2400,-207.5"/>
<text text-anchor="start" x="2247" y="-195.5" font-family="Courier,monospace" font-size="10.00">LayeredSideDiffusiveFlux</text>
<text text-anchor="middle" x="2319.5" y="-184.5" font-family="Courier,monospace" font-size="10.00">Average</text>
</a>
</g>
</g>
<!-- Node37&#45;&gt;Node38 -->
<g id="edge37" class="edge">
<title>Node37&#45;&gt;Node38</title>
<path fill="none" stroke="#63b8ff" d="M2214.77,-192.5C2222.63,-192.5 2230.65,-192.5 2238.58,-192.5"/>
<polygon fill="#63b8ff" stroke="#63b8ff" points="2214.92,-189 2204.92,-192.5 2214.92,-196 2214.92,-189"/>
</g>
<!-- Node40 -->
<g id="node40" class="node">
<title>Node40</title>
<g id="a_node40"><a xlink:href="classNearestPointLayeredSideAverage.html" target="_top" xlink:title="This UserObject computes averages of a variable storing partial sums for the specified number of inte...">
<polygon fill="white" stroke="#666666" points="1845,-148 1648,-148 1648,-129 1845,-129 1845,-148"/>
<text text-anchor="middle" x="1746.5" y="-136" font-family="Courier,monospace" font-size="10.00">NearestPointLayeredSideAverage</text>
</a>
</g>
</g>
<!-- Node39&#45;&gt;Node40 -->
<g id="edge39" class="edge">
<title>Node39&#45;&gt;Node40</title>
<path fill="none" stroke="#63b8ff" d="M1614.67,-138.5C1625.73,-138.5 1636.86,-138.5 1647.7,-138.5"/>
<polygon fill="#63b8ff" stroke="#63b8ff" points="1614.7,-135 1604.7,-138.5 1614.7,-142 1614.7,-135"/>
</g>
<!-- Node42 -->
<g id="node42" class="node">
<title>Node42</title>
<g id="a_node42"><a xlink:href="classNearestPointLayeredSideDiffusiveFluxAverage.html" target="_top" xlink:title="This UserObject computes averages of a variable&#39;s flux storing partial sums for the specified number ...">
<polygon fill="white" stroke="#666666" points="1851,-94.5 1642,-94.5 1642,-64.5 1851,-64.5 1851,-94.5"/>
<text text-anchor="start" x="1650" y="-82.5" font-family="Courier,monospace" font-size="10.00">NearestPointLayeredSideDiffusive</text>
<text text-anchor="middle" x="1746.5" y="-71.5" font-family="Courier,monospace" font-size="10.00">FluxAverage</text>
</a>
</g>
</g>
<!-- Node41&#45;&gt;Node42 -->
<g id="edge41" class="edge">
<title>Node41&#45;&gt;Node42</title>
<path fill="none" stroke="#63b8ff" d="M1614.64,-79.5C1623.71,-79.5 1632.83,-79.5 1641.81,-79.5"/>
<polygon fill="#63b8ff" stroke="#63b8ff" points="1614.7,-76 1604.7,-79.5 1614.7,-83 1614.7,-76"/>
</g>
<!-- Node44 -->
<g id="node44" class="node">
<title>Node44</title>
<g id="a_node44"><a xlink:href="classNearestPointLayeredSideIntegral.html" target="_top" xlink:title="This UserObject computes integrals of a variable storing partial sums for the specified number of int...">
<polygon fill="white" stroke="#666666" points="1848,-30 1645,-30 1645,-11 1848,-11 1848,-30"/>
<text text-anchor="middle" x="1746.5" y="-18" font-family="Courier,monospace" font-size="10.00">NearestPointLayeredSideIntegral</text>
</a>
</g>
</g>
<!-- Node43&#45;&gt;Node44 -->
<g id="edge43" class="edge">
<title>Node43&#45;&gt;Node44</title>
<path fill="none" stroke="#63b8ff" d="M1617.85,-20.5C1626.88,-20.5 1635.93,-20.5 1644.82,-20.5"/>
<polygon fill="#63b8ff" stroke="#63b8ff" points="1617.95,-17 1607.95,-20.5 1617.95,-24 1617.95,-17"/>
</g>
</g>
</svg>
        <g id="navigator" transform="translate(0 0)" fill="#404254">
                <rect fill="#f2f5e9" fill-opacity="0.5" stroke="#606060" stroke-width=".5" x="0" y="0" width="60" height="60"/>
                <use id="zoomplus" xlink:href="#zoomPlus" x="17" y="9" onmousedown="handleZoom(evt,'in')"/>
                <use id="zoomminus" xlink:href="#zoomMin" x="42" y="9" onmousedown="handleZoom(evt,'out')"/>
                <use id="reset" xlink:href="#resetDef" x="30" y="36" onmousedown="handleReset()"/>
                <g id="arrowUp" xlink:href="#dirArrow" transform="translate(30 24)" onmousedown="handlePan(0,-1)">
                  <use xlink:href="#rim" fill="#404040">
                        <set attributeName="fill" to="#808080" begin="arrowUp.mouseover" end="arrowUp.mouseout"/>
                  </use>
                  <path fill="none" stroke="white" stroke-width="1.5" d="M0,-3.0v7 M-2.5,-0.5L0,-3.0L2.5,-0.5"/>
                </g>
                <g id="arrowRight" xlink:href="#dirArrow" transform="rotate(90) translate(36 -43)" onmousedown="handlePan(1,0)">
                  <use xlink:href="#rim" fill="#404040">
                        <set attributeName="fill" to="#808080" begin="arrowRight.mouseover" end="arrowRight.mouseout"/>
                  </use>
                  <path fill="none" stroke="white" stroke-width="1.5" d="M0,-3.0v7 M-2.5,-0.5L0,-3.0L2.5,-0.5"/>
                </g>
                <g id="arrowDown" xlink:href="#dirArrow" transform="rotate(180) translate(-30 -48)" onmousedown="handlePan(0,1)">
                  <use xlink:href="#rim" fill="#404040">
                        <set attributeName="fill" to="#808080" begin="arrowDown.mouseover" end="arrowDown.mouseout"/>
                  </use>
                  <path fill="none" stroke="white" stroke-width="1.5" d="M0,-3.0v7 M-2.5,-0.5L0,-3.0L2.5,-0.5"/>
                </g>
                <g id="arrowLeft" xlink:href="#dirArrow" transform="rotate(270) translate(-36 17)" onmousedown="handlePan(-1,0)">
                  <use xlink:href="#rim" fill="#404040">
                        <set attributeName="fill" to="#808080" begin="arrowLeft.mouseover" end="arrowLeft.mouseout"/>
                  </use>
                  <path fill="none" stroke="white" stroke-width="1.5" d="M0,-3.0v7 M-2.5,-0.5L0,-3.0L2.5,-0.5"/>
                </g>
        </g>
        <svg viewBox="0 0 15 15" width="100%" height="30px" preserveAspectRatio="xMaxYMin meet">
         <g id="arrow_out" transform="scale(0.3 0.3)">
          <a xlink:href="classSideIntegralVariableUserObject__inherit__graph_org.svg" target="_base">
           <rect id="button" ry="5" rx="5" y="6" x="6" height="38" width="38"
                fill="#f2f5e9" fill-opacity="0.5" stroke="#606060" stroke-width="1.0"/>
           <path id="arrow"
             d="M 11.500037,31.436501 C 11.940474,20.09759 22.043105,11.32322 32.158766,21.979434 L 37.068811,17.246167 C 37.068811,17.246167 37.088388,32 37.088388,32 L 22.160133,31.978069 C 22.160133,31.978069 26.997745,27.140456 26.997745,27.140456 C 18.528582,18.264221 13.291696,25.230495 11.500037,31.436501 z"
             style="fill:#404040;"/>
          </a>
         </g>
        </svg>
</svg>
