<?xml version="1.0" encoding="UTF-8" standalone="no"?>
<!DOCTYPE svg PUBLIC "-//W3C//DTD SVG 1.1//EN"
 "http://www.w3.org/Graphics/SVG/1.1/DTD/svg11.dtd">
<!-- Generated by graphviz version 7.0.5 (20221223.1930)
 -->
<!-- Title: MooseVariableField&lt; OutputType &gt; Pages: 1 -->
<svg width="1524pt" height="502pt"
 viewBox="0.00 0.00 1524.00 502.00" xmlns="http://www.w3.org/2000/svg" xmlns:xlink="http://www.w3.org/1999/xlink">
<g id="graph0" class="graph" transform="scale(1 1) rotate(0) translate(4 498)">
<title>MooseVariableField&lt; OutputType &gt;</title>
<!-- Node1 -->
<g id="node1" class="node">
<title>Node1</title>
<g id="a_node1"><a xlink:title="Class for stuff related to variables.">
<polygon fill="#999999" stroke="#666666" points="1080,-258.5 955,-258.5 955,-228.5 1080,-228.5 1080,-258.5"/>
<text text-anchor="start" x="963" y="-246.5" font-family="Courier,monospace" font-size="10.00">MooseVariableField</text>
<text text-anchor="middle" x="1017.5" y="-235.5" font-family="Courier,monospace" font-size="10.00">&lt; OutputType &gt;</text>
</a>
</g>
</g>
<!-- Node18 -->
<g id="node18" class="node">
<title>Node18</title>
<g id="a_node18"><a xlink:href="classMooseVariableFE.html" target="_top" xlink:title=" ">
<polygon fill="white" stroke="#666666" points="1289,-494 1134,-494 1134,-475 1289,-475 1289,-494"/>
<text text-anchor="middle" x="1211.5" y="-482" font-family="Courier,monospace" font-size="10.00">MooseVariableFE&lt; Real &gt;</text>
</a>
</g>
</g>
<!-- Node1&#45;&gt;Node18 -->
<g id="edge17" class="edge">
<title>Node1&#45;&gt;Node18</title>
<path fill="none" stroke="#63b8ff" d="M1022.03,-270.02C1029.83,-317.41 1053.1,-416.32 1116,-466.5 1121.35,-470.77 1127.41,-474.13 1133.82,-476.77"/>
<polygon fill="#63b8ff" stroke="#63b8ff" points="1025.53,-269.74 1020.56,-260.38 1018.61,-270.8 1025.53,-269.74"/>
</g>
<!-- Node20 -->
<g id="node20" class="node">
<title>Node20</title>
<g id="a_node20"><a xlink:href="classMooseVariableFE.html" target="_top" xlink:title=" ">
<polygon fill="white" stroke="#666666" points="1280,-457 1143,-457 1143,-438 1280,-438 1280,-457"/>
<text text-anchor="middle" x="1211.5" y="-445" font-family="Courier,monospace" font-size="10.00">MooseVariableFE&lt; T &gt;</text>
</a>
</g>
</g>
<!-- Node1&#45;&gt;Node20 -->
<g id="edge19" class="edge">
<title>Node1&#45;&gt;Node20</title>
<path fill="none" stroke="#63b8ff" d="M1024.63,-269.77C1035.58,-310.55 1062.54,-388.53 1116,-428.5 1123.91,-434.41 1133.19,-438.61 1142.79,-441.57"/>
<polygon fill="#63b8ff" stroke="#63b8ff" points="1028.08,-269.15 1022.22,-260.33 1021.3,-270.88 1028.08,-269.15"/>
</g>
<!-- Node21 -->
<g id="node21" class="node">
<title>Node21</title>
<g id="a_node21"><a xlink:href="classMooseVariableFE.html" target="_top" xlink:title=" ">
<polygon fill="white" stroke="#666666" points="1301,-419.5 1122,-419.5 1122,-389.5 1301,-389.5 1301,-419.5"/>
<text text-anchor="start" x="1130" y="-407.5" font-family="Courier,monospace" font-size="10.00">MooseVariableFE&lt; RealVector</text>
<text text-anchor="middle" x="1211.5" y="-396.5" font-family="Courier,monospace" font-size="10.00">Value &gt;</text>
</a>
</g>
</g>
<!-- Node1&#45;&gt;Node21 -->
<g id="edge20" class="edge">
<title>Node1&#45;&gt;Node21</title>
<path fill="none" stroke="#63b8ff" d="M1029.79,-269.04C1044.89,-300.19 1074.63,-352.17 1116,-380.5 1120.89,-383.85 1126.21,-386.73 1131.74,-389.21"/>
<polygon fill="#63b8ff" stroke="#63b8ff" points="1033.12,-267.91 1025.71,-260.34 1026.78,-270.88 1033.12,-267.91"/>
</g>
<!-- Node22 -->
<g id="node22" class="node">
<title>Node22</title>
<g id="a_node22"><a xlink:href="classMooseVariableFE.html" target="_top" xlink:title=" ">
<polygon fill="white" stroke="#666666" points="1298,-371.5 1125,-371.5 1125,-341.5 1298,-341.5 1298,-371.5"/>
<text text-anchor="start" x="1133" y="-359.5" font-family="Courier,monospace" font-size="10.00">MooseVariableFE&lt; RealEigen</text>
<text text-anchor="middle" x="1211.5" y="-348.5" font-family="Courier,monospace" font-size="10.00">Vector &gt;</text>
</a>
</g>
</g>
<!-- Node1&#45;&gt;Node22 -->
<g id="edge21" class="edge">
<title>Node1&#45;&gt;Node22</title>
<path fill="none" stroke="#63b8ff" d="M1038.36,-267.27C1056.54,-287.53 1085.24,-315.93 1116,-332.5 1122.11,-335.79 1128.69,-338.65 1135.42,-341.12"/>
<polygon fill="#63b8ff" stroke="#63b8ff" points="1041.22,-265.23 1032,-260.02 1035.96,-269.84 1041.22,-265.23"/>
</g>
<!-- Node23 -->
<g id="node23" class="node">
<title>Node23</title>
<g id="a_node23"><a xlink:href="classMooseVariableFE.html" target="_top" xlink:title=" ">
<polygon fill="white" stroke="#666666" points="1292,-323.5 1131,-323.5 1131,-293.5 1292,-293.5 1292,-323.5"/>
<text text-anchor="start" x="1139" y="-311.5" font-family="Courier,monospace" font-size="10.00">MooseVariableFE&lt; Compute</text>
<text text-anchor="middle" x="1211.5" y="-300.5" font-family="Courier,monospace" font-size="10.00">ValueType &gt;</text>
</a>
</g>
</g>
<!-- Node1&#45;&gt;Node23 -->
<g id="edge22" class="edge">
<title>Node1&#45;&gt;Node23</title>
<path fill="none" stroke="#63b8ff" d="M1062.36,-263.59C1078.95,-270.75 1098.15,-278.52 1116,-284.5 1125.07,-287.54 1134.74,-290.41 1144.3,-293.03"/>
<polygon fill="#63b8ff" stroke="#63b8ff" points="1063.82,-260.4 1053.25,-259.6 1061.01,-266.82 1063.82,-260.4"/>
</g>
<!-- Node24 -->
<g id="node24" class="node">
<title>Node24</title>
<g id="a_node24"><a xlink:href="classMooseVariableFV.html" target="_top" xlink:title=" ">
<polygon fill="white" stroke="#666666" points="1289,-275 1134,-275 1134,-256 1289,-256 1289,-275"/>
<text text-anchor="middle" x="1211.5" y="-263" font-family="Courier,monospace" font-size="10.00">MooseVariableFV&lt; Real &gt;</text>
</a>
</g>
</g>
<!-- Node1&#45;&gt;Node24 -->
<g id="edge23" class="edge">
<title>Node1&#45;&gt;Node24</title>
<path fill="none" stroke="#63b8ff" d="M1091.67,-251.88C1105.41,-253.46 1119.81,-255.11 1133.66,-256.7"/>
<polygon fill="#63b8ff" stroke="#63b8ff" points="1092.14,-248.42 1081.81,-250.75 1091.35,-255.37 1092.14,-248.42"/>
</g>
<!-- Node25 -->
<g id="node25" class="node">
<title>Node25</title>
<g id="a_node25"><a xlink:href="classMooseVariableFV.html" target="_top" xlink:title=" ">
<polygon fill="white" stroke="#666666" points="1301,-237.5 1122,-237.5 1122,-207.5 1301,-207.5 1301,-237.5"/>
<text text-anchor="start" x="1130" y="-225.5" font-family="Courier,monospace" font-size="10.00">MooseVariableFV&lt; RealVector</text>
<text text-anchor="middle" x="1211.5" y="-214.5" font-family="Courier,monospace" font-size="10.00">Value &gt;</text>
</a>
</g>
</g>
<!-- Node1&#45;&gt;Node25 -->
<g id="edge24" class="edge">
<title>Node1&#45;&gt;Node25</title>
<path fill="none" stroke="#63b8ff" d="M1091.61,-235.5C1101.4,-234.43 1111.52,-233.33 1121.54,-232.23"/>
<polygon fill="#63b8ff" stroke="#63b8ff" points="1091.37,-232.01 1081.81,-236.58 1092.13,-238.97 1091.37,-232.01"/>
</g>
<!-- Node26 -->
<g id="node26" class="node">
<title>Node26</title>
<g id="a_node26"><a xlink:href="classMooseVariableFV.html" target="_top" xlink:title=" ">
<polygon fill="white" stroke="#666666" points="1298,-189.5 1125,-189.5 1125,-159.5 1298,-159.5 1298,-189.5"/>
<text text-anchor="start" x="1133" y="-177.5" font-family="Courier,monospace" font-size="10.00">MooseVariableFV&lt; RealEigen</text>
<text text-anchor="middle" x="1211.5" y="-166.5" font-family="Courier,monospace" font-size="10.00">Vector &gt;</text>
</a>
</g>
</g>
<!-- Node1&#45;&gt;Node26 -->
<g id="edge25" class="edge">
<title>Node1&#45;&gt;Node26</title>
<path fill="none" stroke="#63b8ff" d="M1058.54,-223C1075.9,-214.65 1096.65,-205.36 1116,-198.5 1124.7,-195.42 1133.97,-192.56 1143.19,-189.97"/>
<polygon fill="#63b8ff" stroke="#63b8ff" points="1057.01,-219.85 1049.57,-227.39 1060.09,-226.14 1057.01,-219.85"/>
</g>
<!-- Node27 -->
<g id="node27" class="node">
<title>Node27</title>
<g id="a_node27"><a xlink:href="classMooseVariableFV.html" target="_top" xlink:title=" ">
<polygon fill="white" stroke="#666666" points="1292,-141.5 1131,-141.5 1131,-111.5 1292,-111.5 1292,-141.5"/>
<text text-anchor="start" x="1139" y="-129.5" font-family="Courier,monospace" font-size="10.00">MooseVariableFV&lt; Compute</text>
<text text-anchor="middle" x="1211.5" y="-118.5" font-family="Courier,monospace" font-size="10.00">ValueType &gt;</text>
</a>
</g>
</g>
<!-- Node1&#45;&gt;Node27 -->
<g id="edge26" class="edge">
<title>Node1&#45;&gt;Node27</title>
<path fill="none" stroke="#63b8ff" d="M1037.52,-219.35C1055.53,-198.12 1084.44,-167.96 1116,-150.5 1121.92,-147.22 1128.31,-144.38 1134.85,-141.93"/>
<polygon fill="#63b8ff" stroke="#63b8ff" points="1034.91,-217.02 1031.24,-226.96 1040.31,-221.48 1034.91,-217.02"/>
</g>
<!-- Node28 -->
<g id="node28" class="node">
<title>Node28</title>
<g id="a_node28"><a xlink:href="classMooseVariableFV.html" target="_top" xlink:title=" ">
<polygon fill="white" stroke="#666666" points="1280,-93 1143,-93 1143,-74 1280,-74 1280,-93"/>
<text text-anchor="middle" x="1211.5" y="-81" font-family="Courier,monospace" font-size="10.00">MooseVariableFV&lt; T &gt;</text>
</a>
</g>
</g>
<!-- Node1&#45;&gt;Node28 -->
<g id="edge27" class="edge">
<title>Node1&#45;&gt;Node28</title>
<path fill="none" stroke="#63b8ff" d="M1028.9,-217.87C1043.4,-185.59 1072.86,-130.9 1116,-102.5 1124.11,-97.16 1133.39,-93.27 1142.9,-90.44"/>
<polygon fill="#63b8ff" stroke="#63b8ff" points="1025.76,-216.32 1025,-226.89 1032.18,-219.1 1025.76,-216.32"/>
</g>
<!-- Node29 -->
<g id="node29" class="node">
<title>Node29</title>
<g id="a_node29"><a xlink:href="classMooseVariableFE.html" target="_top" xlink:title="Class for stuff related to variables.">
<polygon fill="white" stroke="#666666" points="1307,-56 1116,-56 1116,-37 1307,-37 1307,-56"/>
<text text-anchor="middle" x="1211.5" y="-44" font-family="Courier,monospace" font-size="10.00">MooseVariableFE&lt; OutputType &gt;</text>
</a>
</g>
</g>
<!-- Node1&#45;&gt;Node29 -->
<g id="edge28" class="edge">
<title>Node1&#45;&gt;Node29</title>
<path fill="none" stroke="#63b8ff" d="M1025.08,-217.15C1036.47,-177.36 1063.81,-102.57 1116,-64.5 1120.32,-61.35 1125.03,-58.71 1129.98,-56.49"/>
<polygon fill="#63b8ff" stroke="#63b8ff" points="1021.76,-216.04 1022.51,-226.61 1028.51,-217.88 1021.76,-216.04"/>
</g>
<!-- Node30 -->
<g id="node30" class="node">
<title>Node30</title>
<g id="a_node30"><a xlink:href="classMooseVariableFV.html" target="_top" xlink:title="This class provides variable solution values for other classes/objects to bind to when looping over f...">
<polygon fill="white" stroke="#666666" points="1307,-19 1116,-19 1116,0 1307,0 1307,-19"/>
<text text-anchor="middle" x="1211.5" y="-7" font-family="Courier,monospace" font-size="10.00">MooseVariableFV&lt; OutputType &gt;</text>
</a>
</g>
</g>
<!-- Node1&#45;&gt;Node30 -->
<g id="edge29" class="edge">
<title>Node1&#45;&gt;Node30</title>
<path fill="none" stroke="#63b8ff" d="M1022.48,-216.82C1030.86,-170.53 1054.9,-75.66 1116,-27.5 1120.07,-24.3 1124.53,-21.6 1129.24,-19.34"/>
<polygon fill="#63b8ff" stroke="#63b8ff" points="1019.05,-216.07 1020.84,-226.51 1025.96,-217.23 1019.05,-216.07"/>
</g>
<!-- Node2 -->
<g id="node2" class="node">
<title>Node2</title>
<g id="a_node2"><a xlink:href="classMooseVariableFieldBase.html" target="_top" xlink:title="This class provides an interface for common operations on field variables of both FE and FV types wit...">
<polygon fill="white" stroke="#666666" points="904,-305 755,-305 755,-286 904,-286 904,-305"/>
<text text-anchor="middle" x="829.5" y="-293" font-family="Courier,monospace" font-size="10.00">MooseVariableFieldBase</text>
</a>
</g>
</g>
<!-- Node2&#45;&gt;Node1 -->
<g id="edge1" class="edge">
<title>Node2&#45;&gt;Node1</title>
<path fill="none" stroke="#63b8ff" d="M883.49,-282.83C895.22,-279.89 907.56,-276.68 919,-273.5 935.04,-269.04 952.45,-263.81 968.05,-258.98"/>
<polygon fill="#63b8ff" stroke="#63b8ff" points="882.82,-279.39 873.96,-285.2 884.51,-286.18 882.82,-279.39"/>
</g>
<!-- Node3 -->
<g id="node3" class="node">
<title>Node3</title>
<g id="a_node3"><a xlink:href="classMooseVariableBase.html" target="_top" xlink:title=" ">
<polygon fill="white" stroke="#666666" points="689,-311 570,-311 570,-292 689,-292 689,-311"/>
<text text-anchor="middle" x="629.5" y="-299" font-family="Courier,monospace" font-size="10.00">MooseVariableBase</text>
</a>
</g>
</g>
<!-- Node3&#45;&gt;Node2 -->
<g id="edge2" class="edge">
<title>Node3&#45;&gt;Node2</title>
<path fill="none" stroke="#63b8ff" d="M700.67,-299.37C718.2,-298.84 737.05,-298.27 754.75,-297.73"/>
<polygon fill="#63b8ff" stroke="#63b8ff" points="700.77,-295.87 690.88,-299.67 700.98,-302.87 700.77,-295.87"/>
</g>
<!-- Node4 -->
<g id="node4" class="node">
<title>Node4</title>
<g id="a_node4"><a xlink:href="classMooseObject.html" target="_top" xlink:title="Every object that can be built by the factory should be derived from this class.">
<polygon fill="white" stroke="#666666" points="501,-385 418,-385 418,-366 501,-366 501,-385"/>
<text text-anchor="middle" x="459.5" y="-373" font-family="Courier,monospace" font-size="10.00">MooseObject</text>
</a>
</g>
</g>
<!-- Node4&#45;&gt;Node3 -->
<g id="edge3" class="edge">
<title>Node4&#45;&gt;Node3</title>
<path fill="none" stroke="#63b8ff" d="M507.13,-361.96C511.18,-360.54 515.18,-359.05 519,-357.5 552.83,-343.77 590.32,-323.39 611.49,-311.38"/>
<polygon fill="#63b8ff" stroke="#63b8ff" points="506.24,-358.57 497.86,-365.05 508.45,-365.21 506.24,-358.57"/>
</g>
<!-- Node5 -->
<g id="node5" class="node">
<title>Node5</title>
<g id="a_node5"><a xlink:href="classMooseBase.html" target="_top" xlink:title="Base class for everything in MOOSE with a name and a type.">
<polygon fill="white" stroke="#666666" points="310,-459 239,-459 239,-440 310,-440 310,-459"/>
<text text-anchor="middle" x="274.5" y="-447" font-family="Courier,monospace" font-size="10.00">MooseBase</text>
</a>
</g>
</g>
<!-- Node5&#45;&gt;Node4 -->
<g id="edge4" class="edge">
<title>Node5&#45;&gt;Node4</title>
<path fill="none" stroke="#63b8ff" d="M321.62,-443.14C335.52,-440.42 350.63,-436.65 364,-431.5 394.96,-419.57 427.49,-397.99 445.15,-385.38"/>
<polygon fill="#63b8ff" stroke="#63b8ff" points="321.01,-439.69 311.79,-444.91 322.25,-446.58 321.01,-439.69"/>
</g>
<!-- Node6 -->
<g id="node6" class="node">
<title>Node6</title>
<g id="a_node6"><a xlink:href="classMooseBaseParameterInterface.html" target="_top" xlink:title="Every object that can be built by the factory should be derived from this class.">
<polygon fill="white" stroke="#666666" points="364,-422 185,-422 185,-403 364,-403 364,-422"/>
<text text-anchor="middle" x="274.5" y="-410" font-family="Courier,monospace" font-size="10.00">MooseBaseParameterInterface</text>
</a>
</g>
</g>
<!-- Node6&#45;&gt;Node4 -->
<g id="edge5" class="edge">
<title>Node6&#45;&gt;Node4</title>
<path fill="none" stroke="#63b8ff" d="M335.77,-400.31C362.64,-394.88 393.58,-388.63 417.68,-383.75"/>
<polygon fill="#63b8ff" stroke="#63b8ff" points="335.13,-396.87 326.02,-402.28 336.52,-403.73 335.13,-396.87"/>
</g>
<!-- Node7 -->
<g id="node7" class="node">
<title>Node7</title>
<g id="a_node7"><a xlink:href="classMooseBaseErrorInterface.html" target="_top" xlink:title="Interface that provides APIs to output errors/warnings/info messages.">
<polygon fill="white" stroke="#666666" points="352,-385 197,-385 197,-366 352,-366 352,-385"/>
<text text-anchor="middle" x="274.5" y="-373" font-family="Courier,monospace" font-size="10.00">MooseBaseErrorInterface</text>
</a>
</g>
</g>
<!-- Node7&#45;&gt;Node4 -->
<g id="edge6" class="edge">
<title>Node7&#45;&gt;Node4</title>
<path fill="none" stroke="#63b8ff" d="M363.68,-375.5C382.52,-375.5 401.55,-375.5 417.57,-375.5"/>
<polygon fill="#63b8ff" stroke="#63b8ff" points="363.83,-372 353.83,-375.5 363.83,-379 363.83,-372"/>
</g>
<!-- Node8 -->
<g id="node8" class="node">
<title>Node8</title>
<g id="a_node8"><a xlink:href="classConsoleStreamInterface.html" target="_top" xlink:title="An inteface for the _console for outputting to the Console object.">
<polygon fill="white" stroke="#666666" points="149,-385 0,-385 0,-366 149,-366 149,-385"/>
<text text-anchor="middle" x="74.5" y="-373" font-family="Courier,monospace" font-size="10.00">ConsoleStreamInterface</text>
</a>
</g>
</g>
<!-- Node8&#45;&gt;Node7 -->
<g id="edge7" class="edge">
<title>Node8&#45;&gt;Node7</title>
<path fill="none" stroke="#63b8ff" d="M160.62,-375.5C172.62,-375.5 184.9,-375.5 196.73,-375.5"/>
<polygon fill="#63b8ff" stroke="#63b8ff" points="160.74,-372 150.74,-375.5 160.74,-379 160.74,-372"/>
</g>
<!-- Node9 -->
<g id="node9" class="node">
<title>Node9</title>
<g id="a_node9"><a xlink:title=" ">
<polygon fill="white" stroke="#666666" points="352,-348 197,-348 197,-329 352,-329 352,-348"/>
<text text-anchor="middle" x="274.5" y="-336" font-family="Courier,monospace" font-size="10.00">libMesh::ParallelObject</text>
</a>
</g>
</g>
<!-- Node9&#45;&gt;Node4 -->
<g id="edge8" class="edge">
<title>Node9&#45;&gt;Node4</title>
<path fill="none" stroke="#63b8ff" d="M335.77,-350.69C362.64,-356.12 393.58,-362.37 417.68,-367.25"/>
<polygon fill="#63b8ff" stroke="#63b8ff" points="336.52,-347.27 326.02,-348.72 335.13,-354.13 336.52,-347.27"/>
</g>
<!-- Node10 -->
<g id="node10" class="node">
<title>Node10</title>
<g id="a_node10"><a xlink:href="classDataFileInterface.html" target="_top" xlink:title=" ">
<polygon fill="white" stroke="#666666" points="337,-310.5 212,-310.5 212,-280.5 337,-280.5 337,-310.5"/>
<text text-anchor="start" x="220" y="-298.5" font-family="Courier,monospace" font-size="10.00">DataFileInterface&lt;</text>
<text text-anchor="middle" x="274.5" y="-287.5" font-family="Courier,monospace" font-size="10.00"> MooseObject &gt;</text>
</a>
</g>
</g>
<!-- Node10&#45;&gt;Node4 -->
<g id="edge9" class="edge">
<title>Node10&#45;&gt;Node4</title>
<path fill="none" stroke="#63b8ff" d="M347.62,-312.35C353.32,-314.73 358.86,-317.44 364,-320.5 383.71,-332.24 380.43,-345.53 400,-357.5 405.44,-360.83 411.54,-363.58 417.7,-365.85"/>
<polygon fill="#63b8ff" stroke="#63b8ff" points="349.23,-309.22 338.64,-308.94 346.74,-315.76 349.23,-309.22"/>
</g>
<!-- Node11 -->
<g id="node11" class="node">
<title>Node11</title>
<g id="a_node11"><a xlink:href="classBlockRestrictable.html" target="_top" xlink:title="An interface that restricts an object to subdomains via the &#39;blocks&#39; input parameter.">
<polygon fill="white" stroke="#666666" points="519,-348 400,-348 400,-329 519,-329 519,-348"/>
<text text-anchor="middle" x="459.5" y="-336" font-family="Courier,monospace" font-size="10.00">BlockRestrictable</text>
</a>
</g>
</g>
<!-- Node11&#45;&gt;Node3 -->
<g id="edge10" class="edge">
<title>Node11&#45;&gt;Node3</title>
<path fill="none" stroke="#63b8ff" d="M516.58,-326.15C538.29,-321.37 562.81,-315.97 583.35,-311.44"/>
<polygon fill="#63b8ff" stroke="#63b8ff" points="516.01,-322.69 507,-328.26 517.52,-329.53 516.01,-322.69"/>
</g>
<!-- Node12 -->
<g id="node12" class="node">
<title>Node12</title>
<g id="a_node12"><a xlink:href="classOutputInterface.html" target="_top" xlink:title="A class to provide an common interface to objects requiring &quot;outputs&quot; option.">
<polygon fill="white" stroke="#666666" points="513,-311 406,-311 406,-292 513,-292 513,-311"/>
<text text-anchor="middle" x="459.5" y="-299" font-family="Courier,monospace" font-size="10.00">OutputInterface</text>
</a>
</g>
</g>
<!-- Node12&#45;&gt;Node3 -->
<g id="edge11" class="edge">
<title>Node12&#45;&gt;Node3</title>
<path fill="none" stroke="#63b8ff" d="M524.34,-301.5C539.19,-301.5 554.93,-301.5 569.56,-301.5"/>
<polygon fill="#63b8ff" stroke="#63b8ff" points="524.71,-298 514.71,-301.5 524.71,-305 524.71,-298"/>
</g>
<!-- Node13 -->
<g id="node13" class="node">
<title>Node13</title>
<g id="a_node13"><a xlink:href="classSetupInterface.html" target="_top" xlink:title=" ">
<polygon fill="white" stroke="#666666" points="510,-274 409,-274 409,-255 510,-255 510,-274"/>
<text text-anchor="middle" x="459.5" y="-262" font-family="Courier,monospace" font-size="10.00">SetupInterface</text>
</a>
</g>
</g>
<!-- Node13&#45;&gt;Node3 -->
<g id="edge12" class="edge">
<title>Node13&#45;&gt;Node3</title>
<path fill="none" stroke="#63b8ff" d="M516.58,-276.85C538.29,-281.63 562.81,-287.03 583.35,-291.56"/>
<polygon fill="#63b8ff" stroke="#63b8ff" points="517.52,-273.47 507,-274.74 516.01,-280.31 517.52,-273.47"/>
</g>
<!-- Node14 -->
<g id="node14" class="node">
<title>Node14</title>
<g id="a_node14"><a xlink:href="classMoose_1_1FunctorBase.html" target="_top" xlink:title=" ">
<polygon fill="white" stroke="#666666" points="919,-264 740,-264 740,-223 919,-223 919,-264"/>
<text text-anchor="start" x="748" y="-252" font-family="Courier,monospace" font-size="10.00">Moose::FunctorBase</text>
<text text-anchor="start" x="748" y="-241" font-family="Courier,monospace" font-size="10.00">&lt; Moose::ADType&lt; OutputType</text>
<text text-anchor="middle" x="829.5" y="-230" font-family="Courier,monospace" font-size="10.00"> &gt;::type &gt;</text>
</a>
</g>
</g>
<!-- Node14&#45;&gt;Node1 -->
<g id="edge13" class="edge">
<title>Node14&#45;&gt;Node1</title>
<path fill="none" stroke="#63b8ff" d="M930.9,-243.5C939.01,-243.5 947.05,-243.5 954.76,-243.5"/>
<polygon fill="#63b8ff" stroke="#63b8ff" points="930.93,-240 920.93,-243.5 930.93,-247 930.93,-240"/>
</g>
<!-- Node15 -->
<g id="node15" class="node">
<title>Node15</title>
<g id="a_node15"><a xlink:href="classMoose_1_1FunctorAbstract.html" target="_top" xlink:title="Abstract base class that can be used to hold collections of functors.">
<polygon fill="white" stroke="#666666" points="704,-250 555,-250 555,-231 704,-231 704,-250"/>
<text text-anchor="middle" x="629.5" y="-238" font-family="Courier,monospace" font-size="10.00">Moose::FunctorAbstract</text>
</a>
</g>
</g>
<!-- Node15&#45;&gt;Node14 -->
<g id="edge14" class="edge">
<title>Node15&#45;&gt;Node14</title>
<path fill="none" stroke="#63b8ff" d="M715.73,-241.79C723.65,-241.91 731.69,-242.03 739.65,-242.15"/>
<polygon fill="#63b8ff" stroke="#63b8ff" points="715.79,-238.29 705.74,-241.64 715.69,-245.29 715.79,-238.29"/>
</g>
<!-- Node16 -->
<g id="node16" class="node">
<title>Node16</title>
<g id="a_node16"><a xlink:href="classFaceArgInterface.html" target="_top" xlink:title="A base class interface for both producers and consumers of functor face arguments,...">
<polygon fill="white" stroke="#666666" points="516,-237 403,-237 403,-218 516,-218 516,-237"/>
<text text-anchor="middle" x="459.5" y="-225" font-family="Courier,monospace" font-size="10.00">FaceArgInterface</text>
</a>
</g>
</g>
<!-- Node16&#45;&gt;Node15 -->
<g id="edge15" class="edge">
<title>Node16&#45;&gt;Node15</title>
<path fill="none" stroke="#63b8ff" d="M527.82,-232.71C536.62,-233.39 545.67,-234.09 554.57,-234.78"/>
<polygon fill="#63b8ff" stroke="#63b8ff" points="528.19,-229.23 517.95,-231.95 527.65,-236.21 528.19,-229.23"/>
</g>
<!-- Node17 -->
<g id="node17" class="node">
<title>Node17</title>
<g id="a_node17"><a xlink:href="classMeshChangedInterface.html" target="_top" xlink:title="Interface for notifications that the mesh has changed.">
<polygon fill="white" stroke="#666666" points="898,-205 761,-205 761,-186 898,-186 898,-205"/>
<text text-anchor="middle" x="829.5" y="-193" font-family="Courier,monospace" font-size="10.00">MeshChangedInterface</text>
</a>
</g>
</g>
<!-- Node17&#45;&gt;Node1 -->
<g id="edge16" class="edge">
<title>Node17&#45;&gt;Node1</title>
<path fill="none" stroke="#63b8ff" d="M894.69,-207.78C902.9,-209.58 911.17,-211.5 919,-213.5 935.65,-217.74 953.68,-223.08 969.65,-228.07"/>
<polygon fill="#63b8ff" stroke="#63b8ff" points="895.56,-204.39 885.05,-205.73 894.1,-211.24 895.56,-204.39"/>
</g>
<!-- Node19 -->
<g id="node19" class="node">
<title>Node19</title>
<g id="a_node19"><a xlink:href="classMooseVariableConstMonomial.html" target="_top" xlink:title=" ">
<polygon fill="white" stroke="#666666" points="1516,-494 1343,-494 1343,-475 1516,-475 1516,-494"/>
<text text-anchor="middle" x="1429.5" y="-482" font-family="Courier,monospace" font-size="10.00">MooseVariableConstMonomial</text>
</a>
</g>
</g>
<!-- Node18&#45;&gt;Node19 -->
<g id="edge18" class="edge">
<title>Node18&#45;&gt;Node19</title>
<path fill="none" stroke="#63b8ff" d="M1300.37,-484.5C1314.38,-484.5 1328.85,-484.5 1342.8,-484.5"/>
<polygon fill="#63b8ff" stroke="#63b8ff" points="1300.78,-481 1290.78,-484.5 1300.78,-488 1300.78,-481"/>
</g>
</g>
</svg>
