<?xml version="1.0" encoding="UTF-8" standalone="no"?>
<!DOCTYPE svg PUBLIC "-//W3C//DTD SVG 1.1//EN"
 "http://www.w3.org/Graphics/SVG/1.1/DTD/svg11.dtd">
<!-- Generated by graphviz version 7.0.5 (20221223.1930)
 -->
<!-- Title: LineValueSampler Pages: 1 -->
<!--zoomable 619 -->
<svg id="main" version="1.1" xmlns="http://www.w3.org/2000/svg" xmlns:xlink="http://www.w3.org/1999/xlink" xml:space="preserve" onload="init(evt)">
<style type="text/css"><![CDATA[
.edge:hover path { stroke: red; }
.edge:hover polygon { stroke: red; fill: red; }
]]></style>
<script type="text/javascript"><![CDATA[
var edges = document.getElementsByTagName('g');
if (edges && edges.length) {
  for (var i=0;i<edges.length;i++) {
    if (edges[i].id.substr(0,4)=='edge') {
      edges[i].setAttribute('class','edge');
    }
  }
}
]]></script>
        <defs>
                <circle id="rim" cx="0" cy="0" r="7"/>
                <circle id="rim2" cx="0" cy="0" r="3.5"/>
                <g id="zoomPlus">
                        <use xlink:href="#rim" fill="#404040">
                                <set attributeName="fill" to="#808080" begin="zoomplus.mouseover" end="zoomplus.mouseout"/>
                        </use>
                        <path d="M-4,0h8M0,-4v8" fill="none" stroke="white" stroke-width="1.5" pointer-events="none"/>
                </g>
                <g id="zoomMin">
                        <use xlink:href="#rim" fill="#404040">
                                <set attributeName="fill" to="#808080" begin="zoomminus.mouseover" end="zoomminus.mouseout"/>
                        </use>
                        <path d="M-4,0h8" fill="none" stroke="white" stroke-width="1.5" pointer-events="none"/>
                </g>
                <g id="dirArrow">
                        <path fill="none" stroke="white" stroke-width="1.5" d="M0,-3.0v7 M-2.5,-0.5L0,-3.0L2.5,-0.5"/>
                </g>
               <g id="resetDef">
                       <use xlink:href="#rim2" fill="#404040">
                               <set attributeName="fill" to="#808080" begin="reset.mouseover" end="reset.mouseout"/>
                       </use>
               </g>
        </defs>

<script type="text/javascript">
var viewWidth = 1775;
var viewHeight = 619;
var sectionId = 'dynsection-0';
</script>
<script xlink:href="svgpan.js"/>
<svg id="graph" class="graph">
<g id="viewport">
<title>LineValueSampler</title>
<!-- Node1 -->
<g id="node1" class="node">
<title>Node1</title>
<g id="a_node1"><a xlink:title=" ">
<polygon fill="#999999" stroke="#666666" points="1767,-296 1654,-296 1654,-277 1767,-277 1767,-296"/>
<text text-anchor="middle" x="1710.5" y="-284" font-family="Courier,monospace" font-size="10.00">LineValueSampler</text>
</a>
</g>
</g>
<!-- Node2 -->
<g id="node2" class="node">
<title>Node2</title>
<g id="a_node2"><a xlink:href="classPointVariableSamplerBase.html" target="_top" xlink:title="Base class for sampling variable(s) at points.">
<polygon fill="white" stroke="#666666" points="1618,-296 1457,-296 1457,-277 1618,-277 1618,-296"/>
<text text-anchor="middle" x="1537.5" y="-284" font-family="Courier,monospace" font-size="10.00">PointVariableSamplerBase</text>
</a>
</g>
</g>
<!-- Node2&#45;&gt;Node1 -->
<g id="edge1" class="edge">
<title>Node2&#45;&gt;Node1</title>
<path fill="none" stroke="#63b8ff" d="M1629.75,-286.5C1638,-286.5 1646.17,-286.5 1653.96,-286.5"/>
<polygon fill="#63b8ff" stroke="#63b8ff" points="1630.01,-283 1620.01,-286.5 1630.01,-290 1630.01,-283"/>
</g>
<!-- Node3 -->
<g id="node3" class="node">
<title>Node3</title>
<g id="a_node3"><a xlink:href="classPointSamplerBase.html" target="_top" xlink:title="Base class for sampling objects (variables, functors etc) at points.">
<polygon fill="white" stroke="#666666" points="1403,-296 1290,-296 1290,-277 1403,-277 1403,-296"/>
<text text-anchor="middle" x="1346.5" y="-284" font-family="Courier,monospace" font-size="10.00">PointSamplerBase</text>
</a>
</g>
</g>
<!-- Node3&#45;&gt;Node2 -->
<g id="edge2" class="edge">
<title>Node3&#45;&gt;Node2</title>
<path fill="none" stroke="#63b8ff" d="M1414.62,-286.5C1428.19,-286.5 1442.59,-286.5 1456.55,-286.5"/>
<polygon fill="#63b8ff" stroke="#63b8ff" points="1414.95,-283 1404.95,-286.5 1414.95,-290 1414.95,-283"/>
</g>
<!-- Node4 -->
<g id="node4" class="node">
<title>Node4</title>
<g id="a_node4"><a xlink:href="classGeneralVectorPostprocessor.html" target="_top" xlink:title="This class is here to combine the VectorPostprocessor interface and the base class VectorPostprocesso...">
<polygon fill="white" stroke="#666666" points="1236,-296 1063,-296 1063,-277 1236,-277 1236,-296"/>
<text text-anchor="middle" x="1149.5" y="-284" font-family="Courier,monospace" font-size="10.00">GeneralVectorPostprocessor</text>
</a>
</g>
</g>
<!-- Node4&#45;&gt;Node3 -->
<g id="edge3" class="edge">
<title>Node4&#45;&gt;Node3</title>
<path fill="none" stroke="#63b8ff" d="M1247.81,-286.5C1262.17,-286.5 1276.54,-286.5 1289.67,-286.5"/>
<polygon fill="#63b8ff" stroke="#63b8ff" points="1247.83,-283 1237.83,-286.5 1247.83,-290 1247.83,-283"/>
</g>
<!-- Node5 -->
<g id="node5" class="node">
<title>Node5</title>
<g id="a_node5"><a xlink:href="classGeneralUserObject.html" target="_top" xlink:title=" ">
<polygon fill="white" stroke="#666666" points="1021,-296 902,-296 902,-277 1021,-277 1021,-296"/>
<text text-anchor="middle" x="961.5" y="-284" font-family="Courier,monospace" font-size="10.00">GeneralUserObject</text>
</a>
</g>
</g>
<!-- Node5&#45;&gt;Node4 -->
<g id="edge4" class="edge">
<title>Node5&#45;&gt;Node4</title>
<path fill="none" stroke="#63b8ff" d="M1032.62,-286.5C1042.38,-286.5 1052.5,-286.5 1062.51,-286.5"/>
<polygon fill="#63b8ff" stroke="#63b8ff" points="1032.87,-283 1022.87,-286.5 1032.87,-290 1032.87,-283"/>
</g>
<!-- Node6 -->
<g id="node6" class="node">
<title>Node6</title>
<g id="a_node6"><a xlink:href="classUserObject.html" target="_top" xlink:title="Base class for user&#45;specific data.">
<polygon fill="white" stroke="#666666" points="791,-296 714,-296 714,-277 791,-277 791,-296"/>
<text text-anchor="middle" x="752.5" y="-284" font-family="Courier,monospace" font-size="10.00">UserObject</text>
</a>
</g>
</g>
<!-- Node6&#45;&gt;Node5 -->
<g id="edge5" class="edge">
<title>Node6&#45;&gt;Node5</title>
<path fill="none" stroke="#63b8ff" d="M802.81,-286.5C832.47,-286.5 870.4,-286.5 901.63,-286.5"/>
<polygon fill="#63b8ff" stroke="#63b8ff" points="802.98,-283 792.98,-286.5 802.98,-290 802.98,-283"/>
</g>
<!-- Node7 -->
<g id="node7" class="node">
<title>Node7</title>
<g id="a_node7"><a xlink:href="classMooseObject.html" target="_top" xlink:title="Every object that can be built by the factory should be derived from this class.">
<polygon fill="white" stroke="#666666" points="546,-500 463,-500 463,-481 546,-481 546,-500"/>
<text text-anchor="middle" x="504.5" y="-488" font-family="Courier,monospace" font-size="10.00">MooseObject</text>
</a>
</g>
</g>
<!-- Node7&#45;&gt;Node6 -->
<g id="edge6" class="edge">
<title>Node7&#45;&gt;Node6</title>
<path fill="none" stroke="#63b8ff" d="M557.65,-492.85C576.01,-490.98 595.44,-485.53 609,-472.5 663.75,-419.9 590.36,-358.22 645,-305.5 662.91,-288.22 690.81,-283.74 713.56,-283.44"/>
<polygon fill="#63b8ff" stroke="#63b8ff" points="557.67,-489.34 547.92,-493.48 558.13,-496.32 557.67,-489.34"/>
</g>
<!-- Node8 -->
<g id="node8" class="node">
<title>Node8</title>
<g id="a_node8"><a xlink:href="classMooseBase.html" target="_top" xlink:title="Base class for everything in MOOSE with a name and a type.">
<polygon fill="white" stroke="#666666" points="310,-574 239,-574 239,-555 310,-555 310,-574"/>
<text text-anchor="middle" x="274.5" y="-562" font-family="Courier,monospace" font-size="10.00">MooseBase</text>
</a>
</g>
</g>
<!-- Node8&#45;&gt;Node7 -->
<g id="edge7" class="edge">
<title>Node8&#45;&gt;Node7</title>
<path fill="none" stroke="#63b8ff" d="M321.47,-560.48C335.73,-557.86 351.08,-553.56 364,-546.5 384.14,-535.5 379.76,-520.3 400,-509.5 419.1,-499.31 442.69,-494.48 462.53,-492.23"/>
<polygon fill="#63b8ff" stroke="#63b8ff" points="321.17,-556.98 311.84,-562 322.26,-563.9 321.17,-556.98"/>
</g>
<!-- Node9 -->
<g id="node9" class="node">
<title>Node9</title>
<g id="a_node9"><a xlink:href="classMooseBaseParameterInterface.html" target="_top" xlink:title="Every object that can be built by the factory should be derived from this class.">
<polygon fill="white" stroke="#666666" points="364,-537 185,-537 185,-518 364,-518 364,-537"/>
<text text-anchor="middle" x="274.5" y="-525" font-family="Courier,monospace" font-size="10.00">MooseBaseParameterInterface</text>
</a>
</g>
</g>
<!-- Node9&#45;&gt;Node7 -->
<g id="edge8" class="edge">
<title>Node9&#45;&gt;Node7</title>
<path fill="none" stroke="#63b8ff" d="M347.88,-515.75C385.73,-509.61 430.68,-502.32 462.51,-497.15"/>
<polygon fill="#63b8ff" stroke="#63b8ff" points="347.7,-512.24 338.39,-517.29 348.83,-519.15 347.7,-512.24"/>
</g>
<!-- Node10 -->
<g id="node10" class="node">
<title>Node10</title>
<g id="a_node10"><a xlink:href="classMooseBaseErrorInterface.html" target="_top" xlink:title="Interface that provides APIs to output errors/warnings/info messages.">
<polygon fill="white" stroke="#666666" points="352,-500 197,-500 197,-481 352,-481 352,-500"/>
<text text-anchor="middle" x="274.5" y="-488" font-family="Courier,monospace" font-size="10.00">MooseBaseErrorInterface</text>
</a>
</g>
</g>
<!-- Node10&#45;&gt;Node7 -->
<g id="edge9" class="edge">
<title>Node10&#45;&gt;Node7</title>
<path fill="none" stroke="#63b8ff" d="M363.8,-490.5C397.92,-490.5 435.28,-490.5 462.77,-490.5"/>
<polygon fill="#63b8ff" stroke="#63b8ff" points="363.89,-487 353.89,-490.5 363.89,-494 363.89,-487"/>
</g>
<!-- Node11 -->
<g id="node11" class="node">
<title>Node11</title>
<g id="a_node11"><a xlink:href="classConsoleStreamInterface.html" target="_top" xlink:title="An inteface for the _console for outputting to the Console object.">
<polygon fill="white" stroke="#666666" points="149,-500 0,-500 0,-481 149,-481 149,-500"/>
<text text-anchor="middle" x="74.5" y="-488" font-family="Courier,monospace" font-size="10.00">ConsoleStreamInterface</text>
</a>
</g>
</g>
<!-- Node11&#45;&gt;Node10 -->
<g id="edge10" class="edge">
<title>Node11&#45;&gt;Node10</title>
<path fill="none" stroke="#63b8ff" d="M160.62,-490.5C172.62,-490.5 184.9,-490.5 196.73,-490.5"/>
<polygon fill="#63b8ff" stroke="#63b8ff" points="160.74,-487 150.74,-490.5 160.74,-494 160.74,-487"/>
</g>
<!-- Node12 -->
<g id="node12" class="node">
<title>Node12</title>
<g id="a_node12"><a xlink:title=" ">
<polygon fill="white" stroke="#666666" points="352,-463 197,-463 197,-444 352,-444 352,-463"/>
<text text-anchor="middle" x="274.5" y="-451" font-family="Courier,monospace" font-size="10.00">libMesh::ParallelObject</text>
</a>
</g>
</g>
<!-- Node12&#45;&gt;Node7 -->
<g id="edge11" class="edge">
<title>Node12&#45;&gt;Node7</title>
<path fill="none" stroke="#63b8ff" d="M347.88,-465.25C385.73,-471.39 430.68,-478.68 462.51,-483.85"/>
<polygon fill="#63b8ff" stroke="#63b8ff" points="348.83,-461.85 338.39,-463.71 347.7,-468.76 348.83,-461.85"/>
</g>
<!-- Node13 -->
<g id="node13" class="node">
<title>Node13</title>
<g id="a_node13"><a xlink:href="classDataFileInterface.html" target="_top" xlink:title=" ">
<polygon fill="white" stroke="#666666" points="337,-425.5 212,-425.5 212,-395.5 337,-395.5 337,-425.5"/>
<text text-anchor="start" x="220" y="-413.5" font-family="Courier,monospace" font-size="10.00">DataFileInterface&lt;</text>
<text text-anchor="middle" x="274.5" y="-402.5" font-family="Courier,monospace" font-size="10.00"> MooseObject &gt;</text>
</a>
</g>
</g>
<!-- Node13&#45;&gt;Node7 -->
<g id="edge12" class="edge">
<title>Node13&#45;&gt;Node7</title>
<path fill="none" stroke="#63b8ff" d="M347.62,-427.35C353.32,-429.73 358.86,-432.44 364,-435.5 383.71,-447.24 379.71,-461.79 400,-472.5 419.11,-482.59 442.71,-487.19 462.54,-489.23"/>
<polygon fill="#63b8ff" stroke="#63b8ff" points="349.23,-424.22 338.64,-423.94 346.74,-430.76 349.23,-424.22"/>
</g>
<!-- Node14 -->
<g id="node14" class="node">
<title>Node14</title>
<g id="a_node14"><a xlink:href="classSetupInterface.html" target="_top" xlink:title=" ">
<polygon fill="white" stroke="#666666" points="555,-463 454,-463 454,-444 555,-444 555,-463"/>
<text text-anchor="middle" x="504.5" y="-451" font-family="Courier,monospace" font-size="10.00">SetupInterface</text>
</a>
</g>
</g>
<!-- Node14&#45;&gt;Node6 -->
<g id="edge13" class="edge">
<title>Node14&#45;&gt;Node6</title>
<path fill="none" stroke="#63b8ff" d="M566.6,-454.14C581.99,-451.48 597.42,-446 609,-435.5 653.42,-395.23 600.67,-345.86 645,-305.5 663.33,-288.81 691.07,-284.28 713.65,-283.81"/>
<polygon fill="#63b8ff" stroke="#63b8ff" points="566.4,-450.63 556.94,-455.4 567.31,-457.57 566.4,-450.63"/>
</g>
<!-- Node15 -->
<g id="node15" class="node">
<title>Node15</title>
<g id="a_node15"><a xlink:href="classFunctionInterface.html" target="_top" xlink:title="Interface for objects that need to use functions.">
<polygon fill="white" stroke="#666666" points="564,-426 445,-426 445,-407 564,-407 564,-426"/>
<text text-anchor="middle" x="504.5" y="-414" font-family="Courier,monospace" font-size="10.00">FunctionInterface</text>
</a>
</g>
</g>
<!-- Node15&#45;&gt;Node6 -->
<g id="edge14" class="edge">
<title>Node15&#45;&gt;Node6</title>
<path fill="none" stroke="darkgreen" d="M575.59,-414.33C587.7,-411.28 599.44,-406.34 609,-398.5 643.27,-370.4 610.79,-333.68 645,-305.5 663.99,-289.86 691.43,-285.25 713.71,-284.48"/>
<polygon fill="darkgreen" stroke="darkgreen" points="574.99,-410.87 565.9,-416.31 576.4,-417.73 574.99,-410.87"/>
</g>
<!-- Node16 -->
<g id="node16" class="node">
<title>Node16</title>
<g id="a_node16"><a xlink:href="classUserObjectInterface.html" target="_top" xlink:title="Interface for objects that need to use UserObjects.">
<polygon fill="white" stroke="#666666" points="570,-389 439,-389 439,-370 570,-370 570,-389"/>
<text text-anchor="middle" x="504.5" y="-377" font-family="Courier,monospace" font-size="10.00">UserObjectInterface</text>
</a>
</g>
</g>
<!-- Node16&#45;&gt;Node6 -->
<g id="edge15" class="edge">
<title>Node16&#45;&gt;Node6</title>
<path fill="none" stroke="#63b8ff" d="M581.53,-373.81C591.27,-370.97 600.72,-366.99 609,-361.5 633.65,-345.14 620.38,-321.91 645,-305.5 665.08,-292.11 691.84,-287.38 713.51,-285.98"/>
<polygon fill="#63b8ff" stroke="#63b8ff" points="580.79,-370.39 571.93,-376.21 582.48,-377.18 580.79,-370.39"/>
</g>
<!-- Node17 -->
<g id="node17" class="node">
<title>Node17</title>
<g id="a_node17"><a xlink:href="classPostprocessorInterface.html" target="_top" xlink:title="Interface class for classes which interact with Postprocessors.">
<polygon fill="white" stroke="#666666" points="579,-352 430,-352 430,-333 579,-333 579,-352"/>
<text text-anchor="middle" x="504.5" y="-340" font-family="Courier,monospace" font-size="10.00">PostprocessorInterface</text>
</a>
</g>
</g>
<!-- Node17&#45;&gt;Node6 -->
<g id="edge16" class="edge">
<title>Node17&#45;&gt;Node6</title>
<path fill="none" stroke="darkgreen" d="M590.27,-330.02C596.67,-328.39 602.97,-326.56 609,-324.5 626.12,-318.66 627.89,-311.38 645,-305.5 667.2,-297.87 693.11,-293.16 713.82,-290.34"/>
<polygon fill="darkgreen" stroke="darkgreen" points="589.84,-326.52 580.91,-332.22 591.45,-333.33 589.84,-326.52"/>
</g>
<!-- Node18 -->
<g id="node18" class="node">
<title>Node18</title>
<g id="a_node18"><a xlink:href="classVectorPostprocessorInterface.html" target="_top" xlink:title=" ">
<polygon fill="white" stroke="#666666" points="597,-315 412,-315 412,-296 597,-296 597,-315"/>
<text text-anchor="middle" x="504.5" y="-303" font-family="Courier,monospace" font-size="10.00">VectorPostprocessorInterface</text>
</a>
</g>
</g>
<!-- Node18&#45;&gt;Node6 -->
<g id="edge17" class="edge">
<title>Node18&#45;&gt;Node6</title>
<path fill="none" stroke="darkgreen" d="M608.88,-297.52C646.02,-294.65 685.62,-291.59 713.64,-289.42"/>
<polygon fill="darkgreen" stroke="darkgreen" points="608.66,-294.02 598.96,-298.28 609.2,-301 608.66,-294.02"/>
</g>
<!-- Node19 -->
<g id="node19" class="node">
<title>Node19</title>
<g id="a_node19"><a xlink:href="classReporterInterface.html" target="_top" xlink:title="Interface to allow object to consume Reporter values.">
<polygon fill="white" stroke="#666666" points="564,-278 445,-278 445,-259 564,-259 564,-278"/>
<text text-anchor="middle" x="504.5" y="-266" font-family="Courier,monospace" font-size="10.00">ReporterInterface</text>
</a>
</g>
</g>
<!-- Node19&#45;&gt;Node6 -->
<g id="edge18" class="edge">
<title>Node19&#45;&gt;Node6</title>
<path fill="none" stroke="darkgreen" d="M575.86,-273.65C620.73,-276.93 677.12,-281.06 713.72,-283.74"/>
<polygon fill="darkgreen" stroke="darkgreen" points="576.16,-270.16 565.93,-272.92 575.65,-277.14 576.16,-270.16"/>
</g>
<!-- Node20 -->
<g id="node20" class="node">
<title>Node20</title>
<g id="a_node20"><a xlink:href="classDistributionInterface.html" target="_top" xlink:title="Interface for objects that need to use distributions.">
<polygon fill="white" stroke="#666666" points="576,-241 433,-241 433,-222 576,-222 576,-241"/>
<text text-anchor="middle" x="504.5" y="-229" font-family="Courier,monospace" font-size="10.00">DistributionInterface</text>
</a>
</g>
</g>
<!-- Node20&#45;&gt;Node6 -->
<g id="edge19" class="edge">
<title>Node20&#45;&gt;Node6</title>
<path fill="none" stroke="darkgreen" d="M586.03,-243.97C593.87,-245.87 601.64,-248.04 609,-250.5 625.97,-256.17 627.99,-262.95 645,-268.5 667.28,-275.77 693.2,-280.24 713.88,-282.9"/>
<polygon fill="darkgreen" stroke="darkgreen" points="586.95,-240.59 576.42,-241.79 585.4,-247.41 586.95,-240.59"/>
</g>
<!-- Node21 -->
<g id="node21" class="node">
<title>Node21</title>
<g id="a_node21"><a xlink:href="classSamplerInterface.html" target="_top" xlink:title="Interface for objects that need to use samplers.">
<polygon fill="white" stroke="#666666" points="561,-204 448,-204 448,-185 561,-185 561,-204"/>
<text text-anchor="middle" x="504.5" y="-192" font-family="Courier,monospace" font-size="10.00">SamplerInterface</text>
</a>
</g>
</g>
<!-- Node21&#45;&gt;Node6 -->
<g id="edge20" class="edge">
<title>Node21&#45;&gt;Node6</title>
<path fill="none" stroke="darkgreen" d="M572.54,-197.88C585.39,-200.75 598.19,-205.32 609,-212.5 633.65,-228.86 620.31,-252.2 645,-268.5 665.11,-281.77 691.86,-286.26 713.53,-287.43"/>
<polygon fill="darkgreen" stroke="darkgreen" points="573.25,-194.45 562.78,-196.05 571.97,-201.33 573.25,-194.45"/>
</g>
<!-- Node22 -->
<g id="node22" class="node">
<title>Node22</title>
<g id="a_node22"><a xlink:href="classRestartable.html" target="_top" xlink:title="A class for creating restricted objects.">
<polygon fill="white" stroke="#666666" points="546,-167 463,-167 463,-148 546,-148 546,-167"/>
<text text-anchor="middle" x="504.5" y="-155" font-family="Courier,monospace" font-size="10.00">Restartable</text>
</a>
</g>
</g>
<!-- Node22&#45;&gt;Node6 -->
<g id="edge21" class="edge">
<title>Node22&#45;&gt;Node6</title>
<path fill="none" stroke="darkgreen" d="M557.73,-156.46C575.65,-158.56 594.76,-163.82 609,-175.5 643.27,-203.6 610.66,-240.48 645,-268.5 664.03,-284.03 691.47,-288.38 713.73,-288.92"/>
<polygon fill="darkgreen" stroke="darkgreen" points="558.25,-152.99 548,-155.65 557.67,-159.97 558.25,-152.99"/>
</g>
<!-- Node23 -->
<g id="node23" class="node">
<title>Node23</title>
<g id="a_node23"><a xlink:href="classMeshMetaDataInterface.html" target="_top" xlink:title="The Interface used to retrieve mesh meta data (attributes) set by the MeshGenerator system.">
<polygon fill="white" stroke="#666666" points="576,-130 433,-130 433,-111 576,-111 576,-130"/>
<text text-anchor="middle" x="504.5" y="-118" font-family="Courier,monospace" font-size="10.00">MeshMetaDataInterface</text>
</a>
</g>
</g>
<!-- Node23&#45;&gt;Node6 -->
<g id="edge22" class="edge">
<title>Node23&#45;&gt;Node6</title>
<path fill="none" stroke="darkgreen" d="M587.15,-125.4C595.16,-128.5 602.66,-132.75 609,-138.5 653.42,-178.77 600.49,-228.34 645,-268.5 663.38,-285.08 691.12,-289.35 713.68,-289.59"/>
<polygon fill="darkgreen" stroke="darkgreen" points="588.4,-122.13 577.81,-122.42 586.27,-128.8 588.4,-122.13"/>
</g>
<!-- Node24 -->
<g id="node24" class="node">
<title>Node24</title>
<g id="a_node24"><a xlink:href="classMeshChangedInterface.html" target="_top" xlink:title="Interface for notifications that the mesh has changed.">
<polygon fill="white" stroke="#666666" points="573,-93 436,-93 436,-74 573,-74 573,-93"/>
<text text-anchor="middle" x="504.5" y="-81" font-family="Courier,monospace" font-size="10.00">MeshChangedInterface</text>
</a>
</g>
</g>
<!-- Node24&#45;&gt;Node6 -->
<g id="edge23" class="edge">
<title>Node24&#45;&gt;Node6</title>
<path fill="none" stroke="darkgreen" d="M584.28,-86.84C593.45,-90.07 602,-94.78 609,-101.5 663.75,-154.1 590.12,-216.03 645,-268.5 662.96,-285.67 690.86,-289.89 713.6,-289.96"/>
<polygon fill="darkgreen" stroke="darkgreen" points="585.33,-83.5 574.75,-84.1 583.4,-90.23 585.33,-83.5"/>
</g>
<!-- Node25 -->
<g id="node25" class="node">
<title>Node25</title>
<g id="a_node25"><a xlink:href="classScalarCoupleable.html" target="_top" xlink:title="Interface for objects that needs scalar coupling capabilities.">
<polygon fill="white" stroke="#666666" points="561,-537 448,-537 448,-518 561,-518 561,-537"/>
<text text-anchor="middle" x="504.5" y="-525" font-family="Courier,monospace" font-size="10.00">ScalarCoupleable</text>
</a>
</g>
</g>
<!-- Node25&#45;&gt;Node6 -->
<g id="edge24" class="edge">
<title>Node25&#45;&gt;Node6</title>
<path fill="none" stroke="darkgreen" d="M572.42,-527.85C586.03,-524.87 599.17,-519.31 609,-509.5 674.18,-444.48 579.96,-370.66 645,-305.5 662.65,-287.82 690.7,-283.38 713.59,-283.2"/>
<polygon fill="darkgreen" stroke="darkgreen" points="572.22,-524.34 562.95,-529.47 573.39,-531.24 572.22,-524.34"/>
</g>
<!-- Node33 -->
<g id="node33" class="node">
<title>Node33</title>
<g id="a_node33"><a xlink:href="classCoupleableMooseVariableDependencyIntermediateInterface.html" target="_top" xlink:title="Intermediate base class that ties together all the interfaces for getting MooseVariableFEBases with t...">
<polygon fill="white" stroke="#666666" points="860,-560.5 645,-560.5 645,-530.5 860,-530.5 860,-560.5"/>
<text text-anchor="start" x="653" y="-548.5" font-family="Courier,monospace" font-size="10.00">CoupleableMooseVariableDependency</text>
<text text-anchor="middle" x="752.5" y="-537.5" font-family="Courier,monospace" font-size="10.00">IntermediateInterface</text>
</a>
</g>
</g>
<!-- Node25&#45;&gt;Node33 -->
<g id="edge34" class="edge">
<title>Node25&#45;&gt;Node33</title>
<path fill="none" stroke="#63b8ff" d="M572.63,-532.41C594.83,-534.04 620.11,-535.89 644.53,-537.67"/>
<polygon fill="#63b8ff" stroke="#63b8ff" points="573.06,-528.93 562.83,-531.69 572.55,-535.92 573.06,-528.93"/>
</g>
<!-- Node26 -->
<g id="node26" class="node">
<title>Node26</title>
<g id="a_node26"><a xlink:href="classPerfGraphInterface.html" target="_top" xlink:title="Interface for objects interacting with the PerfGraph.">
<polygon fill="white" stroke="#666666" points="567,-56 442,-56 442,-37 567,-37 567,-56"/>
<text text-anchor="middle" x="504.5" y="-44" font-family="Courier,monospace" font-size="10.00">PerfGraphInterface</text>
</a>
</g>
</g>
<!-- Node26&#45;&gt;Node6 -->
<g id="edge25" class="edge">
<title>Node26&#45;&gt;Node6</title>
<path fill="none" stroke="darkgreen" d="M578.46,-47.66C589.87,-50.88 600.63,-56.15 609,-64.5 674.18,-129.52 579.66,-203.63 645,-268.5 662.7,-286.07 690.75,-290.24 713.63,-290.2"/>
<polygon fill="darkgreen" stroke="darkgreen" points="579.39,-44.28 568.86,-45.5 577.85,-51.11 579.39,-44.28"/>
</g>
<!-- Node27 -->
<g id="node27" class="node">
<title>Node27</title>
<g id="a_node27"><a xlink:href="classDependencyResolverInterface.html" target="_top" xlink:title="Interface for sorting dependent vectors of objects.">
<polygon fill="white" stroke="#666666" points="594,-19 415,-19 415,0 594,0 594,-19"/>
<text text-anchor="middle" x="504.5" y="-7" font-family="Courier,monospace" font-size="10.00">DependencyResolverInterface</text>
</a>
</g>
</g>
<!-- Node27&#45;&gt;Node6 -->
<g id="edge26" class="edge">
<title>Node27&#45;&gt;Node6</title>
<path fill="none" stroke="#63b8ff" d="M603.86,-22.86C605.66,-24.29 607.38,-25.84 609,-27.5 684.66,-104.99 569.16,-191.19 645,-268.5 662.53,-286.37 690.74,-290.5 713.72,-290.36"/>
<polygon fill="#63b8ff" stroke="#63b8ff" points="605.8,-19.95 595.5,-17.45 601.99,-25.82 605.8,-19.95"/>
</g>
<!-- Node28 -->
<g id="node28" class="node">
<title>Node28</title>
<g id="a_node28"><a xlink:href="classMaterialPropertyInterface.html" target="_top" xlink:title="An interface for accessing Materials.">
<polygon fill="white" stroke="#666666" points="836,-259 669,-259 669,-240 836,-240 836,-259"/>
<text text-anchor="middle" x="752.5" y="-247" font-family="Courier,monospace" font-size="10.00">MaterialPropertyInterface</text>
</a>
</g>
</g>
<!-- Node28&#45;&gt;Node5 -->
<g id="edge27" class="edge">
<title>Node28&#45;&gt;Node5</title>
<path fill="none" stroke="#63b8ff" d="M820.63,-261.47C833.69,-263.8 847.27,-266.23 860,-268.5 874.57,-271.1 890.33,-273.92 904.95,-276.54"/>
<polygon fill="#63b8ff" stroke="#63b8ff" points="821.28,-258.03 810.82,-259.72 820.05,-264.92 821.28,-258.03"/>
</g>
<!-- Node29 -->
<g id="node29" class="node">
<title>Node29</title>
<g id="a_node29"><a xlink:href="classTransientInterface.html" target="_top" xlink:title="Interface for objects that needs transient capabilities.">
<polygon fill="white" stroke="#666666" points="815,-333 690,-333 690,-314 815,-314 815,-333"/>
<text text-anchor="middle" x="752.5" y="-321" font-family="Courier,monospace" font-size="10.00">TransientInterface</text>
</a>
</g>
</g>
<!-- Node29&#45;&gt;Node5 -->
<g id="edge28" class="edge">
<title>Node29&#45;&gt;Node5</title>
<path fill="none" stroke="#63b8ff" d="M824.92,-311.63C836.65,-309.62 848.67,-307.53 860,-305.5 875.91,-302.65 893.2,-299.43 908.89,-296.46"/>
<polygon fill="#63b8ff" stroke="#63b8ff" points="824.56,-308.14 815.29,-313.26 825.74,-315.04 824.56,-308.14"/>
</g>
<!-- Node30 -->
<g id="node30" class="node">
<title>Node30</title>
<g id="a_node30"><a xlink:href="classVectorPostprocessor.html" target="_top" xlink:title="Base class for Postprocessors that produce a vector of values.">
<polygon fill="white" stroke="#666666" points="1027,-241 896,-241 896,-222 1027,-222 1027,-241"/>
<text text-anchor="middle" x="961.5" y="-229" font-family="Courier,monospace" font-size="10.00">VectorPostprocessor</text>
</a>
</g>
</g>
<!-- Node30&#45;&gt;Node4 -->
<g id="edge29" class="edge">
<title>Node30&#45;&gt;Node4</title>
<path fill="none" stroke="#63b8ff" d="M997.18,-245.68C1016.35,-253.17 1040.74,-262.1 1063,-268.5 1073.35,-271.48 1084.54,-274.19 1095.3,-276.55"/>
<polygon fill="#63b8ff" stroke="#63b8ff" points="998.54,-242.46 987.95,-242.03 995.96,-248.97 998.54,-242.46"/>
</g>
<!-- Node31 -->
<g id="node31" class="node">
<title>Node31</title>
<g id="a_node31"><a xlink:href="classOutputInterface.html" target="_top" xlink:title="A class to provide an common interface to objects requiring &quot;outputs&quot; option.">
<polygon fill="white" stroke="#666666" points="806,-222 699,-222 699,-203 806,-203 806,-222"/>
<text text-anchor="middle" x="752.5" y="-210" font-family="Courier,monospace" font-size="10.00">OutputInterface</text>
</a>
</g>
</g>
<!-- Node31&#45;&gt;Node30 -->
<g id="edge30" class="edge">
<title>Node31&#45;&gt;Node30</title>
<path fill="none" stroke="#63b8ff" d="M817.41,-218.37C842.25,-220.65 870.68,-223.26 895.61,-225.54"/>
<polygon fill="#63b8ff" stroke="#63b8ff" points="818.06,-214.91 807.78,-217.48 817.42,-221.88 818.06,-214.91"/>
</g>
<!-- Node32 -->
<g id="node32" class="node">
<title>Node32</title>
<g id="a_node32"><a xlink:href="classSamplerBase.html" target="_top" xlink:title="Base class for VectorPostprocessors that need to do &quot;sampling&quot; of values in the domain.">
<polygon fill="white" stroke="#666666" points="1191,-259 1108,-259 1108,-240 1191,-240 1191,-259"/>
<text text-anchor="middle" x="1149.5" y="-247" font-family="Courier,monospace" font-size="10.00">SamplerBase</text>
</a>
</g>
</g>
<!-- Node32&#45;&gt;Node3 -->
<g id="edge31" class="edge">
<title>Node32&#45;&gt;Node3</title>
<path fill="none" stroke="darkgreen" d="M1202.52,-259.37C1230.44,-264.67 1264.78,-271.18 1292.8,-276.5"/>
<polygon fill="darkgreen" stroke="darkgreen" points="1203.34,-255.96 1192.87,-257.54 1202.04,-262.84 1203.34,-255.96"/>
</g>
<!-- Node33&#45;&gt;Node2 -->
<g id="edge32" class="edge">
<title>Node33&#45;&gt;Node2</title>
<path fill="none" stroke="#63b8ff" d="M810.82,-526.54C965.84,-475.26 1389.51,-335.12 1506.32,-296.48"/>
<polygon fill="#63b8ff" stroke="#63b8ff" points="809.97,-523.14 801.57,-529.6 812.17,-529.78 809.97,-523.14"/>
</g>
<!-- Node34 -->
<g id="node34" class="node">
<title>Node34</title>
<g id="a_node34"><a xlink:href="classCoupleable.html" target="_top" xlink:title="Interface for objects that needs coupling capabilities.">
<polygon fill="white" stroke="#666666" points="543,-574 466,-574 466,-555 543,-555 543,-574"/>
<text text-anchor="middle" x="504.5" y="-562" font-family="Courier,monospace" font-size="10.00">Coupleable</text>
</a>
</g>
</g>
<!-- Node34&#45;&gt;Node33 -->
<g id="edge33" class="edge">
<title>Node34&#45;&gt;Node33</title>
<path fill="none" stroke="#63b8ff" d="M554.76,-560.7C580.62,-558.7 613.37,-556.17 644.69,-553.75"/>
<polygon fill="#63b8ff" stroke="#63b8ff" points="554.61,-557.2 544.91,-561.46 555.15,-564.18 554.61,-557.2"/>
</g>
<!-- Node35 -->
<g id="node35" class="node">
<title>Node35</title>
<g id="a_node35"><a xlink:href="classMooseVariableDependencyInterface.html" target="_top" xlink:title=" ">
<polygon fill="white" stroke="#666666" points="609,-611 400,-611 400,-592 609,-592 609,-611"/>
<text text-anchor="middle" x="504.5" y="-599" font-family="Courier,monospace" font-size="10.00">MooseVariableDependencyInterface</text>
</a>
</g>
</g>
<!-- Node35&#45;&gt;Node33 -->
<g id="edge35" class="edge">
<title>Node35&#45;&gt;Node33</title>
<path fill="none" stroke="#63b8ff" d="M579.29,-589.49C589.3,-587.62 599.42,-585.61 609,-583.5 638.63,-576.99 671.37,-568.36 697.98,-560.97"/>
<polygon fill="#63b8ff" stroke="#63b8ff" points="578.77,-586.03 569.56,-591.27 580.02,-592.91 578.77,-586.03"/>
</g>
<!-- Node36 -->
<g id="node36" class="node">
<title>Node36</title>
<g id="a_node36"><a xlink:href="classMooseVariableInterface.html" target="_top" xlink:title=" ">
<polygon fill="white" stroke="#666666" points="1421,-258.5 1272,-258.5 1272,-228.5 1421,-228.5 1421,-258.5"/>
<text text-anchor="start" x="1280" y="-246.5" font-family="Courier,monospace" font-size="10.00">MooseVariableInterface</text>
<text text-anchor="middle" x="1346.5" y="-235.5" font-family="Courier,monospace" font-size="10.00">&lt; Real &gt;</text>
</a>
</g>
</g>
<!-- Node36&#45;&gt;Node2 -->
<g id="edge36" class="edge">
<title>Node36&#45;&gt;Node2</title>
<path fill="none" stroke="#63b8ff" d="M1426.46,-261.46C1449.11,-266.62 1472.98,-272.05 1492.67,-276.53"/>
<polygon fill="#63b8ff" stroke="#63b8ff" points="1427.47,-258.1 1416.94,-259.3 1425.92,-264.93 1427.47,-258.1"/>
</g>
</g>
</svg>
        <g id="navigator" transform="translate(0 0)" fill="#404254">
                <rect fill="#f2f5e9" fill-opacity="0.5" stroke="#606060" stroke-width=".5" x="0" y="0" width="60" height="60"/>
                <use id="zoomplus" xlink:href="#zoomPlus" x="17" y="9" onmousedown="handleZoom(evt,'in')"/>
                <use id="zoomminus" xlink:href="#zoomMin" x="42" y="9" onmousedown="handleZoom(evt,'out')"/>
                <use id="reset" xlink:href="#resetDef" x="30" y="36" onmousedown="handleReset()"/>
                <g id="arrowUp" xlink:href="#dirArrow" transform="translate(30 24)" onmousedown="handlePan(0,-1)">
                  <use xlink:href="#rim" fill="#404040">
                        <set attributeName="fill" to="#808080" begin="arrowUp.mouseover" end="arrowUp.mouseout"/>
                  </use>
                  <path fill="none" stroke="white" stroke-width="1.5" d="M0,-3.0v7 M-2.5,-0.5L0,-3.0L2.5,-0.5"/>
                </g>
                <g id="arrowRight" xlink:href="#dirArrow" transform="rotate(90) translate(36 -43)" onmousedown="handlePan(1,0)">
                  <use xlink:href="#rim" fill="#404040">
                        <set attributeName="fill" to="#808080" begin="arrowRight.mouseover" end="arrowRight.mouseout"/>
                  </use>
                  <path fill="none" stroke="white" stroke-width="1.5" d="M0,-3.0v7 M-2.5,-0.5L0,-3.0L2.5,-0.5"/>
                </g>
                <g id="arrowDown" xlink:href="#dirArrow" transform="rotate(180) translate(-30 -48)" onmousedown="handlePan(0,1)">
                  <use xlink:href="#rim" fill="#404040">
                        <set attributeName="fill" to="#808080" begin="arrowDown.mouseover" end="arrowDown.mouseout"/>
                  </use>
                  <path fill="none" stroke="white" stroke-width="1.5" d="M0,-3.0v7 M-2.5,-0.5L0,-3.0L2.5,-0.5"/>
                </g>
                <g id="arrowLeft" xlink:href="#dirArrow" transform="rotate(270) translate(-36 17)" onmousedown="handlePan(-1,0)">
                  <use xlink:href="#rim" fill="#404040">
                        <set attributeName="fill" to="#808080" begin="arrowLeft.mouseover" end="arrowLeft.mouseout"/>
                  </use>
                  <path fill="none" stroke="white" stroke-width="1.5" d="M0,-3.0v7 M-2.5,-0.5L0,-3.0L2.5,-0.5"/>
                </g>
        </g>
        <svg viewBox="0 0 15 15" width="100%" height="30px" preserveAspectRatio="xMaxYMin meet">
         <g id="arrow_out" transform="scale(0.3 0.3)">
          <a xlink:href="classLineValueSampler__inherit__graph_org.svg" target="_base">
           <rect id="button" ry="5" rx="5" y="6" x="6" height="38" width="38"
                fill="#f2f5e9" fill-opacity="0.5" stroke="#606060" stroke-width="1.0"/>
           <path id="arrow"
             d="M 11.500037,31.436501 C 11.940474,20.09759 22.043105,11.32322 32.158766,21.979434 L 37.068811,17.246167 C 37.068811,17.246167 37.088388,32 37.088388,32 L 22.160133,31.978069 C 22.160133,31.978069 26.997745,27.140456 26.997745,27.140456 C 18.528582,18.264221 13.291696,25.230495 11.500037,31.436501 z"
             style="fill:#404040;"/>
          </a>
         </g>
        </svg>
</svg>
