<?xml version="1.0" encoding="UTF-8" standalone="no"?>
<!DOCTYPE svg PUBLIC "-//W3C//DTD SVG 1.1//EN"
 "http://www.w3.org/Graphics/SVG/1.1/DTD/svg11.dtd">
<!-- Generated by graphviz version 7.0.5 (20221223.1930)
 -->
<!-- Title: SingleMatrixPreconditioner Pages: 1 -->
<svg width="909pt" height="187pt"
 viewBox="0.00 0.00 909.00 186.50" xmlns="http://www.w3.org/2000/svg" xmlns:xlink="http://www.w3.org/1999/xlink">
<g id="graph0" class="graph" transform="scale(1 1) rotate(0) translate(4 182.5)">
<title>SingleMatrixPreconditioner</title>
<!-- Node1 -->
<g id="node1" class="node">
<title>Node1</title>
<g id="a_node1"><a xlink:title="Single matrix preconditioner.">
<polygon fill="#999999" stroke="#666666" points="901,-67.5 728,-67.5 728,-48.5 901,-48.5 901,-67.5"/>
<text text-anchor="middle" x="814.5" y="-55.5" font-family="Courier,monospace" font-size="10.00">SingleMatrixPreconditioner</text>
</a>
</g>
</g>
<!-- Node2 -->
<g id="node2" class="node">
<title>Node2</title>
<g id="a_node2"><a xlink:href="classMoosePreconditioner.html" target="_top" xlink:title="Base class for MOOSE preconditioners.">
<polygon fill="white" stroke="#666666" points="692,-67.5 561,-67.5 561,-48.5 692,-48.5 692,-67.5"/>
<text text-anchor="middle" x="626.5" y="-55.5" font-family="Courier,monospace" font-size="10.00">MoosePreconditioner</text>
</a>
</g>
</g>
<!-- Node2&#45;&gt;Node1 -->
<g id="edge1" class="edge">
<title>Node2&#45;&gt;Node1</title>
<path fill="none" stroke="#63b8ff" d="M703.72,-58C711.61,-58 719.68,-58 727.67,-58"/>
<polygon fill="#63b8ff" stroke="#63b8ff" points="703.81,-54.5 693.81,-58 703.81,-61.5 703.81,-54.5"/>
</g>
<!-- Node3 -->
<g id="node3" class="node">
<title>Node3</title>
<g id="a_node3"><a xlink:href="classMooseObject.html" target="_top" xlink:title="Every object that can be built by the factory should be derived from this class.">
<polygon fill="white" stroke="#666666" points="504,-104.5 421,-104.5 421,-85.5 504,-85.5 504,-104.5"/>
<text text-anchor="middle" x="462.5" y="-92.5" font-family="Courier,monospace" font-size="10.00">MooseObject</text>
</a>
</g>
</g>
<!-- Node3&#45;&gt;Node2 -->
<g id="edge2" class="edge">
<title>Node3&#45;&gt;Node2</title>
<path fill="none" stroke="#63b8ff" d="M515.56,-83.11C536.92,-78.23 561.38,-72.64 581.79,-67.98"/>
<polygon fill="#63b8ff" stroke="#63b8ff" points="514.82,-79.69 505.85,-85.33 516.38,-86.51 514.82,-79.69"/>
</g>
<!-- Node4 -->
<g id="node4" class="node">
<title>Node4</title>
<g id="a_node4"><a xlink:href="classMooseBase.html" target="_top" xlink:title="Base class for everything in MOOSE with a name and a type.">
<polygon fill="white" stroke="#666666" points="310,-178.5 239,-178.5 239,-159.5 310,-159.5 310,-178.5"/>
<text text-anchor="middle" x="274.5" y="-166.5" font-family="Courier,monospace" font-size="10.00">MooseBase</text>
</a>
</g>
</g>
<!-- Node4&#45;&gt;Node3 -->
<g id="edge3" class="edge">
<title>Node4&#45;&gt;Node3</title>
<path fill="none" stroke="#63b8ff" d="M321.58,-162.52C335.48,-159.8 350.59,-156.06 364,-151 395.78,-139 429.4,-117.44 447.68,-104.86"/>
<polygon fill="#63b8ff" stroke="#63b8ff" points="320.97,-159.08 311.75,-164.3 322.21,-165.97 320.97,-159.08"/>
</g>
<!-- Node5 -->
<g id="node5" class="node">
<title>Node5</title>
<g id="a_node5"><a xlink:href="classMooseBaseParameterInterface.html" target="_top" xlink:title="Every object that can be built by the factory should be derived from this class.">
<polygon fill="white" stroke="#666666" points="364,-141.5 185,-141.5 185,-122.5 364,-122.5 364,-141.5"/>
<text text-anchor="middle" x="274.5" y="-129.5" font-family="Courier,monospace" font-size="10.00">MooseBaseParameterInterface</text>
</a>
</g>
</g>
<!-- Node5&#45;&gt;Node3 -->
<g id="edge4" class="edge">
<title>Node5&#45;&gt;Node3</title>
<path fill="none" stroke="#63b8ff" d="M336.48,-119.87C364.07,-114.38 395.96,-108.04 420.62,-103.13"/>
<polygon fill="#63b8ff" stroke="#63b8ff" points="335.95,-116.41 326.83,-121.79 337.32,-123.27 335.95,-116.41"/>
</g>
<!-- Node6 -->
<g id="node6" class="node">
<title>Node6</title>
<g id="a_node6"><a xlink:href="classMooseBaseErrorInterface.html" target="_top" xlink:title="Interface that provides APIs to output errors/warnings/info messages.">
<polygon fill="white" stroke="#666666" points="352,-104.5 197,-104.5 197,-85.5 352,-85.5 352,-104.5"/>
<text text-anchor="middle" x="274.5" y="-92.5" font-family="Courier,monospace" font-size="10.00">MooseBaseErrorInterface</text>
</a>
</g>
</g>
<!-- Node6&#45;&gt;Node3 -->
<g id="edge5" class="edge">
<title>Node6&#45;&gt;Node3</title>
<path fill="none" stroke="#63b8ff" d="M363.81,-95C383.7,-95 403.87,-95 420.67,-95"/>
<polygon fill="#63b8ff" stroke="#63b8ff" points="364.01,-91.5 354.01,-95 364.01,-98.5 364.01,-91.5"/>
</g>
<!-- Node7 -->
<g id="node7" class="node">
<title>Node7</title>
<g id="a_node7"><a xlink:href="classConsoleStreamInterface.html" target="_top" xlink:title="An inteface for the _console for outputting to the Console object.">
<polygon fill="white" stroke="#666666" points="149,-104.5 0,-104.5 0,-85.5 149,-85.5 149,-104.5"/>
<text text-anchor="middle" x="74.5" y="-92.5" font-family="Courier,monospace" font-size="10.00">ConsoleStreamInterface</text>
</a>
</g>
</g>
<!-- Node7&#45;&gt;Node6 -->
<g id="edge6" class="edge">
<title>Node7&#45;&gt;Node6</title>
<path fill="none" stroke="#63b8ff" d="M160.62,-95C172.62,-95 184.9,-95 196.73,-95"/>
<polygon fill="#63b8ff" stroke="#63b8ff" points="160.74,-91.5 150.74,-95 160.74,-98.5 160.74,-91.5"/>
</g>
<!-- Node8 -->
<g id="node8" class="node">
<title>Node8</title>
<g id="a_node8"><a xlink:title=" ">
<polygon fill="white" stroke="#666666" points="352,-67.5 197,-67.5 197,-48.5 352,-48.5 352,-67.5"/>
<text text-anchor="middle" x="274.5" y="-55.5" font-family="Courier,monospace" font-size="10.00">libMesh::ParallelObject</text>
</a>
</g>
</g>
<!-- Node8&#45;&gt;Node3 -->
<g id="edge7" class="edge">
<title>Node8&#45;&gt;Node3</title>
<path fill="none" stroke="#63b8ff" d="M336.48,-70.13C364.07,-75.62 395.96,-81.96 420.62,-86.87"/>
<polygon fill="#63b8ff" stroke="#63b8ff" points="337.32,-66.73 326.83,-68.21 335.95,-73.59 337.32,-66.73"/>
</g>
<!-- Node9 -->
<g id="node9" class="node">
<title>Node9</title>
<g id="a_node9"><a xlink:href="classDataFileInterface.html" target="_top" xlink:title=" ">
<polygon fill="white" stroke="#666666" points="337,-30 212,-30 212,0 337,0 337,-30"/>
<text text-anchor="start" x="220" y="-18" font-family="Courier,monospace" font-size="10.00">DataFileInterface&lt;</text>
<text text-anchor="middle" x="274.5" y="-7" font-family="Courier,monospace" font-size="10.00"> MooseObject &gt;</text>
</a>
</g>
</g>
<!-- Node9&#45;&gt;Node3 -->
<g id="edge8" class="edge">
<title>Node9&#45;&gt;Node3</title>
<path fill="none" stroke="#63b8ff" d="M347.62,-30.99C353.32,-33.32 358.86,-35.97 364,-39 383.77,-50.64 380.43,-64.02 400,-76 406.29,-79.85 413.42,-82.98 420.55,-85.5"/>
<polygon fill="#63b8ff" stroke="#63b8ff" points="349.23,-27.85 338.64,-27.67 346.8,-34.42 349.23,-27.85"/>
</g>
<!-- Node10 -->
<g id="node10" class="node">
<title>Node10</title>
<g id="a_node10"><a xlink:href="classRestartable.html" target="_top" xlink:title="A class for creating restricted objects.">
<polygon fill="white" stroke="#666666" points="504,-67.5 421,-67.5 421,-48.5 504,-48.5 504,-67.5"/>
<text text-anchor="middle" x="462.5" y="-55.5" font-family="Courier,monospace" font-size="10.00">Restartable</text>
</a>
</g>
</g>
<!-- Node10&#45;&gt;Node2 -->
<g id="edge9" class="edge">
<title>Node10&#45;&gt;Node2</title>
<path fill="none" stroke="#63b8ff" d="M515.56,-58C529.92,-58 545.68,-58 560.67,-58"/>
<polygon fill="#63b8ff" stroke="#63b8ff" points="515.89,-54.5 505.89,-58 515.89,-61.5 515.89,-54.5"/>
</g>
<!-- Node11 -->
<g id="node11" class="node">
<title>Node11</title>
<g id="a_node11"><a xlink:href="classPerfGraphInterface.html" target="_top" xlink:title="Interface for objects interacting with the PerfGraph.">
<polygon fill="white" stroke="#666666" points="525,-30.5 400,-30.5 400,-11.5 525,-11.5 525,-30.5"/>
<text text-anchor="middle" x="462.5" y="-18.5" font-family="Courier,monospace" font-size="10.00">PerfGraphInterface</text>
</a>
</g>
</g>
<!-- Node11&#45;&gt;Node2 -->
<g id="edge10" class="edge">
<title>Node11&#45;&gt;Node2</title>
<path fill="none" stroke="#63b8ff" d="M517.87,-33.42C538.73,-38.18 562.25,-43.55 581.97,-48.06"/>
<polygon fill="#63b8ff" stroke="#63b8ff" points="518.92,-30.07 508.39,-31.25 517.36,-36.89 518.92,-30.07"/>
</g>
</g>
</svg>
