<?xml version="1.0" encoding="UTF-8" standalone="no"?>
<!DOCTYPE svg PUBLIC "-//W3C//DTD SVG 1.1//EN"
 "http://www.w3.org/Graphics/SVG/1.1/DTD/svg11.dtd">
<!-- Generated by graphviz version 7.0.5 (20221223.1930)
 -->
<!-- Title: Executor Pages: 1 -->
<!--zoomable 384 -->
<svg id="main" version="1.1" xmlns="http://www.w3.org/2000/svg" xmlns:xlink="http://www.w3.org/1999/xlink" xml:space="preserve" onload="init(evt)">
<style type="text/css"><![CDATA[
.edge:hover path { stroke: red; }
.edge:hover polygon { stroke: red; fill: red; }
]]></style>
<script type="text/javascript"><![CDATA[
var edges = document.getElementsByTagName('g');
if (edges && edges.length) {
  for (var i=0;i<edges.length;i++) {
    if (edges[i].id.substr(0,4)=='edge') {
      edges[i].setAttribute('class','edge');
    }
  }
}
]]></script>
        <defs>
                <circle id="rim" cx="0" cy="0" r="7"/>
                <circle id="rim2" cx="0" cy="0" r="3.5"/>
                <g id="zoomPlus">
                        <use xlink:href="#rim" fill="#404040">
                                <set attributeName="fill" to="#808080" begin="zoomplus.mouseover" end="zoomplus.mouseout"/>
                        </use>
                        <path d="M-4,0h8M0,-4v8" fill="none" stroke="white" stroke-width="1.5" pointer-events="none"/>
                </g>
                <g id="zoomMin">
                        <use xlink:href="#rim" fill="#404040">
                                <set attributeName="fill" to="#808080" begin="zoomminus.mouseover" end="zoomminus.mouseout"/>
                        </use>
                        <path d="M-4,0h8" fill="none" stroke="white" stroke-width="1.5" pointer-events="none"/>
                </g>
                <g id="dirArrow">
                        <path fill="none" stroke="white" stroke-width="1.5" d="M0,-3.0v7 M-2.5,-0.5L0,-3.0L2.5,-0.5"/>
                </g>
               <g id="resetDef">
                       <use xlink:href="#rim2" fill="#404040">
                               <set attributeName="fill" to="#808080" begin="reset.mouseover" end="reset.mouseout"/>
                       </use>
               </g>
        </defs>

<script type="text/javascript">
var viewWidth = 938;
var viewHeight = 384;
var sectionId = 'dynsection-0';
</script>
<script xlink:href="svgpan.js"/>
<svg id="graph" class="graph">
<g id="viewport">
<title>Executor</title>
<!-- Node1 -->
<g id="node1" class="node">
<title>Node1</title>
<g id="a_node1"><a xlink:title="The Executor class directs the execution flow of simulations.">
<polygon fill="#999999" stroke="#666666" points="805,-111 740,-111 740,-92 805,-92 805,-111"/>
<text text-anchor="middle" x="772.5" y="-99" font-family="Courier,monospace" font-size="10.00">Executor</text>
</a>
</g>
</g>
<!-- Node18 -->
<g id="node18" class="node">
<title>Node18</title>
<g id="a_node18"><a xlink:href="classNullExecutor.html" target="_top" xlink:title=" ">
<polygon fill="white" stroke="#666666" points="930,-111 841,-111 841,-92 930,-92 930,-111"/>
<text text-anchor="middle" x="885.5" y="-99" font-family="Courier,monospace" font-size="10.00">NullExecutor</text>
</a>
</g>
</g>
<!-- Node1&#45;&gt;Node18 -->
<g id="edge17" class="edge">
<title>Node1&#45;&gt;Node18</title>
<path fill="none" stroke="#63b8ff" d="M816.57,-101.5C824.48,-101.5 832.76,-101.5 840.69,-101.5"/>
<polygon fill="#63b8ff" stroke="#63b8ff" points="816.82,-98 806.82,-101.5 816.82,-105 816.82,-98"/>
</g>
<!-- Node2 -->
<g id="node2" class="node">
<title>Node2</title>
<g id="a_node2"><a xlink:href="classExecutioner.html" target="_top" xlink:title="Executioners are objects that do the actual work of solving your problem.">
<polygon fill="white" stroke="#666666" points="686,-130 603,-130 603,-111 686,-111 686,-130"/>
<text text-anchor="middle" x="644.5" y="-118" font-family="Courier,monospace" font-size="10.00">Executioner</text>
</a>
</g>
</g>
<!-- Node2&#45;&gt;Node1 -->
<g id="edge1" class="edge">
<title>Node2&#45;&gt;Node1</title>
<path fill="none" stroke="#63b8ff" d="M697.6,-112.64C711.84,-110.5 726.83,-108.24 739.57,-106.31"/>
<polygon fill="#63b8ff" stroke="#63b8ff" points="697.27,-109.15 687.91,-114.11 698.32,-116.08 697.27,-109.15"/>
</g>
<!-- Node3 -->
<g id="node3" class="node">
<title>Node3</title>
<g id="a_node3"><a xlink:href="classMooseObject.html" target="_top" xlink:title="Every object that can be built by the factory should be derived from this class.">
<polygon fill="white" stroke="#666666" points="516,-284 433,-284 433,-265 516,-265 516,-284"/>
<text text-anchor="middle" x="474.5" y="-272" font-family="Courier,monospace" font-size="10.00">MooseObject</text>
</a>
</g>
</g>
<!-- Node3&#45;&gt;Node2 -->
<g id="edge2" class="edge">
<title>Node3&#45;&gt;Node2</title>
<path fill="none" stroke="#63b8ff" d="M496.93,-257.51C511.81,-245.53 531.95,-228.92 549,-213.5 581.27,-184.32 617.4,-147.54 634.1,-130.28"/>
<polygon fill="#63b8ff" stroke="#63b8ff" points="494.8,-254.74 489.18,-263.72 499.17,-260.2 494.8,-254.74"/>
</g>
<!-- Node4 -->
<g id="node4" class="node">
<title>Node4</title>
<g id="a_node4"><a xlink:href="classMooseBase.html" target="_top" xlink:title="Base class for everything in MOOSE with a name and a type.">
<polygon fill="white" stroke="#666666" points="310,-376 239,-376 239,-357 310,-357 310,-376"/>
<text text-anchor="middle" x="274.5" y="-364" font-family="Courier,monospace" font-size="10.00">MooseBase</text>
</a>
</g>
</g>
<!-- Node4&#45;&gt;Node3 -->
<g id="edge3" class="edge">
<title>Node4&#45;&gt;Node3</title>
<path fill="none" stroke="#63b8ff" d="M321.4,-360.71C335.42,-358.01 350.65,-354.1 364,-348.5 403.35,-331.98 443.32,-300.4 462.24,-284.37"/>
<polygon fill="#63b8ff" stroke="#63b8ff" points="321.22,-357.19 311.97,-362.36 322.43,-364.08 321.22,-357.19"/>
</g>
<!-- Node5 -->
<g id="node5" class="node">
<title>Node5</title>
<g id="a_node5"><a xlink:href="classMooseBaseParameterInterface.html" target="_top" xlink:title="Every object that can be built by the factory should be derived from this class.">
<polygon fill="white" stroke="#666666" points="364,-339 185,-339 185,-320 364,-320 364,-339"/>
<text text-anchor="middle" x="274.5" y="-327" font-family="Courier,monospace" font-size="10.00">MooseBaseParameterInterface</text>
</a>
</g>
</g>
<!-- Node5&#45;&gt;Node3 -->
<g id="edge4" class="edge">
<title>Node5&#45;&gt;Node3</title>
<path fill="none" stroke="#63b8ff" d="M341.26,-317.08C348.96,-315.34 356.68,-313.47 364,-311.5 392.87,-303.72 425.23,-292.46 447.23,-284.41"/>
<polygon fill="#63b8ff" stroke="#63b8ff" points="340.55,-313.65 331.52,-319.2 342.04,-320.49 340.55,-313.65"/>
</g>
<!-- Node6 -->
<g id="node6" class="node">
<title>Node6</title>
<g id="a_node6"><a xlink:href="classMooseBaseErrorInterface.html" target="_top" xlink:title="Interface that provides APIs to output errors/warnings/info messages.">
<polygon fill="white" stroke="#666666" points="352,-302 197,-302 197,-283 352,-283 352,-302"/>
<text text-anchor="middle" x="274.5" y="-290" font-family="Courier,monospace" font-size="10.00">MooseBaseErrorInterface</text>
</a>
</g>
</g>
<!-- Node6&#45;&gt;Node3 -->
<g id="edge5" class="edge">
<title>Node6&#45;&gt;Node3</title>
<path fill="none" stroke="#63b8ff" d="M363.68,-284.48C387.75,-282.3 412.68,-280.03 432.69,-278.21"/>
<polygon fill="#63b8ff" stroke="#63b8ff" points="363.48,-280.99 353.84,-285.38 364.12,-287.96 363.48,-280.99"/>
</g>
<!-- Node7 -->
<g id="node7" class="node">
<title>Node7</title>
<g id="a_node7"><a xlink:href="classConsoleStreamInterface.html" target="_top" xlink:title="An inteface for the _console for outputting to the Console object.">
<polygon fill="white" stroke="#666666" points="149,-302 0,-302 0,-283 149,-283 149,-302"/>
<text text-anchor="middle" x="74.5" y="-290" font-family="Courier,monospace" font-size="10.00">ConsoleStreamInterface</text>
</a>
</g>
</g>
<!-- Node7&#45;&gt;Node6 -->
<g id="edge6" class="edge">
<title>Node7&#45;&gt;Node6</title>
<path fill="none" stroke="#63b8ff" d="M160.62,-292.5C172.62,-292.5 184.9,-292.5 196.73,-292.5"/>
<polygon fill="#63b8ff" stroke="#63b8ff" points="160.74,-289 150.74,-292.5 160.74,-296 160.74,-289"/>
</g>
<!-- Node8 -->
<g id="node8" class="node">
<title>Node8</title>
<g id="a_node8"><a xlink:title=" ">
<polygon fill="white" stroke="#666666" points="352,-265 197,-265 197,-246 352,-246 352,-265"/>
<text text-anchor="middle" x="274.5" y="-253" font-family="Courier,monospace" font-size="10.00">libMesh::ParallelObject</text>
</a>
</g>
</g>
<!-- Node8&#45;&gt;Node3 -->
<g id="edge7" class="edge">
<title>Node8&#45;&gt;Node3</title>
<path fill="none" stroke="#63b8ff" d="M363.68,-263.96C387.75,-266.27 412.68,-268.66 432.69,-270.58"/>
<polygon fill="#63b8ff" stroke="#63b8ff" points="364.13,-260.49 353.84,-263.02 363.46,-267.46 364.13,-260.49"/>
</g>
<!-- Node9 -->
<g id="node9" class="node">
<title>Node9</title>
<g id="a_node9"><a xlink:href="classDataFileInterface.html" target="_top" xlink:title=" ">
<polygon fill="white" stroke="#666666" points="337,-227.5 212,-227.5 212,-197.5 337,-197.5 337,-227.5"/>
<text text-anchor="start" x="220" y="-215.5" font-family="Courier,monospace" font-size="10.00">DataFileInterface&lt;</text>
<text text-anchor="middle" x="274.5" y="-204.5" font-family="Courier,monospace" font-size="10.00"> MooseObject &gt;</text>
</a>
</g>
</g>
<!-- Node9&#45;&gt;Node3 -->
<g id="edge8" class="edge">
<title>Node9&#45;&gt;Node3</title>
<path fill="none" stroke="#63b8ff" d="M342.7,-231.1C349.9,-233.21 357.11,-235.37 364,-237.5 391.79,-246.11 423.23,-256.84 445.27,-264.52"/>
<polygon fill="#63b8ff" stroke="#63b8ff" points="343.84,-227.78 333.26,-228.37 341.89,-234.51 343.84,-227.78"/>
</g>
<!-- Node10 -->
<g id="node10" class="node">
<title>Node10</title>
<g id="a_node10"><a xlink:href="classReporter.html" target="_top" xlink:title="Reporter objects allow for the declaration of arbitrary data types that are aggregate values for a si...">
<polygon fill="white" stroke="#666666" points="507,-204 442,-204 442,-185 507,-185 507,-204"/>
<text text-anchor="middle" x="474.5" y="-192" font-family="Courier,monospace" font-size="10.00">Reporter</text>
</a>
</g>
</g>
<!-- Node10&#45;&gt;Node2 -->
<g id="edge9" class="edge">
<title>Node10&#45;&gt;Node2</title>
<path fill="none" stroke="#8b1a1a" d="M518.47,-186.23C528.66,-183.65 539.37,-180.43 549,-176.5 579.55,-164.03 611.96,-142.84 629.77,-130.41"/>
<polygon fill="#8b1a1a" stroke="#8b1a1a" points="517.66,-182.82 508.73,-188.52 519.27,-189.64 517.66,-182.82"/>
</g>
<!-- Node11 -->
<g id="node11" class="node">
<title>Node11</title>
<g id="a_node11"><a xlink:href="classOutputInterface.html" target="_top" xlink:title="A class to provide an common interface to objects requiring &quot;outputs&quot; option.">
<polygon fill="white" stroke="#666666" points="328,-179 221,-179 221,-160 328,-160 328,-179"/>
<text text-anchor="middle" x="274.5" y="-167" font-family="Courier,monospace" font-size="10.00">OutputInterface</text>
</a>
</g>
</g>
<!-- Node11&#45;&gt;Node10 -->
<g id="edge10" class="edge">
<title>Node11&#45;&gt;Node10</title>
<path fill="none" stroke="#63b8ff" d="M339.59,-177.59C373.7,-181.9 414.13,-187 441.58,-190.47"/>
<polygon fill="#63b8ff" stroke="#63b8ff" points="340.16,-174.14 329.8,-176.36 339.28,-181.08 340.16,-174.14"/>
</g>
<!-- Node12 -->
<g id="node12" class="node">
<title>Node12</title>
<g id="a_node12"><a xlink:href="classReporterInterface.html" target="_top" xlink:title="Interface to allow object to consume Reporter values.">
<polygon fill="white" stroke="#666666" points="534,-167 415,-167 415,-148 534,-148 534,-167"/>
<text text-anchor="middle" x="474.5" y="-155" font-family="Courier,monospace" font-size="10.00">ReporterInterface</text>
</a>
</g>
</g>
<!-- Node12&#45;&gt;Node2 -->
<g id="edge11" class="edge">
<title>Node12&#45;&gt;Node2</title>
<path fill="none" stroke="#8b1a1a" d="M531.64,-145.14C554.88,-140.02 581.33,-134.19 602.67,-129.49"/>
<polygon fill="#8b1a1a" stroke="#8b1a1a" points="531.01,-141.69 522,-147.26 532.52,-148.53 531.01,-141.69"/>
</g>
<!-- Node13 -->
<g id="node13" class="node">
<title>Node13</title>
<g id="a_node13"><a xlink:href="classUserObjectInterface.html" target="_top" xlink:title="Interface for objects that need to use UserObjects.">
<polygon fill="white" stroke="#666666" points="540,-130 409,-130 409,-111 540,-111 540,-130"/>
<text text-anchor="middle" x="474.5" y="-118" font-family="Courier,monospace" font-size="10.00">UserObjectInterface</text>
</a>
</g>
</g>
<!-- Node13&#45;&gt;Node2 -->
<g id="edge12" class="edge">
<title>Node13&#45;&gt;Node2</title>
<path fill="none" stroke="#63b8ff" d="M551.93,-120.5C569.55,-120.5 587.61,-120.5 602.99,-120.5"/>
<polygon fill="#63b8ff" stroke="#63b8ff" points="551.97,-117 541.97,-120.5 551.97,-124 551.97,-117"/>
</g>
<!-- Node14 -->
<g id="node14" class="node">
<title>Node14</title>
<g id="a_node14"><a xlink:href="classPostprocessorInterface.html" target="_top" xlink:title="Interface class for classes which interact with Postprocessors.">
<polygon fill="white" stroke="#666666" points="549,-93 400,-93 400,-74 549,-74 549,-93"/>
<text text-anchor="middle" x="474.5" y="-81" font-family="Courier,monospace" font-size="10.00">PostprocessorInterface</text>
</a>
</g>
</g>
<!-- Node14&#45;&gt;Node2 -->
<g id="edge13" class="edge">
<title>Node14&#45;&gt;Node2</title>
<path fill="none" stroke="#63b8ff" d="M531.64,-95.86C554.88,-100.98 581.33,-106.81 602.67,-111.51"/>
<polygon fill="#63b8ff" stroke="#63b8ff" points="532.52,-92.47 522,-93.74 531.01,-99.31 532.52,-92.47"/>
</g>
<!-- Node15 -->
<g id="node15" class="node">
<title>Node15</title>
<g id="a_node15"><a xlink:href="classRestartable.html" target="_top" xlink:title="A class for creating restricted objects.">
<polygon fill="white" stroke="#666666" points="516,-56 433,-56 433,-37 516,-37 516,-56"/>
<text text-anchor="middle" x="474.5" y="-44" font-family="Courier,monospace" font-size="10.00">Restartable</text>
</a>
</g>
</g>
<!-- Node15&#45;&gt;Node2 -->
<g id="edge14" class="edge">
<title>Node15&#45;&gt;Node2</title>
<path fill="none" stroke="#63b8ff" d="M527.39,-55.22C534.92,-57.61 542.36,-60.64 549,-64.5 569.12,-76.19 565.23,-90.23 585,-102.5 590.42,-105.86 596.51,-108.64 602.66,-110.92"/>
<polygon fill="#63b8ff" stroke="#63b8ff" points="528.41,-51.87 517.84,-52.57 526.54,-58.62 528.41,-51.87"/>
</g>
<!-- Node16 -->
<g id="node16" class="node">
<title>Node16</title>
<g id="a_node16"><a xlink:href="classPerfGraphInterface.html" target="_top" xlink:title="Interface for objects interacting with the PerfGraph.">
<polygon fill="white" stroke="#666666" points="537,-19 412,-19 412,0 537,0 537,-19"/>
<text text-anchor="middle" x="474.5" y="-7" font-family="Courier,monospace" font-size="10.00">PerfGraphInterface</text>
</a>
</g>
</g>
<!-- Node16&#45;&gt;Node2 -->
<g id="edge15" class="edge">
<title>Node16&#45;&gt;Node2</title>
<path fill="none" stroke="#63b8ff" d="M545.53,-24.91C546.72,-25.73 547.88,-26.59 549,-27.5 577.71,-50.8 556.98,-78.37 585,-102.5 590.07,-106.87 596.19,-110.18 602.53,-112.68"/>
<polygon fill="#63b8ff" stroke="#63b8ff" points="547.57,-22.04 537.14,-20.16 544.12,-28.13 547.57,-22.04"/>
</g>
<!-- Node17 -->
<g id="node17" class="node">
<title>Node17</title>
<g id="a_node17"><a xlink:href="classExecutorInterface.html" target="_top" xlink:title="Interface class for classes which interact with Postprocessors.">
<polygon fill="white" stroke="#666666" points="704,-93 585,-93 585,-74 704,-74 704,-93"/>
<text text-anchor="middle" x="644.5" y="-81" font-family="Courier,monospace" font-size="10.00">ExecutorInterface</text>
</a>
</g>
</g>
<!-- Node17&#45;&gt;Node1 -->
<g id="edge16" class="edge">
<title>Node17&#45;&gt;Node1</title>
<path fill="none" stroke="#63b8ff" d="M715.57,-93.51C724,-94.71 732.26,-95.89 739.73,-96.96"/>
<polygon fill="#63b8ff" stroke="#63b8ff" points="716.33,-90.08 705.94,-92.13 715.34,-97.01 716.33,-90.08"/>
</g>
</g>
</svg>
        <g id="navigator" transform="translate(0 0)" fill="#404254">
                <rect fill="#f2f5e9" fill-opacity="0.5" stroke="#606060" stroke-width=".5" x="0" y="0" width="60" height="60"/>
                <use id="zoomplus" xlink:href="#zoomPlus" x="17" y="9" onmousedown="handleZoom(evt,'in')"/>
                <use id="zoomminus" xlink:href="#zoomMin" x="42" y="9" onmousedown="handleZoom(evt,'out')"/>
                <use id="reset" xlink:href="#resetDef" x="30" y="36" onmousedown="handleReset()"/>
                <g id="arrowUp" xlink:href="#dirArrow" transform="translate(30 24)" onmousedown="handlePan(0,-1)">
                  <use xlink:href="#rim" fill="#404040">
                        <set attributeName="fill" to="#808080" begin="arrowUp.mouseover" end="arrowUp.mouseout"/>
                  </use>
                  <path fill="none" stroke="white" stroke-width="1.5" d="M0,-3.0v7 M-2.5,-0.5L0,-3.0L2.5,-0.5"/>
                </g>
                <g id="arrowRight" xlink:href="#dirArrow" transform="rotate(90) translate(36 -43)" onmousedown="handlePan(1,0)">
                  <use xlink:href="#rim" fill="#404040">
                        <set attributeName="fill" to="#808080" begin="arrowRight.mouseover" end="arrowRight.mouseout"/>
                  </use>
                  <path fill="none" stroke="white" stroke-width="1.5" d="M0,-3.0v7 M-2.5,-0.5L0,-3.0L2.5,-0.5"/>
                </g>
                <g id="arrowDown" xlink:href="#dirArrow" transform="rotate(180) translate(-30 -48)" onmousedown="handlePan(0,1)">
                  <use xlink:href="#rim" fill="#404040">
                        <set attributeName="fill" to="#808080" begin="arrowDown.mouseover" end="arrowDown.mouseout"/>
                  </use>
                  <path fill="none" stroke="white" stroke-width="1.5" d="M0,-3.0v7 M-2.5,-0.5L0,-3.0L2.5,-0.5"/>
                </g>
                <g id="arrowLeft" xlink:href="#dirArrow" transform="rotate(270) translate(-36 17)" onmousedown="handlePan(-1,0)">
                  <use xlink:href="#rim" fill="#404040">
                        <set attributeName="fill" to="#808080" begin="arrowLeft.mouseover" end="arrowLeft.mouseout"/>
                  </use>
                  <path fill="none" stroke="white" stroke-width="1.5" d="M0,-3.0v7 M-2.5,-0.5L0,-3.0L2.5,-0.5"/>
                </g>
        </g>
        <svg viewBox="0 0 15 15" width="100%" height="30px" preserveAspectRatio="xMaxYMin meet">
         <g id="arrow_out" transform="scale(0.3 0.3)">
          <a xlink:href="classExecutor__inherit__graph_org.svg" target="_base">
           <rect id="button" ry="5" rx="5" y="6" x="6" height="38" width="38"
                fill="#f2f5e9" fill-opacity="0.5" stroke="#606060" stroke-width="1.0"/>
           <path id="arrow"
             d="M 11.500037,31.436501 C 11.940474,20.09759 22.043105,11.32322 32.158766,21.979434 L 37.068811,17.246167 C 37.068811,17.246167 37.088388,32 37.088388,32 L 22.160133,31.978069 C 22.160133,31.978069 26.997745,27.140456 26.997745,27.140456 C 18.528582,18.264221 13.291696,25.230495 11.500037,31.436501 z"
             style="fill:#404040;"/>
          </a>
         </g>
        </svg>
</svg>
