<?xml version="1.0" encoding="UTF-8" standalone="no"?>
<!DOCTYPE svg PUBLIC "-//W3C//DTD SVG 1.1//EN"
 "http://www.w3.org/Graphics/SVG/1.1/DTD/svg11.dtd">
<!-- Generated by graphviz version 7.0.5 (20221223.1930)
 -->
<!-- Title: DGKernel Pages: 1 -->
<svg width="2044pt" height="688pt"
 viewBox="0.00 0.00 2044.00 688.00" xmlns="http://www.w3.org/2000/svg" xmlns:xlink="http://www.w3.org/1999/xlink">
<g id="graph0" class="graph" transform="scale(1 1) rotate(0) translate(4 684)">
<title>DGKernel</title>
<!-- Node1 -->
<g id="node1" class="node">
<title>Node1</title>
<g id="a_node1"><a xlink:title="The DGKernel class is responsible for calculating the residuals for various physics on internal sides...">
<polygon fill="#999999" stroke="#666666" points="1403,-148 1338,-148 1338,-129 1403,-129 1403,-148"/>
<text text-anchor="middle" x="1370.5" y="-136" font-family="Courier,monospace" font-size="10.00">DGKernel</text>
</a>
</g>
</g>
<!-- Node34 -->
<g id="node34" class="node">
<title>Node34</title>
<g id="a_node34"><a xlink:href="classDGConvection.html" target="_top" xlink:title=" ">
<polygon fill="white" stroke="#666666" points="1558,-278 1469,-278 1469,-259 1558,-259 1558,-278"/>
<text text-anchor="middle" x="1513.5" y="-266" font-family="Courier,monospace" font-size="10.00">DGConvection</text>
</a>
</g>
</g>
<!-- Node1&#45;&gt;Node34 -->
<g id="edge33" class="edge">
<title>Node1&#45;&gt;Node34</title>
<path fill="none" stroke="#63b8ff" d="M1378.27,-159C1387.74,-184.43 1407.43,-227.27 1439,-250.5 1447.68,-256.88 1458.34,-261.03 1468.82,-263.71"/>
<polygon fill="#63b8ff" stroke="#63b8ff" points="1381.65,-158.07 1375.03,-149.8 1375.05,-160.39 1381.65,-158.07"/>
</g>
<!-- Node35 -->
<g id="node35" class="node">
<title>Node35</title>
<g id="a_node35"><a xlink:href="classDGCoupledAdvection.html" target="_top" xlink:title=" ">
<polygon fill="white" stroke="#666666" points="1576,-241 1451,-241 1451,-222 1576,-222 1576,-241"/>
<text text-anchor="middle" x="1513.5" y="-229" font-family="Courier,monospace" font-size="10.00">DGCoupledAdvection</text>
</a>
</g>
</g>
<!-- Node1&#45;&gt;Node35 -->
<g id="edge34" class="edge">
<title>Node1&#45;&gt;Node35</title>
<path fill="none" stroke="#63b8ff" d="M1383.54,-157.36C1395.53,-174.59 1415.5,-199.44 1439,-213.5 1444.41,-216.74 1450.38,-219.39 1456.5,-221.57"/>
<polygon fill="#63b8ff" stroke="#63b8ff" points="1386.75,-155.87 1378.28,-149.5 1380.93,-159.76 1386.75,-155.87"/>
</g>
<!-- Node36 -->
<g id="node36" class="node">
<title>Node36</title>
<g id="a_node36"><a xlink:href="classDGDiffusion.html" target="_top" xlink:title="DG kernel for diffusion.">
<polygon fill="white" stroke="#666666" points="1555,-204 1472,-204 1472,-185 1555,-185 1555,-204"/>
<text text-anchor="middle" x="1513.5" y="-192" font-family="Courier,monospace" font-size="10.00">DGDiffusion</text>
</a>
</g>
</g>
<!-- Node1&#45;&gt;Node36 -->
<g id="edge35" class="edge">
<title>Node1&#45;&gt;Node36</title>
<path fill="none" stroke="#63b8ff" d="M1396.1,-154.49C1408.55,-162.03 1424.15,-170.63 1439,-176.5 1449.38,-180.61 1460.98,-183.97 1471.83,-186.63"/>
<polygon fill="#63b8ff" stroke="#63b8ff" points="1398.08,-151.61 1387.74,-149.3 1394.38,-157.55 1398.08,-151.61"/>
</g>
<!-- Node37 -->
<g id="node37" class="node">
<title>Node37</title>
<g id="a_node37"><a xlink:href="classDGFunctionConvection.html" target="_top" xlink:title=" ">
<polygon fill="white" stroke="#666666" points="1582,-167 1445,-167 1445,-148 1582,-148 1582,-167"/>
<text text-anchor="middle" x="1513.5" y="-155" font-family="Courier,monospace" font-size="10.00">DGFunctionConvection</text>
</a>
</g>
</g>
<!-- Node1&#45;&gt;Node37 -->
<g id="edge36" class="edge">
<title>Node1&#45;&gt;Node37</title>
<path fill="none" stroke="#63b8ff" d="M1414.64,-144.31C1424.14,-145.59 1434.43,-146.98 1444.64,-148.36"/>
<polygon fill="#63b8ff" stroke="#63b8ff" points="1415.37,-140.88 1405,-143.01 1414.44,-147.82 1415.37,-140.88"/>
</g>
<!-- Node40 -->
<g id="node40" class="node">
<title>Node40</title>
<g id="a_node40"><a xlink:href="classDGLowerDKernel.html" target="_top" xlink:title="The DGKernel class is responsible for calculating the residuals for various physics on internal sides...">
<polygon fill="white" stroke="#666666" points="1564,-130 1463,-130 1463,-111 1564,-111 1564,-130"/>
<text text-anchor="middle" x="1513.5" y="-118" font-family="Courier,monospace" font-size="10.00">DGLowerDKernel</text>
</a>
</g>
</g>
<!-- Node1&#45;&gt;Node40 -->
<g id="edge39" class="edge">
<title>Node1&#45;&gt;Node40</title>
<path fill="none" stroke="#63b8ff" d="M1414.65,-132.99C1429.81,-131.06 1446.98,-128.86 1462.65,-126.86"/>
<polygon fill="#63b8ff" stroke="#63b8ff" points="1414.47,-129.49 1405,-134.22 1415.36,-136.43 1414.47,-129.49"/>
</g>
<!-- Node42 -->
<g id="node42" class="node">
<title>Node42</title>
<g id="a_node42"><a xlink:href="classDGTemperatureAdvection.html" target="_top" xlink:title=" ">
<polygon fill="white" stroke="#666666" points="1588,-93 1439,-93 1439,-74 1588,-74 1588,-93"/>
<text text-anchor="middle" x="1513.5" y="-81" font-family="Courier,monospace" font-size="10.00">DGTemperatureAdvection</text>
</a>
</g>
</g>
<!-- Node1&#45;&gt;Node42 -->
<g id="edge41" class="edge">
<title>Node1&#45;&gt;Node42</title>
<path fill="none" stroke="#63b8ff" d="M1396.39,-122.81C1408.82,-115.52 1424.31,-107.21 1439,-101.5 1446.96,-98.41 1455.61,-95.72 1464.1,-93.44"/>
<polygon fill="#63b8ff" stroke="#63b8ff" points="1394.81,-119.68 1388.06,-127.84 1398.43,-125.67 1394.81,-119.68"/>
</g>
<!-- Node43 -->
<g id="node43" class="node">
<title>Node43</title>
<g id="a_node43"><a xlink:href="classHFEMTestJump.html" target="_top" xlink:title="The HFEMTestJump class computes an L2 product (lambda, [u*])_Gamma, where Gamma is the set of interna...">
<polygon fill="white" stroke="#666666" points="1558,-56 1469,-56 1469,-37 1558,-37 1558,-56"/>
<text text-anchor="middle" x="1513.5" y="-44" font-family="Courier,monospace" font-size="10.00">HFEMTestJump</text>
</a>
</g>
</g>
<!-- Node1&#45;&gt;Node43 -->
<g id="edge42" class="edge">
<title>Node1&#45;&gt;Node43</title>
<path fill="none" stroke="#63b8ff" d="M1384.13,-119.14C1396.22,-102.18 1415.97,-78.17 1439,-64.5 1448.04,-59.13 1458.6,-55.37 1468.86,-52.72"/>
<polygon fill="#63b8ff" stroke="#63b8ff" points="1381.25,-117.15 1378.5,-127.38 1387.03,-121.1 1381.25,-117.15"/>
</g>
<!-- Node44 -->
<g id="node44" class="node">
<title>Node44</title>
<g id="a_node44"><a xlink:href="classHFEMTrialJump.html" target="_top" xlink:title="The HFEMTrialJump class computes an L2 product (lambda*, [u])_Gamma, where Gamma is the set of intern...">
<polygon fill="white" stroke="#666666" points="1561,-19 1466,-19 1466,0 1561,0 1561,-19"/>
<text text-anchor="middle" x="1513.5" y="-7" font-family="Courier,monospace" font-size="10.00">HFEMTrialJump</text>
</a>
</g>
</g>
<!-- Node1&#45;&gt;Node44 -->
<g id="edge43" class="edge">
<title>Node1&#45;&gt;Node44</title>
<path fill="none" stroke="#63b8ff" d="M1378.32,-118.18C1387.84,-92.98 1407.59,-50.51 1439,-27.5 1446.84,-21.75 1456.29,-17.83 1465.76,-15.15"/>
<polygon fill="#63b8ff" stroke="#63b8ff" points="1375.13,-116.7 1375.06,-127.29 1381.72,-119.05 1375.13,-116.7"/>
</g>
<!-- Node2 -->
<g id="node2" class="node">
<title>Node2</title>
<g id="a_node2"><a xlink:href="classDGKernelBase.html" target="_top" xlink:title="Serves as a base class for DGKernel and ADDGKernel.">
<polygon fill="white" stroke="#666666" points="1248,-207 1159,-207 1159,-188 1248,-188 1248,-207"/>
<text text-anchor="middle" x="1203.5" y="-195" font-family="Courier,monospace" font-size="10.00">DGKernelBase</text>
</a>
</g>
</g>
<!-- Node2&#45;&gt;Node1 -->
<g id="edge1" class="edge">
<title>Node2&#45;&gt;Node1</title>
<path fill="none" stroke="#63b8ff" d="M1242.72,-183.83C1273.02,-173 1314.63,-158.12 1341.79,-148.41"/>
<polygon fill="#63b8ff" stroke="#63b8ff" points="1241.78,-180.45 1233.54,-187.12 1244.14,-187.04 1241.78,-180.45"/>
</g>
<!-- Node3 -->
<g id="node3" class="node">
<title>Node3</title>
<g id="a_node3"><a xlink:href="classNeighborResidualObject.html" target="_top" xlink:title="This is a base class for objects that can provide residual contributions for both local and neighbor ...">
<polygon fill="white" stroke="#666666" points="1042,-376 893,-376 893,-357 1042,-357 1042,-376"/>
<text text-anchor="middle" x="967.5" y="-364" font-family="Courier,monospace" font-size="10.00">NeighborResidualObject</text>
</a>
</g>
</g>
<!-- Node3&#45;&gt;Node2 -->
<g id="edge2" class="edge">
<title>Node3&#45;&gt;Node2</title>
<path fill="none" stroke="#63b8ff" d="M992.37,-350.17C1012.82,-336.11 1043,-315.19 1069,-296.5 1113.52,-264.5 1165.49,-225.47 1189.33,-207.47"/>
<polygon fill="#63b8ff" stroke="#63b8ff" points="990.42,-347.26 984.15,-355.81 994.38,-353.03 990.42,-347.26"/>
</g>
<!-- Node4 -->
<g id="node4" class="node">
<title>Node4</title>
<g id="a_node4"><a xlink:href="classResidualObject.html" target="_top" xlink:title="This is the common base class for objects that give residual contributions.">
<polygon fill="white" stroke="#666666" points="776,-402 675,-402 675,-383 776,-383 776,-402"/>
<text text-anchor="middle" x="725.5" y="-390" font-family="Courier,monospace" font-size="10.00">ResidualObject</text>
</a>
</g>
</g>
<!-- Node4&#45;&gt;Node3 -->
<g id="edge3" class="edge">
<title>Node4&#45;&gt;Node3</title>
<path fill="none" stroke="#63b8ff" d="M787.65,-385.88C819.63,-382.41 859.01,-378.14 892.68,-374.5"/>
<polygon fill="#63b8ff" stroke="#63b8ff" points="787.3,-382.39 777.73,-386.95 788.05,-389.35 787.3,-382.39"/>
</g>
<!-- Node5 -->
<g id="node5" class="node">
<title>Node5</title>
<g id="a_node5"><a xlink:href="classMooseObject.html" target="_top" xlink:title="Every object that can be built by the factory should be derived from this class.">
<polygon fill="white" stroke="#666666" points="534,-606 451,-606 451,-587 534,-587 534,-606"/>
<text text-anchor="middle" x="492.5" y="-594" font-family="Courier,monospace" font-size="10.00">MooseObject</text>
</a>
</g>
</g>
<!-- Node5&#45;&gt;Node4 -->
<g id="edge4" class="edge">
<title>Node5&#45;&gt;Node4</title>
<path fill="none" stroke="#63b8ff" d="M545.39,-593.02C559.03,-590.36 573.22,-585.9 585,-578.5 658.15,-532.56 706.48,-433.45 720.37,-402.17"/>
<polygon fill="#63b8ff" stroke="#63b8ff" points="544.92,-589.55 535.61,-594.61 546.05,-596.46 544.92,-589.55"/>
</g>
<!-- Node6 -->
<g id="node6" class="node">
<title>Node6</title>
<g id="a_node6"><a xlink:href="classMooseBase.html" target="_top" xlink:title="Base class for everything in MOOSE with a name and a type.">
<polygon fill="white" stroke="#666666" points="310,-680 239,-680 239,-661 310,-661 310,-680"/>
<text text-anchor="middle" x="274.5" y="-668" font-family="Courier,monospace" font-size="10.00">MooseBase</text>
</a>
</g>
</g>
<!-- Node6&#45;&gt;Node5 -->
<g id="edge5" class="edge">
<title>Node6&#45;&gt;Node5</title>
<path fill="none" stroke="#63b8ff" d="M321.62,-663.05C335.41,-660.31 350.46,-656.8 364,-652.5 403.87,-639.85 448.08,-618.72 472.56,-606.35"/>
<polygon fill="#63b8ff" stroke="#63b8ff" points="321.06,-659.59 311.89,-664.89 322.36,-666.47 321.06,-659.59"/>
</g>
<!-- Node7 -->
<g id="node7" class="node">
<title>Node7</title>
<g id="a_node7"><a xlink:href="classMooseBaseParameterInterface.html" target="_top" xlink:title="Every object that can be built by the factory should be derived from this class.">
<polygon fill="white" stroke="#666666" points="364,-643 185,-643 185,-624 364,-624 364,-643"/>
<text text-anchor="middle" x="274.5" y="-631" font-family="Courier,monospace" font-size="10.00">MooseBaseParameterInterface</text>
</a>
</g>
</g>
<!-- Node7&#45;&gt;Node5 -->
<g id="edge6" class="edge">
<title>Node7&#45;&gt;Node5</title>
<path fill="none" stroke="#63b8ff" d="M344.77,-621.63C379.7,-615.65 420.85,-608.6 450.68,-603.49"/>
<polygon fill="#63b8ff" stroke="#63b8ff" points="344.43,-618.14 335.16,-623.28 345.61,-625.04 344.43,-618.14"/>
</g>
<!-- Node8 -->
<g id="node8" class="node">
<title>Node8</title>
<g id="a_node8"><a xlink:href="classMooseBaseErrorInterface.html" target="_top" xlink:title="Interface that provides APIs to output errors/warnings/info messages.">
<polygon fill="white" stroke="#666666" points="352,-606 197,-606 197,-587 352,-587 352,-606"/>
<text text-anchor="middle" x="274.5" y="-594" font-family="Courier,monospace" font-size="10.00">MooseBaseErrorInterface</text>
</a>
</g>
</g>
<!-- Node8&#45;&gt;Node5 -->
<g id="edge7" class="edge">
<title>Node8&#45;&gt;Node5</title>
<path fill="none" stroke="#63b8ff" d="M363.7,-596.5C393.87,-596.5 426.17,-596.5 450.75,-596.5"/>
<polygon fill="#63b8ff" stroke="#63b8ff" points="363.78,-593 353.78,-596.5 363.78,-600 363.78,-593"/>
</g>
<!-- Node9 -->
<g id="node9" class="node">
<title>Node9</title>
<g id="a_node9"><a xlink:href="classConsoleStreamInterface.html" target="_top" xlink:title="An inteface for the _console for outputting to the Console object.">
<polygon fill="white" stroke="#666666" points="149,-606 0,-606 0,-587 149,-587 149,-606"/>
<text text-anchor="middle" x="74.5" y="-594" font-family="Courier,monospace" font-size="10.00">ConsoleStreamInterface</text>
</a>
</g>
</g>
<!-- Node9&#45;&gt;Node8 -->
<g id="edge8" class="edge">
<title>Node9&#45;&gt;Node8</title>
<path fill="none" stroke="#63b8ff" d="M160.62,-596.5C172.62,-596.5 184.9,-596.5 196.73,-596.5"/>
<polygon fill="#63b8ff" stroke="#63b8ff" points="160.74,-593 150.74,-596.5 160.74,-600 160.74,-593"/>
</g>
<!-- Node10 -->
<g id="node10" class="node">
<title>Node10</title>
<g id="a_node10"><a xlink:title=" ">
<polygon fill="white" stroke="#666666" points="352,-569 197,-569 197,-550 352,-550 352,-569"/>
<text text-anchor="middle" x="274.5" y="-557" font-family="Courier,monospace" font-size="10.00">libMesh::ParallelObject</text>
</a>
</g>
</g>
<!-- Node10&#45;&gt;Node5 -->
<g id="edge9" class="edge">
<title>Node10&#45;&gt;Node5</title>
<path fill="none" stroke="#63b8ff" d="M344.77,-571.37C379.7,-577.35 420.85,-584.4 450.68,-589.51"/>
<polygon fill="#63b8ff" stroke="#63b8ff" points="345.61,-567.96 335.16,-569.72 344.43,-574.86 345.61,-567.96"/>
</g>
<!-- Node11 -->
<g id="node11" class="node">
<title>Node11</title>
<g id="a_node11"><a xlink:href="classDataFileInterface.html" target="_top" xlink:title=" ">
<polygon fill="white" stroke="#666666" points="337,-531.5 212,-531.5 212,-501.5 337,-501.5 337,-531.5"/>
<text text-anchor="start" x="220" y="-519.5" font-family="Courier,monospace" font-size="10.00">DataFileInterface&lt;</text>
<text text-anchor="middle" x="274.5" y="-508.5" font-family="Courier,monospace" font-size="10.00"> MooseObject &gt;</text>
</a>
</g>
</g>
<!-- Node11&#45;&gt;Node5 -->
<g id="edge10" class="edge">
<title>Node11&#45;&gt;Node5</title>
<path fill="none" stroke="#63b8ff" d="M347.62,-533.35C353.32,-535.73 358.86,-538.44 364,-541.5 383.71,-553.24 379.83,-567.57 400,-578.5 415.37,-586.83 434.06,-591.34 450.53,-593.76"/>
<polygon fill="#63b8ff" stroke="#63b8ff" points="349.23,-530.22 338.64,-529.94 346.74,-536.76 349.23,-530.22"/>
</g>
<!-- Node12 -->
<g id="node12" class="node">
<title>Node12</title>
<g id="a_node12"><a xlink:href="classSetupInterface.html" target="_top" xlink:title=" ">
<polygon fill="white" stroke="#666666" points="543,-569 442,-569 442,-550 543,-550 543,-569"/>
<text text-anchor="middle" x="492.5" y="-557" font-family="Courier,monospace" font-size="10.00">SetupInterface</text>
</a>
</g>
</g>
<!-- Node12&#45;&gt;Node4 -->
<g id="edge11" class="edge">
<title>Node12&#45;&gt;Node4</title>
<path fill="none" stroke="#63b8ff" d="M554.42,-553.04C565.03,-550.39 575.65,-546.69 585,-541.5 649.46,-505.76 701.26,-429.73 718.42,-402.48"/>
<polygon fill="#63b8ff" stroke="#63b8ff" points="553.93,-549.57 544.9,-555.11 555.42,-556.41 553.93,-549.57"/>
</g>
<!-- Node13 -->
<g id="node13" class="node">
<title>Node13</title>
<g id="a_node13"><a xlink:href="classFunctionInterface.html" target="_top" xlink:title="Interface for objects that need to use functions.">
<polygon fill="white" stroke="#666666" points="552,-532 433,-532 433,-513 552,-513 552,-532"/>
<text text-anchor="middle" x="492.5" y="-520" font-family="Courier,monospace" font-size="10.00">FunctionInterface</text>
</a>
</g>
</g>
<!-- Node13&#45;&gt;Node4 -->
<g id="edge12" class="edge">
<title>Node13&#45;&gt;Node4</title>
<path fill="none" stroke="#63b8ff" d="M563.39,-512.43C570.85,-510.27 578.19,-507.67 585,-504.5 641.32,-478.3 694.79,-424.68 715.48,-402.47"/>
<polygon fill="#63b8ff" stroke="#63b8ff" points="562.7,-508.99 553.89,-514.88 564.45,-515.77 562.7,-508.99"/>
</g>
<!-- Node14 -->
<g id="node14" class="node">
<title>Node14</title>
<g id="a_node14"><a xlink:href="classUserObjectInterface.html" target="_top" xlink:title="Interface for objects that need to use UserObjects.">
<polygon fill="white" stroke="#666666" points="558,-495 427,-495 427,-476 558,-476 558,-495"/>
<text text-anchor="middle" x="492.5" y="-483" font-family="Courier,monospace" font-size="10.00">UserObjectInterface</text>
</a>
</g>
</g>
<!-- Node14&#45;&gt;Node4 -->
<g id="edge13" class="edge">
<title>Node14&#45;&gt;Node4</title>
<path fill="none" stroke="#63b8ff" d="M568.24,-472.73C573.97,-471.17 579.61,-469.43 585,-467.5 633.15,-450.26 684.97,-418.48 709.71,-402.39"/>
<polygon fill="#63b8ff" stroke="#63b8ff" points="567.48,-469.32 558.64,-475.16 569.19,-476.1 567.48,-469.32"/>
</g>
<!-- Node15 -->
<g id="node15" class="node">
<title>Node15</title>
<g id="a_node15"><a xlink:href="classTransientInterface.html" target="_top" xlink:title="Interface for objects that needs transient capabilities.">
<polygon fill="white" stroke="#666666" points="555,-458 430,-458 430,-439 555,-439 555,-458"/>
<text text-anchor="middle" x="492.5" y="-446" font-family="Courier,monospace" font-size="10.00">TransientInterface</text>
</a>
</g>
</g>
<!-- Node15&#45;&gt;Node4 -->
<g id="edge14" class="edge">
<title>Node15&#45;&gt;Node4</title>
<path fill="none" stroke="#63b8ff" d="M558.53,-436.3C567.45,-434.46 576.47,-432.5 585,-430.5 621.29,-422 662.42,-410.57 690.56,-402.48"/>
<polygon fill="#63b8ff" stroke="#63b8ff" points="557.93,-432.85 548.83,-438.27 559.32,-439.71 557.93,-432.85"/>
</g>
<!-- Node16 -->
<g id="node16" class="node">
<title>Node16</title>
<g id="a_node16"><a xlink:href="classPostprocessorInterface.html" target="_top" xlink:title="Interface class for classes which interact with Postprocessors.">
<polygon fill="white" stroke="#666666" points="567,-421 418,-421 418,-402 567,-402 567,-421"/>
<text text-anchor="middle" x="492.5" y="-409" font-family="Courier,monospace" font-size="10.00">PostprocessorInterface</text>
</a>
</g>
</g>
<!-- Node16&#45;&gt;Node4 -->
<g id="edge15" class="edge">
<title>Node16&#45;&gt;Node4</title>
<path fill="none" stroke="#63b8ff" d="M578.52,-404.51C610.9,-401.84 646.73,-398.9 674.79,-396.59"/>
<polygon fill="#63b8ff" stroke="#63b8ff" points="578.41,-401 568.73,-405.31 578.99,-407.98 578.41,-401"/>
</g>
<!-- Node17 -->
<g id="node17" class="node">
<title>Node17</title>
<g id="a_node17"><a xlink:href="classVectorPostprocessorInterface.html" target="_top" xlink:title=" ">
<polygon fill="white" stroke="#666666" points="585,-384 400,-384 400,-365 585,-365 585,-384"/>
<text text-anchor="middle" x="492.5" y="-372" font-family="Courier,monospace" font-size="10.00">VectorPostprocessorInterface</text>
</a>
</g>
</g>
<!-- Node17&#45;&gt;Node4 -->
<g id="edge16" class="edge">
<title>Node17&#45;&gt;Node4</title>
<path fill="none" stroke="#63b8ff" d="M596.61,-382.53C623.74,-384.65 651.79,-386.83 674.69,-388.62"/>
<polygon fill="#63b8ff" stroke="#63b8ff" points="597.21,-379.07 586.97,-381.78 596.67,-386.05 597.21,-379.07"/>
</g>
<!-- Node18 -->
<g id="node18" class="node">
<title>Node18</title>
<g id="a_node18"><a xlink:href="classRandomInterface.html" target="_top" xlink:title="Interface for objects that need parallel consistent random numbers without patterns over the course o...">
<polygon fill="white" stroke="#666666" points="546,-347 439,-347 439,-328 546,-328 546,-347"/>
<text text-anchor="middle" x="492.5" y="-335" font-family="Courier,monospace" font-size="10.00">RandomInterface</text>
</a>
</g>
</g>
<!-- Node18&#45;&gt;Node4 -->
<g id="edge17" class="edge">
<title>Node18&#45;&gt;Node4</title>
<path fill="none" stroke="#63b8ff" d="M554.41,-349.72C564.64,-351.9 575.14,-354.2 585,-356.5 620.08,-364.66 659.83,-375.03 687.9,-382.55"/>
<polygon fill="#63b8ff" stroke="#63b8ff" points="555.44,-346.36 544.94,-347.73 554.01,-353.22 555.44,-346.36"/>
</g>
<!-- Node19 -->
<g id="node19" class="node">
<title>Node19</title>
<g id="a_node19"><a xlink:href="classRestartable.html" target="_top" xlink:title="A class for creating restricted objects.">
<polygon fill="white" stroke="#666666" points="534,-310 451,-310 451,-291 534,-291 534,-310"/>
<text text-anchor="middle" x="492.5" y="-298" font-family="Courier,monospace" font-size="10.00">Restartable</text>
</a>
</g>
</g>
<!-- Node19&#45;&gt;Node4 -->
<g id="edge18" class="edge">
<title>Node19&#45;&gt;Node4</title>
<path fill="none" stroke="#63b8ff" d="M545.5,-308.69C558.59,-311.46 572.48,-315.02 585,-319.5 632.62,-336.53 684.26,-367.07 709.25,-382.7"/>
<polygon fill="#63b8ff" stroke="#63b8ff" points="546.22,-305.27 535.73,-306.76 544.86,-312.14 546.22,-305.27"/>
</g>
<!-- Node20 -->
<g id="node20" class="node">
<title>Node20</title>
<g id="a_node20"><a xlink:href="classMeshChangedInterface.html" target="_top" xlink:title="Interface for notifications that the mesh has changed.">
<polygon fill="white" stroke="#666666" points="561,-273 424,-273 424,-254 561,-254 561,-273"/>
<text text-anchor="middle" x="492.5" y="-261" font-family="Courier,monospace" font-size="10.00">MeshChangedInterface</text>
</a>
</g>
</g>
<!-- Node20&#45;&gt;Node4 -->
<g id="edge19" class="edge">
<title>Node20&#45;&gt;Node4</title>
<path fill="none" stroke="#63b8ff" d="M570.63,-276.77C575.58,-278.46 580.41,-280.36 585,-282.5 640.91,-308.56 694.6,-361.04 715.42,-382.75"/>
<polygon fill="#63b8ff" stroke="#63b8ff" points="571.71,-273.44 561.12,-273.85 569.65,-280.13 571.71,-273.44"/>
</g>
<!-- Node21 -->
<g id="node21" class="node">
<title>Node21</title>
<g id="a_node21"><a xlink:href="classTaggingInterface.html" target="_top" xlink:title=" ">
<polygon fill="white" stroke="#666666" points="549,-236 436,-236 436,-217 549,-217 549,-236"/>
<text text-anchor="middle" x="492.5" y="-224" font-family="Courier,monospace" font-size="10.00">TaggingInterface</text>
</a>
</g>
</g>
<!-- Node21&#45;&gt;Node4 -->
<g id="edge20" class="edge">
<title>Node21&#45;&gt;Node4</title>
<path fill="none" stroke="#63b8ff" d="M560.14,-235.34C568.81,-237.91 577.33,-241.23 585,-245.5 648.93,-281.11 701.07,-355.9 718.37,-382.69"/>
<polygon fill="#63b8ff" stroke="#63b8ff" points="561.16,-231.99 550.6,-232.84 559.39,-238.76 561.16,-231.99"/>
</g>
<!-- Node22 -->
<g id="node22" class="node">
<title>Node22</title>
<g id="a_node22"><a xlink:href="classBlockRestrictable.html" target="_top" xlink:title="An interface that restricts an object to subdomains via the &#39;blocks&#39; input parameter.">
<polygon fill="white" stroke="#666666" points="1027,-287 908,-287 908,-268 1027,-268 1027,-287"/>
<text text-anchor="middle" x="967.5" y="-275" font-family="Courier,monospace" font-size="10.00">BlockRestrictable</text>
</a>
</g>
</g>
<!-- Node22&#45;&gt;Node2 -->
<g id="edge21" class="edge">
<title>Node22&#45;&gt;Node2</title>
<path fill="none" stroke="#63b8ff" d="M1038.46,-267.37C1048.8,-265.18 1059.26,-262.58 1069,-259.5 1112.37,-245.8 1159.97,-221.18 1184.95,-207.44"/>
<polygon fill="#63b8ff" stroke="#63b8ff" points="1037.92,-263.91 1028.79,-269.29 1039.28,-270.78 1037.92,-263.91"/>
</g>
<!-- Node23 -->
<g id="node23" class="node">
<title>Node23</title>
<g id="a_node23"><a xlink:href="classBoundaryRestrictable.html" target="_top" xlink:title="/class BoundaryRestrictable /brief Provides functionality for limiting the object to certain boundary...">
<polygon fill="white" stroke="#666666" points="1036,-250 899,-250 899,-231 1036,-231 1036,-250"/>
<text text-anchor="middle" x="967.5" y="-238" font-family="Courier,monospace" font-size="10.00">BoundaryRestrictable</text>
</a>
</g>
</g>
<!-- Node23&#45;&gt;Node2 -->
<g id="edge22" class="edge">
<title>Node23&#45;&gt;Node2</title>
<path fill="none" stroke="#63b8ff" d="M1033.99,-228.47C1073.82,-221.15 1123.6,-212 1158.69,-205.55"/>
<polygon fill="#63b8ff" stroke="#63b8ff" points="1033.46,-225 1024.26,-230.25 1034.73,-231.89 1033.46,-225"/>
</g>
<!-- Node24 -->
<g id="node24" class="node">
<title>Node24</title>
<g id="a_node24"><a xlink:href="classNeighborCoupleableMooseVariableDependencyIntermediateInterface.html" target="_top" xlink:title="Intermediate base class that ties together all the interfaces for getting MooseVariables with the Moo...">
<polygon fill="white" stroke="#666666" points="1069,-212.5 866,-212.5 866,-182.5 1069,-182.5 1069,-212.5"/>
<text text-anchor="start" x="874" y="-200.5" font-family="Courier,monospace" font-size="10.00">NeighborCoupleableMooseVariable</text>
<text text-anchor="middle" x="967.5" y="-189.5" font-family="Courier,monospace" font-size="10.00">DependencyIntermediateInterface</text>
</a>
</g>
</g>
<!-- Node24&#45;&gt;Node2 -->
<g id="edge23" class="edge">
<title>Node24&#45;&gt;Node2</title>
<path fill="none" stroke="#63b8ff" d="M1080.81,-197.5C1108.42,-197.5 1136.38,-197.5 1158.52,-197.5"/>
<polygon fill="#63b8ff" stroke="#63b8ff" points="1080.95,-194 1070.95,-197.5 1080.95,-201 1080.95,-194"/>
</g>
<!-- Node25 -->
<g id="node25" class="node">
<title>Node25</title>
<g id="a_node25"><a xlink:href="classNeighborCoupleable.html" target="_top" xlink:title="Enhances Coupleable interface to also couple the values from neighbor elements.">
<polygon fill="white" stroke="#666666" points="788,-244 663,-244 663,-225 788,-225 788,-244"/>
<text text-anchor="middle" x="725.5" y="-232" font-family="Courier,monospace" font-size="10.00">NeighborCoupleable</text>
</a>
</g>
</g>
<!-- Node25&#45;&gt;Node24 -->
<g id="edge24" class="edge">
<title>Node25&#45;&gt;Node24</title>
<path fill="none" stroke="#63b8ff" d="M799.42,-223.26C820.48,-220.01 843.85,-216.41 866.26,-212.95"/>
<polygon fill="#63b8ff" stroke="#63b8ff" points="799.15,-219.76 789.8,-224.74 800.22,-226.68 799.15,-219.76"/>
</g>
<!-- Node26 -->
<g id="node26" class="node">
<title>Node26</title>
<g id="a_node26"><a xlink:href="classCoupleable.html" target="_top" xlink:title="Interface for objects that needs coupling capabilities.">
<polygon fill="white" stroke="#666666" points="531,-199 454,-199 454,-180 531,-180 531,-199"/>
<text text-anchor="middle" x="492.5" y="-187" font-family="Courier,monospace" font-size="10.00">Coupleable</text>
</a>
</g>
</g>
<!-- Node26&#45;&gt;Node25 -->
<g id="edge25" class="edge">
<title>Node26&#45;&gt;Node25</title>
<path fill="none" stroke="#63b8ff" d="M542.57,-199.56C556.31,-202.41 571.24,-205.54 585,-208.5 601.02,-211.94 604.92,-213.32 621,-216.5 634.96,-219.26 650.01,-222.01 664.21,-224.5"/>
<polygon fill="#63b8ff" stroke="#63b8ff" points="543.35,-196.15 532.85,-197.55 541.93,-203 543.35,-196.15"/>
</g>
<!-- Node27 -->
<g id="node27" class="node">
<title>Node27</title>
<g id="a_node27"><a xlink:href="classScalarCoupleable.html" target="_top" xlink:title="Interface for objects that needs scalar coupling capabilities.">
<polygon fill="white" stroke="#666666" points="782,-207 669,-207 669,-188 782,-188 782,-207"/>
<text text-anchor="middle" x="725.5" y="-195" font-family="Courier,monospace" font-size="10.00">ScalarCoupleable</text>
</a>
</g>
</g>
<!-- Node27&#45;&gt;Node24 -->
<g id="edge26" class="edge">
<title>Node27&#45;&gt;Node24</title>
<path fill="none" stroke="#63b8ff" d="M793.83,-197.5C816.12,-197.5 841.44,-197.5 865.68,-197.5"/>
<polygon fill="#63b8ff" stroke="#63b8ff" points="793.98,-194 783.98,-197.5 793.98,-201 793.98,-194"/>
</g>
<!-- Node28 -->
<g id="node28" class="node">
<title>Node28</title>
<g id="a_node28"><a xlink:href="classMooseVariableDependencyInterface.html" target="_top" xlink:title=" ">
<polygon fill="white" stroke="#666666" points="830,-170 621,-170 621,-151 830,-151 830,-170"/>
<text text-anchor="middle" x="725.5" y="-158" font-family="Courier,monospace" font-size="10.00">MooseVariableDependencyInterface</text>
</a>
</g>
</g>
<!-- Node28&#45;&gt;Node24 -->
<g id="edge27" class="edge">
<title>Node28&#45;&gt;Node24</title>
<path fill="none" stroke="#63b8ff" d="M802.45,-172.21C822.65,-175.32 844.77,-178.73 866.06,-182.01"/>
<polygon fill="#63b8ff" stroke="#63b8ff" points="803.04,-168.76 792.63,-170.69 801.98,-175.68 803.04,-168.76"/>
</g>
<!-- Node29 -->
<g id="node29" class="node">
<title>Node29</title>
<g id="a_node29"><a xlink:href="classTwoMaterialPropertyInterface.html" target="_top" xlink:title="This interface is designed for DGKernel, InternalSideUserObject, InterfaceUserObject,...">
<polygon fill="white" stroke="#666666" points="1060,-164 875,-164 875,-145 1060,-145 1060,-164"/>
<text text-anchor="middle" x="967.5" y="-152" font-family="Courier,monospace" font-size="10.00">TwoMaterialPropertyInterface</text>
</a>
</g>
</g>
<!-- Node29&#45;&gt;Node2 -->
<g id="edge28" class="edge">
<title>Node29&#45;&gt;Node2</title>
<path fill="none" stroke="#63b8ff" d="M1033.99,-166.53C1073.82,-173.85 1123.6,-183 1158.69,-189.45"/>
<polygon fill="#63b8ff" stroke="#63b8ff" points="1034.73,-163.11 1024.26,-164.75 1033.46,-170 1034.73,-163.11"/>
</g>
<!-- Node30 -->
<g id="node30" class="node">
<title>Node30</title>
<g id="a_node30"><a xlink:href="classMaterialPropertyInterface.html" target="_top" xlink:title="An interface for accessing Materials.">
<polygon fill="white" stroke="#666666" points="809,-133 642,-133 642,-114 809,-114 809,-133"/>
<text text-anchor="middle" x="725.5" y="-121" font-family="Courier,monospace" font-size="10.00">MaterialPropertyInterface</text>
</a>
</g>
</g>
<!-- Node30&#45;&gt;Node29 -->
<g id="edge29" class="edge">
<title>Node30&#45;&gt;Node29</title>
<path fill="none" stroke="#63b8ff" d="M815.17,-134.95C839.53,-138.1 865.74,-141.48 889.39,-144.54"/>
<polygon fill="#63b8ff" stroke="#63b8ff" points="815.63,-131.48 805.26,-133.67 814.73,-138.43 815.63,-131.48"/>
</g>
<!-- Node31 -->
<g id="node31" class="node">
<title>Node31</title>
<g id="a_node31"><a xlink:href="classElementIDInterface.html" target="_top" xlink:title=" ">
<polygon fill="white" stroke="#666666" points="1030,-127 905,-127 905,-108 1030,-108 1030,-127"/>
<text text-anchor="middle" x="967.5" y="-115" font-family="Courier,monospace" font-size="10.00">ElementIDInterface</text>
</a>
</g>
</g>
<!-- Node31&#45;&gt;Node2 -->
<g id="edge30" class="edge">
<title>Node31&#45;&gt;Node2</title>
<path fill="none" stroke="#63b8ff" d="M1041.73,-129.19C1050.99,-131.3 1060.28,-133.73 1069,-136.5 1111.98,-150.16 1159.35,-174.09 1184.49,-187.56"/>
<polygon fill="#63b8ff" stroke="#63b8ff" points="1042.46,-125.77 1031.95,-127.1 1041,-132.62 1042.46,-125.77"/>
</g>
<!-- Node32 -->
<g id="node32" class="node">
<title>Node32</title>
<g id="a_node32"><a xlink:href="classNeighborMooseVariableInterface.html" target="_top" xlink:title=" ">
<polygon fill="white" stroke="#666666" points="1302,-132.5 1105,-132.5 1105,-102.5 1302,-102.5 1302,-132.5"/>
<text text-anchor="start" x="1113" y="-120.5" font-family="Courier,monospace" font-size="10.00">NeighborMooseVariableInterface</text>
<text text-anchor="middle" x="1203.5" y="-109.5" font-family="Courier,monospace" font-size="10.00">&lt; Real &gt;</text>
</a>
</g>
</g>
<!-- Node32&#45;&gt;Node1 -->
<g id="edge31" class="edge">
<title>Node32&#45;&gt;Node1</title>
<path fill="none" stroke="#63b8ff" d="M1313.76,-131.41C1322.25,-132.49 1330.31,-133.51 1337.54,-134.43"/>
<polygon fill="#63b8ff" stroke="#63b8ff" points="1314.25,-127.94 1303.89,-130.15 1313.37,-134.88 1314.25,-127.94"/>
</g>
<!-- Node33 -->
<g id="node33" class="node">
<title>Node33</title>
<g id="a_node33"><a xlink:href="classMooseVariableInterface.html" target="_top" xlink:title="Interface for objects that need to get values of MooseVariables.">
<polygon fill="white" stroke="#666666" points="1057,-90 878,-90 878,-71 1057,-71 1057,-90"/>
<text text-anchor="middle" x="967.5" y="-78" font-family="Courier,monospace" font-size="10.00">MooseVariableInterface&lt; T &gt;</text>
</a>
</g>
</g>
<!-- Node33&#45;&gt;Node32 -->
<g id="edge32" class="edge">
<title>Node33&#45;&gt;Node32</title>
<path fill="none" stroke="#63b8ff" d="M1042.83,-92.25C1062.44,-95.35 1083.91,-98.75 1104.57,-102.01"/>
<polygon fill="#63b8ff" stroke="#63b8ff" points="1043.43,-88.81 1033.01,-90.7 1042.34,-95.72 1043.43,-88.81"/>
</g>
<!-- Node38 -->
<g id="node38" class="node">
<title>Node38</title>
<g id="a_node38"><a xlink:href="classDerivativeMaterialInterface.html" target="_top" xlink:title=" ">
<polygon fill="white" stroke="#666666" points="1803,-175.5 1624,-175.5 1624,-145.5 1803,-145.5 1803,-175.5"/>
<text text-anchor="start" x="1632" y="-163.5" font-family="Courier,monospace" font-size="10.00">DerivativeMaterialInterface</text>
<text text-anchor="middle" x="1713.5" y="-152.5" font-family="Courier,monospace" font-size="10.00">&lt; DGFunctionConvection &gt;</text>
</a>
</g>
</g>
<!-- Node37&#45;&gt;Node38 -->
<g id="edge37" class="edge">
<title>Node37&#45;&gt;Node38</title>
<path fill="none" stroke="#63b8ff" d="M1593.78,-158.7C1603.63,-158.85 1613.75,-159 1623.73,-159.16"/>
<polygon fill="#63b8ff" stroke="#63b8ff" points="1593.93,-155.2 1583.88,-158.55 1593.82,-162.2 1593.93,-155.2"/>
</g>
<!-- Node39 -->
<g id="node39" class="node">
<title>Node39</title>
<g id="a_node39"><a xlink:href="classDGFunctionTemperatureAdvection.html" target="_top" xlink:title=" ">
<polygon fill="white" stroke="#666666" points="2036,-170 1839,-170 1839,-151 2036,-151 2036,-170"/>
<text text-anchor="middle" x="1937.5" y="-158" font-family="Courier,monospace" font-size="10.00">DGFunctionTemperatureAdvection</text>
</a>
</g>
</g>
<!-- Node38&#45;&gt;Node39 -->
<g id="edge38" class="edge">
<title>Node38&#45;&gt;Node39</title>
<path fill="none" stroke="#63b8ff" d="M1814.54,-160.5C1822.62,-160.5 1830.77,-160.5 1838.83,-160.5"/>
<polygon fill="#63b8ff" stroke="#63b8ff" points="1814.71,-157 1804.71,-160.5 1814.71,-164 1814.71,-157"/>
</g>
<!-- Node41 -->
<g id="node41" class="node">
<title>Node41</title>
<g id="a_node41"><a xlink:href="classHFEMDiffusion.html" target="_top" xlink:title=" ">
<polygon fill="white" stroke="#666666" points="1761,-127 1666,-127 1666,-108 1761,-108 1761,-127"/>
<text text-anchor="middle" x="1713.5" y="-115" font-family="Courier,monospace" font-size="10.00">HFEMDiffusion</text>
</a>
</g>
</g>
<!-- Node40&#45;&gt;Node41 -->
<g id="edge40" class="edge">
<title>Node40&#45;&gt;Node41</title>
<path fill="none" stroke="#63b8ff" d="M1575.7,-119.57C1604.68,-119.13 1638.73,-118.62 1665.62,-118.21"/>
<polygon fill="#63b8ff" stroke="#63b8ff" points="1575.92,-116.07 1565.98,-119.72 1576.03,-123.07 1575.92,-116.07"/>
</g>
</g>
</svg>
