<?xml version="1.0" encoding="UTF-8" standalone="no"?>
<!DOCTYPE svg PUBLIC "-//W3C//DTD SVG 1.1//EN"
 "http://www.w3.org/Graphics/SVG/1.1/DTD/svg11.dtd">
<!-- Generated by graphviz version 7.0.5 (20221223.1930)
 -->
<!-- Title: MortarUserObject Pages: 1 -->
<svg width="963pt" height="693pt"
 viewBox="0.00 0.00 963.00 693.00" xmlns="http://www.w3.org/2000/svg" xmlns:xlink="http://www.w3.org/1999/xlink">
<g id="graph0" class="graph" transform="scale(1 1) rotate(0) translate(4 689)">
<title>MortarUserObject</title>
<!-- Node1 -->
<g id="node1" class="node">
<title>Node1</title>
<g id="a_node1"><a xlink:title="Base class for creating new nodally&#45;based mortar user objects.">
<polygon fill="#999999" stroke="#666666" points="955,-74 842,-74 842,-55 955,-55 955,-74"/>
<text text-anchor="middle" x="898.5" y="-62" font-family="Courier,monospace" font-size="10.00">MortarUserObject</text>
</a>
</g>
</g>
<!-- Node2 -->
<g id="node2" class="node">
<title>Node2</title>
<g id="a_node2"><a xlink:href="classUserObject.html" target="_top" xlink:title="Base class for user&#45;specific data.">
<polygon fill="white" stroke="#666666" points="752,-333 675,-333 675,-314 752,-314 752,-333"/>
<text text-anchor="middle" x="713.5" y="-321" font-family="Courier,monospace" font-size="10.00">UserObject</text>
</a>
</g>
</g>
<!-- Node2&#45;&gt;Node1 -->
<g id="edge1" class="edge">
<title>Node2&#45;&gt;Node1</title>
<path fill="none" stroke="#63b8ff" d="M728.03,-304.34C764.42,-252.85 863.41,-112.75 890.54,-74.35"/>
<polygon fill="#63b8ff" stroke="#63b8ff" points="725.24,-302.24 722.32,-312.43 730.95,-306.28 725.24,-302.24"/>
</g>
<!-- Node3 -->
<g id="node3" class="node">
<title>Node3</title>
<g id="a_node3"><a xlink:href="classMooseObject.html" target="_top" xlink:title="Every object that can be built by the factory should be derived from this class.">
<polygon fill="white" stroke="#666666" points="534,-611 451,-611 451,-592 534,-592 534,-611"/>
<text text-anchor="middle" x="492.5" y="-599" font-family="Courier,monospace" font-size="10.00">MooseObject</text>
</a>
</g>
</g>
<!-- Node3&#45;&gt;Node2 -->
<g id="edge2" class="edge">
<title>Node3&#45;&gt;Node2</title>
<path fill="none" stroke="#63b8ff" d="M545.22,-599.66C559.23,-597.05 573.65,-592.21 585,-583.5 672.74,-516.16 703.84,-372.55 710.85,-333.48"/>
<polygon fill="#63b8ff" stroke="#63b8ff" points="545.01,-596.15 535.63,-601.08 546.03,-603.08 545.01,-596.15"/>
</g>
<!-- Node4 -->
<g id="node4" class="node">
<title>Node4</title>
<g id="a_node4"><a xlink:href="classMooseBase.html" target="_top" xlink:title="Base class for everything in MOOSE with a name and a type.">
<polygon fill="white" stroke="#666666" points="310,-685 239,-685 239,-666 310,-666 310,-685"/>
<text text-anchor="middle" x="274.5" y="-673" font-family="Courier,monospace" font-size="10.00">MooseBase</text>
</a>
</g>
</g>
<!-- Node4&#45;&gt;Node3 -->
<g id="edge3" class="edge">
<title>Node4&#45;&gt;Node3</title>
<path fill="none" stroke="#63b8ff" d="M321.62,-668.05C335.41,-665.31 350.46,-661.8 364,-657.5 403.87,-644.85 448.08,-623.72 472.56,-611.35"/>
<polygon fill="#63b8ff" stroke="#63b8ff" points="321.06,-664.59 311.89,-669.89 322.36,-671.47 321.06,-664.59"/>
</g>
<!-- Node5 -->
<g id="node5" class="node">
<title>Node5</title>
<g id="a_node5"><a xlink:href="classMooseBaseParameterInterface.html" target="_top" xlink:title="Every object that can be built by the factory should be derived from this class.">
<polygon fill="white" stroke="#666666" points="364,-648 185,-648 185,-629 364,-629 364,-648"/>
<text text-anchor="middle" x="274.5" y="-636" font-family="Courier,monospace" font-size="10.00">MooseBaseParameterInterface</text>
</a>
</g>
</g>
<!-- Node5&#45;&gt;Node3 -->
<g id="edge4" class="edge">
<title>Node5&#45;&gt;Node3</title>
<path fill="none" stroke="#63b8ff" d="M344.77,-626.63C379.7,-620.65 420.85,-613.6 450.68,-608.49"/>
<polygon fill="#63b8ff" stroke="#63b8ff" points="344.43,-623.14 335.16,-628.28 345.61,-630.04 344.43,-623.14"/>
</g>
<!-- Node6 -->
<g id="node6" class="node">
<title>Node6</title>
<g id="a_node6"><a xlink:href="classMooseBaseErrorInterface.html" target="_top" xlink:title="Interface that provides APIs to output errors/warnings/info messages.">
<polygon fill="white" stroke="#666666" points="352,-611 197,-611 197,-592 352,-592 352,-611"/>
<text text-anchor="middle" x="274.5" y="-599" font-family="Courier,monospace" font-size="10.00">MooseBaseErrorInterface</text>
</a>
</g>
</g>
<!-- Node6&#45;&gt;Node3 -->
<g id="edge5" class="edge">
<title>Node6&#45;&gt;Node3</title>
<path fill="none" stroke="#63b8ff" d="M363.7,-601.5C393.87,-601.5 426.17,-601.5 450.75,-601.5"/>
<polygon fill="#63b8ff" stroke="#63b8ff" points="363.78,-598 353.78,-601.5 363.78,-605 363.78,-598"/>
</g>
<!-- Node7 -->
<g id="node7" class="node">
<title>Node7</title>
<g id="a_node7"><a xlink:href="classConsoleStreamInterface.html" target="_top" xlink:title="An inteface for the _console for outputting to the Console object.">
<polygon fill="white" stroke="#666666" points="149,-611 0,-611 0,-592 149,-592 149,-611"/>
<text text-anchor="middle" x="74.5" y="-599" font-family="Courier,monospace" font-size="10.00">ConsoleStreamInterface</text>
</a>
</g>
</g>
<!-- Node7&#45;&gt;Node6 -->
<g id="edge6" class="edge">
<title>Node7&#45;&gt;Node6</title>
<path fill="none" stroke="#63b8ff" d="M160.62,-601.5C172.62,-601.5 184.9,-601.5 196.73,-601.5"/>
<polygon fill="#63b8ff" stroke="#63b8ff" points="160.74,-598 150.74,-601.5 160.74,-605 160.74,-598"/>
</g>
<!-- Node8 -->
<g id="node8" class="node">
<title>Node8</title>
<g id="a_node8"><a xlink:title=" ">
<polygon fill="white" stroke="#666666" points="352,-574 197,-574 197,-555 352,-555 352,-574"/>
<text text-anchor="middle" x="274.5" y="-562" font-family="Courier,monospace" font-size="10.00">libMesh::ParallelObject</text>
</a>
</g>
</g>
<!-- Node8&#45;&gt;Node3 -->
<g id="edge7" class="edge">
<title>Node8&#45;&gt;Node3</title>
<path fill="none" stroke="#63b8ff" d="M344.77,-576.37C379.7,-582.35 420.85,-589.4 450.68,-594.51"/>
<polygon fill="#63b8ff" stroke="#63b8ff" points="345.61,-572.96 335.16,-574.72 344.43,-579.86 345.61,-572.96"/>
</g>
<!-- Node9 -->
<g id="node9" class="node">
<title>Node9</title>
<g id="a_node9"><a xlink:href="classDataFileInterface.html" target="_top" xlink:title=" ">
<polygon fill="white" stroke="#666666" points="337,-536.5 212,-536.5 212,-506.5 337,-506.5 337,-536.5"/>
<text text-anchor="start" x="220" y="-524.5" font-family="Courier,monospace" font-size="10.00">DataFileInterface&lt;</text>
<text text-anchor="middle" x="274.5" y="-513.5" font-family="Courier,monospace" font-size="10.00"> MooseObject &gt;</text>
</a>
</g>
</g>
<!-- Node9&#45;&gt;Node3 -->
<g id="edge8" class="edge">
<title>Node9&#45;&gt;Node3</title>
<path fill="none" stroke="#63b8ff" d="M347.62,-538.35C353.32,-540.73 358.86,-543.44 364,-546.5 383.71,-558.24 379.83,-572.57 400,-583.5 415.37,-591.83 434.06,-596.34 450.53,-598.76"/>
<polygon fill="#63b8ff" stroke="#63b8ff" points="349.23,-535.22 338.64,-534.94 346.74,-541.76 349.23,-535.22"/>
</g>
<!-- Node10 -->
<g id="node10" class="node">
<title>Node10</title>
<g id="a_node10"><a xlink:href="classSetupInterface.html" target="_top" xlink:title=" ">
<polygon fill="white" stroke="#666666" points="543,-574 442,-574 442,-555 543,-555 543,-574"/>
<text text-anchor="middle" x="492.5" y="-562" font-family="Courier,monospace" font-size="10.00">SetupInterface</text>
</a>
</g>
</g>
<!-- Node10&#45;&gt;Node2 -->
<g id="edge9" class="edge">
<title>Node10&#45;&gt;Node2</title>
<path fill="none" stroke="#63b8ff" d="M554.12,-560.15C565.1,-557.33 575.93,-553.02 585,-546.5 663.97,-489.79 700.9,-367.95 710.13,-333.03"/>
<polygon fill="#63b8ff" stroke="#63b8ff" points="553.67,-556.67 544.63,-562.18 555.14,-563.51 553.67,-556.67"/>
</g>
<!-- Node11 -->
<g id="node11" class="node">
<title>Node11</title>
<g id="a_node11"><a xlink:href="classFunctionInterface.html" target="_top" xlink:title="Interface for objects that need to use functions.">
<polygon fill="white" stroke="#666666" points="552,-537 433,-537 433,-518 552,-518 552,-537"/>
<text text-anchor="middle" x="492.5" y="-525" font-family="Courier,monospace" font-size="10.00">FunctionInterface</text>
</a>
</g>
</g>
<!-- Node11&#45;&gt;Node2 -->
<g id="edge10" class="edge">
<title>Node11&#45;&gt;Node2</title>
<path fill="none" stroke="darkgreen" d="M563.26,-519.77C570.95,-517.2 578.38,-513.86 585,-509.5 654.99,-463.44 697.06,-364.41 708.98,-333.16"/>
<polygon fill="darkgreen" stroke="darkgreen" points="562.38,-516.38 553.72,-522.49 564.3,-523.11 562.38,-516.38"/>
</g>
<!-- Node12 -->
<g id="node12" class="node">
<title>Node12</title>
<g id="a_node12"><a xlink:href="classUserObjectInterface.html" target="_top" xlink:title="Interface for objects that need to use UserObjects.">
<polygon fill="white" stroke="#666666" points="558,-500 427,-500 427,-481 558,-481 558,-500"/>
<text text-anchor="middle" x="492.5" y="-488" font-family="Courier,monospace" font-size="10.00">UserObjectInterface</text>
</a>
</g>
</g>
<!-- Node12&#45;&gt;Node2 -->
<g id="edge11" class="edge">
<title>Node12&#45;&gt;Node2</title>
<path fill="none" stroke="#63b8ff" d="M569.24,-479.87C574.74,-477.82 580.06,-475.39 585,-472.5 646.15,-436.78 692.1,-360.74 707.18,-333.48"/>
<polygon fill="#63b8ff" stroke="#63b8ff" points="568.36,-476.47 559.93,-482.89 570.52,-483.13 568.36,-476.47"/>
</g>
<!-- Node13 -->
<g id="node13" class="node">
<title>Node13</title>
<g id="a_node13"><a xlink:href="classPostprocessorInterface.html" target="_top" xlink:title="Interface class for classes which interact with Postprocessors.">
<polygon fill="white" stroke="#666666" points="567,-463 418,-463 418,-444 567,-444 567,-463"/>
<text text-anchor="middle" x="492.5" y="-451" font-family="Courier,monospace" font-size="10.00">PostprocessorInterface</text>
</a>
</g>
</g>
<!-- Node13&#45;&gt;Node2 -->
<g id="edge12" class="edge">
<title>Node13&#45;&gt;Node2</title>
<path fill="none" stroke="darkgreen" d="M574.85,-439.91C578.33,-438.57 581.73,-437.11 585,-435.5 637.87,-409.47 685.95,-355.75 704.46,-333.5"/>
<polygon fill="darkgreen" stroke="darkgreen" points="573.97,-436.51 565.62,-443.04 576.22,-443.14 573.97,-436.51"/>
</g>
<!-- Node14 -->
<g id="node14" class="node">
<title>Node14</title>
<g id="a_node14"><a xlink:href="classVectorPostprocessorInterface.html" target="_top" xlink:title=" ">
<polygon fill="white" stroke="#666666" points="585,-426 400,-426 400,-407 585,-407 585,-426"/>
<text text-anchor="middle" x="492.5" y="-414" font-family="Courier,monospace" font-size="10.00">VectorPostprocessorInterface</text>
</a>
</g>
</g>
<!-- Node14&#45;&gt;Node2 -->
<g id="edge13" class="edge">
<title>Node14&#45;&gt;Node2</title>
<path fill="none" stroke="darkgreen" d="M569.34,-403.67C574.7,-402.13 579.97,-400.41 585,-398.5 629.65,-381.54 676.73,-349.63 699.13,-333.45"/>
<polygon fill="darkgreen" stroke="darkgreen" points="568.5,-400.28 559.72,-406.21 570.29,-407.04 568.5,-400.28"/>
</g>
<!-- Node15 -->
<g id="node15" class="node">
<title>Node15</title>
<g id="a_node15"><a xlink:href="classReporterInterface.html" target="_top" xlink:title="Interface to allow object to consume Reporter values.">
<polygon fill="white" stroke="#666666" points="552,-389 433,-389 433,-370 552,-370 552,-389"/>
<text text-anchor="middle" x="492.5" y="-377" font-family="Courier,monospace" font-size="10.00">ReporterInterface</text>
</a>
</g>
</g>
<!-- Node15&#45;&gt;Node2 -->
<g id="edge14" class="edge">
<title>Node15&#45;&gt;Node2</title>
<path fill="none" stroke="darkgreen" d="M559.56,-367.28C568.15,-365.47 576.8,-363.52 585,-361.5 618.53,-353.23 656.38,-341.66 682.07,-333.46"/>
<polygon fill="darkgreen" stroke="darkgreen" points="558.93,-363.84 549.84,-369.29 560.34,-370.7 558.93,-363.84"/>
</g>
<!-- Node16 -->
<g id="node16" class="node">
<title>Node16</title>
<g id="a_node16"><a xlink:href="classDistributionInterface.html" target="_top" xlink:title="Interface for objects that need to use distributions.">
<polygon fill="white" stroke="#666666" points="564,-352 421,-352 421,-333 564,-333 564,-352"/>
<text text-anchor="middle" x="492.5" y="-340" font-family="Courier,monospace" font-size="10.00">DistributionInterface</text>
</a>
</g>
</g>
<!-- Node16&#45;&gt;Node2 -->
<g id="edge15" class="edge">
<title>Node16&#45;&gt;Node2</title>
<path fill="none" stroke="darkgreen" d="M575.68,-335.37C609.72,-332.42 647.53,-329.14 674.76,-326.77"/>
<polygon fill="darkgreen" stroke="darkgreen" points="575.47,-331.88 565.81,-336.23 576.07,-338.85 575.47,-331.88"/>
</g>
<!-- Node17 -->
<g id="node17" class="node">
<title>Node17</title>
<g id="a_node17"><a xlink:href="classSamplerInterface.html" target="_top" xlink:title="Interface for objects that need to use samplers.">
<polygon fill="white" stroke="#666666" points="549,-315 436,-315 436,-296 549,-296 549,-315"/>
<text text-anchor="middle" x="492.5" y="-303" font-family="Courier,monospace" font-size="10.00">SamplerInterface</text>
</a>
</g>
</g>
<!-- Node17&#45;&gt;Node2 -->
<g id="edge16" class="edge">
<title>Node17&#45;&gt;Node2</title>
<path fill="none" stroke="darkgreen" d="M560.68,-311.02C598.13,-314.1 643.38,-317.82 674.69,-320.39"/>
<polygon fill="darkgreen" stroke="darkgreen" points="561.09,-307.54 550.84,-310.21 560.52,-314.52 561.09,-307.54"/>
</g>
<!-- Node18 -->
<g id="node18" class="node">
<title>Node18</title>
<g id="a_node18"><a xlink:href="classRestartable.html" target="_top" xlink:title="A class for creating restricted objects.">
<polygon fill="white" stroke="#666666" points="534,-278 451,-278 451,-259 534,-259 534,-278"/>
<text text-anchor="middle" x="492.5" y="-266" font-family="Courier,monospace" font-size="10.00">Restartable</text>
</a>
</g>
</g>
<!-- Node18&#45;&gt;Node2 -->
<g id="edge17" class="edge">
<title>Node18&#45;&gt;Node2</title>
<path fill="none" stroke="darkgreen" d="M545.32,-278.6C558.32,-281.31 572.2,-284.37 585,-287.5 617.4,-295.43 654,-305.92 679.65,-313.54"/>
<polygon fill="darkgreen" stroke="darkgreen" points="546.16,-275.2 535.66,-276.61 544.75,-282.05 546.16,-275.2"/>
</g>
<!-- Node19 -->
<g id="node19" class="node">
<title>Node19</title>
<g id="a_node19"><a xlink:href="classMeshMetaDataInterface.html" target="_top" xlink:title="The Interface used to retrieve mesh meta data (attributes) set by the MeshGenerator system.">
<polygon fill="white" stroke="#666666" points="564,-241 421,-241 421,-222 564,-222 564,-241"/>
<text text-anchor="middle" x="492.5" y="-229" font-family="Courier,monospace" font-size="10.00">MeshMetaDataInterface</text>
</a>
</g>
</g>
<!-- Node19&#45;&gt;Node2 -->
<g id="edge18" class="edge">
<title>Node19&#45;&gt;Node2</title>
<path fill="none" stroke="darkgreen" d="M565.86,-244.29C572.41,-246.12 578.88,-248.18 585,-250.5 629.12,-267.23 676.06,-297.9 698.7,-313.63"/>
<polygon fill="darkgreen" stroke="darkgreen" points="566.83,-240.93 556.27,-241.81 565.08,-247.7 566.83,-240.93"/>
</g>
<!-- Node20 -->
<g id="node20" class="node">
<title>Node20</title>
<g id="a_node20"><a xlink:href="classMeshChangedInterface.html" target="_top" xlink:title="Interface for notifications that the mesh has changed.">
<polygon fill="white" stroke="#666666" points="561,-204 424,-204 424,-185 561,-185 561,-204"/>
<text text-anchor="middle" x="492.5" y="-192" font-family="Courier,monospace" font-size="10.00">MeshChangedInterface</text>
</a>
</g>
</g>
<!-- Node20&#45;&gt;Node2 -->
<g id="edge19" class="edge">
<title>Node20&#45;&gt;Node2</title>
<path fill="none" stroke="darkgreen" d="M571.94,-207.97C576.44,-209.6 580.83,-211.44 585,-213.5 637.44,-239.37 685.76,-291.96 704.39,-313.73"/>
<polygon fill="darkgreen" stroke="darkgreen" points="573.31,-204.73 562.72,-204.96 571.14,-211.39 573.31,-204.73"/>
</g>
<!-- Node21 -->
<g id="node21" class="node">
<title>Node21</title>
<g id="a_node21"><a xlink:href="classScalarCoupleable.html" target="_top" xlink:title="Interface for objects that needs scalar coupling capabilities.">
<polygon fill="white" stroke="#666666" points="549,-167 436,-167 436,-148 549,-148 549,-167"/>
<text text-anchor="middle" x="492.5" y="-155" font-family="Courier,monospace" font-size="10.00">ScalarCoupleable</text>
</a>
</g>
</g>
<!-- Node21&#45;&gt;Node2 -->
<g id="edge20" class="edge">
<title>Node21&#45;&gt;Node2</title>
<path fill="none" stroke="darkgreen" d="M560.32,-166.02C568.96,-168.64 577.42,-172.06 585,-176.5 645.61,-212.06 691.9,-286.88 707.13,-313.68"/>
<polygon fill="darkgreen" stroke="darkgreen" points="561.37,-162.68 550.8,-163.49 559.57,-169.44 561.37,-162.68"/>
</g>
<!-- Node22 -->
<g id="node22" class="node">
<title>Node22</title>
<g id="a_node22"><a xlink:href="classPerfGraphInterface.html" target="_top" xlink:title="Interface for objects interacting with the PerfGraph.">
<polygon fill="white" stroke="#666666" points="555,-130 430,-130 430,-111 555,-111 555,-130"/>
<text text-anchor="middle" x="492.5" y="-118" font-family="Courier,monospace" font-size="10.00">PerfGraphInterface</text>
</a>
</g>
</g>
<!-- Node22&#45;&gt;Node2 -->
<g id="edge21" class="edge">
<title>Node22&#45;&gt;Node2</title>
<path fill="none" stroke="darkgreen" d="M565.9,-130.02C572.64,-132.51 579.14,-135.62 585,-139.5 654.03,-185.2 696.45,-282.23 708.76,-313.54"/>
<polygon fill="darkgreen" stroke="darkgreen" points="567.17,-126.75 556.58,-127.05 565.04,-133.42 567.17,-126.75"/>
</g>
<!-- Node23 -->
<g id="node23" class="node">
<title>Node23</title>
<g id="a_node23"><a xlink:href="classDependencyResolverInterface.html" target="_top" xlink:title="Interface for sorting dependent vectors of objects.">
<polygon fill="white" stroke="#666666" points="582,-93 403,-93 403,-74 582,-74 582,-93"/>
<text text-anchor="middle" x="492.5" y="-81" font-family="Courier,monospace" font-size="10.00">DependencyResolverInterface</text>
</a>
</g>
</g>
<!-- Node23&#45;&gt;Node2 -->
<g id="edge22" class="edge">
<title>Node23&#45;&gt;Node2</title>
<path fill="none" stroke="#63b8ff" d="M578.49,-98.31C580.74,-99.6 582.92,-100.99 585,-102.5 662.89,-158.83 700.34,-278.46 709.95,-313.6"/>
<polygon fill="#63b8ff" stroke="#63b8ff" points="580.11,-95.21 569.59,-93.98 577.05,-101.5 580.11,-95.21"/>
</g>
<!-- Node24 -->
<g id="node24" class="node">
<title>Node24</title>
<g id="a_node24"><a xlink:href="classMortarConsumerInterface.html" target="_top" xlink:title="An interface for accessing mortar mesh data.">
<polygon fill="white" stroke="#666666" points="791,-93 636,-93 636,-74 791,-74 791,-93"/>
<text text-anchor="middle" x="713.5" y="-81" font-family="Courier,monospace" font-size="10.00">MortarConsumerInterface</text>
</a>
</g>
</g>
<!-- Node24&#45;&gt;Node1 -->
<g id="edge23" class="edge">
<title>Node24&#45;&gt;Node1</title>
<path fill="none" stroke="#63b8ff" d="M802.49,-74.36C815.86,-72.98 829.32,-71.58 841.75,-70.29"/>
<polygon fill="#63b8ff" stroke="#63b8ff" points="802.4,-70.85 792.82,-75.37 803.13,-77.82 802.4,-70.85"/>
</g>
<!-- Node25 -->
<g id="node25" class="node">
<title>Node25</title>
<g id="a_node25"><a xlink:href="classTwoMaterialPropertyInterface.html" target="_top" xlink:title="This interface is designed for DGKernel, InternalSideUserObject, InterfaceUserObject,...">
<polygon fill="white" stroke="#666666" points="806,-56 621,-56 621,-37 806,-37 806,-56"/>
<text text-anchor="middle" x="713.5" y="-44" font-family="Courier,monospace" font-size="10.00">TwoMaterialPropertyInterface</text>
</a>
</g>
</g>
<!-- Node25&#45;&gt;Node1 -->
<g id="edge24" class="edge">
<title>Node25&#45;&gt;Node1</title>
<path fill="none" stroke="#63b8ff" d="M817.61,-56.64C825.89,-57.46 834.04,-58.26 841.78,-59.02"/>
<polygon fill="#63b8ff" stroke="#63b8ff" points="818.07,-53.17 807.77,-55.67 817.38,-60.14 818.07,-53.17"/>
</g>
<!-- Node26 -->
<g id="node26" class="node">
<title>Node26</title>
<g id="a_node26"><a xlink:href="classMaterialPropertyInterface.html" target="_top" xlink:title="An interface for accessing Materials.">
<polygon fill="white" stroke="#666666" points="576,-56 409,-56 409,-37 576,-37 576,-56"/>
<text text-anchor="middle" x="492.5" y="-44" font-family="Courier,monospace" font-size="10.00">MaterialPropertyInterface</text>
</a>
</g>
</g>
<!-- Node26&#45;&gt;Node25 -->
<g id="edge25" class="edge">
<title>Node26&#45;&gt;Node25</title>
<path fill="none" stroke="#63b8ff" d="M587.65,-46.5C598.64,-46.5 609.84,-46.5 620.79,-46.5"/>
<polygon fill="#63b8ff" stroke="#63b8ff" points="587.81,-43 577.81,-46.5 587.81,-50 587.81,-43"/>
</g>
<!-- Node27 -->
<g id="node27" class="node">
<title>Node27</title>
<g id="a_node27"><a xlink:href="classNeighborCoupleable.html" target="_top" xlink:title="Enhances Coupleable interface to also couple the values from neighbor elements.">
<polygon fill="white" stroke="#666666" points="776,-19 651,-19 651,0 776,0 776,-19"/>
<text text-anchor="middle" x="713.5" y="-7" font-family="Courier,monospace" font-size="10.00">NeighborCoupleable</text>
</a>
</g>
</g>
<!-- Node27&#45;&gt;Node1 -->
<g id="edge26" class="edge">
<title>Node27&#45;&gt;Node1</title>
<path fill="none" stroke="#63b8ff" d="M785.11,-21.99C792.21,-23.66 799.28,-25.5 806,-27.5 830.8,-34.88 858.18,-46.43 876.46,-54.66"/>
<polygon fill="#63b8ff" stroke="#63b8ff" points="785.97,-18.59 775.44,-19.82 784.44,-25.42 785.97,-18.59"/>
</g>
<!-- Node28 -->
<g id="node28" class="node">
<title>Node28</title>
<g id="a_node28"><a xlink:href="classCoupleable.html" target="_top" xlink:title="Interface for objects that needs coupling capabilities.">
<polygon fill="white" stroke="#666666" points="531,-19 454,-19 454,0 531,0 531,-19"/>
<text text-anchor="middle" x="492.5" y="-7" font-family="Courier,monospace" font-size="10.00">Coupleable</text>
</a>
</g>
</g>
<!-- Node28&#45;&gt;Node27 -->
<g id="edge27" class="edge">
<title>Node28&#45;&gt;Node27</title>
<path fill="none" stroke="#63b8ff" d="M542.42,-9.5C574.34,-9.5 616.28,-9.5 650.53,-9.5"/>
<polygon fill="#63b8ff" stroke="#63b8ff" points="542.66,-6 532.66,-9.5 542.66,-13 542.66,-6"/>
</g>
</g>
</svg>
