<?xml version="1.0" encoding="UTF-8" standalone="no"?>
<!DOCTYPE svg PUBLIC "-//W3C//DTD SVG 1.1//EN"
 "http://www.w3.org/Graphics/SVG/1.1/DTD/svg11.dtd">
<!-- Generated by graphviz version 7.0.5 (20221223.1930)
 -->
<!-- Title: VectorPostprocessor Pages: 1 -->
<!--zoomable 1107 -->
<svg id="main" version="1.1" xmlns="http://www.w3.org/2000/svg" xmlns:xlink="http://www.w3.org/1999/xlink" xml:space="preserve" onload="init(evt)">
<style type="text/css"><![CDATA[
.edge:hover path { stroke: red; }
.edge:hover polygon { stroke: red; fill: red; }
]]></style>
<script type="text/javascript"><![CDATA[
var edges = document.getElementsByTagName('g');
if (edges && edges.length) {
  for (var i=0;i<edges.length;i++) {
    if (edges[i].id.substr(0,4)=='edge') {
      edges[i].setAttribute('class','edge');
    }
  }
}
]]></script>
        <defs>
                <circle id="rim" cx="0" cy="0" r="7"/>
                <circle id="rim2" cx="0" cy="0" r="3.5"/>
                <g id="zoomPlus">
                        <use xlink:href="#rim" fill="#404040">
                                <set attributeName="fill" to="#808080" begin="zoomplus.mouseover" end="zoomplus.mouseout"/>
                        </use>
                        <path d="M-4,0h8M0,-4v8" fill="none" stroke="white" stroke-width="1.5" pointer-events="none"/>
                </g>
                <g id="zoomMin">
                        <use xlink:href="#rim" fill="#404040">
                                <set attributeName="fill" to="#808080" begin="zoomminus.mouseover" end="zoomminus.mouseout"/>
                        </use>
                        <path d="M-4,0h8" fill="none" stroke="white" stroke-width="1.5" pointer-events="none"/>
                </g>
                <g id="dirArrow">
                        <path fill="none" stroke="white" stroke-width="1.5" d="M0,-3.0v7 M-2.5,-0.5L0,-3.0L2.5,-0.5"/>
                </g>
               <g id="resetDef">
                       <use xlink:href="#rim2" fill="#404040">
                               <set attributeName="fill" to="#808080" begin="reset.mouseover" end="reset.mouseout"/>
                       </use>
               </g>
        </defs>

<script type="text/javascript">
var viewWidth = 1286;
var viewHeight = 1107;
var sectionId = 'dynsection-0';
</script>
<script xlink:href="svgpan.js"/>
<svg id="graph" class="graph">
<g id="viewport">
<title>VectorPostprocessor</title>
<!-- Node1 -->
<g id="node1" class="node">
<title>Node1</title>
<g id="a_node1"><a xlink:title="Base class for Postprocessors that produce a vector of values.">
<polygon fill="#999999" stroke="#666666" points="274,-314 143,-314 143,-295 274,-295 274,-314"/>
<text text-anchor="middle" x="208.5" y="-302" font-family="Courier,monospace" font-size="10.00">VectorPostprocessor</text>
</a>
</g>
</g>
<!-- Node3 -->
<g id="node3" class="node">
<title>Node3</title>
<g id="a_node3"><a xlink:href="classElementVectorPostprocessor.html" target="_top" xlink:title=" ">
<polygon fill="white" stroke="#666666" points="498,-888 325,-888 325,-869 498,-869 498,-888"/>
<text text-anchor="middle" x="411.5" y="-876" font-family="Courier,monospace" font-size="10.00">ElementVectorPostprocessor</text>
</a>
</g>
</g>
<!-- Node1&#45;&gt;Node3 -->
<g id="edge2" class="edge">
<title>Node1&#45;&gt;Node3</title>
<path fill="none" stroke="#63b8ff" d="M216.79,-325.32C249.71,-419.32 383.87,-802.44 407.07,-868.71"/>
<polygon fill="#63b8ff" stroke="#63b8ff" points="220.1,-324.17 213.49,-315.89 213.49,-326.49 220.1,-324.17"/>
</g>
<!-- Node18 -->
<g id="node18" class="node">
<title>Node18</title>
<g id="a_node18"><a xlink:href="classGeneralVectorPostprocessor.html" target="_top" xlink:title="This class is here to combine the VectorPostprocessor interface and the base class VectorPostprocesso...">
<polygon fill="white" stroke="#666666" points="498,-426 325,-426 325,-407 498,-407 498,-426"/>
<text text-anchor="middle" x="411.5" y="-414" font-family="Courier,monospace" font-size="10.00">GeneralVectorPostprocessor</text>
</a>
</g>
</g>
<!-- Node1&#45;&gt;Node18 -->
<g id="edge17" class="edge">
<title>Node1&#45;&gt;Node18</title>
<path fill="none" stroke="#63b8ff" d="M237.16,-319.91C279.09,-343.28 357.57,-387.01 392.7,-406.58"/>
<polygon fill="#63b8ff" stroke="#63b8ff" points="239.1,-316.99 228.66,-315.18 235.69,-323.1 239.1,-316.99"/>
</g>
<!-- Node42 -->
<g id="node42" class="node">
<title>Node42</title>
<g id="a_node42"><a xlink:href="classInterfaceVectorPostprocessor.html" target="_top" xlink:title=" ">
<polygon fill="white" stroke="#666666" points="504,-333 319,-333 319,-314 504,-314 504,-333"/>
<text text-anchor="middle" x="411.5" y="-321" font-family="Courier,monospace" font-size="10.00">InterfaceVectorPostprocessor</text>
</a>
</g>
</g>
<!-- Node1&#45;&gt;Node42 -->
<g id="edge41" class="edge">
<title>Node1&#45;&gt;Node42</title>
<path fill="none" stroke="#63b8ff" d="M285.93,-311.72C296.64,-312.74 307.73,-313.79 318.69,-314.82"/>
<polygon fill="#63b8ff" stroke="#63b8ff" points="286.27,-308.24 275.99,-310.78 285.61,-315.21 286.27,-308.24"/>
</g>
<!-- Node43 -->
<g id="node43" class="node">
<title>Node43</title>
<g id="a_node43"><a xlink:href="classInternalSideVectorPostprocessor.html" target="_top" xlink:title=" ">
<polygon fill="white" stroke="#666666" points="513,-296 310,-296 310,-277 513,-277 513,-296"/>
<text text-anchor="middle" x="411.5" y="-284" font-family="Courier,monospace" font-size="10.00">InternalSideVectorPostprocessor</text>
</a>
</g>
</g>
<!-- Node1&#45;&gt;Node43 -->
<g id="edge42" class="edge">
<title>Node1&#45;&gt;Node43</title>
<path fill="none" stroke="#63b8ff" d="M285.74,-297.67C293.55,-296.97 301.56,-296.26 309.57,-295.54"/>
<polygon fill="#63b8ff" stroke="#63b8ff" points="285.64,-294.17 275.99,-298.55 286.26,-301.14 285.64,-294.17"/>
</g>
<!-- Node44 -->
<g id="node44" class="node">
<title>Node44</title>
<g id="a_node44"><a xlink:href="classNodalVectorPostprocessor.html" target="_top" xlink:title=" ">
<polygon fill="white" stroke="#666666" points="492,-148 331,-148 331,-129 492,-129 492,-148"/>
<text text-anchor="middle" x="411.5" y="-136" font-family="Courier,monospace" font-size="10.00">NodalVectorPostprocessor</text>
</a>
</g>
</g>
<!-- Node1&#45;&gt;Node44 -->
<g id="edge43" class="edge">
<title>Node1&#45;&gt;Node44</title>
<path fill="none" stroke="#63b8ff" d="M230.27,-287.35C272.13,-252.77 365.5,-175.66 398.59,-148.34"/>
<polygon fill="#63b8ff" stroke="#63b8ff" points="228.12,-284.58 222.64,-293.65 232.58,-289.98 228.12,-284.58"/>
</g>
<!-- Node47 -->
<g id="node47" class="node">
<title>Node47</title>
<g id="a_node47"><a xlink:href="classSideVectorPostprocessor.html" target="_top" xlink:title=" ">
<polygon fill="white" stroke="#666666" points="489,-56 334,-56 334,-37 489,-37 489,-56"/>
<text text-anchor="middle" x="411.5" y="-44" font-family="Courier,monospace" font-size="10.00">SideVectorPostprocessor</text>
</a>
</g>
</g>
<!-- Node1&#45;&gt;Node47 -->
<g id="edge46" class="edge">
<title>Node1&#45;&gt;Node47</title>
<path fill="none" stroke="#63b8ff" d="M217.06,-284.12C231.18,-247.98 264.3,-171.59 310,-119.5 334.18,-91.94 370.56,-68.79 392.28,-56.35"/>
<polygon fill="#63b8ff" stroke="#63b8ff" points="213.84,-282.73 213.55,-293.32 220.38,-285.22 213.84,-282.73"/>
</g>
<!-- Node2 -->
<g id="node2" class="node">
<title>Node2</title>
<g id="a_node2"><a xlink:href="classOutputInterface.html" target="_top" xlink:title="A class to provide an common interface to objects requiring &quot;outputs&quot; option.">
<polygon fill="white" stroke="#666666" points="107,-314 0,-314 0,-295 107,-295 107,-314"/>
<text text-anchor="middle" x="53.5" y="-302" font-family="Courier,monospace" font-size="10.00">OutputInterface</text>
</a>
</g>
</g>
<!-- Node2&#45;&gt;Node1 -->
<g id="edge1" class="edge">
<title>Node2&#45;&gt;Node1</title>
<path fill="none" stroke="#63b8ff" d="M118.6,-304.5C126.53,-304.5 134.64,-304.5 142.58,-304.5"/>
<polygon fill="#63b8ff" stroke="#63b8ff" points="118.67,-301 108.67,-304.5 118.67,-308 118.67,-301"/>
</g>
<!-- Node4 -->
<g id="node4" class="node">
<title>Node4</title>
<g id="a_node4"><a xlink:href="classElementVariableVectorPostprocessor.html" target="_top" xlink:title="Base class VectorPostprocessors operating on elemental variables.">
<polygon fill="white" stroke="#666666" points="776,-1005 555,-1005 555,-986 776,-986 776,-1005"/>
<text text-anchor="middle" x="665.5" y="-993" font-family="Courier,monospace" font-size="10.00">ElementVariableVectorPostprocessor</text>
</a>
</g>
</g>
<!-- Node3&#45;&gt;Node4 -->
<g id="edge3" class="edge">
<title>Node3&#45;&gt;Node4</title>
<path fill="none" stroke="#63b8ff" d="M430.76,-896.22C455.41,-919.02 501.72,-958.01 549,-977.5 556.79,-980.71 565.08,-983.35 573.52,-985.53"/>
<polygon fill="#63b8ff" stroke="#63b8ff" points="433.19,-893.7 423.51,-889.39 428.39,-898.8 433.19,-893.7"/>
</g>
<!-- Node11 -->
<g id="node11" class="node">
<title>Node11</title>
<g id="a_node11"><a xlink:href="classElementVariablesDifferenceMax.html" target="_top" xlink:title="Finds the largest difference between two variable fields.">
<polygon fill="white" stroke="#666666" points="761,-968 570,-968 570,-949 761,-949 761,-968"/>
<text text-anchor="middle" x="665.5" y="-956" font-family="Courier,monospace" font-size="10.00">ElementVariablesDifferenceMax</text>
</a>
</g>
</g>
<!-- Node3&#45;&gt;Node11 -->
<g id="edge10" class="edge">
<title>Node3&#45;&gt;Node11</title>
<path fill="none" stroke="#63b8ff" d="M439.86,-893.62C466.83,-907.86 509.59,-928.72 549,-940.5 559.69,-943.7 571.12,-946.35 582.48,-948.55"/>
<polygon fill="#63b8ff" stroke="#63b8ff" points="441.8,-890.69 431.34,-889.05 438.5,-896.86 441.8,-890.69"/>
</g>
<!-- Node12 -->
<g id="node12" class="node">
<title>Node12</title>
<g id="a_node12"><a xlink:href="classMaterialVectorPostprocessor.html" target="_top" xlink:title="This postprocessor records all scalar material properties of the specified material object on specifi...">
<polygon fill="white" stroke="#666666" points="755,-931 576,-931 576,-912 755,-912 755,-931"/>
<text text-anchor="middle" x="665.5" y="-919" font-family="Courier,monospace" font-size="10.00">MaterialVectorPostprocessor</text>
</a>
</g>
</g>
<!-- Node3&#45;&gt;Node12 -->
<g id="edge11" class="edge">
<title>Node3&#45;&gt;Node12</title>
<path fill="none" stroke="#63b8ff" d="M479.56,-890.44C501.66,-894.34 526.38,-898.65 549,-902.5 566.53,-905.48 585.57,-908.65 603.04,-911.52"/>
<polygon fill="#63b8ff" stroke="#63b8ff" points="480.21,-887 469.75,-888.71 478.99,-893.9 480.21,-887"/>
</g>
<!-- Node13 -->
<g id="node13" class="node">
<title>Node13</title>
<g id="a_node13"><a xlink:href="classMeshDivisionFunctorReductionVectorPostprocessor.html" target="_top" xlink:title="This MeshDivisionFunctorReductionVectorPostprocessor serves to integrate functors based on the index ...">
<polygon fill="white" stroke="#666666" points="758,-893.5 573,-893.5 573,-863.5 758,-863.5 758,-893.5"/>
<text text-anchor="start" x="581" y="-881.5" font-family="Courier,monospace" font-size="10.00">MeshDivisionFunctorReduction</text>
<text text-anchor="middle" x="665.5" y="-870.5" font-family="Courier,monospace" font-size="10.00">VectorPostprocessor</text>
</a>
</g>
</g>
<!-- Node3&#45;&gt;Node13 -->
<g id="edge12" class="edge">
<title>Node3&#45;&gt;Node13</title>
<path fill="none" stroke="#63b8ff" d="M509.55,-878.5C530.27,-878.5 552.09,-878.5 572.6,-878.5"/>
<polygon fill="#63b8ff" stroke="#63b8ff" points="509.68,-875 499.68,-878.5 509.68,-882 509.68,-875"/>
</g>
<!-- Node14 -->
<g id="node14" class="node">
<title>Node14</title>
<g id="a_node14"><a xlink:href="classSpatialAverageBase.html" target="_top" xlink:title="Base clase for computing spatial average of a variable over simple spatial regions of the computation...">
<polygon fill="white" stroke="#666666" points="728,-845 603,-845 603,-826 728,-826 728,-845"/>
<text text-anchor="middle" x="665.5" y="-833" font-family="Courier,monospace" font-size="10.00">SpatialAverageBase</text>
</a>
</g>
</g>
<!-- Node3&#45;&gt;Node14 -->
<g id="edge13" class="edge">
<title>Node3&#45;&gt;Node14</title>
<path fill="none" stroke="#63b8ff" d="M479.56,-866.56C501.66,-862.66 526.38,-858.35 549,-854.5 566.53,-851.52 585.57,-848.35 603.04,-845.48"/>
<polygon fill="#63b8ff" stroke="#63b8ff" points="478.99,-863.1 469.75,-868.29 480.21,-870 478.99,-863.1"/>
</g>
<!-- Node17 -->
<g id="node17" class="node">
<title>Node17</title>
<g id="a_node17"><a xlink:href="classVariableValueVolumeHistogram.html" target="_top" xlink:title="Compute a histogram of volume fractions binned according to variable values.">
<polygon fill="white" stroke="#666666" points="758,-808 573,-808 573,-789 758,-789 758,-808"/>
<text text-anchor="middle" x="665.5" y="-796" font-family="Courier,monospace" font-size="10.00">VariableValueVolumeHistogram</text>
</a>
</g>
</g>
<!-- Node3&#45;&gt;Node17 -->
<g id="edge16" class="edge">
<title>Node3&#45;&gt;Node17</title>
<path fill="none" stroke="#63b8ff" d="M440.37,-863.48C467.4,-849.54 509.93,-829.23 549,-817.5 561.07,-813.88 574.06,-810.89 586.83,-808.46"/>
<polygon fill="#63b8ff" stroke="#63b8ff" points="439.05,-860.22 431.81,-867.96 442.29,-866.43 439.05,-860.22"/>
</g>
<!-- Node5 -->
<g id="node5" class="node">
<title>Node5</title>
<g id="a_node5"><a xlink:href="classNearestPointBase.html" target="_top" xlink:title=" ">
<polygon fill="white" stroke="#666666" points="1051,-1099 824,-1099 824,-1058 1051,-1058 1051,-1099"/>
<text text-anchor="start" x="832" y="-1087" font-family="Courier,monospace" font-size="10.00">NearestPointBase&lt; Element</text>
<text text-anchor="start" x="832" y="-1076" font-family="Courier,monospace" font-size="10.00">AverageValue, ElementVariableVector</text>
<text text-anchor="middle" x="937.5" y="-1065" font-family="Courier,monospace" font-size="10.00">Postprocessor &gt;</text>
</a>
</g>
</g>
<!-- Node4&#45;&gt;Node5 -->
<g id="edge4" class="edge">
<title>Node4&#45;&gt;Node5</title>
<path fill="none" stroke="#63b8ff" d="M702.51,-1009.51C732.99,-1021.08 777.98,-1037.5 818,-1049.5 827.23,-1052.27 836.92,-1054.97 846.62,-1057.53"/>
<polygon fill="#63b8ff" stroke="#63b8ff" points="703.97,-1006.32 693.38,-1006.02 701.47,-1012.86 703.97,-1006.32"/>
</g>
<!-- Node7 -->
<g id="node7" class="node">
<title>Node7</title>
<g id="a_node7"><a xlink:href="classNearestPointBase.html" target="_top" xlink:title=" ">
<polygon fill="white" stroke="#666666" points="1057,-1040 818,-1040 818,-999 1057,-999 1057,-1040"/>
<text text-anchor="start" x="826" y="-1028" font-family="Courier,monospace" font-size="10.00">NearestPointBase&lt; Element</text>
<text text-anchor="start" x="826" y="-1017" font-family="Courier,monospace" font-size="10.00">IntegralVariablePostprocessor,</text>
<text text-anchor="middle" x="937.5" y="-1006" font-family="Courier,monospace" font-size="10.00"> ElementVariableVectorPostprocessor &gt;</text>
</a>
</g>
</g>
<!-- Node4&#45;&gt;Node7 -->
<g id="edge6" class="edge">
<title>Node4&#45;&gt;Node7</title>
<path fill="none" stroke="#63b8ff" d="M787.52,-1006.26C797.5,-1007.14 807.58,-1008.04 817.53,-1008.93"/>
<polygon fill="#63b8ff" stroke="#63b8ff" points="788.1,-1002.79 777.83,-1005.4 787.48,-1009.77 788.1,-1002.79"/>
</g>
<!-- Node9 -->
<g id="node9" class="node">
<title>Node9</title>
<g id="a_node9"><a xlink:href="classElementValueSampler.html" target="_top" xlink:title="Samples values of elemental variable(s).">
<polygon fill="white" stroke="#666666" points="1003,-981 872,-981 872,-962 1003,-962 1003,-981"/>
<text text-anchor="middle" x="937.5" y="-969" font-family="Courier,monospace" font-size="10.00">ElementValueSampler</text>
</a>
</g>
</g>
<!-- Node4&#45;&gt;Node9 -->
<g id="edge8" class="edge">
<title>Node4&#45;&gt;Node9</title>
<path fill="none" stroke="#63b8ff" d="M787.78,-984.72C816.72,-982.15 846.5,-979.5 871.74,-977.26"/>
<polygon fill="#63b8ff" stroke="#63b8ff" points="787.48,-981.23 777.83,-985.6 788.1,-988.21 787.48,-981.23"/>
</g>
<!-- Node10 -->
<g id="node10" class="node">
<title>Node10</title>
<g id="a_node10"><a xlink:href="classExtraIDIntegralVectorPostprocessor.html" target="_top" xlink:title="This ExtraIDIntegralVectorPostprocessor source code is to integrate variables based on parsed extra I...">
<polygon fill="white" stroke="#666666" points="1048,-944 827,-944 827,-925 1048,-925 1048,-944"/>
<text text-anchor="middle" x="937.5" y="-932" font-family="Courier,monospace" font-size="10.00">ExtraIDIntegralVectorPostprocessor</text>
</a>
</g>
</g>
<!-- Node4&#45;&gt;Node10 -->
<g id="edge9" class="edge">
<title>Node4&#45;&gt;Node10</title>
<path fill="none" stroke="#63b8ff" d="M766.86,-982.62C772.04,-981.1 777.12,-979.4 782,-977.5 799.92,-970.52 800.1,-960.52 818,-953.5 827.41,-949.81 837.51,-946.84 847.69,-944.45"/>
<polygon fill="#63b8ff" stroke="#63b8ff" points="766.34,-979.14 757.59,-985.11 768.15,-985.9 766.34,-979.14"/>
</g>
<!-- Node6 -->
<g id="node6" class="node">
<title>Node6</title>
<g id="a_node6"><a xlink:href="classNearestPointAverage.html" target="_top" xlink:title="Given a list of points this object computes the average of a variable over the points closest to each...">
<polygon fill="white" stroke="#666666" points="1251,-1088 1120,-1088 1120,-1069 1251,-1069 1251,-1088"/>
<text text-anchor="middle" x="1185.5" y="-1076" font-family="Courier,monospace" font-size="10.00">NearestPointAverage</text>
</a>
</g>
</g>
<!-- Node5&#45;&gt;Node6 -->
<g id="edge5" class="edge">
<title>Node5&#45;&gt;Node6</title>
<path fill="none" stroke="#63b8ff" d="M1062.67,-1078.5C1082.35,-1078.5 1102,-1078.5 1119.58,-1078.5"/>
<polygon fill="#63b8ff" stroke="#63b8ff" points="1062.93,-1075 1052.93,-1078.5 1062.93,-1082 1062.93,-1075"/>
</g>
<!-- Node8 -->
<g id="node8" class="node">
<title>Node8</title>
<g id="a_node8"><a xlink:href="classNearestPointIntegralVariablePostprocessor.html" target="_top" xlink:title="Given a list of points this object computes the variable integral closest to each one of those points...">
<polygon fill="white" stroke="#666666" points="1278,-1034.5 1093,-1034.5 1093,-1004.5 1278,-1004.5 1278,-1034.5"/>
<text text-anchor="start" x="1101" y="-1022.5" font-family="Courier,monospace" font-size="10.00">NearestPointIntegralVariable</text>
<text text-anchor="middle" x="1185.5" y="-1011.5" font-family="Courier,monospace" font-size="10.00">Postprocessor</text>
</a>
</g>
</g>
<!-- Node7&#45;&gt;Node8 -->
<g id="edge7" class="edge">
<title>Node7&#45;&gt;Node8</title>
<path fill="none" stroke="#63b8ff" d="M1068.63,-1019.5C1076.72,-1019.5 1084.78,-1019.5 1092.64,-1019.5"/>
<polygon fill="#63b8ff" stroke="#63b8ff" points="1068.69,-1016 1058.69,-1019.5 1068.69,-1023 1068.69,-1016"/>
</g>
<!-- Node15 -->
<g id="node15" class="node">
<title>Node15</title>
<g id="a_node15"><a xlink:href="classCylindricalAverage.html" target="_top" xlink:title="Compute a cylindrical average of a variableas a function of radius throughout the simulation domain.">
<polygon fill="white" stroke="#666666" points="1000,-863 875,-863 875,-844 1000,-844 1000,-863"/>
<text text-anchor="middle" x="937.5" y="-851" font-family="Courier,monospace" font-size="10.00">CylindricalAverage</text>
</a>
</g>
</g>
<!-- Node14&#45;&gt;Node15 -->
<g id="edge14" class="edge">
<title>Node14&#45;&gt;Node15</title>
<path fill="none" stroke="#63b8ff" d="M739.8,-840.39C782.1,-843.21 834.69,-846.71 874.84,-849.39"/>
<polygon fill="#63b8ff" stroke="#63b8ff" points="740.16,-836.9 729.95,-839.73 739.7,-843.89 740.16,-836.9"/>
</g>
<!-- Node16 -->
<g id="node16" class="node">
<title>Node16</title>
<g id="a_node16"><a xlink:href="classSphericalAverage.html" target="_top" xlink:title="Compute a spherical average of a variable as a function of radius throughout the simulation domain.">
<polygon fill="white" stroke="#666666" points="994,-826 881,-826 881,-807 994,-807 994,-826"/>
<text text-anchor="middle" x="937.5" y="-814" font-family="Courier,monospace" font-size="10.00">SphericalAverage</text>
</a>
</g>
</g>
<!-- Node14&#45;&gt;Node16 -->
<g id="edge15" class="edge">
<title>Node14&#45;&gt;Node16</title>
<path fill="none" stroke="#63b8ff" d="M739.77,-830.34C784.2,-827.22 840,-823.29 880.81,-820.42"/>
<polygon fill="#63b8ff" stroke="#63b8ff" points="739.68,-826.84 729.95,-831.03 740.17,-833.82 739.68,-826.84"/>
</g>
<!-- Node19 -->
<g id="node19" class="node">
<title>Node19</title>
<g id="a_node19"><a xlink:href="classLineMaterialSamplerBase.html" target="_top" xlink:title=" ">
<polygon fill="white" stroke="#666666" points="743,-770.5 588,-770.5 588,-740.5 743,-740.5 743,-770.5"/>
<text text-anchor="start" x="596" y="-758.5" font-family="Courier,monospace" font-size="10.00">LineMaterialSamplerBase</text>
<text text-anchor="middle" x="665.5" y="-747.5" font-family="Courier,monospace" font-size="10.00">&lt; Real &gt;</text>
</a>
</g>
</g>
<!-- Node18&#45;&gt;Node19 -->
<g id="edge18" class="edge">
<title>Node18&#45;&gt;Node19</title>
<path fill="none" stroke="#63b8ff" d="M414.98,-437.49C422.9,-494.53 452.97,-653.3 549,-731.5 560.12,-740.55 573.79,-746.45 587.79,-750.24"/>
<polygon fill="#63b8ff" stroke="#63b8ff" points="418.49,-437.35 413.74,-427.88 411.55,-438.24 418.49,-437.35"/>
</g>
<!-- Node21 -->
<g id="node21" class="node">
<title>Node21</title>
<g id="a_node21"><a xlink:href="classCSVReader.html" target="_top" xlink:title=" ">
<polygon fill="white" stroke="#666666" points="701,-722 630,-722 630,-703 701,-703 701,-722"/>
<text text-anchor="middle" x="665.5" y="-710" font-family="Courier,monospace" font-size="10.00">CSVReader</text>
</a>
</g>
</g>
<!-- Node18&#45;&gt;Node21 -->
<g id="edge20" class="edge">
<title>Node18&#45;&gt;Node21</title>
<path fill="none" stroke="#63b8ff" d="M416.08,-437.71C426.22,-490.7 460.39,-629.28 549,-694.5 572.13,-711.52 604.98,-715.23 629.73,-715.13"/>
<polygon fill="#63b8ff" stroke="#63b8ff" points="419.53,-437.15 414.31,-427.93 412.65,-438.39 419.53,-437.15"/>
</g>
<!-- Node22 -->
<g id="node22" class="node">
<title>Node22</title>
<g id="a_node22"><a xlink:href="classChannelGradient.html" target="_top" xlink:title="ChannelGradient is a VectorPostprocessor that performs a least squares fit on data calculated in anot...">
<polygon fill="white" stroke="#666666" points="719,-685 612,-685 612,-666 719,-666 719,-685"/>
<text text-anchor="middle" x="665.5" y="-673" font-family="Courier,monospace" font-size="10.00">ChannelGradient</text>
</a>
</g>
</g>
<!-- Node18&#45;&gt;Node22 -->
<g id="edge21" class="edge">
<title>Node18&#45;&gt;Node22</title>
<path fill="none" stroke="#63b8ff" d="M417.68,-437.45C430.68,-485.27 469.49,-602.52 549,-657.5 567.11,-670.02 590.62,-675.17 611.69,-676.93"/>
<polygon fill="#63b8ff" stroke="#63b8ff" points="421.09,-436.66 415.18,-427.86 414.31,-438.42 421.09,-436.66"/>
</g>
<!-- Node23 -->
<g id="node23" class="node">
<title>Node23</title>
<g id="a_node23"><a xlink:href="classConstantVectorPostprocessor.html" target="_top" xlink:title=" ">
<polygon fill="white" stroke="#666666" points="755,-648 576,-648 576,-629 755,-629 755,-648"/>
<text text-anchor="middle" x="665.5" y="-636" font-family="Courier,monospace" font-size="10.00">ConstantVectorPostprocessor</text>
</a>
</g>
</g>
<!-- Node18&#45;&gt;Node23 -->
<g id="edge22" class="edge">
<title>Node18&#45;&gt;Node23</title>
<path fill="none" stroke="#63b8ff" d="M419.63,-436.81C435.54,-478.87 478.22,-575.35 549,-620.5 557.13,-625.68 566.21,-629.56 575.63,-632.45"/>
<polygon fill="#63b8ff" stroke="#63b8ff" points="423.01,-435.87 416.29,-427.68 416.44,-438.27 423.01,-435.87"/>
</g>
<!-- Node24 -->
<g id="node24" class="node">
<title>Node24</title>
<g id="a_node24"><a xlink:href="classEigenvalues.html" target="_top" xlink:title=" ">
<polygon fill="white" stroke="#666666" points="707,-611 624,-611 624,-592 707,-592 707,-611"/>
<text text-anchor="middle" x="665.5" y="-599" font-family="Courier,monospace" font-size="10.00">Eigenvalues</text>
</a>
</g>
</g>
<!-- Node18&#45;&gt;Node24 -->
<g id="edge23" class="edge">
<title>Node18&#45;&gt;Node24</title>
<path fill="none" stroke="#63b8ff" d="M422.34,-436.29C441.36,-472.25 486.84,-547.9 549,-583.5 571.54,-596.41 600.42,-600.91 623.66,-602.18"/>
<polygon fill="#63b8ff" stroke="#63b8ff" points="425.48,-434.75 417.8,-427.45 419.26,-437.95 425.48,-434.75"/>
</g>
<!-- Node25 -->
<g id="node25" class="node">
<title>Node25</title>
<g id="a_node25"><a xlink:href="classElementsAlongLine.html" target="_top" xlink:title="Get all of the elements that are intersected by a line.">
<polygon fill="white" stroke="#666666" points="725,-574 606,-574 606,-555 725,-555 725,-574"/>
<text text-anchor="middle" x="665.5" y="-562" font-family="Courier,monospace" font-size="10.00">ElementsAlongLine</text>
</a>
</g>
</g>
<!-- Node18&#45;&gt;Node25 -->
<g id="edge24" class="edge">
<title>Node18&#45;&gt;Node25</title>
<path fill="none" stroke="#63b8ff" d="M426.23,-435.55C448.42,-464.75 495.17,-519.98 549,-546.5 566.39,-555.07 586.87,-559.75 605.73,-562.25"/>
<polygon fill="#63b8ff" stroke="#63b8ff" points="429.1,-433.55 420.33,-427.61 423.48,-437.72 429.1,-433.55"/>
</g>
<!-- Node26 -->
<g id="node26" class="node">
<title>Node26</title>
<g id="a_node26"><a xlink:href="classElementsAlongPlane.html" target="_top" xlink:title="Get all of the elements that are intersected by a plane.">
<polygon fill="white" stroke="#666666" points="728,-537 603,-537 603,-518 728,-518 728,-537"/>
<text text-anchor="middle" x="665.5" y="-525" font-family="Courier,monospace" font-size="10.00">ElementsAlongPlane</text>
</a>
</g>
</g>
<!-- Node18&#45;&gt;Node26 -->
<g id="edge25" class="edge">
<title>Node18&#45;&gt;Node26</title>
<path fill="none" stroke="#63b8ff" d="M431.73,-433.77C456.79,-455.24 502.89,-491.28 549,-509.5 565.8,-516.14 584.88,-520.34 602.62,-522.99"/>
<polygon fill="#63b8ff" stroke="#63b8ff" points="434.17,-431.26 424.34,-427.32 429.57,-436.53 434.17,-431.26"/>
</g>
<!-- Node27 -->
<g id="node27" class="node">
<title>Node27</title>
<g id="a_node27"><a xlink:href="classHistogramVectorPostprocessor.html" target="_top" xlink:title="Computes a histogram for each column in a given VectorPostprocessor.">
<polygon fill="white" stroke="#666666" points="758,-500 573,-500 573,-481 758,-481 758,-500"/>
<text text-anchor="middle" x="665.5" y="-488" font-family="Courier,monospace" font-size="10.00">HistogramVectorPostprocessor</text>
</a>
</g>
</g>
<!-- Node18&#45;&gt;Node27 -->
<g id="edge26" class="edge">
<title>Node18&#45;&gt;Node27</title>
<path fill="none" stroke="#63b8ff" d="M442.71,-431.31C469.9,-444.04 511.27,-461.98 549,-472.5 560.34,-475.66 572.47,-478.31 584.45,-480.53"/>
<polygon fill="#63b8ff" stroke="#63b8ff" points="444.23,-428.15 433.7,-427.02 441.23,-434.47 444.23,-428.15"/>
</g>
<!-- Node28 -->
<g id="node28" class="node">
<title>Node28</title>
<g id="a_node28"><a xlink:href="classIntersectionPointsAlongLine.html" target="_top" xlink:title="Get the intersection points for all of the elements that are intersected by a line.">
<polygon fill="white" stroke="#666666" points="755,-463 576,-463 576,-444 755,-444 755,-463"/>
<text text-anchor="middle" x="665.5" y="-451" font-family="Courier,monospace" font-size="10.00">IntersectionPointsAlongLine</text>
</a>
</g>
</g>
<!-- Node18&#45;&gt;Node28 -->
<g id="edge27" class="edge">
<title>Node18&#45;&gt;Node28</title>
<path fill="none" stroke="#63b8ff" d="M491.57,-428.11C525.25,-433.05 564.15,-438.77 596.52,-443.52"/>
<polygon fill="#63b8ff" stroke="#63b8ff" points="492.26,-424.67 481.86,-426.68 491.25,-431.6 492.26,-424.67"/>
</g>
<!-- Node29 -->
<g id="node29" class="node">
<title>Node29</title>
<g id="a_node29"><a xlink:href="classLeastSquaresFit.html" target="_top" xlink:title="LeastSquaresFit is a VectorPostprocessor that performs a least squares fit on data calculated in anot...">
<polygon fill="white" stroke="#666666" points="719,-426 612,-426 612,-407 719,-407 719,-426"/>
<text text-anchor="middle" x="665.5" y="-414" font-family="Courier,monospace" font-size="10.00">LeastSquaresFit</text>
</a>
</g>
</g>
<!-- Node18&#45;&gt;Node29 -->
<g id="edge28" class="edge">
<title>Node18&#45;&gt;Node29</title>
<path fill="none" stroke="#63b8ff" d="M509.34,-416.5C544.15,-416.5 582.09,-416.5 611.74,-416.5"/>
<polygon fill="#63b8ff" stroke="#63b8ff" points="509.68,-413 499.68,-416.5 509.68,-420 509.68,-413"/>
</g>
<!-- Node30 -->
<g id="node30" class="node">
<title>Node30</title>
<g id="a_node30"><a xlink:href="classLeastSquaresFitHistory.html" target="_top" xlink:title="LeastSquaresFitHistory is a VectorPostprocessor that performs a least squares fit on data calculated ...">
<polygon fill="white" stroke="#666666" points="740,-389 591,-389 591,-370 740,-370 740,-389"/>
<text text-anchor="middle" x="665.5" y="-377" font-family="Courier,monospace" font-size="10.00">LeastSquaresFitHistory</text>
</a>
</g>
</g>
<!-- Node18&#45;&gt;Node30 -->
<g id="edge29" class="edge">
<title>Node18&#45;&gt;Node30</title>
<path fill="none" stroke="#63b8ff" d="M491.57,-404.89C525.25,-399.95 564.15,-394.23 596.52,-389.48"/>
<polygon fill="#63b8ff" stroke="#63b8ff" points="491.25,-401.4 481.86,-406.32 492.26,-408.33 491.25,-401.4"/>
</g>
<!-- Node31 -->
<g id="node31" class="node">
<title>Node31</title>
<g id="a_node31"><a xlink:href="classLineFunctionSampler.html" target="_top" xlink:title=" ">
<polygon fill="white" stroke="#666666" points="731,-352 600,-352 600,-333 731,-333 731,-352"/>
<text text-anchor="middle" x="665.5" y="-340" font-family="Courier,monospace" font-size="10.00">LineFunctionSampler</text>
</a>
</g>
</g>
<!-- Node18&#45;&gt;Node31 -->
<g id="edge30" class="edge">
<title>Node18&#45;&gt;Node31</title>
<path fill="none" stroke="#63b8ff" d="M442.71,-401.69C469.9,-388.96 511.27,-371.02 549,-360.5 565.23,-355.98 583.07,-352.49 599.78,-349.85"/>
<polygon fill="#63b8ff" stroke="#63b8ff" points="441.23,-398.53 433.7,-405.98 444.23,-404.85 441.23,-398.53"/>
</g>
<!-- Node32 -->
<g id="node32" class="node">
<title>Node32</title>
<g id="a_node32"><a xlink:href="classLineMaterialSamplerBase.html" target="_top" xlink:title="This is a base class for sampling material properties for the integration points in all elements that...">
<polygon fill="white" stroke="#666666" points="758,-315 573,-315 573,-296 758,-296 758,-315"/>
<text text-anchor="middle" x="665.5" y="-303" font-family="Courier,monospace" font-size="10.00">LineMaterialSamplerBase&lt; T &gt;</text>
</a>
</g>
</g>
<!-- Node18&#45;&gt;Node32 -->
<g id="edge31" class="edge">
<title>Node18&#45;&gt;Node32</title>
<path fill="none" stroke="#63b8ff" d="M434.44,-399.79C466.46,-375.7 524.83,-333.05 549,-323.5 557.12,-320.29 565.76,-317.66 574.54,-315.49"/>
<polygon fill="#63b8ff" stroke="#63b8ff" points="432.48,-396.87 426.62,-405.7 436.7,-402.46 432.48,-396.87"/>
</g>
<!-- Node33 -->
<g id="node33" class="node">
<title>Node33</title>
<g id="a_node33"><a xlink:href="classPointSamplerBase.html" target="_top" xlink:title="Base class for sampling objects (variables, functors etc) at points.">
<polygon fill="white" stroke="#666666" points="722,-278 609,-278 609,-259 722,-259 722,-278"/>
<text text-anchor="middle" x="665.5" y="-266" font-family="Courier,monospace" font-size="10.00">PointSamplerBase</text>
</a>
</g>
</g>
<!-- Node18&#45;&gt;Node33 -->
<g id="edge32" class="edge">
<title>Node18&#45;&gt;Node33</title>
<path fill="none" stroke="#63b8ff" d="M438.7,-400.63C460.24,-386.76 490.73,-365.19 513,-341.5 533.01,-320.22 524.45,-302.34 549,-286.5 566.48,-275.22 588.48,-270.09 608.57,-267.99"/>
<polygon fill="#63b8ff" stroke="#63b8ff" points="437.08,-397.51 430.49,-405.81 440.81,-403.43 437.08,-397.51"/>
</g>
<!-- Node38 -->
<g id="node38" class="node">
<title>Node38</title>
<g id="a_node38"><a xlink:href="classSpatialUserObjectVectorPostprocessor.html" target="_top" xlink:title="SpatialUserObjectVectorPostprocessor is a type of VectorPostprocessor that outputs the values of a sp...">
<polygon fill="white" stroke="#666666" points="782,-241 549,-241 549,-222 782,-222 782,-241"/>
<text text-anchor="middle" x="665.5" y="-229" font-family="Courier,monospace" font-size="10.00">SpatialUserObjectVectorPostprocessor</text>
</a>
</g>
</g>
<!-- Node18&#45;&gt;Node38 -->
<g id="edge37" class="edge">
<title>Node18&#45;&gt;Node38</title>
<path fill="none" stroke="#63b8ff" d="M441.59,-400.83C463.79,-387.59 493.74,-366.76 513,-341.5 539.62,-306.58 514.75,-276.98 549,-249.5 552.88,-246.39 557.07,-243.71 561.48,-241.4"/>
<polygon fill="#63b8ff" stroke="#63b8ff" points="439.93,-397.75 433.01,-405.78 443.43,-403.82 439.93,-397.75"/>
</g>
<!-- Node39 -->
<g id="node39" class="node">
<title>Node39</title>
<g id="a_node39"><a xlink:href="classVectorMemoryUsage.html" target="_top" xlink:title="Generate a table of various memory metrics indexed by MPI rank.">
<polygon fill="white" stroke="#666666" points="725,-204 606,-204 606,-185 725,-185 725,-204"/>
<text text-anchor="middle" x="665.5" y="-192" font-family="Courier,monospace" font-size="10.00">VectorMemoryUsage</text>
</a>
</g>
</g>
<!-- Node18&#45;&gt;Node39 -->
<g id="edge38" class="edge">
<title>Node18&#45;&gt;Node39</title>
<path fill="none" stroke="#63b8ff" d="M442.41,-401.3C465,-388.34 495.07,-367.66 513,-341.5 546.65,-292.4 504.51,-252.04 549,-212.5 564.32,-198.88 585.53,-193.21 605.6,-191.33"/>
<polygon fill="#63b8ff" stroke="#63b8ff" points="441.02,-398.07 433.96,-405.97 444.4,-404.2 441.02,-398.07"/>
</g>
<!-- Node40 -->
<g id="node40" class="node">
<title>Node40</title>
<g id="a_node40"><a xlink:href="classVectorOfPostprocessors.html" target="_top" xlink:title="VectorOfPostprocessors is a type of VectorPostprocessor that outputs the values of an arbitrary user&#45;...">
<polygon fill="white" stroke="#666666" points="740,-167 591,-167 591,-148 740,-148 740,-167"/>
<text text-anchor="middle" x="665.5" y="-155" font-family="Courier,monospace" font-size="10.00">VectorOfPostprocessors</text>
</a>
</g>
</g>
<!-- Node18&#45;&gt;Node40 -->
<g id="edge39" class="edge">
<title>Node18&#45;&gt;Node40</title>
<path fill="none" stroke="#63b8ff" d="M443.25,-401.35C466.02,-388.53 495.94,-368.02 513,-341.5 553.84,-278.01 494.07,-227.28 549,-175.5 560.37,-164.78 575.35,-158.88 590.74,-155.87"/>
<polygon fill="#63b8ff" stroke="#63b8ff" points="441.83,-398.14 434.69,-405.98 445.16,-404.3 441.83,-398.14"/>
</g>
<!-- Node41 -->
<g id="node41" class="node">
<title>Node41</title>
<g id="a_node41"><a xlink:href="classWorkBalance.html" target="_top" xlink:title="Compute several metrics for each MPI process.">
<polygon fill="white" stroke="#666666" points="707,-130 624,-130 624,-111 707,-111 707,-130"/>
<text text-anchor="middle" x="665.5" y="-118" font-family="Courier,monospace" font-size="10.00">WorkBalance</text>
</a>
</g>
</g>
<!-- Node18&#45;&gt;Node41 -->
<g id="edge40" class="edge">
<title>Node18&#45;&gt;Node41</title>
<path fill="none" stroke="#63b8ff" d="M443.95,-401.3C466.82,-388.57 496.55,-368.18 513,-341.5 561.1,-263.51 483.53,-202.61 549,-138.5 568.36,-119.54 598.93,-115.46 623.77,-115.9"/>
<polygon fill="#63b8ff" stroke="#63b8ff" points="442.51,-398.11 435.33,-405.9 445.8,-404.28 442.51,-398.11"/>
</g>
<!-- Node20 -->
<g id="node20" class="node">
<title>Node20</title>
<g id="a_node20"><a xlink:href="classLineMaterialRealSampler.html" target="_top" xlink:title="This class samples Real material properties for the integration points in all elements that are inter...">
<polygon fill="white" stroke="#666666" points="1015,-765 860,-765 860,-746 1015,-746 1015,-765"/>
<text text-anchor="middle" x="937.5" y="-753" font-family="Courier,monospace" font-size="10.00">LineMaterialRealSampler</text>
</a>
</g>
</g>
<!-- Node19&#45;&gt;Node20 -->
<g id="edge19" class="edge">
<title>Node19&#45;&gt;Node20</title>
<path fill="none" stroke="#63b8ff" d="M754.47,-755.5C788.4,-755.5 826.86,-755.5 859.66,-755.5"/>
<polygon fill="#63b8ff" stroke="#63b8ff" points="754.66,-752 744.66,-755.5 754.66,-759 754.66,-752"/>
</g>
<!-- Node34 -->
<g id="node34" class="node">
<title>Node34</title>
<g id="a_node34"><a xlink:href="classPointVariableSamplerBase.html" target="_top" xlink:title="Base class for sampling variable(s) at points.">
<polygon fill="white" stroke="#666666" points="1018,-297 857,-297 857,-278 1018,-278 1018,-297"/>
<text text-anchor="middle" x="937.5" y="-285" font-family="Courier,monospace" font-size="10.00">PointVariableSamplerBase</text>
</a>
</g>
</g>
<!-- Node33&#45;&gt;Node34 -->
<g id="edge33" class="edge">
<title>Node33&#45;&gt;Node34</title>
<path fill="none" stroke="#63b8ff" d="M733.68,-273.23C770.92,-275.85 817.46,-279.12 856.56,-281.87"/>
<polygon fill="#63b8ff" stroke="#63b8ff" points="734.18,-269.75 723.95,-272.54 733.68,-276.74 734.18,-269.75"/>
</g>
<!-- Node37 -->
<g id="node37" class="node">
<title>Node37</title>
<g id="a_node37"><a xlink:href="classPositionsFunctorValueSampler.html" target="_top" xlink:title="Samples one or more functor(s) at points given by a Positions object.">
<polygon fill="white" stroke="#666666" points="1030,-260 845,-260 845,-241 1030,-241 1030,-260"/>
<text text-anchor="middle" x="937.5" y="-248" font-family="Courier,monospace" font-size="10.00">PositionsFunctorValueSampler</text>
</a>
</g>
</g>
<!-- Node33&#45;&gt;Node37 -->
<g id="edge36" class="edge">
<title>Node33&#45;&gt;Node37</title>
<path fill="none" stroke="#63b8ff" d="M733.52,-264.03C767.11,-261.79 808.29,-259.05 844.76,-256.62"/>
<polygon fill="#63b8ff" stroke="#63b8ff" points="733.7,-260.51 723.95,-264.67 734.17,-267.5 733.7,-260.51"/>
</g>
<!-- Node35 -->
<g id="node35" class="node">
<title>Node35</title>
<g id="a_node35"><a xlink:href="classLineValueSampler.html" target="_top" xlink:title=" ">
<polygon fill="white" stroke="#666666" points="1242,-315 1129,-315 1129,-296 1242,-296 1242,-315"/>
<text text-anchor="middle" x="1185.5" y="-303" font-family="Courier,monospace" font-size="10.00">LineValueSampler</text>
</a>
</g>
</g>
<!-- Node34&#45;&gt;Node35 -->
<g id="edge34" class="edge">
<title>Node34&#45;&gt;Node35</title>
<path fill="none" stroke="#63b8ff" d="M1029.51,-294.16C1062.8,-296.6 1099.45,-299.28 1128.75,-301.42"/>
<polygon fill="#63b8ff" stroke="#63b8ff" points="1030.11,-290.69 1019.88,-293.45 1029.6,-297.68 1030.11,-290.69"/>
</g>
<!-- Node36 -->
<g id="node36" class="node">
<title>Node36</title>
<g id="a_node36"><a xlink:href="classPointValueSampler.html" target="_top" xlink:title=" ">
<polygon fill="white" stroke="#666666" points="1245,-278 1126,-278 1126,-259 1245,-259 1245,-278"/>
<text text-anchor="middle" x="1185.5" y="-266" font-family="Courier,monospace" font-size="10.00">PointValueSampler</text>
</a>
</g>
</g>
<!-- Node34&#45;&gt;Node36 -->
<g id="edge35" class="edge">
<title>Node34&#45;&gt;Node36</title>
<path fill="none" stroke="#63b8ff" d="M1029.58,-280.47C1061.7,-277.98 1096.94,-275.26 1125.68,-273.04"/>
<polygon fill="#63b8ff" stroke="#63b8ff" points="1029.58,-276.95 1019.88,-281.21 1030.12,-283.93 1029.58,-276.95"/>
</g>
<!-- Node45 -->
<g id="node45" class="node">
<title>Node45</title>
<g id="a_node45"><a xlink:href="classNodalVariableVectorPostprocessor.html" target="_top" xlink:title="Base class VectorPostprocessors operating on nodal variables.">
<polygon fill="white" stroke="#666666" points="770,-93 561,-93 561,-74 770,-74 770,-93"/>
<text text-anchor="middle" x="665.5" y="-81" font-family="Courier,monospace" font-size="10.00">NodalVariableVectorPostprocessor</text>
</a>
</g>
</g>
<!-- Node44&#45;&gt;Node45 -->
<g id="edge44" class="edge">
<title>Node44&#45;&gt;Node45</title>
<path fill="none" stroke="#63b8ff" d="M456.23,-125.33C482.87,-117.63 517.69,-108.16 549,-101.5 562.99,-98.52 578.04,-95.82 592.5,-93.47"/>
<polygon fill="#63b8ff" stroke="#63b8ff" points="455.42,-121.92 446.8,-128.08 457.38,-128.64 455.42,-121.92"/>
</g>
<!-- Node46 -->
<g id="node46" class="node">
<title>Node46</title>
<g id="a_node46"><a xlink:href="classNodalValueSampler.html" target="_top" xlink:title="Samples values of nodal variable(s).">
<polygon fill="white" stroke="#666666" points="997,-93 878,-93 878,-74 997,-74 997,-93"/>
<text text-anchor="middle" x="937.5" y="-81" font-family="Courier,monospace" font-size="10.00">NodalValueSampler</text>
</a>
</g>
</g>
<!-- Node45&#45;&gt;Node46 -->
<g id="edge45" class="edge">
<title>Node45&#45;&gt;Node46</title>
<path fill="none" stroke="#63b8ff" d="M781.31,-83.5C814.52,-83.5 849.41,-83.5 877.67,-83.5"/>
<polygon fill="#63b8ff" stroke="#63b8ff" points="781.63,-80 771.63,-83.5 781.63,-87 781.63,-80"/>
</g>
<!-- Node48 -->
<g id="node48" class="node">
<title>Node48</title>
<g id="a_node48"><a xlink:href="classSideValueSampler.html" target="_top" xlink:title=" ">
<polygon fill="white" stroke="#666666" points="722,-56 609,-56 609,-37 722,-37 722,-56"/>
<text text-anchor="middle" x="665.5" y="-44" font-family="Courier,monospace" font-size="10.00">SideValueSampler</text>
</a>
</g>
</g>
<!-- Node47&#45;&gt;Node48 -->
<g id="edge47" class="edge">
<title>Node47&#45;&gt;Node48</title>
<path fill="none" stroke="#63b8ff" d="M500.95,-46.5C536.81,-46.5 577.14,-46.5 608.78,-46.5"/>
<polygon fill="#63b8ff" stroke="#63b8ff" points="500.99,-43 490.99,-46.5 500.99,-50 500.99,-43"/>
</g>
<!-- Node49 -->
<g id="node49" class="node">
<title>Node49</title>
<g id="a_node49"><a xlink:href="classSidesetInfoVectorPostprocessor.html" target="_top" xlink:title=" ">
<polygon fill="white" stroke="#666666" points="764,-19 567,-19 567,0 764,0 764,-19"/>
<text text-anchor="middle" x="665.5" y="-7" font-family="Courier,monospace" font-size="10.00">SidesetInfoVectorPostprocessor</text>
</a>
</g>
</g>
<!-- Node47&#45;&gt;Node49 -->
<g id="edge48" class="edge">
<title>Node47&#45;&gt;Node49</title>
<path fill="none" stroke="#63b8ff" d="M491.57,-34.89C525.25,-29.95 564.15,-24.23 596.52,-19.48"/>
<polygon fill="#63b8ff" stroke="#63b8ff" points="491.25,-31.4 481.86,-36.32 492.26,-38.33 491.25,-31.4"/>
</g>
</g>
</svg>
        <g id="navigator" transform="translate(0 0)" fill="#404254">
                <rect fill="#f2f5e9" fill-opacity="0.5" stroke="#606060" stroke-width=".5" x="0" y="0" width="60" height="60"/>
                <use id="zoomplus" xlink:href="#zoomPlus" x="17" y="9" onmousedown="handleZoom(evt,'in')"/>
                <use id="zoomminus" xlink:href="#zoomMin" x="42" y="9" onmousedown="handleZoom(evt,'out')"/>
                <use id="reset" xlink:href="#resetDef" x="30" y="36" onmousedown="handleReset()"/>
                <g id="arrowUp" xlink:href="#dirArrow" transform="translate(30 24)" onmousedown="handlePan(0,-1)">
                  <use xlink:href="#rim" fill="#404040">
                        <set attributeName="fill" to="#808080" begin="arrowUp.mouseover" end="arrowUp.mouseout"/>
                  </use>
                  <path fill="none" stroke="white" stroke-width="1.5" d="M0,-3.0v7 M-2.5,-0.5L0,-3.0L2.5,-0.5"/>
                </g>
                <g id="arrowRight" xlink:href="#dirArrow" transform="rotate(90) translate(36 -43)" onmousedown="handlePan(1,0)">
                  <use xlink:href="#rim" fill="#404040">
                        <set attributeName="fill" to="#808080" begin="arrowRight.mouseover" end="arrowRight.mouseout"/>
                  </use>
                  <path fill="none" stroke="white" stroke-width="1.5" d="M0,-3.0v7 M-2.5,-0.5L0,-3.0L2.5,-0.5"/>
                </g>
                <g id="arrowDown" xlink:href="#dirArrow" transform="rotate(180) translate(-30 -48)" onmousedown="handlePan(0,1)">
                  <use xlink:href="#rim" fill="#404040">
                        <set attributeName="fill" to="#808080" begin="arrowDown.mouseover" end="arrowDown.mouseout"/>
                  </use>
                  <path fill="none" stroke="white" stroke-width="1.5" d="M0,-3.0v7 M-2.5,-0.5L0,-3.0L2.5,-0.5"/>
                </g>
                <g id="arrowLeft" xlink:href="#dirArrow" transform="rotate(270) translate(-36 17)" onmousedown="handlePan(-1,0)">
                  <use xlink:href="#rim" fill="#404040">
                        <set attributeName="fill" to="#808080" begin="arrowLeft.mouseover" end="arrowLeft.mouseout"/>
                  </use>
                  <path fill="none" stroke="white" stroke-width="1.5" d="M0,-3.0v7 M-2.5,-0.5L0,-3.0L2.5,-0.5"/>
                </g>
        </g>
        <svg viewBox="0 0 15 15" width="100%" height="30px" preserveAspectRatio="xMaxYMin meet">
         <g id="arrow_out" transform="scale(0.3 0.3)">
          <a xlink:href="classVectorPostprocessor__inherit__graph_org.svg" target="_base">
           <rect id="button" ry="5" rx="5" y="6" x="6" height="38" width="38"
                fill="#f2f5e9" fill-opacity="0.5" stroke="#606060" stroke-width="1.0"/>
           <path id="arrow"
             d="M 11.500037,31.436501 C 11.940474,20.09759 22.043105,11.32322 32.158766,21.979434 L 37.068811,17.246167 C 37.068811,17.246167 37.088388,32 37.088388,32 L 22.160133,31.978069 C 22.160133,31.978069 26.997745,27.140456 26.997745,27.140456 C 18.528582,18.264221 13.291696,25.230495 11.500037,31.436501 z"
             style="fill:#404040;"/>
          </a>
         </g>
        </svg>
</svg>
