<?xml version="1.0" encoding="UTF-8" standalone="no"?>
<!DOCTYPE svg PUBLIC "-//W3C//DTD SVG 1.1//EN"
 "http://www.w3.org/Graphics/SVG/1.1/DTD/svg11.dtd">
<!-- Generated by graphviz version 7.0.5 (20221223.1930)
 -->
<!-- Title: Transient Pages: 1 -->
<svg width="783pt" height="384pt"
 viewBox="0.00 0.00 783.00 384.00" xmlns="http://www.w3.org/2000/svg" xmlns:xlink="http://www.w3.org/1999/xlink">
<g id="graph0" class="graph" transform="scale(1 1) rotate(0) translate(4 380)">
<title>Transient</title>
<!-- Node1 -->
<g id="node1" class="node">
<title>Node1</title>
<g id="a_node1"><a xlink:title="Transient executioners usually loop through a number of timesteps... calling solve() for each timeste...">
<polygon fill="#999999" stroke="#666666" points="775,-130 704,-130 704,-111 775,-111 775,-130"/>
<text text-anchor="middle" x="739.5" y="-118" font-family="Courier,monospace" font-size="10.00">Transient</text>
</a>
</g>
</g>
<!-- Node2 -->
<g id="node2" class="node">
<title>Node2</title>
<g id="a_node2"><a xlink:href="classExecutioner.html" target="_top" xlink:title="Executioners are objects that do the actual work of solving your problem.">
<polygon fill="white" stroke="#666666" points="668,-130 585,-130 585,-111 668,-111 668,-130"/>
<text text-anchor="middle" x="626.5" y="-118" font-family="Courier,monospace" font-size="10.00">Executioner</text>
</a>
</g>
</g>
<!-- Node2&#45;&gt;Node1 -->
<g id="edge1" class="edge">
<title>Node2&#45;&gt;Node1</title>
<path fill="none" stroke="#63b8ff" d="M679.59,-120.5C687.75,-120.5 696.01,-120.5 703.65,-120.5"/>
<polygon fill="#63b8ff" stroke="#63b8ff" points="679.72,-117 669.72,-120.5 679.72,-124 679.72,-117"/>
</g>
<!-- Node3 -->
<g id="node3" class="node">
<title>Node3</title>
<g id="a_node3"><a xlink:href="classMooseObject.html" target="_top" xlink:title="Every object that can be built by the factory should be derived from this class.">
<polygon fill="white" stroke="#666666" points="516,-284 433,-284 433,-265 516,-265 516,-284"/>
<text text-anchor="middle" x="474.5" y="-272" font-family="Courier,monospace" font-size="10.00">MooseObject</text>
</a>
</g>
</g>
<!-- Node3&#45;&gt;Node2 -->
<g id="edge2" class="edge">
<title>Node3&#45;&gt;Node2</title>
<path fill="none" stroke="#63b8ff" d="M497.99,-257.65C513.05,-245.94 532.97,-229.6 549,-213.5 577.03,-185.35 605.59,-147.76 618.46,-130.24"/>
<polygon fill="#63b8ff" stroke="#63b8ff" points="495.9,-254.84 490.09,-263.7 500.16,-260.4 495.9,-254.84"/>
</g>
<!-- Node4 -->
<g id="node4" class="node">
<title>Node4</title>
<g id="a_node4"><a xlink:href="classMooseBase.html" target="_top" xlink:title="Base class for everything in MOOSE with a name and a type.">
<polygon fill="white" stroke="#666666" points="310,-376 239,-376 239,-357 310,-357 310,-376"/>
<text text-anchor="middle" x="274.5" y="-364" font-family="Courier,monospace" font-size="10.00">MooseBase</text>
</a>
</g>
</g>
<!-- Node4&#45;&gt;Node3 -->
<g id="edge3" class="edge">
<title>Node4&#45;&gt;Node3</title>
<path fill="none" stroke="#63b8ff" d="M321.4,-360.71C335.42,-358.01 350.65,-354.1 364,-348.5 403.35,-331.98 443.32,-300.4 462.24,-284.37"/>
<polygon fill="#63b8ff" stroke="#63b8ff" points="321.22,-357.19 311.97,-362.36 322.43,-364.08 321.22,-357.19"/>
</g>
<!-- Node5 -->
<g id="node5" class="node">
<title>Node5</title>
<g id="a_node5"><a xlink:href="classMooseBaseParameterInterface.html" target="_top" xlink:title="Every object that can be built by the factory should be derived from this class.">
<polygon fill="white" stroke="#666666" points="364,-339 185,-339 185,-320 364,-320 364,-339"/>
<text text-anchor="middle" x="274.5" y="-327" font-family="Courier,monospace" font-size="10.00">MooseBaseParameterInterface</text>
</a>
</g>
</g>
<!-- Node5&#45;&gt;Node3 -->
<g id="edge4" class="edge">
<title>Node5&#45;&gt;Node3</title>
<path fill="none" stroke="#63b8ff" d="M341.26,-317.08C348.96,-315.34 356.68,-313.47 364,-311.5 392.87,-303.72 425.23,-292.46 447.23,-284.41"/>
<polygon fill="#63b8ff" stroke="#63b8ff" points="340.55,-313.65 331.52,-319.2 342.04,-320.49 340.55,-313.65"/>
</g>
<!-- Node6 -->
<g id="node6" class="node">
<title>Node6</title>
<g id="a_node6"><a xlink:href="classMooseBaseErrorInterface.html" target="_top" xlink:title="Interface that provides APIs to output errors/warnings/info messages.">
<polygon fill="white" stroke="#666666" points="352,-302 197,-302 197,-283 352,-283 352,-302"/>
<text text-anchor="middle" x="274.5" y="-290" font-family="Courier,monospace" font-size="10.00">MooseBaseErrorInterface</text>
</a>
</g>
</g>
<!-- Node6&#45;&gt;Node3 -->
<g id="edge5" class="edge">
<title>Node6&#45;&gt;Node3</title>
<path fill="none" stroke="#63b8ff" d="M363.68,-284.48C387.75,-282.3 412.68,-280.03 432.69,-278.21"/>
<polygon fill="#63b8ff" stroke="#63b8ff" points="363.48,-280.99 353.84,-285.38 364.12,-287.96 363.48,-280.99"/>
</g>
<!-- Node7 -->
<g id="node7" class="node">
<title>Node7</title>
<g id="a_node7"><a xlink:href="classConsoleStreamInterface.html" target="_top" xlink:title="An inteface for the _console for outputting to the Console object.">
<polygon fill="white" stroke="#666666" points="149,-302 0,-302 0,-283 149,-283 149,-302"/>
<text text-anchor="middle" x="74.5" y="-290" font-family="Courier,monospace" font-size="10.00">ConsoleStreamInterface</text>
</a>
</g>
</g>
<!-- Node7&#45;&gt;Node6 -->
<g id="edge6" class="edge">
<title>Node7&#45;&gt;Node6</title>
<path fill="none" stroke="#63b8ff" d="M160.62,-292.5C172.62,-292.5 184.9,-292.5 196.73,-292.5"/>
<polygon fill="#63b8ff" stroke="#63b8ff" points="160.74,-289 150.74,-292.5 160.74,-296 160.74,-289"/>
</g>
<!-- Node8 -->
<g id="node8" class="node">
<title>Node8</title>
<g id="a_node8"><a xlink:title=" ">
<polygon fill="white" stroke="#666666" points="352,-265 197,-265 197,-246 352,-246 352,-265"/>
<text text-anchor="middle" x="274.5" y="-253" font-family="Courier,monospace" font-size="10.00">libMesh::ParallelObject</text>
</a>
</g>
</g>
<!-- Node8&#45;&gt;Node3 -->
<g id="edge7" class="edge">
<title>Node8&#45;&gt;Node3</title>
<path fill="none" stroke="#63b8ff" d="M363.68,-263.96C387.75,-266.27 412.68,-268.66 432.69,-270.58"/>
<polygon fill="#63b8ff" stroke="#63b8ff" points="364.13,-260.49 353.84,-263.02 363.46,-267.46 364.13,-260.49"/>
</g>
<!-- Node9 -->
<g id="node9" class="node">
<title>Node9</title>
<g id="a_node9"><a xlink:href="classDataFileInterface.html" target="_top" xlink:title=" ">
<polygon fill="white" stroke="#666666" points="337,-227.5 212,-227.5 212,-197.5 337,-197.5 337,-227.5"/>
<text text-anchor="start" x="220" y="-215.5" font-family="Courier,monospace" font-size="10.00">DataFileInterface&lt;</text>
<text text-anchor="middle" x="274.5" y="-204.5" font-family="Courier,monospace" font-size="10.00"> MooseObject &gt;</text>
</a>
</g>
</g>
<!-- Node9&#45;&gt;Node3 -->
<g id="edge8" class="edge">
<title>Node9&#45;&gt;Node3</title>
<path fill="none" stroke="#63b8ff" d="M342.7,-231.1C349.9,-233.21 357.11,-235.37 364,-237.5 391.79,-246.11 423.23,-256.84 445.27,-264.52"/>
<polygon fill="#63b8ff" stroke="#63b8ff" points="343.84,-227.78 333.26,-228.37 341.89,-234.51 343.84,-227.78"/>
</g>
<!-- Node10 -->
<g id="node10" class="node">
<title>Node10</title>
<g id="a_node10"><a xlink:href="classReporter.html" target="_top" xlink:title="Reporter objects allow for the declaration of arbitrary data types that are aggregate values for a si...">
<polygon fill="white" stroke="#666666" points="507,-204 442,-204 442,-185 507,-185 507,-204"/>
<text text-anchor="middle" x="474.5" y="-192" font-family="Courier,monospace" font-size="10.00">Reporter</text>
</a>
</g>
</g>
<!-- Node10&#45;&gt;Node2 -->
<g id="edge9" class="edge">
<title>Node10&#45;&gt;Node2</title>
<path fill="none" stroke="#8b1a1a" d="M518.14,-187.05C528.51,-184.43 539.38,-180.98 549,-176.5 574.96,-164.4 600.97,-142.88 614.97,-130.33"/>
<polygon fill="#8b1a1a" stroke="#8b1a1a" points="517.6,-183.58 508.64,-189.23 519.17,-190.4 517.6,-183.58"/>
</g>
<!-- Node11 -->
<g id="node11" class="node">
<title>Node11</title>
<g id="a_node11"><a xlink:href="classOutputInterface.html" target="_top" xlink:title="A class to provide an common interface to objects requiring &quot;outputs&quot; option.">
<polygon fill="white" stroke="#666666" points="328,-179 221,-179 221,-160 328,-160 328,-179"/>
<text text-anchor="middle" x="274.5" y="-167" font-family="Courier,monospace" font-size="10.00">OutputInterface</text>
</a>
</g>
</g>
<!-- Node11&#45;&gt;Node10 -->
<g id="edge10" class="edge">
<title>Node11&#45;&gt;Node10</title>
<path fill="none" stroke="#63b8ff" d="M339.59,-177.59C373.7,-181.9 414.13,-187 441.58,-190.47"/>
<polygon fill="#63b8ff" stroke="#63b8ff" points="340.16,-174.14 329.8,-176.36 339.28,-181.08 340.16,-174.14"/>
</g>
<!-- Node12 -->
<g id="node12" class="node">
<title>Node12</title>
<g id="a_node12"><a xlink:href="classReporterInterface.html" target="_top" xlink:title="Interface to allow object to consume Reporter values.">
<polygon fill="white" stroke="#666666" points="534,-167 415,-167 415,-148 534,-148 534,-167"/>
<text text-anchor="middle" x="474.5" y="-155" font-family="Courier,monospace" font-size="10.00">ReporterInterface</text>
</a>
</g>
</g>
<!-- Node12&#45;&gt;Node2 -->
<g id="edge11" class="edge">
<title>Node12&#45;&gt;Node2</title>
<path fill="none" stroke="#8b1a1a" d="M527.26,-144.85C534.56,-143.06 541.97,-141.23 549,-139.5 560.83,-136.58 573.67,-133.4 585.41,-130.48"/>
<polygon fill="#8b1a1a" stroke="#8b1a1a" points="526.68,-141.39 517.8,-147.17 528.34,-148.18 526.68,-141.39"/>
</g>
<!-- Node13 -->
<g id="node13" class="node">
<title>Node13</title>
<g id="a_node13"><a xlink:href="classUserObjectInterface.html" target="_top" xlink:title="Interface for objects that need to use UserObjects.">
<polygon fill="white" stroke="#666666" points="540,-130 409,-130 409,-111 540,-111 540,-130"/>
<text text-anchor="middle" x="474.5" y="-118" font-family="Courier,monospace" font-size="10.00">UserObjectInterface</text>
</a>
</g>
</g>
<!-- Node13&#45;&gt;Node2 -->
<g id="edge12" class="edge">
<title>Node13&#45;&gt;Node2</title>
<path fill="none" stroke="#63b8ff" d="M551.77,-120.5C563.14,-120.5 574.47,-120.5 584.72,-120.5"/>
<polygon fill="#63b8ff" stroke="#63b8ff" points="551.93,-117 541.93,-120.5 551.93,-124 551.93,-117"/>
</g>
<!-- Node14 -->
<g id="node14" class="node">
<title>Node14</title>
<g id="a_node14"><a xlink:href="classPostprocessorInterface.html" target="_top" xlink:title="Interface class for classes which interact with Postprocessors.">
<polygon fill="white" stroke="#666666" points="549,-93 400,-93 400,-74 549,-74 549,-93"/>
<text text-anchor="middle" x="474.5" y="-81" font-family="Courier,monospace" font-size="10.00">PostprocessorInterface</text>
</a>
</g>
</g>
<!-- Node14&#45;&gt;Node2 -->
<g id="edge13" class="edge">
<title>Node14&#45;&gt;Node2</title>
<path fill="none" stroke="#63b8ff" d="M526.64,-96.12C545.76,-100.83 567.19,-106.12 585.19,-110.56"/>
<polygon fill="#63b8ff" stroke="#63b8ff" points="527.71,-92.77 517.17,-93.78 526.04,-99.57 527.71,-92.77"/>
</g>
<!-- Node15 -->
<g id="node15" class="node">
<title>Node15</title>
<g id="a_node15"><a xlink:href="classRestartable.html" target="_top" xlink:title="A class for creating restricted objects.">
<polygon fill="white" stroke="#666666" points="516,-56 433,-56 433,-37 516,-37 516,-56"/>
<text text-anchor="middle" x="474.5" y="-44" font-family="Courier,monospace" font-size="10.00">Restartable</text>
</a>
</g>
</g>
<!-- Node15&#45;&gt;Node2 -->
<g id="edge14" class="edge">
<title>Node15&#45;&gt;Node2</title>
<path fill="none" stroke="#63b8ff" d="M527.32,-57.3C534.75,-59.59 542.18,-62.31 549,-65.5 574.77,-77.58 600.85,-98.64 614.91,-110.9"/>
<polygon fill="#63b8ff" stroke="#63b8ff" points="528.52,-54.01 517.95,-54.66 526.62,-60.74 528.52,-54.01"/>
</g>
<!-- Node16 -->
<g id="node16" class="node">
<title>Node16</title>
<g id="a_node16"><a xlink:href="classPerfGraphInterface.html" target="_top" xlink:title="Interface for objects interacting with the PerfGraph.">
<polygon fill="white" stroke="#666666" points="537,-19 412,-19 412,0 537,0 537,-19"/>
<text text-anchor="middle" x="474.5" y="-7" font-family="Courier,monospace" font-size="10.00">PerfGraphInterface</text>
</a>
</g>
</g>
<!-- Node16&#45;&gt;Node2 -->
<g id="edge15" class="edge">
<title>Node16&#45;&gt;Node2</title>
<path fill="none" stroke="#63b8ff" d="M542.78,-23.99C544.92,-25.07 547,-26.24 549,-27.5 583.34,-49.09 609.56,-91.37 620.25,-110.58"/>
<polygon fill="#63b8ff" stroke="#63b8ff" points="544.36,-20.86 533.79,-20.08 541.57,-27.28 544.36,-20.86"/>
</g>
</g>
</svg>
