<?xml version="1.0" encoding="UTF-8" standalone="no"?>
<!DOCTYPE svg PUBLIC "-//W3C//DTD SVG 1.1//EN"
 "http://www.w3.org/Graphics/SVG/1.1/DTD/svg11.dtd">
<!-- Generated by graphviz version 7.0.5 (20221223.1930)
 -->
<!-- Title: ReporterStateBase Pages: 1 -->
<svg width="276pt" height="93pt"
 viewBox="0.00 0.00 276.00 93.00" xmlns="http://www.w3.org/2000/svg" xmlns:xlink="http://www.w3.org/1999/xlink">
<g id="graph0" class="graph" transform="scale(1 1) rotate(0) translate(4 89)">
<title>ReporterStateBase</title>
<!-- Node1 -->
<g id="node1" class="node">
<title>Node1</title>
<g id="a_node1"><a xlink:title="The base class for storing a Repoter&#39;s state.">
<polygon fill="#999999" stroke="#666666" points="193,-85 74,-85 74,-66 193,-66 193,-85"/>
<text text-anchor="middle" x="133.5" y="-73" font-family="Courier,monospace" font-size="10.00">ReporterStateBase</text>
</a>
</g>
</g>
<!-- Node2 -->
<g id="node2" class="node">
<title>Node2</title>
<g id="a_node2"><a xlink:href="classReporterState.html" target="_top" xlink:title=" ">
<polygon fill="white" stroke="#666666" points="125,-30 0,-30 0,0 125,0 125,-30"/>
<text text-anchor="start" x="8" y="-18" font-family="Courier,monospace" font-size="10.00">ReporterState&lt; std</text>
<text text-anchor="middle" x="62.5" y="-7" font-family="Courier,monospace" font-size="10.00">::vector&lt; T &gt; &gt;</text>
</a>
</g>
</g>
<!-- Node1&#45;&gt;Node2 -->
<g id="edge1" class="edge">
<title>Node1&#45;&gt;Node2</title>
<path fill="none" stroke="#63b8ff" d="M114.12,-58.53C103.47,-49.76 90.37,-38.96 80.02,-30.44"/>
<polygon fill="#63b8ff" stroke="#63b8ff" points="111.61,-60.99 121.55,-64.65 116.06,-55.59 111.61,-60.99"/>
</g>
<!-- Node3 -->
<g id="node3" class="node">
<title>Node3</title>
<g id="a_node3"><a xlink:href="classReporterState.html" target="_top" xlink:title="A special version of RestartableData to aid in storing Reporter values.">
<polygon fill="white" stroke="#666666" points="268,-24.5 143,-24.5 143,-5.5 268,-5.5 268,-24.5"/>
<text text-anchor="middle" x="205.5" y="-12.5" font-family="Courier,monospace" font-size="10.00">ReporterState&lt; T &gt;</text>
</a>
</g>
</g>
<!-- Node1&#45;&gt;Node3 -->
<g id="edge2" class="edge">
<title>Node1&#45;&gt;Node3</title>
<path fill="none" stroke="#63b8ff" d="M153.3,-58.41C166.56,-47.64 183.53,-33.85 194.46,-24.97"/>
<polygon fill="#63b8ff" stroke="#63b8ff" points="151.16,-55.64 145.61,-64.66 155.58,-61.07 151.16,-55.64"/>
</g>
</g>
</svg>
