<?xml version="1.0" encoding="UTF-8" standalone="no"?>
<!DOCTYPE svg PUBLIC "-//W3C//DTD SVG 1.1//EN"
 "http://www.w3.org/Graphics/SVG/1.1/DTD/svg11.dtd">
<!-- Generated by graphviz version 7.0.5 (20221223.1930)
 -->
<!-- Title: MortarExecutorInterface Pages: 1 -->
<svg width="551pt" height="113pt"
 viewBox="0.00 0.00 551.00 113.00" xmlns="http://www.w3.org/2000/svg" xmlns:xlink="http://www.w3.org/1999/xlink">
<g id="graph0" class="graph" transform="scale(1 1) rotate(0) translate(4 109)">
<title>MortarExecutorInterface</title>
<!-- Node1 -->
<g id="node1" class="node">
<title>Node1</title>
<g id="a_node1"><a xlink:title="Interface for notifications that the mortar mesh has been setup.">
<polygon fill="#999999" stroke="#666666" points="155,-62 0,-62 0,-43 155,-43 155,-62"/>
<text text-anchor="middle" x="77.5" y="-50" font-family="Courier,monospace" font-size="10.00">MortarExecutorInterface</text>
</a>
</g>
</g>
<!-- Node2 -->
<g id="node2" class="node">
<title>Node2</title>
<g id="a_node2"><a xlink:href="classComputeMortarFunctor.html" target="_top" xlink:title=" ">
<polygon fill="white" stroke="#666666" points="343,-105 206,-105 206,-86 343,-86 343,-105"/>
<text text-anchor="middle" x="274.5" y="-93" font-family="Courier,monospace" font-size="10.00">ComputeMortarFunctor</text>
</a>
</g>
</g>
<!-- Node1&#45;&gt;Node2 -->
<g id="edge1" class="edge">
<title>Node1&#45;&gt;Node2</title>
<path fill="none" stroke="#63b8ff" d="M134.76,-64.91C164.42,-71.45 200.33,-79.36 228.18,-85.51"/>
<polygon fill="#63b8ff" stroke="#63b8ff" points="135.72,-61.53 125.21,-62.8 134.22,-68.37 135.72,-61.53"/>
</g>
<!-- Node3 -->
<g id="node3" class="node">
<title>Node3</title>
<g id="a_node3"><a xlink:href="classMortarNodalAuxKernelTempl.html" target="_top" xlink:title="Base class for creating new nodally&#45;based mortar auxiliary kernels.">
<polygon fill="white" stroke="#666666" points="358,-67.5 191,-67.5 191,-37.5 358,-37.5 358,-67.5"/>
<text text-anchor="start" x="199" y="-55.5" font-family="Courier,monospace" font-size="10.00">MortarNodalAuxKernelTempl</text>
<text text-anchor="middle" x="274.5" y="-44.5" font-family="Courier,monospace" font-size="10.00">&lt; ComputeValueType &gt;</text>
</a>
</g>
</g>
<!-- Node1&#45;&gt;Node3 -->
<g id="edge2" class="edge">
<title>Node1&#45;&gt;Node3</title>
<path fill="none" stroke="#63b8ff" d="M166.56,-52.5C174.58,-52.5 182.69,-52.5 190.67,-52.5"/>
<polygon fill="#63b8ff" stroke="#63b8ff" points="166.8,-49 156.8,-52.5 166.8,-56 166.8,-49"/>
</g>
<!-- Node5 -->
<g id="node5" class="node">
<title>Node5</title>
<g id="a_node5"><a xlink:href="classMortarUserObjectThread.html" target="_top" xlink:title=" ">
<polygon fill="white" stroke="#666666" points="349,-19 200,-19 200,0 349,0 349,-19"/>
<text text-anchor="middle" x="274.5" y="-7" font-family="Courier,monospace" font-size="10.00">MortarUserObjectThread</text>
</a>
</g>
</g>
<!-- Node1&#45;&gt;Node5 -->
<g id="edge4" class="edge">
<title>Node1&#45;&gt;Node5</title>
<path fill="none" stroke="#63b8ff" d="M134.76,-40.09C164.42,-33.55 200.33,-25.64 228.18,-19.49"/>
<polygon fill="#63b8ff" stroke="#63b8ff" points="134.22,-36.63 125.21,-42.2 135.72,-43.47 134.22,-36.63"/>
</g>
<!-- Node4 -->
<g id="node4" class="node">
<title>Node4</title>
<g id="a_node4"><a xlink:href="classWeightedGapAux.html" target="_top" xlink:title="Compute a weighted gap based on a mortar discretization.">
<polygon fill="white" stroke="#666666" points="543,-62 394,-62 394,-43 543,-43 543,-62"/>
<text text-anchor="middle" x="468.5" y="-50" font-family="Courier,monospace" font-size="10.00">WeightedGapAux&lt; Real &gt;</text>
</a>
</g>
</g>
<!-- Node3&#45;&gt;Node4 -->
<g id="edge3" class="edge">
<title>Node3&#45;&gt;Node4</title>
<path fill="none" stroke="#63b8ff" d="M369.69,-52.5C377.76,-52.5 385.85,-52.5 393.72,-52.5"/>
<polygon fill="#63b8ff" stroke="#63b8ff" points="369.83,-49 359.83,-52.5 369.83,-56 369.83,-49"/>
</g>
</g>
</svg>
