<?xml version="1.0" encoding="UTF-8" standalone="no"?>
<!DOCTYPE svg PUBLIC "-//W3C//DTD SVG 1.1//EN"
 "http://www.w3.org/Graphics/SVG/1.1/DTD/svg11.dtd">
<!-- Generated by graphviz version 7.0.5 (20221223.1930)
 -->
<!-- Title: FVFaceResidualObject Pages: 1 -->
<!--zoomable 568 -->
<svg id="main" version="1.1" xmlns="http://www.w3.org/2000/svg" xmlns:xlink="http://www.w3.org/1999/xlink" xml:space="preserve" onload="init(evt)">
<style type="text/css"><![CDATA[
.edge:hover path { stroke: red; }
.edge:hover polygon { stroke: red; fill: red; }
]]></style>
<script type="text/javascript"><![CDATA[
var edges = document.getElementsByTagName('g');
if (edges && edges.length) {
  for (var i=0;i<edges.length;i++) {
    if (edges[i].id.substr(0,4)=='edge') {
      edges[i].setAttribute('class','edge');
    }
  }
}
]]></script>
        <defs>
                <circle id="rim" cx="0" cy="0" r="7"/>
                <circle id="rim2" cx="0" cy="0" r="3.5"/>
                <g id="zoomPlus">
                        <use xlink:href="#rim" fill="#404040">
                                <set attributeName="fill" to="#808080" begin="zoomplus.mouseover" end="zoomplus.mouseout"/>
                        </use>
                        <path d="M-4,0h8M0,-4v8" fill="none" stroke="white" stroke-width="1.5" pointer-events="none"/>
                </g>
                <g id="zoomMin">
                        <use xlink:href="#rim" fill="#404040">
                                <set attributeName="fill" to="#808080" begin="zoomminus.mouseover" end="zoomminus.mouseout"/>
                        </use>
                        <path d="M-4,0h8" fill="none" stroke="white" stroke-width="1.5" pointer-events="none"/>
                </g>
                <g id="dirArrow">
                        <path fill="none" stroke="white" stroke-width="1.5" d="M0,-3.0v7 M-2.5,-0.5L0,-3.0L2.5,-0.5"/>
                </g>
               <g id="resetDef">
                       <use xlink:href="#rim2" fill="#404040">
                               <set attributeName="fill" to="#808080" begin="reset.mouseover" end="reset.mouseout"/>
                       </use>
               </g>
        </defs>

<script type="text/javascript">
var viewWidth = 778;
var viewHeight = 568;
var sectionId = 'dynsection-0';
</script>
<script xlink:href="svgpan.js"/>
<svg id="graph" class="graph">
<g id="viewport">
<title>FVFaceResidualObject</title>
<!-- Node1 -->
<g id="node1" class="node">
<title>Node1</title>
<g id="a_node1"><a xlink:title="Interface class for a finite volume residual object whose residuals are based on faces.">
<polygon fill="#999999" stroke="#666666" points="137,-233.5 0,-233.5 0,-214.5 137,-214.5 137,-233.5"/>
<text text-anchor="middle" x="68.5" y="-221.5" font-family="Courier,monospace" font-size="10.00">FVFaceResidualObject</text>
</a>
</g>
</g>
<!-- Node2 -->
<g id="node2" class="node">
<title>Node2</title>
<g id="a_node2"><a xlink:href="classFVFluxBC.html" target="_top" xlink:title="Provides an interface for computing residual contributions from finite volume numerical fluxes comput...">
<polygon fill="white" stroke="#666666" points="265,-437.5 200,-437.5 200,-418.5 265,-418.5 265,-437.5"/>
<text text-anchor="middle" x="232.5" y="-425.5" font-family="Courier,monospace" font-size="10.00">FVFluxBC</text>
</a>
</g>
</g>
<!-- Node1&#45;&gt;Node2 -->
<g id="edge1" class="edge">
<title>Node1&#45;&gt;Node2</title>
<path fill="none" stroke="#63b8ff" d="M84.43,-242.8C118,-285.08 198.48,-386.42 223.76,-418.26"/>
<polygon fill="#63b8ff" stroke="#63b8ff" points="87.21,-240.68 78.25,-235.02 81.73,-245.03 87.21,-240.68"/>
</g>
<!-- Node10 -->
<g id="node10" class="node">
<title>Node10</title>
<g id="a_node10"><a xlink:href="classFVFluxKernel.html" target="_top" xlink:title="FVFluxKernel is used for calculating residual contributions from numerical fluxes from surface integr...">
<polygon fill="white" stroke="#666666" points="277,-233.5 188,-233.5 188,-214.5 277,-214.5 277,-233.5"/>
<text text-anchor="middle" x="232.5" y="-221.5" font-family="Courier,monospace" font-size="10.00">FVFluxKernel</text>
</a>
</g>
</g>
<!-- Node1&#45;&gt;Node10 -->
<g id="edge9" class="edge">
<title>Node1&#45;&gt;Node10</title>
<path fill="none" stroke="#63b8ff" d="M148.5,-224C161.93,-224 175.44,-224 187.54,-224"/>
<polygon fill="#63b8ff" stroke="#63b8ff" points="148.78,-220.5 138.78,-224 148.78,-227.5 148.78,-220.5"/>
</g>
<!-- Node17 -->
<g id="node17" class="node">
<title>Node17</title>
<g id="a_node17"><a xlink:href="classFVInterfaceKernel.html" target="_top" xlink:title="Base class for creating kernels that interface physics between subdomains.">
<polygon fill="white" stroke="#666666" points="292,-86.5 173,-86.5 173,-67.5 292,-67.5 292,-86.5"/>
<text text-anchor="middle" x="232.5" y="-74.5" font-family="Courier,monospace" font-size="10.00">FVInterfaceKernel</text>
</a>
</g>
</g>
<!-- Node1&#45;&gt;Node17 -->
<g id="edge16" class="edge">
<title>Node1&#45;&gt;Node17</title>
<path fill="none" stroke="#63b8ff" d="M88.63,-206.64C122.88,-175.56 193.63,-111.37 220.67,-86.83"/>
<polygon fill="#63b8ff" stroke="#63b8ff" points="86.56,-203.8 81.5,-213.11 91.26,-208.98 86.56,-203.8"/>
</g>
<!-- Node3 -->
<g id="node3" class="node">
<title>Node3</title>
<g id="a_node3"><a xlink:href="classFVBoundaryScalarLagrangeMultiplierConstraint.html" target="_top" xlink:title="Base class for implementing constraints on boundaries for finite volume variables using scalar Lagran...">
<polygon fill="white" stroke="#666666" points="504,-560 343,-560 343,-530 504,-530 504,-560"/>
<text text-anchor="start" x="351" y="-548" font-family="Courier,monospace" font-size="10.00">FVBoundaryScalarLagrange</text>
<text text-anchor="middle" x="423.5" y="-537" font-family="Courier,monospace" font-size="10.00">MultiplierConstraint</text>
</a>
</g>
</g>
<!-- Node2&#45;&gt;Node3 -->
<g id="edge2" class="edge">
<title>Node2&#45;&gt;Node3</title>
<path fill="none" stroke="#63b8ff" d="M247.54,-446.88C264.33,-468.11 294.41,-502.08 328,-521 333.9,-524.32 340.26,-527.19 346.8,-529.67"/>
<polygon fill="#63b8ff" stroke="#63b8ff" points="250.39,-444.86 241.52,-439.07 244.85,-449.12 250.39,-444.86"/>
</g>
<!-- Node5 -->
<g id="node5" class="node">
<title>Node5</title>
<g id="a_node5"><a xlink:href="classFVConstantScalarOutflowBC.html" target="_top" xlink:title="Constant velocity scalar advection boundary conditions.">
<polygon fill="white" stroke="#666666" points="507,-511.5 340,-511.5 340,-492.5 507,-492.5 507,-511.5"/>
<text text-anchor="middle" x="423.5" y="-499.5" font-family="Courier,monospace" font-size="10.00">FVConstantScalarOutflowBC</text>
</a>
</g>
</g>
<!-- Node2&#45;&gt;Node5 -->
<g id="edge4" class="edge">
<title>Node2&#45;&gt;Node5</title>
<path fill="none" stroke="#63b8ff" d="M256.12,-444.47C274.58,-457.13 301.81,-474.1 328,-484 336.44,-487.19 345.52,-489.84 354.6,-492.02"/>
<polygon fill="#63b8ff" stroke="#63b8ff" points="258.26,-441.69 248.06,-438.81 254.24,-447.42 258.26,-441.69"/>
</g>
<!-- Node6 -->
<g id="node6" class="node">
<title>Node6</title>
<g id="a_node6"><a xlink:href="classFVFunctionNeumannBC.html" target="_top" xlink:title="Neumann boundary (== fixed inflow) condition for finite volume scheme.">
<polygon fill="white" stroke="#666666" points="489,-474.5 358,-474.5 358,-455.5 489,-455.5 489,-474.5"/>
<text text-anchor="middle" x="423.5" y="-462.5" font-family="Courier,monospace" font-size="10.00">FVFunctionNeumannBC</text>
</a>
</g>
</g>
<!-- Node2&#45;&gt;Node6 -->
<g id="edge5" class="edge">
<title>Node2&#45;&gt;Node6</title>
<path fill="none" stroke="#63b8ff" d="M276.67,-436.78C292.77,-440.02 311.22,-443.71 328,-447 341.44,-449.63 355.97,-452.42 369.5,-455"/>
<polygon fill="#63b8ff" stroke="#63b8ff" points="277.39,-433.35 266.9,-434.8 276.01,-440.21 277.39,-433.35"/>
</g>
<!-- Node7 -->
<g id="node7" class="node">
<title>Node7</title>
<g id="a_node7"><a xlink:href="classFVFunctorNeumannBC.html" target="_top" xlink:title="Neumann boundary (== inflow) condition for finite volume scheme where the inflow is given as a functo...">
<polygon fill="white" stroke="#666666" points="486,-437.5 361,-437.5 361,-418.5 486,-418.5 486,-437.5"/>
<text text-anchor="middle" x="423.5" y="-425.5" font-family="Courier,monospace" font-size="10.00">FVFunctorNeumannBC</text>
</a>
</g>
</g>
<!-- Node2&#45;&gt;Node7 -->
<g id="edge6" class="edge">
<title>Node2&#45;&gt;Node7</title>
<path fill="none" stroke="#63b8ff" d="M276.39,-428C301.25,-428 332.99,-428 360.53,-428"/>
<polygon fill="#63b8ff" stroke="#63b8ff" points="276.65,-424.5 266.65,-428 276.65,-431.5 276.65,-424.5"/>
</g>
<!-- Node8 -->
<g id="node8" class="node">
<title>Node8</title>
<g id="a_node8"><a xlink:href="classFVNeumannBC.html" target="_top" xlink:title="Neumann boundary (== fixed inflow) condition for finite volume scheme.">
<polygon fill="white" stroke="#666666" points="465,-400.5 382,-400.5 382,-381.5 465,-381.5 465,-400.5"/>
<text text-anchor="middle" x="423.5" y="-388.5" font-family="Courier,monospace" font-size="10.00">FVNeumannBC</text>
</a>
</g>
</g>
<!-- Node2&#45;&gt;Node8 -->
<g id="edge7" class="edge">
<title>Node2&#45;&gt;Node8</title>
<path fill="none" stroke="#63b8ff" d="M276.2,-419.64C307.73,-413.47 350.39,-405.12 381.5,-399.03"/>
<polygon fill="#63b8ff" stroke="#63b8ff" points="275.76,-416.16 266.62,-421.52 277.11,-423.03 275.76,-416.16"/>
</g>
<!-- Node9 -->
<g id="node9" class="node">
<title>Node9</title>
<g id="a_node9"><a xlink:href="classFVOrthogonalBoundaryDiffusion.html" target="_top" xlink:title="This class computes a boundary diffusion flux by taking the difference between a provided boundary va...">
<polygon fill="white" stroke="#666666" points="519,-363.5 328,-363.5 328,-344.5 519,-344.5 519,-363.5"/>
<text text-anchor="middle" x="423.5" y="-351.5" font-family="Courier,monospace" font-size="10.00">FVOrthogonalBoundaryDiffusion</text>
</a>
</g>
</g>
<!-- Node2&#45;&gt;Node9 -->
<g id="edge8" class="edge">
<title>Node2&#45;&gt;Node9</title>
<path fill="none" stroke="#63b8ff" d="M256.51,-411.7C275.01,-399.33 302.09,-382.83 328,-373 337.54,-369.38 347.9,-366.4 358.15,-363.97"/>
<polygon fill="#63b8ff" stroke="#63b8ff" points="254.71,-408.69 248.43,-417.23 258.66,-414.47 254.71,-408.69"/>
</g>
<!-- Node4 -->
<g id="node4" class="node">
<title>Node4</title>
<g id="a_node4"><a xlink:href="classFVBoundaryIntegralValueConstraint.html" target="_top" xlink:title="This boundary object implements the residuals that enforce the constraint on the boundary.">
<polygon fill="white" stroke="#666666" points="770,-554.5 555,-554.5 555,-535.5 770,-535.5 770,-554.5"/>
<text text-anchor="middle" x="662.5" y="-542.5" font-family="Courier,monospace" font-size="10.00">FVBoundaryIntegralValueConstraint</text>
</a>
</g>
</g>
<!-- Node3&#45;&gt;Node4 -->
<g id="edge3" class="edge">
<title>Node3&#45;&gt;Node4</title>
<path fill="none" stroke="#63b8ff" d="M515.9,-545C528.58,-545 541.69,-545 554.61,-545"/>
<polygon fill="#63b8ff" stroke="#63b8ff" points="515.92,-541.5 505.92,-545 515.92,-548.5 515.92,-541.5"/>
</g>
<!-- Node11 -->
<g id="node11" class="node">
<title>Node11</title>
<g id="a_node11"><a xlink:href="classFVAdvection.html" target="_top" xlink:title=" ">
<polygon fill="white" stroke="#666666" points="465,-326.5 382,-326.5 382,-307.5 465,-307.5 465,-326.5"/>
<text text-anchor="middle" x="423.5" y="-314.5" font-family="Courier,monospace" font-size="10.00">FVAdvection</text>
</a>
</g>
</g>
<!-- Node10&#45;&gt;Node11 -->
<g id="edge10" class="edge">
<title>Node10&#45;&gt;Node11</title>
<path fill="none" stroke="#63b8ff" d="M250.31,-241.61C267.98,-259.01 297.4,-284.98 328,-299 344.7,-306.65 364.5,-311.05 381.65,-313.58"/>
<polygon fill="#63b8ff" stroke="#63b8ff" points="253.22,-239.57 243.7,-234.93 248.25,-244.5 253.22,-239.57"/>
</g>
<!-- Node12 -->
<g id="node12" class="node">
<title>Node12</title>
<g id="a_node12"><a xlink:href="classFVAnisotropicDiffusion.html" target="_top" xlink:title="FVAnisotropicDiffusion implements a standard diffusion term but with a diagonal tensor diffusion coef...">
<polygon fill="white" stroke="#666666" points="498,-289.5 349,-289.5 349,-270.5 498,-270.5 498,-289.5"/>
<text text-anchor="middle" x="423.5" y="-277.5" font-family="Courier,monospace" font-size="10.00">FVAnisotropicDiffusion</text>
</a>
</g>
</g>
<!-- Node10&#45;&gt;Node12 -->
<g id="edge11" class="edge">
<title>Node10&#45;&gt;Node12</title>
<path fill="none" stroke="#63b8ff" d="M265.37,-238.62C283.44,-246.44 306.64,-255.74 328,-262 338.5,-265.08 349.81,-267.76 360.83,-270.05"/>
<polygon fill="#63b8ff" stroke="#63b8ff" points="266.79,-235.42 256.23,-234.58 263.97,-241.82 266.79,-235.42"/>
</g>
<!-- Node13 -->
<g id="node13" class="node">
<title>Node13</title>
<g id="a_node13"><a xlink:href="classFVDiffusion.html" target="_top" xlink:title="FVDiffusion implements a standard diffusion term:">
<polygon fill="white" stroke="#666666" points="465,-252.5 382,-252.5 382,-233.5 465,-233.5 465,-252.5"/>
<text text-anchor="middle" x="423.5" y="-240.5" font-family="Courier,monospace" font-size="10.00">FVDiffusion</text>
</a>
</g>
</g>
<!-- Node10&#45;&gt;Node13 -->
<g id="edge12" class="edge">
<title>Node10&#45;&gt;Node13</title>
<path fill="none" stroke="#63b8ff" d="M288.42,-229.52C318.26,-232.52 354.52,-236.17 381.81,-238.91"/>
<polygon fill="#63b8ff" stroke="#63b8ff" points="289.14,-226.08 278.84,-228.56 288.44,-233.04 289.14,-226.08"/>
</g>
<!-- Node14 -->
<g id="node14" class="node">
<title>Node14</title>
<g id="a_node14"><a xlink:href="classFVDivergence.html" target="_top" xlink:title="FVDivergence implements a standard divergence term:">
<polygon fill="white" stroke="#666666" points="468,-215.5 379,-215.5 379,-196.5 468,-196.5 468,-215.5"/>
<text text-anchor="middle" x="423.5" y="-203.5" font-family="Courier,monospace" font-size="10.00">FVDivergence</text>
</a>
</g>
</g>
<!-- Node10&#45;&gt;Node14 -->
<g id="edge13" class="edge">
<title>Node10&#45;&gt;Node14</title>
<path fill="none" stroke="#63b8ff" d="M288.79,-218.73C317.39,-216.01 351.82,-212.73 378.58,-210.18"/>
<polygon fill="#63b8ff" stroke="#63b8ff" points="288.47,-215.25 278.84,-219.68 289.13,-222.22 288.47,-215.25"/>
</g>
<!-- Node15 -->
<g id="node15" class="node">
<title>Node15</title>
<g id="a_node15"><a xlink:href="classFVMatAdvection.html" target="_top" xlink:title=" ">
<polygon fill="white" stroke="#666666" points="474,-178.5 373,-178.5 373,-159.5 474,-159.5 474,-178.5"/>
<text text-anchor="middle" x="423.5" y="-166.5" font-family="Courier,monospace" font-size="10.00">FVMatAdvection</text>
</a>
</g>
</g>
<!-- Node10&#45;&gt;Node15 -->
<g id="edge14" class="edge">
<title>Node10&#45;&gt;Node15</title>
<path fill="none" stroke="#63b8ff" d="M266.91,-209.72C284.79,-202.48 307.33,-193.97 328,-188 342.31,-183.87 358.09,-180.31 372.59,-177.43"/>
<polygon fill="#63b8ff" stroke="#63b8ff" points="265.75,-206.41 257.84,-213.46 268.42,-212.89 265.75,-206.41"/>
</g>
<!-- Node16 -->
<g id="node16" class="node">
<title>Node16</title>
<g id="a_node16"><a xlink:href="classFVOrthogonalDiffusion.html" target="_top" xlink:title="This class computes the intercell diffusion flux by taking the difference between neighboring cell ce...">
<polygon fill="white" stroke="#666666" points="495,-141.5 352,-141.5 352,-122.5 495,-122.5 495,-141.5"/>
<text text-anchor="middle" x="423.5" y="-129.5" font-family="Courier,monospace" font-size="10.00">FVOrthogonalDiffusion</text>
</a>
</g>
</g>
<!-- Node10&#45;&gt;Node16 -->
<g id="edge15" class="edge">
<title>Node10&#45;&gt;Node16</title>
<path fill="none" stroke="#63b8ff" d="M251.21,-206.2C269.04,-189.34 298.13,-164.63 328,-151 336.07,-147.32 344.85,-144.35 353.7,-141.95"/>
<polygon fill="#63b8ff" stroke="#63b8ff" points="248.79,-203.67 244.05,-213.15 253.66,-208.69 248.79,-203.67"/>
</g>
<!-- Node18 -->
<g id="node18" class="node">
<title>Node18</title>
<g id="a_node18"><a xlink:href="classFVDiffusionInterface.html" target="_top" xlink:title=" ">
<polygon fill="white" stroke="#666666" points="492,-104.5 355,-104.5 355,-85.5 492,-85.5 492,-104.5"/>
<text text-anchor="middle" x="423.5" y="-92.5" font-family="Courier,monospace" font-size="10.00">FVDiffusionInterface</text>
</a>
</g>
</g>
<!-- Node17&#45;&gt;Node18 -->
<g id="edge17" class="edge">
<title>Node17&#45;&gt;Node18</title>
<path fill="none" stroke="#63b8ff" d="M303.59,-83.67C320.23,-85.26 337.96,-86.95 354.51,-88.53"/>
<polygon fill="#63b8ff" stroke="#63b8ff" points="304.06,-80.2 293.77,-82.74 303.39,-87.17 304.06,-80.2"/>
</g>
<!-- Node19 -->
<g id="node19" class="node">
<title>Node19</title>
<g id="a_node19"><a xlink:href="classFVOneVarDiffusionInterface.html" target="_top" xlink:title=" ">
<polygon fill="white" stroke="#666666" points="510,-67.5 337,-67.5 337,-48.5 510,-48.5 510,-67.5"/>
<text text-anchor="middle" x="423.5" y="-55.5" font-family="Courier,monospace" font-size="10.00">FVOneVarDiffusionInterface</text>
</a>
</g>
</g>
<!-- Node17&#45;&gt;Node19 -->
<g id="edge18" class="edge">
<title>Node17&#45;&gt;Node19</title>
<path fill="none" stroke="#63b8ff" d="M303.38,-69.97C314.24,-68.88 325.56,-67.75 336.71,-66.62"/>
<polygon fill="#63b8ff" stroke="#63b8ff" points="303.37,-66.46 293.77,-70.94 304.07,-73.42 303.37,-66.46"/>
</g>
<!-- Node20 -->
<g id="node20" class="node">
<title>Node20</title>
<g id="a_node20"><a xlink:href="classFVScalarLagrangeMultiplierInterface.html" target="_top" xlink:title=" ">
<polygon fill="white" stroke="#666666" points="510,-30 337,-30 337,0 510,0 510,-30"/>
<text text-anchor="start" x="345" y="-18" font-family="Courier,monospace" font-size="10.00">FVScalarLagrangeMultiplier</text>
<text text-anchor="middle" x="423.5" y="-7" font-family="Courier,monospace" font-size="10.00">Interface</text>
</a>
</g>
</g>
<!-- Node17&#45;&gt;Node20 -->
<g id="edge19" class="edge">
<title>Node17&#45;&gt;Node20</title>
<path fill="none" stroke="#63b8ff" d="M266.24,-62.58C284.25,-54.96 307.12,-45.82 328,-39 337.25,-35.98 347.12,-33.11 356.85,-30.46"/>
<polygon fill="#63b8ff" stroke="#63b8ff" points="264.93,-59.33 257.11,-66.49 267.68,-65.77 264.93,-59.33"/>
</g>
<!-- Node21 -->
<g id="node21" class="node">
<title>Node21</title>
<g id="a_node21"><a xlink:href="classFVTwoVarContinuityConstraint.html" target="_top" xlink:title=" ">
<polygon fill="white" stroke="#666666" points="755,-24.5 570,-24.5 570,-5.5 755,-5.5 755,-24.5"/>
<text text-anchor="middle" x="662.5" y="-12.5" font-family="Courier,monospace" font-size="10.00">FVTwoVarContinuityConstraint</text>
</a>
</g>
</g>
<!-- Node20&#45;&gt;Node21 -->
<g id="edge20" class="edge">
<title>Node20&#45;&gt;Node21</title>
<path fill="none" stroke="#63b8ff" d="M521.86,-15C537.74,-15 554.16,-15 569.9,-15"/>
<polygon fill="#63b8ff" stroke="#63b8ff" points="521.91,-11.5 511.91,-15 521.91,-18.5 521.91,-11.5"/>
</g>
</g>
</svg>
        <g id="navigator" transform="translate(0 0)" fill="#404254">
                <rect fill="#f2f5e9" fill-opacity="0.5" stroke="#606060" stroke-width=".5" x="0" y="0" width="60" height="60"/>
                <use id="zoomplus" xlink:href="#zoomPlus" x="17" y="9" onmousedown="handleZoom(evt,'in')"/>
                <use id="zoomminus" xlink:href="#zoomMin" x="42" y="9" onmousedown="handleZoom(evt,'out')"/>
                <use id="reset" xlink:href="#resetDef" x="30" y="36" onmousedown="handleReset()"/>
                <g id="arrowUp" xlink:href="#dirArrow" transform="translate(30 24)" onmousedown="handlePan(0,-1)">
                  <use xlink:href="#rim" fill="#404040">
                        <set attributeName="fill" to="#808080" begin="arrowUp.mouseover" end="arrowUp.mouseout"/>
                  </use>
                  <path fill="none" stroke="white" stroke-width="1.5" d="M0,-3.0v7 M-2.5,-0.5L0,-3.0L2.5,-0.5"/>
                </g>
                <g id="arrowRight" xlink:href="#dirArrow" transform="rotate(90) translate(36 -43)" onmousedown="handlePan(1,0)">
                  <use xlink:href="#rim" fill="#404040">
                        <set attributeName="fill" to="#808080" begin="arrowRight.mouseover" end="arrowRight.mouseout"/>
                  </use>
                  <path fill="none" stroke="white" stroke-width="1.5" d="M0,-3.0v7 M-2.5,-0.5L0,-3.0L2.5,-0.5"/>
                </g>
                <g id="arrowDown" xlink:href="#dirArrow" transform="rotate(180) translate(-30 -48)" onmousedown="handlePan(0,1)">
                  <use xlink:href="#rim" fill="#404040">
                        <set attributeName="fill" to="#808080" begin="arrowDown.mouseover" end="arrowDown.mouseout"/>
                  </use>
                  <path fill="none" stroke="white" stroke-width="1.5" d="M0,-3.0v7 M-2.5,-0.5L0,-3.0L2.5,-0.5"/>
                </g>
                <g id="arrowLeft" xlink:href="#dirArrow" transform="rotate(270) translate(-36 17)" onmousedown="handlePan(-1,0)">
                  <use xlink:href="#rim" fill="#404040">
                        <set attributeName="fill" to="#808080" begin="arrowLeft.mouseover" end="arrowLeft.mouseout"/>
                  </use>
                  <path fill="none" stroke="white" stroke-width="1.5" d="M0,-3.0v7 M-2.5,-0.5L0,-3.0L2.5,-0.5"/>
                </g>
        </g>
        <svg viewBox="0 0 15 15" width="100%" height="30px" preserveAspectRatio="xMaxYMin meet">
         <g id="arrow_out" transform="scale(0.3 0.3)">
          <a xlink:href="classFVFaceResidualObject__inherit__graph_org.svg" target="_base">
           <rect id="button" ry="5" rx="5" y="6" x="6" height="38" width="38"
                fill="#f2f5e9" fill-opacity="0.5" stroke="#606060" stroke-width="1.0"/>
           <path id="arrow"
             d="M 11.500037,31.436501 C 11.940474,20.09759 22.043105,11.32322 32.158766,21.979434 L 37.068811,17.246167 C 37.068811,17.246167 37.088388,32 37.088388,32 L 22.160133,31.978069 C 22.160133,31.978069 26.997745,27.140456 26.997745,27.140456 C 18.528582,18.264221 13.291696,25.230495 11.500037,31.436501 z"
             style="fill:#404040;"/>
          </a>
         </g>
        </svg>
</svg>
