<?xml version="1.0" encoding="UTF-8" standalone="no"?>
<!DOCTYPE svg PUBLIC "-//W3C//DTD SVG 1.1//EN"
 "http://www.w3.org/Graphics/SVG/1.1/DTD/svg11.dtd">
<!-- Generated by graphviz version 7.0.5 (20221223.1930)
 -->
<!-- Title: ElementVectorPostprocessor Pages: 1 -->
<svg width="1967pt" height="683pt"
 viewBox="0.00 0.00 1967.00 683.00" xmlns="http://www.w3.org/2000/svg" xmlns:xlink="http://www.w3.org/1999/xlink">
<g id="graph0" class="graph" transform="scale(1 1) rotate(0) translate(4 679)">
<title>ElementVectorPostprocessor</title>
<!-- Node1 -->
<g id="node1" class="node">
<title>Node1</title>
<g id="a_node1"><a xlink:title=" ">
<polygon fill="#999999" stroke="#666666" points="1206,-120 1033,-120 1033,-101 1206,-101 1206,-120"/>
<text text-anchor="middle" x="1119.5" y="-108" font-family="Courier,monospace" font-size="10.00">ElementVectorPostprocessor</text>
</a>
</g>
</g>
<!-- Node34 -->
<g id="node34" class="node">
<title>Node34</title>
<g id="a_node34"><a xlink:href="classElementVariableVectorPostprocessor.html" target="_top" xlink:title="Base class VectorPostprocessors operating on elemental variables.">
<polygon fill="white" stroke="#666666" points="1463,-216 1242,-216 1242,-197 1463,-197 1463,-216"/>
<text text-anchor="middle" x="1352.5" y="-204" font-family="Courier,monospace" font-size="10.00">ElementVariableVectorPostprocessor</text>
</a>
</g>
</g>
<!-- Node1&#45;&gt;Node34 -->
<g id="edge33" class="edge">
<title>Node1&#45;&gt;Node34</title>
<path fill="none" stroke="#63b8ff" d="M1140.85,-127.31C1163.9,-145.42 1203.3,-173.63 1242,-188.5 1250.36,-191.71 1259.3,-194.35 1268.33,-196.52"/>
<polygon fill="#63b8ff" stroke="#63b8ff" points="1143.2,-124.71 1133.2,-121.19 1138.82,-130.17 1143.2,-124.71"/>
</g>
<!-- Node41 -->
<g id="node41" class="node">
<title>Node41</title>
<g id="a_node41"><a xlink:href="classElementVariablesDifferenceMax.html" target="_top" xlink:title="Finds the largest difference between two variable fields.">
<polygon fill="white" stroke="#666666" points="1448,-179 1257,-179 1257,-160 1448,-160 1448,-179"/>
<text text-anchor="middle" x="1352.5" y="-167" font-family="Courier,monospace" font-size="10.00">ElementVariablesDifferenceMax</text>
</a>
</g>
</g>
<!-- Node1&#45;&gt;Node41 -->
<g id="edge40" class="edge">
<title>Node1&#45;&gt;Node41</title>
<path fill="none" stroke="#63b8ff" d="M1156.44,-124.35C1180.39,-133.14 1212.72,-144.21 1242,-151.5 1254.24,-154.55 1267.39,-157.22 1280.18,-159.5"/>
<polygon fill="#63b8ff" stroke="#63b8ff" points="1157.75,-121.1 1147.16,-120.89 1155.31,-127.66 1157.75,-121.1"/>
</g>
<!-- Node42 -->
<g id="node42" class="node">
<title>Node42</title>
<g id="a_node42"><a xlink:href="classMaterialVectorPostprocessor.html" target="_top" xlink:title="This postprocessor records all scalar material properties of the specified material object on specifi...">
<polygon fill="white" stroke="#666666" points="1442,-142 1263,-142 1263,-123 1442,-123 1442,-142"/>
<text text-anchor="middle" x="1352.5" y="-130" font-family="Courier,monospace" font-size="10.00">MaterialVectorPostprocessor</text>
</a>
</g>
</g>
<!-- Node1&#45;&gt;Node42 -->
<g id="edge41" class="edge">
<title>Node1&#45;&gt;Node42</title>
<path fill="none" stroke="#63b8ff" d="M1217.57,-119.75C1232.59,-121.18 1248.04,-122.65 1262.86,-124.06"/>
<polygon fill="#63b8ff" stroke="#63b8ff" points="1217.98,-116.27 1207.69,-118.8 1217.32,-123.24 1217.98,-116.27"/>
</g>
<!-- Node43 -->
<g id="node43" class="node">
<title>Node43</title>
<g id="a_node43"><a xlink:href="classMeshDivisionFunctorReductionVectorPostprocessor.html" target="_top" xlink:title="This MeshDivisionFunctorReductionVectorPostprocessor serves to integrate functors based on the index ...">
<polygon fill="white" stroke="#666666" points="1445,-104.5 1260,-104.5 1260,-74.5 1445,-74.5 1445,-104.5"/>
<text text-anchor="start" x="1268" y="-92.5" font-family="Courier,monospace" font-size="10.00">MeshDivisionFunctorReduction</text>
<text text-anchor="middle" x="1352.5" y="-81.5" font-family="Courier,monospace" font-size="10.00">VectorPostprocessor</text>
</a>
</g>
</g>
<!-- Node1&#45;&gt;Node43 -->
<g id="edge42" class="edge">
<title>Node1&#45;&gt;Node43</title>
<path fill="none" stroke="#63b8ff" d="M1217.35,-101.7C1231.39,-100.42 1245.81,-99.11 1259.75,-97.84"/>
<polygon fill="#63b8ff" stroke="#63b8ff" points="1217.34,-98.18 1207.69,-102.57 1217.97,-105.15 1217.34,-98.18"/>
</g>
<!-- Node44 -->
<g id="node44" class="node">
<title>Node44</title>
<g id="a_node44"><a xlink:href="classSpatialAverageBase.html" target="_top" xlink:title="Base clase for computing spatial average of a variable over simple spatial regions of the computation...">
<polygon fill="white" stroke="#666666" points="1415,-56 1290,-56 1290,-37 1415,-37 1415,-56"/>
<text text-anchor="middle" x="1352.5" y="-44" font-family="Courier,monospace" font-size="10.00">SpatialAverageBase</text>
</a>
</g>
</g>
<!-- Node1&#45;&gt;Node44 -->
<g id="edge43" class="edge">
<title>Node1&#45;&gt;Node44</title>
<path fill="none" stroke="#63b8ff" d="M1153.75,-96.3C1177.87,-86.47 1211.49,-73.72 1242,-65.5 1257.28,-61.38 1274,-57.95 1289.68,-55.19"/>
<polygon fill="#63b8ff" stroke="#63b8ff" points="1152.69,-92.96 1144.78,-100.01 1155.36,-99.43 1152.69,-92.96"/>
</g>
<!-- Node47 -->
<g id="node47" class="node">
<title>Node47</title>
<g id="a_node47"><a xlink:href="classVariableValueVolumeHistogram.html" target="_top" xlink:title="Compute a histogram of volume fractions binned according to variable values.">
<polygon fill="white" stroke="#666666" points="1445,-19 1260,-19 1260,0 1445,0 1445,-19"/>
<text text-anchor="middle" x="1352.5" y="-7" font-family="Courier,monospace" font-size="10.00">VariableValueVolumeHistogram</text>
</a>
</g>
</g>
<!-- Node1&#45;&gt;Node47 -->
<g id="edge46" class="edge">
<title>Node1&#45;&gt;Node47</title>
<path fill="none" stroke="#63b8ff" d="M1139.93,-93.18C1162.7,-73.9 1202.37,-43.38 1242,-27.5 1250.05,-24.28 1258.65,-21.63 1267.36,-19.46"/>
<polygon fill="#63b8ff" stroke="#63b8ff" points="1137.68,-90.5 1132.41,-99.68 1142.26,-95.79 1137.68,-90.5"/>
</g>
<!-- Node2 -->
<g id="node2" class="node">
<title>Node2</title>
<g id="a_node2"><a xlink:href="classElementUserObject.html" target="_top" xlink:title=" ">
<polygon fill="white" stroke="#666666" points="991,-194 872,-194 872,-175 991,-175 991,-194"/>
<text text-anchor="middle" x="931.5" y="-182" font-family="Courier,monospace" font-size="10.00">ElementUserObject</text>
</a>
</g>
</g>
<!-- Node2&#45;&gt;Node1 -->
<g id="edge1" class="edge">
<title>Node2&#45;&gt;Node1</title>
<path fill="none" stroke="#63b8ff" d="M967.84,-170.44C1004.59,-155.82 1061.17,-133.31 1093.52,-120.44"/>
<polygon fill="#63b8ff" stroke="#63b8ff" points="966.99,-167.01 958.99,-173.96 969.58,-173.52 966.99,-167.01"/>
</g>
<!-- Node3 -->
<g id="node3" class="node">
<title>Node3</title>
<g id="a_node3"><a xlink:href="classUserObject.html" target="_top" xlink:title="Base class for user&#45;specific data.">
<polygon fill="white" stroke="#666666" points="764,-342 687,-342 687,-323 764,-323 764,-342"/>
<text text-anchor="middle" x="725.5" y="-330" font-family="Courier,monospace" font-size="10.00">UserObject</text>
</a>
</g>
</g>
<!-- Node3&#45;&gt;Node2 -->
<g id="edge2" class="edge">
<title>Node3&#45;&gt;Node2</title>
<path fill="none" stroke="#63b8ff" d="M775.53,-331.34C793.68,-329.08 813.78,-324.28 830,-314.5 880.09,-284.31 914.4,-219.11 926.09,-194.33"/>
<polygon fill="#63b8ff" stroke="#63b8ff" points="775.35,-327.85 765.74,-332.32 776.04,-334.81 775.35,-327.85"/>
</g>
<!-- Node4 -->
<g id="node4" class="node">
<title>Node4</title>
<g id="a_node4"><a xlink:href="classMooseObject.html" target="_top" xlink:title="Every object that can be built by the factory should be derived from this class.">
<polygon fill="white" stroke="#666666" points="534,-601 451,-601 451,-582 534,-582 534,-601"/>
<text text-anchor="middle" x="492.5" y="-589" font-family="Courier,monospace" font-size="10.00">MooseObject</text>
</a>
</g>
</g>
<!-- Node4&#45;&gt;Node3 -->
<g id="edge3" class="edge">
<title>Node4&#45;&gt;Node3</title>
<path fill="none" stroke="#63b8ff" d="M545.21,-589.08C559.11,-586.45 573.46,-581.74 585,-573.5 671.16,-511.97 711.99,-379.34 722,-342.29"/>
<polygon fill="#63b8ff" stroke="#63b8ff" points="545.08,-585.56 535.73,-590.54 546.15,-592.48 545.08,-585.56"/>
</g>
<!-- Node5 -->
<g id="node5" class="node">
<title>Node5</title>
<g id="a_node5"><a xlink:href="classMooseBase.html" target="_top" xlink:title="Base class for everything in MOOSE with a name and a type.">
<polygon fill="white" stroke="#666666" points="310,-675 239,-675 239,-656 310,-656 310,-675"/>
<text text-anchor="middle" x="274.5" y="-663" font-family="Courier,monospace" font-size="10.00">MooseBase</text>
</a>
</g>
</g>
<!-- Node5&#45;&gt;Node4 -->
<g id="edge4" class="edge">
<title>Node5&#45;&gt;Node4</title>
<path fill="none" stroke="#63b8ff" d="M321.62,-658.05C335.41,-655.31 350.46,-651.8 364,-647.5 403.87,-634.85 448.08,-613.72 472.56,-601.35"/>
<polygon fill="#63b8ff" stroke="#63b8ff" points="321.06,-654.59 311.89,-659.89 322.36,-661.47 321.06,-654.59"/>
</g>
<!-- Node6 -->
<g id="node6" class="node">
<title>Node6</title>
<g id="a_node6"><a xlink:href="classMooseBaseParameterInterface.html" target="_top" xlink:title="Every object that can be built by the factory should be derived from this class.">
<polygon fill="white" stroke="#666666" points="364,-638 185,-638 185,-619 364,-619 364,-638"/>
<text text-anchor="middle" x="274.5" y="-626" font-family="Courier,monospace" font-size="10.00">MooseBaseParameterInterface</text>
</a>
</g>
</g>
<!-- Node6&#45;&gt;Node4 -->
<g id="edge5" class="edge">
<title>Node6&#45;&gt;Node4</title>
<path fill="none" stroke="#63b8ff" d="M344.77,-616.63C379.7,-610.65 420.85,-603.6 450.68,-598.49"/>
<polygon fill="#63b8ff" stroke="#63b8ff" points="344.43,-613.14 335.16,-618.28 345.61,-620.04 344.43,-613.14"/>
</g>
<!-- Node7 -->
<g id="node7" class="node">
<title>Node7</title>
<g id="a_node7"><a xlink:href="classMooseBaseErrorInterface.html" target="_top" xlink:title="Interface that provides APIs to output errors/warnings/info messages.">
<polygon fill="white" stroke="#666666" points="352,-601 197,-601 197,-582 352,-582 352,-601"/>
<text text-anchor="middle" x="274.5" y="-589" font-family="Courier,monospace" font-size="10.00">MooseBaseErrorInterface</text>
</a>
</g>
</g>
<!-- Node7&#45;&gt;Node4 -->
<g id="edge6" class="edge">
<title>Node7&#45;&gt;Node4</title>
<path fill="none" stroke="#63b8ff" d="M363.7,-591.5C393.87,-591.5 426.17,-591.5 450.75,-591.5"/>
<polygon fill="#63b8ff" stroke="#63b8ff" points="363.78,-588 353.78,-591.5 363.78,-595 363.78,-588"/>
</g>
<!-- Node8 -->
<g id="node8" class="node">
<title>Node8</title>
<g id="a_node8"><a xlink:href="classConsoleStreamInterface.html" target="_top" xlink:title="An inteface for the _console for outputting to the Console object.">
<polygon fill="white" stroke="#666666" points="149,-601 0,-601 0,-582 149,-582 149,-601"/>
<text text-anchor="middle" x="74.5" y="-589" font-family="Courier,monospace" font-size="10.00">ConsoleStreamInterface</text>
</a>
</g>
</g>
<!-- Node8&#45;&gt;Node7 -->
<g id="edge7" class="edge">
<title>Node8&#45;&gt;Node7</title>
<path fill="none" stroke="#63b8ff" d="M160.62,-591.5C172.62,-591.5 184.9,-591.5 196.73,-591.5"/>
<polygon fill="#63b8ff" stroke="#63b8ff" points="160.74,-588 150.74,-591.5 160.74,-595 160.74,-588"/>
</g>
<!-- Node9 -->
<g id="node9" class="node">
<title>Node9</title>
<g id="a_node9"><a xlink:title=" ">
<polygon fill="white" stroke="#666666" points="352,-564 197,-564 197,-545 352,-545 352,-564"/>
<text text-anchor="middle" x="274.5" y="-552" font-family="Courier,monospace" font-size="10.00">libMesh::ParallelObject</text>
</a>
</g>
</g>
<!-- Node9&#45;&gt;Node4 -->
<g id="edge8" class="edge">
<title>Node9&#45;&gt;Node4</title>
<path fill="none" stroke="#63b8ff" d="M344.77,-566.37C379.7,-572.35 420.85,-579.4 450.68,-584.51"/>
<polygon fill="#63b8ff" stroke="#63b8ff" points="345.61,-562.96 335.16,-564.72 344.43,-569.86 345.61,-562.96"/>
</g>
<!-- Node10 -->
<g id="node10" class="node">
<title>Node10</title>
<g id="a_node10"><a xlink:href="classDataFileInterface.html" target="_top" xlink:title=" ">
<polygon fill="white" stroke="#666666" points="337,-526.5 212,-526.5 212,-496.5 337,-496.5 337,-526.5"/>
<text text-anchor="start" x="220" y="-514.5" font-family="Courier,monospace" font-size="10.00">DataFileInterface&lt;</text>
<text text-anchor="middle" x="274.5" y="-503.5" font-family="Courier,monospace" font-size="10.00"> MooseObject &gt;</text>
</a>
</g>
</g>
<!-- Node10&#45;&gt;Node4 -->
<g id="edge9" class="edge">
<title>Node10&#45;&gt;Node4</title>
<path fill="none" stroke="#63b8ff" d="M347.62,-528.35C353.32,-530.73 358.86,-533.44 364,-536.5 383.71,-548.24 379.83,-562.57 400,-573.5 415.37,-581.83 434.06,-586.34 450.53,-588.76"/>
<polygon fill="#63b8ff" stroke="#63b8ff" points="349.23,-525.22 338.64,-524.94 346.74,-531.76 349.23,-525.22"/>
</g>
<!-- Node11 -->
<g id="node11" class="node">
<title>Node11</title>
<g id="a_node11"><a xlink:href="classSetupInterface.html" target="_top" xlink:title=" ">
<polygon fill="white" stroke="#666666" points="543,-564 442,-564 442,-545 543,-545 543,-564"/>
<text text-anchor="middle" x="492.5" y="-552" font-family="Courier,monospace" font-size="10.00">SetupInterface</text>
</a>
</g>
</g>
<!-- Node11&#45;&gt;Node3 -->
<g id="edge10" class="edge">
<title>Node11&#45;&gt;Node3</title>
<path fill="none" stroke="#63b8ff" d="M554.41,-549.38C565.19,-546.61 575.87,-542.52 585,-536.5 662.39,-485.51 708.5,-375.33 721.01,-342.15"/>
<polygon fill="#63b8ff" stroke="#63b8ff" points="553.71,-545.95 544.68,-551.49 555.2,-552.79 553.71,-545.95"/>
</g>
<!-- Node12 -->
<g id="node12" class="node">
<title>Node12</title>
<g id="a_node12"><a xlink:href="classFunctionInterface.html" target="_top" xlink:title="Interface for objects that need to use functions.">
<polygon fill="white" stroke="#666666" points="552,-527 433,-527 433,-508 552,-508 552,-527"/>
<text text-anchor="middle" x="492.5" y="-515" font-family="Courier,monospace" font-size="10.00">FunctionInterface</text>
</a>
</g>
</g>
<!-- Node12&#45;&gt;Node3 -->
<g id="edge11" class="edge">
<title>Node12&#45;&gt;Node3</title>
<path fill="none" stroke="darkgreen" d="M563.19,-509.04C570.84,-506.6 578.28,-503.48 585,-499.5 653.59,-458.89 703.88,-371.77 719.44,-342.4"/>
<polygon fill="darkgreen" stroke="darkgreen" points="562.45,-505.61 553.75,-511.66 564.32,-512.36 562.45,-505.61"/>
</g>
<!-- Node13 -->
<g id="node13" class="node">
<title>Node13</title>
<g id="a_node13"><a xlink:href="classUserObjectInterface.html" target="_top" xlink:title="Interface for objects that need to use UserObjects.">
<polygon fill="white" stroke="#666666" points="558,-490 427,-490 427,-471 558,-471 558,-490"/>
<text text-anchor="middle" x="492.5" y="-478" font-family="Courier,monospace" font-size="10.00">UserObjectInterface</text>
</a>
</g>
</g>
<!-- Node13&#45;&gt;Node3 -->
<g id="edge12" class="edge">
<title>Node13&#45;&gt;Node3</title>
<path fill="none" stroke="#63b8ff" d="M568.89,-469.24C574.47,-467.33 579.9,-465.1 585,-462.5 645.44,-431.63 698.54,-366.84 717.29,-342.25"/>
<polygon fill="#63b8ff" stroke="#63b8ff" points="568.04,-465.84 559.48,-472.08 570.06,-472.54 568.04,-465.84"/>
</g>
<!-- Node14 -->
<g id="node14" class="node">
<title>Node14</title>
<g id="a_node14"><a xlink:href="classPostprocessorInterface.html" target="_top" xlink:title="Interface class for classes which interact with Postprocessors.">
<polygon fill="white" stroke="#666666" points="567,-453 418,-453 418,-434 567,-434 567,-453"/>
<text text-anchor="middle" x="492.5" y="-441" font-family="Courier,monospace" font-size="10.00">PostprocessorInterface</text>
</a>
</g>
</g>
<!-- Node14&#45;&gt;Node3 -->
<g id="edge13" class="edge">
<title>Node14&#45;&gt;Node3</title>
<path fill="none" stroke="darkgreen" d="M571.39,-430.4C576.05,-428.93 580.62,-427.31 585,-425.5 637.2,-403.97 690.4,-361.66 713.1,-342.43"/>
<polygon fill="darkgreen" stroke="darkgreen" points="570.49,-427.02 561.84,-433.13 572.41,-433.75 570.49,-427.02"/>
</g>
<!-- Node15 -->
<g id="node15" class="node">
<title>Node15</title>
<g id="a_node15"><a xlink:href="classVectorPostprocessorInterface.html" target="_top" xlink:title=" ">
<polygon fill="white" stroke="#666666" points="585,-416 400,-416 400,-397 585,-397 585,-416"/>
<text text-anchor="middle" x="492.5" y="-404" font-family="Courier,monospace" font-size="10.00">VectorPostprocessorInterface</text>
</a>
</g>
</g>
<!-- Node15&#45;&gt;Node3 -->
<g id="edge14" class="edge">
<title>Node15&#45;&gt;Node3</title>
<path fill="none" stroke="darkgreen" d="M563.53,-394.13C570.82,-392.42 578.09,-390.55 585,-388.5 628.29,-375.68 676.78,-354.61 703.67,-342.3"/>
<polygon fill="darkgreen" stroke="darkgreen" points="562.95,-390.67 553.95,-396.26 564.47,-397.51 562.95,-390.67"/>
</g>
<!-- Node16 -->
<g id="node16" class="node">
<title>Node16</title>
<g id="a_node16"><a xlink:href="classReporterInterface.html" target="_top" xlink:title="Interface to allow object to consume Reporter values.">
<polygon fill="white" stroke="#666666" points="552,-379 433,-379 433,-360 552,-360 552,-379"/>
<text text-anchor="middle" x="492.5" y="-367" font-family="Courier,monospace" font-size="10.00">ReporterInterface</text>
</a>
</g>
</g>
<!-- Node16&#45;&gt;Node3 -->
<g id="edge15" class="edge">
<title>Node16&#45;&gt;Node3</title>
<path fill="none" stroke="darkgreen" d="M563.56,-358.28C604.05,-351.79 653.42,-343.89 686.71,-338.55"/>
<polygon fill="darkgreen" stroke="darkgreen" points="563.2,-354.79 553.88,-359.83 564.31,-361.7 563.2,-354.79"/>
</g>
<!-- Node17 -->
<g id="node17" class="node">
<title>Node17</title>
<g id="a_node17"><a xlink:href="classDistributionInterface.html" target="_top" xlink:title="Interface for objects that need to use distributions.">
<polygon fill="white" stroke="#666666" points="564,-342 421,-342 421,-323 564,-323 564,-342"/>
<text text-anchor="middle" x="492.5" y="-330" font-family="Courier,monospace" font-size="10.00">DistributionInterface</text>
</a>
</g>
</g>
<!-- Node17&#45;&gt;Node3 -->
<g id="edge16" class="edge">
<title>Node17&#45;&gt;Node3</title>
<path fill="none" stroke="darkgreen" d="M575.43,-332.5C613.35,-332.5 656.56,-332.5 686.65,-332.5"/>
<polygon fill="darkgreen" stroke="darkgreen" points="575.89,-329 565.89,-332.5 575.89,-336 575.89,-329"/>
</g>
<!-- Node18 -->
<g id="node18" class="node">
<title>Node18</title>
<g id="a_node18"><a xlink:href="classSamplerInterface.html" target="_top" xlink:title="Interface for objects that need to use samplers.">
<polygon fill="white" stroke="#666666" points="549,-305 436,-305 436,-286 549,-286 549,-305"/>
<text text-anchor="middle" x="492.5" y="-293" font-family="Courier,monospace" font-size="10.00">SamplerInterface</text>
</a>
</g>
</g>
<!-- Node18&#45;&gt;Node3 -->
<g id="edge17" class="edge">
<title>Node18&#45;&gt;Node3</title>
<path fill="none" stroke="darkgreen" d="M560.71,-306.26C601.74,-312.84 652.7,-321 686.78,-326.46"/>
<polygon fill="darkgreen" stroke="darkgreen" points="561.34,-302.82 550.91,-304.7 560.23,-309.73 561.34,-302.82"/>
</g>
<!-- Node19 -->
<g id="node19" class="node">
<title>Node19</title>
<g id="a_node19"><a xlink:href="classRestartable.html" target="_top" xlink:title="A class for creating restricted objects.">
<polygon fill="white" stroke="#666666" points="534,-268 451,-268 451,-249 534,-249 534,-268"/>
<text text-anchor="middle" x="492.5" y="-256" font-family="Courier,monospace" font-size="10.00">Restartable</text>
</a>
</g>
</g>
<!-- Node19&#45;&gt;Node3 -->
<g id="edge18" class="edge">
<title>Node19&#45;&gt;Node3</title>
<path fill="none" stroke="darkgreen" d="M545.55,-263.79C558.97,-266.61 573,-270.91 585,-277.5 605.11,-288.54 600.71,-303.79 621,-314.5 641.16,-325.14 666.31,-329.68 686.77,-331.54"/>
<polygon fill="darkgreen" stroke="darkgreen" points="546.44,-260.39 535.97,-262.03 545.18,-267.28 546.44,-260.39"/>
</g>
<!-- Node20 -->
<g id="node20" class="node">
<title>Node20</title>
<g id="a_node20"><a xlink:href="classMeshMetaDataInterface.html" target="_top" xlink:title="The Interface used to retrieve mesh meta data (attributes) set by the MeshGenerator system.">
<polygon fill="white" stroke="#666666" points="564,-231 421,-231 421,-212 564,-212 564,-231"/>
<text text-anchor="middle" x="492.5" y="-219" font-family="Courier,monospace" font-size="10.00">MeshMetaDataInterface</text>
</a>
</g>
</g>
<!-- Node20&#45;&gt;Node3 -->
<g id="edge19" class="edge">
<title>Node20&#45;&gt;Node3</title>
<path fill="none" stroke="darkgreen" d="M574.84,-233.96C578.42,-235.87 581.83,-238.03 585,-240.5 613.86,-262.96 591.78,-292.51 621,-314.5 639.65,-328.54 665.53,-333.04 686.74,-334.03"/>
<polygon fill="darkgreen" stroke="darkgreen" points="576.32,-230.79 565.77,-229.89 573.46,-237.18 576.32,-230.79"/>
</g>
<!-- Node21 -->
<g id="node21" class="node">
<title>Node21</title>
<g id="a_node21"><a xlink:href="classMeshChangedInterface.html" target="_top" xlink:title="Interface for notifications that the mesh has changed.">
<polygon fill="white" stroke="#666666" points="561,-194 424,-194 424,-175 561,-175 561,-194"/>
<text text-anchor="middle" x="492.5" y="-182" font-family="Courier,monospace" font-size="10.00">MeshChangedInterface</text>
</a>
</g>
</g>
<!-- Node21&#45;&gt;Node3 -->
<g id="edge20" class="edge">
<title>Node21&#45;&gt;Node3</title>
<path fill="none" stroke="darkgreen" d="M571.65,-194.44C576.47,-196.91 580.98,-199.9 585,-203.5 623.61,-238.12 581.83,-280.51 621,-314.5 638.84,-329.98 665.12,-334.4 686.73,-335"/>
<polygon fill="darkgreen" stroke="darkgreen" points="573.36,-191.37 562.79,-190.66 570.61,-197.8 573.36,-191.37"/>
</g>
<!-- Node22 -->
<g id="node22" class="node">
<title>Node22</title>
<g id="a_node22"><a xlink:href="classScalarCoupleable.html" target="_top" xlink:title="Interface for objects that needs scalar coupling capabilities.">
<polygon fill="white" stroke="#666666" points="549,-157 436,-157 436,-138 549,-138 549,-157"/>
<text text-anchor="middle" x="492.5" y="-145" font-family="Courier,monospace" font-size="10.00">ScalarCoupleable</text>
</a>
</g>
</g>
<!-- Node22&#45;&gt;Node3 -->
<g id="edge21" class="edge">
<title>Node22&#45;&gt;Node3</title>
<path fill="none" stroke="darkgreen" d="M560.13,-152.01C569.36,-155.15 578.04,-159.77 585,-166.5 633.67,-213.55 571.57,-268.25 621,-314.5 638.31,-330.7 664.73,-335.09 686.54,-335.48"/>
<polygon fill="darkgreen" stroke="darkgreen" points="561.15,-148.66 550.58,-149.38 559.29,-155.41 561.15,-148.66"/>
</g>
<!-- Node23 -->
<g id="node23" class="node">
<title>Node23</title>
<g id="a_node23"><a xlink:href="classPerfGraphInterface.html" target="_top" xlink:title="Interface for objects interacting with the PerfGraph.">
<polygon fill="white" stroke="#666666" points="555,-120 430,-120 430,-101 555,-101 555,-120"/>
<text text-anchor="middle" x="492.5" y="-108" font-family="Courier,monospace" font-size="10.00">PerfGraphInterface</text>
</a>
</g>
</g>
<!-- Node23&#45;&gt;Node3 -->
<g id="edge22" class="edge">
<title>Node23&#45;&gt;Node3</title>
<path fill="none" stroke="darkgreen" d="M565.85,-116.83C572.97,-119.88 579.56,-123.99 585,-129.5 643.86,-189.1 561.18,-255.86 621,-314.5 638,-331.16 664.56,-335.51 686.52,-335.78"/>
<polygon fill="darkgreen" stroke="darkgreen" points="567.13,-113.57 556.54,-113.58 564.83,-120.18 567.13,-113.57"/>
</g>
<!-- Node24 -->
<g id="node24" class="node">
<title>Node24</title>
<g id="a_node24"><a xlink:href="classDependencyResolverInterface.html" target="_top" xlink:title="Interface for sorting dependent vectors of objects.">
<polygon fill="white" stroke="#666666" points="582,-83 403,-83 403,-64 582,-64 582,-83"/>
<text text-anchor="middle" x="492.5" y="-71" font-family="Courier,monospace" font-size="10.00">DependencyResolverInterface</text>
</a>
</g>
</g>
<!-- Node24&#45;&gt;Node3 -->
<g id="edge23" class="edge">
<title>Node24&#45;&gt;Node3</title>
<path fill="none" stroke="#63b8ff" d="M582.3,-89.89C583.23,-90.72 584.13,-91.59 585,-92.5 654.11,-164.72 550.73,-243.42 621,-314.5 637.8,-331.49 664.51,-335.81 686.58,-335.97"/>
<polygon fill="#63b8ff" stroke="#63b8ff" points="584.62,-87.24 574.47,-84.2 580.5,-92.91 584.62,-87.24"/>
</g>
<!-- Node25 -->
<g id="node25" class="node">
<title>Node25</title>
<g id="a_node25"><a xlink:href="classBlockRestrictable.html" target="_top" xlink:title="An interface that restricts an object to subdomains via the &#39;blocks&#39; input parameter.">
<polygon fill="white" stroke="#666666" points="785,-305 666,-305 666,-286 785,-286 785,-305"/>
<text text-anchor="middle" x="725.5" y="-293" font-family="Courier,monospace" font-size="10.00">BlockRestrictable</text>
</a>
</g>
</g>
<!-- Node25&#45;&gt;Node2 -->
<g id="edge24" class="edge">
<title>Node25&#45;&gt;Node2</title>
<path fill="none" stroke="#63b8ff" d="M796.36,-289C807.96,-286.35 819.59,-282.65 830,-277.5 871.55,-256.94 908.11,-213.74 923.18,-194.32"/>
<polygon fill="#63b8ff" stroke="#63b8ff" points="795.88,-285.53 786.77,-290.94 797.27,-292.39 795.88,-285.53"/>
</g>
<!-- Node26 -->
<g id="node26" class="node">
<title>Node26</title>
<g id="a_node26"><a xlink:href="classMaterialPropertyInterface.html" target="_top" xlink:title="An interface for accessing Materials.">
<polygon fill="white" stroke="#666666" points="809,-268 642,-268 642,-249 809,-249 809,-268"/>
<text text-anchor="middle" x="725.5" y="-256" font-family="Courier,monospace" font-size="10.00">MaterialPropertyInterface</text>
</a>
</g>
</g>
<!-- Node26&#45;&gt;Node2 -->
<g id="edge25" class="edge">
<title>Node26&#45;&gt;Node2</title>
<path fill="none" stroke="#63b8ff" d="M812.47,-245.87C818.46,-244.28 824.36,-242.5 830,-240.5 862.76,-228.9 897.42,-207.2 916.26,-194.49"/>
<polygon fill="#63b8ff" stroke="#63b8ff" points="811.97,-242.39 803.09,-248.16 813.63,-249.19 811.97,-242.39"/>
</g>
<!-- Node27 -->
<g id="node27" class="node">
<title>Node27</title>
<g id="a_node27"><a xlink:href="classCoupleable.html" target="_top" xlink:title="Interface for objects that needs coupling capabilities.">
<polygon fill="white" stroke="#666666" points="764,-231 687,-231 687,-212 764,-212 764,-231"/>
<text text-anchor="middle" x="725.5" y="-219" font-family="Courier,monospace" font-size="10.00">Coupleable</text>
</a>
</g>
</g>
<!-- Node27&#45;&gt;Node2 -->
<g id="edge26" class="edge">
<title>Node27&#45;&gt;Node2</title>
<path fill="none" stroke="#63b8ff" d="M775.36,-213.15C792.63,-210.16 812.19,-206.73 830,-203.5 845.81,-200.63 863,-197.42 878.62,-194.46"/>
<polygon fill="#63b8ff" stroke="#63b8ff" points="775.13,-209.64 765.87,-214.79 776.32,-216.54 775.13,-209.64"/>
</g>
<!-- Node28 -->
<g id="node28" class="node">
<title>Node28</title>
<g id="a_node28"><a xlink:href="classMooseVariableDependencyInterface.html" target="_top" xlink:title=" ">
<polygon fill="white" stroke="#666666" points="830,-194 621,-194 621,-175 830,-175 830,-194"/>
<text text-anchor="middle" x="725.5" y="-182" font-family="Courier,monospace" font-size="10.00">MooseVariableDependencyInterface</text>
</a>
</g>
</g>
<!-- Node28&#45;&gt;Node2 -->
<g id="edge27" class="edge">
<title>Node28&#45;&gt;Node2</title>
<path fill="none" stroke="#63b8ff" d="M841.56,-184.5C851.89,-184.5 862.04,-184.5 871.58,-184.5"/>
<polygon fill="#63b8ff" stroke="#63b8ff" points="841.81,-181 831.81,-184.5 841.81,-188 841.81,-181"/>
</g>
<!-- Node29 -->
<g id="node29" class="node">
<title>Node29</title>
<g id="a_node29"><a xlink:href="classTransientInterface.html" target="_top" xlink:title="Interface for objects that needs transient capabilities.">
<polygon fill="white" stroke="#666666" points="788,-157 663,-157 663,-138 788,-138 788,-157"/>
<text text-anchor="middle" x="725.5" y="-145" font-family="Courier,monospace" font-size="10.00">TransientInterface</text>
</a>
</g>
</g>
<!-- Node29&#45;&gt;Node2 -->
<g id="edge28" class="edge">
<title>Node29&#45;&gt;Node2</title>
<path fill="none" stroke="#63b8ff" d="M792.65,-159.5C819.41,-164.35 849.95,-169.89 875.47,-174.52"/>
<polygon fill="#63b8ff" stroke="#63b8ff" points="793.39,-156.07 782.93,-157.73 792.14,-162.96 793.39,-156.07"/>
</g>
<!-- Node30 -->
<g id="node30" class="node">
<title>Node30</title>
<g id="a_node30"><a xlink:href="classRandomInterface.html" target="_top" xlink:title="Interface for objects that need parallel consistent random numbers without patterns over the course o...">
<polygon fill="white" stroke="#666666" points="779,-120 672,-120 672,-101 779,-101 779,-120"/>
<text text-anchor="middle" x="725.5" y="-108" font-family="Courier,monospace" font-size="10.00">RandomInterface</text>
</a>
</g>
</g>
<!-- Node30&#45;&gt;Node2 -->
<g id="edge29" class="edge">
<title>Node30&#45;&gt;Node2</title>
<path fill="none" stroke="#63b8ff" d="M790.47,-118.94C803.75,-121.61 817.49,-125.06 830,-129.5 862.43,-141.01 896.92,-162.08 915.88,-174.53"/>
<polygon fill="#63b8ff" stroke="#63b8ff" points="791.43,-115.56 780.96,-117.16 790.15,-122.44 791.43,-115.56"/>
</g>
<!-- Node31 -->
<g id="node31" class="node">
<title>Node31</title>
<g id="a_node31"><a xlink:href="classElementIDInterface.html" target="_top" xlink:title=" ">
<polygon fill="white" stroke="#666666" points="788,-83 663,-83 663,-64 788,-64 788,-83"/>
<text text-anchor="middle" x="725.5" y="-71" font-family="Courier,monospace" font-size="10.00">ElementIDInterface</text>
</a>
</g>
</g>
<!-- Node31&#45;&gt;Node2 -->
<g id="edge30" class="edge">
<title>Node31&#45;&gt;Node2</title>
<path fill="none" stroke="#63b8ff" d="M799.3,-81.51C809.92,-84.2 820.47,-87.76 830,-92.5 871.09,-112.93 907.62,-155.23 922.9,-174.52"/>
<polygon fill="#63b8ff" stroke="#63b8ff" points="800.25,-78.14 789.73,-79.36 798.72,-84.97 800.25,-78.14"/>
</g>
<!-- Node32 -->
<g id="node32" class="node">
<title>Node32</title>
<g id="a_node32"><a xlink:href="classVectorPostprocessor.html" target="_top" xlink:title="Base class for Postprocessors that produce a vector of values.">
<polygon fill="white" stroke="#666666" points="997,-102 866,-102 866,-83 997,-83 997,-102"/>
<text text-anchor="middle" x="931.5" y="-90" font-family="Courier,monospace" font-size="10.00">VectorPostprocessor</text>
</a>
</g>
</g>
<!-- Node32&#45;&gt;Node1 -->
<g id="edge31" class="edge">
<title>Node32&#45;&gt;Node1</title>
<path fill="none" stroke="#63b8ff" d="M1008.72,-99.88C1016.61,-100.64 1024.68,-101.42 1032.67,-102.19"/>
<polygon fill="#63b8ff" stroke="#63b8ff" points="1009.09,-96.4 998.8,-98.92 1008.42,-103.36 1009.09,-96.4"/>
</g>
<!-- Node33 -->
<g id="node33" class="node">
<title>Node33</title>
<g id="a_node33"><a xlink:href="classOutputInterface.html" target="_top" xlink:title="A class to provide an common interface to objects requiring &quot;outputs&quot; option.">
<polygon fill="white" stroke="#666666" points="779,-46 672,-46 672,-27 779,-27 779,-46"/>
<text text-anchor="middle" x="725.5" y="-34" font-family="Courier,monospace" font-size="10.00">OutputInterface</text>
</a>
</g>
</g>
<!-- Node33&#45;&gt;Node32 -->
<g id="edge32" class="edge">
<title>Node33&#45;&gt;Node32</title>
<path fill="none" stroke="#63b8ff" d="M790.27,-45.64C803.5,-48.08 817.29,-51.02 830,-54.5 857.53,-62.03 888.05,-74.13 908.15,-82.65"/>
<polygon fill="#63b8ff" stroke="#63b8ff" points="791.26,-42.26 780.8,-43.97 790.04,-49.15 791.26,-42.26"/>
</g>
<!-- Node35 -->
<g id="node35" class="node">
<title>Node35</title>
<g id="a_node35"><a xlink:href="classNearestPointBase.html" target="_top" xlink:title=" ">
<polygon fill="white" stroke="#666666" points="1732,-310 1505,-310 1505,-269 1732,-269 1732,-310"/>
<text text-anchor="start" x="1513" y="-298" font-family="Courier,monospace" font-size="10.00">NearestPointBase&lt; Element</text>
<text text-anchor="start" x="1513" y="-287" font-family="Courier,monospace" font-size="10.00">AverageValue, ElementVariableVector</text>
<text text-anchor="middle" x="1618.5" y="-276" font-family="Courier,monospace" font-size="10.00">Postprocessor &gt;</text>
</a>
</g>
</g>
<!-- Node34&#45;&gt;Node35 -->
<g id="edge34" class="edge">
<title>Node34&#45;&gt;Node35</title>
<path fill="none" stroke="#63b8ff" d="M1388.15,-220.65C1417.39,-232.27 1460.51,-248.69 1499,-260.5 1508.11,-263.3 1517.68,-266 1527.27,-268.57"/>
<polygon fill="#63b8ff" stroke="#63b8ff" points="1389.65,-217.48 1379.07,-217.01 1387.05,-223.98 1389.65,-217.48"/>
</g>
<!-- Node37 -->
<g id="node37" class="node">
<title>Node37</title>
<g id="a_node37"><a xlink:href="classNearestPointBase.html" target="_top" xlink:title=" ">
<polygon fill="white" stroke="#666666" points="1738,-251 1499,-251 1499,-210 1738,-210 1738,-251"/>
<text text-anchor="start" x="1507" y="-239" font-family="Courier,monospace" font-size="10.00">NearestPointBase&lt; Element</text>
<text text-anchor="start" x="1507" y="-228" font-family="Courier,monospace" font-size="10.00">IntegralVariablePostprocessor,</text>
<text text-anchor="middle" x="1618.5" y="-217" font-family="Courier,monospace" font-size="10.00"> ElementVariableVectorPostprocessor &gt;</text>
</a>
</g>
</g>
<!-- Node34&#45;&gt;Node37 -->
<g id="edge36" class="edge">
<title>Node34&#45;&gt;Node37</title>
<path fill="none" stroke="#63b8ff" d="M1474.53,-217.5C1482.6,-218.24 1490.72,-218.97 1498.78,-219.71"/>
<polygon fill="#63b8ff" stroke="#63b8ff" points="1474.95,-214.03 1464.67,-216.61 1474.32,-221 1474.95,-214.03"/>
</g>
<!-- Node39 -->
<g id="node39" class="node">
<title>Node39</title>
<g id="a_node39"><a xlink:href="classElementValueSampler.html" target="_top" xlink:title="Samples values of elemental variable(s).">
<polygon fill="white" stroke="#666666" points="1684,-192 1553,-192 1553,-173 1684,-173 1684,-192"/>
<text text-anchor="middle" x="1618.5" y="-180" font-family="Courier,monospace" font-size="10.00">ElementValueSampler</text>
</a>
</g>
</g>
<!-- Node34&#45;&gt;Node39 -->
<g id="edge38" class="edge">
<title>Node34&#45;&gt;Node39</title>
<path fill="none" stroke="#63b8ff" d="M1474.29,-195.52C1501.32,-193.06 1528.98,-190.55 1552.7,-188.39"/>
<polygon fill="#63b8ff" stroke="#63b8ff" points="1474.32,-192 1464.67,-196.39 1474.95,-198.97 1474.32,-192"/>
</g>
<!-- Node40 -->
<g id="node40" class="node">
<title>Node40</title>
<g id="a_node40"><a xlink:href="classExtraIDIntegralVectorPostprocessor.html" target="_top" xlink:title="This ExtraIDIntegralVectorPostprocessor source code is to integrate variables based on parsed extra I...">
<polygon fill="white" stroke="#666666" points="1729,-155 1508,-155 1508,-136 1729,-136 1729,-155"/>
<text text-anchor="middle" x="1618.5" y="-143" font-family="Courier,monospace" font-size="10.00">ExtraIDIntegralVectorPostprocessor</text>
</a>
</g>
</g>
<!-- Node34&#45;&gt;Node40 -->
<g id="edge39" class="edge">
<title>Node34&#45;&gt;Node40</title>
<path fill="none" stroke="#63b8ff" d="M1448.38,-193.52C1453.38,-192.02 1458.29,-190.36 1463,-188.5 1480.89,-181.45 1481.1,-171.52 1499,-164.5 1508.41,-160.81 1518.51,-157.84 1528.69,-155.45"/>
<polygon fill="#63b8ff" stroke="#63b8ff" points="1447.51,-190.13 1438.77,-196.13 1449.34,-196.89 1447.51,-190.13"/>
</g>
<!-- Node36 -->
<g id="node36" class="node">
<title>Node36</title>
<g id="a_node36"><a xlink:href="classNearestPointAverage.html" target="_top" xlink:title="Given a list of points this object computes the average of a variable over the points closest to each...">
<polygon fill="white" stroke="#666666" points="1932,-299 1801,-299 1801,-280 1932,-280 1932,-299"/>
<text text-anchor="middle" x="1866.5" y="-287" font-family="Courier,monospace" font-size="10.00">NearestPointAverage</text>
</a>
</g>
</g>
<!-- Node35&#45;&gt;Node36 -->
<g id="edge35" class="edge">
<title>Node35&#45;&gt;Node36</title>
<path fill="none" stroke="#63b8ff" d="M1743.67,-289.5C1763.35,-289.5 1783,-289.5 1800.58,-289.5"/>
<polygon fill="#63b8ff" stroke="#63b8ff" points="1743.93,-286 1733.93,-289.5 1743.93,-293 1743.93,-286"/>
</g>
<!-- Node38 -->
<g id="node38" class="node">
<title>Node38</title>
<g id="a_node38"><a xlink:href="classNearestPointIntegralVariablePostprocessor.html" target="_top" xlink:title="Given a list of points this object computes the variable integral closest to each one of those points...">
<polygon fill="white" stroke="#666666" points="1959,-245.5 1774,-245.5 1774,-215.5 1959,-215.5 1959,-245.5"/>
<text text-anchor="start" x="1782" y="-233.5" font-family="Courier,monospace" font-size="10.00">NearestPointIntegralVariable</text>
<text text-anchor="middle" x="1866.5" y="-222.5" font-family="Courier,monospace" font-size="10.00">Postprocessor</text>
</a>
</g>
</g>
<!-- Node37&#45;&gt;Node38 -->
<g id="edge37" class="edge">
<title>Node37&#45;&gt;Node38</title>
<path fill="none" stroke="#63b8ff" d="M1749.63,-230.5C1757.72,-230.5 1765.78,-230.5 1773.64,-230.5"/>
<polygon fill="#63b8ff" stroke="#63b8ff" points="1749.69,-227 1739.69,-230.5 1749.69,-234 1749.69,-227"/>
</g>
<!-- Node45 -->
<g id="node45" class="node">
<title>Node45</title>
<g id="a_node45"><a xlink:href="classCylindricalAverage.html" target="_top" xlink:title="Compute a cylindrical average of a variableas a function of radius throughout the simulation domain.">
<polygon fill="white" stroke="#666666" points="1681,-75 1556,-75 1556,-56 1681,-56 1681,-75"/>
<text text-anchor="middle" x="1618.5" y="-63" font-family="Courier,monospace" font-size="10.00">CylindricalAverage</text>
</a>
</g>
</g>
<!-- Node44&#45;&gt;Node45 -->
<g id="edge44" class="edge">
<title>Node44&#45;&gt;Node45</title>
<path fill="none" stroke="#63b8ff" d="M1426.82,-51.78C1467.3,-54.69 1517.02,-58.27 1555.53,-61.04"/>
<polygon fill="#63b8ff" stroke="#63b8ff" points="1427.13,-48.29 1416.91,-51.06 1426.63,-55.27 1427.13,-48.29"/>
</g>
<!-- Node46 -->
<g id="node46" class="node">
<title>Node46</title>
<g id="a_node46"><a xlink:href="classSphericalAverage.html" target="_top" xlink:title="Compute a spherical average of a variable as a function of radius throughout the simulation domain.">
<polygon fill="white" stroke="#666666" points="1675,-38 1562,-38 1562,-19 1675,-19 1675,-38"/>
<text text-anchor="middle" x="1618.5" y="-26" font-family="Courier,monospace" font-size="10.00">SphericalAverage</text>
</a>
</g>
</g>
<!-- Node44&#45;&gt;Node46 -->
<g id="edge45" class="edge">
<title>Node44&#45;&gt;Node46</title>
<path fill="none" stroke="#63b8ff" d="M1426.87,-41.5C1469.58,-38.59 1522.57,-34.97 1561.83,-32.3"/>
<polygon fill="#63b8ff" stroke="#63b8ff" points="1426.65,-38 1416.91,-42.18 1427.12,-44.99 1426.65,-38"/>
</g>
</g>
</svg>
