<?xml version="1.0" encoding="UTF-8" standalone="no"?>
<!DOCTYPE svg PUBLIC "-//W3C//DTD SVG 1.1//EN"
 "http://www.w3.org/Graphics/SVG/1.1/DTD/svg11.dtd">
<!-- Generated by graphviz version 7.0.5 (20221223.1930)
 -->
<!-- Title: ElementStatistics Pages: 1 -->
<svg width="1494pt" height="656pt"
 viewBox="0.00 0.00 1494.00 656.00" xmlns="http://www.w3.org/2000/svg" xmlns:xlink="http://www.w3.org/1999/xlink">
<g id="graph0" class="graph" transform="scale(1 1) rotate(0) translate(4 652)">
<title>ElementStatistics</title>
<!-- Node1 -->
<g id="node1" class="node">
<title>Node1</title>
<g id="a_node1"><a xlink:title=" ">
<polygon fill="#999999" stroke="#666666" points="1283,-93 1164,-93 1164,-74 1283,-74 1283,-93"/>
<text text-anchor="middle" x="1223.5" y="-81" font-family="Courier,monospace" font-size="10.00">ElementStatistics</text>
</a>
</g>
</g>
<!-- Node35 -->
<g id="node35" class="node">
<title>Node35</title>
<g id="a_node35"><a xlink:href="classElementVariableStatistics.html" target="_top" xlink:title=" ">
<polygon fill="white" stroke="#666666" points="1486,-93 1319,-93 1319,-74 1486,-74 1486,-93"/>
<text text-anchor="middle" x="1402.5" y="-81" font-family="Courier,monospace" font-size="10.00">ElementVariableStatistics</text>
</a>
</g>
</g>
<!-- Node1&#45;&gt;Node35 -->
<g id="edge34" class="edge">
<title>Node1&#45;&gt;Node35</title>
<path fill="none" stroke="#63b8ff" d="M1294.73,-83.5C1302.55,-83.5 1310.58,-83.5 1318.54,-83.5"/>
<polygon fill="#63b8ff" stroke="#63b8ff" points="1294.95,-80 1284.95,-83.5 1294.95,-87 1294.95,-80"/>
</g>
<!-- Node2 -->
<g id="node2" class="node">
<title>Node2</title>
<g id="a_node2"><a xlink:href="classElementReporter.html" target="_top" xlink:title=" ">
<polygon fill="white" stroke="#666666" points="1128,-93 1021,-93 1021,-74 1128,-74 1128,-93"/>
<text text-anchor="middle" x="1074.5" y="-81" font-family="Courier,monospace" font-size="10.00">ElementReporter</text>
</a>
</g>
</g>
<!-- Node2&#45;&gt;Node1 -->
<g id="edge1" class="edge">
<title>Node2&#45;&gt;Node1</title>
<path fill="none" stroke="#63b8ff" d="M1139.43,-83.5C1147.5,-83.5 1155.73,-83.5 1163.73,-83.5"/>
<polygon fill="#63b8ff" stroke="#63b8ff" points="1139.67,-80 1129.67,-83.5 1139.67,-87 1139.67,-80"/>
</g>
<!-- Node3 -->
<g id="node3" class="node">
<title>Node3</title>
<g id="a_node3"><a xlink:href="classElementUserObject.html" target="_top" xlink:title=" ">
<polygon fill="white" stroke="#666666" points="985,-167 866,-167 866,-148 985,-148 985,-167"/>
<text text-anchor="middle" x="925.5" y="-155" font-family="Courier,monospace" font-size="10.00">ElementUserObject</text>
</a>
</g>
</g>
<!-- Node3&#45;&gt;Node2 -->
<g id="edge2" class="edge">
<title>Node3&#45;&gt;Node2</title>
<path fill="none" stroke="#63b8ff" d="M956.35,-142.47C985.5,-127.8 1029.02,-105.89 1053.99,-93.32"/>
<polygon fill="#63b8ff" stroke="#63b8ff" points="955.04,-139.22 947.68,-146.84 958.18,-145.47 955.04,-139.22"/>
</g>
<!-- Node4 -->
<g id="node4" class="node">
<title>Node4</title>
<g id="a_node4"><a xlink:href="classUserObject.html" target="_top" xlink:title="Base class for user&#45;specific data.">
<polygon fill="white" stroke="#666666" points="764,-315 687,-315 687,-296 764,-296 764,-315"/>
<text text-anchor="middle" x="725.5" y="-303" font-family="Courier,monospace" font-size="10.00">UserObject</text>
</a>
</g>
</g>
<!-- Node4&#45;&gt;Node3 -->
<g id="edge3" class="edge">
<title>Node4&#45;&gt;Node3</title>
<path fill="none" stroke="#63b8ff" d="M775.69,-304.6C793.86,-302.37 813.92,-297.52 830,-287.5 878.55,-257.25 909.94,-192.09 920.52,-167.32"/>
<polygon fill="#63b8ff" stroke="#63b8ff" points="775.5,-301.1 765.88,-305.54 776.17,-308.07 775.5,-301.1"/>
</g>
<!-- Node5 -->
<g id="node5" class="node">
<title>Node5</title>
<g id="a_node5"><a xlink:href="classMooseObject.html" target="_top" xlink:title="Every object that can be built by the factory should be derived from this class.">
<polygon fill="white" stroke="#666666" points="534,-574 451,-574 451,-555 534,-555 534,-574"/>
<text text-anchor="middle" x="492.5" y="-562" font-family="Courier,monospace" font-size="10.00">MooseObject</text>
</a>
</g>
</g>
<!-- Node5&#45;&gt;Node4 -->
<g id="edge4" class="edge">
<title>Node5&#45;&gt;Node4</title>
<path fill="none" stroke="#63b8ff" d="M545.21,-562.08C559.11,-559.45 573.46,-554.74 585,-546.5 671.16,-484.97 711.99,-352.34 722,-315.29"/>
<polygon fill="#63b8ff" stroke="#63b8ff" points="545.08,-558.56 535.73,-563.54 546.15,-565.48 545.08,-558.56"/>
</g>
<!-- Node6 -->
<g id="node6" class="node">
<title>Node6</title>
<g id="a_node6"><a xlink:href="classMooseBase.html" target="_top" xlink:title="Base class for everything in MOOSE with a name and a type.">
<polygon fill="white" stroke="#666666" points="310,-648 239,-648 239,-629 310,-629 310,-648"/>
<text text-anchor="middle" x="274.5" y="-636" font-family="Courier,monospace" font-size="10.00">MooseBase</text>
</a>
</g>
</g>
<!-- Node6&#45;&gt;Node5 -->
<g id="edge5" class="edge">
<title>Node6&#45;&gt;Node5</title>
<path fill="none" stroke="#63b8ff" d="M321.62,-631.05C335.41,-628.31 350.46,-624.8 364,-620.5 403.87,-607.85 448.08,-586.72 472.56,-574.35"/>
<polygon fill="#63b8ff" stroke="#63b8ff" points="321.06,-627.59 311.89,-632.89 322.36,-634.47 321.06,-627.59"/>
</g>
<!-- Node7 -->
<g id="node7" class="node">
<title>Node7</title>
<g id="a_node7"><a xlink:href="classMooseBaseParameterInterface.html" target="_top" xlink:title="Every object that can be built by the factory should be derived from this class.">
<polygon fill="white" stroke="#666666" points="364,-611 185,-611 185,-592 364,-592 364,-611"/>
<text text-anchor="middle" x="274.5" y="-599" font-family="Courier,monospace" font-size="10.00">MooseBaseParameterInterface</text>
</a>
</g>
</g>
<!-- Node7&#45;&gt;Node5 -->
<g id="edge6" class="edge">
<title>Node7&#45;&gt;Node5</title>
<path fill="none" stroke="#63b8ff" d="M344.77,-589.63C379.7,-583.65 420.85,-576.6 450.68,-571.49"/>
<polygon fill="#63b8ff" stroke="#63b8ff" points="344.43,-586.14 335.16,-591.28 345.61,-593.04 344.43,-586.14"/>
</g>
<!-- Node8 -->
<g id="node8" class="node">
<title>Node8</title>
<g id="a_node8"><a xlink:href="classMooseBaseErrorInterface.html" target="_top" xlink:title="Interface that provides APIs to output errors/warnings/info messages.">
<polygon fill="white" stroke="#666666" points="352,-574 197,-574 197,-555 352,-555 352,-574"/>
<text text-anchor="middle" x="274.5" y="-562" font-family="Courier,monospace" font-size="10.00">MooseBaseErrorInterface</text>
</a>
</g>
</g>
<!-- Node8&#45;&gt;Node5 -->
<g id="edge7" class="edge">
<title>Node8&#45;&gt;Node5</title>
<path fill="none" stroke="#63b8ff" d="M363.7,-564.5C393.87,-564.5 426.17,-564.5 450.75,-564.5"/>
<polygon fill="#63b8ff" stroke="#63b8ff" points="363.78,-561 353.78,-564.5 363.78,-568 363.78,-561"/>
</g>
<!-- Node9 -->
<g id="node9" class="node">
<title>Node9</title>
<g id="a_node9"><a xlink:href="classConsoleStreamInterface.html" target="_top" xlink:title="An inteface for the _console for outputting to the Console object.">
<polygon fill="white" stroke="#666666" points="149,-574 0,-574 0,-555 149,-555 149,-574"/>
<text text-anchor="middle" x="74.5" y="-562" font-family="Courier,monospace" font-size="10.00">ConsoleStreamInterface</text>
</a>
</g>
</g>
<!-- Node9&#45;&gt;Node8 -->
<g id="edge8" class="edge">
<title>Node9&#45;&gt;Node8</title>
<path fill="none" stroke="#63b8ff" d="M160.62,-564.5C172.62,-564.5 184.9,-564.5 196.73,-564.5"/>
<polygon fill="#63b8ff" stroke="#63b8ff" points="160.74,-561 150.74,-564.5 160.74,-568 160.74,-561"/>
</g>
<!-- Node10 -->
<g id="node10" class="node">
<title>Node10</title>
<g id="a_node10"><a xlink:title=" ">
<polygon fill="white" stroke="#666666" points="352,-537 197,-537 197,-518 352,-518 352,-537"/>
<text text-anchor="middle" x="274.5" y="-525" font-family="Courier,monospace" font-size="10.00">libMesh::ParallelObject</text>
</a>
</g>
</g>
<!-- Node10&#45;&gt;Node5 -->
<g id="edge9" class="edge">
<title>Node10&#45;&gt;Node5</title>
<path fill="none" stroke="#63b8ff" d="M344.77,-539.37C379.7,-545.35 420.85,-552.4 450.68,-557.51"/>
<polygon fill="#63b8ff" stroke="#63b8ff" points="345.61,-535.96 335.16,-537.72 344.43,-542.86 345.61,-535.96"/>
</g>
<!-- Node11 -->
<g id="node11" class="node">
<title>Node11</title>
<g id="a_node11"><a xlink:href="classDataFileInterface.html" target="_top" xlink:title=" ">
<polygon fill="white" stroke="#666666" points="337,-499.5 212,-499.5 212,-469.5 337,-469.5 337,-499.5"/>
<text text-anchor="start" x="220" y="-487.5" font-family="Courier,monospace" font-size="10.00">DataFileInterface&lt;</text>
<text text-anchor="middle" x="274.5" y="-476.5" font-family="Courier,monospace" font-size="10.00"> MooseObject &gt;</text>
</a>
</g>
</g>
<!-- Node11&#45;&gt;Node5 -->
<g id="edge10" class="edge">
<title>Node11&#45;&gt;Node5</title>
<path fill="none" stroke="#63b8ff" d="M347.62,-501.35C353.32,-503.73 358.86,-506.44 364,-509.5 383.71,-521.24 379.83,-535.57 400,-546.5 415.37,-554.83 434.06,-559.34 450.53,-561.76"/>
<polygon fill="#63b8ff" stroke="#63b8ff" points="349.23,-498.22 338.64,-497.94 346.74,-504.76 349.23,-498.22"/>
</g>
<!-- Node12 -->
<g id="node12" class="node">
<title>Node12</title>
<g id="a_node12"><a xlink:href="classSetupInterface.html" target="_top" xlink:title=" ">
<polygon fill="white" stroke="#666666" points="543,-537 442,-537 442,-518 543,-518 543,-537"/>
<text text-anchor="middle" x="492.5" y="-525" font-family="Courier,monospace" font-size="10.00">SetupInterface</text>
</a>
</g>
</g>
<!-- Node12&#45;&gt;Node4 -->
<g id="edge11" class="edge">
<title>Node12&#45;&gt;Node4</title>
<path fill="none" stroke="#63b8ff" d="M554.41,-522.38C565.19,-519.61 575.87,-515.52 585,-509.5 662.39,-458.51 708.5,-348.33 721.01,-315.15"/>
<polygon fill="#63b8ff" stroke="#63b8ff" points="553.71,-518.95 544.68,-524.49 555.2,-525.79 553.71,-518.95"/>
</g>
<!-- Node13 -->
<g id="node13" class="node">
<title>Node13</title>
<g id="a_node13"><a xlink:href="classFunctionInterface.html" target="_top" xlink:title="Interface for objects that need to use functions.">
<polygon fill="white" stroke="#666666" points="552,-500 433,-500 433,-481 552,-481 552,-500"/>
<text text-anchor="middle" x="492.5" y="-488" font-family="Courier,monospace" font-size="10.00">FunctionInterface</text>
</a>
</g>
</g>
<!-- Node13&#45;&gt;Node4 -->
<g id="edge12" class="edge">
<title>Node13&#45;&gt;Node4</title>
<path fill="none" stroke="darkgreen" d="M563.19,-482.04C570.84,-479.6 578.28,-476.48 585,-472.5 653.59,-431.89 703.88,-344.77 719.44,-315.4"/>
<polygon fill="darkgreen" stroke="darkgreen" points="562.45,-478.61 553.75,-484.66 564.32,-485.36 562.45,-478.61"/>
</g>
<!-- Node14 -->
<g id="node14" class="node">
<title>Node14</title>
<g id="a_node14"><a xlink:href="classUserObjectInterface.html" target="_top" xlink:title="Interface for objects that need to use UserObjects.">
<polygon fill="white" stroke="#666666" points="558,-463 427,-463 427,-444 558,-444 558,-463"/>
<text text-anchor="middle" x="492.5" y="-451" font-family="Courier,monospace" font-size="10.00">UserObjectInterface</text>
</a>
</g>
</g>
<!-- Node14&#45;&gt;Node4 -->
<g id="edge13" class="edge">
<title>Node14&#45;&gt;Node4</title>
<path fill="none" stroke="#63b8ff" d="M568.89,-442.24C574.47,-440.33 579.9,-438.1 585,-435.5 645.44,-404.63 698.54,-339.84 717.29,-315.25"/>
<polygon fill="#63b8ff" stroke="#63b8ff" points="568.04,-438.84 559.48,-445.08 570.06,-445.54 568.04,-438.84"/>
</g>
<!-- Node15 -->
<g id="node15" class="node">
<title>Node15</title>
<g id="a_node15"><a xlink:href="classPostprocessorInterface.html" target="_top" xlink:title="Interface class for classes which interact with Postprocessors.">
<polygon fill="white" stroke="#666666" points="567,-426 418,-426 418,-407 567,-407 567,-426"/>
<text text-anchor="middle" x="492.5" y="-414" font-family="Courier,monospace" font-size="10.00">PostprocessorInterface</text>
</a>
</g>
</g>
<!-- Node15&#45;&gt;Node4 -->
<g id="edge14" class="edge">
<title>Node15&#45;&gt;Node4</title>
<path fill="none" stroke="darkgreen" d="M571.39,-403.4C576.05,-401.93 580.62,-400.31 585,-398.5 637.2,-376.97 690.4,-334.66 713.1,-315.43"/>
<polygon fill="darkgreen" stroke="darkgreen" points="570.49,-400.02 561.84,-406.13 572.41,-406.75 570.49,-400.02"/>
</g>
<!-- Node16 -->
<g id="node16" class="node">
<title>Node16</title>
<g id="a_node16"><a xlink:href="classVectorPostprocessorInterface.html" target="_top" xlink:title=" ">
<polygon fill="white" stroke="#666666" points="585,-389 400,-389 400,-370 585,-370 585,-389"/>
<text text-anchor="middle" x="492.5" y="-377" font-family="Courier,monospace" font-size="10.00">VectorPostprocessorInterface</text>
</a>
</g>
</g>
<!-- Node16&#45;&gt;Node4 -->
<g id="edge15" class="edge">
<title>Node16&#45;&gt;Node4</title>
<path fill="none" stroke="darkgreen" d="M563.53,-367.13C570.82,-365.42 578.09,-363.55 585,-361.5 628.29,-348.68 676.78,-327.61 703.67,-315.3"/>
<polygon fill="darkgreen" stroke="darkgreen" points="562.95,-363.67 553.95,-369.26 564.47,-370.51 562.95,-363.67"/>
</g>
<!-- Node17 -->
<g id="node17" class="node">
<title>Node17</title>
<g id="a_node17"><a xlink:href="classReporterInterface.html" target="_top" xlink:title="Interface to allow object to consume Reporter values.">
<polygon fill="white" stroke="#666666" points="552,-352 433,-352 433,-333 552,-333 552,-352"/>
<text text-anchor="middle" x="492.5" y="-340" font-family="Courier,monospace" font-size="10.00">ReporterInterface</text>
</a>
</g>
</g>
<!-- Node17&#45;&gt;Node4 -->
<g id="edge16" class="edge">
<title>Node17&#45;&gt;Node4</title>
<path fill="none" stroke="darkgreen" d="M563.56,-331.28C604.05,-324.79 653.42,-316.89 686.71,-311.55"/>
<polygon fill="darkgreen" stroke="darkgreen" points="563.2,-327.79 553.88,-332.83 564.31,-334.7 563.2,-327.79"/>
</g>
<!-- Node18 -->
<g id="node18" class="node">
<title>Node18</title>
<g id="a_node18"><a xlink:href="classDistributionInterface.html" target="_top" xlink:title="Interface for objects that need to use distributions.">
<polygon fill="white" stroke="#666666" points="564,-315 421,-315 421,-296 564,-296 564,-315"/>
<text text-anchor="middle" x="492.5" y="-303" font-family="Courier,monospace" font-size="10.00">DistributionInterface</text>
</a>
</g>
</g>
<!-- Node18&#45;&gt;Node4 -->
<g id="edge17" class="edge">
<title>Node18&#45;&gt;Node4</title>
<path fill="none" stroke="darkgreen" d="M575.43,-305.5C613.35,-305.5 656.56,-305.5 686.65,-305.5"/>
<polygon fill="darkgreen" stroke="darkgreen" points="575.89,-302 565.89,-305.5 575.89,-309 575.89,-302"/>
</g>
<!-- Node19 -->
<g id="node19" class="node">
<title>Node19</title>
<g id="a_node19"><a xlink:href="classSamplerInterface.html" target="_top" xlink:title="Interface for objects that need to use samplers.">
<polygon fill="white" stroke="#666666" points="549,-278 436,-278 436,-259 549,-259 549,-278"/>
<text text-anchor="middle" x="492.5" y="-266" font-family="Courier,monospace" font-size="10.00">SamplerInterface</text>
</a>
</g>
</g>
<!-- Node19&#45;&gt;Node4 -->
<g id="edge18" class="edge">
<title>Node19&#45;&gt;Node4</title>
<path fill="none" stroke="darkgreen" d="M560.71,-279.26C601.74,-285.84 652.7,-294 686.78,-299.46"/>
<polygon fill="darkgreen" stroke="darkgreen" points="561.34,-275.82 550.91,-277.7 560.23,-282.73 561.34,-275.82"/>
</g>
<!-- Node20 -->
<g id="node20" class="node">
<title>Node20</title>
<g id="a_node20"><a xlink:href="classRestartable.html" target="_top" xlink:title="A class for creating restricted objects.">
<polygon fill="white" stroke="#666666" points="534,-241 451,-241 451,-222 534,-222 534,-241"/>
<text text-anchor="middle" x="492.5" y="-229" font-family="Courier,monospace" font-size="10.00">Restartable</text>
</a>
</g>
</g>
<!-- Node20&#45;&gt;Node4 -->
<g id="edge19" class="edge">
<title>Node20&#45;&gt;Node4</title>
<path fill="none" stroke="darkgreen" d="M545.55,-236.79C558.97,-239.61 573,-243.91 585,-250.5 605.11,-261.54 600.71,-276.79 621,-287.5 641.16,-298.14 666.31,-302.68 686.77,-304.54"/>
<polygon fill="darkgreen" stroke="darkgreen" points="546.44,-233.39 535.97,-235.03 545.18,-240.28 546.44,-233.39"/>
</g>
<!-- Node21 -->
<g id="node21" class="node">
<title>Node21</title>
<g id="a_node21"><a xlink:href="classMeshMetaDataInterface.html" target="_top" xlink:title="The Interface used to retrieve mesh meta data (attributes) set by the MeshGenerator system.">
<polygon fill="white" stroke="#666666" points="564,-204 421,-204 421,-185 564,-185 564,-204"/>
<text text-anchor="middle" x="492.5" y="-192" font-family="Courier,monospace" font-size="10.00">MeshMetaDataInterface</text>
</a>
</g>
</g>
<!-- Node21&#45;&gt;Node4 -->
<g id="edge20" class="edge">
<title>Node21&#45;&gt;Node4</title>
<path fill="none" stroke="darkgreen" d="M574.84,-206.96C578.42,-208.87 581.83,-211.03 585,-213.5 613.86,-235.96 591.78,-265.51 621,-287.5 639.65,-301.54 665.53,-306.04 686.74,-307.03"/>
<polygon fill="darkgreen" stroke="darkgreen" points="576.32,-203.79 565.77,-202.89 573.46,-210.18 576.32,-203.79"/>
</g>
<!-- Node22 -->
<g id="node22" class="node">
<title>Node22</title>
<g id="a_node22"><a xlink:href="classMeshChangedInterface.html" target="_top" xlink:title="Interface for notifications that the mesh has changed.">
<polygon fill="white" stroke="#666666" points="561,-167 424,-167 424,-148 561,-148 561,-167"/>
<text text-anchor="middle" x="492.5" y="-155" font-family="Courier,monospace" font-size="10.00">MeshChangedInterface</text>
</a>
</g>
</g>
<!-- Node22&#45;&gt;Node4 -->
<g id="edge21" class="edge">
<title>Node22&#45;&gt;Node4</title>
<path fill="none" stroke="darkgreen" d="M571.65,-167.44C576.47,-169.91 580.98,-172.9 585,-176.5 623.61,-211.12 581.83,-253.51 621,-287.5 638.84,-302.98 665.12,-307.4 686.73,-308"/>
<polygon fill="darkgreen" stroke="darkgreen" points="573.36,-164.37 562.79,-163.66 570.61,-170.8 573.36,-164.37"/>
</g>
<!-- Node23 -->
<g id="node23" class="node">
<title>Node23</title>
<g id="a_node23"><a xlink:href="classScalarCoupleable.html" target="_top" xlink:title="Interface for objects that needs scalar coupling capabilities.">
<polygon fill="white" stroke="#666666" points="549,-130 436,-130 436,-111 549,-111 549,-130"/>
<text text-anchor="middle" x="492.5" y="-118" font-family="Courier,monospace" font-size="10.00">ScalarCoupleable</text>
</a>
</g>
</g>
<!-- Node23&#45;&gt;Node4 -->
<g id="edge22" class="edge">
<title>Node23&#45;&gt;Node4</title>
<path fill="none" stroke="darkgreen" d="M560.13,-125.01C569.36,-128.15 578.04,-132.77 585,-139.5 633.67,-186.55 571.57,-241.25 621,-287.5 638.31,-303.7 664.73,-308.09 686.54,-308.48"/>
<polygon fill="darkgreen" stroke="darkgreen" points="561.15,-121.66 550.58,-122.38 559.29,-128.41 561.15,-121.66"/>
</g>
<!-- Node24 -->
<g id="node24" class="node">
<title>Node24</title>
<g id="a_node24"><a xlink:href="classPerfGraphInterface.html" target="_top" xlink:title="Interface for objects interacting with the PerfGraph.">
<polygon fill="white" stroke="#666666" points="555,-93 430,-93 430,-74 555,-74 555,-93"/>
<text text-anchor="middle" x="492.5" y="-81" font-family="Courier,monospace" font-size="10.00">PerfGraphInterface</text>
</a>
</g>
</g>
<!-- Node24&#45;&gt;Node4 -->
<g id="edge23" class="edge">
<title>Node24&#45;&gt;Node4</title>
<path fill="none" stroke="darkgreen" d="M565.85,-89.83C572.97,-92.88 579.56,-96.99 585,-102.5 643.86,-162.1 561.18,-228.86 621,-287.5 638,-304.16 664.56,-308.51 686.52,-308.78"/>
<polygon fill="darkgreen" stroke="darkgreen" points="567.13,-86.57 556.54,-86.58 564.83,-93.18 567.13,-86.57"/>
</g>
<!-- Node25 -->
<g id="node25" class="node">
<title>Node25</title>
<g id="a_node25"><a xlink:href="classDependencyResolverInterface.html" target="_top" xlink:title="Interface for sorting dependent vectors of objects.">
<polygon fill="white" stroke="#666666" points="582,-56 403,-56 403,-37 582,-37 582,-56"/>
<text text-anchor="middle" x="492.5" y="-44" font-family="Courier,monospace" font-size="10.00">DependencyResolverInterface</text>
</a>
</g>
</g>
<!-- Node25&#45;&gt;Node4 -->
<g id="edge24" class="edge">
<title>Node25&#45;&gt;Node4</title>
<path fill="none" stroke="#63b8ff" d="M582.3,-62.89C583.23,-63.72 584.13,-64.59 585,-65.5 654.11,-137.72 550.73,-216.42 621,-287.5 637.8,-304.49 664.51,-308.81 686.58,-308.97"/>
<polygon fill="#63b8ff" stroke="#63b8ff" points="584.62,-60.24 574.47,-57.2 580.5,-65.91 584.62,-60.24"/>
</g>
<!-- Node26 -->
<g id="node26" class="node">
<title>Node26</title>
<g id="a_node26"><a xlink:href="classBlockRestrictable.html" target="_top" xlink:title="An interface that restricts an object to subdomains via the &#39;blocks&#39; input parameter.">
<polygon fill="white" stroke="#666666" points="785,-278 666,-278 666,-259 785,-259 785,-278"/>
<text text-anchor="middle" x="725.5" y="-266" font-family="Courier,monospace" font-size="10.00">BlockRestrictable</text>
</a>
</g>
</g>
<!-- Node26&#45;&gt;Node3 -->
<g id="edge25" class="edge">
<title>Node26&#45;&gt;Node3</title>
<path fill="none" stroke="#63b8ff" d="M796.5,-262.27C808.08,-259.59 819.67,-255.81 830,-250.5 869.92,-229.98 903.86,-186.76 917.76,-167.33"/>
<polygon fill="#63b8ff" stroke="#63b8ff" points="796.01,-258.8 786.91,-264.23 797.41,-265.66 796.01,-258.8"/>
</g>
<!-- Node27 -->
<g id="node27" class="node">
<title>Node27</title>
<g id="a_node27"><a xlink:href="classMaterialPropertyInterface.html" target="_top" xlink:title="An interface for accessing Materials.">
<polygon fill="white" stroke="#666666" points="809,-241 642,-241 642,-222 809,-222 809,-241"/>
<text text-anchor="middle" x="725.5" y="-229" font-family="Courier,monospace" font-size="10.00">MaterialPropertyInterface</text>
</a>
</g>
</g>
<!-- Node27&#45;&gt;Node3 -->
<g id="edge26" class="edge">
<title>Node27&#45;&gt;Node3</title>
<path fill="none" stroke="#63b8ff" d="M813.48,-218.78C819.13,-217.21 824.68,-215.46 830,-213.5 861.31,-201.94 893.97,-180.02 911.51,-167.3"/>
<polygon fill="#63b8ff" stroke="#63b8ff" points="812.83,-215.33 803.99,-221.18 814.55,-222.12 812.83,-215.33"/>
</g>
<!-- Node28 -->
<g id="node28" class="node">
<title>Node28</title>
<g id="a_node28"><a xlink:href="classCoupleable.html" target="_top" xlink:title="Interface for objects that needs coupling capabilities.">
<polygon fill="white" stroke="#666666" points="764,-204 687,-204 687,-185 764,-185 764,-204"/>
<text text-anchor="middle" x="725.5" y="-192" font-family="Courier,monospace" font-size="10.00">Coupleable</text>
</a>
</g>
</g>
<!-- Node28&#45;&gt;Node3 -->
<g id="edge27" class="edge">
<title>Node28&#45;&gt;Node3</title>
<path fill="none" stroke="#63b8ff" d="M775.38,-186.27C792.65,-183.29 812.21,-179.84 830,-176.5 845.13,-173.66 861.59,-170.41 876.47,-167.41"/>
<polygon fill="#63b8ff" stroke="#63b8ff" points="775.15,-182.76 765.89,-187.9 776.33,-189.66 775.15,-182.76"/>
</g>
<!-- Node29 -->
<g id="node29" class="node">
<title>Node29</title>
<g id="a_node29"><a xlink:href="classMooseVariableDependencyInterface.html" target="_top" xlink:title=" ">
<polygon fill="white" stroke="#666666" points="830,-167 621,-167 621,-148 830,-148 830,-167"/>
<text text-anchor="middle" x="725.5" y="-155" font-family="Courier,monospace" font-size="10.00">MooseVariableDependencyInterface</text>
</a>
</g>
</g>
<!-- Node29&#45;&gt;Node3 -->
<g id="edge28" class="edge">
<title>Node29&#45;&gt;Node3</title>
<path fill="none" stroke="#63b8ff" d="M841.67,-157.5C849.86,-157.5 857.9,-157.5 865.55,-157.5"/>
<polygon fill="#63b8ff" stroke="#63b8ff" points="841.94,-154 831.94,-157.5 841.94,-161 841.94,-154"/>
</g>
<!-- Node30 -->
<g id="node30" class="node">
<title>Node30</title>
<g id="a_node30"><a xlink:href="classTransientInterface.html" target="_top" xlink:title="Interface for objects that needs transient capabilities.">
<polygon fill="white" stroke="#666666" points="788,-130 663,-130 663,-111 788,-111 788,-130"/>
<text text-anchor="middle" x="725.5" y="-118" font-family="Courier,monospace" font-size="10.00">TransientInterface</text>
</a>
</g>
</g>
<!-- Node30&#45;&gt;Node3 -->
<g id="edge29" class="edge">
<title>Node30&#45;&gt;Node3</title>
<path fill="none" stroke="#63b8ff" d="M792.56,-132.56C805,-134.85 817.9,-137.24 830,-139.5 843.79,-142.08 858.7,-144.9 872.52,-147.53"/>
<polygon fill="#63b8ff" stroke="#63b8ff" points="793.26,-129.13 782.79,-130.76 791.99,-136.01 793.26,-129.13"/>
</g>
<!-- Node31 -->
<g id="node31" class="node">
<title>Node31</title>
<g id="a_node31"><a xlink:href="classRandomInterface.html" target="_top" xlink:title="Interface for objects that need parallel consistent random numbers without patterns over the course o...">
<polygon fill="white" stroke="#666666" points="779,-93 672,-93 672,-74 779,-74 779,-93"/>
<text text-anchor="middle" x="725.5" y="-81" font-family="Courier,monospace" font-size="10.00">RandomInterface</text>
</a>
</g>
</g>
<!-- Node31&#45;&gt;Node3 -->
<g id="edge30" class="edge">
<title>Node31&#45;&gt;Node3</title>
<path fill="none" stroke="#63b8ff" d="M790.35,-91.65C803.68,-94.34 817.48,-97.87 830,-102.5 860.98,-113.96 893.5,-135.25 911.16,-147.71"/>
<polygon fill="#63b8ff" stroke="#63b8ff" points="791.26,-88.26 780.79,-89.86 789.98,-95.14 791.26,-88.26"/>
</g>
<!-- Node32 -->
<g id="node32" class="node">
<title>Node32</title>
<g id="a_node32"><a xlink:href="classElementIDInterface.html" target="_top" xlink:title=" ">
<polygon fill="white" stroke="#666666" points="788,-56 663,-56 663,-37 788,-37 788,-56"/>
<text text-anchor="middle" x="725.5" y="-44" font-family="Courier,monospace" font-size="10.00">ElementIDInterface</text>
</a>
</g>
</g>
<!-- Node32&#45;&gt;Node3 -->
<g id="edge31" class="edge">
<title>Node32&#45;&gt;Node3</title>
<path fill="none" stroke="#63b8ff" d="M799.43,-54.25C810.03,-56.97 820.54,-60.62 830,-65.5 869.47,-85.89 903.39,-128.21 917.5,-147.51"/>
<polygon fill="#63b8ff" stroke="#63b8ff" points="800.4,-50.88 789.87,-52.08 798.85,-57.71 800.4,-50.88"/>
</g>
<!-- Node33 -->
<g id="node33" class="node">
<title>Node33</title>
<g id="a_node33"><a xlink:href="classReporter.html" target="_top" xlink:title="Reporter objects allow for the declaration of arbitrary data types that are aggregate values for a si...">
<polygon fill="white" stroke="#666666" points="958,-75 893,-75 893,-56 958,-56 958,-75"/>
<text text-anchor="middle" x="925.5" y="-63" font-family="Courier,monospace" font-size="10.00">Reporter</text>
</a>
</g>
</g>
<!-- Node33&#45;&gt;Node2 -->
<g id="edge32" class="edge">
<title>Node33&#45;&gt;Node2</title>
<path fill="none" stroke="#63b8ff" d="M969.56,-70.77C985.52,-72.73 1003.82,-74.97 1020.57,-77.02"/>
<polygon fill="#63b8ff" stroke="#63b8ff" points="970.25,-67.33 959.9,-69.59 969.4,-74.28 970.25,-67.33"/>
</g>
<!-- Node34 -->
<g id="node34" class="node">
<title>Node34</title>
<g id="a_node34"><a xlink:href="classOutputInterface.html" target="_top" xlink:title="A class to provide an common interface to objects requiring &quot;outputs&quot; option.">
<polygon fill="white" stroke="#666666" points="779,-19 672,-19 672,0 779,0 779,-19"/>
<text text-anchor="middle" x="725.5" y="-7" font-family="Courier,monospace" font-size="10.00">OutputInterface</text>
</a>
</g>
</g>
<!-- Node34&#45;&gt;Node33 -->
<g id="edge33" class="edge">
<title>Node34&#45;&gt;Node33</title>
<path fill="none" stroke="#63b8ff" d="M790.32,-18.43C803.56,-20.89 817.32,-23.89 830,-27.5 856.02,-34.91 884.69,-47.03 903.55,-55.59"/>
<polygon fill="#63b8ff" stroke="#63b8ff" points="791.32,-15.05 780.86,-16.76 790.1,-21.95 791.32,-15.05"/>
</g>
</g>
</svg>
