<?xml version="1.0" encoding="UTF-8" standalone="no"?>
<!DOCTYPE svg PUBLIC "-//W3C//DTD SVG 1.1//EN"
 "http://www.w3.org/Graphics/SVG/1.1/DTD/svg11.dtd">
<!-- Generated by graphviz version 7.0.5 (20221223.1930)
 -->
<!-- Title: NonlinearSystemBase Pages: 1 -->
<svg width="464pt" height="247pt"
 viewBox="0.00 0.00 464.00 247.00" xmlns="http://www.w3.org/2000/svg" xmlns:xlink="http://www.w3.org/1999/xlink">
<g id="graph0" class="graph" transform="scale(1 1) rotate(0) translate(4 243)">
<title>NonlinearSystemBase</title>
<!-- Node1 -->
<g id="node1" class="node">
<title>Node1</title>
<g id="a_node1"><a xlink:title="Nonlinear system to be solved.">
<polygon fill="#999999" stroke="#666666" points="325,-129 194,-129 194,-110 325,-110 325,-129"/>
<text text-anchor="middle" x="259.5" y="-117" font-family="Courier,monospace" font-size="10.00">NonlinearSystemBase</text>
</a>
</g>
</g>
<!-- Node6 -->
<g id="node6" class="node">
<title>Node6</title>
<g id="a_node6"><a xlink:href="classDumpObjectsNonlinearSystem.html" target="_top" xlink:title="Nonlinear system for dumping objects.">
<polygon fill="white" stroke="#666666" points="173,-74 0,-74 0,-55 173,-55 173,-74"/>
<text text-anchor="middle" x="86.5" y="-62" font-family="Courier,monospace" font-size="10.00">DumpObjectsNonlinearSystem</text>
</a>
</g>
</g>
<!-- Node1&#45;&gt;Node6 -->
<g id="edge5" class="edge">
<title>Node1&#45;&gt;Node6</title>
<path fill="none" stroke="#63b8ff" d="M219.47,-106.24C187.76,-96.52 144.19,-83.18 115.7,-74.45"/>
<polygon fill="#63b8ff" stroke="#63b8ff" points="218.12,-109.48 228.71,-109.07 220.17,-102.79 218.12,-109.48"/>
</g>
<!-- Node7 -->
<g id="node7" class="node">
<title>Node7</title>
<g id="a_node7"><a xlink:href="classNonlinearEigenSystem.html" target="_top" xlink:title="Nonlinear eigenvalue system to be solved.">
<polygon fill="white" stroke="#666666" points="328,-74 191,-74 191,-55 328,-55 328,-74"/>
<text text-anchor="middle" x="259.5" y="-62" font-family="Courier,monospace" font-size="10.00">NonlinearEigenSystem</text>
</a>
</g>
</g>
<!-- Node1&#45;&gt;Node7 -->
<g id="edge6" class="edge">
<title>Node1&#45;&gt;Node7</title>
<path fill="none" stroke="#63b8ff" d="M259.5,-98.35C259.5,-90.1 259.5,-80.97 259.5,-74.44"/>
<polygon fill="#63b8ff" stroke="#63b8ff" points="256,-98.23 259.5,-108.23 263,-98.23 256,-98.23"/>
</g>
<!-- Node8 -->
<g id="node8" class="node">
<title>Node8</title>
<g id="a_node8"><a xlink:href="classNonlinearSystem.html" target="_top" xlink:title="Nonlinear system to be solved.">
<polygon fill="white" stroke="#666666" points="453,-74 346,-74 346,-55 453,-55 453,-74"/>
<text text-anchor="middle" x="399.5" y="-62" font-family="Courier,monospace" font-size="10.00">NonlinearSystem</text>
</a>
</g>
</g>
<!-- Node1&#45;&gt;Node8 -->
<g id="edge7" class="edge">
<title>Node1&#45;&gt;Node8</title>
<path fill="none" stroke="#63b8ff" d="M293.96,-105.45C319.51,-95.78 353.66,-82.85 376.1,-74.36"/>
<polygon fill="#63b8ff" stroke="#63b8ff" points="292.78,-102.16 284.66,-108.97 295.26,-108.71 292.78,-102.16"/>
</g>
<!-- Node2 -->
<g id="node2" class="node">
<title>Node2</title>
<g id="a_node2"><a xlink:href="classSystemBase.html" target="_top" xlink:title="Base class for a system (of equations)">
<polygon fill="white" stroke="#666666" points="239,-184 162,-184 162,-165 239,-165 239,-184"/>
<text text-anchor="middle" x="200.5" y="-172" font-family="Courier,monospace" font-size="10.00">SystemBase</text>
</a>
</g>
</g>
<!-- Node2&#45;&gt;Node1 -->
<g id="edge1" class="edge">
<title>Node2&#45;&gt;Node1</title>
<path fill="none" stroke="#63b8ff" d="M218.77,-157.09C228.96,-147.94 241.24,-136.9 249.64,-129.36"/>
<polygon fill="#63b8ff" stroke="#63b8ff" points="216.73,-154.21 211.63,-163.5 221.41,-159.42 216.73,-154.21"/>
</g>
<!-- Node3 -->
<g id="node3" class="node">
<title>Node3</title>
<g id="a_node3"><a xlink:title=" ">
<polygon fill="white" stroke="#666666" points="193,-239 38,-239 38,-220 193,-220 193,-239"/>
<text text-anchor="middle" x="115.5" y="-227" font-family="Courier,monospace" font-size="10.00">libMesh::ParallelObject</text>
</a>
</g>
</g>
<!-- Node3&#45;&gt;Node2 -->
<g id="edge2" class="edge">
<title>Node3&#45;&gt;Node2</title>
<path fill="none" stroke="#63b8ff" d="M139.62,-213.46C154.69,-204.06 173.59,-192.28 186.29,-184.36"/>
<polygon fill="#63b8ff" stroke="#63b8ff" points="137.84,-210.45 131.2,-218.71 141.54,-216.39 137.84,-210.45"/>
</g>
<!-- Node4 -->
<g id="node4" class="node">
<title>Node4</title>
<g id="a_node4"><a xlink:href="classConsoleStreamInterface.html" target="_top" xlink:title="An inteface for the _console for outputting to the Console object.">
<polygon fill="white" stroke="#666666" points="360,-239 211,-239 211,-220 360,-220 360,-239"/>
<text text-anchor="middle" x="285.5" y="-227" font-family="Courier,monospace" font-size="10.00">ConsoleStreamInterface</text>
</a>
</g>
</g>
<!-- Node4&#45;&gt;Node2 -->
<g id="edge3" class="edge">
<title>Node4&#45;&gt;Node2</title>
<path fill="none" stroke="#63b8ff" d="M261.38,-213.46C246.31,-204.06 227.41,-192.28 214.71,-184.36"/>
<polygon fill="#63b8ff" stroke="#63b8ff" points="259.46,-216.39 269.8,-218.71 263.16,-210.45 259.46,-216.39"/>
</g>
<!-- Node5 -->
<g id="node5" class="node">
<title>Node5</title>
<g id="a_node5"><a xlink:href="classPerfGraphInterface.html" target="_top" xlink:title="Interface for objects interacting with the PerfGraph.">
<polygon fill="white" stroke="#666666" points="382,-184 257,-184 257,-165 382,-165 382,-184"/>
<text text-anchor="middle" x="319.5" y="-172" font-family="Courier,monospace" font-size="10.00">PerfGraphInterface</text>
</a>
</g>
</g>
<!-- Node5&#45;&gt;Node1 -->
<g id="edge4" class="edge">
<title>Node5&#45;&gt;Node1</title>
<path fill="none" stroke="#63b8ff" d="M300.92,-157.09C290.56,-147.94 278.07,-136.9 269.53,-129.36"/>
<polygon fill="#63b8ff" stroke="#63b8ff" points="298.38,-159.51 308.19,-163.51 303.01,-154.26 298.38,-159.51"/>
</g>
<!-- Node9 -->
<g id="node9" class="node">
<title>Node9</title>
<g id="a_node9"><a xlink:href="classMooseEigenSystem.html" target="_top" xlink:title=" ">
<polygon fill="white" stroke="#666666" points="456,-19 343,-19 343,0 456,0 456,-19"/>
<text text-anchor="middle" x="399.5" y="-7" font-family="Courier,monospace" font-size="10.00">MooseEigenSystem</text>
</a>
</g>
</g>
<!-- Node8&#45;&gt;Node9 -->
<g id="edge8" class="edge">
<title>Node8&#45;&gt;Node9</title>
<path fill="none" stroke="#63b8ff" d="M399.5,-43.35C399.5,-35.1 399.5,-25.97 399.5,-19.44"/>
<polygon fill="#63b8ff" stroke="#63b8ff" points="396,-43.23 399.5,-53.23 403,-43.23 396,-43.23"/>
</g>
</g>
</svg>
