<?xml version="1.0" encoding="UTF-8" standalone="no"?>
<!DOCTYPE svg PUBLIC "-//W3C//DTD SVG 1.1//EN"
 "http://www.w3.org/Graphics/SVG/1.1/DTD/svg11.dtd">
<!-- Generated by graphviz version 7.0.5 (20221223.1930)
 -->
<!-- Title: MeshBaseImageSampler Pages: 1 -->
<svg width="163pt" height="137pt"
 viewBox="0.00 0.00 163.00 137.00" xmlns="http://www.w3.org/2000/svg" xmlns:xlink="http://www.w3.org/1999/xlink">
<g id="graph0" class="graph" transform="scale(1 1) rotate(0) translate(4 133)">
<title>MeshBaseImageSampler</title>
<!-- Node1 -->
<g id="node1" class="node">
<title>Node1</title>
<g id="a_node1"><a xlink:title="A helper class for reading and sampling images using VTK, but with a Meshbase object.">
<polygon fill="#999999" stroke="#666666" points="146,-74 9,-74 9,-55 146,-55 146,-74"/>
<text text-anchor="middle" x="77.5" y="-62" font-family="Courier,monospace" font-size="10.00">MeshBaseImageSampler</text>
</a>
</g>
</g>
<!-- Node3 -->
<g id="node3" class="node">
<title>Node3</title>
<g id="a_node3"><a xlink:href="classImageSubdomainGenerator.html" target="_top" xlink:title="MeshGenerator for defining a subdomain based on image data.">
<polygon fill="white" stroke="#666666" points="155,-19 0,-19 0,0 155,0 155,-19"/>
<text text-anchor="middle" x="77.5" y="-7" font-family="Courier,monospace" font-size="10.00">ImageSubdomainGenerator</text>
</a>
</g>
</g>
<!-- Node1&#45;&gt;Node3 -->
<g id="edge2" class="edge">
<title>Node1&#45;&gt;Node3</title>
<path fill="none" stroke="#63b8ff" d="M77.5,-43.35C77.5,-35.1 77.5,-25.97 77.5,-19.44"/>
<polygon fill="#63b8ff" stroke="#63b8ff" points="74,-43.23 77.5,-53.23 81,-43.23 74,-43.23"/>
</g>
<!-- Node2 -->
<g id="node2" class="node">
<title>Node2</title>
<g id="a_node2"><a xlink:href="classFileRangeBuilder.html" target="_top" xlink:title="To be called in the validParams functions of classes that need to operate on ranges of files.">
<polygon fill="white" stroke="#666666" points="134,-129 21,-129 21,-110 134,-110 134,-129"/>
<text text-anchor="middle" x="77.5" y="-117" font-family="Courier,monospace" font-size="10.00">FileRangeBuilder</text>
</a>
</g>
</g>
<!-- Node2&#45;&gt;Node1 -->
<g id="edge1" class="edge">
<title>Node2&#45;&gt;Node1</title>
<path fill="none" stroke="#63b8ff" d="M77.5,-98.35C77.5,-90.1 77.5,-80.97 77.5,-74.44"/>
<polygon fill="#63b8ff" stroke="#63b8ff" points="74,-98.23 77.5,-108.23 81,-98.23 74,-98.23"/>
</g>
</g>
</svg>
