<?xml version="1.0" encoding="UTF-8" standalone="no"?>
<!DOCTYPE svg PUBLIC "-//W3C//DTD SVG 1.1//EN"
 "http://www.w3.org/Graphics/SVG/1.1/DTD/svg11.dtd">
<!-- Generated by graphviz version 7.0.5 (20221223.1930)
 -->
<!-- Title: MaterialDerivativeTestKernel Pages: 1 -->
<svg width="357pt" height="346pt"
 viewBox="0.00 0.00 357.00 346.00" xmlns="http://www.w3.org/2000/svg" xmlns:xlink="http://www.w3.org/1999/xlink">
<g id="graph0" class="graph" transform="scale(1 1) rotate(0) translate(4 342)">
<title>MaterialDerivativeTestKernel</title>
<!-- Node1 -->
<g id="node1" class="node">
<title>Node1</title>
<g id="a_node1"><a xlink:title="This kernel is used for testing derivatives of a material property.">
<polygon fill="#999999" stroke="#666666" points="265,-19 80,-19 80,0 265,0 265,-19"/>
<text text-anchor="middle" x="172.5" y="-7" font-family="Courier,monospace" font-size="10.00">MaterialDerivativeTestKernel</text>
</a>
</g>
</g>
<!-- Node2 -->
<g id="node2" class="node">
<title>Node2</title>
<g id="a_node2"><a xlink:href="classMaterialDerivativeTestKernelBase.html" target="_top" xlink:title=" ">
<polygon fill="white" stroke="#666666" points="265,-85 80,-85 80,-55 265,-55 265,-85"/>
<text text-anchor="start" x="88" y="-73" font-family="Courier,monospace" font-size="10.00">MaterialDerivativeTestKernel</text>
<text text-anchor="middle" x="172.5" y="-62" font-family="Courier,monospace" font-size="10.00">Base&lt; Real &gt;</text>
</a>
</g>
</g>
<!-- Node2&#45;&gt;Node1 -->
<g id="edge1" class="edge">
<title>Node2&#45;&gt;Node1</title>
<path fill="none" stroke="#63b8ff" d="M172.5,-43.3C172.5,-34.65 172.5,-25.58 172.5,-19.18"/>
<polygon fill="#63b8ff" stroke="#63b8ff" points="169,-43.03 172.5,-53.03 176,-43.03 169,-43.03"/>
</g>
<!-- Node3 -->
<g id="node3" class="node">
<title>Node3</title>
<g id="a_node3"><a xlink:href="classDerivativeMaterialInterface.html" target="_top" xlink:title=" ">
<polygon fill="white" stroke="#666666" points="262,-162 83,-162 83,-121 262,-121 262,-162"/>
<text text-anchor="start" x="91" y="-150" font-family="Courier,monospace" font-size="10.00">DerivativeMaterialInterface</text>
<text text-anchor="start" x="91" y="-139" font-family="Courier,monospace" font-size="10.00">&lt; JvarMapKernelInterface</text>
<text text-anchor="middle" x="172.5" y="-128" font-family="Courier,monospace" font-size="10.00">&lt; Kernel &gt; &gt;</text>
</a>
</g>
</g>
<!-- Node3&#45;&gt;Node2 -->
<g id="edge2" class="edge">
<title>Node3&#45;&gt;Node2</title>
<path fill="none" stroke="#63b8ff" d="M172.5,-109.38C172.5,-101.04 172.5,-92.43 172.5,-85.47"/>
<polygon fill="#63b8ff" stroke="#63b8ff" points="169,-109.26 172.5,-119.26 176,-109.26 169,-109.26"/>
</g>
<!-- Node4 -->
<g id="node4" class="node">
<title>Node4</title>
<g id="a_node4"><a xlink:href="classJvarMapKernelInterface.html" target="_top" xlink:title=" ">
<polygon fill="white" stroke="#666666" points="158,-228 9,-228 9,-198 158,-198 158,-228"/>
<text text-anchor="start" x="17" y="-216" font-family="Courier,monospace" font-size="10.00">JvarMapKernelInterface</text>
<text text-anchor="middle" x="83.5" y="-205" font-family="Courier,monospace" font-size="10.00">&lt; Kernel &gt;</text>
</a>
</g>
</g>
<!-- Node4&#45;&gt;Node3 -->
<g id="edge3" class="edge">
<title>Node4&#45;&gt;Node3</title>
<path fill="none" stroke="#63b8ff" d="M110.73,-190.74C122.27,-181.72 135.65,-171.28 147,-162.42"/>
<polygon fill="#63b8ff" stroke="#63b8ff" points="108.86,-187.75 103.13,-196.67 113.17,-193.27 108.86,-187.75"/>
</g>
<!-- Node5 -->
<g id="node5" class="node">
<title>Node5</title>
<g id="a_node5"><a xlink:href="classJvarMapInterfaceBase.html" target="_top" xlink:title="Base class (&quot;Veneer&quot;) that implements the actual mapping from &#39;jvar&#39; in into the _coupled_moose_vars ...">
<polygon fill="white" stroke="#666666" points="167,-283 0,-283 0,-264 167,-264 167,-283"/>
<text text-anchor="middle" x="83.5" y="-271" font-family="Courier,monospace" font-size="10.00">JvarMapInterfaceBase&lt; T &gt;</text>
</a>
</g>
</g>
<!-- Node5&#45;&gt;Node4 -->
<g id="edge4" class="edge">
<title>Node5&#45;&gt;Node4</title>
<path fill="none" stroke="#63b8ff" d="M83.5,-252.51C83.5,-244.49 83.5,-235.43 83.5,-228.11"/>
<polygon fill="#63b8ff" stroke="#63b8ff" points="80,-252.35 83.5,-262.35 87,-252.35 80,-252.35"/>
</g>
<!-- Node6 -->
<g id="node6" class="node">
<title>Node6</title>
<g id="a_node6"><a xlink:title=" ">
<polygon fill="white" stroke="#666666" points="98,-338 69,-338 69,-319 98,-319 98,-338"/>
<text text-anchor="middle" x="83.5" y="-326" font-family="Courier,monospace" font-size="10.00">T</text>
</a>
</g>
</g>
<!-- Node6&#45;&gt;Node5 -->
<g id="edge5" class="edge">
<title>Node6&#45;&gt;Node5</title>
<path fill="none" stroke="#63b8ff" d="M83.5,-307.35C83.5,-299.1 83.5,-289.97 83.5,-283.44"/>
<polygon fill="#63b8ff" stroke="#63b8ff" points="80,-307.23 83.5,-317.23 87,-307.23 80,-307.23"/>
</g>
<!-- Node7 -->
<g id="node7" class="node">
<title>Node7</title>
<g id="a_node7"><a xlink:href="classDerivativeMaterialPropertyNameInterface.html" target="_top" xlink:title=" ">
<polygon fill="white" stroke="#666666" points="349,-228 176,-228 176,-198 349,-198 349,-228"/>
<text text-anchor="start" x="184" y="-216" font-family="Courier,monospace" font-size="10.00">DerivativeMaterialProperty</text>
<text text-anchor="middle" x="262.5" y="-205" font-family="Courier,monospace" font-size="10.00">NameInterface</text>
</a>
</g>
</g>
<!-- Node7&#45;&gt;Node3 -->
<g id="edge6" class="edge">
<title>Node7&#45;&gt;Node3</title>
<path fill="none" stroke="#63b8ff" d="M234.96,-190.74C223.29,-181.72 209.77,-171.28 198.29,-162.42"/>
<polygon fill="#63b8ff" stroke="#63b8ff" points="232.6,-193.33 242.65,-196.67 236.88,-187.79 232.6,-193.33"/>
</g>
</g>
</svg>
