<?xml version="1.0" encoding="UTF-8" standalone="no"?>
<!DOCTYPE svg PUBLIC "-//W3C//DTD SVG 1.1//EN"
 "http://www.w3.org/Graphics/SVG/1.1/DTD/svg11.dtd">
<!-- Generated by graphviz version 7.0.5 (20221223.1930)
 -->
<!-- Title: MaterialWarehouse Pages: 1 -->
<svg width="199pt" height="148pt"
 viewBox="0.00 0.00 199.00 148.00" xmlns="http://www.w3.org/2000/svg" xmlns:xlink="http://www.w3.org/1999/xlink">
<g id="graph0" class="graph" transform="scale(1 1) rotate(0) translate(4 144)">
<title>MaterialWarehouse</title>
<!-- Node1 -->
<g id="node1" class="node">
<title>Node1</title>
<g id="a_node1"><a xlink:title="MaterialBase objects are special in that they have additional objects created automatically (see FEPr...">
<polygon fill="#999999" stroke="#666666" points="155,-19 36,-19 36,0 155,0 155,-19"/>
<text text-anchor="middle" x="95.5" y="-7" font-family="Courier,monospace" font-size="10.00">MaterialWarehouse</text>
</a>
</g>
</g>
<!-- Node2 -->
<g id="node2" class="node">
<title>Node2</title>
<g id="a_node2"><a xlink:href="classMooseObjectWarehouse.html" target="_top" xlink:title=" ">
<polygon fill="white" stroke="#666666" points="164,-85 27,-85 27,-55 164,-55 164,-85"/>
<text text-anchor="start" x="35" y="-73" font-family="Courier,monospace" font-size="10.00">MooseObjectWarehouse</text>
<text text-anchor="middle" x="95.5" y="-62" font-family="Courier,monospace" font-size="10.00">&lt; MaterialBase &gt;</text>
</a>
</g>
</g>
<!-- Node2&#45;&gt;Node1 -->
<g id="edge1" class="edge">
<title>Node2&#45;&gt;Node1</title>
<path fill="none" stroke="#63b8ff" d="M95.5,-43.3C95.5,-34.65 95.5,-25.58 95.5,-19.18"/>
<polygon fill="#63b8ff" stroke="#63b8ff" points="92,-43.03 95.5,-53.03 99,-43.03 92,-43.03"/>
</g>
<!-- Node3 -->
<g id="node3" class="node">
<title>Node3</title>
<g id="a_node3"><a xlink:href="classMooseObjectWarehouseBase.html" target="_top" xlink:title="A base storage container for MooseObjects.">
<polygon fill="white" stroke="#666666" points="191,-140 0,-140 0,-121 191,-121 191,-140"/>
<text text-anchor="middle" x="95.5" y="-128" font-family="Courier,monospace" font-size="10.00">MooseObjectWarehouseBase&lt; T &gt;</text>
</a>
</g>
</g>
<!-- Node3&#45;&gt;Node2 -->
<g id="edge2" class="edge">
<title>Node3&#45;&gt;Node2</title>
<path fill="none" stroke="#63b8ff" d="M95.5,-109.51C95.5,-101.49 95.5,-92.43 95.5,-85.11"/>
<polygon fill="#63b8ff" stroke="#63b8ff" points="92,-109.35 95.5,-119.35 99,-109.35 92,-109.35"/>
</g>
</g>
</svg>
