<?xml version="1.0" encoding="UTF-8" standalone="no"?>
<!DOCTYPE svg PUBLIC "-//W3C//DTD SVG 1.1//EN"
 "http://www.w3.org/Graphics/SVG/1.1/DTD/svg11.dtd">
<!-- Generated by graphviz version 7.0.5 (20221223.1930)
 -->
<!-- Title: Moose::VectorCompositeFunctor&lt; T &gt; Pages: 1 -->
<svg width="229pt" height="203pt"
 viewBox="0.00 0.00 229.00 203.00" xmlns="http://www.w3.org/2000/svg" xmlns:xlink="http://www.w3.org/1999/xlink">
<g id="graph0" class="graph" transform="scale(1 1) rotate(0) translate(4 199)">
<title>Moose::VectorCompositeFunctor&lt; T &gt;</title>
<!-- Node1 -->
<g id="node1" class="node">
<title>Node1</title>
<g id="a_node1"><a xlink:title="A functor that returns a vector composed of its component functor evaluations.">
<polygon fill="#999999" stroke="#666666" points="221,-19 0,-19 0,0 221,0 221,-19"/>
<text text-anchor="middle" x="110.5" y="-7" font-family="Courier,monospace" font-size="10.00">Moose::VectorCompositeFunctor&lt; T &gt;</text>
</a>
</g>
</g>
<!-- Node2 -->
<g id="node2" class="node">
<title>Node2</title>
<g id="a_node2"><a xlink:href="classMoose_1_1FunctorBase.html" target="_top" xlink:title=" ">
<polygon fill="white" stroke="#666666" points="179,-85 42,-85 42,-55 179,-55 179,-85"/>
<text text-anchor="start" x="50" y="-73" font-family="Courier,monospace" font-size="10.00">Moose::FunctorBase</text>
<text text-anchor="middle" x="110.5" y="-62" font-family="Courier,monospace" font-size="10.00">&lt; VectorValue&lt; T &gt; &gt;</text>
</a>
</g>
</g>
<!-- Node2&#45;&gt;Node1 -->
<g id="edge1" class="edge">
<title>Node2&#45;&gt;Node1</title>
<path fill="none" stroke="#63b8ff" d="M110.5,-43.3C110.5,-34.65 110.5,-25.58 110.5,-19.18"/>
<polygon fill="#63b8ff" stroke="#63b8ff" points="107,-43.03 110.5,-53.03 114,-43.03 107,-43.03"/>
</g>
<!-- Node3 -->
<g id="node3" class="node">
<title>Node3</title>
<g id="a_node3"><a xlink:href="classMoose_1_1FunctorAbstract.html" target="_top" xlink:title="Abstract base class that can be used to hold collections of functors.">
<polygon fill="white" stroke="#666666" points="185,-140 36,-140 36,-121 185,-121 185,-140"/>
<text text-anchor="middle" x="110.5" y="-128" font-family="Courier,monospace" font-size="10.00">Moose::FunctorAbstract</text>
</a>
</g>
</g>
<!-- Node3&#45;&gt;Node2 -->
<g id="edge2" class="edge">
<title>Node3&#45;&gt;Node2</title>
<path fill="none" stroke="#63b8ff" d="M110.5,-109.51C110.5,-101.49 110.5,-92.43 110.5,-85.11"/>
<polygon fill="#63b8ff" stroke="#63b8ff" points="107,-109.35 110.5,-119.35 114,-109.35 107,-109.35"/>
</g>
<!-- Node4 -->
<g id="node4" class="node">
<title>Node4</title>
<g id="a_node4"><a xlink:href="classFaceArgInterface.html" target="_top" xlink:title="A base class interface for both producers and consumers of functor face arguments,...">
<polygon fill="white" stroke="#666666" points="167,-195 54,-195 54,-176 167,-176 167,-195"/>
<text text-anchor="middle" x="110.5" y="-183" font-family="Courier,monospace" font-size="10.00">FaceArgInterface</text>
</a>
</g>
</g>
<!-- Node4&#45;&gt;Node3 -->
<g id="edge3" class="edge">
<title>Node4&#45;&gt;Node3</title>
<path fill="none" stroke="#63b8ff" d="M110.5,-164.35C110.5,-156.1 110.5,-146.97 110.5,-140.44"/>
<polygon fill="#63b8ff" stroke="#63b8ff" points="107,-164.23 110.5,-174.23 114,-164.23 107,-164.23"/>
</g>
</g>
</svg>
