<?xml version="1.0" encoding="UTF-8" standalone="no"?>
<!DOCTYPE svg PUBLIC "-//W3C//DTD SVG 1.1//EN"
 "http://www.w3.org/Graphics/SVG/1.1/DTD/svg11.dtd">
<!-- Generated by graphviz version 7.0.5 (20221223.1930)
 -->
<!-- Title: ExtraElementIntegerDivision Pages: 1 -->
<svg width="885pt" height="187pt"
 viewBox="0.00 0.00 885.00 186.50" xmlns="http://www.w3.org/2000/svg" xmlns:xlink="http://www.w3.org/1999/xlink">
<g id="graph0" class="graph" transform="scale(1 1) rotate(0) translate(4 182.5)">
<title>ExtraElementIntegerDivision</title>
<!-- Node1 -->
<g id="node1" class="node">
<title>Node1</title>
<g id="a_node1"><a xlink:title="Divides the mesh based on the extra element IDs.">
<polygon fill="#999999" stroke="#666666" points="877,-67.5 698,-67.5 698,-48.5 877,-48.5 877,-67.5"/>
<text text-anchor="middle" x="787.5" y="-55.5" font-family="Courier,monospace" font-size="10.00">ExtraElementIntegerDivision</text>
</a>
</g>
</g>
<!-- Node2 -->
<g id="node2" class="node">
<title>Node2</title>
<g id="a_node2"><a xlink:href="classMeshDivision.html" target="_top" xlink:title="Base class for MeshDivision objects.">
<polygon fill="white" stroke="#666666" points="662,-67.5 573,-67.5 573,-48.5 662,-48.5 662,-67.5"/>
<text text-anchor="middle" x="617.5" y="-55.5" font-family="Courier,monospace" font-size="10.00">MeshDivision</text>
</a>
</g>
</g>
<!-- Node2&#45;&gt;Node1 -->
<g id="edge1" class="edge">
<title>Node2&#45;&gt;Node1</title>
<path fill="none" stroke="#63b8ff" d="M673.64,-58C681.39,-58 689.52,-58 697.71,-58"/>
<polygon fill="#63b8ff" stroke="#63b8ff" points="673.72,-54.5 663.72,-58 673.71,-61.5 673.72,-54.5"/>
</g>
<!-- Node3 -->
<g id="node3" class="node">
<title>Node3</title>
<g id="a_node3"><a xlink:href="classMooseObject.html" target="_top" xlink:title="Every object that can be built by the factory should be derived from this class.">
<polygon fill="white" stroke="#666666" points="510,-104.5 427,-104.5 427,-85.5 510,-85.5 510,-104.5"/>
<text text-anchor="middle" x="468.5" y="-92.5" font-family="Courier,monospace" font-size="10.00">MooseObject</text>
</a>
</g>
</g>
<!-- Node3&#45;&gt;Node2 -->
<g id="edge2" class="edge">
<title>Node3&#45;&gt;Node2</title>
<path fill="none" stroke="#63b8ff" d="M519.88,-82.32C538.55,-77.62 559.44,-72.36 577,-67.94"/>
<polygon fill="#63b8ff" stroke="#63b8ff" points="519.2,-78.88 510.36,-84.72 520.91,-85.67 519.2,-78.88"/>
</g>
<!-- Node4 -->
<g id="node4" class="node">
<title>Node4</title>
<g id="a_node4"><a xlink:href="classMooseBase.html" target="_top" xlink:title="Base class for everything in MOOSE with a name and a type.">
<polygon fill="white" stroke="#666666" points="310,-178.5 239,-178.5 239,-159.5 310,-159.5 310,-178.5"/>
<text text-anchor="middle" x="274.5" y="-166.5" font-family="Courier,monospace" font-size="10.00">MooseBase</text>
</a>
</g>
</g>
<!-- Node4&#45;&gt;Node3 -->
<g id="edge3" class="edge">
<title>Node4&#45;&gt;Node3</title>
<path fill="none" stroke="#63b8ff" d="M321.5,-162.31C335.39,-159.58 350.53,-155.89 364,-151 397.41,-138.87 433.22,-117.36 452.73,-104.82"/>
<polygon fill="#63b8ff" stroke="#63b8ff" points="320.89,-158.87 311.68,-164.11 322.14,-165.75 320.89,-158.87"/>
</g>
<!-- Node5 -->
<g id="node5" class="node">
<title>Node5</title>
<g id="a_node5"><a xlink:href="classMooseBaseParameterInterface.html" target="_top" xlink:title="Every object that can be built by the factory should be derived from this class.">
<polygon fill="white" stroke="#666666" points="364,-141.5 185,-141.5 185,-122.5 364,-122.5 364,-141.5"/>
<text text-anchor="middle" x="274.5" y="-129.5" font-family="Courier,monospace" font-size="10.00">MooseBaseParameterInterface</text>
</a>
</g>
</g>
<!-- Node5&#45;&gt;Node3 -->
<g id="edge4" class="edge">
<title>Node5&#45;&gt;Node3</title>
<path fill="none" stroke="#63b8ff" d="M338.48,-119.86C367.47,-114.28 401.03,-107.81 426.65,-102.87"/>
<polygon fill="#63b8ff" stroke="#63b8ff" points="337.85,-116.42 328.69,-121.75 339.17,-123.29 337.85,-116.42"/>
</g>
<!-- Node6 -->
<g id="node6" class="node">
<title>Node6</title>
<g id="a_node6"><a xlink:href="classMooseBaseErrorInterface.html" target="_top" xlink:title="Interface that provides APIs to output errors/warnings/info messages.">
<polygon fill="white" stroke="#666666" points="352,-104.5 197,-104.5 197,-85.5 352,-85.5 352,-104.5"/>
<text text-anchor="middle" x="274.5" y="-92.5" font-family="Courier,monospace" font-size="10.00">MooseBaseErrorInterface</text>
</a>
</g>
</g>
<!-- Node6&#45;&gt;Node3 -->
<g id="edge5" class="edge">
<title>Node6&#45;&gt;Node3</title>
<path fill="none" stroke="#63b8ff" d="M363.87,-95C385.79,-95 408.24,-95 426.61,-95"/>
<polygon fill="#63b8ff" stroke="#63b8ff" points="364,-91.5 354,-95 364,-98.5 364,-91.5"/>
</g>
<!-- Node7 -->
<g id="node7" class="node">
<title>Node7</title>
<g id="a_node7"><a xlink:href="classConsoleStreamInterface.html" target="_top" xlink:title="An inteface for the _console for outputting to the Console object.">
<polygon fill="white" stroke="#666666" points="149,-104.5 0,-104.5 0,-85.5 149,-85.5 149,-104.5"/>
<text text-anchor="middle" x="74.5" y="-92.5" font-family="Courier,monospace" font-size="10.00">ConsoleStreamInterface</text>
</a>
</g>
</g>
<!-- Node7&#45;&gt;Node6 -->
<g id="edge6" class="edge">
<title>Node7&#45;&gt;Node6</title>
<path fill="none" stroke="#63b8ff" d="M160.62,-95C172.62,-95 184.9,-95 196.73,-95"/>
<polygon fill="#63b8ff" stroke="#63b8ff" points="160.74,-91.5 150.74,-95 160.74,-98.5 160.74,-91.5"/>
</g>
<!-- Node8 -->
<g id="node8" class="node">
<title>Node8</title>
<g id="a_node8"><a xlink:title=" ">
<polygon fill="white" stroke="#666666" points="352,-67.5 197,-67.5 197,-48.5 352,-48.5 352,-67.5"/>
<text text-anchor="middle" x="274.5" y="-55.5" font-family="Courier,monospace" font-size="10.00">libMesh::ParallelObject</text>
</a>
</g>
</g>
<!-- Node8&#45;&gt;Node3 -->
<g id="edge7" class="edge">
<title>Node8&#45;&gt;Node3</title>
<path fill="none" stroke="#63b8ff" d="M338.48,-70.14C367.47,-75.72 401.03,-82.19 426.65,-87.13"/>
<polygon fill="#63b8ff" stroke="#63b8ff" points="339.17,-66.71 328.69,-68.25 337.85,-73.58 339.17,-66.71"/>
</g>
<!-- Node9 -->
<g id="node9" class="node">
<title>Node9</title>
<g id="a_node9"><a xlink:href="classDataFileInterface.html" target="_top" xlink:title=" ">
<polygon fill="white" stroke="#666666" points="337,-30 212,-30 212,0 337,0 337,-30"/>
<text text-anchor="start" x="220" y="-18" font-family="Courier,monospace" font-size="10.00">DataFileInterface&lt;</text>
<text text-anchor="middle" x="274.5" y="-7" font-family="Courier,monospace" font-size="10.00"> MooseObject &gt;</text>
</a>
</g>
</g>
<!-- Node9&#45;&gt;Node3 -->
<g id="edge8" class="edge">
<title>Node9&#45;&gt;Node3</title>
<path fill="none" stroke="#63b8ff" d="M347.62,-30.99C353.32,-33.32 358.86,-35.97 364,-39 383.77,-50.64 380.28,-64.27 400,-76 408.16,-80.86 417.61,-84.52 426.82,-87.26"/>
<polygon fill="#63b8ff" stroke="#63b8ff" points="349.23,-27.85 338.64,-27.67 346.8,-34.42 349.23,-27.85"/>
</g>
<!-- Node10 -->
<g id="node10" class="node">
<title>Node10</title>
<g id="a_node10"><a xlink:href="classSetupInterface.html" target="_top" xlink:title=" ">
<polygon fill="white" stroke="#666666" points="519,-67.5 418,-67.5 418,-48.5 519,-48.5 519,-67.5"/>
<text text-anchor="middle" x="468.5" y="-55.5" font-family="Courier,monospace" font-size="10.00">SetupInterface</text>
</a>
</g>
</g>
<!-- Node10&#45;&gt;Node2 -->
<g id="edge9" class="edge">
<title>Node10&#45;&gt;Node2</title>
<path fill="none" stroke="#63b8ff" d="M530.45,-58C544.62,-58 559.43,-58 572.69,-58"/>
<polygon fill="#63b8ff" stroke="#63b8ff" points="530.78,-54.5 520.78,-58 530.78,-61.5 530.78,-54.5"/>
</g>
<!-- Node11 -->
<g id="node11" class="node">
<title>Node11</title>
<g id="a_node11"><a xlink:href="classMeshChangedInterface.html" target="_top" xlink:title="Interface for notifications that the mesh has changed.">
<polygon fill="white" stroke="#666666" points="537,-30.5 400,-30.5 400,-11.5 537,-11.5 537,-30.5"/>
<text text-anchor="middle" x="468.5" y="-18.5" font-family="Courier,monospace" font-size="10.00">MeshChangedInterface</text>
</a>
</g>
</g>
<!-- Node11&#45;&gt;Node2 -->
<g id="edge10" class="edge">
<title>Node11&#45;&gt;Node2</title>
<path fill="none" stroke="#63b8ff" d="M519.88,-33.68C538.55,-38.38 559.44,-43.64 577,-48.06"/>
<polygon fill="#63b8ff" stroke="#63b8ff" points="520.91,-30.33 510.36,-31.28 519.2,-37.12 520.91,-30.33"/>
</g>
</g>
</svg>
