<?xml version="1.0" encoding="UTF-8" standalone="no"?>
<!DOCTYPE svg PUBLIC "-//W3C//DTD SVG 1.1//EN"
 "http://www.w3.org/Graphics/SVG/1.1/DTD/svg11.dtd">
<!-- Generated by graphviz version 7.0.5 (20221223.1930)
 -->
<!-- Title: SyntaxTree Pages: 1 -->
<svg width="246pt" height="192pt"
 viewBox="0.00 0.00 246.00 192.00" xmlns="http://www.w3.org/2000/svg" xmlns:xlink="http://www.w3.org/1999/xlink">
<g id="graph0" class="graph" transform="scale(1 1) rotate(0) translate(4 188)">
<title>SyntaxTree</title>
<!-- Node1 -->
<g id="node1" class="node">
<title>Node1</title>
<g id="a_node1"><a xlink:title=" ">
<polygon fill="#999999" stroke="#666666" points="165,-129 88,-129 88,-110 165,-110 165,-129"/>
<text text-anchor="middle" x="126.5" y="-117" font-family="Courier,monospace" font-size="10.00">SyntaxTree</text>
</a>
</g>
</g>
<!-- Node3 -->
<g id="node3" class="node">
<title>Node3</title>
<g id="a_node3"><a xlink:href="classInputFileFormatter.html" target="_top" xlink:title="This class produces produces a dump of the InputParameters that appears like the normal input file sy...">
<polygon fill="white" stroke="#666666" points="125,-74 0,-74 0,-55 125,-55 125,-74"/>
<text text-anchor="middle" x="62.5" y="-62" font-family="Courier,monospace" font-size="10.00">InputFileFormatter</text>
</a>
</g>
</g>
<!-- Node1&#45;&gt;Node3 -->
<g id="edge2" class="edge">
<title>Node1&#45;&gt;Node3</title>
<path fill="none" stroke="#63b8ff" d="M107.02,-102.37C95.9,-93.16 82.4,-81.98 73.2,-74.36"/>
<polygon fill="#63b8ff" stroke="#63b8ff" points="104.54,-104.86 114.48,-108.54 109.01,-99.47 104.54,-104.86"/>
</g>
<!-- Node5 -->
<g id="node5" class="node">
<title>Node5</title>
<g id="a_node5"><a xlink:href="classYAMLFormatter.html" target="_top" xlink:title="This class produces produces a yaml dump of the InputParameters that is machine parsable by any YAML ...">
<polygon fill="white" stroke="#666666" points="238,-74 143,-74 143,-55 238,-55 238,-74"/>
<text text-anchor="middle" x="190.5" y="-62" font-family="Courier,monospace" font-size="10.00">YAMLFormatter</text>
</a>
</g>
</g>
<!-- Node1&#45;&gt;Node5 -->
<g id="edge4" class="edge">
<title>Node1&#45;&gt;Node5</title>
<path fill="none" stroke="#63b8ff" d="M145.98,-102.37C157.1,-93.16 170.6,-81.98 179.8,-74.36"/>
<polygon fill="#63b8ff" stroke="#63b8ff" points="143.99,-99.47 138.52,-108.54 148.46,-104.86 143.99,-99.47"/>
</g>
<!-- Node2 -->
<g id="node2" class="node">
<title>Node2</title>
<g id="a_node2"><a xlink:href="classSyntaxFormatterInterface.html" target="_top" xlink:title="This interface is for classes that want to be called to format InputParameters.">
<polygon fill="white" stroke="#666666" points="207,-184 46,-184 46,-165 207,-165 207,-184"/>
<text text-anchor="middle" x="126.5" y="-172" font-family="Courier,monospace" font-size="10.00">SyntaxFormatterInterface</text>
</a>
</g>
</g>
<!-- Node2&#45;&gt;Node1 -->
<g id="edge1" class="edge">
<title>Node2&#45;&gt;Node1</title>
<path fill="none" stroke="#63b8ff" d="M126.5,-153.35C126.5,-145.1 126.5,-135.97 126.5,-129.44"/>
<polygon fill="#63b8ff" stroke="#63b8ff" points="123,-153.23 126.5,-163.23 130,-153.23 123,-153.23"/>
</g>
<!-- Node4 -->
<g id="node4" class="node">
<title>Node4</title>
<g id="a_node4"><a xlink:href="classExodusFormatter.html" target="_top" xlink:title=" ">
<polygon fill="white" stroke="#666666" points="116,-19 9,-19 9,0 116,0 116,-19"/>
<text text-anchor="middle" x="62.5" y="-7" font-family="Courier,monospace" font-size="10.00">ExodusFormatter</text>
</a>
</g>
</g>
<!-- Node3&#45;&gt;Node4 -->
<g id="edge3" class="edge">
<title>Node3&#45;&gt;Node4</title>
<path fill="none" stroke="#63b8ff" d="M62.5,-43.35C62.5,-35.1 62.5,-25.97 62.5,-19.44"/>
<polygon fill="#63b8ff" stroke="#63b8ff" points="59,-43.23 62.5,-53.23 66,-43.23 59,-43.23"/>
</g>
</g>
</svg>
