<?xml version="1.0" encoding="UTF-8" standalone="no"?>
<!DOCTYPE svg PUBLIC "-//W3C//DTD SVG 1.1//EN"
 "http://www.w3.org/Graphics/SVG/1.1/DTD/svg11.dtd">
<!-- Generated by graphviz version 7.0.5 (20221223.1930)
 -->
<!-- Title: JvarMapInterfaceBase&lt; T &gt; Pages: 1 -->
<svg width="1196pt" height="729pt"
 viewBox="0.00 0.00 1196.00 729.00" xmlns="http://www.w3.org/2000/svg" xmlns:xlink="http://www.w3.org/1999/xlink">
<g id="graph0" class="graph" transform="scale(1 1) rotate(0) translate(4 725)">
<title>JvarMapInterfaceBase&lt; T &gt;</title>
<!-- Node1 -->
<g id="node1" class="node">
<title>Node1</title>
<g id="a_node1"><a xlink:title="Base class (&quot;Veneer&quot;) that implements the actual mapping from &#39;jvar&#39; in into the _coupled_moose_vars ...">
<polygon fill="#999999" stroke="#666666" points="232,-426 65,-426 65,-407 232,-407 232,-426"/>
<text text-anchor="middle" x="148.5" y="-414" font-family="Courier,monospace" font-size="10.00">JvarMapInterfaceBase&lt; T &gt;</text>
</a>
</g>
</g>
<!-- Node3 -->
<g id="node3" class="node">
<title>Node3</title>
<g id="a_node3"><a xlink:href="classJvarMapIntegratedBCInterface.html" target="_top" xlink:title=" ">
<polygon fill="white" stroke="#666666" points="468,-683.5 283,-683.5 283,-653.5 468,-653.5 468,-683.5"/>
<text text-anchor="start" x="291" y="-671.5" font-family="Courier,monospace" font-size="10.00">JvarMapIntegratedBCInterface</text>
<text text-anchor="middle" x="375.5" y="-660.5" font-family="Courier,monospace" font-size="10.00">&lt; IntegratedBC &gt;</text>
</a>
</g>
</g>
<!-- Node1&#45;&gt;Node3 -->
<g id="edge2" class="edge">
<title>Node1&#45;&gt;Node3</title>
<path fill="none" stroke="#63b8ff" d="M155.2,-437.41C168.02,-480.47 203.14,-579.51 268,-633.5 278.02,-641.84 290.09,-648.22 302.45,-653.08"/>
<polygon fill="#63b8ff" stroke="#63b8ff" points="158.59,-436.5 152.47,-427.85 151.85,-438.43 158.59,-436.5"/>
</g>
<!-- Node7 -->
<g id="node7" class="node">
<title>Node7</title>
<g id="a_node7"><a xlink:href="classJvarMapIntegratedBCInterface.html" target="_top" xlink:title=" ">
<polygon fill="white" stroke="#666666" points="468,-624.5 283,-624.5 283,-594.5 468,-594.5 468,-624.5"/>
<text text-anchor="start" x="291" y="-612.5" font-family="Courier,monospace" font-size="10.00">JvarMapIntegratedBCInterface</text>
<text text-anchor="middle" x="375.5" y="-601.5" font-family="Courier,monospace" font-size="10.00">&lt; PostprocessorInflowBC &gt;</text>
</a>
</g>
</g>
<!-- Node1&#45;&gt;Node7 -->
<g id="edge6" class="edge">
<title>Node1&#45;&gt;Node7</title>
<path fill="none" stroke="#63b8ff" d="M159.12,-436.19C176.36,-469.49 215.69,-536.96 268,-574.5 279.46,-582.73 292.98,-589.1 306.46,-594.01"/>
<polygon fill="#63b8ff" stroke="#63b8ff" points="162.44,-435 154.81,-427.65 156.19,-438.15 162.44,-435"/>
</g>
<!-- Node10 -->
<g id="node10" class="node">
<title>Node10</title>
<g id="a_node10"><a xlink:href="classJvarMapIntegratedBCInterface.html" target="_top" xlink:title=" ">
<polygon fill="white" stroke="#666666" points="468,-565.5 283,-565.5 283,-535.5 468,-535.5 468,-565.5"/>
<text text-anchor="start" x="291" y="-553.5" font-family="Courier,monospace" font-size="10.00">JvarMapIntegratedBCInterface</text>
<text text-anchor="middle" x="375.5" y="-542.5" font-family="Courier,monospace" font-size="10.00">&lt; InflowBC &gt;</text>
</a>
</g>
</g>
<!-- Node1&#45;&gt;Node10 -->
<g id="edge9" class="edge">
<title>Node1&#45;&gt;Node10</title>
<path fill="none" stroke="#63b8ff" d="M166.15,-434.64C187.65,-457.08 227.2,-495.05 268,-517.5 280.89,-524.59 295.51,-530.38 309.7,-535.02"/>
<polygon fill="#63b8ff" stroke="#63b8ff" points="168.77,-432.32 159.37,-427.44 163.67,-437.12 168.77,-432.32"/>
</g>
<!-- Node13 -->
<g id="node13" class="node">
<title>Node13</title>
<g id="a_node13"><a xlink:href="classJvarMapIntegratedBCInterface.html" target="_top" xlink:title=" ">
<polygon fill="white" stroke="#666666" points="468,-508.5 283,-508.5 283,-478.5 468,-478.5 468,-508.5"/>
<text text-anchor="start" x="291" y="-496.5" font-family="Courier,monospace" font-size="10.00">JvarMapIntegratedBCInterface</text>
<text text-anchor="middle" x="375.5" y="-485.5" font-family="Courier,monospace" font-size="10.00">&lt; OutflowBC &gt;</text>
</a>
</g>
</g>
<!-- Node1&#45;&gt;Node13 -->
<g id="edge12" class="edge">
<title>Node1&#45;&gt;Node13</title>
<path fill="none" stroke="#63b8ff" d="M181.94,-430.86C205.54,-441.01 238.4,-454.52 268,-464.5 282.34,-469.34 297.98,-473.95 312.74,-478.02"/>
<polygon fill="#63b8ff" stroke="#63b8ff" points="183.44,-427.69 172.87,-426.93 180.65,-434.12 183.44,-427.69"/>
</g>
<!-- Node16 -->
<g id="node16" class="node">
<title>Node16</title>
<g id="a_node16"><a xlink:href="classJvarMapKernelInterface.html" target="_top" xlink:title=" ">
<polygon fill="white" stroke="#666666" points="459,-455.5 292,-455.5 292,-425.5 459,-425.5 459,-455.5"/>
<text text-anchor="start" x="300" y="-443.5" font-family="Courier,monospace" font-size="10.00">JvarMapKernelInterface</text>
<text text-anchor="middle" x="375.5" y="-432.5" font-family="Courier,monospace" font-size="10.00">&lt; ConservativeAdvection &gt;</text>
</a>
</g>
</g>
<!-- Node1&#45;&gt;Node16 -->
<g id="edge15" class="edge">
<title>Node1&#45;&gt;Node16</title>
<path fill="none" stroke="#63b8ff" d="M243.37,-426.51C259.46,-428.23 276.08,-430 291.85,-431.68"/>
<polygon fill="#63b8ff" stroke="#63b8ff" points="244.14,-423.08 233.83,-425.5 243.4,-430.04 244.14,-423.08"/>
</g>
<!-- Node19 -->
<g id="node19" class="node">
<title>Node19</title>
<g id="a_node19"><a xlink:href="classJvarMapKernelInterface.html" target="_top" xlink:title=" ">
<polygon fill="white" stroke="#666666" points="471,-407.5 280,-407.5 280,-377.5 471,-377.5 471,-407.5"/>
<text text-anchor="start" x="288" y="-395.5" font-family="Courier,monospace" font-size="10.00">JvarMapKernelInterface</text>
<text text-anchor="middle" x="375.5" y="-384.5" font-family="Courier,monospace" font-size="10.00">&lt; CtrlConservativeAdvection &gt;</text>
</a>
</g>
</g>
<!-- Node1&#45;&gt;Node19 -->
<g id="edge18" class="edge">
<title>Node1&#45;&gt;Node19</title>
<path fill="none" stroke="#63b8ff" d="M243.64,-406.46C255.56,-405.19 267.76,-403.89 279.69,-402.61"/>
<polygon fill="#63b8ff" stroke="#63b8ff" points="243.4,-402.96 233.83,-407.5 244.14,-409.92 243.4,-402.96"/>
</g>
<!-- Node22 -->
<g id="node22" class="node">
<title>Node22</title>
<g id="a_node22"><a xlink:href="classJvarMapKernelInterface.html" target="_top" xlink:title=" ">
<polygon fill="white" stroke="#666666" points="450,-359.5 301,-359.5 301,-329.5 450,-329.5 450,-359.5"/>
<text text-anchor="start" x="309" y="-347.5" font-family="Courier,monospace" font-size="10.00">JvarMapKernelInterface</text>
<text text-anchor="middle" x="375.5" y="-336.5" font-family="Courier,monospace" font-size="10.00">&lt; Kernel &gt;</text>
</a>
</g>
</g>
<!-- Node1&#45;&gt;Node22 -->
<g id="edge21" class="edge">
<title>Node1&#45;&gt;Node22</title>
<path fill="none" stroke="#63b8ff" d="M181.38,-401.93C204.95,-391.57 238.01,-377.88 268,-368.5 278.49,-365.22 289.7,-362.19 300.75,-359.47"/>
<polygon fill="#63b8ff" stroke="#63b8ff" points="180.05,-398.69 172.34,-405.95 182.89,-405.09 180.05,-398.69"/>
</g>
<!-- Node36 -->
<g id="node36" class="node">
<title>Node36</title>
<g id="a_node36"><a xlink:href="classJvarMapKernelInterface.html" target="_top" xlink:title=" ">
<polygon fill="white" stroke="#666666" points="450,-311.5 301,-311.5 301,-281.5 450,-281.5 450,-311.5"/>
<text text-anchor="start" x="309" y="-299.5" font-family="Courier,monospace" font-size="10.00">JvarMapKernelInterface</text>
<text text-anchor="middle" x="375.5" y="-288.5" font-family="Courier,monospace" font-size="10.00">&lt; TimeDerivative &gt;</text>
</a>
</g>
</g>
<!-- Node1&#45;&gt;Node36 -->
<g id="edge35" class="edge">
<title>Node1&#45;&gt;Node36</title>
<path fill="none" stroke="#63b8ff" d="M166.4,-398.46C187.89,-376.61 227.16,-340.29 268,-320.5 278.15,-315.58 289.33,-311.65 300.52,-308.52"/>
<polygon fill="#63b8ff" stroke="#63b8ff" points="164.03,-395.86 159.61,-405.49 169.07,-400.72 164.03,-395.86"/>
</g>
<!-- Node39 -->
<g id="node39" class="node">
<title>Node39</title>
<g id="a_node39"><a xlink:href="classJvarMapIntegratedBCInterface.html" target="_top" xlink:title="Interface class (&quot;Veneer&quot;) for IntegratedBC to provide a mapping from &#39;jvar&#39; in computeJacobianBlock ...">
<polygon fill="white" stroke="#666666" points="483,-263 268,-263 268,-244 483,-244 483,-263"/>
<text text-anchor="middle" x="375.5" y="-251" font-family="Courier,monospace" font-size="10.00">JvarMapIntegratedBCInterface&lt; T &gt;</text>
</a>
</g>
</g>
<!-- Node1&#45;&gt;Node39 -->
<g id="edge38" class="edge">
<title>Node1&#45;&gt;Node39</title>
<path fill="none" stroke="#63b8ff" d="M159.56,-396.94C176.99,-365.19 216.01,-302.92 268,-272.5 274.24,-268.85 281.01,-265.87 288.02,-263.43"/>
<polygon fill="#63b8ff" stroke="#63b8ff" points="156.63,-394.99 155.02,-405.46 162.81,-398.28 156.63,-394.99"/>
</g>
<!-- Node40 -->
<g id="node40" class="node">
<title>Node40</title>
<g id="a_node40"><a xlink:href="classJvarMapKernelInterface.html" target="_top" xlink:title="Interface class (&quot;Veneer&quot;) for Kernel to provide a mapping from &#39;jvar&#39; in computeQpOffDiagJacobian in...">
<polygon fill="white" stroke="#666666" points="465,-226 286,-226 286,-207 465,-207 465,-226"/>
<text text-anchor="middle" x="375.5" y="-214" font-family="Courier,monospace" font-size="10.00">JvarMapKernelInterface&lt; T &gt;</text>
</a>
</g>
</g>
<!-- Node1&#45;&gt;Node40 -->
<g id="edge39" class="edge">
<title>Node1&#45;&gt;Node40</title>
<path fill="none" stroke="#63b8ff" d="M156.53,-395.88C170.84,-357.26 207.27,-274.33 268,-234.5 273.49,-230.9 279.47,-227.95 285.7,-225.53"/>
<polygon fill="#63b8ff" stroke="#63b8ff" points="153.29,-394.53 153.23,-405.12 159.89,-396.88 153.29,-394.53"/>
</g>
<!-- Node2 -->
<g id="node2" class="node">
<title>Node2</title>
<g id="a_node2"><a xlink:title=" ">
<polygon fill="white" stroke="#666666" points="29,-426 0,-426 0,-407 29,-407 29,-426"/>
<text text-anchor="middle" x="14.5" y="-414" font-family="Courier,monospace" font-size="10.00">T</text>
</a>
</g>
</g>
<!-- Node2&#45;&gt;Node1 -->
<g id="edge1" class="edge">
<title>Node2&#45;&gt;Node1</title>
<path fill="none" stroke="#63b8ff" d="M40.42,-416.5C47.6,-416.5 55.86,-416.5 64.54,-416.5"/>
<polygon fill="#63b8ff" stroke="#63b8ff" points="40.64,-413 30.64,-416.5 40.64,-420 40.64,-413"/>
</g>
<!-- Node4 -->
<g id="node4" class="node">
<title>Node4</title>
<g id="a_node4"><a xlink:href="classDerivativeMaterialInterface.html" target="_top" xlink:title=" ">
<polygon fill="white" stroke="#666666" points="719,-694 522,-694 522,-653 719,-653 719,-694"/>
<text text-anchor="start" x="530" y="-682" font-family="Courier,monospace" font-size="10.00">DerivativeMaterialInterface</text>
<text text-anchor="start" x="530" y="-671" font-family="Courier,monospace" font-size="10.00">&lt; JvarMapIntegratedBCInterface</text>
<text text-anchor="middle" x="620.5" y="-660" font-family="Courier,monospace" font-size="10.00">&lt; IntegratedBC &gt; &gt;</text>
</a>
</g>
</g>
<!-- Node3&#45;&gt;Node4 -->
<g id="edge3" class="edge">
<title>Node3&#45;&gt;Node4</title>
<path fill="none" stroke="#63b8ff" d="M479.53,-670.62C493.55,-670.91 507.9,-671.2 521.83,-671.49"/>
<polygon fill="#63b8ff" stroke="#63b8ff" points="479.95,-667.13 469.88,-670.42 479.81,-674.13 479.95,-667.13"/>
</g>
<!-- Node5 -->
<g id="node5" class="node">
<title>Node5</title>
<g id="a_node5"><a xlink:href="classDiffusiveFluxBC.html" target="_top" xlink:title=" ">
<polygon fill="white" stroke="#666666" points="916,-721 809,-721 809,-702 916,-702 916,-721"/>
<text text-anchor="middle" x="862.5" y="-709" font-family="Courier,monospace" font-size="10.00">DiffusiveFluxBC</text>
</a>
</g>
</g>
<!-- Node4&#45;&gt;Node5 -->
<g id="edge4" class="edge">
<title>Node4&#45;&gt;Node5</title>
<path fill="none" stroke="#63b8ff" d="M730.6,-690.77C757.68,-695.06 785.51,-699.47 808.51,-703.11"/>
<polygon fill="#63b8ff" stroke="#63b8ff" points="731.38,-687.35 720.96,-689.25 730.29,-694.27 731.38,-687.35"/>
</g>
<!-- Node6 -->
<g id="node6" class="node">
<title>Node6</title>
<g id="a_node6"><a xlink:href="classVelocityFunctionTemperatureOutflowBC.html" target="_top" xlink:title=" ">
<polygon fill="white" stroke="#666666" points="952,-683.5 773,-683.5 773,-653.5 952,-653.5 952,-683.5"/>
<text text-anchor="start" x="781" y="-671.5" font-family="Courier,monospace" font-size="10.00">VelocityFunctionTemperature</text>
<text text-anchor="middle" x="862.5" y="-660.5" font-family="Courier,monospace" font-size="10.00">OutflowBC</text>
</a>
</g>
</g>
<!-- Node4&#45;&gt;Node6 -->
<g id="edge5" class="edge">
<title>Node4&#45;&gt;Node6</title>
<path fill="none" stroke="#63b8ff" d="M730.69,-671.23C744.76,-670.93 759.03,-670.63 772.72,-670.35"/>
<polygon fill="#63b8ff" stroke="#63b8ff" points="730.9,-667.72 720.98,-671.43 731.05,-674.72 730.9,-667.72"/>
</g>
<!-- Node8 -->
<g id="node8" class="node">
<title>Node8</title>
<g id="a_node8"><a xlink:href="classDerivativeMaterialInterface.html" target="_top" xlink:title=" ">
<polygon fill="white" stroke="#666666" points="719,-635 522,-635 522,-594 719,-594 719,-635"/>
<text text-anchor="start" x="530" y="-623" font-family="Courier,monospace" font-size="10.00">DerivativeMaterialInterface</text>
<text text-anchor="start" x="530" y="-612" font-family="Courier,monospace" font-size="10.00">&lt; JvarMapIntegratedBCInterface</text>
<text text-anchor="middle" x="620.5" y="-601" font-family="Courier,monospace" font-size="10.00">&lt; PostprocessorInflowBC &gt; &gt;</text>
</a>
</g>
</g>
<!-- Node7&#45;&gt;Node8 -->
<g id="edge7" class="edge">
<title>Node7&#45;&gt;Node8</title>
<path fill="none" stroke="#63b8ff" d="M479.53,-611.62C493.55,-611.91 507.9,-612.2 521.83,-612.49"/>
<polygon fill="#63b8ff" stroke="#63b8ff" points="479.95,-608.13 469.88,-611.42 479.81,-615.13 479.95,-608.13"/>
</g>
<!-- Node9 -->
<g id="node9" class="node">
<title>Node9</title>
<g id="a_node9"><a xlink:href="classPostprocessorTemperatureInflowBC.html" target="_top" xlink:title=" ">
<polygon fill="white" stroke="#666666" points="943,-629.5 782,-629.5 782,-599.5 943,-599.5 943,-629.5"/>
<text text-anchor="start" x="790" y="-617.5" font-family="Courier,monospace" font-size="10.00">PostprocessorTemperature</text>
<text text-anchor="middle" x="862.5" y="-606.5" font-family="Courier,monospace" font-size="10.00">InflowBC</text>
</a>
</g>
</g>
<!-- Node8&#45;&gt;Node9 -->
<g id="edge8" class="edge">
<title>Node8&#45;&gt;Node9</title>
<path fill="none" stroke="#63b8ff" d="M730.72,-614.5C747.93,-614.5 765.44,-614.5 781.81,-614.5"/>
<polygon fill="#63b8ff" stroke="#63b8ff" points="730.98,-611 720.98,-614.5 730.98,-618 730.98,-611"/>
</g>
<!-- Node11 -->
<g id="node11" class="node">
<title>Node11</title>
<g id="a_node11"><a xlink:href="classDerivativeMaterialInterface.html" target="_top" xlink:title=" ">
<polygon fill="white" stroke="#666666" points="719,-576 522,-576 522,-535 719,-535 719,-576"/>
<text text-anchor="start" x="530" y="-564" font-family="Courier,monospace" font-size="10.00">DerivativeMaterialInterface</text>
<text text-anchor="start" x="530" y="-553" font-family="Courier,monospace" font-size="10.00">&lt; JvarMapIntegratedBCInterface</text>
<text text-anchor="middle" x="620.5" y="-542" font-family="Courier,monospace" font-size="10.00">&lt; InflowBC &gt; &gt;</text>
</a>
</g>
</g>
<!-- Node10&#45;&gt;Node11 -->
<g id="edge10" class="edge">
<title>Node10&#45;&gt;Node11</title>
<path fill="none" stroke="#63b8ff" d="M479.53,-552.62C493.55,-552.91 507.9,-553.2 521.83,-553.49"/>
<polygon fill="#63b8ff" stroke="#63b8ff" points="479.95,-549.13 469.88,-552.42 479.81,-556.13 479.95,-549.13"/>
</g>
<!-- Node12 -->
<g id="node12" class="node">
<title>Node12</title>
<g id="a_node12"><a xlink:href="classTemperatureInflowBC.html" target="_top" xlink:title=" ">
<polygon fill="white" stroke="#666666" points="928,-565 797,-565 797,-546 928,-546 928,-565"/>
<text text-anchor="middle" x="862.5" y="-553" font-family="Courier,monospace" font-size="10.00">TemperatureInflowBC</text>
</a>
</g>
</g>
<!-- Node11&#45;&gt;Node12 -->
<g id="edge11" class="edge">
<title>Node11&#45;&gt;Node12</title>
<path fill="none" stroke="#63b8ff" d="M730.83,-555.5C753.38,-555.5 776.44,-555.5 796.78,-555.5"/>
<polygon fill="#63b8ff" stroke="#63b8ff" points="730.98,-552 720.98,-555.5 730.98,-559 730.98,-552"/>
</g>
<!-- Node14 -->
<g id="node14" class="node">
<title>Node14</title>
<g id="a_node14"><a xlink:href="classDerivativeMaterialInterface.html" target="_top" xlink:title=" ">
<polygon fill="white" stroke="#666666" points="719,-517 522,-517 522,-476 719,-476 719,-517"/>
<text text-anchor="start" x="530" y="-505" font-family="Courier,monospace" font-size="10.00">DerivativeMaterialInterface</text>
<text text-anchor="start" x="530" y="-494" font-family="Courier,monospace" font-size="10.00">&lt; JvarMapIntegratedBCInterface</text>
<text text-anchor="middle" x="620.5" y="-483" font-family="Courier,monospace" font-size="10.00">&lt; OutflowBC &gt; &gt;</text>
</a>
</g>
</g>
<!-- Node13&#45;&gt;Node14 -->
<g id="edge13" class="edge">
<title>Node13&#45;&gt;Node14</title>
<path fill="none" stroke="#63b8ff" d="M479.53,-494.77C493.55,-494.95 507.9,-495.12 521.83,-495.29"/>
<polygon fill="#63b8ff" stroke="#63b8ff" points="479.92,-491.28 469.88,-494.65 479.84,-498.28 479.92,-491.28"/>
</g>
<!-- Node15 -->
<g id="node15" class="node">
<title>Node15</title>
<g id="a_node15"><a xlink:href="classTemperatureOutflowBC.html" target="_top" xlink:title=" ">
<polygon fill="white" stroke="#666666" points="931,-506 794,-506 794,-487 931,-487 931,-506"/>
<text text-anchor="middle" x="862.5" y="-494" font-family="Courier,monospace" font-size="10.00">TemperatureOutflowBC</text>
</a>
</g>
</g>
<!-- Node14&#45;&gt;Node15 -->
<g id="edge14" class="edge">
<title>Node14&#45;&gt;Node15</title>
<path fill="none" stroke="#63b8ff" d="M730.91,-496.5C752.26,-496.5 774.05,-496.5 793.57,-496.5"/>
<polygon fill="#63b8ff" stroke="#63b8ff" points="730.98,-493 720.98,-496.5 730.98,-500 730.98,-493"/>
</g>
<!-- Node17 -->
<g id="node17" class="node">
<title>Node17</title>
<g id="a_node17"><a xlink:href="classDerivativeMaterialInterface.html" target="_top" xlink:title=" ">
<polygon fill="white" stroke="#666666" points="710,-458 531,-458 531,-417 710,-417 710,-458"/>
<text text-anchor="start" x="539" y="-446" font-family="Courier,monospace" font-size="10.00">DerivativeMaterialInterface</text>
<text text-anchor="start" x="539" y="-435" font-family="Courier,monospace" font-size="10.00">&lt; JvarMapKernelInterface</text>
<text text-anchor="middle" x="620.5" y="-424" font-family="Courier,monospace" font-size="10.00">&lt; ConservativeAdvection &gt; &gt;</text>
</a>
</g>
</g>
<!-- Node16&#45;&gt;Node17 -->
<g id="edge16" class="edge">
<title>Node16&#45;&gt;Node17</title>
<path fill="none" stroke="#63b8ff" d="M470.9,-439.33C490.57,-439.09 511.24,-438.84 530.7,-438.6"/>
<polygon fill="#63b8ff" stroke="#63b8ff" points="470.92,-435.83 460.96,-439.46 471,-442.83 470.92,-435.83"/>
</g>
<!-- Node18 -->
<g id="node18" class="node">
<title>Node18</title>
<g id="a_node18"><a xlink:href="classConservativeTemperatureAdvection.html" target="_top" xlink:title=" ">
<polygon fill="white" stroke="#666666" points="967,-458 758,-458 758,-439 967,-439 967,-458"/>
<text text-anchor="middle" x="862.5" y="-446" font-family="Courier,monospace" font-size="10.00">ConservativeTemperatureAdvection</text>
</a>
</g>
</g>
<!-- Node17&#45;&gt;Node18 -->
<g id="edge17" class="edge">
<title>Node17&#45;&gt;Node18</title>
<path fill="none" stroke="#63b8ff" d="M721.55,-442.09C733.52,-442.63 745.75,-443.19 757.76,-443.75"/>
<polygon fill="#63b8ff" stroke="#63b8ff" points="721.85,-438.6 711.7,-441.63 721.53,-445.59 721.85,-438.6"/>
</g>
<!-- Node20 -->
<g id="node20" class="node">
<title>Node20</title>
<g id="a_node20"><a xlink:href="classDerivativeMaterialInterface.html" target="_top" xlink:title=" ">
<polygon fill="white" stroke="#666666" points="722,-399 519,-399 519,-358 722,-358 722,-399"/>
<text text-anchor="start" x="527" y="-387" font-family="Courier,monospace" font-size="10.00">DerivativeMaterialInterface</text>
<text text-anchor="start" x="527" y="-376" font-family="Courier,monospace" font-size="10.00">&lt; JvarMapKernelInterface</text>
<text text-anchor="middle" x="620.5" y="-365" font-family="Courier,monospace" font-size="10.00">&lt; CtrlConservativeAdvection &gt; &gt;</text>
</a>
</g>
</g>
<!-- Node19&#45;&gt;Node20 -->
<g id="edge19" class="edge">
<title>Node19&#45;&gt;Node20</title>
<path fill="none" stroke="#63b8ff" d="M482.8,-386.38C494.68,-385.69 506.75,-385 518.55,-384.32"/>
<polygon fill="#63b8ff" stroke="#63b8ff" points="482.79,-382.87 473.01,-386.94 483.19,-389.86 482.79,-382.87"/>
</g>
<!-- Node21 -->
<g id="node21" class="node">
<title>Node21</title>
<g id="a_node21"><a xlink:href="classCtrlConservativeTemperatureAdvection.html" target="_top" xlink:title=" ">
<polygon fill="white" stroke="#666666" points="952,-420.5 773,-420.5 773,-390.5 952,-390.5 952,-420.5"/>
<text text-anchor="start" x="781" y="-408.5" font-family="Courier,monospace" font-size="10.00">CtrlConservativeTemperature</text>
<text text-anchor="middle" x="862.5" y="-397.5" font-family="Courier,monospace" font-size="10.00">Advection</text>
</a>
</g>
</g>
<!-- Node20&#45;&gt;Node21 -->
<g id="edge20" class="edge">
<title>Node20&#45;&gt;Node21</title>
<path fill="none" stroke="#63b8ff" d="M733.33,-391.08C746.58,-392.57 759.97,-394.08 772.84,-395.53"/>
<polygon fill="#63b8ff" stroke="#63b8ff" points="734.07,-387.64 723.74,-390 733.29,-394.6 734.07,-387.64"/>
</g>
<!-- Node23 -->
<g id="node23" class="node">
<title>Node23</title>
<g id="a_node23"><a xlink:href="classDerivativeMaterialInterface.html" target="_top" xlink:title=" ">
<polygon fill="white" stroke="#666666" points="710,-244 531,-244 531,-203 710,-203 710,-244"/>
<text text-anchor="start" x="539" y="-232" font-family="Courier,monospace" font-size="10.00">DerivativeMaterialInterface</text>
<text text-anchor="start" x="539" y="-221" font-family="Courier,monospace" font-size="10.00">&lt; JvarMapKernelInterface</text>
<text text-anchor="middle" x="620.5" y="-210" font-family="Courier,monospace" font-size="10.00">&lt; Kernel &gt; &gt;</text>
</a>
</g>
</g>
<!-- Node22&#45;&gt;Node23 -->
<g id="edge22" class="edge">
<title>Node22&#45;&gt;Node23</title>
<path fill="none" stroke="#63b8ff" d="M461.43,-328.61C468.85,-326.25 476.14,-323.56 483,-320.5 526.81,-300.95 570.85,-266.31 596.62,-244.15"/>
<polygon fill="#63b8ff" stroke="#63b8ff" points="460.55,-325.22 451.95,-331.4 462.53,-331.93 460.55,-325.22"/>
</g>
<!-- Node24 -->
<g id="node24" class="node">
<title>Node24</title>
<g id="a_node24"><a xlink:href="classMatDiffusionBase.html" target="_top" xlink:title=" ">
<polygon fill="white" stroke="#666666" points="943,-372 782,-372 782,-353 943,-353 943,-372"/>
<text text-anchor="middle" x="862.5" y="-360" font-family="Courier,monospace" font-size="10.00">MatDiffusionBase&lt; Real &gt;</text>
</a>
</g>
</g>
<!-- Node23&#45;&gt;Node24 -->
<g id="edge23" class="edge">
<title>Node23&#45;&gt;Node24</title>
<path fill="none" stroke="#63b8ff" d="M646.09,-252.8C671.23,-280.72 712.91,-321.64 758,-343.5 765.56,-347.17 773.75,-350.13 782.09,-352.52"/>
<polygon fill="#63b8ff" stroke="#63b8ff" points="648.76,-250.55 639.52,-245.37 643.52,-255.18 648.76,-250.55"/>
</g>
<!-- Node26 -->
<g id="node26" class="node">
<title>Node26</title>
<g id="a_node26"><a xlink:href="classMaterialDerivativeTestKernelBase.html" target="_top" xlink:title=" ">
<polygon fill="white" stroke="#666666" points="955,-334.5 770,-334.5 770,-304.5 955,-304.5 955,-334.5"/>
<text text-anchor="start" x="778" y="-322.5" font-family="Courier,monospace" font-size="10.00">MaterialDerivativeTestKernel</text>
<text text-anchor="middle" x="862.5" y="-311.5" font-family="Courier,monospace" font-size="10.00">Base&lt; RankFourTensor &gt;</text>
</a>
</g>
</g>
<!-- Node23&#45;&gt;Node26 -->
<g id="edge25" class="edge">
<title>Node23&#45;&gt;Node26</title>
<path fill="none" stroke="#63b8ff" d="M664.76,-250.01C690.96,-265.12 725.5,-283.39 758,-295.5 766.56,-298.69 775.67,-301.54 784.81,-304.07"/>
<polygon fill="#63b8ff" stroke="#63b8ff" points="666.85,-247.18 656.45,-245.16 663.32,-253.22 666.85,-247.18"/>
</g>
<!-- Node28 -->
<g id="node28" class="node">
<title>Node28</title>
<g id="a_node28"><a xlink:href="classMaterialDerivativeTestKernelBase.html" target="_top" xlink:title=" ">
<polygon fill="white" stroke="#666666" points="955,-286.5 770,-286.5 770,-256.5 955,-256.5 955,-286.5"/>
<text text-anchor="start" x="778" y="-274.5" font-family="Courier,monospace" font-size="10.00">MaterialDerivativeTestKernel</text>
<text text-anchor="middle" x="862.5" y="-263.5" font-family="Courier,monospace" font-size="10.00">Base&lt; RankTwoTensor &gt;</text>
</a>
</g>
</g>
<!-- Node23&#45;&gt;Node28 -->
<g id="edge27" class="edge">
<title>Node23&#45;&gt;Node28</title>
<path fill="none" stroke="#63b8ff" d="M721.4,-243.48C742.39,-247.68 764.23,-252.05 784.24,-256.05"/>
<polygon fill="#63b8ff" stroke="#63b8ff" points="722.16,-240.06 711.67,-241.53 720.79,-246.93 722.16,-240.06"/>
</g>
<!-- Node30 -->
<g id="node30" class="node">
<title>Node30</title>
<g id="a_node30"><a xlink:href="classMaterialDerivativeTestKernelBase.html" target="_top" xlink:title=" ">
<polygon fill="white" stroke="#666666" points="955,-238.5 770,-238.5 770,-208.5 955,-208.5 955,-238.5"/>
<text text-anchor="start" x="778" y="-226.5" font-family="Courier,monospace" font-size="10.00">MaterialDerivativeTestKernel</text>
<text text-anchor="middle" x="862.5" y="-215.5" font-family="Courier,monospace" font-size="10.00">Base&lt; Real &gt;</text>
</a>
</g>
</g>
<!-- Node23&#45;&gt;Node30 -->
<g id="edge29" class="edge">
<title>Node23&#45;&gt;Node30</title>
<path fill="none" stroke="#63b8ff" d="M721.65,-223.5C737.53,-223.5 753.88,-223.5 769.56,-223.5"/>
<polygon fill="#63b8ff" stroke="#63b8ff" points="721.7,-220 711.7,-223.5 721.7,-227 721.7,-220"/>
</g>
<!-- Node32 -->
<g id="node32" class="node">
<title>Node32</title>
<g id="a_node32"><a xlink:href="classMatDiffusionBase.html" target="_top" xlink:title="This class template implements a diffusion kernel with a mobility that can vary spatially and can dep...">
<polygon fill="white" stroke="#666666" points="934,-190 791,-190 791,-171 934,-171 934,-190"/>
<text text-anchor="middle" x="862.5" y="-178" font-family="Courier,monospace" font-size="10.00">MatDiffusionBase&lt; T &gt;</text>
</a>
</g>
</g>
<!-- Node23&#45;&gt;Node32 -->
<g id="edge31" class="edge">
<title>Node23&#45;&gt;Node32</title>
<path fill="none" stroke="#63b8ff" d="M721.18,-205.64C750.13,-200.45 780.7,-194.98 805.89,-190.46"/>
<polygon fill="#63b8ff" stroke="#63b8ff" points="720.9,-202.13 711.68,-207.34 722.14,-209.03 720.9,-202.13"/>
</g>
<!-- Node33 -->
<g id="node33" class="node">
<title>Node33</title>
<g id="a_node33"><a xlink:href="classMatReaction.html" target="_top" xlink:title="This kernel adds to the residual a contribution of &#160;where &#160;is a material property and &#160;is a variable ...">
<polygon fill="white" stroke="#666666" points="904,-153 821,-153 821,-134 904,-134 904,-153"/>
<text text-anchor="middle" x="862.5" y="-141" font-family="Courier,monospace" font-size="10.00">MatReaction</text>
</a>
</g>
</g>
<!-- Node23&#45;&gt;Node33 -->
<g id="edge32" class="edge">
<title>Node23&#45;&gt;Node33</title>
<path fill="none" stroke="#63b8ff" d="M670.61,-197.52C696.08,-185 728.05,-170.74 758,-161.5 778.22,-155.26 801.36,-150.98 820.63,-148.17"/>
<polygon fill="#63b8ff" stroke="#63b8ff" points="669.22,-194.31 661.83,-201.9 672.34,-200.57 669.22,-194.31"/>
</g>
<!-- Node34 -->
<g id="node34" class="node">
<title>Node34</title>
<g id="a_node34"><a xlink:href="classMaterialDerivativeTestKernelBase.html" target="_top" xlink:title="This kernel is used for testing derivatives of a material property.">
<polygon fill="white" stroke="#666666" points="955,-115.5 770,-115.5 770,-85.5 955,-85.5 955,-115.5"/>
<text text-anchor="start" x="778" y="-103.5" font-family="Courier,monospace" font-size="10.00">MaterialDerivativeTestKernel</text>
<text text-anchor="middle" x="862.5" y="-92.5" font-family="Courier,monospace" font-size="10.00">Base&lt; T &gt;</text>
</a>
</g>
</g>
<!-- Node23&#45;&gt;Node34 -->
<g id="edge33" class="edge">
<title>Node23&#45;&gt;Node34</title>
<path fill="none" stroke="#63b8ff" d="M652.23,-195.62C678.51,-173.22 718.27,-142.61 758,-124.5 765.13,-121.25 772.75,-118.42 780.49,-115.95"/>
<polygon fill="#63b8ff" stroke="#63b8ff" points="650.27,-192.69 645,-201.88 654.85,-197.98 650.27,-192.69"/>
</g>
<!-- Node35 -->
<g id="node35" class="node">
<title>Node35</title>
<g id="a_node35"><a xlink:href="classVelocityFunctionTemperatureAdvection.html" target="_top" xlink:title=" ">
<polygon fill="white" stroke="#666666" points="952,-67.5 773,-67.5 773,-37.5 952,-37.5 952,-67.5"/>
<text text-anchor="start" x="781" y="-55.5" font-family="Courier,monospace" font-size="10.00">VelocityFunctionTemperature</text>
<text text-anchor="middle" x="862.5" y="-44.5" font-family="Courier,monospace" font-size="10.00">Advection</text>
</a>
</g>
</g>
<!-- Node23&#45;&gt;Node35 -->
<g id="edge34" class="edge">
<title>Node23&#45;&gt;Node35</title>
<path fill="none" stroke="#63b8ff" d="M649.18,-194.37C669.46,-172.94 697.59,-143.05 722,-116.5 738.19,-98.89 737.4,-88.65 758,-76.5 763.56,-73.22 769.54,-70.39 775.71,-67.94"/>
<polygon fill="#63b8ff" stroke="#63b8ff" points="646.65,-191.94 642.32,-201.61 651.73,-196.76 646.65,-191.94"/>
</g>
<!-- Node25 -->
<g id="node25" class="node">
<title>Node25</title>
<g id="a_node25"><a xlink:href="classMatDiffusion.html" target="_top" xlink:title="Isotropic diffusion kernel that takes a diffusion coefficient of type Real.">
<polygon fill="white" stroke="#666666" points="1140,-372 1051,-372 1051,-353 1140,-353 1140,-372"/>
<text text-anchor="middle" x="1095.5" y="-360" font-family="Courier,monospace" font-size="10.00">MatDiffusion</text>
</a>
</g>
</g>
<!-- Node24&#45;&gt;Node25 -->
<g id="edge24" class="edge">
<title>Node24&#45;&gt;Node25</title>
<path fill="none" stroke="#63b8ff" d="M954.43,-362.5C987.55,-362.5 1023.51,-362.5 1050.69,-362.5"/>
<polygon fill="#63b8ff" stroke="#63b8ff" points="954.83,-359 944.83,-362.5 954.83,-366 954.83,-359"/>
</g>
<!-- Node27 -->
<g id="node27" class="node">
<title>Node27</title>
<g id="a_node27"><a xlink:href="classMaterialDerivativeRankFourTestKernel.html" target="_top" xlink:title="This kernel is used for testing derivatives of a material property.">
<polygon fill="white" stroke="#666666" points="1182,-334.5 1009,-334.5 1009,-304.5 1182,-304.5 1182,-334.5"/>
<text text-anchor="start" x="1017" y="-322.5" font-family="Courier,monospace" font-size="10.00">MaterialDerivativeRankFour</text>
<text text-anchor="middle" x="1095.5" y="-311.5" font-family="Courier,monospace" font-size="10.00">TestKernel</text>
</a>
</g>
</g>
<!-- Node26&#45;&gt;Node27 -->
<g id="edge26" class="edge">
<title>Node26&#45;&gt;Node27</title>
<path fill="none" stroke="#63b8ff" d="M966.69,-319.5C980.79,-319.5 995.12,-319.5 1008.86,-319.5"/>
<polygon fill="#63b8ff" stroke="#63b8ff" points="966.97,-316 956.97,-319.5 966.97,-323 966.97,-316"/>
</g>
<!-- Node29 -->
<g id="node29" class="node">
<title>Node29</title>
<g id="a_node29"><a xlink:href="classMaterialDerivativeRankTwoTestKernel.html" target="_top" xlink:title="This kernel is used for testing derivatives of a material property.">
<polygon fill="white" stroke="#666666" points="1179,-286.5 1012,-286.5 1012,-256.5 1179,-256.5 1179,-286.5"/>
<text text-anchor="start" x="1020" y="-274.5" font-family="Courier,monospace" font-size="10.00">MaterialDerivativeRankTwo</text>
<text text-anchor="middle" x="1095.5" y="-263.5" font-family="Courier,monospace" font-size="10.00">TestKernel</text>
</a>
</g>
</g>
<!-- Node28&#45;&gt;Node29 -->
<g id="edge28" class="edge">
<title>Node28&#45;&gt;Node29</title>
<path fill="none" stroke="#63b8ff" d="M966.9,-271.5C981.94,-271.5 997.27,-271.5 1011.83,-271.5"/>
<polygon fill="#63b8ff" stroke="#63b8ff" points="966.97,-268 956.97,-271.5 966.97,-275 966.97,-268"/>
</g>
<!-- Node31 -->
<g id="node31" class="node">
<title>Node31</title>
<g id="a_node31"><a xlink:href="classMaterialDerivativeTestKernel.html" target="_top" xlink:title="This kernel is used for testing derivatives of a material property.">
<polygon fill="white" stroke="#666666" points="1188,-233 1003,-233 1003,-214 1188,-214 1188,-233"/>
<text text-anchor="middle" x="1095.5" y="-221" font-family="Courier,monospace" font-size="10.00">MaterialDerivativeTestKernel</text>
</a>
</g>
</g>
<!-- Node30&#45;&gt;Node31 -->
<g id="edge30" class="edge">
<title>Node30&#45;&gt;Node31</title>
<path fill="none" stroke="#63b8ff" d="M966.88,-223.5C978.87,-223.5 991.04,-223.5 1002.86,-223.5"/>
<polygon fill="#63b8ff" stroke="#63b8ff" points="966.97,-220 956.97,-223.5 966.97,-227 966.97,-220"/>
</g>
<!-- Node37 -->
<g id="node37" class="node">
<title>Node37</title>
<g id="a_node37"><a xlink:href="classDerivativeMaterialInterface.html" target="_top" xlink:title=" ">
<polygon fill="white" stroke="#666666" points="710,-108 531,-108 531,-67 710,-67 710,-108"/>
<text text-anchor="start" x="539" y="-96" font-family="Courier,monospace" font-size="10.00">DerivativeMaterialInterface</text>
<text text-anchor="start" x="539" y="-85" font-family="Courier,monospace" font-size="10.00">&lt; JvarMapKernelInterface</text>
<text text-anchor="middle" x="620.5" y="-74" font-family="Courier,monospace" font-size="10.00">&lt; TimeDerivative &gt; &gt;</text>
</a>
</g>
</g>
<!-- Node36&#45;&gt;Node37 -->
<g id="edge36" class="edge">
<title>Node36&#45;&gt;Node37</title>
<path fill="none" stroke="#63b8ff" d="M461.06,-284.45C468.96,-281.08 476.45,-276.84 483,-271.5 512.58,-247.36 497.58,-225.11 519,-193.5 541.19,-160.75 573.66,-128.55 595.63,-108.4"/>
<polygon fill="#63b8ff" stroke="#63b8ff" points="460.04,-281.09 451.89,-287.85 462.48,-287.65 460.04,-281.09"/>
</g>
<!-- Node38 -->
<g id="node38" class="node">
<title>Node38</title>
<g id="a_node38"><a xlink:href="classMatINSTemperatureTimeDerivative.html" target="_top" xlink:title="This class computes the time derivative for the incompressible Navier&#45;Stokes momentum equation.">
<polygon fill="white" stroke="#666666" points="964,-19 761,-19 761,0 964,0 964,-19"/>
<text text-anchor="middle" x="862.5" y="-7" font-family="Courier,monospace" font-size="10.00">MatINSTemperatureTimeDerivative</text>
</a>
</g>
</g>
<!-- Node37&#45;&gt;Node38 -->
<g id="edge37" class="edge">
<title>Node37&#45;&gt;Node38</title>
<path fill="none" stroke="#63b8ff" d="M673.37,-61.78C698.43,-50.21 729.25,-37.23 758,-28.5 769.71,-24.94 782.38,-21.95 794.71,-19.46"/>
<polygon fill="#63b8ff" stroke="#63b8ff" points="671.94,-58.58 664.37,-65.99 674.91,-64.92 671.94,-58.58"/>
</g>
</g>
</svg>
