<?xml version="1.0" encoding="UTF-8" standalone="no"?>
<!DOCTYPE svg PUBLIC "-//W3C//DTD SVG 1.1//EN"
 "http://www.w3.org/Graphics/SVG/1.1/DTD/svg11.dtd">
<!-- Generated by graphviz version 7.0.5 (20221223.1930)
 -->
<!-- Title: FVElementalKernel Pages: 1 -->
<!--zoomable 583 -->
<svg id="main" version="1.1" xmlns="http://www.w3.org/2000/svg" xmlns:xlink="http://www.w3.org/1999/xlink" xml:space="preserve" onload="init(evt)">
<style type="text/css"><![CDATA[
.edge:hover path { stroke: red; }
.edge:hover polygon { stroke: red; fill: red; }
]]></style>
<script type="text/javascript"><![CDATA[
var edges = document.getElementsByTagName('g');
if (edges && edges.length) {
  for (var i=0;i<edges.length;i++) {
    if (edges[i].id.substr(0,4)=='edge') {
      edges[i].setAttribute('class','edge');
    }
  }
}
]]></script>
        <defs>
                <circle id="rim" cx="0" cy="0" r="7"/>
                <circle id="rim2" cx="0" cy="0" r="3.5"/>
                <g id="zoomPlus">
                        <use xlink:href="#rim" fill="#404040">
                                <set attributeName="fill" to="#808080" begin="zoomplus.mouseover" end="zoomplus.mouseout"/>
                        </use>
                        <path d="M-4,0h8M0,-4v8" fill="none" stroke="white" stroke-width="1.5" pointer-events="none"/>
                </g>
                <g id="zoomMin">
                        <use xlink:href="#rim" fill="#404040">
                                <set attributeName="fill" to="#808080" begin="zoomminus.mouseover" end="zoomminus.mouseout"/>
                        </use>
                        <path d="M-4,0h8" fill="none" stroke="white" stroke-width="1.5" pointer-events="none"/>
                </g>
                <g id="dirArrow">
                        <path fill="none" stroke="white" stroke-width="1.5" d="M0,-3.0v7 M-2.5,-0.5L0,-3.0L2.5,-0.5"/>
                </g>
               <g id="resetDef">
                       <use xlink:href="#rim2" fill="#404040">
                               <set attributeName="fill" to="#808080" begin="reset.mouseover" end="reset.mouseout"/>
                       </use>
               </g>
        </defs>

<script type="text/javascript">
var viewWidth = 1656;
var viewHeight = 583;
var sectionId = 'dynsection-0';
</script>
<script xlink:href="svgpan.js"/>
<svg id="graph" class="graph">
<g id="viewport">
<title>FVElementalKernel</title>
<!-- Node1 -->
<g id="node1" class="node">
<title>Node1</title>
<g id="a_node1"><a xlink:title="FVElemental is used for calculating residual contributions from volume integral terms of a PDE where ...">
<polygon fill="#999999" stroke="#666666" points="1236,-123 1117,-123 1117,-104 1236,-104 1236,-123"/>
<text text-anchor="middle" x="1176.5" y="-111" font-family="Courier,monospace" font-size="10.00">FVElementalKernel</text>
</a>
</g>
</g>
<!-- Node30 -->
<g id="node30" class="node">
<title>Node30</title>
<g id="a_node30"><a xlink:href="classFVBodyForce.html" target="_top" xlink:title="This kernel implements a generic functional body force term: $ &#45; c \cdof f$.">
<polygon fill="white" stroke="#666666" points="1400,-216 1317,-216 1317,-197 1400,-197 1400,-216"/>
<text text-anchor="middle" x="1358.5" y="-204" font-family="Courier,monospace" font-size="10.00">FVBodyForce</text>
</a>
</g>
</g>
<!-- Node1&#45;&gt;Node30 -->
<g id="edge29" class="edge">
<title>Node1&#45;&gt;Node30</title>
<path fill="none" stroke="#63b8ff" d="M1194.37,-130.99C1212.08,-148.29 1241.53,-174.19 1272,-188.5 1285.87,-195.01 1302.1,-199.19 1316.67,-201.86"/>
<polygon fill="#63b8ff" stroke="#63b8ff" points="1197.28,-128.95 1187.74,-124.35 1192.33,-133.9 1197.28,-128.95"/>
</g>
<!-- Node31 -->
<g id="node31" class="node">
<title>Node31</title>
<g id="a_node31"><a xlink:href="classFVCoupledForce.html" target="_top" xlink:title="Simple class to demonstrate off diagonal Jacobian contributions.">
<polygon fill="white" stroke="#666666" points="1409,-179 1308,-179 1308,-160 1409,-160 1409,-179"/>
<text text-anchor="middle" x="1358.5" y="-167" font-family="Courier,monospace" font-size="10.00">FVCoupledForce</text>
</a>
</g>
</g>
<!-- Node1&#45;&gt;Node31 -->
<g id="edge30" class="edge">
<title>Node1&#45;&gt;Node31</title>
<path fill="none" stroke="#63b8ff" d="M1209.42,-127.96C1227.5,-135.74 1250.7,-145.03 1272,-151.5 1283.47,-154.98 1296,-158.03 1307.85,-160.58"/>
<polygon fill="#63b8ff" stroke="#63b8ff" points="1210.83,-124.76 1200.27,-123.96 1208.03,-131.17 1210.83,-124.76"/>
</g>
<!-- Node32 -->
<g id="node32" class="node">
<title>Node32</title>
<g id="a_node32"><a xlink:href="classFVFunctorTimeKernel.html" target="_top" xlink:title=" ">
<polygon fill="white" stroke="#666666" points="1424,-142 1293,-142 1293,-123 1424,-123 1424,-142"/>
<text text-anchor="middle" x="1358.5" y="-130" font-family="Courier,monospace" font-size="10.00">FVFunctorTimeKernel</text>
</a>
</g>
</g>
<!-- Node1&#45;&gt;Node32 -->
<g id="edge31" class="edge">
<title>Node1&#45;&gt;Node32</title>
<path fill="none" stroke="#63b8ff" d="M1247.58,-120.9C1262.37,-122.46 1277.92,-124.1 1292.52,-125.64"/>
<polygon fill="#63b8ff" stroke="#63b8ff" points="1248.26,-117.45 1237.94,-119.88 1247.52,-124.41 1248.26,-117.45"/>
</g>
<!-- Node33 -->
<g id="node33" class="node">
<title>Node33</title>
<g id="a_node33"><a xlink:href="classFVReaction.html" target="_top" xlink:title=" ">
<polygon fill="white" stroke="#666666" points="1397,-105 1320,-105 1320,-86 1397,-86 1397,-105"/>
<text text-anchor="middle" x="1358.5" y="-93" font-family="Courier,monospace" font-size="10.00">FVReaction</text>
</a>
</g>
</g>
<!-- Node1&#45;&gt;Node33 -->
<g id="edge32" class="edge">
<title>Node1&#45;&gt;Node33</title>
<path fill="none" stroke="#63b8ff" d="M1247.88,-106.46C1272.35,-104.01 1298.86,-101.36 1319.67,-99.28"/>
<polygon fill="#63b8ff" stroke="#63b8ff" points="1247.55,-102.98 1237.94,-107.46 1248.24,-109.94 1247.55,-102.98"/>
</g>
<!-- Node34 -->
<g id="node34" class="node">
<title>Node34</title>
<g id="a_node34"><a xlink:href="classFVScalarLagrangeMultiplierConstraint.html" target="_top" xlink:title="Base class for implementing constraints on finite volume variable elemental values using scalar Lagra...">
<polygon fill="white" stroke="#666666" points="1445,-67.5 1272,-67.5 1272,-37.5 1445,-37.5 1445,-67.5"/>
<text text-anchor="start" x="1280" y="-55.5" font-family="Courier,monospace" font-size="10.00">FVScalarLagrangeMultiplier</text>
<text text-anchor="middle" x="1358.5" y="-44.5" font-family="Courier,monospace" font-size="10.00">Constraint</text>
</a>
</g>
</g>
<!-- Node1&#45;&gt;Node34 -->
<g id="edge33" class="edge">
<title>Node1&#45;&gt;Node34</title>
<path fill="none" stroke="#63b8ff" d="M1212.48,-99.41C1230.2,-92.47 1252.11,-84.18 1272,-77.5 1281.68,-74.25 1292.04,-71.01 1302.11,-68"/>
<polygon fill="#63b8ff" stroke="#63b8ff" points="1211.2,-96.15 1203.19,-103.08 1213.78,-102.66 1211.2,-96.15"/>
</g>
<!-- Node38 -->
<g id="node38" class="node">
<title>Node38</title>
<g id="a_node38"><a xlink:href="classFVTimeKernel.html" target="_top" xlink:title=" ">
<polygon fill="white" stroke="#666666" points="1403,-19 1314,-19 1314,0 1403,0 1403,-19"/>
<text text-anchor="middle" x="1358.5" y="-7" font-family="Courier,monospace" font-size="10.00">FVTimeKernel</text>
</a>
</g>
</g>
<!-- Node1&#45;&gt;Node38 -->
<g id="edge37" class="edge">
<title>Node1&#45;&gt;Node38</title>
<path fill="none" stroke="#63b8ff" d="M1192.83,-94.93C1210.04,-75.35 1239.8,-45.08 1272,-28.5 1284.84,-21.89 1299.93,-17.56 1313.82,-14.74"/>
<polygon fill="#63b8ff" stroke="#63b8ff" points="1190.26,-92.55 1186.42,-102.43 1195.58,-97.1 1190.26,-92.55"/>
</g>
<!-- Node2 -->
<g id="node2" class="node">
<title>Node2</title>
<g id="a_node2"><a xlink:href="classFVKernel.html" target="_top" xlink:title="FVKernel is a base class for all finite volume method kernels.">
<polygon fill="white" stroke="#666666" points="1006,-200 941,-200 941,-181 1006,-181 1006,-200"/>
<text text-anchor="middle" x="973.5" y="-188" font-family="Courier,monospace" font-size="10.00">FVKernel</text>
</a>
</g>
</g>
<!-- Node2&#45;&gt;Node1 -->
<g id="edge1" class="edge">
<title>Node2&#45;&gt;Node1</title>
<path fill="none" stroke="#63b8ff" d="M1017.37,-180.95C1037.05,-176.03 1060.52,-169.39 1081,-161.5 1109.16,-150.65 1140.02,-134 1158.57,-123.44"/>
<polygon fill="#63b8ff" stroke="#63b8ff" points="1016.63,-177.53 1007.73,-183.29 1018.28,-184.33 1016.63,-177.53"/>
</g>
<!-- Node3 -->
<g id="node3" class="node">
<title>Node3</title>
<g id="a_node3"><a xlink:href="classResidualObject.html" target="_top" xlink:title="This is the common base class for objects that give residual contributions.">
<polygon fill="white" stroke="#666666" points="776,-297 675,-297 675,-278 776,-278 776,-297"/>
<text text-anchor="middle" x="725.5" y="-285" font-family="Courier,monospace" font-size="10.00">ResidualObject</text>
</a>
</g>
</g>
<!-- Node3&#45;&gt;Node2 -->
<g id="edge2" class="edge">
<title>Node3&#45;&gt;Node2</title>
<path fill="none" stroke="#63b8ff" d="M761.84,-273.56C812.24,-253.69 903.52,-217.7 947.49,-200.36"/>
<polygon fill="#63b8ff" stroke="#63b8ff" points="760.87,-270.19 752.85,-277.11 763.44,-276.7 760.87,-270.19"/>
</g>
<!-- Node4 -->
<g id="node4" class="node">
<title>Node4</title>
<g id="a_node4"><a xlink:href="classMooseObject.html" target="_top" xlink:title="Every object that can be built by the factory should be derived from this class.">
<polygon fill="white" stroke="#666666" points="534,-501 451,-501 451,-482 534,-482 534,-501"/>
<text text-anchor="middle" x="492.5" y="-489" font-family="Courier,monospace" font-size="10.00">MooseObject</text>
</a>
</g>
</g>
<!-- Node4&#45;&gt;Node3 -->
<g id="edge3" class="edge">
<title>Node4&#45;&gt;Node3</title>
<path fill="none" stroke="#63b8ff" d="M545.39,-488.02C559.03,-485.36 573.22,-480.9 585,-473.5 658.15,-427.56 706.48,-328.45 720.37,-297.17"/>
<polygon fill="#63b8ff" stroke="#63b8ff" points="544.92,-484.55 535.61,-489.61 546.05,-491.46 544.92,-484.55"/>
</g>
<!-- Node5 -->
<g id="node5" class="node">
<title>Node5</title>
<g id="a_node5"><a xlink:href="classMooseBase.html" target="_top" xlink:title="Base class for everything in MOOSE with a name and a type.">
<polygon fill="white" stroke="#666666" points="310,-575 239,-575 239,-556 310,-556 310,-575"/>
<text text-anchor="middle" x="274.5" y="-563" font-family="Courier,monospace" font-size="10.00">MooseBase</text>
</a>
</g>
</g>
<!-- Node5&#45;&gt;Node4 -->
<g id="edge4" class="edge">
<title>Node5&#45;&gt;Node4</title>
<path fill="none" stroke="#63b8ff" d="M321.62,-558.05C335.41,-555.31 350.46,-551.8 364,-547.5 403.87,-534.85 448.08,-513.72 472.56,-501.35"/>
<polygon fill="#63b8ff" stroke="#63b8ff" points="321.06,-554.59 311.89,-559.89 322.36,-561.47 321.06,-554.59"/>
</g>
<!-- Node6 -->
<g id="node6" class="node">
<title>Node6</title>
<g id="a_node6"><a xlink:href="classMooseBaseParameterInterface.html" target="_top" xlink:title="Every object that can be built by the factory should be derived from this class.">
<polygon fill="white" stroke="#666666" points="364,-538 185,-538 185,-519 364,-519 364,-538"/>
<text text-anchor="middle" x="274.5" y="-526" font-family="Courier,monospace" font-size="10.00">MooseBaseParameterInterface</text>
</a>
</g>
</g>
<!-- Node6&#45;&gt;Node4 -->
<g id="edge5" class="edge">
<title>Node6&#45;&gt;Node4</title>
<path fill="none" stroke="#63b8ff" d="M344.77,-516.63C379.7,-510.65 420.85,-503.6 450.68,-498.49"/>
<polygon fill="#63b8ff" stroke="#63b8ff" points="344.43,-513.14 335.16,-518.28 345.61,-520.04 344.43,-513.14"/>
</g>
<!-- Node7 -->
<g id="node7" class="node">
<title>Node7</title>
<g id="a_node7"><a xlink:href="classMooseBaseErrorInterface.html" target="_top" xlink:title="Interface that provides APIs to output errors/warnings/info messages.">
<polygon fill="white" stroke="#666666" points="352,-501 197,-501 197,-482 352,-482 352,-501"/>
<text text-anchor="middle" x="274.5" y="-489" font-family="Courier,monospace" font-size="10.00">MooseBaseErrorInterface</text>
</a>
</g>
</g>
<!-- Node7&#45;&gt;Node4 -->
<g id="edge6" class="edge">
<title>Node7&#45;&gt;Node4</title>
<path fill="none" stroke="#63b8ff" d="M363.7,-491.5C393.87,-491.5 426.17,-491.5 450.75,-491.5"/>
<polygon fill="#63b8ff" stroke="#63b8ff" points="363.78,-488 353.78,-491.5 363.78,-495 363.78,-488"/>
</g>
<!-- Node8 -->
<g id="node8" class="node">
<title>Node8</title>
<g id="a_node8"><a xlink:href="classConsoleStreamInterface.html" target="_top" xlink:title="An inteface for the _console for outputting to the Console object.">
<polygon fill="white" stroke="#666666" points="149,-501 0,-501 0,-482 149,-482 149,-501"/>
<text text-anchor="middle" x="74.5" y="-489" font-family="Courier,monospace" font-size="10.00">ConsoleStreamInterface</text>
</a>
</g>
</g>
<!-- Node8&#45;&gt;Node7 -->
<g id="edge7" class="edge">
<title>Node8&#45;&gt;Node7</title>
<path fill="none" stroke="#63b8ff" d="M160.62,-491.5C172.62,-491.5 184.9,-491.5 196.73,-491.5"/>
<polygon fill="#63b8ff" stroke="#63b8ff" points="160.74,-488 150.74,-491.5 160.74,-495 160.74,-488"/>
</g>
<!-- Node9 -->
<g id="node9" class="node">
<title>Node9</title>
<g id="a_node9"><a xlink:title=" ">
<polygon fill="white" stroke="#666666" points="352,-464 197,-464 197,-445 352,-445 352,-464"/>
<text text-anchor="middle" x="274.5" y="-452" font-family="Courier,monospace" font-size="10.00">libMesh::ParallelObject</text>
</a>
</g>
</g>
<!-- Node9&#45;&gt;Node4 -->
<g id="edge8" class="edge">
<title>Node9&#45;&gt;Node4</title>
<path fill="none" stroke="#63b8ff" d="M344.77,-466.37C379.7,-472.35 420.85,-479.4 450.68,-484.51"/>
<polygon fill="#63b8ff" stroke="#63b8ff" points="345.61,-462.96 335.16,-464.72 344.43,-469.86 345.61,-462.96"/>
</g>
<!-- Node10 -->
<g id="node10" class="node">
<title>Node10</title>
<g id="a_node10"><a xlink:href="classDataFileInterface.html" target="_top" xlink:title=" ">
<polygon fill="white" stroke="#666666" points="337,-426.5 212,-426.5 212,-396.5 337,-396.5 337,-426.5"/>
<text text-anchor="start" x="220" y="-414.5" font-family="Courier,monospace" font-size="10.00">DataFileInterface&lt;</text>
<text text-anchor="middle" x="274.5" y="-403.5" font-family="Courier,monospace" font-size="10.00"> MooseObject &gt;</text>
</a>
</g>
</g>
<!-- Node10&#45;&gt;Node4 -->
<g id="edge9" class="edge">
<title>Node10&#45;&gt;Node4</title>
<path fill="none" stroke="#63b8ff" d="M347.62,-428.35C353.32,-430.73 358.86,-433.44 364,-436.5 383.71,-448.24 379.83,-462.57 400,-473.5 415.37,-481.83 434.06,-486.34 450.53,-488.76"/>
<polygon fill="#63b8ff" stroke="#63b8ff" points="349.23,-425.22 338.64,-424.94 346.74,-431.76 349.23,-425.22"/>
</g>
<!-- Node11 -->
<g id="node11" class="node">
<title>Node11</title>
<g id="a_node11"><a xlink:href="classSetupInterface.html" target="_top" xlink:title=" ">
<polygon fill="white" stroke="#666666" points="543,-464 442,-464 442,-445 543,-445 543,-464"/>
<text text-anchor="middle" x="492.5" y="-452" font-family="Courier,monospace" font-size="10.00">SetupInterface</text>
</a>
</g>
</g>
<!-- Node11&#45;&gt;Node3 -->
<g id="edge10" class="edge">
<title>Node11&#45;&gt;Node3</title>
<path fill="none" stroke="#63b8ff" d="M554.42,-448.04C565.03,-445.39 575.65,-441.69 585,-436.5 649.46,-400.76 701.26,-324.73 718.42,-297.48"/>
<polygon fill="#63b8ff" stroke="#63b8ff" points="553.93,-444.57 544.9,-450.11 555.42,-451.41 553.93,-444.57"/>
</g>
<!-- Node12 -->
<g id="node12" class="node">
<title>Node12</title>
<g id="a_node12"><a xlink:href="classFunctionInterface.html" target="_top" xlink:title="Interface for objects that need to use functions.">
<polygon fill="white" stroke="#666666" points="552,-427 433,-427 433,-408 552,-408 552,-427"/>
<text text-anchor="middle" x="492.5" y="-415" font-family="Courier,monospace" font-size="10.00">FunctionInterface</text>
</a>
</g>
</g>
<!-- Node12&#45;&gt;Node3 -->
<g id="edge11" class="edge">
<title>Node12&#45;&gt;Node3</title>
<path fill="none" stroke="#63b8ff" d="M563.39,-407.43C570.85,-405.27 578.19,-402.67 585,-399.5 641.32,-373.3 694.79,-319.68 715.48,-297.47"/>
<polygon fill="#63b8ff" stroke="#63b8ff" points="562.7,-403.99 553.89,-409.88 564.45,-410.77 562.7,-403.99"/>
</g>
<!-- Node13 -->
<g id="node13" class="node">
<title>Node13</title>
<g id="a_node13"><a xlink:href="classUserObjectInterface.html" target="_top" xlink:title="Interface for objects that need to use UserObjects.">
<polygon fill="white" stroke="#666666" points="558,-390 427,-390 427,-371 558,-371 558,-390"/>
<text text-anchor="middle" x="492.5" y="-378" font-family="Courier,monospace" font-size="10.00">UserObjectInterface</text>
</a>
</g>
</g>
<!-- Node13&#45;&gt;Node3 -->
<g id="edge12" class="edge">
<title>Node13&#45;&gt;Node3</title>
<path fill="none" stroke="#63b8ff" d="M568.24,-367.73C573.97,-366.17 579.61,-364.43 585,-362.5 633.15,-345.26 684.97,-313.48 709.71,-297.39"/>
<polygon fill="#63b8ff" stroke="#63b8ff" points="567.48,-364.32 558.64,-370.16 569.19,-371.1 567.48,-364.32"/>
</g>
<!-- Node14 -->
<g id="node14" class="node">
<title>Node14</title>
<g id="a_node14"><a xlink:href="classTransientInterface.html" target="_top" xlink:title="Interface for objects that needs transient capabilities.">
<polygon fill="white" stroke="#666666" points="555,-353 430,-353 430,-334 555,-334 555,-353"/>
<text text-anchor="middle" x="492.5" y="-341" font-family="Courier,monospace" font-size="10.00">TransientInterface</text>
</a>
</g>
</g>
<!-- Node14&#45;&gt;Node3 -->
<g id="edge13" class="edge">
<title>Node14&#45;&gt;Node3</title>
<path fill="none" stroke="#63b8ff" d="M558.53,-331.3C567.45,-329.46 576.47,-327.5 585,-325.5 621.29,-317 662.42,-305.57 690.56,-297.48"/>
<polygon fill="#63b8ff" stroke="#63b8ff" points="557.93,-327.85 548.83,-333.27 559.32,-334.71 557.93,-327.85"/>
</g>
<!-- Node15 -->
<g id="node15" class="node">
<title>Node15</title>
<g id="a_node15"><a xlink:href="classPostprocessorInterface.html" target="_top" xlink:title="Interface class for classes which interact with Postprocessors.">
<polygon fill="white" stroke="#666666" points="567,-316 418,-316 418,-297 567,-297 567,-316"/>
<text text-anchor="middle" x="492.5" y="-304" font-family="Courier,monospace" font-size="10.00">PostprocessorInterface</text>
</a>
</g>
</g>
<!-- Node15&#45;&gt;Node3 -->
<g id="edge14" class="edge">
<title>Node15&#45;&gt;Node3</title>
<path fill="none" stroke="#63b8ff" d="M578.52,-299.51C610.9,-296.84 646.73,-293.9 674.79,-291.59"/>
<polygon fill="#63b8ff" stroke="#63b8ff" points="578.41,-296 568.73,-300.31 578.99,-302.98 578.41,-296"/>
</g>
<!-- Node16 -->
<g id="node16" class="node">
<title>Node16</title>
<g id="a_node16"><a xlink:href="classVectorPostprocessorInterface.html" target="_top" xlink:title=" ">
<polygon fill="white" stroke="#666666" points="585,-279 400,-279 400,-260 585,-260 585,-279"/>
<text text-anchor="middle" x="492.5" y="-267" font-family="Courier,monospace" font-size="10.00">VectorPostprocessorInterface</text>
</a>
</g>
</g>
<!-- Node16&#45;&gt;Node3 -->
<g id="edge15" class="edge">
<title>Node16&#45;&gt;Node3</title>
<path fill="none" stroke="#63b8ff" d="M596.61,-277.53C623.74,-279.65 651.79,-281.83 674.69,-283.62"/>
<polygon fill="#63b8ff" stroke="#63b8ff" points="597.21,-274.07 586.97,-276.78 596.67,-281.05 597.21,-274.07"/>
</g>
<!-- Node17 -->
<g id="node17" class="node">
<title>Node17</title>
<g id="a_node17"><a xlink:href="classRandomInterface.html" target="_top" xlink:title="Interface for objects that need parallel consistent random numbers without patterns over the course o...">
<polygon fill="white" stroke="#666666" points="546,-242 439,-242 439,-223 546,-223 546,-242"/>
<text text-anchor="middle" x="492.5" y="-230" font-family="Courier,monospace" font-size="10.00">RandomInterface</text>
</a>
</g>
</g>
<!-- Node17&#45;&gt;Node3 -->
<g id="edge16" class="edge">
<title>Node17&#45;&gt;Node3</title>
<path fill="none" stroke="#63b8ff" d="M554.41,-244.72C564.64,-246.9 575.14,-249.2 585,-251.5 620.08,-259.66 659.83,-270.03 687.9,-277.55"/>
<polygon fill="#63b8ff" stroke="#63b8ff" points="555.44,-241.36 544.94,-242.73 554.01,-248.22 555.44,-241.36"/>
</g>
<!-- Node18 -->
<g id="node18" class="node">
<title>Node18</title>
<g id="a_node18"><a xlink:href="classRestartable.html" target="_top" xlink:title="A class for creating restricted objects.">
<polygon fill="white" stroke="#666666" points="534,-205 451,-205 451,-186 534,-186 534,-205"/>
<text text-anchor="middle" x="492.5" y="-193" font-family="Courier,monospace" font-size="10.00">Restartable</text>
</a>
</g>
</g>
<!-- Node18&#45;&gt;Node3 -->
<g id="edge17" class="edge">
<title>Node18&#45;&gt;Node3</title>
<path fill="none" stroke="#63b8ff" d="M545.5,-203.69C558.59,-206.46 572.48,-210.02 585,-214.5 632.62,-231.53 684.26,-262.07 709.25,-277.7"/>
<polygon fill="#63b8ff" stroke="#63b8ff" points="546.22,-200.27 535.73,-201.76 544.86,-207.14 546.22,-200.27"/>
</g>
<!-- Node19 -->
<g id="node19" class="node">
<title>Node19</title>
<g id="a_node19"><a xlink:href="classMeshChangedInterface.html" target="_top" xlink:title="Interface for notifications that the mesh has changed.">
<polygon fill="white" stroke="#666666" points="561,-168 424,-168 424,-149 561,-149 561,-168"/>
<text text-anchor="middle" x="492.5" y="-156" font-family="Courier,monospace" font-size="10.00">MeshChangedInterface</text>
</a>
</g>
</g>
<!-- Node19&#45;&gt;Node3 -->
<g id="edge18" class="edge">
<title>Node19&#45;&gt;Node3</title>
<path fill="none" stroke="#63b8ff" d="M571.9,-171.44C576.44,-173.21 580.84,-175.22 585,-177.5 605.11,-188.54 603.55,-199.6 621,-214.5 650.26,-239.49 687.88,-264.42 708.76,-277.7"/>
<polygon fill="#63b8ff" stroke="#63b8ff" points="573.14,-168.17 562.55,-168.23 570.87,-174.79 573.14,-168.17"/>
</g>
<!-- Node20 -->
<g id="node20" class="node">
<title>Node20</title>
<g id="a_node20"><a xlink:href="classTaggingInterface.html" target="_top" xlink:title=" ">
<polygon fill="white" stroke="#666666" points="549,-131 436,-131 436,-112 549,-112 549,-131"/>
<text text-anchor="middle" x="492.5" y="-119" font-family="Courier,monospace" font-size="10.00">TaggingInterface</text>
</a>
</g>
</g>
<!-- Node20&#45;&gt;Node3 -->
<g id="edge19" class="edge">
<title>Node20&#45;&gt;Node3</title>
<path fill="none" stroke="#63b8ff" d="M560.24,-127.82C569.16,-130.75 577.72,-134.83 585,-140.5 613.86,-162.96 597.31,-186.64 621,-214.5 644.93,-242.64 682.02,-265.29 704.7,-277.53"/>
<polygon fill="#63b8ff" stroke="#63b8ff" points="561.28,-124.47 550.71,-125.19 559.42,-131.22 561.28,-124.47"/>
</g>
<!-- Node21 -->
<g id="node21" class="node">
<title>Node21</title>
<g id="a_node21"><a xlink:href="classBlockRestrictable.html" target="_top" xlink:title="An interface that restricts an object to subdomains via the &#39;blocks&#39; input parameter.">
<polygon fill="white" stroke="#666666" points="785,-205 666,-205 666,-186 785,-186 785,-205"/>
<text text-anchor="middle" x="725.5" y="-193" font-family="Courier,monospace" font-size="10.00">BlockRestrictable</text>
</a>
</g>
</g>
<!-- Node21&#45;&gt;Node2 -->
<g id="edge20" class="edge">
<title>Node21&#45;&gt;Node2</title>
<path fill="none" stroke="#63b8ff" d="M796.87,-194.07C844.28,-193.11 904.55,-191.88 940.74,-191.15"/>
<polygon fill="#63b8ff" stroke="#63b8ff" points="796.86,-190.57 786.94,-194.27 797.01,-197.57 796.86,-190.57"/>
</g>
<!-- Node22 -->
<g id="node22" class="node">
<title>Node22</title>
<g id="a_node22"><a xlink:href="classADFunctorInterface.html" target="_top" xlink:title="An interface for accessing Moose::Functors for systems that care about automatic differentiation,...">
<polygon fill="white" stroke="#666666" points="788,-168 663,-168 663,-149 788,-149 788,-168"/>
<text text-anchor="middle" x="725.5" y="-156" font-family="Courier,monospace" font-size="10.00">ADFunctorInterface</text>
</a>
</g>
</g>
<!-- Node22&#45;&gt;Node2 -->
<g id="edge21" class="edge">
<title>Node22&#45;&gt;Node2</title>
<path fill="none" stroke="#63b8ff" d="M799.63,-168.01C846.63,-174.13 905.33,-181.76 940.81,-186.38"/>
<polygon fill="#63b8ff" stroke="#63b8ff" points="800.13,-164.55 789.76,-166.73 799.22,-171.49 800.13,-164.55"/>
</g>
<!-- Node23 -->
<g id="node23" class="node">
<title>Node23</title>
<g id="a_node23"><a xlink:href="classFunctorInterface.html" target="_top" xlink:title="An interface for accessing Moose::Functors.">
<polygon fill="white" stroke="#666666" points="549,-94 436,-94 436,-75 549,-75 549,-94"/>
<text text-anchor="middle" x="492.5" y="-82" font-family="Courier,monospace" font-size="10.00">FunctorInterface</text>
</a>
</g>
</g>
<!-- Node23&#45;&gt;Node22 -->
<g id="edge22" class="edge">
<title>Node23&#45;&gt;Node22</title>
<path fill="none" stroke="#63b8ff" d="M560.09,-93.43C568.76,-95.99 577.3,-99.27 585,-103.5 605.11,-114.54 600.71,-129.79 621,-140.5 633.74,-147.23 648.48,-151.51 662.76,-154.23"/>
<polygon fill="#63b8ff" stroke="#63b8ff" points="561.11,-90.08 550.55,-90.94 559.34,-96.85 561.11,-90.08"/>
</g>
<!-- Node24 -->
<g id="node24" class="node">
<title>Node24</title>
<g id="a_node24"><a xlink:href="classMooseVariableInterface.html" target="_top" xlink:title=" ">
<polygon fill="white" stroke="#666666" points="1048,-152.5 899,-152.5 899,-122.5 1048,-122.5 1048,-152.5"/>
<text text-anchor="start" x="907" y="-140.5" font-family="Courier,monospace" font-size="10.00">MooseVariableInterface</text>
<text text-anchor="middle" x="973.5" y="-129.5" font-family="Courier,monospace" font-size="10.00">&lt; Real &gt;</text>
</a>
</g>
</g>
<!-- Node24&#45;&gt;Node1 -->
<g id="edge23" class="edge">
<title>Node24&#45;&gt;Node1</title>
<path fill="none" stroke="#63b8ff" d="M1059.69,-127.33C1078.91,-125.03 1098.9,-122.65 1116.75,-120.52"/>
<polygon fill="#63b8ff" stroke="#63b8ff" points="1059.51,-123.83 1049.99,-128.49 1060.34,-130.78 1059.51,-123.83"/>
</g>
<!-- Node25 -->
<g id="node25" class="node">
<title>Node25</title>
<g id="a_node25"><a xlink:href="classCoupleableMooseVariableDependencyIntermediateInterface.html" target="_top" xlink:title="Intermediate base class that ties together all the interfaces for getting MooseVariableFEBases with t...">
<polygon fill="white" stroke="#666666" points="1081,-104.5 866,-104.5 866,-74.5 1081,-74.5 1081,-104.5"/>
<text text-anchor="start" x="874" y="-92.5" font-family="Courier,monospace" font-size="10.00">CoupleableMooseVariableDependency</text>
<text text-anchor="middle" x="973.5" y="-81.5" font-family="Courier,monospace" font-size="10.00">IntermediateInterface</text>
</a>
</g>
</g>
<!-- Node25&#45;&gt;Node1 -->
<g id="edge24" class="edge">
<title>Node25&#45;&gt;Node1</title>
<path fill="none" stroke="#63b8ff" d="M1092.75,-103.62C1100.97,-104.6 1109.02,-105.56 1116.68,-106.48"/>
<polygon fill="#63b8ff" stroke="#63b8ff" points="1093.32,-100.16 1082.98,-102.45 1092.49,-107.11 1093.32,-100.16"/>
</g>
<!-- Node26 -->
<g id="node26" class="node">
<title>Node26</title>
<g id="a_node26"><a xlink:href="classCoupleable.html" target="_top" xlink:title="Interface for objects that needs coupling capabilities.">
<polygon fill="white" stroke="#666666" points="764,-131 687,-131 687,-112 764,-112 764,-131"/>
<text text-anchor="middle" x="725.5" y="-119" font-family="Courier,monospace" font-size="10.00">Coupleable</text>
</a>
</g>
</g>
<!-- Node26&#45;&gt;Node25 -->
<g id="edge25" class="edge">
<title>Node26&#45;&gt;Node25</title>
<path fill="none" stroke="#63b8ff" d="M775.76,-115.09C801.62,-111.73 834.37,-107.47 865.69,-103.39"/>
<polygon fill="#63b8ff" stroke="#63b8ff" points="775.36,-111.61 765.9,-116.37 776.27,-118.56 775.36,-111.61"/>
</g>
<!-- Node27 -->
<g id="node27" class="node">
<title>Node27</title>
<g id="a_node27"><a xlink:href="classScalarCoupleable.html" target="_top" xlink:title="Interface for objects that needs scalar coupling capabilities.">
<polygon fill="white" stroke="#666666" points="782,-94 669,-94 669,-75 782,-75 782,-94"/>
<text text-anchor="middle" x="725.5" y="-82" font-family="Courier,monospace" font-size="10.00">ScalarCoupleable</text>
</a>
</g>
</g>
<!-- Node27&#45;&gt;Node25 -->
<g id="edge26" class="edge">
<title>Node27&#45;&gt;Node25</title>
<path fill="none" stroke="#63b8ff" d="M793.63,-85.86C815.83,-86.32 841.11,-86.83 865.53,-87.33"/>
<polygon fill="#63b8ff" stroke="#63b8ff" points="793.9,-82.37 783.83,-85.67 793.76,-89.37 793.9,-82.37"/>
</g>
<!-- Node28 -->
<g id="node28" class="node">
<title>Node28</title>
<g id="a_node28"><a xlink:href="classMooseVariableDependencyInterface.html" target="_top" xlink:title=" ">
<polygon fill="white" stroke="#666666" points="830,-57 621,-57 621,-38 830,-38 830,-57"/>
<text text-anchor="middle" x="725.5" y="-45" font-family="Courier,monospace" font-size="10.00">MooseVariableDependencyInterface</text>
</a>
</g>
</g>
<!-- Node28&#45;&gt;Node25 -->
<g id="edge27" class="edge">
<title>Node28&#45;&gt;Node25</title>
<path fill="none" stroke="#63b8ff" d="M795.96,-59.36C822.65,-63.92 853.52,-69.19 881.91,-74.03"/>
<polygon fill="#63b8ff" stroke="#63b8ff" points="796.74,-55.94 786.29,-57.71 795.56,-62.84 796.74,-55.94"/>
</g>
<!-- Node29 -->
<g id="node29" class="node">
<title>Node29</title>
<g id="a_node29"><a xlink:href="classMaterialPropertyInterface.html" target="_top" xlink:title="An interface for accessing Materials.">
<polygon fill="white" stroke="#666666" points="1057,-56 890,-56 890,-37 1057,-37 1057,-56"/>
<text text-anchor="middle" x="973.5" y="-44" font-family="Courier,monospace" font-size="10.00">MaterialPropertyInterface</text>
</a>
</g>
</g>
<!-- Node29&#45;&gt;Node1 -->
<g id="edge28" class="edge">
<title>Node29&#45;&gt;Node1</title>
<path fill="none" stroke="#63b8ff" d="M1057.97,-58.95C1065.83,-60.86 1073.62,-63.03 1081,-65.5 1110.14,-75.26 1141.48,-92.71 1159.74,-103.67"/>
<polygon fill="#63b8ff" stroke="#63b8ff" points="1058.83,-55.56 1048.31,-56.78 1057.29,-62.39 1058.83,-55.56"/>
</g>
<!-- Node35 -->
<g id="node35" class="node">
<title>Node35</title>
<g id="a_node35"><a xlink:href="classFVBoundedValueConstraint.html" target="_top" xlink:title="This Kernel implements the residuals that enforce the constraint.">
<polygon fill="white" stroke="#666666" points="1645,-99 1484,-99 1484,-80 1645,-80 1645,-99"/>
<text text-anchor="middle" x="1564.5" y="-87" font-family="Courier,monospace" font-size="10.00">FVBoundedValueConstraint</text>
</a>
</g>
</g>
<!-- Node34&#45;&gt;Node35 -->
<g id="edge34" class="edge">
<title>Node34&#45;&gt;Node35</title>
<path fill="none" stroke="#63b8ff" d="M1455.99,-70C1474,-73.27 1492.23,-76.57 1508.44,-79.51"/>
<polygon fill="#63b8ff" stroke="#63b8ff" points="1456.79,-66.59 1446.32,-68.25 1455.54,-73.48 1456.79,-66.59"/>
</g>
<!-- Node36 -->
<g id="node36" class="node">
<title>Node36</title>
<g id="a_node36"><a xlink:href="classFVIntegralValueConstraint.html" target="_top" xlink:title="This Kernel implements the residuals that enforce the constraint.">
<polygon fill="white" stroke="#666666" points="1648,-62 1481,-62 1481,-43 1648,-43 1648,-62"/>
<text text-anchor="middle" x="1564.5" y="-50" font-family="Courier,monospace" font-size="10.00">FVIntegralValueConstraint</text>
</a>
</g>
</g>
<!-- Node34&#45;&gt;Node36 -->
<g id="edge35" class="edge">
<title>Node34&#45;&gt;Node36</title>
<path fill="none" stroke="#63b8ff" d="M1456.69,-52.5C1464.69,-52.5 1472.73,-52.5 1480.61,-52.5"/>
<polygon fill="#63b8ff" stroke="#63b8ff" points="1456.94,-49 1446.94,-52.5 1456.94,-56 1456.94,-49"/>
</g>
<!-- Node37 -->
<g id="node37" class="node">
<title>Node37</title>
<g id="a_node37"><a xlink:href="classFVPointValueConstraint.html" target="_top" xlink:title="This Kernel implements the residuals that enforce the constraint.">
<polygon fill="white" stroke="#666666" points="1639,-25 1490,-25 1490,-6 1639,-6 1639,-25"/>
<text text-anchor="middle" x="1564.5" y="-13" font-family="Courier,monospace" font-size="10.00">FVPointValueConstraint</text>
</a>
</g>
</g>
<!-- Node34&#45;&gt;Node37 -->
<g id="edge36" class="edge">
<title>Node34&#45;&gt;Node37</title>
<path fill="none" stroke="#63b8ff" d="M1455.99,-35C1474,-31.73 1492.23,-28.43 1508.44,-25.49"/>
<polygon fill="#63b8ff" stroke="#63b8ff" points="1455.54,-31.52 1446.32,-36.75 1456.79,-38.41 1455.54,-31.52"/>
</g>
</g>
</svg>
        <g id="navigator" transform="translate(0 0)" fill="#404254">
                <rect fill="#f2f5e9" fill-opacity="0.5" stroke="#606060" stroke-width=".5" x="0" y="0" width="60" height="60"/>
                <use id="zoomplus" xlink:href="#zoomPlus" x="17" y="9" onmousedown="handleZoom(evt,'in')"/>
                <use id="zoomminus" xlink:href="#zoomMin" x="42" y="9" onmousedown="handleZoom(evt,'out')"/>
                <use id="reset" xlink:href="#resetDef" x="30" y="36" onmousedown="handleReset()"/>
                <g id="arrowUp" xlink:href="#dirArrow" transform="translate(30 24)" onmousedown="handlePan(0,-1)">
                  <use xlink:href="#rim" fill="#404040">
                        <set attributeName="fill" to="#808080" begin="arrowUp.mouseover" end="arrowUp.mouseout"/>
                  </use>
                  <path fill="none" stroke="white" stroke-width="1.5" d="M0,-3.0v7 M-2.5,-0.5L0,-3.0L2.5,-0.5"/>
                </g>
                <g id="arrowRight" xlink:href="#dirArrow" transform="rotate(90) translate(36 -43)" onmousedown="handlePan(1,0)">
                  <use xlink:href="#rim" fill="#404040">
                        <set attributeName="fill" to="#808080" begin="arrowRight.mouseover" end="arrowRight.mouseout"/>
                  </use>
                  <path fill="none" stroke="white" stroke-width="1.5" d="M0,-3.0v7 M-2.5,-0.5L0,-3.0L2.5,-0.5"/>
                </g>
                <g id="arrowDown" xlink:href="#dirArrow" transform="rotate(180) translate(-30 -48)" onmousedown="handlePan(0,1)">
                  <use xlink:href="#rim" fill="#404040">
                        <set attributeName="fill" to="#808080" begin="arrowDown.mouseover" end="arrowDown.mouseout"/>
                  </use>
                  <path fill="none" stroke="white" stroke-width="1.5" d="M0,-3.0v7 M-2.5,-0.5L0,-3.0L2.5,-0.5"/>
                </g>
                <g id="arrowLeft" xlink:href="#dirArrow" transform="rotate(270) translate(-36 17)" onmousedown="handlePan(-1,0)">
                  <use xlink:href="#rim" fill="#404040">
                        <set attributeName="fill" to="#808080" begin="arrowLeft.mouseover" end="arrowLeft.mouseout"/>
                  </use>
                  <path fill="none" stroke="white" stroke-width="1.5" d="M0,-3.0v7 M-2.5,-0.5L0,-3.0L2.5,-0.5"/>
                </g>
        </g>
        <svg viewBox="0 0 15 15" width="100%" height="30px" preserveAspectRatio="xMaxYMin meet">
         <g id="arrow_out" transform="scale(0.3 0.3)">
          <a xlink:href="classFVElementalKernel__inherit__graph_org.svg" target="_base">
           <rect id="button" ry="5" rx="5" y="6" x="6" height="38" width="38"
                fill="#f2f5e9" fill-opacity="0.5" stroke="#606060" stroke-width="1.0"/>
           <path id="arrow"
             d="M 11.500037,31.436501 C 11.940474,20.09759 22.043105,11.32322 32.158766,21.979434 L 37.068811,17.246167 C 37.068811,17.246167 37.088388,32 37.088388,32 L 22.160133,31.978069 C 22.160133,31.978069 26.997745,27.140456 26.997745,27.140456 C 18.528582,18.264221 13.291696,25.230495 11.500037,31.436501 z"
             style="fill:#404040;"/>
          </a>
         </g>
        </svg>
</svg>
