<?xml version="1.0" encoding="UTF-8" standalone="no"?>
<!DOCTYPE svg PUBLIC "-//W3C//DTD SVG 1.1//EN"
 "http://www.w3.org/Graphics/SVG/1.1/DTD/svg11.dtd">
<!-- Generated by graphviz version 7.0.5 (20221223.1930)
 -->
<!-- Title: PicardSolve Pages: 1 -->
<svg width="938pt" height="187pt"
 viewBox="0.00 0.00 938.00 186.50" xmlns="http://www.w3.org/2000/svg" xmlns:xlink="http://www.w3.org/1999/xlink">
<g id="graph0" class="graph" transform="scale(1 1) rotate(0) translate(4 182.5)">
<title>PicardSolve</title>
<!-- Node1 -->
<g id="node1" class="node">
<title>Node1</title>
<g id="a_node1"><a xlink:title=" ">
<polygon fill="#999999" stroke="#666666" points="930,-67.5 847,-67.5 847,-48.5 930,-48.5 930,-67.5"/>
<text text-anchor="middle" x="888.5" y="-55.5" font-family="Courier,monospace" font-size="10.00">PicardSolve</text>
</a>
</g>
</g>
<!-- Node2 -->
<g id="node2" class="node">
<title>Node2</title>
<g id="a_node2"><a xlink:href="classFixedPointSolve.html" target="_top" xlink:title=" ">
<polygon fill="white" stroke="#666666" points="811,-67.5 704,-67.5 704,-48.5 811,-48.5 811,-67.5"/>
<text text-anchor="middle" x="757.5" y="-55.5" font-family="Courier,monospace" font-size="10.00">FixedPointSolve</text>
</a>
</g>
</g>
<!-- Node2&#45;&gt;Node1 -->
<g id="edge1" class="edge">
<title>Node2&#45;&gt;Node1</title>
<path fill="none" stroke="#63b8ff" d="M822.82,-58C830.98,-58 839.14,-58 846.79,-58"/>
<polygon fill="#63b8ff" stroke="#63b8ff" points="822.86,-54.5 812.85,-58 822.85,-61.5 822.86,-54.5"/>
</g>
<!-- Node3 -->
<g id="node3" class="node">
<title>Node3</title>
<g id="a_node3"><a xlink:href="classSolveObject.html" target="_top" xlink:title=" ">
<polygon fill="white" stroke="#666666" points="668,-67.5 585,-67.5 585,-48.5 668,-48.5 668,-67.5"/>
<text text-anchor="middle" x="626.5" y="-55.5" font-family="Courier,monospace" font-size="10.00">SolveObject</text>
</a>
</g>
</g>
<!-- Node3&#45;&gt;Node2 -->
<g id="edge2" class="edge">
<title>Node3&#45;&gt;Node2</title>
<path fill="none" stroke="#63b8ff" d="M679.66,-58C687.57,-58 695.74,-58 703.66,-58"/>
<polygon fill="#63b8ff" stroke="#63b8ff" points="679.83,-54.5 669.83,-58 679.83,-61.5 679.83,-54.5"/>
</g>
<!-- Node4 -->
<g id="node4" class="node">
<title>Node4</title>
<g id="a_node4"><a xlink:href="classMooseObject.html" target="_top" xlink:title="Every object that can be built by the factory should be derived from this class.">
<polygon fill="white" stroke="#666666" points="516,-104.5 433,-104.5 433,-85.5 516,-85.5 516,-104.5"/>
<text text-anchor="middle" x="474.5" y="-92.5" font-family="Courier,monospace" font-size="10.00">MooseObject</text>
</a>
</g>
</g>
<!-- Node4&#45;&gt;Node3 -->
<g id="edge3" class="edge">
<title>Node4&#45;&gt;Node3</title>
<path fill="none" stroke="#63b8ff" d="M526.64,-82.38C545.76,-77.67 567.19,-72.38 585.19,-67.94"/>
<polygon fill="#63b8ff" stroke="#63b8ff" points="526.04,-78.93 517.17,-84.72 527.71,-85.73 526.04,-78.93"/>
</g>
<!-- Node5 -->
<g id="node5" class="node">
<title>Node5</title>
<g id="a_node5"><a xlink:href="classMooseBase.html" target="_top" xlink:title="Base class for everything in MOOSE with a name and a type.">
<polygon fill="white" stroke="#666666" points="310,-178.5 239,-178.5 239,-159.5 310,-159.5 310,-178.5"/>
<text text-anchor="middle" x="274.5" y="-166.5" font-family="Courier,monospace" font-size="10.00">MooseBase</text>
</a>
</g>
</g>
<!-- Node5&#45;&gt;Node4 -->
<g id="edge4" class="edge">
<title>Node5&#45;&gt;Node4</title>
<path fill="none" stroke="#63b8ff" d="M321.43,-162.12C335.32,-159.38 350.47,-155.73 364,-151 398.87,-138.8 436.61,-117.51 457.43,-104.99"/>
<polygon fill="#63b8ff" stroke="#63b8ff" points="320.81,-158.67 311.61,-163.93 322.08,-165.56 320.81,-158.67"/>
</g>
<!-- Node6 -->
<g id="node6" class="node">
<title>Node6</title>
<g id="a_node6"><a xlink:href="classMooseBaseParameterInterface.html" target="_top" xlink:title="Every object that can be built by the factory should be derived from this class.">
<polygon fill="white" stroke="#666666" points="364,-141.5 185,-141.5 185,-122.5 364,-122.5 364,-141.5"/>
<text text-anchor="middle" x="274.5" y="-129.5" font-family="Courier,monospace" font-size="10.00">MooseBaseParameterInterface</text>
</a>
</g>
</g>
<!-- Node6&#45;&gt;Node4 -->
<g id="edge5" class="edge">
<title>Node6&#45;&gt;Node4</title>
<path fill="none" stroke="#63b8ff" d="M339.81,-119.98C370.33,-114.28 405.88,-107.64 432.65,-102.63"/>
<polygon fill="#63b8ff" stroke="#63b8ff" points="339.5,-116.48 330.31,-121.76 340.78,-123.36 339.5,-116.48"/>
</g>
<!-- Node7 -->
<g id="node7" class="node">
<title>Node7</title>
<g id="a_node7"><a xlink:href="classMooseBaseErrorInterface.html" target="_top" xlink:title="Interface that provides APIs to output errors/warnings/info messages.">
<polygon fill="white" stroke="#666666" points="352,-104.5 197,-104.5 197,-85.5 352,-85.5 352,-104.5"/>
<text text-anchor="middle" x="274.5" y="-92.5" font-family="Courier,monospace" font-size="10.00">MooseBaseErrorInterface</text>
</a>
</g>
</g>
<!-- Node7&#45;&gt;Node4 -->
<g id="edge6" class="edge">
<title>Node7&#45;&gt;Node4</title>
<path fill="none" stroke="#63b8ff" d="M363.68,-95C387.75,-95 412.68,-95 432.69,-95"/>
<polygon fill="#63b8ff" stroke="#63b8ff" points="363.85,-91.5 353.85,-95 363.85,-98.5 363.85,-91.5"/>
</g>
<!-- Node8 -->
<g id="node8" class="node">
<title>Node8</title>
<g id="a_node8"><a xlink:href="classConsoleStreamInterface.html" target="_top" xlink:title="An inteface for the _console for outputting to the Console object.">
<polygon fill="white" stroke="#666666" points="149,-104.5 0,-104.5 0,-85.5 149,-85.5 149,-104.5"/>
<text text-anchor="middle" x="74.5" y="-92.5" font-family="Courier,monospace" font-size="10.00">ConsoleStreamInterface</text>
</a>
</g>
</g>
<!-- Node8&#45;&gt;Node7 -->
<g id="edge7" class="edge">
<title>Node8&#45;&gt;Node7</title>
<path fill="none" stroke="#63b8ff" d="M160.62,-95C172.62,-95 184.9,-95 196.73,-95"/>
<polygon fill="#63b8ff" stroke="#63b8ff" points="160.74,-91.5 150.74,-95 160.74,-98.5 160.74,-91.5"/>
</g>
<!-- Node9 -->
<g id="node9" class="node">
<title>Node9</title>
<g id="a_node9"><a xlink:title=" ">
<polygon fill="white" stroke="#666666" points="352,-67.5 197,-67.5 197,-48.5 352,-48.5 352,-67.5"/>
<text text-anchor="middle" x="274.5" y="-55.5" font-family="Courier,monospace" font-size="10.00">libMesh::ParallelObject</text>
</a>
</g>
</g>
<!-- Node9&#45;&gt;Node4 -->
<g id="edge8" class="edge">
<title>Node9&#45;&gt;Node4</title>
<path fill="none" stroke="#63b8ff" d="M339.81,-70.02C370.33,-75.72 405.88,-82.36 432.65,-87.37"/>
<polygon fill="#63b8ff" stroke="#63b8ff" points="340.78,-66.64 330.31,-68.24 339.5,-73.52 340.78,-66.64"/>
</g>
<!-- Node10 -->
<g id="node10" class="node">
<title>Node10</title>
<g id="a_node10"><a xlink:href="classDataFileInterface.html" target="_top" xlink:title=" ">
<polygon fill="white" stroke="#666666" points="337,-30 212,-30 212,0 337,0 337,-30"/>
<text text-anchor="start" x="220" y="-18" font-family="Courier,monospace" font-size="10.00">DataFileInterface&lt;</text>
<text text-anchor="middle" x="274.5" y="-7" font-family="Courier,monospace" font-size="10.00"> MooseObject &gt;</text>
</a>
</g>
</g>
<!-- Node10&#45;&gt;Node4 -->
<g id="edge9" class="edge">
<title>Node10&#45;&gt;Node4</title>
<path fill="none" stroke="#63b8ff" d="M347.62,-30.99C353.32,-33.32 358.86,-35.97 364,-39 383.77,-50.64 380.16,-64.48 400,-76 409.92,-81.76 421.58,-85.8 432.66,-88.62"/>
<polygon fill="#63b8ff" stroke="#63b8ff" points="349.23,-27.85 338.64,-27.67 346.8,-34.42 349.23,-27.85"/>
</g>
<!-- Node11 -->
<g id="node11" class="node">
<title>Node11</title>
<g id="a_node11"><a xlink:href="classPerfGraphInterface.html" target="_top" xlink:title="Interface for objects interacting with the PerfGraph.">
<polygon fill="white" stroke="#666666" points="537,-67.5 412,-67.5 412,-48.5 537,-48.5 537,-67.5"/>
<text text-anchor="middle" x="474.5" y="-55.5" font-family="Courier,monospace" font-size="10.00">PerfGraphInterface</text>
</a>
</g>
</g>
<!-- Node11&#45;&gt;Node3 -->
<g id="edge10" class="edge">
<title>Node11&#45;&gt;Node3</title>
<path fill="none" stroke="#63b8ff" d="M548.71,-58C561.11,-58 573.58,-58 584.75,-58"/>
<polygon fill="#63b8ff" stroke="#63b8ff" points="548.89,-54.5 538.89,-58 548.89,-61.5 548.89,-54.5"/>
</g>
<!-- Node12 -->
<g id="node12" class="node">
<title>Node12</title>
<g id="a_node12"><a xlink:href="classPostprocessorInterface.html" target="_top" xlink:title="Interface class for classes which interact with Postprocessors.">
<polygon fill="white" stroke="#666666" points="549,-30.5 400,-30.5 400,-11.5 549,-11.5 549,-30.5"/>
<text text-anchor="middle" x="474.5" y="-18.5" font-family="Courier,monospace" font-size="10.00">PostprocessorInterface</text>
</a>
</g>
</g>
<!-- Node12&#45;&gt;Node3 -->
<g id="edge11" class="edge">
<title>Node12&#45;&gt;Node3</title>
<path fill="none" stroke="#63b8ff" d="M527.26,-33.65C534.56,-35.44 541.97,-37.27 549,-39 560.83,-41.92 573.67,-45.1 585.41,-48.02"/>
<polygon fill="#63b8ff" stroke="#63b8ff" points="528.34,-30.32 517.8,-31.33 526.68,-37.11 528.34,-30.32"/>
</g>
</g>
</svg>
