<?xml version="1.0" encoding="UTF-8" standalone="no"?>
<!DOCTYPE svg PUBLIC "-//W3C//DTD SVG 1.1//EN"
 "http://www.w3.org/Graphics/SVG/1.1/DTD/svg11.dtd">
<!-- Generated by graphviz version 7.0.5 (20221223.1930)
 -->
<!-- Title: BoundingValueNodalDamper Pages: 1 -->
<svg width="1064pt" height="212pt"
 viewBox="0.00 0.00 1064.00 212.00" xmlns="http://www.w3.org/2000/svg" xmlns:xlink="http://www.w3.org/1999/xlink">
<g id="graph0" class="graph" transform="scale(1 1) rotate(0) translate(4 208)">
<title>BoundingValueNodalDamper</title>
<!-- Node1 -->
<g id="node1" class="node">
<title>Node1</title>
<g id="a_node1"><a xlink:title="This class implements a damper that limits the value of a variable to be within user&#45;specified bounds...">
<polygon fill="#999999" stroke="#666666" points="1056,-55 895,-55 895,-36 1056,-36 1056,-55"/>
<text text-anchor="middle" x="975.5" y="-43" font-family="Courier,monospace" font-size="10.00">BoundingValueNodalDamper</text>
</a>
</g>
</g>
<!-- Node2 -->
<g id="node2" class="node">
<title>Node2</title>
<g id="a_node2"><a xlink:href="classNodalDamper.html" target="_top" xlink:title="Base class for deriving nodal dampers.">
<polygon fill="white" stroke="#666666" points="859,-55 776,-55 776,-36 859,-36 859,-55"/>
<text text-anchor="middle" x="817.5" y="-43" font-family="Courier,monospace" font-size="10.00">NodalDamper</text>
</a>
</g>
</g>
<!-- Node2&#45;&gt;Node1 -->
<g id="edge1" class="edge">
<title>Node2&#45;&gt;Node1</title>
<path fill="none" stroke="#63b8ff" d="M870.78,-45.5C878.44,-45.5 886.47,-45.5 894.53,-45.5"/>
<polygon fill="#63b8ff" stroke="#63b8ff" points="871,-42 861,-45.5 871,-49 871,-42"/>
</g>
<!-- Node3 -->
<g id="node3" class="node">
<title>Node3</title>
<g id="a_node3"><a xlink:href="classDamper.html" target="_top" xlink:title="Base class for deriving dampers.">
<polygon fill="white" stroke="#666666" points="683,-74 630,-74 630,-55 683,-55 683,-74"/>
<text text-anchor="middle" x="656.5" y="-62" font-family="Courier,monospace" font-size="10.00">Damper</text>
</a>
</g>
</g>
<!-- Node3&#45;&gt;Node2 -->
<g id="edge2" class="edge">
<title>Node3&#45;&gt;Node2</title>
<path fill="none" stroke="#63b8ff" d="M694.67,-60.06C718.96,-57.16 750.7,-53.36 775.69,-50.38"/>
<polygon fill="#63b8ff" stroke="#63b8ff" points="694.42,-56.56 684.9,-61.23 695.25,-63.51 694.42,-56.56"/>
</g>
<!-- Node4 -->
<g id="node4" class="node">
<title>Node4</title>
<g id="a_node4"><a xlink:href="classMooseObject.html" target="_top" xlink:title="Every object that can be built by the factory should be derived from this class.">
<polygon fill="white" stroke="#666666" points="510,-130 427,-130 427,-111 510,-111 510,-130"/>
<text text-anchor="middle" x="468.5" y="-118" font-family="Courier,monospace" font-size="10.00">MooseObject</text>
</a>
</g>
</g>
<!-- Node4&#45;&gt;Node3 -->
<g id="edge3" class="edge">
<title>Node4&#45;&gt;Node3</title>
<path fill="none" stroke="#63b8ff" d="M518.98,-107.61C525.06,-105.93 531.18,-104.21 537,-102.5 569.13,-93.07 605.8,-81.13 629.72,-73.17"/>
<polygon fill="#63b8ff" stroke="#63b8ff" points="518.34,-104.16 509.6,-110.15 520.17,-110.91 518.34,-104.16"/>
</g>
<!-- Node5 -->
<g id="node5" class="node">
<title>Node5</title>
<g id="a_node5"><a xlink:href="classMooseBase.html" target="_top" xlink:title="Base class for everything in MOOSE with a name and a type.">
<polygon fill="white" stroke="#666666" points="310,-204 239,-204 239,-185 310,-185 310,-204"/>
<text text-anchor="middle" x="274.5" y="-192" font-family="Courier,monospace" font-size="10.00">MooseBase</text>
</a>
</g>
</g>
<!-- Node5&#45;&gt;Node4 -->
<g id="edge4" class="edge">
<title>Node5&#45;&gt;Node4</title>
<path fill="none" stroke="#63b8ff" d="M321.5,-187.81C335.39,-185.08 350.53,-181.39 364,-176.5 397.41,-164.37 433.22,-142.86 452.73,-130.32"/>
<polygon fill="#63b8ff" stroke="#63b8ff" points="320.89,-184.37 311.68,-189.61 322.14,-191.25 320.89,-184.37"/>
</g>
<!-- Node6 -->
<g id="node6" class="node">
<title>Node6</title>
<g id="a_node6"><a xlink:href="classMooseBaseParameterInterface.html" target="_top" xlink:title="Every object that can be built by the factory should be derived from this class.">
<polygon fill="white" stroke="#666666" points="364,-167 185,-167 185,-148 364,-148 364,-167"/>
<text text-anchor="middle" x="274.5" y="-155" font-family="Courier,monospace" font-size="10.00">MooseBaseParameterInterface</text>
</a>
</g>
</g>
<!-- Node6&#45;&gt;Node4 -->
<g id="edge5" class="edge">
<title>Node6&#45;&gt;Node4</title>
<path fill="none" stroke="#63b8ff" d="M338.48,-145.36C367.47,-139.78 401.03,-133.31 426.65,-128.37"/>
<polygon fill="#63b8ff" stroke="#63b8ff" points="337.85,-141.92 328.69,-147.25 339.17,-148.79 337.85,-141.92"/>
</g>
<!-- Node7 -->
<g id="node7" class="node">
<title>Node7</title>
<g id="a_node7"><a xlink:href="classMooseBaseErrorInterface.html" target="_top" xlink:title="Interface that provides APIs to output errors/warnings/info messages.">
<polygon fill="white" stroke="#666666" points="352,-130 197,-130 197,-111 352,-111 352,-130"/>
<text text-anchor="middle" x="274.5" y="-118" font-family="Courier,monospace" font-size="10.00">MooseBaseErrorInterface</text>
</a>
</g>
</g>
<!-- Node7&#45;&gt;Node4 -->
<g id="edge6" class="edge">
<title>Node7&#45;&gt;Node4</title>
<path fill="none" stroke="#63b8ff" d="M363.87,-120.5C385.79,-120.5 408.24,-120.5 426.61,-120.5"/>
<polygon fill="#63b8ff" stroke="#63b8ff" points="364,-117 354,-120.5 364,-124 364,-117"/>
</g>
<!-- Node8 -->
<g id="node8" class="node">
<title>Node8</title>
<g id="a_node8"><a xlink:href="classConsoleStreamInterface.html" target="_top" xlink:title="An inteface for the _console for outputting to the Console object.">
<polygon fill="white" stroke="#666666" points="149,-130 0,-130 0,-111 149,-111 149,-130"/>
<text text-anchor="middle" x="74.5" y="-118" font-family="Courier,monospace" font-size="10.00">ConsoleStreamInterface</text>
</a>
</g>
</g>
<!-- Node8&#45;&gt;Node7 -->
<g id="edge7" class="edge">
<title>Node8&#45;&gt;Node7</title>
<path fill="none" stroke="#63b8ff" d="M160.62,-120.5C172.62,-120.5 184.9,-120.5 196.73,-120.5"/>
<polygon fill="#63b8ff" stroke="#63b8ff" points="160.74,-117 150.74,-120.5 160.74,-124 160.74,-117"/>
</g>
<!-- Node9 -->
<g id="node9" class="node">
<title>Node9</title>
<g id="a_node9"><a xlink:title=" ">
<polygon fill="white" stroke="#666666" points="352,-93 197,-93 197,-74 352,-74 352,-93"/>
<text text-anchor="middle" x="274.5" y="-81" font-family="Courier,monospace" font-size="10.00">libMesh::ParallelObject</text>
</a>
</g>
</g>
<!-- Node9&#45;&gt;Node4 -->
<g id="edge8" class="edge">
<title>Node9&#45;&gt;Node4</title>
<path fill="none" stroke="#63b8ff" d="M338.48,-95.64C367.47,-101.22 401.03,-107.69 426.65,-112.63"/>
<polygon fill="#63b8ff" stroke="#63b8ff" points="339.17,-92.21 328.69,-93.75 337.85,-99.08 339.17,-92.21"/>
</g>
<!-- Node10 -->
<g id="node10" class="node">
<title>Node10</title>
<g id="a_node10"><a xlink:href="classDataFileInterface.html" target="_top" xlink:title=" ">
<polygon fill="white" stroke="#666666" points="337,-55.5 212,-55.5 212,-25.5 337,-25.5 337,-55.5"/>
<text text-anchor="start" x="220" y="-43.5" font-family="Courier,monospace" font-size="10.00">DataFileInterface&lt;</text>
<text text-anchor="middle" x="274.5" y="-32.5" font-family="Courier,monospace" font-size="10.00"> MooseObject &gt;</text>
</a>
</g>
</g>
<!-- Node10&#45;&gt;Node4 -->
<g id="edge9" class="edge">
<title>Node10&#45;&gt;Node4</title>
<path fill="none" stroke="#63b8ff" d="M347.62,-57.35C353.32,-59.73 358.86,-62.44 364,-65.5 383.71,-77.24 380.2,-90.9 400,-102.5 408.16,-107.28 417.62,-110.82 426.82,-113.43"/>
<polygon fill="#63b8ff" stroke="#63b8ff" points="349.23,-54.22 338.64,-53.94 346.74,-60.76 349.23,-54.22"/>
</g>
<!-- Node11 -->
<g id="node11" class="node">
<title>Node11</title>
<g id="a_node11"><a xlink:href="classSetupInterface.html" target="_top" xlink:title=" ">
<polygon fill="white" stroke="#666666" points="519,-93 418,-93 418,-74 519,-74 519,-93"/>
<text text-anchor="middle" x="468.5" y="-81" font-family="Courier,monospace" font-size="10.00">SetupInterface</text>
</a>
</g>
</g>
<!-- Node11&#45;&gt;Node3 -->
<g id="edge10" class="edge">
<title>Node11&#45;&gt;Node3</title>
<path fill="none" stroke="#63b8ff" d="M530.47,-77.27C564.08,-73.84 604.04,-69.76 629.58,-67.15"/>
<polygon fill="#63b8ff" stroke="#63b8ff" points="530.44,-73.76 520.85,-78.25 531.15,-80.72 530.44,-73.76"/>
</g>
<!-- Node12 -->
<g id="node12" class="node">
<title>Node12</title>
<g id="a_node12"><a xlink:href="classRestartable.html" target="_top" xlink:title="A class for creating restricted objects.">
<polygon fill="white" stroke="#666666" points="510,-56 427,-56 427,-37 510,-37 510,-56"/>
<text text-anchor="middle" x="468.5" y="-44" font-family="Courier,monospace" font-size="10.00">Restartable</text>
</a>
</g>
</g>
<!-- Node12&#45;&gt;Node3 -->
<g id="edge11" class="edge">
<title>Node12&#45;&gt;Node3</title>
<path fill="none" stroke="#63b8ff" d="M521.39,-51.52C556.65,-54.93 601.79,-59.3 629.66,-62"/>
<polygon fill="#63b8ff" stroke="#63b8ff" points="522.12,-48.08 511.82,-50.6 521.44,-55.04 522.12,-48.08"/>
</g>
<!-- Node13 -->
<g id="node13" class="node">
<title>Node13</title>
<g id="a_node13"><a xlink:href="classMeshChangedInterface.html" target="_top" xlink:title="Interface for notifications that the mesh has changed.">
<polygon fill="white" stroke="#666666" points="537,-19 400,-19 400,0 537,0 537,-19"/>
<text text-anchor="middle" x="468.5" y="-7" font-family="Courier,monospace" font-size="10.00">MeshChangedInterface</text>
</a>
</g>
</g>
<!-- Node13&#45;&gt;Node3 -->
<g id="edge12" class="edge">
<title>Node13&#45;&gt;Node3</title>
<path fill="none" stroke="#63b8ff" d="M520.37,-22.7C526.03,-24.5 531.67,-26.44 537,-28.5 553.68,-34.95 556.13,-40.55 573,-46.5 591.52,-53.04 613.26,-57.66 629.77,-60.59"/>
<polygon fill="#63b8ff" stroke="#63b8ff" points="521.56,-19.4 510.98,-19.86 519.54,-26.1 521.56,-19.4"/>
</g>
<!-- Node14 -->
<g id="node14" class="node">
<title>Node14</title>
<g id="a_node14"><a xlink:href="classMaterialPropertyInterface.html" target="_top" xlink:title="An interface for accessing Materials.">
<polygon fill="white" stroke="#666666" points="740,-37 573,-37 573,-18 740,-18 740,-37"/>
<text text-anchor="middle" x="656.5" y="-25" font-family="Courier,monospace" font-size="10.00">MaterialPropertyInterface</text>
</a>
</g>
</g>
<!-- Node14&#45;&gt;Node2 -->
<g id="edge13" class="edge">
<title>Node14&#45;&gt;Node2</title>
<path fill="none" stroke="darkgreen" d="M751.51,-38.14C759.99,-39.1 768.24,-40.04 775.87,-40.9"/>
<polygon fill="darkgreen" stroke="darkgreen" points="752.09,-34.69 741.76,-37.04 751.31,-41.64 752.09,-34.69"/>
</g>
</g>
</svg>
