<?xml version="1.0" encoding="UTF-8" standalone="no"?>
<!DOCTYPE svg PUBLIC "-//W3C//DTD SVG 1.1//EN"
 "http://www.w3.org/Graphics/SVG/1.1/DTD/svg11.dtd">
<!-- Generated by graphviz version 7.0.5 (20221223.1930)
 -->
<!-- Title: NodeElemConstraint Pages: 1 -->
<svg width="1596pt" height="471pt"
 viewBox="0.00 0.00 1596.00 471.00" xmlns="http://www.w3.org/2000/svg" xmlns:xlink="http://www.w3.org/1999/xlink">
<g id="graph0" class="graph" transform="scale(1 1) rotate(0) translate(4 467)">
<title>NodeElemConstraint</title>
<!-- Node1 -->
<g id="node1" class="node">
<title>Node1</title>
<g id="a_node1"><a xlink:title="A NodeElemConstraint is used when you need to create constraints between a secondary node and a prima...">
<polygon fill="#999999" stroke="#666666" points="1367,-93 1242,-93 1242,-74 1367,-74 1367,-93"/>
<text text-anchor="middle" x="1304.5" y="-81" font-family="Courier,monospace" font-size="10.00">NodeElemConstraint</text>
</a>
</g>
</g>
<!-- Node30 -->
<g id="node30" class="node">
<title>Node30</title>
<g id="a_node30"><a xlink:href="classEqualValueEmbeddedConstraint.html" target="_top" xlink:title="A EqualValueEmbeddedConstraint forces the value of a variable to be the same on overlapping portion o...">
<polygon fill="white" stroke="#666666" points="1588,-93 1403,-93 1403,-74 1588,-74 1588,-93"/>
<text text-anchor="middle" x="1495.5" y="-81" font-family="Courier,monospace" font-size="10.00">EqualValueEmbeddedConstraint</text>
</a>
</g>
</g>
<!-- Node1&#45;&gt;Node30 -->
<g id="edge29" class="edge">
<title>Node1&#45;&gt;Node30</title>
<path fill="none" stroke="#63b8ff" d="M1378.72,-83.5C1386.57,-83.5 1394.63,-83.5 1402.66,-83.5"/>
<polygon fill="#63b8ff" stroke="#63b8ff" points="1378.9,-80 1368.9,-83.5 1378.9,-87 1378.9,-80"/>
</g>
<!-- Node2 -->
<g id="node2" class="node">
<title>Node2</title>
<g id="a_node2"><a xlink:href="classConstraint.html" target="_top" xlink:title="Base class for all Constraint types.">
<polygon fill="white" stroke="#666666" points="1143,-167 1066,-167 1066,-148 1143,-148 1143,-167"/>
<text text-anchor="middle" x="1104.5" y="-155" font-family="Courier,monospace" font-size="10.00">Constraint</text>
</a>
</g>
</g>
<!-- Node2&#45;&gt;Node1 -->
<g id="edge1" class="edge">
<title>Node2&#45;&gt;Node1</title>
<path fill="none" stroke="#63b8ff" d="M1142.87,-143.53C1181.98,-128.92 1242.39,-106.34 1276.9,-93.44"/>
<polygon fill="#63b8ff" stroke="#63b8ff" points="1141.76,-140.21 1133.62,-146.99 1144.21,-146.77 1141.76,-140.21"/>
</g>
<!-- Node3 -->
<g id="node3" class="node">
<title>Node3</title>
<g id="a_node3"><a xlink:href="classNeighborResidualObject.html" target="_top" xlink:title="This is a base class for objects that can provide residual contributions for both local and neighbor ...">
<polygon fill="white" stroke="#666666" points="937,-204 788,-204 788,-185 937,-185 937,-204"/>
<text text-anchor="middle" x="862.5" y="-192" font-family="Courier,monospace" font-size="10.00">NeighborResidualObject</text>
</a>
</g>
</g>
<!-- Node3&#45;&gt;Node2 -->
<g id="edge2" class="edge">
<title>Node3&#45;&gt;Node2</title>
<path fill="none" stroke="#63b8ff" d="M939.47,-182.79C981.53,-176.3 1031.97,-168.53 1065.71,-163.33"/>
<polygon fill="#63b8ff" stroke="#63b8ff" points="938.98,-179.32 929.63,-184.31 940.04,-186.24 938.98,-179.32"/>
</g>
<!-- Node4 -->
<g id="node4" class="node">
<title>Node4</title>
<g id="a_node4"><a xlink:href="classResidualObject.html" target="_top" xlink:title="This is the common base class for objects that give residual contributions.">
<polygon fill="white" stroke="#666666" points="722,-204 621,-204 621,-185 722,-185 722,-204"/>
<text text-anchor="middle" x="671.5" y="-192" font-family="Courier,monospace" font-size="10.00">ResidualObject</text>
</a>
</g>
</g>
<!-- Node4&#45;&gt;Node3 -->
<g id="edge3" class="edge">
<title>Node4&#45;&gt;Node3</title>
<path fill="none" stroke="#63b8ff" d="M733.26,-194.5C750.57,-194.5 769.62,-194.5 787.63,-194.5"/>
<polygon fill="#63b8ff" stroke="#63b8ff" points="733.67,-191 723.67,-194.5 733.67,-198 733.67,-191"/>
</g>
<!-- Node5 -->
<g id="node5" class="node">
<title>Node5</title>
<g id="a_node5"><a xlink:href="classMooseObject.html" target="_top" xlink:title="Every object that can be built by the factory should be derived from this class.">
<polygon fill="white" stroke="#666666" points="534,-389 451,-389 451,-370 534,-370 534,-389"/>
<text text-anchor="middle" x="492.5" y="-377" font-family="Courier,monospace" font-size="10.00">MooseObject</text>
</a>
</g>
</g>
<!-- Node5&#45;&gt;Node4 -->
<g id="edge4" class="edge">
<title>Node5&#45;&gt;Node4</title>
<path fill="none" stroke="#63b8ff" d="M545.5,-377.46C559.39,-374.84 573.68,-370.04 585,-361.5 639.88,-320.13 662.38,-233.51 668.59,-204.33"/>
<polygon fill="#63b8ff" stroke="#63b8ff" points="545.36,-373.94 536,-378.9 546.41,-380.86 545.36,-373.94"/>
</g>
<!-- Node6 -->
<g id="node6" class="node">
<title>Node6</title>
<g id="a_node6"><a xlink:href="classMooseBase.html" target="_top" xlink:title="Base class for everything in MOOSE with a name and a type.">
<polygon fill="white" stroke="#666666" points="310,-463 239,-463 239,-444 310,-444 310,-463"/>
<text text-anchor="middle" x="274.5" y="-451" font-family="Courier,monospace" font-size="10.00">MooseBase</text>
</a>
</g>
</g>
<!-- Node6&#45;&gt;Node5 -->
<g id="edge5" class="edge">
<title>Node6&#45;&gt;Node5</title>
<path fill="none" stroke="#63b8ff" d="M321.62,-446.05C335.41,-443.31 350.46,-439.8 364,-435.5 403.87,-422.85 448.08,-401.72 472.56,-389.35"/>
<polygon fill="#63b8ff" stroke="#63b8ff" points="321.06,-442.59 311.89,-447.89 322.36,-449.47 321.06,-442.59"/>
</g>
<!-- Node7 -->
<g id="node7" class="node">
<title>Node7</title>
<g id="a_node7"><a xlink:href="classMooseBaseParameterInterface.html" target="_top" xlink:title="Every object that can be built by the factory should be derived from this class.">
<polygon fill="white" stroke="#666666" points="364,-426 185,-426 185,-407 364,-407 364,-426"/>
<text text-anchor="middle" x="274.5" y="-414" font-family="Courier,monospace" font-size="10.00">MooseBaseParameterInterface</text>
</a>
</g>
</g>
<!-- Node7&#45;&gt;Node5 -->
<g id="edge6" class="edge">
<title>Node7&#45;&gt;Node5</title>
<path fill="none" stroke="#63b8ff" d="M344.77,-404.63C379.7,-398.65 420.85,-391.6 450.68,-386.49"/>
<polygon fill="#63b8ff" stroke="#63b8ff" points="344.43,-401.14 335.16,-406.28 345.61,-408.04 344.43,-401.14"/>
</g>
<!-- Node8 -->
<g id="node8" class="node">
<title>Node8</title>
<g id="a_node8"><a xlink:href="classMooseBaseErrorInterface.html" target="_top" xlink:title="Interface that provides APIs to output errors/warnings/info messages.">
<polygon fill="white" stroke="#666666" points="352,-389 197,-389 197,-370 352,-370 352,-389"/>
<text text-anchor="middle" x="274.5" y="-377" font-family="Courier,monospace" font-size="10.00">MooseBaseErrorInterface</text>
</a>
</g>
</g>
<!-- Node8&#45;&gt;Node5 -->
<g id="edge7" class="edge">
<title>Node8&#45;&gt;Node5</title>
<path fill="none" stroke="#63b8ff" d="M363.7,-379.5C393.87,-379.5 426.17,-379.5 450.75,-379.5"/>
<polygon fill="#63b8ff" stroke="#63b8ff" points="363.78,-376 353.78,-379.5 363.78,-383 363.78,-376"/>
</g>
<!-- Node9 -->
<g id="node9" class="node">
<title>Node9</title>
<g id="a_node9"><a xlink:href="classConsoleStreamInterface.html" target="_top" xlink:title="An inteface for the _console for outputting to the Console object.">
<polygon fill="white" stroke="#666666" points="149,-389 0,-389 0,-370 149,-370 149,-389"/>
<text text-anchor="middle" x="74.5" y="-377" font-family="Courier,monospace" font-size="10.00">ConsoleStreamInterface</text>
</a>
</g>
</g>
<!-- Node9&#45;&gt;Node8 -->
<g id="edge8" class="edge">
<title>Node9&#45;&gt;Node8</title>
<path fill="none" stroke="#63b8ff" d="M160.62,-379.5C172.62,-379.5 184.9,-379.5 196.73,-379.5"/>
<polygon fill="#63b8ff" stroke="#63b8ff" points="160.74,-376 150.74,-379.5 160.74,-383 160.74,-376"/>
</g>
<!-- Node10 -->
<g id="node10" class="node">
<title>Node10</title>
<g id="a_node10"><a xlink:title=" ">
<polygon fill="white" stroke="#666666" points="352,-352 197,-352 197,-333 352,-333 352,-352"/>
<text text-anchor="middle" x="274.5" y="-340" font-family="Courier,monospace" font-size="10.00">libMesh::ParallelObject</text>
</a>
</g>
</g>
<!-- Node10&#45;&gt;Node5 -->
<g id="edge9" class="edge">
<title>Node10&#45;&gt;Node5</title>
<path fill="none" stroke="#63b8ff" d="M344.77,-354.37C379.7,-360.35 420.85,-367.4 450.68,-372.51"/>
<polygon fill="#63b8ff" stroke="#63b8ff" points="345.61,-350.96 335.16,-352.72 344.43,-357.86 345.61,-350.96"/>
</g>
<!-- Node11 -->
<g id="node11" class="node">
<title>Node11</title>
<g id="a_node11"><a xlink:href="classDataFileInterface.html" target="_top" xlink:title=" ">
<polygon fill="white" stroke="#666666" points="337,-314.5 212,-314.5 212,-284.5 337,-284.5 337,-314.5"/>
<text text-anchor="start" x="220" y="-302.5" font-family="Courier,monospace" font-size="10.00">DataFileInterface&lt;</text>
<text text-anchor="middle" x="274.5" y="-291.5" font-family="Courier,monospace" font-size="10.00"> MooseObject &gt;</text>
</a>
</g>
</g>
<!-- Node11&#45;&gt;Node5 -->
<g id="edge10" class="edge">
<title>Node11&#45;&gt;Node5</title>
<path fill="none" stroke="#63b8ff" d="M347.62,-316.35C353.32,-318.73 358.86,-321.44 364,-324.5 383.71,-336.24 379.83,-350.57 400,-361.5 415.37,-369.83 434.06,-374.34 450.53,-376.76"/>
<polygon fill="#63b8ff" stroke="#63b8ff" points="349.23,-313.22 338.64,-312.94 346.74,-319.76 349.23,-313.22"/>
</g>
<!-- Node12 -->
<g id="node12" class="node">
<title>Node12</title>
<g id="a_node12"><a xlink:href="classSetupInterface.html" target="_top" xlink:title=" ">
<polygon fill="white" stroke="#666666" points="543,-352 442,-352 442,-333 543,-333 543,-352"/>
<text text-anchor="middle" x="492.5" y="-340" font-family="Courier,monospace" font-size="10.00">SetupInterface</text>
</a>
</g>
</g>
<!-- Node12&#45;&gt;Node4 -->
<g id="edge11" class="edge">
<title>Node12&#45;&gt;Node4</title>
<path fill="none" stroke="#63b8ff" d="M554.5,-337.51C565.27,-334.73 575.92,-330.6 585,-324.5 630.96,-293.62 658.14,-228.83 667.14,-204.25"/>
<polygon fill="#63b8ff" stroke="#63b8ff" points="553.8,-334.08 544.77,-339.63 555.29,-340.92 553.8,-334.08"/>
</g>
<!-- Node13 -->
<g id="node13" class="node">
<title>Node13</title>
<g id="a_node13"><a xlink:href="classFunctionInterface.html" target="_top" xlink:title="Interface for objects that need to use functions.">
<polygon fill="white" stroke="#666666" points="552,-315 433,-315 433,-296 552,-296 552,-315"/>
<text text-anchor="middle" x="492.5" y="-303" font-family="Courier,monospace" font-size="10.00">FunctionInterface</text>
</a>
</g>
</g>
<!-- Node13&#45;&gt;Node4 -->
<g id="edge12" class="edge">
<title>Node13&#45;&gt;Node4</title>
<path fill="none" stroke="#63b8ff" d="M563.01,-296.72C570.69,-294.34 578.18,-291.32 585,-287.5 622.31,-266.59 652.39,-223.58 664.6,-204.26"/>
<polygon fill="#63b8ff" stroke="#63b8ff" points="562.27,-293.3 553.54,-299.29 564.11,-300.05 562.27,-293.3"/>
</g>
<!-- Node14 -->
<g id="node14" class="node">
<title>Node14</title>
<g id="a_node14"><a xlink:href="classUserObjectInterface.html" target="_top" xlink:title="Interface for objects that need to use UserObjects.">
<polygon fill="white" stroke="#666666" points="558,-278 427,-278 427,-259 558,-259 558,-278"/>
<text text-anchor="middle" x="492.5" y="-266" font-family="Courier,monospace" font-size="10.00">UserObjectInterface</text>
</a>
</g>
</g>
<!-- Node14&#45;&gt;Node4 -->
<g id="edge13" class="edge">
<title>Node14&#45;&gt;Node4</title>
<path fill="none" stroke="#63b8ff" d="M569.45,-255.95C574.78,-254.34 580.02,-252.53 585,-250.5 613.59,-238.85 642.82,-217.16 658.6,-204.47"/>
<polygon fill="#63b8ff" stroke="#63b8ff" points="568.59,-252.55 559.87,-258.57 570.44,-259.31 568.59,-252.55"/>
</g>
<!-- Node15 -->
<g id="node15" class="node">
<title>Node15</title>
<g id="a_node15"><a xlink:href="classTransientInterface.html" target="_top" xlink:title="Interface for objects that needs transient capabilities.">
<polygon fill="white" stroke="#666666" points="555,-241 430,-241 430,-222 555,-222 555,-241"/>
<text text-anchor="middle" x="492.5" y="-229" font-family="Courier,monospace" font-size="10.00">TransientInterface</text>
</a>
</g>
</g>
<!-- Node15&#45;&gt;Node4 -->
<g id="edge14" class="edge">
<title>Node15&#45;&gt;Node4</title>
<path fill="none" stroke="#63b8ff" d="M556.44,-219.33C566.01,-217.42 575.77,-215.43 585,-213.5 598.54,-210.66 613.26,-207.44 626.61,-204.47"/>
<polygon fill="#63b8ff" stroke="#63b8ff" points="555.93,-215.86 546.81,-221.24 557.3,-222.73 555.93,-215.86"/>
</g>
<!-- Node16 -->
<g id="node16" class="node">
<title>Node16</title>
<g id="a_node16"><a xlink:href="classPostprocessorInterface.html" target="_top" xlink:title="Interface class for classes which interact with Postprocessors.">
<polygon fill="white" stroke="#666666" points="567,-204 418,-204 418,-185 567,-185 567,-204"/>
<text text-anchor="middle" x="492.5" y="-192" font-family="Courier,monospace" font-size="10.00">PostprocessorInterface</text>
</a>
</g>
</g>
<!-- Node16&#45;&gt;Node4 -->
<g id="edge15" class="edge">
<title>Node16&#45;&gt;Node4</title>
<path fill="none" stroke="#63b8ff" d="M578.77,-194.5C593.16,-194.5 607.67,-194.5 620.76,-194.5"/>
<polygon fill="#63b8ff" stroke="#63b8ff" points="578.8,-191 568.8,-194.5 578.8,-198 578.8,-191"/>
</g>
<!-- Node17 -->
<g id="node17" class="node">
<title>Node17</title>
<g id="a_node17"><a xlink:href="classVectorPostprocessorInterface.html" target="_top" xlink:title=" ">
<polygon fill="white" stroke="#666666" points="585,-167 400,-167 400,-148 585,-148 585,-167"/>
<text text-anchor="middle" x="492.5" y="-155" font-family="Courier,monospace" font-size="10.00">VectorPostprocessorInterface</text>
</a>
</g>
</g>
<!-- Node17&#45;&gt;Node4 -->
<g id="edge16" class="edge">
<title>Node17&#45;&gt;Node4</title>
<path fill="none" stroke="#63b8ff" d="M552.54,-169.74C563.34,-171.98 574.51,-174.31 585,-176.5 597.47,-179.11 610.97,-181.94 623.47,-184.57"/>
<polygon fill="#63b8ff" stroke="#63b8ff" points="553.45,-166.35 542.95,-167.74 552.03,-173.2 553.45,-166.35"/>
</g>
<!-- Node18 -->
<g id="node18" class="node">
<title>Node18</title>
<g id="a_node18"><a xlink:href="classRandomInterface.html" target="_top" xlink:title="Interface for objects that need parallel consistent random numbers without patterns over the course o...">
<polygon fill="white" stroke="#666666" points="546,-130 439,-130 439,-111 546,-111 546,-130"/>
<text text-anchor="middle" x="492.5" y="-118" font-family="Courier,monospace" font-size="10.00">RandomInterface</text>
</a>
</g>
</g>
<!-- Node18&#45;&gt;Node4 -->
<g id="edge17" class="edge">
<title>Node18&#45;&gt;Node4</title>
<path fill="none" stroke="#63b8ff" d="M557.3,-130.6C566.76,-132.99 576.26,-135.92 585,-139.5 613.26,-151.06 642.37,-172.11 658.28,-184.55"/>
<polygon fill="#63b8ff" stroke="#63b8ff" points="558.27,-127.23 547.74,-128.37 556.68,-134.05 558.27,-127.23"/>
</g>
<!-- Node19 -->
<g id="node19" class="node">
<title>Node19</title>
<g id="a_node19"><a xlink:href="classRestartable.html" target="_top" xlink:title="A class for creating restricted objects.">
<polygon fill="white" stroke="#666666" points="534,-93 451,-93 451,-74 534,-74 534,-93"/>
<text text-anchor="middle" x="492.5" y="-81" font-family="Courier,monospace" font-size="10.00">Restartable</text>
</a>
</g>
</g>
<!-- Node19&#45;&gt;Node4 -->
<g id="edge18" class="edge">
<title>Node19&#45;&gt;Node4</title>
<path fill="none" stroke="#63b8ff" d="M545.28,-88.53C558.81,-91.34 572.96,-95.71 585,-102.5 589.82,-105.22 640.76,-161.47 661.64,-184.65"/>
<polygon fill="#63b8ff" stroke="#63b8ff" points="546.08,-85.11 535.61,-86.78 544.83,-92 546.08,-85.11"/>
</g>
<!-- Node20 -->
<g id="node20" class="node">
<title>Node20</title>
<g id="a_node20"><a xlink:href="classMeshChangedInterface.html" target="_top" xlink:title="Interface for notifications that the mesh has changed.">
<polygon fill="white" stroke="#666666" points="561,-56 424,-56 424,-37 561,-37 561,-56"/>
<text text-anchor="middle" x="492.5" y="-44" font-family="Courier,monospace" font-size="10.00">MeshChangedInterface</text>
</a>
</g>
</g>
<!-- Node20&#45;&gt;Node4 -->
<g id="edge19" class="edge">
<title>Node20&#45;&gt;Node4</title>
<path fill="none" stroke="#63b8ff" d="M571.75,-57.4C576.46,-59.66 580.93,-62.33 585,-65.5 613.86,-87.96 600.57,-109.17 621,-139.5 632.63,-156.76 649.36,-174.2 660.08,-184.68"/>
<polygon fill="#63b8ff" stroke="#63b8ff" points="573.11,-54.18 562.52,-53.68 570.49,-60.67 573.11,-54.18"/>
</g>
<!-- Node21 -->
<g id="node21" class="node">
<title>Node21</title>
<g id="a_node21"><a xlink:href="classTaggingInterface.html" target="_top" xlink:title=" ">
<polygon fill="white" stroke="#666666" points="549,-19 436,-19 436,0 549,0 549,-19"/>
<text text-anchor="middle" x="492.5" y="-7" font-family="Courier,monospace" font-size="10.00">TaggingInterface</text>
</a>
</g>
</g>
<!-- Node21&#45;&gt;Node4 -->
<g id="edge20" class="edge">
<title>Node21&#45;&gt;Node4</title>
<path fill="none" stroke="#63b8ff" d="M560.01,-13.8C569.17,-16.78 577.87,-21.16 585,-27.5 624.07,-62.25 594.93,-94.17 621,-139.5 631.25,-157.32 648.02,-174.35 659.16,-184.61"/>
<polygon fill="#63b8ff" stroke="#63b8ff" points="561.13,-10.48 550.57,-11.3 559.34,-17.25 561.13,-10.48"/>
</g>
<!-- Node22 -->
<g id="node22" class="node">
<title>Node22</title>
<g id="a_node22"><a xlink:href="classGeometricSearchInterface.html" target="_top" xlink:title=" ">
<polygon fill="white" stroke="#666666" points="943,-167 782,-167 782,-148 943,-148 943,-167"/>
<text text-anchor="middle" x="862.5" y="-155" font-family="Courier,monospace" font-size="10.00">GeometricSearchInterface</text>
</a>
</g>
</g>
<!-- Node22&#45;&gt;Node2 -->
<g id="edge21" class="edge">
<title>Node22&#45;&gt;Node2</title>
<path fill="none" stroke="darkgreen" d="M954.67,-157.5C993.15,-157.5 1035.83,-157.5 1065.58,-157.5"/>
<polygon fill="darkgreen" stroke="darkgreen" points="954.93,-154 944.93,-157.5 954.93,-161 954.93,-154"/>
</g>
<!-- Node23 -->
<g id="node23" class="node">
<title>Node23</title>
<g id="a_node23"><a xlink:href="classNeighborCoupleableMooseVariableDependencyIntermediateInterface.html" target="_top" xlink:title="Intermediate base class that ties together all the interfaces for getting MooseVariables with the Moo...">
<polygon fill="white" stroke="#666666" points="1206,-98.5 1003,-98.5 1003,-68.5 1206,-68.5 1206,-98.5"/>
<text text-anchor="start" x="1011" y="-86.5" font-family="Courier,monospace" font-size="10.00">NeighborCoupleableMooseVariable</text>
<text text-anchor="middle" x="1104.5" y="-75.5" font-family="Courier,monospace" font-size="10.00">DependencyIntermediateInterface</text>
</a>
</g>
</g>
<!-- Node23&#45;&gt;Node1 -->
<g id="edge22" class="edge">
<title>Node23&#45;&gt;Node1</title>
<path fill="none" stroke="#63b8ff" d="M1217.49,-83.5C1225.71,-83.5 1233.8,-83.5 1241.54,-83.5"/>
<polygon fill="#63b8ff" stroke="#63b8ff" points="1217.75,-80 1207.75,-83.5 1217.75,-87 1217.75,-80"/>
</g>
<!-- Node24 -->
<g id="node24" class="node">
<title>Node24</title>
<g id="a_node24"><a xlink:href="classNeighborCoupleable.html" target="_top" xlink:title="Enhances Coupleable interface to also couple the values from neighbor elements.">
<polygon fill="white" stroke="#666666" points="925,-130 800,-130 800,-111 925,-111 925,-130"/>
<text text-anchor="middle" x="862.5" y="-118" font-family="Courier,monospace" font-size="10.00">NeighborCoupleable</text>
</a>
</g>
</g>
<!-- Node24&#45;&gt;Node23 -->
<g id="edge23" class="edge">
<title>Node24&#45;&gt;Node23</title>
<path fill="none" stroke="#63b8ff" d="M936.42,-109.26C957.48,-106.01 980.85,-102.41 1003.26,-98.95"/>
<polygon fill="#63b8ff" stroke="#63b8ff" points="936.15,-105.76 926.8,-110.74 937.22,-112.68 936.15,-105.76"/>
</g>
<!-- Node25 -->
<g id="node25" class="node">
<title>Node25</title>
<g id="a_node25"><a xlink:href="classCoupleable.html" target="_top" xlink:title="Interface for objects that needs coupling capabilities.">
<polygon fill="white" stroke="#666666" points="710,-130 633,-130 633,-111 710,-111 710,-130"/>
<text text-anchor="middle" x="671.5" y="-118" font-family="Courier,monospace" font-size="10.00">Coupleable</text>
</a>
</g>
</g>
<!-- Node25&#45;&gt;Node24 -->
<g id="edge24" class="edge">
<title>Node25&#45;&gt;Node24</title>
<path fill="none" stroke="#63b8ff" d="M721.55,-120.5C745.37,-120.5 774.26,-120.5 799.59,-120.5"/>
<polygon fill="#63b8ff" stroke="#63b8ff" points="721.81,-117 711.81,-120.5 721.81,-124 721.81,-117"/>
</g>
<!-- Node26 -->
<g id="node26" class="node">
<title>Node26</title>
<g id="a_node26"><a xlink:href="classScalarCoupleable.html" target="_top" xlink:title="Interface for objects that needs scalar coupling capabilities.">
<polygon fill="white" stroke="#666666" points="919,-93 806,-93 806,-74 919,-74 919,-93"/>
<text text-anchor="middle" x="862.5" y="-81" font-family="Courier,monospace" font-size="10.00">ScalarCoupleable</text>
</a>
</g>
</g>
<!-- Node26&#45;&gt;Node23 -->
<g id="edge25" class="edge">
<title>Node26&#45;&gt;Node23</title>
<path fill="none" stroke="#63b8ff" d="M930.83,-83.5C953.12,-83.5 978.44,-83.5 1002.68,-83.5"/>
<polygon fill="#63b8ff" stroke="#63b8ff" points="930.98,-80 920.98,-83.5 930.98,-87 930.98,-80"/>
</g>
<!-- Node27 -->
<g id="node27" class="node">
<title>Node27</title>
<g id="a_node27"><a xlink:href="classMooseVariableDependencyInterface.html" target="_top" xlink:title=" ">
<polygon fill="white" stroke="#666666" points="967,-56 758,-56 758,-37 967,-37 967,-56"/>
<text text-anchor="middle" x="862.5" y="-44" font-family="Courier,monospace" font-size="10.00">MooseVariableDependencyInterface</text>
</a>
</g>
</g>
<!-- Node27&#45;&gt;Node23 -->
<g id="edge26" class="edge">
<title>Node27&#45;&gt;Node23</title>
<path fill="none" stroke="#63b8ff" d="M939.45,-58.21C959.65,-61.32 981.77,-64.73 1003.06,-68.01"/>
<polygon fill="#63b8ff" stroke="#63b8ff" points="940.04,-54.76 929.63,-56.69 938.98,-61.68 940.04,-54.76"/>
</g>
<!-- Node28 -->
<g id="node28" class="node">
<title>Node28</title>
<g id="a_node28"><a xlink:href="classNeighborMooseVariableInterface.html" target="_top" xlink:title=" ">
<polygon fill="white" stroke="#666666" points="1203,-37.5 1006,-37.5 1006,-7.5 1203,-7.5 1203,-37.5"/>
<text text-anchor="start" x="1014" y="-25.5" font-family="Courier,monospace" font-size="10.00">NeighborMooseVariableInterface</text>
<text text-anchor="middle" x="1104.5" y="-14.5" font-family="Courier,monospace" font-size="10.00">&lt; Real &gt;</text>
</a>
</g>
</g>
<!-- Node28&#45;&gt;Node1 -->
<g id="edge27" class="edge">
<title>Node28&#45;&gt;Node1</title>
<path fill="none" stroke="#63b8ff" d="M1166.67,-41.34C1201.25,-52 1243.09,-64.89 1271.32,-73.59"/>
<polygon fill="#63b8ff" stroke="#63b8ff" points="1167.75,-38.02 1157.17,-38.42 1165.69,-44.71 1167.75,-38.02"/>
</g>
<!-- Node29 -->
<g id="node29" class="node">
<title>Node29</title>
<g id="a_node29"><a xlink:href="classMooseVariableInterface.html" target="_top" xlink:title="Interface for objects that need to get values of MooseVariables.">
<polygon fill="white" stroke="#666666" points="952,-19 773,-19 773,0 952,0 952,-19"/>
<text text-anchor="middle" x="862.5" y="-7" font-family="Courier,monospace" font-size="10.00">MooseVariableInterface&lt; T &gt;</text>
</a>
</g>
</g>
<!-- Node29&#45;&gt;Node28 -->
<g id="edge28" class="edge">
<title>Node29&#45;&gt;Node28</title>
<path fill="none" stroke="#63b8ff" d="M963.37,-14.91C977.43,-15.67 991.87,-16.45 1005.89,-17.21"/>
<polygon fill="#63b8ff" stroke="#63b8ff" points="963.87,-11.43 953.7,-14.39 963.49,-18.42 963.87,-11.43"/>
</g>
</g>
</svg>
