<?xml version="1.0" encoding="UTF-8" standalone="no"?>
<!DOCTYPE svg PUBLIC "-//W3C//DTD SVG 1.1//EN"
 "http://www.w3.org/Graphics/SVG/1.1/DTD/svg11.dtd">
<!-- Generated by graphviz version 7.0.5 (20221223.1930)
 -->
<!-- Title: Output Pages: 1 -->
<!--zoomable 397 -->
<svg id="main" version="1.1" xmlns="http://www.w3.org/2000/svg" xmlns:xlink="http://www.w3.org/1999/xlink" xml:space="preserve" onload="init(evt)">
<style type="text/css"><![CDATA[
.edge:hover path { stroke: red; }
.edge:hover polygon { stroke: red; fill: red; }
]]></style>
<script type="text/javascript"><![CDATA[
var edges = document.getElementsByTagName('g');
if (edges && edges.length) {
  for (var i=0;i<edges.length;i++) {
    if (edges[i].id.substr(0,4)=='edge') {
      edges[i].setAttribute('class','edge');
    }
  }
}
]]></script>
        <defs>
                <circle id="rim" cx="0" cy="0" r="7"/>
                <circle id="rim2" cx="0" cy="0" r="3.5"/>
                <g id="zoomPlus">
                        <use xlink:href="#rim" fill="#404040">
                                <set attributeName="fill" to="#808080" begin="zoomplus.mouseover" end="zoomplus.mouseout"/>
                        </use>
                        <path d="M-4,0h8M0,-4v8" fill="none" stroke="white" stroke-width="1.5" pointer-events="none"/>
                </g>
                <g id="zoomMin">
                        <use xlink:href="#rim" fill="#404040">
                                <set attributeName="fill" to="#808080" begin="zoomminus.mouseover" end="zoomminus.mouseout"/>
                        </use>
                        <path d="M-4,0h8" fill="none" stroke="white" stroke-width="1.5" pointer-events="none"/>
                </g>
                <g id="dirArrow">
                        <path fill="none" stroke="white" stroke-width="1.5" d="M0,-3.0v7 M-2.5,-0.5L0,-3.0L2.5,-0.5"/>
                </g>
               <g id="resetDef">
                       <use xlink:href="#rim2" fill="#404040">
                               <set attributeName="fill" to="#808080" begin="reset.mouseover" end="reset.mouseout"/>
                       </use>
               </g>
        </defs>

<script type="text/javascript">
var viewWidth = 1505;
var viewHeight = 397;
var sectionId = 'dynsection-0';
</script>
<script xlink:href="svgpan.js"/>
<svg id="graph" class="graph">
<g id="viewport">
<title>Output</title>
<!-- Node1 -->
<g id="node1" class="node">
<title>Node1</title>
<g id="a_node1"><a xlink:title="Based class for output objects.">
<polygon fill="#999999" stroke="#666666" points="674,-167 621,-167 621,-148 674,-148 674,-167"/>
<text text-anchor="middle" x="647.5" y="-155" font-family="Courier,monospace" font-size="10.00">Output</text>
</a>
</g>
</g>
<!-- Node17 -->
<g id="node17" class="node">
<title>Node17</title>
<g id="a_node17"><a xlink:href="classControlOutput.html" target="_top" xlink:title="Class for output information regarding Controls to the screen.">
<polygon fill="white" stroke="#666666" points="847,-278 752,-278 752,-259 847,-259 847,-278"/>
<text text-anchor="middle" x="799.5" y="-266" font-family="Courier,monospace" font-size="10.00">ControlOutput</text>
</a>
</g>
</g>
<!-- Node1&#45;&gt;Node17 -->
<g id="edge16" class="edge">
<title>Node1&#45;&gt;Node17</title>
<path fill="none" stroke="#63b8ff" d="M656.57,-177.87C666.09,-199.15 683.98,-231.83 710,-249.5 722.22,-257.8 737.4,-262.56 751.72,-265.27"/>
<polygon fill="#63b8ff" stroke="#63b8ff" points="659.85,-176.64 652.74,-168.78 653.4,-179.36 659.85,-176.64"/>
</g>
<!-- Node18 -->
<g id="node18" class="node">
<title>Node18</title>
<g id="a_node18"><a xlink:href="classMaterialPropertyDebugOutput.html" target="_top" xlink:title="A class for producing various debug related outputs.">
<polygon fill="white" stroke="#666666" points="889,-241 710,-241 710,-222 889,-222 889,-241"/>
<text text-anchor="middle" x="799.5" y="-229" font-family="Courier,monospace" font-size="10.00">MaterialPropertyDebugOutput</text>
</a>
</g>
</g>
<!-- Node1&#45;&gt;Node18 -->
<g id="edge17" class="edge">
<title>Node1&#45;&gt;Node18</title>
<path fill="none" stroke="#63b8ff" d="M663.92,-175.54C675.41,-187.81 692.12,-203.41 710,-212.5 717.28,-216.2 725.26,-219.19 733.35,-221.59"/>
<polygon fill="#63b8ff" stroke="#63b8ff" points="666.85,-173.56 657.56,-168.46 661.64,-178.24 666.85,-173.56"/>
</g>
<!-- Node19 -->
<g id="node19" class="node">
<title>Node19</title>
<g id="a_node19"><a xlink:href="classMortarNodalGeometryOutput.html" target="_top" xlink:title=" ">
<polygon fill="white" stroke="#666666" points="883,-204 716,-204 716,-185 883,-185 883,-204"/>
<text text-anchor="middle" x="799.5" y="-192" font-family="Courier,monospace" font-size="10.00">MortarNodalGeometryOutput</text>
</a>
</g>
</g>
<!-- Node1&#45;&gt;Node19 -->
<g id="edge18" class="edge">
<title>Node1&#45;&gt;Node19</title>
<path fill="none" stroke="#63b8ff" d="M685.43,-168.78C693.49,-171.12 702.01,-173.48 710,-175.5 722.64,-178.7 736.39,-181.83 749.2,-184.58"/>
<polygon fill="#63b8ff" stroke="#63b8ff" points="686.45,-165.44 675.87,-165.97 684.48,-172.15 686.45,-165.44"/>
</g>
<!-- Node20 -->
<g id="node20" class="node">
<title>Node20</title>
<g id="a_node20"><a xlink:href="classPerfGraphOutput.html" target="_top" xlink:title="Class for output information regarding Controls to the screen.">
<polygon fill="white" stroke="#666666" points="853,-167 746,-167 746,-148 853,-148 853,-167"/>
<text text-anchor="middle" x="799.5" y="-155" font-family="Courier,monospace" font-size="10.00">PerfGraphOutput</text>
</a>
</g>
</g>
<!-- Node1&#45;&gt;Node20 -->
<g id="edge19" class="edge">
<title>Node1&#45;&gt;Node20</title>
<path fill="none" stroke="#63b8ff" d="M685.56,-157.5C703.71,-157.5 725.87,-157.5 745.74,-157.5"/>
<polygon fill="#63b8ff" stroke="#63b8ff" points="685.8,-154 675.8,-157.5 685.8,-161 685.8,-154"/>
</g>
<!-- Node21 -->
<g id="node21" class="node">
<title>Node21</title>
<g id="a_node21"><a xlink:href="classPetscOutput.html" target="_top" xlink:title="Adds the ability to output on every nonlinear and/or linear residual.">
<polygon fill="white" stroke="#666666" points="841,-130 758,-130 758,-111 841,-111 841,-130"/>
<text text-anchor="middle" x="799.5" y="-118" font-family="Courier,monospace" font-size="10.00">PetscOutput</text>
</a>
</g>
</g>
<!-- Node1&#45;&gt;Node21 -->
<g id="edge20" class="edge">
<title>Node1&#45;&gt;Node21</title>
<path fill="none" stroke="#63b8ff" d="M685.1,-145.54C693.25,-143.06 701.89,-140.57 710,-138.5 725.49,-134.54 742.69,-130.88 757.77,-127.91"/>
<polygon fill="#63b8ff" stroke="#63b8ff" points="684.32,-142.12 675.82,-148.43 686.41,-148.8 684.32,-142.12"/>
</g>
<!-- Node43 -->
<g id="node43" class="node">
<title>Node43</title>
<g id="a_node43"><a xlink:href="classProgressOutput.html" target="_top" xlink:title="Output a simulation time progress bar on the console.">
<polygon fill="white" stroke="#666666" points="850,-93 749,-93 749,-74 850,-74 850,-93"/>
<text text-anchor="middle" x="799.5" y="-81" font-family="Courier,monospace" font-size="10.00">ProgressOutput</text>
</a>
</g>
</g>
<!-- Node1&#45;&gt;Node43 -->
<g id="edge42" class="edge">
<title>Node1&#45;&gt;Node43</title>
<path fill="none" stroke="#63b8ff" d="M663.44,-139.5C674.88,-126.91 691.76,-110.76 710,-101.5 721.88,-95.47 735.63,-91.46 748.7,-88.79"/>
<polygon fill="#63b8ff" stroke="#63b8ff" points="661.05,-136.9 657.12,-146.74 666.33,-141.51 661.05,-136.9"/>
</g>
<!-- Node44 -->
<g id="node44" class="node">
<title>Node44</title>
<g id="a_node44"><a xlink:href="classReporterDebugOutput.html" target="_top" xlink:title="Produces debug output for displaying Reporter information.">
<polygon fill="white" stroke="#666666" points="865,-56 734,-56 734,-37 865,-37 865,-56"/>
<text text-anchor="middle" x="799.5" y="-44" font-family="Courier,monospace" font-size="10.00">ReporterDebugOutput</text>
</a>
</g>
</g>
<!-- Node1&#45;&gt;Node44 -->
<g id="edge43" class="edge">
<title>Node1&#45;&gt;Node44</title>
<path fill="none" stroke="#63b8ff" d="M656.33,-137.19C665.73,-115.64 683.6,-82.31 710,-64.5 717.15,-59.68 725.31,-56.09 733.72,-53.44"/>
<polygon fill="#63b8ff" stroke="#63b8ff" points="653.12,-135.79 652.56,-146.37 659.6,-138.45 653.12,-135.79"/>
</g>
<!-- Node2 -->
<g id="node2" class="node">
<title>Node2</title>
<g id="a_node2"><a xlink:href="classMooseObject.html" target="_top" xlink:title="Every object that can be built by the factory should be derived from this class.">
<polygon fill="white" stroke="#666666" points="534,-315 451,-315 451,-296 534,-296 534,-315"/>
<text text-anchor="middle" x="492.5" y="-303" font-family="Courier,monospace" font-size="10.00">MooseObject</text>
</a>
</g>
</g>
<!-- Node2&#45;&gt;Node1 -->
<g id="edge1" class="edge">
<title>Node2&#45;&gt;Node1</title>
<path fill="none" stroke="#63b8ff" d="M545.31,-303.11C559.32,-300.36 573.72,-295.35 585,-286.5 624.82,-255.25 640.23,-191.89 644.85,-167.44"/>
<polygon fill="#63b8ff" stroke="#63b8ff" points="545.04,-299.61 535.71,-304.64 546.13,-306.53 545.04,-299.61"/>
</g>
<!-- Node3 -->
<g id="node3" class="node">
<title>Node3</title>
<g id="a_node3"><a xlink:href="classMooseBase.html" target="_top" xlink:title="Base class for everything in MOOSE with a name and a type.">
<polygon fill="white" stroke="#666666" points="310,-389 239,-389 239,-370 310,-370 310,-389"/>
<text text-anchor="middle" x="274.5" y="-377" font-family="Courier,monospace" font-size="10.00">MooseBase</text>
</a>
</g>
</g>
<!-- Node3&#45;&gt;Node2 -->
<g id="edge2" class="edge">
<title>Node3&#45;&gt;Node2</title>
<path fill="none" stroke="#63b8ff" d="M321.62,-372.05C335.41,-369.31 350.46,-365.8 364,-361.5 403.87,-348.85 448.08,-327.72 472.56,-315.35"/>
<polygon fill="#63b8ff" stroke="#63b8ff" points="321.06,-368.59 311.89,-373.89 322.36,-375.47 321.06,-368.59"/>
</g>
<!-- Node4 -->
<g id="node4" class="node">
<title>Node4</title>
<g id="a_node4"><a xlink:href="classMooseBaseParameterInterface.html" target="_top" xlink:title="Every object that can be built by the factory should be derived from this class.">
<polygon fill="white" stroke="#666666" points="364,-352 185,-352 185,-333 364,-333 364,-352"/>
<text text-anchor="middle" x="274.5" y="-340" font-family="Courier,monospace" font-size="10.00">MooseBaseParameterInterface</text>
</a>
</g>
</g>
<!-- Node4&#45;&gt;Node2 -->
<g id="edge3" class="edge">
<title>Node4&#45;&gt;Node2</title>
<path fill="none" stroke="#63b8ff" d="M344.77,-330.63C379.7,-324.65 420.85,-317.6 450.68,-312.49"/>
<polygon fill="#63b8ff" stroke="#63b8ff" points="344.43,-327.14 335.16,-332.28 345.61,-334.04 344.43,-327.14"/>
</g>
<!-- Node5 -->
<g id="node5" class="node">
<title>Node5</title>
<g id="a_node5"><a xlink:href="classMooseBaseErrorInterface.html" target="_top" xlink:title="Interface that provides APIs to output errors/warnings/info messages.">
<polygon fill="white" stroke="#666666" points="352,-315 197,-315 197,-296 352,-296 352,-315"/>
<text text-anchor="middle" x="274.5" y="-303" font-family="Courier,monospace" font-size="10.00">MooseBaseErrorInterface</text>
</a>
</g>
</g>
<!-- Node5&#45;&gt;Node2 -->
<g id="edge4" class="edge">
<title>Node5&#45;&gt;Node2</title>
<path fill="none" stroke="#63b8ff" d="M363.7,-305.5C393.87,-305.5 426.17,-305.5 450.75,-305.5"/>
<polygon fill="#63b8ff" stroke="#63b8ff" points="363.78,-302 353.78,-305.5 363.78,-309 363.78,-302"/>
</g>
<!-- Node6 -->
<g id="node6" class="node">
<title>Node6</title>
<g id="a_node6"><a xlink:href="classConsoleStreamInterface.html" target="_top" xlink:title="An inteface for the _console for outputting to the Console object.">
<polygon fill="white" stroke="#666666" points="149,-315 0,-315 0,-296 149,-296 149,-315"/>
<text text-anchor="middle" x="74.5" y="-303" font-family="Courier,monospace" font-size="10.00">ConsoleStreamInterface</text>
</a>
</g>
</g>
<!-- Node6&#45;&gt;Node5 -->
<g id="edge5" class="edge">
<title>Node6&#45;&gt;Node5</title>
<path fill="none" stroke="#63b8ff" d="M160.62,-305.5C172.62,-305.5 184.9,-305.5 196.73,-305.5"/>
<polygon fill="#63b8ff" stroke="#63b8ff" points="160.74,-302 150.74,-305.5 160.74,-309 160.74,-302"/>
</g>
<!-- Node7 -->
<g id="node7" class="node">
<title>Node7</title>
<g id="a_node7"><a xlink:title=" ">
<polygon fill="white" stroke="#666666" points="352,-278 197,-278 197,-259 352,-259 352,-278"/>
<text text-anchor="middle" x="274.5" y="-266" font-family="Courier,monospace" font-size="10.00">libMesh::ParallelObject</text>
</a>
</g>
</g>
<!-- Node7&#45;&gt;Node2 -->
<g id="edge6" class="edge">
<title>Node7&#45;&gt;Node2</title>
<path fill="none" stroke="#63b8ff" d="M344.77,-280.37C379.7,-286.35 420.85,-293.4 450.68,-298.51"/>
<polygon fill="#63b8ff" stroke="#63b8ff" points="345.61,-276.96 335.16,-278.72 344.43,-283.86 345.61,-276.96"/>
</g>
<!-- Node8 -->
<g id="node8" class="node">
<title>Node8</title>
<g id="a_node8"><a xlink:href="classDataFileInterface.html" target="_top" xlink:title=" ">
<polygon fill="white" stroke="#666666" points="337,-240.5 212,-240.5 212,-210.5 337,-210.5 337,-240.5"/>
<text text-anchor="start" x="220" y="-228.5" font-family="Courier,monospace" font-size="10.00">DataFileInterface&lt;</text>
<text text-anchor="middle" x="274.5" y="-217.5" font-family="Courier,monospace" font-size="10.00"> MooseObject &gt;</text>
</a>
</g>
</g>
<!-- Node8&#45;&gt;Node2 -->
<g id="edge7" class="edge">
<title>Node8&#45;&gt;Node2</title>
<path fill="none" stroke="#63b8ff" d="M347.62,-241.49C353.32,-243.82 358.86,-246.47 364,-249.5 383.77,-261.14 379.89,-275.46 400,-286.5 415.36,-294.93 434.05,-299.63 450.52,-302.24"/>
<polygon fill="#63b8ff" stroke="#63b8ff" points="349.23,-238.35 338.64,-238.17 346.8,-244.92 349.23,-238.35"/>
</g>
<!-- Node9 -->
<g id="node9" class="node">
<title>Node9</title>
<g id="a_node9"><a xlink:href="classRestartable.html" target="_top" xlink:title="A class for creating restricted objects.">
<polygon fill="white" stroke="#666666" points="534,-278 451,-278 451,-259 534,-259 534,-278"/>
<text text-anchor="middle" x="492.5" y="-266" font-family="Courier,monospace" font-size="10.00">Restartable</text>
</a>
</g>
</g>
<!-- Node9&#45;&gt;Node1 -->
<g id="edge8" class="edge">
<title>Node9&#45;&gt;Node1</title>
<path fill="none" stroke="#63b8ff" d="M545.68,-264.8C559.33,-262 573.44,-257.29 585,-249.5 615.91,-228.67 635.29,-186.57 642.86,-167.41"/>
<polygon fill="#63b8ff" stroke="#63b8ff" points="545.15,-261.34 535.89,-266.49 546.34,-268.24 545.15,-261.34"/>
</g>
<!-- Node10 -->
<g id="node10" class="node">
<title>Node10</title>
<g id="a_node10"><a xlink:href="classMeshChangedInterface.html" target="_top" xlink:title="Interface for notifications that the mesh has changed.">
<polygon fill="white" stroke="#666666" points="561,-241 424,-241 424,-222 561,-222 561,-241"/>
<text text-anchor="middle" x="492.5" y="-229" font-family="Courier,monospace" font-size="10.00">MeshChangedInterface</text>
</a>
</g>
</g>
<!-- Node10&#45;&gt;Node1 -->
<g id="edge9" class="edge">
<title>Node10&#45;&gt;Node1</title>
<path fill="none" stroke="#63b8ff" d="M571.98,-218.12C576.47,-216.46 580.84,-214.6 585,-212.5 607.25,-201.27 627.67,-179.9 638.46,-167.36"/>
<polygon fill="#63b8ff" stroke="#63b8ff" points="571.18,-214.7 562.78,-221.16 573.37,-221.35 571.18,-214.7"/>
</g>
<!-- Node11 -->
<g id="node11" class="node">
<title>Node11</title>
<g id="a_node11"><a xlink:href="classSetupInterface.html" target="_top" xlink:title=" ">
<polygon fill="white" stroke="#666666" points="543,-204 442,-204 442,-185 543,-185 543,-204"/>
<text text-anchor="middle" x="492.5" y="-192" font-family="Courier,monospace" font-size="10.00">SetupInterface</text>
</a>
</g>
</g>
<!-- Node11&#45;&gt;Node1 -->
<g id="edge10" class="edge">
<title>Node11&#45;&gt;Node1</title>
<path fill="none" stroke="#63b8ff" d="M554.12,-182.63C564.45,-180.4 575.06,-177.98 585,-175.5 596.76,-172.56 609.66,-168.86 620.59,-165.58"/>
<polygon fill="#63b8ff" stroke="#63b8ff" points="553.59,-179.16 544.53,-184.65 555.04,-186.01 553.59,-179.16"/>
</g>
<!-- Node12 -->
<g id="node12" class="node">
<title>Node12</title>
<g id="a_node12"><a xlink:href="classFunctionInterface.html" target="_top" xlink:title="Interface for objects that need to use functions.">
<polygon fill="white" stroke="#666666" points="552,-167 433,-167 433,-148 552,-148 552,-167"/>
<text text-anchor="middle" x="492.5" y="-155" font-family="Courier,monospace" font-size="10.00">FunctionInterface</text>
</a>
</g>
</g>
<!-- Node12&#45;&gt;Node1 -->
<g id="edge11" class="edge">
<title>Node12&#45;&gt;Node1</title>
<path fill="none" stroke="#63b8ff" d="M563.7,-157.5C583.95,-157.5 604.79,-157.5 620.5,-157.5"/>
<polygon fill="#63b8ff" stroke="#63b8ff" points="563.73,-154 553.73,-157.5 563.73,-161 563.73,-154"/>
</g>
<!-- Node13 -->
<g id="node13" class="node">
<title>Node13</title>
<g id="a_node13"><a xlink:href="classPostprocessorInterface.html" target="_top" xlink:title="Interface class for classes which interact with Postprocessors.">
<polygon fill="white" stroke="#666666" points="567,-130 418,-130 418,-111 567,-111 567,-130"/>
<text text-anchor="middle" x="492.5" y="-118" font-family="Courier,monospace" font-size="10.00">PostprocessorInterface</text>
</a>
</g>
</g>
<!-- Node13&#45;&gt;Node1 -->
<g id="edge12" class="edge">
<title>Node13&#45;&gt;Node1</title>
<path fill="none" stroke="#63b8ff" d="M559.93,-132.71C568.4,-134.52 576.92,-136.46 585,-138.5 596.81,-141.48 609.71,-145.36 620.64,-148.85"/>
<polygon fill="#63b8ff" stroke="#63b8ff" points="560.85,-129.33 550.35,-130.72 559.43,-136.18 560.85,-129.33"/>
</g>
<!-- Node14 -->
<g id="node14" class="node">
<title>Node14</title>
<g id="a_node14"><a xlink:href="classVectorPostprocessorInterface.html" target="_top" xlink:title=" ">
<polygon fill="white" stroke="#666666" points="585,-93 400,-93 400,-74 585,-74 585,-93"/>
<text text-anchor="middle" x="492.5" y="-81" font-family="Courier,monospace" font-size="10.00">VectorPostprocessorInterface</text>
</a>
</g>
</g>
<!-- Node14&#45;&gt;Node1 -->
<g id="edge13" class="edge">
<title>Node14&#45;&gt;Node1</title>
<path fill="none" stroke="#63b8ff" d="M575.43,-97.23C578.72,-98.53 581.92,-99.95 585,-101.5 607.7,-112.93 628.26,-135.11 638.89,-147.86"/>
<polygon fill="#63b8ff" stroke="#63b8ff" points="576.75,-93.99 566.16,-94 574.45,-100.6 576.75,-93.99"/>
</g>
<!-- Node15 -->
<g id="node15" class="node">
<title>Node15</title>
<g id="a_node15"><a xlink:href="classReporterInterface.html" target="_top" xlink:title="Interface to allow object to consume Reporter values.">
<polygon fill="white" stroke="#666666" points="552,-56 433,-56 433,-37 552,-37 552,-56"/>
<text text-anchor="middle" x="492.5" y="-44" font-family="Courier,monospace" font-size="10.00">ReporterInterface</text>
</a>
</g>
</g>
<!-- Node15&#45;&gt;Node1 -->
<g id="edge14" class="edge">
<title>Node15&#45;&gt;Node1</title>
<path fill="none" stroke="#63b8ff" d="M563.33,-54.12C571.01,-56.71 578.42,-60.09 585,-64.5 616.36,-85.51 635.63,-128.47 643.03,-147.75"/>
<polygon fill="#63b8ff" stroke="#63b8ff" points="564.38,-50.78 553.81,-51.39 562.45,-57.51 564.38,-50.78"/>
</g>
<!-- Node16 -->
<g id="node16" class="node">
<title>Node16</title>
<g id="a_node16"><a xlink:href="classPerfGraphInterface.html" target="_top" xlink:title="Interface for objects interacting with the PerfGraph.">
<polygon fill="white" stroke="#666666" points="555,-19 430,-19 430,0 555,0 555,-19"/>
<text text-anchor="middle" x="492.5" y="-7" font-family="Courier,monospace" font-size="10.00">PerfGraphInterface</text>
</a>
</g>
</g>
<!-- Node16&#45;&gt;Node1 -->
<g id="edge15" class="edge">
<title>Node16&#45;&gt;Node1</title>
<path fill="none" stroke="#63b8ff" d="M566.27,-17.09C573,-19.72 579.38,-23.13 585,-27.5 625.38,-58.95 640.53,-123.39 644.96,-147.82"/>
<polygon fill="#63b8ff" stroke="#63b8ff" points="567.51,-13.81 556.92,-14.02 565.33,-20.46 567.51,-13.81"/>
</g>
<!-- Node22 -->
<g id="node22" class="node">
<title>Node22</title>
<g id="a_node22"><a xlink:href="classFileOutput.html" target="_top" xlink:title="An outputter with filename support.">
<polygon fill="white" stroke="#666666" points="1050,-167 973,-167 973,-148 1050,-148 1050,-167"/>
<text text-anchor="middle" x="1011.5" y="-155" font-family="Courier,monospace" font-size="10.00">FileOutput</text>
</a>
</g>
</g>
<!-- Node21&#45;&gt;Node22 -->
<g id="edge21" class="edge">
<title>Node21&#45;&gt;Node22</title>
<path fill="none" stroke="#63b8ff" d="M852.65,-129.69C889.94,-136.26 939.27,-144.95 972.79,-150.86"/>
<polygon fill="#63b8ff" stroke="#63b8ff" points="853.43,-126.27 842.98,-127.98 852.22,-133.17 853.43,-126.27"/>
</g>
<!-- Node41 -->
<g id="node41" class="node">
<title>Node41</title>
<g id="a_node41"><a xlink:href="classTopResidualDebugOutput.html" target="_top" xlink:title="A class for producing various debug related outputs.">
<polygon fill="white" stroke="#666666" points="1086,-130 937,-130 937,-111 1086,-111 1086,-130"/>
<text text-anchor="middle" x="1011.5" y="-118" font-family="Courier,monospace" font-size="10.00">TopResidualDebugOutput</text>
</a>
</g>
</g>
<!-- Node21&#45;&gt;Node41 -->
<g id="edge40" class="edge">
<title>Node21&#45;&gt;Node41</title>
<path fill="none" stroke="#63b8ff" d="M852.74,-120.5C878.15,-120.5 909.13,-120.5 936.88,-120.5"/>
<polygon fill="#63b8ff" stroke="#63b8ff" points="853,-117 843,-120.5 853,-124 853,-117"/>
</g>
<!-- Node42 -->
<g id="node42" class="node">
<title>Node42</title>
<g id="a_node42"><a xlink:href="classVariableResidualNormsDebugOutput.html" target="_top" xlink:title="A class for producing various debug related outputs.">
<polygon fill="white" stroke="#666666" points="1098,-92.5 925,-92.5 925,-62.5 1098,-62.5 1098,-92.5"/>
<text text-anchor="start" x="933" y="-80.5" font-family="Courier,monospace" font-size="10.00">VariableResidualNormsDebug</text>
<text text-anchor="middle" x="1011.5" y="-69.5" font-family="Courier,monospace" font-size="10.00">Output</text>
</a>
</g>
</g>
<!-- Node21&#45;&gt;Node42 -->
<g id="edge41" class="edge">
<title>Node21&#45;&gt;Node42</title>
<path fill="none" stroke="#63b8ff" d="M852.53,-109.85C877.47,-104.74 907.79,-98.53 935.19,-92.92"/>
<polygon fill="#63b8ff" stroke="#63b8ff" points="852.07,-106.37 842.97,-111.8 853.47,-113.23 852.07,-106.37"/>
</g>
<!-- Node23 -->
<g id="node23" class="node">
<title>Node23</title>
<g id="a_node23"><a xlink:href="classAdvancedOutput.html" target="_top" xlink:title="Based class for output objects.">
<polygon fill="white" stroke="#666666" points="1238,-241 1137,-241 1137,-222 1238,-222 1238,-241"/>
<text text-anchor="middle" x="1187.5" y="-229" font-family="Courier,monospace" font-size="10.00">AdvancedOutput</text>
</a>
</g>
</g>
<!-- Node22&#45;&gt;Node23 -->
<g id="edge22" class="edge">
<title>Node22&#45;&gt;Node23</title>
<path fill="none" stroke="#63b8ff" d="M1043.33,-172.26C1067.72,-183.74 1102.75,-199.8 1134,-212.5 1141.63,-215.6 1149.98,-218.74 1157.74,-221.55"/>
<polygon fill="#63b8ff" stroke="#63b8ff" points="1044.83,-169.1 1034.29,-167.98 1041.84,-175.42 1044.83,-169.1"/>
</g>
<!-- Node37 -->
<g id="node37" class="node">
<title>Node37</title>
<g id="a_node37"><a xlink:href="classCheckpoint.html" target="_top" xlink:title="Writes out three things:">
<polygon fill="white" stroke="#666666" points="1226,-204 1149,-204 1149,-185 1226,-185 1226,-204"/>
<text text-anchor="middle" x="1187.5" y="-192" font-family="Courier,monospace" font-size="10.00">Checkpoint</text>
</a>
</g>
</g>
<!-- Node22&#45;&gt;Node37 -->
<g id="edge36" class="edge">
<title>Node22&#45;&gt;Node37</title>
<path fill="none" stroke="#63b8ff" d="M1061.26,-167.87C1088.88,-173.74 1122.9,-180.98 1148.52,-186.42"/>
<polygon fill="#63b8ff" stroke="#63b8ff" points="1062.25,-164.5 1051.74,-165.84 1060.79,-171.35 1062.25,-164.5"/>
</g>
<!-- Node38 -->
<g id="node38" class="node">
<title>Node38</title>
<g id="a_node38"><a xlink:href="classDOFMapOutput.html" target="_top" xlink:title="An output object for writing the DOF map of the system in a machine parsable format.">
<polygon fill="white" stroke="#666666" points="1232,-167 1143,-167 1143,-148 1232,-148 1232,-167"/>
<text text-anchor="middle" x="1187.5" y="-155" font-family="Courier,monospace" font-size="10.00">DOFMapOutput</text>
</a>
</g>
</g>
<!-- Node22&#45;&gt;Node38 -->
<g id="edge37" class="edge">
<title>Node22&#45;&gt;Node38</title>
<path fill="none" stroke="#63b8ff" d="M1061.55,-157.5C1087.06,-157.5 1117.98,-157.5 1142.68,-157.5"/>
<polygon fill="#63b8ff" stroke="#63b8ff" points="1061.77,-154 1051.77,-157.5 1061.77,-161 1061.77,-154"/>
</g>
<!-- Node39 -->
<g id="node39" class="node">
<title>Node39</title>
<g id="a_node39"><a xlink:href="classPNGOutput.html" target="_top" xlink:title=" ">
<polygon fill="white" stroke="#666666" points="1223,-130 1152,-130 1152,-111 1223,-111 1223,-130"/>
<text text-anchor="middle" x="1187.5" y="-118" font-family="Courier,monospace" font-size="10.00">PNGOutput</text>
</a>
</g>
</g>
<!-- Node22&#45;&gt;Node39 -->
<g id="edge38" class="edge">
<title>Node22&#45;&gt;Node39</title>
<path fill="none" stroke="#63b8ff" d="M1061.31,-147.12C1090.11,-141 1125.86,-133.4 1151.78,-127.88"/>
<polygon fill="#63b8ff" stroke="#63b8ff" points="1060.79,-143.65 1051.74,-149.16 1062.25,-150.5 1060.79,-143.65"/>
</g>
<!-- Node40 -->
<g id="node40" class="node">
<title>Node40</title>
<g id="a_node40"><a xlink:href="classSolutionHistory.html" target="_top" xlink:title="Based class for adding basic filename support to output base class.">
<polygon fill="white" stroke="#666666" points="1241,-93 1134,-93 1134,-74 1241,-74 1241,-93"/>
<text text-anchor="middle" x="1187.5" y="-81" font-family="Courier,monospace" font-size="10.00">SolutionHistory</text>
</a>
</g>
</g>
<!-- Node22&#45;&gt;Node40 -->
<g id="edge39" class="edge">
<title>Node22&#45;&gt;Node40</title>
<path fill="none" stroke="#63b8ff" d="M1061.56,-151.67C1073.98,-148.85 1086.92,-144.68 1098,-138.5 1118.04,-127.32 1114.62,-113.78 1134,-101.5 1138.97,-98.35 1144.54,-95.69 1150.16,-93.45"/>
<polygon fill="#63b8ff" stroke="#63b8ff" points="1060.99,-148.21 1051.87,-153.59 1062.36,-155.08 1060.99,-148.21"/>
</g>
<!-- Node24 -->
<g id="node24" class="node">
<title>Node24</title>
<g id="a_node24"><a xlink:href="classJSONOutput.html" target="_top" xlink:title=" ">
<polygon fill="white" stroke="#666666" points="1372,-315 1295,-315 1295,-296 1372,-296 1372,-315"/>
<text text-anchor="middle" x="1333.5" y="-303" font-family="Courier,monospace" font-size="10.00">JSONOutput</text>
</a>
</g>
</g>
<!-- Node23&#45;&gt;Node24 -->
<g id="edge23" class="edge">
<title>Node23&#45;&gt;Node24</title>
<path fill="none" stroke="#63b8ff" d="M1211.67,-247.93C1229.06,-259.75 1253.77,-275.48 1277,-286.5 1284.09,-289.86 1291.93,-292.92 1299.43,-295.55"/>
<polygon fill="#63b8ff" stroke="#63b8ff" points="1213.81,-245.15 1203.59,-242.35 1209.83,-250.91 1213.81,-245.15"/>
</g>
<!-- Node25 -->
<g id="node25" class="node">
<title>Node25</title>
<g id="a_node25"><a xlink:href="classNemesis.html" target="_top" xlink:title="Class for output data to the Nemesis format.">
<polygon fill="white" stroke="#666666" points="1363,-278 1304,-278 1304,-259 1363,-259 1363,-278"/>
<text text-anchor="middle" x="1333.5" y="-266" font-family="Courier,monospace" font-size="10.00">Nemesis</text>
</a>
</g>
</g>
<!-- Node23&#45;&gt;Node25 -->
<g id="edge24" class="edge">
<title>Node23&#45;&gt;Node25</title>
<path fill="none" stroke="#63b8ff" d="M1238.23,-244.28C1260.15,-249.91 1285.12,-256.33 1303.86,-261.14"/>
<polygon fill="#63b8ff" stroke="#63b8ff" points="1239.11,-240.89 1228.56,-241.79 1237.37,-247.67 1239.11,-240.89"/>
</g>
<!-- Node26 -->
<g id="node26" class="node">
<title>Node26</title>
<g id="a_node26"><a xlink:href="classOversampleOutput.html" target="_top" xlink:title="Based class for providing re&#45;positioning and oversampling support to output objects.">
<polygon fill="white" stroke="#666666" points="1390,-241 1277,-241 1277,-222 1390,-222 1390,-241"/>
<text text-anchor="middle" x="1333.5" y="-229" font-family="Courier,monospace" font-size="10.00">OversampleOutput</text>
</a>
</g>
</g>
<!-- Node23&#45;&gt;Node26 -->
<g id="edge25" class="edge">
<title>Node23&#45;&gt;Node26</title>
<path fill="none" stroke="#63b8ff" d="M1249.97,-231.5C1258.85,-231.5 1267.95,-231.5 1276.72,-231.5"/>
<polygon fill="#63b8ff" stroke="#63b8ff" points="1249.97,-228 1239.97,-231.5 1249.97,-235 1249.97,-228"/>
</g>
<!-- Node32 -->
<g id="node32" class="node">
<title>Node32</title>
<g id="a_node32"><a xlink:href="classTableOutput.html" target="_top" xlink:title="Base class for scalar variables and postprocessors output objects.">
<polygon fill="white" stroke="#666666" points="1375,-167 1292,-167 1292,-148 1375,-148 1375,-167"/>
<text text-anchor="middle" x="1333.5" y="-155" font-family="Courier,monospace" font-size="10.00">TableOutput</text>
</a>
</g>
</g>
<!-- Node23&#45;&gt;Node32 -->
<g id="edge31" class="edge">
<title>Node23&#45;&gt;Node32</title>
<path fill="none" stroke="#63b8ff" d="M1229.87,-217.39C1233.67,-215.83 1237.43,-214.2 1241,-212.5 1269.45,-198.96 1300.46,-179.15 1318.09,-167.37"/>
<polygon fill="#63b8ff" stroke="#63b8ff" points="1228.65,-214.11 1220.58,-220.98 1231.17,-220.64 1228.65,-214.11"/>
</g>
<!-- Node36 -->
<g id="node36" class="node">
<title>Node36</title>
<g id="a_node36"><a xlink:href="classXMLOutput.html" target="_top" xlink:title=" ">
<polygon fill="white" stroke="#666666" points="1369,-130 1298,-130 1298,-111 1369,-111 1369,-130"/>
<text text-anchor="middle" x="1333.5" y="-118" font-family="Courier,monospace" font-size="10.00">XMLOutput</text>
</a>
</g>
</g>
<!-- Node23&#45;&gt;Node36 -->
<g id="edge35" class="edge">
<title>Node23&#45;&gt;Node36</title>
<path fill="none" stroke="#63b8ff" d="M1236.51,-216.07C1238.08,-214.96 1239.59,-213.77 1241,-212.5 1268.19,-188.04 1249.4,-162.5 1277,-138.5 1282.89,-133.38 1290.25,-129.71 1297.67,-127.09"/>
<polygon fill="#63b8ff" stroke="#63b8ff" points="1235.13,-212.82 1228.22,-220.85 1238.63,-218.89 1235.13,-212.82"/>
</g>
<!-- Node27 -->
<g id="node27" class="node">
<title>Node27</title>
<g id="a_node27"><a xlink:href="classExodus.html" target="_top" xlink:title="Class for output data to the ExodusII format.">
<polygon fill="white" stroke="#666666" points="1488,-352 1435,-352 1435,-333 1488,-333 1488,-352"/>
<text text-anchor="middle" x="1461.5" y="-340" font-family="Courier,monospace" font-size="10.00">Exodus</text>
</a>
</g>
</g>
<!-- Node26&#45;&gt;Node27 -->
<g id="edge26" class="edge">
<title>Node26&#45;&gt;Node27</title>
<path fill="none" stroke="#63b8ff" d="M1387.09,-247.16C1388.09,-247.9 1389.07,-248.68 1390,-249.5 1417.84,-273.84 1400.29,-297.92 1426,-324.5 1429.01,-327.61 1432.67,-330.29 1436.46,-332.56"/>
<polygon fill="#63b8ff" stroke="#63b8ff" points="1389.03,-244.24 1378.65,-242.14 1385.46,-250.26 1389.03,-244.24"/>
</g>
<!-- Node28 -->
<g id="node28" class="node">
<title>Node28</title>
<g id="a_node28"><a xlink:href="classGMVOutput.html" target="_top" xlink:title="Class for output data to the GMVOutputII format.">
<polygon fill="white" stroke="#666666" points="1497,-315 1426,-315 1426,-296 1497,-296 1497,-315"/>
<text text-anchor="middle" x="1461.5" y="-303" font-family="Courier,monospace" font-size="10.00">GMVOutput</text>
</a>
</g>
</g>
<!-- Node26&#45;&gt;Node28 -->
<g id="edge27" class="edge">
<title>Node26&#45;&gt;Node28</title>
<path fill="none" stroke="#63b8ff" d="M1383.81,-246.03C1385.94,-247.11 1388.02,-248.27 1390,-249.5 1409.48,-261.62 1407.75,-272.59 1426,-286.5 1430.35,-289.82 1435.35,-292.91 1440.17,-295.61"/>
<polygon fill="#63b8ff" stroke="#63b8ff" points="1385.44,-242.92 1374.88,-242.08 1382.61,-249.32 1385.44,-242.92"/>
</g>
<!-- Node29 -->
<g id="node29" class="node">
<title>Node29</title>
<g id="a_node29"><a xlink:href="classTecplot.html" target="_top" xlink:title="Class for output data to the TecplotII format.">
<polygon fill="white" stroke="#666666" points="1491,-278 1432,-278 1432,-259 1491,-259 1491,-278"/>
<text text-anchor="middle" x="1461.5" y="-266" font-family="Courier,monospace" font-size="10.00">Tecplot</text>
</a>
</g>
</g>
<!-- Node26&#45;&gt;Node29 -->
<g id="edge28" class="edge">
<title>Node26&#45;&gt;Node29</title>
<path fill="none" stroke="#63b8ff" d="M1378.87,-244.53C1396.44,-249.69 1416.13,-255.47 1431.77,-260.06"/>
<polygon fill="#63b8ff" stroke="#63b8ff" points="1380.3,-241.3 1369.72,-241.84 1378.33,-248.02 1380.3,-241.3"/>
</g>
<!-- Node30 -->
<g id="node30" class="node">
<title>Node30</title>
<g id="a_node30"><a xlink:href="classVTKOutput.html" target="_top" xlink:title=" ">
<polygon fill="white" stroke="#666666" points="1497,-241 1426,-241 1426,-222 1497,-222 1497,-241"/>
<text text-anchor="middle" x="1461.5" y="-229" font-family="Courier,monospace" font-size="10.00">VTKOutput</text>
</a>
</g>
</g>
<!-- Node26&#45;&gt;Node30 -->
<g id="edge29" class="edge">
<title>Node26&#45;&gt;Node30</title>
<path fill="none" stroke="#63b8ff" d="M1401.76,-231.5C1410.01,-231.5 1418.17,-231.5 1425.65,-231.5"/>
<polygon fill="#63b8ff" stroke="#63b8ff" points="1402.01,-228 1392.01,-231.5 1402.01,-235 1402.01,-228"/>
</g>
<!-- Node31 -->
<g id="node31" class="node">
<title>Node31</title>
<g id="a_node31"><a xlink:href="classXDA.html" target="_top" xlink:title="Class for output data to the XDAII format.">
<polygon fill="white" stroke="#666666" points="1479,-204 1444,-204 1444,-185 1479,-185 1479,-204"/>
<text text-anchor="middle" x="1461.5" y="-192" font-family="Courier,monospace" font-size="10.00">XDA</text>
</a>
</g>
</g>
<!-- Node26&#45;&gt;Node31 -->
<g id="edge30" class="edge">
<title>Node26&#45;&gt;Node31</title>
<path fill="none" stroke="#63b8ff" d="M1379.23,-218.36C1401.55,-211.81 1427.22,-204.27 1443.64,-199.45"/>
<polygon fill="#63b8ff" stroke="#63b8ff" points="1378.33,-214.98 1369.72,-221.16 1380.3,-221.7 1378.33,-214.98"/>
</g>
<!-- Node33 -->
<g id="node33" class="node">
<title>Node33</title>
<g id="a_node33"><a xlink:href="classCSV.html" target="_top" xlink:title="Based class for adding basic filename support to output base class.">
<polygon fill="white" stroke="#666666" points="1479,-167 1444,-167 1444,-148 1479,-148 1479,-167"/>
<text text-anchor="middle" x="1461.5" y="-155" font-family="Courier,monospace" font-size="10.00">CSV</text>
</a>
</g>
</g>
<!-- Node32&#45;&gt;Node33 -->
<g id="edge32" class="edge">
<title>Node32&#45;&gt;Node33</title>
<path fill="none" stroke="#63b8ff" d="M1386.81,-157.5C1407.15,-157.5 1429.02,-157.5 1443.6,-157.5"/>
<polygon fill="#63b8ff" stroke="#63b8ff" points="1386.92,-154 1376.92,-157.5 1386.92,-161 1386.92,-154"/>
</g>
<!-- Node34 -->
<g id="node34" class="node">
<title>Node34</title>
<g id="a_node34"><a xlink:href="classConsole.html" target="_top" xlink:title="An output object for writing to the console (screen)">
<polygon fill="white" stroke="#666666" points="1491,-130 1432,-130 1432,-111 1491,-111 1491,-130"/>
<text text-anchor="middle" x="1461.5" y="-118" font-family="Courier,monospace" font-size="10.00">Console</text>
</a>
</g>
</g>
<!-- Node32&#45;&gt;Node34 -->
<g id="edge33" class="edge">
<title>Node32&#45;&gt;Node34</title>
<path fill="none" stroke="#63b8ff" d="M1378.87,-144.47C1396.44,-139.31 1416.13,-133.53 1431.77,-128.94"/>
<polygon fill="#63b8ff" stroke="#63b8ff" points="1378.33,-140.98 1369.72,-147.16 1380.3,-147.7 1378.33,-140.98"/>
</g>
<!-- Node35 -->
<g id="node35" class="node">
<title>Node35</title>
<g id="a_node35"><a xlink:href="classGnuplot.html" target="_top" xlink:title="Based class for adding basic filename support to output base class.">
<polygon fill="white" stroke="#666666" points="1491,-93 1432,-93 1432,-74 1491,-74 1491,-93"/>
<text text-anchor="middle" x="1461.5" y="-81" font-family="Courier,monospace" font-size="10.00">Gnuplot</text>
</a>
</g>
</g>
<!-- Node32&#45;&gt;Node35 -->
<g id="edge34" class="edge">
<title>Node32&#45;&gt;Node35</title>
<path fill="none" stroke="#63b8ff" d="M1381.88,-143.03C1384.7,-141.64 1387.43,-140.13 1390,-138.5 1409.38,-126.23 1407.6,-115.2 1426,-101.5 1430.01,-98.51 1434.58,-95.75 1439.06,-93.33"/>
<polygon fill="#63b8ff" stroke="#63b8ff" points="1380.61,-139.77 1372.84,-146.97 1383.4,-146.19 1380.61,-139.77"/>
</g>
</g>
</svg>
        <g id="navigator" transform="translate(0 0)" fill="#404254">
                <rect fill="#f2f5e9" fill-opacity="0.5" stroke="#606060" stroke-width=".5" x="0" y="0" width="60" height="60"/>
                <use id="zoomplus" xlink:href="#zoomPlus" x="17" y="9" onmousedown="handleZoom(evt,'in')"/>
                <use id="zoomminus" xlink:href="#zoomMin" x="42" y="9" onmousedown="handleZoom(evt,'out')"/>
                <use id="reset" xlink:href="#resetDef" x="30" y="36" onmousedown="handleReset()"/>
                <g id="arrowUp" xlink:href="#dirArrow" transform="translate(30 24)" onmousedown="handlePan(0,-1)">
                  <use xlink:href="#rim" fill="#404040">
                        <set attributeName="fill" to="#808080" begin="arrowUp.mouseover" end="arrowUp.mouseout"/>
                  </use>
                  <path fill="none" stroke="white" stroke-width="1.5" d="M0,-3.0v7 M-2.5,-0.5L0,-3.0L2.5,-0.5"/>
                </g>
                <g id="arrowRight" xlink:href="#dirArrow" transform="rotate(90) translate(36 -43)" onmousedown="handlePan(1,0)">
                  <use xlink:href="#rim" fill="#404040">
                        <set attributeName="fill" to="#808080" begin="arrowRight.mouseover" end="arrowRight.mouseout"/>
                  </use>
                  <path fill="none" stroke="white" stroke-width="1.5" d="M0,-3.0v7 M-2.5,-0.5L0,-3.0L2.5,-0.5"/>
                </g>
                <g id="arrowDown" xlink:href="#dirArrow" transform="rotate(180) translate(-30 -48)" onmousedown="handlePan(0,1)">
                  <use xlink:href="#rim" fill="#404040">
                        <set attributeName="fill" to="#808080" begin="arrowDown.mouseover" end="arrowDown.mouseout"/>
                  </use>
                  <path fill="none" stroke="white" stroke-width="1.5" d="M0,-3.0v7 M-2.5,-0.5L0,-3.0L2.5,-0.5"/>
                </g>
                <g id="arrowLeft" xlink:href="#dirArrow" transform="rotate(270) translate(-36 17)" onmousedown="handlePan(-1,0)">
                  <use xlink:href="#rim" fill="#404040">
                        <set attributeName="fill" to="#808080" begin="arrowLeft.mouseover" end="arrowLeft.mouseout"/>
                  </use>
                  <path fill="none" stroke="white" stroke-width="1.5" d="M0,-3.0v7 M-2.5,-0.5L0,-3.0L2.5,-0.5"/>
                </g>
        </g>
        <svg viewBox="0 0 15 15" width="100%" height="30px" preserveAspectRatio="xMaxYMin meet">
         <g id="arrow_out" transform="scale(0.3 0.3)">
          <a xlink:href="classOutput__inherit__graph_org.svg" target="_base">
           <rect id="button" ry="5" rx="5" y="6" x="6" height="38" width="38"
                fill="#f2f5e9" fill-opacity="0.5" stroke="#606060" stroke-width="1.0"/>
           <path id="arrow"
             d="M 11.500037,31.436501 C 11.940474,20.09759 22.043105,11.32322 32.158766,21.979434 L 37.068811,17.246167 C 37.068811,17.246167 37.088388,32 37.088388,32 L 22.160133,31.978069 C 22.160133,31.978069 26.997745,27.140456 26.997745,27.140456 C 18.528582,18.264221 13.291696,25.230495 11.500037,31.436501 z"
             style="fill:#404040;"/>
          </a>
         </g>
        </svg>
</svg>
