<?xml version="1.0" encoding="UTF-8" standalone="no"?>
<!DOCTYPE svg PUBLIC "-//W3C//DTD SVG 1.1//EN"
 "http://www.w3.org/Graphics/SVG/1.1/DTD/svg11.dtd">
<!-- Generated by graphviz version 7.0.5 (20221223.1930)
 -->
<!-- Title: FileRangeBuilder Pages: 1 -->
<svg width="502pt" height="137pt"
 viewBox="0.00 0.00 502.00 137.00" xmlns="http://www.w3.org/2000/svg" xmlns:xlink="http://www.w3.org/1999/xlink">
<g id="graph0" class="graph" transform="scale(1 1) rotate(0) translate(4 133)">
<title>FileRangeBuilder</title>
<!-- Node1 -->
<g id="node1" class="node">
<title>Node1</title>
<g id="a_node1"><a xlink:title="To be called in the validParams functions of classes that need to operate on ranges of files.">
<polygon fill="#999999" stroke="#666666" points="270,-129 157,-129 157,-110 270,-110 270,-129"/>
<text text-anchor="middle" x="213.5" y="-117" font-family="Courier,monospace" font-size="10.00">FileRangeBuilder</text>
</a>
</g>
</g>
<!-- Node2 -->
<g id="node2" class="node">
<title>Node2</title>
<g id="a_node2"><a xlink:href="classImageMesh.html" target="_top" xlink:title="A 2D GeneratedMesh where xmin, xmax, etc.">
<polygon fill="white" stroke="#666666" points="71,-74 0,-74 0,-55 71,-55 71,-74"/>
<text text-anchor="middle" x="35.5" y="-62" font-family="Courier,monospace" font-size="10.00">ImageMesh</text>
</a>
</g>
</g>
<!-- Node1&#45;&gt;Node2 -->
<g id="edge1" class="edge">
<title>Node1&#45;&gt;Node2</title>
<path fill="none" stroke="#63b8ff" d="M172.32,-106.24C139.69,-96.52 94.86,-83.18 65.55,-74.45"/>
<polygon fill="#63b8ff" stroke="#63b8ff" points="171.27,-109.58 181.85,-109.08 173.27,-102.87 171.27,-109.58"/>
</g>
<!-- Node3 -->
<g id="node3" class="node">
<title>Node3</title>
<g id="a_node3"><a xlink:href="classImageMeshGenerator.html" target="_top" xlink:title="A 2D GeneratedMesh where xmin, xmax, etc.">
<polygon fill="white" stroke="#666666" points="214,-74 89,-74 89,-55 214,-55 214,-74"/>
<text text-anchor="middle" x="151.5" y="-62" font-family="Courier,monospace" font-size="10.00">ImageMeshGenerator</text>
</a>
</g>
</g>
<!-- Node1&#45;&gt;Node3 -->
<g id="edge2" class="edge">
<title>Node1&#45;&gt;Node3</title>
<path fill="none" stroke="#63b8ff" d="M194.3,-102.09C183.6,-92.94 170.69,-81.9 161.86,-74.36"/>
<polygon fill="#63b8ff" stroke="#63b8ff" points="191.96,-104.69 201.83,-108.53 196.51,-99.37 191.96,-104.69"/>
</g>
<!-- Node4 -->
<g id="node4" class="node">
<title>Node4</title>
<g id="a_node4"><a xlink:href="classImageSampler.html" target="_top" xlink:title="A helper class for reading and sampling images using VTK.">
<polygon fill="white" stroke="#666666" points="321,-74 232,-74 232,-55 321,-55 321,-74"/>
<text text-anchor="middle" x="276.5" y="-62" font-family="Courier,monospace" font-size="10.00">ImageSampler</text>
</a>
</g>
</g>
<!-- Node1&#45;&gt;Node4 -->
<g id="edge3" class="edge">
<title>Node1&#45;&gt;Node4</title>
<path fill="none" stroke="#63b8ff" d="M232.68,-102.37C243.62,-93.16 256.91,-81.98 265.97,-74.36"/>
<polygon fill="#63b8ff" stroke="#63b8ff" points="230.74,-99.42 225.35,-108.53 235.25,-104.78 230.74,-99.42"/>
</g>
<!-- Node6 -->
<g id="node6" class="node">
<title>Node6</title>
<g id="a_node6"><a xlink:href="classMeshBaseImageSampler.html" target="_top" xlink:title="A helper class for reading and sampling images using VTK, but with a Meshbase object.">
<polygon fill="white" stroke="#666666" points="479,-74 342,-74 342,-55 479,-55 479,-74"/>
<text text-anchor="middle" x="410.5" y="-62" font-family="Courier,monospace" font-size="10.00">MeshBaseImageSampler</text>
</a>
</g>
</g>
<!-- Node1&#45;&gt;Node6 -->
<g id="edge5" class="edge">
<title>Node1&#45;&gt;Node6</title>
<path fill="none" stroke="#63b8ff" d="M257.67,-106.62C293.89,-96.87 344.38,-83.29 377.25,-74.45"/>
<polygon fill="#63b8ff" stroke="#63b8ff" points="257.13,-103.14 248.38,-109.12 258.95,-109.9 257.13,-103.14"/>
</g>
<!-- Node5 -->
<g id="node5" class="node">
<title>Node5</title>
<g id="a_node5"><a xlink:href="classImageFunction.html" target="_top" xlink:title="A function for extracting data from an image or stack of images.">
<polygon fill="white" stroke="#666666" points="321,-19 226,-19 226,0 321,0 321,-19"/>
<text text-anchor="middle" x="273.5" y="-7" font-family="Courier,monospace" font-size="10.00">ImageFunction</text>
</a>
</g>
</g>
<!-- Node4&#45;&gt;Node5 -->
<g id="edge4" class="edge">
<title>Node4&#45;&gt;Node5</title>
<path fill="none" stroke="#63b8ff" d="M275.36,-43.35C274.89,-35.1 274.38,-25.97 274.01,-19.44"/>
<polygon fill="#63b8ff" stroke="#63b8ff" points="271.86,-43.45 275.92,-53.24 278.85,-43.06 271.86,-43.45"/>
</g>
<!-- Node7 -->
<g id="node7" class="node">
<title>Node7</title>
<g id="a_node7"><a xlink:href="classImageSubdomainGenerator.html" target="_top" xlink:title="MeshGenerator for defining a subdomain based on image data.">
<polygon fill="white" stroke="#666666" points="494,-19 339,-19 339,0 494,0 494,-19"/>
<text text-anchor="middle" x="416.5" y="-7" font-family="Courier,monospace" font-size="10.00">ImageSubdomainGenerator</text>
</a>
</g>
</g>
<!-- Node6&#45;&gt;Node7 -->
<g id="edge6" class="edge">
<title>Node6&#45;&gt;Node7</title>
<path fill="none" stroke="#63b8ff" d="M412.78,-43.35C413.72,-35.1 414.75,-25.97 415.49,-19.44"/>
<polygon fill="#63b8ff" stroke="#63b8ff" points="409.31,-42.91 411.66,-53.24 416.26,-43.7 409.31,-42.91"/>
</g>
</g>
</svg>
