<?xml version="1.0" encoding="UTF-8" standalone="no"?>
<!DOCTYPE svg PUBLIC "-//W3C//DTD SVG 1.1//EN"
 "http://www.w3.org/Graphics/SVG/1.1/DTD/svg11.dtd">
<!-- Generated by graphviz version 7.0.5 (20221223.1930)
 -->
<!-- Title: RestartableDataValue Pages: 1 -->
<svg width="527pt" height="189pt"
 viewBox="0.00 0.00 527.00 189.00" xmlns="http://www.w3.org/2000/svg" xmlns:xlink="http://www.w3.org/1999/xlink">
<g id="graph0" class="graph" transform="scale(1 1) rotate(0) translate(4 185)">
<title>RestartableDataValue</title>
<!-- Node1 -->
<g id="node1" class="node">
<title>Node1</title>
<g id="a_node1"><a xlink:title="Abstract definition of a RestartableData value.">
<polygon fill="#999999" stroke="#666666" points="137,-94.5 0,-94.5 0,-75.5 137,-75.5 137,-94.5"/>
<text text-anchor="middle" x="68.5" y="-82.5" font-family="Courier,monospace" font-size="10.00">RestartableDataValue</text>
</a>
</g>
</g>
<!-- Node2 -->
<g id="node2" class="node">
<title>Node2</title>
<g id="a_node2"><a xlink:href="classRestartableData.html" target="_top" xlink:title=" ">
<polygon fill="white" stroke="#666666" points="334,-181 197,-181 197,-151 334,-151 334,-181"/>
<text text-anchor="start" x="205" y="-169" font-family="Courier,monospace" font-size="10.00">RestartableData&lt; std</text>
<text text-anchor="middle" x="265.5" y="-158" font-family="Courier,monospace" font-size="10.00">::list&lt; T &gt; &gt;</text>
</a>
</g>
</g>
<!-- Node1&#45;&gt;Node2 -->
<g id="edge1" class="edge">
<title>Node1&#45;&gt;Node2</title>
<path fill="none" stroke="#63b8ff" d="M94.45,-101.04C114.9,-113.61 144.93,-130.79 173,-142 180.93,-145.17 189.41,-148.04 197.9,-150.6"/>
<polygon fill="#63b8ff" stroke="#63b8ff" points="96.31,-98.07 85.97,-95.74 92.6,-104.01 96.31,-98.07"/>
</g>
<!-- Node4 -->
<g id="node4" class="node">
<title>Node4</title>
<g id="a_node4"><a xlink:href="classRestartableData.html" target="_top" xlink:title=" ">
<polygon fill="white" stroke="#666666" points="334,-132.5 197,-132.5 197,-91.5 334,-91.5 334,-132.5"/>
<text text-anchor="start" x="205" y="-120.5" font-family="Courier,monospace" font-size="10.00">RestartableData&lt; std</text>
<text text-anchor="start" x="205" y="-109.5" font-family="Courier,monospace" font-size="10.00">::list&lt; std::vector&lt;</text>
<text text-anchor="middle" x="265.5" y="-98.5" font-family="Courier,monospace" font-size="10.00"> T &gt; &gt; &gt;</text>
</a>
</g>
</g>
<!-- Node1&#45;&gt;Node4 -->
<g id="edge3" class="edge">
<title>Node1&#45;&gt;Node4</title>
<path fill="none" stroke="#63b8ff" d="M148.4,-95.93C164.45,-98.15 181.2,-100.47 196.82,-102.63"/>
<polygon fill="#63b8ff" stroke="#63b8ff" points="149.31,-92.52 138.93,-94.61 148.35,-99.45 149.31,-92.52"/>
</g>
<!-- Node5 -->
<g id="node5" class="node">
<title>Node5</title>
<g id="a_node5"><a xlink:href="classRestartableData.html" target="_top" xlink:title=" ">
<polygon fill="white" stroke="#666666" points="358,-73 173,-73 173,-43 358,-43 358,-73"/>
<text text-anchor="start" x="181" y="-61" font-family="Courier,monospace" font-size="10.00">RestartableData&lt; Restartable</text>
<text text-anchor="middle" x="265.5" y="-50" font-family="Courier,monospace" font-size="10.00">EquationSystems &gt;</text>
</a>
</g>
</g>
<!-- Node1&#45;&gt;Node5 -->
<g id="edge4" class="edge">
<title>Node1&#45;&gt;Node5</title>
<path fill="none" stroke="#63b8ff" d="M148.57,-74.05C156.55,-72.95 164.71,-71.82 172.8,-70.7"/>
<polygon fill="#63b8ff" stroke="#63b8ff" points="148.35,-70.55 138.93,-75.39 149.31,-77.48 148.35,-70.55"/>
</g>
<!-- Node6 -->
<g id="node6" class="node">
<title>Node6</title>
<g id="a_node6"><a xlink:href="classRestartableData.html" target="_top" xlink:title="Concrete definition of a parameter value for a specified type.">
<polygon fill="white" stroke="#666666" points="334,-24.5 197,-24.5 197,-5.5 334,-5.5 334,-24.5"/>
<text text-anchor="middle" x="265.5" y="-12.5" font-family="Courier,monospace" font-size="10.00">RestartableData&lt; T &gt;</text>
</a>
</g>
</g>
<!-- Node1&#45;&gt;Node6 -->
<g id="edge5" class="edge">
<title>Node1&#45;&gt;Node6</title>
<path fill="none" stroke="#63b8ff" d="M95.97,-69.62C116.42,-58.33 145.74,-43.38 173,-34 183.28,-30.46 194.45,-27.48 205.33,-25"/>
<polygon fill="#63b8ff" stroke="#63b8ff" points="94.47,-66.45 87.46,-74.41 97.9,-72.56 94.47,-66.45"/>
</g>
<!-- Node3 -->
<g id="node3" class="node">
<title>Node3</title>
<g id="a_node3"><a xlink:href="classReporterState.html" target="_top" xlink:title="A special version of RestartableData to aid in storing Reporter values.">
<polygon fill="white" stroke="#666666" points="519,-175.5 394,-175.5 394,-156.5 519,-156.5 519,-175.5"/>
<text text-anchor="middle" x="456.5" y="-163.5" font-family="Courier,monospace" font-size="10.00">ReporterState&lt; T &gt;</text>
</a>
</g>
</g>
<!-- Node2&#45;&gt;Node3 -->
<g id="edge2" class="edge">
<title>Node2&#45;&gt;Node3</title>
<path fill="none" stroke="#63b8ff" d="M345.97,-166C361.95,-166 378.52,-166 393.79,-166"/>
<polygon fill="#63b8ff" stroke="#63b8ff" points="345.98,-162.5 335.98,-166 345.98,-169.5 345.98,-162.5"/>
</g>
<!-- Node7 -->
<g id="node7" class="node">
<title>Node7</title>
<g id="a_node7"><a xlink:href="classReporterState.html" target="_top" xlink:title=" ">
<polygon fill="white" stroke="#666666" points="519,-30 394,-30 394,0 519,0 519,-30"/>
<text text-anchor="start" x="402" y="-18" font-family="Courier,monospace" font-size="10.00">ReporterState&lt; std</text>
<text text-anchor="middle" x="456.5" y="-7" font-family="Courier,monospace" font-size="10.00">::vector&lt; T &gt; &gt;</text>
</a>
</g>
</g>
<!-- Node6&#45;&gt;Node7 -->
<g id="edge6" class="edge">
<title>Node6&#45;&gt;Node7</title>
<path fill="none" stroke="#63b8ff" d="M345.97,-15C361.95,-15 378.52,-15 393.79,-15"/>
<polygon fill="#63b8ff" stroke="#63b8ff" points="345.98,-11.5 335.98,-15 345.98,-18.5 345.98,-11.5"/>
</g>
</g>
</svg>
