<?xml version="1.0" encoding="UTF-8" standalone="no"?>
<!DOCTYPE svg PUBLIC "-//W3C//DTD SVG 1.1//EN"
 "http://www.w3.org/Graphics/SVG/1.1/DTD/svg11.dtd">
<!-- Generated by graphviz version 7.0.5 (20221223.1930)
 -->
<!-- Title: NeighborMooseVariableInterface&lt; T &gt; Pages: 1 -->
<!--zoomable 470 -->
<svg id="main" version="1.1" xmlns="http://www.w3.org/2000/svg" xmlns:xlink="http://www.w3.org/1999/xlink" xml:space="preserve" onload="init(evt)">
<style type="text/css"><![CDATA[
.edge:hover path { stroke: red; }
.edge:hover polygon { stroke: red; fill: red; }
]]></style>
<script type="text/javascript"><![CDATA[
var edges = document.getElementsByTagName('g');
if (edges && edges.length) {
  for (var i=0;i<edges.length;i++) {
    if (edges[i].id.substr(0,4)=='edge') {
      edges[i].setAttribute('class','edge');
    }
  }
}
]]></script>
        <defs>
                <circle id="rim" cx="0" cy="0" r="7"/>
                <circle id="rim2" cx="0" cy="0" r="3.5"/>
                <g id="zoomPlus">
                        <use xlink:href="#rim" fill="#404040">
                                <set attributeName="fill" to="#808080" begin="zoomplus.mouseover" end="zoomplus.mouseout"/>
                        </use>
                        <path d="M-4,0h8M0,-4v8" fill="none" stroke="white" stroke-width="1.5" pointer-events="none"/>
                </g>
                <g id="zoomMin">
                        <use xlink:href="#rim" fill="#404040">
                                <set attributeName="fill" to="#808080" begin="zoomminus.mouseover" end="zoomminus.mouseout"/>
                        </use>
                        <path d="M-4,0h8" fill="none" stroke="white" stroke-width="1.5" pointer-events="none"/>
                </g>
                <g id="dirArrow">
                        <path fill="none" stroke="white" stroke-width="1.5" d="M0,-3.0v7 M-2.5,-0.5L0,-3.0L2.5,-0.5"/>
                </g>
               <g id="resetDef">
                       <use xlink:href="#rim2" fill="#404040">
                               <set attributeName="fill" to="#808080" begin="reset.mouseover" end="reset.mouseout"/>
                       </use>
               </g>
        </defs>

<script type="text/javascript">
var viewWidth = 1101;
var viewHeight = 470;
var sectionId = 'dynsection-0';
</script>
<script xlink:href="svgpan.js"/>
<svg id="graph" class="graph">
<g id="viewport">
<title>NeighborMooseVariableInterface&lt; T &gt;</title>
<!-- Node1 -->
<g id="node1" class="node">
<title>Node1</title>
<g id="a_node1"><a xlink:title="Enhances MooseVariableInterface interface provide values from neighbor elements.">
<polygon fill="#999999" stroke="#666666" points="442,-216.5 215,-216.5 215,-197.5 442,-197.5 442,-216.5"/>
<text text-anchor="middle" x="328.5" y="-204.5" font-family="Courier,monospace" font-size="10.00">NeighborMooseVariableInterface&lt; T &gt;</text>
</a>
</g>
</g>
<!-- Node3 -->
<g id="node3" class="node">
<title>Node3</title>
<g id="a_node3"><a xlink:href="classADInterfaceKernelTempl.html" target="_top" xlink:title="ADInterfaceKernel and ADVectorInterfaceKernel is responsible for interfacing physics across subdomain...">
<polygon fill="white" stroke="#666666" points="657,-336.5 478,-336.5 478,-317.5 657,-317.5 657,-336.5"/>
<text text-anchor="middle" x="567.5" y="-324.5" font-family="Courier,monospace" font-size="10.00">ADInterfaceKernelTempl&lt; T &gt;</text>
</a>
</g>
</g>
<!-- Node1&#45;&gt;Node3 -->
<g id="edge2" class="edge">
<title>Node1&#45;&gt;Node3</title>
<path fill="none" stroke="#63b8ff" d="M358.87,-221.87C407.91,-246.7 505.19,-295.96 546.84,-317.04"/>
<polygon fill="#63b8ff" stroke="#63b8ff" points="360.75,-218.9 350.25,-217.5 357.59,-225.14 360.75,-218.9"/>
</g>
<!-- Node9 -->
<g id="node9" class="node">
<title>Node9</title>
<g id="a_node9"><a xlink:href="classInterfaceKernelTempl.html" target="_top" xlink:title="InterfaceKernel and VectorInterfaceKernel is responsible for interfacing physics across subdomains.">
<polygon fill="white" stroke="#666666" points="651,-144.5 484,-144.5 484,-125.5 651,-125.5 651,-144.5"/>
<text text-anchor="middle" x="567.5" y="-132.5" font-family="Courier,monospace" font-size="10.00">InterfaceKernelTempl&lt; T &gt;</text>
</a>
</g>
</g>
<!-- Node1&#45;&gt;Node9 -->
<g id="edge8" class="edge">
<title>Node1&#45;&gt;Node9</title>
<path fill="none" stroke="#63b8ff" d="M372.87,-193.83C419.26,-179.73 491.8,-157.69 533.67,-144.97"/>
<polygon fill="#63b8ff" stroke="#63b8ff" points="371.96,-190.44 363.41,-196.7 373.99,-197.14 371.96,-190.44"/>
</g>
<!-- Node2 -->
<g id="node2" class="node">
<title>Node2</title>
<g id="a_node2"><a xlink:href="classMooseVariableInterface.html" target="_top" xlink:title="Interface for objects that need to get values of MooseVariables.">
<polygon fill="white" stroke="#666666" points="179,-216.5 0,-216.5 0,-197.5 179,-197.5 179,-216.5"/>
<text text-anchor="middle" x="89.5" y="-204.5" font-family="Courier,monospace" font-size="10.00">MooseVariableInterface&lt; T &gt;</text>
</a>
</g>
</g>
<!-- Node2&#45;&gt;Node1 -->
<g id="edge1" class="edge">
<title>Node2&#45;&gt;Node1</title>
<path fill="none" stroke="#63b8ff" d="M190.91,-207C198.82,-207 206.84,-207 214.82,-207"/>
<polygon fill="#63b8ff" stroke="#63b8ff" points="190.94,-203.5 180.94,-207 190.94,-210.5 190.94,-203.5"/>
</g>
<!-- Node4 -->
<g id="node4" class="node">
<title>Node4</title>
<g id="a_node4"><a xlink:href="classGenericInterfaceKernelTempl_3_01T_00_01true_01_4.html" target="_top" xlink:title=" ">
<polygon fill="white" stroke="#666666" points="881,-462 702,-462 702,-432 881,-432 881,-462"/>
<text text-anchor="start" x="710" y="-450" font-family="Courier,monospace" font-size="10.00">GenericInterfaceKernelTempl</text>
<text text-anchor="middle" x="791.5" y="-439" font-family="Courier,monospace" font-size="10.00">&lt; T, true &gt;</text>
</a>
</g>
</g>
<!-- Node3&#45;&gt;Node4 -->
<g id="edge3" class="edge">
<title>Node3&#45;&gt;Node4</title>
<path fill="none" stroke="#63b8ff" d="M586.2,-344.59C608.97,-366.23 650.67,-402.6 693,-423 699.75,-426.25 706.99,-429.09 714.35,-431.56"/>
<polygon fill="#63b8ff" stroke="#63b8ff" points="588.88,-342.31 579.26,-337.87 584.01,-347.34 588.88,-342.31"/>
</g>
<!-- Node5 -->
<g id="node5" class="node">
<title>Node5</title>
<g id="a_node5"><a xlink:href="classHphiRadialInterface.html" target="_top" xlink:title="DG kernel for interfacing diffusion between two variables on adjacent blocks.">
<polygon fill="white" stroke="#666666" points="857,-414 726,-414 726,-384 857,-384 857,-414"/>
<text text-anchor="start" x="734" y="-402" font-family="Courier,monospace" font-size="10.00">HphiRadialInterface</text>
<text text-anchor="middle" x="791.5" y="-391" font-family="Courier,monospace" font-size="10.00">&lt; Real &gt;</text>
</a>
</g>
</g>
<!-- Node3&#45;&gt;Node5 -->
<g id="edge4" class="edge">
<title>Node3&#45;&gt;Node5</title>
<path fill="none" stroke="#63b8ff" d="M601.92,-341.21C626.75,-351.45 661.62,-365.13 693,-375 703.48,-378.29 714.7,-381.42 725.67,-384.26"/>
<polygon fill="#63b8ff" stroke="#63b8ff" points="603.57,-338.11 592.99,-337.5 600.88,-344.57 603.57,-338.11"/>
</g>
<!-- Node6 -->
<g id="node6" class="node">
<title>Node6</title>
<g id="a_node6"><a xlink:href="classInterfaceAdvection.html" target="_top" xlink:title="DG kernel for interfacing advection on adjacent blocks.">
<polygon fill="white" stroke="#666666" points="854,-366 729,-366 729,-336 854,-336 854,-366"/>
<text text-anchor="start" x="737" y="-354" font-family="Courier,monospace" font-size="10.00">InterfaceAdvection</text>
<text text-anchor="middle" x="791.5" y="-343" font-family="Courier,monospace" font-size="10.00">&lt; Real &gt;</text>
</a>
</g>
</g>
<!-- Node3&#45;&gt;Node6 -->
<g id="edge5" class="edge">
<title>Node3&#45;&gt;Node6</title>
<path fill="none" stroke="#63b8ff" d="M668.49,-337.81C688.95,-340.02 709.92,-342.29 728.57,-344.3"/>
<polygon fill="#63b8ff" stroke="#63b8ff" points="669.02,-334.35 658.7,-336.75 668.27,-341.31 669.02,-334.35"/>
</g>
<!-- Node7 -->
<g id="node7" class="node">
<title>Node7</title>
<g id="a_node7"><a xlink:href="classInterfaceLogDiffusionElectrons.html" target="_top" xlink:title="DG kernel for interfacing diffusion between two variables on adjacent blocks.">
<polygon fill="white" stroke="#666666" points="890,-318 693,-318 693,-288 890,-288 890,-318"/>
<text text-anchor="start" x="701" y="-306" font-family="Courier,monospace" font-size="10.00">InterfaceLogDiffusionElectrons</text>
<text text-anchor="middle" x="791.5" y="-295" font-family="Courier,monospace" font-size="10.00">&lt; Real &gt;</text>
</a>
</g>
</g>
<!-- Node3&#45;&gt;Node7 -->
<g id="edge6" class="edge">
<title>Node3&#45;&gt;Node7</title>
<path fill="none" stroke="#63b8ff" d="M668.54,-316.18C676.62,-315.31 684.77,-314.43 692.83,-313.56"/>
<polygon fill="#63b8ff" stroke="#63b8ff" points="668.27,-312.69 658.7,-317.25 669.02,-319.65 668.27,-312.69"/>
</g>
<!-- Node8 -->
<g id="node8" class="node">
<title>Node8</title>
<g id="a_node8"><a xlink:href="classPotentialSurfaceCharge.html" target="_top" xlink:title="InterfaceKernel for enforcing a dielectric boundary condition on a potential variable,...">
<polygon fill="white" stroke="#666666" points="866,-270 717,-270 717,-240 866,-240 866,-270"/>
<text text-anchor="start" x="725" y="-258" font-family="Courier,monospace" font-size="10.00">PotentialSurfaceCharge</text>
<text text-anchor="middle" x="791.5" y="-247" font-family="Courier,monospace" font-size="10.00">&lt; Real &gt;</text>
</a>
</g>
</g>
<!-- Node3&#45;&gt;Node8 -->
<g id="edge7" class="edge">
<title>Node3&#45;&gt;Node8</title>
<path fill="none" stroke="#63b8ff" d="M601.92,-312.79C626.75,-302.55 661.62,-288.87 693,-279 702.56,-275.99 712.75,-273.13 722.79,-270.49"/>
<polygon fill="#63b8ff" stroke="#63b8ff" points="600.88,-309.43 592.99,-316.5 603.57,-315.89 600.88,-309.43"/>
</g>
<!-- Node10 -->
<g id="node10" class="node">
<title>Node10</title>
<g id="a_node10"><a xlink:href="classGenericInterfaceKernelTempl.html" target="_top" xlink:title=" ">
<polygon fill="white" stroke="#666666" points="881,-222 702,-222 702,-192 881,-192 881,-222"/>
<text text-anchor="start" x="710" y="-210" font-family="Courier,monospace" font-size="10.00">GenericInterfaceKernelTempl</text>
<text text-anchor="middle" x="791.5" y="-199" font-family="Courier,monospace" font-size="10.00">&lt; T, is_ad &gt;</text>
</a>
</g>
</g>
<!-- Node9&#45;&gt;Node10 -->
<g id="edge9" class="edge">
<title>Node9&#45;&gt;Node10</title>
<path fill="none" stroke="#63b8ff" d="M601.92,-149.21C626.75,-159.45 661.62,-173.13 693,-183 702.56,-186.01 712.75,-188.87 722.79,-191.51"/>
<polygon fill="#63b8ff" stroke="#63b8ff" points="603.57,-146.11 592.99,-145.5 600.88,-152.57 603.57,-146.11"/>
</g>
<!-- Node12 -->
<g id="node12" class="node">
<title>Node12</title>
<g id="a_node12"><a xlink:href="classInterTemperatureAdvection.html" target="_top" xlink:title=" ">
<polygon fill="white" stroke="#666666" points="875,-174 708,-174 708,-144 875,-144 875,-174"/>
<text text-anchor="start" x="716" y="-162" font-family="Courier,monospace" font-size="10.00">InterTemperatureAdvection</text>
<text text-anchor="middle" x="791.5" y="-151" font-family="Courier,monospace" font-size="10.00">&lt; Real &gt;</text>
</a>
</g>
</g>
<!-- Node9&#45;&gt;Node12 -->
<g id="edge11" class="edge">
<title>Node9&#45;&gt;Node12</title>
<path fill="none" stroke="#63b8ff" d="M662.78,-145.19C677.68,-146.8 693,-148.46 707.62,-150.04"/>
<polygon fill="#63b8ff" stroke="#63b8ff" points="663.3,-141.73 652.99,-144.13 662.55,-148.69 663.3,-141.73"/>
</g>
<!-- Node13 -->
<g id="node13" class="node">
<title>Node13</title>
<g id="a_node13"><a xlink:href="classInterfaceDiffusion.html" target="_top" xlink:title="DG kernel for interfacing diffusion between two variables on adjacent blocks.">
<polygon fill="white" stroke="#666666" points="854,-126 729,-126 729,-96 854,-96 854,-126"/>
<text text-anchor="start" x="737" y="-114" font-family="Courier,monospace" font-size="10.00">InterfaceDiffusion</text>
<text text-anchor="middle" x="791.5" y="-103" font-family="Courier,monospace" font-size="10.00">&lt; Real &gt;</text>
</a>
</g>
</g>
<!-- Node9&#45;&gt;Node13 -->
<g id="edge12" class="edge">
<title>Node9&#45;&gt;Node13</title>
<path fill="none" stroke="#63b8ff" d="M662.7,-124.82C685.04,-122.4 708.3,-119.89 728.76,-117.67"/>
<polygon fill="#63b8ff" stroke="#63b8ff" points="662.55,-121.31 652.99,-125.87 663.3,-128.27 662.55,-121.31"/>
</g>
<!-- Node14 -->
<g id="node14" class="node">
<title>Node14</title>
<g id="a_node14"><a xlink:href="classInterfaceReaction.html" target="_top" xlink:title="Implements a reaction to establish ReactionRate=k_f*u&#45;k_b*v at interface.">
<polygon fill="white" stroke="#666666" points="854,-78 729,-78 729,-48 854,-48 854,-78"/>
<text text-anchor="start" x="737" y="-66" font-family="Courier,monospace" font-size="10.00">InterfaceReaction&lt;</text>
<text text-anchor="middle" x="791.5" y="-55" font-family="Courier,monospace" font-size="10.00"> Real &gt;</text>
</a>
</g>
</g>
<!-- Node9&#45;&gt;Node14 -->
<g id="edge13" class="edge">
<title>Node9&#45;&gt;Node14</title>
<path fill="none" stroke="#63b8ff" d="M601.92,-120.79C626.75,-110.55 661.62,-96.87 693,-87 704.39,-83.42 716.67,-80.03 728.54,-77"/>
<polygon fill="#63b8ff" stroke="#63b8ff" points="600.88,-117.43 592.99,-124.5 603.57,-123.89 600.88,-117.43"/>
</g>
<!-- Node15 -->
<g id="node15" class="node">
<title>Node15</title>
<g id="a_node15"><a xlink:href="classInterfaceTimeKernel.html" target="_top" xlink:title="InterfaceTimeKernel is responsible for adding time derivative contributions for physics across interf...">
<polygon fill="white" stroke="#666666" points="857,-30 726,-30 726,0 857,0 857,-30"/>
<text text-anchor="start" x="734" y="-18" font-family="Courier,monospace" font-size="10.00">InterfaceTimeKernel</text>
<text text-anchor="middle" x="791.5" y="-7" font-family="Courier,monospace" font-size="10.00">&lt; Real &gt;</text>
</a>
</g>
</g>
<!-- Node9&#45;&gt;Node15 -->
<g id="edge14" class="edge">
<title>Node9&#45;&gt;Node15</title>
<path fill="none" stroke="#63b8ff" d="M586.2,-117.41C608.97,-95.77 650.67,-59.4 693,-39 703.21,-34.08 714.52,-30.11 725.71,-26.93"/>
<polygon fill="#63b8ff" stroke="#63b8ff" points="584.01,-114.66 579.26,-124.13 588.88,-119.69 584.01,-114.66"/>
</g>
<!-- Node11 -->
<g id="node11" class="node">
<title>Node11</title>
<g id="a_node11"><a xlink:href="classPenaltyInterfaceDiffusionTempl.html" target="_top" xlink:title="Interface kernel for interfacing diffusion between two variables on adjacent blocks.">
<polygon fill="white" stroke="#666666" points="1093,-222 926,-222 926,-192 1093,-192 1093,-222"/>
<text text-anchor="start" x="934" y="-210" font-family="Courier,monospace" font-size="10.00">PenaltyInterfaceDiffusion</text>
<text text-anchor="middle" x="1009.5" y="-199" font-family="Courier,monospace" font-size="10.00">Templ&lt; T, is_ad &gt;</text>
</a>
</g>
</g>
<!-- Node10&#45;&gt;Node11 -->
<g id="edge10" class="edge">
<title>Node10&#45;&gt;Node11</title>
<path fill="none" stroke="#63b8ff" d="M892.71,-207C903.72,-207 914.84,-207 925.61,-207"/>
<polygon fill="#63b8ff" stroke="#63b8ff" points="892.8,-203.5 882.8,-207 892.8,-210.5 892.8,-203.5"/>
</g>
</g>
</svg>
        <g id="navigator" transform="translate(0 0)" fill="#404254">
                <rect fill="#f2f5e9" fill-opacity="0.5" stroke="#606060" stroke-width=".5" x="0" y="0" width="60" height="60"/>
                <use id="zoomplus" xlink:href="#zoomPlus" x="17" y="9" onmousedown="handleZoom(evt,'in')"/>
                <use id="zoomminus" xlink:href="#zoomMin" x="42" y="9" onmousedown="handleZoom(evt,'out')"/>
                <use id="reset" xlink:href="#resetDef" x="30" y="36" onmousedown="handleReset()"/>
                <g id="arrowUp" xlink:href="#dirArrow" transform="translate(30 24)" onmousedown="handlePan(0,-1)">
                  <use xlink:href="#rim" fill="#404040">
                        <set attributeName="fill" to="#808080" begin="arrowUp.mouseover" end="arrowUp.mouseout"/>
                  </use>
                  <path fill="none" stroke="white" stroke-width="1.5" d="M0,-3.0v7 M-2.5,-0.5L0,-3.0L2.5,-0.5"/>
                </g>
                <g id="arrowRight" xlink:href="#dirArrow" transform="rotate(90) translate(36 -43)" onmousedown="handlePan(1,0)">
                  <use xlink:href="#rim" fill="#404040">
                        <set attributeName="fill" to="#808080" begin="arrowRight.mouseover" end="arrowRight.mouseout"/>
                  </use>
                  <path fill="none" stroke="white" stroke-width="1.5" d="M0,-3.0v7 M-2.5,-0.5L0,-3.0L2.5,-0.5"/>
                </g>
                <g id="arrowDown" xlink:href="#dirArrow" transform="rotate(180) translate(-30 -48)" onmousedown="handlePan(0,1)">
                  <use xlink:href="#rim" fill="#404040">
                        <set attributeName="fill" to="#808080" begin="arrowDown.mouseover" end="arrowDown.mouseout"/>
                  </use>
                  <path fill="none" stroke="white" stroke-width="1.5" d="M0,-3.0v7 M-2.5,-0.5L0,-3.0L2.5,-0.5"/>
                </g>
                <g id="arrowLeft" xlink:href="#dirArrow" transform="rotate(270) translate(-36 17)" onmousedown="handlePan(-1,0)">
                  <use xlink:href="#rim" fill="#404040">
                        <set attributeName="fill" to="#808080" begin="arrowLeft.mouseover" end="arrowLeft.mouseout"/>
                  </use>
                  <path fill="none" stroke="white" stroke-width="1.5" d="M0,-3.0v7 M-2.5,-0.5L0,-3.0L2.5,-0.5"/>
                </g>
        </g>
        <svg viewBox="0 0 15 15" width="100%" height="30px" preserveAspectRatio="xMaxYMin meet">
         <g id="arrow_out" transform="scale(0.3 0.3)">
          <a xlink:href="classNeighborMooseVariableInterface__inherit__graph_org.svg" target="_base">
           <rect id="button" ry="5" rx="5" y="6" x="6" height="38" width="38"
                fill="#f2f5e9" fill-opacity="0.5" stroke="#606060" stroke-width="1.0"/>
           <path id="arrow"
             d="M 11.500037,31.436501 C 11.940474,20.09759 22.043105,11.32322 32.158766,21.979434 L 37.068811,17.246167 C 37.068811,17.246167 37.088388,32 37.088388,32 L 22.160133,31.978069 C 22.160133,31.978069 26.997745,27.140456 26.997745,27.140456 C 18.528582,18.264221 13.291696,25.230495 11.500037,31.436501 z"
             style="fill:#404040;"/>
          </a>
         </g>
        </svg>
</svg>
