<?xml version="1.0" encoding="UTF-8" standalone="no"?>
<!DOCTYPE svg PUBLIC "-//W3C//DTD SVG 1.1//EN"
 "http://www.w3.org/Graphics/SVG/1.1/DTD/svg11.dtd">
<!-- Generated by graphviz version 7.0.5 (20221223.1930)
 -->
<!-- Title: SideIntegralPostprocessor Pages: 1 -->
<svg width="2026pt" height="982pt"
 viewBox="0.00 0.00 2026.00 982.00" xmlns="http://www.w3.org/2000/svg" xmlns:xlink="http://www.w3.org/1999/xlink">
<g id="graph0" class="graph" transform="scale(1 1) rotate(0) translate(4 978)">
<title>SideIntegralPostprocessor</title>
<!-- Node1 -->
<g id="node1" class="node">
<title>Node1</title>
<g id="a_node1"><a xlink:title="This postprocessor computes a surface integral of the specified variable on a sideset on the boundary...">
<polygon fill="#999999" stroke="#666666" points="1325,-271 1158,-271 1158,-252 1325,-252 1325,-271"/>
<text text-anchor="middle" x="1241.5" y="-259" font-family="Courier,monospace" font-size="10.00">SideIntegralPostprocessor</text>
</a>
</g>
</g>
<!-- Node40 -->
<g id="node40" class="node">
<title>Node40</title>
<g id="a_node40"><a xlink:href="classAreaPostprocessor.html" target="_top" xlink:title="This postprocessor computes the area of a specified block.">
<polygon fill="white" stroke="#666666" points="1528,-375 1409,-375 1409,-356 1528,-356 1528,-375"/>
<text text-anchor="middle" x="1468.5" y="-363" font-family="Courier,monospace" font-size="10.00">AreaPostprocessor</text>
</a>
</g>
</g>
<!-- Node1&#45;&gt;Node40 -->
<g id="edge39" class="edge">
<title>Node1&#45;&gt;Node40</title>
<path fill="none" stroke="#63b8ff" d="M1260.92,-279.14C1282.9,-299.09 1321.63,-330.96 1361,-347.5 1375.87,-353.74 1392.77,-357.82 1408.65,-360.49"/>
<polygon fill="#63b8ff" stroke="#63b8ff" points="1263.4,-276.66 1253.69,-272.42 1258.64,-281.79 1263.4,-276.66"/>
</g>
<!-- Node41 -->
<g id="node41" class="node">
<title>Node41</title>
<g id="a_node41"><a xlink:href="classFunctionSideIntegral.html" target="_top" xlink:title="This postprocessor computes the integral of a function over a specified boundary.">
<polygon fill="white" stroke="#666666" points="1537,-338 1400,-338 1400,-319 1537,-319 1537,-338"/>
<text text-anchor="middle" x="1468.5" y="-326" font-family="Courier,monospace" font-size="10.00">FunctionSideIntegral</text>
</a>
</g>
</g>
<!-- Node1&#45;&gt;Node41 -->
<g id="edge40" class="edge">
<title>Node1&#45;&gt;Node41</title>
<path fill="none" stroke="#63b8ff" d="M1273.41,-276.09C1296.96,-286.7 1330.44,-300.69 1361,-309.5 1373.36,-313.06 1386.73,-316.08 1399.69,-318.59"/>
<polygon fill="#63b8ff" stroke="#63b8ff" points="1274.94,-272.95 1264.39,-271.97 1272.03,-279.31 1274.94,-272.95"/>
</g>
<!-- Node43 -->
<g id="node43" class="node">
<title>Node43</title>
<g id="a_node43"><a xlink:href="classSideAdvectiveFluxIntegralTempl.html" target="_top" xlink:title="This postprocessor computes a side integral of the mass flux.">
<polygon fill="white" stroke="#666666" points="1552,-300.5 1385,-300.5 1385,-270.5 1552,-270.5 1552,-300.5"/>
<text text-anchor="start" x="1393" y="-288.5" font-family="Courier,monospace" font-size="10.00">SideAdvectiveFluxIntegral</text>
<text text-anchor="middle" x="1468.5" y="-277.5" font-family="Courier,monospace" font-size="10.00">Templ&lt; is_ad &gt;</text>
</a>
</g>
</g>
<!-- Node1&#45;&gt;Node43 -->
<g id="edge42" class="edge">
<title>Node1&#45;&gt;Node43</title>
<path fill="none" stroke="#63b8ff" d="M1336.37,-271.51C1352.46,-273.23 1369.08,-275 1384.85,-276.68"/>
<polygon fill="#63b8ff" stroke="#63b8ff" points="1337.14,-268.08 1326.83,-270.5 1336.4,-275.04 1337.14,-268.08"/>
</g>
<!-- Node44 -->
<g id="node44" class="node">
<title>Node44</title>
<g id="a_node44"><a xlink:href="classSideIntegralFunctorPostprocessorTempl.html" target="_top" xlink:title="This postprocessor computes a surface integral of the specified functor.">
<polygon fill="white" stroke="#666666" points="1573,-252.5 1364,-252.5 1364,-222.5 1573,-222.5 1573,-252.5"/>
<text text-anchor="start" x="1372" y="-240.5" font-family="Courier,monospace" font-size="10.00">SideIntegralFunctorPostprocessor</text>
<text text-anchor="middle" x="1468.5" y="-229.5" font-family="Courier,monospace" font-size="10.00">Templ&lt; is_ad &gt;</text>
</a>
</g>
</g>
<!-- Node1&#45;&gt;Node44 -->
<g id="edge43" class="edge">
<title>Node1&#45;&gt;Node44</title>
<path fill="none" stroke="#63b8ff" d="M1336.6,-251.46C1345.59,-250.5 1354.74,-249.53 1363.82,-248.56"/>
<polygon fill="#63b8ff" stroke="#63b8ff" points="1336.4,-247.96 1326.83,-252.5 1337.14,-254.92 1336.4,-247.96"/>
</g>
<!-- Node45 -->
<g id="node45" class="node">
<title>Node45</title>
<g id="a_node45"><a xlink:href="classSideIntegralMaterialPropertyTempl.html" target="_top" xlink:title="Computes the integral of a material property over a side set.">
<polygon fill="white" stroke="#666666" points="1561,-204.5 1376,-204.5 1376,-174.5 1561,-174.5 1561,-204.5"/>
<text text-anchor="start" x="1384" y="-192.5" font-family="Courier,monospace" font-size="10.00">SideIntegralMaterialProperty</text>
<text text-anchor="middle" x="1468.5" y="-181.5" font-family="Courier,monospace" font-size="10.00">Templ&lt; is_ad &gt;</text>
</a>
</g>
</g>
<!-- Node1&#45;&gt;Node45 -->
<g id="edge44" class="edge">
<title>Node1&#45;&gt;Node45</title>
<path fill="none" stroke="#63b8ff" d="M1274.38,-246.93C1297.95,-236.57 1331.01,-222.88 1361,-213.5 1370.86,-210.42 1381.35,-207.56 1391.75,-204.97"/>
<polygon fill="#63b8ff" stroke="#63b8ff" points="1273.05,-243.69 1265.34,-250.95 1275.89,-250.09 1273.05,-243.69"/>
</g>
<!-- Node47 -->
<g id="node47" class="node">
<title>Node47</title>
<g id="a_node47"><a xlink:href="classSideIntegralVariablePostprocessor.html" target="_top" xlink:title="This postprocessor computes a surface integral of the specified variable.">
<polygon fill="white" stroke="#666666" points="1576,-123 1361,-123 1361,-104 1576,-104 1576,-123"/>
<text text-anchor="middle" x="1468.5" y="-111" font-family="Courier,monospace" font-size="10.00">SideIntegralVariablePostprocessor</text>
</a>
</g>
</g>
<!-- Node1&#45;&gt;Node47 -->
<g id="edge46" class="edge">
<title>Node1&#45;&gt;Node47</title>
<path fill="none" stroke="#63b8ff" d="M1261.28,-244.02C1283.83,-223.59 1323.33,-189.52 1361,-165.5 1387.89,-148.36 1421.26,-132.91 1443.41,-123.39"/>
<polygon fill="#63b8ff" stroke="#63b8ff" points="1259.1,-241.27 1254.09,-250.6 1263.83,-246.43 1259.1,-241.27"/>
</g>
<!-- Node2 -->
<g id="node2" class="node">
<title>Node2</title>
<g id="a_node2"><a xlink:href="classSidePostprocessor.html" target="_top" xlink:title="Base class for postprocessors executed on one or more sidesets.">
<polygon fill="white" stroke="#666666" points="1122,-271 1003,-271 1003,-252 1122,-252 1122,-271"/>
<text text-anchor="middle" x="1062.5" y="-259" font-family="Courier,monospace" font-size="10.00">SidePostprocessor</text>
</a>
</g>
</g>
<!-- Node2&#45;&gt;Node1 -->
<g id="edge1" class="edge">
<title>Node2&#45;&gt;Node1</title>
<path fill="none" stroke="#63b8ff" d="M1133.73,-261.5C1141.55,-261.5 1149.58,-261.5 1157.54,-261.5"/>
<polygon fill="#63b8ff" stroke="#63b8ff" points="1133.95,-258 1123.95,-261.5 1133.95,-265 1133.95,-258"/>
</g>
<!-- Node3 -->
<g id="node3" class="node">
<title>Node3</title>
<g id="a_node3"><a xlink:href="classSideUserObject.html" target="_top" xlink:title="Base class for user objects executed one or more sidesets, which may be on the outer boundary of the ...">
<polygon fill="white" stroke="#666666" points="967,-363 866,-363 866,-344 967,-344 967,-363"/>
<text text-anchor="middle" x="916.5" y="-351" font-family="Courier,monospace" font-size="10.00">SideUserObject</text>
</a>
</g>
</g>
<!-- Node3&#45;&gt;Node2 -->
<g id="edge2" class="edge">
<title>Node3&#45;&gt;Node2</title>
<path fill="none" stroke="#63b8ff" d="M942.23,-337.7C972.08,-318.63 1021.37,-287.14 1046.2,-271.27"/>
<polygon fill="#63b8ff" stroke="#63b8ff" points="940.73,-334.51 934.19,-342.84 944.5,-340.41 940.73,-334.51"/>
</g>
<!-- Node4 -->
<g id="node4" class="node">
<title>Node4</title>
<g id="a_node4"><a xlink:href="classUserObject.html" target="_top" xlink:title="Base class for user&#45;specific data.">
<polygon fill="white" stroke="#666666" points="764,-622 687,-622 687,-603 764,-603 764,-622"/>
<text text-anchor="middle" x="725.5" y="-610" font-family="Courier,monospace" font-size="10.00">UserObject</text>
</a>
</g>
</g>
<!-- Node4&#45;&gt;Node3 -->
<g id="edge3" class="edge">
<title>Node4&#45;&gt;Node3</title>
<path fill="none" stroke="#63b8ff" d="M740.24,-593.67C777.63,-542.44 880.24,-401.83 908.31,-363.35"/>
<polygon fill="#63b8ff" stroke="#63b8ff" points="737.64,-591.3 734.57,-601.44 743.29,-595.43 737.64,-591.3"/>
</g>
<!-- Node5 -->
<g id="node5" class="node">
<title>Node5</title>
<g id="a_node5"><a xlink:href="classMooseObject.html" target="_top" xlink:title="Every object that can be built by the factory should be derived from this class.">
<polygon fill="white" stroke="#666666" points="534,-900 451,-900 451,-881 534,-881 534,-900"/>
<text text-anchor="middle" x="492.5" y="-888" font-family="Courier,monospace" font-size="10.00">MooseObject</text>
</a>
</g>
</g>
<!-- Node5&#45;&gt;Node4 -->
<g id="edge4" class="edge">
<title>Node5&#45;&gt;Node4</title>
<path fill="none" stroke="#63b8ff" d="M545.39,-888.32C559.28,-885.69 573.59,-880.93 585,-872.5 675.85,-805.38 713.69,-660.99 722.44,-622.24"/>
<polygon fill="#63b8ff" stroke="#63b8ff" points="545.25,-884.8 535.9,-889.77 546.31,-891.72 545.25,-884.8"/>
</g>
<!-- Node6 -->
<g id="node6" class="node">
<title>Node6</title>
<g id="a_node6"><a xlink:href="classMooseBase.html" target="_top" xlink:title="Base class for everything in MOOSE with a name and a type.">
<polygon fill="white" stroke="#666666" points="310,-974 239,-974 239,-955 310,-955 310,-974"/>
<text text-anchor="middle" x="274.5" y="-962" font-family="Courier,monospace" font-size="10.00">MooseBase</text>
</a>
</g>
</g>
<!-- Node6&#45;&gt;Node5 -->
<g id="edge5" class="edge">
<title>Node6&#45;&gt;Node5</title>
<path fill="none" stroke="#63b8ff" d="M321.62,-957.05C335.41,-954.31 350.46,-950.8 364,-946.5 403.87,-933.85 448.08,-912.72 472.56,-900.35"/>
<polygon fill="#63b8ff" stroke="#63b8ff" points="321.06,-953.59 311.89,-958.89 322.36,-960.47 321.06,-953.59"/>
</g>
<!-- Node7 -->
<g id="node7" class="node">
<title>Node7</title>
<g id="a_node7"><a xlink:href="classMooseBaseParameterInterface.html" target="_top" xlink:title="Every object that can be built by the factory should be derived from this class.">
<polygon fill="white" stroke="#666666" points="364,-937 185,-937 185,-918 364,-918 364,-937"/>
<text text-anchor="middle" x="274.5" y="-925" font-family="Courier,monospace" font-size="10.00">MooseBaseParameterInterface</text>
</a>
</g>
</g>
<!-- Node7&#45;&gt;Node5 -->
<g id="edge6" class="edge">
<title>Node7&#45;&gt;Node5</title>
<path fill="none" stroke="#63b8ff" d="M344.77,-915.63C379.7,-909.65 420.85,-902.6 450.68,-897.49"/>
<polygon fill="#63b8ff" stroke="#63b8ff" points="344.43,-912.14 335.16,-917.28 345.61,-919.04 344.43,-912.14"/>
</g>
<!-- Node8 -->
<g id="node8" class="node">
<title>Node8</title>
<g id="a_node8"><a xlink:href="classMooseBaseErrorInterface.html" target="_top" xlink:title="Interface that provides APIs to output errors/warnings/info messages.">
<polygon fill="white" stroke="#666666" points="352,-900 197,-900 197,-881 352,-881 352,-900"/>
<text text-anchor="middle" x="274.5" y="-888" font-family="Courier,monospace" font-size="10.00">MooseBaseErrorInterface</text>
</a>
</g>
</g>
<!-- Node8&#45;&gt;Node5 -->
<g id="edge7" class="edge">
<title>Node8&#45;&gt;Node5</title>
<path fill="none" stroke="#63b8ff" d="M363.7,-890.5C393.87,-890.5 426.17,-890.5 450.75,-890.5"/>
<polygon fill="#63b8ff" stroke="#63b8ff" points="363.78,-887 353.78,-890.5 363.78,-894 363.78,-887"/>
</g>
<!-- Node9 -->
<g id="node9" class="node">
<title>Node9</title>
<g id="a_node9"><a xlink:href="classConsoleStreamInterface.html" target="_top" xlink:title="An inteface for the _console for outputting to the Console object.">
<polygon fill="white" stroke="#666666" points="149,-900 0,-900 0,-881 149,-881 149,-900"/>
<text text-anchor="middle" x="74.5" y="-888" font-family="Courier,monospace" font-size="10.00">ConsoleStreamInterface</text>
</a>
</g>
</g>
<!-- Node9&#45;&gt;Node8 -->
<g id="edge8" class="edge">
<title>Node9&#45;&gt;Node8</title>
<path fill="none" stroke="#63b8ff" d="M160.62,-890.5C172.62,-890.5 184.9,-890.5 196.73,-890.5"/>
<polygon fill="#63b8ff" stroke="#63b8ff" points="160.74,-887 150.74,-890.5 160.74,-894 160.74,-887"/>
</g>
<!-- Node10 -->
<g id="node10" class="node">
<title>Node10</title>
<g id="a_node10"><a xlink:title=" ">
<polygon fill="white" stroke="#666666" points="352,-863 197,-863 197,-844 352,-844 352,-863"/>
<text text-anchor="middle" x="274.5" y="-851" font-family="Courier,monospace" font-size="10.00">libMesh::ParallelObject</text>
</a>
</g>
</g>
<!-- Node10&#45;&gt;Node5 -->
<g id="edge9" class="edge">
<title>Node10&#45;&gt;Node5</title>
<path fill="none" stroke="#63b8ff" d="M344.77,-865.37C379.7,-871.35 420.85,-878.4 450.68,-883.51"/>
<polygon fill="#63b8ff" stroke="#63b8ff" points="345.61,-861.96 335.16,-863.72 344.43,-868.86 345.61,-861.96"/>
</g>
<!-- Node11 -->
<g id="node11" class="node">
<title>Node11</title>
<g id="a_node11"><a xlink:href="classDataFileInterface.html" target="_top" xlink:title=" ">
<polygon fill="white" stroke="#666666" points="337,-825.5 212,-825.5 212,-795.5 337,-795.5 337,-825.5"/>
<text text-anchor="start" x="220" y="-813.5" font-family="Courier,monospace" font-size="10.00">DataFileInterface&lt;</text>
<text text-anchor="middle" x="274.5" y="-802.5" font-family="Courier,monospace" font-size="10.00"> MooseObject &gt;</text>
</a>
</g>
</g>
<!-- Node11&#45;&gt;Node5 -->
<g id="edge10" class="edge">
<title>Node11&#45;&gt;Node5</title>
<path fill="none" stroke="#63b8ff" d="M347.62,-827.35C353.32,-829.73 358.86,-832.44 364,-835.5 383.71,-847.24 379.83,-861.57 400,-872.5 415.37,-880.83 434.06,-885.34 450.53,-887.76"/>
<polygon fill="#63b8ff" stroke="#63b8ff" points="349.23,-824.22 338.64,-823.94 346.74,-830.76 349.23,-824.22"/>
</g>
<!-- Node12 -->
<g id="node12" class="node">
<title>Node12</title>
<g id="a_node12"><a xlink:href="classSetupInterface.html" target="_top" xlink:title=" ">
<polygon fill="white" stroke="#666666" points="543,-863 442,-863 442,-844 543,-844 543,-863"/>
<text text-anchor="middle" x="492.5" y="-851" font-family="Courier,monospace" font-size="10.00">SetupInterface</text>
</a>
</g>
</g>
<!-- Node12&#45;&gt;Node4 -->
<g id="edge11" class="edge">
<title>Node12&#45;&gt;Node4</title>
<path fill="none" stroke="#63b8ff" d="M554.61,-848.68C565.37,-845.88 575.99,-841.7 585,-835.5 666.99,-779.04 710.5,-657.03 721.61,-622.05"/>
<polygon fill="#63b8ff" stroke="#63b8ff" points="553.92,-845.25 544.89,-850.8 555.41,-852.09 553.92,-845.25"/>
</g>
<!-- Node13 -->
<g id="node13" class="node">
<title>Node13</title>
<g id="a_node13"><a xlink:href="classFunctionInterface.html" target="_top" xlink:title="Interface for objects that need to use functions.">
<polygon fill="white" stroke="#666666" points="552,-826 433,-826 433,-807 552,-807 552,-826"/>
<text text-anchor="middle" x="492.5" y="-814" font-family="Courier,monospace" font-size="10.00">FunctionInterface</text>
</a>
</g>
</g>
<!-- Node13&#45;&gt;Node4 -->
<g id="edge12" class="edge">
<title>Node13&#45;&gt;Node4</title>
<path fill="none" stroke="darkgreen" d="M563.08,-808.49C570.8,-805.97 578.29,-802.71 585,-798.5 658.15,-752.56 706.48,-653.45 720.37,-622.17"/>
<polygon fill="darkgreen" stroke="darkgreen" points="562.2,-805.1 553.52,-811.17 564.09,-811.84 562.2,-805.1"/>
</g>
<!-- Node14 -->
<g id="node14" class="node">
<title>Node14</title>
<g id="a_node14"><a xlink:href="classUserObjectInterface.html" target="_top" xlink:title="Interface for objects that need to use UserObjects.">
<polygon fill="white" stroke="#666666" points="558,-789 427,-789 427,-770 558,-770 558,-789"/>
<text text-anchor="middle" x="492.5" y="-777" font-family="Courier,monospace" font-size="10.00">UserObjectInterface</text>
</a>
</g>
</g>
<!-- Node14&#45;&gt;Node4 -->
<g id="edge13" class="edge">
<title>Node14&#45;&gt;Node4</title>
<path fill="none" stroke="#63b8ff" d="M569.1,-768.62C574.63,-766.63 580,-764.27 585,-761.5 649.46,-725.76 701.26,-649.73 718.42,-622.48"/>
<polygon fill="#63b8ff" stroke="#63b8ff" points="568.23,-765.22 559.74,-771.57 570.33,-771.9 568.23,-765.22"/>
</g>
<!-- Node15 -->
<g id="node15" class="node">
<title>Node15</title>
<g id="a_node15"><a xlink:href="classPostprocessorInterface.html" target="_top" xlink:title="Interface class for classes which interact with Postprocessors.">
<polygon fill="white" stroke="#666666" points="567,-752 418,-752 418,-733 567,-733 567,-752"/>
<text text-anchor="middle" x="492.5" y="-740" font-family="Courier,monospace" font-size="10.00">PostprocessorInterface</text>
</a>
</g>
</g>
<!-- Node15&#45;&gt;Node4 -->
<g id="edge14" class="edge">
<title>Node15&#45;&gt;Node4</title>
<path fill="none" stroke="darkgreen" d="M573.95,-729.02C577.74,-727.66 581.44,-726.15 585,-724.5 641.32,-698.3 694.79,-644.68 715.48,-622.47"/>
<polygon fill="darkgreen" stroke="darkgreen" points="572.97,-725.66 564.53,-732.05 575.12,-732.32 572.97,-725.66"/>
</g>
<!-- Node16 -->
<g id="node16" class="node">
<title>Node16</title>
<g id="a_node16"><a xlink:href="classVectorPostprocessorInterface.html" target="_top" xlink:title=" ">
<polygon fill="white" stroke="#666666" points="585,-715 400,-715 400,-696 585,-696 585,-715"/>
<text text-anchor="middle" x="492.5" y="-703" font-family="Courier,monospace" font-size="10.00">VectorPostprocessorInterface</text>
</a>
</g>
</g>
<!-- Node16&#45;&gt;Node4 -->
<g id="edge15" class="edge">
<title>Node16&#45;&gt;Node4</title>
<path fill="none" stroke="darkgreen" d="M568.24,-692.73C573.97,-691.17 579.61,-689.43 585,-687.5 633.15,-670.26 684.97,-638.48 709.71,-622.39"/>
<polygon fill="darkgreen" stroke="darkgreen" points="567.48,-689.32 558.64,-695.16 569.19,-696.1 567.48,-689.32"/>
</g>
<!-- Node17 -->
<g id="node17" class="node">
<title>Node17</title>
<g id="a_node17"><a xlink:href="classReporterInterface.html" target="_top" xlink:title="Interface to allow object to consume Reporter values.">
<polygon fill="white" stroke="#666666" points="552,-678 433,-678 433,-659 552,-659 552,-678"/>
<text text-anchor="middle" x="492.5" y="-666" font-family="Courier,monospace" font-size="10.00">ReporterInterface</text>
</a>
</g>
</g>
<!-- Node17&#45;&gt;Node4 -->
<g id="edge16" class="edge">
<title>Node17&#45;&gt;Node4</title>
<path fill="none" stroke="darkgreen" d="M558.53,-656.3C567.45,-654.46 576.47,-652.5 585,-650.5 621.29,-642 662.42,-630.57 690.56,-622.48"/>
<polygon fill="darkgreen" stroke="darkgreen" points="557.93,-652.85 548.83,-658.27 559.32,-659.71 557.93,-652.85"/>
</g>
<!-- Node18 -->
<g id="node18" class="node">
<title>Node18</title>
<g id="a_node18"><a xlink:href="classDistributionInterface.html" target="_top" xlink:title="Interface for objects that need to use distributions.">
<polygon fill="white" stroke="#666666" points="564,-641 421,-641 421,-622 564,-622 564,-641"/>
<text text-anchor="middle" x="492.5" y="-629" font-family="Courier,monospace" font-size="10.00">DistributionInterface</text>
</a>
</g>
</g>
<!-- Node18&#45;&gt;Node4 -->
<g id="edge17" class="edge">
<title>Node18&#45;&gt;Node4</title>
<path fill="none" stroke="darkgreen" d="M575.43,-624.76C613.35,-621.64 656.56,-618.09 686.65,-615.61"/>
<polygon fill="darkgreen" stroke="darkgreen" points="575.57,-621.24 565.89,-625.55 576.14,-628.21 575.57,-621.24"/>
</g>
<!-- Node19 -->
<g id="node19" class="node">
<title>Node19</title>
<g id="a_node19"><a xlink:href="classSamplerInterface.html" target="_top" xlink:title="Interface for objects that need to use samplers.">
<polygon fill="white" stroke="#666666" points="549,-604 436,-604 436,-585 549,-585 549,-604"/>
<text text-anchor="middle" x="492.5" y="-592" font-family="Courier,monospace" font-size="10.00">SamplerInterface</text>
</a>
</g>
</g>
<!-- Node19&#45;&gt;Node4 -->
<g id="edge18" class="edge">
<title>Node19&#45;&gt;Node4</title>
<path fill="none" stroke="darkgreen" d="M560.71,-599.74C601.74,-602.93 652.7,-606.91 686.78,-609.56"/>
<polygon fill="darkgreen" stroke="darkgreen" points="561.17,-596.26 550.93,-598.97 560.63,-603.24 561.17,-596.26"/>
</g>
<!-- Node20 -->
<g id="node20" class="node">
<title>Node20</title>
<g id="a_node20"><a xlink:href="classRestartable.html" target="_top" xlink:title="A class for creating restricted objects.">
<polygon fill="white" stroke="#666666" points="534,-567 451,-567 451,-548 534,-548 534,-567"/>
<text text-anchor="middle" x="492.5" y="-555" font-family="Courier,monospace" font-size="10.00">Restartable</text>
</a>
</g>
</g>
<!-- Node20&#45;&gt;Node4 -->
<g id="edge19" class="edge">
<title>Node20&#45;&gt;Node4</title>
<path fill="none" stroke="darkgreen" d="M545.27,-567.8C558.27,-570.51 572.17,-573.51 585,-576.5 620.08,-584.66 659.83,-595.03 687.9,-602.55"/>
<polygon fill="darkgreen" stroke="darkgreen" points="546.11,-564.4 535.61,-565.81 544.7,-571.26 546.11,-564.4"/>
</g>
<!-- Node21 -->
<g id="node21" class="node">
<title>Node21</title>
<g id="a_node21"><a xlink:href="classMeshMetaDataInterface.html" target="_top" xlink:title="The Interface used to retrieve mesh meta data (attributes) set by the MeshGenerator system.">
<polygon fill="white" stroke="#666666" points="564,-530 421,-530 421,-511 564,-511 564,-530"/>
<text text-anchor="middle" x="492.5" y="-518" font-family="Courier,monospace" font-size="10.00">MeshMetaDataInterface</text>
</a>
</g>
</g>
<!-- Node21&#45;&gt;Node4 -->
<g id="edge20" class="edge">
<title>Node21&#45;&gt;Node4</title>
<path fill="none" stroke="darkgreen" d="M564.33,-533.15C571.39,-535.02 578.38,-537.13 585,-539.5 632.62,-556.53 684.26,-587.07 709.25,-602.7"/>
<polygon fill="darkgreen" stroke="darkgreen" points="565.25,-529.77 554.7,-530.77 563.56,-536.57 565.25,-529.77"/>
</g>
<!-- Node22 -->
<g id="node22" class="node">
<title>Node22</title>
<g id="a_node22"><a xlink:href="classMeshChangedInterface.html" target="_top" xlink:title="Interface for notifications that the mesh has changed.">
<polygon fill="white" stroke="#666666" points="561,-493 424,-493 424,-474 561,-474 561,-493"/>
<text text-anchor="middle" x="492.5" y="-481" font-family="Courier,monospace" font-size="10.00">MeshChangedInterface</text>
</a>
</g>
</g>
<!-- Node22&#45;&gt;Node4 -->
<g id="edge21" class="edge">
<title>Node22&#45;&gt;Node4</title>
<path fill="none" stroke="darkgreen" d="M570.63,-496.77C575.58,-498.46 580.41,-500.36 585,-502.5 640.91,-528.56 694.6,-581.04 715.42,-602.75"/>
<polygon fill="darkgreen" stroke="darkgreen" points="571.71,-493.44 561.12,-493.85 569.65,-500.13 571.71,-493.44"/>
</g>
<!-- Node23 -->
<g id="node23" class="node">
<title>Node23</title>
<g id="a_node23"><a xlink:href="classScalarCoupleable.html" target="_top" xlink:title="Interface for objects that needs scalar coupling capabilities.">
<polygon fill="white" stroke="#666666" points="549,-456 436,-456 436,-437 549,-437 549,-456"/>
<text text-anchor="middle" x="492.5" y="-444" font-family="Courier,monospace" font-size="10.00">ScalarCoupleable</text>
</a>
</g>
</g>
<!-- Node23&#45;&gt;Node4 -->
<g id="edge22" class="edge">
<title>Node23&#45;&gt;Node4</title>
<path fill="none" stroke="darkgreen" d="M560.14,-455.34C568.81,-457.91 577.33,-461.23 585,-465.5 648.93,-501.11 701.07,-575.9 718.37,-602.69"/>
<polygon fill="darkgreen" stroke="darkgreen" points="561.16,-451.99 550.6,-452.84 559.39,-458.76 561.16,-451.99"/>
</g>
<!-- Node24 -->
<g id="node24" class="node">
<title>Node24</title>
<g id="a_node24"><a xlink:href="classPerfGraphInterface.html" target="_top" xlink:title="Interface for objects interacting with the PerfGraph.">
<polygon fill="white" stroke="#666666" points="555,-419 430,-419 430,-400 555,-400 555,-419"/>
<text text-anchor="middle" x="492.5" y="-407" font-family="Courier,monospace" font-size="10.00">PerfGraphInterface</text>
</a>
</g>
</g>
<!-- Node24&#45;&gt;Node4 -->
<g id="edge23" class="edge">
<title>Node24&#45;&gt;Node4</title>
<path fill="none" stroke="darkgreen" d="M566.03,-419.39C572.71,-421.81 579.15,-424.8 585,-428.5 603.51,-440.2 692.05,-565.97 717.59,-602.56"/>
<polygon fill="darkgreen" stroke="darkgreen" points="567.44,-416.17 556.85,-416.5 565.34,-422.84 567.44,-416.17"/>
</g>
<!-- Node25 -->
<g id="node25" class="node">
<title>Node25</title>
<g id="a_node25"><a xlink:href="classDependencyResolverInterface.html" target="_top" xlink:title="Interface for sorting dependent vectors of objects.">
<polygon fill="white" stroke="#666666" points="582,-382 403,-382 403,-363 582,-363 582,-382"/>
<text text-anchor="middle" x="492.5" y="-370" font-family="Courier,monospace" font-size="10.00">DependencyResolverInterface</text>
</a>
</g>
</g>
<!-- Node25&#45;&gt;Node4 -->
<g id="edge24" class="edge">
<title>Node25&#45;&gt;Node4</title>
<path fill="none" stroke="#63b8ff" d="M579.46,-387.63C581.37,-388.83 583.22,-390.12 585,-391.5 613.86,-413.96 602.41,-434 621,-465.5 652.88,-519.53 698.5,-579.34 716.64,-602.54"/>
<polygon fill="#63b8ff" stroke="#63b8ff" points="581.23,-384.61 570.76,-383.04 577.97,-390.8 581.23,-384.61"/>
</g>
<!-- Node26 -->
<g id="node26" class="node">
<title>Node26</title>
<g id="a_node26"><a xlink:href="classBoundaryRestrictableRequired.html" target="_top" xlink:title="A class for requiring an object to be boundary restricted.">
<polygon fill="white" stroke="#666666" points="818,-456 633,-456 633,-437 818,-437 818,-456"/>
<text text-anchor="middle" x="725.5" y="-444" font-family="Courier,monospace" font-size="10.00">BoundaryRestrictableRequired</text>
</a>
</g>
</g>
<!-- Node26&#45;&gt;Node3 -->
<g id="edge25" class="edge">
<title>Node26&#45;&gt;Node3</title>
<path fill="none" stroke="#63b8ff" d="M819.22,-433.05C822.91,-431.68 826.52,-430.16 830,-428.5 863.31,-412.57 893.58,-379.89 907.47,-363.44"/>
<polygon fill="#63b8ff" stroke="#63b8ff" points="818.44,-429.62 810.05,-436.09 820.64,-436.26 818.44,-429.62"/>
</g>
<!-- Node27 -->
<g id="node27" class="node">
<title>Node27</title>
<g id="a_node27"><a xlink:href="classBoundaryRestrictable.html" target="_top" xlink:title="/class BoundaryRestrictable /brief Provides functionality for limiting the object to certain boundary...">
<polygon fill="white" stroke="#666666" points="561,-345 424,-345 424,-326 561,-326 561,-345"/>
<text text-anchor="middle" x="492.5" y="-333" font-family="Courier,monospace" font-size="10.00">BoundaryRestrictable</text>
</a>
</g>
</g>
<!-- Node27&#45;&gt;Node26 -->
<g id="edge26" class="edge">
<title>Node27&#45;&gt;Node26</title>
<path fill="none" stroke="#63b8ff" d="M571.75,-346.4C576.46,-348.66 580.93,-351.33 585,-354.5 613.86,-376.96 591.78,-406.51 621,-428.5 625.15,-431.63 629.66,-434.28 634.4,-436.52"/>
<polygon fill="#63b8ff" stroke="#63b8ff" points="573.11,-343.18 562.52,-342.68 570.49,-349.67 573.11,-343.18"/>
</g>
<!-- Node28 -->
<g id="node28" class="node">
<title>Node28</title>
<g id="a_node28"><a xlink:href="classMaterialPropertyInterface.html" target="_top" xlink:title="An interface for accessing Materials.">
<polygon fill="white" stroke="#666666" points="809,-419 642,-419 642,-400 809,-400 809,-419"/>
<text text-anchor="middle" x="725.5" y="-407" font-family="Courier,monospace" font-size="10.00">MaterialPropertyInterface</text>
</a>
</g>
</g>
<!-- Node28&#45;&gt;Node3 -->
<g id="edge27" class="edge">
<title>Node28&#45;&gt;Node3</title>
<path fill="none" stroke="#63b8ff" d="M808.57,-397.15C815.87,-395.47 823.11,-393.6 830,-391.5 853.78,-384.27 879.67,-372.11 896.66,-363.49"/>
<polygon fill="#63b8ff" stroke="#63b8ff" points="807.99,-393.7 798.95,-399.23 809.47,-400.54 807.99,-393.7"/>
</g>
<!-- Node29 -->
<g id="node29" class="node">
<title>Node29</title>
<g id="a_node29"><a xlink:href="classCoupleable.html" target="_top" xlink:title="Interface for objects that needs coupling capabilities.">
<polygon fill="white" stroke="#666666" points="764,-382 687,-382 687,-363 764,-363 764,-382"/>
<text text-anchor="middle" x="725.5" y="-370" font-family="Courier,monospace" font-size="10.00">Coupleable</text>
</a>
</g>
</g>
<!-- Node29&#45;&gt;Node3 -->
<g id="edge28" class="edge">
<title>Node29&#45;&gt;Node3</title>
<path fill="none" stroke="#63b8ff" d="M775.69,-367.55C803.36,-364.77 837.81,-361.31 865.59,-358.52"/>
<polygon fill="#63b8ff" stroke="#63b8ff" points="775.4,-364.07 765.8,-368.55 776.1,-371.03 775.4,-364.07"/>
</g>
<!-- Node30 -->
<g id="node30" class="node">
<title>Node30</title>
<g id="a_node30"><a xlink:href="classMooseVariableDependencyInterface.html" target="_top" xlink:title=" ">
<polygon fill="white" stroke="#666666" points="830,-345 621,-345 621,-326 830,-326 830,-345"/>
<text text-anchor="middle" x="725.5" y="-333" font-family="Courier,monospace" font-size="10.00">MooseVariableDependencyInterface</text>
</a>
</g>
</g>
<!-- Node30&#45;&gt;Node3 -->
<g id="edge29" class="edge">
<title>Node30&#45;&gt;Node3</title>
<path fill="none" stroke="#63b8ff" d="M841.61,-346.46C850.05,-347.27 858.26,-348.05 865.95,-348.78"/>
<polygon fill="#63b8ff" stroke="#63b8ff" points="842.19,-343 831.91,-345.54 841.53,-349.97 842.19,-343"/>
</g>
<!-- Node31 -->
<g id="node31" class="node">
<title>Node31</title>
<g id="a_node31"><a xlink:href="classTransientInterface.html" target="_top" xlink:title="Interface for objects that needs transient capabilities.">
<polygon fill="white" stroke="#666666" points="788,-308 663,-308 663,-289 788,-289 788,-308"/>
<text text-anchor="middle" x="725.5" y="-296" font-family="Courier,monospace" font-size="10.00">TransientInterface</text>
</a>
</g>
</g>
<!-- Node31&#45;&gt;Node3 -->
<g id="edge30" class="edge">
<title>Node31&#45;&gt;Node3</title>
<path fill="none" stroke="#63b8ff" d="M799.46,-309.84C809.8,-312.04 820.23,-314.58 830,-317.5 853.15,-324.41 878.53,-335.58 895.57,-343.65"/>
<polygon fill="#63b8ff" stroke="#63b8ff" points="800.3,-306.43 789.8,-307.88 798.91,-313.29 800.3,-306.43"/>
</g>
<!-- Node32 -->
<g id="node32" class="node">
<title>Node32</title>
<g id="a_node32"><a xlink:href="classElementIDInterface.html" target="_top" xlink:title=" ">
<polygon fill="white" stroke="#666666" points="788,-271 663,-271 663,-252 788,-252 788,-271"/>
<text text-anchor="middle" x="725.5" y="-259" font-family="Courier,monospace" font-size="10.00">ElementIDInterface</text>
</a>
</g>
</g>
<!-- Node32&#45;&gt;Node3 -->
<g id="edge31" class="edge">
<title>Node32&#45;&gt;Node3</title>
<path fill="none" stroke="#63b8ff" d="M799.36,-269.86C809.93,-272.5 820.45,-275.96 830,-280.5 862.78,-296.1 893.06,-327.57 907.17,-343.61"/>
<polygon fill="#63b8ff" stroke="#63b8ff" points="800.37,-266.5 789.84,-267.73 798.84,-273.33 800.37,-266.5"/>
</g>
<!-- Node33 -->
<g id="node33" class="node">
<title>Node33</title>
<g id="a_node33"><a xlink:href="classPostprocessor.html" target="_top" xlink:title="Base class for all Postprocessors.">
<polygon fill="white" stroke="#666666" points="964,-216 869,-216 869,-197 964,-197 964,-216"/>
<text text-anchor="middle" x="916.5" y="-204" font-family="Courier,monospace" font-size="10.00">Postprocessor</text>
</a>
</g>
</g>
<!-- Node33&#45;&gt;Node2 -->
<g id="edge32" class="edge">
<title>Node33&#45;&gt;Node2</title>
<path fill="none" stroke="#63b8ff" d="M954.3,-220.56C979.73,-230.27 1012.94,-242.95 1035.62,-251.61"/>
<polygon fill="#63b8ff" stroke="#63b8ff" points="955.58,-217.3 944.99,-217 953.08,-223.84 955.58,-217.3"/>
</g>
<!-- Node34 -->
<g id="node34" class="node">
<title>Node34</title>
<g id="a_node34"><a xlink:href="classOutputInterface.html" target="_top" xlink:title="A class to provide an common interface to objects requiring &quot;outputs&quot; option.">
<polygon fill="white" stroke="#666666" points="779,-234 672,-234 672,-215 779,-215 779,-234"/>
<text text-anchor="middle" x="725.5" y="-222" font-family="Courier,monospace" font-size="10.00">OutputInterface</text>
</a>
</g>
</g>
<!-- Node34&#45;&gt;Node33 -->
<g id="edge33" class="edge">
<title>Node34&#45;&gt;Node33</title>
<path fill="none" stroke="#63b8ff" d="M790.53,-218.4C816.16,-215.96 845.14,-213.2 868.73,-210.95"/>
<polygon fill="#63b8ff" stroke="#63b8ff" points="790.53,-214.89 780.91,-219.32 791.19,-221.85 790.53,-214.89"/>
</g>
<!-- Node35 -->
<g id="node35" class="node">
<title>Node35</title>
<g id="a_node35"><a xlink:href="classNonADFunctorInterface.html" target="_top" xlink:title="An interface for accessing Moose::Functors for systems that do not care about automatic differentiati...">
<polygon fill="white" stroke="#666666" points="797,-197 654,-197 654,-178 797,-178 797,-197"/>
<text text-anchor="middle" x="725.5" y="-185" font-family="Courier,monospace" font-size="10.00">NonADFunctorInterface</text>
</a>
</g>
</g>
<!-- Node35&#45;&gt;Node33 -->
<g id="edge34" class="edge">
<title>Node35&#45;&gt;Node33</title>
<path fill="none" stroke="#63b8ff" d="M808.69,-195.76C829.18,-197.82 850.45,-199.96 868.57,-201.78"/>
<polygon fill="#63b8ff" stroke="#63b8ff" points="809.22,-192.3 798.92,-194.78 808.52,-199.26 809.22,-192.3"/>
</g>
<!-- Node36 -->
<g id="node36" class="node">
<title>Node36</title>
<g id="a_node36"><a xlink:href="classFunctorInterface.html" target="_top" xlink:title="An interface for accessing Moose::Functors.">
<polygon fill="white" stroke="#666666" points="549,-197 436,-197 436,-178 549,-178 549,-197"/>
<text text-anchor="middle" x="492.5" y="-185" font-family="Courier,monospace" font-size="10.00">FunctorInterface</text>
</a>
</g>
</g>
<!-- Node36&#45;&gt;Node35 -->
<g id="edge35" class="edge">
<title>Node36&#45;&gt;Node35</title>
<path fill="none" stroke="#63b8ff" d="M560.76,-187.5C589.96,-187.5 624.18,-187.5 653.77,-187.5"/>
<polygon fill="#63b8ff" stroke="#63b8ff" points="560.93,-184 550.93,-187.5 560.93,-191 560.93,-184"/>
</g>
<!-- Node37 -->
<g id="node37" class="node">
<title>Node37</title>
<g id="a_node37"><a xlink:href="classMoose_1_1FunctorBase.html" target="_top" xlink:title=" ">
<polygon fill="white" stroke="#666666" points="788,-159.5 663,-159.5 663,-129.5 788,-129.5 788,-159.5"/>
<text text-anchor="start" x="671" y="-147.5" font-family="Courier,monospace" font-size="10.00">Moose::FunctorBase</text>
<text text-anchor="middle" x="725.5" y="-136.5" font-family="Courier,monospace" font-size="10.00">&lt; Real &gt;</text>
</a>
</g>
</g>
<!-- Node37&#45;&gt;Node33 -->
<g id="edge36" class="edge">
<title>Node37&#45;&gt;Node33</title>
<path fill="none" stroke="#63b8ff" d="M799.48,-159.58C809.81,-162.25 820.24,-165.23 830,-168.5 853.41,-176.34 879.17,-188.26 896.22,-196.66"/>
<polygon fill="#63b8ff" stroke="#63b8ff" points="800.35,-156.19 789.8,-157.17 798.66,-162.98 800.35,-156.19"/>
</g>
<!-- Node38 -->
<g id="node38" class="node">
<title>Node38</title>
<g id="a_node38"><a xlink:href="classMoose_1_1FunctorAbstract.html" target="_top" xlink:title="Abstract base class that can be used to hold collections of functors.">
<polygon fill="white" stroke="#666666" points="567,-154 418,-154 418,-135 567,-135 567,-154"/>
<text text-anchor="middle" x="492.5" y="-142" font-family="Courier,monospace" font-size="10.00">Moose::FunctorAbstract</text>
</a>
</g>
</g>
<!-- Node38&#45;&gt;Node37 -->
<g id="edge37" class="edge">
<title>Node38&#45;&gt;Node37</title>
<path fill="none" stroke="#63b8ff" d="M578.58,-144.5C606.46,-144.5 636.88,-144.5 662.7,-144.5"/>
<polygon fill="#63b8ff" stroke="#63b8ff" points="578.74,-141 568.74,-144.5 578.74,-148 578.74,-141"/>
</g>
<!-- Node39 -->
<g id="node39" class="node">
<title>Node39</title>
<g id="a_node39"><a xlink:href="classFaceArgInterface.html" target="_top" xlink:title="A base class interface for both producers and consumers of functor face arguments,...">
<polygon fill="white" stroke="#666666" points="331,-154 218,-154 218,-135 331,-135 331,-154"/>
<text text-anchor="middle" x="274.5" y="-142" font-family="Courier,monospace" font-size="10.00">FaceArgInterface</text>
</a>
</g>
</g>
<!-- Node39&#45;&gt;Node38 -->
<g id="edge38" class="edge">
<title>Node39&#45;&gt;Node38</title>
<path fill="none" stroke="#63b8ff" d="M342.78,-144.5C366.49,-144.5 393.27,-144.5 417.51,-144.5"/>
<polygon fill="#63b8ff" stroke="#63b8ff" points="342.92,-141 332.92,-144.5 342.92,-148 342.92,-141"/>
</g>
<!-- Node42 -->
<g id="node42" class="node">
<title>Node42</title>
<g id="a_node42"><a xlink:href="classFunctionSideAverage.html" target="_top" xlink:title="Computes the average of a function over a boundary.">
<polygon fill="white" stroke="#666666" points="1767,-338 1636,-338 1636,-319 1767,-319 1767,-338"/>
<text text-anchor="middle" x="1701.5" y="-326" font-family="Courier,monospace" font-size="10.00">FunctionSideAverage</text>
</a>
</g>
</g>
<!-- Node41&#45;&gt;Node42 -->
<g id="edge41" class="edge">
<title>Node41&#45;&gt;Node42</title>
<path fill="none" stroke="#63b8ff" d="M1548.74,-328.5C1577.04,-328.5 1608.58,-328.5 1635.53,-328.5"/>
<polygon fill="#63b8ff" stroke="#63b8ff" points="1548.76,-325 1538.76,-328.5 1548.76,-332 1548.76,-325"/>
</g>
<!-- Node46 -->
<g id="node46" class="node">
<title>Node46</title>
<g id="a_node46"><a xlink:href="classSideAverageMaterialPropertyTempl.html" target="_top" xlink:title="Computes the average of a material property over a side set.">
<polygon fill="white" stroke="#666666" points="1791,-238.5 1612,-238.5 1612,-208.5 1791,-208.5 1791,-238.5"/>
<text text-anchor="start" x="1620" y="-226.5" font-family="Courier,monospace" font-size="10.00">SideAverageMaterialProperty</text>
<text text-anchor="middle" x="1701.5" y="-215.5" font-family="Courier,monospace" font-size="10.00">Templ&lt; is_ad &gt;</text>
</a>
</g>
</g>
<!-- Node45&#45;&gt;Node46 -->
<g id="edge45" class="edge">
<title>Node45&#45;&gt;Node46</title>
<path fill="none" stroke="#63b8ff" d="M1572.84,-204.71C1585.86,-206.63 1599.1,-208.57 1611.87,-210.45"/>
<polygon fill="#63b8ff" stroke="#63b8ff" points="1573.36,-201.25 1562.96,-203.26 1572.34,-208.17 1573.36,-201.25"/>
</g>
<!-- Node48 -->
<g id="node48" class="node">
<title>Node48</title>
<g id="a_node48"><a xlink:href="classSideDiffusiveFluxIntegralTempl.html" target="_top" xlink:title=" ">
<polygon fill="white" stroke="#666666" points="1785,-190.5 1618,-190.5 1618,-160.5 1785,-160.5 1785,-190.5"/>
<text text-anchor="start" x="1626" y="-178.5" font-family="Courier,monospace" font-size="10.00">SideDiffusiveFluxIntegral</text>
<text text-anchor="middle" x="1701.5" y="-167.5" font-family="Courier,monospace" font-size="10.00">Templ&lt; is_ad, Real &gt;</text>
</a>
</g>
</g>
<!-- Node47&#45;&gt;Node48 -->
<g id="edge47" class="edge">
<title>Node47&#45;&gt;Node48</title>
<path fill="none" stroke="#63b8ff" d="M1517.48,-126.38C1554.04,-136.19 1604.5,-149.73 1643.17,-160.11"/>
<polygon fill="#63b8ff" stroke="#63b8ff" points="1518.64,-123.07 1508.08,-123.85 1516.83,-129.83 1518.64,-123.07"/>
</g>
<!-- Node50 -->
<g id="node50" class="node">
<title>Node50</title>
<g id="a_node50"><a xlink:href="classSideAverageValue.html" target="_top" xlink:title="This postprocessor computes a volume integral of the specified variable.">
<polygon fill="white" stroke="#666666" points="1758,-142 1645,-142 1645,-123 1758,-123 1758,-142"/>
<text text-anchor="middle" x="1701.5" y="-130" font-family="Courier,monospace" font-size="10.00">SideAverageValue</text>
</a>
</g>
</g>
<!-- Node47&#45;&gt;Node50 -->
<g id="edge49" class="edge">
<title>Node47&#45;&gt;Node50</title>
<path fill="none" stroke="#63b8ff" d="M1587.59,-123.21C1607.49,-124.85 1627.3,-126.48 1644.63,-127.9"/>
<polygon fill="#63b8ff" stroke="#63b8ff" points="1587.97,-119.73 1577.72,-122.4 1587.4,-126.71 1587.97,-119.73"/>
</g>
<!-- Node52 -->
<g id="node52" class="node">
<title>Node52</title>
<g id="a_node52"><a xlink:href="classSideCurrent.html" target="_top" xlink:title="This postprocessor computes a side integral of current density.">
<polygon fill="white" stroke="#666666" points="1743,-105 1660,-105 1660,-86 1743,-86 1743,-105"/>
<text text-anchor="middle" x="1701.5" y="-93" font-family="Courier,monospace" font-size="10.00">SideCurrent</text>
</a>
</g>
</g>
<!-- Node47&#45;&gt;Node52 -->
<g id="edge51" class="edge">
<title>Node47&#45;&gt;Node52</title>
<path fill="none" stroke="#63b8ff" d="M1587.36,-104.32C1613.38,-102.29 1639.25,-100.27 1659.67,-98.68"/>
<polygon fill="#63b8ff" stroke="#63b8ff" points="1587.42,-100.8 1577.72,-105.07 1587.96,-107.78 1587.42,-100.8"/>
</g>
<!-- Node53 -->
<g id="node53" class="node">
<title>Node53</title>
<g id="a_node53"><a xlink:href="classSideDiffusiveFluxIntegralTempl.html" target="_top" xlink:title="This postprocessor computes a side integral of the mass flux.">
<polygon fill="white" stroke="#666666" points="1785,-67.5 1618,-67.5 1618,-37.5 1785,-37.5 1785,-67.5"/>
<text text-anchor="start" x="1626" y="-55.5" font-family="Courier,monospace" font-size="10.00">SideDiffusiveFluxIntegral</text>
<text text-anchor="middle" x="1701.5" y="-44.5" font-family="Courier,monospace" font-size="10.00">Templ&lt; is_ad, T &gt;</text>
</a>
</g>
</g>
<!-- Node47&#45;&gt;Node53 -->
<g id="edge52" class="edge">
<title>Node47&#45;&gt;Node53</title>
<path fill="none" stroke="#63b8ff" d="M1517.9,-100.72C1554.08,-91.16 1603.72,-78.06 1642.1,-67.92"/>
<polygon fill="#63b8ff" stroke="#63b8ff" points="1517.37,-97.24 1508.59,-103.18 1519.15,-104.01 1517.37,-97.24"/>
</g>
<!-- Node54 -->
<g id="node54" class="node">
<title>Node54</title>
<g id="a_node54"><a xlink:href="classSideTotFluxIntegral.html" target="_top" xlink:title="This postprocessor computes a side integral of the mass flux.">
<polygon fill="white" stroke="#666666" points="1767,-19 1636,-19 1636,0 1767,0 1767,-19"/>
<text text-anchor="middle" x="1701.5" y="-7" font-family="Courier,monospace" font-size="10.00">SideTotFluxIntegral</text>
</a>
</g>
</g>
<!-- Node47&#45;&gt;Node54 -->
<g id="edge53" class="edge">
<title>Node47&#45;&gt;Node54</title>
<path fill="none" stroke="#63b8ff" d="M1491.82,-97.02C1518.9,-77.79 1566.6,-46.35 1612,-28.5 1621.21,-24.88 1631.25,-21.89 1641.15,-19.44"/>
<polygon fill="#63b8ff" stroke="#63b8ff" points="1489.79,-94.17 1483.72,-102.85 1493.88,-99.85 1489.79,-94.17"/>
</g>
<!-- Node49 -->
<g id="node49" class="node">
<title>Node49</title>
<g id="a_node49"><a xlink:href="classSideDiffusiveFluxAverageTempl.html" target="_top" xlink:title=" ">
<polygon fill="white" stroke="#666666" points="2003,-192.5 1842,-192.5 1842,-162.5 2003,-162.5 2003,-192.5"/>
<text text-anchor="start" x="1850" y="-180.5" font-family="Courier,monospace" font-size="10.00">SideDiffusiveFluxAverage</text>
<text text-anchor="middle" x="1922.5" y="-169.5" font-family="Courier,monospace" font-size="10.00">Templ&lt; is_ad &gt;</text>
</a>
</g>
</g>
<!-- Node48&#45;&gt;Node49 -->
<g id="edge48" class="edge">
<title>Node48&#45;&gt;Node49</title>
<path fill="none" stroke="#63b8ff" d="M1796.7,-176.36C1811.75,-176.5 1827.18,-176.64 1841.85,-176.77"/>
<polygon fill="#63b8ff" stroke="#63b8ff" points="1796.84,-172.86 1786.81,-176.27 1796.78,-179.86 1796.84,-172.86"/>
</g>
<!-- Node51 -->
<g id="node51" class="node">
<title>Node51</title>
<g id="a_node51"><a xlink:href="classAxisymmetricCenterlineAverageValue.html" target="_top" xlink:title="This postprocessor computes a line integral of the specified variable along the centerline of an axis...">
<polygon fill="white" stroke="#666666" points="2018,-144.5 1827,-144.5 1827,-114.5 2018,-114.5 2018,-144.5"/>
<text text-anchor="start" x="1835" y="-132.5" font-family="Courier,monospace" font-size="10.00">AxisymmetricCenterlineAverage</text>
<text text-anchor="middle" x="1922.5" y="-121.5" font-family="Courier,monospace" font-size="10.00">Value</text>
</a>
</g>
</g>
<!-- Node50&#45;&gt;Node51 -->
<g id="edge50" class="edge">
<title>Node50&#45;&gt;Node51</title>
<path fill="none" stroke="#63b8ff" d="M1769.84,-131.58C1787.78,-131.33 1807.51,-131.06 1826.63,-130.8"/>
<polygon fill="#63b8ff" stroke="#63b8ff" points="1769.79,-128.08 1759.84,-131.71 1769.89,-135.08 1769.79,-128.08"/>
</g>
</g>
</svg>
