<?xml version="1.0" encoding="UTF-8" standalone="no"?>
<!DOCTYPE svg PUBLIC "-//W3C//DTD SVG 1.1//EN"
 "http://www.w3.org/Graphics/SVG/1.1/DTD/svg11.dtd">
<!-- Generated by graphviz version 7.0.5 (20221223.1930)
 -->
<!-- Title: NodalPostprocessor Pages: 1 -->
<svg width="1745pt" height="730pt"
 viewBox="0.00 0.00 1745.00 730.00" xmlns="http://www.w3.org/2000/svg" xmlns:xlink="http://www.w3.org/1999/xlink">
<g id="graph0" class="graph" transform="scale(1 1) rotate(0) translate(4 726)">
<title>NodalPostprocessor</title>
<!-- Node1 -->
<g id="node1" class="node">
<title>Node1</title>
<g id="a_node1"><a xlink:title=" ">
<polygon fill="#999999" stroke="#666666" points="1134,-167 1009,-167 1009,-148 1134,-148 1134,-167"/>
<text text-anchor="middle" x="1071.5" y="-155" font-family="Courier,monospace" font-size="10.00">NodalPostprocessor</text>
</a>
</g>
</g>
<!-- Node38 -->
<g id="node38" class="node">
<title>Node38</title>
<g id="a_node38"><a xlink:href="classNodalVariablePostprocessor.html" target="_top" xlink:title="This is a base class for other classes which compute post&#45;processed values based on nodal solution va...">
<polygon fill="white" stroke="#666666" points="1343,-167 1170,-167 1170,-148 1343,-148 1343,-167"/>
<text text-anchor="middle" x="1256.5" y="-155" font-family="Courier,monospace" font-size="10.00">NodalVariablePostprocessor</text>
</a>
</g>
</g>
<!-- Node1&#45;&gt;Node38 -->
<g id="edge37" class="edge">
<title>Node1&#45;&gt;Node38</title>
<path fill="none" stroke="#63b8ff" d="M1145.77,-157.5C1153.6,-157.5 1161.62,-157.5 1169.58,-157.5"/>
<polygon fill="#63b8ff" stroke="#63b8ff" points="1145.97,-154 1135.97,-157.5 1145.97,-161 1145.97,-154"/>
</g>
<!-- Node2 -->
<g id="node2" class="node">
<title>Node2</title>
<g id="a_node2"><a xlink:href="classNodalUserObject.html" target="_top" xlink:title="A user object that runs over all the nodes and does an aggregation step to compute a single value.">
<polygon fill="white" stroke="#666666" points="973,-259 866,-259 866,-240 973,-240 973,-259"/>
<text text-anchor="middle" x="919.5" y="-247" font-family="Courier,monospace" font-size="10.00">NodalUserObject</text>
</a>
</g>
</g>
<!-- Node2&#45;&gt;Node1 -->
<g id="edge1" class="edge">
<title>Node2&#45;&gt;Node1</title>
<path fill="none" stroke="#63b8ff" d="M946.26,-233.7C977.36,-214.63 1028.7,-183.14 1054.56,-167.27"/>
<polygon fill="#63b8ff" stroke="#63b8ff" points="944.54,-230.65 937.84,-238.86 948.2,-236.62 944.54,-230.65"/>
</g>
<!-- Node3 -->
<g id="node3" class="node">
<title>Node3</title>
<g id="a_node3"><a xlink:href="classUserObject.html" target="_top" xlink:title="Base class for user&#45;specific data.">
<polygon fill="white" stroke="#666666" points="764,-389 687,-389 687,-370 764,-370 764,-389"/>
<text text-anchor="middle" x="725.5" y="-377" font-family="Courier,monospace" font-size="10.00">UserObject</text>
</a>
</g>
</g>
<!-- Node3&#45;&gt;Node2 -->
<g id="edge2" class="edge">
<title>Node3&#45;&gt;Node2</title>
<path fill="none" stroke="#63b8ff" d="M775.48,-378.25C793.62,-375.98 813.73,-371.19 830,-361.5 872.8,-336.01 902.95,-281.5 913.93,-259.26"/>
<polygon fill="#63b8ff" stroke="#63b8ff" points="775.29,-374.75 765.69,-379.23 775.99,-381.72 775.29,-374.75"/>
</g>
<!-- Node4 -->
<g id="node4" class="node">
<title>Node4</title>
<g id="a_node4"><a xlink:href="classMooseObject.html" target="_top" xlink:title="Every object that can be built by the factory should be derived from this class.">
<polygon fill="white" stroke="#666666" points="534,-648 451,-648 451,-629 534,-629 534,-648"/>
<text text-anchor="middle" x="492.5" y="-636" font-family="Courier,monospace" font-size="10.00">MooseObject</text>
</a>
</g>
</g>
<!-- Node4&#45;&gt;Node3 -->
<g id="edge3" class="edge">
<title>Node4&#45;&gt;Node3</title>
<path fill="none" stroke="#63b8ff" d="M545.21,-636.08C559.11,-633.45 573.46,-628.74 585,-620.5 671.16,-558.97 711.99,-426.34 722,-389.29"/>
<polygon fill="#63b8ff" stroke="#63b8ff" points="545.08,-632.56 535.73,-637.54 546.15,-639.48 545.08,-632.56"/>
</g>
<!-- Node5 -->
<g id="node5" class="node">
<title>Node5</title>
<g id="a_node5"><a xlink:href="classMooseBase.html" target="_top" xlink:title="Base class for everything in MOOSE with a name and a type.">
<polygon fill="white" stroke="#666666" points="310,-722 239,-722 239,-703 310,-703 310,-722"/>
<text text-anchor="middle" x="274.5" y="-710" font-family="Courier,monospace" font-size="10.00">MooseBase</text>
</a>
</g>
</g>
<!-- Node5&#45;&gt;Node4 -->
<g id="edge4" class="edge">
<title>Node5&#45;&gt;Node4</title>
<path fill="none" stroke="#63b8ff" d="M321.62,-705.05C335.41,-702.31 350.46,-698.8 364,-694.5 403.87,-681.85 448.08,-660.72 472.56,-648.35"/>
<polygon fill="#63b8ff" stroke="#63b8ff" points="321.06,-701.59 311.89,-706.89 322.36,-708.47 321.06,-701.59"/>
</g>
<!-- Node6 -->
<g id="node6" class="node">
<title>Node6</title>
<g id="a_node6"><a xlink:href="classMooseBaseParameterInterface.html" target="_top" xlink:title="Every object that can be built by the factory should be derived from this class.">
<polygon fill="white" stroke="#666666" points="364,-685 185,-685 185,-666 364,-666 364,-685"/>
<text text-anchor="middle" x="274.5" y="-673" font-family="Courier,monospace" font-size="10.00">MooseBaseParameterInterface</text>
</a>
</g>
</g>
<!-- Node6&#45;&gt;Node4 -->
<g id="edge5" class="edge">
<title>Node6&#45;&gt;Node4</title>
<path fill="none" stroke="#63b8ff" d="M344.77,-663.63C379.7,-657.65 420.85,-650.6 450.68,-645.49"/>
<polygon fill="#63b8ff" stroke="#63b8ff" points="344.43,-660.14 335.16,-665.28 345.61,-667.04 344.43,-660.14"/>
</g>
<!-- Node7 -->
<g id="node7" class="node">
<title>Node7</title>
<g id="a_node7"><a xlink:href="classMooseBaseErrorInterface.html" target="_top" xlink:title="Interface that provides APIs to output errors/warnings/info messages.">
<polygon fill="white" stroke="#666666" points="352,-648 197,-648 197,-629 352,-629 352,-648"/>
<text text-anchor="middle" x="274.5" y="-636" font-family="Courier,monospace" font-size="10.00">MooseBaseErrorInterface</text>
</a>
</g>
</g>
<!-- Node7&#45;&gt;Node4 -->
<g id="edge6" class="edge">
<title>Node7&#45;&gt;Node4</title>
<path fill="none" stroke="#63b8ff" d="M363.7,-638.5C393.87,-638.5 426.17,-638.5 450.75,-638.5"/>
<polygon fill="#63b8ff" stroke="#63b8ff" points="363.78,-635 353.78,-638.5 363.78,-642 363.78,-635"/>
</g>
<!-- Node8 -->
<g id="node8" class="node">
<title>Node8</title>
<g id="a_node8"><a xlink:href="classConsoleStreamInterface.html" target="_top" xlink:title="An inteface for the _console for outputting to the Console object.">
<polygon fill="white" stroke="#666666" points="149,-648 0,-648 0,-629 149,-629 149,-648"/>
<text text-anchor="middle" x="74.5" y="-636" font-family="Courier,monospace" font-size="10.00">ConsoleStreamInterface</text>
</a>
</g>
</g>
<!-- Node8&#45;&gt;Node7 -->
<g id="edge7" class="edge">
<title>Node8&#45;&gt;Node7</title>
<path fill="none" stroke="#63b8ff" d="M160.62,-638.5C172.62,-638.5 184.9,-638.5 196.73,-638.5"/>
<polygon fill="#63b8ff" stroke="#63b8ff" points="160.74,-635 150.74,-638.5 160.74,-642 160.74,-635"/>
</g>
<!-- Node9 -->
<g id="node9" class="node">
<title>Node9</title>
<g id="a_node9"><a xlink:title=" ">
<polygon fill="white" stroke="#666666" points="352,-611 197,-611 197,-592 352,-592 352,-611"/>
<text text-anchor="middle" x="274.5" y="-599" font-family="Courier,monospace" font-size="10.00">libMesh::ParallelObject</text>
</a>
</g>
</g>
<!-- Node9&#45;&gt;Node4 -->
<g id="edge8" class="edge">
<title>Node9&#45;&gt;Node4</title>
<path fill="none" stroke="#63b8ff" d="M344.77,-613.37C379.7,-619.35 420.85,-626.4 450.68,-631.51"/>
<polygon fill="#63b8ff" stroke="#63b8ff" points="345.61,-609.96 335.16,-611.72 344.43,-616.86 345.61,-609.96"/>
</g>
<!-- Node10 -->
<g id="node10" class="node">
<title>Node10</title>
<g id="a_node10"><a xlink:href="classDataFileInterface.html" target="_top" xlink:title=" ">
<polygon fill="white" stroke="#666666" points="337,-573.5 212,-573.5 212,-543.5 337,-543.5 337,-573.5"/>
<text text-anchor="start" x="220" y="-561.5" font-family="Courier,monospace" font-size="10.00">DataFileInterface&lt;</text>
<text text-anchor="middle" x="274.5" y="-550.5" font-family="Courier,monospace" font-size="10.00"> MooseObject &gt;</text>
</a>
</g>
</g>
<!-- Node10&#45;&gt;Node4 -->
<g id="edge9" class="edge">
<title>Node10&#45;&gt;Node4</title>
<path fill="none" stroke="#63b8ff" d="M347.62,-575.35C353.32,-577.73 358.86,-580.44 364,-583.5 383.71,-595.24 379.83,-609.57 400,-620.5 415.37,-628.83 434.06,-633.34 450.53,-635.76"/>
<polygon fill="#63b8ff" stroke="#63b8ff" points="349.23,-572.22 338.64,-571.94 346.74,-578.76 349.23,-572.22"/>
</g>
<!-- Node11 -->
<g id="node11" class="node">
<title>Node11</title>
<g id="a_node11"><a xlink:href="classSetupInterface.html" target="_top" xlink:title=" ">
<polygon fill="white" stroke="#666666" points="543,-611 442,-611 442,-592 543,-592 543,-611"/>
<text text-anchor="middle" x="492.5" y="-599" font-family="Courier,monospace" font-size="10.00">SetupInterface</text>
</a>
</g>
</g>
<!-- Node11&#45;&gt;Node3 -->
<g id="edge10" class="edge">
<title>Node11&#45;&gt;Node3</title>
<path fill="none" stroke="#63b8ff" d="M554.41,-596.38C565.19,-593.61 575.87,-589.52 585,-583.5 662.39,-532.51 708.5,-422.33 721.01,-389.15"/>
<polygon fill="#63b8ff" stroke="#63b8ff" points="553.71,-592.95 544.68,-598.49 555.2,-599.79 553.71,-592.95"/>
</g>
<!-- Node12 -->
<g id="node12" class="node">
<title>Node12</title>
<g id="a_node12"><a xlink:href="classFunctionInterface.html" target="_top" xlink:title="Interface for objects that need to use functions.">
<polygon fill="white" stroke="#666666" points="552,-574 433,-574 433,-555 552,-555 552,-574"/>
<text text-anchor="middle" x="492.5" y="-562" font-family="Courier,monospace" font-size="10.00">FunctionInterface</text>
</a>
</g>
</g>
<!-- Node12&#45;&gt;Node3 -->
<g id="edge11" class="edge">
<title>Node12&#45;&gt;Node3</title>
<path fill="none" stroke="darkgreen" d="M563.19,-556.04C570.84,-553.6 578.28,-550.48 585,-546.5 653.59,-505.89 703.88,-418.77 719.44,-389.4"/>
<polygon fill="darkgreen" stroke="darkgreen" points="562.45,-552.61 553.75,-558.66 564.32,-559.36 562.45,-552.61"/>
</g>
<!-- Node13 -->
<g id="node13" class="node">
<title>Node13</title>
<g id="a_node13"><a xlink:href="classUserObjectInterface.html" target="_top" xlink:title="Interface for objects that need to use UserObjects.">
<polygon fill="white" stroke="#666666" points="558,-537 427,-537 427,-518 558,-518 558,-537"/>
<text text-anchor="middle" x="492.5" y="-525" font-family="Courier,monospace" font-size="10.00">UserObjectInterface</text>
</a>
</g>
</g>
<!-- Node13&#45;&gt;Node3 -->
<g id="edge12" class="edge">
<title>Node13&#45;&gt;Node3</title>
<path fill="none" stroke="#63b8ff" d="M568.89,-516.24C574.47,-514.33 579.9,-512.1 585,-509.5 645.44,-478.63 698.54,-413.84 717.29,-389.25"/>
<polygon fill="#63b8ff" stroke="#63b8ff" points="568.04,-512.84 559.48,-519.08 570.06,-519.54 568.04,-512.84"/>
</g>
<!-- Node14 -->
<g id="node14" class="node">
<title>Node14</title>
<g id="a_node14"><a xlink:href="classPostprocessorInterface.html" target="_top" xlink:title="Interface class for classes which interact with Postprocessors.">
<polygon fill="white" stroke="#666666" points="567,-500 418,-500 418,-481 567,-481 567,-500"/>
<text text-anchor="middle" x="492.5" y="-488" font-family="Courier,monospace" font-size="10.00">PostprocessorInterface</text>
</a>
</g>
</g>
<!-- Node14&#45;&gt;Node3 -->
<g id="edge13" class="edge">
<title>Node14&#45;&gt;Node3</title>
<path fill="none" stroke="darkgreen" d="M571.39,-477.4C576.05,-475.93 580.62,-474.31 585,-472.5 637.2,-450.97 690.4,-408.66 713.1,-389.43"/>
<polygon fill="darkgreen" stroke="darkgreen" points="570.49,-474.02 561.84,-480.13 572.41,-480.75 570.49,-474.02"/>
</g>
<!-- Node15 -->
<g id="node15" class="node">
<title>Node15</title>
<g id="a_node15"><a xlink:href="classVectorPostprocessorInterface.html" target="_top" xlink:title=" ">
<polygon fill="white" stroke="#666666" points="585,-463 400,-463 400,-444 585,-444 585,-463"/>
<text text-anchor="middle" x="492.5" y="-451" font-family="Courier,monospace" font-size="10.00">VectorPostprocessorInterface</text>
</a>
</g>
</g>
<!-- Node15&#45;&gt;Node3 -->
<g id="edge14" class="edge">
<title>Node15&#45;&gt;Node3</title>
<path fill="none" stroke="darkgreen" d="M563.53,-441.13C570.82,-439.42 578.09,-437.55 585,-435.5 628.29,-422.68 676.78,-401.61 703.67,-389.3"/>
<polygon fill="darkgreen" stroke="darkgreen" points="562.95,-437.67 553.95,-443.26 564.47,-444.51 562.95,-437.67"/>
</g>
<!-- Node16 -->
<g id="node16" class="node">
<title>Node16</title>
<g id="a_node16"><a xlink:href="classReporterInterface.html" target="_top" xlink:title="Interface to allow object to consume Reporter values.">
<polygon fill="white" stroke="#666666" points="552,-426 433,-426 433,-407 552,-407 552,-426"/>
<text text-anchor="middle" x="492.5" y="-414" font-family="Courier,monospace" font-size="10.00">ReporterInterface</text>
</a>
</g>
</g>
<!-- Node16&#45;&gt;Node3 -->
<g id="edge15" class="edge">
<title>Node16&#45;&gt;Node3</title>
<path fill="none" stroke="darkgreen" d="M563.56,-405.28C604.05,-398.79 653.42,-390.89 686.71,-385.55"/>
<polygon fill="darkgreen" stroke="darkgreen" points="563.2,-401.79 553.88,-406.83 564.31,-408.7 563.2,-401.79"/>
</g>
<!-- Node17 -->
<g id="node17" class="node">
<title>Node17</title>
<g id="a_node17"><a xlink:href="classDistributionInterface.html" target="_top" xlink:title="Interface for objects that need to use distributions.">
<polygon fill="white" stroke="#666666" points="564,-389 421,-389 421,-370 564,-370 564,-389"/>
<text text-anchor="middle" x="492.5" y="-377" font-family="Courier,monospace" font-size="10.00">DistributionInterface</text>
</a>
</g>
</g>
<!-- Node17&#45;&gt;Node3 -->
<g id="edge16" class="edge">
<title>Node17&#45;&gt;Node3</title>
<path fill="none" stroke="darkgreen" d="M575.43,-379.5C613.35,-379.5 656.56,-379.5 686.65,-379.5"/>
<polygon fill="darkgreen" stroke="darkgreen" points="575.89,-376 565.89,-379.5 575.89,-383 575.89,-376"/>
</g>
<!-- Node18 -->
<g id="node18" class="node">
<title>Node18</title>
<g id="a_node18"><a xlink:href="classSamplerInterface.html" target="_top" xlink:title="Interface for objects that need to use samplers.">
<polygon fill="white" stroke="#666666" points="549,-352 436,-352 436,-333 549,-333 549,-352"/>
<text text-anchor="middle" x="492.5" y="-340" font-family="Courier,monospace" font-size="10.00">SamplerInterface</text>
</a>
</g>
</g>
<!-- Node18&#45;&gt;Node3 -->
<g id="edge17" class="edge">
<title>Node18&#45;&gt;Node3</title>
<path fill="none" stroke="darkgreen" d="M560.71,-353.26C601.74,-359.84 652.7,-368 686.78,-373.46"/>
<polygon fill="darkgreen" stroke="darkgreen" points="561.34,-349.82 550.91,-351.7 560.23,-356.73 561.34,-349.82"/>
</g>
<!-- Node19 -->
<g id="node19" class="node">
<title>Node19</title>
<g id="a_node19"><a xlink:href="classRestartable.html" target="_top" xlink:title="A class for creating restricted objects.">
<polygon fill="white" stroke="#666666" points="534,-315 451,-315 451,-296 534,-296 534,-315"/>
<text text-anchor="middle" x="492.5" y="-303" font-family="Courier,monospace" font-size="10.00">Restartable</text>
</a>
</g>
</g>
<!-- Node19&#45;&gt;Node3 -->
<g id="edge18" class="edge">
<title>Node19&#45;&gt;Node3</title>
<path fill="none" stroke="darkgreen" d="M545.55,-310.79C558.97,-313.61 573,-317.91 585,-324.5 605.11,-335.54 600.71,-350.79 621,-361.5 641.16,-372.14 666.31,-376.68 686.77,-378.54"/>
<polygon fill="darkgreen" stroke="darkgreen" points="546.44,-307.39 535.97,-309.03 545.18,-314.28 546.44,-307.39"/>
</g>
<!-- Node20 -->
<g id="node20" class="node">
<title>Node20</title>
<g id="a_node20"><a xlink:href="classMeshMetaDataInterface.html" target="_top" xlink:title="The Interface used to retrieve mesh meta data (attributes) set by the MeshGenerator system.">
<polygon fill="white" stroke="#666666" points="564,-278 421,-278 421,-259 564,-259 564,-278"/>
<text text-anchor="middle" x="492.5" y="-266" font-family="Courier,monospace" font-size="10.00">MeshMetaDataInterface</text>
</a>
</g>
</g>
<!-- Node20&#45;&gt;Node3 -->
<g id="edge19" class="edge">
<title>Node20&#45;&gt;Node3</title>
<path fill="none" stroke="darkgreen" d="M574.84,-280.96C578.42,-282.87 581.83,-285.03 585,-287.5 613.86,-309.96 591.78,-339.51 621,-361.5 639.65,-375.54 665.53,-380.04 686.74,-381.03"/>
<polygon fill="darkgreen" stroke="darkgreen" points="576.32,-277.79 565.77,-276.89 573.46,-284.18 576.32,-277.79"/>
</g>
<!-- Node21 -->
<g id="node21" class="node">
<title>Node21</title>
<g id="a_node21"><a xlink:href="classMeshChangedInterface.html" target="_top" xlink:title="Interface for notifications that the mesh has changed.">
<polygon fill="white" stroke="#666666" points="561,-241 424,-241 424,-222 561,-222 561,-241"/>
<text text-anchor="middle" x="492.5" y="-229" font-family="Courier,monospace" font-size="10.00">MeshChangedInterface</text>
</a>
</g>
</g>
<!-- Node21&#45;&gt;Node3 -->
<g id="edge20" class="edge">
<title>Node21&#45;&gt;Node3</title>
<path fill="none" stroke="darkgreen" d="M571.65,-241.44C576.47,-243.91 580.98,-246.9 585,-250.5 623.61,-285.12 581.83,-327.51 621,-361.5 638.84,-376.98 665.12,-381.4 686.73,-382"/>
<polygon fill="darkgreen" stroke="darkgreen" points="573.36,-238.37 562.79,-237.66 570.61,-244.8 573.36,-238.37"/>
</g>
<!-- Node22 -->
<g id="node22" class="node">
<title>Node22</title>
<g id="a_node22"><a xlink:href="classScalarCoupleable.html" target="_top" xlink:title="Interface for objects that needs scalar coupling capabilities.">
<polygon fill="white" stroke="#666666" points="549,-204 436,-204 436,-185 549,-185 549,-204"/>
<text text-anchor="middle" x="492.5" y="-192" font-family="Courier,monospace" font-size="10.00">ScalarCoupleable</text>
</a>
</g>
</g>
<!-- Node22&#45;&gt;Node3 -->
<g id="edge21" class="edge">
<title>Node22&#45;&gt;Node3</title>
<path fill="none" stroke="darkgreen" d="M560.13,-199.01C569.36,-202.15 578.04,-206.77 585,-213.5 633.67,-260.55 571.57,-315.25 621,-361.5 638.31,-377.7 664.73,-382.09 686.54,-382.48"/>
<polygon fill="darkgreen" stroke="darkgreen" points="561.15,-195.66 550.58,-196.38 559.29,-202.41 561.15,-195.66"/>
</g>
<!-- Node23 -->
<g id="node23" class="node">
<title>Node23</title>
<g id="a_node23"><a xlink:href="classPerfGraphInterface.html" target="_top" xlink:title="Interface for objects interacting with the PerfGraph.">
<polygon fill="white" stroke="#666666" points="555,-167 430,-167 430,-148 555,-148 555,-167"/>
<text text-anchor="middle" x="492.5" y="-155" font-family="Courier,monospace" font-size="10.00">PerfGraphInterface</text>
</a>
</g>
</g>
<!-- Node23&#45;&gt;Node3 -->
<g id="edge22" class="edge">
<title>Node23&#45;&gt;Node3</title>
<path fill="none" stroke="darkgreen" d="M565.85,-163.83C572.97,-166.88 579.56,-170.99 585,-176.5 643.86,-236.1 561.18,-302.86 621,-361.5 638,-378.16 664.56,-382.51 686.52,-382.78"/>
<polygon fill="darkgreen" stroke="darkgreen" points="567.13,-160.57 556.54,-160.58 564.83,-167.18 567.13,-160.57"/>
</g>
<!-- Node24 -->
<g id="node24" class="node">
<title>Node24</title>
<g id="a_node24"><a xlink:href="classDependencyResolverInterface.html" target="_top" xlink:title="Interface for sorting dependent vectors of objects.">
<polygon fill="white" stroke="#666666" points="582,-130 403,-130 403,-111 582,-111 582,-130"/>
<text text-anchor="middle" x="492.5" y="-118" font-family="Courier,monospace" font-size="10.00">DependencyResolverInterface</text>
</a>
</g>
</g>
<!-- Node24&#45;&gt;Node3 -->
<g id="edge23" class="edge">
<title>Node24&#45;&gt;Node3</title>
<path fill="none" stroke="#63b8ff" d="M582.3,-136.89C583.23,-137.72 584.13,-138.59 585,-139.5 654.11,-211.72 550.73,-290.42 621,-361.5 637.8,-378.49 664.51,-382.81 686.58,-382.97"/>
<polygon fill="#63b8ff" stroke="#63b8ff" points="584.62,-134.24 574.47,-131.2 580.5,-139.91 584.62,-134.24"/>
</g>
<!-- Node25 -->
<g id="node25" class="node">
<title>Node25</title>
<g id="a_node25"><a xlink:href="classBlockRestrictable.html" target="_top" xlink:title="An interface that restricts an object to subdomains via the &#39;blocks&#39; input parameter.">
<polygon fill="white" stroke="#666666" points="785,-352 666,-352 666,-333 785,-333 785,-352"/>
<text text-anchor="middle" x="725.5" y="-340" font-family="Courier,monospace" font-size="10.00">BlockRestrictable</text>
</a>
</g>
</g>
<!-- Node25&#45;&gt;Node2 -->
<g id="edge24" class="edge">
<title>Node25&#45;&gt;Node2</title>
<path fill="none" stroke="#63b8ff" d="M796.38,-335.57C807.94,-332.96 819.55,-329.39 830,-324.5 864.11,-308.54 895.61,-275.88 910.11,-259.43"/>
<polygon fill="#63b8ff" stroke="#63b8ff" points="795.96,-332.09 786.84,-337.49 797.34,-338.95 795.96,-332.09"/>
</g>
<!-- Node26 -->
<g id="node26" class="node">
<title>Node26</title>
<g id="a_node26"><a xlink:href="classBoundaryRestrictable.html" target="_top" xlink:title="/class BoundaryRestrictable /brief Provides functionality for limiting the object to certain boundary...">
<polygon fill="white" stroke="#666666" points="794,-315 657,-315 657,-296 794,-296 794,-315"/>
<text text-anchor="middle" x="725.5" y="-303" font-family="Courier,monospace" font-size="10.00">BoundaryRestrictable</text>
</a>
</g>
</g>
<!-- Node26&#45;&gt;Node2 -->
<g id="edge25" class="edge">
<title>Node26&#45;&gt;Node2</title>
<path fill="none" stroke="#63b8ff" d="M805.39,-293.76C813.76,-291.93 822.1,-289.85 830,-287.5 854.52,-280.21 881.35,-268.06 898.96,-259.46"/>
<polygon fill="#63b8ff" stroke="#63b8ff" points="804.96,-290.28 795.88,-295.73 806.38,-297.13 804.96,-290.28"/>
</g>
<!-- Node27 -->
<g id="node27" class="node">
<title>Node27</title>
<g id="a_node27"><a xlink:href="classCoupleable.html" target="_top" xlink:title="Interface for objects that needs coupling capabilities.">
<polygon fill="white" stroke="#666666" points="764,-278 687,-278 687,-259 764,-259 764,-278"/>
<text text-anchor="middle" x="725.5" y="-266" font-family="Courier,monospace" font-size="10.00">Coupleable</text>
</a>
</g>
</g>
<!-- Node27&#45;&gt;Node2 -->
<g id="edge26" class="edge">
<title>Node27&#45;&gt;Node2</title>
<path fill="none" stroke="#63b8ff" d="M775.78,-263.62C803.33,-260.9 837.66,-257.5 865.75,-254.72"/>
<polygon fill="#63b8ff" stroke="#63b8ff" points="775.55,-260.13 765.94,-264.6 776.24,-267.1 775.55,-260.13"/>
</g>
<!-- Node28 -->
<g id="node28" class="node">
<title>Node28</title>
<g id="a_node28"><a xlink:href="classMooseVariableDependencyInterface.html" target="_top" xlink:title=" ">
<polygon fill="white" stroke="#666666" points="830,-241 621,-241 621,-222 830,-222 830,-241"/>
<text text-anchor="middle" x="725.5" y="-229" font-family="Courier,monospace" font-size="10.00">MooseVariableDependencyInterface</text>
</a>
</g>
</g>
<!-- Node28&#45;&gt;Node2 -->
<g id="edge27" class="edge">
<title>Node28&#45;&gt;Node2</title>
<path fill="none" stroke="#63b8ff" d="M841.72,-242.3C849.98,-243.08 858.04,-243.83 865.64,-244.54"/>
<polygon fill="#63b8ff" stroke="#63b8ff" points="842.16,-238.83 831.87,-241.38 841.5,-245.8 842.16,-238.83"/>
</g>
<!-- Node29 -->
<g id="node29" class="node">
<title>Node29</title>
<g id="a_node29"><a xlink:href="classTransientInterface.html" target="_top" xlink:title="Interface for objects that needs transient capabilities.">
<polygon fill="white" stroke="#666666" points="788,-204 663,-204 663,-185 788,-185 788,-204"/>
<text text-anchor="middle" x="725.5" y="-192" font-family="Courier,monospace" font-size="10.00">TransientInterface</text>
</a>
</g>
</g>
<!-- Node29&#45;&gt;Node2 -->
<g id="edge28" class="edge">
<title>Node29&#45;&gt;Node2</title>
<path fill="none" stroke="#63b8ff" d="M799.43,-205.94C809.77,-208.13 820.21,-210.64 830,-213.5 853.73,-220.42 879.81,-231.48 897.48,-239.52"/>
<polygon fill="#63b8ff" stroke="#63b8ff" points="800.26,-202.54 789.77,-204 798.88,-209.4 800.26,-202.54"/>
</g>
<!-- Node30 -->
<g id="node30" class="node">
<title>Node30</title>
<g id="a_node30"><a xlink:href="classRandomInterface.html" target="_top" xlink:title="Interface for objects that need parallel consistent random numbers without patterns over the course o...">
<polygon fill="white" stroke="#666666" points="779,-167 672,-167 672,-148 779,-148 779,-167"/>
<text text-anchor="middle" x="725.5" y="-155" font-family="Courier,monospace" font-size="10.00">RandomInterface</text>
</a>
</g>
</g>
<!-- Node30&#45;&gt;Node2 -->
<g id="edge29" class="edge">
<title>Node30&#45;&gt;Node2</title>
<path fill="none" stroke="#63b8ff" d="M790.56,-164.02C803.99,-166.82 817.77,-170.81 830,-176.5 863.59,-192.13 895.09,-223.59 909.8,-239.62"/>
<polygon fill="#63b8ff" stroke="#63b8ff" points="791.37,-160.62 780.9,-162.22 790.09,-167.5 791.37,-160.62"/>
</g>
<!-- Node31 -->
<g id="node31" class="node">
<title>Node31</title>
<g id="a_node31"><a xlink:href="classPostprocessor.html" target="_top" xlink:title="Base class for all Postprocessors.">
<polygon fill="white" stroke="#666666" points="967,-112 872,-112 872,-93 967,-93 967,-112"/>
<text text-anchor="middle" x="919.5" y="-100" font-family="Courier,monospace" font-size="10.00">Postprocessor</text>
</a>
</g>
</g>
<!-- Node31&#45;&gt;Node1 -->
<g id="edge30" class="edge">
<title>Node31&#45;&gt;Node1</title>
<path fill="none" stroke="#63b8ff" d="M958.44,-116.41C984.89,-126.11 1019.56,-138.82 1043.29,-147.52"/>
<polygon fill="#63b8ff" stroke="#63b8ff" points="959.68,-113.14 949.08,-112.98 957.27,-119.71 959.68,-113.14"/>
</g>
<!-- Node32 -->
<g id="node32" class="node">
<title>Node32</title>
<g id="a_node32"><a xlink:href="classOutputInterface.html" target="_top" xlink:title="A class to provide an common interface to objects requiring &quot;outputs&quot; option.">
<polygon fill="white" stroke="#666666" points="779,-130 672,-130 672,-111 779,-111 779,-130"/>
<text text-anchor="middle" x="725.5" y="-118" font-family="Courier,monospace" font-size="10.00">OutputInterface</text>
</a>
</g>
</g>
<!-- Node32&#45;&gt;Node31 -->
<g id="edge31" class="edge">
<title>Node32&#45;&gt;Node31</title>
<path fill="none" stroke="#63b8ff" d="M790.93,-114.46C817.33,-111.98 847.32,-109.17 871.59,-106.9"/>
<polygon fill="#63b8ff" stroke="#63b8ff" points="790.61,-110.97 780.98,-115.39 791.26,-117.94 790.61,-110.97"/>
</g>
<!-- Node33 -->
<g id="node33" class="node">
<title>Node33</title>
<g id="a_node33"><a xlink:href="classNonADFunctorInterface.html" target="_top" xlink:title="An interface for accessing Moose::Functors for systems that do not care about automatic differentiati...">
<polygon fill="white" stroke="#666666" points="797,-93 654,-93 654,-74 797,-74 797,-93"/>
<text text-anchor="middle" x="725.5" y="-81" font-family="Courier,monospace" font-size="10.00">NonADFunctorInterface</text>
</a>
</g>
</g>
<!-- Node33&#45;&gt;Node31 -->
<g id="edge32" class="edge">
<title>Node33&#45;&gt;Node31</title>
<path fill="none" stroke="#63b8ff" d="M808.62,-91.63C830.19,-93.76 852.72,-95.99 871.72,-97.87"/>
<polygon fill="#63b8ff" stroke="#63b8ff" points="809.25,-88.17 798.95,-90.67 808.56,-95.14 809.25,-88.17"/>
</g>
<!-- Node34 -->
<g id="node34" class="node">
<title>Node34</title>
<g id="a_node34"><a xlink:href="classFunctorInterface.html" target="_top" xlink:title="An interface for accessing Moose::Functors.">
<polygon fill="white" stroke="#666666" points="549,-93 436,-93 436,-74 549,-74 549,-93"/>
<text text-anchor="middle" x="492.5" y="-81" font-family="Courier,monospace" font-size="10.00">FunctorInterface</text>
</a>
</g>
</g>
<!-- Node34&#45;&gt;Node33 -->
<g id="edge33" class="edge">
<title>Node34&#45;&gt;Node33</title>
<path fill="none" stroke="#63b8ff" d="M560.76,-83.5C589.96,-83.5 624.18,-83.5 653.77,-83.5"/>
<polygon fill="#63b8ff" stroke="#63b8ff" points="560.93,-80 550.93,-83.5 560.93,-87 560.93,-80"/>
</g>
<!-- Node35 -->
<g id="node35" class="node">
<title>Node35</title>
<g id="a_node35"><a xlink:href="classMoose_1_1FunctorBase.html" target="_top" xlink:title=" ">
<polygon fill="white" stroke="#666666" points="788,-55.5 663,-55.5 663,-25.5 788,-25.5 788,-55.5"/>
<text text-anchor="start" x="671" y="-43.5" font-family="Courier,monospace" font-size="10.00">Moose::FunctorBase</text>
<text text-anchor="middle" x="725.5" y="-32.5" font-family="Courier,monospace" font-size="10.00">&lt; Real &gt;</text>
</a>
</g>
</g>
<!-- Node35&#45;&gt;Node31 -->
<g id="edge34" class="edge">
<title>Node35&#45;&gt;Node31</title>
<path fill="none" stroke="#63b8ff" d="M799.44,-55.69C809.78,-58.34 820.22,-61.29 830,-64.5 853.99,-72.36 880.47,-84.17 898.16,-92.53"/>
<polygon fill="#63b8ff" stroke="#63b8ff" points="800.31,-52.3 789.76,-53.3 798.63,-59.1 800.31,-52.3"/>
</g>
<!-- Node36 -->
<g id="node36" class="node">
<title>Node36</title>
<g id="a_node36"><a xlink:href="classMoose_1_1FunctorAbstract.html" target="_top" xlink:title="Abstract base class that can be used to hold collections of functors.">
<polygon fill="white" stroke="#666666" points="567,-50 418,-50 418,-31 567,-31 567,-50"/>
<text text-anchor="middle" x="492.5" y="-38" font-family="Courier,monospace" font-size="10.00">Moose::FunctorAbstract</text>
</a>
</g>
</g>
<!-- Node36&#45;&gt;Node35 -->
<g id="edge35" class="edge">
<title>Node36&#45;&gt;Node35</title>
<path fill="none" stroke="#63b8ff" d="M578.58,-40.5C606.46,-40.5 636.88,-40.5 662.7,-40.5"/>
<polygon fill="#63b8ff" stroke="#63b8ff" points="578.74,-37 568.74,-40.5 578.74,-44 578.74,-37"/>
</g>
<!-- Node37 -->
<g id="node37" class="node">
<title>Node37</title>
<g id="a_node37"><a xlink:href="classFaceArgInterface.html" target="_top" xlink:title="A base class interface for both producers and consumers of functor face arguments,...">
<polygon fill="white" stroke="#666666" points="331,-50 218,-50 218,-31 331,-31 331,-50"/>
<text text-anchor="middle" x="274.5" y="-38" font-family="Courier,monospace" font-size="10.00">FaceArgInterface</text>
</a>
</g>
</g>
<!-- Node37&#45;&gt;Node36 -->
<g id="edge36" class="edge">
<title>Node37&#45;&gt;Node36</title>
<path fill="none" stroke="#63b8ff" d="M342.78,-40.5C366.49,-40.5 393.27,-40.5 417.51,-40.5"/>
<polygon fill="#63b8ff" stroke="#63b8ff" points="342.92,-37 332.92,-40.5 342.92,-44 342.92,-37"/>
</g>
<!-- Node39 -->
<g id="node39" class="node">
<title>Node39</title>
<g id="a_node39"><a xlink:href="classExtremeValueBase.html" target="_top" xlink:title=" ">
<polygon fill="white" stroke="#666666" points="1582,-326.5 1379,-326.5 1379,-296.5 1582,-296.5 1582,-326.5"/>
<text text-anchor="start" x="1387" y="-314.5" font-family="Courier,monospace" font-size="10.00">ExtremeValueBase&lt; NodalVariable</text>
<text text-anchor="middle" x="1480.5" y="-303.5" font-family="Courier,monospace" font-size="10.00">Postprocessor &gt;</text>
</a>
</g>
</g>
<!-- Node38&#45;&gt;Node39 -->
<g id="edge38" class="edge">
<title>Node38&#45;&gt;Node39</title>
<path fill="none" stroke="#63b8ff" d="M1270.01,-176.87C1289.63,-205.64 1330.48,-259.28 1379,-287.5 1384.66,-290.79 1390.75,-293.63 1397.03,-296.08"/>
<polygon fill="#63b8ff" stroke="#63b8ff" points="1273.05,-175.13 1264.6,-168.75 1267.23,-179.01 1273.05,-175.13"/>
</g>
<!-- Node41 -->
<g id="node41" class="node">
<title>Node41</title>
<g id="a_node41"><a xlink:href="classAverageNodalDensity.html" target="_top" xlink:title=" ">
<polygon fill="white" stroke="#666666" points="1546,-278 1415,-278 1415,-259 1546,-259 1546,-278"/>
<text text-anchor="middle" x="1480.5" y="-266" font-family="Courier,monospace" font-size="10.00">AverageNodalDensity</text>
</a>
</g>
</g>
<!-- Node38&#45;&gt;Node41 -->
<g id="edge40" class="edge">
<title>Node38&#45;&gt;Node41</title>
<path fill="none" stroke="#63b8ff" d="M1274.89,-175.24C1297.01,-196.68 1337.34,-232.13 1379,-250.5 1390.11,-255.4 1402.47,-258.96 1414.62,-261.56"/>
<polygon fill="#63b8ff" stroke="#63b8ff" points="1277.48,-172.88 1267.91,-168.33 1272.55,-177.85 1277.48,-172.88"/>
</g>
<!-- Node42 -->
<g id="node42" class="node">
<title>Node42</title>
<g id="a_node42"><a xlink:href="classAverageNodalDifference.html" target="_top" xlink:title=" ">
<polygon fill="white" stroke="#666666" points="1555,-241 1406,-241 1406,-222 1555,-222 1555,-241"/>
<text text-anchor="middle" x="1480.5" y="-229" font-family="Courier,monospace" font-size="10.00">AverageNodalDifference</text>
</a>
</g>
</g>
<!-- Node38&#45;&gt;Node42 -->
<g id="edge41" class="edge">
<title>Node38&#45;&gt;Node42</title>
<path fill="none" stroke="#63b8ff" d="M1284.89,-172.58C1309.01,-185.26 1345.42,-202.94 1379,-213.5 1389.06,-216.66 1399.87,-219.33 1410.55,-221.56"/>
<polygon fill="#63b8ff" stroke="#63b8ff" points="1286.85,-169.66 1276.38,-168.04 1283.55,-175.84 1286.85,-169.66"/>
</g>
<!-- Node43 -->
<g id="node43" class="node">
<title>Node43</title>
<g id="a_node43"><a xlink:href="classAverageNodalVariableValue.html" target="_top" xlink:title=" ">
<polygon fill="white" stroke="#666666" points="1564,-204 1397,-204 1397,-185 1564,-185 1564,-204"/>
<text text-anchor="middle" x="1480.5" y="-192" font-family="Courier,monospace" font-size="10.00">AverageNodalVariableValue</text>
</a>
</g>
</g>
<!-- Node38&#45;&gt;Node43 -->
<g id="edge42" class="edge">
<title>Node38&#45;&gt;Node43</title>
<path fill="none" stroke="#63b8ff" d="M1328.32,-169.3C1357.72,-174.2 1391.47,-179.83 1419.61,-184.52"/>
<polygon fill="#63b8ff" stroke="#63b8ff" points="1329.22,-165.9 1318.78,-167.71 1328.07,-172.81 1329.22,-165.9"/>
</g>
<!-- Node44 -->
<g id="node44" class="node">
<title>Node44</title>
<g id="a_node44"><a xlink:href="classNodalL2Error.html" target="_top" xlink:title=" ">
<polygon fill="white" stroke="#666666" points="1525,-167 1436,-167 1436,-148 1525,-148 1525,-167"/>
<text text-anchor="middle" x="1480.5" y="-155" font-family="Courier,monospace" font-size="10.00">NodalL2Error</text>
</a>
</g>
</g>
<!-- Node38&#45;&gt;Node44 -->
<g id="edge43" class="edge">
<title>Node38&#45;&gt;Node44</title>
<path fill="none" stroke="#63b8ff" d="M1354.54,-157.5C1382.9,-157.5 1412.5,-157.5 1435.76,-157.5"/>
<polygon fill="#63b8ff" stroke="#63b8ff" points="1354.84,-154 1344.84,-157.5 1354.84,-161 1354.84,-154"/>
</g>
<!-- Node45 -->
<g id="node45" class="node">
<title>Node45</title>
<g id="a_node45"><a xlink:href="classNodalL2Norm.html" target="_top" xlink:title="Computes the &quot;nodal&quot; L2&#45;norm of the coupled variable, which is defined by summing the square of its v...">
<polygon fill="white" stroke="#666666" points="1522,-130 1439,-130 1439,-111 1522,-111 1522,-130"/>
<text text-anchor="middle" x="1480.5" y="-118" font-family="Courier,monospace" font-size="10.00">NodalL2Norm</text>
</a>
</g>
</g>
<!-- Node38&#45;&gt;Node45 -->
<g id="edge44" class="edge">
<title>Node38&#45;&gt;Node45</title>
<path fill="none" stroke="#63b8ff" d="M1328.34,-145.69C1364.72,-139.63 1407.74,-132.46 1438.57,-127.32"/>
<polygon fill="#63b8ff" stroke="#63b8ff" points="1328.07,-142.19 1318.78,-147.29 1329.22,-149.1 1328.07,-142.19"/>
</g>
<!-- Node46 -->
<g id="node46" class="node">
<title>Node46</title>
<g id="a_node46"><a xlink:href="classNodalMaxValue.html" target="_top" xlink:title="This class computes a maximum (over all the nodal values) of the coupled variable.">
<polygon fill="white" stroke="#666666" points="1528,-93 1433,-93 1433,-74 1528,-74 1528,-93"/>
<text text-anchor="middle" x="1480.5" y="-81" font-family="Courier,monospace" font-size="10.00">NodalMaxValue</text>
</a>
</g>
</g>
<!-- Node38&#45;&gt;Node46 -->
<g id="edge45" class="edge">
<title>Node38&#45;&gt;Node46</title>
<path fill="none" stroke="#63b8ff" d="M1285.7,-142.41C1309.85,-130.05 1345.88,-112.96 1379,-102.5 1396.19,-97.07 1415.54,-92.96 1432.65,-89.98"/>
<polygon fill="#63b8ff" stroke="#63b8ff" points="1284.09,-139.3 1276.83,-147.01 1287.32,-145.51 1284.09,-139.3"/>
</g>
<!-- Node47 -->
<g id="node47" class="node">
<title>Node47</title>
<g id="a_node47"><a xlink:href="classNodalMaxValueId.html" target="_top" xlink:title="Computes the id of the node with the maximum value across all processes.">
<polygon fill="white" stroke="#666666" points="1534,-56 1427,-56 1427,-37 1534,-37 1534,-56"/>
<text text-anchor="middle" x="1480.5" y="-44" font-family="Courier,monospace" font-size="10.00">NodalMaxValueId</text>
</a>
</g>
</g>
<!-- Node38&#45;&gt;Node47 -->
<g id="edge46" class="edge">
<title>Node38&#45;&gt;Node47</title>
<path fill="none" stroke="#63b8ff" d="M1274.89,-139.76C1297.01,-118.32 1337.34,-82.87 1379,-64.5 1393.84,-57.96 1410.91,-53.79 1426.72,-51.14"/>
<polygon fill="#63b8ff" stroke="#63b8ff" points="1272.55,-137.15 1267.91,-146.67 1277.48,-142.12 1272.55,-137.15"/>
</g>
<!-- Node48 -->
<g id="node48" class="node">
<title>Node48</title>
<g id="a_node48"><a xlink:href="classNodalSum.html" target="_top" xlink:title="Computes a sum of the nodal values of the coupled variable.">
<polygon fill="white" stroke="#666666" points="1513,-19 1448,-19 1448,0 1513,0 1513,-19"/>
<text text-anchor="middle" x="1480.5" y="-7" font-family="Courier,monospace" font-size="10.00">NodalSum</text>
</a>
</g>
</g>
<!-- Node38&#45;&gt;Node48 -->
<g id="edge47" class="edge">
<title>Node38&#45;&gt;Node48</title>
<path fill="none" stroke="#63b8ff" d="M1269.52,-138.2C1288.78,-109.08 1329.45,-54.45 1379,-27.5 1400.18,-15.98 1427.22,-11.62 1447.91,-10.06"/>
<polygon fill="#63b8ff" stroke="#63b8ff" points="1266.71,-136.11 1264.24,-146.41 1272.6,-139.9 1266.71,-136.11"/>
</g>
<!-- Node40 -->
<g id="node40" class="node">
<title>Node40</title>
<g id="a_node40"><a xlink:href="classNodalExtremeValue.html" target="_top" xlink:title="A postprocessor for collecting the nodal min or max value.">
<polygon fill="white" stroke="#666666" points="1737,-321 1618,-321 1618,-302 1737,-302 1737,-321"/>
<text text-anchor="middle" x="1677.5" y="-309" font-family="Courier,monospace" font-size="10.00">NodalExtremeValue</text>
</a>
</g>
</g>
<!-- Node39&#45;&gt;Node40 -->
<g id="edge39" class="edge">
<title>Node39&#45;&gt;Node40</title>
<path fill="none" stroke="#63b8ff" d="M1593.71,-311.5C1601.94,-311.5 1610.02,-311.5 1617.72,-311.5"/>
<polygon fill="#63b8ff" stroke="#63b8ff" points="1593.94,-308 1583.94,-311.5 1593.94,-315 1593.94,-308"/>
</g>
</g>
</svg>
