<?xml version="1.0" encoding="UTF-8" standalone="no"?>
<!DOCTYPE svg PUBLIC "-//W3C//DTD SVG 1.1//EN"
 "http://www.w3.org/Graphics/SVG/1.1/DTD/svg11.dtd">
<!-- Generated by graphviz version 7.0.5 (20221223.1930)
 -->
<!-- Title: MooseVariableConstMonomial Pages: 1 -->
<svg width="1488pt" height="281pt"
 viewBox="0.00 0.00 1488.00 281.00" xmlns="http://www.w3.org/2000/svg" xmlns:xlink="http://www.w3.org/1999/xlink">
<g id="graph0" class="graph" transform="scale(1 1) rotate(0) translate(4 277)">
<title>MooseVariableConstMonomial</title>
<!-- Node1 -->
<g id="node1" class="node">
<title>Node1</title>
<g id="a_node1"><a xlink:title=" ">
<polygon fill="#999999" stroke="#666666" points="1480,-67 1307,-67 1307,-48 1480,-48 1480,-67"/>
<text text-anchor="middle" x="1393.5" y="-55" font-family="Courier,monospace" font-size="10.00">MooseVariableConstMonomial</text>
</a>
</g>
</g>
<!-- Node2 -->
<g id="node2" class="node">
<title>Node2</title>
<g id="a_node2"><a xlink:href="classMooseVariableFE.html" target="_top" xlink:title=" ">
<polygon fill="white" stroke="#666666" points="1271,-67 1116,-67 1116,-48 1271,-48 1271,-67"/>
<text text-anchor="middle" x="1193.5" y="-55" font-family="Courier,monospace" font-size="10.00">MooseVariableFE&lt; Real &gt;</text>
</a>
</g>
</g>
<!-- Node2&#45;&gt;Node1 -->
<g id="edge1" class="edge">
<title>Node2&#45;&gt;Node1</title>
<path fill="none" stroke="#63b8ff" d="M1282.79,-57.5C1290.67,-57.5 1298.64,-57.5 1306.5,-57.5"/>
<polygon fill="#63b8ff" stroke="#63b8ff" points="1282.85,-54 1272.85,-57.5 1282.85,-61 1282.85,-54"/>
</g>
<!-- Node3 -->
<g id="node3" class="node">
<title>Node3</title>
<g id="a_node3"><a xlink:href="classMooseVariableField.html" target="_top" xlink:title="Class for stuff related to variables.">
<polygon fill="white" stroke="#666666" points="1080,-72.5 955,-72.5 955,-42.5 1080,-42.5 1080,-72.5"/>
<text text-anchor="start" x="963" y="-60.5" font-family="Courier,monospace" font-size="10.00">MooseVariableField</text>
<text text-anchor="middle" x="1017.5" y="-49.5" font-family="Courier,monospace" font-size="10.00">&lt; OutputType &gt;</text>
</a>
</g>
</g>
<!-- Node3&#45;&gt;Node2 -->
<g id="edge2" class="edge">
<title>Node3&#45;&gt;Node2</title>
<path fill="none" stroke="#63b8ff" d="M1091.76,-57.5C1099.65,-57.5 1107.7,-57.5 1115.64,-57.5"/>
<polygon fill="#63b8ff" stroke="#63b8ff" points="1091.85,-54 1081.85,-57.5 1091.85,-61 1091.85,-54"/>
</g>
<!-- Node4 -->
<g id="node4" class="node">
<title>Node4</title>
<g id="a_node4"><a xlink:href="classMooseVariableFieldBase.html" target="_top" xlink:title="This class provides an interface for common operations on field variables of both FE and FV types wit...">
<polygon fill="white" stroke="#666666" points="904,-119 755,-119 755,-100 904,-100 904,-119"/>
<text text-anchor="middle" x="829.5" y="-107" font-family="Courier,monospace" font-size="10.00">MooseVariableFieldBase</text>
</a>
</g>
</g>
<!-- Node4&#45;&gt;Node3 -->
<g id="edge3" class="edge">
<title>Node4&#45;&gt;Node3</title>
<path fill="none" stroke="#63b8ff" d="M883.49,-96.83C895.22,-93.89 907.56,-90.68 919,-87.5 935.04,-83.04 952.45,-77.81 968.05,-72.98"/>
<polygon fill="#63b8ff" stroke="#63b8ff" points="882.82,-93.39 873.96,-99.2 884.51,-100.18 882.82,-93.39"/>
</g>
<!-- Node5 -->
<g id="node5" class="node">
<title>Node5</title>
<g id="a_node5"><a xlink:href="classMooseVariableBase.html" target="_top" xlink:title=" ">
<polygon fill="white" stroke="#666666" points="689,-125 570,-125 570,-106 689,-106 689,-125"/>
<text text-anchor="middle" x="629.5" y="-113" font-family="Courier,monospace" font-size="10.00">MooseVariableBase</text>
</a>
</g>
</g>
<!-- Node5&#45;&gt;Node4 -->
<g id="edge4" class="edge">
<title>Node5&#45;&gt;Node4</title>
<path fill="none" stroke="#63b8ff" d="M700.67,-113.37C718.2,-112.84 737.05,-112.27 754.75,-111.73"/>
<polygon fill="#63b8ff" stroke="#63b8ff" points="700.77,-109.87 690.88,-113.67 700.98,-116.87 700.77,-109.87"/>
</g>
<!-- Node6 -->
<g id="node6" class="node">
<title>Node6</title>
<g id="a_node6"><a xlink:href="classMooseObject.html" target="_top" xlink:title="Every object that can be built by the factory should be derived from this class.">
<polygon fill="white" stroke="#666666" points="501,-199 418,-199 418,-180 501,-180 501,-199"/>
<text text-anchor="middle" x="459.5" y="-187" font-family="Courier,monospace" font-size="10.00">MooseObject</text>
</a>
</g>
</g>
<!-- Node6&#45;&gt;Node5 -->
<g id="edge5" class="edge">
<title>Node6&#45;&gt;Node5</title>
<path fill="none" stroke="#63b8ff" d="M507.13,-175.96C511.18,-174.54 515.18,-173.05 519,-171.5 552.83,-157.77 590.32,-137.39 611.49,-125.38"/>
<polygon fill="#63b8ff" stroke="#63b8ff" points="506.24,-172.57 497.86,-179.05 508.45,-179.21 506.24,-172.57"/>
</g>
<!-- Node7 -->
<g id="node7" class="node">
<title>Node7</title>
<g id="a_node7"><a xlink:href="classMooseBase.html" target="_top" xlink:title="Base class for everything in MOOSE with a name and a type.">
<polygon fill="white" stroke="#666666" points="310,-273 239,-273 239,-254 310,-254 310,-273"/>
<text text-anchor="middle" x="274.5" y="-261" font-family="Courier,monospace" font-size="10.00">MooseBase</text>
</a>
</g>
</g>
<!-- Node7&#45;&gt;Node6 -->
<g id="edge6" class="edge">
<title>Node7&#45;&gt;Node6</title>
<path fill="none" stroke="#63b8ff" d="M321.62,-257.14C335.52,-254.42 350.63,-250.65 364,-245.5 394.96,-233.57 427.49,-211.99 445.15,-199.38"/>
<polygon fill="#63b8ff" stroke="#63b8ff" points="321.01,-253.69 311.79,-258.91 322.25,-260.58 321.01,-253.69"/>
</g>
<!-- Node8 -->
<g id="node8" class="node">
<title>Node8</title>
<g id="a_node8"><a xlink:href="classMooseBaseParameterInterface.html" target="_top" xlink:title="Every object that can be built by the factory should be derived from this class.">
<polygon fill="white" stroke="#666666" points="364,-236 185,-236 185,-217 364,-217 364,-236"/>
<text text-anchor="middle" x="274.5" y="-224" font-family="Courier,monospace" font-size="10.00">MooseBaseParameterInterface</text>
</a>
</g>
</g>
<!-- Node8&#45;&gt;Node6 -->
<g id="edge7" class="edge">
<title>Node8&#45;&gt;Node6</title>
<path fill="none" stroke="#63b8ff" d="M335.77,-214.31C362.64,-208.88 393.58,-202.63 417.68,-197.75"/>
<polygon fill="#63b8ff" stroke="#63b8ff" points="335.13,-210.87 326.02,-216.28 336.52,-217.73 335.13,-210.87"/>
</g>
<!-- Node9 -->
<g id="node9" class="node">
<title>Node9</title>
<g id="a_node9"><a xlink:href="classMooseBaseErrorInterface.html" target="_top" xlink:title="Interface that provides APIs to output errors/warnings/info messages.">
<polygon fill="white" stroke="#666666" points="352,-199 197,-199 197,-180 352,-180 352,-199"/>
<text text-anchor="middle" x="274.5" y="-187" font-family="Courier,monospace" font-size="10.00">MooseBaseErrorInterface</text>
</a>
</g>
</g>
<!-- Node9&#45;&gt;Node6 -->
<g id="edge8" class="edge">
<title>Node9&#45;&gt;Node6</title>
<path fill="none" stroke="#63b8ff" d="M363.68,-189.5C382.52,-189.5 401.55,-189.5 417.57,-189.5"/>
<polygon fill="#63b8ff" stroke="#63b8ff" points="363.83,-186 353.83,-189.5 363.83,-193 363.83,-186"/>
</g>
<!-- Node10 -->
<g id="node10" class="node">
<title>Node10</title>
<g id="a_node10"><a xlink:href="classConsoleStreamInterface.html" target="_top" xlink:title="An inteface for the _console for outputting to the Console object.">
<polygon fill="white" stroke="#666666" points="149,-199 0,-199 0,-180 149,-180 149,-199"/>
<text text-anchor="middle" x="74.5" y="-187" font-family="Courier,monospace" font-size="10.00">ConsoleStreamInterface</text>
</a>
</g>
</g>
<!-- Node10&#45;&gt;Node9 -->
<g id="edge9" class="edge">
<title>Node10&#45;&gt;Node9</title>
<path fill="none" stroke="#63b8ff" d="M160.62,-189.5C172.62,-189.5 184.9,-189.5 196.73,-189.5"/>
<polygon fill="#63b8ff" stroke="#63b8ff" points="160.74,-186 150.74,-189.5 160.74,-193 160.74,-186"/>
</g>
<!-- Node11 -->
<g id="node11" class="node">
<title>Node11</title>
<g id="a_node11"><a xlink:title=" ">
<polygon fill="white" stroke="#666666" points="352,-162 197,-162 197,-143 352,-143 352,-162"/>
<text text-anchor="middle" x="274.5" y="-150" font-family="Courier,monospace" font-size="10.00">libMesh::ParallelObject</text>
</a>
</g>
</g>
<!-- Node11&#45;&gt;Node6 -->
<g id="edge10" class="edge">
<title>Node11&#45;&gt;Node6</title>
<path fill="none" stroke="#63b8ff" d="M335.77,-164.69C362.64,-170.12 393.58,-176.37 417.68,-181.25"/>
<polygon fill="#63b8ff" stroke="#63b8ff" points="336.52,-161.27 326.02,-162.72 335.13,-168.13 336.52,-161.27"/>
</g>
<!-- Node12 -->
<g id="node12" class="node">
<title>Node12</title>
<g id="a_node12"><a xlink:href="classDataFileInterface.html" target="_top" xlink:title=" ">
<polygon fill="white" stroke="#666666" points="337,-124.5 212,-124.5 212,-94.5 337,-94.5 337,-124.5"/>
<text text-anchor="start" x="220" y="-112.5" font-family="Courier,monospace" font-size="10.00">DataFileInterface&lt;</text>
<text text-anchor="middle" x="274.5" y="-101.5" font-family="Courier,monospace" font-size="10.00"> MooseObject &gt;</text>
</a>
</g>
</g>
<!-- Node12&#45;&gt;Node6 -->
<g id="edge11" class="edge">
<title>Node12&#45;&gt;Node6</title>
<path fill="none" stroke="#63b8ff" d="M347.62,-126.35C353.32,-128.73 358.86,-131.44 364,-134.5 383.71,-146.24 380.43,-159.53 400,-171.5 405.44,-174.83 411.54,-177.58 417.7,-179.85"/>
<polygon fill="#63b8ff" stroke="#63b8ff" points="349.23,-123.22 338.64,-122.94 346.74,-129.76 349.23,-123.22"/>
</g>
<!-- Node13 -->
<g id="node13" class="node">
<title>Node13</title>
<g id="a_node13"><a xlink:href="classBlockRestrictable.html" target="_top" xlink:title="An interface that restricts an object to subdomains via the &#39;blocks&#39; input parameter.">
<polygon fill="white" stroke="#666666" points="519,-162 400,-162 400,-143 519,-143 519,-162"/>
<text text-anchor="middle" x="459.5" y="-150" font-family="Courier,monospace" font-size="10.00">BlockRestrictable</text>
</a>
</g>
</g>
<!-- Node13&#45;&gt;Node5 -->
<g id="edge12" class="edge">
<title>Node13&#45;&gt;Node5</title>
<path fill="none" stroke="#63b8ff" d="M516.58,-140.15C538.29,-135.37 562.81,-129.97 583.35,-125.44"/>
<polygon fill="#63b8ff" stroke="#63b8ff" points="516.01,-136.69 507,-142.26 517.52,-143.53 516.01,-136.69"/>
</g>
<!-- Node14 -->
<g id="node14" class="node">
<title>Node14</title>
<g id="a_node14"><a xlink:href="classOutputInterface.html" target="_top" xlink:title="A class to provide an common interface to objects requiring &quot;outputs&quot; option.">
<polygon fill="white" stroke="#666666" points="513,-125 406,-125 406,-106 513,-106 513,-125"/>
<text text-anchor="middle" x="459.5" y="-113" font-family="Courier,monospace" font-size="10.00">OutputInterface</text>
</a>
</g>
</g>
<!-- Node14&#45;&gt;Node5 -->
<g id="edge13" class="edge">
<title>Node14&#45;&gt;Node5</title>
<path fill="none" stroke="#63b8ff" d="M524.34,-115.5C539.19,-115.5 554.93,-115.5 569.56,-115.5"/>
<polygon fill="#63b8ff" stroke="#63b8ff" points="524.71,-112 514.71,-115.5 524.71,-119 524.71,-112"/>
</g>
<!-- Node15 -->
<g id="node15" class="node">
<title>Node15</title>
<g id="a_node15"><a xlink:href="classSetupInterface.html" target="_top" xlink:title=" ">
<polygon fill="white" stroke="#666666" points="510,-88 409,-88 409,-69 510,-69 510,-88"/>
<text text-anchor="middle" x="459.5" y="-76" font-family="Courier,monospace" font-size="10.00">SetupInterface</text>
</a>
</g>
</g>
<!-- Node15&#45;&gt;Node5 -->
<g id="edge14" class="edge">
<title>Node15&#45;&gt;Node5</title>
<path fill="none" stroke="#63b8ff" d="M516.58,-90.85C538.29,-95.63 562.81,-101.03 583.35,-105.56"/>
<polygon fill="#63b8ff" stroke="#63b8ff" points="517.52,-87.47 507,-88.74 516.01,-94.31 517.52,-87.47"/>
</g>
<!-- Node16 -->
<g id="node16" class="node">
<title>Node16</title>
<g id="a_node16"><a xlink:href="classMoose_1_1FunctorBase.html" target="_top" xlink:title=" ">
<polygon fill="white" stroke="#666666" points="919,-78 740,-78 740,-37 919,-37 919,-78"/>
<text text-anchor="start" x="748" y="-66" font-family="Courier,monospace" font-size="10.00">Moose::FunctorBase</text>
<text text-anchor="start" x="748" y="-55" font-family="Courier,monospace" font-size="10.00">&lt; Moose::ADType&lt; OutputType</text>
<text text-anchor="middle" x="829.5" y="-44" font-family="Courier,monospace" font-size="10.00"> &gt;::type &gt;</text>
</a>
</g>
</g>
<!-- Node16&#45;&gt;Node3 -->
<g id="edge15" class="edge">
<title>Node16&#45;&gt;Node3</title>
<path fill="none" stroke="#63b8ff" d="M930.9,-57.5C939.01,-57.5 947.05,-57.5 954.76,-57.5"/>
<polygon fill="#63b8ff" stroke="#63b8ff" points="930.93,-54 920.93,-57.5 930.93,-61 930.93,-54"/>
</g>
<!-- Node17 -->
<g id="node17" class="node">
<title>Node17</title>
<g id="a_node17"><a xlink:href="classMoose_1_1FunctorAbstract.html" target="_top" xlink:title="Abstract base class that can be used to hold collections of functors.">
<polygon fill="white" stroke="#666666" points="704,-64 555,-64 555,-45 704,-45 704,-64"/>
<text text-anchor="middle" x="629.5" y="-52" font-family="Courier,monospace" font-size="10.00">Moose::FunctorAbstract</text>
</a>
</g>
</g>
<!-- Node17&#45;&gt;Node16 -->
<g id="edge16" class="edge">
<title>Node17&#45;&gt;Node16</title>
<path fill="none" stroke="#63b8ff" d="M715.73,-55.79C723.65,-55.91 731.69,-56.03 739.65,-56.15"/>
<polygon fill="#63b8ff" stroke="#63b8ff" points="715.79,-52.29 705.74,-55.64 715.69,-59.29 715.79,-52.29"/>
</g>
<!-- Node18 -->
<g id="node18" class="node">
<title>Node18</title>
<g id="a_node18"><a xlink:href="classFaceArgInterface.html" target="_top" xlink:title="A base class interface for both producers and consumers of functor face arguments,...">
<polygon fill="white" stroke="#666666" points="516,-51 403,-51 403,-32 516,-32 516,-51"/>
<text text-anchor="middle" x="459.5" y="-39" font-family="Courier,monospace" font-size="10.00">FaceArgInterface</text>
</a>
</g>
</g>
<!-- Node18&#45;&gt;Node17 -->
<g id="edge17" class="edge">
<title>Node18&#45;&gt;Node17</title>
<path fill="none" stroke="#63b8ff" d="M527.82,-46.71C536.62,-47.39 545.67,-48.09 554.57,-48.78"/>
<polygon fill="#63b8ff" stroke="#63b8ff" points="528.19,-43.23 517.95,-45.95 527.65,-50.21 528.19,-43.23"/>
</g>
<!-- Node19 -->
<g id="node19" class="node">
<title>Node19</title>
<g id="a_node19"><a xlink:href="classMeshChangedInterface.html" target="_top" xlink:title="Interface for notifications that the mesh has changed.">
<polygon fill="white" stroke="#666666" points="898,-19 761,-19 761,0 898,0 898,-19"/>
<text text-anchor="middle" x="829.5" y="-7" font-family="Courier,monospace" font-size="10.00">MeshChangedInterface</text>
</a>
</g>
</g>
<!-- Node19&#45;&gt;Node3 -->
<g id="edge18" class="edge">
<title>Node19&#45;&gt;Node3</title>
<path fill="none" stroke="#63b8ff" d="M894.69,-21.78C902.9,-23.58 911.17,-25.5 919,-27.5 935.65,-31.74 953.68,-37.08 969.65,-42.07"/>
<polygon fill="#63b8ff" stroke="#63b8ff" points="895.56,-18.39 885.05,-19.73 894.1,-25.24 895.56,-18.39"/>
</g>
</g>
</svg>
