<?xml version="1.0" encoding="UTF-8" standalone="no"?>
<!DOCTYPE svg PUBLIC "-//W3C//DTD SVG 1.1//EN"
 "http://www.w3.org/Graphics/SVG/1.1/DTD/svg11.dtd">
<!-- Generated by graphviz version 7.0.5 (20221223.1930)
 -->
<!-- Title: FunctorDirichletBC Pages: 1 -->
<svg width="389pt" height="269pt"
 viewBox="0.00 0.00 389.00 269.00" xmlns="http://www.w3.org/2000/svg" xmlns:xlink="http://www.w3.org/1999/xlink">
<g id="graph0" class="graph" transform="scale(1 1) rotate(0) translate(4 265)">
<title>FunctorDirichletBC</title>
<!-- Node1 -->
<g id="node1" class="node">
<title>Node1</title>
<g id="a_node1"><a xlink:title="Dirichlet boundary condition with functor inputs.">
<polygon fill="#999999" stroke="#666666" points="211,-19 86,-19 86,0 211,0 211,-19"/>
<text text-anchor="middle" x="148.5" y="-7" font-family="Courier,monospace" font-size="10.00">FunctorDirichletBC</text>
</a>
</g>
</g>
<!-- Node2 -->
<g id="node2" class="node">
<title>Node2</title>
<g id="a_node2"><a xlink:href="classADDirichletBCBaseTempl.html" target="_top" xlink:title=" ">
<polygon fill="white" stroke="#666666" points="223,-85 74,-85 74,-55 223,-55 223,-85"/>
<text text-anchor="start" x="82" y="-73" font-family="Courier,monospace" font-size="10.00">ADDirichletBCBaseTempl</text>
<text text-anchor="middle" x="148.5" y="-62" font-family="Courier,monospace" font-size="10.00">&lt; Real &gt;</text>
</a>
</g>
</g>
<!-- Node2&#45;&gt;Node1 -->
<g id="edge1" class="edge">
<title>Node2&#45;&gt;Node1</title>
<path fill="none" stroke="#63b8ff" d="M148.5,-43.3C148.5,-34.65 148.5,-25.58 148.5,-19.18"/>
<polygon fill="#63b8ff" stroke="#63b8ff" points="145,-43.03 148.5,-53.03 152,-43.03 145,-43.03"/>
</g>
<!-- Node3 -->
<g id="node3" class="node">
<title>Node3</title>
<g id="a_node3"><a xlink:href="classADNodalBCTempl.html" target="_top" xlink:title="Base class for deriving any automatic differentiation boundary condition of a integrated type.">
<polygon fill="white" stroke="#666666" points="211,-151 86,-151 86,-121 211,-121 211,-151"/>
<text text-anchor="start" x="94" y="-139" font-family="Courier,monospace" font-size="10.00">ADNodalBCTempl&lt; T,</text>
<text text-anchor="middle" x="148.5" y="-128" font-family="Courier,monospace" font-size="10.00"> Base &gt;</text>
</a>
</g>
</g>
<!-- Node3&#45;&gt;Node2 -->
<g id="edge2" class="edge">
<title>Node3&#45;&gt;Node2</title>
<path fill="none" stroke="#63b8ff" d="M148.5,-109.39C148.5,-101.13 148.5,-92.28 148.5,-85.16"/>
<polygon fill="#63b8ff" stroke="#63b8ff" points="145,-109.28 148.5,-119.28 152,-109.28 145,-109.28"/>
</g>
<!-- Node4 -->
<g id="node4" class="node">
<title>Node4</title>
<g id="a_node4"><a xlink:title=" ">
<polygon fill="white" stroke="#666666" points="41,-206 0,-206 0,-187 41,-187 41,-206"/>
<text text-anchor="middle" x="20.5" y="-194" font-family="Courier,monospace" font-size="10.00">Base</text>
</a>
</g>
</g>
<!-- Node4&#45;&gt;Node3 -->
<g id="edge3" class="edge">
<title>Node4&#45;&gt;Node3</title>
<path fill="none" stroke="#63b8ff" d="M50.32,-181.87C70.3,-172.74 96.57,-160.74 116.91,-151.44"/>
<polygon fill="#63b8ff" stroke="#63b8ff" points="48.96,-178.65 41.32,-185.99 51.87,-185.01 48.96,-178.65"/>
</g>
<!-- Node5 -->
<g id="node5" class="node">
<title>Node5</title>
<g id="a_node5"><a xlink:href="classMooseVariableInterface.html" target="_top" xlink:title="Interface for objects that need to get values of MooseVariables.">
<polygon fill="white" stroke="#666666" points="238,-206 59,-206 59,-187 238,-187 238,-206"/>
<text text-anchor="middle" x="148.5" y="-194" font-family="Courier,monospace" font-size="10.00">MooseVariableInterface&lt; T &gt;</text>
</a>
</g>
</g>
<!-- Node5&#45;&gt;Node3 -->
<g id="edge4" class="edge">
<title>Node5&#45;&gt;Node3</title>
<path fill="none" stroke="#63b8ff" d="M148.5,-175.51C148.5,-167.49 148.5,-158.43 148.5,-151.11"/>
<polygon fill="#63b8ff" stroke="#63b8ff" points="145,-175.35 148.5,-185.35 152,-175.35 145,-175.35"/>
</g>
<!-- Node6 -->
<g id="node6" class="node">
<title>Node6</title>
<g id="a_node6"><a xlink:href="classADFunctorInterface.html" target="_top" xlink:title="An interface for accessing Moose::Functors for systems that care about automatic differentiation,...">
<polygon fill="white" stroke="#666666" points="381,-206 256,-206 256,-187 381,-187 381,-206"/>
<text text-anchor="middle" x="318.5" y="-194" font-family="Courier,monospace" font-size="10.00">ADFunctorInterface</text>
</a>
</g>
</g>
<!-- Node6&#45;&gt;Node3 -->
<g id="edge5" class="edge">
<title>Node6&#45;&gt;Node3</title>
<path fill="none" stroke="#63b8ff" d="M281.81,-182.88C254.96,-173.64 218.47,-161.08 190.46,-151.44"/>
<polygon fill="#63b8ff" stroke="#63b8ff" points="280.65,-186.18 291.25,-186.12 282.93,-179.56 280.65,-186.18"/>
</g>
<!-- Node7 -->
<g id="node7" class="node">
<title>Node7</title>
<g id="a_node7"><a xlink:href="classFunctorInterface.html" target="_top" xlink:title="An interface for accessing Moose::Functors.">
<polygon fill="white" stroke="#666666" points="375,-261 262,-261 262,-242 375,-242 375,-261"/>
<text text-anchor="middle" x="318.5" y="-249" font-family="Courier,monospace" font-size="10.00">FunctorInterface</text>
</a>
</g>
</g>
<!-- Node7&#45;&gt;Node6 -->
<g id="edge6" class="edge">
<title>Node7&#45;&gt;Node6</title>
<path fill="none" stroke="#63b8ff" d="M318.5,-230.35C318.5,-222.1 318.5,-212.97 318.5,-206.44"/>
<polygon fill="#63b8ff" stroke="#63b8ff" points="315,-230.23 318.5,-240.23 322,-230.23 315,-230.23"/>
</g>
</g>
</svg>
