<?xml version="1.0" encoding="UTF-8" standalone="no"?>
<!DOCTYPE svg PUBLIC "-//W3C//DTD SVG 1.1//EN"
 "http://www.w3.org/Graphics/SVG/1.1/DTD/svg11.dtd">
<!-- Generated by graphviz version 7.0.5 (20221223.1930)
 -->
<!-- Title: MooseMesh Pages: 1 -->
<!--zoomable 360 -->
<svg id="main" version="1.1" xmlns="http://www.w3.org/2000/svg" xmlns:xlink="http://www.w3.org/1999/xlink" xml:space="preserve" onload="init(evt)">
<style type="text/css"><![CDATA[
.edge:hover path { stroke: red; }
.edge:hover polygon { stroke: red; fill: red; }
]]></style>
<script type="text/javascript"><![CDATA[
var edges = document.getElementsByTagName('g');
if (edges && edges.length) {
  for (var i=0;i<edges.length;i++) {
    if (edges[i].id.substr(0,4)=='edge') {
      edges[i].setAttribute('class','edge');
    }
  }
}
]]></script>
        <defs>
                <circle id="rim" cx="0" cy="0" r="7"/>
                <circle id="rim2" cx="0" cy="0" r="3.5"/>
                <g id="zoomPlus">
                        <use xlink:href="#rim" fill="#404040">
                                <set attributeName="fill" to="#808080" begin="zoomplus.mouseover" end="zoomplus.mouseout"/>
                        </use>
                        <path d="M-4,0h8M0,-4v8" fill="none" stroke="white" stroke-width="1.5" pointer-events="none"/>
                </g>
                <g id="zoomMin">
                        <use xlink:href="#rim" fill="#404040">
                                <set attributeName="fill" to="#808080" begin="zoomminus.mouseover" end="zoomminus.mouseout"/>
                        </use>
                        <path d="M-4,0h8" fill="none" stroke="white" stroke-width="1.5" pointer-events="none"/>
                </g>
                <g id="dirArrow">
                        <path fill="none" stroke="white" stroke-width="1.5" d="M0,-3.0v7 M-2.5,-0.5L0,-3.0L2.5,-0.5"/>
                </g>
               <g id="resetDef">
                       <use xlink:href="#rim2" fill="#404040">
                               <set attributeName="fill" to="#808080" begin="reset.mouseover" end="reset.mouseout"/>
                       </use>
               </g>
        </defs>

<script type="text/javascript">
var viewWidth = 920;
var viewHeight = 360;
var sectionId = 'dynsection-0';
</script>
<script xlink:href="svgpan.js"/>
<svg id="graph" class="graph">
<g id="viewport">
<title>MooseMesh</title>
<!-- Node1 -->
<g id="node1" class="node">
<title>Node1</title>
<g id="a_node1"><a xlink:title="MooseMesh wraps a libMesh::Mesh object and enhances its capabilities by caching additional data and s...">
<polygon fill="#999999" stroke="#666666" points="632,-185 561,-185 561,-166 632,-166 632,-185"/>
<text text-anchor="middle" x="596.5" y="-173" font-family="Courier,monospace" font-size="10.00">MooseMesh</text>
</a>
</g>
</g>
<!-- Node11 -->
<g id="node11" class="node">
<title>Node11</title>
<g id="a_node11"><a xlink:href="classAnnularMesh.html" target="_top" xlink:title="Mesh generated from parameters.">
<polygon fill="white" stroke="#666666" points="778,-352 695,-352 695,-333 778,-333 778,-352"/>
<text text-anchor="middle" x="736.5" y="-340" font-family="Courier,monospace" font-size="10.00">AnnularMesh</text>
</a>
</g>
</g>
<!-- Node1&#45;&gt;Node11 -->
<g id="edge10" class="edge">
<title>Node1&#45;&gt;Node11</title>
<path fill="none" stroke="#63b8ff" d="M601.54,-196.43C608.9,-228.82 627.63,-290.86 668,-324.5 675.55,-330.79 685.08,-334.9 694.58,-337.58"/>
<polygon fill="#63b8ff" stroke="#63b8ff" points="604.98,-195.78 599.49,-186.71 598.13,-197.22 604.98,-195.78"/>
</g>
<!-- Node12 -->
<g id="node12" class="node">
<title>Node12</title>
<g id="a_node12"><a xlink:href="classConcentricCircleMesh.html" target="_top" xlink:title="Mesh generated from parameters.">
<polygon fill="white" stroke="#666666" points="805,-315 668,-315 668,-296 805,-296 805,-315"/>
<text text-anchor="middle" x="736.5" y="-303" font-family="Courier,monospace" font-size="10.00">ConcentricCircleMesh</text>
</a>
</g>
</g>
<!-- Node1&#45;&gt;Node12 -->
<g id="edge11" class="edge">
<title>Node1&#45;&gt;Node12</title>
<path fill="none" stroke="#63b8ff" d="M604.9,-195.9C615.13,-221.24 636.06,-263.98 668,-287.5 672.39,-290.74 677.33,-293.39 682.48,-295.57"/>
<polygon fill="#63b8ff" stroke="#63b8ff" points="608.23,-194.82 601.38,-186.73 601.69,-197.32 608.23,-194.82"/>
</g>
<!-- Node13 -->
<g id="node13" class="node">
<title>Node13</title>
<g id="a_node13"><a xlink:href="classFileMesh.html" target="_top" xlink:title=" ">
<polygon fill="white" stroke="#666666" points="769,-278 704,-278 704,-259 769,-259 769,-278"/>
<text text-anchor="middle" x="736.5" y="-266" font-family="Courier,monospace" font-size="10.00">FileMesh</text>
</a>
</g>
</g>
<!-- Node1&#45;&gt;Node13 -->
<g id="edge12" class="edge">
<title>Node1&#45;&gt;Node13</title>
<path fill="none" stroke="#63b8ff" d="M610.54,-194.52C623.26,-211.64 644.15,-236.25 668,-250.5 678.83,-256.97 692,-261.15 703.82,-263.84"/>
<polygon fill="#63b8ff" stroke="#63b8ff" points="613.58,-192.75 604.91,-186.66 607.89,-196.83 613.58,-192.75"/>
</g>
<!-- Node14 -->
<g id="node14" class="node">
<title>Node14</title>
<g id="a_node14"><a xlink:href="classGeneratedMesh.html" target="_top" xlink:title="Mesh generated from parameters.">
<polygon fill="white" stroke="#666666" points="784,-241 689,-241 689,-222 784,-222 784,-241"/>
<text text-anchor="middle" x="736.5" y="-229" font-family="Courier,monospace" font-size="10.00">GeneratedMesh</text>
</a>
</g>
</g>
<!-- Node1&#45;&gt;Node14 -->
<g id="edge13" class="edge">
<title>Node1&#45;&gt;Node14</title>
<path fill="none" stroke="#63b8ff" d="M622.94,-191.08C636.05,-198.63 652.5,-207.35 668,-213.5 675.67,-216.54 684.02,-219.23 692.16,-221.55"/>
<polygon fill="#63b8ff" stroke="#63b8ff" points="624.92,-188.19 614.53,-186.13 621.37,-194.22 624.92,-188.19"/>
</g>
<!-- Node16 -->
<g id="node16" class="node">
<title>Node16</title>
<g id="a_node16"><a xlink:href="classMeshGeneratorMesh.html" target="_top" xlink:title="Mesh generated from parameters.">
<polygon fill="white" stroke="#666666" points="796,-204 677,-204 677,-185 796,-185 796,-204"/>
<text text-anchor="middle" x="736.5" y="-192" font-family="Courier,monospace" font-size="10.00">MeshGeneratorMesh</text>
</a>
</g>
</g>
<!-- Node1&#45;&gt;Node16 -->
<g id="edge15" class="edge">
<title>Node1&#45;&gt;Node16</title>
<path fill="none" stroke="#63b8ff" d="M643.45,-181.83C654.04,-183.28 665.46,-184.86 676.53,-186.38"/>
<polygon fill="#63b8ff" stroke="#63b8ff" points="644.21,-178.4 633.82,-180.5 643.25,-185.33 644.21,-178.4"/>
</g>
<!-- Node17 -->
<g id="node17" class="node">
<title>Node17</title>
<g id="a_node17"><a xlink:href="classPatternedMesh.html" target="_top" xlink:title="Reads one or more 2D mesh files and stitches them together based on a provided two&#45;dimensional patter...">
<polygon fill="white" stroke="#666666" points="784,-167 689,-167 689,-148 784,-148 784,-167"/>
<text text-anchor="middle" x="736.5" y="-155" font-family="Courier,monospace" font-size="10.00">PatternedMesh</text>
</a>
</g>
</g>
<!-- Node1&#45;&gt;Node17 -->
<g id="edge16" class="edge">
<title>Node1&#45;&gt;Node17</title>
<path fill="none" stroke="#63b8ff" d="M643.58,-169.49C658.09,-167.6 674.13,-165.5 688.7,-163.6"/>
<polygon fill="#63b8ff" stroke="#63b8ff" points="643.29,-166 633.82,-170.76 644.19,-172.94 643.29,-166"/>
</g>
<!-- Node18 -->
<g id="node18" class="node">
<title>Node18</title>
<g id="a_node18"><a xlink:href="classRinglebMesh.html" target="_top" xlink:title="Mesh generated from parameters.">
<polygon fill="white" stroke="#666666" points="778,-130 695,-130 695,-111 778,-111 778,-130"/>
<text text-anchor="middle" x="736.5" y="-118" font-family="Courier,monospace" font-size="10.00">RinglebMesh</text>
</a>
</g>
</g>
<!-- Node1&#45;&gt;Node18 -->
<g id="edge17" class="edge">
<title>Node1&#45;&gt;Node18</title>
<path fill="none" stroke="#63b8ff" d="M623.51,-160.07C636.54,-152.8 652.76,-144.45 668,-138.5 676.47,-135.19 685.78,-132.28 694.69,-129.81"/>
<polygon fill="#63b8ff" stroke="#63b8ff" points="622.08,-156.85 615.13,-164.85 625.55,-162.93 622.08,-156.85"/>
</g>
<!-- Node19 -->
<g id="node19" class="node">
<title>Node19</title>
<g id="a_node19"><a xlink:href="classSpiralAnnularMesh.html" target="_top" xlink:title="Mesh generated from parameters.">
<polygon fill="white" stroke="#666666" points="796,-93 677,-93 677,-74 796,-74 796,-93"/>
<text text-anchor="middle" x="736.5" y="-81" font-family="Courier,monospace" font-size="10.00">SpiralAnnularMesh</text>
</a>
</g>
</g>
<!-- Node1&#45;&gt;Node19 -->
<g id="edge18" class="edge">
<title>Node1&#45;&gt;Node19</title>
<path fill="none" stroke="#63b8ff" d="M610.59,-156.74C623.36,-139.85 644.27,-115.57 668,-101.5 673.43,-98.28 679.43,-95.63 685.56,-93.45"/>
<polygon fill="#63b8ff" stroke="#63b8ff" points="608.02,-154.34 604.95,-164.48 613.67,-158.46 608.02,-154.34"/>
</g>
<!-- Node20 -->
<g id="node20" class="node">
<title>Node20</title>
<g id="a_node20"><a xlink:href="classStitchedMesh.html" target="_top" xlink:title="Reads an arbitrary set of meshes and attempts to &quot;stitch&quot; (join) them along boundaries.">
<polygon fill="white" stroke="#666666" points="781,-56 692,-56 692,-37 781,-37 781,-56"/>
<text text-anchor="middle" x="736.5" y="-44" font-family="Courier,monospace" font-size="10.00">StitchedMesh</text>
</a>
</g>
</g>
<!-- Node1&#45;&gt;Node20 -->
<g id="edge19" class="edge">
<title>Node1&#45;&gt;Node20</title>
<path fill="none" stroke="#63b8ff" d="M604.94,-155.28C615.24,-130.17 636.22,-87.81 668,-64.5 674.94,-59.41 683.23,-55.76 691.58,-53.14"/>
<polygon fill="#63b8ff" stroke="#63b8ff" points="601.78,-153.77 601.41,-164.36 608.3,-156.31 601.78,-153.77"/>
</g>
<!-- Node21 -->
<g id="node21" class="node">
<title>Node21</title>
<g id="a_node21"><a xlink:href="classTiledMesh.html" target="_top" xlink:title=" ">
<polygon fill="white" stroke="#666666" points="772,-19 701,-19 701,0 772,0 772,-19"/>
<text text-anchor="middle" x="736.5" y="-7" font-family="Courier,monospace" font-size="10.00">TiledMesh</text>
</a>
</g>
</g>
<!-- Node1&#45;&gt;Node21 -->
<g id="edge20" class="edge">
<title>Node1&#45;&gt;Node21</title>
<path fill="none" stroke="#63b8ff" d="M601.58,-154.71C609,-122.53 627.81,-60.9 668,-27.5 677.14,-19.9 689.18,-15.48 700.55,-12.92"/>
<polygon fill="#63b8ff" stroke="#63b8ff" points="598.19,-153.84 599.52,-164.35 605.03,-155.3 598.19,-153.84"/>
</g>
<!-- Node2 -->
<g id="node2" class="node">
<title>Node2</title>
<g id="a_node2"><a xlink:href="classMooseObject.html" target="_top" xlink:title="Every object that can be built by the factory should be derived from this class.">
<polygon fill="white" stroke="#666666" points="504,-222 421,-222 421,-203 504,-203 504,-222"/>
<text text-anchor="middle" x="462.5" y="-210" font-family="Courier,monospace" font-size="10.00">MooseObject</text>
</a>
</g>
</g>
<!-- Node2&#45;&gt;Node1 -->
<g id="edge1" class="edge">
<title>Node2&#45;&gt;Node1</title>
<path fill="none" stroke="#63b8ff" d="M509.63,-199.57C526.49,-194.84 545.26,-189.58 560.94,-185.19"/>
<polygon fill="#63b8ff" stroke="#63b8ff" points="509.02,-196.11 500.33,-202.18 510.9,-202.85 509.02,-196.11"/>
</g>
<!-- Node3 -->
<g id="node3" class="node">
<title>Node3</title>
<g id="a_node3"><a xlink:href="classMooseBase.html" target="_top" xlink:title="Base class for everything in MOOSE with a name and a type.">
<polygon fill="white" stroke="#666666" points="310,-296 239,-296 239,-277 310,-277 310,-296"/>
<text text-anchor="middle" x="274.5" y="-284" font-family="Courier,monospace" font-size="10.00">MooseBase</text>
</a>
</g>
</g>
<!-- Node3&#45;&gt;Node2 -->
<g id="edge2" class="edge">
<title>Node3&#45;&gt;Node2</title>
<path fill="none" stroke="#63b8ff" d="M321.58,-280.02C335.48,-277.3 350.59,-273.56 364,-268.5 395.78,-256.5 429.4,-234.94 447.68,-222.36"/>
<polygon fill="#63b8ff" stroke="#63b8ff" points="320.97,-276.58 311.75,-281.8 322.21,-283.47 320.97,-276.58"/>
</g>
<!-- Node4 -->
<g id="node4" class="node">
<title>Node4</title>
<g id="a_node4"><a xlink:href="classMooseBaseParameterInterface.html" target="_top" xlink:title="Every object that can be built by the factory should be derived from this class.">
<polygon fill="white" stroke="#666666" points="364,-259 185,-259 185,-240 364,-240 364,-259"/>
<text text-anchor="middle" x="274.5" y="-247" font-family="Courier,monospace" font-size="10.00">MooseBaseParameterInterface</text>
</a>
</g>
</g>
<!-- Node4&#45;&gt;Node2 -->
<g id="edge3" class="edge">
<title>Node4&#45;&gt;Node2</title>
<path fill="none" stroke="#63b8ff" d="M336.48,-237.37C364.07,-231.88 395.96,-225.54 420.62,-220.63"/>
<polygon fill="#63b8ff" stroke="#63b8ff" points="335.95,-233.91 326.83,-239.29 337.32,-240.77 335.95,-233.91"/>
</g>
<!-- Node5 -->
<g id="node5" class="node">
<title>Node5</title>
<g id="a_node5"><a xlink:href="classMooseBaseErrorInterface.html" target="_top" xlink:title="Interface that provides APIs to output errors/warnings/info messages.">
<polygon fill="white" stroke="#666666" points="352,-222 197,-222 197,-203 352,-203 352,-222"/>
<text text-anchor="middle" x="274.5" y="-210" font-family="Courier,monospace" font-size="10.00">MooseBaseErrorInterface</text>
</a>
</g>
</g>
<!-- Node5&#45;&gt;Node2 -->
<g id="edge4" class="edge">
<title>Node5&#45;&gt;Node2</title>
<path fill="none" stroke="#63b8ff" d="M363.81,-212.5C383.7,-212.5 403.87,-212.5 420.67,-212.5"/>
<polygon fill="#63b8ff" stroke="#63b8ff" points="364.01,-209 354.01,-212.5 364.01,-216 364.01,-209"/>
</g>
<!-- Node6 -->
<g id="node6" class="node">
<title>Node6</title>
<g id="a_node6"><a xlink:href="classConsoleStreamInterface.html" target="_top" xlink:title="An inteface for the _console for outputting to the Console object.">
<polygon fill="white" stroke="#666666" points="149,-222 0,-222 0,-203 149,-203 149,-222"/>
<text text-anchor="middle" x="74.5" y="-210" font-family="Courier,monospace" font-size="10.00">ConsoleStreamInterface</text>
</a>
</g>
</g>
<!-- Node6&#45;&gt;Node5 -->
<g id="edge5" class="edge">
<title>Node6&#45;&gt;Node5</title>
<path fill="none" stroke="#63b8ff" d="M160.62,-212.5C172.62,-212.5 184.9,-212.5 196.73,-212.5"/>
<polygon fill="#63b8ff" stroke="#63b8ff" points="160.74,-209 150.74,-212.5 160.74,-216 160.74,-209"/>
</g>
<!-- Node7 -->
<g id="node7" class="node">
<title>Node7</title>
<g id="a_node7"><a xlink:title=" ">
<polygon fill="white" stroke="#666666" points="352,-185 197,-185 197,-166 352,-166 352,-185"/>
<text text-anchor="middle" x="274.5" y="-173" font-family="Courier,monospace" font-size="10.00">libMesh::ParallelObject</text>
</a>
</g>
</g>
<!-- Node7&#45;&gt;Node2 -->
<g id="edge6" class="edge">
<title>Node7&#45;&gt;Node2</title>
<path fill="none" stroke="#63b8ff" d="M336.48,-187.63C364.07,-193.12 395.96,-199.46 420.62,-204.37"/>
<polygon fill="#63b8ff" stroke="#63b8ff" points="337.32,-184.23 326.83,-185.71 335.95,-191.09 337.32,-184.23"/>
</g>
<!-- Node8 -->
<g id="node8" class="node">
<title>Node8</title>
<g id="a_node8"><a xlink:href="classDataFileInterface.html" target="_top" xlink:title=" ">
<polygon fill="white" stroke="#666666" points="337,-147.5 212,-147.5 212,-117.5 337,-117.5 337,-147.5"/>
<text text-anchor="start" x="220" y="-135.5" font-family="Courier,monospace" font-size="10.00">DataFileInterface&lt;</text>
<text text-anchor="middle" x="274.5" y="-124.5" font-family="Courier,monospace" font-size="10.00"> MooseObject &gt;</text>
</a>
</g>
</g>
<!-- Node8&#45;&gt;Node2 -->
<g id="edge7" class="edge">
<title>Node8&#45;&gt;Node2</title>
<path fill="none" stroke="#63b8ff" d="M347.62,-148.49C353.32,-150.82 358.86,-153.47 364,-156.5 383.77,-168.14 380.43,-181.52 400,-193.5 406.29,-197.35 413.42,-200.48 420.55,-203"/>
<polygon fill="#63b8ff" stroke="#63b8ff" points="349.23,-145.35 338.64,-145.17 346.8,-151.92 349.23,-145.35"/>
</g>
<!-- Node9 -->
<g id="node9" class="node">
<title>Node9</title>
<g id="a_node9"><a xlink:href="classRestartable.html" target="_top" xlink:title="A class for creating restricted objects.">
<polygon fill="white" stroke="#666666" points="504,-185 421,-185 421,-166 504,-166 504,-185"/>
<text text-anchor="middle" x="462.5" y="-173" font-family="Courier,monospace" font-size="10.00">Restartable</text>
</a>
</g>
</g>
<!-- Node9&#45;&gt;Node1 -->
<g id="edge8" class="edge">
<title>Node9&#45;&gt;Node1</title>
<path fill="none" stroke="#63b8ff" d="M515.48,-175.5C530.59,-175.5 546.73,-175.5 560.52,-175.5"/>
<polygon fill="#63b8ff" stroke="#63b8ff" points="515.7,-172 505.69,-175.5 515.69,-179 515.7,-172"/>
</g>
<!-- Node10 -->
<g id="node10" class="node">
<title>Node10</title>
<g id="a_node10"><a xlink:href="classPerfGraphInterface.html" target="_top" xlink:title="Interface for objects interacting with the PerfGraph.">
<polygon fill="white" stroke="#666666" points="525,-148 400,-148 400,-129 525,-129 525,-148"/>
<text text-anchor="middle" x="462.5" y="-136" font-family="Courier,monospace" font-size="10.00">PerfGraphInterface</text>
</a>
</g>
</g>
<!-- Node10&#45;&gt;Node1 -->
<g id="edge9" class="edge">
<title>Node10&#45;&gt;Node1</title>
<path fill="none" stroke="#63b8ff" d="M509.63,-151.43C526.49,-156.16 545.26,-161.42 560.94,-165.81"/>
<polygon fill="#63b8ff" stroke="#63b8ff" points="510.9,-148.15 500.33,-148.82 509.02,-154.89 510.9,-148.15"/>
</g>
<!-- Node15 -->
<g id="node15" class="node">
<title>Node15</title>
<g id="a_node15"><a xlink:href="classImageMesh.html" target="_top" xlink:title="A 2D GeneratedMesh where xmin, xmax, etc.">
<polygon fill="white" stroke="#666666" points="912,-241 841,-241 841,-222 912,-222 912,-241"/>
<text text-anchor="middle" x="876.5" y="-229" font-family="Courier,monospace" font-size="10.00">ImageMesh</text>
</a>
</g>
</g>
<!-- Node14&#45;&gt;Node15 -->
<g id="edge14" class="edge">
<title>Node14&#45;&gt;Node15</title>
<path fill="none" stroke="#63b8ff" d="M795.71,-231.5C810.98,-231.5 826.98,-231.5 840.61,-231.5"/>
<polygon fill="#63b8ff" stroke="#63b8ff" points="795.73,-228 785.73,-231.5 795.73,-235 795.73,-228"/>
</g>
</g>
</svg>
        <g id="navigator" transform="translate(0 0)" fill="#404254">
                <rect fill="#f2f5e9" fill-opacity="0.5" stroke="#606060" stroke-width=".5" x="0" y="0" width="60" height="60"/>
                <use id="zoomplus" xlink:href="#zoomPlus" x="17" y="9" onmousedown="handleZoom(evt,'in')"/>
                <use id="zoomminus" xlink:href="#zoomMin" x="42" y="9" onmousedown="handleZoom(evt,'out')"/>
                <use id="reset" xlink:href="#resetDef" x="30" y="36" onmousedown="handleReset()"/>
                <g id="arrowUp" xlink:href="#dirArrow" transform="translate(30 24)" onmousedown="handlePan(0,-1)">
                  <use xlink:href="#rim" fill="#404040">
                        <set attributeName="fill" to="#808080" begin="arrowUp.mouseover" end="arrowUp.mouseout"/>
                  </use>
                  <path fill="none" stroke="white" stroke-width="1.5" d="M0,-3.0v7 M-2.5,-0.5L0,-3.0L2.5,-0.5"/>
                </g>
                <g id="arrowRight" xlink:href="#dirArrow" transform="rotate(90) translate(36 -43)" onmousedown="handlePan(1,0)">
                  <use xlink:href="#rim" fill="#404040">
                        <set attributeName="fill" to="#808080" begin="arrowRight.mouseover" end="arrowRight.mouseout"/>
                  </use>
                  <path fill="none" stroke="white" stroke-width="1.5" d="M0,-3.0v7 M-2.5,-0.5L0,-3.0L2.5,-0.5"/>
                </g>
                <g id="arrowDown" xlink:href="#dirArrow" transform="rotate(180) translate(-30 -48)" onmousedown="handlePan(0,1)">
                  <use xlink:href="#rim" fill="#404040">
                        <set attributeName="fill" to="#808080" begin="arrowDown.mouseover" end="arrowDown.mouseout"/>
                  </use>
                  <path fill="none" stroke="white" stroke-width="1.5" d="M0,-3.0v7 M-2.5,-0.5L0,-3.0L2.5,-0.5"/>
                </g>
                <g id="arrowLeft" xlink:href="#dirArrow" transform="rotate(270) translate(-36 17)" onmousedown="handlePan(-1,0)">
                  <use xlink:href="#rim" fill="#404040">
                        <set attributeName="fill" to="#808080" begin="arrowLeft.mouseover" end="arrowLeft.mouseout"/>
                  </use>
                  <path fill="none" stroke="white" stroke-width="1.5" d="M0,-3.0v7 M-2.5,-0.5L0,-3.0L2.5,-0.5"/>
                </g>
        </g>
        <svg viewBox="0 0 15 15" width="100%" height="30px" preserveAspectRatio="xMaxYMin meet">
         <g id="arrow_out" transform="scale(0.3 0.3)">
          <a xlink:href="classMooseMesh__inherit__graph_org.svg" target="_base">
           <rect id="button" ry="5" rx="5" y="6" x="6" height="38" width="38"
                fill="#f2f5e9" fill-opacity="0.5" stroke="#606060" stroke-width="1.0"/>
           <path id="arrow"
             d="M 11.500037,31.436501 C 11.940474,20.09759 22.043105,11.32322 32.158766,21.979434 L 37.068811,17.246167 C 37.068811,17.246167 37.088388,32 37.088388,32 L 22.160133,31.978069 C 22.160133,31.978069 26.997745,27.140456 26.997745,27.140456 C 18.528582,18.264221 13.291696,25.230495 11.500037,31.436501 z"
             style="fill:#404040;"/>
          </a>
         </g>
        </svg>
</svg>
