<?xml version="1.0" encoding="UTF-8" standalone="no"?>
<!DOCTYPE svg PUBLIC "-//W3C//DTD SVG 1.1//EN"
 "http://www.w3.org/Graphics/SVG/1.1/DTD/svg11.dtd">
<!-- Generated by graphviz version 7.0.5 (20221223.1930)
 -->
<!-- Title: AdvectiveFluxAux Pages: 1 -->
<svg width="909pt" height="779pt"
 viewBox="0.00 0.00 909.00 779.00" xmlns="http://www.w3.org/2000/svg" xmlns:xlink="http://www.w3.org/1999/xlink">
<g id="graph0" class="graph" transform="scale(1 1) rotate(0) translate(4 775)">
<title>AdvectiveFluxAux</title>
<!-- Node1 -->
<g id="node1" class="node">
<title>Node1</title>
<g id="a_node1"><a xlink:title="Auxiliary kernel responsible for computing a component of the advection flux vector.">
<polygon fill="#999999" stroke="#666666" points="901,-352 788,-352 788,-333 901,-333 901,-352"/>
<text text-anchor="middle" x="844.5" y="-340" font-family="Courier,monospace" font-size="10.00">AdvectiveFluxAux</text>
</a>
</g>
</g>
<!-- Node2 -->
<g id="node2" class="node">
<title>Node2</title>
<g id="a_node2"><a xlink:href="classAuxKernelTempl.html" target="_top" xlink:title=" ">
<polygon fill="white" stroke="#666666" points="752,-352 681,-352 681,-333 752,-333 752,-352"/>
<text text-anchor="middle" x="716.5" y="-340" font-family="Courier,monospace" font-size="10.00">AuxKernel</text>
</a>
</g>
</g>
<!-- Node2&#45;&gt;Node1 -->
<g id="edge1" class="edge">
<title>Node2&#45;&gt;Node1</title>
<path fill="none" stroke="#63b8ff" d="M763.69,-342.5C771.45,-342.5 779.58,-342.5 787.55,-342.5"/>
<polygon fill="#63b8ff" stroke="#63b8ff" points="763.78,-339 753.78,-342.5 763.78,-346 763.78,-339"/>
</g>
<!-- Node3 -->
<g id="node3" class="node">
<title>Node3</title>
<g id="a_node3"><a xlink:href="classMooseObject.html" target="_top" xlink:title="Every object that can be built by the factory should be derived from this class.">
<polygon fill="white" stroke="#666666" points="579,-697 496,-697 496,-678 579,-678 579,-697"/>
<text text-anchor="middle" x="537.5" y="-685" font-family="Courier,monospace" font-size="10.00">MooseObject</text>
</a>
</g>
</g>
<!-- Node3&#45;&gt;Node2 -->
<g id="edge2" class="edge">
<title>Node3&#45;&gt;Node2</title>
<path fill="none" stroke="#63b8ff" d="M590.73,-690.33C610.03,-688.65 630.68,-683.19 645,-669.5 692.64,-623.95 711.23,-402.07 714.83,-352.38"/>
<polygon fill="#63b8ff" stroke="#63b8ff" points="590.58,-686.84 580.77,-690.85 590.94,-693.83 590.58,-686.84"/>
</g>
<!-- Node4 -->
<g id="node4" class="node">
<title>Node4</title>
<g id="a_node4"><a xlink:href="classMooseBase.html" target="_top" xlink:title="Base class for everything in MOOSE with a name and a type.">
<polygon fill="white" stroke="#666666" points="325,-771 254,-771 254,-752 325,-752 325,-771"/>
<text text-anchor="middle" x="289.5" y="-759" font-family="Courier,monospace" font-size="10.00">MooseBase</text>
</a>
</g>
</g>
<!-- Node4&#45;&gt;Node3 -->
<g id="edge3" class="edge">
<title>Node4&#45;&gt;Node3</title>
<path fill="none" stroke="#63b8ff" d="M336.54,-755.54C354.64,-752.66 375.47,-748.69 394,-743.5 438.28,-731.09 487.79,-709.88 515.24,-697.43"/>
<polygon fill="#63b8ff" stroke="#63b8ff" points="336.25,-752.04 326.89,-757 337.3,-758.96 336.25,-752.04"/>
</g>
<!-- Node5 -->
<g id="node5" class="node">
<title>Node5</title>
<g id="a_node5"><a xlink:href="classMooseBaseParameterInterface.html" target="_top" xlink:title="Every object that can be built by the factory should be derived from this class.">
<polygon fill="white" stroke="#666666" points="379,-734 200,-734 200,-715 379,-715 379,-734"/>
<text text-anchor="middle" x="289.5" y="-722" font-family="Courier,monospace" font-size="10.00">MooseBaseParameterInterface</text>
</a>
</g>
</g>
<!-- Node5&#45;&gt;Node3 -->
<g id="edge4" class="edge">
<title>Node5&#45;&gt;Node3</title>
<path fill="none" stroke="#63b8ff" d="M367.87,-712.86C410.2,-706.5 460.92,-698.87 495.6,-693.65"/>
<polygon fill="#63b8ff" stroke="#63b8ff" points="367.61,-709.36 358.24,-714.31 368.65,-716.28 367.61,-709.36"/>
</g>
<!-- Node6 -->
<g id="node6" class="node">
<title>Node6</title>
<g id="a_node6"><a xlink:href="classMooseBaseErrorInterface.html" target="_top" xlink:title="Interface that provides APIs to output errors/warnings/info messages.">
<polygon fill="white" stroke="#666666" points="367,-697 212,-697 212,-678 367,-678 367,-697"/>
<text text-anchor="middle" x="289.5" y="-685" font-family="Courier,monospace" font-size="10.00">MooseBaseErrorInterface</text>
</a>
</g>
</g>
<!-- Node6&#45;&gt;Node3 -->
<g id="edge5" class="edge">
<title>Node6&#45;&gt;Node3</title>
<path fill="none" stroke="#63b8ff" d="M378.69,-687.5C418.6,-687.5 463.83,-687.5 495.61,-687.5"/>
<polygon fill="#63b8ff" stroke="#63b8ff" points="378.84,-684 368.84,-687.5 378.84,-691 378.84,-684"/>
</g>
<!-- Node7 -->
<g id="node7" class="node">
<title>Node7</title>
<g id="a_node7"><a xlink:href="classConsoleStreamInterface.html" target="_top" xlink:title="An inteface for the _console for outputting to the Console object.">
<polygon fill="white" stroke="#666666" points="149,-697 0,-697 0,-678 149,-678 149,-697"/>
<text text-anchor="middle" x="74.5" y="-685" font-family="Courier,monospace" font-size="10.00">ConsoleStreamInterface</text>
</a>
</g>
</g>
<!-- Node7&#45;&gt;Node6 -->
<g id="edge6" class="edge">
<title>Node7&#45;&gt;Node6</title>
<path fill="none" stroke="#63b8ff" d="M160.43,-687.5C177.41,-687.5 195.15,-687.5 211.84,-687.5"/>
<polygon fill="#63b8ff" stroke="#63b8ff" points="160.91,-684 150.91,-687.5 160.91,-691 160.91,-684"/>
</g>
<!-- Node8 -->
<g id="node8" class="node">
<title>Node8</title>
<g id="a_node8"><a xlink:title=" ">
<polygon fill="white" stroke="#666666" points="367,-660 212,-660 212,-641 367,-641 367,-660"/>
<text text-anchor="middle" x="289.5" y="-648" font-family="Courier,monospace" font-size="10.00">libMesh::ParallelObject</text>
</a>
</g>
</g>
<!-- Node8&#45;&gt;Node3 -->
<g id="edge7" class="edge">
<title>Node8&#45;&gt;Node3</title>
<path fill="none" stroke="#63b8ff" d="M367.87,-662.14C410.2,-668.5 460.92,-676.13 495.6,-681.35"/>
<polygon fill="#63b8ff" stroke="#63b8ff" points="368.65,-658.72 358.24,-660.69 367.61,-665.64 368.65,-658.72"/>
</g>
<!-- Node9 -->
<g id="node9" class="node">
<title>Node9</title>
<g id="a_node9"><a xlink:href="classDataFileInterface.html" target="_top" xlink:title=" ">
<polygon fill="white" stroke="#666666" points="352,-622.5 227,-622.5 227,-592.5 352,-592.5 352,-622.5"/>
<text text-anchor="start" x="235" y="-610.5" font-family="Courier,monospace" font-size="10.00">DataFileInterface&lt;</text>
<text text-anchor="middle" x="289.5" y="-599.5" font-family="Courier,monospace" font-size="10.00"> MooseObject &gt;</text>
</a>
</g>
</g>
<!-- Node9&#45;&gt;Node3 -->
<g id="edge8" class="edge">
<title>Node9&#45;&gt;Node3</title>
<path fill="none" stroke="#63b8ff" d="M363.07,-619.49C373.83,-622.82 384.48,-627.08 394,-632.5 413.93,-643.86 409.68,-658.84 430,-669.5 450.09,-680.04 474.98,-684.64 495.65,-686.56"/>
<polygon fill="#63b8ff" stroke="#63b8ff" points="364.35,-616.22 353.78,-616.87 362.45,-622.95 364.35,-616.22"/>
</g>
<!-- Node10 -->
<g id="node10" class="node">
<title>Node10</title>
<g id="a_node10"><a xlink:href="classMooseVariableInterface.html" target="_top" xlink:title="Interface for objects that need to get values of MooseVariables.">
<polygon fill="white" stroke="#666666" points="627,-660 448,-660 448,-641 627,-641 627,-660"/>
<text text-anchor="middle" x="537.5" y="-648" font-family="Courier,monospace" font-size="10.00">MooseVariableInterface&lt; T &gt;</text>
</a>
</g>
</g>
<!-- Node10&#45;&gt;Node2 -->
<g id="edge9" class="edge">
<title>Node10&#45;&gt;Node2</title>
<path fill="none" stroke="#63b8ff" d="M637.18,-638.66C639.94,-636.82 642.56,-634.78 645,-632.5 687.66,-592.77 709.79,-398.86 714.53,-352.48"/>
<polygon fill="#63b8ff" stroke="#63b8ff" points="635.68,-635.49 628.64,-643.4 639.08,-641.61 635.68,-635.49"/>
</g>
<!-- Node11 -->
<g id="node11" class="node">
<title>Node11</title>
<g id="a_node11"><a xlink:href="classBlockRestrictable.html" target="_top" xlink:title="An interface that restricts an object to subdomains via the &#39;blocks&#39; input parameter.">
<polygon fill="white" stroke="#666666" points="597,-623 478,-623 478,-604 597,-604 597,-623"/>
<text text-anchor="middle" x="537.5" y="-611" font-family="Courier,monospace" font-size="10.00">BlockRestrictable</text>
</a>
</g>
</g>
<!-- Node11&#45;&gt;Node2 -->
<g id="edge10" class="edge">
<title>Node11&#45;&gt;Node2</title>
<path fill="none" stroke="#63b8ff" d="M608.56,-613.06C621.92,-610.01 634.88,-604.62 645,-595.5 682.78,-561.47 708.23,-394.75 714.17,-352.33"/>
<polygon fill="#63b8ff" stroke="#63b8ff" points="607.99,-609.6 598.78,-614.83 609.24,-616.49 607.99,-609.6"/>
</g>
<!-- Node12 -->
<g id="node12" class="node">
<title>Node12</title>
<g id="a_node12"><a xlink:href="classBoundaryRestrictable.html" target="_top" xlink:title="/class BoundaryRestrictable /brief Provides functionality for limiting the object to certain boundary...">
<polygon fill="white" stroke="#666666" points="606,-586 469,-586 469,-567 606,-567 606,-586"/>
<text text-anchor="middle" x="537.5" y="-574" font-family="Courier,monospace" font-size="10.00">BoundaryRestrictable</text>
</a>
</g>
</g>
<!-- Node12&#45;&gt;Node2 -->
<g id="edge11" class="edge">
<title>Node12&#45;&gt;Node2</title>
<path fill="none" stroke="#63b8ff" d="M617.48,-573.23C627.54,-570.04 637.07,-565.33 645,-558.5 709.84,-502.61 715.41,-386.27 715.6,-352.12"/>
<polygon fill="#63b8ff" stroke="#63b8ff" points="616.66,-569.82 607.87,-575.74 618.43,-576.6 616.66,-569.82"/>
</g>
<!-- Node13 -->
<g id="node13" class="node">
<title>Node13</title>
<g id="a_node13"><a xlink:href="classSetupInterface.html" target="_top" xlink:title=" ">
<polygon fill="white" stroke="#666666" points="588,-549 487,-549 487,-530 588,-530 588,-549"/>
<text text-anchor="middle" x="537.5" y="-537" font-family="Courier,monospace" font-size="10.00">SetupInterface</text>
</a>
</g>
</g>
<!-- Node13&#45;&gt;Node2 -->
<g id="edge12" class="edge">
<title>Node13&#45;&gt;Node2</title>
<path fill="none" stroke="#63b8ff" d="M599.5,-539.18C615.71,-536.44 632.24,-530.93 645,-520.5 699.82,-475.7 712.22,-382.23 714.84,-352.09"/>
<polygon fill="#63b8ff" stroke="#63b8ff" points="599.33,-535.67 589.88,-540.46 600.25,-542.61 599.33,-535.67"/>
</g>
<!-- Node14 -->
<g id="node14" class="node">
<title>Node14</title>
<g id="a_node14"><a xlink:href="classCoupleableMooseVariableDependencyIntermediateInterface.html" target="_top" xlink:title="Intermediate base class that ties together all the interfaces for getting MooseVariableFEBases with t...">
<polygon fill="white" stroke="#666666" points="645,-511.5 430,-511.5 430,-481.5 645,-481.5 645,-511.5"/>
<text text-anchor="start" x="438" y="-499.5" font-family="Courier,monospace" font-size="10.00">CoupleableMooseVariableDependency</text>
<text text-anchor="middle" x="537.5" y="-488.5" font-family="Courier,monospace" font-size="10.00">IntermediateInterface</text>
</a>
</g>
</g>
<!-- Node14&#45;&gt;Node2 -->
<g id="edge13" class="edge">
<title>Node14&#45;&gt;Node2</title>
<path fill="none" stroke="#63b8ff" d="M640.86,-475.43C642.27,-474.5 643.65,-473.52 645,-472.5 686.97,-440.74 706.93,-376.48 713.22,-352.14"/>
<polygon fill="#63b8ff" stroke="#63b8ff" points="639.35,-472.26 632.44,-480.29 642.85,-478.32 639.35,-472.26"/>
</g>
<!-- Node15 -->
<g id="node15" class="node">
<title>Node15</title>
<g id="a_node15"><a xlink:href="classCoupleable.html" target="_top" xlink:title="Interface for objects that needs coupling capabilities.">
<polygon fill="white" stroke="#666666" points="328,-543 251,-543 251,-524 328,-524 328,-543"/>
<text text-anchor="middle" x="289.5" y="-531" font-family="Courier,monospace" font-size="10.00">Coupleable</text>
</a>
</g>
</g>
<!-- Node15&#45;&gt;Node14 -->
<g id="edge14" class="edge">
<title>Node15&#45;&gt;Node14</title>
<path fill="none" stroke="#63b8ff" d="M339.48,-526.13C366.49,-522.07 401.08,-516.87 433.71,-511.96"/>
<polygon fill="#63b8ff" stroke="#63b8ff" points="339.26,-522.63 329.9,-527.57 340.3,-529.55 339.26,-522.63"/>
</g>
<!-- Node16 -->
<g id="node16" class="node">
<title>Node16</title>
<g id="a_node16"><a xlink:href="classScalarCoupleable.html" target="_top" xlink:title="Interface for objects that needs scalar coupling capabilities.">
<polygon fill="white" stroke="#666666" points="346,-506 233,-506 233,-487 346,-487 346,-506"/>
<text text-anchor="middle" x="289.5" y="-494" font-family="Courier,monospace" font-size="10.00">ScalarCoupleable</text>
</a>
</g>
</g>
<!-- Node16&#45;&gt;Node14 -->
<g id="edge15" class="edge">
<title>Node16&#45;&gt;Node14</title>
<path fill="none" stroke="#63b8ff" d="M357.63,-496.5C379.83,-496.5 405.11,-496.5 429.53,-496.5"/>
<polygon fill="#63b8ff" stroke="#63b8ff" points="357.83,-493 347.83,-496.5 357.83,-500 357.83,-493"/>
</g>
<!-- Node17 -->
<g id="node17" class="node">
<title>Node17</title>
<g id="a_node17"><a xlink:href="classMooseVariableDependencyInterface.html" target="_top" xlink:title=" ">
<polygon fill="white" stroke="#666666" points="394,-469 185,-469 185,-450 394,-450 394,-469"/>
<text text-anchor="middle" x="289.5" y="-457" font-family="Courier,monospace" font-size="10.00">MooseVariableDependencyInterface</text>
</a>
</g>
</g>
<!-- Node17&#45;&gt;Node14 -->
<g id="edge16" class="edge">
<title>Node17&#45;&gt;Node14</title>
<path fill="none" stroke="#63b8ff" d="M368.06,-471.17C388.84,-474.29 411.63,-477.72 433.54,-481.01"/>
<polygon fill="#63b8ff" stroke="#63b8ff" points="368.65,-467.72 358.24,-469.69 367.61,-474.64 368.65,-467.72"/>
</g>
<!-- Node18 -->
<g id="node18" class="node">
<title>Node18</title>
<g id="a_node18"><a xlink:href="classFunctionInterface.html" target="_top" xlink:title="Interface for objects that need to use functions.">
<polygon fill="white" stroke="#666666" points="597,-463 478,-463 478,-444 597,-444 597,-463"/>
<text text-anchor="middle" x="537.5" y="-451" font-family="Courier,monospace" font-size="10.00">FunctionInterface</text>
</a>
</g>
</g>
<!-- Node18&#45;&gt;Node2 -->
<g id="edge17" class="edge">
<title>Node18&#45;&gt;Node2</title>
<path fill="none" stroke="#63b8ff" d="M608.55,-449.38C621.3,-446.53 634.02,-442.15 645,-435.5 678.79,-415.03 702.01,-371.78 711.15,-352.34"/>
<polygon fill="#63b8ff" stroke="#63b8ff" points="608.04,-445.92 598.88,-451.23 609.35,-452.79 608.04,-445.92"/>
</g>
<!-- Node19 -->
<g id="node19" class="node">
<title>Node19</title>
<g id="a_node19"><a xlink:href="classUserObjectInterface.html" target="_top" xlink:title="Interface for objects that need to use UserObjects.">
<polygon fill="white" stroke="#666666" points="603,-426 472,-426 472,-407 603,-407 603,-426"/>
<text text-anchor="middle" x="537.5" y="-414" font-family="Courier,monospace" font-size="10.00">UserObjectInterface</text>
</a>
</g>
</g>
<!-- Node19&#45;&gt;Node2 -->
<g id="edge18" class="edge">
<title>Node19&#45;&gt;Node2</title>
<path fill="none" stroke="#63b8ff" d="M614.36,-408.54C624.9,-406.05 635.4,-402.78 645,-398.5 670.13,-387.3 694.03,-365.03 706.51,-352.21"/>
<polygon fill="#63b8ff" stroke="#63b8ff" points="613.92,-405.06 604.87,-410.56 615.38,-411.9 613.92,-405.06"/>
</g>
<!-- Node20 -->
<g id="node20" class="node">
<title>Node20</title>
<g id="a_node20"><a xlink:href="classTransientInterface.html" target="_top" xlink:title="Interface for objects that needs transient capabilities.">
<polygon fill="white" stroke="#666666" points="600,-389 475,-389 475,-370 600,-370 600,-389"/>
<text text-anchor="middle" x="537.5" y="-377" font-family="Courier,monospace" font-size="10.00">TransientInterface</text>
</a>
</g>
</g>
<!-- Node20&#45;&gt;Node2 -->
<g id="edge19" class="edge">
<title>Node20&#45;&gt;Node2</title>
<path fill="none" stroke="#63b8ff" d="M611.51,-368.11C622.76,-366.09 634.21,-363.86 645,-361.5 656.89,-358.9 669.77,-355.58 681.24,-352.44"/>
<polygon fill="#63b8ff" stroke="#63b8ff" points="611.09,-364.63 601.85,-369.81 612.31,-371.53 611.09,-364.63"/>
</g>
<!-- Node21 -->
<g id="node21" class="node">
<title>Node21</title>
<g id="a_node21"><a xlink:href="classMaterialPropertyInterface.html" target="_top" xlink:title="An interface for accessing Materials.">
<polygon fill="white" stroke="#666666" points="621,-352 454,-352 454,-333 621,-333 621,-352"/>
<text text-anchor="middle" x="537.5" y="-340" font-family="Courier,monospace" font-size="10.00">MaterialPropertyInterface</text>
</a>
</g>
</g>
<!-- Node21&#45;&gt;Node2 -->
<g id="edge20" class="edge">
<title>Node21&#45;&gt;Node2</title>
<path fill="none" stroke="#63b8ff" d="M632.57,-342.5C649.69,-342.5 666.54,-342.5 680.52,-342.5"/>
<polygon fill="#63b8ff" stroke="#63b8ff" points="632.81,-339 622.81,-342.5 632.81,-346 632.81,-339"/>
</g>
<!-- Node22 -->
<g id="node22" class="node">
<title>Node22</title>
<g id="a_node22"><a xlink:href="classPostprocessorInterface.html" target="_top" xlink:title="Interface class for classes which interact with Postprocessors.">
<polygon fill="white" stroke="#666666" points="612,-315 463,-315 463,-296 612,-296 612,-315"/>
<text text-anchor="middle" x="537.5" y="-303" font-family="Courier,monospace" font-size="10.00">PostprocessorInterface</text>
</a>
</g>
</g>
<!-- Node22&#45;&gt;Node2 -->
<g id="edge21" class="edge">
<title>Node22&#45;&gt;Node2</title>
<path fill="none" stroke="#63b8ff" d="M610.03,-317.52C621.75,-319.7 633.73,-322.06 645,-324.5 656.73,-327.04 669.46,-330.17 680.84,-333.11"/>
<polygon fill="#63b8ff" stroke="#63b8ff" points="610.87,-314.11 600.41,-315.76 609.61,-321 610.87,-314.11"/>
</g>
<!-- Node23 -->
<g id="node23" class="node">
<title>Node23</title>
<g id="a_node23"><a xlink:href="classDependencyResolverInterface.html" target="_top" xlink:title="Interface for sorting dependent vectors of objects.">
<polygon fill="white" stroke="#666666" points="627,-278 448,-278 448,-259 627,-259 627,-278"/>
<text text-anchor="middle" x="537.5" y="-266" font-family="Courier,monospace" font-size="10.00">DependencyResolverInterface</text>
</a>
</g>
</g>
<!-- Node23&#45;&gt;Node2 -->
<g id="edge22" class="edge">
<title>Node23&#45;&gt;Node2</title>
<path fill="none" stroke="#63b8ff" d="M629.75,-281.68C634.99,-283.39 640.11,-285.32 645,-287.5 669.67,-298.5 693.37,-319.96 706.03,-332.57"/>
<polygon fill="#63b8ff" stroke="#63b8ff" points="630.9,-278.37 620.32,-278.9 628.92,-285.08 630.9,-278.37"/>
</g>
<!-- Node24 -->
<g id="node24" class="node">
<title>Node24</title>
<g id="a_node24"><a xlink:href="classRandomInterface.html" target="_top" xlink:title="Interface for objects that need parallel consistent random numbers without patterns over the course o...">
<polygon fill="white" stroke="#666666" points="591,-241 484,-241 484,-222 591,-222 591,-241"/>
<text text-anchor="middle" x="537.5" y="-229" font-family="Courier,monospace" font-size="10.00">RandomInterface</text>
</a>
</g>
</g>
<!-- Node24&#45;&gt;Node2 -->
<g id="edge23" class="edge">
<title>Node24&#45;&gt;Node2</title>
<path fill="none" stroke="#63b8ff" d="M602.5,-235.09C617.22,-237.99 632.28,-242.76 645,-250.5 678.52,-270.9 701.88,-313.6 711.11,-332.79"/>
<polygon fill="#63b8ff" stroke="#63b8ff" points="603.28,-231.68 592.84,-233.48 602.12,-238.58 603.28,-231.68"/>
</g>
<!-- Node25 -->
<g id="node25" class="node">
<title>Node25</title>
<g id="a_node25"><a xlink:href="classGeometricSearchInterface.html" target="_top" xlink:title=" ">
<polygon fill="white" stroke="#666666" points="618,-204 457,-204 457,-185 618,-185 618,-204"/>
<text text-anchor="middle" x="537.5" y="-192" font-family="Courier,monospace" font-size="10.00">GeometricSearchInterface</text>
</a>
</g>
</g>
<!-- Node25&#45;&gt;Node2 -->
<g id="edge24" class="edge">
<title>Node25&#45;&gt;Node2</title>
<path fill="none" stroke="#63b8ff" d="M628.96,-204.51C634.63,-206.97 640.04,-209.94 645,-213.5 687.47,-244.05 707.13,-308.39 713.28,-332.82"/>
<polygon fill="#63b8ff" stroke="#63b8ff" points="630.51,-201.35 619.92,-201.13 628.06,-207.91 630.51,-201.35"/>
</g>
<!-- Node26 -->
<g id="node26" class="node">
<title>Node26</title>
<g id="a_node26"><a xlink:href="classRestartable.html" target="_top" xlink:title="A class for creating restricted objects.">
<polygon fill="white" stroke="#666666" points="579,-167 496,-167 496,-148 579,-148 579,-167"/>
<text text-anchor="middle" x="537.5" y="-155" font-family="Courier,monospace" font-size="10.00">Restartable</text>
</a>
</g>
</g>
<!-- Node26&#45;&gt;Node2 -->
<g id="edge25" class="edge">
<title>Node26&#45;&gt;Node2</title>
<path fill="none" stroke="#63b8ff" d="M590.89,-156.82C609.64,-159 629.86,-164.43 645,-176.5 696.67,-217.67 711.06,-303.75 714.52,-332.73"/>
<polygon fill="#63b8ff" stroke="#63b8ff" points="591.23,-153.34 580.97,-155.98 590.64,-160.31 591.23,-153.34"/>
</g>
<!-- Node27 -->
<g id="node27" class="node">
<title>Node27</title>
<g id="a_node27"><a xlink:href="classMeshChangedInterface.html" target="_top" xlink:title="Interface for notifications that the mesh has changed.">
<polygon fill="white" stroke="#666666" points="606,-130 469,-130 469,-111 606,-111 606,-130"/>
<text text-anchor="middle" x="537.5" y="-118" font-family="Courier,monospace" font-size="10.00">MeshChangedInterface</text>
</a>
</g>
</g>
<!-- Node27&#45;&gt;Node2 -->
<g id="edge26" class="edge">
<title>Node27&#45;&gt;Node2</title>
<path fill="none" stroke="#63b8ff" d="M617.39,-124.7C627.47,-127.95 637.03,-132.69 645,-139.5 706.01,-191.57 714.27,-299.36 715.35,-332.55"/>
<polygon fill="#63b8ff" stroke="#63b8ff" points="618.34,-121.33 607.77,-122.12 616.52,-128.09 618.34,-121.33"/>
</g>
<!-- Node28 -->
<g id="node28" class="node">
<title>Node28</title>
<g id="a_node28"><a xlink:href="classVectorPostprocessorInterface.html" target="_top" xlink:title=" ">
<polygon fill="white" stroke="#666666" points="630,-93 445,-93 445,-74 630,-74 630,-93"/>
<text text-anchor="middle" x="537.5" y="-81" font-family="Courier,monospace" font-size="10.00">VectorPostprocessorInterface</text>
</a>
</g>
</g>
<!-- Node28&#45;&gt;Node2 -->
<g id="edge27" class="edge">
<title>Node28&#45;&gt;Node2</title>
<path fill="none" stroke="darkgreen" d="M639.75,-98.28C641.57,-99.59 643.32,-101 645,-102.5 715.66,-165.84 717.06,-295.89 715.95,-332.64"/>
<polygon fill="darkgreen" stroke="darkgreen" points="641.81,-95.44 631.44,-93.25 638.18,-101.42 641.81,-95.44"/>
</g>
<!-- Node29 -->
<g id="node29" class="node">
<title>Node29</title>
<g id="a_node29"><a xlink:href="classElementIDInterface.html" target="_top" xlink:title=" ">
<polygon fill="white" stroke="#666666" points="600,-56 475,-56 475,-37 600,-37 600,-56"/>
<text text-anchor="middle" x="537.5" y="-44" font-family="Courier,monospace" font-size="10.00">ElementIDInterface</text>
</a>
</g>
</g>
<!-- Node29&#45;&gt;Node2 -->
<g id="edge28" class="edge">
<title>Node29&#45;&gt;Node2</title>
<path fill="none" stroke="#63b8ff" d="M611.28,-48.11C623.73,-51.38 635.64,-56.8 645,-65.5 685.79,-103.43 709.26,-287.86 714.41,-332.67"/>
<polygon fill="#63b8ff" stroke="#63b8ff" points="612.25,-44.74 601.74,-46.08 610.79,-51.59 612.25,-44.74"/>
</g>
<!-- Node30 -->
<g id="node30" class="node">
<title>Node30</title>
<g id="a_node30"><a xlink:href="classNonADFunctorInterface.html" target="_top" xlink:title="An interface for accessing Moose::Functors for systems that do not care about automatic differentiati...">
<polygon fill="white" stroke="#666666" points="609,-19 466,-19 466,0 609,0 609,-19"/>
<text text-anchor="middle" x="537.5" y="-7" font-family="Courier,monospace" font-size="10.00">NonADFunctorInterface</text>
</a>
</g>
</g>
<!-- Node30&#45;&gt;Node2 -->
<g id="edge29" class="edge">
<title>Node30&#45;&gt;Node2</title>
<path fill="none" stroke="darkgreen" d="M620.26,-12.84C629.41,-16.11 637.96,-20.82 645,-27.5 691.04,-71.18 710.8,-284.15 714.74,-332.66"/>
<polygon fill="darkgreen" stroke="darkgreen" points="621.32,-9.5 610.74,-10.05 619.35,-16.22 621.32,-9.5"/>
</g>
<!-- Node31 -->
<g id="node31" class="node">
<title>Node31</title>
<g id="a_node31"><a xlink:href="classFunctorInterface.html" target="_top" xlink:title="An interface for accessing Moose::Functors.">
<polygon fill="white" stroke="#666666" points="346,-19 233,-19 233,0 346,0 346,-19"/>
<text text-anchor="middle" x="289.5" y="-7" font-family="Courier,monospace" font-size="10.00">FunctorInterface</text>
</a>
</g>
</g>
<!-- Node31&#45;&gt;Node30 -->
<g id="edge30" class="edge">
<title>Node31&#45;&gt;Node30</title>
<path fill="none" stroke="#63b8ff" d="M357.43,-9.5C391.06,-9.5 431.79,-9.5 465.91,-9.5"/>
<polygon fill="#63b8ff" stroke="#63b8ff" points="357.83,-6 347.83,-9.5 357.83,-13 357.83,-6"/>
</g>
</g>
</svg>
