<?xml version="1.0" encoding="UTF-8" standalone="no"?>
<!DOCTYPE svg PUBLIC "-//W3C//DTD SVG 1.1//EN"
 "http://www.w3.org/Graphics/SVG/1.1/DTD/svg11.dtd">
<!-- Generated by graphviz version 7.0.5 (20221223.1930)
 -->
<!-- Title: CraneApp Pages: 1 -->
<svg width="473pt" height="137pt"
 viewBox="0.00 0.00 473.00 137.00" xmlns="http://www.w3.org/2000/svg" xmlns:xlink="http://www.w3.org/1999/xlink">
<g id="graph0" class="graph" transform="scale(1 1) rotate(0) translate(4 133)">
<title>CraneApp</title>
<!-- Node1 -->
<g id="node1" class="node">
<title>Node1</title>
<g id="a_node1"><a xlink:title=" ">
<polygon fill="#999999" stroke="#666666" points="262,-19 197,-19 197,0 262,0 262,-19"/>
<text text-anchor="middle" x="229.5" y="-7" font-family="Courier,monospace" font-size="10.00">CraneApp</text>
</a>
</g>
</g>
<!-- Node2 -->
<g id="node2" class="node">
<title>Node2</title>
<g id="a_node2"><a xlink:href="classMooseApp.html" target="_top" xlink:title="Base class for MOOSE&#45;based applications.">
<polygon fill="white" stroke="#666666" points="262,-74 197,-74 197,-55 262,-55 262,-74"/>
<text text-anchor="middle" x="229.5" y="-62" font-family="Courier,monospace" font-size="10.00">MooseApp</text>
</a>
</g>
</g>
<!-- Node2&#45;&gt;Node1 -->
<g id="edge1" class="edge">
<title>Node2&#45;&gt;Node1</title>
<path fill="none" stroke="#63b8ff" d="M229.5,-43.35C229.5,-35.1 229.5,-25.97 229.5,-19.44"/>
<polygon fill="#63b8ff" stroke="#63b8ff" points="226,-43.23 229.5,-53.23 233,-43.23 226,-43.23"/>
</g>
<!-- Node3 -->
<g id="node3" class="node">
<title>Node3</title>
<g id="a_node3"><a xlink:href="classConsoleStreamInterface.html" target="_top" xlink:title="An inteface for the _console for outputting to the Console object.">
<polygon fill="white" stroke="#666666" points="149,-129 0,-129 0,-110 149,-110 149,-129"/>
<text text-anchor="middle" x="74.5" y="-117" font-family="Courier,monospace" font-size="10.00">ConsoleStreamInterface</text>
</a>
</g>
</g>
<!-- Node3&#45;&gt;Node2 -->
<g id="edge2" class="edge">
<title>Node3&#45;&gt;Node2</title>
<path fill="none" stroke="#63b8ff" d="M111.48,-105.85C139.8,-96.17 178.14,-83.06 203.34,-74.45"/>
<polygon fill="#63b8ff" stroke="#63b8ff" points="110.56,-102.47 102.23,-109.02 112.82,-109.1 110.56,-102.47"/>
</g>
<!-- Node4 -->
<g id="node4" class="node">
<title>Node4</title>
<g id="a_node4"><a xlink:href="classPerfGraphInterface.html" target="_top" xlink:title="Interface for objects interacting with the PerfGraph.">
<polygon fill="white" stroke="#666666" points="292,-129 167,-129 167,-110 292,-110 292,-129"/>
<text text-anchor="middle" x="229.5" y="-117" font-family="Courier,monospace" font-size="10.00">PerfGraphInterface</text>
</a>
</g>
</g>
<!-- Node4&#45;&gt;Node2 -->
<g id="edge3" class="edge">
<title>Node4&#45;&gt;Node2</title>
<path fill="none" stroke="#63b8ff" d="M229.5,-98.35C229.5,-90.1 229.5,-80.97 229.5,-74.44"/>
<polygon fill="#63b8ff" stroke="#63b8ff" points="226,-98.23 229.5,-108.23 233,-98.23 226,-98.23"/>
</g>
<!-- Node5 -->
<g id="node5" class="node">
<title>Node5</title>
<g id="a_node5"><a xlink:title=" ">
<polygon fill="white" stroke="#666666" points="465,-129 310,-129 310,-110 465,-110 465,-129"/>
<text text-anchor="middle" x="387.5" y="-117" font-family="Courier,monospace" font-size="10.00">libMesh::ParallelObject</text>
</a>
</g>
</g>
<!-- Node5&#45;&gt;Node2 -->
<g id="edge4" class="edge">
<title>Node5&#45;&gt;Node2</title>
<path fill="none" stroke="#63b8ff" d="M349.8,-105.85C320.94,-96.17 281.85,-83.06 256.17,-74.45"/>
<polygon fill="#63b8ff" stroke="#63b8ff" points="348.67,-109.17 359.26,-109.03 350.89,-102.53 348.67,-109.17"/>
</g>
</g>
</svg>
