<?xml version="1.0" encoding="UTF-8" standalone="no"?>
<!DOCTYPE svg PUBLIC "-//W3C//DTD SVG 1.1//EN"
 "http://www.w3.org/Graphics/SVG/1.1/DTD/svg11.dtd">
<!-- Generated by graphviz version 7.0.5 (20221223.1930)
 -->
<!-- Title: SplineInterpolationBase Pages: 1 -->
<svg width="330pt" height="82pt"
 viewBox="0.00 0.00 330.00 82.00" xmlns="http://www.w3.org/2000/svg" xmlns:xlink="http://www.w3.org/1999/xlink">
<g id="graph0" class="graph" transform="scale(1 1) rotate(0) translate(4 78)">
<title>SplineInterpolationBase</title>
<!-- Node1 -->
<g id="node1" class="node">
<title>Node1</title>
<g id="a_node1"><a xlink:title=" ">
<polygon fill="#999999" stroke="#666666" points="249,-74 94,-74 94,-55 249,-55 249,-74"/>
<text text-anchor="middle" x="171.5" y="-62" font-family="Courier,monospace" font-size="10.00">SplineInterpolationBase</text>
</a>
</g>
</g>
<!-- Node2 -->
<g id="node2" class="node">
<title>Node2</title>
<g id="a_node2"><a xlink:href="classBicubicSplineInterpolation.html" target="_top" xlink:title="This class interpolates tabulated functions with a bi&#45;cubic spline.">
<polygon fill="white" stroke="#666666" points="173,-19 0,-19 0,0 173,0 173,-19"/>
<text text-anchor="middle" x="86.5" y="-7" font-family="Courier,monospace" font-size="10.00">BicubicSplineInterpolation</text>
</a>
</g>
</g>
<!-- Node1&#45;&gt;Node2 -->
<g id="edge1" class="edge">
<title>Node1&#45;&gt;Node2</title>
<path fill="none" stroke="#63b8ff" d="M147.38,-48.46C132.31,-39.06 113.41,-27.28 100.71,-19.36"/>
<polygon fill="#63b8ff" stroke="#63b8ff" points="145.46,-51.39 155.8,-53.71 149.16,-45.45 145.46,-51.39"/>
</g>
<!-- Node3 -->
<g id="node3" class="node">
<title>Node3</title>
<g id="a_node3"><a xlink:href="classSplineInterpolation.html" target="_top" xlink:title="This class interpolates tabulated functions with cubic splines.">
<polygon fill="white" stroke="#666666" points="322,-19 191,-19 191,0 322,0 322,-19"/>
<text text-anchor="middle" x="256.5" y="-7" font-family="Courier,monospace" font-size="10.00">SplineInterpolation</text>
</a>
</g>
</g>
<!-- Node1&#45;&gt;Node3 -->
<g id="edge2" class="edge">
<title>Node1&#45;&gt;Node3</title>
<path fill="none" stroke="#63b8ff" d="M195.62,-48.46C210.69,-39.06 229.59,-27.28 242.29,-19.36"/>
<polygon fill="#63b8ff" stroke="#63b8ff" points="193.84,-45.45 187.2,-53.71 197.54,-51.39 193.84,-45.45"/>
</g>
</g>
</svg>
