<?xml version="1.0" encoding="UTF-8" standalone="no"?>
<!DOCTYPE svg PUBLIC "-//W3C//DTD SVG 1.1//EN"
 "http://www.w3.org/Graphics/SVG/1.1/DTD/svg11.dtd">
<!-- Generated by graphviz version 7.0.5 (20221223.1930)
 -->
<!-- Title: PostprocessorTemperatureInflowBC Pages: 1 -->
<svg width="891pt" height="86pt"
 viewBox="0.00 0.00 891.00 86.00" xmlns="http://www.w3.org/2000/svg" xmlns:xlink="http://www.w3.org/1999/xlink">
<g id="graph0" class="graph" transform="scale(1 1) rotate(0) translate(4 82)">
<title>PostprocessorTemperatureInflowBC</title>
<!-- Node1 -->
<g id="node1" class="node">
<title>Node1</title>
<g id="a_node1"><a xlink:title=" ">
<polygon fill="#999999" stroke="#666666" points="883,-54 722,-54 722,-24 883,-24 883,-54"/>
<text text-anchor="start" x="730" y="-42" font-family="Courier,monospace" font-size="10.00">PostprocessorTemperature</text>
<text text-anchor="middle" x="802.5" y="-31" font-family="Courier,monospace" font-size="10.00">InflowBC</text>
</a>
</g>
</g>
<!-- Node2 -->
<g id="node2" class="node">
<title>Node2</title>
<g id="a_node2"><a xlink:href="classDerivativeMaterialInterface.html" target="_top" xlink:title=" ">
<polygon fill="white" stroke="#666666" points="686,-59.5 489,-59.5 489,-18.5 686,-18.5 686,-59.5"/>
<text text-anchor="start" x="497" y="-47.5" font-family="Courier,monospace" font-size="10.00">DerivativeMaterialInterface</text>
<text text-anchor="start" x="497" y="-36.5" font-family="Courier,monospace" font-size="10.00">&lt; JvarMapIntegratedBCInterface</text>
<text text-anchor="middle" x="587.5" y="-25.5" font-family="Courier,monospace" font-size="10.00">&lt; PostprocessorInflowBC &gt; &gt;</text>
</a>
</g>
</g>
<!-- Node2&#45;&gt;Node1 -->
<g id="edge1" class="edge">
<title>Node2&#45;&gt;Node1</title>
<path fill="none" stroke="#63b8ff" d="M697.65,-39C705.7,-39 713.73,-39 721.55,-39"/>
<polygon fill="#63b8ff" stroke="#63b8ff" points="697.79,-35.5 687.79,-39 697.79,-42.5 697.79,-35.5"/>
</g>
<!-- Node3 -->
<g id="node3" class="node">
<title>Node3</title>
<g id="a_node3"><a xlink:href="classJvarMapIntegratedBCInterface.html" target="_top" xlink:title=" ">
<polygon fill="white" stroke="#666666" points="453,-78 268,-78 268,-48 453,-48 453,-78"/>
<text text-anchor="start" x="276" y="-66" font-family="Courier,monospace" font-size="10.00">JvarMapIntegratedBCInterface</text>
<text text-anchor="middle" x="360.5" y="-55" font-family="Courier,monospace" font-size="10.00">&lt; PostprocessorInflowBC &gt;</text>
</a>
</g>
</g>
<!-- Node3&#45;&gt;Node2 -->
<g id="edge2" class="edge">
<title>Node3&#45;&gt;Node2</title>
<path fill="none" stroke="#63b8ff" d="M464.63,-52C472.65,-51.14 480.74,-50.28 488.73,-49.43"/>
<polygon fill="#63b8ff" stroke="#63b8ff" points="464.42,-48.5 454.85,-53.04 465.16,-55.46 464.42,-48.5"/>
</g>
<!-- Node4 -->
<g id="node4" class="node">
<title>Node4</title>
<g id="a_node4"><a xlink:href="classJvarMapInterfaceBase.html" target="_top" xlink:title="Base class (&quot;Veneer&quot;) that implements the actual mapping from &#39;jvar&#39; in into the _coupled_moose_vars ...">
<polygon fill="white" stroke="#666666" points="232,-72.5 65,-72.5 65,-53.5 232,-53.5 232,-72.5"/>
<text text-anchor="middle" x="148.5" y="-60.5" font-family="Courier,monospace" font-size="10.00">JvarMapInterfaceBase&lt; T &gt;</text>
</a>
</g>
</g>
<!-- Node4&#45;&gt;Node3 -->
<g id="edge3" class="edge">
<title>Node4&#45;&gt;Node3</title>
<path fill="none" stroke="#63b8ff" d="M244,-63C251.9,-63 259.88,-63 267.76,-63"/>
<polygon fill="#63b8ff" stroke="#63b8ff" points="244.01,-59.5 234.01,-63 244.01,-66.5 244.01,-59.5"/>
</g>
<!-- Node5 -->
<g id="node5" class="node">
<title>Node5</title>
<g id="a_node5"><a xlink:title=" ">
<polygon fill="white" stroke="#666666" points="29,-72.5 0,-72.5 0,-53.5 29,-53.5 29,-72.5"/>
<text text-anchor="middle" x="14.5" y="-60.5" font-family="Courier,monospace" font-size="10.00">T</text>
</a>
</g>
</g>
<!-- Node5&#45;&gt;Node4 -->
<g id="edge4" class="edge">
<title>Node5&#45;&gt;Node4</title>
<path fill="none" stroke="#63b8ff" d="M40.42,-63C47.6,-63 55.86,-63 64.54,-63"/>
<polygon fill="#63b8ff" stroke="#63b8ff" points="40.64,-59.5 30.64,-63 40.64,-66.5 40.64,-59.5"/>
</g>
<!-- Node6 -->
<g id="node6" class="node">
<title>Node6</title>
<g id="a_node6"><a xlink:href="classDerivativeMaterialPropertyNameInterface.html" target="_top" xlink:title=" ">
<polygon fill="white" stroke="#666666" points="447,-30 274,-30 274,0 447,0 447,-30"/>
<text text-anchor="start" x="282" y="-18" font-family="Courier,monospace" font-size="10.00">DerivativeMaterialProperty</text>
<text text-anchor="middle" x="360.5" y="-7" font-family="Courier,monospace" font-size="10.00">NameInterface</text>
</a>
</g>
</g>
<!-- Node6&#45;&gt;Node2 -->
<g id="edge5" class="edge">
<title>Node6&#45;&gt;Node2</title>
<path fill="none" stroke="#63b8ff" d="M458.41,-25.34C468.42,-26.41 478.6,-27.49 488.62,-28.56"/>
<polygon fill="#63b8ff" stroke="#63b8ff" points="459.02,-21.88 448.71,-24.3 458.28,-28.84 459.02,-21.88"/>
</g>
</g>
</svg>
