<?xml version="1.0" encoding="UTF-8" standalone="no"?>
<!DOCTYPE svg PUBLIC "-//W3C//DTD SVG 1.1//EN"
 "http://www.w3.org/Graphics/SVG/1.1/DTD/svg11.dtd">
<!-- Generated by graphviz version 7.0.5 (20221223.1930)
 -->
<!-- Title: ImageFunction Pages: 1 -->
<svg width="813pt" height="409pt"
 viewBox="0.00 0.00 813.00 408.50" xmlns="http://www.w3.org/2000/svg" xmlns:xlink="http://www.w3.org/1999/xlink">
<g id="graph0" class="graph" transform="scale(1 1) rotate(0) translate(4 404.5)">
<title>ImageFunction</title>
<!-- Node1 -->
<g id="node1" class="node">
<title>Node1</title>
<g id="a_node1"><a xlink:title="A function for extracting data from an image or stack of images.">
<polygon fill="#999999" stroke="#666666" points="805,-214.5 710,-214.5 710,-195.5 805,-195.5 805,-214.5"/>
<text text-anchor="middle" x="757.5" y="-202.5" font-family="Courier,monospace" font-size="10.00">ImageFunction</text>
</a>
</g>
</g>
<!-- Node2 -->
<g id="node2" class="node">
<title>Node2</title>
<g id="a_node2"><a xlink:href="classImageSampler.html" target="_top" xlink:title="A helper class for reading and sampling images using VTK.">
<polygon fill="white" stroke="#666666" points="674,-298.5 585,-298.5 585,-279.5 674,-279.5 674,-298.5"/>
<text text-anchor="middle" x="629.5" y="-286.5" font-family="Courier,monospace" font-size="10.00">ImageSampler</text>
</a>
</g>
</g>
<!-- Node2&#45;&gt;Node1 -->
<g id="edge1" class="edge">
<title>Node2&#45;&gt;Node1</title>
<path fill="none" stroke="#63b8ff" d="M654.86,-272.76C680.54,-255.64 720.17,-229.22 741.57,-214.95"/>
<polygon fill="#63b8ff" stroke="#63b8ff" points="653.09,-269.74 646.71,-278.19 656.97,-275.56 653.09,-269.74"/>
</g>
<!-- Node3 -->
<g id="node3" class="node">
<title>Node3</title>
<g id="a_node3"><a xlink:href="classFileRangeBuilder.html" target="_top" xlink:title="To be called in the validParams functions of classes that need to operate on ranges of files.">
<polygon fill="white" stroke="#666666" points="531,-363.5 418,-363.5 418,-344.5 531,-344.5 531,-363.5"/>
<text text-anchor="middle" x="474.5" y="-351.5" font-family="Courier,monospace" font-size="10.00">FileRangeBuilder</text>
</a>
</g>
</g>
<!-- Node3&#45;&gt;Node2 -->
<g id="edge2" class="edge">
<title>Node3&#45;&gt;Node2</title>
<path fill="none" stroke="#63b8ff" d="M535.56,-340.85C540.16,-339.37 544.69,-337.76 549,-336 573.5,-326.01 599.44,-309.38 614.79,-298.81"/>
<polygon fill="#63b8ff" stroke="#63b8ff" points="534.81,-337.43 526.22,-343.63 536.8,-344.14 534.81,-337.43"/>
</g>
<!-- Node4 -->
<g id="node4" class="node">
<title>Node4</title>
<g id="a_node4"><a xlink:href="classFunction.html" target="_top" xlink:title="Base class for function objects.">
<polygon fill="white" stroke="#666666" points="662,-196.5 597,-196.5 597,-177.5 662,-177.5 662,-196.5"/>
<text text-anchor="middle" x="629.5" y="-184.5" font-family="Courier,monospace" font-size="10.00">Function</text>
</a>
</g>
</g>
<!-- Node4&#45;&gt;Node1 -->
<g id="edge3" class="edge">
<title>Node4&#45;&gt;Node1</title>
<path fill="none" stroke="#63b8ff" d="M673.6,-193.16C685.32,-194.83 698.05,-196.65 709.95,-198.35"/>
<polygon fill="#63b8ff" stroke="#63b8ff" points="674.19,-189.71 663.79,-191.76 673.2,-196.64 674.19,-189.71"/>
</g>
<!-- Node5 -->
<g id="node5" class="node">
<title>Node5</title>
<g id="a_node5"><a xlink:href="classMooseObject.html" target="_top" xlink:title="Every object that can be built by the factory should be derived from this class.">
<polygon fill="white" stroke="#666666" points="516,-326.5 433,-326.5 433,-307.5 516,-307.5 516,-326.5"/>
<text text-anchor="middle" x="474.5" y="-314.5" font-family="Courier,monospace" font-size="10.00">MooseObject</text>
</a>
</g>
</g>
<!-- Node5&#45;&gt;Node4 -->
<g id="edge4" class="edge">
<title>Node5&#45;&gt;Node4</title>
<path fill="none" stroke="#63b8ff" d="M527.13,-309.36C534.86,-306.83 542.43,-303.47 549,-299 588.45,-272.2 614.78,-218.91 624.41,-196.89"/>
<polygon fill="#63b8ff" stroke="#63b8ff" points="526.33,-305.94 517.64,-312 528.21,-312.69 526.33,-305.94"/>
</g>
<!-- Node6 -->
<g id="node6" class="node">
<title>Node6</title>
<g id="a_node6"><a xlink:href="classMooseBase.html" target="_top" xlink:title="Base class for everything in MOOSE with a name and a type.">
<polygon fill="white" stroke="#666666" points="310,-400.5 239,-400.5 239,-381.5 310,-381.5 310,-400.5"/>
<text text-anchor="middle" x="274.5" y="-388.5" font-family="Courier,monospace" font-size="10.00">MooseBase</text>
</a>
</g>
</g>
<!-- Node6&#45;&gt;Node5 -->
<g id="edge5" class="edge">
<title>Node6&#45;&gt;Node5</title>
<path fill="none" stroke="#63b8ff" d="M321.47,-386.98C335.73,-384.36 351.08,-380.06 364,-373 384.14,-362 380.16,-347.52 400,-336 409.92,-330.24 421.58,-326.2 432.66,-323.38"/>
<polygon fill="#63b8ff" stroke="#63b8ff" points="321.17,-383.48 311.84,-388.5 322.26,-390.4 321.17,-383.48"/>
</g>
<!-- Node7 -->
<g id="node7" class="node">
<title>Node7</title>
<g id="a_node7"><a xlink:href="classMooseBaseParameterInterface.html" target="_top" xlink:title="Every object that can be built by the factory should be derived from this class.">
<polygon fill="white" stroke="#666666" points="364,-363.5 185,-363.5 185,-344.5 364,-344.5 364,-363.5"/>
<text text-anchor="middle" x="274.5" y="-351.5" font-family="Courier,monospace" font-size="10.00">MooseBaseParameterInterface</text>
</a>
</g>
</g>
<!-- Node7&#45;&gt;Node5 -->
<g id="edge6" class="edge">
<title>Node7&#45;&gt;Node5</title>
<path fill="none" stroke="#63b8ff" d="M339.81,-341.98C370.33,-336.28 405.88,-329.64 432.65,-324.63"/>
<polygon fill="#63b8ff" stroke="#63b8ff" points="339.5,-338.48 330.31,-343.76 340.78,-345.36 339.5,-338.48"/>
</g>
<!-- Node8 -->
<g id="node8" class="node">
<title>Node8</title>
<g id="a_node8"><a xlink:href="classMooseBaseErrorInterface.html" target="_top" xlink:title="Interface that provides APIs to output errors/warnings/info messages.">
<polygon fill="white" stroke="#666666" points="352,-326.5 197,-326.5 197,-307.5 352,-307.5 352,-326.5"/>
<text text-anchor="middle" x="274.5" y="-314.5" font-family="Courier,monospace" font-size="10.00">MooseBaseErrorInterface</text>
</a>
</g>
</g>
<!-- Node8&#45;&gt;Node5 -->
<g id="edge7" class="edge">
<title>Node8&#45;&gt;Node5</title>
<path fill="none" stroke="#63b8ff" d="M363.68,-317C387.75,-317 412.68,-317 432.69,-317"/>
<polygon fill="#63b8ff" stroke="#63b8ff" points="363.85,-313.5 353.85,-317 363.85,-320.5 363.85,-313.5"/>
</g>
<!-- Node9 -->
<g id="node9" class="node">
<title>Node9</title>
<g id="a_node9"><a xlink:href="classConsoleStreamInterface.html" target="_top" xlink:title="An inteface for the _console for outputting to the Console object.">
<polygon fill="white" stroke="#666666" points="149,-326.5 0,-326.5 0,-307.5 149,-307.5 149,-326.5"/>
<text text-anchor="middle" x="74.5" y="-314.5" font-family="Courier,monospace" font-size="10.00">ConsoleStreamInterface</text>
</a>
</g>
</g>
<!-- Node9&#45;&gt;Node8 -->
<g id="edge8" class="edge">
<title>Node9&#45;&gt;Node8</title>
<path fill="none" stroke="#63b8ff" d="M160.62,-317C172.62,-317 184.9,-317 196.73,-317"/>
<polygon fill="#63b8ff" stroke="#63b8ff" points="160.74,-313.5 150.74,-317 160.74,-320.5 160.74,-313.5"/>
</g>
<!-- Node10 -->
<g id="node10" class="node">
<title>Node10</title>
<g id="a_node10"><a xlink:title=" ">
<polygon fill="white" stroke="#666666" points="352,-289.5 197,-289.5 197,-270.5 352,-270.5 352,-289.5"/>
<text text-anchor="middle" x="274.5" y="-277.5" font-family="Courier,monospace" font-size="10.00">libMesh::ParallelObject</text>
</a>
</g>
</g>
<!-- Node10&#45;&gt;Node5 -->
<g id="edge9" class="edge">
<title>Node10&#45;&gt;Node5</title>
<path fill="none" stroke="#63b8ff" d="M339.81,-292.02C370.33,-297.72 405.88,-304.36 432.65,-309.37"/>
<polygon fill="#63b8ff" stroke="#63b8ff" points="340.78,-288.64 330.31,-290.24 339.5,-295.52 340.78,-288.64"/>
</g>
<!-- Node11 -->
<g id="node11" class="node">
<title>Node11</title>
<g id="a_node11"><a xlink:href="classDataFileInterface.html" target="_top" xlink:title=" ">
<polygon fill="white" stroke="#666666" points="337,-252 212,-252 212,-222 337,-222 337,-252"/>
<text text-anchor="start" x="220" y="-240" font-family="Courier,monospace" font-size="10.00">DataFileInterface&lt;</text>
<text text-anchor="middle" x="274.5" y="-229" font-family="Courier,monospace" font-size="10.00"> MooseObject &gt;</text>
</a>
</g>
</g>
<!-- Node11&#45;&gt;Node5 -->
<g id="edge10" class="edge">
<title>Node11&#45;&gt;Node5</title>
<path fill="none" stroke="#63b8ff" d="M347.62,-253.85C353.32,-256.23 358.86,-258.94 364,-262 383.71,-273.74 380.08,-287.61 400,-299 409.92,-304.68 421.59,-308.57 432.67,-311.24"/>
<polygon fill="#63b8ff" stroke="#63b8ff" points="349.23,-250.72 338.64,-250.44 346.74,-257.26 349.23,-250.72"/>
</g>
<!-- Node12 -->
<g id="node12" class="node">
<title>Node12</title>
<g id="a_node12"><a xlink:href="classSetupInterface.html" target="_top" xlink:title=" ">
<polygon fill="white" stroke="#666666" points="525,-289.5 424,-289.5 424,-270.5 525,-270.5 525,-289.5"/>
<text text-anchor="middle" x="474.5" y="-277.5" font-family="Courier,monospace" font-size="10.00">SetupInterface</text>
</a>
</g>
</g>
<!-- Node12&#45;&gt;Node4 -->
<g id="edge11" class="edge">
<title>Node12&#45;&gt;Node4</title>
<path fill="none" stroke="#63b8ff" d="M536.06,-267.89C540.54,-266.18 544.91,-264.22 549,-262 580,-245.13 607.92,-213.18 620.87,-196.97"/>
<polygon fill="#63b8ff" stroke="#63b8ff" points="535.23,-264.48 526.87,-270.99 537.47,-271.11 535.23,-264.48"/>
</g>
<!-- Node13 -->
<g id="node13" class="node">
<title>Node13</title>
<g id="a_node13"><a xlink:href="classTransientInterface.html" target="_top" xlink:title="Interface for objects that needs transient capabilities.">
<polygon fill="white" stroke="#666666" points="537,-252.5 412,-252.5 412,-233.5 537,-233.5 537,-252.5"/>
<text text-anchor="middle" x="474.5" y="-240.5" font-family="Courier,monospace" font-size="10.00">TransientInterface</text>
</a>
</g>
</g>
<!-- Node13&#45;&gt;Node4 -->
<g id="edge12" class="edge">
<title>Node13&#45;&gt;Node4</title>
<path fill="none" stroke="#63b8ff" d="M533.23,-230.07C538.6,-228.5 543.93,-226.81 549,-225 570.9,-217.18 594.82,-205.25 610.64,-196.85"/>
<polygon fill="#63b8ff" stroke="#63b8ff" points="532.37,-226.67 523.65,-232.7 534.22,-233.42 532.37,-226.67"/>
</g>
<!-- Node14 -->
<g id="node14" class="node">
<title>Node14</title>
<g id="a_node14"><a xlink:href="classPostprocessorInterface.html" target="_top" xlink:title="Interface class for classes which interact with Postprocessors.">
<polygon fill="white" stroke="#666666" points="549,-215.5 400,-215.5 400,-196.5 549,-196.5 549,-215.5"/>
<text text-anchor="middle" x="474.5" y="-203.5" font-family="Courier,monospace" font-size="10.00">PostprocessorInterface</text>
</a>
</g>
</g>
<!-- Node14&#45;&gt;Node4 -->
<g id="edge13" class="edge">
<title>Node14&#45;&gt;Node4</title>
<path fill="none" stroke="#63b8ff" d="M560.62,-195.43C573.44,-193.84 585.93,-192.29 596.63,-190.96"/>
<polygon fill="#63b8ff" stroke="#63b8ff" points="560.31,-191.94 550.81,-196.65 561.17,-198.89 560.31,-191.94"/>
</g>
<!-- Node15 -->
<g id="node15" class="node">
<title>Node15</title>
<g id="a_node15"><a xlink:href="classUserObjectInterface.html" target="_top" xlink:title="Interface for objects that need to use UserObjects.">
<polygon fill="white" stroke="#666666" points="540,-178.5 409,-178.5 409,-159.5 540,-159.5 540,-178.5"/>
<text text-anchor="middle" x="474.5" y="-166.5" font-family="Courier,monospace" font-size="10.00">UserObjectInterface</text>
</a>
</g>
</g>
<!-- Node15&#45;&gt;Node4 -->
<g id="edge14" class="edge">
<title>Node15&#45;&gt;Node4</title>
<path fill="none" stroke="#63b8ff" d="M551.46,-177.94C567.5,-179.82 583.58,-181.72 596.87,-183.28"/>
<polygon fill="#63b8ff" stroke="#63b8ff" points="552.23,-174.5 541.89,-176.81 551.41,-181.45 552.23,-174.5"/>
</g>
<!-- Node16 -->
<g id="node16" class="node">
<title>Node16</title>
<g id="a_node16"><a xlink:href="classRestartable.html" target="_top" xlink:title="A class for creating restricted objects.">
<polygon fill="white" stroke="#666666" points="516,-141.5 433,-141.5 433,-122.5 516,-122.5 516,-141.5"/>
<text text-anchor="middle" x="474.5" y="-129.5" font-family="Courier,monospace" font-size="10.00">Restartable</text>
</a>
</g>
</g>
<!-- Node16&#45;&gt;Node4 -->
<g id="edge15" class="edge">
<title>Node16&#45;&gt;Node4</title>
<path fill="none" stroke="#63b8ff" d="M527.33,-144.2C534.67,-146.27 542.07,-148.55 549,-151 570,-158.41 593.1,-169.18 608.96,-177.01"/>
<polygon fill="#63b8ff" stroke="#63b8ff" points="528.34,-140.85 517.77,-141.61 526.51,-147.6 528.34,-140.85"/>
</g>
<!-- Node17 -->
<g id="node17" class="node">
<title>Node17</title>
<g id="a_node17"><a xlink:href="classMeshChangedInterface.html" target="_top" xlink:title="Interface for notifications that the mesh has changed.">
<polygon fill="white" stroke="#666666" points="543,-104.5 406,-104.5 406,-85.5 543,-85.5 543,-104.5"/>
<text text-anchor="middle" x="474.5" y="-92.5" font-family="Courier,monospace" font-size="10.00">MeshChangedInterface</text>
</a>
</g>
</g>
<!-- Node17&#45;&gt;Node4 -->
<g id="edge16" class="edge">
<title>Node17&#45;&gt;Node4</title>
<path fill="none" stroke="#63b8ff" d="M538.12,-108.88C541.88,-110.42 545.54,-112.12 549,-114 579.46,-130.56 607.41,-161.31 620.57,-177.09"/>
<polygon fill="#63b8ff" stroke="#63b8ff" points="539.35,-105.6 528.76,-105.48 536.97,-112.18 539.35,-105.6"/>
</g>
<!-- Node18 -->
<g id="node18" class="node">
<title>Node18</title>
<g id="a_node18"><a xlink:href="classScalarCoupleable.html" target="_top" xlink:title="Interface for objects that needs scalar coupling capabilities.">
<polygon fill="white" stroke="#666666" points="531,-67.5 418,-67.5 418,-48.5 531,-48.5 531,-67.5"/>
<text text-anchor="middle" x="474.5" y="-55.5" font-family="Courier,monospace" font-size="10.00">ScalarCoupleable</text>
</a>
</g>
</g>
<!-- Node18&#45;&gt;Node4 -->
<g id="edge17" class="edge">
<title>Node18&#45;&gt;Node4</title>
<path fill="none" stroke="#63b8ff" d="M541.51,-72.53C544.11,-73.89 546.62,-75.37 549,-77 587.73,-103.44 614.28,-155.24 624.19,-177"/>
<polygon fill="#63b8ff" stroke="#63b8ff" points="543.05,-69.39 532.49,-68.51 540.2,-75.78 543.05,-69.39"/>
</g>
<!-- Node19 -->
<g id="node19" class="node">
<title>Node19</title>
<g id="a_node19"><a xlink:href="classMoose_1_1FunctorBase.html" target="_top" xlink:title=" ">
<polygon fill="white" stroke="#666666" points="537,-30 412,-30 412,0 537,0 537,-30"/>
<text text-anchor="start" x="420" y="-18" font-family="Courier,monospace" font-size="10.00">Moose::FunctorBase</text>
<text text-anchor="middle" x="474.5" y="-7" font-family="Courier,monospace" font-size="10.00">&lt; Real &gt;</text>
</a>
</g>
</g>
<!-- Node19&#45;&gt;Node4 -->
<g id="edge18" class="edge">
<title>Node19&#45;&gt;Node4</title>
<path fill="none" stroke="#63b8ff" d="M545.6,-36.34C546.76,-37.19 547.9,-38.08 549,-39 595.3,-77.74 618.7,-150.6 625.97,-177.07"/>
<polygon fill="#63b8ff" stroke="#63b8ff" points="547.74,-33.55 537.4,-31.25 544.04,-39.5 547.74,-33.55"/>
</g>
<!-- Node20 -->
<g id="node20" class="node">
<title>Node20</title>
<g id="a_node20"><a xlink:href="classMoose_1_1FunctorAbstract.html" target="_top" xlink:title="Abstract base class that can be used to hold collections of functors.">
<polygon fill="white" stroke="#666666" points="349,-24.5 200,-24.5 200,-5.5 349,-5.5 349,-24.5"/>
<text text-anchor="middle" x="274.5" y="-12.5" font-family="Courier,monospace" font-size="10.00">Moose::FunctorAbstract</text>
</a>
</g>
</g>
<!-- Node20&#45;&gt;Node19 -->
<g id="edge19" class="edge">
<title>Node20&#45;&gt;Node19</title>
<path fill="none" stroke="#63b8ff" d="M360.44,-15C377.66,-15 395.46,-15 411.7,-15"/>
<polygon fill="#63b8ff" stroke="#63b8ff" points="360.74,-11.5 350.74,-15 360.74,-18.5 360.74,-11.5"/>
</g>
<!-- Node21 -->
<g id="node21" class="node">
<title>Node21</title>
<g id="a_node21"><a xlink:href="classFaceArgInterface.html" target="_top" xlink:title="A base class interface for both producers and consumers of functor face arguments,...">
<polygon fill="white" stroke="#666666" points="131,-24.5 18,-24.5 18,-5.5 131,-5.5 131,-24.5"/>
<text text-anchor="middle" x="74.5" y="-12.5" font-family="Courier,monospace" font-size="10.00">FaceArgInterface</text>
</a>
</g>
</g>
<!-- Node21&#45;&gt;Node20 -->
<g id="edge20" class="edge">
<title>Node21&#45;&gt;Node20</title>
<path fill="none" stroke="#63b8ff" d="M142.88,-15C161.13,-15 180.98,-15 199.57,-15"/>
<polygon fill="#63b8ff" stroke="#63b8ff" points="142.96,-11.5 132.96,-15 142.96,-18.5 142.96,-11.5"/>
</g>
</g>
</svg>
