<?xml version="1.0" encoding="UTF-8" standalone="no"?>
<!DOCTYPE svg PUBLIC "-//W3C//DTD SVG 1.1//EN"
 "http://www.w3.org/Graphics/SVG/1.1/DTD/svg11.dtd">
<!-- Generated by graphviz version 7.0.5 (20221223.1930)
 -->
<!-- Title: MortarConstraint Pages: 1 -->
<!--zoomable 523 -->
<svg id="main" version="1.1" xmlns="http://www.w3.org/2000/svg" xmlns:xlink="http://www.w3.org/1999/xlink" xml:space="preserve" onload="init(evt)">
<style type="text/css"><![CDATA[
.edge:hover path { stroke: red; }
.edge:hover polygon { stroke: red; fill: red; }
]]></style>
<script type="text/javascript"><![CDATA[
var edges = document.getElementsByTagName('g');
if (edges && edges.length) {
  for (var i=0;i<edges.length;i++) {
    if (edges[i].id.substr(0,4)=='edge') {
      edges[i].setAttribute('class','edge');
    }
  }
}
]]></script>
        <defs>
                <circle id="rim" cx="0" cy="0" r="7"/>
                <circle id="rim2" cx="0" cy="0" r="3.5"/>
                <g id="zoomPlus">
                        <use xlink:href="#rim" fill="#404040">
                                <set attributeName="fill" to="#808080" begin="zoomplus.mouseover" end="zoomplus.mouseout"/>
                        </use>
                        <path d="M-4,0h8M0,-4v8" fill="none" stroke="white" stroke-width="1.5" pointer-events="none"/>
                </g>
                <g id="zoomMin">
                        <use xlink:href="#rim" fill="#404040">
                                <set attributeName="fill" to="#808080" begin="zoomminus.mouseover" end="zoomminus.mouseout"/>
                        </use>
                        <path d="M-4,0h8" fill="none" stroke="white" stroke-width="1.5" pointer-events="none"/>
                </g>
                <g id="dirArrow">
                        <path fill="none" stroke="white" stroke-width="1.5" d="M0,-3.0v7 M-2.5,-0.5L0,-3.0L2.5,-0.5"/>
                </g>
               <g id="resetDef">
                       <use xlink:href="#rim2" fill="#404040">
                               <set attributeName="fill" to="#808080" begin="reset.mouseover" end="reset.mouseout"/>
                       </use>
               </g>
        </defs>

<script type="text/javascript">
var viewWidth = 2157;
var viewHeight = 523;
var sectionId = 'dynsection-0';
</script>
<script xlink:href="svgpan.js"/>
<svg id="graph" class="graph">
<g id="viewport">
<title>MortarConstraint</title>
<!-- Node1 -->
<g id="node1" class="node">
<title>Node1</title>
<g id="a_node1"><a xlink:title=" ">
<polygon fill="#999999" stroke="#666666" points="1528,-104.5 1415,-104.5 1415,-85.5 1528,-85.5 1528,-104.5"/>
<text text-anchor="middle" x="1471.5" y="-92.5" font-family="Courier,monospace" font-size="10.00">MortarConstraint</text>
</a>
</g>
</g>
<!-- Node33 -->
<g id="node33" class="node">
<title>Node33</title>
<g id="a_node33"><a xlink:href="classMortarScalarBase.html" target="_top" xlink:title="This Constraint adds standardized methods for assembling to a primary scalar variable associated with...">
<polygon fill="white" stroke="#666666" points="1698,-123.5 1585,-123.5 1585,-104.5 1698,-104.5 1698,-123.5"/>
<text text-anchor="middle" x="1641.5" y="-111.5" font-family="Courier,monospace" font-size="10.00">MortarScalarBase</text>
</a>
</g>
</g>
<!-- Node1&#45;&gt;Node33 -->
<g id="edge32" class="edge">
<title>Node1&#45;&gt;Node33</title>
<path fill="none" stroke="#63b8ff" d="M1539.64,-102.59C1554.52,-104.28 1570.14,-106.04 1584.52,-107.67"/>
<polygon fill="#63b8ff" stroke="#63b8ff" points="1540.28,-99.14 1529.95,-101.5 1539.49,-106.1 1540.28,-99.14"/>
</g>
<!-- Node37 -->
<g id="node37" class="node">
<title>Node37</title>
<g id="a_node37"><a xlink:href="classOldEqualValueConstraint.html" target="_top" xlink:title="Constrain the value of a variable to be the same on both sides of an interface.">
<polygon fill="white" stroke="#666666" points="1719,-86.5 1564,-86.5 1564,-67.5 1719,-67.5 1719,-86.5"/>
<text text-anchor="middle" x="1641.5" y="-74.5" font-family="Courier,monospace" font-size="10.00">OldEqualValueConstraint</text>
</a>
</g>
</g>
<!-- Node1&#45;&gt;Node37 -->
<g id="edge36" class="edge">
<title>Node1&#45;&gt;Node37</title>
<path fill="none" stroke="#63b8ff" d="M1539.74,-87.8C1547.58,-86.96 1555.61,-86.1 1563.56,-85.24"/>
<polygon fill="#63b8ff" stroke="#63b8ff" points="1539.52,-84.3 1529.95,-88.85 1540.26,-91.26 1539.52,-84.3"/>
</g>
<!-- Node2 -->
<g id="node2" class="node">
<title>Node2</title>
<g id="a_node2"><a xlink:href="classMortarConstraintBase.html" target="_top" xlink:title="User for mortar methods.">
<polygon fill="white" stroke="#666666" points="1379,-104.5 1242,-104.5 1242,-85.5 1379,-85.5 1379,-104.5"/>
<text text-anchor="middle" x="1310.5" y="-92.5" font-family="Courier,monospace" font-size="10.00">MortarConstraintBase</text>
</a>
</g>
</g>
<!-- Node2&#45;&gt;Node1 -->
<g id="edge1" class="edge">
<title>Node2&#45;&gt;Node1</title>
<path fill="none" stroke="#63b8ff" d="M1390.82,-95C1398.93,-95 1407.04,-95 1414.82,-95"/>
<polygon fill="#63b8ff" stroke="#63b8ff" points="1390.91,-91.5 1380.91,-95 1390.91,-98.5 1390.91,-91.5"/>
</g>
<!-- Node3 -->
<g id="node3" class="node">
<title>Node3</title>
<g id="a_node3"><a xlink:href="classConstraint.html" target="_top" xlink:title="Base class for all Constraint types.">
<polygon fill="white" stroke="#666666" points="1143,-218.5 1066,-218.5 1066,-199.5 1143,-199.5 1143,-218.5"/>
<text text-anchor="middle" x="1104.5" y="-206.5" font-family="Courier,monospace" font-size="10.00">Constraint</text>
</a>
</g>
</g>
<!-- Node3&#45;&gt;Node2 -->
<g id="edge2" class="edge">
<title>Node3&#45;&gt;Node2</title>
<path fill="none" stroke="#63b8ff" d="M1139.46,-194.51C1159.21,-185.75 1184.39,-173.97 1206,-162 1239.14,-143.64 1275.93,-118.64 1295.48,-104.96"/>
<polygon fill="#63b8ff" stroke="#63b8ff" points="1138.24,-191.23 1130.49,-198.45 1141.05,-197.64 1138.24,-191.23"/>
</g>
<!-- Node4 -->
<g id="node4" class="node">
<title>Node4</title>
<g id="a_node4"><a xlink:href="classNeighborResidualObject.html" target="_top" xlink:title="This is a base class for objects that can provide residual contributions for both local and neighbor ...">
<polygon fill="white" stroke="#666666" points="937,-255.5 788,-255.5 788,-236.5 937,-236.5 937,-255.5"/>
<text text-anchor="middle" x="862.5" y="-243.5" font-family="Courier,monospace" font-size="10.00">NeighborResidualObject</text>
</a>
</g>
</g>
<!-- Node4&#45;&gt;Node3 -->
<g id="edge3" class="edge">
<title>Node4&#45;&gt;Node3</title>
<path fill="none" stroke="#63b8ff" d="M939.47,-234.29C981.53,-227.8 1031.97,-220.03 1065.71,-214.83"/>
<polygon fill="#63b8ff" stroke="#63b8ff" points="938.98,-230.82 929.63,-235.81 940.04,-237.74 938.98,-230.82"/>
</g>
<!-- Node5 -->
<g id="node5" class="node">
<title>Node5</title>
<g id="a_node5"><a xlink:href="classResidualObject.html" target="_top" xlink:title="This is the common base class for objects that give residual contributions.">
<polygon fill="white" stroke="#666666" points="722,-255.5 621,-255.5 621,-236.5 722,-236.5 722,-255.5"/>
<text text-anchor="middle" x="671.5" y="-243.5" font-family="Courier,monospace" font-size="10.00">ResidualObject</text>
</a>
</g>
</g>
<!-- Node5&#45;&gt;Node4 -->
<g id="edge4" class="edge">
<title>Node5&#45;&gt;Node4</title>
<path fill="none" stroke="#63b8ff" d="M733.26,-246C750.57,-246 769.62,-246 787.63,-246"/>
<polygon fill="#63b8ff" stroke="#63b8ff" points="733.67,-242.5 723.67,-246 733.67,-249.5 733.67,-242.5"/>
</g>
<!-- Node6 -->
<g id="node6" class="node">
<title>Node6</title>
<g id="a_node6"><a xlink:href="classMooseObject.html" target="_top" xlink:title="Every object that can be built by the factory should be derived from this class.">
<polygon fill="white" stroke="#666666" points="534,-440.5 451,-440.5 451,-421.5 534,-421.5 534,-440.5"/>
<text text-anchor="middle" x="492.5" y="-428.5" font-family="Courier,monospace" font-size="10.00">MooseObject</text>
</a>
</g>
</g>
<!-- Node6&#45;&gt;Node5 -->
<g id="edge5" class="edge">
<title>Node6&#45;&gt;Node5</title>
<path fill="none" stroke="#63b8ff" d="M545.5,-428.96C559.39,-426.34 573.68,-421.54 585,-413 639.88,-371.63 662.38,-285.01 668.59,-255.83"/>
<polygon fill="#63b8ff" stroke="#63b8ff" points="545.36,-425.44 536,-430.4 546.41,-432.36 545.36,-425.44"/>
</g>
<!-- Node7 -->
<g id="node7" class="node">
<title>Node7</title>
<g id="a_node7"><a xlink:href="classMooseBase.html" target="_top" xlink:title="Base class for everything in MOOSE with a name and a type.">
<polygon fill="white" stroke="#666666" points="310,-514.5 239,-514.5 239,-495.5 310,-495.5 310,-514.5"/>
<text text-anchor="middle" x="274.5" y="-502.5" font-family="Courier,monospace" font-size="10.00">MooseBase</text>
</a>
</g>
</g>
<!-- Node7&#45;&gt;Node6 -->
<g id="edge6" class="edge">
<title>Node7&#45;&gt;Node6</title>
<path fill="none" stroke="#63b8ff" d="M321.62,-497.55C335.41,-494.81 350.46,-491.3 364,-487 403.87,-474.35 448.08,-453.22 472.56,-440.85"/>
<polygon fill="#63b8ff" stroke="#63b8ff" points="321.06,-494.09 311.89,-499.39 322.36,-500.97 321.06,-494.09"/>
</g>
<!-- Node8 -->
<g id="node8" class="node">
<title>Node8</title>
<g id="a_node8"><a xlink:href="classMooseBaseParameterInterface.html" target="_top" xlink:title="Every object that can be built by the factory should be derived from this class.">
<polygon fill="white" stroke="#666666" points="364,-477.5 185,-477.5 185,-458.5 364,-458.5 364,-477.5"/>
<text text-anchor="middle" x="274.5" y="-465.5" font-family="Courier,monospace" font-size="10.00">MooseBaseParameterInterface</text>
</a>
</g>
</g>
<!-- Node8&#45;&gt;Node6 -->
<g id="edge7" class="edge">
<title>Node8&#45;&gt;Node6</title>
<path fill="none" stroke="#63b8ff" d="M344.77,-456.13C379.7,-450.15 420.85,-443.1 450.68,-437.99"/>
<polygon fill="#63b8ff" stroke="#63b8ff" points="344.43,-452.64 335.16,-457.78 345.61,-459.54 344.43,-452.64"/>
</g>
<!-- Node9 -->
<g id="node9" class="node">
<title>Node9</title>
<g id="a_node9"><a xlink:href="classMooseBaseErrorInterface.html" target="_top" xlink:title="Interface that provides APIs to output errors/warnings/info messages.">
<polygon fill="white" stroke="#666666" points="352,-440.5 197,-440.5 197,-421.5 352,-421.5 352,-440.5"/>
<text text-anchor="middle" x="274.5" y="-428.5" font-family="Courier,monospace" font-size="10.00">MooseBaseErrorInterface</text>
</a>
</g>
</g>
<!-- Node9&#45;&gt;Node6 -->
<g id="edge8" class="edge">
<title>Node9&#45;&gt;Node6</title>
<path fill="none" stroke="#63b8ff" d="M363.7,-431C393.87,-431 426.17,-431 450.75,-431"/>
<polygon fill="#63b8ff" stroke="#63b8ff" points="363.78,-427.5 353.78,-431 363.78,-434.5 363.78,-427.5"/>
</g>
<!-- Node10 -->
<g id="node10" class="node">
<title>Node10</title>
<g id="a_node10"><a xlink:href="classConsoleStreamInterface.html" target="_top" xlink:title="An inteface for the _console for outputting to the Console object.">
<polygon fill="white" stroke="#666666" points="149,-440.5 0,-440.5 0,-421.5 149,-421.5 149,-440.5"/>
<text text-anchor="middle" x="74.5" y="-428.5" font-family="Courier,monospace" font-size="10.00">ConsoleStreamInterface</text>
</a>
</g>
</g>
<!-- Node10&#45;&gt;Node9 -->
<g id="edge9" class="edge">
<title>Node10&#45;&gt;Node9</title>
<path fill="none" stroke="#63b8ff" d="M160.62,-431C172.62,-431 184.9,-431 196.73,-431"/>
<polygon fill="#63b8ff" stroke="#63b8ff" points="160.74,-427.5 150.74,-431 160.74,-434.5 160.74,-427.5"/>
</g>
<!-- Node11 -->
<g id="node11" class="node">
<title>Node11</title>
<g id="a_node11"><a xlink:title=" ">
<polygon fill="white" stroke="#666666" points="352,-403.5 197,-403.5 197,-384.5 352,-384.5 352,-403.5"/>
<text text-anchor="middle" x="274.5" y="-391.5" font-family="Courier,monospace" font-size="10.00">libMesh::ParallelObject</text>
</a>
</g>
</g>
<!-- Node11&#45;&gt;Node6 -->
<g id="edge10" class="edge">
<title>Node11&#45;&gt;Node6</title>
<path fill="none" stroke="#63b8ff" d="M344.77,-405.87C379.7,-411.85 420.85,-418.9 450.68,-424.01"/>
<polygon fill="#63b8ff" stroke="#63b8ff" points="345.61,-402.46 335.16,-404.22 344.43,-409.36 345.61,-402.46"/>
</g>
<!-- Node12 -->
<g id="node12" class="node">
<title>Node12</title>
<g id="a_node12"><a xlink:href="classDataFileInterface.html" target="_top" xlink:title=" ">
<polygon fill="white" stroke="#666666" points="337,-366 212,-366 212,-336 337,-336 337,-366"/>
<text text-anchor="start" x="220" y="-354" font-family="Courier,monospace" font-size="10.00">DataFileInterface&lt;</text>
<text text-anchor="middle" x="274.5" y="-343" font-family="Courier,monospace" font-size="10.00"> MooseObject &gt;</text>
</a>
</g>
</g>
<!-- Node12&#45;&gt;Node6 -->
<g id="edge11" class="edge">
<title>Node12&#45;&gt;Node6</title>
<path fill="none" stroke="#63b8ff" d="M347.62,-367.85C353.32,-370.23 358.86,-372.94 364,-376 383.71,-387.74 379.83,-402.07 400,-413 415.37,-421.33 434.06,-425.84 450.53,-428.26"/>
<polygon fill="#63b8ff" stroke="#63b8ff" points="349.23,-364.72 338.64,-364.44 346.74,-371.26 349.23,-364.72"/>
</g>
<!-- Node13 -->
<g id="node13" class="node">
<title>Node13</title>
<g id="a_node13"><a xlink:href="classSetupInterface.html" target="_top" xlink:title=" ">
<polygon fill="white" stroke="#666666" points="543,-403.5 442,-403.5 442,-384.5 543,-384.5 543,-403.5"/>
<text text-anchor="middle" x="492.5" y="-391.5" font-family="Courier,monospace" font-size="10.00">SetupInterface</text>
</a>
</g>
</g>
<!-- Node13&#45;&gt;Node5 -->
<g id="edge12" class="edge">
<title>Node13&#45;&gt;Node5</title>
<path fill="none" stroke="#63b8ff" d="M554.5,-389.01C565.27,-386.23 575.92,-382.1 585,-376 630.96,-345.12 658.14,-280.33 667.14,-255.75"/>
<polygon fill="#63b8ff" stroke="#63b8ff" points="553.8,-385.58 544.77,-391.13 555.29,-392.42 553.8,-385.58"/>
</g>
<!-- Node14 -->
<g id="node14" class="node">
<title>Node14</title>
<g id="a_node14"><a xlink:href="classFunctionInterface.html" target="_top" xlink:title="Interface for objects that need to use functions.">
<polygon fill="white" stroke="#666666" points="552,-366.5 433,-366.5 433,-347.5 552,-347.5 552,-366.5"/>
<text text-anchor="middle" x="492.5" y="-354.5" font-family="Courier,monospace" font-size="10.00">FunctionInterface</text>
</a>
</g>
</g>
<!-- Node14&#45;&gt;Node5 -->
<g id="edge13" class="edge">
<title>Node14&#45;&gt;Node5</title>
<path fill="none" stroke="#63b8ff" d="M563.01,-348.22C570.69,-345.84 578.18,-342.82 585,-339 622.31,-318.09 652.39,-275.08 664.6,-255.76"/>
<polygon fill="#63b8ff" stroke="#63b8ff" points="562.27,-344.8 553.54,-350.79 564.11,-351.55 562.27,-344.8"/>
</g>
<!-- Node15 -->
<g id="node15" class="node">
<title>Node15</title>
<g id="a_node15"><a xlink:href="classUserObjectInterface.html" target="_top" xlink:title="Interface for objects that need to use UserObjects.">
<polygon fill="white" stroke="#666666" points="558,-329.5 427,-329.5 427,-310.5 558,-310.5 558,-329.5"/>
<text text-anchor="middle" x="492.5" y="-317.5" font-family="Courier,monospace" font-size="10.00">UserObjectInterface</text>
</a>
</g>
</g>
<!-- Node15&#45;&gt;Node5 -->
<g id="edge14" class="edge">
<title>Node15&#45;&gt;Node5</title>
<path fill="none" stroke="#63b8ff" d="M569.45,-307.45C574.78,-305.84 580.02,-304.03 585,-302 613.59,-290.35 642.82,-268.66 658.6,-255.97"/>
<polygon fill="#63b8ff" stroke="#63b8ff" points="568.59,-304.05 559.87,-310.07 570.44,-310.81 568.59,-304.05"/>
</g>
<!-- Node16 -->
<g id="node16" class="node">
<title>Node16</title>
<g id="a_node16"><a xlink:href="classTransientInterface.html" target="_top" xlink:title="Interface for objects that needs transient capabilities.">
<polygon fill="white" stroke="#666666" points="555,-292.5 430,-292.5 430,-273.5 555,-273.5 555,-292.5"/>
<text text-anchor="middle" x="492.5" y="-280.5" font-family="Courier,monospace" font-size="10.00">TransientInterface</text>
</a>
</g>
</g>
<!-- Node16&#45;&gt;Node5 -->
<g id="edge15" class="edge">
<title>Node16&#45;&gt;Node5</title>
<path fill="none" stroke="#63b8ff" d="M556.44,-270.83C566.01,-268.92 575.77,-266.93 585,-265 598.54,-262.16 613.26,-258.94 626.61,-255.97"/>
<polygon fill="#63b8ff" stroke="#63b8ff" points="555.93,-267.36 546.81,-272.74 557.3,-274.23 555.93,-267.36"/>
</g>
<!-- Node17 -->
<g id="node17" class="node">
<title>Node17</title>
<g id="a_node17"><a xlink:href="classPostprocessorInterface.html" target="_top" xlink:title="Interface class for classes which interact with Postprocessors.">
<polygon fill="white" stroke="#666666" points="567,-255.5 418,-255.5 418,-236.5 567,-236.5 567,-255.5"/>
<text text-anchor="middle" x="492.5" y="-243.5" font-family="Courier,monospace" font-size="10.00">PostprocessorInterface</text>
</a>
</g>
</g>
<!-- Node17&#45;&gt;Node5 -->
<g id="edge16" class="edge">
<title>Node17&#45;&gt;Node5</title>
<path fill="none" stroke="#63b8ff" d="M578.77,-246C593.16,-246 607.67,-246 620.76,-246"/>
<polygon fill="#63b8ff" stroke="#63b8ff" points="578.8,-242.5 568.8,-246 578.8,-249.5 578.8,-242.5"/>
</g>
<!-- Node18 -->
<g id="node18" class="node">
<title>Node18</title>
<g id="a_node18"><a xlink:href="classVectorPostprocessorInterface.html" target="_top" xlink:title=" ">
<polygon fill="white" stroke="#666666" points="585,-218.5 400,-218.5 400,-199.5 585,-199.5 585,-218.5"/>
<text text-anchor="middle" x="492.5" y="-206.5" font-family="Courier,monospace" font-size="10.00">VectorPostprocessorInterface</text>
</a>
</g>
</g>
<!-- Node18&#45;&gt;Node5 -->
<g id="edge17" class="edge">
<title>Node18&#45;&gt;Node5</title>
<path fill="none" stroke="#63b8ff" d="M552.54,-221.24C563.34,-223.48 574.51,-225.81 585,-228 597.47,-230.61 610.97,-233.44 623.47,-236.07"/>
<polygon fill="#63b8ff" stroke="#63b8ff" points="553.45,-217.85 542.95,-219.24 552.03,-224.7 553.45,-217.85"/>
</g>
<!-- Node19 -->
<g id="node19" class="node">
<title>Node19</title>
<g id="a_node19"><a xlink:href="classRandomInterface.html" target="_top" xlink:title="Interface for objects that need parallel consistent random numbers without patterns over the course o...">
<polygon fill="white" stroke="#666666" points="546,-181.5 439,-181.5 439,-162.5 546,-162.5 546,-181.5"/>
<text text-anchor="middle" x="492.5" y="-169.5" font-family="Courier,monospace" font-size="10.00">RandomInterface</text>
</a>
</g>
</g>
<!-- Node19&#45;&gt;Node5 -->
<g id="edge18" class="edge">
<title>Node19&#45;&gt;Node5</title>
<path fill="none" stroke="#63b8ff" d="M557.3,-182.1C566.76,-184.49 576.26,-187.42 585,-191 613.26,-202.56 642.37,-223.61 658.28,-236.05"/>
<polygon fill="#63b8ff" stroke="#63b8ff" points="558.27,-178.73 547.74,-179.87 556.68,-185.55 558.27,-178.73"/>
</g>
<!-- Node20 -->
<g id="node20" class="node">
<title>Node20</title>
<g id="a_node20"><a xlink:href="classRestartable.html" target="_top" xlink:title="A class for creating restricted objects.">
<polygon fill="white" stroke="#666666" points="534,-144.5 451,-144.5 451,-125.5 534,-125.5 534,-144.5"/>
<text text-anchor="middle" x="492.5" y="-132.5" font-family="Courier,monospace" font-size="10.00">Restartable</text>
</a>
</g>
</g>
<!-- Node20&#45;&gt;Node5 -->
<g id="edge19" class="edge">
<title>Node20&#45;&gt;Node5</title>
<path fill="none" stroke="#63b8ff" d="M545.28,-140.03C558.81,-142.84 572.96,-147.21 585,-154 589.82,-156.72 640.76,-212.97 661.64,-236.15"/>
<polygon fill="#63b8ff" stroke="#63b8ff" points="546.08,-136.61 535.61,-138.28 544.83,-143.5 546.08,-136.61"/>
</g>
<!-- Node21 -->
<g id="node21" class="node">
<title>Node21</title>
<g id="a_node21"><a xlink:href="classMeshChangedInterface.html" target="_top" xlink:title="Interface for notifications that the mesh has changed.">
<polygon fill="white" stroke="#666666" points="561,-107.5 424,-107.5 424,-88.5 561,-88.5 561,-107.5"/>
<text text-anchor="middle" x="492.5" y="-95.5" font-family="Courier,monospace" font-size="10.00">MeshChangedInterface</text>
</a>
</g>
</g>
<!-- Node21&#45;&gt;Node5 -->
<g id="edge20" class="edge">
<title>Node21&#45;&gt;Node5</title>
<path fill="none" stroke="#63b8ff" d="M571.75,-108.9C576.46,-111.16 580.93,-113.83 585,-117 613.86,-139.46 600.57,-160.67 621,-191 632.63,-208.26 649.36,-225.7 660.08,-236.18"/>
<polygon fill="#63b8ff" stroke="#63b8ff" points="573.11,-105.68 562.52,-105.18 570.49,-112.17 573.11,-105.68"/>
</g>
<!-- Node22 -->
<g id="node22" class="node">
<title>Node22</title>
<g id="a_node22"><a xlink:href="classTaggingInterface.html" target="_top" xlink:title=" ">
<polygon fill="white" stroke="#666666" points="549,-70.5 436,-70.5 436,-51.5 549,-51.5 549,-70.5"/>
<text text-anchor="middle" x="492.5" y="-58.5" font-family="Courier,monospace" font-size="10.00">TaggingInterface</text>
</a>
</g>
</g>
<!-- Node22&#45;&gt;Node5 -->
<g id="edge21" class="edge">
<title>Node22&#45;&gt;Node5</title>
<path fill="none" stroke="#63b8ff" d="M560.03,-66.09C569.19,-69.17 577.88,-73.62 585,-80 623.61,-114.62 595.09,-146.08 621,-191 631.27,-208.8 648.04,-225.84 659.17,-236.11"/>
<polygon fill="#63b8ff" stroke="#63b8ff" points="561.15,-62.77 550.58,-63.49 559.29,-69.52 561.15,-62.77"/>
</g>
<!-- Node23 -->
<g id="node23" class="node">
<title>Node23</title>
<g id="a_node23"><a xlink:href="classGeometricSearchInterface.html" target="_top" xlink:title=" ">
<polygon fill="white" stroke="#666666" points="943,-218.5 782,-218.5 782,-199.5 943,-199.5 943,-218.5"/>
<text text-anchor="middle" x="862.5" y="-206.5" font-family="Courier,monospace" font-size="10.00">GeometricSearchInterface</text>
</a>
</g>
</g>
<!-- Node23&#45;&gt;Node3 -->
<g id="edge22" class="edge">
<title>Node23&#45;&gt;Node3</title>
<path fill="none" stroke="darkgreen" d="M954.67,-209C993.15,-209 1035.83,-209 1065.58,-209"/>
<polygon fill="darkgreen" stroke="darkgreen" points="954.93,-205.5 944.93,-209 954.93,-212.5 954.93,-205.5"/>
</g>
<!-- Node24 -->
<g id="node24" class="node">
<title>Node24</title>
<g id="a_node24"><a xlink:href="classNeighborCoupleableMooseVariableDependencyIntermediateInterface.html" target="_top" xlink:title="Intermediate base class that ties together all the interfaces for getting MooseVariables with the Moo...">
<polygon fill="white" stroke="#666666" points="1206,-153 1003,-153 1003,-123 1206,-123 1206,-153"/>
<text text-anchor="start" x="1011" y="-141" font-family="Courier,monospace" font-size="10.00">NeighborCoupleableMooseVariable</text>
<text text-anchor="middle" x="1104.5" y="-130" font-family="Courier,monospace" font-size="10.00">DependencyIntermediateInterface</text>
</a>
</g>
</g>
<!-- Node24&#45;&gt;Node2 -->
<g id="edge23" class="edge">
<title>Node24&#45;&gt;Node2</title>
<path fill="none" stroke="#63b8ff" d="M1190.06,-120.18C1214.7,-114.98 1240.74,-109.49 1262.2,-104.97"/>
<polygon fill="#63b8ff" stroke="#63b8ff" points="1189.4,-116.74 1180.34,-122.22 1190.85,-123.59 1189.4,-116.74"/>
</g>
<!-- Node25 -->
<g id="node25" class="node">
<title>Node25</title>
<g id="a_node25"><a xlink:href="classNeighborCoupleable.html" target="_top" xlink:title="Enhances Coupleable interface to also couple the values from neighbor elements.">
<polygon fill="white" stroke="#666666" points="925,-181.5 800,-181.5 800,-162.5 925,-162.5 925,-181.5"/>
<text text-anchor="middle" x="862.5" y="-169.5" font-family="Courier,monospace" font-size="10.00">NeighborCoupleable</text>
</a>
</g>
</g>
<!-- Node25&#45;&gt;Node24 -->
<g id="edge24" class="edge">
<title>Node25&#45;&gt;Node24</title>
<path fill="none" stroke="#63b8ff" d="M936.64,-161.64C957.5,-158.68 980.6,-155.41 1002.8,-152.27"/>
<polygon fill="#63b8ff" stroke="#63b8ff" points="936.21,-158.16 926.8,-163.03 937.2,-165.09 936.21,-158.16"/>
</g>
<!-- Node26 -->
<g id="node26" class="node">
<title>Node26</title>
<g id="a_node26"><a xlink:href="classCoupleable.html" target="_top" xlink:title="Interface for objects that needs coupling capabilities.">
<polygon fill="white" stroke="#666666" points="710,-181.5 633,-181.5 633,-162.5 710,-162.5 710,-181.5"/>
<text text-anchor="middle" x="671.5" y="-169.5" font-family="Courier,monospace" font-size="10.00">Coupleable</text>
</a>
</g>
</g>
<!-- Node26&#45;&gt;Node25 -->
<g id="edge25" class="edge">
<title>Node26&#45;&gt;Node25</title>
<path fill="none" stroke="#63b8ff" d="M721.55,-172C745.37,-172 774.26,-172 799.59,-172"/>
<polygon fill="#63b8ff" stroke="#63b8ff" points="721.81,-168.5 711.81,-172 721.81,-175.5 721.81,-168.5"/>
</g>
<!-- Node27 -->
<g id="node27" class="node">
<title>Node27</title>
<g id="a_node27"><a xlink:href="classScalarCoupleable.html" target="_top" xlink:title="Interface for objects that needs scalar coupling capabilities.">
<polygon fill="white" stroke="#666666" points="919,-144.5 806,-144.5 806,-125.5 919,-125.5 919,-144.5"/>
<text text-anchor="middle" x="862.5" y="-132.5" font-family="Courier,monospace" font-size="10.00">ScalarCoupleable</text>
</a>
</g>
</g>
<!-- Node27&#45;&gt;Node24 -->
<g id="edge26" class="edge">
<title>Node27&#45;&gt;Node24</title>
<path fill="none" stroke="#63b8ff" d="M930.83,-135.84C953.12,-136.12 978.44,-136.44 1002.68,-136.74"/>
<polygon fill="#63b8ff" stroke="#63b8ff" points="931.02,-132.34 920.98,-135.72 930.94,-139.34 931.02,-132.34"/>
</g>
<!-- Node28 -->
<g id="node28" class="node">
<title>Node28</title>
<g id="a_node28"><a xlink:href="classMooseVariableDependencyInterface.html" target="_top" xlink:title=" ">
<polygon fill="white" stroke="#666666" points="967,-107.5 758,-107.5 758,-88.5 967,-88.5 967,-107.5"/>
<text text-anchor="middle" x="862.5" y="-95.5" font-family="Courier,monospace" font-size="10.00">MooseVariableDependencyInterface</text>
</a>
</g>
</g>
<!-- Node28&#45;&gt;Node24 -->
<g id="edge27" class="edge">
<title>Node28&#45;&gt;Node24</title>
<path fill="none" stroke="#63b8ff" d="M934.54,-109.84C958.42,-113.82 985.43,-118.32 1010.73,-122.54"/>
<polygon fill="#63b8ff" stroke="#63b8ff" points="935.38,-106.43 924.94,-108.24 934.22,-113.34 935.38,-106.43"/>
</g>
<!-- Node29 -->
<g id="node29" class="node">
<title>Node29</title>
<g id="a_node29"><a xlink:href="classMortarConsumerInterface.html" target="_top" xlink:title="An interface for accessing mortar mesh data.">
<polygon fill="white" stroke="#666666" points="1182,-104.5 1027,-104.5 1027,-85.5 1182,-85.5 1182,-104.5"/>
<text text-anchor="middle" x="1104.5" y="-92.5" font-family="Courier,monospace" font-size="10.00">MortarConsumerInterface</text>
</a>
</g>
</g>
<!-- Node29&#45;&gt;Node2 -->
<g id="edge28" class="edge">
<title>Node29&#45;&gt;Node2</title>
<path fill="none" stroke="#63b8ff" d="M1193.44,-95C1209.63,-95 1226.3,-95 1241.78,-95"/>
<polygon fill="#63b8ff" stroke="#63b8ff" points="1193.85,-91.5 1183.85,-95 1193.85,-98.5 1193.85,-91.5"/>
</g>
<!-- Node30 -->
<g id="node30" class="node">
<title>Node30</title>
<g id="a_node30"><a xlink:href="classTwoMaterialPropertyInterface.html" target="_top" xlink:title="This interface is designed for DGKernel, InternalSideUserObject, InterfaceUserObject,...">
<polygon fill="white" stroke="#666666" points="1197,-67.5 1012,-67.5 1012,-48.5 1197,-48.5 1197,-67.5"/>
<text text-anchor="middle" x="1104.5" y="-55.5" font-family="Courier,monospace" font-size="10.00">TwoMaterialPropertyInterface</text>
</a>
</g>
</g>
<!-- Node30&#45;&gt;Node2 -->
<g id="edge29" class="edge">
<title>Node30&#45;&gt;Node2</title>
<path fill="none" stroke="#63b8ff" d="M1171.65,-70C1198.41,-74.85 1228.95,-80.39 1254.47,-85.02"/>
<polygon fill="#63b8ff" stroke="#63b8ff" points="1172.39,-66.57 1161.93,-68.23 1171.14,-73.46 1172.39,-66.57"/>
</g>
<!-- Node31 -->
<g id="node31" class="node">
<title>Node31</title>
<g id="a_node31"><a xlink:href="classMaterialPropertyInterface.html" target="_top" xlink:title="An interface for accessing Materials.">
<polygon fill="white" stroke="#666666" points="946,-67.5 779,-67.5 779,-48.5 946,-48.5 946,-67.5"/>
<text text-anchor="middle" x="862.5" y="-55.5" font-family="Courier,monospace" font-size="10.00">MaterialPropertyInterface</text>
</a>
</g>
</g>
<!-- Node31&#45;&gt;Node30 -->
<g id="edge30" class="edge">
<title>Node31&#45;&gt;Node30</title>
<path fill="none" stroke="#63b8ff" d="M957.9,-58C975.54,-58 993.96,-58 1011.53,-58"/>
<polygon fill="#63b8ff" stroke="#63b8ff" points="957.94,-54.5 947.94,-58 957.94,-61.5 957.94,-54.5"/>
</g>
<!-- Node32 -->
<g id="node32" class="node">
<title>Node32</title>
<g id="a_node32"><a xlink:href="classMooseVariableInterface.html" target="_top" xlink:title=" ">
<polygon fill="white" stroke="#666666" points="1179,-30 1030,-30 1030,0 1179,0 1179,-30"/>
<text text-anchor="start" x="1038" y="-18" font-family="Courier,monospace" font-size="10.00">MooseVariableInterface</text>
<text text-anchor="middle" x="1104.5" y="-7" font-family="Courier,monospace" font-size="10.00">&lt; Real &gt;</text>
</a>
</g>
</g>
<!-- Node32&#45;&gt;Node2 -->
<g id="edge31" class="edge">
<title>Node32&#45;&gt;Node2</title>
<path fill="none" stroke="#63b8ff" d="M1187.62,-33.65C1193.89,-35.61 1200.08,-37.73 1206,-40 1238.68,-52.53 1274.17,-73.05 1293.94,-85.17"/>
<polygon fill="#63b8ff" stroke="#63b8ff" points="1189.03,-30.42 1178.45,-30.92 1187.04,-37.13 1189.03,-30.42"/>
</g>
<!-- Node34 -->
<g id="node34" class="node">
<title>Node34</title>
<g id="a_node34"><a xlink:href="classDerivativeMaterialInterface.html" target="_top" xlink:title=" ">
<polygon fill="white" stroke="#666666" points="1934,-129 1755,-129 1755,-99 1934,-99 1934,-129"/>
<text text-anchor="start" x="1763" y="-117" font-family="Courier,monospace" font-size="10.00">DerivativeMaterialInterface</text>
<text text-anchor="middle" x="1844.5" y="-106" font-family="Courier,monospace" font-size="10.00">&lt; MortarScalarBase &gt;</text>
</a>
</g>
</g>
<!-- Node33&#45;&gt;Node34 -->
<g id="edge33" class="edge">
<title>Node33&#45;&gt;Node34</title>
<path fill="none" stroke="#63b8ff" d="M1709.79,-114C1724.18,-114 1739.6,-114 1754.67,-114"/>
<polygon fill="#63b8ff" stroke="#63b8ff" points="1710,-110.5 1700,-114 1710,-117.5 1710,-110.5"/>
</g>
<!-- Node35 -->
<g id="node35" class="node">
<title>Node35</title>
<g id="a_node35"><a xlink:href="classPenaltyPeriodicSegmentalConstraint.html" target="_top" xlink:title="This class enforces a periodic boundary condition between a microscale and macroscale field.">
<polygon fill="white" stroke="#666666" points="2140,-151 1979,-151 1979,-121 2140,-121 2140,-151"/>
<text text-anchor="start" x="1987" y="-139" font-family="Courier,monospace" font-size="10.00">PenaltyPeriodicSegmental</text>
<text text-anchor="middle" x="2059.5" y="-128" font-family="Courier,monospace" font-size="10.00">Constraint</text>
</a>
</g>
</g>
<!-- Node34&#45;&gt;Node35 -->
<g id="edge34" class="edge">
<title>Node34&#45;&gt;Node35</title>
<path fill="none" stroke="#63b8ff" d="M1945.4,-124.32C1956.57,-125.47 1967.83,-126.63 1978.69,-127.76"/>
<polygon fill="#63b8ff" stroke="#63b8ff" points="1946.1,-120.87 1935.79,-123.33 1945.38,-127.84 1946.1,-120.87"/>
</g>
<!-- Node36 -->
<g id="node36" class="node">
<title>Node36</title>
<g id="a_node36"><a xlink:href="classPeriodicSegmentalConstraint.html" target="_top" xlink:title="This class enforces a periodic boundary condition between a microscale and macroscale field.">
<polygon fill="white" stroke="#666666" points="2149,-102.5 1970,-102.5 1970,-83.5 2149,-83.5 2149,-102.5"/>
<text text-anchor="middle" x="2059.5" y="-90.5" font-family="Courier,monospace" font-size="10.00">PeriodicSegmentalConstraint</text>
</a>
</g>
</g>
<!-- Node34&#45;&gt;Node36 -->
<g id="edge35" class="edge">
<title>Node34&#45;&gt;Node36</title>
<path fill="none" stroke="#63b8ff" d="M1945.55,-104.14C1953.55,-103.35 1961.6,-102.55 1969.51,-101.77"/>
<polygon fill="#63b8ff" stroke="#63b8ff" points="1945.4,-100.63 1935.8,-105.1 1946.09,-107.6 1945.4,-100.63"/>
</g>
</g>
</svg>
        <g id="navigator" transform="translate(0 0)" fill="#404254">
                <rect fill="#f2f5e9" fill-opacity="0.5" stroke="#606060" stroke-width=".5" x="0" y="0" width="60" height="60"/>
                <use id="zoomplus" xlink:href="#zoomPlus" x="17" y="9" onmousedown="handleZoom(evt,'in')"/>
                <use id="zoomminus" xlink:href="#zoomMin" x="42" y="9" onmousedown="handleZoom(evt,'out')"/>
                <use id="reset" xlink:href="#resetDef" x="30" y="36" onmousedown="handleReset()"/>
                <g id="arrowUp" xlink:href="#dirArrow" transform="translate(30 24)" onmousedown="handlePan(0,-1)">
                  <use xlink:href="#rim" fill="#404040">
                        <set attributeName="fill" to="#808080" begin="arrowUp.mouseover" end="arrowUp.mouseout"/>
                  </use>
                  <path fill="none" stroke="white" stroke-width="1.5" d="M0,-3.0v7 M-2.5,-0.5L0,-3.0L2.5,-0.5"/>
                </g>
                <g id="arrowRight" xlink:href="#dirArrow" transform="rotate(90) translate(36 -43)" onmousedown="handlePan(1,0)">
                  <use xlink:href="#rim" fill="#404040">
                        <set attributeName="fill" to="#808080" begin="arrowRight.mouseover" end="arrowRight.mouseout"/>
                  </use>
                  <path fill="none" stroke="white" stroke-width="1.5" d="M0,-3.0v7 M-2.5,-0.5L0,-3.0L2.5,-0.5"/>
                </g>
                <g id="arrowDown" xlink:href="#dirArrow" transform="rotate(180) translate(-30 -48)" onmousedown="handlePan(0,1)">
                  <use xlink:href="#rim" fill="#404040">
                        <set attributeName="fill" to="#808080" begin="arrowDown.mouseover" end="arrowDown.mouseout"/>
                  </use>
                  <path fill="none" stroke="white" stroke-width="1.5" d="M0,-3.0v7 M-2.5,-0.5L0,-3.0L2.5,-0.5"/>
                </g>
                <g id="arrowLeft" xlink:href="#dirArrow" transform="rotate(270) translate(-36 17)" onmousedown="handlePan(-1,0)">
                  <use xlink:href="#rim" fill="#404040">
                        <set attributeName="fill" to="#808080" begin="arrowLeft.mouseover" end="arrowLeft.mouseout"/>
                  </use>
                  <path fill="none" stroke="white" stroke-width="1.5" d="M0,-3.0v7 M-2.5,-0.5L0,-3.0L2.5,-0.5"/>
                </g>
        </g>
        <svg viewBox="0 0 15 15" width="100%" height="30px" preserveAspectRatio="xMaxYMin meet">
         <g id="arrow_out" transform="scale(0.3 0.3)">
          <a xlink:href="classMortarConstraint__inherit__graph_org.svg" target="_base">
           <rect id="button" ry="5" rx="5" y="6" x="6" height="38" width="38"
                fill="#f2f5e9" fill-opacity="0.5" stroke="#606060" stroke-width="1.0"/>
           <path id="arrow"
             d="M 11.500037,31.436501 C 11.940474,20.09759 22.043105,11.32322 32.158766,21.979434 L 37.068811,17.246167 C 37.068811,17.246167 37.088388,32 37.088388,32 L 22.160133,31.978069 C 22.160133,31.978069 26.997745,27.140456 26.997745,27.140456 C 18.528582,18.264221 13.291696,25.230495 11.500037,31.436501 z"
             style="fill:#404040;"/>
          </a>
         </g>
        </svg>
</svg>
