<?xml version="1.0" encoding="UTF-8" standalone="no"?>
<!DOCTYPE svg PUBLIC "-//W3C//DTD SVG 1.1//EN"
 "http://www.w3.org/Graphics/SVG/1.1/DTD/svg11.dtd">
<!-- Generated by graphviz version 7.0.5 (20221223.1930)
 -->
<!-- Title: LaplacianJumpIndicator Pages: 1 -->
<svg width="1214pt" height="498pt"
 viewBox="0.00 0.00 1214.00 497.50" xmlns="http://www.w3.org/2000/svg" xmlns:xlink="http://www.w3.org/1999/xlink">
<g id="graph0" class="graph" transform="scale(1 1) rotate(0) translate(4 493.5)">
<title>LaplacianJumpIndicator</title>
<!-- Node1 -->
<g id="node1" class="node">
<title>Node1</title>
<g id="a_node1"><a xlink:title=" ">
<polygon fill="#999999" stroke="#666666" points="1206,-85.5 1057,-85.5 1057,-66.5 1206,-66.5 1206,-85.5"/>
<text text-anchor="middle" x="1131.5" y="-73.5" font-family="Courier,monospace" font-size="10.00">LaplacianJumpIndicator</text>
</a>
</g>
</g>
<!-- Node2 -->
<g id="node2" class="node">
<title>Node2</title>
<g id="a_node2"><a xlink:href="classInternalSideIndicator.html" target="_top" xlink:title="The InternalSideIndicator class is responsible for calculating the residuals for various physics on i...">
<polygon fill="white" stroke="#666666" points="1021,-85.5 878,-85.5 878,-66.5 1021,-66.5 1021,-85.5"/>
<text text-anchor="middle" x="949.5" y="-73.5" font-family="Courier,monospace" font-size="10.00">InternalSideIndicator</text>
</a>
</g>
</g>
<!-- Node2&#45;&gt;Node1 -->
<g id="edge1" class="edge">
<title>Node2&#45;&gt;Node1</title>
<path fill="none" stroke="#63b8ff" d="M1032.65,-76C1040.67,-76 1048.79,-76 1056.72,-76"/>
<polygon fill="#63b8ff" stroke="#63b8ff" points="1032.9,-72.5 1022.9,-76 1032.9,-79.5 1032.9,-72.5"/>
</g>
<!-- Node3 -->
<g id="node3" class="node">
<title>Node3</title>
<g id="a_node3"><a xlink:href="classIndicator.html" target="_top" xlink:title=" ">
<polygon fill="white" stroke="#666666" points="779,-248.5 708,-248.5 708,-229.5 779,-229.5 779,-248.5"/>
<text text-anchor="middle" x="743.5" y="-236.5" font-family="Courier,monospace" font-size="10.00">Indicator</text>
</a>
</g>
</g>
<!-- Node3&#45;&gt;Node2 -->
<g id="edge2" class="edge">
<title>Node3&#45;&gt;Node2</title>
<path fill="none" stroke="#63b8ff" d="M765.91,-221.89C808.48,-187.88 902.54,-112.73 936.21,-85.82"/>
<polygon fill="#63b8ff" stroke="#63b8ff" points="763.76,-219.13 758.14,-228.1 768.13,-224.6 763.76,-219.13"/>
</g>
<!-- Node4 -->
<g id="node4" class="node">
<title>Node4</title>
<g id="a_node4"><a xlink:href="classMooseObject.html" target="_top" xlink:title="Every object that can be built by the factory should be derived from this class.">
<polygon fill="white" stroke="#666666" points="546,-415.5 463,-415.5 463,-396.5 546,-396.5 546,-415.5"/>
<text text-anchor="middle" x="504.5" y="-403.5" font-family="Courier,monospace" font-size="10.00">MooseObject</text>
</a>
</g>
</g>
<!-- Node4&#45;&gt;Node3 -->
<g id="edge3" class="edge">
<title>Node4&#45;&gt;Node3</title>
<path fill="none" stroke="#63b8ff" d="M557.45,-403.77C574.68,-401.3 593.43,-396.63 609,-388 672.49,-352.8 721.29,-275.77 737.07,-248.66"/>
<polygon fill="#63b8ff" stroke="#63b8ff" points="557.41,-400.25 547.89,-404.91 558.24,-407.2 557.41,-400.25"/>
</g>
<!-- Node5 -->
<g id="node5" class="node">
<title>Node5</title>
<g id="a_node5"><a xlink:href="classMooseBase.html" target="_top" xlink:title="Base class for everything in MOOSE with a name and a type.">
<polygon fill="white" stroke="#666666" points="310,-489.5 239,-489.5 239,-470.5 310,-470.5 310,-489.5"/>
<text text-anchor="middle" x="274.5" y="-477.5" font-family="Courier,monospace" font-size="10.00">MooseBase</text>
</a>
</g>
</g>
<!-- Node5&#45;&gt;Node4 -->
<g id="edge4" class="edge">
<title>Node5&#45;&gt;Node4</title>
<path fill="none" stroke="#63b8ff" d="M321.54,-472.28C335.32,-469.53 350.39,-466.08 364,-462 407,-449.11 455.19,-428.26 482.19,-415.97"/>
<polygon fill="#63b8ff" stroke="#63b8ff" points="320.97,-468.82 311.81,-474.14 322.29,-475.7 320.97,-468.82"/>
</g>
<!-- Node6 -->
<g id="node6" class="node">
<title>Node6</title>
<g id="a_node6"><a xlink:href="classMooseBaseParameterInterface.html" target="_top" xlink:title="Every object that can be built by the factory should be derived from this class.">
<polygon fill="white" stroke="#666666" points="364,-452.5 185,-452.5 185,-433.5 364,-433.5 364,-452.5"/>
<text text-anchor="middle" x="274.5" y="-440.5" font-family="Courier,monospace" font-size="10.00">MooseBaseParameterInterface</text>
</a>
</g>
</g>
<!-- Node6&#45;&gt;Node4 -->
<g id="edge5" class="edge">
<title>Node6&#45;&gt;Node4</title>
<path fill="none" stroke="#63b8ff" d="M347.88,-431.25C385.73,-425.11 430.68,-417.82 462.51,-412.65"/>
<polygon fill="#63b8ff" stroke="#63b8ff" points="347.7,-427.74 338.39,-432.79 348.83,-434.65 347.7,-427.74"/>
</g>
<!-- Node7 -->
<g id="node7" class="node">
<title>Node7</title>
<g id="a_node7"><a xlink:href="classMooseBaseErrorInterface.html" target="_top" xlink:title="Interface that provides APIs to output errors/warnings/info messages.">
<polygon fill="white" stroke="#666666" points="352,-415.5 197,-415.5 197,-396.5 352,-396.5 352,-415.5"/>
<text text-anchor="middle" x="274.5" y="-403.5" font-family="Courier,monospace" font-size="10.00">MooseBaseErrorInterface</text>
</a>
</g>
</g>
<!-- Node7&#45;&gt;Node4 -->
<g id="edge6" class="edge">
<title>Node7&#45;&gt;Node4</title>
<path fill="none" stroke="#63b8ff" d="M363.8,-406C397.92,-406 435.28,-406 462.77,-406"/>
<polygon fill="#63b8ff" stroke="#63b8ff" points="363.89,-402.5 353.89,-406 363.89,-409.5 363.89,-402.5"/>
</g>
<!-- Node8 -->
<g id="node8" class="node">
<title>Node8</title>
<g id="a_node8"><a xlink:href="classConsoleStreamInterface.html" target="_top" xlink:title="An inteface for the _console for outputting to the Console object.">
<polygon fill="white" stroke="#666666" points="149,-415.5 0,-415.5 0,-396.5 149,-396.5 149,-415.5"/>
<text text-anchor="middle" x="74.5" y="-403.5" font-family="Courier,monospace" font-size="10.00">ConsoleStreamInterface</text>
</a>
</g>
</g>
<!-- Node8&#45;&gt;Node7 -->
<g id="edge7" class="edge">
<title>Node8&#45;&gt;Node7</title>
<path fill="none" stroke="#63b8ff" d="M160.62,-406C172.62,-406 184.9,-406 196.73,-406"/>
<polygon fill="#63b8ff" stroke="#63b8ff" points="160.74,-402.5 150.74,-406 160.74,-409.5 160.74,-402.5"/>
</g>
<!-- Node9 -->
<g id="node9" class="node">
<title>Node9</title>
<g id="a_node9"><a xlink:title=" ">
<polygon fill="white" stroke="#666666" points="352,-378.5 197,-378.5 197,-359.5 352,-359.5 352,-378.5"/>
<text text-anchor="middle" x="274.5" y="-366.5" font-family="Courier,monospace" font-size="10.00">libMesh::ParallelObject</text>
</a>
</g>
</g>
<!-- Node9&#45;&gt;Node4 -->
<g id="edge8" class="edge">
<title>Node9&#45;&gt;Node4</title>
<path fill="none" stroke="#63b8ff" d="M347.88,-380.75C385.73,-386.89 430.68,-394.18 462.51,-399.35"/>
<polygon fill="#63b8ff" stroke="#63b8ff" points="348.83,-377.35 338.39,-379.21 347.7,-384.26 348.83,-377.35"/>
</g>
<!-- Node10 -->
<g id="node10" class="node">
<title>Node10</title>
<g id="a_node10"><a xlink:href="classDataFileInterface.html" target="_top" xlink:title=" ">
<polygon fill="white" stroke="#666666" points="337,-341 212,-341 212,-311 337,-311 337,-341"/>
<text text-anchor="start" x="220" y="-329" font-family="Courier,monospace" font-size="10.00">DataFileInterface&lt;</text>
<text text-anchor="middle" x="274.5" y="-318" font-family="Courier,monospace" font-size="10.00"> MooseObject &gt;</text>
</a>
</g>
</g>
<!-- Node10&#45;&gt;Node4 -->
<g id="edge9" class="edge">
<title>Node10&#45;&gt;Node4</title>
<path fill="none" stroke="#63b8ff" d="M347.62,-342.85C353.32,-345.23 358.86,-347.94 364,-351 383.71,-362.74 379.71,-377.29 400,-388 419.11,-398.09 442.71,-402.69 462.54,-404.73"/>
<polygon fill="#63b8ff" stroke="#63b8ff" points="349.23,-339.72 338.64,-339.44 346.74,-346.26 349.23,-339.72"/>
</g>
<!-- Node11 -->
<g id="node11" class="node">
<title>Node11</title>
<g id="a_node11"><a xlink:href="classBlockRestrictable.html" target="_top" xlink:title="An interface that restricts an object to subdomains via the &#39;blocks&#39; input parameter.">
<polygon fill="white" stroke="#666666" points="564,-378.5 445,-378.5 445,-359.5 564,-359.5 564,-378.5"/>
<text text-anchor="middle" x="504.5" y="-366.5" font-family="Courier,monospace" font-size="10.00">BlockRestrictable</text>
</a>
</g>
</g>
<!-- Node11&#45;&gt;Node3 -->
<g id="edge10" class="edge">
<title>Node11&#45;&gt;Node3</title>
<path fill="none" stroke="#63b8ff" d="M575.36,-362.03C586.92,-359.42 598.53,-355.86 609,-351 664.14,-325.37 714.99,-270.94 734.3,-248.74"/>
<polygon fill="#63b8ff" stroke="#63b8ff" points="574.94,-358.54 565.82,-363.94 576.32,-365.4 574.94,-358.54"/>
</g>
<!-- Node12 -->
<g id="node12" class="node">
<title>Node12</title>
<g id="a_node12"><a xlink:href="classSetupInterface.html" target="_top" xlink:title=" ">
<polygon fill="white" stroke="#666666" points="555,-341.5 454,-341.5 454,-322.5 555,-322.5 555,-341.5"/>
<text text-anchor="middle" x="504.5" y="-329.5" font-family="Courier,monospace" font-size="10.00">SetupInterface</text>
</a>
</g>
</g>
<!-- Node12&#45;&gt;Node3 -->
<g id="edge11" class="edge">
<title>Node12&#45;&gt;Node3</title>
<path fill="none" stroke="#63b8ff" d="M566.53,-324.93C580.71,-322.32 595.58,-318.78 609,-314 655.83,-297.33 705.48,-264.99 728.84,-248.77"/>
<polygon fill="#63b8ff" stroke="#63b8ff" points="566.11,-321.45 556.83,-326.57 567.28,-328.35 566.11,-321.45"/>
</g>
<!-- Node13 -->
<g id="node13" class="node">
<title>Node13</title>
<g id="a_node13"><a xlink:href="classFunctionInterface.html" target="_top" xlink:title="Interface for objects that need to use functions.">
<polygon fill="white" stroke="#666666" points="564,-304.5 445,-304.5 445,-285.5 564,-285.5 564,-304.5"/>
<text text-anchor="middle" x="504.5" y="-292.5" font-family="Courier,monospace" font-size="10.00">FunctionInterface</text>
</a>
</g>
</g>
<!-- Node13&#45;&gt;Node3 -->
<g id="edge12" class="edge">
<title>Node13&#45;&gt;Node3</title>
<path fill="none" stroke="#63b8ff" d="M575.43,-283.87C586.7,-281.78 598.2,-279.47 609,-277 644.35,-268.92 684.28,-257.2 711.18,-248.92"/>
<polygon fill="#63b8ff" stroke="#63b8ff" points="574.99,-280.39 565.77,-285.61 576.23,-287.28 574.99,-280.39"/>
</g>
<!-- Node14 -->
<g id="node14" class="node">
<title>Node14</title>
<g id="a_node14"><a xlink:href="classUserObjectInterface.html" target="_top" xlink:title="Interface for objects that need to use UserObjects.">
<polygon fill="white" stroke="#666666" points="570,-267.5 439,-267.5 439,-248.5 570,-248.5 570,-267.5"/>
<text text-anchor="middle" x="504.5" y="-255.5" font-family="Courier,monospace" font-size="10.00">UserObjectInterface</text>
</a>
</g>
</g>
<!-- Node14&#45;&gt;Node3 -->
<g id="edge13" class="edge">
<title>Node14&#45;&gt;Node3</title>
<path fill="none" stroke="#63b8ff" d="M581.66,-251.89C623.95,-248.5 674.52,-244.45 707.51,-241.8"/>
<polygon fill="#63b8ff" stroke="#63b8ff" points="581.46,-248.4 571.77,-252.69 582.02,-255.38 581.46,-248.4"/>
</g>
<!-- Node15 -->
<g id="node15" class="node">
<title>Node15</title>
<g id="a_node15"><a xlink:href="classMooseVariableDependencyInterface.html" target="_top" xlink:title=" ">
<polygon fill="white" stroke="#666666" points="609,-230.5 400,-230.5 400,-211.5 609,-211.5 609,-230.5"/>
<text text-anchor="middle" x="504.5" y="-218.5" font-family="Courier,monospace" font-size="10.00">MooseVariableDependencyInterface</text>
</a>
</g>
</g>
<!-- Node15&#45;&gt;Node3 -->
<g id="edge14" class="edge">
<title>Node15&#45;&gt;Node3</title>
<path fill="none" stroke="#63b8ff" d="M620.63,-229.74C652.32,-232.15 684.33,-234.58 707.58,-236.35"/>
<polygon fill="#63b8ff" stroke="#63b8ff" points="621.2,-226.28 610.96,-229.01 620.67,-233.26 621.2,-226.28"/>
</g>
<!-- Node16 -->
<g id="node16" class="node">
<title>Node16</title>
<g id="a_node16"><a xlink:href="classRestartable.html" target="_top" xlink:title="A class for creating restricted objects.">
<polygon fill="white" stroke="#666666" points="546,-193.5 463,-193.5 463,-174.5 546,-174.5 546,-193.5"/>
<text text-anchor="middle" x="504.5" y="-181.5" font-family="Courier,monospace" font-size="10.00">Restartable</text>
</a>
</g>
</g>
<!-- Node16&#45;&gt;Node3 -->
<g id="edge15" class="edge">
<title>Node16&#45;&gt;Node3</title>
<path fill="none" stroke="#63b8ff" d="M557.56,-192.7C574.07,-195.69 592.35,-199.23 609,-203 643.18,-210.73 681.8,-221.35 708.67,-229.06"/>
<polygon fill="#63b8ff" stroke="#63b8ff" points="558.41,-189.29 547.95,-190.99 557.18,-196.19 558.41,-189.29"/>
</g>
<!-- Node17 -->
<g id="node17" class="node">
<title>Node17</title>
<g id="a_node17"><a xlink:href="classOutputInterface.html" target="_top" xlink:title="A class to provide an common interface to objects requiring &quot;outputs&quot; option.">
<polygon fill="white" stroke="#666666" points="558,-156.5 451,-156.5 451,-137.5 558,-137.5 558,-156.5"/>
<text text-anchor="middle" x="504.5" y="-144.5" font-family="Courier,monospace" font-size="10.00">OutputInterface</text>
</a>
</g>
</g>
<!-- Node17&#45;&gt;Node3 -->
<g id="edge16" class="edge">
<title>Node17&#45;&gt;Node3</title>
<path fill="none" stroke="#63b8ff" d="M569.47,-155.45C582.74,-158.11 596.49,-161.56 609,-166 655.06,-182.34 704.26,-213.19 728.02,-229.04"/>
<polygon fill="#63b8ff" stroke="#63b8ff" points="570.43,-152.07 559.96,-153.67 569.15,-158.95 570.43,-152.07"/>
</g>
<!-- Node18 -->
<g id="node18" class="node">
<title>Node18</title>
<g id="a_node18"><a xlink:href="classMaterialPropertyInterface.html" target="_top" xlink:title="An interface for accessing Materials.">
<polygon fill="white" stroke="#666666" points="588,-119.5 421,-119.5 421,-100.5 588,-100.5 588,-119.5"/>
<text text-anchor="middle" x="504.5" y="-107.5" font-family="Courier,monospace" font-size="10.00">MaterialPropertyInterface</text>
</a>
</g>
</g>
<!-- Node18&#45;&gt;Node3 -->
<g id="edge17" class="edge">
<title>Node18&#45;&gt;Node3</title>
<path fill="none" stroke="#63b8ff" d="M594.81,-123.33C599.69,-125 604.45,-126.88 609,-129 663.46,-154.33 714.31,-207.22 733.95,-229.15"/>
<polygon fill="#63b8ff" stroke="#63b8ff" points="596.01,-120.04 585.42,-120.44 593.95,-126.73 596.01,-120.04"/>
</g>
<!-- Node19 -->
<g id="node19" class="node">
<title>Node19</title>
<g id="a_node19"><a xlink:href="classNeighborCoupleable.html" target="_top" xlink:title="Enhances Coupleable interface to also couple the values from neighbor elements.">
<polygon fill="white" stroke="#666666" points="806,-104.5 681,-104.5 681,-85.5 806,-85.5 806,-104.5"/>
<text text-anchor="middle" x="743.5" y="-92.5" font-family="Courier,monospace" font-size="10.00">NeighborCoupleable</text>
</a>
</g>
</g>
<!-- Node19&#45;&gt;Node2 -->
<g id="edge18" class="edge">
<title>Node19&#45;&gt;Node2</title>
<path fill="none" stroke="#63b8ff" d="M817.57,-88.19C837.12,-86.37 858.22,-84.41 877.65,-82.6"/>
<polygon fill="#63b8ff" stroke="#63b8ff" points="817.4,-84.7 807.77,-89.11 818.05,-91.66 817.4,-84.7"/>
</g>
<!-- Node20 -->
<g id="node20" class="node">
<title>Node20</title>
<g id="a_node20"><a xlink:href="classCoupleable.html" target="_top" xlink:title="Interface for objects that needs coupling capabilities.">
<polygon fill="white" stroke="#666666" points="543,-82.5 466,-82.5 466,-63.5 543,-63.5 543,-82.5"/>
<text text-anchor="middle" x="504.5" y="-70.5" font-family="Courier,monospace" font-size="10.00">Coupleable</text>
</a>
</g>
</g>
<!-- Node20&#45;&gt;Node19 -->
<g id="edge19" class="edge">
<title>Node20&#45;&gt;Node19</title>
<path fill="none" stroke="#63b8ff" d="M554.69,-77.57C591.3,-80.96 641.51,-85.63 680.8,-89.27"/>
<polygon fill="#63b8ff" stroke="#63b8ff" points="555.1,-74.09 544.82,-76.65 554.46,-81.06 555.1,-74.09"/>
</g>
<!-- Node21 -->
<g id="node21" class="node">
<title>Node21</title>
<g id="a_node21"><a xlink:href="classScalarCoupleable.html" target="_top" xlink:title="Interface for objects that needs scalar coupling capabilities.">
<polygon fill="white" stroke="#666666" points="800,-67.5 687,-67.5 687,-48.5 800,-48.5 800,-67.5"/>
<text text-anchor="middle" x="743.5" y="-55.5" font-family="Courier,monospace" font-size="10.00">ScalarCoupleable</text>
</a>
</g>
</g>
<!-- Node21&#45;&gt;Node2 -->
<g id="edge20" class="edge">
<title>Node21&#45;&gt;Node2</title>
<path fill="none" stroke="#63b8ff" d="M811.46,-63.91C832.74,-65.79 856.32,-67.87 877.85,-69.77"/>
<polygon fill="#63b8ff" stroke="#63b8ff" points="812.02,-60.44 801.75,-63.05 811.41,-67.42 812.02,-60.44"/>
</g>
<!-- Node22 -->
<g id="node22" class="node">
<title>Node22</title>
<g id="a_node22"><a xlink:href="classNeighborMooseVariableInterface.html" target="_top" xlink:title=" ">
<polygon fill="white" stroke="#666666" points="842,-30 645,-30 645,0 842,0 842,-30"/>
<text text-anchor="start" x="653" y="-18" font-family="Courier,monospace" font-size="10.00">NeighborMooseVariableInterface</text>
<text text-anchor="middle" x="743.5" y="-7" font-family="Courier,monospace" font-size="10.00">&lt; Real &gt;</text>
</a>
</g>
</g>
<!-- Node22&#45;&gt;Node2 -->
<g id="edge21" class="edge">
<title>Node22&#45;&gt;Node2</title>
<path fill="none" stroke="#63b8ff" d="M821.65,-33.29C828.55,-35.13 835.42,-37.05 842,-39 869.59,-47.17 900.61,-58.16 922.02,-66.03"/>
<polygon fill="#63b8ff" stroke="#63b8ff" points="822.83,-29.98 812.27,-30.82 821.06,-36.75 822.83,-29.98"/>
</g>
<!-- Node23 -->
<g id="node23" class="node">
<title>Node23</title>
<g id="a_node23"><a xlink:href="classMooseVariableInterface.html" target="_top" xlink:title="Interface for objects that need to get values of MooseVariables.">
<polygon fill="white" stroke="#666666" points="594,-24.5 415,-24.5 415,-5.5 594,-5.5 594,-24.5"/>
<text text-anchor="middle" x="504.5" y="-12.5" font-family="Courier,monospace" font-size="10.00">MooseVariableInterface&lt; T &gt;</text>
</a>
</g>
</g>
<!-- Node23&#45;&gt;Node22 -->
<g id="edge22" class="edge">
<title>Node23&#45;&gt;Node22</title>
<path fill="none" stroke="#63b8ff" d="M605.69,-15C618.62,-15 631.85,-15 644.73,-15"/>
<polygon fill="#63b8ff" stroke="#63b8ff" points="605.94,-11.5 595.94,-15 605.94,-18.5 605.94,-11.5"/>
</g>
</g>
</svg>
