<?xml version="1.0" encoding="UTF-8" standalone="no"?>
<!DOCTYPE svg PUBLIC "-//W3C//DTD SVG 1.1//EN"
 "http://www.w3.org/Graphics/SVG/1.1/DTD/svg11.dtd">
<!-- Generated by graphviz version 7.0.5 (20221223.1930)
 -->
<!-- Title: UpperBoundNodalKernel Pages: 1 -->
<!--zoomable 582 -->
<svg id="main" version="1.1" xmlns="http://www.w3.org/2000/svg" xmlns:xlink="http://www.w3.org/1999/xlink" xml:space="preserve" onload="init(evt)">
<style type="text/css"><![CDATA[
.edge:hover path { stroke: red; }
.edge:hover polygon { stroke: red; fill: red; }
]]></style>
<script type="text/javascript"><![CDATA[
var edges = document.getElementsByTagName('g');
if (edges && edges.length) {
  for (var i=0;i<edges.length;i++) {
    if (edges[i].id.substr(0,4)=='edge') {
      edges[i].setAttribute('class','edge');
    }
  }
}
]]></script>
        <defs>
                <circle id="rim" cx="0" cy="0" r="7"/>
                <circle id="rim2" cx="0" cy="0" r="3.5"/>
                <g id="zoomPlus">
                        <use xlink:href="#rim" fill="#404040">
                                <set attributeName="fill" to="#808080" begin="zoomplus.mouseover" end="zoomplus.mouseout"/>
                        </use>
                        <path d="M-4,0h8M0,-4v8" fill="none" stroke="white" stroke-width="1.5" pointer-events="none"/>
                </g>
                <g id="zoomMin">
                        <use xlink:href="#rim" fill="#404040">
                                <set attributeName="fill" to="#808080" begin="zoomminus.mouseover" end="zoomminus.mouseout"/>
                        </use>
                        <path d="M-4,0h8" fill="none" stroke="white" stroke-width="1.5" pointer-events="none"/>
                </g>
                <g id="dirArrow">
                        <path fill="none" stroke="white" stroke-width="1.5" d="M0,-3.0v7 M-2.5,-0.5L0,-3.0L2.5,-0.5"/>
                </g>
               <g id="resetDef">
                       <use xlink:href="#rim2" fill="#404040">
                               <set attributeName="fill" to="#808080" begin="reset.mouseover" end="reset.mouseout"/>
                       </use>
               </g>
        </defs>

<script type="text/javascript">
var viewWidth = 1309;
var viewHeight = 582;
var sectionId = 'dynsection-0';
</script>
<script xlink:href="svgpan.js"/>
<svg id="graph" class="graph">
<g id="viewport">
<title>UpperBoundNodalKernel</title>
<!-- Node1 -->
<g id="node1" class="node">
<title>Node1</title>
<g id="a_node1"><a xlink:title="Class used to enforce a upper bound on a coupled variable.">
<polygon fill="#999999" stroke="#666666" points="1301,-135 1158,-135 1158,-116 1301,-116 1301,-135"/>
<text text-anchor="middle" x="1229.5" y="-123" font-family="Courier,monospace" font-size="10.00">UpperBoundNodalKernel</text>
</a>
</g>
</g>
<!-- Node2 -->
<g id="node2" class="node">
<title>Node2</title>
<g id="a_node2"><a xlink:href="classNodalKernel.html" target="_top" xlink:title="Base class for creating nodal kernels with hand&#45;coded Jacobians.">
<polygon fill="white" stroke="#666666" points="1122,-135 1039,-135 1039,-116 1122,-116 1122,-135"/>
<text text-anchor="middle" x="1080.5" y="-123" font-family="Courier,monospace" font-size="10.00">NodalKernel</text>
</a>
</g>
</g>
<!-- Node2&#45;&gt;Node1 -->
<g id="edge1" class="edge">
<title>Node2&#45;&gt;Node1</title>
<path fill="none" stroke="#63b8ff" d="M1133.85,-125.5C1141.57,-125.5 1149.63,-125.5 1157.65,-125.5"/>
<polygon fill="#63b8ff" stroke="#63b8ff" points="1133.96,-122 1123.96,-125.5 1133.96,-129 1133.96,-122"/>
</g>
<!-- Node3 -->
<g id="node3" class="node">
<title>Node3</title>
<g id="a_node3"><a xlink:href="classNodalKernelBase.html" target="_top" xlink:title="Base class for creating new types of nodal kernels.">
<polygon fill="white" stroke="#666666" points="1003,-135 896,-135 896,-116 1003,-116 1003,-135"/>
<text text-anchor="middle" x="949.5" y="-123" font-family="Courier,monospace" font-size="10.00">NodalKernelBase</text>
</a>
</g>
</g>
<!-- Node3&#45;&gt;Node2 -->
<g id="edge2" class="edge">
<title>Node3&#45;&gt;Node2</title>
<path fill="none" stroke="#63b8ff" d="M1014.82,-125.5C1022.98,-125.5 1031.14,-125.5 1038.79,-125.5"/>
<polygon fill="#63b8ff" stroke="#63b8ff" points="1014.86,-122 1004.85,-125.5 1014.85,-129 1014.86,-122"/>
</g>
<!-- Node4 -->
<g id="node4" class="node">
<title>Node4</title>
<g id="a_node4"><a xlink:href="classResidualObject.html" target="_top" xlink:title="This is the common base class for objects that give residual contributions.">
<polygon fill="white" stroke="#666666" points="803,-296 702,-296 702,-277 803,-277 803,-296"/>
<text text-anchor="middle" x="752.5" y="-284" font-family="Courier,monospace" font-size="10.00">ResidualObject</text>
</a>
</g>
</g>
<!-- Node4&#45;&gt;Node3 -->
<g id="edge3" class="edge">
<title>Node4&#45;&gt;Node3</title>
<path fill="none" stroke="#63b8ff" d="M775.01,-269.37C796.61,-252.12 830.78,-224.67 860,-200.5 887.93,-177.39 920.34,-149.7 937.12,-135.3"/>
<polygon fill="#63b8ff" stroke="#63b8ff" points="772.86,-266.62 767.22,-275.59 777.22,-272.09 772.86,-266.62"/>
</g>
<!-- Node5 -->
<g id="node5" class="node">
<title>Node5</title>
<g id="a_node5"><a xlink:href="classMooseObject.html" target="_top" xlink:title="Every object that can be built by the factory should be derived from this class.">
<polygon fill="white" stroke="#666666" points="546,-500 463,-500 463,-481 546,-481 546,-500"/>
<text text-anchor="middle" x="504.5" y="-488" font-family="Courier,monospace" font-size="10.00">MooseObject</text>
</a>
</g>
</g>
<!-- Node5&#45;&gt;Node4 -->
<g id="edge4" class="edge">
<title>Node5&#45;&gt;Node4</title>
<path fill="none" stroke="#63b8ff" d="M557.63,-488.98C574.95,-486.57 593.71,-481.76 609,-472.5 683.46,-427.4 733.01,-327.73 747.26,-296.23"/>
<polygon fill="#63b8ff" stroke="#63b8ff" points="557.54,-485.46 548,-490.07 558.33,-492.42 557.54,-485.46"/>
</g>
<!-- Node6 -->
<g id="node6" class="node">
<title>Node6</title>
<g id="a_node6"><a xlink:href="classMooseBase.html" target="_top" xlink:title="Base class for everything in MOOSE with a name and a type.">
<polygon fill="white" stroke="#666666" points="310,-574 239,-574 239,-555 310,-555 310,-574"/>
<text text-anchor="middle" x="274.5" y="-562" font-family="Courier,monospace" font-size="10.00">MooseBase</text>
</a>
</g>
</g>
<!-- Node6&#45;&gt;Node5 -->
<g id="edge5" class="edge">
<title>Node6&#45;&gt;Node5</title>
<path fill="none" stroke="#63b8ff" d="M321.54,-556.78C335.32,-554.03 350.39,-550.58 364,-546.5 407,-533.61 455.19,-512.76 482.19,-500.47"/>
<polygon fill="#63b8ff" stroke="#63b8ff" points="320.97,-553.32 311.81,-558.64 322.29,-560.2 320.97,-553.32"/>
</g>
<!-- Node7 -->
<g id="node7" class="node">
<title>Node7</title>
<g id="a_node7"><a xlink:href="classMooseBaseParameterInterface.html" target="_top" xlink:title="Every object that can be built by the factory should be derived from this class.">
<polygon fill="white" stroke="#666666" points="364,-537 185,-537 185,-518 364,-518 364,-537"/>
<text text-anchor="middle" x="274.5" y="-525" font-family="Courier,monospace" font-size="10.00">MooseBaseParameterInterface</text>
</a>
</g>
</g>
<!-- Node7&#45;&gt;Node5 -->
<g id="edge6" class="edge">
<title>Node7&#45;&gt;Node5</title>
<path fill="none" stroke="#63b8ff" d="M347.88,-515.75C385.73,-509.61 430.68,-502.32 462.51,-497.15"/>
<polygon fill="#63b8ff" stroke="#63b8ff" points="347.7,-512.24 338.39,-517.29 348.83,-519.15 347.7,-512.24"/>
</g>
<!-- Node8 -->
<g id="node8" class="node">
<title>Node8</title>
<g id="a_node8"><a xlink:href="classMooseBaseErrorInterface.html" target="_top" xlink:title="Interface that provides APIs to output errors/warnings/info messages.">
<polygon fill="white" stroke="#666666" points="352,-500 197,-500 197,-481 352,-481 352,-500"/>
<text text-anchor="middle" x="274.5" y="-488" font-family="Courier,monospace" font-size="10.00">MooseBaseErrorInterface</text>
</a>
</g>
</g>
<!-- Node8&#45;&gt;Node5 -->
<g id="edge7" class="edge">
<title>Node8&#45;&gt;Node5</title>
<path fill="none" stroke="#63b8ff" d="M363.8,-490.5C397.92,-490.5 435.28,-490.5 462.77,-490.5"/>
<polygon fill="#63b8ff" stroke="#63b8ff" points="363.89,-487 353.89,-490.5 363.89,-494 363.89,-487"/>
</g>
<!-- Node9 -->
<g id="node9" class="node">
<title>Node9</title>
<g id="a_node9"><a xlink:href="classConsoleStreamInterface.html" target="_top" xlink:title="An inteface for the _console for outputting to the Console object.">
<polygon fill="white" stroke="#666666" points="149,-500 0,-500 0,-481 149,-481 149,-500"/>
<text text-anchor="middle" x="74.5" y="-488" font-family="Courier,monospace" font-size="10.00">ConsoleStreamInterface</text>
</a>
</g>
</g>
<!-- Node9&#45;&gt;Node8 -->
<g id="edge8" class="edge">
<title>Node9&#45;&gt;Node8</title>
<path fill="none" stroke="#63b8ff" d="M160.62,-490.5C172.62,-490.5 184.9,-490.5 196.73,-490.5"/>
<polygon fill="#63b8ff" stroke="#63b8ff" points="160.74,-487 150.74,-490.5 160.74,-494 160.74,-487"/>
</g>
<!-- Node10 -->
<g id="node10" class="node">
<title>Node10</title>
<g id="a_node10"><a xlink:title=" ">
<polygon fill="white" stroke="#666666" points="352,-463 197,-463 197,-444 352,-444 352,-463"/>
<text text-anchor="middle" x="274.5" y="-451" font-family="Courier,monospace" font-size="10.00">libMesh::ParallelObject</text>
</a>
</g>
</g>
<!-- Node10&#45;&gt;Node5 -->
<g id="edge9" class="edge">
<title>Node10&#45;&gt;Node5</title>
<path fill="none" stroke="#63b8ff" d="M347.88,-465.25C385.73,-471.39 430.68,-478.68 462.51,-483.85"/>
<polygon fill="#63b8ff" stroke="#63b8ff" points="348.83,-461.85 338.39,-463.71 347.7,-468.76 348.83,-461.85"/>
</g>
<!-- Node11 -->
<g id="node11" class="node">
<title>Node11</title>
<g id="a_node11"><a xlink:href="classDataFileInterface.html" target="_top" xlink:title=" ">
<polygon fill="white" stroke="#666666" points="337,-425.5 212,-425.5 212,-395.5 337,-395.5 337,-425.5"/>
<text text-anchor="start" x="220" y="-413.5" font-family="Courier,monospace" font-size="10.00">DataFileInterface&lt;</text>
<text text-anchor="middle" x="274.5" y="-402.5" font-family="Courier,monospace" font-size="10.00"> MooseObject &gt;</text>
</a>
</g>
</g>
<!-- Node11&#45;&gt;Node5 -->
<g id="edge10" class="edge">
<title>Node11&#45;&gt;Node5</title>
<path fill="none" stroke="#63b8ff" d="M347.62,-427.35C353.32,-429.73 358.86,-432.44 364,-435.5 383.71,-447.24 379.71,-461.79 400,-472.5 419.11,-482.59 442.71,-487.19 462.54,-489.23"/>
<polygon fill="#63b8ff" stroke="#63b8ff" points="349.23,-424.22 338.64,-423.94 346.74,-430.76 349.23,-424.22"/>
</g>
<!-- Node12 -->
<g id="node12" class="node">
<title>Node12</title>
<g id="a_node12"><a xlink:href="classSetupInterface.html" target="_top" xlink:title=" ">
<polygon fill="white" stroke="#666666" points="555,-463 454,-463 454,-444 555,-444 555,-463"/>
<text text-anchor="middle" x="504.5" y="-451" font-family="Courier,monospace" font-size="10.00">SetupInterface</text>
</a>
</g>
</g>
<!-- Node12&#45;&gt;Node4 -->
<g id="edge11" class="edge">
<title>Node12&#45;&gt;Node4</title>
<path fill="none" stroke="#63b8ff" d="M566.26,-449.5C580.86,-446.79 595.98,-442.44 609,-435.5 675.01,-400.3 728.22,-323.26 745.53,-296.16"/>
<polygon fill="#63b8ff" stroke="#63b8ff" points="566.06,-445.99 556.74,-451.02 567.16,-452.9 566.06,-445.99"/>
</g>
<!-- Node13 -->
<g id="node13" class="node">
<title>Node13</title>
<g id="a_node13"><a xlink:href="classFunctionInterface.html" target="_top" xlink:title="Interface for objects that need to use functions.">
<polygon fill="white" stroke="#666666" points="564,-426 445,-426 445,-407 564,-407 564,-426"/>
<text text-anchor="middle" x="504.5" y="-414" font-family="Courier,monospace" font-size="10.00">FunctionInterface</text>
</a>
</g>
</g>
<!-- Node13&#45;&gt;Node4 -->
<g id="edge12" class="edge">
<title>Node13&#45;&gt;Node4</title>
<path fill="none" stroke="#63b8ff" d="M575.44,-409.2C586.94,-406.63 598.52,-403.17 609,-398.5 666.77,-372.76 721.67,-318.39 742.59,-296.22"/>
<polygon fill="#63b8ff" stroke="#63b8ff" points="575.07,-405.7 565.96,-411.09 576.45,-412.56 575.07,-405.7"/>
</g>
<!-- Node14 -->
<g id="node14" class="node">
<title>Node14</title>
<g id="a_node14"><a xlink:href="classUserObjectInterface.html" target="_top" xlink:title="Interface for objects that need to use UserObjects.">
<polygon fill="white" stroke="#666666" points="570,-389 439,-389 439,-370 570,-370 570,-389"/>
<text text-anchor="middle" x="504.5" y="-377" font-family="Courier,monospace" font-size="10.00">UserObjectInterface</text>
</a>
</g>
</g>
<!-- Node14&#45;&gt;Node4 -->
<g id="edge13" class="edge">
<title>Node14&#45;&gt;Node4</title>
<path fill="none" stroke="#63b8ff" d="M581.36,-369.13C590.78,-367.02 600.19,-364.5 609,-361.5 658.22,-344.73 711.14,-312.74 736.4,-296.49"/>
<polygon fill="#63b8ff" stroke="#63b8ff" points="580.89,-365.66 571.81,-371.12 582.31,-372.51 580.89,-365.66"/>
</g>
<!-- Node15 -->
<g id="node15" class="node">
<title>Node15</title>
<g id="a_node15"><a xlink:href="classTransientInterface.html" target="_top" xlink:title="Interface for objects that needs transient capabilities.">
<polygon fill="white" stroke="#666666" points="567,-352 442,-352 442,-333 567,-333 567,-352"/>
<text text-anchor="middle" x="504.5" y="-340" font-family="Courier,monospace" font-size="10.00">TransientInterface</text>
</a>
</g>
</g>
<!-- Node15&#45;&gt;Node4 -->
<g id="edge14" class="edge">
<title>Node15&#45;&gt;Node4</title>
<path fill="none" stroke="#63b8ff" d="M578.35,-330.67C588.67,-328.75 599.12,-326.67 609,-324.5 646.39,-316.28 688.7,-304.7 717.44,-296.49"/>
<polygon fill="#63b8ff" stroke="#63b8ff" points="577.95,-327.18 568.73,-332.41 579.2,-334.07 577.95,-327.18"/>
</g>
<!-- Node16 -->
<g id="node16" class="node">
<title>Node16</title>
<g id="a_node16"><a xlink:href="classPostprocessorInterface.html" target="_top" xlink:title="Interface class for classes which interact with Postprocessors.">
<polygon fill="white" stroke="#666666" points="579,-315 430,-315 430,-296 579,-296 579,-315"/>
<text text-anchor="middle" x="504.5" y="-303" font-family="Courier,monospace" font-size="10.00">PostprocessorInterface</text>
</a>
</g>
</g>
<!-- Node16&#45;&gt;Node4 -->
<g id="edge15" class="edge">
<title>Node16&#45;&gt;Node4</title>
<path fill="none" stroke="#63b8ff" d="M590.61,-298.93C627.61,-296.07 669.67,-292.82 701.51,-290.36"/>
<polygon fill="#63b8ff" stroke="#63b8ff" points="590.52,-295.42 580.82,-299.68 591.06,-302.4 590.52,-295.42"/>
</g>
<!-- Node17 -->
<g id="node17" class="node">
<title>Node17</title>
<g id="a_node17"><a xlink:href="classVectorPostprocessorInterface.html" target="_top" xlink:title=" ">
<polygon fill="white" stroke="#666666" points="597,-278 412,-278 412,-259 597,-259 597,-278"/>
<text text-anchor="middle" x="504.5" y="-266" font-family="Courier,monospace" font-size="10.00">VectorPostprocessorInterface</text>
</a>
</g>
</g>
<!-- Node17&#45;&gt;Node4 -->
<g id="edge16" class="edge">
<title>Node17&#45;&gt;Node4</title>
<path fill="none" stroke="#63b8ff" d="M608.74,-276.05C640.92,-278.41 674.96,-280.9 701.72,-282.86"/>
<polygon fill="#63b8ff" stroke="#63b8ff" points="609.19,-272.58 598.96,-275.34 608.68,-279.56 609.19,-272.58"/>
</g>
<!-- Node18 -->
<g id="node18" class="node">
<title>Node18</title>
<g id="a_node18"><a xlink:href="classRandomInterface.html" target="_top" xlink:title="Interface for objects that need parallel consistent random numbers without patterns over the course o...">
<polygon fill="white" stroke="#666666" points="558,-241 451,-241 451,-222 558,-222 558,-241"/>
<text text-anchor="middle" x="504.5" y="-229" font-family="Courier,monospace" font-size="10.00">RandomInterface</text>
</a>
</g>
</g>
<!-- Node18&#45;&gt;Node4 -->
<g id="edge17" class="edge">
<title>Node18&#45;&gt;Node4</title>
<path fill="none" stroke="#63b8ff" d="M569.59,-242.58C582.66,-245.04 596.3,-247.73 609,-250.5 645.15,-258.38 686.07,-268.88 714.75,-276.51"/>
<polygon fill="#63b8ff" stroke="#63b8ff" points="570.24,-239.15 559.78,-240.77 568.97,-246.03 570.24,-239.15"/>
</g>
<!-- Node19 -->
<g id="node19" class="node">
<title>Node19</title>
<g id="a_node19"><a xlink:href="classRestartable.html" target="_top" xlink:title="A class for creating restricted objects.">
<polygon fill="white" stroke="#666666" points="546,-204 463,-204 463,-185 546,-185 546,-204"/>
<text text-anchor="middle" x="504.5" y="-192" font-family="Courier,monospace" font-size="10.00">Restartable</text>
</a>
</g>
</g>
<!-- Node19&#45;&gt;Node4 -->
<g id="edge18" class="edge">
<title>Node19&#45;&gt;Node4</title>
<path fill="none" stroke="#63b8ff" d="M557.29,-200.96C574.05,-203.86 592.56,-207.91 609,-213.5 657.69,-230.04 710.43,-260.8 735.93,-276.59"/>
<polygon fill="#63b8ff" stroke="#63b8ff" points="557.93,-197.52 547.5,-199.38 556.81,-204.43 557.93,-197.52"/>
</g>
<!-- Node20 -->
<g id="node20" class="node">
<title>Node20</title>
<g id="a_node20"><a xlink:href="classMeshChangedInterface.html" target="_top" xlink:title="Interface for notifications that the mesh has changed.">
<polygon fill="white" stroke="#666666" points="573,-167 436,-167 436,-148 573,-148 573,-167"/>
<text text-anchor="middle" x="504.5" y="-155" font-family="Courier,monospace" font-size="10.00">MeshChangedInterface</text>
</a>
</g>
</g>
<!-- Node20&#45;&gt;Node4 -->
<g id="edge19" class="edge">
<title>Node20&#45;&gt;Node4</title>
<path fill="none" stroke="#63b8ff" d="M584.55,-167.93C592.98,-170.24 601.29,-173.06 609,-176.5 623.77,-183.09 707.82,-250.94 739.46,-276.68"/>
<polygon fill="#63b8ff" stroke="#63b8ff" points="585.45,-164.55 574.91,-165.55 583.77,-171.35 585.45,-164.55"/>
</g>
<!-- Node21 -->
<g id="node21" class="node">
<title>Node21</title>
<g id="a_node21"><a xlink:href="classTaggingInterface.html" target="_top" xlink:title=" ">
<polygon fill="white" stroke="#666666" points="561,-130 448,-130 448,-111 561,-111 561,-130"/>
<text text-anchor="middle" x="504.5" y="-118" font-family="Courier,monospace" font-size="10.00">TaggingInterface</text>
</a>
</g>
</g>
<!-- Node21&#45;&gt;Node4 -->
<g id="edge20" class="edge">
<title>Node21&#45;&gt;Node4</title>
<path fill="none" stroke="#63b8ff" d="M572.19,-124.13C585.22,-127.14 598.18,-131.94 609,-139.5 634.81,-157.52 624.42,-176.67 645,-200.5 672.8,-232.7 713.79,-261.91 735.94,-276.58"/>
<polygon fill="#63b8ff" stroke="#63b8ff" points="573.24,-120.77 562.76,-122.3 571.91,-127.64 573.24,-120.77"/>
</g>
<!-- Node22 -->
<g id="node22" class="node">
<title>Node22</title>
<g id="a_node22"><a xlink:href="classBlockRestrictable.html" target="_top" xlink:title="An interface that restricts an object to subdomains via the &#39;blocks&#39; input parameter.">
<polygon fill="white" stroke="#666666" points="812,-191 693,-191 693,-172 812,-172 812,-191"/>
<text text-anchor="middle" x="752.5" y="-179" font-family="Courier,monospace" font-size="10.00">BlockRestrictable</text>
</a>
</g>
</g>
<!-- Node22&#45;&gt;Node3 -->
<g id="edge21" class="edge">
<title>Node22&#45;&gt;Node3</title>
<path fill="none" stroke="#63b8ff" d="M823.54,-172.11C835.81,-169.77 848.36,-166.93 860,-163.5 884.54,-156.27 911.36,-144.11 928.97,-135.49"/>
<polygon fill="#63b8ff" stroke="#63b8ff" points="823.1,-168.63 813.88,-173.85 824.34,-175.52 823.1,-168.63"/>
</g>
<!-- Node23 -->
<g id="node23" class="node">
<title>Node23</title>
<g id="a_node23"><a xlink:href="classBoundaryRestrictable.html" target="_top" xlink:title="/class BoundaryRestrictable /brief Provides functionality for limiting the object to certain boundary...">
<polygon fill="white" stroke="#666666" points="821,-154 684,-154 684,-135 821,-135 821,-154"/>
<text text-anchor="middle" x="752.5" y="-142" font-family="Courier,monospace" font-size="10.00">BoundaryRestrictable</text>
</a>
</g>
</g>
<!-- Node23&#45;&gt;Node3 -->
<g id="edge22" class="edge">
<title>Node23&#45;&gt;Node3</title>
<path fill="none" stroke="#63b8ff" d="M832.69,-136.78C853.85,-134.72 876.2,-132.55 895.56,-130.66"/>
<polygon fill="#63b8ff" stroke="#63b8ff" points="832.55,-133.28 822.93,-137.73 833.23,-140.25 832.55,-133.28"/>
</g>
<!-- Node24 -->
<g id="node24" class="node">
<title>Node24</title>
<g id="a_node24"><a xlink:href="classGeometricSearchInterface.html" target="_top" xlink:title=" ">
<polygon fill="white" stroke="#666666" points="833,-117 672,-117 672,-98 833,-98 833,-117"/>
<text text-anchor="middle" x="752.5" y="-105" font-family="Courier,monospace" font-size="10.00">GeometricSearchInterface</text>
</a>
</g>
</g>
<!-- Node24&#45;&gt;Node3 -->
<g id="edge23" class="edge">
<title>Node24&#45;&gt;Node3</title>
<path fill="none" stroke="#63b8ff" d="M844.8,-115.93C862.28,-117.54 880.03,-119.18 895.79,-120.63"/>
<polygon fill="#63b8ff" stroke="#63b8ff" points="845.16,-112.45 834.88,-115.01 844.52,-119.42 845.16,-112.45"/>
</g>
<!-- Node25 -->
<g id="node25" class="node">
<title>Node25</title>
<g id="a_node25"><a xlink:href="classCoupleableMooseVariableDependencyIntermediateInterface.html" target="_top" xlink:title="Intermediate base class that ties together all the interfaces for getting MooseVariableFEBases with t...">
<polygon fill="white" stroke="#666666" points="860,-79.5 645,-79.5 645,-49.5 860,-49.5 860,-79.5"/>
<text text-anchor="start" x="653" y="-67.5" font-family="Courier,monospace" font-size="10.00">CoupleableMooseVariableDependency</text>
<text text-anchor="middle" x="752.5" y="-56.5" font-family="Courier,monospace" font-size="10.00">IntermediateInterface</text>
</a>
</g>
</g>
<!-- Node25&#45;&gt;Node3 -->
<g id="edge24" class="edge">
<title>Node25&#45;&gt;Node3</title>
<path fill="none" stroke="#63b8ff" d="M837.11,-82.81C844.89,-84.91 852.62,-87.15 860,-89.5 883.23,-96.9 908.96,-107.67 926.67,-115.5"/>
<polygon fill="#63b8ff" stroke="#63b8ff" points="838.12,-79.46 827.56,-80.32 836.35,-86.23 838.12,-79.46"/>
</g>
<!-- Node26 -->
<g id="node26" class="node">
<title>Node26</title>
<g id="a_node26"><a xlink:href="classCoupleable.html" target="_top" xlink:title="Interface for objects that needs coupling capabilities.">
<polygon fill="white" stroke="#666666" points="543,-93 466,-93 466,-74 543,-74 543,-93"/>
<text text-anchor="middle" x="504.5" y="-81" font-family="Courier,monospace" font-size="10.00">Coupleable</text>
</a>
</g>
</g>
<!-- Node26&#45;&gt;Node25 -->
<g id="edge25" class="edge">
<title>Node26&#45;&gt;Node25</title>
<path fill="none" stroke="#63b8ff" d="M554.76,-79.7C580.62,-77.7 613.37,-75.17 644.69,-72.75"/>
<polygon fill="#63b8ff" stroke="#63b8ff" points="554.61,-76.2 544.91,-80.46 555.15,-83.18 554.61,-76.2"/>
</g>
<!-- Node27 -->
<g id="node27" class="node">
<title>Node27</title>
<g id="a_node27"><a xlink:href="classScalarCoupleable.html" target="_top" xlink:title="Interface for objects that needs scalar coupling capabilities.">
<polygon fill="white" stroke="#666666" points="561,-56 448,-56 448,-37 561,-37 561,-56"/>
<text text-anchor="middle" x="504.5" y="-44" font-family="Courier,monospace" font-size="10.00">ScalarCoupleable</text>
</a>
</g>
</g>
<!-- Node27&#45;&gt;Node25 -->
<g id="edge26" class="edge">
<title>Node27&#45;&gt;Node25</title>
<path fill="none" stroke="#63b8ff" d="M572.63,-51.41C594.83,-53.04 620.11,-54.89 644.53,-56.67"/>
<polygon fill="#63b8ff" stroke="#63b8ff" points="573.06,-47.93 562.83,-50.69 572.55,-54.92 573.06,-47.93"/>
</g>
<!-- Node28 -->
<g id="node28" class="node">
<title>Node28</title>
<g id="a_node28"><a xlink:href="classMooseVariableDependencyInterface.html" target="_top" xlink:title=" ">
<polygon fill="white" stroke="#666666" points="609,-19 400,-19 400,0 609,0 609,-19"/>
<text text-anchor="middle" x="504.5" y="-7" font-family="Courier,monospace" font-size="10.00">MooseVariableDependencyInterface</text>
</a>
</g>
</g>
<!-- Node28&#45;&gt;Node25 -->
<g id="edge27" class="edge">
<title>Node28&#45;&gt;Node25</title>
<path fill="none" stroke="#63b8ff" d="M579.21,-21.72C589.27,-23.77 599.42,-26.04 609,-28.5 625.33,-32.7 628.75,-35.97 645,-40.5 655.68,-43.48 667.04,-46.34 678.21,-49"/>
<polygon fill="#63b8ff" stroke="#63b8ff" points="579.9,-18.29 569.41,-19.79 578.55,-25.15 579.9,-18.29"/>
</g>
<!-- Node29 -->
<g id="node29" class="node">
<title>Node29</title>
<g id="a_node29"><a xlink:href="classMooseVariableInterface.html" target="_top" xlink:title=" ">
<polygon fill="white" stroke="#666666" points="827,-31.5 678,-31.5 678,-1.5 827,-1.5 827,-31.5"/>
<text text-anchor="start" x="686" y="-19.5" font-family="Courier,monospace" font-size="10.00">MooseVariableInterface</text>
<text text-anchor="middle" x="752.5" y="-8.5" font-family="Courier,monospace" font-size="10.00">&lt; Real &gt;</text>
</a>
</g>
</g>
<!-- Node29&#45;&gt;Node3 -->
<g id="edge28" class="edge">
<title>Node29&#45;&gt;Node3</title>
<path fill="none" stroke="#63b8ff" d="M838.13,-31.04C845.73,-33.68 853.14,-36.81 860,-40.5 895.84,-59.77 927.46,-97.6 941.21,-115.57"/>
<polygon fill="#63b8ff" stroke="#63b8ff" points="839.33,-27.75 828.74,-28.07 837.22,-34.42 839.33,-27.75"/>
</g>
</g>
</svg>
        <g id="navigator" transform="translate(0 0)" fill="#404254">
                <rect fill="#f2f5e9" fill-opacity="0.5" stroke="#606060" stroke-width=".5" x="0" y="0" width="60" height="60"/>
                <use id="zoomplus" xlink:href="#zoomPlus" x="17" y="9" onmousedown="handleZoom(evt,'in')"/>
                <use id="zoomminus" xlink:href="#zoomMin" x="42" y="9" onmousedown="handleZoom(evt,'out')"/>
                <use id="reset" xlink:href="#resetDef" x="30" y="36" onmousedown="handleReset()"/>
                <g id="arrowUp" xlink:href="#dirArrow" transform="translate(30 24)" onmousedown="handlePan(0,-1)">
                  <use xlink:href="#rim" fill="#404040">
                        <set attributeName="fill" to="#808080" begin="arrowUp.mouseover" end="arrowUp.mouseout"/>
                  </use>
                  <path fill="none" stroke="white" stroke-width="1.5" d="M0,-3.0v7 M-2.5,-0.5L0,-3.0L2.5,-0.5"/>
                </g>
                <g id="arrowRight" xlink:href="#dirArrow" transform="rotate(90) translate(36 -43)" onmousedown="handlePan(1,0)">
                  <use xlink:href="#rim" fill="#404040">
                        <set attributeName="fill" to="#808080" begin="arrowRight.mouseover" end="arrowRight.mouseout"/>
                  </use>
                  <path fill="none" stroke="white" stroke-width="1.5" d="M0,-3.0v7 M-2.5,-0.5L0,-3.0L2.5,-0.5"/>
                </g>
                <g id="arrowDown" xlink:href="#dirArrow" transform="rotate(180) translate(-30 -48)" onmousedown="handlePan(0,1)">
                  <use xlink:href="#rim" fill="#404040">
                        <set attributeName="fill" to="#808080" begin="arrowDown.mouseover" end="arrowDown.mouseout"/>
                  </use>
                  <path fill="none" stroke="white" stroke-width="1.5" d="M0,-3.0v7 M-2.5,-0.5L0,-3.0L2.5,-0.5"/>
                </g>
                <g id="arrowLeft" xlink:href="#dirArrow" transform="rotate(270) translate(-36 17)" onmousedown="handlePan(-1,0)">
                  <use xlink:href="#rim" fill="#404040">
                        <set attributeName="fill" to="#808080" begin="arrowLeft.mouseover" end="arrowLeft.mouseout"/>
                  </use>
                  <path fill="none" stroke="white" stroke-width="1.5" d="M0,-3.0v7 M-2.5,-0.5L0,-3.0L2.5,-0.5"/>
                </g>
        </g>
        <svg viewBox="0 0 15 15" width="100%" height="30px" preserveAspectRatio="xMaxYMin meet">
         <g id="arrow_out" transform="scale(0.3 0.3)">
          <a xlink:href="classUpperBoundNodalKernel__inherit__graph_org.svg" target="_base">
           <rect id="button" ry="5" rx="5" y="6" x="6" height="38" width="38"
                fill="#f2f5e9" fill-opacity="0.5" stroke="#606060" stroke-width="1.0"/>
           <path id="arrow"
             d="M 11.500037,31.436501 C 11.940474,20.09759 22.043105,11.32322 32.158766,21.979434 L 37.068811,17.246167 C 37.068811,17.246167 37.088388,32 37.088388,32 L 22.160133,31.978069 C 22.160133,31.978069 26.997745,27.140456 26.997745,27.140456 C 18.528582,18.264221 13.291696,25.230495 11.500037,31.436501 z"
             style="fill:#404040;"/>
          </a>
         </g>
        </svg>
</svg>
