<?xml version="1.0" encoding="UTF-8" standalone="no"?>
<!DOCTYPE svg PUBLIC "-//W3C//DTD SVG 1.1//EN"
 "http://www.w3.org/Graphics/SVG/1.1/DTD/svg11.dtd">
<!-- Generated by graphviz version 7.0.5 (20221223.1930)
 -->
<!-- Title: Moose::FunctorEnvelopeBase Pages: 1 -->
<svg width="396pt" height="456pt"
 viewBox="0.00 0.00 396.00 456.00" xmlns="http://www.w3.org/2000/svg" xmlns:xlink="http://www.w3.org/1999/xlink">
<g id="graph0" class="graph" transform="scale(1 1) rotate(0) translate(4 452)">
<title>Moose::FunctorEnvelopeBase</title>
<!-- Node1 -->
<g id="node1" class="node">
<title>Node1</title>
<g id="a_node1"><a xlink:title="A non&#45;templated base class for functors that allow an owner object to hold different class template i...">
<polygon fill="#999999" stroke="#666666" points="173,-239 0,-239 0,-220 173,-220 173,-239"/>
<text text-anchor="middle" x="86.5" y="-227" font-family="Courier,monospace" font-size="10.00">Moose::FunctorEnvelopeBase</text>
</a>
</g>
</g>
<!-- Node2 -->
<g id="node2" class="node">
<title>Node2</title>
<g id="a_node2"><a xlink:href="classMoose_1_1FunctorEnvelope.html" target="_top" xlink:title=" ">
<polygon fill="white" stroke="#666666" points="373,-448 224,-448 224,-407 373,-407 373,-448"/>
<text text-anchor="start" x="232" y="-436" font-family="Courier,monospace" font-size="10.00">Moose::FunctorEnvelope</text>
<text text-anchor="start" x="232" y="-425" font-family="Courier,monospace" font-size="10.00">&lt; Moose::GenericType&lt;</text>
<text text-anchor="middle" x="298.5" y="-414" font-family="Courier,monospace" font-size="10.00"> Real, is_ad &gt; &gt;</text>
</a>
</g>
</g>
<!-- Node1&#45;&gt;Node2 -->
<g id="edge1" class="edge">
<title>Node1&#45;&gt;Node2</title>
<path fill="none" stroke="#63b8ff" d="M96.73,-249.42C113.91,-284.41 154.12,-357 209,-397.5 213.57,-400.87 218.54,-403.88 223.73,-406.57"/>
<polygon fill="#63b8ff" stroke="#63b8ff" points="100.09,-248.35 92.62,-240.84 93.78,-251.37 100.09,-248.35"/>
</g>
<!-- Node3 -->
<g id="node3" class="node">
<title>Node3</title>
<g id="a_node3"><a xlink:href="classMoose_1_1FunctorEnvelope.html" target="_top" xlink:title=" ">
<polygon fill="white" stroke="#666666" points="373,-388.5 224,-388.5 224,-358.5 373,-358.5 373,-388.5"/>
<text text-anchor="start" x="232" y="-376.5" font-family="Courier,monospace" font-size="10.00">Moose::FunctorEnvelope</text>
<text text-anchor="middle" x="298.5" y="-365.5" font-family="Courier,monospace" font-size="10.00">&lt; Real &gt;</text>
</a>
</g>
</g>
<!-- Node1&#45;&gt;Node3 -->
<g id="edge2" class="edge">
<title>Node1&#45;&gt;Node3</title>
<path fill="none" stroke="#63b8ff" d="M101.34,-248.3C121.87,-274.85 162.97,-323.02 209,-349.5 214.66,-352.75 220.77,-355.58 227.05,-358.04"/>
<polygon fill="#63b8ff" stroke="#63b8ff" points="104.25,-246.35 95.42,-240.49 98.67,-250.57 104.25,-246.35"/>
</g>
<!-- Node4 -->
<g id="node4" class="node">
<title>Node4</title>
<g id="a_node4"><a xlink:href="classMoose_1_1FunctorEnvelope.html" target="_top" xlink:title=" ">
<polygon fill="white" stroke="#666666" points="379,-340.5 218,-340.5 218,-310.5 379,-310.5 379,-340.5"/>
<text text-anchor="start" x="226" y="-328.5" font-family="Courier,monospace" font-size="10.00">Moose::FunctorEnvelope</text>
<text text-anchor="middle" x="298.5" y="-317.5" font-family="Courier,monospace" font-size="10.00">&lt; GenericReal&lt; is_ad &gt; &gt;</text>
</a>
</g>
</g>
<!-- Node1&#45;&gt;Node4 -->
<g id="edge3" class="edge">
<title>Node1&#45;&gt;Node4</title>
<path fill="none" stroke="#63b8ff" d="M110.64,-245.8C134.38,-261.88 172.84,-286.21 209,-301.5 216.48,-304.66 224.49,-307.51 232.52,-310.06"/>
<polygon fill="#63b8ff" stroke="#63b8ff" points="112.89,-243.1 102.67,-240.32 108.93,-248.87 112.89,-243.1"/>
</g>
<!-- Node5 -->
<g id="node5" class="node">
<title>Node5</title>
<g id="a_node5"><a xlink:href="classMoose_1_1FunctorEnvelope.html" target="_top" xlink:title=" ">
<polygon fill="white" stroke="#666666" points="373,-292.5 224,-292.5 224,-262.5 373,-262.5 373,-292.5"/>
<text text-anchor="start" x="232" y="-280.5" font-family="Courier,monospace" font-size="10.00">Moose::FunctorEnvelope</text>
<text text-anchor="middle" x="298.5" y="-269.5" font-family="Courier,monospace" font-size="10.00">&lt; ADReal &gt;</text>
</a>
</g>
</g>
<!-- Node1&#45;&gt;Node5 -->
<g id="edge4" class="edge">
<title>Node1&#45;&gt;Node5</title>
<path fill="none" stroke="#63b8ff" d="M142.15,-241.99C169.01,-248.13 201.65,-255.59 230.06,-262.08"/>
<polygon fill="#63b8ff" stroke="#63b8ff" points="143.02,-238.6 132.49,-239.78 141.46,-245.42 143.02,-238.6"/>
</g>
<!-- Node6 -->
<g id="node6" class="node">
<title>Node6</title>
<g id="a_node6"><a xlink:href="classMoose_1_1FunctorEnvelope.html" target="_top" xlink:title=" ">
<polygon fill="white" stroke="#666666" points="379,-244.5 218,-244.5 218,-214.5 379,-214.5 379,-244.5"/>
<text text-anchor="start" x="226" y="-232.5" font-family="Courier,monospace" font-size="10.00">Moose::FunctorEnvelope</text>
<text text-anchor="middle" x="298.5" y="-221.5" font-family="Courier,monospace" font-size="10.00">&lt; libMesh::VectorValue &gt;</text>
</a>
</g>
</g>
<!-- Node1&#45;&gt;Node6 -->
<g id="edge5" class="edge">
<title>Node1&#45;&gt;Node6</title>
<path fill="none" stroke="#63b8ff" d="M184.71,-229.5C195.79,-229.5 206.99,-229.5 217.81,-229.5"/>
<polygon fill="#63b8ff" stroke="#63b8ff" points="184.73,-226 174.73,-229.5 184.73,-233 184.73,-226"/>
</g>
<!-- Node7 -->
<g id="node7" class="node">
<title>Node7</title>
<g id="a_node7"><a xlink:href="classMoose_1_1FunctorEnvelope.html" target="_top" xlink:title=" ">
<polygon fill="white" stroke="#666666" points="379,-196 218,-196 218,-155 379,-155 379,-196"/>
<text text-anchor="start" x="226" y="-184" font-family="Courier,monospace" font-size="10.00">Moose::FunctorEnvelope</text>
<text text-anchor="start" x="226" y="-173" font-family="Courier,monospace" font-size="10.00">&lt; GenericRealVectorValue</text>
<text text-anchor="middle" x="298.5" y="-162" font-family="Courier,monospace" font-size="10.00">&lt; is_ad &gt; &gt;</text>
</a>
</g>
</g>
<!-- Node1&#45;&gt;Node7 -->
<g id="edge6" class="edge">
<title>Node1&#45;&gt;Node7</title>
<path fill="none" stroke="#63b8ff" d="M137.03,-216.76C161.14,-210.56 190.73,-202.95 217.91,-195.97"/>
<polygon fill="#63b8ff" stroke="#63b8ff" points="136.3,-213.34 127.48,-219.22 138.04,-220.12 136.3,-213.34"/>
</g>
<!-- Node8 -->
<g id="node8" class="node">
<title>Node8</title>
<g id="a_node8"><a xlink:href="classMoose_1_1FunctorEnvelope.html" target="_top" xlink:title=" ">
<polygon fill="white" stroke="#666666" points="373,-137 224,-137 224,-96 373,-96 373,-137"/>
<text text-anchor="start" x="232" y="-125" font-family="Courier,monospace" font-size="10.00">Moose::FunctorEnvelope</text>
<text text-anchor="start" x="232" y="-114" font-family="Courier,monospace" font-size="10.00">&lt; Moose::GenericType&lt;</text>
<text text-anchor="middle" x="298.5" y="-103" font-family="Courier,monospace" font-size="10.00"> T, is_ad &gt; &gt;</text>
</a>
</g>
</g>
<!-- Node1&#45;&gt;Node8 -->
<g id="edge7" class="edge">
<title>Node1&#45;&gt;Node8</title>
<path fill="none" stroke="#63b8ff" d="M108.56,-212.46C131.96,-194.19 171.4,-165.27 209,-146.5 215.53,-143.24 222.5,-140.2 229.55,-137.4"/>
<polygon fill="#63b8ff" stroke="#63b8ff" points="106.42,-209.69 100.76,-218.64 110.77,-215.18 106.42,-209.69"/>
</g>
<!-- Node9 -->
<g id="node9" class="node">
<title>Node9</title>
<g id="a_node9"><a xlink:href="classMoose_1_1FunctorEnvelope.html" target="_top" xlink:title=" ">
<polygon fill="white" stroke="#666666" points="385,-78 212,-78 212,-37 385,-37 385,-78"/>
<text text-anchor="start" x="220" y="-66" font-family="Courier,monospace" font-size="10.00">Moose::FunctorEnvelope</text>
<text text-anchor="start" x="220" y="-55" font-family="Courier,monospace" font-size="10.00">&lt; VectorValue&lt; GenericReal</text>
<text text-anchor="middle" x="298.5" y="-44" font-family="Courier,monospace" font-size="10.00">&lt; is_ad &gt; &gt; &gt;</text>
</a>
</g>
</g>
<!-- Node1&#45;&gt;Node9 -->
<g id="edge8" class="edge">
<title>Node1&#45;&gt;Node9</title>
<path fill="none" stroke="#63b8ff" d="M99.11,-210.2C118.3,-179.85 159.48,-121.01 209,-87.5 213.97,-84.14 219.35,-81.12 224.93,-78.42"/>
<polygon fill="#63b8ff" stroke="#63b8ff" points="96.34,-208.02 94.06,-218.37 102.29,-211.7 96.34,-208.02"/>
</g>
<!-- Node10 -->
<g id="node10" class="node">
<title>Node10</title>
<g id="a_node10"><a xlink:href="classMoose_1_1FunctorEnvelope.html" target="_top" xlink:title="This is a wrapper that forwards calls to the implementation, which can be switched out at any time wi...">
<polygon fill="white" stroke="#666666" points="388,-19 209,-19 209,0 388,0 388,-19"/>
<text text-anchor="middle" x="298.5" y="-7" font-family="Courier,monospace" font-size="10.00">Moose::FunctorEnvelope&lt; T &gt;</text>
</a>
</g>
</g>
<!-- Node1&#45;&gt;Node10 -->
<g id="edge9" class="edge">
<title>Node1&#45;&gt;Node10</title>
<path fill="none" stroke="#63b8ff" d="M93.82,-208.73C107.55,-167.37 144.17,-74.72 209,-28.5 214.12,-24.85 219.8,-21.88 225.74,-19.46"/>
<polygon fill="#63b8ff" stroke="#63b8ff" points="90.52,-207.57 90.82,-218.16 97.19,-209.69 90.52,-207.57"/>
</g>
</g>
</svg>
