<?xml version="1.0" encoding="UTF-8" standalone="no"?>
<!DOCTYPE svg PUBLIC "-//W3C//DTD SVG 1.1//EN"
 "http://www.w3.org/Graphics/SVG/1.1/DTD/svg11.dtd">
<!-- Generated by graphviz version 7.0.5 (20221223.1930)
 -->
<!-- Title: InternalSidePostprocessor Pages: 1 -->
<svg width="1859pt" height="927pt"
 viewBox="0.00 0.00 1859.00 926.50" xmlns="http://www.w3.org/2000/svg" xmlns:xlink="http://www.w3.org/1999/xlink">
<g id="graph0" class="graph" transform="scale(1 1) rotate(0) translate(4 922.5)">
<title>InternalSidePostprocessor</title>
<!-- Node1 -->
<g id="node1" class="node">
<title>Node1</title>
<g id="a_node1"><a xlink:title=" ">
<polygon fill="#999999" stroke="#666666" points="1218,-141.5 1051,-141.5 1051,-122.5 1218,-122.5 1218,-141.5"/>
<text text-anchor="middle" x="1134.5" y="-129.5" font-family="Courier,monospace" font-size="10.00">InternalSidePostprocessor</text>
</a>
</g>
</g>
<!-- Node40 -->
<g id="node40" class="node">
<title>Node40</title>
<g id="a_node40"><a xlink:href="classInternalSideIntegralPostprocessor.html" target="_top" xlink:title="This postprocessor computes a surface integral of the specified variable on internal sides of the mes...">
<polygon fill="white" stroke="#666666" points="1469,-141.5 1254,-141.5 1254,-122.5 1469,-122.5 1469,-141.5"/>
<text text-anchor="middle" x="1361.5" y="-129.5" font-family="Courier,monospace" font-size="10.00">InternalSideIntegralPostprocessor</text>
</a>
</g>
</g>
<!-- Node1&#45;&gt;Node40 -->
<g id="edge39" class="edge">
<title>Node1&#45;&gt;Node40</title>
<path fill="none" stroke="#63b8ff" d="M1229.8,-132C1237.7,-132 1245.73,-132 1253.72,-132"/>
<polygon fill="#63b8ff" stroke="#63b8ff" points="1229.84,-128.5 1219.84,-132 1229.84,-135.5 1229.84,-128.5"/>
</g>
<!-- Node2 -->
<g id="node2" class="node">
<title>Node2</title>
<g id="a_node2"><a xlink:href="classInternalSideUserObject.html" target="_top" xlink:title="Base class for user objects executed on all element sides internal to one or more blocks,...">
<polygon fill="white" stroke="#666666" points="1015,-233.5 866,-233.5 866,-214.5 1015,-214.5 1015,-233.5"/>
<text text-anchor="middle" x="940.5" y="-221.5" font-family="Courier,monospace" font-size="10.00">InternalSideUserObject</text>
</a>
</g>
</g>
<!-- Node2&#45;&gt;Node1 -->
<g id="edge1" class="edge">
<title>Node2&#45;&gt;Node1</title>
<path fill="none" stroke="#63b8ff" d="M972.39,-209.2C1011.83,-190.3 1079.03,-158.1 1112.81,-141.91"/>
<polygon fill="#63b8ff" stroke="#63b8ff" points="970.92,-206.02 963.41,-213.5 973.94,-212.34 970.92,-206.02"/>
</g>
<!-- Node3 -->
<g id="node3" class="node">
<title>Node3</title>
<g id="a_node3"><a xlink:href="classUserObject.html" target="_top" xlink:title="Base class for user&#45;specific data.">
<polygon fill="white" stroke="#666666" points="764,-566.5 687,-566.5 687,-547.5 764,-547.5 764,-566.5"/>
<text text-anchor="middle" x="725.5" y="-554.5" font-family="Courier,monospace" font-size="10.00">UserObject</text>
</a>
</g>
</g>
<!-- Node3&#45;&gt;Node2 -->
<g id="edge2" class="edge">
<title>Node3&#45;&gt;Node2</title>
<path fill="none" stroke="#63b8ff" d="M738.94,-537.56C778.97,-474.98 903.56,-280.19 933.15,-233.93"/>
<polygon fill="#63b8ff" stroke="#63b8ff" points="736.13,-535.45 733.69,-545.76 742.03,-539.22 736.13,-535.45"/>
</g>
<!-- Node4 -->
<g id="node4" class="node">
<title>Node4</title>
<g id="a_node4"><a xlink:href="classMooseObject.html" target="_top" xlink:title="Every object that can be built by the factory should be derived from this class.">
<polygon fill="white" stroke="#666666" points="534,-844.5 451,-844.5 451,-825.5 534,-825.5 534,-844.5"/>
<text text-anchor="middle" x="492.5" y="-832.5" font-family="Courier,monospace" font-size="10.00">MooseObject</text>
</a>
</g>
</g>
<!-- Node4&#45;&gt;Node3 -->
<g id="edge3" class="edge">
<title>Node4&#45;&gt;Node3</title>
<path fill="none" stroke="#63b8ff" d="M545.39,-832.82C559.28,-830.19 573.59,-825.43 585,-817 675.85,-749.88 713.69,-605.49 722.44,-566.74"/>
<polygon fill="#63b8ff" stroke="#63b8ff" points="545.25,-829.3 535.9,-834.27 546.31,-836.22 545.25,-829.3"/>
</g>
<!-- Node5 -->
<g id="node5" class="node">
<title>Node5</title>
<g id="a_node5"><a xlink:href="classMooseBase.html" target="_top" xlink:title="Base class for everything in MOOSE with a name and a type.">
<polygon fill="white" stroke="#666666" points="310,-918.5 239,-918.5 239,-899.5 310,-899.5 310,-918.5"/>
<text text-anchor="middle" x="274.5" y="-906.5" font-family="Courier,monospace" font-size="10.00">MooseBase</text>
</a>
</g>
</g>
<!-- Node5&#45;&gt;Node4 -->
<g id="edge4" class="edge">
<title>Node5&#45;&gt;Node4</title>
<path fill="none" stroke="#63b8ff" d="M321.62,-901.55C335.41,-898.81 350.46,-895.3 364,-891 403.87,-878.35 448.08,-857.22 472.56,-844.85"/>
<polygon fill="#63b8ff" stroke="#63b8ff" points="321.06,-898.09 311.89,-903.39 322.36,-904.97 321.06,-898.09"/>
</g>
<!-- Node6 -->
<g id="node6" class="node">
<title>Node6</title>
<g id="a_node6"><a xlink:href="classMooseBaseParameterInterface.html" target="_top" xlink:title="Every object that can be built by the factory should be derived from this class.">
<polygon fill="white" stroke="#666666" points="364,-881.5 185,-881.5 185,-862.5 364,-862.5 364,-881.5"/>
<text text-anchor="middle" x="274.5" y="-869.5" font-family="Courier,monospace" font-size="10.00">MooseBaseParameterInterface</text>
</a>
</g>
</g>
<!-- Node6&#45;&gt;Node4 -->
<g id="edge5" class="edge">
<title>Node6&#45;&gt;Node4</title>
<path fill="none" stroke="#63b8ff" d="M344.77,-860.13C379.7,-854.15 420.85,-847.1 450.68,-841.99"/>
<polygon fill="#63b8ff" stroke="#63b8ff" points="344.43,-856.64 335.16,-861.78 345.61,-863.54 344.43,-856.64"/>
</g>
<!-- Node7 -->
<g id="node7" class="node">
<title>Node7</title>
<g id="a_node7"><a xlink:href="classMooseBaseErrorInterface.html" target="_top" xlink:title="Interface that provides APIs to output errors/warnings/info messages.">
<polygon fill="white" stroke="#666666" points="352,-844.5 197,-844.5 197,-825.5 352,-825.5 352,-844.5"/>
<text text-anchor="middle" x="274.5" y="-832.5" font-family="Courier,monospace" font-size="10.00">MooseBaseErrorInterface</text>
</a>
</g>
</g>
<!-- Node7&#45;&gt;Node4 -->
<g id="edge6" class="edge">
<title>Node7&#45;&gt;Node4</title>
<path fill="none" stroke="#63b8ff" d="M363.7,-835C393.87,-835 426.17,-835 450.75,-835"/>
<polygon fill="#63b8ff" stroke="#63b8ff" points="363.78,-831.5 353.78,-835 363.78,-838.5 363.78,-831.5"/>
</g>
<!-- Node8 -->
<g id="node8" class="node">
<title>Node8</title>
<g id="a_node8"><a xlink:href="classConsoleStreamInterface.html" target="_top" xlink:title="An inteface for the _console for outputting to the Console object.">
<polygon fill="white" stroke="#666666" points="149,-844.5 0,-844.5 0,-825.5 149,-825.5 149,-844.5"/>
<text text-anchor="middle" x="74.5" y="-832.5" font-family="Courier,monospace" font-size="10.00">ConsoleStreamInterface</text>
</a>
</g>
</g>
<!-- Node8&#45;&gt;Node7 -->
<g id="edge7" class="edge">
<title>Node8&#45;&gt;Node7</title>
<path fill="none" stroke="#63b8ff" d="M160.62,-835C172.62,-835 184.9,-835 196.73,-835"/>
<polygon fill="#63b8ff" stroke="#63b8ff" points="160.74,-831.5 150.74,-835 160.74,-838.5 160.74,-831.5"/>
</g>
<!-- Node9 -->
<g id="node9" class="node">
<title>Node9</title>
<g id="a_node9"><a xlink:title=" ">
<polygon fill="white" stroke="#666666" points="352,-807.5 197,-807.5 197,-788.5 352,-788.5 352,-807.5"/>
<text text-anchor="middle" x="274.5" y="-795.5" font-family="Courier,monospace" font-size="10.00">libMesh::ParallelObject</text>
</a>
</g>
</g>
<!-- Node9&#45;&gt;Node4 -->
<g id="edge8" class="edge">
<title>Node9&#45;&gt;Node4</title>
<path fill="none" stroke="#63b8ff" d="M344.77,-809.87C379.7,-815.85 420.85,-822.9 450.68,-828.01"/>
<polygon fill="#63b8ff" stroke="#63b8ff" points="345.61,-806.46 335.16,-808.22 344.43,-813.36 345.61,-806.46"/>
</g>
<!-- Node10 -->
<g id="node10" class="node">
<title>Node10</title>
<g id="a_node10"><a xlink:href="classDataFileInterface.html" target="_top" xlink:title=" ">
<polygon fill="white" stroke="#666666" points="337,-770 212,-770 212,-740 337,-740 337,-770"/>
<text text-anchor="start" x="220" y="-758" font-family="Courier,monospace" font-size="10.00">DataFileInterface&lt;</text>
<text text-anchor="middle" x="274.5" y="-747" font-family="Courier,monospace" font-size="10.00"> MooseObject &gt;</text>
</a>
</g>
</g>
<!-- Node10&#45;&gt;Node4 -->
<g id="edge9" class="edge">
<title>Node10&#45;&gt;Node4</title>
<path fill="none" stroke="#63b8ff" d="M347.62,-771.85C353.32,-774.23 358.86,-776.94 364,-780 383.71,-791.74 379.83,-806.07 400,-817 415.37,-825.33 434.06,-829.84 450.53,-832.26"/>
<polygon fill="#63b8ff" stroke="#63b8ff" points="349.23,-768.72 338.64,-768.44 346.74,-775.26 349.23,-768.72"/>
</g>
<!-- Node11 -->
<g id="node11" class="node">
<title>Node11</title>
<g id="a_node11"><a xlink:href="classSetupInterface.html" target="_top" xlink:title=" ">
<polygon fill="white" stroke="#666666" points="543,-807.5 442,-807.5 442,-788.5 543,-788.5 543,-807.5"/>
<text text-anchor="middle" x="492.5" y="-795.5" font-family="Courier,monospace" font-size="10.00">SetupInterface</text>
</a>
</g>
</g>
<!-- Node11&#45;&gt;Node3 -->
<g id="edge10" class="edge">
<title>Node11&#45;&gt;Node3</title>
<path fill="none" stroke="#63b8ff" d="M554.61,-793.18C565.37,-790.38 575.99,-786.2 585,-780 666.99,-723.54 710.5,-601.53 721.61,-566.55"/>
<polygon fill="#63b8ff" stroke="#63b8ff" points="553.92,-789.75 544.89,-795.3 555.41,-796.59 553.92,-789.75"/>
</g>
<!-- Node12 -->
<g id="node12" class="node">
<title>Node12</title>
<g id="a_node12"><a xlink:href="classFunctionInterface.html" target="_top" xlink:title="Interface for objects that need to use functions.">
<polygon fill="white" stroke="#666666" points="552,-770.5 433,-770.5 433,-751.5 552,-751.5 552,-770.5"/>
<text text-anchor="middle" x="492.5" y="-758.5" font-family="Courier,monospace" font-size="10.00">FunctionInterface</text>
</a>
</g>
</g>
<!-- Node12&#45;&gt;Node3 -->
<g id="edge11" class="edge">
<title>Node12&#45;&gt;Node3</title>
<path fill="none" stroke="darkgreen" d="M563.08,-752.99C570.8,-750.47 578.29,-747.21 585,-743 658.15,-697.06 706.48,-597.95 720.37,-566.67"/>
<polygon fill="darkgreen" stroke="darkgreen" points="562.2,-749.6 553.52,-755.67 564.09,-756.34 562.2,-749.6"/>
</g>
<!-- Node13 -->
<g id="node13" class="node">
<title>Node13</title>
<g id="a_node13"><a xlink:href="classUserObjectInterface.html" target="_top" xlink:title="Interface for objects that need to use UserObjects.">
<polygon fill="white" stroke="#666666" points="558,-733.5 427,-733.5 427,-714.5 558,-714.5 558,-733.5"/>
<text text-anchor="middle" x="492.5" y="-721.5" font-family="Courier,monospace" font-size="10.00">UserObjectInterface</text>
</a>
</g>
</g>
<!-- Node13&#45;&gt;Node3 -->
<g id="edge12" class="edge">
<title>Node13&#45;&gt;Node3</title>
<path fill="none" stroke="#63b8ff" d="M569.1,-713.12C574.63,-711.13 580,-708.77 585,-706 649.46,-670.26 701.26,-594.23 718.42,-566.98"/>
<polygon fill="#63b8ff" stroke="#63b8ff" points="568.23,-709.72 559.74,-716.07 570.33,-716.4 568.23,-709.72"/>
</g>
<!-- Node14 -->
<g id="node14" class="node">
<title>Node14</title>
<g id="a_node14"><a xlink:href="classPostprocessorInterface.html" target="_top" xlink:title="Interface class for classes which interact with Postprocessors.">
<polygon fill="white" stroke="#666666" points="567,-696.5 418,-696.5 418,-677.5 567,-677.5 567,-696.5"/>
<text text-anchor="middle" x="492.5" y="-684.5" font-family="Courier,monospace" font-size="10.00">PostprocessorInterface</text>
</a>
</g>
</g>
<!-- Node14&#45;&gt;Node3 -->
<g id="edge13" class="edge">
<title>Node14&#45;&gt;Node3</title>
<path fill="none" stroke="darkgreen" d="M573.95,-673.52C577.74,-672.16 581.44,-670.65 585,-669 641.32,-642.8 694.79,-589.18 715.48,-566.97"/>
<polygon fill="darkgreen" stroke="darkgreen" points="572.97,-670.16 564.53,-676.55 575.12,-676.82 572.97,-670.16"/>
</g>
<!-- Node15 -->
<g id="node15" class="node">
<title>Node15</title>
<g id="a_node15"><a xlink:href="classVectorPostprocessorInterface.html" target="_top" xlink:title=" ">
<polygon fill="white" stroke="#666666" points="585,-659.5 400,-659.5 400,-640.5 585,-640.5 585,-659.5"/>
<text text-anchor="middle" x="492.5" y="-647.5" font-family="Courier,monospace" font-size="10.00">VectorPostprocessorInterface</text>
</a>
</g>
</g>
<!-- Node15&#45;&gt;Node3 -->
<g id="edge14" class="edge">
<title>Node15&#45;&gt;Node3</title>
<path fill="none" stroke="darkgreen" d="M568.24,-637.23C573.97,-635.67 579.61,-633.93 585,-632 633.15,-614.76 684.97,-582.98 709.71,-566.89"/>
<polygon fill="darkgreen" stroke="darkgreen" points="567.48,-633.82 558.64,-639.66 569.19,-640.6 567.48,-633.82"/>
</g>
<!-- Node16 -->
<g id="node16" class="node">
<title>Node16</title>
<g id="a_node16"><a xlink:href="classReporterInterface.html" target="_top" xlink:title="Interface to allow object to consume Reporter values.">
<polygon fill="white" stroke="#666666" points="552,-622.5 433,-622.5 433,-603.5 552,-603.5 552,-622.5"/>
<text text-anchor="middle" x="492.5" y="-610.5" font-family="Courier,monospace" font-size="10.00">ReporterInterface</text>
</a>
</g>
</g>
<!-- Node16&#45;&gt;Node3 -->
<g id="edge15" class="edge">
<title>Node16&#45;&gt;Node3</title>
<path fill="none" stroke="darkgreen" d="M558.53,-600.8C567.45,-598.96 576.47,-597 585,-595 621.29,-586.5 662.42,-575.07 690.56,-566.98"/>
<polygon fill="darkgreen" stroke="darkgreen" points="557.93,-597.35 548.83,-602.77 559.32,-604.21 557.93,-597.35"/>
</g>
<!-- Node17 -->
<g id="node17" class="node">
<title>Node17</title>
<g id="a_node17"><a xlink:href="classDistributionInterface.html" target="_top" xlink:title="Interface for objects that need to use distributions.">
<polygon fill="white" stroke="#666666" points="564,-585.5 421,-585.5 421,-566.5 564,-566.5 564,-585.5"/>
<text text-anchor="middle" x="492.5" y="-573.5" font-family="Courier,monospace" font-size="10.00">DistributionInterface</text>
</a>
</g>
</g>
<!-- Node17&#45;&gt;Node3 -->
<g id="edge16" class="edge">
<title>Node17&#45;&gt;Node3</title>
<path fill="none" stroke="darkgreen" d="M575.43,-569.26C613.35,-566.14 656.56,-562.59 686.65,-560.11"/>
<polygon fill="darkgreen" stroke="darkgreen" points="575.57,-565.74 565.89,-570.05 576.14,-572.71 575.57,-565.74"/>
</g>
<!-- Node18 -->
<g id="node18" class="node">
<title>Node18</title>
<g id="a_node18"><a xlink:href="classSamplerInterface.html" target="_top" xlink:title="Interface for objects that need to use samplers.">
<polygon fill="white" stroke="#666666" points="549,-548.5 436,-548.5 436,-529.5 549,-529.5 549,-548.5"/>
<text text-anchor="middle" x="492.5" y="-536.5" font-family="Courier,monospace" font-size="10.00">SamplerInterface</text>
</a>
</g>
</g>
<!-- Node18&#45;&gt;Node3 -->
<g id="edge17" class="edge">
<title>Node18&#45;&gt;Node3</title>
<path fill="none" stroke="darkgreen" d="M560.71,-544.24C601.74,-547.43 652.7,-551.41 686.78,-554.06"/>
<polygon fill="darkgreen" stroke="darkgreen" points="561.17,-540.76 550.93,-543.47 560.63,-547.74 561.17,-540.76"/>
</g>
<!-- Node19 -->
<g id="node19" class="node">
<title>Node19</title>
<g id="a_node19"><a xlink:href="classRestartable.html" target="_top" xlink:title="A class for creating restricted objects.">
<polygon fill="white" stroke="#666666" points="534,-511.5 451,-511.5 451,-492.5 534,-492.5 534,-511.5"/>
<text text-anchor="middle" x="492.5" y="-499.5" font-family="Courier,monospace" font-size="10.00">Restartable</text>
</a>
</g>
</g>
<!-- Node19&#45;&gt;Node3 -->
<g id="edge18" class="edge">
<title>Node19&#45;&gt;Node3</title>
<path fill="none" stroke="darkgreen" d="M545.27,-512.3C558.27,-515.01 572.17,-518.01 585,-521 620.08,-529.16 659.83,-539.53 687.9,-547.05"/>
<polygon fill="darkgreen" stroke="darkgreen" points="546.11,-508.9 535.61,-510.31 544.7,-515.76 546.11,-508.9"/>
</g>
<!-- Node20 -->
<g id="node20" class="node">
<title>Node20</title>
<g id="a_node20"><a xlink:href="classMeshMetaDataInterface.html" target="_top" xlink:title="The Interface used to retrieve mesh meta data (attributes) set by the MeshGenerator system.">
<polygon fill="white" stroke="#666666" points="564,-474.5 421,-474.5 421,-455.5 564,-455.5 564,-474.5"/>
<text text-anchor="middle" x="492.5" y="-462.5" font-family="Courier,monospace" font-size="10.00">MeshMetaDataInterface</text>
</a>
</g>
</g>
<!-- Node20&#45;&gt;Node3 -->
<g id="edge19" class="edge">
<title>Node20&#45;&gt;Node3</title>
<path fill="none" stroke="darkgreen" d="M564.33,-477.65C571.39,-479.52 578.38,-481.63 585,-484 632.62,-501.03 684.26,-531.57 709.25,-547.2"/>
<polygon fill="darkgreen" stroke="darkgreen" points="565.25,-474.27 554.7,-475.27 563.56,-481.07 565.25,-474.27"/>
</g>
<!-- Node21 -->
<g id="node21" class="node">
<title>Node21</title>
<g id="a_node21"><a xlink:href="classMeshChangedInterface.html" target="_top" xlink:title="Interface for notifications that the mesh has changed.">
<polygon fill="white" stroke="#666666" points="561,-437.5 424,-437.5 424,-418.5 561,-418.5 561,-437.5"/>
<text text-anchor="middle" x="492.5" y="-425.5" font-family="Courier,monospace" font-size="10.00">MeshChangedInterface</text>
</a>
</g>
</g>
<!-- Node21&#45;&gt;Node3 -->
<g id="edge20" class="edge">
<title>Node21&#45;&gt;Node3</title>
<path fill="none" stroke="darkgreen" d="M570.63,-441.27C575.58,-442.96 580.41,-444.86 585,-447 640.91,-473.06 694.6,-525.54 715.42,-547.25"/>
<polygon fill="darkgreen" stroke="darkgreen" points="571.71,-437.94 561.12,-438.35 569.65,-444.63 571.71,-437.94"/>
</g>
<!-- Node22 -->
<g id="node22" class="node">
<title>Node22</title>
<g id="a_node22"><a xlink:href="classScalarCoupleable.html" target="_top" xlink:title="Interface for objects that needs scalar coupling capabilities.">
<polygon fill="white" stroke="#666666" points="549,-400.5 436,-400.5 436,-381.5 549,-381.5 549,-400.5"/>
<text text-anchor="middle" x="492.5" y="-388.5" font-family="Courier,monospace" font-size="10.00">ScalarCoupleable</text>
</a>
</g>
</g>
<!-- Node22&#45;&gt;Node3 -->
<g id="edge21" class="edge">
<title>Node22&#45;&gt;Node3</title>
<path fill="none" stroke="darkgreen" d="M560.14,-399.84C568.81,-402.41 577.33,-405.73 585,-410 648.93,-445.61 701.07,-520.4 718.37,-547.19"/>
<polygon fill="darkgreen" stroke="darkgreen" points="561.16,-396.49 550.6,-397.34 559.39,-403.26 561.16,-396.49"/>
</g>
<!-- Node23 -->
<g id="node23" class="node">
<title>Node23</title>
<g id="a_node23"><a xlink:href="classPerfGraphInterface.html" target="_top" xlink:title="Interface for objects interacting with the PerfGraph.">
<polygon fill="white" stroke="#666666" points="555,-363.5 430,-363.5 430,-344.5 555,-344.5 555,-363.5"/>
<text text-anchor="middle" x="492.5" y="-351.5" font-family="Courier,monospace" font-size="10.00">PerfGraphInterface</text>
</a>
</g>
</g>
<!-- Node23&#45;&gt;Node3 -->
<g id="edge22" class="edge">
<title>Node23&#45;&gt;Node3</title>
<path fill="none" stroke="darkgreen" d="M566.03,-363.89C572.71,-366.31 579.15,-369.3 585,-373 657.19,-418.6 705.82,-515.7 720.12,-547.03"/>
<polygon fill="darkgreen" stroke="darkgreen" points="567.44,-360.67 556.85,-361 565.34,-367.34 567.44,-360.67"/>
</g>
<!-- Node24 -->
<g id="node24" class="node">
<title>Node24</title>
<g id="a_node24"><a xlink:href="classDependencyResolverInterface.html" target="_top" xlink:title="Interface for sorting dependent vectors of objects.">
<polygon fill="white" stroke="#666666" points="582,-326.5 403,-326.5 403,-307.5 582,-307.5 582,-326.5"/>
<text text-anchor="middle" x="492.5" y="-314.5" font-family="Courier,monospace" font-size="10.00">DependencyResolverInterface</text>
</a>
</g>
</g>
<!-- Node24&#45;&gt;Node3 -->
<g id="edge23" class="edge">
<title>Node24&#45;&gt;Node3</title>
<path fill="none" stroke="#63b8ff" d="M577.97,-331.68C580.4,-333 582.75,-334.44 585,-336 665.91,-392.1 709.89,-511.89 721.41,-547.08"/>
<polygon fill="#63b8ff" stroke="#63b8ff" points="579.52,-328.54 568.98,-327.49 576.57,-334.89 579.52,-328.54"/>
</g>
<!-- Node25 -->
<g id="node25" class="node">
<title>Node25</title>
<g id="a_node25"><a xlink:href="classBlockRestrictable.html" target="_top" xlink:title="An interface that restricts an object to subdomains via the &#39;blocks&#39; input parameter.">
<polygon fill="white" stroke="#666666" points="785,-326.5 666,-326.5 666,-307.5 785,-307.5 785,-326.5"/>
<text text-anchor="middle" x="725.5" y="-314.5" font-family="Courier,monospace" font-size="10.00">BlockRestrictable</text>
</a>
</g>
</g>
<!-- Node25&#45;&gt;Node2 -->
<g id="edge24" class="edge">
<title>Node25&#45;&gt;Node2</title>
<path fill="none" stroke="#63b8ff" d="M796.75,-308.98C808.1,-306.5 819.55,-303.25 830,-299 869.91,-282.76 909.94,-250.23 928.62,-233.87"/>
<polygon fill="#63b8ff" stroke="#63b8ff" points="796.09,-305.55 786.96,-310.92 797.45,-312.41 796.09,-305.55"/>
</g>
<!-- Node26 -->
<g id="node26" class="node">
<title>Node26</title>
<g id="a_node26"><a xlink:href="classTwoMaterialPropertyInterface.html" target="_top" xlink:title="This interface is designed for DGKernel, InternalSideUserObject, InterfaceUserObject,...">
<polygon fill="white" stroke="#666666" points="818,-289.5 633,-289.5 633,-270.5 818,-270.5 818,-289.5"/>
<text text-anchor="middle" x="725.5" y="-277.5" font-family="Courier,monospace" font-size="10.00">TwoMaterialPropertyInterface</text>
</a>
</g>
</g>
<!-- Node26&#45;&gt;Node2 -->
<g id="edge25" class="edge">
<title>Node26&#45;&gt;Node2</title>
<path fill="none" stroke="#63b8ff" d="M804.65,-267.8C813.24,-266.05 821.84,-264.11 830,-262 859.61,-254.34 892.66,-242.38 914.63,-233.93"/>
<polygon fill="#63b8ff" stroke="#63b8ff" points="804,-264.36 794.86,-269.72 805.35,-271.23 804,-264.36"/>
</g>
<!-- Node27 -->
<g id="node27" class="node">
<title>Node27</title>
<g id="a_node27"><a xlink:href="classMaterialPropertyInterface.html" target="_top" xlink:title="An interface for accessing Materials.">
<polygon fill="white" stroke="#666666" points="576,-289.5 409,-289.5 409,-270.5 576,-270.5 576,-289.5"/>
<text text-anchor="middle" x="492.5" y="-277.5" font-family="Courier,monospace" font-size="10.00">MaterialPropertyInterface</text>
</a>
</g>
</g>
<!-- Node27&#45;&gt;Node26 -->
<g id="edge26" class="edge">
<title>Node27&#45;&gt;Node26</title>
<path fill="none" stroke="#63b8ff" d="M587.5,-280C602.36,-280 617.72,-280 632.54,-280"/>
<polygon fill="#63b8ff" stroke="#63b8ff" points="587.76,-276.5 577.76,-280 587.76,-283.5 587.76,-276.5"/>
</g>
<!-- Node28 -->
<g id="node28" class="node">
<title>Node28</title>
<g id="a_node28"><a xlink:href="classNeighborCoupleable.html" target="_top" xlink:title="Enhances Coupleable interface to also couple the values from neighbor elements.">
<polygon fill="white" stroke="#666666" points="788,-252.5 663,-252.5 663,-233.5 788,-233.5 788,-252.5"/>
<text text-anchor="middle" x="725.5" y="-240.5" font-family="Courier,monospace" font-size="10.00">NeighborCoupleable</text>
</a>
</g>
</g>
<!-- Node28&#45;&gt;Node2 -->
<g id="edge27" class="edge">
<title>Node28&#45;&gt;Node2</title>
<path fill="none" stroke="#63b8ff" d="M799.69,-236.47C821.04,-234.57 844.38,-232.48 865.77,-230.58"/>
<polygon fill="#63b8ff" stroke="#63b8ff" points="799.55,-232.97 789.9,-237.34 800.17,-239.94 799.55,-232.97"/>
</g>
<!-- Node29 -->
<g id="node29" class="node">
<title>Node29</title>
<g id="a_node29"><a xlink:href="classCoupleable.html" target="_top" xlink:title="Interface for objects that needs coupling capabilities.">
<polygon fill="white" stroke="#666666" points="531,-252.5 454,-252.5 454,-233.5 531,-233.5 531,-252.5"/>
<text text-anchor="middle" x="492.5" y="-240.5" font-family="Courier,monospace" font-size="10.00">Coupleable</text>
</a>
</g>
</g>
<!-- Node29&#45;&gt;Node28 -->
<g id="edge28" class="edge">
<title>Node29&#45;&gt;Node28</title>
<path fill="none" stroke="#63b8ff" d="M542.76,-243C577.79,-243 625.09,-243 662.66,-243"/>
<polygon fill="#63b8ff" stroke="#63b8ff" points="542.9,-239.5 532.9,-243 542.9,-246.5 542.9,-239.5"/>
</g>
<!-- Node30 -->
<g id="node30" class="node">
<title>Node30</title>
<g id="a_node30"><a xlink:href="classMooseVariableDependencyInterface.html" target="_top" xlink:title=" ">
<polygon fill="white" stroke="#666666" points="830,-215.5 621,-215.5 621,-196.5 830,-196.5 830,-215.5"/>
<text text-anchor="middle" x="725.5" y="-203.5" font-family="Courier,monospace" font-size="10.00">MooseVariableDependencyInterface</text>
</a>
</g>
</g>
<!-- Node30&#45;&gt;Node2 -->
<g id="edge29" class="edge">
<title>Node30&#45;&gt;Node2</title>
<path fill="none" stroke="#63b8ff" d="M841.4,-215.71C849.59,-216.4 857.73,-217.09 865.6,-217.75"/>
<polygon fill="#63b8ff" stroke="#63b8ff" points="841.96,-212.24 831.7,-214.89 841.37,-219.22 841.96,-212.24"/>
</g>
<!-- Node31 -->
<g id="node31" class="node">
<title>Node31</title>
<g id="a_node31"><a xlink:href="classTransientInterface.html" target="_top" xlink:title="Interface for objects that needs transient capabilities.">
<polygon fill="white" stroke="#666666" points="788,-178.5 663,-178.5 663,-159.5 788,-159.5 788,-178.5"/>
<text text-anchor="middle" x="725.5" y="-166.5" font-family="Courier,monospace" font-size="10.00">TransientInterface</text>
</a>
</g>
</g>
<!-- Node31&#45;&gt;Node2 -->
<g id="edge30" class="edge">
<title>Node31&#45;&gt;Node2</title>
<path fill="none" stroke="#63b8ff" d="M799.47,-181.11C809.77,-183.19 820.18,-185.5 830,-188 858.7,-195.32 890.81,-206.2 912.8,-214.09"/>
<polygon fill="#63b8ff" stroke="#63b8ff" points="800.34,-177.71 789.85,-179.23 799,-184.58 800.34,-177.71"/>
</g>
<!-- Node32 -->
<g id="node32" class="node">
<title>Node32</title>
<g id="a_node32"><a xlink:href="classElementIDInterface.html" target="_top" xlink:title=" ">
<polygon fill="white" stroke="#666666" points="788,-141.5 663,-141.5 663,-122.5 788,-122.5 788,-141.5"/>
<text text-anchor="middle" x="725.5" y="-129.5" font-family="Courier,monospace" font-size="10.00">ElementIDInterface</text>
</a>
</g>
</g>
<!-- Node32&#45;&gt;Node2 -->
<g id="edge31" class="edge">
<title>Node32&#45;&gt;Node2</title>
<path fill="none" stroke="#63b8ff" d="M799.64,-141.57C810.03,-144.03 820.42,-147.12 830,-151 869.39,-166.95 909.35,-198.26 928.25,-214.19"/>
<polygon fill="#63b8ff" stroke="#63b8ff" points="800.41,-138.15 789.9,-139.45 798.93,-144.99 800.41,-138.15"/>
</g>
<!-- Node33 -->
<g id="node33" class="node">
<title>Node33</title>
<g id="a_node33"><a xlink:href="classPostprocessor.html" target="_top" xlink:title="Base class for all Postprocessors.">
<polygon fill="white" stroke="#666666" points="988,-86.5 893,-86.5 893,-67.5 988,-67.5 988,-86.5"/>
<text text-anchor="middle" x="940.5" y="-74.5" font-family="Courier,monospace" font-size="10.00">Postprocessor</text>
</a>
</g>
</g>
<!-- Node33&#45;&gt;Node1 -->
<g id="edge32" class="edge">
<title>Node33&#45;&gt;Node1</title>
<path fill="none" stroke="#63b8ff" d="M986.92,-90.01C1021.13,-99.81 1067.34,-113.05 1098.67,-122.02"/>
<polygon fill="#63b8ff" stroke="#63b8ff" points="988.3,-86.77 977.72,-87.38 986.37,-93.5 988.3,-86.77"/>
</g>
<!-- Node34 -->
<g id="node34" class="node">
<title>Node34</title>
<g id="a_node34"><a xlink:href="classOutputInterface.html" target="_top" xlink:title="A class to provide an common interface to objects requiring &quot;outputs&quot; option.">
<polygon fill="white" stroke="#666666" points="779,-104.5 672,-104.5 672,-85.5 779,-85.5 779,-104.5"/>
<text text-anchor="middle" x="725.5" y="-92.5" font-family="Courier,monospace" font-size="10.00">OutputInterface</text>
</a>
</g>
</g>
<!-- Node34&#45;&gt;Node33 -->
<g id="edge33" class="edge">
<title>Node34&#45;&gt;Node33</title>
<path fill="none" stroke="#63b8ff" d="M790.74,-89.57C823.54,-86.8 862.73,-83.49 892.65,-80.96"/>
<polygon fill="#63b8ff" stroke="#63b8ff" points="790.6,-86.07 780.93,-90.4 791.19,-93.05 790.6,-86.07"/>
</g>
<!-- Node35 -->
<g id="node35" class="node">
<title>Node35</title>
<g id="a_node35"><a xlink:href="classNonADFunctorInterface.html" target="_top" xlink:title="An interface for accessing Moose::Functors for systems that do not care about automatic differentiati...">
<polygon fill="white" stroke="#666666" points="797,-67.5 654,-67.5 654,-48.5 797,-48.5 797,-67.5"/>
<text text-anchor="middle" x="725.5" y="-55.5" font-family="Courier,monospace" font-size="10.00">NonADFunctorInterface</text>
</a>
</g>
</g>
<!-- Node35&#45;&gt;Node33 -->
<g id="edge34" class="edge">
<title>Node35&#45;&gt;Node33</title>
<path fill="none" stroke="#63b8ff" d="M808.62,-65.32C837.09,-67.87 868.03,-70.62 892.67,-72.82"/>
<polygon fill="#63b8ff" stroke="#63b8ff" points="809.2,-61.86 798.93,-64.46 808.58,-68.84 809.2,-61.86"/>
</g>
<!-- Node36 -->
<g id="node36" class="node">
<title>Node36</title>
<g id="a_node36"><a xlink:href="classFunctorInterface.html" target="_top" xlink:title="An interface for accessing Moose::Functors.">
<polygon fill="white" stroke="#666666" points="549,-67.5 436,-67.5 436,-48.5 549,-48.5 549,-67.5"/>
<text text-anchor="middle" x="492.5" y="-55.5" font-family="Courier,monospace" font-size="10.00">FunctorInterface</text>
</a>
</g>
</g>
<!-- Node36&#45;&gt;Node35 -->
<g id="edge35" class="edge">
<title>Node36&#45;&gt;Node35</title>
<path fill="none" stroke="#63b8ff" d="M560.76,-58C589.96,-58 624.18,-58 653.77,-58"/>
<polygon fill="#63b8ff" stroke="#63b8ff" points="560.93,-54.5 550.93,-58 560.93,-61.5 560.93,-54.5"/>
</g>
<!-- Node37 -->
<g id="node37" class="node">
<title>Node37</title>
<g id="a_node37"><a xlink:href="classMoose_1_1FunctorBase.html" target="_top" xlink:title=" ">
<polygon fill="white" stroke="#666666" points="788,-30 663,-30 663,0 788,0 788,-30"/>
<text text-anchor="start" x="671" y="-18" font-family="Courier,monospace" font-size="10.00">Moose::FunctorBase</text>
<text text-anchor="middle" x="725.5" y="-7" font-family="Courier,monospace" font-size="10.00">&lt; Real &gt;</text>
</a>
</g>
</g>
<!-- Node37&#45;&gt;Node33 -->
<g id="edge36" class="edge">
<title>Node37&#45;&gt;Node33</title>
<path fill="none" stroke="#63b8ff" d="M799.45,-30.89C809.75,-33.43 820.17,-36.16 830,-39 859,-47.37 891.61,-58.98 913.64,-67.15"/>
<polygon fill="#63b8ff" stroke="#63b8ff" points="800.36,-27.51 789.82,-28.57 798.72,-34.31 800.36,-27.51"/>
</g>
<!-- Node38 -->
<g id="node38" class="node">
<title>Node38</title>
<g id="a_node38"><a xlink:href="classMoose_1_1FunctorAbstract.html" target="_top" xlink:title="Abstract base class that can be used to hold collections of functors.">
<polygon fill="white" stroke="#666666" points="567,-24.5 418,-24.5 418,-5.5 567,-5.5 567,-24.5"/>
<text text-anchor="middle" x="492.5" y="-12.5" font-family="Courier,monospace" font-size="10.00">Moose::FunctorAbstract</text>
</a>
</g>
</g>
<!-- Node38&#45;&gt;Node37 -->
<g id="edge37" class="edge">
<title>Node38&#45;&gt;Node37</title>
<path fill="none" stroke="#63b8ff" d="M578.58,-15C606.46,-15 636.88,-15 662.7,-15"/>
<polygon fill="#63b8ff" stroke="#63b8ff" points="578.74,-11.5 568.74,-15 578.74,-18.5 578.74,-11.5"/>
</g>
<!-- Node39 -->
<g id="node39" class="node">
<title>Node39</title>
<g id="a_node39"><a xlink:href="classFaceArgInterface.html" target="_top" xlink:title="A base class interface for both producers and consumers of functor face arguments,...">
<polygon fill="white" stroke="#666666" points="331,-24.5 218,-24.5 218,-5.5 331,-5.5 331,-24.5"/>
<text text-anchor="middle" x="274.5" y="-12.5" font-family="Courier,monospace" font-size="10.00">FaceArgInterface</text>
</a>
</g>
</g>
<!-- Node39&#45;&gt;Node38 -->
<g id="edge38" class="edge">
<title>Node39&#45;&gt;Node38</title>
<path fill="none" stroke="#63b8ff" d="M342.78,-15C366.49,-15 393.27,-15 417.51,-15"/>
<polygon fill="#63b8ff" stroke="#63b8ff" points="342.92,-11.5 332.92,-15 342.92,-18.5 342.92,-11.5"/>
</g>
<!-- Node41 -->
<g id="node41" class="node">
<title>Node41</title>
<g id="a_node41"><a xlink:href="classInternalSideIntegralVariablePostprocessor.html" target="_top" xlink:title="This postprocessor computes an integral on internal mesh sides of the specified variable.">
<polygon fill="white" stroke="#666666" points="1690,-147 1505,-147 1505,-117 1690,-117 1690,-147"/>
<text text-anchor="start" x="1513" y="-135" font-family="Courier,monospace" font-size="10.00">InternalSideIntegralVariable</text>
<text text-anchor="middle" x="1597.5" y="-124" font-family="Courier,monospace" font-size="10.00">Postprocessor</text>
</a>
</g>
</g>
<!-- Node40&#45;&gt;Node41 -->
<g id="edge40" class="edge">
<title>Node40&#45;&gt;Node41</title>
<path fill="none" stroke="#63b8ff" d="M1480.61,-132C1488.66,-132 1496.71,-132 1504.6,-132"/>
<polygon fill="#63b8ff" stroke="#63b8ff" points="1480.74,-128.5 1470.74,-132 1480.74,-135.5 1480.74,-128.5"/>
</g>
<!-- Node42 -->
<g id="node42" class="node">
<title>Node42</title>
<g id="a_node42"><a xlink:href="classElementSidesL2Norm.html" target="_top" xlink:title="This postprocessor computes the L2 norm of a variable over element sides.">
<polygon fill="white" stroke="#666666" points="1851,-141.5 1726,-141.5 1726,-122.5 1851,-122.5 1851,-141.5"/>
<text text-anchor="middle" x="1788.5" y="-129.5" font-family="Courier,monospace" font-size="10.00">ElementSidesL2Norm</text>
</a>
</g>
</g>
<!-- Node41&#45;&gt;Node42 -->
<g id="edge41" class="edge">
<title>Node41&#45;&gt;Node42</title>
<path fill="none" stroke="#63b8ff" d="M1701.51,-132C1709.76,-132 1717.92,-132 1725.75,-132"/>
<polygon fill="#63b8ff" stroke="#63b8ff" points="1701.75,-128.5 1691.75,-132 1701.75,-135.5 1701.75,-128.5"/>
</g>
</g>
</svg>
