<?xml version="1.0" encoding="UTF-8" standalone="no"?>
<!DOCTYPE svg PUBLIC "-//W3C//DTD SVG 1.1//EN"
 "http://www.w3.org/Graphics/SVG/1.1/DTD/svg11.dtd">
<!-- Generated by graphviz version 7.0.5 (20221223.1930)
 -->
<!-- Title: SolutionIC Pages: 1 -->
<svg width="1022pt" height="471pt"
 viewBox="0.00 0.00 1022.00 471.00" xmlns="http://www.w3.org/2000/svg" xmlns:xlink="http://www.w3.org/1999/xlink">
<g id="graph0" class="graph" transform="scale(1 1) rotate(0) translate(4 467)">
<title>SolutionIC</title>
<!-- Node1 -->
<g id="node1" class="node">
<title>Node1</title>
<g id="a_node1"><a xlink:title="Class for reading an initial condition from a solution user object.">
<polygon fill="#999999" stroke="#666666" points="1014,-204 937,-204 937,-185 1014,-185 1014,-204"/>
<text text-anchor="middle" x="975.5" y="-192" font-family="Courier,monospace" font-size="10.00">SolutionIC</text>
</a>
</g>
</g>
<!-- Node2 -->
<g id="node2" class="node">
<title>Node2</title>
<g id="a_node2"><a xlink:href="classInitialConditionTempl.html" target="_top" xlink:title="This is a template class that implements the workhorse compute and computeNodal methods.">
<polygon fill="white" stroke="#666666" points="901,-204 788,-204 788,-185 901,-185 901,-204"/>
<text text-anchor="middle" x="844.5" y="-192" font-family="Courier,monospace" font-size="10.00">InitialCondition</text>
</a>
</g>
</g>
<!-- Node2&#45;&gt;Node1 -->
<g id="edge1" class="edge">
<title>Node2&#45;&gt;Node1</title>
<path fill="none" stroke="#63b8ff" d="M912.63,-194.5C920.93,-194.5 929.18,-194.5 936.81,-194.5"/>
<polygon fill="#63b8ff" stroke="#63b8ff" points="912.84,-191 902.84,-194.5 912.84,-198 912.84,-191"/>
</g>
<!-- Node3 -->
<g id="node3" class="node">
<title>Node3</title>
<g id="a_node3"><a xlink:href="classInitialConditionBase.html" target="_top" xlink:title="InitialConditionBase serves as the abstract base class for InitialConditions and VectorInitialConditi...">
<polygon fill="white" stroke="#666666" points="752,-204 615,-204 615,-185 752,-185 752,-204"/>
<text text-anchor="middle" x="683.5" y="-192" font-family="Courier,monospace" font-size="10.00">InitialConditionBase</text>
</a>
</g>
</g>
<!-- Node3&#45;&gt;Node2 -->
<g id="edge2" class="edge">
<title>Node3&#45;&gt;Node2</title>
<path fill="none" stroke="#63b8ff" d="M763.82,-194.5C771.93,-194.5 780.04,-194.5 787.82,-194.5"/>
<polygon fill="#63b8ff" stroke="#63b8ff" points="763.91,-191 753.91,-194.5 763.91,-198 763.91,-191"/>
</g>
<!-- Node4 -->
<g id="node4" class="node">
<title>Node4</title>
<g id="a_node4"><a xlink:href="classMooseObject.html" target="_top" xlink:title="Every object that can be built by the factory should be derived from this class.">
<polygon fill="white" stroke="#666666" points="531,-389 448,-389 448,-370 531,-370 531,-389"/>
<text text-anchor="middle" x="489.5" y="-377" font-family="Courier,monospace" font-size="10.00">MooseObject</text>
</a>
</g>
</g>
<!-- Node4&#45;&gt;Node3 -->
<g id="edge3" class="edge">
<title>Node4&#45;&gt;Node3</title>
<path fill="none" stroke="#63b8ff" d="M542.26,-375.52C555.1,-372.69 568.26,-368.05 579,-360.5 637.64,-319.31 669.93,-233.25 679.47,-204.27"/>
<polygon fill="#63b8ff" stroke="#63b8ff" points="541.8,-372.05 532.6,-377.3 543.07,-378.93 541.8,-372.05"/>
</g>
<!-- Node5 -->
<g id="node5" class="node">
<title>Node5</title>
<g id="a_node5"><a xlink:href="classMooseBase.html" target="_top" xlink:title="Base class for everything in MOOSE with a name and a type.">
<polygon fill="white" stroke="#666666" points="310,-463 239,-463 239,-444 310,-444 310,-463"/>
<text text-anchor="middle" x="274.5" y="-451" font-family="Courier,monospace" font-size="10.00">MooseBase</text>
</a>
</g>
</g>
<!-- Node5&#45;&gt;Node4 -->
<g id="edge4" class="edge">
<title>Node5&#45;&gt;Node4</title>
<path fill="none" stroke="#63b8ff" d="M321.65,-446.13C335.44,-443.39 350.48,-439.86 364,-435.5 403.03,-422.93 446.16,-401.77 470.03,-389.38"/>
<polygon fill="#63b8ff" stroke="#63b8ff" points="321.09,-442.67 311.91,-447.96 322.38,-449.55 321.09,-442.67"/>
</g>
<!-- Node6 -->
<g id="node6" class="node">
<title>Node6</title>
<g id="a_node6"><a xlink:href="classMooseBaseParameterInterface.html" target="_top" xlink:title="Every object that can be built by the factory should be derived from this class.">
<polygon fill="white" stroke="#666666" points="364,-426 185,-426 185,-407 364,-407 364,-426"/>
<text text-anchor="middle" x="274.5" y="-414" font-family="Courier,monospace" font-size="10.00">MooseBaseParameterInterface</text>
</a>
</g>
</g>
<!-- Node6&#45;&gt;Node4 -->
<g id="edge5" class="edge">
<title>Node6&#45;&gt;Node4</title>
<path fill="none" stroke="#63b8ff" d="M344.17,-404.57C378.28,-398.65 418.33,-391.69 447.58,-386.61"/>
<polygon fill="#63b8ff" stroke="#63b8ff" points="343.6,-401.12 334.35,-406.28 344.8,-408.01 343.6,-401.12"/>
</g>
<!-- Node7 -->
<g id="node7" class="node">
<title>Node7</title>
<g id="a_node7"><a xlink:href="classMooseBaseErrorInterface.html" target="_top" xlink:title="Interface that provides APIs to output errors/warnings/info messages.">
<polygon fill="white" stroke="#666666" points="352,-389 197,-389 197,-370 352,-370 352,-389"/>
<text text-anchor="middle" x="274.5" y="-377" font-family="Courier,monospace" font-size="10.00">MooseBaseErrorInterface</text>
</a>
</g>
</g>
<!-- Node7&#45;&gt;Node4 -->
<g id="edge6" class="edge">
<title>Node7&#45;&gt;Node4</title>
<path fill="none" stroke="#63b8ff" d="M363.85,-379.5C392.9,-379.5 423.82,-379.5 447.59,-379.5"/>
<polygon fill="#63b8ff" stroke="#63b8ff" points="363.91,-376 353.91,-379.5 363.91,-383 363.91,-376"/>
</g>
<!-- Node8 -->
<g id="node8" class="node">
<title>Node8</title>
<g id="a_node8"><a xlink:href="classConsoleStreamInterface.html" target="_top" xlink:title="An inteface for the _console for outputting to the Console object.">
<polygon fill="white" stroke="#666666" points="149,-389 0,-389 0,-370 149,-370 149,-389"/>
<text text-anchor="middle" x="74.5" y="-377" font-family="Courier,monospace" font-size="10.00">ConsoleStreamInterface</text>
</a>
</g>
</g>
<!-- Node8&#45;&gt;Node7 -->
<g id="edge7" class="edge">
<title>Node8&#45;&gt;Node7</title>
<path fill="none" stroke="#63b8ff" d="M160.62,-379.5C172.62,-379.5 184.9,-379.5 196.73,-379.5"/>
<polygon fill="#63b8ff" stroke="#63b8ff" points="160.74,-376 150.74,-379.5 160.74,-383 160.74,-376"/>
</g>
<!-- Node9 -->
<g id="node9" class="node">
<title>Node9</title>
<g id="a_node9"><a xlink:title=" ">
<polygon fill="white" stroke="#666666" points="352,-352 197,-352 197,-333 352,-333 352,-352"/>
<text text-anchor="middle" x="274.5" y="-340" font-family="Courier,monospace" font-size="10.00">libMesh::ParallelObject</text>
</a>
</g>
</g>
<!-- Node9&#45;&gt;Node4 -->
<g id="edge8" class="edge">
<title>Node9&#45;&gt;Node4</title>
<path fill="none" stroke="#63b8ff" d="M344.17,-354.43C378.28,-360.35 418.33,-367.31 447.58,-372.39"/>
<polygon fill="#63b8ff" stroke="#63b8ff" points="344.8,-350.99 334.35,-352.72 343.6,-357.88 344.8,-350.99"/>
</g>
<!-- Node10 -->
<g id="node10" class="node">
<title>Node10</title>
<g id="a_node10"><a xlink:href="classDataFileInterface.html" target="_top" xlink:title=" ">
<polygon fill="white" stroke="#666666" points="337,-314.5 212,-314.5 212,-284.5 337,-284.5 337,-314.5"/>
<text text-anchor="start" x="220" y="-302.5" font-family="Courier,monospace" font-size="10.00">DataFileInterface&lt;</text>
<text text-anchor="middle" x="274.5" y="-291.5" font-family="Courier,monospace" font-size="10.00"> MooseObject &gt;</text>
</a>
</g>
</g>
<!-- Node10&#45;&gt;Node4 -->
<g id="edge9" class="edge">
<title>Node10&#45;&gt;Node4</title>
<path fill="none" stroke="#63b8ff" d="M347.62,-315.49C353.32,-317.82 358.86,-320.47 364,-323.5 383.77,-335.14 379.92,-349.39 400,-360.5 414.44,-368.49 431.92,-373.12 447.52,-375.8"/>
<polygon fill="#63b8ff" stroke="#63b8ff" points="349.23,-312.35 338.64,-312.17 346.8,-318.92 349.23,-312.35"/>
</g>
<!-- Node11 -->
<g id="node11" class="node">
<title>Node11</title>
<g id="a_node11"><a xlink:href="classBlockRestrictable.html" target="_top" xlink:title="An interface that restricts an object to subdomains via the &#39;blocks&#39; input parameter.">
<polygon fill="white" stroke="#666666" points="549,-352 430,-352 430,-333 549,-333 549,-352"/>
<text text-anchor="middle" x="489.5" y="-340" font-family="Courier,monospace" font-size="10.00">BlockRestrictable</text>
</a>
</g>
</g>
<!-- Node11&#45;&gt;Node3 -->
<g id="edge10" class="edge">
<title>Node11&#45;&gt;Node3</title>
<path fill="none" stroke="#63b8ff" d="M559.96,-332.46C566.65,-330.07 573.12,-327.13 579,-323.5 628.84,-292.73 664.97,-229.08 677.59,-204.5"/>
<polygon fill="#63b8ff" stroke="#63b8ff" points="559.29,-329 550.78,-335.32 561.37,-335.69 559.29,-329"/>
</g>
<!-- Node12 -->
<g id="node12" class="node">
<title>Node12</title>
<g id="a_node12"><a xlink:href="classCoupleable.html" target="_top" xlink:title="Interface for objects that needs coupling capabilities.">
<polygon fill="white" stroke="#666666" points="528,-315 451,-315 451,-296 528,-296 528,-315"/>
<text text-anchor="middle" x="489.5" y="-303" font-family="Courier,monospace" font-size="10.00">Coupleable</text>
</a>
</g>
</g>
<!-- Node12&#45;&gt;Node3 -->
<g id="edge11" class="edge">
<title>Node12&#45;&gt;Node3</title>
<path fill="none" stroke="#63b8ff" d="M539.11,-299.72C552.51,-296.9 566.73,-292.72 579,-286.5 620.6,-265.42 658.59,-223.45 674.55,-204.36"/>
<polygon fill="#63b8ff" stroke="#63b8ff" points="538.77,-296.22 529.59,-301.5 540.06,-303.1 538.77,-296.22"/>
</g>
<!-- Node13 -->
<g id="node13" class="node">
<title>Node13</title>
<g id="a_node13"><a xlink:href="classMaterialPropertyInterface.html" target="_top" xlink:title="An interface for accessing Materials.">
<polygon fill="white" stroke="#666666" points="573,-278 406,-278 406,-259 573,-259 573,-278"/>
<text text-anchor="middle" x="489.5" y="-266" font-family="Courier,monospace" font-size="10.00">MaterialPropertyInterface</text>
</a>
</g>
</g>
<!-- Node13&#45;&gt;Node3 -->
<g id="edge12" class="edge">
<title>Node13&#45;&gt;Node3</title>
<path fill="none" stroke="#63b8ff" d="M559.02,-255.78C565.84,-253.92 572.61,-251.83 579,-249.5 612.07,-237.43 647.71,-216.56 667.34,-204.29"/>
<polygon fill="#63b8ff" stroke="#63b8ff" points="558.58,-252.28 549.75,-258.14 560.31,-259.06 558.58,-252.28"/>
</g>
<!-- Node14 -->
<g id="node14" class="node">
<title>Node14</title>
<g id="a_node14"><a xlink:href="classFunctionInterface.html" target="_top" xlink:title="Interface for objects that need to use functions.">
<polygon fill="white" stroke="#666666" points="549,-241 430,-241 430,-222 549,-222 549,-241"/>
<text text-anchor="middle" x="489.5" y="-229" font-family="Courier,monospace" font-size="10.00">FunctionInterface</text>
</a>
</g>
</g>
<!-- Node14&#45;&gt;Node3 -->
<g id="edge13" class="edge">
<title>Node14&#45;&gt;Node3</title>
<path fill="none" stroke="#63b8ff" d="M553.43,-219.37C578.46,-214.55 606.9,-209.07 630.7,-204.48"/>
<polygon fill="#63b8ff" stroke="#63b8ff" points="552.85,-215.92 543.69,-221.25 554.17,-222.79 552.85,-215.92"/>
</g>
<!-- Node15 -->
<g id="node15" class="node">
<title>Node15</title>
<g id="a_node15"><a xlink:href="classUserObjectInterface.html" target="_top" xlink:title="Interface for objects that need to use UserObjects.">
<polygon fill="white" stroke="#666666" points="555,-204 424,-204 424,-185 555,-185 555,-204"/>
<text text-anchor="middle" x="489.5" y="-192" font-family="Courier,monospace" font-size="10.00">UserObjectInterface</text>
</a>
</g>
</g>
<!-- Node15&#45;&gt;Node3 -->
<g id="edge14" class="edge">
<title>Node15&#45;&gt;Node3</title>
<path fill="none" stroke="#63b8ff" d="M566.65,-194.5C582.54,-194.5 599.2,-194.5 614.77,-194.5"/>
<polygon fill="#63b8ff" stroke="#63b8ff" points="566.75,-191 556.75,-194.5 566.75,-198 566.75,-191"/>
</g>
<!-- Node16 -->
<g id="node16" class="node">
<title>Node16</title>
<g id="a_node16"><a xlink:href="classPostprocessorInterface.html" target="_top" xlink:title="Interface class for classes which interact with Postprocessors.">
<polygon fill="white" stroke="#666666" points="564,-167 415,-167 415,-148 564,-148 564,-167"/>
<text text-anchor="middle" x="489.5" y="-155" font-family="Courier,monospace" font-size="10.00">PostprocessorInterface</text>
</a>
</g>
</g>
<!-- Node16&#45;&gt;Node3 -->
<g id="edge15" class="edge">
<title>Node16&#45;&gt;Node3</title>
<path fill="none" stroke="#63b8ff" d="M553.43,-169.63C578.46,-174.45 606.9,-179.93 630.7,-184.52"/>
<polygon fill="#63b8ff" stroke="#63b8ff" points="554.17,-166.21 543.69,-167.75 552.85,-173.08 554.17,-166.21"/>
</g>
<!-- Node17 -->
<g id="node17" class="node">
<title>Node17</title>
<g id="a_node17"><a xlink:href="classBoundaryRestrictable.html" target="_top" xlink:title="/class BoundaryRestrictable /brief Provides functionality for limiting the object to certain boundary...">
<polygon fill="white" stroke="#666666" points="558,-130 421,-130 421,-111 558,-111 558,-130"/>
<text text-anchor="middle" x="489.5" y="-118" font-family="Courier,monospace" font-size="10.00">BoundaryRestrictable</text>
</a>
</g>
</g>
<!-- Node17&#45;&gt;Node3 -->
<g id="edge16" class="edge">
<title>Node17&#45;&gt;Node3</title>
<path fill="none" stroke="#63b8ff" d="M562.51,-133.27C568.15,-134.84 573.7,-136.58 579,-138.5 612.41,-150.63 648.22,-172.14 667.73,-184.68"/>
<polygon fill="#63b8ff" stroke="#63b8ff" points="563.64,-129.95 553.08,-130.84 561.89,-136.73 563.64,-129.95"/>
</g>
<!-- Node18 -->
<g id="node18" class="node">
<title>Node18</title>
<g id="a_node18"><a xlink:href="classDependencyResolverInterface.html" target="_top" xlink:title="Interface for sorting dependent vectors of objects.">
<polygon fill="white" stroke="#666666" points="579,-93 400,-93 400,-74 579,-74 579,-93"/>
<text text-anchor="middle" x="489.5" y="-81" font-family="Courier,monospace" font-size="10.00">DependencyResolverInterface</text>
</a>
</g>
</g>
<!-- Node18&#45;&gt;Node3 -->
<g id="edge17" class="edge">
<title>Node18&#45;&gt;Node3</title>
<path fill="none" stroke="#63b8ff" d="M569.3,-97.19C572.63,-98.5 575.88,-99.93 579,-101.5 621.08,-122.68 659.1,-165.55 674.84,-184.78"/>
<polygon fill="#63b8ff" stroke="#63b8ff" points="570.47,-93.89 559.88,-93.92 568.18,-100.5 570.47,-93.89"/>
</g>
<!-- Node19 -->
<g id="node19" class="node">
<title>Node19</title>
<g id="a_node19"><a xlink:href="classRestartable.html" target="_top" xlink:title="A class for creating restricted objects.">
<polygon fill="white" stroke="#666666" points="531,-56 448,-56 448,-37 531,-37 531,-56"/>
<text text-anchor="middle" x="489.5" y="-44" font-family="Courier,monospace" font-size="10.00">Restartable</text>
</a>
</g>
</g>
<!-- Node19&#45;&gt;Node3 -->
<g id="edge18" class="edge">
<title>Node19&#45;&gt;Node3</title>
<path fill="none" stroke="#63b8ff" d="M542.77,-50.92C555.28,-53.61 568.15,-57.85 579,-64.5 629.43,-95.39 665.46,-160.17 677.82,-184.76"/>
<polygon fill="#63b8ff" stroke="#63b8ff" points="543.4,-47.48 532.94,-49.13 542.15,-54.36 543.4,-47.48"/>
</g>
<!-- Node20 -->
<g id="node20" class="node">
<title>Node20</title>
<g id="a_node20"><a xlink:href="classElementIDInterface.html" target="_top" xlink:title=" ">
<polygon fill="white" stroke="#666666" points="552,-19 427,-19 427,0 552,0 552,-19"/>
<text text-anchor="middle" x="489.5" y="-7" font-family="Courier,monospace" font-size="10.00">ElementIDInterface</text>
</a>
</g>
</g>
<!-- Node20&#45;&gt;Node3 -->
<g id="edge19" class="edge">
<title>Node20&#45;&gt;Node3</title>
<path fill="none" stroke="#63b8ff" d="M562.76,-18.89C568.51,-21.19 574.01,-24.03 579,-27.5 638.06,-68.63 670.07,-155.41 679.5,-184.65"/>
<polygon fill="#63b8ff" stroke="#63b8ff" points="564.22,-15.69 553.63,-15.76 561.96,-22.31 564.22,-15.69"/>
</g>
</g>
</svg>
