<?xml version="1.0" encoding="UTF-8" standalone="no"?>
<!DOCTYPE svg PUBLIC "-//W3C//DTD SVG 1.1//EN"
 "http://www.w3.org/Graphics/SVG/1.1/DTD/svg11.dtd">
<!-- Generated by graphviz version 7.0.5 (20221223.1930)
 -->
<!-- Title: MultiAppFieldTransfer Pages: 1 -->
<!--zoomable 315 -->
<svg id="main" version="1.1" xmlns="http://www.w3.org/2000/svg" xmlns:xlink="http://www.w3.org/1999/xlink" xml:space="preserve" onload="init(evt)">
<style type="text/css"><![CDATA[
.edge:hover path { stroke: red; }
.edge:hover polygon { stroke: red; fill: red; }
]]></style>
<script type="text/javascript"><![CDATA[
var edges = document.getElementsByTagName('g');
if (edges && edges.length) {
  for (var i=0;i<edges.length;i++) {
    if (edges[i].id.substr(0,4)=='edge') {
      edges[i].setAttribute('class','edge');
    }
  }
}
]]></script>
        <defs>
                <circle id="rim" cx="0" cy="0" r="7"/>
                <circle id="rim2" cx="0" cy="0" r="3.5"/>
                <g id="zoomPlus">
                        <use xlink:href="#rim" fill="#404040">
                                <set attributeName="fill" to="#808080" begin="zoomplus.mouseover" end="zoomplus.mouseout"/>
                        </use>
                        <path d="M-4,0h8M0,-4v8" fill="none" stroke="white" stroke-width="1.5" pointer-events="none"/>
                </g>
                <g id="zoomMin">
                        <use xlink:href="#rim" fill="#404040">
                                <set attributeName="fill" to="#808080" begin="zoomminus.mouseover" end="zoomminus.mouseout"/>
                        </use>
                        <path d="M-4,0h8" fill="none" stroke="white" stroke-width="1.5" pointer-events="none"/>
                </g>
                <g id="dirArrow">
                        <path fill="none" stroke="white" stroke-width="1.5" d="M0,-3.0v7 M-2.5,-0.5L0,-3.0L2.5,-0.5"/>
                </g>
               <g id="resetDef">
                       <use xlink:href="#rim2" fill="#404040">
                               <set attributeName="fill" to="#808080" begin="reset.mouseover" end="reset.mouseout"/>
                       </use>
               </g>
        </defs>

<script type="text/javascript">
var viewWidth = 1637;
var viewHeight = 315;
var sectionId = 'dynsection-0';
</script>
<script xlink:href="svgpan.js"/>
<svg id="graph" class="graph">
<g id="viewport">
<title>MultiAppFieldTransfer</title>
<!-- Node1 -->
<g id="node1" class="node">
<title>Node1</title>
<g id="a_node1"><a xlink:title="Intermediary class that allows variable names as inputs.">
<polygon fill="#999999" stroke="#666666" points="954,-74 811,-74 811,-55 954,-55 954,-74"/>
<text text-anchor="middle" x="882.5" y="-62" font-family="Courier,monospace" font-size="10.00">MultiAppFieldTransfer</text>
</a>
</g>
</g>
<!-- Node14 -->
<g id="node14" class="node">
<title>Node14</title>
<g id="a_node14"><a xlink:href="classMultiAppConservativeTransfer.html" target="_top" xlink:title="Transfers variables on possibly different meshes while conserving a user defined property (Postproces...">
<polygon fill="white" stroke="#666666" points="1175,-130 990,-130 990,-111 1175,-111 1175,-130"/>
<text text-anchor="middle" x="1082.5" y="-118" font-family="Courier,monospace" font-size="10.00">MultiAppConservativeTransfer</text>
</a>
</g>
</g>
<!-- Node1&#45;&gt;Node14 -->
<g id="edge13" class="edge">
<title>Node1&#45;&gt;Node14</title>
<path fill="none" stroke="#63b8ff" d="M929.51,-77.51C965.11,-87.58 1013.68,-101.32 1046.24,-110.53"/>
<polygon fill="#63b8ff" stroke="#63b8ff" points="930.47,-74.15 919.9,-74.79 928.57,-80.88 930.47,-74.15"/>
</g>
<!-- Node24 -->
<g id="node24" class="node">
<title>Node24</title>
<g id="a_node24"><a xlink:href="classMultiAppDofCopyTransfer.html" target="_top" xlink:title="Copy the fields directly from one application to another, based on degree&#45;of&#45;freedom indexing.">
<polygon fill="white" stroke="#666666" points="1160,-56 1005,-56 1005,-37 1160,-37 1160,-56"/>
<text text-anchor="middle" x="1082.5" y="-44" font-family="Courier,monospace" font-size="10.00">MultiAppDofCopyTransfer</text>
</a>
</g>
</g>
<!-- Node1&#45;&gt;Node24 -->
<g id="edge23" class="edge">
<title>Node1&#45;&gt;Node24</title>
<path fill="none" stroke="#63b8ff" d="M965.66,-57.03C978.58,-55.86 991.9,-54.65 1004.7,-53.48"/>
<polygon fill="#63b8ff" stroke="#63b8ff" points="965.57,-53.52 955.93,-57.92 966.21,-60.5 965.57,-53.52"/>
</g>
<!-- Node2 -->
<g id="node2" class="node">
<title>Node2</title>
<g id="a_node2"><a xlink:href="classMultiAppTransfer.html" target="_top" xlink:title="Base class for all MultiAppTransfer objects.">
<polygon fill="white" stroke="#666666" points="775,-74 662,-74 662,-55 775,-55 775,-74"/>
<text text-anchor="middle" x="718.5" y="-62" font-family="Courier,monospace" font-size="10.00">MultiAppTransfer</text>
</a>
</g>
</g>
<!-- Node2&#45;&gt;Node1 -->
<g id="edge1" class="edge">
<title>Node2&#45;&gt;Node1</title>
<path fill="none" stroke="#63b8ff" d="M786.72,-64.5C794.66,-64.5 802.78,-64.5 810.77,-64.5"/>
<polygon fill="#63b8ff" stroke="#63b8ff" points="786.76,-61 776.76,-64.5 786.76,-68 786.76,-61"/>
</g>
<!-- Node3 -->
<g id="node3" class="node">
<title>Node3</title>
<g id="a_node3"><a xlink:href="classTransfer.html" target="_top" xlink:title="Base class for all Transfer objects.">
<polygon fill="white" stroke="#666666" points="626,-74 561,-74 561,-55 626,-55 626,-74"/>
<text text-anchor="middle" x="593.5" y="-62" font-family="Courier,monospace" font-size="10.00">Transfer</text>
</a>
</g>
</g>
<!-- Node3&#45;&gt;Node2 -->
<g id="edge2" class="edge">
<title>Node3&#45;&gt;Node2</title>
<path fill="none" stroke="#63b8ff" d="M637.87,-64.5C645.62,-64.5 653.8,-64.5 661.84,-64.5"/>
<polygon fill="#63b8ff" stroke="#63b8ff" points="638.01,-61 628.01,-64.5 638.01,-68 638.01,-61"/>
</g>
<!-- Node4 -->
<g id="node4" class="node">
<title>Node4</title>
<g id="a_node4"><a xlink:href="classMooseObject.html" target="_top" xlink:title="Every object that can be built by the factory should be derived from this class.">
<polygon fill="white" stroke="#666666" points="504,-130 421,-130 421,-111 504,-111 504,-130"/>
<text text-anchor="middle" x="462.5" y="-118" font-family="Courier,monospace" font-size="10.00">MooseObject</text>
</a>
</g>
</g>
<!-- Node4&#45;&gt;Node3 -->
<g id="edge3" class="edge">
<title>Node4&#45;&gt;Node3</title>
<path fill="none" stroke="#63b8ff" d="M513.13,-107.05C517.18,-105.63 521.19,-104.11 525,-102.5 543.71,-94.62 563.84,-82.81 577.19,-74.46"/>
<polygon fill="#63b8ff" stroke="#63b8ff" points="512.2,-103.67 503.79,-110.12 514.39,-110.32 512.2,-103.67"/>
</g>
<!-- Node5 -->
<g id="node5" class="node">
<title>Node5</title>
<g id="a_node5"><a xlink:href="classMooseBase.html" target="_top" xlink:title="Base class for everything in MOOSE with a name and a type.">
<polygon fill="white" stroke="#666666" points="310,-204 239,-204 239,-185 310,-185 310,-204"/>
<text text-anchor="middle" x="274.5" y="-192" font-family="Courier,monospace" font-size="10.00">MooseBase</text>
</a>
</g>
</g>
<!-- Node5&#45;&gt;Node4 -->
<g id="edge4" class="edge">
<title>Node5&#45;&gt;Node4</title>
<path fill="none" stroke="#63b8ff" d="M321.58,-188.02C335.48,-185.3 350.59,-181.56 364,-176.5 395.78,-164.5 429.4,-142.94 447.68,-130.36"/>
<polygon fill="#63b8ff" stroke="#63b8ff" points="320.97,-184.58 311.75,-189.8 322.21,-191.47 320.97,-184.58"/>
</g>
<!-- Node6 -->
<g id="node6" class="node">
<title>Node6</title>
<g id="a_node6"><a xlink:href="classMooseBaseParameterInterface.html" target="_top" xlink:title="Every object that can be built by the factory should be derived from this class.">
<polygon fill="white" stroke="#666666" points="364,-167 185,-167 185,-148 364,-148 364,-167"/>
<text text-anchor="middle" x="274.5" y="-155" font-family="Courier,monospace" font-size="10.00">MooseBaseParameterInterface</text>
</a>
</g>
</g>
<!-- Node6&#45;&gt;Node4 -->
<g id="edge5" class="edge">
<title>Node6&#45;&gt;Node4</title>
<path fill="none" stroke="#63b8ff" d="M336.48,-145.37C364.07,-139.88 395.96,-133.54 420.62,-128.63"/>
<polygon fill="#63b8ff" stroke="#63b8ff" points="335.95,-141.91 326.83,-147.29 337.32,-148.77 335.95,-141.91"/>
</g>
<!-- Node7 -->
<g id="node7" class="node">
<title>Node7</title>
<g id="a_node7"><a xlink:href="classMooseBaseErrorInterface.html" target="_top" xlink:title="Interface that provides APIs to output errors/warnings/info messages.">
<polygon fill="white" stroke="#666666" points="352,-130 197,-130 197,-111 352,-111 352,-130"/>
<text text-anchor="middle" x="274.5" y="-118" font-family="Courier,monospace" font-size="10.00">MooseBaseErrorInterface</text>
</a>
</g>
</g>
<!-- Node7&#45;&gt;Node4 -->
<g id="edge6" class="edge">
<title>Node7&#45;&gt;Node4</title>
<path fill="none" stroke="#63b8ff" d="M363.81,-120.5C383.7,-120.5 403.87,-120.5 420.67,-120.5"/>
<polygon fill="#63b8ff" stroke="#63b8ff" points="364.01,-117 354.01,-120.5 364.01,-124 364.01,-117"/>
</g>
<!-- Node8 -->
<g id="node8" class="node">
<title>Node8</title>
<g id="a_node8"><a xlink:href="classConsoleStreamInterface.html" target="_top" xlink:title="An inteface for the _console for outputting to the Console object.">
<polygon fill="white" stroke="#666666" points="149,-130 0,-130 0,-111 149,-111 149,-130"/>
<text text-anchor="middle" x="74.5" y="-118" font-family="Courier,monospace" font-size="10.00">ConsoleStreamInterface</text>
</a>
</g>
</g>
<!-- Node8&#45;&gt;Node7 -->
<g id="edge7" class="edge">
<title>Node8&#45;&gt;Node7</title>
<path fill="none" stroke="#63b8ff" d="M160.62,-120.5C172.62,-120.5 184.9,-120.5 196.73,-120.5"/>
<polygon fill="#63b8ff" stroke="#63b8ff" points="160.74,-117 150.74,-120.5 160.74,-124 160.74,-117"/>
</g>
<!-- Node9 -->
<g id="node9" class="node">
<title>Node9</title>
<g id="a_node9"><a xlink:title=" ">
<polygon fill="white" stroke="#666666" points="352,-93 197,-93 197,-74 352,-74 352,-93"/>
<text text-anchor="middle" x="274.5" y="-81" font-family="Courier,monospace" font-size="10.00">libMesh::ParallelObject</text>
</a>
</g>
</g>
<!-- Node9&#45;&gt;Node4 -->
<g id="edge8" class="edge">
<title>Node9&#45;&gt;Node4</title>
<path fill="none" stroke="#63b8ff" d="M336.48,-95.63C364.07,-101.12 395.96,-107.46 420.62,-112.37"/>
<polygon fill="#63b8ff" stroke="#63b8ff" points="337.32,-92.23 326.83,-93.71 335.95,-99.09 337.32,-92.23"/>
</g>
<!-- Node10 -->
<g id="node10" class="node">
<title>Node10</title>
<g id="a_node10"><a xlink:href="classDataFileInterface.html" target="_top" xlink:title=" ">
<polygon fill="white" stroke="#666666" points="337,-55.5 212,-55.5 212,-25.5 337,-25.5 337,-55.5"/>
<text text-anchor="start" x="220" y="-43.5" font-family="Courier,monospace" font-size="10.00">DataFileInterface&lt;</text>
<text text-anchor="middle" x="274.5" y="-32.5" font-family="Courier,monospace" font-size="10.00"> MooseObject &gt;</text>
</a>
</g>
</g>
<!-- Node10&#45;&gt;Node4 -->
<g id="edge9" class="edge">
<title>Node10&#45;&gt;Node4</title>
<path fill="none" stroke="#63b8ff" d="M347.62,-57.35C353.32,-59.73 358.86,-62.44 364,-65.5 383.71,-77.24 380.34,-90.67 400,-102.5 406.29,-106.29 413.43,-109.32 420.55,-111.73"/>
<polygon fill="#63b8ff" stroke="#63b8ff" points="349.23,-54.22 338.64,-53.94 346.74,-60.76 349.23,-54.22"/>
</g>
<!-- Node11 -->
<g id="node11" class="node">
<title>Node11</title>
<g id="a_node11"><a xlink:href="classSetupInterface.html" target="_top" xlink:title=" ">
<polygon fill="white" stroke="#666666" points="513,-93 412,-93 412,-74 513,-74 513,-93"/>
<text text-anchor="middle" x="462.5" y="-81" font-family="Courier,monospace" font-size="10.00">SetupInterface</text>
</a>
</g>
</g>
<!-- Node11&#45;&gt;Node3 -->
<g id="edge10" class="edge">
<title>Node11&#45;&gt;Node3</title>
<path fill="none" stroke="#63b8ff" d="M524.69,-74.49C537.13,-72.66 549.73,-70.8 560.63,-69.19"/>
<polygon fill="#63b8ff" stroke="#63b8ff" points="524.26,-71.01 514.87,-75.93 525.28,-77.94 524.26,-71.01"/>
</g>
<!-- Node12 -->
<g id="node12" class="node">
<title>Node12</title>
<g id="a_node12"><a xlink:href="classRestartable.html" target="_top" xlink:title="A class for creating restricted objects.">
<polygon fill="white" stroke="#666666" points="504,-56 421,-56 421,-37 504,-37 504,-56"/>
<text text-anchor="middle" x="462.5" y="-44" font-family="Courier,monospace" font-size="10.00">Restartable</text>
</a>
</g>
</g>
<!-- Node12&#45;&gt;Node3 -->
<g id="edge11" class="edge">
<title>Node12&#45;&gt;Node3</title>
<path fill="none" stroke="#63b8ff" d="M515.68,-53.78C530.86,-55.9 546.99,-58.15 560.53,-60.04"/>
<polygon fill="#63b8ff" stroke="#63b8ff" points="516.2,-50.32 505.82,-52.4 515.24,-57.25 516.2,-50.32"/>
</g>
<!-- Node13 -->
<g id="node13" class="node">
<title>Node13</title>
<g id="a_node13"><a xlink:href="classPerfGraphInterface.html" target="_top" xlink:title="Interface for objects interacting with the PerfGraph.">
<polygon fill="white" stroke="#666666" points="525,-19 400,-19 400,0 525,0 525,-19"/>
<text text-anchor="middle" x="462.5" y="-7" font-family="Courier,monospace" font-size="10.00">PerfGraphInterface</text>
</a>
</g>
</g>
<!-- Node13&#45;&gt;Node3 -->
<g id="edge12" class="edge">
<title>Node13&#45;&gt;Node3</title>
<path fill="none" stroke="#63b8ff" d="M510.48,-22.99C515.43,-24.72 520.35,-26.56 525,-28.5 543.02,-36.01 562.6,-46.76 576.01,-54.56"/>
<polygon fill="#63b8ff" stroke="#63b8ff" points="511.71,-19.71 501.12,-19.9 509.51,-26.36 511.71,-19.71"/>
</g>
<!-- Node15 -->
<g id="node15" class="node">
<title>Node15</title>
<g id="a_node15"><a xlink:href="classMultiAppGeneralFieldTransfer.html" target="_top" xlink:title="It is a general field transfer.">
<polygon fill="white" stroke="#666666" points="1405,-253 1220,-253 1220,-234 1405,-234 1405,-253"/>
<text text-anchor="middle" x="1312.5" y="-241" font-family="Courier,monospace" font-size="10.00">MultiAppGeneralFieldTransfer</text>
</a>
</g>
</g>
<!-- Node14&#45;&gt;Node15 -->
<g id="edge14" class="edge">
<title>Node14&#45;&gt;Node15</title>
<path fill="none" stroke="#63b8ff" d="M1099.88,-138.58C1122.46,-162.29 1165.53,-203.34 1211,-224.5 1218.89,-228.17 1227.44,-231.13 1236.11,-233.52"/>
<polygon fill="#63b8ff" stroke="#63b8ff" points="1102.68,-136.45 1093.3,-131.53 1097.57,-141.23 1102.68,-136.45"/>
</g>
<!-- Node19 -->
<g id="node19" class="node">
<title>Node19</title>
<g id="a_node19"><a xlink:href="classMultiAppGeometricInterpolationTransfer.html" target="_top" xlink:title="Interpolate variable values using geometry/mesh&#45;based coefficients.">
<polygon fill="white" stroke="#666666" points="1411,-215.5 1214,-215.5 1214,-185.5 1411,-185.5 1411,-215.5"/>
<text text-anchor="start" x="1222" y="-203.5" font-family="Courier,monospace" font-size="10.00">MultiAppGeometricInterpolation</text>
<text text-anchor="middle" x="1312.5" y="-192.5" font-family="Courier,monospace" font-size="10.00">Transfer</text>
</a>
</g>
</g>
<!-- Node14&#45;&gt;Node19 -->
<g id="edge18" class="edge">
<title>Node14&#45;&gt;Node19</title>
<path fill="none" stroke="#63b8ff" d="M1113.04,-135.29C1138.51,-147.59 1176.51,-164.91 1211,-176.5 1220.18,-179.59 1229.96,-182.44 1239.68,-185.02"/>
<polygon fill="#63b8ff" stroke="#63b8ff" points="1114.82,-132.26 1104.3,-131.02 1111.75,-138.55 1114.82,-132.26"/>
</g>
<!-- Node20 -->
<g id="node20" class="node">
<title>Node20</title>
<g id="a_node20"><a xlink:href="classMultiAppNearestNodeTransfer.html" target="_top" xlink:title="Copy the value to the target domain from the nearest node in the source domain.">
<polygon fill="white" stroke="#666666" points="1402,-167 1223,-167 1223,-148 1402,-148 1402,-167"/>
<text text-anchor="middle" x="1312.5" y="-155" font-family="Courier,monospace" font-size="10.00">MultiAppNearestNodeTransfer</text>
</a>
</g>
</g>
<!-- Node14&#45;&gt;Node20 -->
<g id="edge19" class="edge">
<title>Node14&#45;&gt;Node20</title>
<path fill="none" stroke="#63b8ff" d="M1156.23,-132.3C1186.43,-137.2 1221.09,-142.83 1249.99,-147.52"/>
<polygon fill="#63b8ff" stroke="#63b8ff" points="1156.83,-128.85 1146.39,-130.71 1155.7,-135.76 1156.83,-128.85"/>
</g>
<!-- Node21 -->
<g id="node21" class="node">
<title>Node21</title>
<g id="a_node21"><a xlink:href="classMultiAppProjectionTransfer.html" target="_top" xlink:title="Project values from one domain to another.">
<polygon fill="white" stroke="#666666" points="1399,-130 1226,-130 1226,-111 1399,-111 1399,-130"/>
<text text-anchor="middle" x="1312.5" y="-118" font-family="Courier,monospace" font-size="10.00">MultiAppProjectionTransfer</text>
</a>
</g>
</g>
<!-- Node14&#45;&gt;Node21 -->
<g id="edge20" class="edge">
<title>Node14&#45;&gt;Node21</title>
<path fill="none" stroke="#63b8ff" d="M1186.69,-120.5C1199.78,-120.5 1213.07,-120.5 1225.84,-120.5"/>
<polygon fill="#63b8ff" stroke="#63b8ff" points="1186.76,-117 1176.76,-120.5 1186.76,-124 1186.76,-117"/>
</g>
<!-- Node22 -->
<g id="node22" class="node">
<title>Node22</title>
<g id="a_node22"><a xlink:href="classMultiAppShapeEvaluationTransfer.html" target="_top" xlink:title="Transfers a vector of variables.">
<polygon fill="white" stroke="#666666" points="1414,-93 1211,-93 1211,-74 1414,-74 1414,-93"/>
<text text-anchor="middle" x="1312.5" y="-81" font-family="Courier,monospace" font-size="10.00">MultiAppShapeEvaluationTransfer</text>
</a>
</g>
</g>
<!-- Node14&#45;&gt;Node22 -->
<g id="edge21" class="edge">
<title>Node14&#45;&gt;Node22</title>
<path fill="none" stroke="#63b8ff" d="M1156.23,-108.7C1186.43,-103.8 1221.09,-98.17 1249.99,-93.48"/>
<polygon fill="#63b8ff" stroke="#63b8ff" points="1155.7,-105.24 1146.39,-110.29 1156.83,-112.15 1155.7,-105.24"/>
</g>
<!-- Node23 -->
<g id="node23" class="node">
<title>Node23</title>
<g id="a_node23"><a xlink:href="classMultiAppUserObjectTransfer.html" target="_top" xlink:title="Loops over a target mesh and uses either node or element centroid location (based on the target varia...">
<polygon fill="white" stroke="#666666" points="1399,-56 1226,-56 1226,-37 1399,-37 1399,-56"/>
<text text-anchor="middle" x="1312.5" y="-44" font-family="Courier,monospace" font-size="10.00">MultiAppUserObjectTransfer</text>
</a>
</g>
</g>
<!-- Node14&#45;&gt;Node23 -->
<g id="edge22" class="edge">
<title>Node14&#45;&gt;Node23</title>
<path fill="none" stroke="#63b8ff" d="M1112.94,-105.59C1138.34,-93.26 1176.31,-76.12 1211,-65.5 1222.55,-61.97 1235.05,-58.97 1247.19,-56.47"/>
<polygon fill="#63b8ff" stroke="#63b8ff" points="1111.65,-102.32 1104.23,-109.87 1114.74,-108.6 1111.65,-102.32"/>
</g>
<!-- Node16 -->
<g id="node16" class="node">
<title>Node16</title>
<g id="a_node16"><a xlink:href="classMultiAppGeneralFieldNearestLocationTransfer.html" target="_top" xlink:title="Performs a geometric interpolation based on the values at the nearest nodes to a target location in t...">
<polygon fill="white" stroke="#666666" points="1629,-306.5 1450,-306.5 1450,-276.5 1629,-276.5 1629,-306.5"/>
<text text-anchor="start" x="1458" y="-294.5" font-family="Courier,monospace" font-size="10.00">MultiAppGeneralFieldNearest</text>
<text text-anchor="middle" x="1539.5" y="-283.5" font-family="Courier,monospace" font-size="10.00">LocationTransfer</text>
</a>
</g>
</g>
<!-- Node15&#45;&gt;Node16 -->
<g id="edge15" class="edge">
<title>Node15&#45;&gt;Node16</title>
<path fill="none" stroke="#63b8ff" d="M1371.28,-255.83C1400.21,-262 1435.53,-269.53 1466.24,-276.08"/>
<polygon fill="#63b8ff" stroke="#63b8ff" points="1372.11,-252.42 1361.6,-253.76 1370.65,-259.27 1372.11,-252.42"/>
</g>
<!-- Node17 -->
<g id="node17" class="node">
<title>Node17</title>
<g id="a_node17"><a xlink:href="classMultiAppGeneralFieldShapeEvaluationTransfer.html" target="_top" xlink:title="Evaluates origin shape functions to compute the target variables.">
<polygon fill="white" stroke="#666666" points="1623,-258.5 1456,-258.5 1456,-228.5 1623,-228.5 1623,-258.5"/>
<text text-anchor="start" x="1464" y="-246.5" font-family="Courier,monospace" font-size="10.00">MultiAppGeneralFieldShape</text>
<text text-anchor="middle" x="1539.5" y="-235.5" font-family="Courier,monospace" font-size="10.00">EvaluationTransfer</text>
</a>
</g>
</g>
<!-- Node15&#45;&gt;Node17 -->
<g id="edge16" class="edge">
<title>Node15&#45;&gt;Node17</title>
<path fill="none" stroke="#63b8ff" d="M1416.73,-243.5C1429.77,-243.5 1442.97,-243.5 1455.63,-243.5"/>
<polygon fill="#63b8ff" stroke="#63b8ff" points="1416.85,-240 1406.85,-243.5 1416.85,-247 1416.85,-240"/>
</g>
<!-- Node18 -->
<g id="node18" class="node">
<title>Node18</title>
<g id="a_node18"><a xlink:href="classMultiAppGeneralFieldUserObjectTransfer.html" target="_top" xlink:title="Transfers values computed in the origin mesh by the source user object spatialValue() routine at loca...">
<polygon fill="white" stroke="#666666" points="1620,-210.5 1459,-210.5 1459,-180.5 1620,-180.5 1620,-210.5"/>
<text text-anchor="start" x="1467" y="-198.5" font-family="Courier,monospace" font-size="10.00">MultiAppGeneralFieldUser</text>
<text text-anchor="middle" x="1539.5" y="-187.5" font-family="Courier,monospace" font-size="10.00">ObjectTransfer</text>
</a>
</g>
</g>
<!-- Node15&#45;&gt;Node18 -->
<g id="edge17" class="edge">
<title>Node15&#45;&gt;Node18</title>
<path fill="none" stroke="#63b8ff" d="M1379.87,-231.36C1391.27,-229.16 1402.99,-226.82 1414,-224.5 1433.65,-220.36 1454.97,-215.52 1474.32,-210.99"/>
<polygon fill="#63b8ff" stroke="#63b8ff" points="1379.26,-227.91 1370.1,-233.23 1380.58,-234.79 1379.26,-227.91"/>
</g>
<!-- Node25 -->
<g id="node25" class="node">
<title>Node25</title>
<g id="a_node25"><a xlink:href="classMultiAppCopyTransfer.html" target="_top" xlink:title="Copy variables directly from one application to another, based on degree&#45;of&#45;freedom indexing TODO: Re...">
<polygon fill="white" stroke="#666666" points="1381,-19 1244,-19 1244,0 1381,0 1381,-19"/>
<text text-anchor="middle" x="1312.5" y="-7" font-family="Courier,monospace" font-size="10.00">MultiAppCopyTransfer</text>
</a>
</g>
</g>
<!-- Node24&#45;&gt;Node25 -->
<g id="edge24" class="edge">
<title>Node24&#45;&gt;Node25</title>
<path fill="none" stroke="#63b8ff" d="M1156.23,-34.7C1186.43,-29.8 1221.09,-24.17 1249.99,-19.48"/>
<polygon fill="#63b8ff" stroke="#63b8ff" points="1155.7,-31.24 1146.39,-36.29 1156.83,-38.15 1155.7,-31.24"/>
</g>
</g>
</svg>
        <g id="navigator" transform="translate(0 0)" fill="#404254">
                <rect fill="#f2f5e9" fill-opacity="0.5" stroke="#606060" stroke-width=".5" x="0" y="0" width="60" height="60"/>
                <use id="zoomplus" xlink:href="#zoomPlus" x="17" y="9" onmousedown="handleZoom(evt,'in')"/>
                <use id="zoomminus" xlink:href="#zoomMin" x="42" y="9" onmousedown="handleZoom(evt,'out')"/>
                <use id="reset" xlink:href="#resetDef" x="30" y="36" onmousedown="handleReset()"/>
                <g id="arrowUp" xlink:href="#dirArrow" transform="translate(30 24)" onmousedown="handlePan(0,-1)">
                  <use xlink:href="#rim" fill="#404040">
                        <set attributeName="fill" to="#808080" begin="arrowUp.mouseover" end="arrowUp.mouseout"/>
                  </use>
                  <path fill="none" stroke="white" stroke-width="1.5" d="M0,-3.0v7 M-2.5,-0.5L0,-3.0L2.5,-0.5"/>
                </g>
                <g id="arrowRight" xlink:href="#dirArrow" transform="rotate(90) translate(36 -43)" onmousedown="handlePan(1,0)">
                  <use xlink:href="#rim" fill="#404040">
                        <set attributeName="fill" to="#808080" begin="arrowRight.mouseover" end="arrowRight.mouseout"/>
                  </use>
                  <path fill="none" stroke="white" stroke-width="1.5" d="M0,-3.0v7 M-2.5,-0.5L0,-3.0L2.5,-0.5"/>
                </g>
                <g id="arrowDown" xlink:href="#dirArrow" transform="rotate(180) translate(-30 -48)" onmousedown="handlePan(0,1)">
                  <use xlink:href="#rim" fill="#404040">
                        <set attributeName="fill" to="#808080" begin="arrowDown.mouseover" end="arrowDown.mouseout"/>
                  </use>
                  <path fill="none" stroke="white" stroke-width="1.5" d="M0,-3.0v7 M-2.5,-0.5L0,-3.0L2.5,-0.5"/>
                </g>
                <g id="arrowLeft" xlink:href="#dirArrow" transform="rotate(270) translate(-36 17)" onmousedown="handlePan(-1,0)">
                  <use xlink:href="#rim" fill="#404040">
                        <set attributeName="fill" to="#808080" begin="arrowLeft.mouseover" end="arrowLeft.mouseout"/>
                  </use>
                  <path fill="none" stroke="white" stroke-width="1.5" d="M0,-3.0v7 M-2.5,-0.5L0,-3.0L2.5,-0.5"/>
                </g>
        </g>
        <svg viewBox="0 0 15 15" width="100%" height="30px" preserveAspectRatio="xMaxYMin meet">
         <g id="arrow_out" transform="scale(0.3 0.3)">
          <a xlink:href="classMultiAppFieldTransfer__inherit__graph_org.svg" target="_base">
           <rect id="button" ry="5" rx="5" y="6" x="6" height="38" width="38"
                fill="#f2f5e9" fill-opacity="0.5" stroke="#606060" stroke-width="1.0"/>
           <path id="arrow"
             d="M 11.500037,31.436501 C 11.940474,20.09759 22.043105,11.32322 32.158766,21.979434 L 37.068811,17.246167 C 37.068811,17.246167 37.088388,32 37.088388,32 L 22.160133,31.978069 C 22.160133,31.978069 26.997745,27.140456 26.997745,27.140456 C 18.528582,18.264221 13.291696,25.230495 11.500037,31.436501 z"
             style="fill:#404040;"/>
          </a>
         </g>
        </svg>
</svg>
