<?xml version="1.0" encoding="UTF-8" standalone="no"?>
<!DOCTYPE svg PUBLIC "-//W3C//DTD SVG 1.1//EN"
 "http://www.w3.org/Graphics/SVG/1.1/DTD/svg11.dtd">
<!-- Generated by graphviz version 7.0.5 (20221223.1930)
 -->
<!-- Title: DumpObjectsNonlinearSystem Pages: 1 -->
<svg width="352pt" height="192pt"
 viewBox="0.00 0.00 352.00 192.00" xmlns="http://www.w3.org/2000/svg" xmlns:xlink="http://www.w3.org/1999/xlink">
<g id="graph0" class="graph" transform="scale(1 1) rotate(0) translate(4 188)">
<title>DumpObjectsNonlinearSystem</title>
<!-- Node1 -->
<g id="node1" class="node">
<title>Node1</title>
<g id="a_node1"><a xlink:title="Nonlinear system for dumping objects.">
<polygon fill="#999999" stroke="#666666" points="308,-19 135,-19 135,0 308,0 308,-19"/>
<text text-anchor="middle" x="221.5" y="-7" font-family="Courier,monospace" font-size="10.00">DumpObjectsNonlinearSystem</text>
</a>
</g>
</g>
<!-- Node2 -->
<g id="node2" class="node">
<title>Node2</title>
<g id="a_node2"><a xlink:href="classNonlinearSystemBase.html" target="_top" xlink:title="Nonlinear system to be solved.">
<polygon fill="white" stroke="#666666" points="287,-74 156,-74 156,-55 287,-55 287,-74"/>
<text text-anchor="middle" x="221.5" y="-62" font-family="Courier,monospace" font-size="10.00">NonlinearSystemBase</text>
</a>
</g>
</g>
<!-- Node2&#45;&gt;Node1 -->
<g id="edge1" class="edge">
<title>Node2&#45;&gt;Node1</title>
<path fill="none" stroke="#63b8ff" d="M221.5,-43.35C221.5,-35.1 221.5,-25.97 221.5,-19.44"/>
<polygon fill="#63b8ff" stroke="#63b8ff" points="218,-43.23 221.5,-53.23 225,-43.23 218,-43.23"/>
</g>
<!-- Node3 -->
<g id="node3" class="node">
<title>Node3</title>
<g id="a_node3"><a xlink:href="classSystemBase.html" target="_top" xlink:title="Base class for a system (of equations)">
<polygon fill="white" stroke="#666666" points="201,-129 124,-129 124,-110 201,-110 201,-129"/>
<text text-anchor="middle" x="162.5" y="-117" font-family="Courier,monospace" font-size="10.00">SystemBase</text>
</a>
</g>
</g>
<!-- Node3&#45;&gt;Node2 -->
<g id="edge2" class="edge">
<title>Node3&#45;&gt;Node2</title>
<path fill="none" stroke="#63b8ff" d="M180.77,-102.09C190.96,-92.94 203.24,-81.9 211.64,-74.36"/>
<polygon fill="#63b8ff" stroke="#63b8ff" points="178.73,-99.21 173.63,-108.5 183.41,-104.42 178.73,-99.21"/>
</g>
<!-- Node4 -->
<g id="node4" class="node">
<title>Node4</title>
<g id="a_node4"><a xlink:title=" ">
<polygon fill="white" stroke="#666666" points="155,-184 0,-184 0,-165 155,-165 155,-184"/>
<text text-anchor="middle" x="77.5" y="-172" font-family="Courier,monospace" font-size="10.00">libMesh::ParallelObject</text>
</a>
</g>
</g>
<!-- Node4&#45;&gt;Node3 -->
<g id="edge3" class="edge">
<title>Node4&#45;&gt;Node3</title>
<path fill="none" stroke="#63b8ff" d="M101.62,-158.46C116.69,-149.06 135.59,-137.28 148.29,-129.36"/>
<polygon fill="#63b8ff" stroke="#63b8ff" points="99.84,-155.45 93.2,-163.71 103.54,-161.39 99.84,-155.45"/>
</g>
<!-- Node5 -->
<g id="node5" class="node">
<title>Node5</title>
<g id="a_node5"><a xlink:href="classConsoleStreamInterface.html" target="_top" xlink:title="An inteface for the _console for outputting to the Console object.">
<polygon fill="white" stroke="#666666" points="322,-184 173,-184 173,-165 322,-165 322,-184"/>
<text text-anchor="middle" x="247.5" y="-172" font-family="Courier,monospace" font-size="10.00">ConsoleStreamInterface</text>
</a>
</g>
</g>
<!-- Node5&#45;&gt;Node3 -->
<g id="edge4" class="edge">
<title>Node5&#45;&gt;Node3</title>
<path fill="none" stroke="#63b8ff" d="M223.38,-158.46C208.31,-149.06 189.41,-137.28 176.71,-129.36"/>
<polygon fill="#63b8ff" stroke="#63b8ff" points="221.46,-161.39 231.8,-163.71 225.16,-155.45 221.46,-161.39"/>
</g>
<!-- Node6 -->
<g id="node6" class="node">
<title>Node6</title>
<g id="a_node6"><a xlink:href="classPerfGraphInterface.html" target="_top" xlink:title="Interface for objects interacting with the PerfGraph.">
<polygon fill="white" stroke="#666666" points="344,-129 219,-129 219,-110 344,-110 344,-129"/>
<text text-anchor="middle" x="281.5" y="-117" font-family="Courier,monospace" font-size="10.00">PerfGraphInterface</text>
</a>
</g>
</g>
<!-- Node6&#45;&gt;Node2 -->
<g id="edge5" class="edge">
<title>Node6&#45;&gt;Node2</title>
<path fill="none" stroke="#63b8ff" d="M262.92,-102.09C252.56,-92.94 240.07,-81.9 231.53,-74.36"/>
<polygon fill="#63b8ff" stroke="#63b8ff" points="260.38,-104.51 270.19,-108.51 265.01,-99.26 260.38,-104.51"/>
</g>
</g>
</svg>
