<?xml version="1.0" encoding="UTF-8" standalone="no"?>
<!DOCTYPE svg PUBLIC "-//W3C//DTD SVG 1.1//EN"
 "http://www.w3.org/Graphics/SVG/1.1/DTD/svg11.dtd">
<!-- Generated by graphviz version 7.0.5 (20221223.1930)
 -->
<!-- Title: ReporterName Pages: 1 -->
<svg width="396pt" height="82pt"
 viewBox="0.00 0.00 396.00 82.00" xmlns="http://www.w3.org/2000/svg" xmlns:xlink="http://www.w3.org/1999/xlink">
<g id="graph0" class="graph" transform="scale(1 1) rotate(0) translate(4 78)">
<title>ReporterName</title>
<!-- Node1 -->
<g id="node1" class="node">
<title>Node1</title>
<g id="a_node1"><a xlink:title="The Reporter system is comprised of objects that can contain any number of data values.">
<polygon fill="#999999" stroke="#666666" points="229,-74 140,-74 140,-55 229,-55 229,-74"/>
<text text-anchor="middle" x="184.5" y="-62" font-family="Courier,monospace" font-size="10.00">ReporterName</text>
</a>
</g>
</g>
<!-- Node2 -->
<g id="node2" class="node">
<title>Node2</title>
<g id="a_node2"><a xlink:href="classPostprocessorReporterName.html" target="_top" xlink:title="A ReporterName that represents a Postprocessor.">
<polygon fill="white" stroke="#666666" points="167,-19 0,-19 0,0 167,0 167,-19"/>
<text text-anchor="middle" x="83.5" y="-7" font-family="Courier,monospace" font-size="10.00">PostprocessorReporterName</text>
</a>
</g>
</g>
<!-- Node1&#45;&gt;Node2 -->
<g id="edge1" class="edge">
<title>Node1&#45;&gt;Node2</title>
<path fill="none" stroke="#63b8ff" d="M157.38,-49.27C139.23,-39.74 115.92,-27.51 100.38,-19.36"/>
<polygon fill="#63b8ff" stroke="#63b8ff" points="155.55,-52.26 166.03,-53.81 158.8,-46.06 155.55,-52.26"/>
</g>
<!-- Node3 -->
<g id="node3" class="node">
<title>Node3</title>
<g id="a_node3"><a xlink:href="classVectorPostprocessorReporterName.html" target="_top" xlink:title="A ReporterName that represents a VectorPostprocessor.">
<polygon fill="white" stroke="#666666" points="388,-19 185,-19 185,0 388,0 388,-19"/>
<text text-anchor="middle" x="286.5" y="-7" font-family="Courier,monospace" font-size="10.00">VectorPostprocessorReporterName</text>
</a>
</g>
</g>
<!-- Node1&#45;&gt;Node3 -->
<g id="edge2" class="edge">
<title>Node1&#45;&gt;Node3</title>
<path fill="none" stroke="#63b8ff" d="M211.89,-49.27C230.22,-39.74 253.76,-27.51 269.45,-19.36"/>
<polygon fill="#63b8ff" stroke="#63b8ff" points="210.41,-46.09 203.15,-53.81 213.63,-52.31 210.41,-46.09"/>
</g>
</g>
</svg>
