<?xml version="1.0" encoding="UTF-8" standalone="no"?>
<!DOCTYPE svg PUBLIC "-//W3C//DTD SVG 1.1//EN"
 "http://www.w3.org/Graphics/SVG/1.1/DTD/svg11.dtd">
<!-- Generated by graphviz version 7.0.5 (20221223.1930)
 -->
<!-- Title: MooseEnumBase Pages: 1 -->
<svg width="252pt" height="137pt"
 viewBox="0.00 0.00 252.00 137.00" xmlns="http://www.w3.org/2000/svg" xmlns:xlink="http://www.w3.org/1999/xlink">
<g id="graph0" class="graph" transform="scale(1 1) rotate(0) translate(4 133)">
<title>MooseEnumBase</title>
<!-- Node1 -->
<g id="node1" class="node">
<title>Node1</title>
<g id="a_node1"><a xlink:title="The base class for both the MooseEnum and MultiMooseEnum classes.">
<polygon fill="#999999" stroke="#666666" points="181,-129 86,-129 86,-110 181,-110 181,-129"/>
<text text-anchor="middle" x="133.5" y="-117" font-family="Courier,monospace" font-size="10.00">MooseEnumBase</text>
</a>
</g>
</g>
<!-- Node2 -->
<g id="node2" class="node">
<title>Node2</title>
<g id="a_node2"><a xlink:href="classMooseEnum.html" target="_top" xlink:title="This is a &quot;smart&quot; enum class intended to replace many of the shortcomings in the C++ enum type It sho...">
<polygon fill="white" stroke="#666666" points="111,-74 40,-74 40,-55 111,-55 111,-74"/>
<text text-anchor="middle" x="75.5" y="-62" font-family="Courier,monospace" font-size="10.00">MooseEnum</text>
</a>
</g>
</g>
<!-- Node1&#45;&gt;Node2 -->
<g id="edge1" class="edge">
<title>Node1&#45;&gt;Node2</title>
<path fill="none" stroke="#63b8ff" d="M115.24,-101.81C105.28,-92.72 93.36,-81.82 85.19,-74.36"/>
<polygon fill="#63b8ff" stroke="#63b8ff" points="112.8,-104.33 122.54,-108.49 117.52,-99.16 112.8,-104.33"/>
</g>
<!-- Node4 -->
<g id="node4" class="node">
<title>Node4</title>
<g id="a_node4"><a xlink:href="classMultiMooseEnum.html" target="_top" xlink:title="This is a &quot;smart&quot; enum class intended to replace many of the shortcomings in the C++ enum type It sho...">
<polygon fill="white" stroke="#666666" points="243,-74 142,-74 142,-55 243,-55 243,-74"/>
<text text-anchor="middle" x="192.5" y="-62" font-family="Courier,monospace" font-size="10.00">MultiMooseEnum</text>
</a>
</g>
</g>
<!-- Node1&#45;&gt;Node4 -->
<g id="edge3" class="edge">
<title>Node1&#45;&gt;Node4</title>
<path fill="none" stroke="#63b8ff" d="M151.77,-102.09C161.96,-92.94 174.24,-81.9 182.64,-74.36"/>
<polygon fill="#63b8ff" stroke="#63b8ff" points="149.73,-99.21 144.63,-108.5 154.41,-104.42 149.73,-99.21"/>
</g>
<!-- Node3 -->
<g id="node3" class="node">
<title>Node3</title>
<g id="a_node3"><a xlink:href="classReporterProducerEnum.html" target="_top" xlink:title="MooseEnum designed for the ReporterContext objects to define how a ReporterValue can and is being pro...">
<polygon fill="white" stroke="#666666" points="137,-19 0,-19 0,0 137,0 137,-19"/>
<text text-anchor="middle" x="68.5" y="-7" font-family="Courier,monospace" font-size="10.00">ReporterProducerEnum</text>
</a>
</g>
</g>
<!-- Node2&#45;&gt;Node3 -->
<g id="edge2" class="edge">
<title>Node2&#45;&gt;Node3</title>
<path fill="none" stroke="#63b8ff" d="M72.84,-43.35C71.75,-35.1 70.54,-25.97 69.68,-19.44"/>
<polygon fill="#63b8ff" stroke="#63b8ff" points="69.37,-43.79 74.15,-53.25 76.31,-42.88 69.37,-43.79"/>
</g>
<!-- Node5 -->
<g id="node5" class="node">
<title>Node5</title>
<g id="a_node5"><a xlink:href="classExecFlagEnum.html" target="_top" xlink:title="A MultiMooseEnum object to hold &quot;execute_on&quot; flags.">
<polygon fill="white" stroke="#666666" points="244,-19 155,-19 155,0 244,0 244,-19"/>
<text text-anchor="middle" x="199.5" y="-7" font-family="Courier,monospace" font-size="10.00">ExecFlagEnum</text>
</a>
</g>
</g>
<!-- Node4&#45;&gt;Node5 -->
<g id="edge4" class="edge">
<title>Node4&#45;&gt;Node5</title>
<path fill="none" stroke="#63b8ff" d="M195.16,-43.35C196.25,-35.1 197.46,-25.97 198.32,-19.44"/>
<polygon fill="#63b8ff" stroke="#63b8ff" points="191.69,-42.88 193.85,-53.25 198.63,-43.79 191.69,-42.88"/>
</g>
</g>
</svg>
