<?xml version="1.0" encoding="UTF-8" standalone="no"?>
<!DOCTYPE svg PUBLIC "-//W3C//DTD SVG 1.1//EN"
 "http://www.w3.org/Graphics/SVG/1.1/DTD/svg11.dtd">
<!-- Generated by graphviz version 7.0.5 (20221223.1930)
 -->
<!-- Title: NonlinearEigenSystem Pages: 1 -->
<svg width="347pt" height="192pt"
 viewBox="0.00 0.00 347.00 192.00" xmlns="http://www.w3.org/2000/svg" xmlns:xlink="http://www.w3.org/1999/xlink">
<g id="graph0" class="graph" transform="scale(1 1) rotate(0) translate(4 188)">
<title>NonlinearEigenSystem</title>
<!-- Node1 -->
<g id="node1" class="node">
<title>Node1</title>
<g id="a_node1"><a xlink:title="Nonlinear eigenvalue system to be solved.">
<polygon fill="#999999" stroke="#666666" points="193,-19 56,-19 56,0 193,0 193,-19"/>
<text text-anchor="middle" x="124.5" y="-7" font-family="Courier,monospace" font-size="10.00">NonlinearEigenSystem</text>
</a>
</g>
</g>
<!-- Node2 -->
<g id="node2" class="node">
<title>Node2</title>
<g id="a_node2"><a xlink:href="classNonlinearSystemBase.html" target="_top" xlink:title="Nonlinear system to be solved.">
<polygon fill="white" stroke="#666666" points="237,-74 106,-74 106,-55 237,-55 237,-74"/>
<text text-anchor="middle" x="171.5" y="-62" font-family="Courier,monospace" font-size="10.00">NonlinearSystemBase</text>
</a>
</g>
</g>
<!-- Node2&#45;&gt;Node1 -->
<g id="edge1" class="edge">
<title>Node2&#45;&gt;Node1</title>
<path fill="none" stroke="#63b8ff" d="M156.17,-46.22C148.25,-37.28 138.9,-26.74 132.43,-19.44"/>
<polygon fill="#63b8ff" stroke="#63b8ff" points="153.48,-48.46 162.73,-53.62 158.72,-43.81 153.48,-48.46"/>
</g>
<!-- Node3 -->
<g id="node3" class="node">
<title>Node3</title>
<g id="a_node3"><a xlink:href="classSystemBase.html" target="_top" xlink:title="Base class for a system (of equations)">
<polygon fill="white" stroke="#666666" points="196,-129 119,-129 119,-110 196,-110 196,-129"/>
<text text-anchor="middle" x="157.5" y="-117" font-family="Courier,monospace" font-size="10.00">SystemBase</text>
</a>
</g>
</g>
<!-- Node3&#45;&gt;Node2 -->
<g id="edge2" class="edge">
<title>Node3&#45;&gt;Node2</title>
<path fill="none" stroke="#63b8ff" d="M162.75,-98.64C164.95,-90.31 167.39,-81.05 169.14,-74.44"/>
<polygon fill="#63b8ff" stroke="#63b8ff" points="159.37,-97.72 160.2,-108.28 166.14,-99.51 159.37,-97.72"/>
</g>
<!-- Node4 -->
<g id="node4" class="node">
<title>Node4</title>
<g id="a_node4"><a xlink:title=" ">
<polygon fill="white" stroke="#666666" points="155,-184 0,-184 0,-165 155,-165 155,-184"/>
<text text-anchor="middle" x="77.5" y="-172" font-family="Courier,monospace" font-size="10.00">libMesh::ParallelObject</text>
</a>
</g>
</g>
<!-- Node4&#45;&gt;Node1 -->
<g id="edge6" class="edge">
<title>Node4&#45;&gt;Node1</title>
<path fill="none" stroke="#63b8ff" d="M78.28,-153.39C79.75,-129.3 84.05,-88.05 96.5,-55 101.52,-41.67 110.82,-28.07 117.32,-19.47"/>
<polygon fill="#63b8ff" stroke="#63b8ff" points="74.8,-152.89 77.8,-163.06 81.79,-153.24 74.8,-152.89"/>
</g>
<!-- Node4&#45;&gt;Node3 -->
<g id="edge3" class="edge">
<title>Node4&#45;&gt;Node3</title>
<path fill="none" stroke="#63b8ff" d="M100.61,-158.19C114.73,-148.84 132.28,-137.21 144.13,-129.36"/>
<polygon fill="#63b8ff" stroke="#63b8ff" points="98.74,-155.23 92.33,-163.67 102.6,-161.07 98.74,-155.23"/>
</g>
<!-- Node5 -->
<g id="node5" class="node">
<title>Node5</title>
<g id="a_node5"><a xlink:href="classConsoleStreamInterface.html" target="_top" xlink:title="An inteface for the _console for outputting to the Console object.">
<polygon fill="white" stroke="#666666" points="322,-184 173,-184 173,-165 322,-165 322,-184"/>
<text text-anchor="middle" x="247.5" y="-172" font-family="Courier,monospace" font-size="10.00">ConsoleStreamInterface</text>
</a>
</g>
</g>
<!-- Node5&#45;&gt;Node3 -->
<g id="edge4" class="edge">
<title>Node5&#45;&gt;Node3</title>
<path fill="none" stroke="#63b8ff" d="M222.42,-158.73C206.39,-149.29 186.13,-137.36 172.54,-129.36"/>
<polygon fill="#63b8ff" stroke="#63b8ff" points="220.54,-161.68 230.93,-163.74 224.09,-155.65 220.54,-161.68"/>
</g>
<!-- Node6 -->
<g id="node6" class="node">
<title>Node6</title>
<g id="a_node6"><a xlink:href="classPerfGraphInterface.html" target="_top" xlink:title="Interface for objects interacting with the PerfGraph.">
<polygon fill="white" stroke="#666666" points="339,-129 214,-129 214,-110 339,-110 339,-129"/>
<text text-anchor="middle" x="276.5" y="-117" font-family="Courier,monospace" font-size="10.00">PerfGraphInterface</text>
</a>
</g>
</g>
<!-- Node6&#45;&gt;Node2 -->
<g id="edge5" class="edge">
<title>Node6&#45;&gt;Node2</title>
<path fill="none" stroke="#63b8ff" d="M248.57,-104.4C229.66,-94.86 205.28,-82.55 189.05,-74.36"/>
<polygon fill="#63b8ff" stroke="#63b8ff" points="246.83,-107.45 257.34,-108.83 249.99,-101.2 246.83,-107.45"/>
</g>
</g>
</svg>
