<?xml version="1.0" encoding="UTF-8" standalone="no"?>
<!DOCTYPE svg PUBLIC "-//W3C//DTD SVG 1.1//EN"
 "http://www.w3.org/Graphics/SVG/1.1/DTD/svg11.dtd">
<!-- Generated by graphviz version 7.0.5 (20221223.1930)
 -->
<!-- Title: InterfaceAverageVariableValuePostprocessor Pages: 1 -->
<svg width="2026pt" height="978pt"
 viewBox="0.00 0.00 2026.00 977.50" xmlns="http://www.w3.org/2000/svg" xmlns:xlink="http://www.w3.org/1999/xlink">
<g id="graph0" class="graph" transform="scale(1 1) rotate(0) translate(4 973.5)">
<title>InterfaceAverageVariableValuePostprocessor</title>
<!-- Node1 -->
<g id="node1" class="node">
<title>Node1</title>
<g id="a_node1"><a xlink:title="This postprocessor computes a spatial average value of the specified variable value on the interface.">
<polygon fill="#999999" stroke="#666666" points="2018,-73 1857,-73 1857,-43 2018,-43 2018,-73"/>
<text text-anchor="start" x="1865" y="-61" font-family="Courier,monospace" font-size="10.00">InterfaceAverageVariable</text>
<text text-anchor="middle" x="1937.5" y="-50" font-family="Courier,monospace" font-size="10.00">ValuePostprocessor</text>
</a>
</g>
</g>
<!-- Node2 -->
<g id="node2" class="node">
<title>Node2</title>
<g id="a_node2"><a xlink:href="classInterfaceIntegralVariableValuePostprocessor.html" target="_top" xlink:title="This postprocessor computes a weighted (by area) integral of the specified variable.">
<polygon fill="white" stroke="#666666" points="1821,-73 1654,-73 1654,-43 1821,-43 1821,-73"/>
<text text-anchor="start" x="1662" y="-61" font-family="Courier,monospace" font-size="10.00">InterfaceIntegralVariable</text>
<text text-anchor="middle" x="1737.5" y="-50" font-family="Courier,monospace" font-size="10.00">ValuePostprocessor</text>
</a>
</g>
</g>
<!-- Node2&#45;&gt;Node1 -->
<g id="edge1" class="edge">
<title>Node2&#45;&gt;Node1</title>
<path fill="none" stroke="#63b8ff" d="M1832.6,-58C1840.61,-58 1848.66,-58 1856.55,-58"/>
<polygon fill="#63b8ff" stroke="#63b8ff" points="1832.84,-54.5 1822.84,-58 1832.84,-61.5 1832.84,-54.5"/>
</g>
<!-- Node3 -->
<g id="node3" class="node">
<title>Node3</title>
<g id="a_node3"><a xlink:href="classInterfaceIntegralPostprocessor.html" target="_top" xlink:title="This postprocessor add generel capabilities to the InterfacePostprocessor to compute an integral over...">
<polygon fill="white" stroke="#666666" points="1618,-111.5 1421,-111.5 1421,-92.5 1618,-92.5 1618,-111.5"/>
<text text-anchor="middle" x="1519.5" y="-99.5" font-family="Courier,monospace" font-size="10.00">InterfaceIntegralPostprocessor</text>
</a>
</g>
</g>
<!-- Node3&#45;&gt;Node2 -->
<g id="edge2" class="edge">
<title>Node3&#45;&gt;Node2</title>
<path fill="none" stroke="#63b8ff" d="M1580.57,-89.76C1605.34,-84.72 1634.34,-78.81 1660.56,-73.47"/>
<polygon fill="#63b8ff" stroke="#63b8ff" points="1580.1,-86.29 1571,-91.71 1581.49,-93.15 1580.1,-86.29"/>
</g>
<!-- Node4 -->
<g id="node4" class="node">
<title>Node4</title>
<g id="a_node4"><a xlink:href="classInterfacePostprocessor.html" target="_top" xlink:title="BASE CLASS FOR IMPLEMENTING INTERFACE POSTRPOCESSOR ALL INTERFACE POSTPROCESOR SHOULD DERIVE FROM THI...">
<polygon fill="white" stroke="#666666" points="1379,-123.5 1230,-123.5 1230,-104.5 1379,-104.5 1379,-123.5"/>
<text text-anchor="middle" x="1304.5" y="-111.5" font-family="Courier,monospace" font-size="10.00">InterfacePostprocessor</text>
</a>
</g>
</g>
<!-- Node4&#45;&gt;Node3 -->
<g id="edge3" class="edge">
<title>Node4&#45;&gt;Node3</title>
<path fill="none" stroke="#63b8ff" d="M1390.81,-109.19C1400.65,-108.64 1410.74,-108.07 1420.72,-107.51"/>
<polygon fill="#63b8ff" stroke="#63b8ff" points="1390.7,-105.69 1380.91,-109.75 1391.09,-112.68 1390.7,-105.69"/>
</g>
<!-- Node5 -->
<g id="node5" class="node">
<title>Node5</title>
<g id="a_node5"><a xlink:href="classInterfaceUserObject.html" target="_top" xlink:title="Base class for implementing interface user objects.">
<polygon fill="white" stroke="#666666" points="1188,-194.5 1057,-194.5 1057,-175.5 1188,-175.5 1188,-194.5"/>
<text text-anchor="middle" x="1122.5" y="-182.5" font-family="Courier,monospace" font-size="10.00">InterfaceUserObject</text>
</a>
</g>
</g>
<!-- Node5&#45;&gt;Node4 -->
<g id="edge4" class="edge">
<title>Node5&#45;&gt;Node4</title>
<path fill="none" stroke="#63b8ff" d="M1158.84,-171.06C1194.07,-157.17 1247.28,-136.18 1278.39,-123.9"/>
<polygon fill="#63b8ff" stroke="#63b8ff" points="1157.95,-167.65 1149.94,-174.57 1160.52,-174.16 1157.95,-167.65"/>
</g>
<!-- Node6 -->
<g id="node6" class="node">
<title>Node6</title>
<g id="a_node6"><a xlink:href="classInterfaceUserObjectBase.html" target="_top" xlink:title="Base class for implementing interface user objects.">
<polygon fill="white" stroke="#666666" points="1021,-247.5 866,-247.5 866,-228.5 1021,-228.5 1021,-247.5"/>
<text text-anchor="middle" x="943.5" y="-235.5" font-family="Courier,monospace" font-size="10.00">InterfaceUserObjectBase</text>
</a>
</g>
</g>
<!-- Node6&#45;&gt;Node5 -->
<g id="edge5" class="edge">
<title>Node6&#45;&gt;Node5</title>
<path fill="none" stroke="#63b8ff" d="M988.7,-224.77C1019.6,-215.51 1060.22,-203.35 1088.36,-194.92"/>
<polygon fill="#63b8ff" stroke="#63b8ff" points="987.82,-221.38 979.24,-227.6 989.83,-228.08 987.82,-221.38"/>
</g>
<!-- Node7 -->
<g id="node7" class="node">
<title>Node7</title>
<g id="a_node7"><a xlink:href="classUserObject.html" target="_top" xlink:title="Base class for user&#45;specific data.">
<polygon fill="white" stroke="#666666" points="764,-617.5 687,-617.5 687,-598.5 764,-598.5 764,-617.5"/>
<text text-anchor="middle" x="725.5" y="-605.5" font-family="Courier,monospace" font-size="10.00">UserObject</text>
</a>
</g>
</g>
<!-- Node7&#45;&gt;Node6 -->
<g id="edge6" class="edge">
<title>Node7&#45;&gt;Node6</title>
<path fill="none" stroke="#63b8ff" d="M738.04,-588.24C777.75,-520.21 907.95,-297.18 936.81,-247.76"/>
<polygon fill="#63b8ff" stroke="#63b8ff" points="735.06,-586.4 733.04,-596.8 741.1,-589.92 735.06,-586.4"/>
</g>
<!-- Node8 -->
<g id="node8" class="node">
<title>Node8</title>
<g id="a_node8"><a xlink:href="classMooseObject.html" target="_top" xlink:title="Every object that can be built by the factory should be derived from this class.">
<polygon fill="white" stroke="#666666" points="534,-895.5 451,-895.5 451,-876.5 534,-876.5 534,-895.5"/>
<text text-anchor="middle" x="492.5" y="-883.5" font-family="Courier,monospace" font-size="10.00">MooseObject</text>
</a>
</g>
</g>
<!-- Node8&#45;&gt;Node7 -->
<g id="edge7" class="edge">
<title>Node8&#45;&gt;Node7</title>
<path fill="none" stroke="#63b8ff" d="M545.39,-883.82C559.28,-881.19 573.59,-876.43 585,-868 675.85,-800.88 713.69,-656.49 722.44,-617.74"/>
<polygon fill="#63b8ff" stroke="#63b8ff" points="545.25,-880.3 535.9,-885.27 546.31,-887.22 545.25,-880.3"/>
</g>
<!-- Node9 -->
<g id="node9" class="node">
<title>Node9</title>
<g id="a_node9"><a xlink:href="classMooseBase.html" target="_top" xlink:title="Base class for everything in MOOSE with a name and a type.">
<polygon fill="white" stroke="#666666" points="310,-969.5 239,-969.5 239,-950.5 310,-950.5 310,-969.5"/>
<text text-anchor="middle" x="274.5" y="-957.5" font-family="Courier,monospace" font-size="10.00">MooseBase</text>
</a>
</g>
</g>
<!-- Node9&#45;&gt;Node8 -->
<g id="edge8" class="edge">
<title>Node9&#45;&gt;Node8</title>
<path fill="none" stroke="#63b8ff" d="M321.62,-952.55C335.41,-949.81 350.46,-946.3 364,-942 403.87,-929.35 448.08,-908.22 472.56,-895.85"/>
<polygon fill="#63b8ff" stroke="#63b8ff" points="321.06,-949.09 311.89,-954.39 322.36,-955.97 321.06,-949.09"/>
</g>
<!-- Node10 -->
<g id="node10" class="node">
<title>Node10</title>
<g id="a_node10"><a xlink:href="classMooseBaseParameterInterface.html" target="_top" xlink:title="Every object that can be built by the factory should be derived from this class.">
<polygon fill="white" stroke="#666666" points="364,-932.5 185,-932.5 185,-913.5 364,-913.5 364,-932.5"/>
<text text-anchor="middle" x="274.5" y="-920.5" font-family="Courier,monospace" font-size="10.00">MooseBaseParameterInterface</text>
</a>
</g>
</g>
<!-- Node10&#45;&gt;Node8 -->
<g id="edge9" class="edge">
<title>Node10&#45;&gt;Node8</title>
<path fill="none" stroke="#63b8ff" d="M344.77,-911.13C379.7,-905.15 420.85,-898.1 450.68,-892.99"/>
<polygon fill="#63b8ff" stroke="#63b8ff" points="344.43,-907.64 335.16,-912.78 345.61,-914.54 344.43,-907.64"/>
</g>
<!-- Node11 -->
<g id="node11" class="node">
<title>Node11</title>
<g id="a_node11"><a xlink:href="classMooseBaseErrorInterface.html" target="_top" xlink:title="Interface that provides APIs to output errors/warnings/info messages.">
<polygon fill="white" stroke="#666666" points="352,-895.5 197,-895.5 197,-876.5 352,-876.5 352,-895.5"/>
<text text-anchor="middle" x="274.5" y="-883.5" font-family="Courier,monospace" font-size="10.00">MooseBaseErrorInterface</text>
</a>
</g>
</g>
<!-- Node11&#45;&gt;Node8 -->
<g id="edge10" class="edge">
<title>Node11&#45;&gt;Node8</title>
<path fill="none" stroke="#63b8ff" d="M363.7,-886C393.87,-886 426.17,-886 450.75,-886"/>
<polygon fill="#63b8ff" stroke="#63b8ff" points="363.78,-882.5 353.78,-886 363.78,-889.5 363.78,-882.5"/>
</g>
<!-- Node12 -->
<g id="node12" class="node">
<title>Node12</title>
<g id="a_node12"><a xlink:href="classConsoleStreamInterface.html" target="_top" xlink:title="An inteface for the _console for outputting to the Console object.">
<polygon fill="white" stroke="#666666" points="149,-895.5 0,-895.5 0,-876.5 149,-876.5 149,-895.5"/>
<text text-anchor="middle" x="74.5" y="-883.5" font-family="Courier,monospace" font-size="10.00">ConsoleStreamInterface</text>
</a>
</g>
</g>
<!-- Node12&#45;&gt;Node11 -->
<g id="edge11" class="edge">
<title>Node12&#45;&gt;Node11</title>
<path fill="none" stroke="#63b8ff" d="M160.62,-886C172.62,-886 184.9,-886 196.73,-886"/>
<polygon fill="#63b8ff" stroke="#63b8ff" points="160.74,-882.5 150.74,-886 160.74,-889.5 160.74,-882.5"/>
</g>
<!-- Node13 -->
<g id="node13" class="node">
<title>Node13</title>
<g id="a_node13"><a xlink:title=" ">
<polygon fill="white" stroke="#666666" points="352,-858.5 197,-858.5 197,-839.5 352,-839.5 352,-858.5"/>
<text text-anchor="middle" x="274.5" y="-846.5" font-family="Courier,monospace" font-size="10.00">libMesh::ParallelObject</text>
</a>
</g>
</g>
<!-- Node13&#45;&gt;Node8 -->
<g id="edge12" class="edge">
<title>Node13&#45;&gt;Node8</title>
<path fill="none" stroke="#63b8ff" d="M344.77,-860.87C379.7,-866.85 420.85,-873.9 450.68,-879.01"/>
<polygon fill="#63b8ff" stroke="#63b8ff" points="345.61,-857.46 335.16,-859.22 344.43,-864.36 345.61,-857.46"/>
</g>
<!-- Node14 -->
<g id="node14" class="node">
<title>Node14</title>
<g id="a_node14"><a xlink:href="classDataFileInterface.html" target="_top" xlink:title=" ">
<polygon fill="white" stroke="#666666" points="337,-821 212,-821 212,-791 337,-791 337,-821"/>
<text text-anchor="start" x="220" y="-809" font-family="Courier,monospace" font-size="10.00">DataFileInterface&lt;</text>
<text text-anchor="middle" x="274.5" y="-798" font-family="Courier,monospace" font-size="10.00"> MooseObject &gt;</text>
</a>
</g>
</g>
<!-- Node14&#45;&gt;Node8 -->
<g id="edge13" class="edge">
<title>Node14&#45;&gt;Node8</title>
<path fill="none" stroke="#63b8ff" d="M347.62,-822.85C353.32,-825.23 358.86,-827.94 364,-831 383.71,-842.74 379.83,-857.07 400,-868 415.37,-876.33 434.06,-880.84 450.53,-883.26"/>
<polygon fill="#63b8ff" stroke="#63b8ff" points="349.23,-819.72 338.64,-819.44 346.74,-826.26 349.23,-819.72"/>
</g>
<!-- Node15 -->
<g id="node15" class="node">
<title>Node15</title>
<g id="a_node15"><a xlink:href="classSetupInterface.html" target="_top" xlink:title=" ">
<polygon fill="white" stroke="#666666" points="543,-858.5 442,-858.5 442,-839.5 543,-839.5 543,-858.5"/>
<text text-anchor="middle" x="492.5" y="-846.5" font-family="Courier,monospace" font-size="10.00">SetupInterface</text>
</a>
</g>
</g>
<!-- Node15&#45;&gt;Node7 -->
<g id="edge14" class="edge">
<title>Node15&#45;&gt;Node7</title>
<path fill="none" stroke="#63b8ff" d="M554.61,-844.18C565.37,-841.38 575.99,-837.2 585,-831 666.99,-774.54 710.5,-652.53 721.61,-617.55"/>
<polygon fill="#63b8ff" stroke="#63b8ff" points="553.92,-840.75 544.89,-846.3 555.41,-847.59 553.92,-840.75"/>
</g>
<!-- Node16 -->
<g id="node16" class="node">
<title>Node16</title>
<g id="a_node16"><a xlink:href="classFunctionInterface.html" target="_top" xlink:title="Interface for objects that need to use functions.">
<polygon fill="white" stroke="#666666" points="552,-821.5 433,-821.5 433,-802.5 552,-802.5 552,-821.5"/>
<text text-anchor="middle" x="492.5" y="-809.5" font-family="Courier,monospace" font-size="10.00">FunctionInterface</text>
</a>
</g>
</g>
<!-- Node16&#45;&gt;Node7 -->
<g id="edge15" class="edge">
<title>Node16&#45;&gt;Node7</title>
<path fill="none" stroke="darkgreen" d="M563.08,-803.99C570.8,-801.47 578.29,-798.21 585,-794 658.15,-748.06 706.48,-648.95 720.37,-617.67"/>
<polygon fill="darkgreen" stroke="darkgreen" points="562.2,-800.6 553.52,-806.67 564.09,-807.34 562.2,-800.6"/>
</g>
<!-- Node17 -->
<g id="node17" class="node">
<title>Node17</title>
<g id="a_node17"><a xlink:href="classUserObjectInterface.html" target="_top" xlink:title="Interface for objects that need to use UserObjects.">
<polygon fill="white" stroke="#666666" points="558,-784.5 427,-784.5 427,-765.5 558,-765.5 558,-784.5"/>
<text text-anchor="middle" x="492.5" y="-772.5" font-family="Courier,monospace" font-size="10.00">UserObjectInterface</text>
</a>
</g>
</g>
<!-- Node17&#45;&gt;Node7 -->
<g id="edge16" class="edge">
<title>Node17&#45;&gt;Node7</title>
<path fill="none" stroke="#63b8ff" d="M569.1,-764.12C574.63,-762.13 580,-759.77 585,-757 649.46,-721.26 701.26,-645.23 718.42,-617.98"/>
<polygon fill="#63b8ff" stroke="#63b8ff" points="568.23,-760.72 559.74,-767.07 570.33,-767.4 568.23,-760.72"/>
</g>
<!-- Node18 -->
<g id="node18" class="node">
<title>Node18</title>
<g id="a_node18"><a xlink:href="classPostprocessorInterface.html" target="_top" xlink:title="Interface class for classes which interact with Postprocessors.">
<polygon fill="white" stroke="#666666" points="567,-747.5 418,-747.5 418,-728.5 567,-728.5 567,-747.5"/>
<text text-anchor="middle" x="492.5" y="-735.5" font-family="Courier,monospace" font-size="10.00">PostprocessorInterface</text>
</a>
</g>
</g>
<!-- Node18&#45;&gt;Node7 -->
<g id="edge17" class="edge">
<title>Node18&#45;&gt;Node7</title>
<path fill="none" stroke="darkgreen" d="M573.95,-724.52C577.74,-723.16 581.44,-721.65 585,-720 641.32,-693.8 694.79,-640.18 715.48,-617.97"/>
<polygon fill="darkgreen" stroke="darkgreen" points="572.97,-721.16 564.53,-727.55 575.12,-727.82 572.97,-721.16"/>
</g>
<!-- Node19 -->
<g id="node19" class="node">
<title>Node19</title>
<g id="a_node19"><a xlink:href="classVectorPostprocessorInterface.html" target="_top" xlink:title=" ">
<polygon fill="white" stroke="#666666" points="585,-710.5 400,-710.5 400,-691.5 585,-691.5 585,-710.5"/>
<text text-anchor="middle" x="492.5" y="-698.5" font-family="Courier,monospace" font-size="10.00">VectorPostprocessorInterface</text>
</a>
</g>
</g>
<!-- Node19&#45;&gt;Node7 -->
<g id="edge18" class="edge">
<title>Node19&#45;&gt;Node7</title>
<path fill="none" stroke="darkgreen" d="M568.24,-688.23C573.97,-686.67 579.61,-684.93 585,-683 633.15,-665.76 684.97,-633.98 709.71,-617.89"/>
<polygon fill="darkgreen" stroke="darkgreen" points="567.48,-684.82 558.64,-690.66 569.19,-691.6 567.48,-684.82"/>
</g>
<!-- Node20 -->
<g id="node20" class="node">
<title>Node20</title>
<g id="a_node20"><a xlink:href="classReporterInterface.html" target="_top" xlink:title="Interface to allow object to consume Reporter values.">
<polygon fill="white" stroke="#666666" points="552,-673.5 433,-673.5 433,-654.5 552,-654.5 552,-673.5"/>
<text text-anchor="middle" x="492.5" y="-661.5" font-family="Courier,monospace" font-size="10.00">ReporterInterface</text>
</a>
</g>
</g>
<!-- Node20&#45;&gt;Node7 -->
<g id="edge19" class="edge">
<title>Node20&#45;&gt;Node7</title>
<path fill="none" stroke="darkgreen" d="M558.53,-651.8C567.45,-649.96 576.47,-648 585,-646 621.29,-637.5 662.42,-626.07 690.56,-617.98"/>
<polygon fill="darkgreen" stroke="darkgreen" points="557.93,-648.35 548.83,-653.77 559.32,-655.21 557.93,-648.35"/>
</g>
<!-- Node21 -->
<g id="node21" class="node">
<title>Node21</title>
<g id="a_node21"><a xlink:href="classDistributionInterface.html" target="_top" xlink:title="Interface for objects that need to use distributions.">
<polygon fill="white" stroke="#666666" points="564,-636.5 421,-636.5 421,-617.5 564,-617.5 564,-636.5"/>
<text text-anchor="middle" x="492.5" y="-624.5" font-family="Courier,monospace" font-size="10.00">DistributionInterface</text>
</a>
</g>
</g>
<!-- Node21&#45;&gt;Node7 -->
<g id="edge20" class="edge">
<title>Node21&#45;&gt;Node7</title>
<path fill="none" stroke="darkgreen" d="M575.43,-620.26C613.35,-617.14 656.56,-613.59 686.65,-611.11"/>
<polygon fill="darkgreen" stroke="darkgreen" points="575.57,-616.74 565.89,-621.05 576.14,-623.71 575.57,-616.74"/>
</g>
<!-- Node22 -->
<g id="node22" class="node">
<title>Node22</title>
<g id="a_node22"><a xlink:href="classSamplerInterface.html" target="_top" xlink:title="Interface for objects that need to use samplers.">
<polygon fill="white" stroke="#666666" points="549,-599.5 436,-599.5 436,-580.5 549,-580.5 549,-599.5"/>
<text text-anchor="middle" x="492.5" y="-587.5" font-family="Courier,monospace" font-size="10.00">SamplerInterface</text>
</a>
</g>
</g>
<!-- Node22&#45;&gt;Node7 -->
<g id="edge21" class="edge">
<title>Node22&#45;&gt;Node7</title>
<path fill="none" stroke="darkgreen" d="M560.71,-595.24C601.74,-598.43 652.7,-602.41 686.78,-605.06"/>
<polygon fill="darkgreen" stroke="darkgreen" points="561.17,-591.76 550.93,-594.47 560.63,-598.74 561.17,-591.76"/>
</g>
<!-- Node23 -->
<g id="node23" class="node">
<title>Node23</title>
<g id="a_node23"><a xlink:href="classRestartable.html" target="_top" xlink:title="A class for creating restricted objects.">
<polygon fill="white" stroke="#666666" points="534,-562.5 451,-562.5 451,-543.5 534,-543.5 534,-562.5"/>
<text text-anchor="middle" x="492.5" y="-550.5" font-family="Courier,monospace" font-size="10.00">Restartable</text>
</a>
</g>
</g>
<!-- Node23&#45;&gt;Node7 -->
<g id="edge22" class="edge">
<title>Node23&#45;&gt;Node7</title>
<path fill="none" stroke="darkgreen" d="M545.27,-563.3C558.27,-566.01 572.17,-569.01 585,-572 620.08,-580.16 659.83,-590.53 687.9,-598.05"/>
<polygon fill="darkgreen" stroke="darkgreen" points="546.11,-559.9 535.61,-561.31 544.7,-566.76 546.11,-559.9"/>
</g>
<!-- Node24 -->
<g id="node24" class="node">
<title>Node24</title>
<g id="a_node24"><a xlink:href="classMeshMetaDataInterface.html" target="_top" xlink:title="The Interface used to retrieve mesh meta data (attributes) set by the MeshGenerator system.">
<polygon fill="white" stroke="#666666" points="564,-525.5 421,-525.5 421,-506.5 564,-506.5 564,-525.5"/>
<text text-anchor="middle" x="492.5" y="-513.5" font-family="Courier,monospace" font-size="10.00">MeshMetaDataInterface</text>
</a>
</g>
</g>
<!-- Node24&#45;&gt;Node7 -->
<g id="edge23" class="edge">
<title>Node24&#45;&gt;Node7</title>
<path fill="none" stroke="darkgreen" d="M564.33,-528.65C571.39,-530.52 578.38,-532.63 585,-535 632.62,-552.03 684.26,-582.57 709.25,-598.2"/>
<polygon fill="darkgreen" stroke="darkgreen" points="565.25,-525.27 554.7,-526.27 563.56,-532.07 565.25,-525.27"/>
</g>
<!-- Node25 -->
<g id="node25" class="node">
<title>Node25</title>
<g id="a_node25"><a xlink:href="classMeshChangedInterface.html" target="_top" xlink:title="Interface for notifications that the mesh has changed.">
<polygon fill="white" stroke="#666666" points="561,-488.5 424,-488.5 424,-469.5 561,-469.5 561,-488.5"/>
<text text-anchor="middle" x="492.5" y="-476.5" font-family="Courier,monospace" font-size="10.00">MeshChangedInterface</text>
</a>
</g>
</g>
<!-- Node25&#45;&gt;Node7 -->
<g id="edge24" class="edge">
<title>Node25&#45;&gt;Node7</title>
<path fill="none" stroke="darkgreen" d="M570.63,-492.27C575.58,-493.96 580.41,-495.86 585,-498 640.91,-524.06 694.6,-576.54 715.42,-598.25"/>
<polygon fill="darkgreen" stroke="darkgreen" points="571.71,-488.94 561.12,-489.35 569.65,-495.63 571.71,-488.94"/>
</g>
<!-- Node26 -->
<g id="node26" class="node">
<title>Node26</title>
<g id="a_node26"><a xlink:href="classScalarCoupleable.html" target="_top" xlink:title="Interface for objects that needs scalar coupling capabilities.">
<polygon fill="white" stroke="#666666" points="549,-451.5 436,-451.5 436,-432.5 549,-432.5 549,-451.5"/>
<text text-anchor="middle" x="492.5" y="-439.5" font-family="Courier,monospace" font-size="10.00">ScalarCoupleable</text>
</a>
</g>
</g>
<!-- Node26&#45;&gt;Node7 -->
<g id="edge25" class="edge">
<title>Node26&#45;&gt;Node7</title>
<path fill="none" stroke="darkgreen" d="M560.14,-450.84C568.81,-453.41 577.33,-456.73 585,-461 648.93,-496.61 701.07,-571.4 718.37,-598.19"/>
<polygon fill="darkgreen" stroke="darkgreen" points="561.16,-447.49 550.6,-448.34 559.39,-454.26 561.16,-447.49"/>
</g>
<!-- Node27 -->
<g id="node27" class="node">
<title>Node27</title>
<g id="a_node27"><a xlink:href="classPerfGraphInterface.html" target="_top" xlink:title="Interface for objects interacting with the PerfGraph.">
<polygon fill="white" stroke="#666666" points="555,-414.5 430,-414.5 430,-395.5 555,-395.5 555,-414.5"/>
<text text-anchor="middle" x="492.5" y="-402.5" font-family="Courier,monospace" font-size="10.00">PerfGraphInterface</text>
</a>
</g>
</g>
<!-- Node27&#45;&gt;Node7 -->
<g id="edge26" class="edge">
<title>Node27&#45;&gt;Node7</title>
<path fill="none" stroke="darkgreen" d="M566.03,-414.89C572.71,-417.31 579.15,-420.3 585,-424 657.19,-469.6 705.82,-566.7 720.12,-598.03"/>
<polygon fill="darkgreen" stroke="darkgreen" points="567.44,-411.67 556.85,-412 565.34,-418.34 567.44,-411.67"/>
</g>
<!-- Node28 -->
<g id="node28" class="node">
<title>Node28</title>
<g id="a_node28"><a xlink:href="classDependencyResolverInterface.html" target="_top" xlink:title="Interface for sorting dependent vectors of objects.">
<polygon fill="white" stroke="#666666" points="582,-377.5 403,-377.5 403,-358.5 582,-358.5 582,-377.5"/>
<text text-anchor="middle" x="492.5" y="-365.5" font-family="Courier,monospace" font-size="10.00">DependencyResolverInterface</text>
</a>
</g>
</g>
<!-- Node28&#45;&gt;Node7 -->
<g id="edge27" class="edge">
<title>Node28&#45;&gt;Node7</title>
<path fill="none" stroke="#63b8ff" d="M577.97,-382.68C580.4,-384 582.75,-385.44 585,-387 665.91,-443.1 709.89,-562.89 721.41,-598.08"/>
<polygon fill="#63b8ff" stroke="#63b8ff" points="579.52,-379.54 568.98,-378.49 576.57,-385.89 579.52,-379.54"/>
</g>
<!-- Node29 -->
<g id="node29" class="node">
<title>Node29</title>
<g id="a_node29"><a xlink:href="classBoundaryRestrictableRequired.html" target="_top" xlink:title="A class for requiring an object to be boundary restricted.">
<polygon fill="white" stroke="#666666" points="818,-340.5 633,-340.5 633,-321.5 818,-321.5 818,-340.5"/>
<text text-anchor="middle" x="725.5" y="-328.5" font-family="Courier,monospace" font-size="10.00">BoundaryRestrictableRequired</text>
</a>
</g>
</g>
<!-- Node29&#45;&gt;Node6 -->
<g id="edge28" class="edge">
<title>Node29&#45;&gt;Node6</title>
<path fill="none" stroke="#63b8ff" d="M815.56,-318.02C820.5,-316.52 825.35,-314.86 830,-313 870.76,-296.71 912,-264.2 931.27,-247.86"/>
<polygon fill="#63b8ff" stroke="#63b8ff" points="814.8,-314.6 806.08,-320.62 816.65,-321.35 814.8,-314.6"/>
</g>
<!-- Node30 -->
<g id="node30" class="node">
<title>Node30</title>
<g id="a_node30"><a xlink:href="classBoundaryRestrictable.html" target="_top" xlink:title="/class BoundaryRestrictable /brief Provides functionality for limiting the object to certain boundary...">
<polygon fill="white" stroke="#666666" points="561,-340.5 424,-340.5 424,-321.5 561,-321.5 561,-340.5"/>
<text text-anchor="middle" x="492.5" y="-328.5" font-family="Courier,monospace" font-size="10.00">BoundaryRestrictable</text>
</a>
</g>
</g>
<!-- Node30&#45;&gt;Node29 -->
<g id="edge29" class="edge">
<title>Node30&#45;&gt;Node29</title>
<path fill="none" stroke="#63b8ff" d="M572.74,-331C592.06,-331 612.88,-331 632.73,-331"/>
<polygon fill="#63b8ff" stroke="#63b8ff" points="572.76,-327.5 562.76,-331 572.76,-334.5 572.76,-327.5"/>
</g>
<!-- Node31 -->
<g id="node31" class="node">
<title>Node31</title>
<g id="a_node31"><a xlink:href="classTwoMaterialPropertyInterface.html" target="_top" xlink:title="This interface is designed for DGKernel, InternalSideUserObject, InterfaceUserObject,...">
<polygon fill="white" stroke="#666666" points="818,-303.5 633,-303.5 633,-284.5 818,-284.5 818,-303.5"/>
<text text-anchor="middle" x="725.5" y="-291.5" font-family="Courier,monospace" font-size="10.00">TwoMaterialPropertyInterface</text>
</a>
</g>
</g>
<!-- Node31&#45;&gt;Node6 -->
<g id="edge30" class="edge">
<title>Node31&#45;&gt;Node6</title>
<path fill="none" stroke="#63b8ff" d="M803.95,-281.87C812.77,-280.09 821.61,-278.13 830,-276 860.37,-268.28 894.34,-256.33 916.92,-247.9"/>
<polygon fill="#63b8ff" stroke="#63b8ff" points="803.44,-278.41 794.29,-283.74 804.77,-285.28 803.44,-278.41"/>
</g>
<!-- Node32 -->
<g id="node32" class="node">
<title>Node32</title>
<g id="a_node32"><a xlink:href="classMaterialPropertyInterface.html" target="_top" xlink:title="An interface for accessing Materials.">
<polygon fill="white" stroke="#666666" points="576,-303.5 409,-303.5 409,-284.5 576,-284.5 576,-303.5"/>
<text text-anchor="middle" x="492.5" y="-291.5" font-family="Courier,monospace" font-size="10.00">MaterialPropertyInterface</text>
</a>
</g>
</g>
<!-- Node32&#45;&gt;Node31 -->
<g id="edge31" class="edge">
<title>Node32&#45;&gt;Node31</title>
<path fill="none" stroke="#63b8ff" d="M587.5,-294C602.36,-294 617.72,-294 632.54,-294"/>
<polygon fill="#63b8ff" stroke="#63b8ff" points="587.76,-290.5 577.76,-294 587.76,-297.5 587.76,-290.5"/>
</g>
<!-- Node33 -->
<g id="node33" class="node">
<title>Node33</title>
<g id="a_node33"><a xlink:href="classNeighborCoupleable.html" target="_top" xlink:title="Enhances Coupleable interface to also couple the values from neighbor elements.">
<polygon fill="white" stroke="#666666" points="788,-266.5 663,-266.5 663,-247.5 788,-247.5 788,-266.5"/>
<text text-anchor="middle" x="725.5" y="-254.5" font-family="Courier,monospace" font-size="10.00">NeighborCoupleable</text>
</a>
</g>
</g>
<!-- Node33&#45;&gt;Node6 -->
<g id="edge32" class="edge">
<title>Node33&#45;&gt;Node6</title>
<path fill="none" stroke="#63b8ff" d="M799.63,-250.57C820.87,-248.7 844.13,-246.65 865.6,-244.76"/>
<polygon fill="#63b8ff" stroke="#63b8ff" points="799.56,-247.06 789.9,-251.42 800.17,-254.03 799.56,-247.06"/>
</g>
<!-- Node34 -->
<g id="node34" class="node">
<title>Node34</title>
<g id="a_node34"><a xlink:href="classCoupleable.html" target="_top" xlink:title="Interface for objects that needs coupling capabilities.">
<polygon fill="white" stroke="#666666" points="531,-266.5 454,-266.5 454,-247.5 531,-247.5 531,-266.5"/>
<text text-anchor="middle" x="492.5" y="-254.5" font-family="Courier,monospace" font-size="10.00">Coupleable</text>
</a>
</g>
</g>
<!-- Node34&#45;&gt;Node33 -->
<g id="edge33" class="edge">
<title>Node34&#45;&gt;Node33</title>
<path fill="none" stroke="#63b8ff" d="M542.76,-257C577.79,-257 625.09,-257 662.66,-257"/>
<polygon fill="#63b8ff" stroke="#63b8ff" points="542.9,-253.5 532.9,-257 542.9,-260.5 542.9,-253.5"/>
</g>
<!-- Node35 -->
<g id="node35" class="node">
<title>Node35</title>
<g id="a_node35"><a xlink:href="classMooseVariableDependencyInterface.html" target="_top" xlink:title=" ">
<polygon fill="white" stroke="#666666" points="830,-229.5 621,-229.5 621,-210.5 830,-210.5 830,-229.5"/>
<text text-anchor="middle" x="725.5" y="-217.5" font-family="Courier,monospace" font-size="10.00">MooseVariableDependencyInterface</text>
</a>
</g>
</g>
<!-- Node35&#45;&gt;Node6 -->
<g id="edge34" class="edge">
<title>Node35&#45;&gt;Node6</title>
<path fill="none" stroke="#63b8ff" d="M841.81,-229.61C849.88,-230.28 857.9,-230.95 865.68,-231.6"/>
<polygon fill="#63b8ff" stroke="#63b8ff" points="842.15,-226.13 831.9,-228.78 841.57,-233.1 842.15,-226.13"/>
</g>
<!-- Node36 -->
<g id="node36" class="node">
<title>Node36</title>
<g id="a_node36"><a xlink:href="classTransientInterface.html" target="_top" xlink:title="Interface for objects that needs transient capabilities.">
<polygon fill="white" stroke="#666666" points="788,-192.5 663,-192.5 663,-173.5 788,-173.5 788,-192.5"/>
<text text-anchor="middle" x="725.5" y="-180.5" font-family="Courier,monospace" font-size="10.00">TransientInterface</text>
</a>
</g>
</g>
<!-- Node36&#45;&gt;Node6 -->
<g id="edge35" class="edge">
<title>Node36&#45;&gt;Node6</title>
<path fill="none" stroke="#63b8ff" d="M799.24,-195.14C809.61,-197.22 820.11,-199.52 830,-202 859.44,-209.38 892.44,-220.26 915.04,-228.12"/>
<polygon fill="#63b8ff" stroke="#63b8ff" points="800.05,-191.73 789.56,-193.25 798.71,-198.6 800.05,-191.73"/>
</g>
<!-- Node37 -->
<g id="node37" class="node">
<title>Node37</title>
<g id="a_node37"><a xlink:href="classElementIDInterface.html" target="_top" xlink:title=" ">
<polygon fill="white" stroke="#666666" points="788,-155.5 663,-155.5 663,-136.5 788,-136.5 788,-155.5"/>
<text text-anchor="middle" x="725.5" y="-143.5" font-family="Courier,monospace" font-size="10.00">ElementIDInterface</text>
</a>
</g>
</g>
<!-- Node37&#45;&gt;Node6 -->
<g id="edge36" class="edge">
<title>Node37&#45;&gt;Node6</title>
<path fill="none" stroke="#63b8ff" d="M799.6,-155.68C809.99,-158.12 820.4,-161.18 830,-165 870.24,-181.01 911.39,-212.29 930.89,-228.2"/>
<polygon fill="#63b8ff" stroke="#63b8ff" points="800.36,-152.26 789.85,-153.57 798.89,-159.1 800.36,-152.26"/>
</g>
<!-- Node38 -->
<g id="node38" class="node">
<title>Node38</title>
<g id="a_node38"><a xlink:href="classPostprocessor.html" target="_top" xlink:title="Base class for all Postprocessors.">
<polygon fill="white" stroke="#666666" points="1170,-123.5 1075,-123.5 1075,-104.5 1170,-104.5 1170,-123.5"/>
<text text-anchor="middle" x="1122.5" y="-111.5" font-family="Courier,monospace" font-size="10.00">Postprocessor</text>
</a>
</g>
</g>
<!-- Node38&#45;&gt;Node4 -->
<g id="edge37" class="edge">
<title>Node38&#45;&gt;Node4</title>
<path fill="none" stroke="#63b8ff" d="M1181.71,-114C1197.01,-114 1213.71,-114 1229.71,-114"/>
<polygon fill="#63b8ff" stroke="#63b8ff" points="1181.84,-110.5 1171.84,-114 1181.84,-117.5 1181.84,-110.5"/>
</g>
<!-- Node39 -->
<g id="node39" class="node">
<title>Node39</title>
<g id="a_node39"><a xlink:href="classOutputInterface.html" target="_top" xlink:title="A class to provide an common interface to objects requiring &quot;outputs&quot; option.">
<polygon fill="white" stroke="#666666" points="997,-160.5 890,-160.5 890,-141.5 997,-141.5 997,-160.5"/>
<text text-anchor="middle" x="943.5" y="-148.5" font-family="Courier,monospace" font-size="10.00">OutputInterface</text>
</a>
</g>
</g>
<!-- Node39&#45;&gt;Node38 -->
<g id="edge38" class="edge">
<title>Node39&#45;&gt;Node38</title>
<path fill="none" stroke="#63b8ff" d="M1003.05,-138.76C1026.27,-133.91 1052.61,-128.4 1074.55,-123.81"/>
<polygon fill="#63b8ff" stroke="#63b8ff" points="1002.49,-135.3 993.41,-140.77 1003.92,-142.15 1002.49,-135.3"/>
</g>
<!-- Node40 -->
<g id="node40" class="node">
<title>Node40</title>
<g id="a_node40"><a xlink:href="classNonADFunctorInterface.html" target="_top" xlink:title="An interface for accessing Moose::Functors for systems that do not care about automatic differentiati...">
<polygon fill="white" stroke="#666666" points="1015,-123.5 872,-123.5 872,-104.5 1015,-104.5 1015,-123.5"/>
<text text-anchor="middle" x="943.5" y="-111.5" font-family="Courier,monospace" font-size="10.00">NonADFunctorInterface</text>
</a>
</g>
</g>
<!-- Node40&#45;&gt;Node38 -->
<g id="edge39" class="edge">
<title>Node40&#45;&gt;Node38</title>
<path fill="none" stroke="#63b8ff" d="M1026.77,-114C1043.2,-114 1059.92,-114 1074.65,-114"/>
<polygon fill="#63b8ff" stroke="#63b8ff" points="1026.99,-110.5 1016.99,-114 1026.99,-117.5 1026.99,-110.5"/>
</g>
<!-- Node41 -->
<g id="node41" class="node">
<title>Node41</title>
<g id="a_node41"><a xlink:href="classFunctorInterface.html" target="_top" xlink:title="An interface for accessing Moose::Functors.">
<polygon fill="white" stroke="#666666" points="782,-118.5 669,-118.5 669,-99.5 782,-99.5 782,-118.5"/>
<text text-anchor="middle" x="725.5" y="-106.5" font-family="Courier,monospace" font-size="10.00">FunctorInterface</text>
</a>
</g>
</g>
<!-- Node41&#45;&gt;Node40 -->
<g id="edge40" class="edge">
<title>Node41&#45;&gt;Node40</title>
<path fill="none" stroke="#63b8ff" d="M793.88,-110.56C818.62,-111.13 846.69,-111.78 871.72,-112.36"/>
<polygon fill="#63b8ff" stroke="#63b8ff" points="794,-107.06 783.92,-110.33 793.84,-114.06 794,-107.06"/>
</g>
<!-- Node42 -->
<g id="node42" class="node">
<title>Node42</title>
<g id="a_node42"><a xlink:href="classMoose_1_1FunctorBase.html" target="_top" xlink:title=" ">
<polygon fill="white" stroke="#666666" points="1006,-86 881,-86 881,-56 1006,-56 1006,-86"/>
<text text-anchor="start" x="889" y="-74" font-family="Courier,monospace" font-size="10.00">Moose::FunctorBase</text>
<text text-anchor="middle" x="943.5" y="-63" font-family="Courier,monospace" font-size="10.00">&lt; Real &gt;</text>
</a>
</g>
</g>
<!-- Node42&#45;&gt;Node38 -->
<g id="edge41" class="edge">
<title>Node42&#45;&gt;Node38</title>
<path fill="none" stroke="#63b8ff" d="M1017.5,-88.73C1038.98,-93.95 1061.72,-99.48 1080.44,-104.03"/>
<polygon fill="#63b8ff" stroke="#63b8ff" points="1018.42,-85.36 1007.88,-86.4 1016.77,-92.16 1018.42,-85.36"/>
</g>
<!-- Node43 -->
<g id="node43" class="node">
<title>Node43</title>
<g id="a_node43"><a xlink:href="classMoose_1_1FunctorAbstract.html" target="_top" xlink:title="Abstract base class that can be used to hold collections of functors.">
<polygon fill="white" stroke="#666666" points="800,-77.5 651,-77.5 651,-58.5 800,-58.5 800,-77.5"/>
<text text-anchor="middle" x="725.5" y="-65.5" font-family="Courier,monospace" font-size="10.00">Moose::FunctorAbstract</text>
</a>
</g>
</g>
<!-- Node43&#45;&gt;Node42 -->
<g id="edge42" class="edge">
<title>Node43&#45;&gt;Node42</title>
<path fill="none" stroke="#63b8ff" d="M811.74,-69.18C834.72,-69.5 859.15,-69.84 880.6,-70.14"/>
<polygon fill="#63b8ff" stroke="#63b8ff" points="811.79,-65.68 801.74,-69.05 811.69,-72.68 811.79,-65.68"/>
</g>
<!-- Node44 -->
<g id="node44" class="node">
<title>Node44</title>
<g id="a_node44"><a xlink:href="classFaceArgInterface.html" target="_top" xlink:title="A base class interface for both producers and consumers of functor face arguments,...">
<polygon fill="white" stroke="#666666" points="549,-58.5 436,-58.5 436,-39.5 549,-39.5 549,-58.5"/>
<text text-anchor="middle" x="492.5" y="-46.5" font-family="Courier,monospace" font-size="10.00">FaceArgInterface</text>
</a>
</g>
</g>
<!-- Node44&#45;&gt;Node43 -->
<g id="edge43" class="edge">
<title>Node44&#45;&gt;Node43</title>
<path fill="none" stroke="#63b8ff" d="M560.79,-54.53C589,-56.86 621.89,-59.56 650.76,-61.93"/>
<polygon fill="#63b8ff" stroke="#63b8ff" points="561.18,-51.06 550.93,-53.72 560.61,-58.03 561.18,-51.06"/>
</g>
<!-- Node46 -->
<g id="node46" class="node">
<title>Node46</title>
<g id="a_node46"><a xlink:href="classFaceArgProducerInterface.html" target="_top" xlink:title="An interface for producers of functor face arguments, e.g.">
<polygon fill="white" stroke="#666666" points="1385,-61.5 1224,-61.5 1224,-42.5 1385,-42.5 1385,-61.5"/>
<text text-anchor="middle" x="1304.5" y="-49.5" font-family="Courier,monospace" font-size="10.00">FaceArgProducerInterface</text>
</a>
</g>
</g>
<!-- Node44&#45;&gt;Node46 -->
<g id="edge46" class="edge">
<title>Node44&#45;&gt;Node46</title>
<path fill="none" stroke="#63b8ff" d="M560.78,-48.2C661.05,-47.13 855.61,-45.54 1021,-47 1089.43,-47.61 1167.16,-49.04 1223.75,-50.21"/>
<polygon fill="#63b8ff" stroke="#63b8ff" points="560.8,-44.7 550.84,-48.31 560.88,-51.7 560.8,-44.7"/>
</g>
<!-- Node45 -->
<g id="node45" class="node">
<title>Node45</title>
<g id="a_node45"><a xlink:href="classMooseVariableInterface.html" target="_top" xlink:title=" ">
<polygon fill="white" stroke="#666666" points="1594,-30 1445,-30 1445,0 1594,0 1594,-30"/>
<text text-anchor="start" x="1453" y="-18" font-family="Courier,monospace" font-size="10.00">MooseVariableInterface</text>
<text text-anchor="middle" x="1519.5" y="-7" font-family="Courier,monospace" font-size="10.00">&lt; Real &gt;</text>
</a>
</g>
</g>
<!-- Node45&#45;&gt;Node2 -->
<g id="edge44" class="edge">
<title>Node45&#45;&gt;Node2</title>
<path fill="none" stroke="#63b8ff" d="M1605.09,-31.84C1622.75,-35.36 1641.28,-39.04 1658.68,-42.51"/>
<polygon fill="#63b8ff" stroke="#63b8ff" points="1606.21,-28.49 1595.72,-29.97 1604.84,-35.36 1606.21,-28.49"/>
</g>
<!-- Node46&#45;&gt;Node2 -->
<g id="edge45" class="edge">
<title>Node46&#45;&gt;Node2</title>
<path fill="none" stroke="#63b8ff" d="M1396.76,-53.27C1472.83,-54.33 1580.27,-55.83 1653.84,-56.85"/>
<polygon fill="#63b8ff" stroke="#63b8ff" points="1396.87,-49.77 1386.82,-53.13 1396.77,-56.77 1396.87,-49.77"/>
</g>
</g>
</svg>
