<?xml version="1.0" encoding="UTF-8" standalone="no"?>
<!DOCTYPE svg PUBLIC "-//W3C//DTD SVG 1.1//EN"
 "http://www.w3.org/Graphics/SVG/1.1/DTD/svg11.dtd">
<!-- Generated by graphviz version 7.0.5 (20221223.1930)
 -->
<!-- Title: MooseParsedVectorFunction Pages: 1 -->
<svg width="951pt" height="409pt"
 viewBox="0.00 0.00 951.00 408.50" xmlns="http://www.w3.org/2000/svg" xmlns:xlink="http://www.w3.org/1999/xlink">
<g id="graph0" class="graph" transform="scale(1 1) rotate(0) translate(4 404.5)">
<title>MooseParsedVectorFunction</title>
<!-- Node1 -->
<g id="node1" class="node">
<title>Node1</title>
<g id="a_node1"><a xlink:title="This class is similar to ParsedFunction except it returns a vector function.">
<polygon fill="#999999" stroke="#666666" points="943,-159.5 776,-159.5 776,-140.5 943,-140.5 943,-159.5"/>
<text text-anchor="middle" x="859.5" y="-147.5" font-family="Courier,monospace" font-size="10.00">MooseParsedVectorFunction</text>
</a>
</g>
</g>
<!-- Node2 -->
<g id="node2" class="node">
<title>Node2</title>
<g id="a_node2"><a xlink:href="classFunction.html" target="_top" xlink:title="Base class for function objects.">
<polygon fill="white" stroke="#666666" points="695,-178.5 630,-178.5 630,-159.5 695,-159.5 695,-178.5"/>
<text text-anchor="middle" x="662.5" y="-166.5" font-family="Courier,monospace" font-size="10.00">Function</text>
</a>
</g>
</g>
<!-- Node2&#45;&gt;Node1 -->
<g id="edge1" class="edge">
<title>Node2&#45;&gt;Node1</title>
<path fill="none" stroke="#63b8ff" d="M706.67,-164.79C727.03,-162.81 752.04,-160.37 775.84,-158.05"/>
<polygon fill="#63b8ff" stroke="#63b8ff" points="706.38,-161.3 696.77,-165.76 707.06,-168.27 706.38,-161.3"/>
</g>
<!-- Node3 -->
<g id="node3" class="node">
<title>Node3</title>
<g id="a_node3"><a xlink:href="classMooseObject.html" target="_top" xlink:title="Every object that can be built by the factory should be derived from this class.">
<polygon fill="white" stroke="#666666" points="516,-326.5 433,-326.5 433,-307.5 516,-307.5 516,-326.5"/>
<text text-anchor="middle" x="474.5" y="-314.5" font-family="Courier,monospace" font-size="10.00">MooseObject</text>
</a>
</g>
</g>
<!-- Node3&#45;&gt;Node2 -->
<g id="edge2" class="edge">
<title>Node3&#45;&gt;Node2</title>
<path fill="none" stroke="#63b8ff" d="M527.03,-308.71C534.71,-306.27 542.3,-303.1 549,-299 600.95,-267.24 641.54,-203.54 655.89,-178.98"/>
<polygon fill="#63b8ff" stroke="#63b8ff" points="526.34,-305.27 517.63,-311.31 528.2,-312.02 526.34,-305.27"/>
</g>
<!-- Node4 -->
<g id="node4" class="node">
<title>Node4</title>
<g id="a_node4"><a xlink:href="classMooseBase.html" target="_top" xlink:title="Base class for everything in MOOSE with a name and a type.">
<polygon fill="white" stroke="#666666" points="310,-400.5 239,-400.5 239,-381.5 310,-381.5 310,-400.5"/>
<text text-anchor="middle" x="274.5" y="-388.5" font-family="Courier,monospace" font-size="10.00">MooseBase</text>
</a>
</g>
</g>
<!-- Node4&#45;&gt;Node3 -->
<g id="edge3" class="edge">
<title>Node4&#45;&gt;Node3</title>
<path fill="none" stroke="#63b8ff" d="M321.43,-384.12C335.32,-381.38 350.47,-377.73 364,-373 398.87,-360.8 436.61,-339.51 457.43,-326.99"/>
<polygon fill="#63b8ff" stroke="#63b8ff" points="320.81,-380.67 311.61,-385.93 322.08,-387.56 320.81,-380.67"/>
</g>
<!-- Node5 -->
<g id="node5" class="node">
<title>Node5</title>
<g id="a_node5"><a xlink:href="classMooseBaseParameterInterface.html" target="_top" xlink:title="Every object that can be built by the factory should be derived from this class.">
<polygon fill="white" stroke="#666666" points="364,-363.5 185,-363.5 185,-344.5 364,-344.5 364,-363.5"/>
<text text-anchor="middle" x="274.5" y="-351.5" font-family="Courier,monospace" font-size="10.00">MooseBaseParameterInterface</text>
</a>
</g>
</g>
<!-- Node5&#45;&gt;Node3 -->
<g id="edge4" class="edge">
<title>Node5&#45;&gt;Node3</title>
<path fill="none" stroke="#63b8ff" d="M339.81,-341.98C370.33,-336.28 405.88,-329.64 432.65,-324.63"/>
<polygon fill="#63b8ff" stroke="#63b8ff" points="339.5,-338.48 330.31,-343.76 340.78,-345.36 339.5,-338.48"/>
</g>
<!-- Node6 -->
<g id="node6" class="node">
<title>Node6</title>
<g id="a_node6"><a xlink:href="classMooseBaseErrorInterface.html" target="_top" xlink:title="Interface that provides APIs to output errors/warnings/info messages.">
<polygon fill="white" stroke="#666666" points="352,-326.5 197,-326.5 197,-307.5 352,-307.5 352,-326.5"/>
<text text-anchor="middle" x="274.5" y="-314.5" font-family="Courier,monospace" font-size="10.00">MooseBaseErrorInterface</text>
</a>
</g>
</g>
<!-- Node6&#45;&gt;Node3 -->
<g id="edge5" class="edge">
<title>Node6&#45;&gt;Node3</title>
<path fill="none" stroke="#63b8ff" d="M363.68,-317C387.75,-317 412.68,-317 432.69,-317"/>
<polygon fill="#63b8ff" stroke="#63b8ff" points="363.85,-313.5 353.85,-317 363.85,-320.5 363.85,-313.5"/>
</g>
<!-- Node7 -->
<g id="node7" class="node">
<title>Node7</title>
<g id="a_node7"><a xlink:href="classConsoleStreamInterface.html" target="_top" xlink:title="An inteface for the _console for outputting to the Console object.">
<polygon fill="white" stroke="#666666" points="149,-326.5 0,-326.5 0,-307.5 149,-307.5 149,-326.5"/>
<text text-anchor="middle" x="74.5" y="-314.5" font-family="Courier,monospace" font-size="10.00">ConsoleStreamInterface</text>
</a>
</g>
</g>
<!-- Node7&#45;&gt;Node6 -->
<g id="edge6" class="edge">
<title>Node7&#45;&gt;Node6</title>
<path fill="none" stroke="#63b8ff" d="M160.62,-317C172.62,-317 184.9,-317 196.73,-317"/>
<polygon fill="#63b8ff" stroke="#63b8ff" points="160.74,-313.5 150.74,-317 160.74,-320.5 160.74,-313.5"/>
</g>
<!-- Node8 -->
<g id="node8" class="node">
<title>Node8</title>
<g id="a_node8"><a xlink:title=" ">
<polygon fill="white" stroke="#666666" points="352,-289.5 197,-289.5 197,-270.5 352,-270.5 352,-289.5"/>
<text text-anchor="middle" x="274.5" y="-277.5" font-family="Courier,monospace" font-size="10.00">libMesh::ParallelObject</text>
</a>
</g>
</g>
<!-- Node8&#45;&gt;Node3 -->
<g id="edge7" class="edge">
<title>Node8&#45;&gt;Node3</title>
<path fill="none" stroke="#63b8ff" d="M339.81,-292.02C370.33,-297.72 405.88,-304.36 432.65,-309.37"/>
<polygon fill="#63b8ff" stroke="#63b8ff" points="340.78,-288.64 330.31,-290.24 339.5,-295.52 340.78,-288.64"/>
</g>
<!-- Node9 -->
<g id="node9" class="node">
<title>Node9</title>
<g id="a_node9"><a xlink:href="classDataFileInterface.html" target="_top" xlink:title=" ">
<polygon fill="white" stroke="#666666" points="337,-252 212,-252 212,-222 337,-222 337,-252"/>
<text text-anchor="start" x="220" y="-240" font-family="Courier,monospace" font-size="10.00">DataFileInterface&lt;</text>
<text text-anchor="middle" x="274.5" y="-229" font-family="Courier,monospace" font-size="10.00"> MooseObject &gt;</text>
</a>
</g>
</g>
<!-- Node9&#45;&gt;Node3 -->
<g id="edge8" class="edge">
<title>Node9&#45;&gt;Node3</title>
<path fill="none" stroke="#63b8ff" d="M347.62,-253.85C353.32,-256.23 358.86,-258.94 364,-262 383.71,-273.74 380.08,-287.61 400,-299 409.92,-304.68 421.59,-308.57 432.67,-311.24"/>
<polygon fill="#63b8ff" stroke="#63b8ff" points="349.23,-250.72 338.64,-250.44 346.74,-257.26 349.23,-250.72"/>
</g>
<!-- Node10 -->
<g id="node10" class="node">
<title>Node10</title>
<g id="a_node10"><a xlink:href="classSetupInterface.html" target="_top" xlink:title=" ">
<polygon fill="white" stroke="#666666" points="525,-289.5 424,-289.5 424,-270.5 525,-270.5 525,-289.5"/>
<text text-anchor="middle" x="474.5" y="-277.5" font-family="Courier,monospace" font-size="10.00">SetupInterface</text>
</a>
</g>
</g>
<!-- Node10&#45;&gt;Node2 -->
<g id="edge9" class="edge">
<title>Node10&#45;&gt;Node2</title>
<path fill="none" stroke="#63b8ff" d="M535.9,-267.59C540.42,-265.95 544.84,-264.09 549,-262 592.93,-239.93 634.89,-197.9 652.63,-178.84"/>
<polygon fill="#63b8ff" stroke="#63b8ff" points="535.09,-264.18 526.66,-270.6 537.26,-270.83 535.09,-264.18"/>
</g>
<!-- Node11 -->
<g id="node11" class="node">
<title>Node11</title>
<g id="a_node11"><a xlink:href="classTransientInterface.html" target="_top" xlink:title="Interface for objects that needs transient capabilities.">
<polygon fill="white" stroke="#666666" points="537,-252.5 412,-252.5 412,-233.5 537,-233.5 537,-252.5"/>
<text text-anchor="middle" x="474.5" y="-240.5" font-family="Courier,monospace" font-size="10.00">TransientInterface</text>
</a>
</g>
</g>
<!-- Node11&#45;&gt;Node2 -->
<g id="edge10" class="edge">
<title>Node11&#45;&gt;Node2</title>
<path fill="none" stroke="#63b8ff" d="M533.72,-230.01C538.94,-228.47 544.09,-226.8 549,-225 584.24,-212.1 622.91,-191.25 644.49,-178.96"/>
<polygon fill="#63b8ff" stroke="#63b8ff" points="533.17,-226.54 524.47,-232.6 535.05,-233.28 533.17,-226.54"/>
</g>
<!-- Node12 -->
<g id="node12" class="node">
<title>Node12</title>
<g id="a_node12"><a xlink:href="classPostprocessorInterface.html" target="_top" xlink:title="Interface class for classes which interact with Postprocessors.">
<polygon fill="white" stroke="#666666" points="549,-215.5 400,-215.5 400,-196.5 549,-196.5 549,-215.5"/>
<text text-anchor="middle" x="474.5" y="-203.5" font-family="Courier,monospace" font-size="10.00">PostprocessorInterface</text>
</a>
</g>
</g>
<!-- Node12&#45;&gt;Node2 -->
<g id="edge11" class="edge">
<title>Node12&#45;&gt;Node2</title>
<path fill="none" stroke="#63b8ff" d="M536.53,-193.86C567.63,-187.67 604.16,-180.41 629.66,-175.33"/>
<polygon fill="#63b8ff" stroke="#63b8ff" points="535.95,-190.41 526.83,-195.79 537.32,-197.27 535.95,-190.41"/>
</g>
<!-- Node13 -->
<g id="node13" class="node">
<title>Node13</title>
<g id="a_node13"><a xlink:href="classUserObjectInterface.html" target="_top" xlink:title="Interface for objects that need to use UserObjects.">
<polygon fill="white" stroke="#666666" points="540,-178.5 409,-178.5 409,-159.5 540,-159.5 540,-178.5"/>
<text text-anchor="middle" x="474.5" y="-166.5" font-family="Courier,monospace" font-size="10.00">UserObjectInterface</text>
</a>
</g>
</g>
<!-- Node13&#45;&gt;Node2 -->
<g id="edge12" class="edge">
<title>Node13&#45;&gt;Node2</title>
<path fill="none" stroke="#63b8ff" d="M551.79,-169C578.97,-169 608.12,-169 629.54,-169"/>
<polygon fill="#63b8ff" stroke="#63b8ff" points="551.81,-165.5 541.81,-169 551.81,-172.5 551.81,-165.5"/>
</g>
<!-- Node14 -->
<g id="node14" class="node">
<title>Node14</title>
<g id="a_node14"><a xlink:href="classRestartable.html" target="_top" xlink:title="A class for creating restricted objects.">
<polygon fill="white" stroke="#666666" points="516,-141.5 433,-141.5 433,-122.5 516,-122.5 516,-141.5"/>
<text text-anchor="middle" x="474.5" y="-129.5" font-family="Courier,monospace" font-size="10.00">Restartable</text>
</a>
</g>
</g>
<!-- Node14&#45;&gt;Node2 -->
<g id="edge13" class="edge">
<title>Node14&#45;&gt;Node2</title>
<path fill="none" stroke="#63b8ff" d="M527.54,-142.35C560.36,-148.88 601.7,-157.1 629.71,-162.68"/>
<polygon fill="#63b8ff" stroke="#63b8ff" points="528.29,-138.93 517.8,-140.42 526.93,-145.8 528.29,-138.93"/>
</g>
<!-- Node15 -->
<g id="node15" class="node">
<title>Node15</title>
<g id="a_node15"><a xlink:href="classMeshChangedInterface.html" target="_top" xlink:title="Interface for notifications that the mesh has changed.">
<polygon fill="white" stroke="#666666" points="543,-104.5 406,-104.5 406,-85.5 543,-85.5 543,-104.5"/>
<text text-anchor="middle" x="474.5" y="-92.5" font-family="Courier,monospace" font-size="10.00">MeshChangedInterface</text>
</a>
</g>
</g>
<!-- Node15&#45;&gt;Node2 -->
<g id="edge14" class="edge">
<title>Node15&#45;&gt;Node2</title>
<path fill="none" stroke="#63b8ff" d="M541.69,-109.21C544.2,-110.37 546.65,-111.64 549,-113 569.12,-124.69 564.83,-139.4 585,-151 598.6,-158.82 615.42,-163.25 629.82,-165.75"/>
<polygon fill="#63b8ff" stroke="#63b8ff" points="543.02,-105.97 532.44,-105.5 540.41,-112.47 543.02,-105.97"/>
</g>
<!-- Node16 -->
<g id="node16" class="node">
<title>Node16</title>
<g id="a_node16"><a xlink:href="classScalarCoupleable.html" target="_top" xlink:title="Interface for objects that needs scalar coupling capabilities.">
<polygon fill="white" stroke="#666666" points="531,-67.5 418,-67.5 418,-48.5 531,-48.5 531,-67.5"/>
<text text-anchor="middle" x="474.5" y="-55.5" font-family="Courier,monospace" font-size="10.00">ScalarCoupleable</text>
</a>
</g>
</g>
<!-- Node16&#45;&gt;Node2 -->
<g id="edge15" class="edge">
<title>Node16&#45;&gt;Node2</title>
<path fill="none" stroke="#63b8ff" d="M541.73,-71C544.29,-72.49 546.72,-74.15 549,-76 577.71,-99.3 556.18,-127.83 585,-151 597.55,-161.09 614.78,-165.7 629.71,-167.74"/>
<polygon fill="#63b8ff" stroke="#63b8ff" points="543.29,-67.86 532.77,-66.68 540.26,-74.17 543.29,-67.86"/>
</g>
<!-- Node17 -->
<g id="node17" class="node">
<title>Node17</title>
<g id="a_node17"><a xlink:href="classMoose_1_1FunctorBase.html" target="_top" xlink:title=" ">
<polygon fill="white" stroke="#666666" points="537,-30 412,-30 412,0 537,0 537,-30"/>
<text text-anchor="start" x="420" y="-18" font-family="Courier,monospace" font-size="10.00">Moose::FunctorBase</text>
<text text-anchor="middle" x="474.5" y="-7" font-family="Courier,monospace" font-size="10.00">&lt; Real &gt;</text>
</a>
</g>
</g>
<!-- Node17&#45;&gt;Node2 -->
<g id="edge16" class="edge">
<title>Node17&#45;&gt;Node2</title>
<path fill="none" stroke="#63b8ff" d="M546.69,-36.82C547.48,-37.52 548.25,-38.25 549,-39 585.89,-76.06 546.58,-115.53 585,-151 597.03,-162.11 614.59,-166.75 629.85,-168.56"/>
<polygon fill="#63b8ff" stroke="#63b8ff" points="548.86,-34.07 538.72,-31.01 544.74,-39.73 548.86,-34.07"/>
</g>
<!-- Node18 -->
<g id="node18" class="node">
<title>Node18</title>
<g id="a_node18"><a xlink:href="classMoose_1_1FunctorAbstract.html" target="_top" xlink:title="Abstract base class that can be used to hold collections of functors.">
<polygon fill="white" stroke="#666666" points="349,-24.5 200,-24.5 200,-5.5 349,-5.5 349,-24.5"/>
<text text-anchor="middle" x="274.5" y="-12.5" font-family="Courier,monospace" font-size="10.00">Moose::FunctorAbstract</text>
</a>
</g>
</g>
<!-- Node18&#45;&gt;Node17 -->
<g id="edge17" class="edge">
<title>Node18&#45;&gt;Node17</title>
<path fill="none" stroke="#63b8ff" d="M360.44,-15C377.66,-15 395.46,-15 411.7,-15"/>
<polygon fill="#63b8ff" stroke="#63b8ff" points="360.74,-11.5 350.74,-15 360.74,-18.5 360.74,-11.5"/>
</g>
<!-- Node19 -->
<g id="node19" class="node">
<title>Node19</title>
<g id="a_node19"><a xlink:href="classFaceArgInterface.html" target="_top" xlink:title="A base class interface for both producers and consumers of functor face arguments,...">
<polygon fill="white" stroke="#666666" points="131,-24.5 18,-24.5 18,-5.5 131,-5.5 131,-24.5"/>
<text text-anchor="middle" x="74.5" y="-12.5" font-family="Courier,monospace" font-size="10.00">FaceArgInterface</text>
</a>
</g>
</g>
<!-- Node19&#45;&gt;Node18 -->
<g id="edge18" class="edge">
<title>Node19&#45;&gt;Node18</title>
<path fill="none" stroke="#63b8ff" d="M142.88,-15C161.13,-15 180.98,-15 199.57,-15"/>
<polygon fill="#63b8ff" stroke="#63b8ff" points="142.96,-11.5 132.96,-15 142.96,-18.5 142.96,-11.5"/>
</g>
<!-- Node20 -->
<g id="node20" class="node">
<title>Node20</title>
<g id="a_node20"><a xlink:href="classMooseParsedFunctionBase.html" target="_top" xlink:title="Creates the &#39;vars&#39; and &#39;vals&#39; parameters used by all ParsedFunctions, the parameters provided from th...">
<polygon fill="white" stroke="#666666" points="740,-141.5 585,-141.5 585,-122.5 740,-122.5 740,-141.5"/>
<text text-anchor="middle" x="662.5" y="-129.5" font-family="Courier,monospace" font-size="10.00">MooseParsedFunctionBase</text>
</a>
</g>
</g>
<!-- Node20&#45;&gt;Node1 -->
<g id="edge19" class="edge">
<title>Node20&#45;&gt;Node1</title>
<path fill="none" stroke="#63b8ff" d="M751.56,-140.13C759.58,-140.87 767.69,-141.62 775.67,-142.35"/>
<polygon fill="#63b8ff" stroke="#63b8ff" points="752.08,-136.66 741.8,-139.23 751.43,-143.63 752.08,-136.66"/>
</g>
</g>
</svg>
