<?xml version="1.0" encoding="UTF-8" standalone="no"?>
<!DOCTYPE svg PUBLIC "-//W3C//DTD SVG 1.1//EN"
 "http://www.w3.org/Graphics/SVG/1.1/DTD/svg11.dtd">
<!-- Generated by graphviz version 7.0.5 (20221223.1930)
 -->
<!-- Title: GeneralReporter Pages: 1 -->
<!--zoomable 879 -->
<svg id="main" version="1.1" xmlns="http://www.w3.org/2000/svg" xmlns:xlink="http://www.w3.org/1999/xlink" xml:space="preserve" onload="init(evt)">
<style type="text/css"><![CDATA[
.edge:hover path { stroke: red; }
.edge:hover polygon { stroke: red; fill: red; }
]]></style>
<script type="text/javascript"><![CDATA[
var edges = document.getElementsByTagName('g');
if (edges && edges.length) {
  for (var i=0;i<edges.length;i++) {
    if (edges[i].id.substr(0,4)=='edge') {
      edges[i].setAttribute('class','edge');
    }
  }
}
]]></script>
        <defs>
                <circle id="rim" cx="0" cy="0" r="7"/>
                <circle id="rim2" cx="0" cy="0" r="3.5"/>
                <g id="zoomPlus">
                        <use xlink:href="#rim" fill="#404040">
                                <set attributeName="fill" to="#808080" begin="zoomplus.mouseover" end="zoomplus.mouseout"/>
                        </use>
                        <path d="M-4,0h8M0,-4v8" fill="none" stroke="white" stroke-width="1.5" pointer-events="none"/>
                </g>
                <g id="zoomMin">
                        <use xlink:href="#rim" fill="#404040">
                                <set attributeName="fill" to="#808080" begin="zoomminus.mouseover" end="zoomminus.mouseout"/>
                        </use>
                        <path d="M-4,0h8" fill="none" stroke="white" stroke-width="1.5" pointer-events="none"/>
                </g>
                <g id="dirArrow">
                        <path fill="none" stroke="white" stroke-width="1.5" d="M0,-3.0v7 M-2.5,-0.5L0,-3.0L2.5,-0.5"/>
                </g>
               <g id="resetDef">
                       <use xlink:href="#rim2" fill="#404040">
                               <set attributeName="fill" to="#808080" begin="reset.mouseover" end="reset.mouseout"/>
                       </use>
               </g>
        </defs>

<script type="text/javascript">
var viewWidth = 1530;
var viewHeight = 879;
var sectionId = 'dynsection-0';
</script>
<script xlink:href="svgpan.js"/>
<svg id="graph" class="graph">
<g id="viewport">
<title>GeneralReporter</title>
<!-- Node1 -->
<g id="node1" class="node">
<title>Node1</title>
<g id="a_node1"><a xlink:title="Reporter object that has a single execution of the &quot;execute&quot; method for for each execute flag.">
<polygon fill="#999999" stroke="#666666" points="1086,-463 979,-463 979,-444 1086,-444 1086,-463"/>
<text text-anchor="middle" x="1032.5" y="-451" font-family="Courier,monospace" font-size="10.00">GeneralReporter</text>
</a>
</g>
</g>
<!-- Node29 -->
<g id="node29" class="node">
<title>Node29</title>
<g id="a_node29"><a xlink:href="classAccumulateReporter.html" target="_top" xlink:title=" ">
<polygon fill="white" stroke="#666666" points="1271,-660 1146,-660 1146,-641 1271,-641 1271,-660"/>
<text text-anchor="middle" x="1208.5" y="-648" font-family="Courier,monospace" font-size="10.00">AccumulateReporter</text>
</a>
</g>
</g>
<!-- Node1&#45;&gt;Node29 -->
<g id="edge28" class="edge">
<title>Node1&#45;&gt;Node29</title>
<path fill="none" stroke="#63b8ff" d="M1037.55,-474.19C1046.07,-511.95 1069.57,-591.85 1122,-632.5 1128.95,-637.89 1137.14,-641.76 1145.66,-644.53"/>
<polygon fill="#63b8ff" stroke="#63b8ff" points="1041.02,-473.67 1035.53,-464.61 1034.17,-475.11 1041.02,-473.67"/>
</g>
<!-- Node30 -->
<g id="node30" class="node">
<title>Node30</title>
<g id="a_node30"><a xlink:href="classConstantReporter.html" target="_top" xlink:title=" ">
<polygon fill="white" stroke="#666666" points="1265,-623 1152,-623 1152,-604 1265,-604 1265,-623"/>
<text text-anchor="middle" x="1208.5" y="-611" font-family="Courier,monospace" font-size="10.00">ConstantReporter</text>
</a>
</g>
</g>
<!-- Node1&#45;&gt;Node30 -->
<g id="edge29" class="edge">
<title>Node1&#45;&gt;Node30</title>
<path fill="none" stroke="#63b8ff" d="M1040.26,-473.84C1051.78,-505.2 1078.31,-564.93 1122,-595.5 1130.82,-601.67 1141.33,-605.81 1151.91,-608.56"/>
<polygon fill="#63b8ff" stroke="#63b8ff" points="1043.68,-473.03 1037.07,-464.76 1037.08,-475.35 1043.68,-473.03"/>
</g>
<!-- Node31 -->
<g id="node31" class="node">
<title>Node31</title>
<g id="a_node31"><a xlink:href="classExtraIDIntegralReporter.html" target="_top" xlink:title=" ">
<polygon fill="white" stroke="#666666" points="1286,-586 1131,-586 1131,-567 1286,-567 1286,-586"/>
<text text-anchor="middle" x="1208.5" y="-574" font-family="Courier,monospace" font-size="10.00">ExtraIDIntegralReporter</text>
</a>
</g>
</g>
<!-- Node1&#45;&gt;Node31 -->
<g id="edge30" class="edge">
<title>Node1&#45;&gt;Node31</title>
<path fill="none" stroke="#63b8ff" d="M1044.54,-473.32C1059.05,-497.43 1086.87,-537.49 1122,-558.5 1127.47,-561.77 1133.44,-564.45 1139.61,-566.65"/>
<polygon fill="#63b8ff" stroke="#63b8ff" points="1047.64,-471.69 1039.59,-464.8 1041.59,-475.21 1047.64,-471.69"/>
</g>
<!-- Node32 -->
<g id="node32" class="node">
<title>Node32</title>
<g id="a_node32"><a xlink:href="classIterationInfo.html" target="_top" xlink:title="Report the time and iteration information for the simulation.">
<polygon fill="white" stroke="#666666" points="1256,-549 1161,-549 1161,-530 1256,-530 1256,-549"/>
<text text-anchor="middle" x="1208.5" y="-537" font-family="Courier,monospace" font-size="10.00">IterationInfo</text>
</a>
</g>
</g>
<!-- Node1&#45;&gt;Node32 -->
<g id="edge31" class="edge">
<title>Node1&#45;&gt;Node32</title>
<path fill="none" stroke="#63b8ff" d="M1051.77,-471.13C1068.66,-486.45 1095.14,-508.07 1122,-520.5 1134.01,-526.05 1147.73,-530.03 1160.61,-532.85"/>
<polygon fill="#63b8ff" stroke="#63b8ff" points="1054.24,-468.65 1044.54,-464.4 1049.47,-473.77 1054.24,-468.65"/>
</g>
<!-- Node33 -->
<g id="node33" class="node">
<title>Node33</title>
<g id="a_node33"><a xlink:href="classLibtorchArtificialNeuralNetParameters.html" target="_top" xlink:title="A Reporter which can print the parameter values of a LibtorchArtificialNeuralNetwork from within a Co...">
<polygon fill="white" stroke="#666666" points="1289,-511.5 1128,-511.5 1128,-481.5 1289,-481.5 1289,-511.5"/>
<text text-anchor="start" x="1136" y="-499.5" font-family="Courier,monospace" font-size="10.00">LibtorchArtificialNeural</text>
<text text-anchor="middle" x="1208.5" y="-488.5" font-family="Courier,monospace" font-size="10.00">NetParameters</text>
</a>
</g>
</g>
<!-- Node1&#45;&gt;Node33 -->
<g id="edge32" class="edge">
<title>Node1&#45;&gt;Node33</title>
<path fill="none" stroke="#63b8ff" d="M1084.88,-466.2C1103.69,-470.85 1125.18,-476.16 1144.87,-481.02"/>
<polygon fill="#63b8ff" stroke="#63b8ff" points="1085.87,-462.84 1075.33,-463.84 1084.19,-469.63 1085.87,-462.84"/>
</g>
<!-- Node34 -->
<g id="node34" class="node">
<title>Node34</title>
<g id="a_node34"><a xlink:href="classMeshInfo.html" target="_top" xlink:title="Report mesh information, such as the number of elements, nodes, and degrees of freedom.">
<polygon fill="white" stroke="#666666" points="1241,-463 1176,-463 1176,-444 1241,-444 1241,-463"/>
<text text-anchor="middle" x="1208.5" y="-451" font-family="Courier,monospace" font-size="10.00">MeshInfo</text>
</a>
</g>
</g>
<!-- Node1&#45;&gt;Node34 -->
<g id="edge33" class="edge">
<title>Node1&#45;&gt;Node34</title>
<path fill="none" stroke="#63b8ff" d="M1097.39,-453.5C1124.06,-453.5 1153.86,-453.5 1175.73,-453.5"/>
<polygon fill="#63b8ff" stroke="#63b8ff" points="1097.69,-450 1087.69,-453.5 1097.69,-457 1097.69,-450"/>
</g>
<!-- Node35 -->
<g id="node35" class="node">
<title>Node35</title>
<g id="a_node35"><a xlink:href="classPerfGraphReporter.html" target="_top" xlink:title="Reports the full graph from the PerfGraph.">
<polygon fill="white" stroke="#666666" points="1268,-426 1149,-426 1149,-407 1268,-407 1268,-426"/>
<text text-anchor="middle" x="1208.5" y="-414" font-family="Courier,monospace" font-size="10.00">PerfGraphReporter</text>
</a>
</g>
</g>
<!-- Node1&#45;&gt;Node35 -->
<g id="edge34" class="edge">
<title>Node1&#45;&gt;Node35</title>
<path fill="none" stroke="#63b8ff" d="M1090.93,-441.14C1101.27,-438.92 1111.95,-436.64 1122,-434.5 1134.32,-431.88 1147.63,-429.07 1160.01,-426.46"/>
<polygon fill="#63b8ff" stroke="#63b8ff" points="1090.41,-437.67 1081.36,-443.19 1091.87,-444.51 1090.41,-437.67"/>
</g>
<!-- Node36 -->
<g id="node36" class="node">
<title>Node36</title>
<g id="a_node36"><a xlink:href="classPositions.html" target="_top" xlink:title="Positions objects are under the hood Reporters.">
<polygon fill="white" stroke="#666666" points="1244,-389 1173,-389 1173,-370 1244,-370 1244,-389"/>
<text text-anchor="middle" x="1208.5" y="-377" font-family="Courier,monospace" font-size="10.00">Positions</text>
</a>
</g>
</g>
<!-- Node1&#45;&gt;Node36 -->
<g id="edge35" class="edge">
<title>Node1&#45;&gt;Node36</title>
<path fill="none" stroke="#63b8ff" d="M1055.05,-436.76C1072.27,-424.17 1097.5,-407.45 1122,-397.5 1138.02,-390.99 1156.73,-386.71 1172.55,-383.96"/>
<polygon fill="#63b8ff" stroke="#63b8ff" points="1053.02,-433.91 1047.11,-442.7 1057.22,-439.51 1053.02,-433.91"/>
</g>
<!-- Node44 -->
<g id="node44" class="node">
<title>Node44</title>
<g id="a_node44"><a xlink:href="classRestartableDataReporter.html" target="_top" xlink:title="Reports restartable data and restartable meta data.">
<polygon fill="white" stroke="#666666" points="1286,-352 1131,-352 1131,-333 1286,-333 1286,-352"/>
<text text-anchor="middle" x="1208.5" y="-340" font-family="Courier,monospace" font-size="10.00">RestartableDataReporter</text>
</a>
</g>
</g>
<!-- Node1&#45;&gt;Node44 -->
<g id="edge43" class="edge">
<title>Node1&#45;&gt;Node44</title>
<path fill="none" stroke="#63b8ff" d="M1046.21,-434.39C1061.54,-412.92 1089.38,-378.7 1122,-360.5 1127.83,-357.25 1134.18,-354.58 1140.7,-352.4"/>
<polygon fill="#63b8ff" stroke="#63b8ff" points="1043.38,-432.32 1040.58,-442.54 1049.14,-436.3 1043.38,-432.32"/>
</g>
<!-- Node46 -->
<g id="node46" class="node">
<title>Node46</title>
<g id="a_node46"><a xlink:href="classSolutionInvalidityReporter.html" target="_top" xlink:title="Reports the summary table of solution invalid warnings.">
<polygon fill="white" stroke="#666666" points="1295,-315 1122,-315 1122,-296 1295,-296 1295,-315"/>
<text text-anchor="middle" x="1208.5" y="-303" font-family="Courier,monospace" font-size="10.00">SolutionInvalidityReporter</text>
</a>
</g>
</g>
<!-- Node1&#45;&gt;Node46 -->
<g id="edge45" class="edge">
<title>Node1&#45;&gt;Node46</title>
<path fill="none" stroke="#63b8ff" d="M1041.44,-433.25C1053.95,-404.12 1081.13,-350.88 1122,-323.5 1126.79,-320.29 1132.04,-317.64 1137.51,-315.45"/>
<polygon fill="#63b8ff" stroke="#63b8ff" points="1038.24,-431.81 1037.68,-442.39 1044.72,-434.47 1038.24,-431.81"/>
</g>
<!-- Node47 -->
<g id="node47" class="node">
<title>Node47</title>
<g id="a_node47"><a xlink:href="classTimes.html" target="_top" xlink:title="Times objects are under the hood Reporters, but limited to a vector of Real.">
<polygon fill="white" stroke="#666666" points="1232,-149 1185,-149 1185,-130 1232,-130 1232,-149"/>
<text text-anchor="middle" x="1208.5" y="-137" font-family="Courier,monospace" font-size="10.00">Times</text>
</a>
</g>
</g>
<!-- Node1&#45;&gt;Node47 -->
<g id="edge46" class="edge">
<title>Node1&#45;&gt;Node47</title>
<path fill="none" stroke="#63b8ff" d="M1043.75,-433.55C1059.98,-402.1 1092.77,-339.13 1122,-286.5 1150.96,-234.37 1187.45,-172.98 1201.56,-149.4"/>
<polygon fill="#63b8ff" stroke="#63b8ff" points="1040.71,-431.8 1039.25,-442.29 1046.94,-435.01 1040.71,-431.8"/>
</g>
<!-- Node2 -->
<g id="node2" class="node">
<title>Node2</title>
<g id="a_node2"><a xlink:href="classGeneralUserObject.html" target="_top" xlink:title=" ">
<polygon fill="white" stroke="#666666" points="943,-491 824,-491 824,-472 943,-472 943,-491"/>
<text text-anchor="middle" x="883.5" y="-479" font-family="Courier,monospace" font-size="10.00">GeneralUserObject</text>
</a>
</g>
</g>
<!-- Node2&#45;&gt;Node1 -->
<g id="edge1" class="edge">
<title>Node2&#45;&gt;Node1</title>
<path fill="none" stroke="#63b8ff" d="M947.98,-469.41C958.48,-467.41 969.25,-465.36 979.43,-463.42"/>
<polygon fill="#63b8ff" stroke="#63b8ff" points="947.4,-465.96 938.23,-471.27 948.71,-472.83 947.4,-465.96"/>
</g>
<!-- Node3 -->
<g id="node3" class="node">
<title>Node3</title>
<g id="a_node3"><a xlink:href="classUserObject.html" target="_top" xlink:title="Base class for user&#45;specific data.">
<polygon fill="white" stroke="#666666" points="743,-538 666,-538 666,-519 743,-519 743,-538"/>
<text text-anchor="middle" x="704.5" y="-526" font-family="Courier,monospace" font-size="10.00">UserObject</text>
</a>
</g>
</g>
<!-- Node3&#45;&gt;Node2 -->
<g id="edge2" class="edge">
<title>Node3&#45;&gt;Node2</title>
<path fill="none" stroke="#63b8ff" d="M754.65,-518.48C765.66,-516.04 777.26,-513.31 788,-510.5 809.75,-504.8 833.98,-497.34 852.47,-491.41"/>
<polygon fill="#63b8ff" stroke="#63b8ff" points="753.95,-515.05 744.92,-520.59 755.44,-521.89 753.95,-515.05"/>
</g>
<!-- Node4 -->
<g id="node4" class="node">
<title>Node4</title>
<g id="a_node4"><a xlink:href="classMooseObject.html" target="_top" xlink:title="Every object that can be built by the factory should be derived from this class.">
<polygon fill="white" stroke="#666666" points="534,-797 451,-797 451,-778 534,-778 534,-797"/>
<text text-anchor="middle" x="492.5" y="-785" font-family="Courier,monospace" font-size="10.00">MooseObject</text>
</a>
</g>
</g>
<!-- Node4&#45;&gt;Node3 -->
<g id="edge3" class="edge">
<title>Node4&#45;&gt;Node3</title>
<path fill="none" stroke="#63b8ff" d="M545.21,-785.65C559.23,-783.04 573.64,-778.2 585,-769.5 666.04,-707.38 695.15,-575.17 701.87,-538.25"/>
<polygon fill="#63b8ff" stroke="#63b8ff" points="545,-782.14 535.62,-787.07 546.03,-789.07 545,-782.14"/>
</g>
<!-- Node5 -->
<g id="node5" class="node">
<title>Node5</title>
<g id="a_node5"><a xlink:href="classMooseBase.html" target="_top" xlink:title="Base class for everything in MOOSE with a name and a type.">
<polygon fill="white" stroke="#666666" points="310,-871 239,-871 239,-852 310,-852 310,-871"/>
<text text-anchor="middle" x="274.5" y="-859" font-family="Courier,monospace" font-size="10.00">MooseBase</text>
</a>
</g>
</g>
<!-- Node5&#45;&gt;Node4 -->
<g id="edge4" class="edge">
<title>Node5&#45;&gt;Node4</title>
<path fill="none" stroke="#63b8ff" d="M321.62,-854.05C335.41,-851.31 350.46,-847.8 364,-843.5 403.87,-830.85 448.08,-809.72 472.56,-797.35"/>
<polygon fill="#63b8ff" stroke="#63b8ff" points="321.06,-850.59 311.89,-855.89 322.36,-857.47 321.06,-850.59"/>
</g>
<!-- Node6 -->
<g id="node6" class="node">
<title>Node6</title>
<g id="a_node6"><a xlink:href="classMooseBaseParameterInterface.html" target="_top" xlink:title="Every object that can be built by the factory should be derived from this class.">
<polygon fill="white" stroke="#666666" points="364,-834 185,-834 185,-815 364,-815 364,-834"/>
<text text-anchor="middle" x="274.5" y="-822" font-family="Courier,monospace" font-size="10.00">MooseBaseParameterInterface</text>
</a>
</g>
</g>
<!-- Node6&#45;&gt;Node4 -->
<g id="edge5" class="edge">
<title>Node6&#45;&gt;Node4</title>
<path fill="none" stroke="#63b8ff" d="M344.77,-812.63C379.7,-806.65 420.85,-799.6 450.68,-794.49"/>
<polygon fill="#63b8ff" stroke="#63b8ff" points="344.43,-809.14 335.16,-814.28 345.61,-816.04 344.43,-809.14"/>
</g>
<!-- Node7 -->
<g id="node7" class="node">
<title>Node7</title>
<g id="a_node7"><a xlink:href="classMooseBaseErrorInterface.html" target="_top" xlink:title="Interface that provides APIs to output errors/warnings/info messages.">
<polygon fill="white" stroke="#666666" points="352,-797 197,-797 197,-778 352,-778 352,-797"/>
<text text-anchor="middle" x="274.5" y="-785" font-family="Courier,monospace" font-size="10.00">MooseBaseErrorInterface</text>
</a>
</g>
</g>
<!-- Node7&#45;&gt;Node4 -->
<g id="edge6" class="edge">
<title>Node7&#45;&gt;Node4</title>
<path fill="none" stroke="#63b8ff" d="M363.7,-787.5C393.87,-787.5 426.17,-787.5 450.75,-787.5"/>
<polygon fill="#63b8ff" stroke="#63b8ff" points="363.78,-784 353.78,-787.5 363.78,-791 363.78,-784"/>
</g>
<!-- Node8 -->
<g id="node8" class="node">
<title>Node8</title>
<g id="a_node8"><a xlink:href="classConsoleStreamInterface.html" target="_top" xlink:title="An inteface for the _console for outputting to the Console object.">
<polygon fill="white" stroke="#666666" points="149,-797 0,-797 0,-778 149,-778 149,-797"/>
<text text-anchor="middle" x="74.5" y="-785" font-family="Courier,monospace" font-size="10.00">ConsoleStreamInterface</text>
</a>
</g>
</g>
<!-- Node8&#45;&gt;Node7 -->
<g id="edge7" class="edge">
<title>Node8&#45;&gt;Node7</title>
<path fill="none" stroke="#63b8ff" d="M160.62,-787.5C172.62,-787.5 184.9,-787.5 196.73,-787.5"/>
<polygon fill="#63b8ff" stroke="#63b8ff" points="160.74,-784 150.74,-787.5 160.74,-791 160.74,-784"/>
</g>
<!-- Node9 -->
<g id="node9" class="node">
<title>Node9</title>
<g id="a_node9"><a xlink:title=" ">
<polygon fill="white" stroke="#666666" points="352,-760 197,-760 197,-741 352,-741 352,-760"/>
<text text-anchor="middle" x="274.5" y="-748" font-family="Courier,monospace" font-size="10.00">libMesh::ParallelObject</text>
</a>
</g>
</g>
<!-- Node9&#45;&gt;Node4 -->
<g id="edge8" class="edge">
<title>Node9&#45;&gt;Node4</title>
<path fill="none" stroke="#63b8ff" d="M344.77,-762.37C379.7,-768.35 420.85,-775.4 450.68,-780.51"/>
<polygon fill="#63b8ff" stroke="#63b8ff" points="345.61,-758.96 335.16,-760.72 344.43,-765.86 345.61,-758.96"/>
</g>
<!-- Node10 -->
<g id="node10" class="node">
<title>Node10</title>
<g id="a_node10"><a xlink:href="classDataFileInterface.html" target="_top" xlink:title=" ">
<polygon fill="white" stroke="#666666" points="337,-722.5 212,-722.5 212,-692.5 337,-692.5 337,-722.5"/>
<text text-anchor="start" x="220" y="-710.5" font-family="Courier,monospace" font-size="10.00">DataFileInterface&lt;</text>
<text text-anchor="middle" x="274.5" y="-699.5" font-family="Courier,monospace" font-size="10.00"> MooseObject &gt;</text>
</a>
</g>
</g>
<!-- Node10&#45;&gt;Node4 -->
<g id="edge9" class="edge">
<title>Node10&#45;&gt;Node4</title>
<path fill="none" stroke="#63b8ff" d="M347.62,-724.35C353.32,-726.73 358.86,-729.44 364,-732.5 383.71,-744.24 379.83,-758.57 400,-769.5 415.37,-777.83 434.06,-782.34 450.53,-784.76"/>
<polygon fill="#63b8ff" stroke="#63b8ff" points="349.23,-721.22 338.64,-720.94 346.74,-727.76 349.23,-721.22"/>
</g>
<!-- Node11 -->
<g id="node11" class="node">
<title>Node11</title>
<g id="a_node11"><a xlink:href="classSetupInterface.html" target="_top" xlink:title=" ">
<polygon fill="white" stroke="#666666" points="543,-760 442,-760 442,-741 543,-741 543,-760"/>
<text text-anchor="middle" x="492.5" y="-748" font-family="Courier,monospace" font-size="10.00">SetupInterface</text>
</a>
</g>
</g>
<!-- Node11&#45;&gt;Node3 -->
<g id="edge10" class="edge">
<title>Node11&#45;&gt;Node3</title>
<path fill="none" stroke="#63b8ff" d="M554.08,-746.1C565.06,-743.28 575.9,-738.99 585,-732.5 657.03,-681.14 691.87,-571.22 701,-538.12"/>
<polygon fill="#63b8ff" stroke="#63b8ff" points="553.64,-742.62 544.59,-748.13 555.1,-749.46 553.64,-742.62"/>
</g>
<!-- Node12 -->
<g id="node12" class="node">
<title>Node12</title>
<g id="a_node12"><a xlink:href="classFunctionInterface.html" target="_top" xlink:title="Interface for objects that need to use functions.">
<polygon fill="white" stroke="#666666" points="552,-723 433,-723 433,-704 552,-704 552,-723"/>
<text text-anchor="middle" x="492.5" y="-711" font-family="Courier,monospace" font-size="10.00">FunctionInterface</text>
</a>
</g>
</g>
<!-- Node12&#45;&gt;Node3 -->
<g id="edge11" class="edge">
<title>Node12&#45;&gt;Node3</title>
<path fill="none" stroke="darkgreen" d="M563.19,-705.66C570.89,-703.12 578.35,-699.8 585,-695.5 647.99,-654.77 687.65,-567.73 699.64,-538.39"/>
<polygon fill="darkgreen" stroke="darkgreen" points="562.31,-702.28 553.64,-708.37 564.22,-709.01 562.31,-702.28"/>
</g>
<!-- Node13 -->
<g id="node13" class="node">
<title>Node13</title>
<g id="a_node13"><a xlink:href="classUserObjectInterface.html" target="_top" xlink:title="Interface for objects that need to use UserObjects.">
<polygon fill="white" stroke="#666666" points="558,-686 427,-686 427,-667 558,-667 558,-686"/>
<text text-anchor="middle" x="492.5" y="-674" font-family="Courier,monospace" font-size="10.00">UserObjectInterface</text>
</a>
</g>
</g>
<!-- Node13&#45;&gt;Node3 -->
<g id="edge12" class="edge">
<title>Node13&#45;&gt;Node3</title>
<path fill="none" stroke="#63b8ff" d="M569.14,-665.69C574.66,-663.68 580.01,-661.31 585,-658.5 639.55,-627.78 682.72,-562.9 697.76,-538.26"/>
<polygon fill="#63b8ff" stroke="#63b8ff" points="568.27,-662.3 559.8,-668.66 570.39,-668.97 568.27,-662.3"/>
</g>
<!-- Node14 -->
<g id="node14" class="node">
<title>Node14</title>
<g id="a_node14"><a xlink:href="classPostprocessorInterface.html" target="_top" xlink:title="Interface class for classes which interact with Postprocessors.">
<polygon fill="white" stroke="#666666" points="567,-649 418,-649 418,-630 567,-630 567,-649"/>
<text text-anchor="middle" x="492.5" y="-637" font-family="Courier,monospace" font-size="10.00">PostprocessorInterface</text>
</a>
</g>
</g>
<!-- Node14&#45;&gt;Node3 -->
<g id="edge13" class="edge">
<title>Node14&#45;&gt;Node3</title>
<path fill="none" stroke="darkgreen" d="M573.33,-626.18C577.33,-624.78 581.25,-623.22 585,-621.5 631.36,-600.25 675.85,-557.41 694.42,-538.2"/>
<polygon fill="darkgreen" stroke="darkgreen" points="572.5,-622.78 564.01,-629.12 574.6,-629.45 572.5,-622.78"/>
</g>
<!-- Node15 -->
<g id="node15" class="node">
<title>Node15</title>
<g id="a_node15"><a xlink:href="classVectorPostprocessorInterface.html" target="_top" xlink:title=" ">
<polygon fill="white" stroke="#666666" points="585,-612 400,-612 400,-593 585,-593 585,-612"/>
<text text-anchor="middle" x="492.5" y="-600" font-family="Courier,monospace" font-size="10.00">VectorPostprocessorInterface</text>
</a>
</g>
</g>
<!-- Node15&#45;&gt;Node3 -->
<g id="edge14" class="edge">
<title>Node15&#45;&gt;Node3</title>
<path fill="none" stroke="darkgreen" d="M566,-589.97C572.48,-588.33 578.89,-586.51 585,-584.5 622.39,-572.2 663.36,-550.95 686,-538.46"/>
<polygon fill="darkgreen" stroke="darkgreen" points="565.47,-586.5 556.54,-592.21 567.08,-593.31 565.47,-586.5"/>
</g>
<!-- Node16 -->
<g id="node16" class="node">
<title>Node16</title>
<g id="a_node16"><a xlink:href="classReporterInterface.html" target="_top" xlink:title="Interface to allow object to consume Reporter values.">
<polygon fill="white" stroke="#666666" points="552,-575 433,-575 433,-556 552,-556 552,-575"/>
<text text-anchor="middle" x="492.5" y="-563" font-family="Courier,monospace" font-size="10.00">ReporterInterface</text>
</a>
</g>
</g>
<!-- Node16&#45;&gt;Node3 -->
<g id="edge15" class="edge">
<title>Node16&#45;&gt;Node3</title>
<path fill="none" stroke="darkgreen" d="M561.07,-553.6C595.74,-547.49 636.68,-540.27 665.75,-535.15"/>
<polygon fill="darkgreen" stroke="darkgreen" points="560.78,-550.09 551.54,-555.27 562,-556.99 560.78,-550.09"/>
</g>
<!-- Node17 -->
<g id="node17" class="node">
<title>Node17</title>
<g id="a_node17"><a xlink:href="classDistributionInterface.html" target="_top" xlink:title="Interface for objects that need to use distributions.">
<polygon fill="white" stroke="#666666" points="564,-538 421,-538 421,-519 564,-519 564,-538"/>
<text text-anchor="middle" x="492.5" y="-526" font-family="Courier,monospace" font-size="10.00">DistributionInterface</text>
</a>
</g>
</g>
<!-- Node17&#45;&gt;Node3 -->
<g id="edge16" class="edge">
<title>Node17&#45;&gt;Node3</title>
<path fill="none" stroke="darkgreen" d="M575.61,-528.5C606.7,-528.5 640.61,-528.5 665.69,-528.5"/>
<polygon fill="darkgreen" stroke="darkgreen" points="575.82,-525 565.82,-528.5 575.82,-532 575.82,-525"/>
</g>
<!-- Node18 -->
<g id="node18" class="node">
<title>Node18</title>
<g id="a_node18"><a xlink:href="classSamplerInterface.html" target="_top" xlink:title="Interface for objects that need to use samplers.">
<polygon fill="white" stroke="#666666" points="549,-501 436,-501 436,-482 549,-482 549,-501"/>
<text text-anchor="middle" x="492.5" y="-489" font-family="Courier,monospace" font-size="10.00">SamplerInterface</text>
</a>
</g>
</g>
<!-- Node18&#45;&gt;Node3 -->
<g id="edge17" class="edge">
<title>Node18&#45;&gt;Node3</title>
<path fill="none" stroke="darkgreen" d="M560.29,-503.27C595.13,-509.41 636.48,-516.69 665.77,-521.85"/>
<polygon fill="darkgreen" stroke="darkgreen" points="561.17,-499.87 550.72,-501.58 559.96,-506.76 561.17,-499.87"/>
</g>
<!-- Node19 -->
<g id="node19" class="node">
<title>Node19</title>
<g id="a_node19"><a xlink:href="classRestartable.html" target="_top" xlink:title="A class for creating restricted objects.">
<polygon fill="white" stroke="#666666" points="534,-464 451,-464 451,-445 534,-445 534,-464"/>
<text text-anchor="middle" x="492.5" y="-452" font-family="Courier,monospace" font-size="10.00">Restartable</text>
</a>
</g>
</g>
<!-- Node19&#45;&gt;Node3 -->
<g id="edge18" class="edge">
<title>Node19&#45;&gt;Node3</title>
<path fill="none" stroke="darkgreen" d="M545.23,-458.96C558.76,-461.63 572.92,-465.85 585,-472.5 605.38,-483.72 600.74,-499.07 621,-510.5 634.53,-518.14 651.01,-522.53 665.66,-525.07"/>
<polygon fill="darkgreen" stroke="darkgreen" points="546.01,-455.55 535.56,-457.32 544.84,-462.45 546.01,-455.55"/>
</g>
<!-- Node20 -->
<g id="node20" class="node">
<title>Node20</title>
<g id="a_node20"><a xlink:href="classMeshMetaDataInterface.html" target="_top" xlink:title="The Interface used to retrieve mesh meta data (attributes) set by the MeshGenerator system.">
<polygon fill="white" stroke="#666666" points="564,-427 421,-427 421,-408 564,-408 564,-427"/>
<text text-anchor="middle" x="492.5" y="-415" font-family="Courier,monospace" font-size="10.00">MeshMetaDataInterface</text>
</a>
</g>
</g>
<!-- Node20&#45;&gt;Node3 -->
<g id="edge19" class="edge">
<title>Node20&#45;&gt;Node3</title>
<path fill="none" stroke="darkgreen" d="M574.84,-429.02C578.42,-430.9 581.83,-433.05 585,-435.5 614.24,-458.13 592,-487.57 621,-510.5 633.53,-520.41 650.35,-525.15 665.53,-527.31"/>
<polygon fill="darkgreen" stroke="darkgreen" points="576.33,-425.86 565.77,-425.03 573.51,-432.26 576.33,-425.86"/>
</g>
<!-- Node21 -->
<g id="node21" class="node">
<title>Node21</title>
<g id="a_node21"><a xlink:href="classMeshChangedInterface.html" target="_top" xlink:title="Interface for notifications that the mesh has changed.">
<polygon fill="white" stroke="#666666" points="561,-390 424,-390 424,-371 561,-371 561,-390"/>
<text text-anchor="middle" x="492.5" y="-378" font-family="Courier,monospace" font-size="10.00">MeshChangedInterface</text>
</a>
</g>
</g>
<!-- Node21&#45;&gt;Node3 -->
<g id="edge20" class="edge">
<title>Node21&#45;&gt;Node3</title>
<path fill="none" stroke="darkgreen" d="M571.63,-389.54C576.46,-391.97 580.98,-394.92 585,-398.5 624.07,-433.25 582.29,-475.35 621,-510.5 633.05,-521.44 650.16,-526.28 665.67,-528.25"/>
<polygon fill="darkgreen" stroke="darkgreen" points="573.35,-386.46 562.77,-385.84 570.65,-392.92 573.35,-386.46"/>
</g>
<!-- Node22 -->
<g id="node22" class="node">
<title>Node22</title>
<g id="a_node22"><a xlink:href="classScalarCoupleable.html" target="_top" xlink:title="Interface for objects that needs scalar coupling capabilities.">
<polygon fill="white" stroke="#666666" points="549,-353 436,-353 436,-334 549,-334 549,-353"/>
<text text-anchor="middle" x="492.5" y="-341" font-family="Courier,monospace" font-size="10.00">ScalarCoupleable</text>
</a>
</g>
</g>
<!-- Node22&#45;&gt;Node3 -->
<g id="edge21" class="edge">
<title>Node22&#45;&gt;Node3</title>
<path fill="none" stroke="darkgreen" d="M560.1,-347.23C569.33,-350.27 578.03,-354.82 585,-361.5 634.19,-408.63 572.29,-462.87 621,-510.5 632.74,-521.98 650,-526.86 665.7,-528.72"/>
<polygon fill="darkgreen" stroke="darkgreen" points="561.11,-343.88 550.55,-344.7 559.32,-350.65 561.11,-343.88"/>
</g>
<!-- Node23 -->
<g id="node23" class="node">
<title>Node23</title>
<g id="a_node23"><a xlink:href="classPerfGraphInterface.html" target="_top" xlink:title="Interface for objects interacting with the PerfGraph.">
<polygon fill="white" stroke="#666666" points="555,-316 430,-316 430,-297 555,-297 555,-316"/>
<text text-anchor="middle" x="492.5" y="-304" font-family="Courier,monospace" font-size="10.00">PerfGraphInterface</text>
</a>
</g>
</g>
<!-- Node23&#45;&gt;Node3 -->
<g id="edge22" class="edge">
<title>Node23&#45;&gt;Node3</title>
<path fill="none" stroke="darkgreen" d="M565.82,-312C572.95,-314.97 579.55,-319.03 585,-324.5 644.45,-384.13 562.17,-450.26 621,-510.5 632.57,-522.35 650.01,-527.25 665.87,-529.02"/>
<polygon fill="darkgreen" stroke="darkgreen" points="567.1,-308.73 556.51,-308.85 564.86,-315.36 567.1,-308.73"/>
</g>
<!-- Node24 -->
<g id="node24" class="node">
<title>Node24</title>
<g id="a_node24"><a xlink:href="classDependencyResolverInterface.html" target="_top" xlink:title="Interface for sorting dependent vectors of objects.">
<polygon fill="white" stroke="#666666" points="582,-279 403,-279 403,-260 582,-260 582,-279"/>
<text text-anchor="middle" x="492.5" y="-267" font-family="Courier,monospace" font-size="10.00">DependencyResolverInterface</text>
</a>
</g>
</g>
<!-- Node24&#45;&gt;Node3 -->
<g id="edge23" class="edge">
<title>Node24&#45;&gt;Node3</title>
<path fill="none" stroke="#63b8ff" d="M583.84,-286.34C584.23,-286.72 584.62,-287.11 585,-287.5 654.77,-359.69 551.98,-437.59 621,-510.5 632.39,-522.53 649.8,-527.45 665.69,-529.19"/>
<polygon fill="#63b8ff" stroke="#63b8ff" points="586.12,-283.68 576.07,-280.32 581.83,-289.21 586.12,-283.68"/>
</g>
<!-- Node25 -->
<g id="node25" class="node">
<title>Node25</title>
<g id="a_node25"><a xlink:href="classMaterialPropertyInterface.html" target="_top" xlink:title="An interface for accessing Materials.">
<polygon fill="white" stroke="#666666" points="788,-501 621,-501 621,-482 788,-482 788,-501"/>
<text text-anchor="middle" x="704.5" y="-489" font-family="Courier,monospace" font-size="10.00">MaterialPropertyInterface</text>
</a>
</g>
</g>
<!-- Node25&#45;&gt;Node2 -->
<g id="edge24" class="edge">
<title>Node25&#45;&gt;Node2</title>
<path fill="none" stroke="#63b8ff" d="M799.53,-486.19C807.76,-485.72 815.92,-485.26 823.74,-484.82"/>
<polygon fill="#63b8ff" stroke="#63b8ff" points="799.6,-482.68 789.81,-486.74 799.99,-489.67 799.6,-482.68"/>
</g>
<!-- Node26 -->
<g id="node26" class="node">
<title>Node26</title>
<g id="a_node26"><a xlink:href="classTransientInterface.html" target="_top" xlink:title="Interface for objects that needs transient capabilities.">
<polygon fill="white" stroke="#666666" points="767,-464 642,-464 642,-445 767,-445 767,-464"/>
<text text-anchor="middle" x="704.5" y="-452" font-family="Courier,monospace" font-size="10.00">TransientInterface</text>
</a>
</g>
</g>
<!-- Node26&#45;&gt;Node2 -->
<g id="edge25" class="edge">
<title>Node26&#45;&gt;Node2</title>
<path fill="none" stroke="#63b8ff" d="M778.7,-465.67C793.66,-467.95 809.22,-470.32 823.6,-472.52"/>
<polygon fill="#63b8ff" stroke="#63b8ff" points="779.32,-462.22 768.9,-464.17 778.26,-469.14 779.32,-462.22"/>
</g>
<!-- Node27 -->
<g id="node27" class="node">
<title>Node27</title>
<g id="a_node27"><a xlink:href="classReporter.html" target="_top" xlink:title="Reporter objects allow for the declaration of arbitrary data types that are aggregate values for a si...">
<polygon fill="white" stroke="#666666" points="916,-445 851,-445 851,-426 916,-426 916,-445"/>
<text text-anchor="middle" x="883.5" y="-433" font-family="Courier,monospace" font-size="10.00">Reporter</text>
</a>
</g>
</g>
<!-- Node27&#45;&gt;Node1 -->
<g id="edge26" class="edge">
<title>Node27&#45;&gt;Node1</title>
<path fill="none" stroke="#63b8ff" d="M927.56,-440.77C943.52,-442.73 961.82,-444.97 978.57,-447.02"/>
<polygon fill="#63b8ff" stroke="#63b8ff" points="928.25,-437.33 917.9,-439.59 927.4,-444.28 928.25,-437.33"/>
</g>
<!-- Node28 -->
<g id="node28" class="node">
<title>Node28</title>
<g id="a_node28"><a xlink:href="classOutputInterface.html" target="_top" xlink:title="A class to provide an common interface to objects requiring &quot;outputs&quot; option.">
<polygon fill="white" stroke="#666666" points="758,-427 651,-427 651,-408 758,-408 758,-427"/>
<text text-anchor="middle" x="704.5" y="-415" font-family="Courier,monospace" font-size="10.00">OutputInterface</text>
</a>
</g>
</g>
<!-- Node28&#45;&gt;Node27 -->
<g id="edge27" class="edge">
<title>Node28&#45;&gt;Node27</title>
<path fill="none" stroke="#63b8ff" d="M769.31,-423.99C796.92,-426.8 828.01,-429.96 850.61,-432.26"/>
<polygon fill="#63b8ff" stroke="#63b8ff" points="769.94,-420.53 759.63,-423.01 769.23,-427.5 769.94,-420.53"/>
</g>
<!-- Node37 -->
<g id="node37" class="node">
<title>Node37</title>
<g id="a_node37"><a xlink:href="classElementCentroidPositions.html" target="_top" xlink:title="Positions from centroids of elements in the mesh.">
<polygon fill="white" stroke="#666666" points="1507,-537 1346,-537 1346,-518 1507,-518 1507,-537"/>
<text text-anchor="middle" x="1426.5" y="-525" font-family="Courier,monospace" font-size="10.00">ElementCentroidPositions</text>
</a>
</g>
</g>
<!-- Node36&#45;&gt;Node37 -->
<g id="edge36" class="edge">
<title>Node36&#45;&gt;Node37</title>
<path fill="none" stroke="#63b8ff" d="M1255.5,-380.42C1269.62,-382.83 1284.24,-387.8 1295,-397.5 1333.83,-432.51 1291.83,-474.87 1331,-509.5 1335.38,-513.37 1340.33,-516.52 1345.61,-519.07"/>
<polygon fill="#63b8ff" stroke="#63b8ff" points="1256.25,-376.98 1245.88,-379.18 1255.35,-383.93 1256.25,-376.98"/>
</g>
<!-- Node38 -->
<g id="node38" class="node">
<title>Node38</title>
<g id="a_node38"><a xlink:href="classElementGroupCentroidPositions.html" target="_top" xlink:title="Positions from centroids of groups of elements (subdomains, extra element ids) in the mesh.">
<polygon fill="white" stroke="#666666" points="1522,-500 1331,-500 1331,-481 1522,-481 1522,-500"/>
<text text-anchor="middle" x="1426.5" y="-488" font-family="Courier,monospace" font-size="10.00">ElementGroupCentroidPositions</text>
</a>
</g>
</g>
<!-- Node36&#45;&gt;Node38 -->
<g id="edge37" class="edge">
<title>Node36&#45;&gt;Node38</title>
<path fill="none" stroke="#63b8ff" d="M1255.49,-381.48C1269.32,-383.99 1283.79,-388.75 1295,-397.5 1323.83,-420 1302.07,-449.13 1331,-471.5 1335.77,-475.19 1341.06,-478.21 1346.64,-480.69"/>
<polygon fill="#63b8ff" stroke="#63b8ff" points="1256,-378.02 1245.6,-380.07 1255.01,-384.95 1256,-378.02"/>
</g>
<!-- Node39 -->
<g id="node39" class="node">
<title>Node39</title>
<g id="a_node39"><a xlink:href="classFilePositions.html" target="_top" xlink:title="Positions from a file.">
<polygon fill="white" stroke="#666666" points="1474,-463 1379,-463 1379,-444 1474,-444 1474,-463"/>
<text text-anchor="middle" x="1426.5" y="-451" font-family="Courier,monospace" font-size="10.00">FilePositions</text>
</a>
</g>
</g>
<!-- Node36&#45;&gt;Node39 -->
<g id="edge38" class="edge">
<title>Node36&#45;&gt;Node39</title>
<path fill="none" stroke="#63b8ff" d="M1255.37,-384.03C1268.73,-386.68 1282.96,-390.87 1295,-397.5 1315.1,-408.57 1310.85,-423.53 1331,-434.5 1345.55,-442.42 1362.98,-447.06 1378.88,-449.77"/>
<polygon fill="#63b8ff" stroke="#63b8ff" points="1256.35,-380.65 1245.91,-382.4 1255.17,-387.55 1256.35,-380.65"/>
</g>
<!-- Node40 -->
<g id="node40" class="node">
<title>Node40</title>
<g id="a_node40"><a xlink:href="classFunctorPositions.html" target="_top" xlink:title="Positions from groups of three functors.">
<polygon fill="white" stroke="#666666" points="1483,-426 1370,-426 1370,-407 1483,-407 1483,-426"/>
<text text-anchor="middle" x="1426.5" y="-414" font-family="Courier,monospace" font-size="10.00">FunctorPositions</text>
</a>
</g>
</g>
<!-- Node36&#45;&gt;Node40 -->
<g id="edge39" class="edge">
<title>Node36&#45;&gt;Node40</title>
<path fill="none" stroke="#63b8ff" d="M1255.49,-387.38C1288.92,-393.1 1334.33,-400.88 1369.81,-406.96"/>
<polygon fill="#63b8ff" stroke="#63b8ff" points="1256.14,-383.94 1245.7,-385.7 1254.96,-390.84 1256.14,-383.94"/>
</g>
<!-- Node41 -->
<g id="node41" class="node">
<title>Node41</title>
<g id="a_node41"><a xlink:href="classInputPositions.html" target="_top" xlink:title="Simple positions from an input parameter.">
<polygon fill="white" stroke="#666666" points="1477,-389 1376,-389 1376,-370 1477,-370 1477,-389"/>
<text text-anchor="middle" x="1426.5" y="-377" font-family="Courier,monospace" font-size="10.00">InputPositions</text>
</a>
</g>
</g>
<!-- Node36&#45;&gt;Node41 -->
<g id="edge40" class="edge">
<title>Node36&#45;&gt;Node41</title>
<path fill="none" stroke="#63b8ff" d="M1255.62,-379.5C1290.87,-379.5 1339.42,-379.5 1375.58,-379.5"/>
<polygon fill="#63b8ff" stroke="#63b8ff" points="1255.72,-376 1245.72,-379.5 1255.72,-383 1255.72,-376"/>
</g>
<!-- Node42 -->
<g id="node42" class="node">
<title>Node42</title>
<g id="a_node42"><a xlink:href="classMultiAppPositions.html" target="_top" xlink:title="Positions from all the MultiApps.">
<polygon fill="white" stroke="#666666" points="1486,-352 1367,-352 1367,-333 1486,-333 1486,-352"/>
<text text-anchor="middle" x="1426.5" y="-340" font-family="Courier,monospace" font-size="10.00">MultiAppPositions</text>
</a>
</g>
</g>
<!-- Node36&#45;&gt;Node42 -->
<g id="edge41" class="edge">
<title>Node36&#45;&gt;Node42</title>
<path fill="none" stroke="#63b8ff" d="M1255.24,-371.66C1287.9,-366.07 1332.1,-358.5 1367.28,-352.47"/>
<polygon fill="#63b8ff" stroke="#63b8ff" points="1254.96,-368.16 1245.7,-373.3 1256.14,-375.06 1254.96,-368.16"/>
</g>
<!-- Node43 -->
<g id="node43" class="node">
<title>Node43</title>
<g id="a_node43"><a xlink:href="classReporterPositions.html" target="_top" xlink:title="Positions from a Reporter.">
<polygon fill="white" stroke="#666666" points="1486,-315 1367,-315 1367,-296 1486,-296 1486,-315"/>
<text text-anchor="middle" x="1426.5" y="-303" font-family="Courier,monospace" font-size="10.00">ReporterPositions</text>
</a>
</g>
</g>
<!-- Node36&#45;&gt;Node43 -->
<g id="edge42" class="edge">
<title>Node36&#45;&gt;Node43</title>
<path fill="none" stroke="#63b8ff" d="M1255.38,-374.36C1268.74,-371.56 1282.97,-367.21 1295,-360.5 1315.04,-349.32 1310.8,-334.37 1331,-323.5 1341.88,-317.64 1354.37,-313.67 1366.63,-310.98"/>
<polygon fill="#63b8ff" stroke="#63b8ff" points="1255.11,-370.85 1245.91,-376.1 1256.38,-377.74 1255.11,-370.85"/>
</g>
<!-- Node45 -->
<g id="node45" class="node">
<title>Node45</title>
<g id="a_node45"><a xlink:href="classMeshMetaDataReporter.html" target="_top" xlink:title="Reports the mesh meta data.">
<polygon fill="white" stroke="#666666" points="1495,-278 1358,-278 1358,-259 1495,-259 1495,-278"/>
<text text-anchor="middle" x="1426.5" y="-266" font-family="Courier,monospace" font-size="10.00">MeshMetaDataReporter</text>
</a>
</g>
</g>
<!-- Node44&#45;&gt;Node45 -->
<g id="edge44" class="edge">
<title>Node44&#45;&gt;Node45</title>
<path fill="none" stroke="#63b8ff" d="M1284.27,-328.67C1287.98,-327.13 1291.58,-325.41 1295,-323.5 1315.04,-312.32 1310.8,-297.37 1331,-286.5 1339.24,-282.07 1348.39,-278.71 1357.67,-276.18"/>
<polygon fill="#63b8ff" stroke="#63b8ff" points="1283.2,-325.34 1275.01,-332.07 1285.61,-331.91 1283.2,-325.34"/>
</g>
<!-- Node48 -->
<g id="node48" class="node">
<title>Node48</title>
<g id="a_node48"><a xlink:href="classCSVFileTimes.html" target="_top" xlink:title="Times from a file.">
<polygon fill="white" stroke="#666666" points="1471,-241 1382,-241 1382,-222 1471,-222 1471,-241"/>
<text text-anchor="middle" x="1426.5" y="-229" font-family="Courier,monospace" font-size="10.00">CSVFileTimes</text>
</a>
</g>
</g>
<!-- Node47&#45;&gt;Node48 -->
<g id="edge47" class="edge">
<title>Node47&#45;&gt;Node48</title>
<path fill="none" stroke="#63b8ff" d="M1231.63,-156.01C1255.11,-172.73 1293.86,-198.11 1331,-212.5 1347.07,-218.73 1365.51,-223.02 1381.81,-225.93"/>
<polygon fill="#63b8ff" stroke="#63b8ff" points="1233.93,-153.36 1223.78,-150.32 1229.83,-159.02 1233.93,-153.36"/>
</g>
<!-- Node49 -->
<g id="node49" class="node">
<title>Node49</title>
<g id="a_node49"><a xlink:href="classExodusFileTimes.html" target="_top" xlink:title="Times from one or more Exodus files.">
<polygon fill="white" stroke="#666666" points="1480,-204 1373,-204 1373,-185 1480,-185 1480,-204"/>
<text text-anchor="middle" x="1426.5" y="-192" font-family="Courier,monospace" font-size="10.00">ExodusFileTimes</text>
</a>
</g>
</g>
<!-- Node47&#45;&gt;Node49 -->
<g id="edge48" class="edge">
<title>Node47&#45;&gt;Node49</title>
<path fill="none" stroke="#63b8ff" d="M1242.95,-150.29C1267.23,-157.91 1300.95,-168.04 1331,-175.5 1344.48,-178.85 1359.15,-182.02 1372.83,-184.78"/>
<polygon fill="#63b8ff" stroke="#63b8ff" points="1244.21,-147.02 1233.62,-147.34 1242.1,-153.69 1244.21,-147.02"/>
</g>
<!-- Node50 -->
<g id="node50" class="node">
<title>Node50</title>
<g id="a_node50"><a xlink:href="classFunctorTimes.html" target="_top" xlink:title="Times created by evaluating a functor.">
<polygon fill="white" stroke="#666666" points="1471,-167 1382,-167 1382,-148 1471,-148 1471,-167"/>
<text text-anchor="middle" x="1426.5" y="-155" font-family="Courier,monospace" font-size="10.00">FunctorTimes</text>
</a>
</g>
</g>
<!-- Node47&#45;&gt;Node50 -->
<g id="edge49" class="edge">
<title>Node47&#45;&gt;Node50</title>
<path fill="none" stroke="#63b8ff" d="M1243.49,-142.33C1280.88,-145.45 1341.07,-150.46 1381.9,-153.87"/>
<polygon fill="#63b8ff" stroke="#63b8ff" points="1243.97,-138.86 1233.72,-141.52 1243.39,-145.84 1243.97,-138.86"/>
</g>
<!-- Node51 -->
<g id="node51" class="node">
<title>Node51</title>
<g id="a_node51"><a xlink:href="classInputTimes.html" target="_top" xlink:title="Simple times from an input parameter.">
<polygon fill="white" stroke="#666666" points="1465,-130 1388,-130 1388,-111 1465,-111 1465,-130"/>
<text text-anchor="middle" x="1426.5" y="-118" font-family="Courier,monospace" font-size="10.00">InputTimes</text>
</a>
</g>
</g>
<!-- Node47&#45;&gt;Node51 -->
<g id="edge50" class="edge">
<title>Node47&#45;&gt;Node51</title>
<path fill="none" stroke="#63b8ff" d="M1243.51,-136.51C1282.67,-133.06 1346.83,-127.42 1387.58,-123.84"/>
<polygon fill="#63b8ff" stroke="#63b8ff" points="1243.37,-133.01 1233.72,-137.37 1243.98,-139.98 1243.37,-133.01"/>
</g>
<!-- Node52 -->
<g id="node52" class="node">
<title>Node52</title>
<g id="a_node52"><a xlink:href="classReporterTimes.html" target="_top" xlink:title="Times from a Reporter.">
<polygon fill="white" stroke="#666666" points="1474,-93 1379,-93 1379,-74 1474,-74 1474,-93"/>
<text text-anchor="middle" x="1426.5" y="-81" font-family="Courier,monospace" font-size="10.00">ReporterTimes</text>
</a>
</g>
</g>
<!-- Node47&#45;&gt;Node52 -->
<g id="edge51" class="edge">
<title>Node47&#45;&gt;Node52</title>
<path fill="none" stroke="#63b8ff" d="M1242.87,-127.92C1267.12,-119.79 1300.83,-109.06 1331,-101.5 1346.39,-97.64 1363.37,-94.17 1378.64,-91.32"/>
<polygon fill="#63b8ff" stroke="#63b8ff" points="1241.9,-124.56 1233.55,-131.08 1244.15,-131.19 1241.9,-124.56"/>
</g>
<!-- Node53 -->
<g id="node53" class="node">
<title>Node53</title>
<g id="a_node53"><a xlink:href="classSimulationTimes.html" target="_top" xlink:title="Times simulated, obtained from the problem.">
<polygon fill="white" stroke="#666666" points="1480,-56 1373,-56 1373,-37 1480,-37 1480,-56"/>
<text text-anchor="middle" x="1426.5" y="-44" font-family="Courier,monospace" font-size="10.00">SimulationTimes</text>
</a>
</g>
</g>
<!-- Node47&#45;&gt;Node53 -->
<g id="edge52" class="edge">
<title>Node47&#45;&gt;Node53</title>
<path fill="none" stroke="#63b8ff" d="M1230.77,-122.99C1254.08,-105.74 1293.19,-79.19 1331,-64.5 1344.08,-59.42 1358.75,-55.73 1372.56,-53.08"/>
<polygon fill="#63b8ff" stroke="#63b8ff" points="1228.89,-120.03 1223.01,-128.84 1233.11,-125.62 1228.89,-120.03"/>
</g>
<!-- Node54 -->
<g id="node54" class="node">
<title>Node54</title>
<g id="a_node54"><a xlink:href="classTimeIntervalTimes.html" target="_top" xlink:title="Times between a start time and end time with a fixed time interval.">
<polygon fill="white" stroke="#666666" points="1486,-19 1367,-19 1367,0 1486,0 1486,-19"/>
<text text-anchor="middle" x="1426.5" y="-7" font-family="Courier,monospace" font-size="10.00">TimeIntervalTimes</text>
</a>
</g>
</g>
<!-- Node47&#45;&gt;Node54 -->
<g id="edge53" class="edge">
<title>Node47&#45;&gt;Node54</title>
<path fill="none" stroke="#63b8ff" d="M1223.96,-120.8C1244.72,-95.36 1285.53,-50.39 1331,-27.5 1342.04,-21.94 1354.59,-18.09 1366.86,-15.43"/>
<polygon fill="#63b8ff" stroke="#63b8ff" points="1221.22,-118.62 1217.73,-128.62 1226.7,-122.98 1221.22,-118.62"/>
</g>
</g>
</svg>
        <g id="navigator" transform="translate(0 0)" fill="#404254">
                <rect fill="#f2f5e9" fill-opacity="0.5" stroke="#606060" stroke-width=".5" x="0" y="0" width="60" height="60"/>
                <use id="zoomplus" xlink:href="#zoomPlus" x="17" y="9" onmousedown="handleZoom(evt,'in')"/>
                <use id="zoomminus" xlink:href="#zoomMin" x="42" y="9" onmousedown="handleZoom(evt,'out')"/>
                <use id="reset" xlink:href="#resetDef" x="30" y="36" onmousedown="handleReset()"/>
                <g id="arrowUp" xlink:href="#dirArrow" transform="translate(30 24)" onmousedown="handlePan(0,-1)">
                  <use xlink:href="#rim" fill="#404040">
                        <set attributeName="fill" to="#808080" begin="arrowUp.mouseover" end="arrowUp.mouseout"/>
                  </use>
                  <path fill="none" stroke="white" stroke-width="1.5" d="M0,-3.0v7 M-2.5,-0.5L0,-3.0L2.5,-0.5"/>
                </g>
                <g id="arrowRight" xlink:href="#dirArrow" transform="rotate(90) translate(36 -43)" onmousedown="handlePan(1,0)">
                  <use xlink:href="#rim" fill="#404040">
                        <set attributeName="fill" to="#808080" begin="arrowRight.mouseover" end="arrowRight.mouseout"/>
                  </use>
                  <path fill="none" stroke="white" stroke-width="1.5" d="M0,-3.0v7 M-2.5,-0.5L0,-3.0L2.5,-0.5"/>
                </g>
                <g id="arrowDown" xlink:href="#dirArrow" transform="rotate(180) translate(-30 -48)" onmousedown="handlePan(0,1)">
                  <use xlink:href="#rim" fill="#404040">
                        <set attributeName="fill" to="#808080" begin="arrowDown.mouseover" end="arrowDown.mouseout"/>
                  </use>
                  <path fill="none" stroke="white" stroke-width="1.5" d="M0,-3.0v7 M-2.5,-0.5L0,-3.0L2.5,-0.5"/>
                </g>
                <g id="arrowLeft" xlink:href="#dirArrow" transform="rotate(270) translate(-36 17)" onmousedown="handlePan(-1,0)">
                  <use xlink:href="#rim" fill="#404040">
                        <set attributeName="fill" to="#808080" begin="arrowLeft.mouseover" end="arrowLeft.mouseout"/>
                  </use>
                  <path fill="none" stroke="white" stroke-width="1.5" d="M0,-3.0v7 M-2.5,-0.5L0,-3.0L2.5,-0.5"/>
                </g>
        </g>
        <svg viewBox="0 0 15 15" width="100%" height="30px" preserveAspectRatio="xMaxYMin meet">
         <g id="arrow_out" transform="scale(0.3 0.3)">
          <a xlink:href="classGeneralReporter__inherit__graph_org.svg" target="_base">
           <rect id="button" ry="5" rx="5" y="6" x="6" height="38" width="38"
                fill="#f2f5e9" fill-opacity="0.5" stroke="#606060" stroke-width="1.0"/>
           <path id="arrow"
             d="M 11.500037,31.436501 C 11.940474,20.09759 22.043105,11.32322 32.158766,21.979434 L 37.068811,17.246167 C 37.068811,17.246167 37.088388,32 37.088388,32 L 22.160133,31.978069 C 22.160133,31.978069 26.997745,27.140456 26.997745,27.140456 C 18.528582,18.264221 13.291696,25.230495 11.500037,31.436501 z"
             style="fill:#404040;"/>
          </a>
         </g>
        </svg>
</svg>
