<?xml version="1.0" encoding="UTF-8" standalone="no"?>
<!DOCTYPE svg PUBLIC "-//W3C//DTD SVG 1.1//EN"
 "http://www.w3.org/Graphics/SVG/1.1/DTD/svg11.dtd">
<!-- Generated by graphviz version 7.0.5 (20221223.1930)
 -->
<!-- Title: MaterialRateAuxBaseTempl&lt; T, is_ad, RT &gt; Pages: 1 -->
<svg width="1244pt" height="791pt"
 viewBox="0.00 0.00 1244.00 791.00" xmlns="http://www.w3.org/2000/svg" xmlns:xlink="http://www.w3.org/1999/xlink">
<g id="graph0" class="graph" transform="scale(1 1) rotate(0) translate(4 787)">
<title>MaterialRateAuxBaseTempl&lt; T, is_ad, RT &gt;</title>
<!-- Node1 -->
<g id="node1" class="node">
<title>Node1</title>
<g id="a_node1"><a xlink:title="A base class for the various Material related AuxKernal objects.">
<polygon fill="#999999" stroke="#666666" points="1236,-357.5 1075,-357.5 1075,-327.5 1236,-327.5 1236,-357.5"/>
<text text-anchor="start" x="1083" y="-345.5" font-family="Courier,monospace" font-size="10.00">MaterialRateAuxBaseTempl</text>
<text text-anchor="middle" x="1155.5" y="-334.5" font-family="Courier,monospace" font-size="10.00">&lt; T, is_ad, RT &gt;</text>
</a>
</g>
</g>
<!-- Node2 -->
<g id="node2" class="node">
<title>Node2</title>
<g id="a_node2"><a xlink:href="classMaterialAuxBaseTempl.html" target="_top" xlink:title="A base class for the various Material related AuxKernal objects.">
<polygon fill="white" stroke="#666666" points="1039,-357.5 902,-357.5 902,-327.5 1039,-327.5 1039,-357.5"/>
<text text-anchor="start" x="910" y="-345.5" font-family="Courier,monospace" font-size="10.00">MaterialAuxBaseTempl</text>
<text text-anchor="middle" x="970.5" y="-334.5" font-family="Courier,monospace" font-size="10.00">&lt; T, is_ad, RT &gt;</text>
</a>
</g>
</g>
<!-- Node2&#45;&gt;Node1 -->
<g id="edge1" class="edge">
<title>Node2&#45;&gt;Node1</title>
<path fill="none" stroke="#63b8ff" d="M1050.84,-342.5C1058.74,-342.5 1066.77,-342.5 1074.67,-342.5"/>
<polygon fill="#63b8ff" stroke="#63b8ff" points="1050.9,-339 1040.9,-342.5 1050.9,-346 1050.9,-339"/>
</g>
<!-- Node3 -->
<g id="node3" class="node">
<title>Node3</title>
<g id="a_node3"><a xlink:href="classAuxKernelTempl.html" target="_top" xlink:title="Base class for creating new auxiliary kernels and auxiliary boundary conditions.">
<polygon fill="white" stroke="#666666" points="866,-357.5 681,-357.5 681,-327.5 866,-327.5 866,-357.5"/>
<text text-anchor="start" x="689" y="-345.5" font-family="Courier,monospace" font-size="10.00">AuxKernelTempl&lt; ComputeValue</text>
<text text-anchor="middle" x="773.5" y="-334.5" font-family="Courier,monospace" font-size="10.00">Type &gt;</text>
</a>
</g>
</g>
<!-- Node3&#45;&gt;Node2 -->
<g id="edge2" class="edge">
<title>Node3&#45;&gt;Node2</title>
<path fill="none" stroke="#63b8ff" d="M877.79,-342.5C885.91,-342.5 893.98,-342.5 901.77,-342.5"/>
<polygon fill="#63b8ff" stroke="#63b8ff" points="877.8,-339 867.8,-342.5 877.8,-346 877.8,-339"/>
</g>
<!-- Node4 -->
<g id="node4" class="node">
<title>Node4</title>
<g id="a_node4"><a xlink:href="classMooseObject.html" target="_top" xlink:title="Every object that can be built by the factory should be derived from this class.">
<polygon fill="white" stroke="#666666" points="579,-709 496,-709 496,-690 579,-690 579,-709"/>
<text text-anchor="middle" x="537.5" y="-697" font-family="Courier,monospace" font-size="10.00">MooseObject</text>
</a>
</g>
</g>
<!-- Node4&#45;&gt;Node3 -->
<g id="edge3" class="edge">
<title>Node4&#45;&gt;Node3</title>
<path fill="none" stroke="#63b8ff" d="M590.66,-700.56C609.58,-698.46 629.98,-692.98 645,-680.5 749.43,-593.72 768.42,-411.98 771.79,-357.96"/>
<polygon fill="#63b8ff" stroke="#63b8ff" points="590.64,-697.05 580.95,-701.33 591.19,-704.03 590.64,-697.05"/>
</g>
<!-- Node5 -->
<g id="node5" class="node">
<title>Node5</title>
<g id="a_node5"><a xlink:href="classMooseBase.html" target="_top" xlink:title="Base class for everything in MOOSE with a name and a type.">
<polygon fill="white" stroke="#666666" points="325,-783 254,-783 254,-764 325,-764 325,-783"/>
<text text-anchor="middle" x="289.5" y="-771" font-family="Courier,monospace" font-size="10.00">MooseBase</text>
</a>
</g>
</g>
<!-- Node5&#45;&gt;Node4 -->
<g id="edge4" class="edge">
<title>Node5&#45;&gt;Node4</title>
<path fill="none" stroke="#63b8ff" d="M336.54,-767.54C354.64,-764.66 375.47,-760.69 394,-755.5 438.28,-743.09 487.79,-721.88 515.24,-709.43"/>
<polygon fill="#63b8ff" stroke="#63b8ff" points="336.25,-764.04 326.89,-769 337.3,-770.96 336.25,-764.04"/>
</g>
<!-- Node6 -->
<g id="node6" class="node">
<title>Node6</title>
<g id="a_node6"><a xlink:href="classMooseBaseParameterInterface.html" target="_top" xlink:title="Every object that can be built by the factory should be derived from this class.">
<polygon fill="white" stroke="#666666" points="379,-746 200,-746 200,-727 379,-727 379,-746"/>
<text text-anchor="middle" x="289.5" y="-734" font-family="Courier,monospace" font-size="10.00">MooseBaseParameterInterface</text>
</a>
</g>
</g>
<!-- Node6&#45;&gt;Node4 -->
<g id="edge5" class="edge">
<title>Node6&#45;&gt;Node4</title>
<path fill="none" stroke="#63b8ff" d="M367.87,-724.86C410.2,-718.5 460.92,-710.87 495.6,-705.65"/>
<polygon fill="#63b8ff" stroke="#63b8ff" points="367.61,-721.36 358.24,-726.31 368.65,-728.28 367.61,-721.36"/>
</g>
<!-- Node7 -->
<g id="node7" class="node">
<title>Node7</title>
<g id="a_node7"><a xlink:href="classMooseBaseErrorInterface.html" target="_top" xlink:title="Interface that provides APIs to output errors/warnings/info messages.">
<polygon fill="white" stroke="#666666" points="367,-709 212,-709 212,-690 367,-690 367,-709"/>
<text text-anchor="middle" x="289.5" y="-697" font-family="Courier,monospace" font-size="10.00">MooseBaseErrorInterface</text>
</a>
</g>
</g>
<!-- Node7&#45;&gt;Node4 -->
<g id="edge6" class="edge">
<title>Node7&#45;&gt;Node4</title>
<path fill="none" stroke="#63b8ff" d="M378.69,-699.5C418.6,-699.5 463.83,-699.5 495.61,-699.5"/>
<polygon fill="#63b8ff" stroke="#63b8ff" points="378.84,-696 368.84,-699.5 378.84,-703 378.84,-696"/>
</g>
<!-- Node8 -->
<g id="node8" class="node">
<title>Node8</title>
<g id="a_node8"><a xlink:href="classConsoleStreamInterface.html" target="_top" xlink:title="An inteface for the _console for outputting to the Console object.">
<polygon fill="white" stroke="#666666" points="149,-709 0,-709 0,-690 149,-690 149,-709"/>
<text text-anchor="middle" x="74.5" y="-697" font-family="Courier,monospace" font-size="10.00">ConsoleStreamInterface</text>
</a>
</g>
</g>
<!-- Node8&#45;&gt;Node7 -->
<g id="edge7" class="edge">
<title>Node8&#45;&gt;Node7</title>
<path fill="none" stroke="#63b8ff" d="M160.43,-699.5C177.41,-699.5 195.15,-699.5 211.84,-699.5"/>
<polygon fill="#63b8ff" stroke="#63b8ff" points="160.91,-696 150.91,-699.5 160.91,-703 160.91,-696"/>
</g>
<!-- Node9 -->
<g id="node9" class="node">
<title>Node9</title>
<g id="a_node9"><a xlink:title=" ">
<polygon fill="white" stroke="#666666" points="367,-672 212,-672 212,-653 367,-653 367,-672"/>
<text text-anchor="middle" x="289.5" y="-660" font-family="Courier,monospace" font-size="10.00">libMesh::ParallelObject</text>
</a>
</g>
</g>
<!-- Node9&#45;&gt;Node4 -->
<g id="edge8" class="edge">
<title>Node9&#45;&gt;Node4</title>
<path fill="none" stroke="#63b8ff" d="M367.87,-674.14C410.2,-680.5 460.92,-688.13 495.6,-693.35"/>
<polygon fill="#63b8ff" stroke="#63b8ff" points="368.65,-670.72 358.24,-672.69 367.61,-677.64 368.65,-670.72"/>
</g>
<!-- Node10 -->
<g id="node10" class="node">
<title>Node10</title>
<g id="a_node10"><a xlink:href="classDataFileInterface.html" target="_top" xlink:title=" ">
<polygon fill="white" stroke="#666666" points="352,-634.5 227,-634.5 227,-604.5 352,-604.5 352,-634.5"/>
<text text-anchor="start" x="235" y="-622.5" font-family="Courier,monospace" font-size="10.00">DataFileInterface&lt;</text>
<text text-anchor="middle" x="289.5" y="-611.5" font-family="Courier,monospace" font-size="10.00"> MooseObject &gt;</text>
</a>
</g>
</g>
<!-- Node10&#45;&gt;Node4 -->
<g id="edge9" class="edge">
<title>Node10&#45;&gt;Node4</title>
<path fill="none" stroke="#63b8ff" d="M363.01,-631.61C373.77,-634.92 384.45,-639.14 394,-644.5 413.73,-655.57 409.94,-670.03 430,-680.5 450.15,-691.01 475.04,-695.83 495.69,-697.99"/>
<polygon fill="#63b8ff" stroke="#63b8ff" points="364.28,-628.33 353.71,-628.99 362.38,-635.07 364.28,-628.33"/>
</g>
<!-- Node11 -->
<g id="node11" class="node">
<title>Node11</title>
<g id="a_node11"><a xlink:href="classMooseVariableInterface.html" target="_top" xlink:title=" ">
<polygon fill="white" stroke="#666666" points="612,-671.5 463,-671.5 463,-641.5 612,-641.5 612,-671.5"/>
<text text-anchor="start" x="471" y="-659.5" font-family="Courier,monospace" font-size="10.00">MooseVariableInterface</text>
<text text-anchor="middle" x="537.5" y="-648.5" font-family="Courier,monospace" font-size="10.00">&lt; ComputeValueType &gt;</text>
</a>
</g>
</g>
<!-- Node11&#45;&gt;Node3 -->
<g id="edge10" class="edge">
<title>Node11&#45;&gt;Node3</title>
<path fill="none" stroke="#63b8ff" d="M622.95,-645.48C630.91,-642.15 638.44,-637.9 645,-632.5 735.41,-558.01 763.64,-406.72 770.57,-357.99"/>
<polygon fill="#63b8ff" stroke="#63b8ff" points="621.91,-642.13 613.71,-648.84 624.3,-648.72 621.91,-642.13"/>
</g>
<!-- Node12 -->
<g id="node12" class="node">
<title>Node12</title>
<g id="a_node12"><a xlink:href="classBlockRestrictable.html" target="_top" xlink:title="An interface that restricts an object to subdomains via the &#39;blocks&#39; input parameter.">
<polygon fill="white" stroke="#666666" points="597,-623 478,-623 478,-604 597,-604 597,-623"/>
<text text-anchor="middle" x="537.5" y="-611" font-family="Courier,monospace" font-size="10.00">BlockRestrictable</text>
</a>
</g>
</g>
<!-- Node12&#45;&gt;Node3 -->
<g id="edge11" class="edge">
<title>Node12&#45;&gt;Node3</title>
<path fill="none" stroke="#63b8ff" d="M608.35,-611.23C621.43,-608.27 634.33,-603.37 645,-595.5 728.31,-534.03 760.82,-402.59 769.74,-357.81"/>
<polygon fill="#63b8ff" stroke="#63b8ff" points="608.03,-607.73 598.85,-613.01 609.32,-614.61 608.03,-607.73"/>
</g>
<!-- Node13 -->
<g id="node13" class="node">
<title>Node13</title>
<g id="a_node13"><a xlink:href="classBoundaryRestrictable.html" target="_top" xlink:title="/class BoundaryRestrictable /brief Provides functionality for limiting the object to certain boundary...">
<polygon fill="white" stroke="#666666" points="606,-586 469,-586 469,-567 606,-567 606,-586"/>
<text text-anchor="middle" x="537.5" y="-574" font-family="Courier,monospace" font-size="10.00">BoundaryRestrictable</text>
</a>
</g>
</g>
<!-- Node13&#45;&gt;Node3 -->
<g id="edge12" class="edge">
<title>Node13&#45;&gt;Node3</title>
<path fill="none" stroke="#63b8ff" d="M617.53,-571.19C627.31,-568.27 636.75,-564.17 645,-558.5 719.09,-507.54 756.61,-398.25 768.35,-357.89"/>
<polygon fill="#63b8ff" stroke="#63b8ff" points="616.69,-567.79 607.86,-573.64 618.41,-574.57 616.69,-567.79"/>
</g>
<!-- Node14 -->
<g id="node14" class="node">
<title>Node14</title>
<g id="a_node14"><a xlink:href="classSetupInterface.html" target="_top" xlink:title=" ">
<polygon fill="white" stroke="#666666" points="588,-549 487,-549 487,-530 588,-530 588,-549"/>
<text text-anchor="middle" x="537.5" y="-537" font-family="Courier,monospace" font-size="10.00">SetupInterface</text>
</a>
</g>
</g>
<!-- Node14&#45;&gt;Node3 -->
<g id="edge13" class="edge">
<title>Node14&#45;&gt;Node3</title>
<path fill="none" stroke="#63b8ff" d="M599.56,-536.79C615.26,-533.96 631.52,-529.01 645,-520.5 709.62,-479.73 751.37,-393.25 766.32,-357.97"/>
<polygon fill="#63b8ff" stroke="#63b8ff" points="599.14,-533.31 589.77,-538.26 600.18,-540.23 599.14,-533.31"/>
</g>
<!-- Node15 -->
<g id="node15" class="node">
<title>Node15</title>
<g id="a_node15"><a xlink:href="classCoupleableMooseVariableDependencyIntermediateInterface.html" target="_top" xlink:title="Intermediate base class that ties together all the interfaces for getting MooseVariableFEBases with t...">
<polygon fill="white" stroke="#666666" points="645,-511.5 430,-511.5 430,-481.5 645,-481.5 645,-511.5"/>
<text text-anchor="start" x="438" y="-499.5" font-family="Courier,monospace" font-size="10.00">CoupleableMooseVariableDependency</text>
<text text-anchor="middle" x="537.5" y="-488.5" font-family="Courier,monospace" font-size="10.00">IntermediateInterface</text>
</a>
</g>
</g>
<!-- Node15&#45;&gt;Node3 -->
<g id="edge14" class="edge">
<title>Node15&#45;&gt;Node3</title>
<path fill="none" stroke="#63b8ff" d="M636.77,-476.68C639.59,-475.38 642.34,-473.98 645,-472.5 697.74,-443.11 742.76,-385.21 762.22,-357.7"/>
<polygon fill="#63b8ff" stroke="#63b8ff" points="635.61,-473.37 627.74,-480.46 638.32,-479.83 635.61,-473.37"/>
</g>
<!-- Node16 -->
<g id="node16" class="node">
<title>Node16</title>
<g id="a_node16"><a xlink:href="classCoupleable.html" target="_top" xlink:title="Interface for objects that needs coupling capabilities.">
<polygon fill="white" stroke="#666666" points="328,-543 251,-543 251,-524 328,-524 328,-543"/>
<text text-anchor="middle" x="289.5" y="-531" font-family="Courier,monospace" font-size="10.00">Coupleable</text>
</a>
</g>
</g>
<!-- Node16&#45;&gt;Node15 -->
<g id="edge15" class="edge">
<title>Node16&#45;&gt;Node15</title>
<path fill="none" stroke="#63b8ff" d="M339.48,-526.13C366.49,-522.07 401.08,-516.87 433.71,-511.96"/>
<polygon fill="#63b8ff" stroke="#63b8ff" points="339.26,-522.63 329.9,-527.57 340.3,-529.55 339.26,-522.63"/>
</g>
<!-- Node17 -->
<g id="node17" class="node">
<title>Node17</title>
<g id="a_node17"><a xlink:href="classScalarCoupleable.html" target="_top" xlink:title="Interface for objects that needs scalar coupling capabilities.">
<polygon fill="white" stroke="#666666" points="346,-506 233,-506 233,-487 346,-487 346,-506"/>
<text text-anchor="middle" x="289.5" y="-494" font-family="Courier,monospace" font-size="10.00">ScalarCoupleable</text>
</a>
</g>
</g>
<!-- Node17&#45;&gt;Node15 -->
<g id="edge16" class="edge">
<title>Node17&#45;&gt;Node15</title>
<path fill="none" stroke="#63b8ff" d="M357.63,-496.5C379.83,-496.5 405.11,-496.5 429.53,-496.5"/>
<polygon fill="#63b8ff" stroke="#63b8ff" points="357.83,-493 347.83,-496.5 357.83,-500 357.83,-493"/>
</g>
<!-- Node18 -->
<g id="node18" class="node">
<title>Node18</title>
<g id="a_node18"><a xlink:href="classMooseVariableDependencyInterface.html" target="_top" xlink:title=" ">
<polygon fill="white" stroke="#666666" points="394,-469 185,-469 185,-450 394,-450 394,-469"/>
<text text-anchor="middle" x="289.5" y="-457" font-family="Courier,monospace" font-size="10.00">MooseVariableDependencyInterface</text>
</a>
</g>
</g>
<!-- Node18&#45;&gt;Node15 -->
<g id="edge17" class="edge">
<title>Node18&#45;&gt;Node15</title>
<path fill="none" stroke="#63b8ff" d="M368.06,-471.17C388.84,-474.29 411.63,-477.72 433.54,-481.01"/>
<polygon fill="#63b8ff" stroke="#63b8ff" points="368.65,-467.72 358.24,-469.69 367.61,-474.64 368.65,-467.72"/>
</g>
<!-- Node19 -->
<g id="node19" class="node">
<title>Node19</title>
<g id="a_node19"><a xlink:href="classFunctionInterface.html" target="_top" xlink:title="Interface for objects that need to use functions.">
<polygon fill="white" stroke="#666666" points="597,-463 478,-463 478,-444 597,-444 597,-463"/>
<text text-anchor="middle" x="537.5" y="-451" font-family="Courier,monospace" font-size="10.00">FunctionInterface</text>
</a>
</g>
</g>
<!-- Node19&#45;&gt;Node3 -->
<g id="edge18" class="edge">
<title>Node19&#45;&gt;Node3</title>
<path fill="none" stroke="#63b8ff" d="M608.65,-446.4C621.05,-443.81 633.62,-440.29 645,-435.5 689.94,-416.56 734.03,-379 756.72,-357.87"/>
<polygon fill="#63b8ff" stroke="#63b8ff" points="608.03,-442.95 598.85,-448.24 609.32,-449.83 608.03,-442.95"/>
</g>
<!-- Node20 -->
<g id="node20" class="node">
<title>Node20</title>
<g id="a_node20"><a xlink:href="classUserObjectInterface.html" target="_top" xlink:title="Interface for objects that need to use UserObjects.">
<polygon fill="white" stroke="#666666" points="603,-426 472,-426 472,-407 603,-407 603,-426"/>
<text text-anchor="middle" x="537.5" y="-414" font-family="Courier,monospace" font-size="10.00">UserObjectInterface</text>
</a>
</g>
</g>
<!-- Node20&#45;&gt;Node3 -->
<g id="edge19" class="edge">
<title>Node20&#45;&gt;Node3</title>
<path fill="none" stroke="#63b8ff" d="M614.47,-406.03C624.82,-403.91 635.24,-401.42 645,-398.5 679.86,-388.07 717.8,-370.55 743.15,-357.88"/>
<polygon fill="#63b8ff" stroke="#63b8ff" points="613.94,-402.56 604.78,-407.89 615.26,-409.44 613.94,-402.56"/>
</g>
<!-- Node21 -->
<g id="node21" class="node">
<title>Node21</title>
<g id="a_node21"><a xlink:href="classTransientInterface.html" target="_top" xlink:title="Interface for objects that needs transient capabilities.">
<polygon fill="white" stroke="#666666" points="600,-389 475,-389 475,-370 600,-370 600,-389"/>
<text text-anchor="middle" x="537.5" y="-377" font-family="Courier,monospace" font-size="10.00">TransientInterface</text>
</a>
</g>
</g>
<!-- Node21&#45;&gt;Node3 -->
<g id="edge20" class="edge">
<title>Node21&#45;&gt;Node3</title>
<path fill="none" stroke="#63b8ff" d="M611.52,-367.95C633.46,-364.48 657.82,-360.63 680.81,-357"/>
<polygon fill="#63b8ff" stroke="#63b8ff" points="611.11,-364.47 601.78,-369.49 612.21,-371.39 611.11,-364.47"/>
</g>
<!-- Node22 -->
<g id="node22" class="node">
<title>Node22</title>
<g id="a_node22"><a xlink:href="classMaterialPropertyInterface.html" target="_top" xlink:title="An interface for accessing Materials.">
<polygon fill="white" stroke="#666666" points="621,-352 454,-352 454,-333 621,-333 621,-352"/>
<text text-anchor="middle" x="537.5" y="-340" font-family="Courier,monospace" font-size="10.00">MaterialPropertyInterface</text>
</a>
</g>
</g>
<!-- Node22&#45;&gt;Node3 -->
<g id="edge21" class="edge">
<title>Node22&#45;&gt;Node3</title>
<path fill="none" stroke="#63b8ff" d="M632.71,-342.5C648.51,-342.5 664.88,-342.5 680.62,-342.5"/>
<polygon fill="#63b8ff" stroke="#63b8ff" points="632.84,-339 622.84,-342.5 632.84,-346 632.84,-339"/>
</g>
<!-- Node23 -->
<g id="node23" class="node">
<title>Node23</title>
<g id="a_node23"><a xlink:href="classPostprocessorInterface.html" target="_top" xlink:title="Interface class for classes which interact with Postprocessors.">
<polygon fill="white" stroke="#666666" points="612,-315 463,-315 463,-296 612,-296 612,-315"/>
<text text-anchor="middle" x="537.5" y="-303" font-family="Courier,monospace" font-size="10.00">PostprocessorInterface</text>
</a>
</g>
</g>
<!-- Node23&#45;&gt;Node3 -->
<g id="edge22" class="edge">
<title>Node23&#45;&gt;Node3</title>
<path fill="none" stroke="#63b8ff" d="M612.61,-317.22C634.26,-320.64 658.19,-324.43 680.79,-328"/>
<polygon fill="#63b8ff" stroke="#63b8ff" points="613.43,-313.81 603.01,-315.7 612.34,-320.72 613.43,-313.81"/>
</g>
<!-- Node24 -->
<g id="node24" class="node">
<title>Node24</title>
<g id="a_node24"><a xlink:href="classDependencyResolverInterface.html" target="_top" xlink:title="Interface for sorting dependent vectors of objects.">
<polygon fill="white" stroke="#666666" points="627,-278 448,-278 448,-259 627,-259 627,-278"/>
<text text-anchor="middle" x="537.5" y="-266" font-family="Courier,monospace" font-size="10.00">DependencyResolverInterface</text>
</a>
</g>
</g>
<!-- Node24&#45;&gt;Node3 -->
<g id="edge23" class="edge">
<title>Node24&#45;&gt;Node3</title>
<path fill="none" stroke="#63b8ff" d="M618.98,-280.81C627.83,-282.77 636.65,-284.99 645,-287.5 679.4,-297.84 716.95,-314.77 742.33,-327.12"/>
<polygon fill="#63b8ff" stroke="#63b8ff" points="619.78,-277.4 609.28,-278.78 618.35,-284.25 619.78,-277.4"/>
</g>
<!-- Node25 -->
<g id="node25" class="node">
<title>Node25</title>
<g id="a_node25"><a xlink:href="classRandomInterface.html" target="_top" xlink:title="Interface for objects that need parallel consistent random numbers without patterns over the course o...">
<polygon fill="white" stroke="#666666" points="591,-241 484,-241 484,-222 591,-222 591,-241"/>
<text text-anchor="middle" x="537.5" y="-229" font-family="Courier,monospace" font-size="10.00">RandomInterface</text>
</a>
</g>
</g>
<!-- Node25&#45;&gt;Node3 -->
<g id="edge24" class="edge">
<title>Node25&#45;&gt;Node3</title>
<path fill="none" stroke="#63b8ff" d="M602.62,-238.15C616.92,-240.94 631.76,-244.89 645,-250.5 689.49,-269.35 733.41,-306.11 756.28,-327.01"/>
<polygon fill="#63b8ff" stroke="#63b8ff" points="603.25,-234.71 592.79,-236.42 602.04,-241.6 603.25,-234.71"/>
</g>
<!-- Node26 -->
<g id="node26" class="node">
<title>Node26</title>
<g id="a_node26"><a xlink:href="classGeometricSearchInterface.html" target="_top" xlink:title=" ">
<polygon fill="white" stroke="#666666" points="618,-204 457,-204 457,-185 618,-185 618,-204"/>
<text text-anchor="middle" x="537.5" y="-192" font-family="Courier,monospace" font-size="10.00">GeometricSearchInterface</text>
</a>
</g>
</g>
<!-- Node26&#45;&gt;Node3 -->
<g id="edge25" class="edge">
<title>Node26&#45;&gt;Node3</title>
<path fill="none" stroke="#63b8ff" d="M629.04,-206.56C634.57,-208.54 639.93,-210.84 645,-213.5 698.24,-241.48 743.01,-299.52 762.31,-327.19"/>
<polygon fill="#63b8ff" stroke="#63b8ff" points="630.28,-203.28 619.69,-203.58 628.16,-209.95 630.28,-203.28"/>
</g>
<!-- Node27 -->
<g id="node27" class="node">
<title>Node27</title>
<g id="a_node27"><a xlink:href="classRestartable.html" target="_top" xlink:title="A class for creating restricted objects.">
<polygon fill="white" stroke="#666666" points="579,-167 496,-167 496,-148 579,-148 579,-167"/>
<text text-anchor="middle" x="537.5" y="-155" font-family="Courier,monospace" font-size="10.00">Restartable</text>
</a>
</g>
</g>
<!-- Node27&#45;&gt;Node3 -->
<g id="edge26" class="edge">
<title>Node27&#45;&gt;Node3</title>
<path fill="none" stroke="#63b8ff" d="M590.76,-159.16C608.97,-161.66 628.86,-166.69 645,-176.5 706.79,-214.06 749.56,-293.53 765.54,-327.06"/>
<polygon fill="#63b8ff" stroke="#63b8ff" points="591.23,-155.69 580.9,-158.05 590.45,-162.64 591.23,-155.69"/>
</g>
<!-- Node28 -->
<g id="node28" class="node">
<title>Node28</title>
<g id="a_node28"><a xlink:href="classMeshChangedInterface.html" target="_top" xlink:title="Interface for notifications that the mesh has changed.">
<polygon fill="white" stroke="#666666" points="606,-130 469,-130 469,-111 606,-111 606,-130"/>
<text text-anchor="middle" x="537.5" y="-118" font-family="Courier,monospace" font-size="10.00">MeshChangedInterface</text>
</a>
</g>
</g>
<!-- Node28&#45;&gt;Node3 -->
<g id="edge27" class="edge">
<title>Node28&#45;&gt;Node3</title>
<path fill="none" stroke="#63b8ff" d="M617.09,-126.73C627,-129.71 636.59,-133.83 645,-139.5 715.74,-187.2 754.94,-288.68 767.76,-327.22"/>
<polygon fill="#63b8ff" stroke="#63b8ff" points="618.28,-123.43 607.72,-124.31 616.53,-130.2 618.28,-123.43"/>
</g>
<!-- Node29 -->
<g id="node29" class="node">
<title>Node29</title>
<g id="a_node29"><a xlink:href="classVectorPostprocessorInterface.html" target="_top" xlink:title=" ">
<polygon fill="white" stroke="#666666" points="630,-93 445,-93 445,-74 630,-74 630,-93"/>
<text text-anchor="middle" x="537.5" y="-81" font-family="Courier,monospace" font-size="10.00">VectorPostprocessorInterface</text>
</a>
</g>
</g>
<!-- Node29&#45;&gt;Node3 -->
<g id="edge28" class="edge">
<title>Node29&#45;&gt;Node3</title>
<path fill="none" stroke="darkgreen" d="M638.77,-98.41C640.91,-99.68 643,-101.04 645,-102.5 724.71,-160.56 759.25,-283.78 769.25,-327.07"/>
<polygon fill="darkgreen" stroke="darkgreen" points="640.85,-95.55 630.35,-94.13 637.68,-101.78 640.85,-95.55"/>
</g>
<!-- Node30 -->
<g id="node30" class="node">
<title>Node30</title>
<g id="a_node30"><a xlink:href="classElementIDInterface.html" target="_top" xlink:title=" ">
<polygon fill="white" stroke="#666666" points="600,-56 475,-56 475,-37 600,-37 600,-56"/>
<text text-anchor="middle" x="537.5" y="-44" font-family="Courier,monospace" font-size="10.00">ElementIDInterface</text>
</a>
</g>
</g>
<!-- Node30&#45;&gt;Node3 -->
<g id="edge29" class="edge">
<title>Node30&#45;&gt;Node3</title>
<path fill="none" stroke="#63b8ff" d="M611.5,-49.91C623.56,-53.07 635.27,-57.98 645,-65.5 734.01,-134.29 763.1,-279.74 770.42,-327.18"/>
<polygon fill="#63b8ff" stroke="#63b8ff" points="612.38,-46.52 601.87,-47.81 610.89,-53.36 612.38,-46.52"/>
</g>
<!-- Node31 -->
<g id="node31" class="node">
<title>Node31</title>
<g id="a_node31"><a xlink:href="classNonADFunctorInterface.html" target="_top" xlink:title="An interface for accessing Moose::Functors for systems that do not care about automatic differentiati...">
<polygon fill="white" stroke="#666666" points="609,-19 466,-19 466,0 609,0 609,-19"/>
<text text-anchor="middle" x="537.5" y="-7" font-family="Courier,monospace" font-size="10.00">NonADFunctorInterface</text>
</a>
</g>
</g>
<!-- Node31&#45;&gt;Node3 -->
<g id="edge30" class="edge">
<title>Node31&#45;&gt;Node3</title>
<path fill="none" stroke="darkgreen" d="M620.33,-14.34C629.25,-17.4 637.73,-21.66 645,-27.5 744.11,-107.13 766.71,-275.91 771.38,-327.32"/>
<polygon fill="darkgreen" stroke="darkgreen" points="621.29,-10.98 610.72,-11.6 619.37,-17.71 621.29,-10.98"/>
</g>
<!-- Node32 -->
<g id="node32" class="node">
<title>Node32</title>
<g id="a_node32"><a xlink:href="classFunctorInterface.html" target="_top" xlink:title="An interface for accessing Moose::Functors.">
<polygon fill="white" stroke="#666666" points="346,-19 233,-19 233,0 346,0 346,-19"/>
<text text-anchor="middle" x="289.5" y="-7" font-family="Courier,monospace" font-size="10.00">FunctorInterface</text>
</a>
</g>
</g>
<!-- Node32&#45;&gt;Node31 -->
<g id="edge31" class="edge">
<title>Node32&#45;&gt;Node31</title>
<path fill="none" stroke="#63b8ff" d="M357.43,-9.5C391.06,-9.5 431.79,-9.5 465.91,-9.5"/>
<polygon fill="#63b8ff" stroke="#63b8ff" points="357.83,-6 347.83,-9.5 357.83,-13 357.83,-6"/>
</g>
</g>
</svg>
