<?xml version="1.0" encoding="UTF-8" standalone="no"?>
<!DOCTYPE svg PUBLIC "-//W3C//DTD SVG 1.1//EN"
 "http://www.w3.org/Graphics/SVG/1.1/DTD/svg11.dtd">
<!-- Generated by graphviz version 7.0.5 (20221223.1930)
 -->
<!-- Title: Function Pages: 1 -->
<!--zoomable 643 -->
<svg id="main" version="1.1" xmlns="http://www.w3.org/2000/svg" xmlns:xlink="http://www.w3.org/1999/xlink" xml:space="preserve" onload="init(evt)">
<style type="text/css"><![CDATA[
.edge:hover path { stroke: red; }
.edge:hover polygon { stroke: red; fill: red; }
]]></style>
<script type="text/javascript"><![CDATA[
var edges = document.getElementsByTagName('g');
if (edges && edges.length) {
  for (var i=0;i<edges.length;i++) {
    if (edges[i].id.substr(0,4)=='edge') {
      edges[i].setAttribute('class','edge');
    }
  }
}
]]></script>
        <defs>
                <circle id="rim" cx="0" cy="0" r="7"/>
                <circle id="rim2" cx="0" cy="0" r="3.5"/>
                <g id="zoomPlus">
                        <use xlink:href="#rim" fill="#404040">
                                <set attributeName="fill" to="#808080" begin="zoomplus.mouseover" end="zoomplus.mouseout"/>
                        </use>
                        <path d="M-4,0h8M0,-4v8" fill="none" stroke="white" stroke-width="1.5" pointer-events="none"/>
                </g>
                <g id="zoomMin">
                        <use xlink:href="#rim" fill="#404040">
                                <set attributeName="fill" to="#808080" begin="zoomminus.mouseover" end="zoomminus.mouseout"/>
                        </use>
                        <path d="M-4,0h8" fill="none" stroke="white" stroke-width="1.5" pointer-events="none"/>
                </g>
                <g id="dirArrow">
                        <path fill="none" stroke="white" stroke-width="1.5" d="M0,-3.0v7 M-2.5,-0.5L0,-3.0L2.5,-0.5"/>
                </g>
               <g id="resetDef">
                       <use xlink:href="#rim2" fill="#404040">
                               <set attributeName="fill" to="#808080" begin="reset.mouseover" end="reset.mouseout"/>
                       </use>
               </g>
        </defs>

<script type="text/javascript">
var viewWidth = 1422;
var viewHeight = 643;
var sectionId = 'dynsection-0';
</script>
<script xlink:href="svgpan.js"/>
<svg id="graph" class="graph">
<g id="viewport">
<title>Function</title>
<!-- Node1 -->
<g id="node1" class="node">
<title>Node1</title>
<g id="a_node1"><a xlink:title="Base class for function objects.">
<polygon fill="#999999" stroke="#666666" points="650,-327 585,-327 585,-308 650,-308 650,-327"/>
<text text-anchor="middle" x="617.5" y="-315" font-family="Courier,monospace" font-size="10.00">Function</text>
</a>
</g>
</g>
<!-- Node19 -->
<g id="node19" class="node">
<title>Node19</title>
<g id="a_node19"><a xlink:href="classAxisymmetric2D3DSolutionFunction.html" target="_top" xlink:title="Function for reading a 2D axisymmetric solution from file and mapping it to a 3D Cartesian system.">
<polygon fill="white" stroke="#666666" points="856,-634.5 695,-634.5 695,-604.5 856,-604.5 856,-634.5"/>
<text text-anchor="start" x="703" y="-622.5" font-family="Courier,monospace" font-size="10.00">Axisymmetric2D3DSolution</text>
<text text-anchor="middle" x="775.5" y="-611.5" font-family="Courier,monospace" font-size="10.00">Function</text>
</a>
</g>
</g>
<!-- Node1&#45;&gt;Node19 -->
<g id="edge18" class="edge">
<title>Node1&#45;&gt;Node19</title>
<path fill="none" stroke="#63b8ff" d="M620.86,-338.65C627.78,-397 649.84,-558.37 686,-595.5 689.22,-598.81 692.85,-601.67 696.75,-604.16"/>
<polygon fill="#63b8ff" stroke="#63b8ff" points="624.34,-338.31 619.72,-328.78 617.39,-339.12 624.34,-338.31"/>
</g>
<!-- Node20 -->
<g id="node20" class="node">
<title>Node20</title>
<g id="a_node20"><a xlink:href="classBicubicSplineFunction.html" target="_top" xlink:title="Function that uses spline interpolation.">
<polygon fill="white" stroke="#666666" points="847,-586 704,-586 704,-567 847,-567 847,-586"/>
<text text-anchor="middle" x="775.5" y="-574" font-family="Courier,monospace" font-size="10.00">BicubicSplineFunction</text>
</a>
</g>
</g>
<!-- Node1&#45;&gt;Node20 -->
<g id="edge19" class="edge">
<title>Node1&#45;&gt;Node20</title>
<path fill="none" stroke="#63b8ff" d="M617.64,-338.75C616.98,-385.83 622.46,-499.4 686,-558.5 691.17,-563.31 697.25,-566.98 703.77,-569.77"/>
<polygon fill="#63b8ff" stroke="#63b8ff" points="621.14,-338.94 617.91,-328.85 614.14,-338.75 621.14,-338.94"/>
</g>
<!-- Node21 -->
<g id="node21" class="node">
<title>Node21</title>
<g id="a_node21"><a xlink:href="classCompositeFunction.html" target="_top" xlink:title="Base class for function objects.">
<polygon fill="white" stroke="#666666" points="835,-549 716,-549 716,-530 835,-530 835,-549"/>
<text text-anchor="middle" x="775.5" y="-537" font-family="Courier,monospace" font-size="10.00">CompositeFunction</text>
</a>
</g>
</g>
<!-- Node1&#45;&gt;Node21 -->
<g id="edge20" class="edge">
<title>Node1&#45;&gt;Node21</title>
<path fill="none" stroke="#63b8ff" d="M618.92,-338.87C620.97,-380.67 631.76,-473.35 686,-521.5 694.33,-528.89 704.84,-533.57 715.69,-536.46"/>
<polygon fill="#63b8ff" stroke="#63b8ff" points="622.42,-338.81 618.58,-328.94 615.43,-339.05 622.42,-338.81"/>
</g>
<!-- Node22 -->
<g id="node22" class="node">
<title>Node22</title>
<g id="a_node22"><a xlink:href="classConstantFunction.html" target="_top" xlink:title="Class that represents constant function.">
<polygon fill="white" stroke="#666666" points="832,-512 719,-512 719,-493 832,-493 832,-512"/>
<text text-anchor="middle" x="775.5" y="-500" font-family="Courier,monospace" font-size="10.00">ConstantFunction</text>
</a>
</g>
</g>
<!-- Node1&#45;&gt;Node22 -->
<g id="edge21" class="edge">
<title>Node1&#45;&gt;Node22</title>
<path fill="none" stroke="#63b8ff" d="M620.7,-338.68C625.59,-374.53 640.81,-446.93 686,-484.5 695.28,-492.22 706.99,-496.92 718.82,-499.73"/>
<polygon fill="#63b8ff" stroke="#63b8ff" points="624.17,-338.27 619.5,-328.76 617.22,-339.1 624.17,-338.27"/>
</g>
<!-- Node23 -->
<g id="node23" class="node">
<title>Node23</title>
<g id="a_node23"><a xlink:href="classImageFunction.html" target="_top" xlink:title="A function for extracting data from an image or stack of images.">
<polygon fill="white" stroke="#666666" points="823,-475 728,-475 728,-456 823,-456 823,-475"/>
<text text-anchor="middle" x="775.5" y="-463" font-family="Courier,monospace" font-size="10.00">ImageFunction</text>
</a>
</g>
</g>
<!-- Node1&#45;&gt;Node23 -->
<g id="edge22" class="edge">
<title>Node1&#45;&gt;Node23</title>
<path fill="none" stroke="#63b8ff" d="M623.23,-338.08C631.06,-367.23 649.58,-420.03 686,-447.5 697.89,-456.47 713.14,-461.26 727.63,-463.74"/>
<polygon fill="#63b8ff" stroke="#63b8ff" points="626.7,-337.51 620.88,-328.65 619.91,-339.2 626.7,-337.51"/>
</g>
<!-- Node24 -->
<g id="node24" class="node">
<title>Node24</title>
<g id="a_node24"><a xlink:href="classLinearCombinationFunction.html" target="_top" xlink:title="Sum_over_i (w_i * functions_i)">
<polygon fill="white" stroke="#666666" points="859,-438 692,-438 692,-419 859,-419 859,-438"/>
<text text-anchor="middle" x="775.5" y="-426" font-family="Courier,monospace" font-size="10.00">LinearCombinationFunction</text>
</a>
</g>
</g>
<!-- Node1&#45;&gt;Node24 -->
<g id="edge23" class="edge">
<title>Node1&#45;&gt;Node24</title>
<path fill="none" stroke="#63b8ff" d="M627.47,-337.53C638.21,-359.08 658.27,-392.65 686,-410.5 691.01,-413.72 696.48,-416.39 702.17,-418.59"/>
<polygon fill="#63b8ff" stroke="#63b8ff" points="630.69,-336.15 623.25,-328.61 624.36,-339.14 630.69,-336.15"/>
</g>
<!-- Node25 -->
<g id="node25" class="node">
<title>Node25</title>
<g id="a_node25"><a xlink:href="classMooseParsedFunction.html" target="_top" xlink:title="This class is used to evaluate symbolic equations passed in to Moose through the input file.">
<polygon fill="white" stroke="#666666" points="841,-401 710,-401 710,-382 841,-382 841,-401"/>
<text text-anchor="middle" x="775.5" y="-389" font-family="Courier,monospace" font-size="10.00">MooseParsedFunction</text>
</a>
</g>
</g>
<!-- Node1&#45;&gt;Node25 -->
<g id="edge24" class="edge">
<title>Node1&#45;&gt;Node25</title>
<path fill="none" stroke="#63b8ff" d="M634.87,-335.1C647.6,-347.72 666.36,-364.1 686,-373.5 693.49,-377.09 701.68,-379.96 709.95,-382.27"/>
<polygon fill="#63b8ff" stroke="#63b8ff" points="637.61,-332.91 628.13,-328.18 632.6,-337.79 637.61,-332.91"/>
</g>
<!-- Node26 -->
<g id="node26" class="node">
<title>Node26</title>
<g id="a_node26"><a xlink:href="classMooseParsedGradFunction.html" target="_top" xlink:title="This class is similar to ParsedFunction except it also supports returning the gradient of the functio...">
<polygon fill="white" stroke="#666666" points="853,-364 698,-364 698,-345 853,-345 853,-364"/>
<text text-anchor="middle" x="775.5" y="-352" font-family="Courier,monospace" font-size="10.00">MooseParsedGradFunction</text>
</a>
</g>
</g>
<!-- Node1&#45;&gt;Node26 -->
<g id="edge25" class="edge">
<title>Node1&#45;&gt;Node26</title>
<path fill="none" stroke="#63b8ff" d="M661.2,-330.03C669.4,-332.29 677.95,-334.55 686,-336.5 697.73,-339.34 710.42,-342.1 722.41,-344.57"/>
<polygon fill="#63b8ff" stroke="#63b8ff" points="662.34,-326.72 651.76,-327.38 660.44,-333.46 662.34,-326.72"/>
</g>
<!-- Node27 -->
<g id="node27" class="node">
<title>Node27</title>
<g id="a_node27"><a xlink:href="classMooseParsedVectorFunction.html" target="_top" xlink:title="This class is similar to ParsedFunction except it returns a vector function.">
<polygon fill="white" stroke="#666666" points="859,-327 692,-327 692,-308 859,-308 859,-327"/>
<text text-anchor="middle" x="775.5" y="-315" font-family="Courier,monospace" font-size="10.00">MooseParsedVectorFunction</text>
</a>
</g>
</g>
<!-- Node1&#45;&gt;Node27 -->
<g id="edge26" class="edge">
<title>Node1&#45;&gt;Node27</title>
<path fill="none" stroke="#63b8ff" d="M661.8,-317.5C671.16,-317.5 681.36,-317.5 691.67,-317.5"/>
<polygon fill="#63b8ff" stroke="#63b8ff" points="661.96,-314 651.96,-317.5 661.96,-321 661.96,-314"/>
</g>
<!-- Node28 -->
<g id="node28" class="node">
<title>Node28</title>
<g id="a_node28"><a xlink:href="classPeriodicFunction.html" target="_top" xlink:title=" ">
<polygon fill="white" stroke="#666666" points="832,-290 719,-290 719,-271 832,-271 832,-290"/>
<text text-anchor="middle" x="775.5" y="-278" font-family="Courier,monospace" font-size="10.00">PeriodicFunction</text>
</a>
</g>
</g>
<!-- Node1&#45;&gt;Node28 -->
<g id="edge27" class="edge">
<title>Node1&#45;&gt;Node28</title>
<path fill="none" stroke="#63b8ff" d="M661.25,-305.76C669.44,-303.61 677.97,-301.43 686,-299.5 698.99,-296.38 713.11,-293.23 726.17,-290.43"/>
<polygon fill="#63b8ff" stroke="#63b8ff" points="660.58,-302.32 651.81,-308.27 662.38,-309.08 660.58,-302.32"/>
</g>
<!-- Node29 -->
<g id="node29" class="node">
<title>Node29</title>
<g id="a_node29"><a xlink:href="classPiecewiseBase.html" target="_top" xlink:title="Function base which provides a piecewise approximation to a specified (x,y) point data set.">
<polygon fill="white" stroke="#666666" points="823,-253 728,-253 728,-234 823,-234 823,-253"/>
<text text-anchor="middle" x="775.5" y="-241" font-family="Courier,monospace" font-size="10.00">PiecewiseBase</text>
</a>
</g>
</g>
<!-- Node1&#45;&gt;Node29 -->
<g id="edge28" class="edge">
<title>Node1&#45;&gt;Node29</title>
<path fill="none" stroke="#63b8ff" d="M635.39,-299.86C648.16,-287.56 666.73,-271.75 686,-262.5 698.89,-256.31 713.8,-252.12 727.66,-249.29"/>
<polygon fill="#63b8ff" stroke="#63b8ff" points="633.22,-297.08 628.61,-306.62 638.16,-302.04 633.22,-297.08"/>
</g>
<!-- Node35 -->
<g id="node35" class="node">
<title>Node35</title>
<g id="a_node35"><a xlink:href="classPiecewiseBilinear.html" target="_top" xlink:title="PiecewiseBilinear reads from a file the information necessary to build the vectors x and y and the Co...">
<polygon fill="white" stroke="#666666" points="835,-216 716,-216 716,-197 835,-197 835,-216"/>
<text text-anchor="middle" x="775.5" y="-204" font-family="Courier,monospace" font-size="10.00">PiecewiseBilinear</text>
</a>
</g>
</g>
<!-- Node1&#45;&gt;Node35 -->
<g id="edge34" class="edge">
<title>Node1&#45;&gt;Node35</title>
<path fill="none" stroke="#63b8ff" d="M627.73,-297.41C638.59,-276.13 658.66,-243.21 686,-225.5 694.97,-219.69 705.42,-215.63 715.93,-212.79"/>
<polygon fill="#63b8ff" stroke="#63b8ff" points="624.66,-295.71 623.44,-306.24 630.96,-298.77 624.66,-295.71"/>
</g>
<!-- Node36 -->
<g id="node36" class="node">
<title>Node36</title>
<g id="a_node36"><a xlink:href="classPiecewiseConstantFromCSV.html" target="_top" xlink:title="Function which provides a piecewise constant, in space, field from a CSV file.">
<polygon fill="white" stroke="#666666" points="856,-179 695,-179 695,-160 856,-160 856,-179"/>
<text text-anchor="middle" x="775.5" y="-167" font-family="Courier,monospace" font-size="10.00">PiecewiseConstantFromCSV</text>
</a>
</g>
</g>
<!-- Node1&#45;&gt;Node36 -->
<g id="edge35" class="edge">
<title>Node1&#45;&gt;Node36</title>
<path fill="none" stroke="#63b8ff" d="M623.23,-296.92C631.06,-267.77 649.58,-214.97 686,-187.5 690.26,-184.29 694.94,-181.61 699.87,-179.39"/>
<polygon fill="#63b8ff" stroke="#63b8ff" points="619.91,-295.8 620.88,-306.35 626.7,-297.49 619.91,-295.8"/>
</g>
<!-- Node37 -->
<g id="node37" class="node">
<title>Node37</title>
<g id="a_node37"><a xlink:href="classPiecewiseLinearFromVectorPostprocessor.html" target="_top" xlink:title="Function which provides a piecewise continuous linear interpolation of a data set provided as two col...">
<polygon fill="white" stroke="#666666" points="859,-141.5 692,-141.5 692,-111.5 859,-111.5 859,-141.5"/>
<text text-anchor="start" x="700" y="-129.5" font-family="Courier,monospace" font-size="10.00">PiecewiseLinearFromVector</text>
<text text-anchor="middle" x="775.5" y="-118.5" font-family="Courier,monospace" font-size="10.00">Postprocessor</text>
</a>
</g>
</g>
<!-- Node1&#45;&gt;Node37 -->
<g id="edge36" class="edge">
<title>Node1&#45;&gt;Node37</title>
<path fill="none" stroke="#63b8ff" d="M620.96,-296.63C626.25,-261.23 642.04,-189.5 686,-150.5 689.69,-147.22 693.79,-144.39 698.13,-141.94"/>
<polygon fill="#63b8ff" stroke="#63b8ff" points="617.51,-296.02 619.65,-306.39 624.44,-296.95 617.51,-296.02"/>
</g>
<!-- Node38 -->
<g id="node38" class="node">
<title>Node38</title>
<g id="a_node38"><a xlink:href="classPiecewiseMultiInterpolation.html" target="_top" xlink:title="Uses GriddedData to define data on a grid, and does linear interpolation on that data to provide func...">
<polygon fill="white" stroke="#666666" points="865,-93 686,-93 686,-74 865,-74 865,-93"/>
<text text-anchor="middle" x="775.5" y="-81" font-family="Courier,monospace" font-size="10.00">PiecewiseMultiInterpolation</text>
</a>
</g>
</g>
<!-- Node1&#45;&gt;Node38 -->
<g id="edge37" class="edge">
<title>Node1&#45;&gt;Node38</title>
<path fill="none" stroke="#63b8ff" d="M618.54,-296.23C619.85,-252.91 629.27,-154.2 686,-102.5 689.95,-98.9 694.41,-95.92 699.18,-93.46"/>
<polygon fill="#63b8ff" stroke="#63b8ff" points="615.05,-295.99 618.38,-306.05 622.04,-296.11 615.05,-295.99"/>
</g>
<!-- Node41 -->
<g id="node41" class="node">
<title>Node41</title>
<g id="a_node41"><a xlink:href="classSolutionFunction.html" target="_top" xlink:title="Function for reading a solution from file Creates a function that extracts values from a solution rea...">
<polygon fill="white" stroke="#666666" points="832,-56 719,-56 719,-37 832,-37 832,-56"/>
<text text-anchor="middle" x="775.5" y="-44" font-family="Courier,monospace" font-size="10.00">SolutionFunction</text>
</a>
</g>
</g>
<!-- Node1&#45;&gt;Node41 -->
<g id="edge40" class="edge">
<title>Node1&#45;&gt;Node41</title>
<path fill="none" stroke="#63b8ff" d="M621.27,-296.35C628.88,-241.49 651.84,-96.67 686,-64.5 694.9,-56.12 706.6,-51.17 718.55,-48.35"/>
<polygon fill="#63b8ff" stroke="#63b8ff" points="617.81,-295.83 619.94,-306.2 624.74,-296.76 617.81,-295.83"/>
</g>
<!-- Node42 -->
<g id="node42" class="node">
<title>Node42</title>
<g id="a_node42"><a xlink:href="classSplineFunction.html" target="_top" xlink:title="Function that uses spline interpolation.">
<polygon fill="white" stroke="#666666" points="826,-19 725,-19 725,0 826,0 826,-19"/>
<text text-anchor="middle" x="775.5" y="-7" font-family="Courier,monospace" font-size="10.00">SplineFunction</text>
</a>
</g>
</g>
<!-- Node1&#45;&gt;Node42 -->
<g id="edge41" class="edge">
<title>Node1&#45;&gt;Node42</title>
<path fill="none" stroke="#63b8ff" d="M620.52,-296.11C626.67,-235.62 647.16,-65.27 686,-27.5 696.34,-17.44 710.68,-12.29 724.81,-9.82"/>
<polygon fill="#63b8ff" stroke="#63b8ff" points="617.04,-295.76 619.54,-306.05 624,-296.44 617.04,-295.76"/>
</g>
<!-- Node2 -->
<g id="node2" class="node">
<title>Node2</title>
<g id="a_node2"><a xlink:href="classMooseObject.html" target="_top" xlink:title="Every object that can be built by the factory should be derived from this class.">
<polygon fill="white" stroke="#666666" points="516,-475 433,-475 433,-456 516,-456 516,-475"/>
<text text-anchor="middle" x="474.5" y="-463" font-family="Courier,monospace" font-size="10.00">MooseObject</text>
</a>
</g>
</g>
<!-- Node2&#45;&gt;Node1 -->
<g id="edge1" class="edge">
<title>Node2&#45;&gt;Node1</title>
<path fill="none" stroke="#63b8ff" d="M527.44,-458.72C535.19,-456.09 542.68,-452.47 549,-447.5 589.79,-415.45 608.43,-351.93 614.33,-327.44"/>
<polygon fill="#63b8ff" stroke="#63b8ff" points="526.54,-455.34 517.86,-461.41 528.44,-462.07 526.54,-455.34"/>
</g>
<!-- Node3 -->
<g id="node3" class="node">
<title>Node3</title>
<g id="a_node3"><a xlink:href="classMooseBase.html" target="_top" xlink:title="Base class for everything in MOOSE with a name and a type.">
<polygon fill="white" stroke="#666666" points="310,-549 239,-549 239,-530 310,-530 310,-549"/>
<text text-anchor="middle" x="274.5" y="-537" font-family="Courier,monospace" font-size="10.00">MooseBase</text>
</a>
</g>
</g>
<!-- Node3&#45;&gt;Node2 -->
<g id="edge2" class="edge">
<title>Node3&#45;&gt;Node2</title>
<path fill="none" stroke="#63b8ff" d="M321.43,-532.62C335.32,-529.88 350.47,-526.23 364,-521.5 398.87,-509.3 436.61,-488.01 457.43,-475.49"/>
<polygon fill="#63b8ff" stroke="#63b8ff" points="320.81,-529.17 311.61,-534.43 322.08,-536.06 320.81,-529.17"/>
</g>
<!-- Node4 -->
<g id="node4" class="node">
<title>Node4</title>
<g id="a_node4"><a xlink:href="classMooseBaseParameterInterface.html" target="_top" xlink:title="Every object that can be built by the factory should be derived from this class.">
<polygon fill="white" stroke="#666666" points="364,-512 185,-512 185,-493 364,-493 364,-512"/>
<text text-anchor="middle" x="274.5" y="-500" font-family="Courier,monospace" font-size="10.00">MooseBaseParameterInterface</text>
</a>
</g>
</g>
<!-- Node4&#45;&gt;Node2 -->
<g id="edge3" class="edge">
<title>Node4&#45;&gt;Node2</title>
<path fill="none" stroke="#63b8ff" d="M339.81,-490.48C370.33,-484.78 405.88,-478.14 432.65,-473.13"/>
<polygon fill="#63b8ff" stroke="#63b8ff" points="339.5,-486.98 330.31,-492.26 340.78,-493.86 339.5,-486.98"/>
</g>
<!-- Node5 -->
<g id="node5" class="node">
<title>Node5</title>
<g id="a_node5"><a xlink:href="classMooseBaseErrorInterface.html" target="_top" xlink:title="Interface that provides APIs to output errors/warnings/info messages.">
<polygon fill="white" stroke="#666666" points="352,-475 197,-475 197,-456 352,-456 352,-475"/>
<text text-anchor="middle" x="274.5" y="-463" font-family="Courier,monospace" font-size="10.00">MooseBaseErrorInterface</text>
</a>
</g>
</g>
<!-- Node5&#45;&gt;Node2 -->
<g id="edge4" class="edge">
<title>Node5&#45;&gt;Node2</title>
<path fill="none" stroke="#63b8ff" d="M363.68,-465.5C387.75,-465.5 412.68,-465.5 432.69,-465.5"/>
<polygon fill="#63b8ff" stroke="#63b8ff" points="363.85,-462 353.85,-465.5 363.85,-469 363.85,-462"/>
</g>
<!-- Node6 -->
<g id="node6" class="node">
<title>Node6</title>
<g id="a_node6"><a xlink:href="classConsoleStreamInterface.html" target="_top" xlink:title="An inteface for the _console for outputting to the Console object.">
<polygon fill="white" stroke="#666666" points="149,-475 0,-475 0,-456 149,-456 149,-475"/>
<text text-anchor="middle" x="74.5" y="-463" font-family="Courier,monospace" font-size="10.00">ConsoleStreamInterface</text>
</a>
</g>
</g>
<!-- Node6&#45;&gt;Node5 -->
<g id="edge5" class="edge">
<title>Node6&#45;&gt;Node5</title>
<path fill="none" stroke="#63b8ff" d="M160.62,-465.5C172.62,-465.5 184.9,-465.5 196.73,-465.5"/>
<polygon fill="#63b8ff" stroke="#63b8ff" points="160.74,-462 150.74,-465.5 160.74,-469 160.74,-462"/>
</g>
<!-- Node7 -->
<g id="node7" class="node">
<title>Node7</title>
<g id="a_node7"><a xlink:title=" ">
<polygon fill="white" stroke="#666666" points="352,-438 197,-438 197,-419 352,-419 352,-438"/>
<text text-anchor="middle" x="274.5" y="-426" font-family="Courier,monospace" font-size="10.00">libMesh::ParallelObject</text>
</a>
</g>
</g>
<!-- Node7&#45;&gt;Node2 -->
<g id="edge6" class="edge">
<title>Node7&#45;&gt;Node2</title>
<path fill="none" stroke="#63b8ff" d="M339.81,-440.52C370.33,-446.22 405.88,-452.86 432.65,-457.87"/>
<polygon fill="#63b8ff" stroke="#63b8ff" points="340.78,-437.14 330.31,-438.74 339.5,-444.02 340.78,-437.14"/>
</g>
<!-- Node8 -->
<g id="node8" class="node">
<title>Node8</title>
<g id="a_node8"><a xlink:href="classDataFileInterface.html" target="_top" xlink:title=" ">
<polygon fill="white" stroke="#666666" points="337,-400.5 212,-400.5 212,-370.5 337,-370.5 337,-400.5"/>
<text text-anchor="start" x="220" y="-388.5" font-family="Courier,monospace" font-size="10.00">DataFileInterface&lt;</text>
<text text-anchor="middle" x="274.5" y="-377.5" font-family="Courier,monospace" font-size="10.00"> MooseObject &gt;</text>
</a>
</g>
</g>
<!-- Node8&#45;&gt;Node2 -->
<g id="edge7" class="edge">
<title>Node8&#45;&gt;Node2</title>
<path fill="none" stroke="#63b8ff" d="M347.62,-402.35C353.32,-404.73 358.86,-407.44 364,-410.5 383.71,-422.24 380.08,-436.11 400,-447.5 409.92,-453.18 421.59,-457.07 432.67,-459.74"/>
<polygon fill="#63b8ff" stroke="#63b8ff" points="349.23,-399.22 338.64,-398.94 346.74,-405.76 349.23,-399.22"/>
</g>
<!-- Node9 -->
<g id="node9" class="node">
<title>Node9</title>
<g id="a_node9"><a xlink:href="classSetupInterface.html" target="_top" xlink:title=" ">
<polygon fill="white" stroke="#666666" points="525,-438 424,-438 424,-419 525,-419 525,-438"/>
<text text-anchor="middle" x="474.5" y="-426" font-family="Courier,monospace" font-size="10.00">SetupInterface</text>
</a>
</g>
</g>
<!-- Node9&#45;&gt;Node1 -->
<g id="edge8" class="edge">
<title>Node9&#45;&gt;Node1</title>
<path fill="none" stroke="#63b8ff" d="M536.14,-417.4C540.67,-415.46 545.01,-413.18 549,-410.5 581.13,-388.92 603.33,-346.64 612.19,-327.42"/>
<polygon fill="#63b8ff" stroke="#63b8ff" points="534.97,-414.1 526.78,-420.82 537.37,-420.68 534.97,-414.1"/>
</g>
<!-- Node10 -->
<g id="node10" class="node">
<title>Node10</title>
<g id="a_node10"><a xlink:href="classTransientInterface.html" target="_top" xlink:title="Interface for objects that needs transient capabilities.">
<polygon fill="white" stroke="#666666" points="537,-401 412,-401 412,-382 537,-382 537,-401"/>
<text text-anchor="middle" x="474.5" y="-389" font-family="Courier,monospace" font-size="10.00">TransientInterface</text>
</a>
</g>
</g>
<!-- Node10&#45;&gt;Node1 -->
<g id="edge9" class="edge">
<title>Node10&#45;&gt;Node1</title>
<path fill="none" stroke="#63b8ff" d="M539.43,-377.76C542.72,-376.46 545.93,-375.05 549,-373.5 572.67,-361.59 595.34,-340 607.44,-327.39"/>
<polygon fill="#63b8ff" stroke="#63b8ff" points="538.43,-374.4 530.16,-381.02 540.76,-381.01 538.43,-374.4"/>
</g>
<!-- Node11 -->
<g id="node11" class="node">
<title>Node11</title>
<g id="a_node11"><a xlink:href="classPostprocessorInterface.html" target="_top" xlink:title="Interface class for classes which interact with Postprocessors.">
<polygon fill="white" stroke="#666666" points="549,-364 400,-364 400,-345 549,-345 549,-364"/>
<text text-anchor="middle" x="474.5" y="-352" font-family="Courier,monospace" font-size="10.00">PostprocessorInterface</text>
</a>
</g>
</g>
<!-- Node11&#45;&gt;Node1 -->
<g id="edge10" class="edge">
<title>Node11&#45;&gt;Node1</title>
<path fill="none" stroke="#63b8ff" d="M528.09,-341.85C535.13,-340.09 542.25,-338.28 549,-336.5 560.66,-333.43 573.39,-329.9 584.63,-326.71"/>
<polygon fill="#63b8ff" stroke="#63b8ff" points="527.49,-338.4 518.62,-344.2 529.17,-345.19 527.49,-338.4"/>
</g>
<!-- Node12 -->
<g id="node12" class="node">
<title>Node12</title>
<g id="a_node12"><a xlink:href="classUserObjectInterface.html" target="_top" xlink:title="Interface for objects that need to use UserObjects.">
<polygon fill="white" stroke="#666666" points="540,-327 409,-327 409,-308 540,-308 540,-327"/>
<text text-anchor="middle" x="474.5" y="-315" font-family="Courier,monospace" font-size="10.00">UserObjectInterface</text>
</a>
</g>
</g>
<!-- Node12&#45;&gt;Node1 -->
<g id="edge11" class="edge">
<title>Node12&#45;&gt;Node1</title>
<path fill="none" stroke="#63b8ff" d="M551.5,-317.5C563.25,-317.5 574.78,-317.5 584.8,-317.5"/>
<polygon fill="#63b8ff" stroke="#63b8ff" points="551.74,-314 541.74,-317.5 551.74,-321 551.74,-314"/>
</g>
<!-- Node13 -->
<g id="node13" class="node">
<title>Node13</title>
<g id="a_node13"><a xlink:href="classRestartable.html" target="_top" xlink:title="A class for creating restricted objects.">
<polygon fill="white" stroke="#666666" points="516,-290 433,-290 433,-271 516,-271 516,-290"/>
<text text-anchor="middle" x="474.5" y="-278" font-family="Courier,monospace" font-size="10.00">Restartable</text>
</a>
</g>
</g>
<!-- Node13&#45;&gt;Node1 -->
<g id="edge12" class="edge">
<title>Node13&#45;&gt;Node1</title>
<path fill="none" stroke="#63b8ff" d="M525.13,-293.28C533.12,-295.35 541.29,-297.48 549,-299.5 560.61,-302.55 573.34,-305.93 584.58,-308.93"/>
<polygon fill="#63b8ff" stroke="#63b8ff" points="526.07,-289.9 515.51,-290.78 524.31,-296.68 526.07,-289.9"/>
</g>
<!-- Node14 -->
<g id="node14" class="node">
<title>Node14</title>
<g id="a_node14"><a xlink:href="classMeshChangedInterface.html" target="_top" xlink:title="Interface for notifications that the mesh has changed.">
<polygon fill="white" stroke="#666666" points="543,-253 406,-253 406,-234 543,-234 543,-253"/>
<text text-anchor="middle" x="474.5" y="-241" font-family="Courier,monospace" font-size="10.00">MeshChangedInterface</text>
</a>
</g>
</g>
<!-- Node14&#45;&gt;Node1 -->
<g id="edge13" class="edge">
<title>Node14&#45;&gt;Node1</title>
<path fill="none" stroke="#63b8ff" d="M536.68,-257.11C540.93,-258.73 545.08,-260.52 549,-262.5 572.47,-274.37 595.22,-295.51 607.38,-307.84"/>
<polygon fill="#63b8ff" stroke="#63b8ff" points="538.01,-253.87 527.41,-253.95 535.75,-260.49 538.01,-253.87"/>
</g>
<!-- Node15 -->
<g id="node15" class="node">
<title>Node15</title>
<g id="a_node15"><a xlink:href="classScalarCoupleable.html" target="_top" xlink:title="Interface for objects that needs scalar coupling capabilities.">
<polygon fill="white" stroke="#666666" points="531,-216 418,-216 418,-197 531,-197 531,-216"/>
<text text-anchor="middle" x="474.5" y="-204" font-family="Courier,monospace" font-size="10.00">ScalarCoupleable</text>
</a>
</g>
</g>
<!-- Node15&#45;&gt;Node1 -->
<g id="edge14" class="edge">
<title>Node15&#45;&gt;Node1</title>
<path fill="none" stroke="#63b8ff" d="M541.49,-221.05C544.1,-222.4 546.61,-223.88 549,-225.5 580.82,-247.05 603.18,-288.77 612.14,-307.72"/>
<polygon fill="#63b8ff" stroke="#63b8ff" points="543.03,-217.9 532.47,-217.04 540.19,-224.3 543.03,-217.9"/>
</g>
<!-- Node16 -->
<g id="node16" class="node">
<title>Node16</title>
<g id="a_node16"><a xlink:href="classMoose_1_1FunctorBase.html" target="_top" xlink:title=" ">
<polygon fill="white" stroke="#666666" points="537,-178.5 412,-178.5 412,-148.5 537,-148.5 537,-178.5"/>
<text text-anchor="start" x="420" y="-166.5" font-family="Courier,monospace" font-size="10.00">Moose::FunctorBase</text>
<text text-anchor="middle" x="474.5" y="-155.5" font-family="Courier,monospace" font-size="10.00">&lt; Real &gt;</text>
</a>
</g>
</g>
<!-- Node16&#45;&gt;Node1 -->
<g id="edge15" class="edge">
<title>Node16&#45;&gt;Node1</title>
<path fill="none" stroke="#63b8ff" d="M545.61,-184.82C546.78,-185.68 547.91,-186.57 549,-187.5 588.55,-221.07 607.93,-283.69 614.17,-307.74"/>
<polygon fill="#63b8ff" stroke="#63b8ff" points="547.77,-182.05 537.44,-179.69 544.05,-187.97 547.77,-182.05"/>
</g>
<!-- Node17 -->
<g id="node17" class="node">
<title>Node17</title>
<g id="a_node17"><a xlink:href="classMoose_1_1FunctorAbstract.html" target="_top" xlink:title="Abstract base class that can be used to hold collections of functors.">
<polygon fill="white" stroke="#666666" points="349,-173 200,-173 200,-154 349,-154 349,-173"/>
<text text-anchor="middle" x="274.5" y="-161" font-family="Courier,monospace" font-size="10.00">Moose::FunctorAbstract</text>
</a>
</g>
</g>
<!-- Node17&#45;&gt;Node16 -->
<g id="edge16" class="edge">
<title>Node17&#45;&gt;Node16</title>
<path fill="none" stroke="#63b8ff" d="M360.44,-163.5C377.66,-163.5 395.46,-163.5 411.7,-163.5"/>
<polygon fill="#63b8ff" stroke="#63b8ff" points="360.74,-160 350.74,-163.5 360.74,-167 360.74,-160"/>
</g>
<!-- Node18 -->
<g id="node18" class="node">
<title>Node18</title>
<g id="a_node18"><a xlink:href="classFaceArgInterface.html" target="_top" xlink:title="A base class interface for both producers and consumers of functor face arguments,...">
<polygon fill="white" stroke="#666666" points="131,-173 18,-173 18,-154 131,-154 131,-173"/>
<text text-anchor="middle" x="74.5" y="-161" font-family="Courier,monospace" font-size="10.00">FaceArgInterface</text>
</a>
</g>
</g>
<!-- Node18&#45;&gt;Node17 -->
<g id="edge17" class="edge">
<title>Node18&#45;&gt;Node17</title>
<path fill="none" stroke="#63b8ff" d="M142.88,-163.5C161.13,-163.5 180.98,-163.5 199.57,-163.5"/>
<polygon fill="#63b8ff" stroke="#63b8ff" points="142.96,-160 132.96,-163.5 142.96,-167 142.96,-160"/>
</g>
<!-- Node30 -->
<g id="node30" class="node">
<title>Node30</title>
<g id="a_node30"><a xlink:href="classPiecewiseTabularBase.html" target="_top" xlink:title="Function base which provides a piecewise approximation to a provided (x,y) point data set via input p...">
<polygon fill="white" stroke="#666666" points="1044,-253 907,-253 907,-234 1044,-234 1044,-253"/>
<text text-anchor="middle" x="975.5" y="-241" font-family="Courier,monospace" font-size="10.00">PiecewiseTabularBase</text>
</a>
</g>
</g>
<!-- Node29&#45;&gt;Node30 -->
<g id="edge29" class="edge">
<title>Node29&#45;&gt;Node30</title>
<path fill="none" stroke="#63b8ff" d="M834.85,-243.5C857.34,-243.5 883.22,-243.5 906.55,-243.5"/>
<polygon fill="#63b8ff" stroke="#63b8ff" points="834.94,-240 824.94,-243.5 834.94,-247 834.94,-240"/>
</g>
<!-- Node31 -->
<g id="node31" class="node">
<title>Node31</title>
<g id="a_node31"><a xlink:href="classPiecewiseConstant.html" target="_top" xlink:title="Function which provides a piecewise constant interpolation of a provided (x,y) point data set.">
<polygon fill="white" stroke="#666666" points="1211,-271 1092,-271 1092,-252 1211,-252 1211,-271"/>
<text text-anchor="middle" x="1151.5" y="-259" font-family="Courier,monospace" font-size="10.00">PiecewiseConstant</text>
</a>
</g>
</g>
<!-- Node30&#45;&gt;Node31 -->
<g id="edge30" class="edge">
<title>Node30&#45;&gt;Node31</title>
<path fill="none" stroke="#63b8ff" d="M1055.39,-251.66C1067.59,-252.92 1080.01,-254.21 1091.67,-255.41"/>
<polygon fill="#63b8ff" stroke="#63b8ff" points="1056.08,-248.21 1045.78,-250.67 1055.36,-255.18 1056.08,-248.21"/>
</g>
<!-- Node32 -->
<g id="node32" class="node">
<title>Node32</title>
<g id="a_node32"><a xlink:href="classPiecewiseLinearBase.html" target="_top" xlink:title="Base class for functions which provides a piecewise continuous linear interpolation of an (x,...">
<polygon fill="white" stroke="#666666" points="1217,-234 1086,-234 1086,-215 1217,-215 1217,-234"/>
<text text-anchor="middle" x="1151.5" y="-222" font-family="Courier,monospace" font-size="10.00">PiecewiseLinearBase</text>
</a>
</g>
</g>
<!-- Node30&#45;&gt;Node32 -->
<g id="edge31" class="edge">
<title>Node30&#45;&gt;Node32</title>
<path fill="none" stroke="#63b8ff" d="M1055.58,-234.86C1065.68,-233.76 1075.93,-232.64 1085.76,-231.57"/>
<polygon fill="#63b8ff" stroke="#63b8ff" points="1055.34,-231.37 1045.78,-235.94 1056.1,-238.33 1055.34,-231.37"/>
</g>
<!-- Node33 -->
<g id="node33" class="node">
<title>Node33</title>
<g id="a_node33"><a xlink:href="classCoarsenedPiecewiseLinear.html" target="_top" xlink:title="Function class that reads in a list of (x,y) value pairs representing a point&#45;wise defined function s...">
<polygon fill="white" stroke="#666666" points="1414,-253 1253,-253 1253,-234 1414,-234 1414,-253"/>
<text text-anchor="middle" x="1333.5" y="-241" font-family="Courier,monospace" font-size="10.00">CoarsenedPiecewiseLinear</text>
</a>
</g>
</g>
<!-- Node32&#45;&gt;Node33 -->
<g id="edge32" class="edge">
<title>Node32&#45;&gt;Node33</title>
<path fill="none" stroke="#63b8ff" d="M1228.84,-232.56C1236.69,-233.39 1244.67,-234.23 1252.55,-235.06"/>
<polygon fill="#63b8ff" stroke="#63b8ff" points="1229.3,-229.09 1218.99,-231.52 1228.57,-236.05 1229.3,-229.09"/>
</g>
<!-- Node34 -->
<g id="node34" class="node">
<title>Node34</title>
<g id="a_node34"><a xlink:href="classPiecewiseLinear.html" target="_top" xlink:title="Function which provides a piecewise continuous linear interpolation of a provided (x,...">
<polygon fill="white" stroke="#666666" points="1387,-216 1280,-216 1280,-197 1387,-197 1387,-216"/>
<text text-anchor="middle" x="1333.5" y="-204" font-family="Courier,monospace" font-size="10.00">PiecewiseLinear</text>
</a>
</g>
</g>
<!-- Node32&#45;&gt;Node34 -->
<g id="edge33" class="edge">
<title>Node32&#45;&gt;Node34</title>
<path fill="none" stroke="#63b8ff" d="M1228.66,-216.88C1245.85,-215.16 1263.74,-213.38 1279.73,-211.78"/>
<polygon fill="#63b8ff" stroke="#63b8ff" points="1228.59,-213.37 1218.99,-217.85 1229.29,-220.34 1228.59,-213.37"/>
</g>
<!-- Node39 -->
<g id="node39" class="node">
<title>Node39</title>
<g id="a_node39"><a xlink:href="classPiecewiseMulticonstant.html" target="_top" xlink:title="Uses GriddedData to define data on a grid, and does linear interpolation on that data to provide func...">
<polygon fill="white" stroke="#666666" points="1050,-112 901,-112 901,-93 1050,-93 1050,-112"/>
<text text-anchor="middle" x="975.5" y="-100" font-family="Courier,monospace" font-size="10.00">PiecewiseMulticonstant</text>
</a>
</g>
</g>
<!-- Node38&#45;&gt;Node39 -->
<g id="edge38" class="edge">
<title>Node38&#45;&gt;Node39</title>
<path fill="none" stroke="#63b8ff" d="M876.76,-93.12C884.84,-93.9 892.9,-94.67 900.73,-95.42"/>
<polygon fill="#63b8ff" stroke="#63b8ff" points="877.16,-89.64 866.87,-92.17 876.49,-96.61 877.16,-89.64"/>
</g>
<!-- Node40 -->
<g id="node40" class="node">
<title>Node40</title>
<g id="a_node40"><a xlink:href="classPiecewiseMultilinear.html" target="_top" xlink:title="Uses GriddedData to define data on a grid, and does linear interpolation on that data to provide func...">
<polygon fill="white" stroke="#666666" points="1044,-75 907,-75 907,-56 1044,-56 1044,-75"/>
<text text-anchor="middle" x="975.5" y="-63" font-family="Courier,monospace" font-size="10.00">PiecewiseMultilinear</text>
</a>
</g>
</g>
<!-- Node38&#45;&gt;Node40 -->
<g id="edge39" class="edge">
<title>Node38&#45;&gt;Node40</title>
<path fill="none" stroke="#63b8ff" d="M876.79,-74.38C886.92,-73.46 897.03,-72.54 906.7,-71.66"/>
<polygon fill="#63b8ff" stroke="#63b8ff" points="876.51,-70.89 866.87,-75.28 877.15,-77.86 876.51,-70.89"/>
</g>
</g>
</svg>
        <g id="navigator" transform="translate(0 0)" fill="#404254">
                <rect fill="#f2f5e9" fill-opacity="0.5" stroke="#606060" stroke-width=".5" x="0" y="0" width="60" height="60"/>
                <use id="zoomplus" xlink:href="#zoomPlus" x="17" y="9" onmousedown="handleZoom(evt,'in')"/>
                <use id="zoomminus" xlink:href="#zoomMin" x="42" y="9" onmousedown="handleZoom(evt,'out')"/>
                <use id="reset" xlink:href="#resetDef" x="30" y="36" onmousedown="handleReset()"/>
                <g id="arrowUp" xlink:href="#dirArrow" transform="translate(30 24)" onmousedown="handlePan(0,-1)">
                  <use xlink:href="#rim" fill="#404040">
                        <set attributeName="fill" to="#808080" begin="arrowUp.mouseover" end="arrowUp.mouseout"/>
                  </use>
                  <path fill="none" stroke="white" stroke-width="1.5" d="M0,-3.0v7 M-2.5,-0.5L0,-3.0L2.5,-0.5"/>
                </g>
                <g id="arrowRight" xlink:href="#dirArrow" transform="rotate(90) translate(36 -43)" onmousedown="handlePan(1,0)">
                  <use xlink:href="#rim" fill="#404040">
                        <set attributeName="fill" to="#808080" begin="arrowRight.mouseover" end="arrowRight.mouseout"/>
                  </use>
                  <path fill="none" stroke="white" stroke-width="1.5" d="M0,-3.0v7 M-2.5,-0.5L0,-3.0L2.5,-0.5"/>
                </g>
                <g id="arrowDown" xlink:href="#dirArrow" transform="rotate(180) translate(-30 -48)" onmousedown="handlePan(0,1)">
                  <use xlink:href="#rim" fill="#404040">
                        <set attributeName="fill" to="#808080" begin="arrowDown.mouseover" end="arrowDown.mouseout"/>
                  </use>
                  <path fill="none" stroke="white" stroke-width="1.5" d="M0,-3.0v7 M-2.5,-0.5L0,-3.0L2.5,-0.5"/>
                </g>
                <g id="arrowLeft" xlink:href="#dirArrow" transform="rotate(270) translate(-36 17)" onmousedown="handlePan(-1,0)">
                  <use xlink:href="#rim" fill="#404040">
                        <set attributeName="fill" to="#808080" begin="arrowLeft.mouseover" end="arrowLeft.mouseout"/>
                  </use>
                  <path fill="none" stroke="white" stroke-width="1.5" d="M0,-3.0v7 M-2.5,-0.5L0,-3.0L2.5,-0.5"/>
                </g>
        </g>
        <svg viewBox="0 0 15 15" width="100%" height="30px" preserveAspectRatio="xMaxYMin meet">
         <g id="arrow_out" transform="scale(0.3 0.3)">
          <a xlink:href="classFunction__inherit__graph_org.svg" target="_base">
           <rect id="button" ry="5" rx="5" y="6" x="6" height="38" width="38"
                fill="#f2f5e9" fill-opacity="0.5" stroke="#606060" stroke-width="1.0"/>
           <path id="arrow"
             d="M 11.500037,31.436501 C 11.940474,20.09759 22.043105,11.32322 32.158766,21.979434 L 37.068811,17.246167 C 37.068811,17.246167 37.088388,32 37.088388,32 L 22.160133,31.978069 C 22.160133,31.978069 26.997745,27.140456 26.997745,27.140456 C 18.528582,18.264221 13.291696,25.230495 11.500037,31.436501 z"
             style="fill:#404040;"/>
          </a>
         </g>
        </svg>
</svg>
