<?xml version="1.0" encoding="UTF-8" standalone="no"?>
<!DOCTYPE svg PUBLIC "-//W3C//DTD SVG 1.1//EN"
 "http://www.w3.org/Graphics/SVG/1.1/DTD/svg11.dtd">
<!-- Generated by graphviz version 7.0.5 (20221223.1930)
 -->
<!-- Title: RestartableDataIO Pages: 1 -->
<svg width="316pt" height="137pt"
 viewBox="0.00 0.00 316.00 137.00" xmlns="http://www.w3.org/2000/svg" xmlns:xlink="http://www.w3.org/1999/xlink">
<g id="graph0" class="graph" transform="scale(1 1) rotate(0) translate(4 133)">
<title>RestartableDataIO</title>
<!-- Node1 -->
<g id="node1" class="node">
<title>Node1</title>
<g id="a_node1"><a xlink:title="Class for doing restart.">
<polygon fill="#999999" stroke="#666666" points="211,-74 92,-74 92,-55 211,-55 211,-74"/>
<text text-anchor="middle" x="151.5" y="-62" font-family="Courier,monospace" font-size="10.00">RestartableDataIO</text>
</a>
</g>
</g>
<!-- Node4 -->
<g id="node4" class="node">
<title>Node4</title>
<g id="a_node4"><a xlink:href="classRestartableDataReader.html" target="_top" xlink:title="Reader for restartable data written by the RestartableDataWriter.">
<polygon fill="white" stroke="#666666" points="143,-19 0,-19 0,0 143,0 143,-19"/>
<text text-anchor="middle" x="71.5" y="-7" font-family="Courier,monospace" font-size="10.00">RestartableDataReader</text>
</a>
</g>
</g>
<!-- Node1&#45;&gt;Node4 -->
<g id="edge3" class="edge">
<title>Node1&#45;&gt;Node4</title>
<path fill="none" stroke="#63b8ff" d="M128.39,-48.19C114.27,-38.84 96.72,-27.21 84.87,-19.36"/>
<polygon fill="#63b8ff" stroke="#63b8ff" points="126.4,-51.07 136.67,-53.67 130.26,-45.23 126.4,-51.07"/>
</g>
<!-- Node5 -->
<g id="node5" class="node">
<title>Node5</title>
<g id="a_node5"><a xlink:href="classRestartableDataWriter.html" target="_top" xlink:title="Writer for restartable data, to be read by the RestartableDataReader.">
<polygon fill="white" stroke="#666666" points="304,-19 161,-19 161,0 304,0 304,-19"/>
<text text-anchor="middle" x="232.5" y="-7" font-family="Courier,monospace" font-size="10.00">RestartableDataWriter</text>
</a>
</g>
</g>
<!-- Node1&#45;&gt;Node5 -->
<g id="edge4" class="edge">
<title>Node1&#45;&gt;Node5</title>
<path fill="none" stroke="#63b8ff" d="M174.49,-48.46C188.85,-39.06 206.85,-27.28 218.96,-19.36"/>
<polygon fill="#63b8ff" stroke="#63b8ff" points="172.96,-45.28 166.51,-53.68 176.79,-51.13 172.96,-45.28"/>
</g>
<!-- Node2 -->
<g id="node2" class="node">
<title>Node2</title>
<g id="a_node2"><a xlink:href="classPerfGraphInterface.html" target="_top" xlink:title="Interface for objects interacting with the PerfGraph.">
<polygon fill="white" stroke="#666666" points="135,-129 10,-129 10,-110 135,-110 135,-129"/>
<text text-anchor="middle" x="72.5" y="-117" font-family="Courier,monospace" font-size="10.00">PerfGraphInterface</text>
</a>
</g>
</g>
<!-- Node2&#45;&gt;Node1 -->
<g id="edge1" class="edge">
<title>Node2&#45;&gt;Node1</title>
<path fill="none" stroke="#63b8ff" d="M95.32,-103.19C109.26,-93.84 126.6,-82.21 138.3,-74.36"/>
<polygon fill="#63b8ff" stroke="#63b8ff" points="93.51,-100.19 87.16,-108.67 97.41,-106 93.51,-100.19"/>
</g>
<!-- Node3 -->
<g id="node3" class="node">
<title>Node3</title>
<g id="a_node3"><a xlink:title=" ">
<polygon fill="white" stroke="#666666" points="308,-129 153,-129 153,-110 308,-110 308,-129"/>
<text text-anchor="middle" x="230.5" y="-117" font-family="Courier,monospace" font-size="10.00">libMesh::ParallelObject</text>
</a>
</g>
</g>
<!-- Node3&#45;&gt;Node1 -->
<g id="edge2" class="edge">
<title>Node3&#45;&gt;Node1</title>
<path fill="none" stroke="#63b8ff" d="M207.68,-103.19C193.74,-93.84 176.4,-82.21 164.7,-74.36"/>
<polygon fill="#63b8ff" stroke="#63b8ff" points="205.59,-106 215.84,-108.67 209.49,-100.19 205.59,-106"/>
</g>
</g>
</svg>
