<?xml version="1.0" encoding="UTF-8" standalone="no"?>
<!DOCTYPE svg PUBLIC "-//W3C//DTD SVG 1.1//EN"
 "http://www.w3.org/Graphics/SVG/1.1/DTD/svg11.dtd">
<!-- Generated by graphviz version 7.0.5 (20221223.1930)
 -->
<!-- Title: Adaptivity Pages: 1 -->
<svg width="473pt" height="82pt"
 viewBox="0.00 0.00 473.00 82.00" xmlns="http://www.w3.org/2000/svg" xmlns:xlink="http://www.w3.org/1999/xlink">
<g id="graph0" class="graph" transform="scale(1 1) rotate(0) translate(4 78)">
<title>Adaptivity</title>
<!-- Node1 -->
<g id="node1" class="node">
<title>Node1</title>
<g id="a_node1"><a xlink:title="Takes care of everything related to mesh adaptivity.">
<polygon fill="#999999" stroke="#666666" points="268,-19 191,-19 191,0 268,0 268,-19"/>
<text text-anchor="middle" x="229.5" y="-7" font-family="Courier,monospace" font-size="10.00">Adaptivity</text>
</a>
</g>
</g>
<!-- Node2 -->
<g id="node2" class="node">
<title>Node2</title>
<g id="a_node2"><a xlink:href="classConsoleStreamInterface.html" target="_top" xlink:title="An inteface for the _console for outputting to the Console object.">
<polygon fill="white" stroke="#666666" points="149,-74 0,-74 0,-55 149,-55 149,-74"/>
<text text-anchor="middle" x="74.5" y="-62" font-family="Courier,monospace" font-size="10.00">ConsoleStreamInterface</text>
</a>
</g>
</g>
<!-- Node2&#45;&gt;Node1 -->
<g id="edge1" class="edge">
<title>Node2&#45;&gt;Node1</title>
<path fill="none" stroke="#63b8ff" d="M111.48,-50.85C139.8,-41.17 178.14,-28.06 203.34,-19.45"/>
<polygon fill="#63b8ff" stroke="#63b8ff" points="110.56,-47.47 102.23,-54.02 112.82,-54.1 110.56,-47.47"/>
</g>
<!-- Node3 -->
<g id="node3" class="node">
<title>Node3</title>
<g id="a_node3"><a xlink:href="classPerfGraphInterface.html" target="_top" xlink:title="Interface for objects interacting with the PerfGraph.">
<polygon fill="white" stroke="#666666" points="292,-74 167,-74 167,-55 292,-55 292,-74"/>
<text text-anchor="middle" x="229.5" y="-62" font-family="Courier,monospace" font-size="10.00">PerfGraphInterface</text>
</a>
</g>
</g>
<!-- Node3&#45;&gt;Node1 -->
<g id="edge2" class="edge">
<title>Node3&#45;&gt;Node1</title>
<path fill="none" stroke="#63b8ff" d="M229.5,-43.35C229.5,-35.1 229.5,-25.97 229.5,-19.44"/>
<polygon fill="#63b8ff" stroke="#63b8ff" points="226,-43.23 229.5,-53.23 233,-43.23 226,-43.23"/>
</g>
<!-- Node4 -->
<g id="node4" class="node">
<title>Node4</title>
<g id="a_node4"><a xlink:title=" ">
<polygon fill="white" stroke="#666666" points="465,-74 310,-74 310,-55 465,-55 465,-74"/>
<text text-anchor="middle" x="387.5" y="-62" font-family="Courier,monospace" font-size="10.00">libMesh::ParallelObject</text>
</a>
</g>
</g>
<!-- Node4&#45;&gt;Node1 -->
<g id="edge3" class="edge">
<title>Node4&#45;&gt;Node1</title>
<path fill="none" stroke="#63b8ff" d="M349.8,-50.85C320.94,-41.17 281.85,-28.06 256.17,-19.45"/>
<polygon fill="#63b8ff" stroke="#63b8ff" points="348.67,-54.17 359.26,-54.03 350.89,-47.53 348.67,-54.17"/>
</g>
</g>
</svg>
