<?xml version="1.0" encoding="UTF-8" standalone="no"?>
<!DOCTYPE svg PUBLIC "-//W3C//DTD SVG 1.1//EN"
 "http://www.w3.org/Graphics/SVG/1.1/DTD/svg11.dtd">
<!-- Generated by graphviz version 7.0.5 (20221223.1930)
 -->
<!-- Title: SideAverageValue Pages: 1 -->
<svg width="2002pt" height="909pt"
 viewBox="0.00 0.00 2002.00 908.50" xmlns="http://www.w3.org/2000/svg" xmlns:xlink="http://www.w3.org/1999/xlink">
<g id="graph0" class="graph" transform="scale(1 1) rotate(0) translate(4 904.5)">
<title>SideAverageValue</title>
<!-- Node1 -->
<g id="node1" class="node">
<title>Node1</title>
<g id="a_node1"><a xlink:title="This postprocessor computes a volume integral of the specified variable.">
<polygon fill="#999999" stroke="#666666" points="1767,-67.5 1654,-67.5 1654,-48.5 1767,-48.5 1767,-67.5"/>
<text text-anchor="middle" x="1710.5" y="-55.5" font-family="Courier,monospace" font-size="10.00">SideAverageValue</text>
</a>
</g>
</g>
<!-- Node44 -->
<g id="node44" class="node">
<title>Node44</title>
<g id="a_node44"><a xlink:href="classAxisymmetricCenterlineAverageValue.html" target="_top" xlink:title="This postprocessor computes a line integral of the specified variable along the centerline of an axis...">
<polygon fill="white" stroke="#666666" points="1994,-73 1803,-73 1803,-43 1994,-43 1994,-73"/>
<text text-anchor="start" x="1811" y="-61" font-family="Courier,monospace" font-size="10.00">AxisymmetricCenterlineAverage</text>
<text text-anchor="middle" x="1898.5" y="-50" font-family="Courier,monospace" font-size="10.00">Value</text>
</a>
</g>
</g>
<!-- Node1&#45;&gt;Node44 -->
<g id="edge44" class="edge">
<title>Node1&#45;&gt;Node44</title>
<path fill="none" stroke="#63b8ff" d="M1778.62,-58C1786.49,-58 1794.63,-58 1802.79,-58"/>
<polygon fill="#63b8ff" stroke="#63b8ff" points="1778.82,-54.5 1768.82,-58 1778.82,-61.5 1778.82,-54.5"/>
</g>
<!-- Node2 -->
<g id="node2" class="node">
<title>Node2</title>
<g id="a_node2"><a xlink:href="classSideIntegralVariablePostprocessor.html" target="_top" xlink:title="This postprocessor computes a surface integral of the specified variable.">
<polygon fill="white" stroke="#666666" points="1618,-67.5 1403,-67.5 1403,-48.5 1618,-48.5 1618,-67.5"/>
<text text-anchor="middle" x="1510.5" y="-55.5" font-family="Courier,monospace" font-size="10.00">SideIntegralVariablePostprocessor</text>
</a>
</g>
</g>
<!-- Node2&#45;&gt;Node1 -->
<g id="edge1" class="edge">
<title>Node2&#45;&gt;Node1</title>
<path fill="none" stroke="#63b8ff" d="M1629.64,-58C1637.88,-58 1645.93,-58 1653.55,-58"/>
<polygon fill="#63b8ff" stroke="#63b8ff" points="1629.84,-54.5 1619.84,-58 1629.84,-61.5 1629.84,-54.5"/>
</g>
<!-- Node3 -->
<g id="node3" class="node">
<title>Node3</title>
<g id="a_node3"><a xlink:href="classSideIntegralPostprocessor.html" target="_top" xlink:title="This postprocessor computes a surface integral of the specified variable on a sideset on the boundary...">
<polygon fill="white" stroke="#666666" points="1367,-111.5 1200,-111.5 1200,-92.5 1367,-92.5 1367,-111.5"/>
<text text-anchor="middle" x="1283.5" y="-99.5" font-family="Courier,monospace" font-size="10.00">SideIntegralPostprocessor</text>
</a>
</g>
</g>
<!-- Node3&#45;&gt;Node2 -->
<g id="edge2" class="edge">
<title>Node3&#45;&gt;Node2</title>
<path fill="none" stroke="#63b8ff" d="M1346.68,-89.84C1381.92,-82.95 1425.46,-74.43 1458.65,-67.94"/>
<polygon fill="#63b8ff" stroke="#63b8ff" points="1346.18,-86.37 1337.04,-91.73 1347.53,-93.24 1346.18,-86.37"/>
</g>
<!-- Node4 -->
<g id="node4" class="node">
<title>Node4</title>
<g id="a_node4"><a xlink:href="classSidePostprocessor.html" target="_top" xlink:title="Base class for postprocessors executed on one or more sidesets.">
<polygon fill="white" stroke="#666666" points="1143,-123.5 1024,-123.5 1024,-104.5 1143,-104.5 1143,-123.5"/>
<text text-anchor="middle" x="1083.5" y="-111.5" font-family="Courier,monospace" font-size="10.00">SidePostprocessor</text>
</a>
</g>
</g>
<!-- Node4&#45;&gt;Node3 -->
<g id="edge3" class="edge">
<title>Node4&#45;&gt;Node3</title>
<path fill="none" stroke="#63b8ff" d="M1154.8,-109.74C1169.32,-108.86 1184.75,-107.92 1199.67,-107.02"/>
<polygon fill="#63b8ff" stroke="#63b8ff" points="1154.65,-106.24 1144.88,-110.34 1155.07,-113.23 1154.65,-106.24"/>
</g>
<!-- Node5 -->
<g id="node5" class="node">
<title>Node5</title>
<g id="a_node5"><a xlink:href="classSideUserObject.html" target="_top" xlink:title="Base class for user objects executed one or more sidesets, which may be on the outer boundary of the ...">
<polygon fill="white" stroke="#666666" points="967,-289.5 866,-289.5 866,-270.5 967,-270.5 967,-289.5"/>
<text text-anchor="middle" x="916.5" y="-277.5" font-family="Courier,monospace" font-size="10.00">SideUserObject</text>
</a>
</g>
</g>
<!-- Node5&#45;&gt;Node4 -->
<g id="edge4" class="edge">
<title>Node5&#45;&gt;Node4</title>
<path fill="none" stroke="#63b8ff" d="M935.22,-262.17C970,-227.18 1046.13,-150.59 1072.93,-123.63"/>
<polygon fill="#63b8ff" stroke="#63b8ff" points="932.96,-259.48 928.39,-269.04 937.93,-264.41 932.96,-259.48"/>
</g>
<!-- Node6 -->
<g id="node6" class="node">
<title>Node6</title>
<g id="a_node6"><a xlink:href="classUserObject.html" target="_top" xlink:title="Base class for user&#45;specific data.">
<polygon fill="white" stroke="#666666" points="764,-548.5 687,-548.5 687,-529.5 764,-529.5 764,-548.5"/>
<text text-anchor="middle" x="725.5" y="-536.5" font-family="Courier,monospace" font-size="10.00">UserObject</text>
</a>
</g>
</g>
<!-- Node6&#45;&gt;Node5 -->
<g id="edge5" class="edge">
<title>Node6&#45;&gt;Node5</title>
<path fill="none" stroke="#63b8ff" d="M740.24,-520.17C777.63,-468.94 880.24,-328.33 908.31,-289.85"/>
<polygon fill="#63b8ff" stroke="#63b8ff" points="737.64,-517.8 734.57,-527.94 743.29,-521.93 737.64,-517.8"/>
</g>
<!-- Node7 -->
<g id="node7" class="node">
<title>Node7</title>
<g id="a_node7"><a xlink:href="classMooseObject.html" target="_top" xlink:title="Every object that can be built by the factory should be derived from this class.">
<polygon fill="white" stroke="#666666" points="534,-826.5 451,-826.5 451,-807.5 534,-807.5 534,-826.5"/>
<text text-anchor="middle" x="492.5" y="-814.5" font-family="Courier,monospace" font-size="10.00">MooseObject</text>
</a>
</g>
</g>
<!-- Node7&#45;&gt;Node6 -->
<g id="edge6" class="edge">
<title>Node7&#45;&gt;Node6</title>
<path fill="none" stroke="#63b8ff" d="M545.39,-814.82C559.28,-812.19 573.59,-807.43 585,-799 675.85,-731.88 713.69,-587.49 722.44,-548.74"/>
<polygon fill="#63b8ff" stroke="#63b8ff" points="545.25,-811.3 535.9,-816.27 546.31,-818.22 545.25,-811.3"/>
</g>
<!-- Node8 -->
<g id="node8" class="node">
<title>Node8</title>
<g id="a_node8"><a xlink:href="classMooseBase.html" target="_top" xlink:title="Base class for everything in MOOSE with a name and a type.">
<polygon fill="white" stroke="#666666" points="310,-900.5 239,-900.5 239,-881.5 310,-881.5 310,-900.5"/>
<text text-anchor="middle" x="274.5" y="-888.5" font-family="Courier,monospace" font-size="10.00">MooseBase</text>
</a>
</g>
</g>
<!-- Node8&#45;&gt;Node7 -->
<g id="edge7" class="edge">
<title>Node8&#45;&gt;Node7</title>
<path fill="none" stroke="#63b8ff" d="M321.62,-883.55C335.41,-880.81 350.46,-877.3 364,-873 403.87,-860.35 448.08,-839.22 472.56,-826.85"/>
<polygon fill="#63b8ff" stroke="#63b8ff" points="321.06,-880.09 311.89,-885.39 322.36,-886.97 321.06,-880.09"/>
</g>
<!-- Node9 -->
<g id="node9" class="node">
<title>Node9</title>
<g id="a_node9"><a xlink:href="classMooseBaseParameterInterface.html" target="_top" xlink:title="Every object that can be built by the factory should be derived from this class.">
<polygon fill="white" stroke="#666666" points="364,-863.5 185,-863.5 185,-844.5 364,-844.5 364,-863.5"/>
<text text-anchor="middle" x="274.5" y="-851.5" font-family="Courier,monospace" font-size="10.00">MooseBaseParameterInterface</text>
</a>
</g>
</g>
<!-- Node9&#45;&gt;Node7 -->
<g id="edge8" class="edge">
<title>Node9&#45;&gt;Node7</title>
<path fill="none" stroke="#63b8ff" d="M344.77,-842.13C379.7,-836.15 420.85,-829.1 450.68,-823.99"/>
<polygon fill="#63b8ff" stroke="#63b8ff" points="344.43,-838.64 335.16,-843.78 345.61,-845.54 344.43,-838.64"/>
</g>
<!-- Node10 -->
<g id="node10" class="node">
<title>Node10</title>
<g id="a_node10"><a xlink:href="classMooseBaseErrorInterface.html" target="_top" xlink:title="Interface that provides APIs to output errors/warnings/info messages.">
<polygon fill="white" stroke="#666666" points="352,-826.5 197,-826.5 197,-807.5 352,-807.5 352,-826.5"/>
<text text-anchor="middle" x="274.5" y="-814.5" font-family="Courier,monospace" font-size="10.00">MooseBaseErrorInterface</text>
</a>
</g>
</g>
<!-- Node10&#45;&gt;Node7 -->
<g id="edge9" class="edge">
<title>Node10&#45;&gt;Node7</title>
<path fill="none" stroke="#63b8ff" d="M363.7,-817C393.87,-817 426.17,-817 450.75,-817"/>
<polygon fill="#63b8ff" stroke="#63b8ff" points="363.78,-813.5 353.78,-817 363.78,-820.5 363.78,-813.5"/>
</g>
<!-- Node11 -->
<g id="node11" class="node">
<title>Node11</title>
<g id="a_node11"><a xlink:href="classConsoleStreamInterface.html" target="_top" xlink:title="An inteface for the _console for outputting to the Console object.">
<polygon fill="white" stroke="#666666" points="149,-826.5 0,-826.5 0,-807.5 149,-807.5 149,-826.5"/>
<text text-anchor="middle" x="74.5" y="-814.5" font-family="Courier,monospace" font-size="10.00">ConsoleStreamInterface</text>
</a>
</g>
</g>
<!-- Node11&#45;&gt;Node10 -->
<g id="edge10" class="edge">
<title>Node11&#45;&gt;Node10</title>
<path fill="none" stroke="#63b8ff" d="M160.62,-817C172.62,-817 184.9,-817 196.73,-817"/>
<polygon fill="#63b8ff" stroke="#63b8ff" points="160.74,-813.5 150.74,-817 160.74,-820.5 160.74,-813.5"/>
</g>
<!-- Node12 -->
<g id="node12" class="node">
<title>Node12</title>
<g id="a_node12"><a xlink:title=" ">
<polygon fill="white" stroke="#666666" points="352,-789.5 197,-789.5 197,-770.5 352,-770.5 352,-789.5"/>
<text text-anchor="middle" x="274.5" y="-777.5" font-family="Courier,monospace" font-size="10.00">libMesh::ParallelObject</text>
</a>
</g>
</g>
<!-- Node12&#45;&gt;Node7 -->
<g id="edge11" class="edge">
<title>Node12&#45;&gt;Node7</title>
<path fill="none" stroke="#63b8ff" d="M344.77,-791.87C379.7,-797.85 420.85,-804.9 450.68,-810.01"/>
<polygon fill="#63b8ff" stroke="#63b8ff" points="345.61,-788.46 335.16,-790.22 344.43,-795.36 345.61,-788.46"/>
</g>
<!-- Node13 -->
<g id="node13" class="node">
<title>Node13</title>
<g id="a_node13"><a xlink:href="classDataFileInterface.html" target="_top" xlink:title=" ">
<polygon fill="white" stroke="#666666" points="337,-752 212,-752 212,-722 337,-722 337,-752"/>
<text text-anchor="start" x="220" y="-740" font-family="Courier,monospace" font-size="10.00">DataFileInterface&lt;</text>
<text text-anchor="middle" x="274.5" y="-729" font-family="Courier,monospace" font-size="10.00"> MooseObject &gt;</text>
</a>
</g>
</g>
<!-- Node13&#45;&gt;Node7 -->
<g id="edge12" class="edge">
<title>Node13&#45;&gt;Node7</title>
<path fill="none" stroke="#63b8ff" d="M347.62,-753.85C353.32,-756.23 358.86,-758.94 364,-762 383.71,-773.74 379.83,-788.07 400,-799 415.37,-807.33 434.06,-811.84 450.53,-814.26"/>
<polygon fill="#63b8ff" stroke="#63b8ff" points="349.23,-750.72 338.64,-750.44 346.74,-757.26 349.23,-750.72"/>
</g>
<!-- Node14 -->
<g id="node14" class="node">
<title>Node14</title>
<g id="a_node14"><a xlink:href="classSetupInterface.html" target="_top" xlink:title=" ">
<polygon fill="white" stroke="#666666" points="543,-789.5 442,-789.5 442,-770.5 543,-770.5 543,-789.5"/>
<text text-anchor="middle" x="492.5" y="-777.5" font-family="Courier,monospace" font-size="10.00">SetupInterface</text>
</a>
</g>
</g>
<!-- Node14&#45;&gt;Node6 -->
<g id="edge13" class="edge">
<title>Node14&#45;&gt;Node6</title>
<path fill="none" stroke="#63b8ff" d="M554.61,-775.18C565.37,-772.38 575.99,-768.2 585,-762 666.99,-705.54 710.5,-583.53 721.61,-548.55"/>
<polygon fill="#63b8ff" stroke="#63b8ff" points="553.92,-771.75 544.89,-777.3 555.41,-778.59 553.92,-771.75"/>
</g>
<!-- Node15 -->
<g id="node15" class="node">
<title>Node15</title>
<g id="a_node15"><a xlink:href="classFunctionInterface.html" target="_top" xlink:title="Interface for objects that need to use functions.">
<polygon fill="white" stroke="#666666" points="552,-752.5 433,-752.5 433,-733.5 552,-733.5 552,-752.5"/>
<text text-anchor="middle" x="492.5" y="-740.5" font-family="Courier,monospace" font-size="10.00">FunctionInterface</text>
</a>
</g>
</g>
<!-- Node15&#45;&gt;Node6 -->
<g id="edge14" class="edge">
<title>Node15&#45;&gt;Node6</title>
<path fill="none" stroke="darkgreen" d="M563.08,-734.99C570.8,-732.47 578.29,-729.21 585,-725 658.15,-679.06 706.48,-579.95 720.37,-548.67"/>
<polygon fill="darkgreen" stroke="darkgreen" points="562.2,-731.6 553.52,-737.67 564.09,-738.34 562.2,-731.6"/>
</g>
<!-- Node16 -->
<g id="node16" class="node">
<title>Node16</title>
<g id="a_node16"><a xlink:href="classUserObjectInterface.html" target="_top" xlink:title="Interface for objects that need to use UserObjects.">
<polygon fill="white" stroke="#666666" points="558,-715.5 427,-715.5 427,-696.5 558,-696.5 558,-715.5"/>
<text text-anchor="middle" x="492.5" y="-703.5" font-family="Courier,monospace" font-size="10.00">UserObjectInterface</text>
</a>
</g>
</g>
<!-- Node16&#45;&gt;Node6 -->
<g id="edge15" class="edge">
<title>Node16&#45;&gt;Node6</title>
<path fill="none" stroke="#63b8ff" d="M569.1,-695.12C574.63,-693.13 580,-690.77 585,-688 649.46,-652.26 701.26,-576.23 718.42,-548.98"/>
<polygon fill="#63b8ff" stroke="#63b8ff" points="568.23,-691.72 559.74,-698.07 570.33,-698.4 568.23,-691.72"/>
</g>
<!-- Node17 -->
<g id="node17" class="node">
<title>Node17</title>
<g id="a_node17"><a xlink:href="classPostprocessorInterface.html" target="_top" xlink:title="Interface class for classes which interact with Postprocessors.">
<polygon fill="white" stroke="#666666" points="567,-678.5 418,-678.5 418,-659.5 567,-659.5 567,-678.5"/>
<text text-anchor="middle" x="492.5" y="-666.5" font-family="Courier,monospace" font-size="10.00">PostprocessorInterface</text>
</a>
</g>
</g>
<!-- Node17&#45;&gt;Node6 -->
<g id="edge16" class="edge">
<title>Node17&#45;&gt;Node6</title>
<path fill="none" stroke="darkgreen" d="M573.95,-655.52C577.74,-654.16 581.44,-652.65 585,-651 641.32,-624.8 694.79,-571.18 715.48,-548.97"/>
<polygon fill="darkgreen" stroke="darkgreen" points="572.97,-652.16 564.53,-658.55 575.12,-658.82 572.97,-652.16"/>
</g>
<!-- Node18 -->
<g id="node18" class="node">
<title>Node18</title>
<g id="a_node18"><a xlink:href="classVectorPostprocessorInterface.html" target="_top" xlink:title=" ">
<polygon fill="white" stroke="#666666" points="585,-641.5 400,-641.5 400,-622.5 585,-622.5 585,-641.5"/>
<text text-anchor="middle" x="492.5" y="-629.5" font-family="Courier,monospace" font-size="10.00">VectorPostprocessorInterface</text>
</a>
</g>
</g>
<!-- Node18&#45;&gt;Node6 -->
<g id="edge17" class="edge">
<title>Node18&#45;&gt;Node6</title>
<path fill="none" stroke="darkgreen" d="M568.24,-619.23C573.97,-617.67 579.61,-615.93 585,-614 633.15,-596.76 684.97,-564.98 709.71,-548.89"/>
<polygon fill="darkgreen" stroke="darkgreen" points="567.48,-615.82 558.64,-621.66 569.19,-622.6 567.48,-615.82"/>
</g>
<!-- Node19 -->
<g id="node19" class="node">
<title>Node19</title>
<g id="a_node19"><a xlink:href="classReporterInterface.html" target="_top" xlink:title="Interface to allow object to consume Reporter values.">
<polygon fill="white" stroke="#666666" points="552,-604.5 433,-604.5 433,-585.5 552,-585.5 552,-604.5"/>
<text text-anchor="middle" x="492.5" y="-592.5" font-family="Courier,monospace" font-size="10.00">ReporterInterface</text>
</a>
</g>
</g>
<!-- Node19&#45;&gt;Node6 -->
<g id="edge18" class="edge">
<title>Node19&#45;&gt;Node6</title>
<path fill="none" stroke="darkgreen" d="M558.53,-582.8C567.45,-580.96 576.47,-579 585,-577 621.29,-568.5 662.42,-557.07 690.56,-548.98"/>
<polygon fill="darkgreen" stroke="darkgreen" points="557.93,-579.35 548.83,-584.77 559.32,-586.21 557.93,-579.35"/>
</g>
<!-- Node20 -->
<g id="node20" class="node">
<title>Node20</title>
<g id="a_node20"><a xlink:href="classDistributionInterface.html" target="_top" xlink:title="Interface for objects that need to use distributions.">
<polygon fill="white" stroke="#666666" points="564,-567.5 421,-567.5 421,-548.5 564,-548.5 564,-567.5"/>
<text text-anchor="middle" x="492.5" y="-555.5" font-family="Courier,monospace" font-size="10.00">DistributionInterface</text>
</a>
</g>
</g>
<!-- Node20&#45;&gt;Node6 -->
<g id="edge19" class="edge">
<title>Node20&#45;&gt;Node6</title>
<path fill="none" stroke="darkgreen" d="M575.43,-551.26C613.35,-548.14 656.56,-544.59 686.65,-542.11"/>
<polygon fill="darkgreen" stroke="darkgreen" points="575.57,-547.74 565.89,-552.05 576.14,-554.71 575.57,-547.74"/>
</g>
<!-- Node21 -->
<g id="node21" class="node">
<title>Node21</title>
<g id="a_node21"><a xlink:href="classSamplerInterface.html" target="_top" xlink:title="Interface for objects that need to use samplers.">
<polygon fill="white" stroke="#666666" points="549,-530.5 436,-530.5 436,-511.5 549,-511.5 549,-530.5"/>
<text text-anchor="middle" x="492.5" y="-518.5" font-family="Courier,monospace" font-size="10.00">SamplerInterface</text>
</a>
</g>
</g>
<!-- Node21&#45;&gt;Node6 -->
<g id="edge20" class="edge">
<title>Node21&#45;&gt;Node6</title>
<path fill="none" stroke="darkgreen" d="M560.71,-526.24C601.74,-529.43 652.7,-533.41 686.78,-536.06"/>
<polygon fill="darkgreen" stroke="darkgreen" points="561.17,-522.76 550.93,-525.47 560.63,-529.74 561.17,-522.76"/>
</g>
<!-- Node22 -->
<g id="node22" class="node">
<title>Node22</title>
<g id="a_node22"><a xlink:href="classRestartable.html" target="_top" xlink:title="A class for creating restricted objects.">
<polygon fill="white" stroke="#666666" points="534,-493.5 451,-493.5 451,-474.5 534,-474.5 534,-493.5"/>
<text text-anchor="middle" x="492.5" y="-481.5" font-family="Courier,monospace" font-size="10.00">Restartable</text>
</a>
</g>
</g>
<!-- Node22&#45;&gt;Node6 -->
<g id="edge21" class="edge">
<title>Node22&#45;&gt;Node6</title>
<path fill="none" stroke="darkgreen" d="M545.27,-494.3C558.27,-497.01 572.17,-500.01 585,-503 620.08,-511.16 659.83,-521.53 687.9,-529.05"/>
<polygon fill="darkgreen" stroke="darkgreen" points="546.11,-490.9 535.61,-492.31 544.7,-497.76 546.11,-490.9"/>
</g>
<!-- Node23 -->
<g id="node23" class="node">
<title>Node23</title>
<g id="a_node23"><a xlink:href="classMeshMetaDataInterface.html" target="_top" xlink:title="The Interface used to retrieve mesh meta data (attributes) set by the MeshGenerator system.">
<polygon fill="white" stroke="#666666" points="564,-456.5 421,-456.5 421,-437.5 564,-437.5 564,-456.5"/>
<text text-anchor="middle" x="492.5" y="-444.5" font-family="Courier,monospace" font-size="10.00">MeshMetaDataInterface</text>
</a>
</g>
</g>
<!-- Node23&#45;&gt;Node6 -->
<g id="edge22" class="edge">
<title>Node23&#45;&gt;Node6</title>
<path fill="none" stroke="darkgreen" d="M564.33,-459.65C571.39,-461.52 578.38,-463.63 585,-466 632.62,-483.03 684.26,-513.57 709.25,-529.2"/>
<polygon fill="darkgreen" stroke="darkgreen" points="565.25,-456.27 554.7,-457.27 563.56,-463.07 565.25,-456.27"/>
</g>
<!-- Node24 -->
<g id="node24" class="node">
<title>Node24</title>
<g id="a_node24"><a xlink:href="classMeshChangedInterface.html" target="_top" xlink:title="Interface for notifications that the mesh has changed.">
<polygon fill="white" stroke="#666666" points="561,-419.5 424,-419.5 424,-400.5 561,-400.5 561,-419.5"/>
<text text-anchor="middle" x="492.5" y="-407.5" font-family="Courier,monospace" font-size="10.00">MeshChangedInterface</text>
</a>
</g>
</g>
<!-- Node24&#45;&gt;Node6 -->
<g id="edge23" class="edge">
<title>Node24&#45;&gt;Node6</title>
<path fill="none" stroke="darkgreen" d="M570.63,-423.27C575.58,-424.96 580.41,-426.86 585,-429 640.91,-455.06 694.6,-507.54 715.42,-529.25"/>
<polygon fill="darkgreen" stroke="darkgreen" points="571.71,-419.94 561.12,-420.35 569.65,-426.63 571.71,-419.94"/>
</g>
<!-- Node25 -->
<g id="node25" class="node">
<title>Node25</title>
<g id="a_node25"><a xlink:href="classScalarCoupleable.html" target="_top" xlink:title="Interface for objects that needs scalar coupling capabilities.">
<polygon fill="white" stroke="#666666" points="549,-382.5 436,-382.5 436,-363.5 549,-363.5 549,-382.5"/>
<text text-anchor="middle" x="492.5" y="-370.5" font-family="Courier,monospace" font-size="10.00">ScalarCoupleable</text>
</a>
</g>
</g>
<!-- Node25&#45;&gt;Node6 -->
<g id="edge24" class="edge">
<title>Node25&#45;&gt;Node6</title>
<path fill="none" stroke="darkgreen" d="M560.14,-381.84C568.81,-384.41 577.33,-387.73 585,-392 648.93,-427.61 701.07,-502.4 718.37,-529.19"/>
<polygon fill="darkgreen" stroke="darkgreen" points="561.16,-378.49 550.6,-379.34 559.39,-385.26 561.16,-378.49"/>
</g>
<!-- Node26 -->
<g id="node26" class="node">
<title>Node26</title>
<g id="a_node26"><a xlink:href="classPerfGraphInterface.html" target="_top" xlink:title="Interface for objects interacting with the PerfGraph.">
<polygon fill="white" stroke="#666666" points="555,-345.5 430,-345.5 430,-326.5 555,-326.5 555,-345.5"/>
<text text-anchor="middle" x="492.5" y="-333.5" font-family="Courier,monospace" font-size="10.00">PerfGraphInterface</text>
</a>
</g>
</g>
<!-- Node26&#45;&gt;Node6 -->
<g id="edge25" class="edge">
<title>Node26&#45;&gt;Node6</title>
<path fill="none" stroke="darkgreen" d="M566.03,-345.89C572.71,-348.31 579.15,-351.3 585,-355 603.51,-366.7 692.05,-492.47 717.59,-529.06"/>
<polygon fill="darkgreen" stroke="darkgreen" points="567.44,-342.67 556.85,-343 565.34,-349.34 567.44,-342.67"/>
</g>
<!-- Node27 -->
<g id="node27" class="node">
<title>Node27</title>
<g id="a_node27"><a xlink:href="classDependencyResolverInterface.html" target="_top" xlink:title="Interface for sorting dependent vectors of objects.">
<polygon fill="white" stroke="#666666" points="582,-308.5 403,-308.5 403,-289.5 582,-289.5 582,-308.5"/>
<text text-anchor="middle" x="492.5" y="-296.5" font-family="Courier,monospace" font-size="10.00">DependencyResolverInterface</text>
</a>
</g>
</g>
<!-- Node27&#45;&gt;Node6 -->
<g id="edge26" class="edge">
<title>Node27&#45;&gt;Node6</title>
<path fill="none" stroke="#63b8ff" d="M579.46,-314.13C581.37,-315.33 583.22,-316.62 585,-318 613.86,-340.46 602.41,-360.5 621,-392 652.88,-446.03 698.5,-505.84 716.64,-529.04"/>
<polygon fill="#63b8ff" stroke="#63b8ff" points="581.23,-311.11 570.76,-309.54 577.97,-317.3 581.23,-311.11"/>
</g>
<!-- Node28 -->
<g id="node28" class="node">
<title>Node28</title>
<g id="a_node28"><a xlink:href="classBoundaryRestrictableRequired.html" target="_top" xlink:title="A class for requiring an object to be boundary restricted.">
<polygon fill="white" stroke="#666666" points="818,-382.5 633,-382.5 633,-363.5 818,-363.5 818,-382.5"/>
<text text-anchor="middle" x="725.5" y="-370.5" font-family="Courier,monospace" font-size="10.00">BoundaryRestrictableRequired</text>
</a>
</g>
</g>
<!-- Node28&#45;&gt;Node5 -->
<g id="edge27" class="edge">
<title>Node28&#45;&gt;Node5</title>
<path fill="none" stroke="#63b8ff" d="M819.22,-359.55C822.91,-358.18 826.52,-356.66 830,-355 863.31,-339.07 893.58,-306.39 907.47,-289.94"/>
<polygon fill="#63b8ff" stroke="#63b8ff" points="818.44,-356.12 810.05,-362.59 820.64,-362.76 818.44,-356.12"/>
</g>
<!-- Node29 -->
<g id="node29" class="node">
<title>Node29</title>
<g id="a_node29"><a xlink:href="classBoundaryRestrictable.html" target="_top" xlink:title="/class BoundaryRestrictable /brief Provides functionality for limiting the object to certain boundary...">
<polygon fill="white" stroke="#666666" points="561,-271.5 424,-271.5 424,-252.5 561,-252.5 561,-271.5"/>
<text text-anchor="middle" x="492.5" y="-259.5" font-family="Courier,monospace" font-size="10.00">BoundaryRestrictable</text>
</a>
</g>
</g>
<!-- Node29&#45;&gt;Node28 -->
<g id="edge28" class="edge">
<title>Node29&#45;&gt;Node28</title>
<path fill="none" stroke="#63b8ff" d="M571.75,-272.9C576.46,-275.16 580.93,-277.83 585,-281 613.86,-303.46 591.78,-333.01 621,-355 625.15,-358.13 629.66,-360.78 634.4,-363.02"/>
<polygon fill="#63b8ff" stroke="#63b8ff" points="573.11,-269.68 562.52,-269.18 570.49,-276.17 573.11,-269.68"/>
</g>
<!-- Node30 -->
<g id="node30" class="node">
<title>Node30</title>
<g id="a_node30"><a xlink:href="classMaterialPropertyInterface.html" target="_top" xlink:title="An interface for accessing Materials.">
<polygon fill="white" stroke="#666666" points="809,-345.5 642,-345.5 642,-326.5 809,-326.5 809,-345.5"/>
<text text-anchor="middle" x="725.5" y="-333.5" font-family="Courier,monospace" font-size="10.00">MaterialPropertyInterface</text>
</a>
</g>
</g>
<!-- Node30&#45;&gt;Node5 -->
<g id="edge29" class="edge">
<title>Node30&#45;&gt;Node5</title>
<path fill="none" stroke="#63b8ff" d="M808.57,-323.65C815.87,-321.97 823.11,-320.1 830,-318 853.78,-310.77 879.67,-298.61 896.66,-289.99"/>
<polygon fill="#63b8ff" stroke="#63b8ff" points="807.99,-320.2 798.95,-325.73 809.47,-327.04 807.99,-320.2"/>
</g>
<!-- Node31 -->
<g id="node31" class="node">
<title>Node31</title>
<g id="a_node31"><a xlink:href="classCoupleable.html" target="_top" xlink:title="Interface for objects that needs coupling capabilities.">
<polygon fill="white" stroke="#666666" points="764,-308.5 687,-308.5 687,-289.5 764,-289.5 764,-308.5"/>
<text text-anchor="middle" x="725.5" y="-296.5" font-family="Courier,monospace" font-size="10.00">Coupleable</text>
</a>
</g>
</g>
<!-- Node31&#45;&gt;Node5 -->
<g id="edge30" class="edge">
<title>Node31&#45;&gt;Node5</title>
<path fill="none" stroke="#63b8ff" d="M775.69,-294.05C803.36,-291.27 837.81,-287.81 865.59,-285.02"/>
<polygon fill="#63b8ff" stroke="#63b8ff" points="775.4,-290.57 765.8,-295.05 776.1,-297.53 775.4,-290.57"/>
</g>
<!-- Node32 -->
<g id="node32" class="node">
<title>Node32</title>
<g id="a_node32"><a xlink:href="classMooseVariableDependencyInterface.html" target="_top" xlink:title=" ">
<polygon fill="white" stroke="#666666" points="830,-271.5 621,-271.5 621,-252.5 830,-252.5 830,-271.5"/>
<text text-anchor="middle" x="725.5" y="-259.5" font-family="Courier,monospace" font-size="10.00">MooseVariableDependencyInterface</text>
</a>
</g>
</g>
<!-- Node32&#45;&gt;Node5 -->
<g id="edge31" class="edge">
<title>Node32&#45;&gt;Node5</title>
<path fill="none" stroke="#63b8ff" d="M841.61,-272.96C850.05,-273.77 858.26,-274.55 865.95,-275.28"/>
<polygon fill="#63b8ff" stroke="#63b8ff" points="842.19,-269.5 831.91,-272.04 841.53,-276.47 842.19,-269.5"/>
</g>
<!-- Node33 -->
<g id="node33" class="node">
<title>Node33</title>
<g id="a_node33"><a xlink:href="classTransientInterface.html" target="_top" xlink:title="Interface for objects that needs transient capabilities.">
<polygon fill="white" stroke="#666666" points="788,-234.5 663,-234.5 663,-215.5 788,-215.5 788,-234.5"/>
<text text-anchor="middle" x="725.5" y="-222.5" font-family="Courier,monospace" font-size="10.00">TransientInterface</text>
</a>
</g>
</g>
<!-- Node33&#45;&gt;Node5 -->
<g id="edge32" class="edge">
<title>Node33&#45;&gt;Node5</title>
<path fill="none" stroke="#63b8ff" d="M799.46,-236.34C809.8,-238.54 820.23,-241.08 830,-244 853.15,-250.91 878.53,-262.08 895.57,-270.15"/>
<polygon fill="#63b8ff" stroke="#63b8ff" points="800.3,-232.93 789.8,-234.38 798.91,-239.79 800.3,-232.93"/>
</g>
<!-- Node34 -->
<g id="node34" class="node">
<title>Node34</title>
<g id="a_node34"><a xlink:href="classElementIDInterface.html" target="_top" xlink:title=" ">
<polygon fill="white" stroke="#666666" points="788,-197.5 663,-197.5 663,-178.5 788,-178.5 788,-197.5"/>
<text text-anchor="middle" x="725.5" y="-185.5" font-family="Courier,monospace" font-size="10.00">ElementIDInterface</text>
</a>
</g>
</g>
<!-- Node34&#45;&gt;Node5 -->
<g id="edge33" class="edge">
<title>Node34&#45;&gt;Node5</title>
<path fill="none" stroke="#63b8ff" d="M799.36,-196.36C809.93,-199 820.45,-202.46 830,-207 862.78,-222.6 893.06,-254.07 907.17,-270.11"/>
<polygon fill="#63b8ff" stroke="#63b8ff" points="800.37,-193 789.84,-194.23 798.84,-199.83 800.37,-193"/>
</g>
<!-- Node35 -->
<g id="node35" class="node">
<title>Node35</title>
<g id="a_node35"><a xlink:href="classPostprocessor.html" target="_top" xlink:title="Base class for all Postprocessors.">
<polygon fill="white" stroke="#666666" points="964,-123.5 869,-123.5 869,-104.5 964,-104.5 964,-123.5"/>
<text text-anchor="middle" x="916.5" y="-111.5" font-family="Courier,monospace" font-size="10.00">Postprocessor</text>
</a>
</g>
</g>
<!-- Node35&#45;&gt;Node4 -->
<g id="edge34" class="edge">
<title>Node35&#45;&gt;Node4</title>
<path fill="none" stroke="#63b8ff" d="M975.47,-114C991.13,-114 1008.07,-114 1023.77,-114"/>
<polygon fill="#63b8ff" stroke="#63b8ff" points="975.85,-110.5 965.85,-114 975.85,-117.5 975.85,-110.5"/>
</g>
<!-- Node36 -->
<g id="node36" class="node">
<title>Node36</title>
<g id="a_node36"><a xlink:href="classOutputInterface.html" target="_top" xlink:title="A class to provide an common interface to objects requiring &quot;outputs&quot; option.">
<polygon fill="white" stroke="#666666" points="779,-160.5 672,-160.5 672,-141.5 779,-141.5 779,-160.5"/>
<text text-anchor="middle" x="725.5" y="-148.5" font-family="Courier,monospace" font-size="10.00">OutputInterface</text>
</a>
</g>
</g>
<!-- Node36&#45;&gt;Node35 -->
<g id="edge35" class="edge">
<title>Node36&#45;&gt;Node35</title>
<path fill="none" stroke="#63b8ff" d="M790.54,-140.34C803.62,-138.03 817.27,-135.52 830,-133 843.87,-130.25 858.95,-127 872.52,-123.96"/>
<polygon fill="#63b8ff" stroke="#63b8ff" points="789.98,-136.89 780.73,-142.05 791.18,-143.78 789.98,-136.89"/>
</g>
<!-- Node37 -->
<g id="node37" class="node">
<title>Node37</title>
<g id="a_node37"><a xlink:href="classNonADFunctorInterface.html" target="_top" xlink:title="An interface for accessing Moose::Functors for systems that do not care about automatic differentiati...">
<polygon fill="white" stroke="#666666" points="797,-123.5 654,-123.5 654,-104.5 797,-104.5 797,-123.5"/>
<text text-anchor="middle" x="725.5" y="-111.5" font-family="Courier,monospace" font-size="10.00">NonADFunctorInterface</text>
</a>
</g>
</g>
<!-- Node37&#45;&gt;Node35 -->
<g id="edge36" class="edge">
<title>Node37&#45;&gt;Node35</title>
<path fill="none" stroke="#63b8ff" d="M808.69,-114C829.18,-114 850.45,-114 868.57,-114"/>
<polygon fill="#63b8ff" stroke="#63b8ff" points="808.93,-110.5 798.93,-114 808.93,-117.5 808.93,-110.5"/>
</g>
<!-- Node38 -->
<g id="node38" class="node">
<title>Node38</title>
<g id="a_node38"><a xlink:href="classFunctorInterface.html" target="_top" xlink:title="An interface for accessing Moose::Functors.">
<polygon fill="white" stroke="#666666" points="549,-123.5 436,-123.5 436,-104.5 549,-104.5 549,-123.5"/>
<text text-anchor="middle" x="492.5" y="-111.5" font-family="Courier,monospace" font-size="10.00">FunctorInterface</text>
</a>
</g>
</g>
<!-- Node38&#45;&gt;Node37 -->
<g id="edge37" class="edge">
<title>Node38&#45;&gt;Node37</title>
<path fill="none" stroke="#63b8ff" d="M560.76,-114C589.96,-114 624.18,-114 653.77,-114"/>
<polygon fill="#63b8ff" stroke="#63b8ff" points="560.93,-110.5 550.93,-114 560.93,-117.5 560.93,-110.5"/>
</g>
<!-- Node39 -->
<g id="node39" class="node">
<title>Node39</title>
<g id="a_node39"><a xlink:href="classMoose_1_1FunctorBase.html" target="_top" xlink:title=" ">
<polygon fill="white" stroke="#666666" points="788,-86 663,-86 663,-56 788,-56 788,-86"/>
<text text-anchor="start" x="671" y="-74" font-family="Courier,monospace" font-size="10.00">Moose::FunctorBase</text>
<text text-anchor="middle" x="725.5" y="-63" font-family="Courier,monospace" font-size="10.00">&lt; Real &gt;</text>
</a>
</g>
</g>
<!-- Node39&#45;&gt;Node35 -->
<g id="edge38" class="edge">
<title>Node39&#45;&gt;Node35</title>
<path fill="none" stroke="#63b8ff" d="M799.43,-87.59C823.84,-93.15 850.27,-99.16 871.74,-104.04"/>
<polygon fill="#63b8ff" stroke="#63b8ff" points="800.39,-84.22 789.86,-85.42 798.84,-91.05 800.39,-84.22"/>
</g>
<!-- Node40 -->
<g id="node40" class="node">
<title>Node40</title>
<g id="a_node40"><a xlink:href="classMoose_1_1FunctorAbstract.html" target="_top" xlink:title="Abstract base class that can be used to hold collections of functors.">
<polygon fill="white" stroke="#666666" points="567,-78.5 418,-78.5 418,-59.5 567,-59.5 567,-78.5"/>
<text text-anchor="middle" x="492.5" y="-66.5" font-family="Courier,monospace" font-size="10.00">Moose::FunctorAbstract</text>
</a>
</g>
</g>
<!-- Node40&#45;&gt;Node39 -->
<g id="edge39" class="edge">
<title>Node40&#45;&gt;Node39</title>
<path fill="none" stroke="#63b8ff" d="M578.58,-69.74C606.46,-69.98 636.88,-70.24 662.7,-70.46"/>
<polygon fill="#63b8ff" stroke="#63b8ff" points="578.77,-66.24 568.74,-69.65 578.71,-73.24 578.77,-66.24"/>
</g>
<!-- Node41 -->
<g id="node41" class="node">
<title>Node41</title>
<g id="a_node41"><a xlink:href="classFaceArgInterface.html" target="_top" xlink:title="A base class interface for both producers and consumers of functor face arguments,...">
<polygon fill="white" stroke="#666666" points="331,-57.5 218,-57.5 218,-38.5 331,-38.5 331,-57.5"/>
<text text-anchor="middle" x="274.5" y="-45.5" font-family="Courier,monospace" font-size="10.00">FaceArgInterface</text>
</a>
</g>
</g>
<!-- Node41&#45;&gt;Node40 -->
<g id="edge40" class="edge">
<title>Node41&#45;&gt;Node40</title>
<path fill="none" stroke="#63b8ff" d="M342.78,-54.54C366.49,-56.85 393.27,-59.45 417.51,-61.81"/>
<polygon fill="#63b8ff" stroke="#63b8ff" points="343.2,-51.07 332.91,-53.58 342.53,-58.03 343.2,-51.07"/>
</g>
<!-- Node43 -->
<g id="node43" class="node">
<title>Node43</title>
<g id="a_node43"><a xlink:href="classFaceArgProducerInterface.html" target="_top" xlink:title="An interface for producers of functor face arguments, e.g.">
<polygon fill="white" stroke="#666666" points="1164,-61.5 1003,-61.5 1003,-42.5 1164,-42.5 1164,-61.5"/>
<text text-anchor="middle" x="1083.5" y="-49.5" font-family="Courier,monospace" font-size="10.00">FaceArgProducerInterface</text>
</a>
</g>
</g>
<!-- Node41&#45;&gt;Node43 -->
<g id="edge43" class="edge">
<title>Node41&#45;&gt;Node43</title>
<path fill="none" stroke="#63b8ff" d="M342.67,-47.37C446.97,-46.51 654.17,-45.26 830,-47 887.76,-47.57 952.95,-48.88 1002.62,-50.01"/>
<polygon fill="#63b8ff" stroke="#63b8ff" points="342.87,-43.87 332.9,-47.45 342.93,-50.87 342.87,-43.87"/>
</g>
<!-- Node42 -->
<g id="node42" class="node">
<title>Node42</title>
<g id="a_node42"><a xlink:href="classMooseVariableInterface.html" target="_top" xlink:title=" ">
<polygon fill="white" stroke="#666666" points="1358,-30 1209,-30 1209,0 1358,0 1358,-30"/>
<text text-anchor="start" x="1217" y="-18" font-family="Courier,monospace" font-size="10.00">MooseVariableInterface</text>
<text text-anchor="middle" x="1283.5" y="-7" font-family="Courier,monospace" font-size="10.00">&lt; Real &gt;</text>
</a>
</g>
</g>
<!-- Node42&#45;&gt;Node2 -->
<g id="edge41" class="edge">
<title>Node42&#45;&gt;Node2</title>
<path fill="none" stroke="#63b8ff" d="M1369.62,-31.27C1399.07,-36.89 1431.17,-43.03 1457.19,-48"/>
<polygon fill="#63b8ff" stroke="#63b8ff" points="1370.45,-27.86 1359.97,-29.42 1369.14,-34.74 1370.45,-27.86"/>
</g>
<!-- Node43&#45;&gt;Node2 -->
<g id="edge42" class="edge">
<title>Node43&#45;&gt;Node2</title>
<path fill="none" stroke="#63b8ff" d="M1175.74,-53.29C1242.29,-54.23 1332.7,-55.5 1402.63,-56.49"/>
<polygon fill="#63b8ff" stroke="#63b8ff" points="1176,-49.79 1165.95,-53.15 1175.9,-56.79 1176,-49.79"/>
</g>
</g>
</svg>
