<?xml version="1.0" encoding="UTF-8" standalone="no"?>
<!DOCTYPE svg PUBLIC "-//W3C//DTD SVG 1.1//EN"
 "http://www.w3.org/Graphics/SVG/1.1/DTD/svg11.dtd">
<!-- Generated by graphviz version 7.0.5 (20221223.1930)
 -->
<!-- Title: ReporterGeneralContext&lt; T &gt; Pages: 1 -->
<svg width="957pt" height="138pt"
 viewBox="0.00 0.00 957.00 138.00" xmlns="http://www.w3.org/2000/svg" xmlns:xlink="http://www.w3.org/1999/xlink">
<g id="graph0" class="graph" transform="scale(1 1) rotate(0) translate(4 134)">
<title>ReporterGeneralContext&lt; T &gt;</title>
<!-- Node1 -->
<g id="node1" class="node">
<title>Node1</title>
<g id="a_node1"><a xlink:title=" ">
<polygon fill="#999999" stroke="#666666" points="710,-74 531,-74 531,-55 710,-55 710,-74"/>
<text text-anchor="middle" x="620.5" y="-62" font-family="Courier,monospace" font-size="10.00">ReporterGeneralContext&lt; T &gt;</text>
</a>
</g>
</g>
<!-- Node5 -->
<g id="node5" class="node">
<title>Node5</title>
<g id="a_node5"><a xlink:href="classReporterBroadcastContext.html" target="_top" xlink:title="A context that broadcasts the Reporter value from the root processor.">
<polygon fill="white" stroke="#666666" points="943,-130 752,-130 752,-111 943,-111 943,-130"/>
<text text-anchor="middle" x="847.5" y="-118" font-family="Courier,monospace" font-size="10.00">ReporterBroadcastContext&lt; T &gt;</text>
</a>
</g>
</g>
<!-- Node1&#45;&gt;Node5 -->
<g id="edge4" class="edge">
<title>Node1&#45;&gt;Node5</title>
<path fill="none" stroke="#63b8ff" d="M661.34,-77.98C685.61,-85.87 717.36,-95.59 746,-102.5 758.23,-105.45 771.41,-108.15 784.07,-110.51"/>
<polygon fill="#63b8ff" stroke="#63b8ff" points="662.44,-74.66 651.85,-74.87 660.26,-81.31 662.44,-74.66"/>
</g>
<!-- Node6 -->
<g id="node6" class="node">
<title>Node6</title>
<g id="a_node6"><a xlink:href="classReporterGatherContext.html" target="_top" xlink:title="A context that gathers the Reporter value to the root processor.">
<polygon fill="white" stroke="#666666" points="934,-93 761,-93 761,-74 934,-74 934,-93"/>
<text text-anchor="middle" x="847.5" y="-81" font-family="Courier,monospace" font-size="10.00">ReporterGatherContext&lt; T &gt;</text>
</a>
</g>
</g>
<!-- Node1&#45;&gt;Node6 -->
<g id="edge5" class="edge">
<title>Node1&#45;&gt;Node6</title>
<path fill="none" stroke="#63b8ff" d="M721.79,-72.97C734.81,-74.07 748.04,-75.19 760.79,-76.26"/>
<polygon fill="#63b8ff" stroke="#63b8ff" points="722.19,-69.49 711.93,-72.14 721.6,-76.47 722.19,-69.49"/>
</g>
<!-- Node7 -->
<g id="node7" class="node">
<title>Node7</title>
<g id="a_node7"><a xlink:href="classReporterScatterContext.html" target="_top" xlink:title="A context that scatters the Reporter value from the root processor.">
<polygon fill="white" stroke="#666666" points="937,-56 758,-56 758,-37 937,-37 937,-56"/>
<text text-anchor="middle" x="847.5" y="-44" font-family="Courier,monospace" font-size="10.00">ReporterScatterContext&lt; T &gt;</text>
</a>
</g>
</g>
<!-- Node1&#45;&gt;Node7 -->
<g id="edge6" class="edge">
<title>Node1&#45;&gt;Node7</title>
<path fill="none" stroke="#63b8ff" d="M721.85,-56.47C733.85,-55.51 746.04,-54.54 757.85,-53.59"/>
<polygon fill="#63b8ff" stroke="#63b8ff" points="721.62,-52.98 711.93,-57.27 722.18,-59.96 721.62,-52.98"/>
</g>
<!-- Node8 -->
<g id="node8" class="node">
<title>Node8</title>
<g id="a_node8"><a xlink:href="classVectorPostprocessorContext.html" target="_top" xlink:title=" ">
<polygon fill="white" stroke="#666666" points="949,-19 746,-19 746,0 949,0 949,-19"/>
<text text-anchor="middle" x="847.5" y="-7" font-family="Courier,monospace" font-size="10.00">VectorPostprocessorContext&lt; T &gt;</text>
</a>
</g>
</g>
<!-- Node1&#45;&gt;Node8 -->
<g id="edge7" class="edge">
<title>Node1&#45;&gt;Node8</title>
<path fill="none" stroke="#63b8ff" d="M662.33,-51.11C686.49,-43.51 717.78,-34.2 746,-27.5 758.42,-24.55 771.8,-21.84 784.62,-19.46"/>
<polygon fill="#63b8ff" stroke="#63b8ff" points="661.35,-47.75 652.88,-54.12 663.47,-54.42 661.35,-47.75"/>
</g>
<!-- Node2 -->
<g id="node2" class="node">
<title>Node2</title>
<g id="a_node2"><a xlink:href="classReporterContext.html" target="_top" xlink:title="General context that is called by all Reporter values to manage the old values.">
<polygon fill="white" stroke="#666666" points="495,-74 358,-74 358,-55 495,-55 495,-74"/>
<text text-anchor="middle" x="426.5" y="-62" font-family="Courier,monospace" font-size="10.00">ReporterContext&lt; T &gt;</text>
</a>
</g>
</g>
<!-- Node2&#45;&gt;Node1 -->
<g id="edge1" class="edge">
<title>Node2&#45;&gt;Node1</title>
<path fill="none" stroke="#63b8ff" d="M506.88,-64.5C514.77,-64.5 522.81,-64.5 530.78,-64.5"/>
<polygon fill="#63b8ff" stroke="#63b8ff" points="506.98,-61 496.98,-64.5 506.98,-68 506.98,-61"/>
</g>
<!-- Node3 -->
<g id="node3" class="node">
<title>Node3</title>
<g id="a_node3"><a xlink:href="classReporterContextBase.html" target="_top" xlink:title="This is a helper class to aid with parallel communication of compute Reporter values as well as provi...">
<polygon fill="white" stroke="#666666" points="322,-74 191,-74 191,-55 322,-55 322,-74"/>
<text text-anchor="middle" x="256.5" y="-62" font-family="Courier,monospace" font-size="10.00">ReporterContextBase</text>
</a>
</g>
</g>
<!-- Node3&#45;&gt;Node2 -->
<g id="edge2" class="edge">
<title>Node3&#45;&gt;Node2</title>
<path fill="none" stroke="#63b8ff" d="M333.95,-64.5C341.86,-64.5 349.86,-64.5 357.66,-64.5"/>
<polygon fill="#63b8ff" stroke="#63b8ff" points="333.97,-61 323.97,-64.5 333.97,-68 333.97,-61"/>
</g>
<!-- Node4 -->
<g id="node4" class="node">
<title>Node4</title>
<g id="a_node4"><a xlink:title=" ">
<polygon fill="white" stroke="#666666" points="155,-74 0,-74 0,-55 155,-55 155,-74"/>
<text text-anchor="middle" x="77.5" y="-62" font-family="Courier,monospace" font-size="10.00">libMesh::ParallelObject</text>
</a>
</g>
</g>
<!-- Node4&#45;&gt;Node3 -->
<g id="edge3" class="edge">
<title>Node4&#45;&gt;Node3</title>
<path fill="none" stroke="#63b8ff" d="M166.72,-64.5C174.77,-64.5 182.82,-64.5 190.62,-64.5"/>
<polygon fill="#63b8ff" stroke="#63b8ff" points="166.88,-61 156.88,-64.5 166.88,-68 166.88,-61"/>
</g>
</g>
</svg>
