<?xml version="1.0" encoding="UTF-8" standalone="no"?>
<!DOCTYPE svg PUBLIC "-//W3C//DTD SVG 1.1//EN"
 "http://www.w3.org/Graphics/SVG/1.1/DTD/svg11.dtd">
<!-- Generated by graphviz version 7.0.5 (20221223.1930)
 -->
<!-- Title: GeneralDamper Pages: 1 -->
<svg width="902pt" height="212pt"
 viewBox="0.00 0.00 902.00 212.00" xmlns="http://www.w3.org/2000/svg" xmlns:xlink="http://www.w3.org/1999/xlink">
<g id="graph0" class="graph" transform="scale(1 1) rotate(0) translate(4 208)">
<title>GeneralDamper</title>
<!-- Node1 -->
<g id="node1" class="node">
<title>Node1</title>
<g id="a_node1"><a xlink:title="Base class for deriving general dampers.">
<polygon fill="#999999" stroke="#666666" points="757,-74 662,-74 662,-55 757,-55 757,-74"/>
<text text-anchor="middle" x="709.5" y="-62" font-family="Courier,monospace" font-size="10.00">GeneralDamper</text>
</a>
</g>
</g>
<!-- Node13 -->
<g id="node13" class="node">
<title>Node13</title>
<g id="a_node13"><a xlink:href="classConstantDamper.html" target="_top" xlink:title="Simple constant damper.">
<polygon fill="white" stroke="#666666" points="894,-74 793,-74 793,-55 894,-55 894,-74"/>
<text text-anchor="middle" x="843.5" y="-62" font-family="Courier,monospace" font-size="10.00">ConstantDamper</text>
</a>
</g>
</g>
<!-- Node1&#45;&gt;Node13 -->
<g id="edge12" class="edge">
<title>Node1&#45;&gt;Node13</title>
<path fill="none" stroke="#63b8ff" d="M768.86,-64.5C776.78,-64.5 784.85,-64.5 792.61,-64.5"/>
<polygon fill="#63b8ff" stroke="#63b8ff" points="768.92,-61 758.92,-64.5 768.92,-68 768.92,-61"/>
</g>
<!-- Node2 -->
<g id="node2" class="node">
<title>Node2</title>
<g id="a_node2"><a xlink:href="classDamper.html" target="_top" xlink:title="Base class for deriving dampers.">
<polygon fill="white" stroke="#666666" points="626,-74 573,-74 573,-55 626,-55 626,-74"/>
<text text-anchor="middle" x="599.5" y="-62" font-family="Courier,monospace" font-size="10.00">Damper</text>
</a>
</g>
</g>
<!-- Node2&#45;&gt;Node1 -->
<g id="edge1" class="edge">
<title>Node2&#45;&gt;Node1</title>
<path fill="none" stroke="#63b8ff" d="M637.65,-64.5C645.4,-64.5 653.67,-64.5 661.72,-64.5"/>
<polygon fill="#63b8ff" stroke="#63b8ff" points="637.88,-61 627.88,-64.5 637.88,-68 637.88,-61"/>
</g>
<!-- Node3 -->
<g id="node3" class="node">
<title>Node3</title>
<g id="a_node3"><a xlink:href="classMooseObject.html" target="_top" xlink:title="Every object that can be built by the factory should be derived from this class.">
<polygon fill="white" stroke="#666666" points="510,-130 427,-130 427,-111 510,-111 510,-130"/>
<text text-anchor="middle" x="468.5" y="-118" font-family="Courier,monospace" font-size="10.00">MooseObject</text>
</a>
</g>
</g>
<!-- Node3&#45;&gt;Node2 -->
<g id="edge2" class="edge">
<title>Node3&#45;&gt;Node2</title>
<path fill="none" stroke="#63b8ff" d="M521.4,-107.43C526.74,-105.63 532.02,-103.65 537,-101.5 554.16,-94.08 572.32,-82.66 584.42,-74.46"/>
<polygon fill="#63b8ff" stroke="#63b8ff" points="520.38,-104.08 511.89,-110.42 522.48,-110.76 520.38,-104.08"/>
</g>
<!-- Node4 -->
<g id="node4" class="node">
<title>Node4</title>
<g id="a_node4"><a xlink:href="classMooseBase.html" target="_top" xlink:title="Base class for everything in MOOSE with a name and a type.">
<polygon fill="white" stroke="#666666" points="310,-204 239,-204 239,-185 310,-185 310,-204"/>
<text text-anchor="middle" x="274.5" y="-192" font-family="Courier,monospace" font-size="10.00">MooseBase</text>
</a>
</g>
</g>
<!-- Node4&#45;&gt;Node3 -->
<g id="edge3" class="edge">
<title>Node4&#45;&gt;Node3</title>
<path fill="none" stroke="#63b8ff" d="M321.5,-187.81C335.39,-185.08 350.53,-181.39 364,-176.5 397.41,-164.37 433.22,-142.86 452.73,-130.32"/>
<polygon fill="#63b8ff" stroke="#63b8ff" points="320.89,-184.37 311.68,-189.61 322.14,-191.25 320.89,-184.37"/>
</g>
<!-- Node5 -->
<g id="node5" class="node">
<title>Node5</title>
<g id="a_node5"><a xlink:href="classMooseBaseParameterInterface.html" target="_top" xlink:title="Every object that can be built by the factory should be derived from this class.">
<polygon fill="white" stroke="#666666" points="364,-167 185,-167 185,-148 364,-148 364,-167"/>
<text text-anchor="middle" x="274.5" y="-155" font-family="Courier,monospace" font-size="10.00">MooseBaseParameterInterface</text>
</a>
</g>
</g>
<!-- Node5&#45;&gt;Node3 -->
<g id="edge4" class="edge">
<title>Node5&#45;&gt;Node3</title>
<path fill="none" stroke="#63b8ff" d="M338.48,-145.36C367.47,-139.78 401.03,-133.31 426.65,-128.37"/>
<polygon fill="#63b8ff" stroke="#63b8ff" points="337.85,-141.92 328.69,-147.25 339.17,-148.79 337.85,-141.92"/>
</g>
<!-- Node6 -->
<g id="node6" class="node">
<title>Node6</title>
<g id="a_node6"><a xlink:href="classMooseBaseErrorInterface.html" target="_top" xlink:title="Interface that provides APIs to output errors/warnings/info messages.">
<polygon fill="white" stroke="#666666" points="352,-130 197,-130 197,-111 352,-111 352,-130"/>
<text text-anchor="middle" x="274.5" y="-118" font-family="Courier,monospace" font-size="10.00">MooseBaseErrorInterface</text>
</a>
</g>
</g>
<!-- Node6&#45;&gt;Node3 -->
<g id="edge5" class="edge">
<title>Node6&#45;&gt;Node3</title>
<path fill="none" stroke="#63b8ff" d="M363.87,-120.5C385.79,-120.5 408.24,-120.5 426.61,-120.5"/>
<polygon fill="#63b8ff" stroke="#63b8ff" points="364,-117 354,-120.5 364,-124 364,-117"/>
</g>
<!-- Node7 -->
<g id="node7" class="node">
<title>Node7</title>
<g id="a_node7"><a xlink:href="classConsoleStreamInterface.html" target="_top" xlink:title="An inteface for the _console for outputting to the Console object.">
<polygon fill="white" stroke="#666666" points="149,-130 0,-130 0,-111 149,-111 149,-130"/>
<text text-anchor="middle" x="74.5" y="-118" font-family="Courier,monospace" font-size="10.00">ConsoleStreamInterface</text>
</a>
</g>
</g>
<!-- Node7&#45;&gt;Node6 -->
<g id="edge6" class="edge">
<title>Node7&#45;&gt;Node6</title>
<path fill="none" stroke="#63b8ff" d="M160.62,-120.5C172.62,-120.5 184.9,-120.5 196.73,-120.5"/>
<polygon fill="#63b8ff" stroke="#63b8ff" points="160.74,-117 150.74,-120.5 160.74,-124 160.74,-117"/>
</g>
<!-- Node8 -->
<g id="node8" class="node">
<title>Node8</title>
<g id="a_node8"><a xlink:title=" ">
<polygon fill="white" stroke="#666666" points="352,-93 197,-93 197,-74 352,-74 352,-93"/>
<text text-anchor="middle" x="274.5" y="-81" font-family="Courier,monospace" font-size="10.00">libMesh::ParallelObject</text>
</a>
</g>
</g>
<!-- Node8&#45;&gt;Node3 -->
<g id="edge7" class="edge">
<title>Node8&#45;&gt;Node3</title>
<path fill="none" stroke="#63b8ff" d="M338.48,-95.64C367.47,-101.22 401.03,-107.69 426.65,-112.63"/>
<polygon fill="#63b8ff" stroke="#63b8ff" points="339.17,-92.21 328.69,-93.75 337.85,-99.08 339.17,-92.21"/>
</g>
<!-- Node9 -->
<g id="node9" class="node">
<title>Node9</title>
<g id="a_node9"><a xlink:href="classDataFileInterface.html" target="_top" xlink:title=" ">
<polygon fill="white" stroke="#666666" points="337,-55.5 212,-55.5 212,-25.5 337,-25.5 337,-55.5"/>
<text text-anchor="start" x="220" y="-43.5" font-family="Courier,monospace" font-size="10.00">DataFileInterface&lt;</text>
<text text-anchor="middle" x="274.5" y="-32.5" font-family="Courier,monospace" font-size="10.00"> MooseObject &gt;</text>
</a>
</g>
</g>
<!-- Node9&#45;&gt;Node3 -->
<g id="edge8" class="edge">
<title>Node9&#45;&gt;Node3</title>
<path fill="none" stroke="#63b8ff" d="M347.62,-56.49C353.32,-58.82 358.86,-61.47 364,-64.5 383.77,-76.14 380.28,-89.77 400,-101.5 408.16,-106.36 417.61,-110.02 426.82,-112.76"/>
<polygon fill="#63b8ff" stroke="#63b8ff" points="349.23,-53.35 338.64,-53.17 346.8,-59.92 349.23,-53.35"/>
</g>
<!-- Node10 -->
<g id="node10" class="node">
<title>Node10</title>
<g id="a_node10"><a xlink:href="classSetupInterface.html" target="_top" xlink:title=" ">
<polygon fill="white" stroke="#666666" points="519,-93 418,-93 418,-74 519,-74 519,-93"/>
<text text-anchor="middle" x="468.5" y="-81" font-family="Courier,monospace" font-size="10.00">SetupInterface</text>
</a>
</g>
</g>
<!-- Node10&#45;&gt;Node2 -->
<g id="edge9" class="edge">
<title>Node10&#45;&gt;Node2</title>
<path fill="none" stroke="#63b8ff" d="M530.59,-74.5C545.37,-72.32 560.4,-70.11 572.55,-68.32"/>
<polygon fill="#63b8ff" stroke="#63b8ff" points="530.26,-71.01 520.87,-75.93 531.28,-77.94 530.26,-71.01"/>
</g>
<!-- Node11 -->
<g id="node11" class="node">
<title>Node11</title>
<g id="a_node11"><a xlink:href="classRestartable.html" target="_top" xlink:title="A class for creating restricted objects.">
<polygon fill="white" stroke="#666666" points="510,-56 427,-56 427,-37 510,-37 510,-56"/>
<text text-anchor="middle" x="468.5" y="-44" font-family="Courier,monospace" font-size="10.00">Restartable</text>
</a>
</g>
</g>
<!-- Node11&#45;&gt;Node2 -->
<g id="edge10" class="edge">
<title>Node11&#45;&gt;Node2</title>
<path fill="none" stroke="#63b8ff" d="M521.6,-53.77C539.13,-56.22 557.93,-58.84 572.55,-60.88"/>
<polygon fill="#63b8ff" stroke="#63b8ff" points="522.2,-50.32 511.82,-52.4 521.24,-57.25 522.2,-50.32"/>
</g>
<!-- Node12 -->
<g id="node12" class="node">
<title>Node12</title>
<g id="a_node12"><a xlink:href="classMeshChangedInterface.html" target="_top" xlink:title="Interface for notifications that the mesh has changed.">
<polygon fill="white" stroke="#666666" points="537,-19 400,-19 400,0 537,0 537,-19"/>
<text text-anchor="middle" x="468.5" y="-7" font-family="Courier,monospace" font-size="10.00">MeshChangedInterface</text>
</a>
</g>
</g>
<!-- Node12&#45;&gt;Node2 -->
<g id="edge11" class="edge">
<title>Node12&#45;&gt;Node2</title>
<path fill="none" stroke="#63b8ff" d="M524.99,-22.93C529.1,-24.34 533.14,-25.86 537,-27.5 554.44,-34.89 572.85,-46.55 584.93,-54.8"/>
<polygon fill="#63b8ff" stroke="#63b8ff" points="526.07,-19.6 515.48,-19.92 523.96,-26.28 526.07,-19.6"/>
</g>
</g>
</svg>
