<?xml version="1.0" encoding="UTF-8" standalone="no"?>
<!DOCTYPE svg PUBLIC "-//W3C//DTD SVG 1.1//EN"
 "http://www.w3.org/Graphics/SVG/1.1/DTD/svg11.dtd">
<!-- Generated by graphviz version 7.0.5 (20221223.1930)
 -->
<!-- Title: SystemBase Pages: 1 -->
<svg width="520pt" height="247pt"
 viewBox="0.00 0.00 520.00 247.00" xmlns="http://www.w3.org/2000/svg" xmlns:xlink="http://www.w3.org/1999/xlink">
<g id="graph0" class="graph" transform="scale(1 1) rotate(0) translate(4 243)">
<title>SystemBase</title>
<!-- Node1 -->
<g id="node1" class="node">
<title>Node1</title>
<g id="a_node1"><a xlink:title="Base class for a system (of equations)">
<polygon fill="#999999" stroke="#666666" points="217,-184 140,-184 140,-165 217,-165 217,-184"/>
<text text-anchor="middle" x="178.5" y="-172" font-family="Courier,monospace" font-size="10.00">SystemBase</text>
</a>
</g>
</g>
<!-- Node4 -->
<g id="node4" class="node">
<title>Node4</title>
<g id="a_node4"><a xlink:href="classAuxiliarySystem.html" target="_top" xlink:title="A system that holds auxiliary variables.">
<polygon fill="white" stroke="#666666" points="107,-129 0,-129 0,-110 107,-110 107,-129"/>
<text text-anchor="middle" x="53.5" y="-117" font-family="Courier,monospace" font-size="10.00">AuxiliarySystem</text>
</a>
</g>
</g>
<!-- Node1&#45;&gt;Node4 -->
<g id="edge3" class="edge">
<title>Node1&#45;&gt;Node4</title>
<path fill="none" stroke="#63b8ff" d="M146.81,-160.06C124.1,-150.43 94.16,-137.74 74.39,-129.36"/>
<polygon fill="#63b8ff" stroke="#63b8ff" points="145.33,-163.24 155.9,-163.92 148.06,-156.79 145.33,-163.24"/>
</g>
<!-- Node5 -->
<g id="node5" class="node">
<title>Node5</title>
<g id="a_node5"><a xlink:href="classDisplacedSystem.html" target="_top" xlink:title=" ">
<polygon fill="white" stroke="#666666" points="232,-129 125,-129 125,-110 232,-110 232,-129"/>
<text text-anchor="middle" x="178.5" y="-117" font-family="Courier,monospace" font-size="10.00">DisplacedSystem</text>
</a>
</g>
</g>
<!-- Node1&#45;&gt;Node5 -->
<g id="edge4" class="edge">
<title>Node1&#45;&gt;Node5</title>
<path fill="none" stroke="#63b8ff" d="M178.5,-153.35C178.5,-145.1 178.5,-135.97 178.5,-129.44"/>
<polygon fill="#63b8ff" stroke="#63b8ff" points="175,-153.23 178.5,-163.23 182,-153.23 175,-153.23"/>
</g>
<!-- Node6 -->
<g id="node6" class="node">
<title>Node6</title>
<g id="a_node6"><a xlink:href="classNonlinearSystemBase.html" target="_top" xlink:title="Nonlinear system to be solved.">
<polygon fill="white" stroke="#666666" points="381,-129 250,-129 250,-110 381,-110 381,-129"/>
<text text-anchor="middle" x="315.5" y="-117" font-family="Courier,monospace" font-size="10.00">NonlinearSystemBase</text>
</a>
</g>
</g>
<!-- Node1&#45;&gt;Node6 -->
<g id="edge5" class="edge">
<title>Node1&#45;&gt;Node6</title>
<path fill="none" stroke="#63b8ff" d="M212.22,-160.45C237.23,-150.78 270.64,-137.85 292.6,-129.36"/>
<polygon fill="#63b8ff" stroke="#63b8ff" points="211.22,-157.09 203.15,-163.96 213.74,-163.62 211.22,-157.09"/>
</g>
<!-- Node2 -->
<g id="node2" class="node">
<title>Node2</title>
<g id="a_node2"><a xlink:title=" ">
<polygon fill="white" stroke="#666666" points="171,-239 16,-239 16,-220 171,-220 171,-239"/>
<text text-anchor="middle" x="93.5" y="-227" font-family="Courier,monospace" font-size="10.00">libMesh::ParallelObject</text>
</a>
</g>
</g>
<!-- Node2&#45;&gt;Node1 -->
<g id="edge1" class="edge">
<title>Node2&#45;&gt;Node1</title>
<path fill="none" stroke="#63b8ff" d="M117.62,-213.46C132.69,-204.06 151.59,-192.28 164.29,-184.36"/>
<polygon fill="#63b8ff" stroke="#63b8ff" points="115.84,-210.45 109.2,-218.71 119.54,-216.39 115.84,-210.45"/>
</g>
<!-- Node3 -->
<g id="node3" class="node">
<title>Node3</title>
<g id="a_node3"><a xlink:href="classConsoleStreamInterface.html" target="_top" xlink:title="An inteface for the _console for outputting to the Console object.">
<polygon fill="white" stroke="#666666" points="338,-239 189,-239 189,-220 338,-220 338,-239"/>
<text text-anchor="middle" x="263.5" y="-227" font-family="Courier,monospace" font-size="10.00">ConsoleStreamInterface</text>
</a>
</g>
</g>
<!-- Node3&#45;&gt;Node1 -->
<g id="edge2" class="edge">
<title>Node3&#45;&gt;Node1</title>
<path fill="none" stroke="#63b8ff" d="M239.38,-213.46C224.31,-204.06 205.41,-192.28 192.71,-184.36"/>
<polygon fill="#63b8ff" stroke="#63b8ff" points="237.46,-216.39 247.8,-218.71 241.16,-210.45 237.46,-216.39"/>
</g>
<!-- Node7 -->
<g id="node7" class="node">
<title>Node7</title>
<g id="a_node7"><a xlink:href="classDumpObjectsNonlinearSystem.html" target="_top" xlink:title="Nonlinear system for dumping objects.">
<polygon fill="white" stroke="#666666" points="229,-74 56,-74 56,-55 229,-55 229,-74"/>
<text text-anchor="middle" x="142.5" y="-62" font-family="Courier,monospace" font-size="10.00">DumpObjectsNonlinearSystem</text>
</a>
</g>
</g>
<!-- Node6&#45;&gt;Node7 -->
<g id="edge6" class="edge">
<title>Node6&#45;&gt;Node7</title>
<path fill="none" stroke="#63b8ff" d="M275.47,-106.24C243.76,-96.52 200.19,-83.18 171.7,-74.45"/>
<polygon fill="#63b8ff" stroke="#63b8ff" points="274.12,-109.48 284.71,-109.07 276.17,-102.79 274.12,-109.48"/>
</g>
<!-- Node8 -->
<g id="node8" class="node">
<title>Node8</title>
<g id="a_node8"><a xlink:href="classNonlinearEigenSystem.html" target="_top" xlink:title="Nonlinear eigenvalue system to be solved.">
<polygon fill="white" stroke="#666666" points="384,-74 247,-74 247,-55 384,-55 384,-74"/>
<text text-anchor="middle" x="315.5" y="-62" font-family="Courier,monospace" font-size="10.00">NonlinearEigenSystem</text>
</a>
</g>
</g>
<!-- Node6&#45;&gt;Node8 -->
<g id="edge7" class="edge">
<title>Node6&#45;&gt;Node8</title>
<path fill="none" stroke="#63b8ff" d="M315.5,-98.35C315.5,-90.1 315.5,-80.97 315.5,-74.44"/>
<polygon fill="#63b8ff" stroke="#63b8ff" points="312,-98.23 315.5,-108.23 319,-98.23 312,-98.23"/>
</g>
<!-- Node9 -->
<g id="node9" class="node">
<title>Node9</title>
<g id="a_node9"><a xlink:href="classNonlinearSystem.html" target="_top" xlink:title="Nonlinear system to be solved.">
<polygon fill="white" stroke="#666666" points="509,-74 402,-74 402,-55 509,-55 509,-74"/>
<text text-anchor="middle" x="455.5" y="-62" font-family="Courier,monospace" font-size="10.00">NonlinearSystem</text>
</a>
</g>
</g>
<!-- Node6&#45;&gt;Node9 -->
<g id="edge8" class="edge">
<title>Node6&#45;&gt;Node9</title>
<path fill="none" stroke="#63b8ff" d="M349.96,-105.45C375.51,-95.78 409.66,-82.85 432.1,-74.36"/>
<polygon fill="#63b8ff" stroke="#63b8ff" points="348.78,-102.16 340.66,-108.97 351.26,-108.71 348.78,-102.16"/>
</g>
<!-- Node10 -->
<g id="node10" class="node">
<title>Node10</title>
<g id="a_node10"><a xlink:href="classMooseEigenSystem.html" target="_top" xlink:title=" ">
<polygon fill="white" stroke="#666666" points="512,-19 399,-19 399,0 512,0 512,-19"/>
<text text-anchor="middle" x="455.5" y="-7" font-family="Courier,monospace" font-size="10.00">MooseEigenSystem</text>
</a>
</g>
</g>
<!-- Node9&#45;&gt;Node10 -->
<g id="edge9" class="edge">
<title>Node9&#45;&gt;Node10</title>
<path fill="none" stroke="#63b8ff" d="M455.5,-43.35C455.5,-35.1 455.5,-25.97 455.5,-19.44"/>
<polygon fill="#63b8ff" stroke="#63b8ff" points="452,-43.23 455.5,-53.23 459,-43.23 452,-43.23"/>
</g>
</g>
</svg>
