<?xml version="1.0" encoding="UTF-8" standalone="no"?>
<!DOCTYPE svg PUBLIC "-//W3C//DTD SVG 1.1//EN"
 "http://www.w3.org/Graphics/SVG/1.1/DTD/svg11.dtd">
<!-- Generated by graphviz version 7.0.5 (20221223.1930)
 -->
<!-- Title: ReporterPointMarker Pages: 1 -->
<svg width="939pt" height="434pt"
 viewBox="0.00 0.00 939.00 434.00" xmlns="http://www.w3.org/2000/svg" xmlns:xlink="http://www.w3.org/1999/xlink">
<g id="graph0" class="graph" transform="scale(1 1) rotate(0) translate(4 430)">
<title>ReporterPointMarker</title>
<!-- Node1 -->
<g id="node1" class="node">
<title>Node1</title>
<g id="a_node1"><a xlink:title="Marks all elements as inside/empty if they do/don&#39;t contain a point.">
<polygon fill="#999999" stroke="#666666" points="931,-166 800,-166 800,-147 931,-147 931,-166"/>
<text text-anchor="middle" x="865.5" y="-154" font-family="Courier,monospace" font-size="10.00">ReporterPointMarker</text>
</a>
</g>
</g>
<!-- Node2 -->
<g id="node2" class="node">
<title>Node2</title>
<g id="a_node2"><a xlink:href="classMarker.html" target="_top" xlink:title=" ">
<polygon fill="white" stroke="#666666" points="731,-185 678,-185 678,-166 731,-166 731,-185"/>
<text text-anchor="middle" x="704.5" y="-173" font-family="Courier,monospace" font-size="10.00">Marker</text>
</a>
</g>
</g>
<!-- Node2&#45;&gt;Node1 -->
<g id="edge1" class="edge">
<title>Node2&#45;&gt;Node1</title>
<path fill="none" stroke="#63b8ff" d="M742.55,-171.07C759.6,-169.03 780.34,-166.56 799.83,-164.23"/>
<polygon fill="#63b8ff" stroke="#63b8ff" points="742.42,-167.56 732.9,-172.23 743.25,-174.51 742.42,-167.56"/>
</g>
<!-- Node3 -->
<g id="node3" class="node">
<title>Node3</title>
<g id="a_node3"><a xlink:href="classMooseObject.html" target="_top" xlink:title="Every object that can be built by the factory should be derived from this class.">
<polygon fill="white" stroke="#666666" points="546,-352 463,-352 463,-333 546,-333 546,-352"/>
<text text-anchor="middle" x="504.5" y="-340" font-family="Courier,monospace" font-size="10.00">MooseObject</text>
</a>
</g>
</g>
<!-- Node3&#45;&gt;Node2 -->
<g id="edge2" class="edge">
<title>Node3&#45;&gt;Node2</title>
<path fill="none" stroke="#63b8ff" d="M557.68,-341.8C575.16,-339.48 594.01,-334.51 609,-324.5 662.24,-288.94 691.53,-212.13 700.5,-185.13"/>
<polygon fill="#63b8ff" stroke="#63b8ff" points="557.52,-338.3 547.94,-342.81 558.25,-345.26 557.52,-338.3"/>
</g>
<!-- Node4 -->
<g id="node4" class="node">
<title>Node4</title>
<g id="a_node4"><a xlink:href="classMooseBase.html" target="_top" xlink:title="Base class for everything in MOOSE with a name and a type.">
<polygon fill="white" stroke="#666666" points="310,-426 239,-426 239,-407 310,-407 310,-426"/>
<text text-anchor="middle" x="274.5" y="-414" font-family="Courier,monospace" font-size="10.00">MooseBase</text>
</a>
</g>
</g>
<!-- Node4&#45;&gt;Node3 -->
<g id="edge3" class="edge">
<title>Node4&#45;&gt;Node3</title>
<path fill="none" stroke="#63b8ff" d="M321.54,-408.78C335.32,-406.03 350.39,-402.58 364,-398.5 407,-385.61 455.19,-364.76 482.19,-352.47"/>
<polygon fill="#63b8ff" stroke="#63b8ff" points="320.97,-405.32 311.81,-410.64 322.29,-412.2 320.97,-405.32"/>
</g>
<!-- Node5 -->
<g id="node5" class="node">
<title>Node5</title>
<g id="a_node5"><a xlink:href="classMooseBaseParameterInterface.html" target="_top" xlink:title="Every object that can be built by the factory should be derived from this class.">
<polygon fill="white" stroke="#666666" points="364,-389 185,-389 185,-370 364,-370 364,-389"/>
<text text-anchor="middle" x="274.5" y="-377" font-family="Courier,monospace" font-size="10.00">MooseBaseParameterInterface</text>
</a>
</g>
</g>
<!-- Node5&#45;&gt;Node3 -->
<g id="edge4" class="edge">
<title>Node5&#45;&gt;Node3</title>
<path fill="none" stroke="#63b8ff" d="M347.88,-367.75C385.73,-361.61 430.68,-354.32 462.51,-349.15"/>
<polygon fill="#63b8ff" stroke="#63b8ff" points="347.7,-364.24 338.39,-369.29 348.83,-371.15 347.7,-364.24"/>
</g>
<!-- Node6 -->
<g id="node6" class="node">
<title>Node6</title>
<g id="a_node6"><a xlink:href="classMooseBaseErrorInterface.html" target="_top" xlink:title="Interface that provides APIs to output errors/warnings/info messages.">
<polygon fill="white" stroke="#666666" points="352,-352 197,-352 197,-333 352,-333 352,-352"/>
<text text-anchor="middle" x="274.5" y="-340" font-family="Courier,monospace" font-size="10.00">MooseBaseErrorInterface</text>
</a>
</g>
</g>
<!-- Node6&#45;&gt;Node3 -->
<g id="edge5" class="edge">
<title>Node6&#45;&gt;Node3</title>
<path fill="none" stroke="#63b8ff" d="M363.8,-342.5C397.92,-342.5 435.28,-342.5 462.77,-342.5"/>
<polygon fill="#63b8ff" stroke="#63b8ff" points="363.89,-339 353.89,-342.5 363.89,-346 363.89,-339"/>
</g>
<!-- Node7 -->
<g id="node7" class="node">
<title>Node7</title>
<g id="a_node7"><a xlink:href="classConsoleStreamInterface.html" target="_top" xlink:title="An inteface for the _console for outputting to the Console object.">
<polygon fill="white" stroke="#666666" points="149,-352 0,-352 0,-333 149,-333 149,-352"/>
<text text-anchor="middle" x="74.5" y="-340" font-family="Courier,monospace" font-size="10.00">ConsoleStreamInterface</text>
</a>
</g>
</g>
<!-- Node7&#45;&gt;Node6 -->
<g id="edge6" class="edge">
<title>Node7&#45;&gt;Node6</title>
<path fill="none" stroke="#63b8ff" d="M160.62,-342.5C172.62,-342.5 184.9,-342.5 196.73,-342.5"/>
<polygon fill="#63b8ff" stroke="#63b8ff" points="160.74,-339 150.74,-342.5 160.74,-346 160.74,-339"/>
</g>
<!-- Node8 -->
<g id="node8" class="node">
<title>Node8</title>
<g id="a_node8"><a xlink:title=" ">
<polygon fill="white" stroke="#666666" points="352,-315 197,-315 197,-296 352,-296 352,-315"/>
<text text-anchor="middle" x="274.5" y="-303" font-family="Courier,monospace" font-size="10.00">libMesh::ParallelObject</text>
</a>
</g>
</g>
<!-- Node8&#45;&gt;Node3 -->
<g id="edge7" class="edge">
<title>Node8&#45;&gt;Node3</title>
<path fill="none" stroke="#63b8ff" d="M347.88,-317.25C385.73,-323.39 430.68,-330.68 462.51,-335.85"/>
<polygon fill="#63b8ff" stroke="#63b8ff" points="348.83,-313.85 338.39,-315.71 347.7,-320.76 348.83,-313.85"/>
</g>
<!-- Node9 -->
<g id="node9" class="node">
<title>Node9</title>
<g id="a_node9"><a xlink:href="classDataFileInterface.html" target="_top" xlink:title=" ">
<polygon fill="white" stroke="#666666" points="337,-277.5 212,-277.5 212,-247.5 337,-247.5 337,-277.5"/>
<text text-anchor="start" x="220" y="-265.5" font-family="Courier,monospace" font-size="10.00">DataFileInterface&lt;</text>
<text text-anchor="middle" x="274.5" y="-254.5" font-family="Courier,monospace" font-size="10.00"> MooseObject &gt;</text>
</a>
</g>
</g>
<!-- Node9&#45;&gt;Node3 -->
<g id="edge8" class="edge">
<title>Node9&#45;&gt;Node3</title>
<path fill="none" stroke="#63b8ff" d="M347.62,-279.35C353.32,-281.73 358.86,-284.44 364,-287.5 383.71,-299.24 379.71,-313.79 400,-324.5 419.11,-334.59 442.71,-339.19 462.54,-341.23"/>
<polygon fill="#63b8ff" stroke="#63b8ff" points="349.23,-276.22 338.64,-275.94 346.74,-282.76 349.23,-276.22"/>
</g>
<!-- Node10 -->
<g id="node10" class="node">
<title>Node10</title>
<g id="a_node10"><a xlink:href="classBlockRestrictable.html" target="_top" xlink:title="An interface that restricts an object to subdomains via the &#39;blocks&#39; input parameter.">
<polygon fill="white" stroke="#666666" points="564,-315 445,-315 445,-296 564,-296 564,-315"/>
<text text-anchor="middle" x="504.5" y="-303" font-family="Courier,monospace" font-size="10.00">BlockRestrictable</text>
</a>
</g>
</g>
<!-- Node10&#45;&gt;Node2 -->
<g id="edge9" class="edge">
<title>Node10&#45;&gt;Node2</title>
<path fill="none" stroke="#63b8ff" d="M575.52,-300.17C587.2,-297.39 598.81,-293.35 609,-287.5 653.35,-262.04 686.31,-207.52 698.43,-185.26"/>
<polygon fill="#63b8ff" stroke="#63b8ff" points="574.92,-296.72 565.83,-302.16 576.33,-303.58 574.92,-296.72"/>
</g>
<!-- Node11 -->
<g id="node11" class="node">
<title>Node11</title>
<g id="a_node11"><a xlink:href="classSetupInterface.html" target="_top" xlink:title=" ">
<polygon fill="white" stroke="#666666" points="555,-278 454,-278 454,-259 555,-259 555,-278"/>
<text text-anchor="middle" x="504.5" y="-266" font-family="Courier,monospace" font-size="10.00">SetupInterface</text>
</a>
</g>
</g>
<!-- Node11&#45;&gt;Node2 -->
<g id="edge10" class="edge">
<title>Node11&#45;&gt;Node2</title>
<path fill="none" stroke="#63b8ff" d="M566.71,-263.03C581,-260.36 595.87,-256.39 609,-250.5 644.74,-234.47 678.69,-201.84 694.39,-185.42"/>
<polygon fill="#63b8ff" stroke="#63b8ff" points="566.2,-259.57 556.91,-264.66 567.35,-266.47 566.2,-259.57"/>
</g>
<!-- Node12 -->
<g id="node12" class="node">
<title>Node12</title>
<g id="a_node12"><a xlink:href="classDependencyResolverInterface.html" target="_top" xlink:title="Interface for sorting dependent vectors of objects.">
<polygon fill="white" stroke="#666666" points="594,-241 415,-241 415,-222 594,-222 594,-241"/>
<text text-anchor="middle" x="504.5" y="-229" font-family="Courier,monospace" font-size="10.00">DependencyResolverInterface</text>
</a>
</g>
</g>
<!-- Node12&#45;&gt;Node2 -->
<g id="edge11" class="edge">
<title>Node12&#45;&gt;Node2</title>
<path fill="none" stroke="#63b8ff" d="M585.84,-219.25C593.72,-217.53 601.55,-215.62 609,-213.5 635.02,-206.09 663.69,-193.97 682.55,-185.41"/>
<polygon fill="#63b8ff" stroke="#63b8ff" points="585.28,-215.79 576.2,-221.24 586.7,-222.65 585.28,-215.79"/>
</g>
<!-- Node13 -->
<g id="node13" class="node">
<title>Node13</title>
<g id="a_node13"><a xlink:href="classMooseVariableDependencyInterface.html" target="_top" xlink:title=" ">
<polygon fill="white" stroke="#666666" points="609,-204 400,-204 400,-185 609,-185 609,-204"/>
<text text-anchor="middle" x="504.5" y="-192" font-family="Courier,monospace" font-size="10.00">MooseVariableDependencyInterface</text>
</a>
</g>
</g>
<!-- Node13&#45;&gt;Node2 -->
<g id="edge12" class="edge">
<title>Node13&#45;&gt;Node2</title>
<path fill="none" stroke="#63b8ff" d="M620.69,-183.45C642.08,-181.39 662.43,-179.44 677.61,-177.98"/>
<polygon fill="#63b8ff" stroke="#63b8ff" points="620.56,-179.94 610.94,-184.38 621.22,-186.91 620.56,-179.94"/>
</g>
<!-- Node14 -->
<g id="node14" class="node">
<title>Node14</title>
<g id="a_node14"><a xlink:href="classUserObjectInterface.html" target="_top" xlink:title="Interface for objects that need to use UserObjects.">
<polygon fill="white" stroke="#666666" points="570,-167 439,-167 439,-148 570,-148 570,-167"/>
<text text-anchor="middle" x="504.5" y="-155" font-family="Courier,monospace" font-size="10.00">UserObjectInterface</text>
</a>
</g>
</g>
<!-- Node14&#45;&gt;Node2 -->
<g id="edge13" class="edge">
<title>Node14&#45;&gt;Node2</title>
<path fill="none" stroke="#63b8ff" d="M581.66,-164.42C615.56,-167.51 653.25,-170.93 677.6,-173.15"/>
<polygon fill="#63b8ff" stroke="#63b8ff" points="582.12,-160.95 571.84,-163.53 581.48,-167.92 582.12,-160.95"/>
</g>
<!-- Node15 -->
<g id="node15" class="node">
<title>Node15</title>
<g id="a_node15"><a xlink:href="classRestartable.html" target="_top" xlink:title="A class for creating restricted objects.">
<polygon fill="white" stroke="#666666" points="546,-130 463,-130 463,-111 546,-111 546,-130"/>
<text text-anchor="middle" x="504.5" y="-118" font-family="Courier,monospace" font-size="10.00">Restartable</text>
</a>
</g>
</g>
<!-- Node15&#45;&gt;Node2 -->
<g id="edge14" class="edge">
<title>Node15&#45;&gt;Node2</title>
<path fill="none" stroke="#63b8ff" d="M557.69,-127.13C574.33,-130.03 592.67,-134.04 609,-139.5 625.97,-145.17 628.39,-150.85 645,-157.5 655.46,-161.69 667.28,-165.5 677.55,-168.52"/>
<polygon fill="#63b8ff" stroke="#63b8ff" points="558.4,-123.7 547.97,-125.55 557.27,-130.61 558.4,-123.7"/>
</g>
<!-- Node16 -->
<g id="node16" class="node">
<title>Node16</title>
<g id="a_node16"><a xlink:href="classPostprocessorInterface.html" target="_top" xlink:title="Interface class for classes which interact with Postprocessors.">
<polygon fill="white" stroke="#666666" points="579,-93 430,-93 430,-74 579,-74 579,-93"/>
<text text-anchor="middle" x="504.5" y="-81" font-family="Courier,monospace" font-size="10.00">PostprocessorInterface</text>
</a>
</g>
</g>
<!-- Node16&#45;&gt;Node2 -->
<g id="edge15" class="edge">
<title>Node16&#45;&gt;Node2</title>
<path fill="none" stroke="#63b8ff" d="M590.07,-92.02C596.75,-94.51 603.17,-97.63 609,-101.5 633.65,-117.86 621.43,-139.62 645,-157.5 654.4,-164.63 666.64,-168.96 677.5,-171.58"/>
<polygon fill="#63b8ff" stroke="#63b8ff" points="591.41,-88.77 580.82,-89.04 589.27,-95.44 591.41,-88.77"/>
</g>
<!-- Node17 -->
<g id="node17" class="node">
<title>Node17</title>
<g id="a_node17"><a xlink:href="classMeshChangedInterface.html" target="_top" xlink:title="Interface for notifications that the mesh has changed.">
<polygon fill="white" stroke="#666666" points="573,-56 436,-56 436,-37 573,-37 573,-56"/>
<text text-anchor="middle" x="504.5" y="-44" font-family="Courier,monospace" font-size="10.00">MeshChangedInterface</text>
</a>
</g>
</g>
<!-- Node17&#45;&gt;Node2 -->
<g id="edge16" class="edge">
<title>Node17&#45;&gt;Node2</title>
<path fill="none" stroke="#63b8ff" d="M584.38,-51.26C593.31,-54.31 601.78,-58.58 609,-64.5 643.27,-92.6 612.57,-127.29 645,-157.5 653.86,-165.76 666.43,-170.23 677.65,-172.65"/>
<polygon fill="#63b8ff" stroke="#63b8ff" points="585.34,-47.9 574.76,-48.54 583.43,-54.63 585.34,-47.9"/>
</g>
<!-- Node18 -->
<g id="node18" class="node">
<title>Node18</title>
<g id="a_node18"><a xlink:href="classOutputInterface.html" target="_top" xlink:title="A class to provide an common interface to objects requiring &quot;outputs&quot; option.">
<polygon fill="white" stroke="#666666" points="558,-19 451,-19 451,0 558,0 558,-19"/>
<text text-anchor="middle" x="504.5" y="-7" font-family="Courier,monospace" font-size="10.00">OutputInterface</text>
</a>
</g>
</g>
<!-- Node18&#45;&gt;Node2 -->
<g id="edge17" class="edge">
<title>Node18&#45;&gt;Node2</title>
<path fill="none" stroke="#63b8ff" d="M569.41,-9.38C583.86,-12.2 598.12,-17.64 609,-27.5 653.42,-67.77 603.21,-114.51 645,-157.5 653.52,-166.26 666.19,-170.78 677.56,-173.11"/>
<polygon fill="#63b8ff" stroke="#63b8ff" points="570.28,-5.97 559.87,-7.93 569.23,-12.89 570.28,-5.97"/>
</g>
<!-- Node19 -->
<g id="node19" class="node">
<title>Node19</title>
<g id="a_node19"><a xlink:href="classReporterInterface.html" target="_top" xlink:title="Interface to allow object to consume Reporter values.">
<polygon fill="white" stroke="#666666" points="764,-148 645,-148 645,-129 764,-129 764,-148"/>
<text text-anchor="middle" x="704.5" y="-136" font-family="Courier,monospace" font-size="10.00">ReporterInterface</text>
</a>
</g>
</g>
<!-- Node19&#45;&gt;Node1 -->
<g id="edge18" class="edge">
<title>Node19&#45;&gt;Node1</title>
<path fill="none" stroke="#63b8ff" d="M775.46,-146.42C783.48,-147.33 791.62,-148.25 799.57,-149.15"/>
<polygon fill="#63b8ff" stroke="#63b8ff" points="776.09,-142.97 765.76,-145.32 775.3,-149.92 776.09,-142.97"/>
</g>
</g>
</svg>
