<?xml version="1.0" encoding="UTF-8" standalone="no"?>
<!DOCTYPE svg PUBLIC "-//W3C//DTD SVG 1.1//EN"
 "http://www.w3.org/Graphics/SVG/1.1/DTD/svg11.dtd">
<!-- Generated by graphviz version 7.0.5 (20221223.1930)
 -->
<!-- Title: TimeStepper Pages: 1 -->
<svg width="1034pt" height="415pt"
 viewBox="0.00 0.00 1034.00 415.00" xmlns="http://www.w3.org/2000/svg" xmlns:xlink="http://www.w3.org/1999/xlink">
<g id="graph0" class="graph" transform="scale(1 1) rotate(0) translate(4 411)">
<title>TimeStepper</title>
<!-- Node1 -->
<g id="node1" class="node">
<title>Node1</title>
<g id="a_node1"><a xlink:title="Base class for time stepping.">
<polygon fill="#999999" stroke="#666666" points="632,-240 549,-240 549,-221 632,-221 632,-240"/>
<text text-anchor="middle" x="590.5" y="-228" font-family="Courier,monospace" font-size="10.00">TimeStepper</text>
</a>
</g>
</g>
<!-- Node11 -->
<g id="node11" class="node">
<title>Node11</title>
<g id="a_node11"><a xlink:href="classAB2PredictorCorrector.html" target="_top" xlink:title="A TimeStepper based on the AB2 method.">
<polygon fill="white" stroke="#666666" points="817,-407 674,-407 674,-388 817,-388 817,-407"/>
<text text-anchor="middle" x="745.5" y="-395" font-family="Courier,monospace" font-size="10.00">AB2PredictorCorrector</text>
</a>
</g>
</g>
<!-- Node1&#45;&gt;Node11 -->
<g id="edge10" class="edge">
<title>Node1&#45;&gt;Node11</title>
<path fill="none" stroke="#63b8ff" d="M596.19,-251.17C604.67,-283.69 625.76,-346.46 668,-379.5 672.08,-382.69 676.64,-385.34 681.44,-387.52"/>
<polygon fill="#63b8ff" stroke="#63b8ff" points="599.67,-250.67 593.89,-241.79 592.87,-252.34 599.67,-250.67"/>
</g>
<!-- Node12 -->
<g id="node12" class="node">
<title>Node12</title>
<g id="a_node12"><a xlink:href="classCompositionDT.html" target="_top" xlink:title="A TimeStepper that takes time steppers as inputs and computes the minimum time step size among all ti...">
<polygon fill="white" stroke="#666666" points="793,-370 698,-370 698,-351 793,-351 793,-370"/>
<text text-anchor="middle" x="745.5" y="-358" font-family="Courier,monospace" font-size="10.00">CompositionDT</text>
</a>
</g>
</g>
<!-- Node1&#45;&gt;Node12 -->
<g id="edge11" class="edge">
<title>Node1&#45;&gt;Node12</title>
<path fill="none" stroke="#63b8ff" d="M599.73,-250.72C611.17,-276.19 634.32,-319.4 668,-342.5 676.78,-348.52 687.31,-352.54 697.71,-355.23"/>
<polygon fill="#63b8ff" stroke="#63b8ff" points="603.06,-249.61 595.9,-241.8 596.63,-252.37 603.06,-249.61"/>
</g>
<!-- Node13 -->
<g id="node13" class="node">
<title>Node13</title>
<g id="a_node13"><a xlink:href="classConstantDT.html" target="_top" xlink:title=" ">
<polygon fill="white" stroke="#666666" points="784,-333 707,-333 707,-314 784,-314 784,-333"/>
<text text-anchor="middle" x="745.5" y="-321" font-family="Courier,monospace" font-size="10.00">ConstantDT</text>
</a>
</g>
</g>
<!-- Node1&#45;&gt;Node13 -->
<g id="edge12" class="edge">
<title>Node1&#45;&gt;Node13</title>
<path fill="none" stroke="#63b8ff" d="M605.29,-248.9C619.21,-266.15 642.29,-291.35 668,-305.5 679.83,-312.01 693.95,-316.18 706.82,-318.84"/>
<polygon fill="#63b8ff" stroke="#63b8ff" points="608.38,-247.17 599.47,-241.45 602.87,-251.48 608.38,-247.17"/>
</g>
<!-- Node14 -->
<g id="node14" class="node">
<title>Node14</title>
<g id="a_node14"><a xlink:href="classFunctionDT.html" target="_top" xlink:title=" ">
<polygon fill="white" stroke="#666666" points="784,-296 707,-296 707,-277 784,-277 784,-296"/>
<text text-anchor="middle" x="745.5" y="-284" font-family="Courier,monospace" font-size="10.00">FunctionDT</text>
</a>
</g>
</g>
<!-- Node1&#45;&gt;Node14 -->
<g id="edge13" class="edge">
<title>Node1&#45;&gt;Node14</title>
<path fill="none" stroke="#63b8ff" d="M618.34,-245.73C632.72,-253.4 650.94,-262.35 668,-268.5 680.32,-272.94 694.16,-276.58 706.64,-279.4"/>
<polygon fill="#63b8ff" stroke="#63b8ff" points="620.4,-242.87 609.95,-241.16 617.05,-249.02 620.4,-242.87"/>
</g>
<!-- Node15 -->
<g id="node15" class="node">
<title>Node15</title>
<g id="a_node15"><a xlink:href="classIterationAdaptiveDT.html" target="_top" xlink:title="Adjust the timestep based on the number of iterations.">
<polygon fill="white" stroke="#666666" points="811,-259 680,-259 680,-240 811,-240 811,-259"/>
<text text-anchor="middle" x="745.5" y="-247" font-family="Courier,monospace" font-size="10.00">IterationAdaptiveDT</text>
</a>
</g>
</g>
<!-- Node1&#45;&gt;Node15 -->
<g id="edge14" class="edge">
<title>Node1&#45;&gt;Node15</title>
<path fill="none" stroke="#63b8ff" d="M643.43,-236.95C655.1,-238.4 667.61,-239.95 679.72,-241.46"/>
<polygon fill="#63b8ff" stroke="#63b8ff" points="643.96,-233.49 633.6,-235.73 643.09,-240.43 643.96,-233.49"/>
</g>
<!-- Node16 -->
<g id="node16" class="node">
<title>Node16</title>
<g id="a_node16"><a xlink:href="classLogConstantDT.html" target="_top" xlink:title="Simple time&#45;stepper which imposes a time step constant in the logarithmic space.">
<polygon fill="white" stroke="#666666" points="793,-222 698,-222 698,-203 793,-203 793,-222"/>
<text text-anchor="middle" x="745.5" y="-210" font-family="Courier,monospace" font-size="10.00">LogConstantDT</text>
</a>
</g>
</g>
<!-- Node1&#45;&gt;Node16 -->
<g id="edge15" class="edge">
<title>Node1&#45;&gt;Node16</title>
<path fill="none" stroke="#63b8ff" d="M643.35,-224.4C660.97,-222.33 680.55,-220.02 697.75,-218"/>
<polygon fill="#63b8ff" stroke="#63b8ff" points="643.13,-220.9 633.6,-225.55 643.94,-227.85 643.13,-220.9"/>
</g>
<!-- Node17 -->
<g id="node17" class="node">
<title>Node17</title>
<g id="a_node17"><a xlink:href="classPostprocessorDT.html" target="_top" xlink:title="Computes the value of dt based on a postprocessor value.">
<polygon fill="white" stroke="#666666" points="799,-185 692,-185 692,-166 799,-166 799,-185"/>
<text text-anchor="middle" x="745.5" y="-173" font-family="Courier,monospace" font-size="10.00">PostprocessorDT</text>
</a>
</g>
</g>
<!-- Node1&#45;&gt;Node17 -->
<g id="edge16" class="edge">
<title>Node1&#45;&gt;Node17</title>
<path fill="none" stroke="#63b8ff" d="M619.37,-215.19C633.6,-207.85 651.38,-199.39 668,-193.5 676.62,-190.44 685.96,-187.76 695.07,-185.45"/>
<polygon fill="#63b8ff" stroke="#63b8ff" points="617.81,-212.06 610.6,-219.82 621.07,-218.25 617.81,-212.06"/>
</g>
<!-- Node18 -->
<g id="node18" class="node">
<title>Node18</title>
<g id="a_node18"><a xlink:href="classSolutionTimeAdaptiveDT.html" target="_top" xlink:title=" ">
<polygon fill="white" stroke="#666666" points="820,-148 671,-148 671,-129 820,-129 820,-148"/>
<text text-anchor="middle" x="745.5" y="-136" font-family="Courier,monospace" font-size="10.00">SolutionTimeAdaptiveDT</text>
</a>
</g>
</g>
<!-- Node1&#45;&gt;Node18 -->
<g id="edge17" class="edge">
<title>Node1&#45;&gt;Node18</title>
<path fill="none" stroke="#63b8ff" d="M605.57,-212.08C619.55,-195.07 642.55,-170.4 668,-156.5 673.87,-153.3 680.29,-150.66 686.84,-148.49"/>
<polygon fill="#63b8ff" stroke="#63b8ff" points="603.2,-209.43 599.71,-219.44 608.67,-213.79 603.2,-209.43"/>
</g>
<!-- Node19 -->
<g id="node19" class="node">
<title>Node19</title>
<g id="a_node19"><a xlink:href="classTestSourceStepper.html" target="_top" xlink:title=" ">
<polygon fill="white" stroke="#666666" points="805,-111 686,-111 686,-92 805,-92 805,-111"/>
<text text-anchor="middle" x="745.5" y="-99" font-family="Courier,monospace" font-size="10.00">TestSourceStepper</text>
</a>
</g>
</g>
<!-- Node1&#45;&gt;Node19 -->
<g id="edge18" class="edge">
<title>Node1&#45;&gt;Node19</title>
<path fill="none" stroke="#63b8ff" d="M599.78,-210.45C611.27,-185.22 634.48,-142.39 668,-119.5 673.41,-115.81 679.48,-112.86 685.77,-110.52"/>
<polygon fill="#63b8ff" stroke="#63b8ff" points="596.71,-208.73 595.94,-219.29 603.13,-211.52 596.71,-208.73"/>
</g>
<!-- Node20 -->
<g id="node20" class="node">
<title>Node20</title>
<g id="a_node20"><a xlink:href="classTimeSequenceStepperBase.html" target="_top" xlink:title="Solves the PDEs at a sequence of given time points.">
<polygon fill="white" stroke="#666666" points="823,-74 668,-74 668,-55 823,-55 823,-74"/>
<text text-anchor="middle" x="745.5" y="-62" font-family="Courier,monospace" font-size="10.00">TimeSequenceStepperBase</text>
</a>
</g>
</g>
<!-- Node1&#45;&gt;Node20 -->
<g id="edge19" class="edge">
<title>Node1&#45;&gt;Node20</title>
<path fill="none" stroke="#63b8ff" d="M596.23,-209.96C604.77,-177.66 625.94,-115.31 668,-82.5 672.09,-79.31 676.65,-76.67 681.45,-74.49"/>
<polygon fill="#63b8ff" stroke="#63b8ff" points="592.93,-208.73 593.92,-219.28 599.73,-210.41 592.93,-208.73"/>
</g>
<!-- Node2 -->
<g id="node2" class="node">
<title>Node2</title>
<g id="a_node2"><a xlink:href="classMooseObject.html" target="_top" xlink:title="Every object that can be built by the factory should be derived from this class.">
<polygon fill="white" stroke="#666666" points="498,-277 415,-277 415,-258 498,-258 498,-277"/>
<text text-anchor="middle" x="456.5" y="-265" font-family="Courier,monospace" font-size="10.00">MooseObject</text>
</a>
</g>
</g>
<!-- Node2&#45;&gt;Node1 -->
<g id="edge1" class="edge">
<title>Node2&#45;&gt;Node1</title>
<path fill="none" stroke="#63b8ff" d="M503.93,-254.49C520.38,-249.87 538.63,-244.76 554.03,-240.44"/>
<polygon fill="#63b8ff" stroke="#63b8ff" points="503.02,-251.11 494.33,-257.18 504.9,-257.85 503.02,-251.11"/>
</g>
<!-- Node3 -->
<g id="node3" class="node">
<title>Node3</title>
<g id="a_node3"><a xlink:href="classMooseBase.html" target="_top" xlink:title="Base class for everything in MOOSE with a name and a type.">
<polygon fill="white" stroke="#666666" points="310,-351 239,-351 239,-332 310,-332 310,-351"/>
<text text-anchor="middle" x="274.5" y="-339" font-family="Courier,monospace" font-size="10.00">MooseBase</text>
</a>
</g>
</g>
<!-- Node3&#45;&gt;Node2 -->
<g id="edge2" class="edge">
<title>Node3&#45;&gt;Node2</title>
<path fill="none" stroke="#63b8ff" d="M321.67,-335.25C335.57,-332.54 350.66,-328.75 364,-323.5 394.16,-311.63 425.59,-290.03 442.63,-277.4"/>
<polygon fill="#63b8ff" stroke="#63b8ff" points="321.06,-331.81 311.83,-337.02 322.29,-338.7 321.06,-331.81"/>
</g>
<!-- Node4 -->
<g id="node4" class="node">
<title>Node4</title>
<g id="a_node4"><a xlink:href="classMooseBaseParameterInterface.html" target="_top" xlink:title="Every object that can be built by the factory should be derived from this class.">
<polygon fill="white" stroke="#666666" points="364,-314 185,-314 185,-295 364,-295 364,-314"/>
<text text-anchor="middle" x="274.5" y="-302" font-family="Courier,monospace" font-size="10.00">MooseBaseParameterInterface</text>
</a>
</g>
</g>
<!-- Node4&#45;&gt;Node2 -->
<g id="edge3" class="edge">
<title>Node4&#45;&gt;Node2</title>
<path fill="none" stroke="#63b8ff" d="M335.65,-292.3C345.14,-290.37 354.84,-288.38 364,-286.5 380.53,-283.1 398.73,-279.33 414.51,-276.05"/>
<polygon fill="#63b8ff" stroke="#63b8ff" points="335.24,-288.81 326.14,-294.24 336.64,-295.67 335.24,-288.81"/>
</g>
<!-- Node5 -->
<g id="node5" class="node">
<title>Node5</title>
<g id="a_node5"><a xlink:href="classMooseBaseErrorInterface.html" target="_top" xlink:title="Interface that provides APIs to output errors/warnings/info messages.">
<polygon fill="white" stroke="#666666" points="352,-277 197,-277 197,-258 352,-258 352,-277"/>
<text text-anchor="middle" x="274.5" y="-265" font-family="Courier,monospace" font-size="10.00">MooseBaseErrorInterface</text>
</a>
</g>
</g>
<!-- Node5&#45;&gt;Node2 -->
<g id="edge4" class="edge">
<title>Node5&#45;&gt;Node2</title>
<path fill="none" stroke="#63b8ff" d="M363.71,-267.5C381.52,-267.5 399.42,-267.5 414.63,-267.5"/>
<polygon fill="#63b8ff" stroke="#63b8ff" points="363.87,-264 353.87,-267.5 363.87,-271 363.87,-264"/>
</g>
<!-- Node6 -->
<g id="node6" class="node">
<title>Node6</title>
<g id="a_node6"><a xlink:href="classConsoleStreamInterface.html" target="_top" xlink:title="An inteface for the _console for outputting to the Console object.">
<polygon fill="white" stroke="#666666" points="149,-277 0,-277 0,-258 149,-258 149,-277"/>
<text text-anchor="middle" x="74.5" y="-265" font-family="Courier,monospace" font-size="10.00">ConsoleStreamInterface</text>
</a>
</g>
</g>
<!-- Node6&#45;&gt;Node5 -->
<g id="edge5" class="edge">
<title>Node6&#45;&gt;Node5</title>
<path fill="none" stroke="#63b8ff" d="M160.62,-267.5C172.62,-267.5 184.9,-267.5 196.73,-267.5"/>
<polygon fill="#63b8ff" stroke="#63b8ff" points="160.74,-264 150.74,-267.5 160.74,-271 160.74,-264"/>
</g>
<!-- Node7 -->
<g id="node7" class="node">
<title>Node7</title>
<g id="a_node7"><a xlink:title=" ">
<polygon fill="white" stroke="#666666" points="352,-240 197,-240 197,-221 352,-221 352,-240"/>
<text text-anchor="middle" x="274.5" y="-228" font-family="Courier,monospace" font-size="10.00">libMesh::ParallelObject</text>
</a>
</g>
</g>
<!-- Node7&#45;&gt;Node2 -->
<g id="edge6" class="edge">
<title>Node7&#45;&gt;Node2</title>
<path fill="none" stroke="#63b8ff" d="M335.65,-242.7C345.14,-244.63 354.84,-246.62 364,-248.5 380.53,-251.9 398.73,-255.67 414.51,-258.95"/>
<polygon fill="#63b8ff" stroke="#63b8ff" points="336.64,-239.33 326.14,-240.76 335.24,-246.19 336.64,-239.33"/>
</g>
<!-- Node8 -->
<g id="node8" class="node">
<title>Node8</title>
<g id="a_node8"><a xlink:href="classDataFileInterface.html" target="_top" xlink:title=" ">
<polygon fill="white" stroke="#666666" points="337,-202.5 212,-202.5 212,-172.5 337,-172.5 337,-202.5"/>
<text text-anchor="start" x="220" y="-190.5" font-family="Courier,monospace" font-size="10.00">DataFileInterface&lt;</text>
<text text-anchor="middle" x="274.5" y="-179.5" font-family="Courier,monospace" font-size="10.00"> MooseObject &gt;</text>
</a>
</g>
</g>
<!-- Node8&#45;&gt;Node2 -->
<g id="edge7" class="edge">
<title>Node8&#45;&gt;Node2</title>
<path fill="none" stroke="#63b8ff" d="M347.62,-203.49C353.32,-205.82 358.86,-208.47 364,-211.5 383.77,-223.14 380.62,-236.23 400,-248.5 405.68,-252.1 412.12,-255.1 418.55,-257.58"/>
<polygon fill="#63b8ff" stroke="#63b8ff" points="349.23,-200.35 338.64,-200.17 346.8,-206.92 349.23,-200.35"/>
</g>
<!-- Node9 -->
<g id="node9" class="node">
<title>Node9</title>
<g id="a_node9"><a xlink:href="classRestartable.html" target="_top" xlink:title="A class for creating restricted objects.">
<polygon fill="white" stroke="#666666" points="498,-240 415,-240 415,-221 498,-221 498,-240"/>
<text text-anchor="middle" x="456.5" y="-228" font-family="Courier,monospace" font-size="10.00">Restartable</text>
</a>
</g>
</g>
<!-- Node9&#45;&gt;Node1 -->
<g id="edge8" class="edge">
<title>Node9&#45;&gt;Node1</title>
<path fill="none" stroke="#63b8ff" d="M509.41,-230.5C522.47,-230.5 536.3,-230.5 548.73,-230.5"/>
<polygon fill="#63b8ff" stroke="#63b8ff" points="509.7,-227 499.69,-230.5 509.69,-234 509.7,-227"/>
</g>
<!-- Node10 -->
<g id="node10" class="node">
<title>Node10</title>
<g id="a_node10"><a xlink:href="classScalarCoupleable.html" target="_top" xlink:title="Interface for objects that needs scalar coupling capabilities.">
<polygon fill="white" stroke="#666666" points="513,-203 400,-203 400,-184 513,-184 513,-203"/>
<text text-anchor="middle" x="456.5" y="-191" font-family="Courier,monospace" font-size="10.00">ScalarCoupleable</text>
</a>
</g>
</g>
<!-- Node10&#45;&gt;Node1 -->
<g id="edge9" class="edge">
<title>Node10&#45;&gt;Node1</title>
<path fill="none" stroke="#63b8ff" d="M503.93,-206.51C520.38,-211.13 538.63,-216.24 554.03,-220.56"/>
<polygon fill="#63b8ff" stroke="#63b8ff" points="504.9,-203.15 494.33,-203.82 503.02,-209.89 504.9,-203.15"/>
</g>
<!-- Node21 -->
<g id="node21" class="node">
<title>Node21</title>
<g id="a_node21"><a xlink:href="classCSVTimeSequenceStepper.html" target="_top" xlink:title="Solves the PDEs at a sequence of time points given as a column in a text table file (such as a *....">
<polygon fill="white" stroke="#666666" points="1017,-130 868,-130 868,-111 1017,-111 1017,-130"/>
<text text-anchor="middle" x="942.5" y="-118" font-family="Courier,monospace" font-size="10.00">CSVTimeSequenceStepper</text>
</a>
</g>
</g>
<!-- Node20&#45;&gt;Node21 -->
<g id="edge20" class="edge">
<title>Node20&#45;&gt;Node21</title>
<path fill="none" stroke="#63b8ff" d="M807.64,-77.4C812.89,-78.95 818.07,-80.65 823,-82.5 839.94,-88.85 842.04,-95.19 859,-101.5 868.51,-105.03 878.88,-108.04 888.97,-110.55"/>
<polygon fill="#63b8ff" stroke="#63b8ff" points="808.87,-74.11 798.3,-74.82 807,-80.86 808.87,-74.11"/>
</g>
<!-- Node22 -->
<g id="node22" class="node">
<title>Node22</title>
<g id="a_node22"><a xlink:href="classExodusTimeSequenceStepper.html" target="_top" xlink:title="Solves the PDEs at a sequence of time points given as a vector in the input file.">
<polygon fill="white" stroke="#666666" points="1026,-93 859,-93 859,-74 1026,-74 1026,-93"/>
<text text-anchor="middle" x="942.5" y="-81" font-family="Courier,monospace" font-size="10.00">ExodusTimeSequenceStepper</text>
</a>
</g>
</g>
<!-- Node20&#45;&gt;Node22 -->
<g id="edge21" class="edge">
<title>Node20&#45;&gt;Node22</title>
<path fill="none" stroke="#63b8ff" d="M834.56,-73.08C842.58,-73.86 850.69,-74.65 858.67,-75.43"/>
<polygon fill="#63b8ff" stroke="#63b8ff" points="835.09,-69.62 824.8,-72.13 834.41,-76.58 835.09,-69.62"/>
</g>
<!-- Node23 -->
<g id="node23" class="node">
<title>Node23</title>
<g id="a_node23"><a xlink:href="classTimeSequenceFromTimes.html" target="_top" xlink:title="Time sequence stepper that gets its sequence of times to hit from a times object.">
<polygon fill="white" stroke="#666666" points="1014,-56 871,-56 871,-37 1014,-37 1014,-56"/>
<text text-anchor="middle" x="942.5" y="-44" font-family="Courier,monospace" font-size="10.00">TimeSequenceFromTimes</text>
</a>
</g>
</g>
<!-- Node20&#45;&gt;Node23 -->
<g id="edge22" class="edge">
<title>Node20&#45;&gt;Node23</title>
<path fill="none" stroke="#63b8ff" d="M834.41,-56.39C846.6,-55.26 858.99,-54.12 870.81,-53.02"/>
<polygon fill="#63b8ff" stroke="#63b8ff" points="834.43,-52.87 824.8,-57.27 835.08,-59.84 834.43,-52.87"/>
</g>
<!-- Node24 -->
<g id="node24" class="node">
<title>Node24</title>
<g id="a_node24"><a xlink:href="classTimeSequenceStepper.html" target="_top" xlink:title="Solves the PDEs at a sequence of time points given as a vector in the input file.">
<polygon fill="white" stroke="#666666" points="1008,-19 877,-19 877,0 1008,0 1008,-19"/>
<text text-anchor="middle" x="942.5" y="-7" font-family="Courier,monospace" font-size="10.00">TimeSequenceStepper</text>
</a>
</g>
</g>
<!-- Node20&#45;&gt;Node24 -->
<g id="edge23" class="edge">
<title>Node20&#45;&gt;Node24</title>
<path fill="none" stroke="#63b8ff" d="M784.72,-50.85C806.35,-43.39 834,-34.32 859,-27.5 869.61,-24.61 881.08,-21.86 892,-19.43"/>
<polygon fill="#63b8ff" stroke="#63b8ff" points="783.72,-47.49 775.43,-54.08 786.02,-54.1 783.72,-47.49"/>
</g>
</g>
</svg>
