<?xml version="1.0" encoding="UTF-8" standalone="no"?>
<!DOCTYPE svg PUBLIC "-//W3C//DTD SVG 1.1//EN"
 "http://www.w3.org/Graphics/SVG/1.1/DTD/svg11.dtd">
<!-- Generated by graphviz version 7.0.5 (20221223.1930)
 -->
<!-- Title: InterfaceKernelBase Pages: 1 -->
<!--zoomable 689 -->
<svg id="main" version="1.1" xmlns="http://www.w3.org/2000/svg" xmlns:xlink="http://www.w3.org/1999/xlink" xml:space="preserve" onload="init(evt)">
<style type="text/css"><![CDATA[
.edge:hover path { stroke: red; }
.edge:hover polygon { stroke: red; fill: red; }
]]></style>
<script type="text/javascript"><![CDATA[
var edges = document.getElementsByTagName('g');
if (edges && edges.length) {
  for (var i=0;i<edges.length;i++) {
    if (edges[i].id.substr(0,4)=='edge') {
      edges[i].setAttribute('class','edge');
    }
  }
}
]]></script>
        <defs>
                <circle id="rim" cx="0" cy="0" r="7"/>
                <circle id="rim2" cx="0" cy="0" r="3.5"/>
                <g id="zoomPlus">
                        <use xlink:href="#rim" fill="#404040">
                                <set attributeName="fill" to="#808080" begin="zoomplus.mouseover" end="zoomplus.mouseout"/>
                        </use>
                        <path d="M-4,0h8M0,-4v8" fill="none" stroke="white" stroke-width="1.5" pointer-events="none"/>
                </g>
                <g id="zoomMin">
                        <use xlink:href="#rim" fill="#404040">
                                <set attributeName="fill" to="#808080" begin="zoomminus.mouseover" end="zoomminus.mouseout"/>
                        </use>
                        <path d="M-4,0h8" fill="none" stroke="white" stroke-width="1.5" pointer-events="none"/>
                </g>
                <g id="dirArrow">
                        <path fill="none" stroke="white" stroke-width="1.5" d="M0,-3.0v7 M-2.5,-0.5L0,-3.0L2.5,-0.5"/>
                </g>
               <g id="resetDef">
                       <use xlink:href="#rim2" fill="#404040">
                               <set attributeName="fill" to="#808080" begin="reset.mouseover" end="reset.mouseout"/>
                       </use>
               </g>
        </defs>

<script type="text/javascript">
var viewWidth = 1895;
var viewHeight = 689;
var sectionId = 'dynsection-0';
</script>
<script xlink:href="svgpan.js"/>
<svg id="graph" class="graph">
<g id="viewport">
<title>InterfaceKernelBase</title>
<!-- Node1 -->
<g id="node1" class="node">
<title>Node1</title>
<g id="a_node1"><a xlink:title="InterfaceKernelBase is the base class for all InterfaceKernel type classes.">
<polygon fill="#999999" stroke="#666666" points="1236,-216.5 1105,-216.5 1105,-197.5 1236,-197.5 1236,-216.5"/>
<text text-anchor="middle" x="1170.5" y="-204.5" font-family="Courier,monospace" font-size="10.00">InterfaceKernelBase</text>
</a>
</g>
</g>
<!-- Node30 -->
<g id="node30" class="node">
<title>Node30</title>
<g id="a_node30"><a xlink:href="classADInterfaceKernelTempl.html" target="_top" xlink:title="ADInterfaceKernel and ADVectorInterfaceKernel is responsible for interfacing physics across subdomain...">
<polygon fill="white" stroke="#666666" points="1451,-336.5 1272,-336.5 1272,-317.5 1451,-317.5 1451,-336.5"/>
<text text-anchor="middle" x="1361.5" y="-324.5" font-family="Courier,monospace" font-size="10.00">ADInterfaceKernelTempl&lt; T &gt;</text>
</a>
</g>
</g>
<!-- Node1&#45;&gt;Node30 -->
<g id="edge29" class="edge">
<title>Node1&#45;&gt;Node30</title>
<path fill="none" stroke="#63b8ff" d="M1196.67,-222.98C1236.3,-248.14 1312.1,-296.27 1344.82,-317.04"/>
<polygon fill="#63b8ff" stroke="#63b8ff" points="1198.56,-220.04 1188.24,-217.63 1194.81,-225.95 1198.56,-220.04"/>
</g>
<!-- Node36 -->
<g id="node36" class="node">
<title>Node36</title>
<g id="a_node36"><a xlink:href="classInterfaceKernelTempl.html" target="_top" xlink:title="InterfaceKernel and VectorInterfaceKernel is responsible for interfacing physics across subdomains.">
<polygon fill="white" stroke="#666666" points="1445,-144.5 1278,-144.5 1278,-125.5 1445,-125.5 1445,-144.5"/>
<text text-anchor="middle" x="1361.5" y="-132.5" font-family="Courier,monospace" font-size="10.00">InterfaceKernelTempl&lt; T &gt;</text>
</a>
</g>
</g>
<!-- Node1&#45;&gt;Node36 -->
<g id="edge35" class="edge">
<title>Node1&#45;&gt;Node36</title>
<path fill="none" stroke="#63b8ff" d="M1207.74,-193.19C1244.79,-179.08 1301.42,-157.51 1334.32,-144.97"/>
<polygon fill="#63b8ff" stroke="#63b8ff" points="1206.9,-189.77 1198.8,-196.6 1209.39,-196.31 1206.9,-189.77"/>
</g>
<!-- Node2 -->
<g id="node2" class="node">
<title>Node2</title>
<g id="a_node2"><a xlink:href="classNeighborResidualObject.html" target="_top" xlink:title="This is a base class for objects that can provide residual contributions for both local and neighbor ...">
<polygon fill="white" stroke="#666666" points="1042,-367.5 893,-367.5 893,-348.5 1042,-348.5 1042,-367.5"/>
<text text-anchor="middle" x="967.5" y="-355.5" font-family="Courier,monospace" font-size="10.00">NeighborResidualObject</text>
</a>
</g>
</g>
<!-- Node2&#45;&gt;Node1 -->
<g id="edge1" class="edge">
<title>Node2&#45;&gt;Node1</title>
<path fill="none" stroke="#63b8ff" d="M990.82,-341.23C1032.84,-309.66 1122.49,-242.31 1156.26,-216.94"/>
<polygon fill="#63b8ff" stroke="#63b8ff" points="988.79,-338.38 982.9,-347.18 993,-343.98 988.79,-338.38"/>
</g>
<!-- Node3 -->
<g id="node3" class="node">
<title>Node3</title>
<g id="a_node3"><a xlink:href="classResidualObject.html" target="_top" xlink:title="This is the common base class for objects that give residual contributions.">
<polygon fill="white" stroke="#666666" points="776,-402.5 675,-402.5 675,-383.5 776,-383.5 776,-402.5"/>
<text text-anchor="middle" x="725.5" y="-390.5" font-family="Courier,monospace" font-size="10.00">ResidualObject</text>
</a>
</g>
</g>
<!-- Node3&#45;&gt;Node2 -->
<g id="edge2" class="edge">
<title>Node3&#45;&gt;Node2</title>
<path fill="none" stroke="#63b8ff" d="M787.34,-384.13C821.13,-379.2 863.26,-373.06 898.18,-367.96"/>
<polygon fill="#63b8ff" stroke="#63b8ff" points="787.12,-380.62 777.73,-385.53 788.13,-387.55 787.12,-380.62"/>
</g>
<!-- Node4 -->
<g id="node4" class="node">
<title>Node4</title>
<g id="a_node4"><a xlink:href="classMooseObject.html" target="_top" xlink:title="Every object that can be built by the factory should be derived from this class.">
<polygon fill="white" stroke="#666666" points="534,-606.5 451,-606.5 451,-587.5 534,-587.5 534,-606.5"/>
<text text-anchor="middle" x="492.5" y="-594.5" font-family="Courier,monospace" font-size="10.00">MooseObject</text>
</a>
</g>
</g>
<!-- Node4&#45;&gt;Node3 -->
<g id="edge3" class="edge">
<title>Node4&#45;&gt;Node3</title>
<path fill="none" stroke="#63b8ff" d="M545.39,-593.52C559.03,-590.86 573.22,-586.4 585,-579 658.15,-533.06 706.48,-433.95 720.37,-402.67"/>
<polygon fill="#63b8ff" stroke="#63b8ff" points="544.92,-590.05 535.61,-595.11 546.05,-596.96 544.92,-590.05"/>
</g>
<!-- Node5 -->
<g id="node5" class="node">
<title>Node5</title>
<g id="a_node5"><a xlink:href="classMooseBase.html" target="_top" xlink:title="Base class for everything in MOOSE with a name and a type.">
<polygon fill="white" stroke="#666666" points="310,-680.5 239,-680.5 239,-661.5 310,-661.5 310,-680.5"/>
<text text-anchor="middle" x="274.5" y="-668.5" font-family="Courier,monospace" font-size="10.00">MooseBase</text>
</a>
</g>
</g>
<!-- Node5&#45;&gt;Node4 -->
<g id="edge4" class="edge">
<title>Node5&#45;&gt;Node4</title>
<path fill="none" stroke="#63b8ff" d="M321.62,-663.55C335.41,-660.81 350.46,-657.3 364,-653 403.87,-640.35 448.08,-619.22 472.56,-606.85"/>
<polygon fill="#63b8ff" stroke="#63b8ff" points="321.06,-660.09 311.89,-665.39 322.36,-666.97 321.06,-660.09"/>
</g>
<!-- Node6 -->
<g id="node6" class="node">
<title>Node6</title>
<g id="a_node6"><a xlink:href="classMooseBaseParameterInterface.html" target="_top" xlink:title="Every object that can be built by the factory should be derived from this class.">
<polygon fill="white" stroke="#666666" points="364,-643.5 185,-643.5 185,-624.5 364,-624.5 364,-643.5"/>
<text text-anchor="middle" x="274.5" y="-631.5" font-family="Courier,monospace" font-size="10.00">MooseBaseParameterInterface</text>
</a>
</g>
</g>
<!-- Node6&#45;&gt;Node4 -->
<g id="edge5" class="edge">
<title>Node6&#45;&gt;Node4</title>
<path fill="none" stroke="#63b8ff" d="M344.77,-622.13C379.7,-616.15 420.85,-609.1 450.68,-603.99"/>
<polygon fill="#63b8ff" stroke="#63b8ff" points="344.43,-618.64 335.16,-623.78 345.61,-625.54 344.43,-618.64"/>
</g>
<!-- Node7 -->
<g id="node7" class="node">
<title>Node7</title>
<g id="a_node7"><a xlink:href="classMooseBaseErrorInterface.html" target="_top" xlink:title="Interface that provides APIs to output errors/warnings/info messages.">
<polygon fill="white" stroke="#666666" points="352,-606.5 197,-606.5 197,-587.5 352,-587.5 352,-606.5"/>
<text text-anchor="middle" x="274.5" y="-594.5" font-family="Courier,monospace" font-size="10.00">MooseBaseErrorInterface</text>
</a>
</g>
</g>
<!-- Node7&#45;&gt;Node4 -->
<g id="edge6" class="edge">
<title>Node7&#45;&gt;Node4</title>
<path fill="none" stroke="#63b8ff" d="M363.7,-597C393.87,-597 426.17,-597 450.75,-597"/>
<polygon fill="#63b8ff" stroke="#63b8ff" points="363.78,-593.5 353.78,-597 363.78,-600.5 363.78,-593.5"/>
</g>
<!-- Node8 -->
<g id="node8" class="node">
<title>Node8</title>
<g id="a_node8"><a xlink:href="classConsoleStreamInterface.html" target="_top" xlink:title="An inteface for the _console for outputting to the Console object.">
<polygon fill="white" stroke="#666666" points="149,-606.5 0,-606.5 0,-587.5 149,-587.5 149,-606.5"/>
<text text-anchor="middle" x="74.5" y="-594.5" font-family="Courier,monospace" font-size="10.00">ConsoleStreamInterface</text>
</a>
</g>
</g>
<!-- Node8&#45;&gt;Node7 -->
<g id="edge7" class="edge">
<title>Node8&#45;&gt;Node7</title>
<path fill="none" stroke="#63b8ff" d="M160.62,-597C172.62,-597 184.9,-597 196.73,-597"/>
<polygon fill="#63b8ff" stroke="#63b8ff" points="160.74,-593.5 150.74,-597 160.74,-600.5 160.74,-593.5"/>
</g>
<!-- Node9 -->
<g id="node9" class="node">
<title>Node9</title>
<g id="a_node9"><a xlink:title=" ">
<polygon fill="white" stroke="#666666" points="352,-569.5 197,-569.5 197,-550.5 352,-550.5 352,-569.5"/>
<text text-anchor="middle" x="274.5" y="-557.5" font-family="Courier,monospace" font-size="10.00">libMesh::ParallelObject</text>
</a>
</g>
</g>
<!-- Node9&#45;&gt;Node4 -->
<g id="edge8" class="edge">
<title>Node9&#45;&gt;Node4</title>
<path fill="none" stroke="#63b8ff" d="M344.77,-571.87C379.7,-577.85 420.85,-584.9 450.68,-590.01"/>
<polygon fill="#63b8ff" stroke="#63b8ff" points="345.61,-568.46 335.16,-570.22 344.43,-575.36 345.61,-568.46"/>
</g>
<!-- Node10 -->
<g id="node10" class="node">
<title>Node10</title>
<g id="a_node10"><a xlink:href="classDataFileInterface.html" target="_top" xlink:title=" ">
<polygon fill="white" stroke="#666666" points="337,-532 212,-532 212,-502 337,-502 337,-532"/>
<text text-anchor="start" x="220" y="-520" font-family="Courier,monospace" font-size="10.00">DataFileInterface&lt;</text>
<text text-anchor="middle" x="274.5" y="-509" font-family="Courier,monospace" font-size="10.00"> MooseObject &gt;</text>
</a>
</g>
</g>
<!-- Node10&#45;&gt;Node4 -->
<g id="edge9" class="edge">
<title>Node10&#45;&gt;Node4</title>
<path fill="none" stroke="#63b8ff" d="M347.62,-533.85C353.32,-536.23 358.86,-538.94 364,-542 383.71,-553.74 379.83,-568.07 400,-579 415.37,-587.33 434.06,-591.84 450.53,-594.26"/>
<polygon fill="#63b8ff" stroke="#63b8ff" points="349.23,-530.72 338.64,-530.44 346.74,-537.26 349.23,-530.72"/>
</g>
<!-- Node11 -->
<g id="node11" class="node">
<title>Node11</title>
<g id="a_node11"><a xlink:href="classSetupInterface.html" target="_top" xlink:title=" ">
<polygon fill="white" stroke="#666666" points="543,-569.5 442,-569.5 442,-550.5 543,-550.5 543,-569.5"/>
<text text-anchor="middle" x="492.5" y="-557.5" font-family="Courier,monospace" font-size="10.00">SetupInterface</text>
</a>
</g>
</g>
<!-- Node11&#45;&gt;Node3 -->
<g id="edge10" class="edge">
<title>Node11&#45;&gt;Node3</title>
<path fill="none" stroke="#63b8ff" d="M554.42,-553.54C565.03,-550.89 575.65,-547.19 585,-542 649.46,-506.26 701.26,-430.23 718.42,-402.98"/>
<polygon fill="#63b8ff" stroke="#63b8ff" points="553.93,-550.07 544.9,-555.61 555.42,-556.91 553.93,-550.07"/>
</g>
<!-- Node12 -->
<g id="node12" class="node">
<title>Node12</title>
<g id="a_node12"><a xlink:href="classFunctionInterface.html" target="_top" xlink:title="Interface for objects that need to use functions.">
<polygon fill="white" stroke="#666666" points="552,-532.5 433,-532.5 433,-513.5 552,-513.5 552,-532.5"/>
<text text-anchor="middle" x="492.5" y="-520.5" font-family="Courier,monospace" font-size="10.00">FunctionInterface</text>
</a>
</g>
</g>
<!-- Node12&#45;&gt;Node3 -->
<g id="edge11" class="edge">
<title>Node12&#45;&gt;Node3</title>
<path fill="none" stroke="#63b8ff" d="M563.39,-512.93C570.85,-510.77 578.19,-508.17 585,-505 641.32,-478.8 694.79,-425.18 715.48,-402.97"/>
<polygon fill="#63b8ff" stroke="#63b8ff" points="562.7,-509.49 553.89,-515.38 564.45,-516.27 562.7,-509.49"/>
</g>
<!-- Node13 -->
<g id="node13" class="node">
<title>Node13</title>
<g id="a_node13"><a xlink:href="classUserObjectInterface.html" target="_top" xlink:title="Interface for objects that need to use UserObjects.">
<polygon fill="white" stroke="#666666" points="558,-495.5 427,-495.5 427,-476.5 558,-476.5 558,-495.5"/>
<text text-anchor="middle" x="492.5" y="-483.5" font-family="Courier,monospace" font-size="10.00">UserObjectInterface</text>
</a>
</g>
</g>
<!-- Node13&#45;&gt;Node3 -->
<g id="edge12" class="edge">
<title>Node13&#45;&gt;Node3</title>
<path fill="none" stroke="#63b8ff" d="M568.24,-473.23C573.97,-471.67 579.61,-469.93 585,-468 633.15,-450.76 684.97,-418.98 709.71,-402.89"/>
<polygon fill="#63b8ff" stroke="#63b8ff" points="567.48,-469.82 558.64,-475.66 569.19,-476.6 567.48,-469.82"/>
</g>
<!-- Node14 -->
<g id="node14" class="node">
<title>Node14</title>
<g id="a_node14"><a xlink:href="classTransientInterface.html" target="_top" xlink:title="Interface for objects that needs transient capabilities.">
<polygon fill="white" stroke="#666666" points="555,-458.5 430,-458.5 430,-439.5 555,-439.5 555,-458.5"/>
<text text-anchor="middle" x="492.5" y="-446.5" font-family="Courier,monospace" font-size="10.00">TransientInterface</text>
</a>
</g>
</g>
<!-- Node14&#45;&gt;Node3 -->
<g id="edge13" class="edge">
<title>Node14&#45;&gt;Node3</title>
<path fill="none" stroke="#63b8ff" d="M558.53,-436.8C567.45,-434.96 576.47,-433 585,-431 621.29,-422.5 662.42,-411.07 690.56,-402.98"/>
<polygon fill="#63b8ff" stroke="#63b8ff" points="557.93,-433.35 548.83,-438.77 559.32,-440.21 557.93,-433.35"/>
</g>
<!-- Node15 -->
<g id="node15" class="node">
<title>Node15</title>
<g id="a_node15"><a xlink:href="classPostprocessorInterface.html" target="_top" xlink:title="Interface class for classes which interact with Postprocessors.">
<polygon fill="white" stroke="#666666" points="567,-421.5 418,-421.5 418,-402.5 567,-402.5 567,-421.5"/>
<text text-anchor="middle" x="492.5" y="-409.5" font-family="Courier,monospace" font-size="10.00">PostprocessorInterface</text>
</a>
</g>
</g>
<!-- Node15&#45;&gt;Node3 -->
<g id="edge14" class="edge">
<title>Node15&#45;&gt;Node3</title>
<path fill="none" stroke="#63b8ff" d="M578.52,-405.01C610.9,-402.34 646.73,-399.4 674.79,-397.09"/>
<polygon fill="#63b8ff" stroke="#63b8ff" points="578.41,-401.5 568.73,-405.81 578.99,-408.48 578.41,-401.5"/>
</g>
<!-- Node16 -->
<g id="node16" class="node">
<title>Node16</title>
<g id="a_node16"><a xlink:href="classVectorPostprocessorInterface.html" target="_top" xlink:title=" ">
<polygon fill="white" stroke="#666666" points="585,-384.5 400,-384.5 400,-365.5 585,-365.5 585,-384.5"/>
<text text-anchor="middle" x="492.5" y="-372.5" font-family="Courier,monospace" font-size="10.00">VectorPostprocessorInterface</text>
</a>
</g>
</g>
<!-- Node16&#45;&gt;Node3 -->
<g id="edge15" class="edge">
<title>Node16&#45;&gt;Node3</title>
<path fill="none" stroke="#63b8ff" d="M596.61,-383.03C623.74,-385.15 651.79,-387.33 674.69,-389.12"/>
<polygon fill="#63b8ff" stroke="#63b8ff" points="597.21,-379.57 586.97,-382.28 596.67,-386.55 597.21,-379.57"/>
</g>
<!-- Node17 -->
<g id="node17" class="node">
<title>Node17</title>
<g id="a_node17"><a xlink:href="classRandomInterface.html" target="_top" xlink:title="Interface for objects that need parallel consistent random numbers without patterns over the course o...">
<polygon fill="white" stroke="#666666" points="546,-347.5 439,-347.5 439,-328.5 546,-328.5 546,-347.5"/>
<text text-anchor="middle" x="492.5" y="-335.5" font-family="Courier,monospace" font-size="10.00">RandomInterface</text>
</a>
</g>
</g>
<!-- Node17&#45;&gt;Node3 -->
<g id="edge16" class="edge">
<title>Node17&#45;&gt;Node3</title>
<path fill="none" stroke="#63b8ff" d="M554.41,-350.22C564.64,-352.4 575.14,-354.7 585,-357 620.08,-365.16 659.83,-375.53 687.9,-383.05"/>
<polygon fill="#63b8ff" stroke="#63b8ff" points="555.44,-346.86 544.94,-348.23 554.01,-353.72 555.44,-346.86"/>
</g>
<!-- Node18 -->
<g id="node18" class="node">
<title>Node18</title>
<g id="a_node18"><a xlink:href="classRestartable.html" target="_top" xlink:title="A class for creating restricted objects.">
<polygon fill="white" stroke="#666666" points="534,-310.5 451,-310.5 451,-291.5 534,-291.5 534,-310.5"/>
<text text-anchor="middle" x="492.5" y="-298.5" font-family="Courier,monospace" font-size="10.00">Restartable</text>
</a>
</g>
</g>
<!-- Node18&#45;&gt;Node3 -->
<g id="edge17" class="edge">
<title>Node18&#45;&gt;Node3</title>
<path fill="none" stroke="#63b8ff" d="M545.5,-309.19C558.59,-311.96 572.48,-315.52 585,-320 632.62,-337.03 684.26,-367.57 709.25,-383.2"/>
<polygon fill="#63b8ff" stroke="#63b8ff" points="546.22,-305.77 535.73,-307.26 544.86,-312.64 546.22,-305.77"/>
</g>
<!-- Node19 -->
<g id="node19" class="node">
<title>Node19</title>
<g id="a_node19"><a xlink:href="classMeshChangedInterface.html" target="_top" xlink:title="Interface for notifications that the mesh has changed.">
<polygon fill="white" stroke="#666666" points="561,-273.5 424,-273.5 424,-254.5 561,-254.5 561,-273.5"/>
<text text-anchor="middle" x="492.5" y="-261.5" font-family="Courier,monospace" font-size="10.00">MeshChangedInterface</text>
</a>
</g>
</g>
<!-- Node19&#45;&gt;Node3 -->
<g id="edge18" class="edge">
<title>Node19&#45;&gt;Node3</title>
<path fill="none" stroke="#63b8ff" d="M570.63,-277.27C575.58,-278.96 580.41,-280.86 585,-283 640.91,-309.06 694.6,-361.54 715.42,-383.25"/>
<polygon fill="#63b8ff" stroke="#63b8ff" points="571.71,-273.94 561.12,-274.35 569.65,-280.63 571.71,-273.94"/>
</g>
<!-- Node20 -->
<g id="node20" class="node">
<title>Node20</title>
<g id="a_node20"><a xlink:href="classTaggingInterface.html" target="_top" xlink:title=" ">
<polygon fill="white" stroke="#666666" points="549,-236.5 436,-236.5 436,-217.5 549,-217.5 549,-236.5"/>
<text text-anchor="middle" x="492.5" y="-224.5" font-family="Courier,monospace" font-size="10.00">TaggingInterface</text>
</a>
</g>
</g>
<!-- Node20&#45;&gt;Node3 -->
<g id="edge19" class="edge">
<title>Node20&#45;&gt;Node3</title>
<path fill="none" stroke="#63b8ff" d="M560.14,-235.84C568.81,-238.41 577.33,-241.73 585,-246 648.93,-281.61 701.07,-356.4 718.37,-383.19"/>
<polygon fill="#63b8ff" stroke="#63b8ff" points="561.16,-232.49 550.6,-233.34 559.39,-239.26 561.16,-232.49"/>
</g>
<!-- Node21 -->
<g id="node21" class="node">
<title>Node21</title>
<g id="a_node21"><a xlink:href="classBoundaryRestrictable.html" target="_top" xlink:title="/class BoundaryRestrictable /brief Provides functionality for limiting the object to certain boundary...">
<polygon fill="white" stroke="#666666" points="1036,-259.5 899,-259.5 899,-240.5 1036,-240.5 1036,-259.5"/>
<text text-anchor="middle" x="967.5" y="-247.5" font-family="Courier,monospace" font-size="10.00">BoundaryRestrictable</text>
</a>
</g>
</g>
<!-- Node21&#45;&gt;Node1 -->
<g id="edge20" class="edge">
<title>Node21&#45;&gt;Node1</title>
<path fill="none" stroke="#63b8ff" d="M1035.08,-237.87C1046.42,-235.68 1058.06,-233.34 1069,-231 1089.17,-226.69 1111.5,-221.41 1129.98,-216.9"/>
<polygon fill="#63b8ff" stroke="#63b8ff" points="1034.54,-234.41 1025.37,-239.73 1035.85,-241.29 1034.54,-234.41"/>
</g>
<!-- Node22 -->
<g id="node22" class="node">
<title>Node22</title>
<g id="a_node22"><a xlink:href="classNeighborCoupleableMooseVariableDependencyIntermediateInterface.html" target="_top" xlink:title="Intermediate base class that ties together all the interfaces for getting MooseVariables with the Moo...">
<polygon fill="white" stroke="#666666" points="1069,-222 866,-222 866,-192 1069,-192 1069,-222"/>
<text text-anchor="start" x="874" y="-210" font-family="Courier,monospace" font-size="10.00">NeighborCoupleableMooseVariable</text>
<text text-anchor="middle" x="967.5" y="-199" font-family="Courier,monospace" font-size="10.00">DependencyIntermediateInterface</text>
</a>
</g>
</g>
<!-- Node22&#45;&gt;Node1 -->
<g id="edge21" class="edge">
<title>Node22&#45;&gt;Node1</title>
<path fill="none" stroke="#63b8ff" d="M1080.57,-207C1088.8,-207 1096.93,-207 1104.73,-207"/>
<polygon fill="#63b8ff" stroke="#63b8ff" points="1080.81,-203.5 1070.81,-207 1080.81,-210.5 1080.81,-203.5"/>
</g>
<!-- Node23 -->
<g id="node23" class="node">
<title>Node23</title>
<g id="a_node23"><a xlink:href="classNeighborCoupleable.html" target="_top" xlink:title="Enhances Coupleable interface to also couple the values from neighbor elements.">
<polygon fill="white" stroke="#666666" points="788,-253.5 663,-253.5 663,-234.5 788,-234.5 788,-253.5"/>
<text text-anchor="middle" x="725.5" y="-241.5" font-family="Courier,monospace" font-size="10.00">NeighborCoupleable</text>
</a>
</g>
</g>
<!-- Node23&#45;&gt;Node22 -->
<g id="edge22" class="edge">
<title>Node23&#45;&gt;Node22</title>
<path fill="none" stroke="#63b8ff" d="M799.42,-232.76C820.48,-229.51 843.85,-225.91 866.26,-222.45"/>
<polygon fill="#63b8ff" stroke="#63b8ff" points="799.15,-229.26 789.8,-234.24 800.22,-236.18 799.15,-229.26"/>
</g>
<!-- Node24 -->
<g id="node24" class="node">
<title>Node24</title>
<g id="a_node24"><a xlink:href="classCoupleable.html" target="_top" xlink:title="Interface for objects that needs coupling capabilities.">
<polygon fill="white" stroke="#666666" points="531,-199.5 454,-199.5 454,-180.5 531,-180.5 531,-199.5"/>
<text text-anchor="middle" x="492.5" y="-187.5" font-family="Courier,monospace" font-size="10.00">Coupleable</text>
</a>
</g>
</g>
<!-- Node24&#45;&gt;Node23 -->
<g id="edge23" class="edge">
<title>Node24&#45;&gt;Node23</title>
<path fill="none" stroke="#63b8ff" d="M542.33,-197.92C556.29,-200.78 571.4,-204.45 585,-209 601.78,-214.62 604.13,-220.66 621,-226 634.21,-230.18 648.7,-233.47 662.55,-236.02"/>
<polygon fill="#63b8ff" stroke="#63b8ff" points="543.4,-194.56 532.91,-196.09 542.06,-201.43 543.4,-194.56"/>
</g>
<!-- Node25 -->
<g id="node25" class="node">
<title>Node25</title>
<g id="a_node25"><a xlink:href="classScalarCoupleable.html" target="_top" xlink:title="Interface for objects that needs scalar coupling capabilities.">
<polygon fill="white" stroke="#666666" points="782,-216.5 669,-216.5 669,-197.5 782,-197.5 782,-216.5"/>
<text text-anchor="middle" x="725.5" y="-204.5" font-family="Courier,monospace" font-size="10.00">ScalarCoupleable</text>
</a>
</g>
</g>
<!-- Node25&#45;&gt;Node22 -->
<g id="edge24" class="edge">
<title>Node25&#45;&gt;Node22</title>
<path fill="none" stroke="#63b8ff" d="M793.83,-207C816.12,-207 841.44,-207 865.68,-207"/>
<polygon fill="#63b8ff" stroke="#63b8ff" points="793.98,-203.5 783.98,-207 793.98,-210.5 793.98,-203.5"/>
</g>
<!-- Node26 -->
<g id="node26" class="node">
<title>Node26</title>
<g id="a_node26"><a xlink:href="classMooseVariableDependencyInterface.html" target="_top" xlink:title=" ">
<polygon fill="white" stroke="#666666" points="830,-179.5 621,-179.5 621,-160.5 830,-160.5 830,-179.5"/>
<text text-anchor="middle" x="725.5" y="-167.5" font-family="Courier,monospace" font-size="10.00">MooseVariableDependencyInterface</text>
</a>
</g>
</g>
<!-- Node26&#45;&gt;Node22 -->
<g id="edge25" class="edge">
<title>Node26&#45;&gt;Node22</title>
<path fill="none" stroke="#63b8ff" d="M802.45,-181.71C822.65,-184.82 844.77,-188.23 866.06,-191.51"/>
<polygon fill="#63b8ff" stroke="#63b8ff" points="803.04,-178.26 792.63,-180.19 801.98,-185.18 803.04,-178.26"/>
</g>
<!-- Node27 -->
<g id="node27" class="node">
<title>Node27</title>
<g id="a_node27"><a xlink:href="classTwoMaterialPropertyInterface.html" target="_top" xlink:title="This interface is designed for DGKernel, InternalSideUserObject, InterfaceUserObject,...">
<polygon fill="white" stroke="#666666" points="1060,-173.5 875,-173.5 875,-154.5 1060,-154.5 1060,-173.5"/>
<text text-anchor="middle" x="967.5" y="-161.5" font-family="Courier,monospace" font-size="10.00">TwoMaterialPropertyInterface</text>
</a>
</g>
</g>
<!-- Node27&#45;&gt;Node1 -->
<g id="edge26" class="edge">
<title>Node27&#45;&gt;Node1</title>
<path fill="none" stroke="#63b8ff" d="M1035.08,-176.13C1046.42,-178.32 1058.06,-180.66 1069,-183 1089.17,-187.31 1111.5,-192.59 1129.98,-197.1"/>
<polygon fill="#63b8ff" stroke="#63b8ff" points="1035.85,-172.71 1025.37,-174.27 1034.54,-179.59 1035.85,-172.71"/>
</g>
<!-- Node28 -->
<g id="node28" class="node">
<title>Node28</title>
<g id="a_node28"><a xlink:href="classMaterialPropertyInterface.html" target="_top" xlink:title="An interface for accessing Materials.">
<polygon fill="white" stroke="#666666" points="809,-142.5 642,-142.5 642,-123.5 809,-123.5 809,-142.5"/>
<text text-anchor="middle" x="725.5" y="-130.5" font-family="Courier,monospace" font-size="10.00">MaterialPropertyInterface</text>
</a>
</g>
</g>
<!-- Node28&#45;&gt;Node27 -->
<g id="edge27" class="edge">
<title>Node28&#45;&gt;Node27</title>
<path fill="none" stroke="#63b8ff" d="M815.17,-144.45C839.53,-147.6 865.74,-150.98 889.39,-154.04"/>
<polygon fill="#63b8ff" stroke="#63b8ff" points="815.63,-140.98 805.26,-143.17 814.73,-147.93 815.63,-140.98"/>
</g>
<!-- Node29 -->
<g id="node29" class="node">
<title>Node29</title>
<g id="a_node29"><a xlink:href="classElementIDInterface.html" target="_top" xlink:title=" ">
<polygon fill="white" stroke="#666666" points="1030,-136.5 905,-136.5 905,-117.5 1030,-117.5 1030,-136.5"/>
<text text-anchor="middle" x="967.5" y="-124.5" font-family="Courier,monospace" font-size="10.00">ElementIDInterface</text>
</a>
</g>
</g>
<!-- Node29&#45;&gt;Node1 -->
<g id="edge28" class="edge">
<title>Node29&#45;&gt;Node1</title>
<path fill="none" stroke="#63b8ff" d="M1041.38,-137.56C1050.82,-139.86 1060.24,-142.64 1069,-146 1102.92,-159.01 1138.26,-183.42 1156.64,-197.09"/>
<polygon fill="#63b8ff" stroke="#63b8ff" points="1042.33,-134.19 1031.8,-135.41 1040.79,-141.02 1042.33,-134.19"/>
</g>
<!-- Node31 -->
<g id="node31" class="node">
<title>Node31</title>
<g id="a_node31"><a xlink:href="classGenericInterfaceKernelTempl_3_01T_00_01true_01_4.html" target="_top" xlink:title=" ">
<polygon fill="white" stroke="#666666" points="1675,-462 1496,-462 1496,-432 1675,-432 1675,-462"/>
<text text-anchor="start" x="1504" y="-450" font-family="Courier,monospace" font-size="10.00">GenericInterfaceKernelTempl</text>
<text text-anchor="middle" x="1585.5" y="-439" font-family="Courier,monospace" font-size="10.00">&lt; T, true &gt;</text>
</a>
</g>
</g>
<!-- Node30&#45;&gt;Node31 -->
<g id="edge30" class="edge">
<title>Node30&#45;&gt;Node31</title>
<path fill="none" stroke="#63b8ff" d="M1380.2,-344.59C1402.97,-366.23 1444.67,-402.6 1487,-423 1493.75,-426.25 1500.99,-429.09 1508.35,-431.56"/>
<polygon fill="#63b8ff" stroke="#63b8ff" points="1382.88,-342.31 1373.26,-337.87 1378.01,-347.34 1382.88,-342.31"/>
</g>
<!-- Node32 -->
<g id="node32" class="node">
<title>Node32</title>
<g id="a_node32"><a xlink:href="classHphiRadialInterface.html" target="_top" xlink:title="DG kernel for interfacing diffusion between two variables on adjacent blocks.">
<polygon fill="white" stroke="#666666" points="1651,-414 1520,-414 1520,-384 1651,-384 1651,-414"/>
<text text-anchor="start" x="1528" y="-402" font-family="Courier,monospace" font-size="10.00">HphiRadialInterface</text>
<text text-anchor="middle" x="1585.5" y="-391" font-family="Courier,monospace" font-size="10.00">&lt; Real &gt;</text>
</a>
</g>
</g>
<!-- Node30&#45;&gt;Node32 -->
<g id="edge31" class="edge">
<title>Node30&#45;&gt;Node32</title>
<path fill="none" stroke="#63b8ff" d="M1395.92,-341.21C1420.75,-351.45 1455.62,-365.13 1487,-375 1497.48,-378.29 1508.7,-381.42 1519.67,-384.26"/>
<polygon fill="#63b8ff" stroke="#63b8ff" points="1397.57,-338.11 1386.99,-337.5 1394.88,-344.57 1397.57,-338.11"/>
</g>
<!-- Node33 -->
<g id="node33" class="node">
<title>Node33</title>
<g id="a_node33"><a xlink:href="classInterfaceAdvection.html" target="_top" xlink:title="DG kernel for interfacing advection on adjacent blocks.">
<polygon fill="white" stroke="#666666" points="1648,-366 1523,-366 1523,-336 1648,-336 1648,-366"/>
<text text-anchor="start" x="1531" y="-354" font-family="Courier,monospace" font-size="10.00">InterfaceAdvection</text>
<text text-anchor="middle" x="1585.5" y="-343" font-family="Courier,monospace" font-size="10.00">&lt; Real &gt;</text>
</a>
</g>
</g>
<!-- Node30&#45;&gt;Node33 -->
<g id="edge32" class="edge">
<title>Node30&#45;&gt;Node33</title>
<path fill="none" stroke="#63b8ff" d="M1462.49,-337.81C1482.95,-340.02 1503.92,-342.29 1522.57,-344.3"/>
<polygon fill="#63b8ff" stroke="#63b8ff" points="1463.02,-334.35 1452.7,-336.75 1462.27,-341.31 1463.02,-334.35"/>
</g>
<!-- Node34 -->
<g id="node34" class="node">
<title>Node34</title>
<g id="a_node34"><a xlink:href="classInterfaceLogDiffusionElectrons.html" target="_top" xlink:title="DG kernel for interfacing diffusion between two variables on adjacent blocks.">
<polygon fill="white" stroke="#666666" points="1684,-318 1487,-318 1487,-288 1684,-288 1684,-318"/>
<text text-anchor="start" x="1495" y="-306" font-family="Courier,monospace" font-size="10.00">InterfaceLogDiffusionElectrons</text>
<text text-anchor="middle" x="1585.5" y="-295" font-family="Courier,monospace" font-size="10.00">&lt; Real &gt;</text>
</a>
</g>
</g>
<!-- Node30&#45;&gt;Node34 -->
<g id="edge33" class="edge">
<title>Node30&#45;&gt;Node34</title>
<path fill="none" stroke="#63b8ff" d="M1462.54,-316.18C1470.62,-315.31 1478.77,-314.43 1486.83,-313.56"/>
<polygon fill="#63b8ff" stroke="#63b8ff" points="1462.27,-312.69 1452.7,-317.25 1463.02,-319.65 1462.27,-312.69"/>
</g>
<!-- Node35 -->
<g id="node35" class="node">
<title>Node35</title>
<g id="a_node35"><a xlink:href="classPotentialSurfaceCharge.html" target="_top" xlink:title="InterfaceKernel for enforcing a dielectric boundary condition on a potential variable,...">
<polygon fill="white" stroke="#666666" points="1660,-270 1511,-270 1511,-240 1660,-240 1660,-270"/>
<text text-anchor="start" x="1519" y="-258" font-family="Courier,monospace" font-size="10.00">PotentialSurfaceCharge</text>
<text text-anchor="middle" x="1585.5" y="-247" font-family="Courier,monospace" font-size="10.00">&lt; Real &gt;</text>
</a>
</g>
</g>
<!-- Node30&#45;&gt;Node35 -->
<g id="edge34" class="edge">
<title>Node30&#45;&gt;Node35</title>
<path fill="none" stroke="#63b8ff" d="M1395.92,-312.79C1420.75,-302.55 1455.62,-288.87 1487,-279 1496.56,-275.99 1506.75,-273.13 1516.79,-270.49"/>
<polygon fill="#63b8ff" stroke="#63b8ff" points="1394.88,-309.43 1386.99,-316.5 1397.57,-315.89 1394.88,-309.43"/>
</g>
<!-- Node37 -->
<g id="node37" class="node">
<title>Node37</title>
<g id="a_node37"><a xlink:href="classGenericInterfaceKernelTempl.html" target="_top" xlink:title=" ">
<polygon fill="white" stroke="#666666" points="1675,-222 1496,-222 1496,-192 1675,-192 1675,-222"/>
<text text-anchor="start" x="1504" y="-210" font-family="Courier,monospace" font-size="10.00">GenericInterfaceKernelTempl</text>
<text text-anchor="middle" x="1585.5" y="-199" font-family="Courier,monospace" font-size="10.00">&lt; T, is_ad &gt;</text>
</a>
</g>
</g>
<!-- Node36&#45;&gt;Node37 -->
<g id="edge36" class="edge">
<title>Node36&#45;&gt;Node37</title>
<path fill="none" stroke="#63b8ff" d="M1395.92,-149.21C1420.75,-159.45 1455.62,-173.13 1487,-183 1496.56,-186.01 1506.75,-188.87 1516.79,-191.51"/>
<polygon fill="#63b8ff" stroke="#63b8ff" points="1397.57,-146.11 1386.99,-145.5 1394.88,-152.57 1397.57,-146.11"/>
</g>
<!-- Node39 -->
<g id="node39" class="node">
<title>Node39</title>
<g id="a_node39"><a xlink:href="classInterTemperatureAdvection.html" target="_top" xlink:title=" ">
<polygon fill="white" stroke="#666666" points="1669,-174 1502,-174 1502,-144 1669,-144 1669,-174"/>
<text text-anchor="start" x="1510" y="-162" font-family="Courier,monospace" font-size="10.00">InterTemperatureAdvection</text>
<text text-anchor="middle" x="1585.5" y="-151" font-family="Courier,monospace" font-size="10.00">&lt; Real &gt;</text>
</a>
</g>
</g>
<!-- Node36&#45;&gt;Node39 -->
<g id="edge38" class="edge">
<title>Node36&#45;&gt;Node39</title>
<path fill="none" stroke="#63b8ff" d="M1456.78,-145.19C1471.68,-146.8 1487,-148.46 1501.62,-150.04"/>
<polygon fill="#63b8ff" stroke="#63b8ff" points="1457.3,-141.73 1446.99,-144.13 1456.55,-148.69 1457.3,-141.73"/>
</g>
<!-- Node40 -->
<g id="node40" class="node">
<title>Node40</title>
<g id="a_node40"><a xlink:href="classInterfaceDiffusion.html" target="_top" xlink:title="DG kernel for interfacing diffusion between two variables on adjacent blocks.">
<polygon fill="white" stroke="#666666" points="1648,-126 1523,-126 1523,-96 1648,-96 1648,-126"/>
<text text-anchor="start" x="1531" y="-114" font-family="Courier,monospace" font-size="10.00">InterfaceDiffusion</text>
<text text-anchor="middle" x="1585.5" y="-103" font-family="Courier,monospace" font-size="10.00">&lt; Real &gt;</text>
</a>
</g>
</g>
<!-- Node36&#45;&gt;Node40 -->
<g id="edge39" class="edge">
<title>Node36&#45;&gt;Node40</title>
<path fill="none" stroke="#63b8ff" d="M1456.7,-124.82C1479.04,-122.4 1502.3,-119.89 1522.76,-117.67"/>
<polygon fill="#63b8ff" stroke="#63b8ff" points="1456.55,-121.31 1446.99,-125.87 1457.3,-128.27 1456.55,-121.31"/>
</g>
<!-- Node41 -->
<g id="node41" class="node">
<title>Node41</title>
<g id="a_node41"><a xlink:href="classInterfaceReaction.html" target="_top" xlink:title="Implements a reaction to establish ReactionRate=k_f*u&#45;k_b*v at interface.">
<polygon fill="white" stroke="#666666" points="1648,-78 1523,-78 1523,-48 1648,-48 1648,-78"/>
<text text-anchor="start" x="1531" y="-66" font-family="Courier,monospace" font-size="10.00">InterfaceReaction&lt;</text>
<text text-anchor="middle" x="1585.5" y="-55" font-family="Courier,monospace" font-size="10.00"> Real &gt;</text>
</a>
</g>
</g>
<!-- Node36&#45;&gt;Node41 -->
<g id="edge40" class="edge">
<title>Node36&#45;&gt;Node41</title>
<path fill="none" stroke="#63b8ff" d="M1395.92,-120.79C1420.75,-110.55 1455.62,-96.87 1487,-87 1498.39,-83.42 1510.67,-80.03 1522.54,-77"/>
<polygon fill="#63b8ff" stroke="#63b8ff" points="1394.88,-117.43 1386.99,-124.5 1397.57,-123.89 1394.88,-117.43"/>
</g>
<!-- Node42 -->
<g id="node42" class="node">
<title>Node42</title>
<g id="a_node42"><a xlink:href="classInterfaceTimeKernel.html" target="_top" xlink:title="InterfaceTimeKernel is responsible for adding time derivative contributions for physics across interf...">
<polygon fill="white" stroke="#666666" points="1651,-30 1520,-30 1520,0 1651,0 1651,-30"/>
<text text-anchor="start" x="1528" y="-18" font-family="Courier,monospace" font-size="10.00">InterfaceTimeKernel</text>
<text text-anchor="middle" x="1585.5" y="-7" font-family="Courier,monospace" font-size="10.00">&lt; Real &gt;</text>
</a>
</g>
</g>
<!-- Node36&#45;&gt;Node42 -->
<g id="edge41" class="edge">
<title>Node36&#45;&gt;Node42</title>
<path fill="none" stroke="#63b8ff" d="M1380.2,-117.41C1402.97,-95.77 1444.67,-59.4 1487,-39 1497.21,-34.08 1508.52,-30.11 1519.71,-26.93"/>
<polygon fill="#63b8ff" stroke="#63b8ff" points="1378.01,-114.66 1373.26,-124.13 1382.88,-119.69 1378.01,-114.66"/>
</g>
<!-- Node38 -->
<g id="node38" class="node">
<title>Node38</title>
<g id="a_node38"><a xlink:href="classPenaltyInterfaceDiffusionTempl.html" target="_top" xlink:title="Interface kernel for interfacing diffusion between two variables on adjacent blocks.">
<polygon fill="white" stroke="#666666" points="1887,-222 1720,-222 1720,-192 1887,-192 1887,-222"/>
<text text-anchor="start" x="1728" y="-210" font-family="Courier,monospace" font-size="10.00">PenaltyInterfaceDiffusion</text>
<text text-anchor="middle" x="1803.5" y="-199" font-family="Courier,monospace" font-size="10.00">Templ&lt; T, is_ad &gt;</text>
</a>
</g>
</g>
<!-- Node37&#45;&gt;Node38 -->
<g id="edge37" class="edge">
<title>Node37&#45;&gt;Node38</title>
<path fill="none" stroke="#63b8ff" d="M1686.71,-207C1697.72,-207 1708.84,-207 1719.61,-207"/>
<polygon fill="#63b8ff" stroke="#63b8ff" points="1686.8,-203.5 1676.8,-207 1686.8,-210.5 1686.8,-203.5"/>
</g>
</g>
</svg>
        <g id="navigator" transform="translate(0 0)" fill="#404254">
                <rect fill="#f2f5e9" fill-opacity="0.5" stroke="#606060" stroke-width=".5" x="0" y="0" width="60" height="60"/>
                <use id="zoomplus" xlink:href="#zoomPlus" x="17" y="9" onmousedown="handleZoom(evt,'in')"/>
                <use id="zoomminus" xlink:href="#zoomMin" x="42" y="9" onmousedown="handleZoom(evt,'out')"/>
                <use id="reset" xlink:href="#resetDef" x="30" y="36" onmousedown="handleReset()"/>
                <g id="arrowUp" xlink:href="#dirArrow" transform="translate(30 24)" onmousedown="handlePan(0,-1)">
                  <use xlink:href="#rim" fill="#404040">
                        <set attributeName="fill" to="#808080" begin="arrowUp.mouseover" end="arrowUp.mouseout"/>
                  </use>
                  <path fill="none" stroke="white" stroke-width="1.5" d="M0,-3.0v7 M-2.5,-0.5L0,-3.0L2.5,-0.5"/>
                </g>
                <g id="arrowRight" xlink:href="#dirArrow" transform="rotate(90) translate(36 -43)" onmousedown="handlePan(1,0)">
                  <use xlink:href="#rim" fill="#404040">
                        <set attributeName="fill" to="#808080" begin="arrowRight.mouseover" end="arrowRight.mouseout"/>
                  </use>
                  <path fill="none" stroke="white" stroke-width="1.5" d="M0,-3.0v7 M-2.5,-0.5L0,-3.0L2.5,-0.5"/>
                </g>
                <g id="arrowDown" xlink:href="#dirArrow" transform="rotate(180) translate(-30 -48)" onmousedown="handlePan(0,1)">
                  <use xlink:href="#rim" fill="#404040">
                        <set attributeName="fill" to="#808080" begin="arrowDown.mouseover" end="arrowDown.mouseout"/>
                  </use>
                  <path fill="none" stroke="white" stroke-width="1.5" d="M0,-3.0v7 M-2.5,-0.5L0,-3.0L2.5,-0.5"/>
                </g>
                <g id="arrowLeft" xlink:href="#dirArrow" transform="rotate(270) translate(-36 17)" onmousedown="handlePan(-1,0)">
                  <use xlink:href="#rim" fill="#404040">
                        <set attributeName="fill" to="#808080" begin="arrowLeft.mouseover" end="arrowLeft.mouseout"/>
                  </use>
                  <path fill="none" stroke="white" stroke-width="1.5" d="M0,-3.0v7 M-2.5,-0.5L0,-3.0L2.5,-0.5"/>
                </g>
        </g>
        <svg viewBox="0 0 15 15" width="100%" height="30px" preserveAspectRatio="xMaxYMin meet">
         <g id="arrow_out" transform="scale(0.3 0.3)">
          <a xlink:href="classInterfaceKernelBase__inherit__graph_org.svg" target="_base">
           <rect id="button" ry="5" rx="5" y="6" x="6" height="38" width="38"
                fill="#f2f5e9" fill-opacity="0.5" stroke="#606060" stroke-width="1.0"/>
           <path id="arrow"
             d="M 11.500037,31.436501 C 11.940474,20.09759 22.043105,11.32322 32.158766,21.979434 L 37.068811,17.246167 C 37.068811,17.246167 37.088388,32 37.088388,32 L 22.160133,31.978069 C 22.160133,31.978069 26.997745,27.140456 26.997745,27.140456 C 18.528582,18.264221 13.291696,25.230495 11.500037,31.436501 z"
             style="fill:#404040;"/>
          </a>
         </g>
        </svg>
</svg>
