<?xml version="1.0" encoding="UTF-8" standalone="no"?>
<!DOCTYPE svg PUBLIC "-//W3C//DTD SVG 1.1//EN"
 "http://www.w3.org/Graphics/SVG/1.1/DTD/svg11.dtd">
<!-- Generated by graphviz version 7.0.5 (20221223.1930)
 -->
<!-- Title: ComputeResidualAndJacobianThread Pages: 1 -->
<svg width="181pt" height="225pt"
 viewBox="0.00 0.00 181.00 225.00" xmlns="http://www.w3.org/2000/svg" xmlns:xlink="http://www.w3.org/1999/xlink">
<g id="graph0" class="graph" transform="scale(1 1) rotate(0) translate(4 221)">
<title>ComputeResidualAndJacobianThread</title>
<!-- Node1 -->
<g id="node1" class="node">
<title>Node1</title>
<g id="a_node1"><a xlink:title=" ">
<polygon fill="#999999" stroke="#666666" points="173,-30 0,-30 0,0 173,0 173,-30"/>
<text text-anchor="start" x="8" y="-18" font-family="Courier,monospace" font-size="10.00">ComputeResidualAndJacobian</text>
<text text-anchor="middle" x="86.5" y="-7" font-family="Courier,monospace" font-size="10.00">Thread</text>
</a>
</g>
</g>
<!-- Node2 -->
<g id="node2" class="node">
<title>Node2</title>
<g id="a_node2"><a xlink:href="classNonlinearThread.html" target="_top" xlink:title=" ">
<polygon fill="white" stroke="#666666" points="140,-85 33,-85 33,-66 140,-66 140,-85"/>
<text text-anchor="middle" x="86.5" y="-73" font-family="Courier,monospace" font-size="10.00">NonlinearThread</text>
</a>
</g>
</g>
<!-- Node2&#45;&gt;Node1 -->
<g id="edge1" class="edge">
<title>Node2&#45;&gt;Node1</title>
<path fill="none" stroke="#63b8ff" d="M86.5,-54.51C86.5,-46.49 86.5,-37.43 86.5,-30.11"/>
<polygon fill="#63b8ff" stroke="#63b8ff" points="83,-54.35 86.5,-64.35 90,-54.35 83,-54.35"/>
</g>
<!-- Node3 -->
<g id="node3" class="node">
<title>Node3</title>
<g id="a_node3"><a xlink:href="classThreadedElementLoop.html" target="_top" xlink:title=" ">
<polygon fill="white" stroke="#666666" points="152,-151 21,-151 21,-121 152,-121 152,-151"/>
<text text-anchor="start" x="29" y="-139" font-family="Courier,monospace" font-size="10.00">ThreadedElementLoop</text>
<text text-anchor="middle" x="86.5" y="-128" font-family="Courier,monospace" font-size="10.00">&lt; ConstElemRange &gt;</text>
</a>
</g>
</g>
<!-- Node3&#45;&gt;Node2 -->
<g id="edge2" class="edge">
<title>Node3&#45;&gt;Node2</title>
<path fill="none" stroke="#63b8ff" d="M86.5,-109.3C86.5,-100.65 86.5,-91.58 86.5,-85.18"/>
<polygon fill="#63b8ff" stroke="#63b8ff" points="83,-109.03 86.5,-119.03 90,-109.03 83,-109.03"/>
</g>
<!-- Node4 -->
<g id="node4" class="node">
<title>Node4</title>
<g id="a_node4"><a xlink:href="classThreadedElementLoopBase.html" target="_top" xlink:title="Base class for assembly&#45;like calculations.">
<polygon fill="white" stroke="#666666" points="164,-217 9,-217 9,-187 164,-187 164,-217"/>
<text text-anchor="start" x="17" y="-205" font-family="Courier,monospace" font-size="10.00">ThreadedElementLoopBase</text>
<text text-anchor="middle" x="86.5" y="-194" font-family="Courier,monospace" font-size="10.00">&lt; RangeType &gt;</text>
</a>
</g>
</g>
<!-- Node4&#45;&gt;Node3 -->
<g id="edge3" class="edge">
<title>Node4&#45;&gt;Node3</title>
<path fill="none" stroke="#63b8ff" d="M86.5,-175.39C86.5,-167.13 86.5,-158.28 86.5,-151.16"/>
<polygon fill="#63b8ff" stroke="#63b8ff" points="83,-175.28 86.5,-185.28 90,-175.28 83,-175.28"/>
</g>
</g>
</svg>
