<?xml version="1.0" encoding="UTF-8" standalone="no"?>
<!DOCTYPE svg PUBLIC "-//W3C//DTD SVG 1.1//EN"
 "http://www.w3.org/Graphics/SVG/1.1/DTD/svg11.dtd">
<!-- Generated by graphviz version 7.0.5 (20221223.1930)
 -->
<!-- Title: VectorKernel Pages: 1 -->
<!--zoomable 662 -->
<svg id="main" version="1.1" xmlns="http://www.w3.org/2000/svg" xmlns:xlink="http://www.w3.org/1999/xlink" xml:space="preserve" onload="init(evt)">
<style type="text/css"><![CDATA[
.edge:hover path { stroke: red; }
.edge:hover polygon { stroke: red; fill: red; }
]]></style>
<script type="text/javascript"><![CDATA[
var edges = document.getElementsByTagName('g');
if (edges && edges.length) {
  for (var i=0;i<edges.length;i++) {
    if (edges[i].id.substr(0,4)=='edge') {
      edges[i].setAttribute('class','edge');
    }
  }
}
]]></script>
        <defs>
                <circle id="rim" cx="0" cy="0" r="7"/>
                <circle id="rim2" cx="0" cy="0" r="3.5"/>
                <g id="zoomPlus">
                        <use xlink:href="#rim" fill="#404040">
                                <set attributeName="fill" to="#808080" begin="zoomplus.mouseover" end="zoomplus.mouseout"/>
                        </use>
                        <path d="M-4,0h8M0,-4v8" fill="none" stroke="white" stroke-width="1.5" pointer-events="none"/>
                </g>
                <g id="zoomMin">
                        <use xlink:href="#rim" fill="#404040">
                                <set attributeName="fill" to="#808080" begin="zoomminus.mouseover" end="zoomminus.mouseout"/>
                        </use>
                        <path d="M-4,0h8" fill="none" stroke="white" stroke-width="1.5" pointer-events="none"/>
                </g>
                <g id="dirArrow">
                        <path fill="none" stroke="white" stroke-width="1.5" d="M0,-3.0v7 M-2.5,-0.5L0,-3.0L2.5,-0.5"/>
                </g>
               <g id="resetDef">
                       <use xlink:href="#rim2" fill="#404040">
                               <set attributeName="fill" to="#808080" begin="reset.mouseover" end="reset.mouseout"/>
                       </use>
               </g>
        </defs>

<script type="text/javascript">
var viewWidth = 1566;
var viewHeight = 662;
var sectionId = 'dynsection-0';
</script>
<script xlink:href="svgpan.js"/>
<svg id="graph" class="graph">
<g id="viewport">
<title>VectorKernel</title>
<!-- Node1 -->
<g id="node1" class="node">
<title>Node1</title>
<g id="a_node1"><a xlink:title=" ">
<polygon fill="#999999" stroke="#666666" points="1170,-111 1081,-111 1081,-92 1170,-92 1170,-111"/>
<text text-anchor="middle" x="1125.5" y="-99" font-family="Courier,monospace" font-size="10.00">VectorKernel</text>
</a>
</g>
</g>
<!-- Node30 -->
<g id="node30" class="node">
<title>Node30</title>
<g id="a_node30"><a xlink:href="classGradField.html" target="_top" xlink:title="Weak form contribution corresponding to &#45;k*grad(p)">
<polygon fill="white" stroke="#666666" points="1331,-204 1260,-204 1260,-185 1331,-185 1331,-204"/>
<text text-anchor="middle" x="1295.5" y="-192" font-family="Courier,monospace" font-size="10.00">GradField</text>
</a>
</g>
</g>
<!-- Node1&#45;&gt;Node30 -->
<g id="edge29" class="edge">
<title>Node1&#45;&gt;Node30</title>
<path fill="none" stroke="#63b8ff" d="M1140.89,-120.06C1155.41,-137.43 1179.42,-162.72 1206,-176.5 1222.56,-185.09 1242.85,-189.58 1259.82,-191.93"/>
<polygon fill="#63b8ff" stroke="#63b8ff" points="1143.81,-118.1 1134.8,-112.53 1138.36,-122.5 1143.81,-118.1"/>
</g>
<!-- Node31 -->
<g id="node31" class="node">
<title>Node31</title>
<g id="a_node31"><a xlink:href="classVectorBodyForce.html" target="_top" xlink:title="This kernel implements a generic functional body force term: $ &#45; c \cdof \vec{f} \cdot \vec{\phi_i} $...">
<polygon fill="white" stroke="#666666" points="1349,-167 1242,-167 1242,-148 1349,-148 1349,-167"/>
<text text-anchor="middle" x="1295.5" y="-155" font-family="Courier,monospace" font-size="10.00">VectorBodyForce</text>
</a>
</g>
</g>
<!-- Node1&#45;&gt;Node31 -->
<g id="edge30" class="edge">
<title>Node1&#45;&gt;Node31</title>
<path fill="none" stroke="#63b8ff" d="M1154.09,-116.75C1169.07,-124.5 1188.14,-133.52 1206,-139.5 1217.3,-143.29 1229.69,-146.41 1241.53,-148.93"/>
<polygon fill="#63b8ff" stroke="#63b8ff" points="1155.79,-113.69 1145.31,-112.1 1152.51,-119.88 1155.79,-113.69"/>
</g>
<!-- Node32 -->
<g id="node32" class="node">
<title>Node32</title>
<g id="a_node32"><a xlink:href="classVectorCoupledTimeDerivative.html" target="_top" xlink:title="This calculates the time derivative for a coupled vector variable.">
<polygon fill="white" stroke="#666666" points="1385,-130 1206,-130 1206,-111 1385,-111 1385,-130"/>
<text text-anchor="middle" x="1295.5" y="-118" font-family="Courier,monospace" font-size="10.00">VectorCoupledTimeDerivative</text>
</a>
</g>
</g>
<!-- Node1&#45;&gt;Node32 -->
<g id="edge31" class="edge">
<title>Node1&#45;&gt;Node32</title>
<path fill="none" stroke="#63b8ff" d="M1181.57,-107.73C1189.55,-108.63 1197.93,-109.58 1206.36,-110.53"/>
<polygon fill="#63b8ff" stroke="#63b8ff" points="1182.04,-104.26 1171.71,-106.61 1181.25,-111.21 1182.04,-104.26"/>
</g>
<!-- Node33 -->
<g id="node33" class="node">
<title>Node33</title>
<g id="a_node33"><a xlink:href="classVectorDiffusion.html" target="_top" xlink:title="This kernel implements the Laplacian operator: $\nabla \vec{u} \cdot \nabla \vec{\phi_i}$.">
<polygon fill="white" stroke="#666666" points="1349,-93 1242,-93 1242,-74 1349,-74 1349,-93"/>
<text text-anchor="middle" x="1295.5" y="-81" font-family="Courier,monospace" font-size="10.00">VectorDiffusion</text>
</a>
</g>
</g>
<!-- Node1&#45;&gt;Node33 -->
<g id="edge32" class="edge">
<title>Node1&#45;&gt;Node33</title>
<path fill="none" stroke="#63b8ff" d="M1181.59,-95.6C1200.93,-93.53 1222.59,-91.2 1241.74,-89.15"/>
<polygon fill="#63b8ff" stroke="#63b8ff" points="1181.28,-92.11 1171.71,-96.66 1182.02,-99.07 1181.28,-92.11"/>
</g>
<!-- Node34 -->
<g id="node34" class="node">
<title>Node34</title>
<g id="a_node34"><a xlink:href="classVectorFunctionReaction.html" target="_top" xlink:title="Kernel representing the contribution of the PDE term $fu$, where $f$ is a function coefficient and $u...">
<polygon fill="white" stroke="#666666" points="1370,-56 1221,-56 1221,-37 1370,-37 1370,-56"/>
<text text-anchor="middle" x="1295.5" y="-44" font-family="Courier,monospace" font-size="10.00">VectorFunctionReaction</text>
</a>
</g>
</g>
<!-- Node1&#45;&gt;Node34 -->
<g id="edge33" class="edge">
<title>Node1&#45;&gt;Node34</title>
<path fill="none" stroke="#63b8ff" d="M1154.72,-86.38C1169.63,-78.91 1188.43,-70.29 1206,-64.5 1215.38,-61.41 1225.51,-58.75 1235.44,-56.5"/>
<polygon fill="#63b8ff" stroke="#63b8ff" points="1153.28,-83.19 1145.98,-90.87 1156.47,-89.42 1153.28,-83.19"/>
</g>
<!-- Node35 -->
<g id="node35" class="node">
<title>Node35</title>
<g id="a_node35"><a xlink:href="classVectorTimeKernel.html" target="_top" xlink:title="All vector time kernels should inherit from this class.">
<polygon fill="white" stroke="#666666" points="1352,-19 1239,-19 1239,0 1352,0 1352,-19"/>
<text text-anchor="middle" x="1295.5" y="-7" font-family="Courier,monospace" font-size="10.00">VectorTimeKernel</text>
</a>
</g>
</g>
<!-- Node1&#45;&gt;Node35 -->
<g id="edge34" class="edge">
<title>Node1&#45;&gt;Node35</title>
<path fill="none" stroke="#63b8ff" d="M1141.18,-82.91C1155.76,-65.79 1179.69,-41.04 1206,-27.5 1216.04,-22.34 1227.43,-18.65 1238.62,-16.03"/>
<polygon fill="#63b8ff" stroke="#63b8ff" points="1138.7,-80.41 1135.05,-90.36 1144.11,-84.86 1138.7,-80.41"/>
</g>
<!-- Node2 -->
<g id="node2" class="node">
<title>Node2</title>
<g id="a_node2"><a xlink:href="classKernelBase.html" target="_top" xlink:title="This is the common base class for the three main kernel types implemented in MOOSE,...">
<polygon fill="white" stroke="#666666" points="1009,-133 932,-133 932,-114 1009,-114 1009,-133"/>
<text text-anchor="middle" x="970.5" y="-121" font-family="Courier,monospace" font-size="10.00">KernelBase</text>
</a>
</g>
</g>
<!-- Node2&#45;&gt;Node1 -->
<g id="edge1" class="edge">
<title>Node2&#45;&gt;Node1</title>
<path fill="none" stroke="#63b8ff" d="M1020.62,-116.44C1039.91,-113.66 1061.87,-110.51 1080.61,-107.81"/>
<polygon fill="#63b8ff" stroke="#63b8ff" points="1020.22,-112.96 1010.82,-117.85 1021.21,-119.89 1020.22,-112.96"/>
</g>
<!-- Node3 -->
<g id="node3" class="node">
<title>Node3</title>
<g id="a_node3"><a xlink:href="classResidualObject.html" target="_top" xlink:title="This is the common base class for objects that give residual contributions.">
<polygon fill="white" stroke="#666666" points="803,-376 702,-376 702,-357 803,-357 803,-376"/>
<text text-anchor="middle" x="752.5" y="-364" font-family="Courier,monospace" font-size="10.00">ResidualObject</text>
</a>
</g>
</g>
<!-- Node3&#45;&gt;Node2 -->
<g id="edge2" class="edge">
<title>Node3&#45;&gt;Node2</title>
<path fill="none" stroke="#63b8ff" d="M769.81,-348.15C812.75,-299.84 927.84,-170.36 960.66,-133.45"/>
<polygon fill="#63b8ff" stroke="#63b8ff" points="767.27,-345.74 763.24,-355.54 772.5,-350.39 767.27,-345.74"/>
</g>
<!-- Node4 -->
<g id="node4" class="node">
<title>Node4</title>
<g id="a_node4"><a xlink:href="classMooseObject.html" target="_top" xlink:title="Every object that can be built by the factory should be derived from this class.">
<polygon fill="white" stroke="#666666" points="546,-580 463,-580 463,-561 546,-561 546,-580"/>
<text text-anchor="middle" x="504.5" y="-568" font-family="Courier,monospace" font-size="10.00">MooseObject</text>
</a>
</g>
</g>
<!-- Node4&#45;&gt;Node3 -->
<g id="edge3" class="edge">
<title>Node4&#45;&gt;Node3</title>
<path fill="none" stroke="#63b8ff" d="M557.63,-568.98C574.95,-566.57 593.71,-561.76 609,-552.5 683.46,-507.4 733.01,-407.73 747.26,-376.23"/>
<polygon fill="#63b8ff" stroke="#63b8ff" points="557.54,-565.46 548,-570.07 558.33,-572.42 557.54,-565.46"/>
</g>
<!-- Node5 -->
<g id="node5" class="node">
<title>Node5</title>
<g id="a_node5"><a xlink:href="classMooseBase.html" target="_top" xlink:title="Base class for everything in MOOSE with a name and a type.">
<polygon fill="white" stroke="#666666" points="310,-654 239,-654 239,-635 310,-635 310,-654"/>
<text text-anchor="middle" x="274.5" y="-642" font-family="Courier,monospace" font-size="10.00">MooseBase</text>
</a>
</g>
</g>
<!-- Node5&#45;&gt;Node4 -->
<g id="edge4" class="edge">
<title>Node5&#45;&gt;Node4</title>
<path fill="none" stroke="#63b8ff" d="M321.54,-636.78C335.32,-634.03 350.39,-630.58 364,-626.5 407,-613.61 455.19,-592.76 482.19,-580.47"/>
<polygon fill="#63b8ff" stroke="#63b8ff" points="320.97,-633.32 311.81,-638.64 322.29,-640.2 320.97,-633.32"/>
</g>
<!-- Node6 -->
<g id="node6" class="node">
<title>Node6</title>
<g id="a_node6"><a xlink:href="classMooseBaseParameterInterface.html" target="_top" xlink:title="Every object that can be built by the factory should be derived from this class.">
<polygon fill="white" stroke="#666666" points="364,-617 185,-617 185,-598 364,-598 364,-617"/>
<text text-anchor="middle" x="274.5" y="-605" font-family="Courier,monospace" font-size="10.00">MooseBaseParameterInterface</text>
</a>
</g>
</g>
<!-- Node6&#45;&gt;Node4 -->
<g id="edge5" class="edge">
<title>Node6&#45;&gt;Node4</title>
<path fill="none" stroke="#63b8ff" d="M347.88,-595.75C385.73,-589.61 430.68,-582.32 462.51,-577.15"/>
<polygon fill="#63b8ff" stroke="#63b8ff" points="347.7,-592.24 338.39,-597.29 348.83,-599.15 347.7,-592.24"/>
</g>
<!-- Node7 -->
<g id="node7" class="node">
<title>Node7</title>
<g id="a_node7"><a xlink:href="classMooseBaseErrorInterface.html" target="_top" xlink:title="Interface that provides APIs to output errors/warnings/info messages.">
<polygon fill="white" stroke="#666666" points="352,-580 197,-580 197,-561 352,-561 352,-580"/>
<text text-anchor="middle" x="274.5" y="-568" font-family="Courier,monospace" font-size="10.00">MooseBaseErrorInterface</text>
</a>
</g>
</g>
<!-- Node7&#45;&gt;Node4 -->
<g id="edge6" class="edge">
<title>Node7&#45;&gt;Node4</title>
<path fill="none" stroke="#63b8ff" d="M363.8,-570.5C397.92,-570.5 435.28,-570.5 462.77,-570.5"/>
<polygon fill="#63b8ff" stroke="#63b8ff" points="363.89,-567 353.89,-570.5 363.89,-574 363.89,-567"/>
</g>
<!-- Node8 -->
<g id="node8" class="node">
<title>Node8</title>
<g id="a_node8"><a xlink:href="classConsoleStreamInterface.html" target="_top" xlink:title="An inteface for the _console for outputting to the Console object.">
<polygon fill="white" stroke="#666666" points="149,-580 0,-580 0,-561 149,-561 149,-580"/>
<text text-anchor="middle" x="74.5" y="-568" font-family="Courier,monospace" font-size="10.00">ConsoleStreamInterface</text>
</a>
</g>
</g>
<!-- Node8&#45;&gt;Node7 -->
<g id="edge7" class="edge">
<title>Node8&#45;&gt;Node7</title>
<path fill="none" stroke="#63b8ff" d="M160.62,-570.5C172.62,-570.5 184.9,-570.5 196.73,-570.5"/>
<polygon fill="#63b8ff" stroke="#63b8ff" points="160.74,-567 150.74,-570.5 160.74,-574 160.74,-567"/>
</g>
<!-- Node9 -->
<g id="node9" class="node">
<title>Node9</title>
<g id="a_node9"><a xlink:title=" ">
<polygon fill="white" stroke="#666666" points="352,-543 197,-543 197,-524 352,-524 352,-543"/>
<text text-anchor="middle" x="274.5" y="-531" font-family="Courier,monospace" font-size="10.00">libMesh::ParallelObject</text>
</a>
</g>
</g>
<!-- Node9&#45;&gt;Node4 -->
<g id="edge8" class="edge">
<title>Node9&#45;&gt;Node4</title>
<path fill="none" stroke="#63b8ff" d="M347.88,-545.25C385.73,-551.39 430.68,-558.68 462.51,-563.85"/>
<polygon fill="#63b8ff" stroke="#63b8ff" points="348.83,-541.85 338.39,-543.71 347.7,-548.76 348.83,-541.85"/>
</g>
<!-- Node10 -->
<g id="node10" class="node">
<title>Node10</title>
<g id="a_node10"><a xlink:href="classDataFileInterface.html" target="_top" xlink:title=" ">
<polygon fill="white" stroke="#666666" points="337,-505.5 212,-505.5 212,-475.5 337,-475.5 337,-505.5"/>
<text text-anchor="start" x="220" y="-493.5" font-family="Courier,monospace" font-size="10.00">DataFileInterface&lt;</text>
<text text-anchor="middle" x="274.5" y="-482.5" font-family="Courier,monospace" font-size="10.00"> MooseObject &gt;</text>
</a>
</g>
</g>
<!-- Node10&#45;&gt;Node4 -->
<g id="edge9" class="edge">
<title>Node10&#45;&gt;Node4</title>
<path fill="none" stroke="#63b8ff" d="M347.62,-507.35C353.32,-509.73 358.86,-512.44 364,-515.5 383.71,-527.24 379.71,-541.79 400,-552.5 419.11,-562.59 442.71,-567.19 462.54,-569.23"/>
<polygon fill="#63b8ff" stroke="#63b8ff" points="349.23,-504.22 338.64,-503.94 346.74,-510.76 349.23,-504.22"/>
</g>
<!-- Node11 -->
<g id="node11" class="node">
<title>Node11</title>
<g id="a_node11"><a xlink:href="classSetupInterface.html" target="_top" xlink:title=" ">
<polygon fill="white" stroke="#666666" points="555,-543 454,-543 454,-524 555,-524 555,-543"/>
<text text-anchor="middle" x="504.5" y="-531" font-family="Courier,monospace" font-size="10.00">SetupInterface</text>
</a>
</g>
</g>
<!-- Node11&#45;&gt;Node3 -->
<g id="edge10" class="edge">
<title>Node11&#45;&gt;Node3</title>
<path fill="none" stroke="#63b8ff" d="M566.26,-529.5C580.86,-526.79 595.98,-522.44 609,-515.5 675.01,-480.3 728.22,-403.26 745.53,-376.16"/>
<polygon fill="#63b8ff" stroke="#63b8ff" points="566.06,-525.99 556.74,-531.02 567.16,-532.9 566.06,-525.99"/>
</g>
<!-- Node12 -->
<g id="node12" class="node">
<title>Node12</title>
<g id="a_node12"><a xlink:href="classFunctionInterface.html" target="_top" xlink:title="Interface for objects that need to use functions.">
<polygon fill="white" stroke="#666666" points="564,-506 445,-506 445,-487 564,-487 564,-506"/>
<text text-anchor="middle" x="504.5" y="-494" font-family="Courier,monospace" font-size="10.00">FunctionInterface</text>
</a>
</g>
</g>
<!-- Node12&#45;&gt;Node3 -->
<g id="edge11" class="edge">
<title>Node12&#45;&gt;Node3</title>
<path fill="none" stroke="#63b8ff" d="M575.44,-489.2C586.94,-486.63 598.52,-483.17 609,-478.5 666.77,-452.76 721.67,-398.39 742.59,-376.22"/>
<polygon fill="#63b8ff" stroke="#63b8ff" points="575.07,-485.7 565.96,-491.09 576.45,-492.56 575.07,-485.7"/>
</g>
<!-- Node13 -->
<g id="node13" class="node">
<title>Node13</title>
<g id="a_node13"><a xlink:href="classUserObjectInterface.html" target="_top" xlink:title="Interface for objects that need to use UserObjects.">
<polygon fill="white" stroke="#666666" points="570,-469 439,-469 439,-450 570,-450 570,-469"/>
<text text-anchor="middle" x="504.5" y="-457" font-family="Courier,monospace" font-size="10.00">UserObjectInterface</text>
</a>
</g>
</g>
<!-- Node13&#45;&gt;Node3 -->
<g id="edge12" class="edge">
<title>Node13&#45;&gt;Node3</title>
<path fill="none" stroke="#63b8ff" d="M581.36,-449.13C590.78,-447.02 600.19,-444.5 609,-441.5 658.22,-424.73 711.14,-392.74 736.4,-376.49"/>
<polygon fill="#63b8ff" stroke="#63b8ff" points="580.89,-445.66 571.81,-451.12 582.31,-452.51 580.89,-445.66"/>
</g>
<!-- Node14 -->
<g id="node14" class="node">
<title>Node14</title>
<g id="a_node14"><a xlink:href="classTransientInterface.html" target="_top" xlink:title="Interface for objects that needs transient capabilities.">
<polygon fill="white" stroke="#666666" points="567,-432 442,-432 442,-413 567,-413 567,-432"/>
<text text-anchor="middle" x="504.5" y="-420" font-family="Courier,monospace" font-size="10.00">TransientInterface</text>
</a>
</g>
</g>
<!-- Node14&#45;&gt;Node3 -->
<g id="edge13" class="edge">
<title>Node14&#45;&gt;Node3</title>
<path fill="none" stroke="#63b8ff" d="M578.35,-410.67C588.67,-408.75 599.12,-406.67 609,-404.5 646.39,-396.28 688.7,-384.7 717.44,-376.49"/>
<polygon fill="#63b8ff" stroke="#63b8ff" points="577.95,-407.18 568.73,-412.41 579.2,-414.07 577.95,-407.18"/>
</g>
<!-- Node15 -->
<g id="node15" class="node">
<title>Node15</title>
<g id="a_node15"><a xlink:href="classPostprocessorInterface.html" target="_top" xlink:title="Interface class for classes which interact with Postprocessors.">
<polygon fill="white" stroke="#666666" points="579,-395 430,-395 430,-376 579,-376 579,-395"/>
<text text-anchor="middle" x="504.5" y="-383" font-family="Courier,monospace" font-size="10.00">PostprocessorInterface</text>
</a>
</g>
</g>
<!-- Node15&#45;&gt;Node3 -->
<g id="edge14" class="edge">
<title>Node15&#45;&gt;Node3</title>
<path fill="none" stroke="#63b8ff" d="M590.61,-378.93C627.61,-376.07 669.67,-372.82 701.51,-370.36"/>
<polygon fill="#63b8ff" stroke="#63b8ff" points="590.52,-375.42 580.82,-379.68 591.06,-382.4 590.52,-375.42"/>
</g>
<!-- Node16 -->
<g id="node16" class="node">
<title>Node16</title>
<g id="a_node16"><a xlink:href="classVectorPostprocessorInterface.html" target="_top" xlink:title=" ">
<polygon fill="white" stroke="#666666" points="597,-358 412,-358 412,-339 597,-339 597,-358"/>
<text text-anchor="middle" x="504.5" y="-346" font-family="Courier,monospace" font-size="10.00">VectorPostprocessorInterface</text>
</a>
</g>
</g>
<!-- Node16&#45;&gt;Node3 -->
<g id="edge15" class="edge">
<title>Node16&#45;&gt;Node3</title>
<path fill="none" stroke="#63b8ff" d="M608.74,-356.05C640.92,-358.41 674.96,-360.9 701.72,-362.86"/>
<polygon fill="#63b8ff" stroke="#63b8ff" points="609.19,-352.58 598.96,-355.34 608.68,-359.56 609.19,-352.58"/>
</g>
<!-- Node17 -->
<g id="node17" class="node">
<title>Node17</title>
<g id="a_node17"><a xlink:href="classRandomInterface.html" target="_top" xlink:title="Interface for objects that need parallel consistent random numbers without patterns over the course o...">
<polygon fill="white" stroke="#666666" points="558,-321 451,-321 451,-302 558,-302 558,-321"/>
<text text-anchor="middle" x="504.5" y="-309" font-family="Courier,monospace" font-size="10.00">RandomInterface</text>
</a>
</g>
</g>
<!-- Node17&#45;&gt;Node3 -->
<g id="edge16" class="edge">
<title>Node17&#45;&gt;Node3</title>
<path fill="none" stroke="#63b8ff" d="M569.59,-322.58C582.66,-325.04 596.3,-327.73 609,-330.5 645.15,-338.38 686.07,-348.88 714.75,-356.51"/>
<polygon fill="#63b8ff" stroke="#63b8ff" points="570.24,-319.15 559.78,-320.77 568.97,-326.03 570.24,-319.15"/>
</g>
<!-- Node18 -->
<g id="node18" class="node">
<title>Node18</title>
<g id="a_node18"><a xlink:href="classRestartable.html" target="_top" xlink:title="A class for creating restricted objects.">
<polygon fill="white" stroke="#666666" points="546,-284 463,-284 463,-265 546,-265 546,-284"/>
<text text-anchor="middle" x="504.5" y="-272" font-family="Courier,monospace" font-size="10.00">Restartable</text>
</a>
</g>
</g>
<!-- Node18&#45;&gt;Node3 -->
<g id="edge17" class="edge">
<title>Node18&#45;&gt;Node3</title>
<path fill="none" stroke="#63b8ff" d="M557.29,-280.96C574.05,-283.86 592.56,-287.91 609,-293.5 657.69,-310.04 710.43,-340.8 735.93,-356.59"/>
<polygon fill="#63b8ff" stroke="#63b8ff" points="557.93,-277.52 547.5,-279.38 556.81,-284.43 557.93,-277.52"/>
</g>
<!-- Node19 -->
<g id="node19" class="node">
<title>Node19</title>
<g id="a_node19"><a xlink:href="classMeshChangedInterface.html" target="_top" xlink:title="Interface for notifications that the mesh has changed.">
<polygon fill="white" stroke="#666666" points="573,-247 436,-247 436,-228 573,-228 573,-247"/>
<text text-anchor="middle" x="504.5" y="-235" font-family="Courier,monospace" font-size="10.00">MeshChangedInterface</text>
</a>
</g>
</g>
<!-- Node19&#45;&gt;Node3 -->
<g id="edge18" class="edge">
<title>Node19&#45;&gt;Node3</title>
<path fill="none" stroke="#63b8ff" d="M584.55,-247.93C592.98,-250.24 601.29,-253.06 609,-256.5 666.09,-281.96 720.95,-334.78 742.22,-356.67"/>
<polygon fill="#63b8ff" stroke="#63b8ff" points="585.45,-244.55 574.91,-245.55 583.77,-251.35 585.45,-244.55"/>
</g>
<!-- Node20 -->
<g id="node20" class="node">
<title>Node20</title>
<g id="a_node20"><a xlink:href="classTaggingInterface.html" target="_top" xlink:title=" ">
<polygon fill="white" stroke="#666666" points="561,-210 448,-210 448,-191 561,-191 561,-210"/>
<text text-anchor="middle" x="504.5" y="-198" font-family="Courier,monospace" font-size="10.00">TaggingInterface</text>
</a>
</g>
</g>
<!-- Node20&#45;&gt;Node3 -->
<g id="edge19" class="edge">
<title>Node20&#45;&gt;Node3</title>
<path fill="none" stroke="#63b8ff" d="M572.37,-206.51C585.02,-209.36 597.79,-213.5 609,-219.5 674.19,-254.38 727.52,-329.62 745.22,-356.61"/>
<polygon fill="#63b8ff" stroke="#63b8ff" points="573.3,-203.13 562.81,-204.62 571.94,-209.99 573.3,-203.13"/>
</g>
<!-- Node21 -->
<g id="node21" class="node">
<title>Node21</title>
<g id="a_node21"><a xlink:href="classBlockRestrictable.html" target="_top" xlink:title="An interface that restricts an object to subdomains via the &#39;blocks&#39; input parameter.">
<polygon fill="white" stroke="#666666" points="812,-198 693,-198 693,-179 812,-179 812,-198"/>
<text text-anchor="middle" x="752.5" y="-186" font-family="Courier,monospace" font-size="10.00">BlockRestrictable</text>
</a>
</g>
</g>
<!-- Node21&#45;&gt;Node2 -->
<g id="edge20" class="edge">
<title>Node21&#45;&gt;Node2</title>
<path fill="none" stroke="#63b8ff" d="M823.51,-178.29C835.78,-175.86 848.35,-172.94 860,-169.5 892.43,-159.92 928.25,-143.74 949.8,-133.34"/>
<polygon fill="#63b8ff" stroke="#63b8ff" points="823.02,-174.82 813.84,-180.11 824.32,-181.7 823.02,-174.82"/>
</g>
<!-- Node22 -->
<g id="node22" class="node">
<title>Node22</title>
<g id="a_node22"><a xlink:href="classCoupleableMooseVariableDependencyIntermediateInterface.html" target="_top" xlink:title="Intermediate base class that ties together all the interfaces for getting MooseVariableFEBases with t...">
<polygon fill="white" stroke="#666666" points="860,-160.5 645,-160.5 645,-130.5 860,-130.5 860,-160.5"/>
<text text-anchor="start" x="653" y="-148.5" font-family="Courier,monospace" font-size="10.00">CoupleableMooseVariableDependency</text>
<text text-anchor="middle" x="752.5" y="-137.5" font-family="Courier,monospace" font-size="10.00">IntermediateInterface</text>
</a>
</g>
</g>
<!-- Node22&#45;&gt;Node2 -->
<g id="edge21" class="edge">
<title>Node22&#45;&gt;Node2</title>
<path fill="none" stroke="#63b8ff" d="M871.68,-133.46C893.49,-131.24 914.75,-129.08 931.85,-127.33"/>
<polygon fill="#63b8ff" stroke="#63b8ff" points="871.33,-129.98 861.74,-134.48 872.04,-136.94 871.33,-129.98"/>
</g>
<!-- Node23 -->
<g id="node23" class="node">
<title>Node23</title>
<g id="a_node23"><a xlink:href="classCoupleable.html" target="_top" xlink:title="Interface for objects that needs coupling capabilities.">
<polygon fill="white" stroke="#666666" points="543,-173 466,-173 466,-154 543,-154 543,-173"/>
<text text-anchor="middle" x="504.5" y="-161" font-family="Courier,monospace" font-size="10.00">Coupleable</text>
</a>
</g>
</g>
<!-- Node23&#45;&gt;Node22 -->
<g id="edge22" class="edge">
<title>Node23&#45;&gt;Node22</title>
<path fill="none" stroke="#63b8ff" d="M554.76,-159.9C580.62,-158 613.37,-155.61 644.69,-153.32"/>
<polygon fill="#63b8ff" stroke="#63b8ff" points="554.63,-156.4 544.91,-160.62 555.14,-163.38 554.63,-156.4"/>
</g>
<!-- Node24 -->
<g id="node24" class="node">
<title>Node24</title>
<g id="a_node24"><a xlink:href="classScalarCoupleable.html" target="_top" xlink:title="Interface for objects that needs scalar coupling capabilities.">
<polygon fill="white" stroke="#666666" points="561,-136 448,-136 448,-117 561,-117 561,-136"/>
<text text-anchor="middle" x="504.5" y="-124" font-family="Courier,monospace" font-size="10.00">ScalarCoupleable</text>
</a>
</g>
</g>
<!-- Node24&#45;&gt;Node22 -->
<g id="edge23" class="edge">
<title>Node24&#45;&gt;Node22</title>
<path fill="none" stroke="#63b8ff" d="M572.63,-131.68C594.83,-133.4 620.11,-135.35 644.53,-137.24"/>
<polygon fill="#63b8ff" stroke="#63b8ff" points="573.07,-128.21 562.83,-130.93 572.53,-135.19 573.07,-128.21"/>
</g>
<!-- Node25 -->
<g id="node25" class="node">
<title>Node25</title>
<g id="a_node25"><a xlink:href="classMooseVariableDependencyInterface.html" target="_top" xlink:title=" ">
<polygon fill="white" stroke="#666666" points="609,-99 400,-99 400,-80 609,-80 609,-99"/>
<text text-anchor="middle" x="504.5" y="-87" font-family="Courier,monospace" font-size="10.00">MooseVariableDependencyInterface</text>
</a>
</g>
</g>
<!-- Node25&#45;&gt;Node22 -->
<g id="edge24" class="edge">
<title>Node25&#45;&gt;Node22</title>
<path fill="none" stroke="#63b8ff" d="M580.08,-101.66C589.86,-103.71 599.71,-105.99 609,-108.5 625.42,-112.94 628.67,-116.73 645,-121.5 655.37,-124.53 666.4,-127.4 677.29,-130.03"/>
<polygon fill="#63b8ff" stroke="#63b8ff" points="581.07,-98.29 570.57,-99.76 579.69,-105.16 581.07,-98.29"/>
</g>
<!-- Node26 -->
<g id="node26" class="node">
<title>Node26</title>
<g id="a_node26"><a xlink:href="classMaterialPropertyInterface.html" target="_top" xlink:title="An interface for accessing Materials.">
<polygon fill="white" stroke="#666666" points="836,-112 669,-112 669,-93 836,-93 836,-112"/>
<text text-anchor="middle" x="752.5" y="-100" font-family="Courier,monospace" font-size="10.00">MaterialPropertyInterface</text>
</a>
</g>
</g>
<!-- Node26&#45;&gt;Node2 -->
<g id="edge25" class="edge">
<title>Node26&#45;&gt;Node2</title>
<path fill="none" stroke="#63b8ff" d="M847.66,-111.65C877.29,-114.53 908.32,-117.55 931.66,-119.82"/>
<polygon fill="#63b8ff" stroke="#63b8ff" points="848.19,-108.19 837.9,-110.71 847.51,-115.16 848.19,-108.19"/>
</g>
<!-- Node27 -->
<g id="node27" class="node">
<title>Node27</title>
<g id="a_node27"><a xlink:href="classGeometricSearchInterface.html" target="_top" xlink:title=" ">
<polygon fill="white" stroke="#666666" points="833,-75 672,-75 672,-56 833,-56 833,-75"/>
<text text-anchor="middle" x="752.5" y="-63" font-family="Courier,monospace" font-size="10.00">GeometricSearchInterface</text>
</a>
</g>
</g>
<!-- Node27&#45;&gt;Node2 -->
<g id="edge26" class="edge">
<title>Node27&#45;&gt;Node2</title>
<path fill="none" stroke="darkgreen" d="M843.16,-78.22C848.92,-79.78 854.57,-81.53 860,-83.5 877.41,-89.81 878.87,-97.45 896,-104.5 907.33,-109.17 920.13,-112.95 931.84,-115.88"/>
<polygon fill="darkgreen" stroke="darkgreen" points="844.01,-74.82 833.46,-75.8 842.32,-81.61 844.01,-74.82"/>
</g>
<!-- Node28 -->
<g id="node28" class="node">
<title>Node28</title>
<g id="a_node28"><a xlink:href="classElementIDInterface.html" target="_top" xlink:title=" ">
<polygon fill="white" stroke="#666666" points="815,-38 690,-38 690,-19 815,-19 815,-38"/>
<text text-anchor="middle" x="752.5" y="-26" font-family="Courier,monospace" font-size="10.00">ElementIDInterface</text>
</a>
</g>
</g>
<!-- Node28&#45;&gt;Node2 -->
<g id="edge27" class="edge">
<title>Node28&#45;&gt;Node2</title>
<path fill="none" stroke="#63b8ff" d="M826.37,-32.35C838.29,-35.3 849.99,-39.78 860,-46.5 885.19,-63.41 871.56,-86.52 896,-104.5 906.3,-112.07 919.35,-116.64 931.58,-119.38"/>
<polygon fill="#63b8ff" stroke="#63b8ff" points="827.4,-28.99 816.9,-30.38 825.97,-35.85 827.4,-28.99"/>
</g>
<!-- Node29 -->
<g id="node29" class="node">
<title>Node29</title>
<g id="a_node29"><a xlink:href="classMooseVariableInterface.html" target="_top" xlink:title=" ">
<polygon fill="white" stroke="#666666" points="1045,-95.5 896,-95.5 896,-65.5 1045,-65.5 1045,-95.5"/>
<text text-anchor="start" x="904" y="-83.5" font-family="Courier,monospace" font-size="10.00">MooseVariableInterface</text>
<text text-anchor="middle" x="970.5" y="-72.5" font-family="Courier,monospace" font-size="10.00">&lt; RealVectorValue &gt;</text>
</a>
</g>
</g>
<!-- Node29&#45;&gt;Node1 -->
<g id="edge28" class="edge">
<title>Node29&#45;&gt;Node1</title>
<path fill="none" stroke="#63b8ff" d="M1056.62,-92.18C1064.88,-93.32 1073,-94.43 1080.6,-95.47"/>
<polygon fill="#63b8ff" stroke="#63b8ff" points="1057.19,-88.73 1046.81,-90.84 1056.24,-95.66 1057.19,-88.73"/>
</g>
<!-- Node36 -->
<g id="node36" class="node">
<title>Node36</title>
<g id="a_node36"><a xlink:href="classVectorTimeDerivative.html" target="_top" xlink:title=" ">
<polygon fill="white" stroke="#666666" points="1558,-19 1421,-19 1421,0 1558,0 1558,-19"/>
<text text-anchor="middle" x="1489.5" y="-7" font-family="Courier,monospace" font-size="10.00">VectorTimeDerivative</text>
</a>
</g>
</g>
<!-- Node35&#45;&gt;Node36 -->
<g id="edge35" class="edge">
<title>Node35&#45;&gt;Node36</title>
<path fill="none" stroke="#63b8ff" d="M1363.57,-9.5C1382.06,-9.5 1402.12,-9.5 1420.65,-9.5"/>
<polygon fill="#63b8ff" stroke="#63b8ff" points="1363.81,-6 1353.81,-9.5 1363.81,-13 1363.81,-6"/>
</g>
</g>
</svg>
        <g id="navigator" transform="translate(0 0)" fill="#404254">
                <rect fill="#f2f5e9" fill-opacity="0.5" stroke="#606060" stroke-width=".5" x="0" y="0" width="60" height="60"/>
                <use id="zoomplus" xlink:href="#zoomPlus" x="17" y="9" onmousedown="handleZoom(evt,'in')"/>
                <use id="zoomminus" xlink:href="#zoomMin" x="42" y="9" onmousedown="handleZoom(evt,'out')"/>
                <use id="reset" xlink:href="#resetDef" x="30" y="36" onmousedown="handleReset()"/>
                <g id="arrowUp" xlink:href="#dirArrow" transform="translate(30 24)" onmousedown="handlePan(0,-1)">
                  <use xlink:href="#rim" fill="#404040">
                        <set attributeName="fill" to="#808080" begin="arrowUp.mouseover" end="arrowUp.mouseout"/>
                  </use>
                  <path fill="none" stroke="white" stroke-width="1.5" d="M0,-3.0v7 M-2.5,-0.5L0,-3.0L2.5,-0.5"/>
                </g>
                <g id="arrowRight" xlink:href="#dirArrow" transform="rotate(90) translate(36 -43)" onmousedown="handlePan(1,0)">
                  <use xlink:href="#rim" fill="#404040">
                        <set attributeName="fill" to="#808080" begin="arrowRight.mouseover" end="arrowRight.mouseout"/>
                  </use>
                  <path fill="none" stroke="white" stroke-width="1.5" d="M0,-3.0v7 M-2.5,-0.5L0,-3.0L2.5,-0.5"/>
                </g>
                <g id="arrowDown" xlink:href="#dirArrow" transform="rotate(180) translate(-30 -48)" onmousedown="handlePan(0,1)">
                  <use xlink:href="#rim" fill="#404040">
                        <set attributeName="fill" to="#808080" begin="arrowDown.mouseover" end="arrowDown.mouseout"/>
                  </use>
                  <path fill="none" stroke="white" stroke-width="1.5" d="M0,-3.0v7 M-2.5,-0.5L0,-3.0L2.5,-0.5"/>
                </g>
                <g id="arrowLeft" xlink:href="#dirArrow" transform="rotate(270) translate(-36 17)" onmousedown="handlePan(-1,0)">
                  <use xlink:href="#rim" fill="#404040">
                        <set attributeName="fill" to="#808080" begin="arrowLeft.mouseover" end="arrowLeft.mouseout"/>
                  </use>
                  <path fill="none" stroke="white" stroke-width="1.5" d="M0,-3.0v7 M-2.5,-0.5L0,-3.0L2.5,-0.5"/>
                </g>
        </g>
        <svg viewBox="0 0 15 15" width="100%" height="30px" preserveAspectRatio="xMaxYMin meet">
         <g id="arrow_out" transform="scale(0.3 0.3)">
          <a xlink:href="classVectorKernel__inherit__graph_org.svg" target="_base">
           <rect id="button" ry="5" rx="5" y="6" x="6" height="38" width="38"
                fill="#f2f5e9" fill-opacity="0.5" stroke="#606060" stroke-width="1.0"/>
           <path id="arrow"
             d="M 11.500037,31.436501 C 11.940474,20.09759 22.043105,11.32322 32.158766,21.979434 L 37.068811,17.246167 C 37.068811,17.246167 37.088388,32 37.088388,32 L 22.160133,31.978069 C 22.160133,31.978069 26.997745,27.140456 26.997745,27.140456 C 18.528582,18.264221 13.291696,25.230495 11.500037,31.436501 z"
             style="fill:#404040;"/>
          </a>
         </g>
        </svg>
</svg>
