<?xml version="1.0" encoding="UTF-8" standalone="no"?>
<!DOCTYPE svg PUBLIC "-//W3C//DTD SVG 1.1//EN"
 "http://www.w3.org/Graphics/SVG/1.1/DTD/svg11.dtd">
<!-- Generated by graphviz version 7.0.5 (20221223.1930)
 -->
<!-- Title: PseudoTimestep Pages: 1 -->
<!--zoomable 702 -->
<svg id="main" version="1.1" xmlns="http://www.w3.org/2000/svg" xmlns:xlink="http://www.w3.org/1999/xlink" xml:space="preserve" onload="init(evt)">
<style type="text/css"><![CDATA[
.edge:hover path { stroke: red; }
.edge:hover polygon { stroke: red; fill: red; }
]]></style>
<script type="text/javascript"><![CDATA[
var edges = document.getElementsByTagName('g');
if (edges && edges.length) {
  for (var i=0;i<edges.length;i++) {
    if (edges[i].id.substr(0,4)=='edge') {
      edges[i].setAttribute('class','edge');
    }
  }
}
]]></script>
        <defs>
                <circle id="rim" cx="0" cy="0" r="7"/>
                <circle id="rim2" cx="0" cy="0" r="3.5"/>
                <g id="zoomPlus">
                        <use xlink:href="#rim" fill="#404040">
                                <set attributeName="fill" to="#808080" begin="zoomplus.mouseover" end="zoomplus.mouseout"/>
                        </use>
                        <path d="M-4,0h8M0,-4v8" fill="none" stroke="white" stroke-width="1.5" pointer-events="none"/>
                </g>
                <g id="zoomMin">
                        <use xlink:href="#rim" fill="#404040">
                                <set attributeName="fill" to="#808080" begin="zoomminus.mouseover" end="zoomminus.mouseout"/>
                        </use>
                        <path d="M-4,0h8" fill="none" stroke="white" stroke-width="1.5" pointer-events="none"/>
                </g>
                <g id="dirArrow">
                        <path fill="none" stroke="white" stroke-width="1.5" d="M0,-3.0v7 M-2.5,-0.5L0,-3.0L2.5,-0.5"/>
                </g>
               <g id="resetDef">
                       <use xlink:href="#rim2" fill="#404040">
                               <set attributeName="fill" to="#808080" begin="reset.mouseover" end="reset.mouseout"/>
                       </use>
               </g>
        </defs>

<script type="text/javascript">
var viewWidth = 1261;
var viewHeight = 702;
var sectionId = 'dynsection-0';
</script>
<script xlink:href="svgpan.js"/>
<svg id="graph" class="graph">
<g id="viewport">
<title>PseudoTimestep</title>
<!-- Node1 -->
<g id="node1" class="node">
<title>Node1</title>
<g id="a_node1"><a xlink:title="Computes a time step size based on pseudo&#45;timestep continuation.">
<polygon fill="#999999" stroke="#666666" points="1253,-117.5 1152,-117.5 1152,-98.5 1253,-98.5 1253,-117.5"/>
<text text-anchor="middle" x="1202.5" y="-105.5" font-family="Courier,monospace" font-size="10.00">PseudoTimestep</text>
</a>
</g>
</g>
<!-- Node2 -->
<g id="node2" class="node">
<title>Node2</title>
<g id="a_node2"><a xlink:href="classGeneralPostprocessor.html" target="_top" xlink:title="This class is here to combine the Postprocessor interface and the base class Postprocessor object alo...">
<polygon fill="white" stroke="#666666" points="1116,-117.5 979,-117.5 979,-98.5 1116,-98.5 1116,-117.5"/>
<text text-anchor="middle" x="1047.5" y="-105.5" font-family="Courier,monospace" font-size="10.00">GeneralPostprocessor</text>
</a>
</g>
</g>
<!-- Node2&#45;&gt;Node1 -->
<g id="edge1" class="edge">
<title>Node2&#45;&gt;Node1</title>
<path fill="none" stroke="#63b8ff" d="M1127.9,-108C1135.96,-108 1143.99,-108 1151.61,-108"/>
<polygon fill="#63b8ff" stroke="#63b8ff" points="1128.01,-104.5 1118.01,-108 1128.01,-111.5 1128.01,-104.5"/>
</g>
<!-- Node3 -->
<g id="node3" class="node">
<title>Node3</title>
<g id="a_node3"><a xlink:href="classGeneralUserObject.html" target="_top" xlink:title=" ">
<polygon fill="white" stroke="#666666" points="943,-154.5 824,-154.5 824,-135.5 943,-135.5 943,-154.5"/>
<text text-anchor="middle" x="883.5" y="-142.5" font-family="Courier,monospace" font-size="10.00">GeneralUserObject</text>
</a>
</g>
</g>
<!-- Node3&#45;&gt;Node2 -->
<g id="edge2" class="edge">
<title>Node3&#45;&gt;Node2</title>
<path fill="none" stroke="#63b8ff" d="M938.87,-132.58C959.73,-127.82 983.25,-122.45 1002.97,-117.94"/>
<polygon fill="#63b8ff" stroke="#63b8ff" points="938.36,-129.11 929.39,-134.75 939.92,-135.93 938.36,-129.11"/>
</g>
<!-- Node4 -->
<g id="node4" class="node">
<title>Node4</title>
<g id="a_node4"><a xlink:href="classUserObject.html" target="_top" xlink:title="Base class for user&#45;specific data.">
<polygon fill="white" stroke="#666666" points="743,-341.5 666,-341.5 666,-322.5 743,-322.5 743,-341.5"/>
<text text-anchor="middle" x="704.5" y="-329.5" font-family="Courier,monospace" font-size="10.00">UserObject</text>
</a>
</g>
</g>
<!-- Node4&#45;&gt;Node3 -->
<g id="edge3" class="edge">
<title>Node4&#45;&gt;Node3</title>
<path fill="none" stroke="#63b8ff" d="M722.63,-313.9C759.46,-274.99 845.13,-184.48 873.32,-154.69"/>
<polygon fill="#63b8ff" stroke="#63b8ff" points="720.14,-311.44 715.81,-321.11 725.22,-316.25 720.14,-311.44"/>
</g>
<!-- Node5 -->
<g id="node5" class="node">
<title>Node5</title>
<g id="a_node5"><a xlink:href="classMooseObject.html" target="_top" xlink:title="Every object that can be built by the factory should be derived from this class.">
<polygon fill="white" stroke="#666666" points="534,-619.5 451,-619.5 451,-600.5 534,-600.5 534,-619.5"/>
<text text-anchor="middle" x="492.5" y="-607.5" font-family="Courier,monospace" font-size="10.00">MooseObject</text>
</a>
</g>
</g>
<!-- Node5&#45;&gt;Node4 -->
<g id="edge4" class="edge">
<title>Node5&#45;&gt;Node4</title>
<path fill="none" stroke="#63b8ff" d="M545.38,-608.36C559.39,-605.76 573.77,-600.87 585,-592 670.63,-524.34 696.6,-380.95 702.21,-341.96"/>
<polygon fill="#63b8ff" stroke="#63b8ff" points="545.16,-604.86 535.78,-609.77 546.18,-611.78 545.16,-604.86"/>
</g>
<!-- Node6 -->
<g id="node6" class="node">
<title>Node6</title>
<g id="a_node6"><a xlink:href="classMooseBase.html" target="_top" xlink:title="Base class for everything in MOOSE with a name and a type.">
<polygon fill="white" stroke="#666666" points="310,-693.5 239,-693.5 239,-674.5 310,-674.5 310,-693.5"/>
<text text-anchor="middle" x="274.5" y="-681.5" font-family="Courier,monospace" font-size="10.00">MooseBase</text>
</a>
</g>
</g>
<!-- Node6&#45;&gt;Node5 -->
<g id="edge5" class="edge">
<title>Node6&#45;&gt;Node5</title>
<path fill="none" stroke="#63b8ff" d="M321.62,-676.55C335.41,-673.81 350.46,-670.3 364,-666 403.87,-653.35 448.08,-632.22 472.56,-619.85"/>
<polygon fill="#63b8ff" stroke="#63b8ff" points="321.06,-673.09 311.89,-678.39 322.36,-679.97 321.06,-673.09"/>
</g>
<!-- Node7 -->
<g id="node7" class="node">
<title>Node7</title>
<g id="a_node7"><a xlink:href="classMooseBaseParameterInterface.html" target="_top" xlink:title="Every object that can be built by the factory should be derived from this class.">
<polygon fill="white" stroke="#666666" points="364,-656.5 185,-656.5 185,-637.5 364,-637.5 364,-656.5"/>
<text text-anchor="middle" x="274.5" y="-644.5" font-family="Courier,monospace" font-size="10.00">MooseBaseParameterInterface</text>
</a>
</g>
</g>
<!-- Node7&#45;&gt;Node5 -->
<g id="edge6" class="edge">
<title>Node7&#45;&gt;Node5</title>
<path fill="none" stroke="#63b8ff" d="M344.77,-635.13C379.7,-629.15 420.85,-622.1 450.68,-616.99"/>
<polygon fill="#63b8ff" stroke="#63b8ff" points="344.43,-631.64 335.16,-636.78 345.61,-638.54 344.43,-631.64"/>
</g>
<!-- Node8 -->
<g id="node8" class="node">
<title>Node8</title>
<g id="a_node8"><a xlink:href="classMooseBaseErrorInterface.html" target="_top" xlink:title="Interface that provides APIs to output errors/warnings/info messages.">
<polygon fill="white" stroke="#666666" points="352,-619.5 197,-619.5 197,-600.5 352,-600.5 352,-619.5"/>
<text text-anchor="middle" x="274.5" y="-607.5" font-family="Courier,monospace" font-size="10.00">MooseBaseErrorInterface</text>
</a>
</g>
</g>
<!-- Node8&#45;&gt;Node5 -->
<g id="edge7" class="edge">
<title>Node8&#45;&gt;Node5</title>
<path fill="none" stroke="#63b8ff" d="M363.7,-610C393.87,-610 426.17,-610 450.75,-610"/>
<polygon fill="#63b8ff" stroke="#63b8ff" points="363.78,-606.5 353.78,-610 363.78,-613.5 363.78,-606.5"/>
</g>
<!-- Node9 -->
<g id="node9" class="node">
<title>Node9</title>
<g id="a_node9"><a xlink:href="classConsoleStreamInterface.html" target="_top" xlink:title="An inteface for the _console for outputting to the Console object.">
<polygon fill="white" stroke="#666666" points="149,-619.5 0,-619.5 0,-600.5 149,-600.5 149,-619.5"/>
<text text-anchor="middle" x="74.5" y="-607.5" font-family="Courier,monospace" font-size="10.00">ConsoleStreamInterface</text>
</a>
</g>
</g>
<!-- Node9&#45;&gt;Node8 -->
<g id="edge8" class="edge">
<title>Node9&#45;&gt;Node8</title>
<path fill="none" stroke="#63b8ff" d="M160.62,-610C172.62,-610 184.9,-610 196.73,-610"/>
<polygon fill="#63b8ff" stroke="#63b8ff" points="160.74,-606.5 150.74,-610 160.74,-613.5 160.74,-606.5"/>
</g>
<!-- Node10 -->
<g id="node10" class="node">
<title>Node10</title>
<g id="a_node10"><a xlink:title=" ">
<polygon fill="white" stroke="#666666" points="352,-582.5 197,-582.5 197,-563.5 352,-563.5 352,-582.5"/>
<text text-anchor="middle" x="274.5" y="-570.5" font-family="Courier,monospace" font-size="10.00">libMesh::ParallelObject</text>
</a>
</g>
</g>
<!-- Node10&#45;&gt;Node5 -->
<g id="edge9" class="edge">
<title>Node10&#45;&gt;Node5</title>
<path fill="none" stroke="#63b8ff" d="M344.77,-584.87C379.7,-590.85 420.85,-597.9 450.68,-603.01"/>
<polygon fill="#63b8ff" stroke="#63b8ff" points="345.61,-581.46 335.16,-583.22 344.43,-588.36 345.61,-581.46"/>
</g>
<!-- Node11 -->
<g id="node11" class="node">
<title>Node11</title>
<g id="a_node11"><a xlink:href="classDataFileInterface.html" target="_top" xlink:title=" ">
<polygon fill="white" stroke="#666666" points="337,-545 212,-545 212,-515 337,-515 337,-545"/>
<text text-anchor="start" x="220" y="-533" font-family="Courier,monospace" font-size="10.00">DataFileInterface&lt;</text>
<text text-anchor="middle" x="274.5" y="-522" font-family="Courier,monospace" font-size="10.00"> MooseObject &gt;</text>
</a>
</g>
</g>
<!-- Node11&#45;&gt;Node5 -->
<g id="edge10" class="edge">
<title>Node11&#45;&gt;Node5</title>
<path fill="none" stroke="#63b8ff" d="M347.62,-546.85C353.32,-549.23 358.86,-551.94 364,-555 383.71,-566.74 379.83,-581.07 400,-592 415.37,-600.33 434.06,-604.84 450.53,-607.26"/>
<polygon fill="#63b8ff" stroke="#63b8ff" points="349.23,-543.72 338.64,-543.44 346.74,-550.26 349.23,-543.72"/>
</g>
<!-- Node12 -->
<g id="node12" class="node">
<title>Node12</title>
<g id="a_node12"><a xlink:href="classSetupInterface.html" target="_top" xlink:title=" ">
<polygon fill="white" stroke="#666666" points="543,-582.5 442,-582.5 442,-563.5 543,-563.5 543,-582.5"/>
<text text-anchor="middle" x="492.5" y="-570.5" font-family="Courier,monospace" font-size="10.00">SetupInterface</text>
</a>
</g>
</g>
<!-- Node12&#45;&gt;Node4 -->
<g id="edge11" class="edge">
<title>Node12&#45;&gt;Node4</title>
<path fill="none" stroke="#63b8ff" d="M554.28,-568.87C565.25,-566.03 576.03,-561.66 585,-555 661.76,-498.05 693.72,-376.38 701.52,-341.52"/>
<polygon fill="#63b8ff" stroke="#63b8ff" points="553.84,-565.39 544.79,-570.91 555.31,-572.23 553.84,-565.39"/>
</g>
<!-- Node13 -->
<g id="node13" class="node">
<title>Node13</title>
<g id="a_node13"><a xlink:href="classFunctionInterface.html" target="_top" xlink:title="Interface for objects that need to use functions.">
<polygon fill="white" stroke="#666666" points="552,-545.5 433,-545.5 433,-526.5 552,-526.5 552,-545.5"/>
<text text-anchor="middle" x="492.5" y="-533.5" font-family="Courier,monospace" font-size="10.00">FunctionInterface</text>
</a>
</g>
</g>
<!-- Node13&#45;&gt;Node4 -->
<g id="edge12" class="edge">
<title>Node13&#45;&gt;Node4</title>
<path fill="none" stroke="darkgreen" d="M563.4,-528.49C571.07,-525.88 578.46,-522.47 585,-518 652.68,-471.81 690.01,-372.87 700.44,-341.65"/>
<polygon fill="darkgreen" stroke="darkgreen" points="562.53,-525.1 553.89,-531.23 564.47,-531.82 562.53,-525.1"/>
</g>
<!-- Node14 -->
<g id="node14" class="node">
<title>Node14</title>
<g id="a_node14"><a xlink:href="classUserObjectInterface.html" target="_top" xlink:title="Interface for objects that need to use UserObjects.">
<polygon fill="white" stroke="#666666" points="558,-508.5 427,-508.5 427,-489.5 558,-489.5 558,-508.5"/>
<text text-anchor="middle" x="492.5" y="-496.5" font-family="Courier,monospace" font-size="10.00">UserObjectInterface</text>
</a>
</g>
</g>
<!-- Node14&#45;&gt;Node4 -->
<g id="edge13" class="edge">
<title>Node14&#45;&gt;Node4</title>
<path fill="none" stroke="#63b8ff" d="M569.07,-488.67C574.65,-486.56 580.03,-484.03 585,-481 643.73,-445.27 685.25,-369.24 698.76,-341.98"/>
<polygon fill="#63b8ff" stroke="#63b8ff" points="568.01,-485.33 559.6,-491.78 570.19,-491.99 568.01,-485.33"/>
</g>
<!-- Node15 -->
<g id="node15" class="node">
<title>Node15</title>
<g id="a_node15"><a xlink:href="classPostprocessorInterface.html" target="_top" xlink:title="Interface class for classes which interact with Postprocessors.">
<polygon fill="white" stroke="#666666" points="567,-471.5 418,-471.5 418,-452.5 567,-452.5 567,-471.5"/>
<text text-anchor="middle" x="492.5" y="-459.5" font-family="Courier,monospace" font-size="10.00">PostprocessorInterface</text>
</a>
</g>
</g>
<!-- Node15&#45;&gt;Node4 -->
<g id="edge14" class="edge">
<title>Node15&#45;&gt;Node4</title>
<path fill="none" stroke="darkgreen" d="M575.47,-448.34C578.74,-447.02 581.93,-445.58 585,-444 635.58,-417.94 679.79,-363.76 696.45,-341.68"/>
<polygon fill="darkgreen" stroke="darkgreen" points="574.47,-444.98 566.22,-451.62 576.81,-451.57 574.47,-444.98"/>
</g>
<!-- Node16 -->
<g id="node16" class="node">
<title>Node16</title>
<g id="a_node16"><a xlink:href="classVectorPostprocessorInterface.html" target="_top" xlink:title=" ">
<polygon fill="white" stroke="#666666" points="585,-434.5 400,-434.5 400,-415.5 585,-415.5 585,-434.5"/>
<text text-anchor="middle" x="492.5" y="-422.5" font-family="Courier,monospace" font-size="10.00">VectorPostprocessorInterface</text>
</a>
</g>
</g>
<!-- Node16&#45;&gt;Node4 -->
<g id="edge15" class="edge">
<title>Node16&#45;&gt;Node4</title>
<path fill="none" stroke="darkgreen" d="M570.39,-412.07C575.39,-410.55 580.3,-408.87 585,-407 627.07,-390.23 670.56,-358.24 691.2,-342"/>
<polygon fill="darkgreen" stroke="darkgreen" points="569.51,-408.68 560.79,-414.71 571.36,-415.43 569.51,-408.68"/>
</g>
<!-- Node17 -->
<g id="node17" class="node">
<title>Node17</title>
<g id="a_node17"><a xlink:href="classReporterInterface.html" target="_top" xlink:title="Interface to allow object to consume Reporter values.">
<polygon fill="white" stroke="#666666" points="552,-397.5 433,-397.5 433,-378.5 552,-378.5 552,-397.5"/>
<text text-anchor="middle" x="492.5" y="-385.5" font-family="Courier,monospace" font-size="10.00">ReporterInterface</text>
</a>
</g>
</g>
<!-- Node17&#45;&gt;Node4 -->
<g id="edge16" class="edge">
<title>Node17&#45;&gt;Node4</title>
<path fill="none" stroke="darkgreen" d="M560.57,-375.74C568.83,-373.95 577.13,-372.03 585,-370 616.38,-361.91 651.67,-350.25 675.52,-341.99"/>
<polygon fill="darkgreen" stroke="darkgreen" points="559.93,-372.3 550.86,-377.77 561.36,-379.15 559.93,-372.3"/>
</g>
<!-- Node18 -->
<g id="node18" class="node">
<title>Node18</title>
<g id="a_node18"><a xlink:href="classDistributionInterface.html" target="_top" xlink:title="Interface for objects that need to use distributions.">
<polygon fill="white" stroke="#666666" points="564,-360.5 421,-360.5 421,-341.5 564,-341.5 564,-360.5"/>
<text text-anchor="middle" x="492.5" y="-348.5" font-family="Courier,monospace" font-size="10.00">DistributionInterface</text>
</a>
</g>
</g>
<!-- Node18&#45;&gt;Node4 -->
<g id="edge17" class="edge">
<title>Node18&#45;&gt;Node4</title>
<path fill="none" stroke="darkgreen" d="M575.61,-343.57C606.7,-340.76 640.61,-337.69 665.69,-335.42"/>
<polygon fill="darkgreen" stroke="darkgreen" points="575.45,-340.07 565.81,-344.46 576.09,-347.04 575.45,-340.07"/>
</g>
<!-- Node19 -->
<g id="node19" class="node">
<title>Node19</title>
<g id="a_node19"><a xlink:href="classSamplerInterface.html" target="_top" xlink:title="Interface for objects that need to use samplers.">
<polygon fill="white" stroke="#666666" points="549,-323.5 436,-323.5 436,-304.5 549,-304.5 549,-323.5"/>
<text text-anchor="middle" x="492.5" y="-311.5" font-family="Courier,monospace" font-size="10.00">SamplerInterface</text>
</a>
</g>
</g>
<!-- Node19&#45;&gt;Node4 -->
<g id="edge18" class="edge">
<title>Node19&#45;&gt;Node4</title>
<path fill="none" stroke="darkgreen" d="M560.29,-319.72C595.13,-322.71 636.48,-326.26 665.77,-328.77"/>
<polygon fill="darkgreen" stroke="darkgreen" points="561,-316.27 550.73,-318.91 560.4,-323.25 561,-316.27"/>
</g>
<!-- Node20 -->
<g id="node20" class="node">
<title>Node20</title>
<g id="a_node20"><a xlink:href="classRestartable.html" target="_top" xlink:title="A class for creating restricted objects.">
<polygon fill="white" stroke="#666666" points="534,-286.5 451,-286.5 451,-267.5 534,-267.5 534,-286.5"/>
<text text-anchor="middle" x="492.5" y="-274.5" font-family="Courier,monospace" font-size="10.00">Restartable</text>
</a>
</g>
</g>
<!-- Node20&#45;&gt;Node4 -->
<g id="edge19" class="edge">
<title>Node20&#45;&gt;Node4</title>
<path fill="none" stroke="darkgreen" d="M545.36,-286.92C558.36,-289.64 572.23,-292.74 585,-296 615.42,-303.76 649.68,-314.38 673.51,-322.07"/>
<polygon fill="darkgreen" stroke="darkgreen" points="546.2,-283.52 535.7,-284.94 544.8,-290.38 546.2,-283.52"/>
</g>
<!-- Node21 -->
<g id="node21" class="node">
<title>Node21</title>
<g id="a_node21"><a xlink:href="classMeshMetaDataInterface.html" target="_top" xlink:title="The Interface used to retrieve mesh meta data (attributes) set by the MeshGenerator system.">
<polygon fill="white" stroke="#666666" points="564,-249.5 421,-249.5 421,-230.5 564,-230.5 564,-249.5"/>
<text text-anchor="middle" x="492.5" y="-237.5" font-family="Courier,monospace" font-size="10.00">MeshMetaDataInterface</text>
</a>
</g>
</g>
<!-- Node21&#45;&gt;Node4 -->
<g id="edge20" class="edge">
<title>Node21&#45;&gt;Node4</title>
<path fill="none" stroke="darkgreen" d="M566.56,-252.76C572.88,-254.59 579.11,-256.66 585,-259 626.54,-275.52 669.93,-306.28 690.8,-322.08"/>
<polygon fill="darkgreen" stroke="darkgreen" points="567.91,-249.5 557.34,-250.3 566.11,-256.26 567.91,-249.5"/>
</g>
<!-- Node22 -->
<g id="node22" class="node">
<title>Node22</title>
<g id="a_node22"><a xlink:href="classMeshChangedInterface.html" target="_top" xlink:title="Interface for notifications that the mesh has changed.">
<polygon fill="white" stroke="#666666" points="561,-212.5 424,-212.5 424,-193.5 561,-193.5 561,-212.5"/>
<text text-anchor="middle" x="492.5" y="-200.5" font-family="Courier,monospace" font-size="10.00">MeshChangedInterface</text>
</a>
</g>
</g>
<!-- Node22&#45;&gt;Node4 -->
<g id="edge21" class="edge">
<title>Node22&#45;&gt;Node4</title>
<path fill="none" stroke="darkgreen" d="M572.03,-216.29C576.51,-217.97 580.86,-219.87 585,-222 634.89,-247.75 679.15,-300.4 696.13,-322.21"/>
<polygon fill="darkgreen" stroke="darkgreen" points="573.44,-213.07 562.84,-213.22 571.22,-219.71 573.44,-213.07"/>
</g>
<!-- Node23 -->
<g id="node23" class="node">
<title>Node23</title>
<g id="a_node23"><a xlink:href="classScalarCoupleable.html" target="_top" xlink:title="Interface for objects that needs scalar coupling capabilities.">
<polygon fill="white" stroke="#666666" points="549,-175.5 436,-175.5 436,-156.5 549,-156.5 549,-175.5"/>
<text text-anchor="middle" x="492.5" y="-163.5" font-family="Courier,monospace" font-size="10.00">ScalarCoupleable</text>
</a>
</g>
</g>
<!-- Node23&#45;&gt;Node4 -->
<g id="edge22" class="edge">
<title>Node23&#45;&gt;Node4</title>
<path fill="none" stroke="darkgreen" d="M560.14,-174.16C568.87,-176.84 577.41,-180.36 585,-185 643.18,-220.55 685.05,-295.38 698.7,-322.18"/>
<polygon fill="darkgreen" stroke="darkgreen" points="561.06,-170.79 550.49,-171.6 559.26,-177.55 561.06,-170.79"/>
</g>
<!-- Node24 -->
<g id="node24" class="node">
<title>Node24</title>
<g id="a_node24"><a xlink:href="classPerfGraphInterface.html" target="_top" xlink:title="Interface for objects interacting with the PerfGraph.">
<polygon fill="white" stroke="#666666" points="555,-138.5 430,-138.5 430,-119.5 555,-119.5 555,-138.5"/>
<text text-anchor="middle" x="492.5" y="-126.5" font-family="Courier,monospace" font-size="10.00">PerfGraphInterface</text>
</a>
</g>
</g>
<!-- Node24&#45;&gt;Node4 -->
<g id="edge23" class="edge">
<title>Node24&#45;&gt;Node4</title>
<path fill="none" stroke="darkgreen" d="M566.03,-138.32C572.75,-140.85 579.21,-144.02 585,-148 593.59,-153.9 674.57,-284.95 697.48,-322.21"/>
<polygon fill="darkgreen" stroke="darkgreen" points="567.33,-135.06 556.74,-135.31 565.18,-141.72 567.33,-135.06"/>
</g>
<!-- Node25 -->
<g id="node25" class="node">
<title>Node25</title>
<g id="a_node25"><a xlink:href="classDependencyResolverInterface.html" target="_top" xlink:title="Interface for sorting dependent vectors of objects.">
<polygon fill="white" stroke="#666666" points="582,-101.5 403,-101.5 403,-82.5 582,-82.5 582,-101.5"/>
<text text-anchor="middle" x="492.5" y="-89.5" font-family="Courier,monospace" font-size="10.00">DependencyResolverInterface</text>
</a>
</g>
</g>
<!-- Node25&#45;&gt;Node4 -->
<g id="edge24" class="edge">
<title>Node25&#45;&gt;Node4</title>
<path fill="none" stroke="#63b8ff" d="M580.31,-107.49C581.93,-108.59 583.49,-109.76 585,-111 616.97,-137.36 602.14,-160.1 621,-197 645.88,-245.67 681.93,-300.25 696.75,-322.14"/>
<polygon fill="#63b8ff" stroke="#63b8ff" points="582.28,-104.59 571.86,-102.7 578.83,-110.68 582.28,-104.59"/>
</g>
<!-- Node26 -->
<g id="node26" class="node">
<title>Node26</title>
<g id="a_node26"><a xlink:href="classMaterialPropertyInterface.html" target="_top" xlink:title="An interface for accessing Materials.">
<polygon fill="white" stroke="#666666" points="788,-187.5 621,-187.5 621,-168.5 788,-168.5 788,-187.5"/>
<text text-anchor="middle" x="704.5" y="-175.5" font-family="Courier,monospace" font-size="10.00">MaterialPropertyInterface</text>
</a>
</g>
</g>
<!-- Node26&#45;&gt;Node3 -->
<g id="edge25" class="edge">
<title>Node26&#45;&gt;Node3</title>
<path fill="none" stroke="#63b8ff" d="M770.25,-165.93C789.59,-162.32 810.57,-158.41 829.1,-154.96"/>
<polygon fill="#63b8ff" stroke="#63b8ff" points="769.76,-162.46 760.57,-167.73 771.05,-169.34 769.76,-162.46"/>
</g>
<!-- Node27 -->
<g id="node27" class="node">
<title>Node27</title>
<g id="a_node27"><a xlink:href="classTransientInterface.html" target="_top" xlink:title="Interface for objects that needs transient capabilities.">
<polygon fill="white" stroke="#666666" points="767,-150.5 642,-150.5 642,-131.5 767,-131.5 767,-150.5"/>
<text text-anchor="middle" x="704.5" y="-138.5" font-family="Courier,monospace" font-size="10.00">TransientInterface</text>
</a>
</g>
</g>
<!-- Node27&#45;&gt;Node3 -->
<g id="edge26" class="edge">
<title>Node27&#45;&gt;Node3</title>
<path fill="none" stroke="#63b8ff" d="M778.7,-142.65C793.66,-142.99 809.22,-143.34 823.6,-143.67"/>
<polygon fill="#63b8ff" stroke="#63b8ff" points="779,-139.16 768.92,-142.43 778.84,-146.16 779,-139.16"/>
</g>
<!-- Node28 -->
<g id="node28" class="node">
<title>Node28</title>
<g id="a_node28"><a xlink:href="classPostprocessor.html" target="_top" xlink:title="Base class for all Postprocessors.">
<polygon fill="white" stroke="#666666" points="931,-99.5 836,-99.5 836,-80.5 931,-80.5 931,-99.5"/>
<text text-anchor="middle" x="883.5" y="-87.5" font-family="Courier,monospace" font-size="10.00">Postprocessor</text>
</a>
</g>
</g>
<!-- Node28&#45;&gt;Node2 -->
<g id="edge27" class="edge">
<title>Node28&#45;&gt;Node2</title>
<path fill="none" stroke="#63b8ff" d="M942.74,-96.47C954.39,-97.77 966.72,-99.14 978.66,-100.46"/>
<polygon fill="#63b8ff" stroke="#63b8ff" points="943.19,-93 932.86,-95.37 942.41,-99.96 943.19,-93"/>
</g>
<!-- Node29 -->
<g id="node29" class="node">
<title>Node29</title>
<g id="a_node29"><a xlink:href="classOutputInterface.html" target="_top" xlink:title="A class to provide an common interface to objects requiring &quot;outputs&quot; option.">
<polygon fill="white" stroke="#666666" points="758,-104.5 651,-104.5 651,-85.5 758,-85.5 758,-104.5"/>
<text text-anchor="middle" x="704.5" y="-92.5" font-family="Courier,monospace" font-size="10.00">OutputInterface</text>
</a>
</g>
</g>
<!-- Node29&#45;&gt;Node28 -->
<g id="edge28" class="edge">
<title>Node29&#45;&gt;Node28</title>
<path fill="none" stroke="#63b8ff" d="M769.37,-93.2C791.32,-92.58 815.46,-91.89 835.79,-91.32"/>
<polygon fill="#63b8ff" stroke="#63b8ff" points="769.54,-89.69 759.64,-93.47 769.73,-96.69 769.54,-89.69"/>
</g>
<!-- Node30 -->
<g id="node30" class="node">
<title>Node30</title>
<g id="a_node30"><a xlink:href="classNonADFunctorInterface.html" target="_top" xlink:title="An interface for accessing Moose::Functors for systems that do not care about automatic differentiati...">
<polygon fill="white" stroke="#666666" points="776,-67.5 633,-67.5 633,-48.5 776,-48.5 776,-67.5"/>
<text text-anchor="middle" x="704.5" y="-55.5" font-family="Courier,monospace" font-size="10.00">NonADFunctorInterface</text>
</a>
</g>
</g>
<!-- Node30&#45;&gt;Node28 -->
<g id="edge29" class="edge">
<title>Node30&#45;&gt;Node28</title>
<path fill="none" stroke="#63b8ff" d="M771.76,-69.98C792.98,-73.82 816.02,-77.98 835.56,-81.51"/>
<polygon fill="#63b8ff" stroke="#63b8ff" points="772.49,-66.55 762.02,-68.22 771.24,-73.44 772.49,-66.55"/>
</g>
<!-- Node31 -->
<g id="node31" class="node">
<title>Node31</title>
<g id="a_node31"><a xlink:href="classFunctorInterface.html" target="_top" xlink:title="An interface for accessing Moose::Functors.">
<polygon fill="white" stroke="#666666" points="549,-64.5 436,-64.5 436,-45.5 549,-45.5 549,-64.5"/>
<text text-anchor="middle" x="492.5" y="-52.5" font-family="Courier,monospace" font-size="10.00">FunctorInterface</text>
</a>
</g>
</g>
<!-- Node31&#45;&gt;Node30 -->
<g id="edge30" class="edge">
<title>Node31&#45;&gt;Node30</title>
<path fill="none" stroke="#63b8ff" d="M560.63,-55.96C583.67,-56.29 609.51,-56.66 632.82,-56.99"/>
<polygon fill="#63b8ff" stroke="#63b8ff" points="560.79,-52.46 550.74,-55.82 560.69,-59.46 560.79,-52.46"/>
</g>
<!-- Node32 -->
<g id="node32" class="node">
<title>Node32</title>
<g id="a_node32"><a xlink:href="classMoose_1_1FunctorBase.html" target="_top" xlink:title=" ">
<polygon fill="white" stroke="#666666" points="767,-30 642,-30 642,0 767,0 767,-30"/>
<text text-anchor="start" x="650" y="-18" font-family="Courier,monospace" font-size="10.00">Moose::FunctorBase</text>
<text text-anchor="middle" x="704.5" y="-7" font-family="Courier,monospace" font-size="10.00">&lt; Real &gt;</text>
</a>
</g>
</g>
<!-- Node32&#45;&gt;Node28 -->
<g id="edge31" class="edge">
<title>Node32&#45;&gt;Node28</title>
<path fill="none" stroke="#63b8ff" d="M774.78,-33.97C779.29,-35.57 783.73,-37.25 788,-39 816.81,-50.81 848.25,-68.91 866.62,-80.08"/>
<polygon fill="#63b8ff" stroke="#63b8ff" points="776.2,-30.76 765.61,-30.88 773.96,-37.39 776.2,-30.76"/>
</g>
<!-- Node33 -->
<g id="node33" class="node">
<title>Node33</title>
<g id="a_node33"><a xlink:href="classMoose_1_1FunctorAbstract.html" target="_top" xlink:title="Abstract base class that can be used to hold collections of functors.">
<polygon fill="white" stroke="#666666" points="567,-24.5 418,-24.5 418,-5.5 567,-5.5 567,-24.5"/>
<text text-anchor="middle" x="492.5" y="-12.5" font-family="Courier,monospace" font-size="10.00">Moose::FunctorAbstract</text>
</a>
</g>
</g>
<!-- Node33&#45;&gt;Node32 -->
<g id="edge32" class="edge">
<title>Node33&#45;&gt;Node32</title>
<path fill="none" stroke="#63b8ff" d="M578.52,-15C599.68,-15 621.96,-15 641.75,-15"/>
<polygon fill="#63b8ff" stroke="#63b8ff" points="578.76,-11.5 568.76,-15 578.76,-18.5 578.76,-11.5"/>
</g>
<!-- Node34 -->
<g id="node34" class="node">
<title>Node34</title>
<g id="a_node34"><a xlink:href="classFaceArgInterface.html" target="_top" xlink:title="A base class interface for both producers and consumers of functor face arguments,...">
<polygon fill="white" stroke="#666666" points="331,-24.5 218,-24.5 218,-5.5 331,-5.5 331,-24.5"/>
<text text-anchor="middle" x="274.5" y="-12.5" font-family="Courier,monospace" font-size="10.00">FaceArgInterface</text>
</a>
</g>
</g>
<!-- Node34&#45;&gt;Node33 -->
<g id="edge33" class="edge">
<title>Node34&#45;&gt;Node33</title>
<path fill="none" stroke="#63b8ff" d="M342.78,-15C366.49,-15 393.27,-15 417.51,-15"/>
<polygon fill="#63b8ff" stroke="#63b8ff" points="342.92,-11.5 332.92,-15 342.92,-18.5 342.92,-11.5"/>
</g>
</g>
</svg>
        <g id="navigator" transform="translate(0 0)" fill="#404254">
                <rect fill="#f2f5e9" fill-opacity="0.5" stroke="#606060" stroke-width=".5" x="0" y="0" width="60" height="60"/>
                <use id="zoomplus" xlink:href="#zoomPlus" x="17" y="9" onmousedown="handleZoom(evt,'in')"/>
                <use id="zoomminus" xlink:href="#zoomMin" x="42" y="9" onmousedown="handleZoom(evt,'out')"/>
                <use id="reset" xlink:href="#resetDef" x="30" y="36" onmousedown="handleReset()"/>
                <g id="arrowUp" xlink:href="#dirArrow" transform="translate(30 24)" onmousedown="handlePan(0,-1)">
                  <use xlink:href="#rim" fill="#404040">
                        <set attributeName="fill" to="#808080" begin="arrowUp.mouseover" end="arrowUp.mouseout"/>
                  </use>
                  <path fill="none" stroke="white" stroke-width="1.5" d="M0,-3.0v7 M-2.5,-0.5L0,-3.0L2.5,-0.5"/>
                </g>
                <g id="arrowRight" xlink:href="#dirArrow" transform="rotate(90) translate(36 -43)" onmousedown="handlePan(1,0)">
                  <use xlink:href="#rim" fill="#404040">
                        <set attributeName="fill" to="#808080" begin="arrowRight.mouseover" end="arrowRight.mouseout"/>
                  </use>
                  <path fill="none" stroke="white" stroke-width="1.5" d="M0,-3.0v7 M-2.5,-0.5L0,-3.0L2.5,-0.5"/>
                </g>
                <g id="arrowDown" xlink:href="#dirArrow" transform="rotate(180) translate(-30 -48)" onmousedown="handlePan(0,1)">
                  <use xlink:href="#rim" fill="#404040">
                        <set attributeName="fill" to="#808080" begin="arrowDown.mouseover" end="arrowDown.mouseout"/>
                  </use>
                  <path fill="none" stroke="white" stroke-width="1.5" d="M0,-3.0v7 M-2.5,-0.5L0,-3.0L2.5,-0.5"/>
                </g>
                <g id="arrowLeft" xlink:href="#dirArrow" transform="rotate(270) translate(-36 17)" onmousedown="handlePan(-1,0)">
                  <use xlink:href="#rim" fill="#404040">
                        <set attributeName="fill" to="#808080" begin="arrowLeft.mouseover" end="arrowLeft.mouseout"/>
                  </use>
                  <path fill="none" stroke="white" stroke-width="1.5" d="M0,-3.0v7 M-2.5,-0.5L0,-3.0L2.5,-0.5"/>
                </g>
        </g>
        <svg viewBox="0 0 15 15" width="100%" height="30px" preserveAspectRatio="xMaxYMin meet">
         <g id="arrow_out" transform="scale(0.3 0.3)">
          <a xlink:href="classPseudoTimestep__inherit__graph_org.svg" target="_base">
           <rect id="button" ry="5" rx="5" y="6" x="6" height="38" width="38"
                fill="#f2f5e9" fill-opacity="0.5" stroke="#606060" stroke-width="1.0"/>
           <path id="arrow"
             d="M 11.500037,31.436501 C 11.940474,20.09759 22.043105,11.32322 32.158766,21.979434 L 37.068811,17.246167 C 37.068811,17.246167 37.088388,32 37.088388,32 L 22.160133,31.978069 C 22.160133,31.978069 26.997745,27.140456 26.997745,27.140456 C 18.528582,18.264221 13.291696,25.230495 11.500037,31.436501 z"
             style="fill:#404040;"/>
          </a>
         </g>
        </svg>
</svg>
