<?xml version="1.0" encoding="UTF-8" standalone="no"?>
<!DOCTYPE svg PUBLIC "-//W3C//DTD SVG 1.1//EN"
 "http://www.w3.org/Graphics/SVG/1.1/DTD/svg11.dtd">
<!-- Generated by graphviz version 7.0.5 (20221223.1930)
 -->
<!-- Title: CheckFVBCAction Pages: 1 -->
<svg width="604pt" height="261pt"
 viewBox="0.00 0.00 604.00 260.50" xmlns="http://www.w3.org/2000/svg" xmlns:xlink="http://www.w3.org/1999/xlink">
<g id="graph0" class="graph" transform="scale(1 1) rotate(0) translate(4 256.5)">
<title>CheckFVBCAction</title>
<!-- Node1 -->
<g id="node1" class="node">
<title>Node1</title>
<g id="a_node1"><a xlink:title=" ">
<polygon fill="#999999" stroke="#666666" points="596,-141.5 489,-141.5 489,-122.5 596,-122.5 596,-141.5"/>
<text text-anchor="middle" x="542.5" y="-129.5" font-family="Courier,monospace" font-size="10.00">CheckFVBCAction</text>
</a>
</g>
</g>
<!-- Node2 -->
<g id="node2" class="node">
<title>Node2</title>
<g id="a_node2"><a xlink:href="classAction.html" target="_top" xlink:title="Base class for actions.">
<polygon fill="white" stroke="#666666" points="453,-141.5 400,-141.5 400,-122.5 453,-122.5 453,-141.5"/>
<text text-anchor="middle" x="426.5" y="-129.5" font-family="Courier,monospace" font-size="10.00">Action</text>
</a>
</g>
</g>
<!-- Node2&#45;&gt;Node1 -->
<g id="edge1" class="edge">
<title>Node2&#45;&gt;Node1</title>
<path fill="none" stroke="#63b8ff" d="M464.84,-132C472.48,-132 480.65,-132 488.71,-132"/>
<polygon fill="#63b8ff" stroke="#63b8ff" points="464.88,-128.5 454.88,-132 464.88,-135.5 464.88,-128.5"/>
</g>
<!-- Node3 -->
<g id="node3" class="node">
<title>Node3</title>
<g id="a_node3"><a xlink:href="classMooseBase.html" target="_top" xlink:title="Base class for everything in MOOSE with a name and a type.">
<polygon fill="white" stroke="#666666" points="310,-252.5 239,-252.5 239,-233.5 310,-233.5 310,-252.5"/>
<text text-anchor="middle" x="274.5" y="-240.5" font-family="Courier,monospace" font-size="10.00">MooseBase</text>
</a>
</g>
</g>
<!-- Node3&#45;&gt;Node2 -->
<g id="edge2" class="edge">
<title>Node3&#45;&gt;Node2</title>
<path fill="none" stroke="#63b8ff" d="M321.61,-240.52C336.13,-238 351.59,-233.37 364,-225 395.29,-203.89 414.59,-160.98 422.02,-141.73"/>
<polygon fill="#63b8ff" stroke="#63b8ff" points="321.17,-237.05 311.75,-241.91 322.14,-243.98 321.17,-237.05"/>
</g>
<!-- Node4 -->
<g id="node4" class="node">
<title>Node4</title>
<g id="a_node4"><a xlink:href="classMooseBaseParameterInterface.html" target="_top" xlink:title="Every object that can be built by the factory should be derived from this class.">
<polygon fill="white" stroke="#666666" points="364,-215.5 185,-215.5 185,-196.5 364,-196.5 364,-215.5"/>
<text text-anchor="middle" x="274.5" y="-203.5" font-family="Courier,monospace" font-size="10.00">MooseBaseParameterInterface</text>
</a>
</g>
</g>
<!-- Node4&#45;&gt;Node2 -->
<g id="edge3" class="edge">
<title>Node4&#45;&gt;Node2</title>
<path fill="none" stroke="#63b8ff" d="M354.32,-192.34C357.64,-191.02 360.88,-189.58 364,-188 386.66,-176.5 407.23,-154.34 417.88,-141.62"/>
<polygon fill="#63b8ff" stroke="#63b8ff" points="353.19,-189.03 344.9,-195.63 355.49,-195.63 353.19,-189.03"/>
</g>
<!-- Node5 -->
<g id="node5" class="node">
<title>Node5</title>
<g id="a_node5"><a xlink:href="classMooseBaseErrorInterface.html" target="_top" xlink:title="Interface that provides APIs to output errors/warnings/info messages.">
<polygon fill="white" stroke="#666666" points="352,-178.5 197,-178.5 197,-159.5 352,-159.5 352,-178.5"/>
<text text-anchor="middle" x="274.5" y="-166.5" font-family="Courier,monospace" font-size="10.00">MooseBaseErrorInterface</text>
</a>
</g>
</g>
<!-- Node5&#45;&gt;Node2 -->
<g id="edge4" class="edge">
<title>Node5&#45;&gt;Node2</title>
<path fill="none" stroke="#63b8ff" d="M335.78,-156.68C345.25,-154.56 354.91,-152.3 364,-150 375.75,-147.02 388.65,-143.32 399.58,-140.04"/>
<polygon fill="#63b8ff" stroke="#63b8ff" points="335.3,-153.2 326.28,-158.76 336.8,-160.04 335.3,-153.2"/>
</g>
<!-- Node6 -->
<g id="node6" class="node">
<title>Node6</title>
<g id="a_node6"><a xlink:href="classConsoleStreamInterface.html" target="_top" xlink:title="An inteface for the _console for outputting to the Console object.">
<polygon fill="white" stroke="#666666" points="149,-178.5 0,-178.5 0,-159.5 149,-159.5 149,-178.5"/>
<text text-anchor="middle" x="74.5" y="-166.5" font-family="Courier,monospace" font-size="10.00">ConsoleStreamInterface</text>
</a>
</g>
</g>
<!-- Node6&#45;&gt;Node5 -->
<g id="edge5" class="edge">
<title>Node6&#45;&gt;Node5</title>
<path fill="none" stroke="#63b8ff" d="M160.62,-169C172.62,-169 184.9,-169 196.73,-169"/>
<polygon fill="#63b8ff" stroke="#63b8ff" points="160.74,-165.5 150.74,-169 160.74,-172.5 160.74,-165.5"/>
</g>
<!-- Node7 -->
<g id="node7" class="node">
<title>Node7</title>
<g id="a_node7"><a xlink:href="classMeshMetaDataInterface.html" target="_top" xlink:title="The Interface used to retrieve mesh meta data (attributes) set by the MeshGenerator system.">
<polygon fill="white" stroke="#666666" points="346,-141.5 203,-141.5 203,-122.5 346,-122.5 346,-141.5"/>
<text text-anchor="middle" x="274.5" y="-129.5" font-family="Courier,monospace" font-size="10.00">MeshMetaDataInterface</text>
</a>
</g>
</g>
<!-- Node7&#45;&gt;Node2 -->
<g id="edge6" class="edge">
<title>Node7&#45;&gt;Node2</title>
<path fill="none" stroke="#63b8ff" d="M357.33,-132C372.71,-132 387.7,-132 399.69,-132"/>
<polygon fill="#63b8ff" stroke="#63b8ff" points="357.62,-128.5 347.62,-132 357.62,-135.5 357.62,-128.5"/>
</g>
<!-- Node8 -->
<g id="node8" class="node">
<title>Node8</title>
<g id="a_node8"><a xlink:href="classPerfGraphInterface.html" target="_top" xlink:title="Interface for objects interacting with the PerfGraph.">
<polygon fill="white" stroke="#666666" points="337,-104.5 212,-104.5 212,-85.5 337,-85.5 337,-104.5"/>
<text text-anchor="middle" x="274.5" y="-92.5" font-family="Courier,monospace" font-size="10.00">PerfGraphInterface</text>
</a>
</g>
</g>
<!-- Node8&#45;&gt;Node2 -->
<g id="edge7" class="edge">
<title>Node8&#45;&gt;Node2</title>
<path fill="none" stroke="#63b8ff" d="M339.69,-107.27C347.9,-109.07 356.17,-111 364,-113 375.8,-116.02 388.7,-119.91 399.63,-123.38"/>
<polygon fill="#63b8ff" stroke="#63b8ff" points="340.57,-103.88 330.06,-105.22 339.11,-110.73 340.57,-103.88"/>
</g>
<!-- Node9 -->
<g id="node9" class="node">
<title>Node9</title>
<g id="a_node9"><a xlink:title=" ">
<polygon fill="white" stroke="#666666" points="352,-67.5 197,-67.5 197,-48.5 352,-48.5 352,-67.5"/>
<text text-anchor="middle" x="274.5" y="-55.5" font-family="Courier,monospace" font-size="10.00">libMesh::ParallelObject</text>
</a>
</g>
</g>
<!-- Node9&#45;&gt;Node2 -->
<g id="edge8" class="edge">
<title>Node9&#45;&gt;Node2</title>
<path fill="none" stroke="#63b8ff" d="M354.32,-71.66C357.64,-72.98 360.88,-74.42 364,-76 386.66,-87.5 407.23,-109.66 417.88,-122.38"/>
<polygon fill="#63b8ff" stroke="#63b8ff" points="355.49,-68.37 344.9,-68.37 353.19,-74.97 355.49,-68.37"/>
</g>
<!-- Node10 -->
<g id="node10" class="node">
<title>Node10</title>
<g id="a_node10"><a xlink:href="classDataFileInterface.html" target="_top" xlink:title=" ">
<polygon fill="white" stroke="#666666" points="337,-30 212,-30 212,0 337,0 337,-30"/>
<text text-anchor="start" x="220" y="-18" font-family="Courier,monospace" font-size="10.00">DataFileInterface&lt;</text>
<text text-anchor="middle" x="274.5" y="-7" font-family="Courier,monospace" font-size="10.00"> Action &gt;</text>
</a>
</g>
</g>
<!-- Node10&#45;&gt;Node2 -->
<g id="edge9" class="edge">
<title>Node10&#45;&gt;Node2</title>
<path fill="none" stroke="#63b8ff" d="M347.73,-29.71C353.49,-32.32 359,-35.39 364,-39 394.44,-60.99 414.06,-103.06 421.78,-122.15"/>
<polygon fill="#63b8ff" stroke="#63b8ff" points="349.15,-26.51 338.56,-26.06 346.56,-33.01 349.15,-26.51"/>
</g>
</g>
</svg>
