<?xml version="1.0" encoding="UTF-8" standalone="no"?>
<!DOCTYPE svg PUBLIC "-//W3C//DTD SVG 1.1//EN"
 "http://www.w3.org/Graphics/SVG/1.1/DTD/svg11.dtd">
<!-- Generated by graphviz version 7.0.5 (20221223.1930)
 -->
<!-- Title: ArrayKernel Pages: 1 -->
<svg width="1548pt" height="644pt"
 viewBox="0.00 0.00 1548.00 644.00" xmlns="http://www.w3.org/2000/svg" xmlns:xlink="http://www.w3.org/1999/xlink">
<g id="graph0" class="graph" transform="scale(1 1) rotate(0) translate(4 640)">
<title>ArrayKernel</title>
<!-- Node1 -->
<g id="node1" class="node">
<title>Node1</title>
<g id="a_node1"><a xlink:title=" ">
<polygon fill="#999999" stroke="#666666" points="1164,-93 1081,-93 1081,-74 1164,-74 1164,-93"/>
<text text-anchor="middle" x="1122.5" y="-81" font-family="Courier,monospace" font-size="10.00">ArrayKernel</text>
</a>
</g>
</g>
<!-- Node30 -->
<g id="node30" class="node">
<title>Node30</title>
<g id="a_node30"><a xlink:href="classArrayBodyForce.html" target="_top" xlink:title=" ">
<polygon fill="white" stroke="#666666" points="1337,-167 1236,-167 1236,-148 1337,-148 1337,-167"/>
<text text-anchor="middle" x="1286.5" y="-155" font-family="Courier,monospace" font-size="10.00">ArrayBodyForce</text>
</a>
</g>
</g>
<!-- Node1&#45;&gt;Node30 -->
<g id="edge29" class="edge">
<title>Node1&#45;&gt;Node30</title>
<path fill="none" stroke="#63b8ff" d="M1142.58,-101.06C1157.23,-113.62 1178.55,-129.93 1200,-139.5 1211.08,-144.44 1223.59,-148.06 1235.54,-150.69"/>
<polygon fill="#63b8ff" stroke="#63b8ff" points="1144.92,-98.46 1135.1,-94.47 1140.28,-103.71 1144.92,-98.46"/>
</g>
<!-- Node31 -->
<g id="node31" class="node">
<title>Node31</title>
<g id="a_node31"><a xlink:href="classArrayCoupledTimeDerivative.html" target="_top" xlink:title="This calculates the time derivative for a coupled variable.">
<polygon fill="white" stroke="#666666" points="1373,-130 1200,-130 1200,-111 1373,-111 1373,-130"/>
<text text-anchor="middle" x="1286.5" y="-118" font-family="Courier,monospace" font-size="10.00">ArrayCoupledTimeDerivative</text>
</a>
</g>
</g>
<!-- Node1&#45;&gt;Node31 -->
<g id="edge30" class="edge">
<title>Node1&#45;&gt;Node31</title>
<path fill="none" stroke="#63b8ff" d="M1173.36,-96.16C1182.22,-98.33 1191.37,-100.52 1200,-102.5 1211.83,-105.21 1224.61,-107.99 1236.6,-110.52"/>
<polygon fill="#63b8ff" stroke="#63b8ff" points="1174.37,-92.8 1163.82,-93.8 1172.69,-99.6 1174.37,-92.8"/>
</g>
<!-- Node32 -->
<g id="node32" class="node">
<title>Node32</title>
<g id="a_node32"><a xlink:href="classArrayDiffusion.html" target="_top" xlink:title=" ">
<polygon fill="white" stroke="#666666" points="1337,-93 1236,-93 1236,-74 1337,-74 1337,-93"/>
<text text-anchor="middle" x="1286.5" y="-81" font-family="Courier,monospace" font-size="10.00">ArrayDiffusion</text>
</a>
</g>
</g>
<!-- Node1&#45;&gt;Node32 -->
<g id="edge31" class="edge">
<title>Node1&#45;&gt;Node32</title>
<path fill="none" stroke="#63b8ff" d="M1175.68,-83.5C1194.91,-83.5 1216.64,-83.5 1235.66,-83.5"/>
<polygon fill="#63b8ff" stroke="#63b8ff" points="1175.89,-80 1165.89,-83.5 1175.89,-87 1175.89,-80"/>
</g>
<!-- Node33 -->
<g id="node33" class="node">
<title>Node33</title>
<g id="a_node33"><a xlink:href="classArrayReaction.html" target="_top" xlink:title=" ">
<polygon fill="white" stroke="#666666" points="1334,-56 1239,-56 1239,-37 1334,-37 1334,-56"/>
<text text-anchor="middle" x="1286.5" y="-44" font-family="Courier,monospace" font-size="10.00">ArrayReaction</text>
</a>
</g>
</g>
<!-- Node1&#45;&gt;Node33 -->
<g id="edge32" class="edge">
<title>Node1&#45;&gt;Node33</title>
<path fill="none" stroke="#63b8ff" d="M1173.36,-70.84C1182.22,-68.67 1191.37,-66.48 1200,-64.5 1212.57,-61.62 1226.22,-58.66 1238.84,-56.01"/>
<polygon fill="#63b8ff" stroke="#63b8ff" points="1172.69,-67.4 1163.82,-73.2 1174.37,-74.2 1172.69,-67.4"/>
</g>
<!-- Node34 -->
<g id="node34" class="node">
<title>Node34</title>
<g id="a_node34"><a xlink:href="classArrayTimeKernel.html" target="_top" xlink:title="All array time kernels should inherit from this class.">
<polygon fill="white" stroke="#666666" points="1340,-19 1233,-19 1233,0 1340,0 1340,-19"/>
<text text-anchor="middle" x="1286.5" y="-7" font-family="Courier,monospace" font-size="10.00">ArrayTimeKernel</text>
</a>
</g>
</g>
<!-- Node1&#45;&gt;Node34 -->
<g id="edge33" class="edge">
<title>Node1&#45;&gt;Node34</title>
<path fill="none" stroke="#63b8ff" d="M1142.58,-65.94C1157.23,-53.38 1178.55,-37.07 1200,-27.5 1210.25,-22.93 1221.72,-19.49 1232.85,-16.92"/>
<polygon fill="#63b8ff" stroke="#63b8ff" points="1140.28,-63.29 1135.1,-72.53 1144.92,-68.54 1140.28,-63.29"/>
</g>
<!-- Node2 -->
<g id="node2" class="node">
<title>Node2</title>
<g id="a_node2"><a xlink:href="classKernelBase.html" target="_top" xlink:title="This is the common base class for the three main kernel types implemented in MOOSE,...">
<polygon fill="white" stroke="#666666" points="1009,-115 932,-115 932,-96 1009,-96 1009,-115"/>
<text text-anchor="middle" x="970.5" y="-103" font-family="Courier,monospace" font-size="10.00">KernelBase</text>
</a>
</g>
</g>
<!-- Node2&#45;&gt;Node1 -->
<g id="edge1" class="edge">
<title>Node2&#45;&gt;Node1</title>
<path fill="none" stroke="#63b8ff" d="M1020.48,-98.32C1039.98,-95.46 1062.16,-92.2 1080.77,-89.47"/>
<polygon fill="#63b8ff" stroke="#63b8ff" points="1020.24,-94.81 1010.85,-99.73 1021.25,-101.74 1020.24,-94.81"/>
</g>
<!-- Node3 -->
<g id="node3" class="node">
<title>Node3</title>
<g id="a_node3"><a xlink:href="classResidualObject.html" target="_top" xlink:title="This is the common base class for objects that give residual contributions.">
<polygon fill="white" stroke="#666666" points="803,-358 702,-358 702,-339 803,-339 803,-358"/>
<text text-anchor="middle" x="752.5" y="-346" font-family="Courier,monospace" font-size="10.00">ResidualObject</text>
</a>
</g>
</g>
<!-- Node3&#45;&gt;Node2 -->
<g id="edge2" class="edge">
<title>Node3&#45;&gt;Node2</title>
<path fill="none" stroke="#63b8ff" d="M769.81,-330.15C812.75,-281.84 927.84,-152.36 960.66,-115.45"/>
<polygon fill="#63b8ff" stroke="#63b8ff" points="767.27,-327.74 763.24,-337.54 772.5,-332.39 767.27,-327.74"/>
</g>
<!-- Node4 -->
<g id="node4" class="node">
<title>Node4</title>
<g id="a_node4"><a xlink:href="classMooseObject.html" target="_top" xlink:title="Every object that can be built by the factory should be derived from this class.">
<polygon fill="white" stroke="#666666" points="546,-562 463,-562 463,-543 546,-543 546,-562"/>
<text text-anchor="middle" x="504.5" y="-550" font-family="Courier,monospace" font-size="10.00">MooseObject</text>
</a>
</g>
</g>
<!-- Node4&#45;&gt;Node3 -->
<g id="edge3" class="edge">
<title>Node4&#45;&gt;Node3</title>
<path fill="none" stroke="#63b8ff" d="M557.63,-550.98C574.95,-548.57 593.71,-543.76 609,-534.5 683.46,-489.4 733.01,-389.73 747.26,-358.23"/>
<polygon fill="#63b8ff" stroke="#63b8ff" points="557.54,-547.46 548,-552.07 558.33,-554.42 557.54,-547.46"/>
</g>
<!-- Node5 -->
<g id="node5" class="node">
<title>Node5</title>
<g id="a_node5"><a xlink:href="classMooseBase.html" target="_top" xlink:title="Base class for everything in MOOSE with a name and a type.">
<polygon fill="white" stroke="#666666" points="310,-636 239,-636 239,-617 310,-617 310,-636"/>
<text text-anchor="middle" x="274.5" y="-624" font-family="Courier,monospace" font-size="10.00">MooseBase</text>
</a>
</g>
</g>
<!-- Node5&#45;&gt;Node4 -->
<g id="edge4" class="edge">
<title>Node5&#45;&gt;Node4</title>
<path fill="none" stroke="#63b8ff" d="M321.54,-618.78C335.32,-616.03 350.39,-612.58 364,-608.5 407,-595.61 455.19,-574.76 482.19,-562.47"/>
<polygon fill="#63b8ff" stroke="#63b8ff" points="320.97,-615.32 311.81,-620.64 322.29,-622.2 320.97,-615.32"/>
</g>
<!-- Node6 -->
<g id="node6" class="node">
<title>Node6</title>
<g id="a_node6"><a xlink:href="classMooseBaseParameterInterface.html" target="_top" xlink:title="Every object that can be built by the factory should be derived from this class.">
<polygon fill="white" stroke="#666666" points="364,-599 185,-599 185,-580 364,-580 364,-599"/>
<text text-anchor="middle" x="274.5" y="-587" font-family="Courier,monospace" font-size="10.00">MooseBaseParameterInterface</text>
</a>
</g>
</g>
<!-- Node6&#45;&gt;Node4 -->
<g id="edge5" class="edge">
<title>Node6&#45;&gt;Node4</title>
<path fill="none" stroke="#63b8ff" d="M347.88,-577.75C385.73,-571.61 430.68,-564.32 462.51,-559.15"/>
<polygon fill="#63b8ff" stroke="#63b8ff" points="347.7,-574.24 338.39,-579.29 348.83,-581.15 347.7,-574.24"/>
</g>
<!-- Node7 -->
<g id="node7" class="node">
<title>Node7</title>
<g id="a_node7"><a xlink:href="classMooseBaseErrorInterface.html" target="_top" xlink:title="Interface that provides APIs to output errors/warnings/info messages.">
<polygon fill="white" stroke="#666666" points="352,-562 197,-562 197,-543 352,-543 352,-562"/>
<text text-anchor="middle" x="274.5" y="-550" font-family="Courier,monospace" font-size="10.00">MooseBaseErrorInterface</text>
</a>
</g>
</g>
<!-- Node7&#45;&gt;Node4 -->
<g id="edge6" class="edge">
<title>Node7&#45;&gt;Node4</title>
<path fill="none" stroke="#63b8ff" d="M363.8,-552.5C397.92,-552.5 435.28,-552.5 462.77,-552.5"/>
<polygon fill="#63b8ff" stroke="#63b8ff" points="363.89,-549 353.89,-552.5 363.89,-556 363.89,-549"/>
</g>
<!-- Node8 -->
<g id="node8" class="node">
<title>Node8</title>
<g id="a_node8"><a xlink:href="classConsoleStreamInterface.html" target="_top" xlink:title="An inteface for the _console for outputting to the Console object.">
<polygon fill="white" stroke="#666666" points="149,-562 0,-562 0,-543 149,-543 149,-562"/>
<text text-anchor="middle" x="74.5" y="-550" font-family="Courier,monospace" font-size="10.00">ConsoleStreamInterface</text>
</a>
</g>
</g>
<!-- Node8&#45;&gt;Node7 -->
<g id="edge7" class="edge">
<title>Node8&#45;&gt;Node7</title>
<path fill="none" stroke="#63b8ff" d="M160.62,-552.5C172.62,-552.5 184.9,-552.5 196.73,-552.5"/>
<polygon fill="#63b8ff" stroke="#63b8ff" points="160.74,-549 150.74,-552.5 160.74,-556 160.74,-549"/>
</g>
<!-- Node9 -->
<g id="node9" class="node">
<title>Node9</title>
<g id="a_node9"><a xlink:title=" ">
<polygon fill="white" stroke="#666666" points="352,-525 197,-525 197,-506 352,-506 352,-525"/>
<text text-anchor="middle" x="274.5" y="-513" font-family="Courier,monospace" font-size="10.00">libMesh::ParallelObject</text>
</a>
</g>
</g>
<!-- Node9&#45;&gt;Node4 -->
<g id="edge8" class="edge">
<title>Node9&#45;&gt;Node4</title>
<path fill="none" stroke="#63b8ff" d="M347.88,-527.25C385.73,-533.39 430.68,-540.68 462.51,-545.85"/>
<polygon fill="#63b8ff" stroke="#63b8ff" points="348.83,-523.85 338.39,-525.71 347.7,-530.76 348.83,-523.85"/>
</g>
<!-- Node10 -->
<g id="node10" class="node">
<title>Node10</title>
<g id="a_node10"><a xlink:href="classDataFileInterface.html" target="_top" xlink:title=" ">
<polygon fill="white" stroke="#666666" points="337,-487.5 212,-487.5 212,-457.5 337,-457.5 337,-487.5"/>
<text text-anchor="start" x="220" y="-475.5" font-family="Courier,monospace" font-size="10.00">DataFileInterface&lt;</text>
<text text-anchor="middle" x="274.5" y="-464.5" font-family="Courier,monospace" font-size="10.00"> MooseObject &gt;</text>
</a>
</g>
</g>
<!-- Node10&#45;&gt;Node4 -->
<g id="edge9" class="edge">
<title>Node10&#45;&gt;Node4</title>
<path fill="none" stroke="#63b8ff" d="M347.62,-489.35C353.32,-491.73 358.86,-494.44 364,-497.5 383.71,-509.24 379.71,-523.79 400,-534.5 419.11,-544.59 442.71,-549.19 462.54,-551.23"/>
<polygon fill="#63b8ff" stroke="#63b8ff" points="349.23,-486.22 338.64,-485.94 346.74,-492.76 349.23,-486.22"/>
</g>
<!-- Node11 -->
<g id="node11" class="node">
<title>Node11</title>
<g id="a_node11"><a xlink:href="classSetupInterface.html" target="_top" xlink:title=" ">
<polygon fill="white" stroke="#666666" points="555,-525 454,-525 454,-506 555,-506 555,-525"/>
<text text-anchor="middle" x="504.5" y="-513" font-family="Courier,monospace" font-size="10.00">SetupInterface</text>
</a>
</g>
</g>
<!-- Node11&#45;&gt;Node3 -->
<g id="edge10" class="edge">
<title>Node11&#45;&gt;Node3</title>
<path fill="none" stroke="#63b8ff" d="M566.26,-511.5C580.86,-508.79 595.98,-504.44 609,-497.5 675.01,-462.3 728.22,-385.26 745.53,-358.16"/>
<polygon fill="#63b8ff" stroke="#63b8ff" points="566.06,-507.99 556.74,-513.02 567.16,-514.9 566.06,-507.99"/>
</g>
<!-- Node12 -->
<g id="node12" class="node">
<title>Node12</title>
<g id="a_node12"><a xlink:href="classFunctionInterface.html" target="_top" xlink:title="Interface for objects that need to use functions.">
<polygon fill="white" stroke="#666666" points="564,-488 445,-488 445,-469 564,-469 564,-488"/>
<text text-anchor="middle" x="504.5" y="-476" font-family="Courier,monospace" font-size="10.00">FunctionInterface</text>
</a>
</g>
</g>
<!-- Node12&#45;&gt;Node3 -->
<g id="edge11" class="edge">
<title>Node12&#45;&gt;Node3</title>
<path fill="none" stroke="#63b8ff" d="M575.44,-471.2C586.94,-468.63 598.52,-465.17 609,-460.5 666.77,-434.76 721.67,-380.39 742.59,-358.22"/>
<polygon fill="#63b8ff" stroke="#63b8ff" points="575.07,-467.7 565.96,-473.09 576.45,-474.56 575.07,-467.7"/>
</g>
<!-- Node13 -->
<g id="node13" class="node">
<title>Node13</title>
<g id="a_node13"><a xlink:href="classUserObjectInterface.html" target="_top" xlink:title="Interface for objects that need to use UserObjects.">
<polygon fill="white" stroke="#666666" points="570,-451 439,-451 439,-432 570,-432 570,-451"/>
<text text-anchor="middle" x="504.5" y="-439" font-family="Courier,monospace" font-size="10.00">UserObjectInterface</text>
</a>
</g>
</g>
<!-- Node13&#45;&gt;Node3 -->
<g id="edge12" class="edge">
<title>Node13&#45;&gt;Node3</title>
<path fill="none" stroke="#63b8ff" d="M581.36,-431.13C590.78,-429.02 600.19,-426.5 609,-423.5 658.22,-406.73 711.14,-374.74 736.4,-358.49"/>
<polygon fill="#63b8ff" stroke="#63b8ff" points="580.89,-427.66 571.81,-433.12 582.31,-434.51 580.89,-427.66"/>
</g>
<!-- Node14 -->
<g id="node14" class="node">
<title>Node14</title>
<g id="a_node14"><a xlink:href="classTransientInterface.html" target="_top" xlink:title="Interface for objects that needs transient capabilities.">
<polygon fill="white" stroke="#666666" points="567,-414 442,-414 442,-395 567,-395 567,-414"/>
<text text-anchor="middle" x="504.5" y="-402" font-family="Courier,monospace" font-size="10.00">TransientInterface</text>
</a>
</g>
</g>
<!-- Node14&#45;&gt;Node3 -->
<g id="edge13" class="edge">
<title>Node14&#45;&gt;Node3</title>
<path fill="none" stroke="#63b8ff" d="M578.35,-392.67C588.67,-390.75 599.12,-388.67 609,-386.5 646.39,-378.28 688.7,-366.7 717.44,-358.49"/>
<polygon fill="#63b8ff" stroke="#63b8ff" points="577.95,-389.18 568.73,-394.41 579.2,-396.07 577.95,-389.18"/>
</g>
<!-- Node15 -->
<g id="node15" class="node">
<title>Node15</title>
<g id="a_node15"><a xlink:href="classPostprocessorInterface.html" target="_top" xlink:title="Interface class for classes which interact with Postprocessors.">
<polygon fill="white" stroke="#666666" points="579,-377 430,-377 430,-358 579,-358 579,-377"/>
<text text-anchor="middle" x="504.5" y="-365" font-family="Courier,monospace" font-size="10.00">PostprocessorInterface</text>
</a>
</g>
</g>
<!-- Node15&#45;&gt;Node3 -->
<g id="edge14" class="edge">
<title>Node15&#45;&gt;Node3</title>
<path fill="none" stroke="#63b8ff" d="M590.61,-360.93C627.61,-358.07 669.67,-354.82 701.51,-352.36"/>
<polygon fill="#63b8ff" stroke="#63b8ff" points="590.52,-357.42 580.82,-361.68 591.06,-364.4 590.52,-357.42"/>
</g>
<!-- Node16 -->
<g id="node16" class="node">
<title>Node16</title>
<g id="a_node16"><a xlink:href="classVectorPostprocessorInterface.html" target="_top" xlink:title=" ">
<polygon fill="white" stroke="#666666" points="597,-340 412,-340 412,-321 597,-321 597,-340"/>
<text text-anchor="middle" x="504.5" y="-328" font-family="Courier,monospace" font-size="10.00">VectorPostprocessorInterface</text>
</a>
</g>
</g>
<!-- Node16&#45;&gt;Node3 -->
<g id="edge15" class="edge">
<title>Node16&#45;&gt;Node3</title>
<path fill="none" stroke="#63b8ff" d="M608.74,-338.05C640.92,-340.41 674.96,-342.9 701.72,-344.86"/>
<polygon fill="#63b8ff" stroke="#63b8ff" points="609.19,-334.58 598.96,-337.34 608.68,-341.56 609.19,-334.58"/>
</g>
<!-- Node17 -->
<g id="node17" class="node">
<title>Node17</title>
<g id="a_node17"><a xlink:href="classRandomInterface.html" target="_top" xlink:title="Interface for objects that need parallel consistent random numbers without patterns over the course o...">
<polygon fill="white" stroke="#666666" points="558,-303 451,-303 451,-284 558,-284 558,-303"/>
<text text-anchor="middle" x="504.5" y="-291" font-family="Courier,monospace" font-size="10.00">RandomInterface</text>
</a>
</g>
</g>
<!-- Node17&#45;&gt;Node3 -->
<g id="edge16" class="edge">
<title>Node17&#45;&gt;Node3</title>
<path fill="none" stroke="#63b8ff" d="M569.59,-304.58C582.66,-307.04 596.3,-309.73 609,-312.5 645.15,-320.38 686.07,-330.88 714.75,-338.51"/>
<polygon fill="#63b8ff" stroke="#63b8ff" points="570.24,-301.15 559.78,-302.77 568.97,-308.03 570.24,-301.15"/>
</g>
<!-- Node18 -->
<g id="node18" class="node">
<title>Node18</title>
<g id="a_node18"><a xlink:href="classRestartable.html" target="_top" xlink:title="A class for creating restricted objects.">
<polygon fill="white" stroke="#666666" points="546,-266 463,-266 463,-247 546,-247 546,-266"/>
<text text-anchor="middle" x="504.5" y="-254" font-family="Courier,monospace" font-size="10.00">Restartable</text>
</a>
</g>
</g>
<!-- Node18&#45;&gt;Node3 -->
<g id="edge17" class="edge">
<title>Node18&#45;&gt;Node3</title>
<path fill="none" stroke="#63b8ff" d="M557.29,-262.96C574.05,-265.86 592.56,-269.91 609,-275.5 657.69,-292.04 710.43,-322.8 735.93,-338.59"/>
<polygon fill="#63b8ff" stroke="#63b8ff" points="557.93,-259.52 547.5,-261.38 556.81,-266.43 557.93,-259.52"/>
</g>
<!-- Node19 -->
<g id="node19" class="node">
<title>Node19</title>
<g id="a_node19"><a xlink:href="classMeshChangedInterface.html" target="_top" xlink:title="Interface for notifications that the mesh has changed.">
<polygon fill="white" stroke="#666666" points="573,-229 436,-229 436,-210 573,-210 573,-229"/>
<text text-anchor="middle" x="504.5" y="-217" font-family="Courier,monospace" font-size="10.00">MeshChangedInterface</text>
</a>
</g>
</g>
<!-- Node19&#45;&gt;Node3 -->
<g id="edge18" class="edge">
<title>Node19&#45;&gt;Node3</title>
<path fill="none" stroke="#63b8ff" d="M584.55,-229.93C592.98,-232.24 601.29,-235.06 609,-238.5 666.09,-263.96 720.95,-316.78 742.22,-338.67"/>
<polygon fill="#63b8ff" stroke="#63b8ff" points="585.45,-226.55 574.91,-227.55 583.77,-233.35 585.45,-226.55"/>
</g>
<!-- Node20 -->
<g id="node20" class="node">
<title>Node20</title>
<g id="a_node20"><a xlink:href="classTaggingInterface.html" target="_top" xlink:title=" ">
<polygon fill="white" stroke="#666666" points="561,-192 448,-192 448,-173 561,-173 561,-192"/>
<text text-anchor="middle" x="504.5" y="-180" font-family="Courier,monospace" font-size="10.00">TaggingInterface</text>
</a>
</g>
</g>
<!-- Node20&#45;&gt;Node3 -->
<g id="edge19" class="edge">
<title>Node20&#45;&gt;Node3</title>
<path fill="none" stroke="#63b8ff" d="M572.37,-188.51C585.02,-191.36 597.79,-195.5 609,-201.5 674.19,-236.38 727.52,-311.62 745.22,-338.61"/>
<polygon fill="#63b8ff" stroke="#63b8ff" points="573.3,-185.13 562.81,-186.62 571.94,-191.99 573.3,-185.13"/>
</g>
<!-- Node21 -->
<g id="node21" class="node">
<title>Node21</title>
<g id="a_node21"><a xlink:href="classBlockRestrictable.html" target="_top" xlink:title="An interface that restricts an object to subdomains via the &#39;blocks&#39; input parameter.">
<polygon fill="white" stroke="#666666" points="812,-180 693,-180 693,-161 812,-161 812,-180"/>
<text text-anchor="middle" x="752.5" y="-168" font-family="Courier,monospace" font-size="10.00">BlockRestrictable</text>
</a>
</g>
</g>
<!-- Node21&#45;&gt;Node2 -->
<g id="edge20" class="edge">
<title>Node21&#45;&gt;Node2</title>
<path fill="none" stroke="#63b8ff" d="M823.51,-160.29C835.78,-157.86 848.35,-154.94 860,-151.5 892.43,-141.92 928.25,-125.74 949.8,-115.34"/>
<polygon fill="#63b8ff" stroke="#63b8ff" points="823.02,-156.82 813.84,-162.11 824.32,-163.7 823.02,-156.82"/>
</g>
<!-- Node22 -->
<g id="node22" class="node">
<title>Node22</title>
<g id="a_node22"><a xlink:href="classCoupleableMooseVariableDependencyIntermediateInterface.html" target="_top" xlink:title="Intermediate base class that ties together all the interfaces for getting MooseVariableFEBases with t...">
<polygon fill="white" stroke="#666666" points="860,-142.5 645,-142.5 645,-112.5 860,-112.5 860,-142.5"/>
<text text-anchor="start" x="653" y="-130.5" font-family="Courier,monospace" font-size="10.00">CoupleableMooseVariableDependency</text>
<text text-anchor="middle" x="752.5" y="-119.5" font-family="Courier,monospace" font-size="10.00">IntermediateInterface</text>
</a>
</g>
</g>
<!-- Node22&#45;&gt;Node2 -->
<g id="edge21" class="edge">
<title>Node22&#45;&gt;Node2</title>
<path fill="none" stroke="#63b8ff" d="M871.68,-115.46C893.49,-113.24 914.75,-111.08 931.85,-109.33"/>
<polygon fill="#63b8ff" stroke="#63b8ff" points="871.33,-111.98 861.74,-116.48 872.04,-118.94 871.33,-111.98"/>
</g>
<!-- Node23 -->
<g id="node23" class="node">
<title>Node23</title>
<g id="a_node23"><a xlink:href="classCoupleable.html" target="_top" xlink:title="Interface for objects that needs coupling capabilities.">
<polygon fill="white" stroke="#666666" points="543,-155 466,-155 466,-136 543,-136 543,-155"/>
<text text-anchor="middle" x="504.5" y="-143" font-family="Courier,monospace" font-size="10.00">Coupleable</text>
</a>
</g>
</g>
<!-- Node23&#45;&gt;Node22 -->
<g id="edge22" class="edge">
<title>Node23&#45;&gt;Node22</title>
<path fill="none" stroke="#63b8ff" d="M554.76,-141.9C580.62,-140 613.37,-137.61 644.69,-135.32"/>
<polygon fill="#63b8ff" stroke="#63b8ff" points="554.63,-138.4 544.91,-142.62 555.14,-145.38 554.63,-138.4"/>
</g>
<!-- Node24 -->
<g id="node24" class="node">
<title>Node24</title>
<g id="a_node24"><a xlink:href="classScalarCoupleable.html" target="_top" xlink:title="Interface for objects that needs scalar coupling capabilities.">
<polygon fill="white" stroke="#666666" points="561,-118 448,-118 448,-99 561,-99 561,-118"/>
<text text-anchor="middle" x="504.5" y="-106" font-family="Courier,monospace" font-size="10.00">ScalarCoupleable</text>
</a>
</g>
</g>
<!-- Node24&#45;&gt;Node22 -->
<g id="edge23" class="edge">
<title>Node24&#45;&gt;Node22</title>
<path fill="none" stroke="#63b8ff" d="M572.63,-113.68C594.83,-115.4 620.11,-117.35 644.53,-119.24"/>
<polygon fill="#63b8ff" stroke="#63b8ff" points="573.07,-110.21 562.83,-112.93 572.53,-117.19 573.07,-110.21"/>
</g>
<!-- Node25 -->
<g id="node25" class="node">
<title>Node25</title>
<g id="a_node25"><a xlink:href="classMooseVariableDependencyInterface.html" target="_top" xlink:title=" ">
<polygon fill="white" stroke="#666666" points="609,-81 400,-81 400,-62 609,-62 609,-81"/>
<text text-anchor="middle" x="504.5" y="-69" font-family="Courier,monospace" font-size="10.00">MooseVariableDependencyInterface</text>
</a>
</g>
</g>
<!-- Node25&#45;&gt;Node22 -->
<g id="edge24" class="edge">
<title>Node25&#45;&gt;Node22</title>
<path fill="none" stroke="#63b8ff" d="M580.08,-83.66C589.86,-85.71 599.71,-87.99 609,-90.5 625.42,-94.94 628.67,-98.73 645,-103.5 655.37,-106.53 666.4,-109.4 677.29,-112.03"/>
<polygon fill="#63b8ff" stroke="#63b8ff" points="581.07,-80.29 570.57,-81.76 579.69,-87.16 581.07,-80.29"/>
</g>
<!-- Node26 -->
<g id="node26" class="node">
<title>Node26</title>
<g id="a_node26"><a xlink:href="classMaterialPropertyInterface.html" target="_top" xlink:title="An interface for accessing Materials.">
<polygon fill="white" stroke="#666666" points="836,-94 669,-94 669,-75 836,-75 836,-94"/>
<text text-anchor="middle" x="752.5" y="-82" font-family="Courier,monospace" font-size="10.00">MaterialPropertyInterface</text>
</a>
</g>
</g>
<!-- Node26&#45;&gt;Node2 -->
<g id="edge25" class="edge">
<title>Node26&#45;&gt;Node2</title>
<path fill="none" stroke="#63b8ff" d="M847.66,-93.65C877.29,-96.53 908.32,-99.55 931.66,-101.82"/>
<polygon fill="#63b8ff" stroke="#63b8ff" points="848.19,-90.19 837.9,-92.71 847.51,-97.16 848.19,-90.19"/>
</g>
<!-- Node27 -->
<g id="node27" class="node">
<title>Node27</title>
<g id="a_node27"><a xlink:href="classGeometricSearchInterface.html" target="_top" xlink:title=" ">
<polygon fill="white" stroke="#666666" points="833,-57 672,-57 672,-38 833,-38 833,-57"/>
<text text-anchor="middle" x="752.5" y="-45" font-family="Courier,monospace" font-size="10.00">GeometricSearchInterface</text>
</a>
</g>
</g>
<!-- Node27&#45;&gt;Node2 -->
<g id="edge26" class="edge">
<title>Node27&#45;&gt;Node2</title>
<path fill="none" stroke="darkgreen" d="M843.16,-60.22C848.92,-61.78 854.57,-63.53 860,-65.5 877.41,-71.81 878.87,-79.45 896,-86.5 907.33,-91.17 920.13,-94.95 931.84,-97.88"/>
<polygon fill="darkgreen" stroke="darkgreen" points="844.01,-56.82 833.46,-57.8 842.32,-63.61 844.01,-56.82"/>
</g>
<!-- Node28 -->
<g id="node28" class="node">
<title>Node28</title>
<g id="a_node28"><a xlink:href="classElementIDInterface.html" target="_top" xlink:title=" ">
<polygon fill="white" stroke="#666666" points="815,-20 690,-20 690,-1 815,-1 815,-20"/>
<text text-anchor="middle" x="752.5" y="-8" font-family="Courier,monospace" font-size="10.00">ElementIDInterface</text>
</a>
</g>
</g>
<!-- Node28&#45;&gt;Node2 -->
<g id="edge27" class="edge">
<title>Node28&#45;&gt;Node2</title>
<path fill="none" stroke="#63b8ff" d="M826.37,-14.35C838.29,-17.3 849.99,-21.78 860,-28.5 885.19,-45.41 871.56,-68.52 896,-86.5 906.3,-94.07 919.35,-98.64 931.58,-101.38"/>
<polygon fill="#63b8ff" stroke="#63b8ff" points="827.4,-10.99 816.9,-12.38 825.97,-17.85 827.4,-10.99"/>
</g>
<!-- Node29 -->
<g id="node29" class="node">
<title>Node29</title>
<g id="a_node29"><a xlink:href="classMooseVariableInterface.html" target="_top" xlink:title=" ">
<polygon fill="white" stroke="#666666" points="1045,-77.5 896,-77.5 896,-47.5 1045,-47.5 1045,-77.5"/>
<text text-anchor="start" x="904" y="-65.5" font-family="Courier,monospace" font-size="10.00">MooseVariableInterface</text>
<text text-anchor="middle" x="970.5" y="-54.5" font-family="Courier,monospace" font-size="10.00">&lt; RealEigenVector &gt;</text>
</a>
</g>
</g>
<!-- Node29&#45;&gt;Node1 -->
<g id="edge28" class="edge">
<title>Node29&#45;&gt;Node1</title>
<path fill="none" stroke="#63b8ff" d="M1056.4,-74.39C1064.89,-75.57 1073.2,-76.74 1080.9,-77.82"/>
<polygon fill="#63b8ff" stroke="#63b8ff" points="1057.07,-70.95 1046.68,-73.03 1056.1,-77.88 1057.07,-70.95"/>
</g>
<!-- Node35 -->
<g id="node35" class="node">
<title>Node35</title>
<g id="a_node35"><a xlink:href="classArrayTimeDerivative.html" target="_top" xlink:title=" ">
<polygon fill="white" stroke="#666666" points="1540,-19 1409,-19 1409,0 1540,0 1540,-19"/>
<text text-anchor="middle" x="1474.5" y="-7" font-family="Courier,monospace" font-size="10.00">ArrayTimeDerivative</text>
</a>
</g>
</g>
<!-- Node34&#45;&gt;Node35 -->
<g id="edge34" class="edge">
<title>Node34&#45;&gt;Node35</title>
<path fill="none" stroke="#63b8ff" d="M1351.81,-9.5C1370.19,-9.5 1390.23,-9.5 1408.65,-9.5"/>
<polygon fill="#63b8ff" stroke="#63b8ff" points="1351.82,-6 1341.82,-9.5 1351.82,-13 1351.82,-6"/>
</g>
</g>
</svg>
