<?xml version="1.0" encoding="UTF-8" standalone="no"?>
<!DOCTYPE svg PUBLIC "-//W3C//DTD SVG 1.1//EN"
 "http://www.w3.org/Graphics/SVG/1.1/DTD/svg11.dtd">
<!-- Generated by graphviz version 7.0.5 (20221223.1930)
 -->
<!-- Title: Transfer Pages: 1 -->
<svg width="1715pt" height="604pt"
 viewBox="0.00 0.00 1715.00 604.00" xmlns="http://www.w3.org/2000/svg" xmlns:xlink="http://www.w3.org/1999/xlink">
<g id="graph0" class="graph" transform="scale(1 1) rotate(0) translate(4 600)">
<title>Transfer</title>
<!-- Node1 -->
<g id="node1" class="node">
<title>Node1</title>
<g id="a_node1"><a xlink:title="Base class for all Transfer objects.">
<polygon fill="#999999" stroke="#666666" points="626,-229.5 561,-229.5 561,-210.5 626,-210.5 626,-229.5"/>
<text text-anchor="middle" x="593.5" y="-217.5" font-family="Courier,monospace" font-size="10.00">Transfer</text>
</a>
</g>
</g>
<!-- Node12 -->
<g id="node12" class="node">
<title>Node12</title>
<g id="a_node12"><a xlink:href="classMultiAppTransfer.html" target="_top" xlink:title="Base class for all MultiAppTransfer objects.">
<polygon fill="white" stroke="#666666" points="775,-229.5 662,-229.5 662,-210.5 775,-210.5 775,-229.5"/>
<text text-anchor="middle" x="718.5" y="-217.5" font-family="Courier,monospace" font-size="10.00">MultiAppTransfer</text>
</a>
</g>
</g>
<!-- Node1&#45;&gt;Node12 -->
<g id="edge11" class="edge">
<title>Node1&#45;&gt;Node12</title>
<path fill="none" stroke="#63b8ff" d="M637.87,-220C645.62,-220 653.8,-220 661.84,-220"/>
<polygon fill="#63b8ff" stroke="#63b8ff" points="638.01,-216.5 628.01,-220 638.01,-223.5 638.01,-216.5"/>
</g>
<!-- Node2 -->
<g id="node2" class="node">
<title>Node2</title>
<g id="a_node2"><a xlink:href="classMooseObject.html" target="_top" xlink:title="Every object that can be built by the factory should be derived from this class.">
<polygon fill="white" stroke="#666666" points="504,-285.5 421,-285.5 421,-266.5 504,-266.5 504,-285.5"/>
<text text-anchor="middle" x="462.5" y="-273.5" font-family="Courier,monospace" font-size="10.00">MooseObject</text>
</a>
</g>
</g>
<!-- Node2&#45;&gt;Node1 -->
<g id="edge1" class="edge">
<title>Node2&#45;&gt;Node1</title>
<path fill="none" stroke="#63b8ff" d="M510.69,-262.49C515.57,-260.78 520.42,-258.94 525,-257 543.34,-249.24 563.19,-237.98 576.59,-229.92"/>
<polygon fill="#63b8ff" stroke="#63b8ff" points="509.85,-259.08 501.47,-265.57 512.06,-265.73 509.85,-259.08"/>
</g>
<!-- Node3 -->
<g id="node3" class="node">
<title>Node3</title>
<g id="a_node3"><a xlink:href="classMooseBase.html" target="_top" xlink:title="Base class for everything in MOOSE with a name and a type.">
<polygon fill="white" stroke="#666666" points="310,-359.5 239,-359.5 239,-340.5 310,-340.5 310,-359.5"/>
<text text-anchor="middle" x="274.5" y="-347.5" font-family="Courier,monospace" font-size="10.00">MooseBase</text>
</a>
</g>
</g>
<!-- Node3&#45;&gt;Node2 -->
<g id="edge2" class="edge">
<title>Node3&#45;&gt;Node2</title>
<path fill="none" stroke="#63b8ff" d="M321.58,-343.52C335.48,-340.8 350.59,-337.06 364,-332 395.78,-320 429.4,-298.44 447.68,-285.86"/>
<polygon fill="#63b8ff" stroke="#63b8ff" points="320.97,-340.08 311.75,-345.3 322.21,-346.97 320.97,-340.08"/>
</g>
<!-- Node4 -->
<g id="node4" class="node">
<title>Node4</title>
<g id="a_node4"><a xlink:href="classMooseBaseParameterInterface.html" target="_top" xlink:title="Every object that can be built by the factory should be derived from this class.">
<polygon fill="white" stroke="#666666" points="364,-322.5 185,-322.5 185,-303.5 364,-303.5 364,-322.5"/>
<text text-anchor="middle" x="274.5" y="-310.5" font-family="Courier,monospace" font-size="10.00">MooseBaseParameterInterface</text>
</a>
</g>
</g>
<!-- Node4&#45;&gt;Node2 -->
<g id="edge3" class="edge">
<title>Node4&#45;&gt;Node2</title>
<path fill="none" stroke="#63b8ff" d="M336.48,-300.87C364.07,-295.38 395.96,-289.04 420.62,-284.13"/>
<polygon fill="#63b8ff" stroke="#63b8ff" points="335.95,-297.41 326.83,-302.79 337.32,-304.27 335.95,-297.41"/>
</g>
<!-- Node5 -->
<g id="node5" class="node">
<title>Node5</title>
<g id="a_node5"><a xlink:href="classMooseBaseErrorInterface.html" target="_top" xlink:title="Interface that provides APIs to output errors/warnings/info messages.">
<polygon fill="white" stroke="#666666" points="352,-285.5 197,-285.5 197,-266.5 352,-266.5 352,-285.5"/>
<text text-anchor="middle" x="274.5" y="-273.5" font-family="Courier,monospace" font-size="10.00">MooseBaseErrorInterface</text>
</a>
</g>
</g>
<!-- Node5&#45;&gt;Node2 -->
<g id="edge4" class="edge">
<title>Node5&#45;&gt;Node2</title>
<path fill="none" stroke="#63b8ff" d="M363.81,-276C383.7,-276 403.87,-276 420.67,-276"/>
<polygon fill="#63b8ff" stroke="#63b8ff" points="364.01,-272.5 354.01,-276 364.01,-279.5 364.01,-272.5"/>
</g>
<!-- Node6 -->
<g id="node6" class="node">
<title>Node6</title>
<g id="a_node6"><a xlink:href="classConsoleStreamInterface.html" target="_top" xlink:title="An inteface for the _console for outputting to the Console object.">
<polygon fill="white" stroke="#666666" points="149,-285.5 0,-285.5 0,-266.5 149,-266.5 149,-285.5"/>
<text text-anchor="middle" x="74.5" y="-273.5" font-family="Courier,monospace" font-size="10.00">ConsoleStreamInterface</text>
</a>
</g>
</g>
<!-- Node6&#45;&gt;Node5 -->
<g id="edge5" class="edge">
<title>Node6&#45;&gt;Node5</title>
<path fill="none" stroke="#63b8ff" d="M160.62,-276C172.62,-276 184.9,-276 196.73,-276"/>
<polygon fill="#63b8ff" stroke="#63b8ff" points="160.74,-272.5 150.74,-276 160.74,-279.5 160.74,-272.5"/>
</g>
<!-- Node7 -->
<g id="node7" class="node">
<title>Node7</title>
<g id="a_node7"><a xlink:title=" ">
<polygon fill="white" stroke="#666666" points="352,-248.5 197,-248.5 197,-229.5 352,-229.5 352,-248.5"/>
<text text-anchor="middle" x="274.5" y="-236.5" font-family="Courier,monospace" font-size="10.00">libMesh::ParallelObject</text>
</a>
</g>
</g>
<!-- Node7&#45;&gt;Node2 -->
<g id="edge6" class="edge">
<title>Node7&#45;&gt;Node2</title>
<path fill="none" stroke="#63b8ff" d="M336.48,-251.13C364.07,-256.62 395.96,-262.96 420.62,-267.87"/>
<polygon fill="#63b8ff" stroke="#63b8ff" points="337.32,-247.73 326.83,-249.21 335.95,-254.59 337.32,-247.73"/>
</g>
<!-- Node8 -->
<g id="node8" class="node">
<title>Node8</title>
<g id="a_node8"><a xlink:href="classDataFileInterface.html" target="_top" xlink:title=" ">
<polygon fill="white" stroke="#666666" points="337,-211 212,-211 212,-181 337,-181 337,-211"/>
<text text-anchor="start" x="220" y="-199" font-family="Courier,monospace" font-size="10.00">DataFileInterface&lt;</text>
<text text-anchor="middle" x="274.5" y="-188" font-family="Courier,monospace" font-size="10.00"> MooseObject &gt;</text>
</a>
</g>
</g>
<!-- Node8&#45;&gt;Node2 -->
<g id="edge7" class="edge">
<title>Node8&#45;&gt;Node2</title>
<path fill="none" stroke="#63b8ff" d="M347.62,-211.99C353.32,-214.32 358.86,-216.97 364,-220 383.77,-231.64 380.43,-245.02 400,-257 406.29,-260.85 413.42,-263.98 420.55,-266.5"/>
<polygon fill="#63b8ff" stroke="#63b8ff" points="349.23,-208.85 338.64,-208.67 346.8,-215.42 349.23,-208.85"/>
</g>
<!-- Node9 -->
<g id="node9" class="node">
<title>Node9</title>
<g id="a_node9"><a xlink:href="classSetupInterface.html" target="_top" xlink:title=" ">
<polygon fill="white" stroke="#666666" points="513,-248.5 412,-248.5 412,-229.5 513,-229.5 513,-248.5"/>
<text text-anchor="middle" x="462.5" y="-236.5" font-family="Courier,monospace" font-size="10.00">SetupInterface</text>
</a>
</g>
</g>
<!-- Node9&#45;&gt;Node1 -->
<g id="edge8" class="edge">
<title>Node9&#45;&gt;Node1</title>
<path fill="none" stroke="#63b8ff" d="M524.69,-229.99C537.13,-228.16 549.73,-226.3 560.63,-224.69"/>
<polygon fill="#63b8ff" stroke="#63b8ff" points="524.26,-226.51 514.87,-231.43 525.28,-233.44 524.26,-226.51"/>
</g>
<!-- Node10 -->
<g id="node10" class="node">
<title>Node10</title>
<g id="a_node10"><a xlink:href="classRestartable.html" target="_top" xlink:title="A class for creating restricted objects.">
<polygon fill="white" stroke="#666666" points="504,-211.5 421,-211.5 421,-192.5 504,-192.5 504,-211.5"/>
<text text-anchor="middle" x="462.5" y="-199.5" font-family="Courier,monospace" font-size="10.00">Restartable</text>
</a>
</g>
</g>
<!-- Node10&#45;&gt;Node1 -->
<g id="edge9" class="edge">
<title>Node10&#45;&gt;Node1</title>
<path fill="none" stroke="#63b8ff" d="M515.68,-209.28C530.86,-211.4 546.99,-213.65 560.53,-215.54"/>
<polygon fill="#63b8ff" stroke="#63b8ff" points="516.2,-205.82 505.82,-207.9 515.24,-212.75 516.2,-205.82"/>
</g>
<!-- Node11 -->
<g id="node11" class="node">
<title>Node11</title>
<g id="a_node11"><a xlink:href="classPerfGraphInterface.html" target="_top" xlink:title="Interface for objects interacting with the PerfGraph.">
<polygon fill="white" stroke="#666666" points="525,-174.5 400,-174.5 400,-155.5 525,-155.5 525,-174.5"/>
<text text-anchor="middle" x="462.5" y="-162.5" font-family="Courier,monospace" font-size="10.00">PerfGraphInterface</text>
</a>
</g>
</g>
<!-- Node11&#45;&gt;Node1 -->
<g id="edge10" class="edge">
<title>Node11&#45;&gt;Node1</title>
<path fill="none" stroke="#63b8ff" d="M513.11,-178.5C517.17,-179.91 521.18,-181.42 525,-183 543.39,-190.63 563.24,-201.91 576.62,-210.01"/>
<polygon fill="#63b8ff" stroke="#63b8ff" points="514.36,-175.22 503.77,-175.44 512.18,-181.88 514.36,-175.22"/>
</g>
<!-- Node13 -->
<g id="node13" class="node">
<title>Node13</title>
<g id="a_node13"><a xlink:href="classMultiAppCloneReporterTransfer.html" target="_top" xlink:title="Transfer for migrating reporter values between the main and sub&#45;application(s).">
<polygon fill="white" stroke="#666666" points="1017,-419.5 826,-419.5 826,-400.5 1017,-400.5 1017,-419.5"/>
<text text-anchor="middle" x="921.5" y="-407.5" font-family="Courier,monospace" font-size="10.00">MultiAppCloneReporterTransfer</text>
</a>
</g>
</g>
<!-- Node12&#45;&gt;Node13 -->
<g id="edge12" class="edge">
<title>Node12&#45;&gt;Node13</title>
<path fill="none" stroke="#63b8ff" d="M724.13,-240.66C733.55,-277.56 758.66,-354.44 811,-392 815.54,-395.26 820.46,-398.01 825.6,-400.32"/>
<polygon fill="#63b8ff" stroke="#63b8ff" points="727.61,-240.17 721.87,-231.26 720.8,-241.8 727.61,-240.17"/>
</g>
<!-- Node14 -->
<g id="node14" class="node">
<title>Node14</title>
<g id="a_node14"><a xlink:href="classMultiAppFieldTransfer.html" target="_top" xlink:title="Intermediary class that allows variable names as inputs.">
<polygon fill="white" stroke="#666666" points="993,-382.5 850,-382.5 850,-363.5 993,-363.5 993,-382.5"/>
<text text-anchor="middle" x="921.5" y="-370.5" font-family="Courier,monospace" font-size="10.00">MultiAppFieldTransfer</text>
</a>
</g>
</g>
<!-- Node12&#45;&gt;Node14 -->
<g id="edge13" class="edge">
<title>Node12&#45;&gt;Node14</title>
<path fill="none" stroke="#63b8ff" d="M727.24,-240.23C739.87,-270.32 767.92,-326.28 811,-354 822.52,-361.41 836.07,-366.17 849.65,-369.19"/>
<polygon fill="#63b8ff" stroke="#63b8ff" points="730.56,-239.12 723.59,-231.15 724.07,-241.73 730.56,-239.12"/>
</g>
<!-- Node27 -->
<g id="node27" class="node">
<title>Node27</title>
<g id="a_node27"><a xlink:href="classMultiAppPostprocessorInterpolationTransfer.html" target="_top" xlink:title="Transfers from postprocessors in child apps of a MultiApp in different locations in parent app mesh,...">
<polygon fill="white" stroke="#666666" points="1032,-345 811,-345 811,-315 1032,-315 1032,-345"/>
<text text-anchor="start" x="819" y="-333" font-family="Courier,monospace" font-size="10.00">MultiAppPostprocessorInterpolation</text>
<text text-anchor="middle" x="921.5" y="-322" font-family="Courier,monospace" font-size="10.00">Transfer</text>
</a>
</g>
</g>
<!-- Node12&#45;&gt;Node27 -->
<g id="edge26" class="edge">
<title>Node12&#45;&gt;Node27</title>
<path fill="none" stroke="#63b8ff" d="M733.9,-238.52C750.37,-258.35 779.18,-289.23 811,-306 817.2,-309.27 823.82,-312.09 830.62,-314.53"/>
<polygon fill="#63b8ff" stroke="#63b8ff" points="736.81,-236.54 727.8,-230.96 731.36,-240.94 736.81,-236.54"/>
</g>
<!-- Node28 -->
<g id="node28" class="node">
<title>Node28</title>
<g id="a_node28"><a xlink:href="classMultiAppPostprocessorToAuxScalarTransfer.html" target="_top" xlink:title="Copies the value of a Postprocessor from one app to a scalar AuxVariable in another.">
<polygon fill="white" stroke="#666666" points="1008,-297 835,-297 835,-267 1008,-267 1008,-297"/>
<text text-anchor="start" x="843" y="-285" font-family="Courier,monospace" font-size="10.00">MultiAppPostprocessorToAux</text>
<text text-anchor="middle" x="921.5" y="-274" font-family="Courier,monospace" font-size="10.00">ScalarTransfer</text>
</a>
</g>
</g>
<!-- Node12&#45;&gt;Node28 -->
<g id="edge27" class="edge">
<title>Node12&#45;&gt;Node28</title>
<path fill="none" stroke="#63b8ff" d="M751.48,-234.4C768.85,-241.84 790.83,-250.66 811,-257 822.07,-260.48 833.91,-263.69 845.56,-266.57"/>
<polygon fill="#63b8ff" stroke="#63b8ff" points="753.28,-231.36 742.71,-230.58 750.49,-237.78 753.28,-231.36"/>
</g>
<!-- Node29 -->
<g id="node29" class="node">
<title>Node29</title>
<g id="a_node29"><a xlink:href="classMultiAppPostprocessorTransfer.html" target="_top" xlink:title="Copies the value of a Postprocessor either:">
<polygon fill="white" stroke="#666666" points="1017,-248.5 826,-248.5 826,-229.5 1017,-229.5 1017,-248.5"/>
<text text-anchor="middle" x="921.5" y="-236.5" font-family="Courier,monospace" font-size="10.00">MultiAppPostprocessorTransfer</text>
</a>
</g>
</g>
<!-- Node12&#45;&gt;Node29 -->
<g id="edge28" class="edge">
<title>Node12&#45;&gt;Node29</title>
<path fill="none" stroke="#63b8ff" d="M786.7,-226.35C799.18,-227.53 812.42,-228.78 825.54,-230.02"/>
<polygon fill="#63b8ff" stroke="#63b8ff" points="787.28,-222.89 777,-225.44 786.62,-229.86 787.28,-222.89"/>
</g>
<!-- Node30 -->
<g id="node30" class="node">
<title>Node30</title>
<g id="a_node30"><a xlink:href="classMultiAppReporterTransfer.html" target="_top" xlink:title="Transfer for migrating reporter values between the main and sub&#45;application(s).">
<polygon fill="white" stroke="#666666" points="1002,-211.5 841,-211.5 841,-192.5 1002,-192.5 1002,-211.5"/>
<text text-anchor="middle" x="921.5" y="-199.5" font-family="Courier,monospace" font-size="10.00">MultiAppReporterTransfer</text>
</a>
</g>
</g>
<!-- Node12&#45;&gt;Node30 -->
<g id="edge29" class="edge">
<title>Node12&#45;&gt;Node30</title>
<path fill="none" stroke="#63b8ff" d="M786.65,-213.99C804,-212.43 822.85,-210.74 840.78,-209.14"/>
<polygon fill="#63b8ff" stroke="#63b8ff" points="786.65,-210.47 777,-214.85 787.27,-217.44 786.65,-210.47"/>
</g>
<!-- Node31 -->
<g id="node31" class="node">
<title>Node31</title>
<g id="a_node31"><a xlink:href="classMultiAppScalarToAuxScalarTransfer.html" target="_top" xlink:title="Copies the value of a SCALAR variable from one App to another.">
<polygon fill="white" stroke="#666666" points="1005,-174 838,-174 838,-144 1005,-144 1005,-174"/>
<text text-anchor="start" x="846" y="-162" font-family="Courier,monospace" font-size="10.00">MultiAppScalarToAuxScalar</text>
<text text-anchor="middle" x="921.5" y="-151" font-family="Courier,monospace" font-size="10.00">Transfer</text>
</a>
</g>
</g>
<!-- Node12&#45;&gt;Node31 -->
<g id="edge30" class="edge">
<title>Node12&#45;&gt;Node31</title>
<path fill="none" stroke="#63b8ff" d="M751.11,-205.68C768.52,-198.19 790.67,-189.29 811,-183 821.04,-179.89 831.72,-177.03 842.31,-174.45"/>
<polygon fill="#63b8ff" stroke="#63b8ff" points="750.09,-202.31 742.33,-209.52 752.89,-208.72 750.09,-202.31"/>
</g>
<!-- Node32 -->
<g id="node32" class="node">
<title>Node32</title>
<g id="a_node32"><a xlink:href="classMultiAppVariableValueSamplePostprocessorTransfer.html" target="_top" xlink:title="Samples a variable&#39;s value in the parent application domain at the point where the MultiApp (for each...">
<polygon fill="white" stroke="#666666" points="1011,-126 832,-126 832,-96 1011,-96 1011,-126"/>
<text text-anchor="start" x="840" y="-114" font-family="Courier,monospace" font-size="10.00">MultiAppVariableValueSample</text>
<text text-anchor="middle" x="921.5" y="-103" font-family="Courier,monospace" font-size="10.00">PostprocessorTransfer</text>
</a>
</g>
</g>
<!-- Node12&#45;&gt;Node32 -->
<g id="edge31" class="edge">
<title>Node12&#45;&gt;Node32</title>
<path fill="none" stroke="#63b8ff" d="M734.21,-201.4C750.76,-181.79 779.47,-151.5 811,-135 817.55,-131.57 824.57,-128.63 831.78,-126.11"/>
<polygon fill="#63b8ff" stroke="#63b8ff" points="731.7,-198.94 728.06,-208.89 737.11,-203.37 731.7,-198.94"/>
</g>
<!-- Node33 -->
<g id="node33" class="node">
<title>Node33</title>
<g id="a_node33"><a xlink:href="classMultiAppVariableValueSampleTransfer.html" target="_top" xlink:title="Samples a variable&#39;s value in the parent application domain at the point where the MultiApp (for each...">
<polygon fill="white" stroke="#666666" points="1011,-78 832,-78 832,-48 1011,-48 1011,-78"/>
<text text-anchor="start" x="840" y="-66" font-family="Courier,monospace" font-size="10.00">MultiAppVariableValueSample</text>
<text text-anchor="middle" x="921.5" y="-55" font-family="Courier,monospace" font-size="10.00">Transfer</text>
</a>
</g>
</g>
<!-- Node12&#45;&gt;Node33 -->
<g id="edge32" class="edge">
<title>Node12&#45;&gt;Node33</title>
<path fill="none" stroke="#63b8ff" d="M727.62,-199.72C740.6,-170.06 768.91,-115.3 811,-87 817.38,-82.71 824.4,-79.17 831.7,-76.26"/>
<polygon fill="#63b8ff" stroke="#63b8ff" points="724.5,-198.11 723.86,-208.69 730.96,-200.83 724.5,-198.11"/>
</g>
<!-- Node34 -->
<g id="node34" class="node">
<title>Node34</title>
<g id="a_node34"><a xlink:href="classMultiAppVectorPostprocessorTransfer.html" target="_top" xlink:title="Copies the values of a VectorPostprocessor from the parent application to postprocessors on each suba...">
<polygon fill="white" stroke="#666666" points="1011,-30 832,-30 832,0 1011,0 1011,-30"/>
<text text-anchor="start" x="840" y="-18" font-family="Courier,monospace" font-size="10.00">MultiAppVectorPostprocessor</text>
<text text-anchor="middle" x="921.5" y="-7" font-family="Courier,monospace" font-size="10.00">Transfer</text>
</a>
</g>
</g>
<!-- Node12&#45;&gt;Node34 -->
<g id="edge33" class="edge">
<title>Node12&#45;&gt;Node34</title>
<path fill="none" stroke="#63b8ff" d="M723.87,-199.11C732.98,-160.98 757.74,-80.27 811,-39 817.23,-34.17 824.23,-30.27 831.6,-27.12"/>
<polygon fill="#63b8ff" stroke="#63b8ff" points="720.46,-198.28 721.69,-208.81 727.3,-199.82 720.46,-198.28"/>
</g>
<!-- Node15 -->
<g id="node15" class="node">
<title>Node15</title>
<g id="a_node15"><a xlink:href="classMultiAppConservativeTransfer.html" target="_top" xlink:title="Transfers variables on possibly different meshes while conserving a user defined property (Postproces...">
<polygon fill="white" stroke="#666666" points="1253,-419.5 1068,-419.5 1068,-400.5 1253,-400.5 1253,-419.5"/>
<text text-anchor="middle" x="1160.5" y="-407.5" font-family="Courier,monospace" font-size="10.00">MultiAppConservativeTransfer</text>
</a>
</g>
</g>
<!-- Node14&#45;&gt;Node15 -->
<g id="edge14" class="edge">
<title>Node14&#45;&gt;Node15</title>
<path fill="none" stroke="#63b8ff" d="M997.69,-384.74C1029.17,-389.65 1065.39,-395.31 1095.56,-400.02"/>
<polygon fill="#63b8ff" stroke="#63b8ff" points="998.24,-381.28 987.82,-383.2 997.16,-388.2 998.24,-381.28"/>
</g>
<!-- Node25 -->
<g id="node25" class="node">
<title>Node25</title>
<g id="a_node25"><a xlink:href="classMultiAppDofCopyTransfer.html" target="_top" xlink:title="Copy the fields directly from one application to another, based on degree&#45;of&#45;freedom indexing.">
<polygon fill="white" stroke="#666666" points="1238,-345.5 1083,-345.5 1083,-326.5 1238,-326.5 1238,-345.5"/>
<text text-anchor="middle" x="1160.5" y="-333.5" font-family="Courier,monospace" font-size="10.00">MultiAppDofCopyTransfer</text>
</a>
</g>
</g>
<!-- Node14&#45;&gt;Node25 -->
<g id="edge24" class="edge">
<title>Node14&#45;&gt;Node25</title>
<path fill="none" stroke="#63b8ff" d="M997.69,-361.26C1029.17,-356.35 1065.39,-350.69 1095.56,-345.98"/>
<polygon fill="#63b8ff" stroke="#63b8ff" points="997.16,-357.8 987.82,-362.8 998.24,-364.72 997.16,-357.8"/>
</g>
<!-- Node16 -->
<g id="node16" class="node">
<title>Node16</title>
<g id="a_node16"><a xlink:href="classMultiAppGeneralFieldTransfer.html" target="_top" xlink:title="It is a general field transfer.">
<polygon fill="white" stroke="#666666" points="1483,-542.5 1298,-542.5 1298,-523.5 1483,-523.5 1483,-542.5"/>
<text text-anchor="middle" x="1390.5" y="-530.5" font-family="Courier,monospace" font-size="10.00">MultiAppGeneralFieldTransfer</text>
</a>
</g>
</g>
<!-- Node15&#45;&gt;Node16 -->
<g id="edge15" class="edge">
<title>Node15&#45;&gt;Node16</title>
<path fill="none" stroke="#63b8ff" d="M1177.88,-428.08C1200.46,-451.79 1243.53,-492.84 1289,-514 1296.89,-517.67 1305.44,-520.63 1314.11,-523.02"/>
<polygon fill="#63b8ff" stroke="#63b8ff" points="1180.68,-425.95 1171.3,-421.03 1175.57,-430.73 1180.68,-425.95"/>
</g>
<!-- Node20 -->
<g id="node20" class="node">
<title>Node20</title>
<g id="a_node20"><a xlink:href="classMultiAppGeometricInterpolationTransfer.html" target="_top" xlink:title="Interpolate variable values using geometry/mesh&#45;based coefficients.">
<polygon fill="white" stroke="#666666" points="1489,-505 1292,-505 1292,-475 1489,-475 1489,-505"/>
<text text-anchor="start" x="1300" y="-493" font-family="Courier,monospace" font-size="10.00">MultiAppGeometricInterpolation</text>
<text text-anchor="middle" x="1390.5" y="-482" font-family="Courier,monospace" font-size="10.00">Transfer</text>
</a>
</g>
</g>
<!-- Node15&#45;&gt;Node20 -->
<g id="edge19" class="edge">
<title>Node15&#45;&gt;Node20</title>
<path fill="none" stroke="#63b8ff" d="M1191.04,-424.79C1216.51,-437.09 1254.51,-454.41 1289,-466 1298.18,-469.09 1307.96,-471.94 1317.68,-474.52"/>
<polygon fill="#63b8ff" stroke="#63b8ff" points="1192.82,-421.76 1182.3,-420.52 1189.75,-428.05 1192.82,-421.76"/>
</g>
<!-- Node21 -->
<g id="node21" class="node">
<title>Node21</title>
<g id="a_node21"><a xlink:href="classMultiAppNearestNodeTransfer.html" target="_top" xlink:title="Copy the value to the target domain from the nearest node in the source domain.">
<polygon fill="white" stroke="#666666" points="1480,-456.5 1301,-456.5 1301,-437.5 1480,-437.5 1480,-456.5"/>
<text text-anchor="middle" x="1390.5" y="-444.5" font-family="Courier,monospace" font-size="10.00">MultiAppNearestNodeTransfer</text>
</a>
</g>
</g>
<!-- Node15&#45;&gt;Node21 -->
<g id="edge20" class="edge">
<title>Node15&#45;&gt;Node21</title>
<path fill="none" stroke="#63b8ff" d="M1234.23,-421.8C1264.43,-426.7 1299.09,-432.33 1327.99,-437.02"/>
<polygon fill="#63b8ff" stroke="#63b8ff" points="1234.83,-418.35 1224.39,-420.21 1233.7,-425.26 1234.83,-418.35"/>
</g>
<!-- Node22 -->
<g id="node22" class="node">
<title>Node22</title>
<g id="a_node22"><a xlink:href="classMultiAppProjectionTransfer.html" target="_top" xlink:title="Project values from one domain to another.">
<polygon fill="white" stroke="#666666" points="1477,-419.5 1304,-419.5 1304,-400.5 1477,-400.5 1477,-419.5"/>
<text text-anchor="middle" x="1390.5" y="-407.5" font-family="Courier,monospace" font-size="10.00">MultiAppProjectionTransfer</text>
</a>
</g>
</g>
<!-- Node15&#45;&gt;Node22 -->
<g id="edge21" class="edge">
<title>Node15&#45;&gt;Node22</title>
<path fill="none" stroke="#63b8ff" d="M1264.69,-410C1277.78,-410 1291.07,-410 1303.84,-410"/>
<polygon fill="#63b8ff" stroke="#63b8ff" points="1264.76,-406.5 1254.76,-410 1264.76,-413.5 1264.76,-406.5"/>
</g>
<!-- Node23 -->
<g id="node23" class="node">
<title>Node23</title>
<g id="a_node23"><a xlink:href="classMultiAppShapeEvaluationTransfer.html" target="_top" xlink:title="Transfers a vector of variables.">
<polygon fill="white" stroke="#666666" points="1492,-382.5 1289,-382.5 1289,-363.5 1492,-363.5 1492,-382.5"/>
<text text-anchor="middle" x="1390.5" y="-370.5" font-family="Courier,monospace" font-size="10.00">MultiAppShapeEvaluationTransfer</text>
</a>
</g>
</g>
<!-- Node15&#45;&gt;Node23 -->
<g id="edge22" class="edge">
<title>Node15&#45;&gt;Node23</title>
<path fill="none" stroke="#63b8ff" d="M1234.23,-398.2C1264.43,-393.3 1299.09,-387.67 1327.99,-382.98"/>
<polygon fill="#63b8ff" stroke="#63b8ff" points="1233.7,-394.74 1224.39,-399.79 1234.83,-401.65 1233.7,-394.74"/>
</g>
<!-- Node24 -->
<g id="node24" class="node">
<title>Node24</title>
<g id="a_node24"><a xlink:href="classMultiAppUserObjectTransfer.html" target="_top" xlink:title="Loops over a target mesh and uses either node or element centroid location (based on the target varia...">
<polygon fill="white" stroke="#666666" points="1477,-345.5 1304,-345.5 1304,-326.5 1477,-326.5 1477,-345.5"/>
<text text-anchor="middle" x="1390.5" y="-333.5" font-family="Courier,monospace" font-size="10.00">MultiAppUserObjectTransfer</text>
</a>
</g>
</g>
<!-- Node15&#45;&gt;Node24 -->
<g id="edge23" class="edge">
<title>Node15&#45;&gt;Node24</title>
<path fill="none" stroke="#63b8ff" d="M1190.94,-395.09C1216.34,-382.76 1254.31,-365.62 1289,-355 1300.55,-351.47 1313.05,-348.47 1325.19,-345.97"/>
<polygon fill="#63b8ff" stroke="#63b8ff" points="1189.65,-391.82 1182.23,-399.37 1192.74,-398.1 1189.65,-391.82"/>
</g>
<!-- Node17 -->
<g id="node17" class="node">
<title>Node17</title>
<g id="a_node17"><a xlink:href="classMultiAppGeneralFieldNearestLocationTransfer.html" target="_top" xlink:title="Performs a geometric interpolation based on the values at the nearest nodes to a target location in t...">
<polygon fill="white" stroke="#666666" points="1707,-596 1528,-596 1528,-566 1707,-566 1707,-596"/>
<text text-anchor="start" x="1536" y="-584" font-family="Courier,monospace" font-size="10.00">MultiAppGeneralFieldNearest</text>
<text text-anchor="middle" x="1617.5" y="-573" font-family="Courier,monospace" font-size="10.00">LocationTransfer</text>
</a>
</g>
</g>
<!-- Node16&#45;&gt;Node17 -->
<g id="edge16" class="edge">
<title>Node16&#45;&gt;Node17</title>
<path fill="none" stroke="#63b8ff" d="M1449.28,-545.33C1478.21,-551.5 1513.53,-559.03 1544.24,-565.58"/>
<polygon fill="#63b8ff" stroke="#63b8ff" points="1450.11,-541.92 1439.6,-543.26 1448.65,-548.77 1450.11,-541.92"/>
</g>
<!-- Node18 -->
<g id="node18" class="node">
<title>Node18</title>
<g id="a_node18"><a xlink:href="classMultiAppGeneralFieldShapeEvaluationTransfer.html" target="_top" xlink:title="Evaluates origin shape functions to compute the target variables.">
<polygon fill="white" stroke="#666666" points="1701,-548 1534,-548 1534,-518 1701,-518 1701,-548"/>
<text text-anchor="start" x="1542" y="-536" font-family="Courier,monospace" font-size="10.00">MultiAppGeneralFieldShape</text>
<text text-anchor="middle" x="1617.5" y="-525" font-family="Courier,monospace" font-size="10.00">EvaluationTransfer</text>
</a>
</g>
</g>
<!-- Node16&#45;&gt;Node18 -->
<g id="edge17" class="edge">
<title>Node16&#45;&gt;Node18</title>
<path fill="none" stroke="#63b8ff" d="M1494.73,-533C1507.77,-533 1520.97,-533 1533.63,-533"/>
<polygon fill="#63b8ff" stroke="#63b8ff" points="1494.85,-529.5 1484.85,-533 1494.85,-536.5 1494.85,-529.5"/>
</g>
<!-- Node19 -->
<g id="node19" class="node">
<title>Node19</title>
<g id="a_node19"><a xlink:href="classMultiAppGeneralFieldUserObjectTransfer.html" target="_top" xlink:title="Transfers values computed in the origin mesh by the source user object spatialValue() routine at loca...">
<polygon fill="white" stroke="#666666" points="1698,-500 1537,-500 1537,-470 1698,-470 1698,-500"/>
<text text-anchor="start" x="1545" y="-488" font-family="Courier,monospace" font-size="10.00">MultiAppGeneralFieldUser</text>
<text text-anchor="middle" x="1617.5" y="-477" font-family="Courier,monospace" font-size="10.00">ObjectTransfer</text>
</a>
</g>
</g>
<!-- Node16&#45;&gt;Node19 -->
<g id="edge18" class="edge">
<title>Node16&#45;&gt;Node19</title>
<path fill="none" stroke="#63b8ff" d="M1457.87,-520.86C1469.27,-518.66 1480.99,-516.32 1492,-514 1511.65,-509.86 1532.97,-505.02 1552.32,-500.49"/>
<polygon fill="#63b8ff" stroke="#63b8ff" points="1457.26,-517.41 1448.1,-522.73 1458.58,-524.29 1457.26,-517.41"/>
</g>
<!-- Node26 -->
<g id="node26" class="node">
<title>Node26</title>
<g id="a_node26"><a xlink:href="classMultiAppCopyTransfer.html" target="_top" xlink:title="Copy variables directly from one application to another, based on degree&#45;of&#45;freedom indexing TODO: Re...">
<polygon fill="white" stroke="#666666" points="1459,-308.5 1322,-308.5 1322,-289.5 1459,-289.5 1459,-308.5"/>
<text text-anchor="middle" x="1390.5" y="-296.5" font-family="Courier,monospace" font-size="10.00">MultiAppCopyTransfer</text>
</a>
</g>
</g>
<!-- Node25&#45;&gt;Node26 -->
<g id="edge25" class="edge">
<title>Node25&#45;&gt;Node26</title>
<path fill="none" stroke="#63b8ff" d="M1234.23,-324.2C1264.43,-319.3 1299.09,-313.67 1327.99,-308.98"/>
<polygon fill="#63b8ff" stroke="#63b8ff" points="1233.7,-320.74 1224.39,-325.79 1234.83,-327.65 1233.7,-320.74"/>
</g>
</g>
</svg>
