<?xml version="1.0" encoding="UTF-8" standalone="no"?>
<!DOCTYPE svg PUBLIC "-//W3C//DTD SVG 1.1//EN"
 "http://www.w3.org/Graphics/SVG/1.1/DTD/svg11.dtd">
<!-- Generated by graphviz version 7.0.5 (20221223.1930)
 -->
<!-- Title: SubProblem Pages: 1 -->
<!--zoomable 193 -->
<svg id="main" version="1.1" xmlns="http://www.w3.org/2000/svg" xmlns:xlink="http://www.w3.org/1999/xlink" xml:space="preserve" onload="init(evt)">
<style type="text/css"><![CDATA[
.edge:hover path { stroke: red; }
.edge:hover polygon { stroke: red; fill: red; }
]]></style>
<script type="text/javascript"><![CDATA[
var edges = document.getElementsByTagName('g');
if (edges && edges.length) {
  for (var i=0;i<edges.length;i++) {
    if (edges[i].id.substr(0,4)=='edge') {
      edges[i].setAttribute('class','edge');
    }
  }
}
]]></script>
        <defs>
                <circle id="rim" cx="0" cy="0" r="7"/>
                <circle id="rim2" cx="0" cy="0" r="3.5"/>
                <g id="zoomPlus">
                        <use xlink:href="#rim" fill="#404040">
                                <set attributeName="fill" to="#808080" begin="zoomplus.mouseover" end="zoomplus.mouseout"/>
                        </use>
                        <path d="M-4,0h8M0,-4v8" fill="none" stroke="white" stroke-width="1.5" pointer-events="none"/>
                </g>
                <g id="zoomMin">
                        <use xlink:href="#rim" fill="#404040">
                                <set attributeName="fill" to="#808080" begin="zoomminus.mouseover" end="zoomminus.mouseout"/>
                        </use>
                        <path d="M-4,0h8" fill="none" stroke="white" stroke-width="1.5" pointer-events="none"/>
                </g>
                <g id="dirArrow">
                        <path fill="none" stroke="white" stroke-width="1.5" d="M0,-3.0v7 M-2.5,-0.5L0,-3.0L2.5,-0.5"/>
                </g>
               <g id="resetDef">
                       <use xlink:href="#rim2" fill="#404040">
                               <set attributeName="fill" to="#808080" begin="reset.mouseover" end="reset.mouseout"/>
                       </use>
               </g>
        </defs>

<script type="text/javascript">
var viewWidth = 1248;
var viewHeight = 193;
var sectionId = 'dynsection-0';
</script>
<script xlink:href="svgpan.js"/>
<svg id="graph" class="graph">
<g id="viewport">
<title>SubProblem</title>
<!-- Node1 -->
<g id="node1" class="node">
<title>Node1</title>
<g id="a_node1"><a xlink:title="Generic class for solving transient nonlinear problems.">
<polygon fill="#999999" stroke="#666666" points="733,-92 656,-92 656,-73 733,-73 733,-92"/>
<text text-anchor="middle" x="694.5" y="-80" font-family="Courier,monospace" font-size="10.00">SubProblem</text>
</a>
</g>
</g>
<!-- Node11 -->
<g id="node11" class="node">
<title>Node11</title>
<g id="a_node11"><a xlink:href="classDisplacedProblem.html" target="_top" xlink:title=" ">
<polygon fill="white" stroke="#666666" points="882,-111 769,-111 769,-92 882,-92 882,-111"/>
<text text-anchor="middle" x="825.5" y="-99" font-family="Courier,monospace" font-size="10.00">DisplacedProblem</text>
</a>
</g>
</g>
<!-- Node1&#45;&gt;Node11 -->
<g id="edge10" class="edge">
<title>Node1&#45;&gt;Node11</title>
<path fill="none" stroke="#63b8ff" d="M744.5,-89.72C752.45,-90.89 760.72,-92.11 768.81,-93.3"/>
<polygon fill="#63b8ff" stroke="#63b8ff" points="745.06,-86.26 734.66,-88.27 744.04,-93.19 745.06,-86.26"/>
</g>
<!-- Node12 -->
<g id="node12" class="node">
<title>Node12</title>
<g id="a_node12"><a xlink:href="classFEProblemBase.html" target="_top" xlink:title="Specialization of SubProblem for solving nonlinear equations plus auxiliary equations.">
<polygon fill="white" stroke="#666666" points="873,-74 778,-74 778,-55 873,-55 873,-74"/>
<text text-anchor="middle" x="825.5" y="-62" font-family="Courier,monospace" font-size="10.00">FEProblemBase</text>
</a>
</g>
</g>
<!-- Node1&#45;&gt;Node12 -->
<g id="edge11" class="edge">
<title>Node1&#45;&gt;Node12</title>
<path fill="none" stroke="#63b8ff" d="M744.32,-75.69C755.32,-74.15 766.96,-72.53 777.86,-71.01"/>
<polygon fill="#63b8ff" stroke="#63b8ff" points="744.08,-72.19 734.66,-77.04 745.05,-79.12 744.08,-72.19"/>
</g>
<!-- Node2 -->
<g id="node2" class="node">
<title>Node2</title>
<g id="a_node2"><a xlink:href="classProblem.html" target="_top" xlink:title="Class that hold the whole problem being solved.">
<polygon fill="white" stroke="#666666" points="620,-92 561,-92 561,-73 620,-73 620,-92"/>
<text text-anchor="middle" x="590.5" y="-80" font-family="Courier,monospace" font-size="10.00">Problem</text>
</a>
</g>
</g>
<!-- Node2&#45;&gt;Node1 -->
<g id="edge1" class="edge">
<title>Node2&#45;&gt;Node1</title>
<path fill="none" stroke="#63b8ff" d="M631.96,-82.5C639.79,-82.5 647.96,-82.5 655.7,-82.5"/>
<polygon fill="#63b8ff" stroke="#63b8ff" points="631.97,-79 621.97,-82.5 631.97,-86 631.97,-79"/>
</g>
<!-- Node3 -->
<g id="node3" class="node">
<title>Node3</title>
<g id="a_node3"><a xlink:href="classMooseObject.html" target="_top" xlink:title="Every object that can be built by the factory should be derived from this class.">
<polygon fill="white" stroke="#666666" points="504,-111 421,-111 421,-92 504,-92 504,-111"/>
<text text-anchor="middle" x="462.5" y="-99" font-family="Courier,monospace" font-size="10.00">MooseObject</text>
</a>
</g>
</g>
<!-- Node3&#45;&gt;Node2 -->
<g id="edge2" class="edge">
<title>Node3&#45;&gt;Node2</title>
<path fill="none" stroke="#63b8ff" d="M515.46,-93.66C530.94,-91.33 547.33,-88.86 560.75,-86.84"/>
<polygon fill="#63b8ff" stroke="#63b8ff" points="515.27,-90.15 505.91,-95.11 516.32,-97.08 515.27,-90.15"/>
</g>
<!-- Node4 -->
<g id="node4" class="node">
<title>Node4</title>
<g id="a_node4"><a xlink:href="classMooseBase.html" target="_top" xlink:title="Base class for everything in MOOSE with a name and a type.">
<polygon fill="white" stroke="#666666" points="310,-185 239,-185 239,-166 310,-166 310,-185"/>
<text text-anchor="middle" x="274.5" y="-173" font-family="Courier,monospace" font-size="10.00">MooseBase</text>
</a>
</g>
</g>
<!-- Node4&#45;&gt;Node3 -->
<g id="edge3" class="edge">
<title>Node4&#45;&gt;Node3</title>
<path fill="none" stroke="#63b8ff" d="M321.58,-169.02C335.48,-166.3 350.59,-162.56 364,-157.5 395.78,-145.5 429.4,-123.94 447.68,-111.36"/>
<polygon fill="#63b8ff" stroke="#63b8ff" points="320.97,-165.58 311.75,-170.8 322.21,-172.47 320.97,-165.58"/>
</g>
<!-- Node5 -->
<g id="node5" class="node">
<title>Node5</title>
<g id="a_node5"><a xlink:href="classMooseBaseParameterInterface.html" target="_top" xlink:title="Every object that can be built by the factory should be derived from this class.">
<polygon fill="white" stroke="#666666" points="364,-148 185,-148 185,-129 364,-129 364,-148"/>
<text text-anchor="middle" x="274.5" y="-136" font-family="Courier,monospace" font-size="10.00">MooseBaseParameterInterface</text>
</a>
</g>
</g>
<!-- Node5&#45;&gt;Node3 -->
<g id="edge4" class="edge">
<title>Node5&#45;&gt;Node3</title>
<path fill="none" stroke="#63b8ff" d="M336.48,-126.37C364.07,-120.88 395.96,-114.54 420.62,-109.63"/>
<polygon fill="#63b8ff" stroke="#63b8ff" points="335.95,-122.91 326.83,-128.29 337.32,-129.77 335.95,-122.91"/>
</g>
<!-- Node6 -->
<g id="node6" class="node">
<title>Node6</title>
<g id="a_node6"><a xlink:href="classMooseBaseErrorInterface.html" target="_top" xlink:title="Interface that provides APIs to output errors/warnings/info messages.">
<polygon fill="white" stroke="#666666" points="352,-111 197,-111 197,-92 352,-92 352,-111"/>
<text text-anchor="middle" x="274.5" y="-99" font-family="Courier,monospace" font-size="10.00">MooseBaseErrorInterface</text>
</a>
</g>
</g>
<!-- Node6&#45;&gt;Node3 -->
<g id="edge5" class="edge">
<title>Node6&#45;&gt;Node3</title>
<path fill="none" stroke="#63b8ff" d="M363.81,-101.5C383.7,-101.5 403.87,-101.5 420.67,-101.5"/>
<polygon fill="#63b8ff" stroke="#63b8ff" points="364.01,-98 354.01,-101.5 364.01,-105 364.01,-98"/>
</g>
<!-- Node7 -->
<g id="node7" class="node">
<title>Node7</title>
<g id="a_node7"><a xlink:href="classConsoleStreamInterface.html" target="_top" xlink:title="An inteface for the _console for outputting to the Console object.">
<polygon fill="white" stroke="#666666" points="149,-111 0,-111 0,-92 149,-92 149,-111"/>
<text text-anchor="middle" x="74.5" y="-99" font-family="Courier,monospace" font-size="10.00">ConsoleStreamInterface</text>
</a>
</g>
</g>
<!-- Node7&#45;&gt;Node6 -->
<g id="edge6" class="edge">
<title>Node7&#45;&gt;Node6</title>
<path fill="none" stroke="#63b8ff" d="M160.62,-101.5C172.62,-101.5 184.9,-101.5 196.73,-101.5"/>
<polygon fill="#63b8ff" stroke="#63b8ff" points="160.74,-98 150.74,-101.5 160.74,-105 160.74,-98"/>
</g>
<!-- Node8 -->
<g id="node8" class="node">
<title>Node8</title>
<g id="a_node8"><a xlink:title=" ">
<polygon fill="white" stroke="#666666" points="352,-74 197,-74 197,-55 352,-55 352,-74"/>
<text text-anchor="middle" x="274.5" y="-62" font-family="Courier,monospace" font-size="10.00">libMesh::ParallelObject</text>
</a>
</g>
</g>
<!-- Node8&#45;&gt;Node3 -->
<g id="edge7" class="edge">
<title>Node8&#45;&gt;Node3</title>
<path fill="none" stroke="#63b8ff" d="M336.48,-76.63C364.07,-82.12 395.96,-88.46 420.62,-93.37"/>
<polygon fill="#63b8ff" stroke="#63b8ff" points="337.32,-73.23 326.83,-74.71 335.95,-80.09 337.32,-73.23"/>
</g>
<!-- Node9 -->
<g id="node9" class="node">
<title>Node9</title>
<g id="a_node9"><a xlink:href="classDataFileInterface.html" target="_top" xlink:title=" ">
<polygon fill="white" stroke="#666666" points="337,-36.5 212,-36.5 212,-6.5 337,-6.5 337,-36.5"/>
<text text-anchor="start" x="220" y="-24.5" font-family="Courier,monospace" font-size="10.00">DataFileInterface&lt;</text>
<text text-anchor="middle" x="274.5" y="-13.5" font-family="Courier,monospace" font-size="10.00"> MooseObject &gt;</text>
</a>
</g>
</g>
<!-- Node9&#45;&gt;Node3 -->
<g id="edge8" class="edge">
<title>Node9&#45;&gt;Node3</title>
<path fill="none" stroke="#63b8ff" d="M347.62,-37.49C353.32,-39.82 358.86,-42.47 364,-45.5 383.77,-57.14 380.43,-70.52 400,-82.5 406.29,-86.35 413.42,-89.48 420.55,-92"/>
<polygon fill="#63b8ff" stroke="#63b8ff" points="349.23,-34.35 338.64,-34.17 346.8,-40.92 349.23,-34.35"/>
</g>
<!-- Node10 -->
<g id="node10" class="node">
<title>Node10</title>
<g id="a_node10"><a xlink:href="classPerfGraphInterface.html" target="_top" xlink:title="Interface for objects interacting with the PerfGraph.">
<polygon fill="white" stroke="#666666" points="525,-74 400,-74 400,-55 525,-55 525,-74"/>
<text text-anchor="middle" x="462.5" y="-62" font-family="Courier,monospace" font-size="10.00">PerfGraphInterface</text>
</a>
</g>
</g>
<!-- Node10&#45;&gt;Node2 -->
<g id="edge9" class="edge">
<title>Node10&#45;&gt;Node2</title>
<path fill="none" stroke="#63b8ff" d="M536.62,-74.95C545.09,-76.16 553.31,-77.33 560.64,-78.38"/>
<polygon fill="#63b8ff" stroke="#63b8ff" points="537.29,-71.51 526.89,-73.56 536.3,-78.43 537.29,-71.51"/>
</g>
<!-- Node13 -->
<g id="node13" class="node">
<title>Node13</title>
<g id="a_node13"><a xlink:href="classDumpObjectsProblem.html" target="_top" xlink:title="Specialization of SubProblem for dumping generated objects as input file syntax.">
<polygon fill="white" stroke="#666666" points="1043,-130 918,-130 918,-111 1043,-111 1043,-130"/>
<text text-anchor="middle" x="980.5" y="-118" font-family="Courier,monospace" font-size="10.00">DumpObjectsProblem</text>
</a>
</g>
</g>
<!-- Node12&#45;&gt;Node13 -->
<g id="edge12" class="edge">
<title>Node12&#45;&gt;Node13</title>
<path fill="none" stroke="#63b8ff" d="M871.46,-78.25C875.06,-79.6 878.61,-81.03 882,-82.5 898.78,-89.8 901.11,-95.44 918,-102.5 925.19,-105.5 933.04,-108.21 940.66,-110.56"/>
<polygon fill="#63b8ff" stroke="#63b8ff" points="872.66,-74.97 862.07,-74.93 870.32,-81.56 872.66,-74.97"/>
</g>
<!-- Node14 -->
<g id="node14" class="node">
<title>Node14</title>
<g id="a_node14"><a xlink:href="classEigenProblem.html" target="_top" xlink:title="Problem for solving eigenvalue problems.">
<polygon fill="white" stroke="#666666" points="1025,-93 936,-93 936,-74 1025,-74 1025,-93"/>
<text text-anchor="middle" x="980.5" y="-81" font-family="Courier,monospace" font-size="10.00">EigenProblem</text>
</a>
</g>
</g>
<!-- Node12&#45;&gt;Node14 -->
<g id="edge13" class="edge">
<title>Node12&#45;&gt;Node14</title>
<path fill="none" stroke="#63b8ff" d="M884.21,-71.67C901.26,-73.78 919.64,-76.07 935.66,-78.06"/>
<polygon fill="#63b8ff" stroke="#63b8ff" points="885.09,-68.25 874.74,-70.49 884.23,-75.2 885.09,-68.25"/>
</g>
<!-- Node15 -->
<g id="node15" class="node">
<title>Node15</title>
<g id="a_node15"><a xlink:href="classExternalProblem.html" target="_top" xlink:title=" ">
<polygon fill="white" stroke="#666666" points="1034,-56 927,-56 927,-37 1034,-37 1034,-56"/>
<text text-anchor="middle" x="980.5" y="-44" font-family="Courier,monospace" font-size="10.00">ExternalProblem</text>
</a>
</g>
</g>
<!-- Node12&#45;&gt;Node15 -->
<g id="edge14" class="edge">
<title>Node12&#45;&gt;Node15</title>
<path fill="none" stroke="#63b8ff" d="M884.6,-57.67C898.41,-56.04 913.07,-54.32 926.63,-52.72"/>
<polygon fill="#63b8ff" stroke="#63b8ff" points="884.26,-54.18 874.74,-58.82 885.08,-61.13 884.26,-54.18"/>
</g>
<!-- Node16 -->
<g id="node16" class="node">
<title>Node16</title>
<g id="a_node16"><a xlink:href="classFEProblem.html" target="_top" xlink:title="Specialization of SubProblem for solving nonlinear equations plus auxiliary equations.">
<polygon fill="white" stroke="#666666" points="1016,-19 945,-19 945,0 1016,0 1016,-19"/>
<text text-anchor="middle" x="980.5" y="-7" font-family="Courier,monospace" font-size="10.00">FEProblem</text>
</a>
</g>
</g>
<!-- Node12&#45;&gt;Node16 -->
<g id="edge15" class="edge">
<title>Node12&#45;&gt;Node16</title>
<path fill="none" stroke="#63b8ff" d="M859.35,-50.29C876.64,-43.05 898.3,-34.35 918,-27.5 926.51,-24.54 935.79,-21.65 944.51,-19.09"/>
<polygon fill="#63b8ff" stroke="#63b8ff" points="858.44,-46.88 850.59,-54 861.17,-53.32 858.44,-46.88"/>
</g>
<!-- Node17 -->
<g id="node17" class="node">
<title>Node17</title>
<g id="a_node17"><a xlink:href="classReferenceResidualProblem.html" target="_top" xlink:title="FEProblemBase derived class to enable convergence checking relative to a user&#45;specified postprocessor...">
<polygon fill="white" stroke="#666666" points="1240,-19 1079,-19 1079,0 1240,0 1240,-19"/>
<text text-anchor="middle" x="1159.5" y="-7" font-family="Courier,monospace" font-size="10.00">ReferenceResidualProblem</text>
</a>
</g>
</g>
<!-- Node16&#45;&gt;Node17 -->
<g id="edge16" class="edge">
<title>Node16&#45;&gt;Node17</title>
<path fill="none" stroke="#63b8ff" d="M1027.87,-9.5C1043.4,-9.5 1061.2,-9.5 1078.56,-9.5"/>
<polygon fill="#63b8ff" stroke="#63b8ff" points="1027.98,-6 1017.98,-9.5 1027.98,-13 1027.98,-6"/>
</g>
</g>
</svg>
        <g id="navigator" transform="translate(0 0)" fill="#404254">
                <rect fill="#f2f5e9" fill-opacity="0.5" stroke="#606060" stroke-width=".5" x="0" y="0" width="60" height="60"/>
                <use id="zoomplus" xlink:href="#zoomPlus" x="17" y="9" onmousedown="handleZoom(evt,'in')"/>
                <use id="zoomminus" xlink:href="#zoomMin" x="42" y="9" onmousedown="handleZoom(evt,'out')"/>
                <use id="reset" xlink:href="#resetDef" x="30" y="36" onmousedown="handleReset()"/>
                <g id="arrowUp" xlink:href="#dirArrow" transform="translate(30 24)" onmousedown="handlePan(0,-1)">
                  <use xlink:href="#rim" fill="#404040">
                        <set attributeName="fill" to="#808080" begin="arrowUp.mouseover" end="arrowUp.mouseout"/>
                  </use>
                  <path fill="none" stroke="white" stroke-width="1.5" d="M0,-3.0v7 M-2.5,-0.5L0,-3.0L2.5,-0.5"/>
                </g>
                <g id="arrowRight" xlink:href="#dirArrow" transform="rotate(90) translate(36 -43)" onmousedown="handlePan(1,0)">
                  <use xlink:href="#rim" fill="#404040">
                        <set attributeName="fill" to="#808080" begin="arrowRight.mouseover" end="arrowRight.mouseout"/>
                  </use>
                  <path fill="none" stroke="white" stroke-width="1.5" d="M0,-3.0v7 M-2.5,-0.5L0,-3.0L2.5,-0.5"/>
                </g>
                <g id="arrowDown" xlink:href="#dirArrow" transform="rotate(180) translate(-30 -48)" onmousedown="handlePan(0,1)">
                  <use xlink:href="#rim" fill="#404040">
                        <set attributeName="fill" to="#808080" begin="arrowDown.mouseover" end="arrowDown.mouseout"/>
                  </use>
                  <path fill="none" stroke="white" stroke-width="1.5" d="M0,-3.0v7 M-2.5,-0.5L0,-3.0L2.5,-0.5"/>
                </g>
                <g id="arrowLeft" xlink:href="#dirArrow" transform="rotate(270) translate(-36 17)" onmousedown="handlePan(-1,0)">
                  <use xlink:href="#rim" fill="#404040">
                        <set attributeName="fill" to="#808080" begin="arrowLeft.mouseover" end="arrowLeft.mouseout"/>
                  </use>
                  <path fill="none" stroke="white" stroke-width="1.5" d="M0,-3.0v7 M-2.5,-0.5L0,-3.0L2.5,-0.5"/>
                </g>
        </g>
        <svg viewBox="0 0 15 15" width="100%" height="30px" preserveAspectRatio="xMaxYMin meet">
         <g id="arrow_out" transform="scale(0.3 0.3)">
          <a xlink:href="classSubProblem__inherit__graph_org.svg" target="_base">
           <rect id="button" ry="5" rx="5" y="6" x="6" height="38" width="38"
                fill="#f2f5e9" fill-opacity="0.5" stroke="#606060" stroke-width="1.0"/>
           <path id="arrow"
             d="M 11.500037,31.436501 C 11.940474,20.09759 22.043105,11.32322 32.158766,21.979434 L 37.068811,17.246167 C 37.068811,17.246167 37.088388,32 37.088388,32 L 22.160133,31.978069 C 22.160133,31.978069 26.997745,27.140456 26.997745,27.140456 C 18.528582,18.264221 13.291696,25.230495 11.500037,31.436501 z"
             style="fill:#404040;"/>
          </a>
         </g>
        </svg>
</svg>
