<?xml version="1.0" encoding="UTF-8" standalone="no"?>
<!DOCTYPE svg PUBLIC "-//W3C//DTD SVG 1.1//EN"
 "http://www.w3.org/Graphics/SVG/1.1/DTD/svg11.dtd">
<!-- Generated by graphviz version 7.0.5 (20221223.1930)
 -->
<!-- Title: RankMap Pages: 1 -->
<svg width="252pt" height="82pt"
 viewBox="0.00 0.00 252.00 82.00" xmlns="http://www.w3.org/2000/svg" xmlns:xlink="http://www.w3.org/1999/xlink">
<g id="graph0" class="graph" transform="scale(1 1) rotate(0) translate(4 78)">
<title>RankMap</title>
<!-- Node1 -->
<g id="node1" class="node">
<title>Node1</title>
<g id="a_node1"><a xlink:title="Builds lists and maps that help in knowing which physical hardware nodes each rank is on.">
<polygon fill="#999999" stroke="#666666" points="145,-19 86,-19 86,0 145,0 145,-19"/>
<text text-anchor="middle" x="115.5" y="-7" font-family="Courier,monospace" font-size="10.00">RankMap</text>
</a>
</g>
</g>
<!-- Node2 -->
<g id="node2" class="node">
<title>Node2</title>
<g id="a_node2"><a xlink:title=" ">
<polygon fill="white" stroke="#666666" points="101,-74 0,-74 0,-55 101,-55 101,-74"/>
<text text-anchor="middle" x="50.5" y="-62" font-family="Courier,monospace" font-size="10.00">ParallelObject</text>
</a>
</g>
</g>
<!-- Node2&#45;&gt;Node1 -->
<g id="edge1" class="edge">
<title>Node2&#45;&gt;Node1</title>
<path fill="none" stroke="#8b1a1a" d="M70.29,-47.37C81.58,-38.16 95.29,-26.98 104.64,-19.36"/>
<polygon fill="#8b1a1a" stroke="#8b1a1a" points="68.24,-44.52 62.7,-53.55 72.66,-49.95 68.24,-44.52"/>
</g>
<!-- Node3 -->
<g id="node3" class="node">
<title>Node3</title>
<g id="a_node3"><a xlink:href="classPerfGraphInterface.html" target="_top" xlink:title="Interface for objects interacting with the PerfGraph.">
<polygon fill="white" stroke="#666666" points="244,-74 119,-74 119,-55 244,-55 244,-74"/>
<text text-anchor="middle" x="181.5" y="-62" font-family="Courier,monospace" font-size="10.00">PerfGraphInterface</text>
</a>
</g>
</g>
<!-- Node3&#45;&gt;Node1 -->
<g id="edge2" class="edge">
<title>Node3&#45;&gt;Node1</title>
<path fill="none" stroke="#8b1a1a" d="M161.41,-47.37C149.95,-38.16 136.02,-26.98 126.53,-19.36"/>
<polygon fill="#8b1a1a" stroke="#8b1a1a" points="159.14,-50.03 169.12,-53.56 163.52,-44.57 159.14,-50.03"/>
</g>
</g>
</svg>
