<?xml version="1.0" encoding="UTF-8" standalone="no"?>
<!DOCTYPE svg PUBLIC "-//W3C//DTD SVG 1.1//EN"
 "http://www.w3.org/Graphics/SVG/1.1/DTD/svg11.dtd">
<!-- Generated by graphviz version 7.0.5 (20221223.1930)
 -->
<!-- Title: moose/framework/include Pages: 1 -->
<svg width="5642pt" height="94pt"
 viewBox="0.00 0.00 5642.00 94.00" xmlns="http://www.w3.org/2000/svg" xmlns:xlink="http://www.w3.org/1999/xlink">
<g id="graph0" class="graph" transform="scale(1 1) rotate(0) translate(4 90)">
<title>moose/framework/include</title>
<g id="clust1" class="cluster">
<title>clusterdir_6f4eeb6ddb4ae754f551cb2d3dec9e8e</title>
<g id="a_clust1"><a xlink:href="dir_6f4eeb6ddb4ae754f551cb2d3dec9e8e.html" target="_top" xlink:title="framework">
<polygon fill="#edf0f7" stroke="#7f7f7f" stroke-dasharray="5,2" points="8,-8 8,-78 5626,-78 5626,-8 8,-8"/>
<text text-anchor="middle" x="2817" y="-66" font-family="Courier,monospace" font-size="10.00">framework</text>
</a>
</g>
</g>
<g id="clust2" class="cluster">
<title>clusterdir_c93db0d741ce16b279e255e30f2a15df</title>
<g id="a_clust2"><a xlink:href="dir_c93db0d741ce16b279e255e30f2a15df.html" target="_top">
<polygon fill="#edf0f7" stroke="#404040" stroke-width="2" points="16,-16 16,-51 5618,-51 5618,-16 16,-16"/>
</a>
</g>
</g>
<!-- dir_c93db0d741ce16b279e255e30f2a15df -->
<g id="node1" class="node">
<title>dir_c93db0d741ce16b279e255e30f2a15df</title>
<text text-anchor="middle" x="5580" y="-31" font-family="Courier,monospace" font-size="10.00">include</text>
</g>
<!-- dir_df8666b5f0955b1ef6e7f85fdf8577ce -->
<g id="node2" class="node">
<title>dir_df8666b5f0955b1ef6e7f85fdf8577ce</title>
<g id="a_node2"><a xlink:href="dir_df8666b5f0955b1ef6e7f85fdf8577ce.html" target="_top" xlink:title="actions">
<polygon fill="#a2b4d6" stroke="#404040" points="5532.5,-43 5473.5,-43 5473.5,-24 5532.5,-24 5532.5,-43"/>
<text text-anchor="middle" x="5503" y="-31" font-family="Courier,monospace" font-size="10.00">actions</text>
</a>
</g>
</g>
<!-- dir_a8ad16583e689646b505038d660994d7 -->
<g id="node3" class="node">
<title>dir_a8ad16583e689646b505038d660994d7</title>
<g id="a_node3"><a xlink:href="dir_a8ad16583e689646b505038d660994d7.html" target="_top" xlink:title="auxkernels">
<polygon fill="#a2b4d6" stroke="#404040" points="5455.5,-43 5378.5,-43 5378.5,-24 5455.5,-24 5455.5,-43"/>
<text text-anchor="middle" x="5417" y="-31" font-family="Courier,monospace" font-size="10.00">auxkernels</text>
</a>
</g>
</g>
<!-- dir_7a8ca7959736cd5bffd7b71fcd16b3e0 -->
<g id="node4" class="node">
<title>dir_7a8ca7959736cd5bffd7b71fcd16b3e0</title>
<g id="a_node4"><a xlink:href="dir_7a8ca7959736cd5bffd7b71fcd16b3e0.html" target="_top" xlink:title="base">
<polygon fill="#a2b4d6" stroke="#404040" points="5360.5,-43 5319.5,-43 5319.5,-24 5360.5,-24 5360.5,-43"/>
<text text-anchor="middle" x="5340" y="-31" font-family="Courier,monospace" font-size="10.00">base</text>
</a>
</g>
</g>
<!-- dir_36d557c269d8ff9ae01816d8262b296d -->
<g id="node5" class="node">
<title>dir_36d557c269d8ff9ae01816d8262b296d</title>
<g id="a_node5"><a xlink:href="dir_36d557c269d8ff9ae01816d8262b296d.html" target="_top" xlink:title="bcs">
<polygon fill="#a2b4d6" stroke="#404040" points="5301.5,-43 5266.5,-43 5266.5,-24 5301.5,-24 5301.5,-43"/>
<text text-anchor="middle" x="5284" y="-31" font-family="Courier,monospace" font-size="10.00">bcs</text>
</a>
</g>
</g>
<!-- dir_5122b1eceafc5a52b755a7f25140cc76 -->
<g id="node6" class="node">
<title>dir_5122b1eceafc5a52b755a7f25140cc76</title>
<g id="a_node6"><a xlink:href="dir_5122b1eceafc5a52b755a7f25140cc76.html" target="_top" xlink:title="constraints">
<polygon fill="#a2b4d6" stroke="#404040" points="5248.5,-43 5165.5,-43 5165.5,-24 5248.5,-24 5248.5,-43"/>
<text text-anchor="middle" x="5207" y="-31" font-family="Courier,monospace" font-size="10.00">constraints</text>
</a>
</g>
</g>
<!-- dir_891ed8e669f1234d7fc4aa63c88d30a6 -->
<g id="node7" class="node">
<title>dir_891ed8e669f1234d7fc4aa63c88d30a6</title>
<g id="a_node7"><a xlink:href="dir_891ed8e669f1234d7fc4aa63c88d30a6.html" target="_top" xlink:title="controls">
<polygon fill="#a2b4d6" stroke="#404040" points="5147.5,-43 5082.5,-43 5082.5,-24 5147.5,-24 5147.5,-43"/>
<text text-anchor="middle" x="5115" y="-31" font-family="Courier,monospace" font-size="10.00">controls</text>
</a>
</g>
</g>
<!-- dir_8e2357981c817868e858473d5b059d6b -->
<g id="node8" class="node">
<title>dir_8e2357981c817868e858473d5b059d6b</title>
<g id="a_node8"><a xlink:href="dir_8e2357981c817868e858473d5b059d6b.html" target="_top" xlink:title="dampers">
<polygon fill="#a2b4d6" stroke="#404040" points="5064.5,-43 5005.5,-43 5005.5,-24 5064.5,-24 5064.5,-43"/>
<text text-anchor="middle" x="5035" y="-31" font-family="Courier,monospace" font-size="10.00">dampers</text>
</a>
</g>
</g>
<!-- dir_f3c651d7688e8bfde148a63fd8b3b433 -->
<g id="node9" class="node">
<title>dir_f3c651d7688e8bfde148a63fd8b3b433</title>
<g id="a_node9"><a xlink:href="dir_f3c651d7688e8bfde148a63fd8b3b433.html" target="_top" xlink:title="dgkernels">
<polygon fill="#a2b4d6" stroke="#404040" points="4987.5,-43 4916.5,-43 4916.5,-24 4987.5,-24 4987.5,-43"/>
<text text-anchor="middle" x="4952" y="-31" font-family="Courier,monospace" font-size="10.00">dgkernels</text>
</a>
</g>
</g>
<!-- dir_77d897cce679d31ebbe7f88b09ab78af -->
<g id="node10" class="node">
<title>dir_77d897cce679d31ebbe7f88b09ab78af</title>
<g id="a_node10"><a xlink:href="dir_77d897cce679d31ebbe7f88b09ab78af.html" target="_top" xlink:title="dirackernels">
<polygon fill="#a2b4d6" stroke="#404040" points="4898.5,-43 4809.5,-43 4809.5,-24 4898.5,-24 4898.5,-43"/>
<text text-anchor="middle" x="4854" y="-31" font-family="Courier,monospace" font-size="10.00">dirackernels</text>
</a>
</g>
</g>
<!-- dir_2158b2584144ddc23094dd169222359d -->
<g id="node11" class="node">
<title>dir_2158b2584144ddc23094dd169222359d</title>
<g id="a_node11"><a xlink:href="dir_2158b2584144ddc23094dd169222359d.html" target="_top" xlink:title="distributions">
<polygon fill="#a2b4d6" stroke="#404040" points="4791.5,-43 4696.5,-43 4696.5,-24 4791.5,-24 4791.5,-43"/>
<text text-anchor="middle" x="4744" y="-31" font-family="Courier,monospace" font-size="10.00">distributions</text>
</a>
</g>
</g>
<!-- dir_a68a1e835461ac4e298aa49ddcc0045a -->
<g id="node12" class="node">
<title>dir_a68a1e835461ac4e298aa49ddcc0045a</title>
<g id="a_node12"><a xlink:href="dir_a68a1e835461ac4e298aa49ddcc0045a.html" target="_top" xlink:title="executioners">
<polygon fill="#a2b4d6" stroke="#404040" points="4678.5,-43 4589.5,-43 4589.5,-24 4678.5,-24 4678.5,-43"/>
<text text-anchor="middle" x="4634" y="-31" font-family="Courier,monospace" font-size="10.00">executioners</text>
</a>
</g>
</g>
<!-- dir_6f01407bd5ebe68f0f7f6fa3b3b8e58e -->
<g id="node13" class="node">
<title>dir_6f01407bd5ebe68f0f7f6fa3b3b8e58e</title>
<g id="a_node13"><a xlink:href="dir_6f01407bd5ebe68f0f7f6fa3b3b8e58e.html" target="_top" xlink:title="executors">
<polygon fill="#a2b4d6" stroke="#404040" points="4571.5,-43 4500.5,-43 4500.5,-24 4571.5,-24 4571.5,-43"/>
<text text-anchor="middle" x="4536" y="-31" font-family="Courier,monospace" font-size="10.00">executors</text>
</a>
</g>
</g>
<!-- dir_f64729673eb8f9b5ceb509273ed00b78 -->
<g id="node14" class="node">
<title>dir_f64729673eb8f9b5ceb509273ed00b78</title>
<g id="a_node14"><a xlink:href="dir_f64729673eb8f9b5ceb509273ed00b78.html" target="_top" xlink:title="functions">
<polygon fill="#a2b4d6" stroke="#404040" points="4482.5,-43 4411.5,-43 4411.5,-24 4482.5,-24 4482.5,-43"/>
<text text-anchor="middle" x="4447" y="-31" font-family="Courier,monospace" font-size="10.00">functions</text>
</a>
</g>
</g>
<!-- dir_cffc3cd9f76fe81500936a2076a27d71 -->
<g id="node15" class="node">
<title>dir_cffc3cd9f76fe81500936a2076a27d71</title>
<g id="a_node15"><a xlink:href="dir_cffc3cd9f76fe81500936a2076a27d71.html" target="_top" xlink:title="functormaterials">
<polygon fill="#a2b4d6" stroke="#404040" points="4393.5,-43 4280.5,-43 4280.5,-24 4393.5,-24 4393.5,-43"/>
<text text-anchor="middle" x="4337" y="-31" font-family="Courier,monospace" font-size="10.00">functormaterials</text>
</a>
</g>
</g>
<!-- dir_f40b5d92f573bcd8508117ec1173d512 -->
<g id="node16" class="node">
<title>dir_f40b5d92f573bcd8508117ec1173d512</title>
<g id="a_node16"><a xlink:href="dir_f40b5d92f573bcd8508117ec1173d512.html" target="_top" xlink:title="fvbcs">
<polygon fill="#a2b4d6" stroke="#404040" points="4262.5,-43 4215.5,-43 4215.5,-24 4262.5,-24 4262.5,-43"/>
<text text-anchor="middle" x="4239" y="-31" font-family="Courier,monospace" font-size="10.00">fvbcs</text>
</a>
</g>
</g>
<!-- dir_602136036971b62c1a34e3da3b35a3b9 -->
<g id="node17" class="node">
<title>dir_602136036971b62c1a34e3da3b35a3b9</title>
<g id="a_node17"><a xlink:href="dir_602136036971b62c1a34e3da3b35a3b9.html" target="_top" xlink:title="fvics">
<polygon fill="#a2b4d6" stroke="#404040" points="4197.5,-43 4150.5,-43 4150.5,-24 4197.5,-24 4197.5,-43"/>
<text text-anchor="middle" x="4174" y="-31" font-family="Courier,monospace" font-size="10.00">fvics</text>
</a>
</g>
</g>
<!-- dir_8b10eac093a04a6b2370f45403bfd986 -->
<g id="node18" class="node">
<title>dir_8b10eac093a04a6b2370f45403bfd986</title>
<g id="a_node18"><a xlink:href="dir_8b10eac093a04a6b2370f45403bfd986.html" target="_top" xlink:title="fviks">
<polygon fill="#a2b4d6" stroke="#404040" points="4132.5,-43 4085.5,-43 4085.5,-24 4132.5,-24 4132.5,-43"/>
<text text-anchor="middle" x="4109" y="-31" font-family="Courier,monospace" font-size="10.00">fviks</text>
</a>
</g>
</g>
<!-- dir_1841f435d5c521f0214a7f2881a281f8 -->
<g id="node19" class="node">
<title>dir_1841f435d5c521f0214a7f2881a281f8</title>
<g id="a_node19"><a xlink:href="dir_1841f435d5c521f0214a7f2881a281f8.html" target="_top" xlink:title="fvkernels">
<polygon fill="#a2b4d6" stroke="#404040" points="4067.5,-43 3996.5,-43 3996.5,-24 4067.5,-24 4067.5,-43"/>
<text text-anchor="middle" x="4032" y="-31" font-family="Courier,monospace" font-size="10.00">fvkernels</text>
</a>
</g>
</g>
<!-- dir_c36b3bdea5faedcf8ae64f01d892fa9d -->
<g id="node20" class="node">
<title>dir_c36b3bdea5faedcf8ae64f01d892fa9d</title>
<g id="a_node20"><a xlink:href="dir_c36b3bdea5faedcf8ae64f01d892fa9d.html" target="_top" xlink:title="geomsearch">
<polygon fill="#a2b4d6" stroke="#404040" points="3978.5,-43 3901.5,-43 3901.5,-24 3978.5,-24 3978.5,-43"/>
<text text-anchor="middle" x="3940" y="-31" font-family="Courier,monospace" font-size="10.00">geomsearch</text>
</a>
</g>
</g>
<!-- dir_518afcf25dce95dd02061c787f91935a -->
<g id="node21" class="node">
<title>dir_518afcf25dce95dd02061c787f91935a</title>
<g id="a_node21"><a xlink:href="dir_518afcf25dce95dd02061c787f91935a.html" target="_top" xlink:title="ics">
<polygon fill="#a2b4d6" stroke="#404040" points="3883.5,-43 3848.5,-43 3848.5,-24 3883.5,-24 3883.5,-43"/>
<text text-anchor="middle" x="3866" y="-31" font-family="Courier,monospace" font-size="10.00">ics</text>
</a>
</g>
</g>
<!-- dir_d44b2a5b577f36d345bc24d95cccf4d1 -->
<g id="node22" class="node">
<title>dir_d44b2a5b577f36d345bc24d95cccf4d1</title>
<g id="a_node22"><a xlink:href="dir_d44b2a5b577f36d345bc24d95cccf4d1.html" target="_top" xlink:title="indicators">
<polygon fill="#a2b4d6" stroke="#404040" points="3830.5,-43 3753.5,-43 3753.5,-24 3830.5,-24 3830.5,-43"/>
<text text-anchor="middle" x="3792" y="-31" font-family="Courier,monospace" font-size="10.00">indicators</text>
</a>
</g>
</g>
<!-- dir_c89af908299c7b3c6600ad03d4935eb2 -->
<g id="node23" class="node">
<title>dir_c89af908299c7b3c6600ad03d4935eb2</title>
<g id="a_node23"><a xlink:href="dir_c89af908299c7b3c6600ad03d4935eb2.html" target="_top" xlink:title="interfacekernels">
<polygon fill="#a2b4d6" stroke="#404040" points="3735.5,-43 3622.5,-43 3622.5,-24 3735.5,-24 3735.5,-43"/>
<text text-anchor="middle" x="3679" y="-31" font-family="Courier,monospace" font-size="10.00">interfacekernels</text>
</a>
</g>
</g>
<!-- dir_df739f8d34f28ebc47eca321c3752d64 -->
<g id="node24" class="node">
<title>dir_df739f8d34f28ebc47eca321c3752d64</title>
<g id="a_node24"><a xlink:href="dir_df739f8d34f28ebc47eca321c3752d64.html" target="_top" xlink:title="interfaces">
<polygon fill="#a2b4d6" stroke="#404040" points="3604.5,-43 3527.5,-43 3527.5,-24 3604.5,-24 3604.5,-43"/>
<text text-anchor="middle" x="3566" y="-31" font-family="Courier,monospace" font-size="10.00">interfaces</text>
</a>
</g>
</g>
<!-- dir_fbeb8779ae072d19f92f3a64ed066570 -->
<g id="node25" class="node">
<title>dir_fbeb8779ae072d19f92f3a64ed066570</title>
<g id="a_node25"><a xlink:href="dir_fbeb8779ae072d19f92f3a64ed066570.html" target="_top" xlink:title="kernels">
<polygon fill="#a2b4d6" stroke="#404040" points="3509.5,-43 3450.5,-43 3450.5,-24 3509.5,-24 3509.5,-43"/>
<text text-anchor="middle" x="3480" y="-31" font-family="Courier,monospace" font-size="10.00">kernels</text>
</a>
</g>
</g>
<!-- dir_f1ef69d48657eb61dd38e5b505eb6e39 -->
<g id="node26" class="node">
<title>dir_f1ef69d48657eb61dd38e5b505eb6e39</title>
<g id="a_node26"><a xlink:href="dir_f1ef69d48657eb61dd38e5b505eb6e39.html" target="_top" xlink:title="libtorch">
<polygon fill="#a2b4d6" stroke="#404040" points="3432.5,-43 3367.5,-43 3367.5,-24 3432.5,-24 3432.5,-43"/>
<text text-anchor="middle" x="3400" y="-31" font-family="Courier,monospace" font-size="10.00">libtorch</text>
</a>
</g>
</g>
<!-- dir_7b53f4582fcd1a072d0347a877c5fd68 -->
<g id="node27" class="node">
<title>dir_7b53f4582fcd1a072d0347a877c5fd68</title>
<g id="a_node27"><a xlink:href="dir_7b53f4582fcd1a072d0347a877c5fd68.html" target="_top" xlink:title="limiters">
<polygon fill="#a2b4d6" stroke="#404040" points="3349.5,-43 3284.5,-43 3284.5,-24 3349.5,-24 3349.5,-43"/>
<text text-anchor="middle" x="3317" y="-31" font-family="Courier,monospace" font-size="10.00">limiters</text>
</a>
</g>
</g>
<!-- dir_095cba08516d8c665716d94feb53d39f -->
<g id="node28" class="node">
<title>dir_095cba08516d8c665716d94feb53d39f</title>
<g id="a_node28"><a xlink:href="dir_095cba08516d8c665716d94feb53d39f.html" target="_top" xlink:title="linesearches">
<polygon fill="#a2b4d6" stroke="#404040" points="3266.5,-43 3177.5,-43 3177.5,-24 3266.5,-24 3266.5,-43"/>
<text text-anchor="middle" x="3222" y="-31" font-family="Courier,monospace" font-size="10.00">linesearches</text>
</a>
</g>
</g>
<!-- dir_e30442b15eb7f03dc5b9ff3b2b9298ba -->
<g id="node29" class="node">
<title>dir_e30442b15eb7f03dc5b9ff3b2b9298ba</title>
<g id="a_node29"><a xlink:href="dir_e30442b15eb7f03dc5b9ff3b2b9298ba.html" target="_top" xlink:title="loops">
<polygon fill="#a2b4d6" stroke="#404040" points="3159.5,-43 3112.5,-43 3112.5,-24 3159.5,-24 3159.5,-43"/>
<text text-anchor="middle" x="3136" y="-31" font-family="Courier,monospace" font-size="10.00">loops</text>
</a>
</g>
</g>
<!-- dir_f7ea8c8215ac90491cc6fa7a78748010 -->
<g id="node30" class="node">
<title>dir_f7ea8c8215ac90491cc6fa7a78748010</title>
<g id="a_node30"><a xlink:href="dir_f7ea8c8215ac90491cc6fa7a78748010.html" target="_top" xlink:title="markers">
<polygon fill="#a2b4d6" stroke="#404040" points="3094.5,-43 3035.5,-43 3035.5,-24 3094.5,-24 3094.5,-43"/>
<text text-anchor="middle" x="3065" y="-31" font-family="Courier,monospace" font-size="10.00">markers</text>
</a>
</g>
</g>
<!-- dir_73a3d8061dcefcfcca8d4ed0953dfd75 -->
<g id="node31" class="node">
<title>dir_73a3d8061dcefcfcca8d4ed0953dfd75</title>
<g id="a_node31"><a xlink:href="dir_73a3d8061dcefcfcca8d4ed0953dfd75.html" target="_top" xlink:title="materials">
<polygon fill="#a2b4d6" stroke="#404040" points="3017.5,-43 2946.5,-43 2946.5,-24 3017.5,-24 3017.5,-43"/>
<text text-anchor="middle" x="2982" y="-31" font-family="Courier,monospace" font-size="10.00">materials</text>
</a>
</g>
</g>
<!-- dir_669920dba223590eef36c1a754229552 -->
<g id="node32" class="node">
<title>dir_669920dba223590eef36c1a754229552</title>
<g id="a_node32"><a xlink:href="dir_669920dba223590eef36c1a754229552.html" target="_top" xlink:title="mesh">
<polygon fill="#a2b4d6" stroke="#404040" points="2928.5,-43 2887.5,-43 2887.5,-24 2928.5,-24 2928.5,-43"/>
<text text-anchor="middle" x="2908" y="-31" font-family="Courier,monospace" font-size="10.00">mesh</text>
</a>
</g>
</g>
<!-- dir_b37e9cabd16c02e2bbc0ee4068be66ba -->
<g id="node33" class="node">
<title>dir_b37e9cabd16c02e2bbc0ee4068be66ba</title>
<g id="a_node33"><a xlink:href="dir_b37e9cabd16c02e2bbc0ee4068be66ba.html" target="_top" xlink:title="meshdivisions">
<polygon fill="#a2b4d6" stroke="#404040" points="2869.5,-43 2774.5,-43 2774.5,-24 2869.5,-24 2869.5,-43"/>
<text text-anchor="middle" x="2822" y="-31" font-family="Courier,monospace" font-size="10.00">meshdivisions</text>
</a>
</g>
</g>
<!-- dir_e0ab034376032c771d72740defe3a594 -->
<g id="node34" class="node">
<title>dir_e0ab034376032c771d72740defe3a594</title>
<g id="a_node34"><a xlink:href="dir_e0ab034376032c771d72740defe3a594.html" target="_top" xlink:title="meshgenerators">
<polygon fill="#a2b4d6" stroke="#404040" points="2756.5,-43 2655.5,-43 2655.5,-24 2756.5,-24 2756.5,-43"/>
<text text-anchor="middle" x="2706" y="-31" font-family="Courier,monospace" font-size="10.00">meshgenerators</text>
</a>
</g>
</g>
<!-- dir_e5b353a149cbd5e22edddb6f12783c37 -->
<g id="node35" class="node">
<title>dir_e5b353a149cbd5e22edddb6f12783c37</title>
<g id="a_node35"><a xlink:href="dir_e5b353a149cbd5e22edddb6f12783c37.html" target="_top" xlink:title="multiapps">
<polygon fill="#a2b4d6" stroke="#404040" points="2637.5,-43 2566.5,-43 2566.5,-24 2637.5,-24 2637.5,-43"/>
<text text-anchor="middle" x="2602" y="-31" font-family="Courier,monospace" font-size="10.00">multiapps</text>
</a>
</g>
</g>
<!-- dir_bef7453d12cc3749b6653ebf66d335e5 -->
<g id="node36" class="node">
<title>dir_bef7453d12cc3749b6653ebf66d335e5</title>
<g id="a_node36"><a xlink:href="dir_bef7453d12cc3749b6653ebf66d335e5.html" target="_top" xlink:title="nodalkernels">
<polygon fill="#a2b4d6" stroke="#404040" points="2548.5,-43 2459.5,-43 2459.5,-24 2548.5,-24 2548.5,-43"/>
<text text-anchor="middle" x="2504" y="-31" font-family="Courier,monospace" font-size="10.00">nodalkernels</text>
</a>
</g>
</g>
<!-- dir_fe3a6466e0c3f5c5a0b4f636bd4e04e6 -->
<g id="node37" class="node">
<title>dir_fe3a6466e0c3f5c5a0b4f636bd4e04e6</title>
<g id="a_node37"><a xlink:href="dir_fe3a6466e0c3f5c5a0b4f636bd4e04e6.html" target="_top" xlink:title="outputs">
<polygon fill="#a2b4d6" stroke="#404040" points="2441.5,-43 2382.5,-43 2382.5,-24 2441.5,-24 2441.5,-43"/>
<text text-anchor="middle" x="2412" y="-31" font-family="Courier,monospace" font-size="10.00">outputs</text>
</a>
</g>
</g>
<!-- dir_38045613ae6237d12a232dda5c44ee26 -->
<g id="node38" class="node">
<title>dir_38045613ae6237d12a232dda5c44ee26</title>
<g id="a_node38"><a xlink:href="dir_38045613ae6237d12a232dda5c44ee26.html" target="_top" xlink:title="parser">
<polygon fill="#a2b4d6" stroke="#404040" points="2364.5,-43 2311.5,-43 2311.5,-24 2364.5,-24 2364.5,-43"/>
<text text-anchor="middle" x="2338" y="-31" font-family="Courier,monospace" font-size="10.00">parser</text>
</a>
</g>
</g>
<!-- dir_4fde83578188efff8b9ba8110b16efe9 -->
<g id="node39" class="node">
<title>dir_4fde83578188efff8b9ba8110b16efe9</title>
<g id="a_node39"><a xlink:href="dir_4fde83578188efff8b9ba8110b16efe9.html" target="_top" xlink:title="partitioner">
<polygon fill="#a2b4d6" stroke="#404040" points="2293.5,-43 2210.5,-43 2210.5,-24 2293.5,-24 2293.5,-43"/>
<text text-anchor="middle" x="2252" y="-31" font-family="Courier,monospace" font-size="10.00">partitioner</text>
</a>
</g>
</g>
<!-- dir_3703c1c84c45f9fc071ef601bee4b038 -->
<g id="node40" class="node">
<title>dir_3703c1c84c45f9fc071ef601bee4b038</title>
<g id="a_node40"><a xlink:href="dir_3703c1c84c45f9fc071ef601bee4b038.html" target="_top" xlink:title="positions">
<polygon fill="#a2b4d6" stroke="#404040" points="2192.5,-43 2121.5,-43 2121.5,-24 2192.5,-24 2192.5,-43"/>
<text text-anchor="middle" x="2157" y="-31" font-family="Courier,monospace" font-size="10.00">positions</text>
</a>
</g>
</g>
<!-- dir_687c12e77cbbaef7146be29723c030c0 -->
<g id="node41" class="node">
<title>dir_687c12e77cbbaef7146be29723c030c0</title>
<g id="a_node41"><a xlink:href="dir_687c12e77cbbaef7146be29723c030c0.html" target="_top" xlink:title="postprocessors">
<polygon fill="#a2b4d6" stroke="#404040" points="2103.5,-43 2002.5,-43 2002.5,-24 2103.5,-24 2103.5,-43"/>
<text text-anchor="middle" x="2053" y="-31" font-family="Courier,monospace" font-size="10.00">postprocessors</text>
</a>
</g>
</g>
<!-- dir_ed644539ad6de9d55f277c64810548bd -->
<g id="node42" class="node">
<title>dir_ed644539ad6de9d55f277c64810548bd</title>
<g id="a_node42"><a xlink:href="dir_ed644539ad6de9d55f277c64810548bd.html" target="_top" xlink:title="preconditioners">
<polygon fill="#a2b4d6" stroke="#404040" points="1984.5,-43 1877.5,-43 1877.5,-24 1984.5,-24 1984.5,-43"/>
<text text-anchor="middle" x="1931" y="-31" font-family="Courier,monospace" font-size="10.00">preconditioners</text>
</a>
</g>
</g>
<!-- dir_f7441f6cd85e28c1915914db0e4496db -->
<g id="node43" class="node">
<title>dir_f7441f6cd85e28c1915914db0e4496db</title>
<g id="a_node43"><a xlink:href="dir_f7441f6cd85e28c1915914db0e4496db.html" target="_top" xlink:title="predictors">
<polygon fill="#a2b4d6" stroke="#404040" points="1859.5,-43 1782.5,-43 1782.5,-24 1859.5,-24 1859.5,-43"/>
<text text-anchor="middle" x="1821" y="-31" font-family="Courier,monospace" font-size="10.00">predictors</text>
</a>
</g>
</g>
<!-- dir_d4ace5fbbebe0b4fe1468b8cd827e398 -->
<g id="node44" class="node">
<title>dir_d4ace5fbbebe0b4fe1468b8cd827e398</title>
<g id="a_node44"><a xlink:href="dir_d4ace5fbbebe0b4fe1468b8cd827e398.html" target="_top" xlink:title="problems">
<polygon fill="#a2b4d6" stroke="#404040" points="1764.5,-43 1699.5,-43 1699.5,-24 1764.5,-24 1764.5,-43"/>
<text text-anchor="middle" x="1732" y="-31" font-family="Courier,monospace" font-size="10.00">problems</text>
</a>
</g>
</g>
<!-- dir_31bd49d6ab4e9a4812f70d8832c5f541 -->
<g id="node45" class="node">
<title>dir_31bd49d6ab4e9a4812f70d8832c5f541</title>
<g id="a_node45"><a xlink:href="dir_31bd49d6ab4e9a4812f70d8832c5f541.html" target="_top" xlink:title="relationshipmanagers">
<polygon fill="#a2b4d6" stroke="#404040" points="1681.5,-43 1544.5,-43 1544.5,-24 1681.5,-24 1681.5,-43"/>
<text text-anchor="middle" x="1613" y="-31" font-family="Courier,monospace" font-size="10.00">relationshipmanagers</text>
</a>
</g>
</g>
<!-- dir_80bef823e89bc646166bbca6e949cf54 -->
<g id="node46" class="node">
<title>dir_80bef823e89bc646166bbca6e949cf54</title>
<g id="a_node46"><a xlink:href="dir_80bef823e89bc646166bbca6e949cf54.html" target="_top" xlink:title="reporters">
<polygon fill="#a2b4d6" stroke="#404040" points="1526.5,-43 1455.5,-43 1455.5,-24 1526.5,-24 1526.5,-43"/>
<text text-anchor="middle" x="1491" y="-31" font-family="Courier,monospace" font-size="10.00">reporters</text>
</a>
</g>
</g>
<!-- dir_ed175567583217e1b0f90fb482d35400 -->
<g id="node47" class="node">
<title>dir_ed175567583217e1b0f90fb482d35400</title>
<g id="a_node47"><a xlink:href="dir_ed175567583217e1b0f90fb482d35400.html" target="_top" xlink:title="restart">
<polygon fill="#a2b4d6" stroke="#404040" points="1437.5,-43 1378.5,-43 1378.5,-24 1437.5,-24 1437.5,-43"/>
<text text-anchor="middle" x="1408" y="-31" font-family="Courier,monospace" font-size="10.00">restart</text>
</a>
</g>
</g>
<!-- dir_ac3a967a98a0faab9f600f0203e9fb51 -->
<g id="node48" class="node">
<title>dir_ac3a967a98a0faab9f600f0203e9fb51</title>
<g id="a_node48"><a xlink:href="dir_ac3a967a98a0faab9f600f0203e9fb51.html" target="_top" xlink:title="samplers">
<polygon fill="#a2b4d6" stroke="#404040" points="1360.5,-43 1295.5,-43 1295.5,-24 1360.5,-24 1360.5,-43"/>
<text text-anchor="middle" x="1328" y="-31" font-family="Courier,monospace" font-size="10.00">samplers</text>
</a>
</g>
</g>
<!-- dir_982f888af5ab83c5c1105e33bd587e8e -->
<g id="node49" class="node">
<title>dir_982f888af5ab83c5c1105e33bd587e8e</title>
<g id="a_node49"><a xlink:href="dir_982f888af5ab83c5c1105e33bd587e8e.html" target="_top" xlink:title="scalarkernels">
<polygon fill="#a2b4d6" stroke="#404040" points="1277.5,-43 1182.5,-43 1182.5,-24 1277.5,-24 1277.5,-43"/>
<text text-anchor="middle" x="1230" y="-31" font-family="Courier,monospace" font-size="10.00">scalarkernels</text>
</a>
</g>
</g>
<!-- dir_5f50fc734ab4e4636906798e47186ed0 -->
<g id="node50" class="node">
<title>dir_5f50fc734ab4e4636906798e47186ed0</title>
<g id="a_node50"><a xlink:href="dir_5f50fc734ab4e4636906798e47186ed0.html" target="_top" xlink:title="splits">
<polygon fill="#a2b4d6" stroke="#404040" points="1164.5,-43 1111.5,-43 1111.5,-24 1164.5,-24 1164.5,-43"/>
<text text-anchor="middle" x="1138" y="-31" font-family="Courier,monospace" font-size="10.00">splits</text>
</a>
</g>
</g>
<!-- dir_f36ea0e8e9937a8082ec92cb28d6cbc7 -->
<g id="node51" class="node">
<title>dir_f36ea0e8e9937a8082ec92cb28d6cbc7</title>
<g id="a_node51"><a xlink:href="dir_f36ea0e8e9937a8082ec92cb28d6cbc7.html" target="_top" xlink:title="systems">
<polygon fill="#a2b4d6" stroke="#404040" points="1093.5,-43 1034.5,-43 1034.5,-24 1093.5,-24 1093.5,-43"/>
<text text-anchor="middle" x="1064" y="-31" font-family="Courier,monospace" font-size="10.00">systems</text>
</a>
</g>
</g>
<!-- dir_8a6969470a018ac4abfe3f5056f073f8 -->
<g id="node52" class="node">
<title>dir_8a6969470a018ac4abfe3f5056f073f8</title>
<g id="a_node52"><a xlink:href="dir_8a6969470a018ac4abfe3f5056f073f8.html" target="_top" xlink:title="timeintegrators">
<polygon fill="#a2b4d6" stroke="#404040" points="1016.5,-43 909.5,-43 909.5,-24 1016.5,-24 1016.5,-43"/>
<text text-anchor="middle" x="963" y="-31" font-family="Courier,monospace" font-size="10.00">timeintegrators</text>
</a>
</g>
</g>
<!-- dir_781064ea32c5b9f5c11ffba02902b7ed -->
<g id="node53" class="node">
<title>dir_781064ea32c5b9f5c11ffba02902b7ed</title>
<g id="a_node53"><a xlink:href="dir_781064ea32c5b9f5c11ffba02902b7ed.html" target="_top" xlink:title="times">
<polygon fill="#a2b4d6" stroke="#404040" points="891.5,-43 844.5,-43 844.5,-24 891.5,-24 891.5,-43"/>
<text text-anchor="middle" x="868" y="-31" font-family="Courier,monospace" font-size="10.00">times</text>
</a>
</g>
</g>
<!-- dir_e675f7bad6a73712daddab3c94b3382d -->
<g id="node54" class="node">
<title>dir_e675f7bad6a73712daddab3c94b3382d</title>
<g id="a_node54"><a xlink:href="dir_e675f7bad6a73712daddab3c94b3382d.html" target="_top" xlink:title="timesteppers">
<polygon fill="#a2b4d6" stroke="#404040" points="826.5,-43 737.5,-43 737.5,-24 826.5,-24 826.5,-43"/>
<text text-anchor="middle" x="782" y="-31" font-family="Courier,monospace" font-size="10.00">timesteppers</text>
</a>
</g>
</g>
<!-- dir_7171c641d49421b536bfe60e81fc59e3 -->
<g id="node55" class="node">
<title>dir_7171c641d49421b536bfe60e81fc59e3</title>
<g id="a_node55"><a xlink:href="dir_7171c641d49421b536bfe60e81fc59e3.html" target="_top" xlink:title="transfers">
<polygon fill="#a2b4d6" stroke="#404040" points="719.5,-43 648.5,-43 648.5,-24 719.5,-24 719.5,-43"/>
<text text-anchor="middle" x="684" y="-31" font-family="Courier,monospace" font-size="10.00">transfers</text>
</a>
</g>
</g>
<!-- dir_6a2ebd93a3d44b9cbe10755f8480a9df -->
<g id="node56" class="node">
<title>dir_6a2ebd93a3d44b9cbe10755f8480a9df</title>
<g id="a_node56"><a xlink:href="dir_6a2ebd93a3d44b9cbe10755f8480a9df.html" target="_top" xlink:title="userobjects">
<polygon fill="#a2b4d6" stroke="#404040" points="630.5,-43 547.5,-43 547.5,-24 630.5,-24 630.5,-43"/>
<text text-anchor="middle" x="589" y="-31" font-family="Courier,monospace" font-size="10.00">userobjects</text>
</a>
</g>
</g>
<!-- dir_84234102f99cd6e99a37bd67b31d7596 -->
<g id="node57" class="node">
<title>dir_84234102f99cd6e99a37bd67b31d7596</title>
<g id="a_node57"><a xlink:href="dir_84234102f99cd6e99a37bd67b31d7596.html" target="_top" xlink:title="utils">
<polygon fill="#a2b4d6" stroke="#404040" points="529.5,-43 482.5,-43 482.5,-24 529.5,-24 529.5,-43"/>
<text text-anchor="middle" x="506" y="-31" font-family="Courier,monospace" font-size="10.00">utils</text>
</a>
</g>
</g>
<!-- dir_d053bc321cea0ff490f052ce9abfa664 -->
<g id="node58" class="node">
<title>dir_d053bc321cea0ff490f052ce9abfa664</title>
<g id="a_node58"><a xlink:href="dir_d053bc321cea0ff490f052ce9abfa664.html" target="_top" xlink:title="utils_nonunity">
<polygon fill="#a2b4d6" stroke="#404040" points="464.5,-43 363.5,-43 363.5,-24 464.5,-24 464.5,-43"/>
<text text-anchor="middle" x="414" y="-31" font-family="Courier,monospace" font-size="10.00">utils_nonunity</text>
</a>
</g>
</g>
<!-- dir_95738d8afcb36e761686a734f3cdc8c0 -->
<g id="node59" class="node">
<title>dir_95738d8afcb36e761686a734f3cdc8c0</title>
<g id="a_node59"><a xlink:href="dir_95738d8afcb36e761686a734f3cdc8c0.html" target="_top" xlink:title="variables">
<polygon fill="#a2b4d6" stroke="#404040" points="345.5,-43 274.5,-43 274.5,-24 345.5,-24 345.5,-43"/>
<text text-anchor="middle" x="310" y="-31" font-family="Courier,monospace" font-size="10.00">variables</text>
</a>
</g>
</g>
<!-- dir_178f084ffa007eb63cc12dc429c99c96 -->
<g id="node60" class="node">
<title>dir_178f084ffa007eb63cc12dc429c99c96</title>
<g id="a_node60"><a xlink:href="dir_178f084ffa007eb63cc12dc429c99c96.html" target="_top" xlink:title="vectorpostprocessors">
<polygon fill="#a2b4d6" stroke="#404040" points="256.5,-43 119.5,-43 119.5,-24 256.5,-24 256.5,-43"/>
<text text-anchor="middle" x="188" y="-31" font-family="Courier,monospace" font-size="10.00">vectorpostprocessors</text>
</a>
</g>
</g>
<!-- dir_e5b60fb1085d055f044cf41e3c4486bc -->
<g id="node61" class="node">
<title>dir_e5b60fb1085d055f044cf41e3c4486bc</title>
<g id="a_node61"><a xlink:href="dir_e5b60fb1085d055f044cf41e3c4486bc.html" target="_top" xlink:title="warehouses">
<polygon fill="#a2b4d6" stroke="#404040" points="101.5,-43 24.5,-43 24.5,-24 101.5,-24 101.5,-43"/>
<text text-anchor="middle" x="63" y="-31" font-family="Courier,monospace" font-size="10.00">warehouses</text>
</a>
</g>
</g>
</g>
</svg>
