<?xml version="1.0" encoding="UTF-8" standalone="no"?>
<!DOCTYPE svg PUBLIC "-//W3C//DTD SVG 1.1//EN"
 "http://www.w3.org/Graphics/SVG/1.1/DTD/svg11.dtd">
<!-- Generated by graphviz version 7.0.5 (20221223.1930)
 -->
<!-- Title: moose/framework/src Pages: 1 -->
<svg width="5523pt" height="94pt"
 viewBox="0.00 0.00 5523.00 94.00" xmlns="http://www.w3.org/2000/svg" xmlns:xlink="http://www.w3.org/1999/xlink">
<g id="graph0" class="graph" transform="scale(1 1) rotate(0) translate(4 90)">
<title>moose/framework/src</title>
<g id="clust1" class="cluster">
<title>clusterdir_6f4eeb6ddb4ae754f551cb2d3dec9e8e</title>
<g id="a_clust1"><a xlink:href="dir_6f4eeb6ddb4ae754f551cb2d3dec9e8e.html" target="_top" xlink:title="framework">
<polygon fill="#edf0f7" stroke="#7f7f7f" stroke-dasharray="5,2" points="8,-8 8,-78 5507,-78 5507,-8 8,-8"/>
<text text-anchor="middle" x="2757.5" y="-66" font-family="Courier,monospace" font-size="10.00">framework</text>
</a>
</g>
</g>
<g id="clust2" class="cluster">
<title>clusterdir_bfb280a6c1c8c85a152345a0f6a025dc</title>
<g id="a_clust2"><a xlink:href="dir_bfb280a6c1c8c85a152345a0f6a025dc.html" target="_top">
<polygon fill="#edf0f7" stroke="#404040" stroke-width="2" points="16,-16 16,-51 5499,-51 5499,-16 16,-16"/>
</a>
</g>
</g>
<!-- dir_bfb280a6c1c8c85a152345a0f6a025dc -->
<g id="node1" class="node">
<title>dir_bfb280a6c1c8c85a152345a0f6a025dc</title>
<text text-anchor="middle" x="5473" y="-31" font-family="Courier,monospace" font-size="10.00">src</text>
</g>
<!-- dir_16c49bf91cc9bab98f70b861778c1697 -->
<g id="node2" class="node">
<title>dir_16c49bf91cc9bab98f70b861778c1697</title>
<g id="a_node2"><a xlink:href="dir_16c49bf91cc9bab98f70b861778c1697.html" target="_top" xlink:title="actions">
<polygon fill="#a2b4d6" stroke="#404040" points="5437.5,-43 5378.5,-43 5378.5,-24 5437.5,-24 5437.5,-43"/>
<text text-anchor="middle" x="5408" y="-31" font-family="Courier,monospace" font-size="10.00">actions</text>
</a>
</g>
</g>
<!-- dir_28e67955551e95b4b731365a234042b8 -->
<g id="node3" class="node">
<title>dir_28e67955551e95b4b731365a234042b8</title>
<g id="a_node3"><a xlink:href="dir_28e67955551e95b4b731365a234042b8.html" target="_top" xlink:title="auxkernels">
<polygon fill="#a2b4d6" stroke="#404040" points="5360.5,-43 5283.5,-43 5283.5,-24 5360.5,-24 5360.5,-43"/>
<text text-anchor="middle" x="5322" y="-31" font-family="Courier,monospace" font-size="10.00">auxkernels</text>
</a>
</g>
</g>
<!-- dir_7b94e792e139220a1f95d354682e5adf -->
<g id="node4" class="node">
<title>dir_7b94e792e139220a1f95d354682e5adf</title>
<g id="a_node4"><a xlink:href="dir_7b94e792e139220a1f95d354682e5adf.html" target="_top" xlink:title="base">
<polygon fill="#a2b4d6" stroke="#404040" points="5265.5,-43 5224.5,-43 5224.5,-24 5265.5,-24 5265.5,-43"/>
<text text-anchor="middle" x="5245" y="-31" font-family="Courier,monospace" font-size="10.00">base</text>
</a>
</g>
</g>
<!-- dir_19f8e6a0b06ff969a504e5a9f12d186b -->
<g id="node5" class="node">
<title>dir_19f8e6a0b06ff969a504e5a9f12d186b</title>
<g id="a_node5"><a xlink:href="dir_19f8e6a0b06ff969a504e5a9f12d186b.html" target="_top" xlink:title="bcs">
<polygon fill="#a2b4d6" stroke="#404040" points="5206.5,-43 5171.5,-43 5171.5,-24 5206.5,-24 5206.5,-43"/>
<text text-anchor="middle" x="5189" y="-31" font-family="Courier,monospace" font-size="10.00">bcs</text>
</a>
</g>
</g>
<!-- dir_69a1bc1f81c438b5f7053079630efdbb -->
<g id="node6" class="node">
<title>dir_69a1bc1f81c438b5f7053079630efdbb</title>
<g id="a_node6"><a xlink:href="dir_69a1bc1f81c438b5f7053079630efdbb.html" target="_top" xlink:title="constraints">
<polygon fill="#a2b4d6" stroke="#404040" points="5153.5,-43 5070.5,-43 5070.5,-24 5153.5,-24 5153.5,-43"/>
<text text-anchor="middle" x="5112" y="-31" font-family="Courier,monospace" font-size="10.00">constraints</text>
</a>
</g>
</g>
<!-- dir_122d4f94da1ef10771f60ea2c6761715 -->
<g id="node7" class="node">
<title>dir_122d4f94da1ef10771f60ea2c6761715</title>
<g id="a_node7"><a xlink:href="dir_122d4f94da1ef10771f60ea2c6761715.html" target="_top" xlink:title="controls">
<polygon fill="#a2b4d6" stroke="#404040" points="5052.5,-43 4987.5,-43 4987.5,-24 5052.5,-24 5052.5,-43"/>
<text text-anchor="middle" x="5020" y="-31" font-family="Courier,monospace" font-size="10.00">controls</text>
</a>
</g>
</g>
<!-- dir_bb4001aa04f1f095fceaa0a0adc996e9 -->
<g id="node8" class="node">
<title>dir_bb4001aa04f1f095fceaa0a0adc996e9</title>
<g id="a_node8"><a xlink:href="dir_bb4001aa04f1f095fceaa0a0adc996e9.html" target="_top" xlink:title="dampers">
<polygon fill="#a2b4d6" stroke="#404040" points="4969.5,-43 4910.5,-43 4910.5,-24 4969.5,-24 4969.5,-43"/>
<text text-anchor="middle" x="4940" y="-31" font-family="Courier,monospace" font-size="10.00">dampers</text>
</a>
</g>
</g>
<!-- dir_1fdd84a09abfaa4bad05db80fe603638 -->
<g id="node9" class="node">
<title>dir_1fdd84a09abfaa4bad05db80fe603638</title>
<g id="a_node9"><a xlink:href="dir_1fdd84a09abfaa4bad05db80fe603638.html" target="_top" xlink:title="dgkernels">
<polygon fill="#a2b4d6" stroke="#404040" points="4892.5,-43 4821.5,-43 4821.5,-24 4892.5,-24 4892.5,-43"/>
<text text-anchor="middle" x="4857" y="-31" font-family="Courier,monospace" font-size="10.00">dgkernels</text>
</a>
</g>
</g>
<!-- dir_cdc6d6680cfee18ff7105bef7769f5b4 -->
<g id="node10" class="node">
<title>dir_cdc6d6680cfee18ff7105bef7769f5b4</title>
<g id="a_node10"><a xlink:href="dir_cdc6d6680cfee18ff7105bef7769f5b4.html" target="_top" xlink:title="dirackernels">
<polygon fill="#a2b4d6" stroke="#404040" points="4803.5,-43 4714.5,-43 4714.5,-24 4803.5,-24 4803.5,-43"/>
<text text-anchor="middle" x="4759" y="-31" font-family="Courier,monospace" font-size="10.00">dirackernels</text>
</a>
</g>
</g>
<!-- dir_de5473c3df95418845e858cb5841296b -->
<g id="node11" class="node">
<title>dir_de5473c3df95418845e858cb5841296b</title>
<g id="a_node11"><a xlink:href="dir_de5473c3df95418845e858cb5841296b.html" target="_top" xlink:title="distributions">
<polygon fill="#a2b4d6" stroke="#404040" points="4696.5,-43 4601.5,-43 4601.5,-24 4696.5,-24 4696.5,-43"/>
<text text-anchor="middle" x="4649" y="-31" font-family="Courier,monospace" font-size="10.00">distributions</text>
</a>
</g>
</g>
<!-- dir_cffa7f9d4b1d51af46f5e5c418a4a7e2 -->
<g id="node12" class="node">
<title>dir_cffa7f9d4b1d51af46f5e5c418a4a7e2</title>
<g id="a_node12"><a xlink:href="dir_cffa7f9d4b1d51af46f5e5c418a4a7e2.html" target="_top" xlink:title="executioners">
<polygon fill="#a2b4d6" stroke="#404040" points="4583.5,-43 4494.5,-43 4494.5,-24 4583.5,-24 4583.5,-43"/>
<text text-anchor="middle" x="4539" y="-31" font-family="Courier,monospace" font-size="10.00">executioners</text>
</a>
</g>
</g>
<!-- dir_11df8746e1092a9f4f81898af3fc8b02 -->
<g id="node13" class="node">
<title>dir_11df8746e1092a9f4f81898af3fc8b02</title>
<g id="a_node13"><a xlink:href="dir_11df8746e1092a9f4f81898af3fc8b02.html" target="_top" xlink:title="executors">
<polygon fill="#a2b4d6" stroke="#404040" points="4476.5,-43 4405.5,-43 4405.5,-24 4476.5,-24 4476.5,-43"/>
<text text-anchor="middle" x="4441" y="-31" font-family="Courier,monospace" font-size="10.00">executors</text>
</a>
</g>
</g>
<!-- dir_ea6280c42eafe3849b5184cc68544045 -->
<g id="node14" class="node">
<title>dir_ea6280c42eafe3849b5184cc68544045</title>
<g id="a_node14"><a xlink:href="dir_ea6280c42eafe3849b5184cc68544045.html" target="_top" xlink:title="functions">
<polygon fill="#a2b4d6" stroke="#404040" points="4387.5,-43 4316.5,-43 4316.5,-24 4387.5,-24 4387.5,-43"/>
<text text-anchor="middle" x="4352" y="-31" font-family="Courier,monospace" font-size="10.00">functions</text>
</a>
</g>
</g>
<!-- dir_a184494604d90a9f6d23ffe05588fcbc -->
<g id="node15" class="node">
<title>dir_a184494604d90a9f6d23ffe05588fcbc</title>
<g id="a_node15"><a xlink:href="dir_a184494604d90a9f6d23ffe05588fcbc.html" target="_top" xlink:title="functormaterials">
<polygon fill="#a2b4d6" stroke="#404040" points="4298.5,-43 4185.5,-43 4185.5,-24 4298.5,-24 4298.5,-43"/>
<text text-anchor="middle" x="4242" y="-31" font-family="Courier,monospace" font-size="10.00">functormaterials</text>
</a>
</g>
</g>
<!-- dir_6af9b82753343f3b54d13617d543012f -->
<g id="node16" class="node">
<title>dir_6af9b82753343f3b54d13617d543012f</title>
<g id="a_node16"><a xlink:href="dir_6af9b82753343f3b54d13617d543012f.html" target="_top" xlink:title="fvbcs">
<polygon fill="#a2b4d6" stroke="#404040" points="4167.5,-43 4120.5,-43 4120.5,-24 4167.5,-24 4167.5,-43"/>
<text text-anchor="middle" x="4144" y="-31" font-family="Courier,monospace" font-size="10.00">fvbcs</text>
</a>
</g>
</g>
<!-- dir_fd6bf8c314776715131f9104834d259c -->
<g id="node17" class="node">
<title>dir_fd6bf8c314776715131f9104834d259c</title>
<g id="a_node17"><a xlink:href="dir_fd6bf8c314776715131f9104834d259c.html" target="_top" xlink:title="fvics">
<polygon fill="#a2b4d6" stroke="#404040" points="4102.5,-43 4055.5,-43 4055.5,-24 4102.5,-24 4102.5,-43"/>
<text text-anchor="middle" x="4079" y="-31" font-family="Courier,monospace" font-size="10.00">fvics</text>
</a>
</g>
</g>
<!-- dir_4d6a6e49358a6da9d91eb9a9b4f7b7e6 -->
<g id="node18" class="node">
<title>dir_4d6a6e49358a6da9d91eb9a9b4f7b7e6</title>
<g id="a_node18"><a xlink:href="dir_4d6a6e49358a6da9d91eb9a9b4f7b7e6.html" target="_top" xlink:title="fviks">
<polygon fill="#a2b4d6" stroke="#404040" points="4037.5,-43 3990.5,-43 3990.5,-24 4037.5,-24 4037.5,-43"/>
<text text-anchor="middle" x="4014" y="-31" font-family="Courier,monospace" font-size="10.00">fviks</text>
</a>
</g>
</g>
<!-- dir_13b0d70fdadbc0b779754f8d74ee6718 -->
<g id="node19" class="node">
<title>dir_13b0d70fdadbc0b779754f8d74ee6718</title>
<g id="a_node19"><a xlink:href="dir_13b0d70fdadbc0b779754f8d74ee6718.html" target="_top" xlink:title="fvkernels">
<polygon fill="#a2b4d6" stroke="#404040" points="3972.5,-43 3901.5,-43 3901.5,-24 3972.5,-24 3972.5,-43"/>
<text text-anchor="middle" x="3937" y="-31" font-family="Courier,monospace" font-size="10.00">fvkernels</text>
</a>
</g>
</g>
<!-- dir_883dbb1de562f0575aa43620a02b6937 -->
<g id="node20" class="node">
<title>dir_883dbb1de562f0575aa43620a02b6937</title>
<g id="a_node20"><a xlink:href="dir_883dbb1de562f0575aa43620a02b6937.html" target="_top" xlink:title="geomsearch">
<polygon fill="#a2b4d6" stroke="#404040" points="3883.5,-43 3806.5,-43 3806.5,-24 3883.5,-24 3883.5,-43"/>
<text text-anchor="middle" x="3845" y="-31" font-family="Courier,monospace" font-size="10.00">geomsearch</text>
</a>
</g>
</g>
<!-- dir_31ada907ef3ba82f51feb4289456b854 -->
<g id="node21" class="node">
<title>dir_31ada907ef3ba82f51feb4289456b854</title>
<g id="a_node21"><a xlink:href="dir_31ada907ef3ba82f51feb4289456b854.html" target="_top" xlink:title="ics">
<polygon fill="#a2b4d6" stroke="#404040" points="3788.5,-43 3753.5,-43 3753.5,-24 3788.5,-24 3788.5,-43"/>
<text text-anchor="middle" x="3771" y="-31" font-family="Courier,monospace" font-size="10.00">ics</text>
</a>
</g>
</g>
<!-- dir_d82dd352e3c52ed840e41e82171bcf03 -->
<g id="node22" class="node">
<title>dir_d82dd352e3c52ed840e41e82171bcf03</title>
<g id="a_node22"><a xlink:href="dir_d82dd352e3c52ed840e41e82171bcf03.html" target="_top" xlink:title="indicators">
<polygon fill="#a2b4d6" stroke="#404040" points="3735.5,-43 3658.5,-43 3658.5,-24 3735.5,-24 3735.5,-43"/>
<text text-anchor="middle" x="3697" y="-31" font-family="Courier,monospace" font-size="10.00">indicators</text>
</a>
</g>
</g>
<!-- dir_5f3073af2a614b9aea4200721d04a865 -->
<g id="node23" class="node">
<title>dir_5f3073af2a614b9aea4200721d04a865</title>
<g id="a_node23"><a xlink:href="dir_5f3073af2a614b9aea4200721d04a865.html" target="_top" xlink:title="interfacekernels">
<polygon fill="#a2b4d6" stroke="#404040" points="3640.5,-43 3527.5,-43 3527.5,-24 3640.5,-24 3640.5,-43"/>
<text text-anchor="middle" x="3584" y="-31" font-family="Courier,monospace" font-size="10.00">interfacekernels</text>
</a>
</g>
</g>
<!-- dir_8b29e01740065bb5d3dd64c39543138f -->
<g id="node24" class="node">
<title>dir_8b29e01740065bb5d3dd64c39543138f</title>
<g id="a_node24"><a xlink:href="dir_8b29e01740065bb5d3dd64c39543138f.html" target="_top" xlink:title="interfaces">
<polygon fill="#a2b4d6" stroke="#404040" points="3509.5,-43 3432.5,-43 3432.5,-24 3509.5,-24 3509.5,-43"/>
<text text-anchor="middle" x="3471" y="-31" font-family="Courier,monospace" font-size="10.00">interfaces</text>
</a>
</g>
</g>
<!-- dir_67efcf5b2342779063fa2938a056dff3 -->
<g id="node25" class="node">
<title>dir_67efcf5b2342779063fa2938a056dff3</title>
<g id="a_node25"><a xlink:href="dir_67efcf5b2342779063fa2938a056dff3.html" target="_top" xlink:title="kernels">
<polygon fill="#a2b4d6" stroke="#404040" points="3414.5,-43 3355.5,-43 3355.5,-24 3414.5,-24 3414.5,-43"/>
<text text-anchor="middle" x="3385" y="-31" font-family="Courier,monospace" font-size="10.00">kernels</text>
</a>
</g>
</g>
<!-- dir_ff4f2ced8149b6400a5198bc6ab136d9 -->
<g id="node26" class="node">
<title>dir_ff4f2ced8149b6400a5198bc6ab136d9</title>
<g id="a_node26"><a xlink:href="dir_ff4f2ced8149b6400a5198bc6ab136d9.html" target="_top" xlink:title="libtorch">
<polygon fill="#a2b4d6" stroke="#404040" points="3337.5,-43 3272.5,-43 3272.5,-24 3337.5,-24 3337.5,-43"/>
<text text-anchor="middle" x="3305" y="-31" font-family="Courier,monospace" font-size="10.00">libtorch</text>
</a>
</g>
</g>
<!-- dir_9e75a6543ede7e9fb51b3b27589b5e03 -->
<g id="node27" class="node">
<title>dir_9e75a6543ede7e9fb51b3b27589b5e03</title>
<g id="a_node27"><a xlink:href="dir_9e75a6543ede7e9fb51b3b27589b5e03.html" target="_top" xlink:title="limiters">
<polygon fill="#a2b4d6" stroke="#404040" points="3254.5,-43 3189.5,-43 3189.5,-24 3254.5,-24 3254.5,-43"/>
<text text-anchor="middle" x="3222" y="-31" font-family="Courier,monospace" font-size="10.00">limiters</text>
</a>
</g>
</g>
<!-- dir_d881577d293259d8d98403249e5ecb98 -->
<g id="node28" class="node">
<title>dir_d881577d293259d8d98403249e5ecb98</title>
<g id="a_node28"><a xlink:href="dir_d881577d293259d8d98403249e5ecb98.html" target="_top" xlink:title="linesearches">
<polygon fill="#a2b4d6" stroke="#404040" points="3171.5,-43 3082.5,-43 3082.5,-24 3171.5,-24 3171.5,-43"/>
<text text-anchor="middle" x="3127" y="-31" font-family="Courier,monospace" font-size="10.00">linesearches</text>
</a>
</g>
</g>
<!-- dir_6f8cba27011d965c8bdea3833307fdbe -->
<g id="node29" class="node">
<title>dir_6f8cba27011d965c8bdea3833307fdbe</title>
<g id="a_node29"><a xlink:href="dir_6f8cba27011d965c8bdea3833307fdbe.html" target="_top" xlink:title="loops">
<polygon fill="#a2b4d6" stroke="#404040" points="3064.5,-43 3017.5,-43 3017.5,-24 3064.5,-24 3064.5,-43"/>
<text text-anchor="middle" x="3041" y="-31" font-family="Courier,monospace" font-size="10.00">loops</text>
</a>
</g>
</g>
<!-- dir_fa8cda0eb54058f1420ed9512cc4f8fe -->
<g id="node30" class="node">
<title>dir_fa8cda0eb54058f1420ed9512cc4f8fe</title>
<g id="a_node30"><a xlink:href="dir_fa8cda0eb54058f1420ed9512cc4f8fe.html" target="_top" xlink:title="markers">
<polygon fill="#a2b4d6" stroke="#404040" points="2999.5,-43 2940.5,-43 2940.5,-24 2999.5,-24 2999.5,-43"/>
<text text-anchor="middle" x="2970" y="-31" font-family="Courier,monospace" font-size="10.00">markers</text>
</a>
</g>
</g>
<!-- dir_95ab4c6366a3eaf33329ce4ede8f6641 -->
<g id="node31" class="node">
<title>dir_95ab4c6366a3eaf33329ce4ede8f6641</title>
<g id="a_node31"><a xlink:href="dir_95ab4c6366a3eaf33329ce4ede8f6641.html" target="_top" xlink:title="materials">
<polygon fill="#a2b4d6" stroke="#404040" points="2922.5,-43 2851.5,-43 2851.5,-24 2922.5,-24 2922.5,-43"/>
<text text-anchor="middle" x="2887" y="-31" font-family="Courier,monospace" font-size="10.00">materials</text>
</a>
</g>
</g>
<!-- dir_923d3586532c319267139466604b291b -->
<g id="node32" class="node">
<title>dir_923d3586532c319267139466604b291b</title>
<g id="a_node32"><a xlink:href="dir_923d3586532c319267139466604b291b.html" target="_top" xlink:title="mesh">
<polygon fill="#a2b4d6" stroke="#404040" points="2833.5,-43 2792.5,-43 2792.5,-24 2833.5,-24 2833.5,-43"/>
<text text-anchor="middle" x="2813" y="-31" font-family="Courier,monospace" font-size="10.00">mesh</text>
</a>
</g>
</g>
<!-- dir_e676316c111cd077967f8d614abed612 -->
<g id="node33" class="node">
<title>dir_e676316c111cd077967f8d614abed612</title>
<g id="a_node33"><a xlink:href="dir_e676316c111cd077967f8d614abed612.html" target="_top" xlink:title="meshdivisions">
<polygon fill="#a2b4d6" stroke="#404040" points="2774.5,-43 2679.5,-43 2679.5,-24 2774.5,-24 2774.5,-43"/>
<text text-anchor="middle" x="2727" y="-31" font-family="Courier,monospace" font-size="10.00">meshdivisions</text>
</a>
</g>
</g>
<!-- dir_71411f98c19518bce993202729772327 -->
<g id="node34" class="node">
<title>dir_71411f98c19518bce993202729772327</title>
<g id="a_node34"><a xlink:href="dir_71411f98c19518bce993202729772327.html" target="_top" xlink:title="meshgenerators">
<polygon fill="#a2b4d6" stroke="#404040" points="2661.5,-43 2560.5,-43 2560.5,-24 2661.5,-24 2661.5,-43"/>
<text text-anchor="middle" x="2611" y="-31" font-family="Courier,monospace" font-size="10.00">meshgenerators</text>
</a>
</g>
</g>
<!-- dir_b573de9176602308e80934ceb8016710 -->
<g id="node35" class="node">
<title>dir_b573de9176602308e80934ceb8016710</title>
<g id="a_node35"><a xlink:href="dir_b573de9176602308e80934ceb8016710.html" target="_top" xlink:title="multiapps">
<polygon fill="#a2b4d6" stroke="#404040" points="2542.5,-43 2471.5,-43 2471.5,-24 2542.5,-24 2542.5,-43"/>
<text text-anchor="middle" x="2507" y="-31" font-family="Courier,monospace" font-size="10.00">multiapps</text>
</a>
</g>
</g>
<!-- dir_702928595890df6a7fcdfeb34547f142 -->
<g id="node36" class="node">
<title>dir_702928595890df6a7fcdfeb34547f142</title>
<g id="a_node36"><a xlink:href="dir_702928595890df6a7fcdfeb34547f142.html" target="_top" xlink:title="nodalkernels">
<polygon fill="#a2b4d6" stroke="#404040" points="2453.5,-43 2364.5,-43 2364.5,-24 2453.5,-24 2453.5,-43"/>
<text text-anchor="middle" x="2409" y="-31" font-family="Courier,monospace" font-size="10.00">nodalkernels</text>
</a>
</g>
</g>
<!-- dir_ff19c3abf8080b1070a79eec0f6489dc -->
<g id="node37" class="node">
<title>dir_ff19c3abf8080b1070a79eec0f6489dc</title>
<g id="a_node37"><a xlink:href="dir_ff19c3abf8080b1070a79eec0f6489dc.html" target="_top" xlink:title="outputs">
<polygon fill="#a2b4d6" stroke="#404040" points="2346.5,-43 2287.5,-43 2287.5,-24 2346.5,-24 2346.5,-43"/>
<text text-anchor="middle" x="2317" y="-31" font-family="Courier,monospace" font-size="10.00">outputs</text>
</a>
</g>
</g>
<!-- dir_5ca860fe412aad5a170cb4c169f8f8ad -->
<g id="node38" class="node">
<title>dir_5ca860fe412aad5a170cb4c169f8f8ad</title>
<g id="a_node38"><a xlink:href="dir_5ca860fe412aad5a170cb4c169f8f8ad.html" target="_top" xlink:title="parser">
<polygon fill="#a2b4d6" stroke="#404040" points="2269.5,-43 2216.5,-43 2216.5,-24 2269.5,-24 2269.5,-43"/>
<text text-anchor="middle" x="2243" y="-31" font-family="Courier,monospace" font-size="10.00">parser</text>
</a>
</g>
</g>
<!-- dir_8b3f4c4cb255229b4ddcc57fc84011c6 -->
<g id="node39" class="node">
<title>dir_8b3f4c4cb255229b4ddcc57fc84011c6</title>
<g id="a_node39"><a xlink:href="dir_8b3f4c4cb255229b4ddcc57fc84011c6.html" target="_top" xlink:title="partitioner">
<polygon fill="#a2b4d6" stroke="#404040" points="2198.5,-43 2115.5,-43 2115.5,-24 2198.5,-24 2198.5,-43"/>
<text text-anchor="middle" x="2157" y="-31" font-family="Courier,monospace" font-size="10.00">partitioner</text>
</a>
</g>
</g>
<!-- dir_2be93c976b3165a696e3a9b0ae331045 -->
<g id="node40" class="node">
<title>dir_2be93c976b3165a696e3a9b0ae331045</title>
<g id="a_node40"><a xlink:href="dir_2be93c976b3165a696e3a9b0ae331045.html" target="_top" xlink:title="positions">
<polygon fill="#a2b4d6" stroke="#404040" points="2097.5,-43 2026.5,-43 2026.5,-24 2097.5,-24 2097.5,-43"/>
<text text-anchor="middle" x="2062" y="-31" font-family="Courier,monospace" font-size="10.00">positions</text>
</a>
</g>
</g>
<!-- dir_39a997088d918b66f1c4176b23ce4ad9 -->
<g id="node41" class="node">
<title>dir_39a997088d918b66f1c4176b23ce4ad9</title>
<g id="a_node41"><a xlink:href="dir_39a997088d918b66f1c4176b23ce4ad9.html" target="_top" xlink:title="postprocessors">
<polygon fill="#a2b4d6" stroke="#404040" points="2008.5,-43 1907.5,-43 1907.5,-24 2008.5,-24 2008.5,-43"/>
<text text-anchor="middle" x="1958" y="-31" font-family="Courier,monospace" font-size="10.00">postprocessors</text>
</a>
</g>
</g>
<!-- dir_de59464a2520458de2445c00aa812161 -->
<g id="node42" class="node">
<title>dir_de59464a2520458de2445c00aa812161</title>
<g id="a_node42"><a xlink:href="dir_de59464a2520458de2445c00aa812161.html" target="_top" xlink:title="preconditioners">
<polygon fill="#a2b4d6" stroke="#404040" points="1889.5,-43 1782.5,-43 1782.5,-24 1889.5,-24 1889.5,-43"/>
<text text-anchor="middle" x="1836" y="-31" font-family="Courier,monospace" font-size="10.00">preconditioners</text>
</a>
</g>
</g>
<!-- dir_729eb3147dbe692a0fa12548bbe8d1eb -->
<g id="node43" class="node">
<title>dir_729eb3147dbe692a0fa12548bbe8d1eb</title>
<g id="a_node43"><a xlink:href="dir_729eb3147dbe692a0fa12548bbe8d1eb.html" target="_top" xlink:title="predictors">
<polygon fill="#a2b4d6" stroke="#404040" points="1764.5,-43 1687.5,-43 1687.5,-24 1764.5,-24 1764.5,-43"/>
<text text-anchor="middle" x="1726" y="-31" font-family="Courier,monospace" font-size="10.00">predictors</text>
</a>
</g>
</g>
<!-- dir_df99399c99efe4a20c1a6aac631f0deb -->
<g id="node44" class="node">
<title>dir_df99399c99efe4a20c1a6aac631f0deb</title>
<g id="a_node44"><a xlink:href="dir_df99399c99efe4a20c1a6aac631f0deb.html" target="_top" xlink:title="problems">
<polygon fill="#a2b4d6" stroke="#404040" points="1669.5,-43 1604.5,-43 1604.5,-24 1669.5,-24 1669.5,-43"/>
<text text-anchor="middle" x="1637" y="-31" font-family="Courier,monospace" font-size="10.00">problems</text>
</a>
</g>
</g>
<!-- dir_94784f33cfeda6dd3d0f8121c3d799eb -->
<g id="node45" class="node">
<title>dir_94784f33cfeda6dd3d0f8121c3d799eb</title>
<g id="a_node45"><a xlink:href="dir_94784f33cfeda6dd3d0f8121c3d799eb.html" target="_top" xlink:title="relationshipmanagers">
<polygon fill="#a2b4d6" stroke="#404040" points="1586.5,-43 1449.5,-43 1449.5,-24 1586.5,-24 1586.5,-43"/>
<text text-anchor="middle" x="1518" y="-31" font-family="Courier,monospace" font-size="10.00">relationshipmanagers</text>
</a>
</g>
</g>
<!-- dir_d4817f8e693e011fe17a90f290b8ba0f -->
<g id="node46" class="node">
<title>dir_d4817f8e693e011fe17a90f290b8ba0f</title>
<g id="a_node46"><a xlink:href="dir_d4817f8e693e011fe17a90f290b8ba0f.html" target="_top" xlink:title="reporters">
<polygon fill="#a2b4d6" stroke="#404040" points="1431.5,-43 1360.5,-43 1360.5,-24 1431.5,-24 1431.5,-43"/>
<text text-anchor="middle" x="1396" y="-31" font-family="Courier,monospace" font-size="10.00">reporters</text>
</a>
</g>
</g>
<!-- dir_d534afd849cb91d635fa42652309d8d2 -->
<g id="node47" class="node">
<title>dir_d534afd849cb91d635fa42652309d8d2</title>
<g id="a_node47"><a xlink:href="dir_d534afd849cb91d635fa42652309d8d2.html" target="_top" xlink:title="restart">
<polygon fill="#a2b4d6" stroke="#404040" points="1342.5,-43 1283.5,-43 1283.5,-24 1342.5,-24 1342.5,-43"/>
<text text-anchor="middle" x="1313" y="-31" font-family="Courier,monospace" font-size="10.00">restart</text>
</a>
</g>
</g>
<!-- dir_20224729919f6b2d24062ea587120d8b -->
<g id="node48" class="node">
<title>dir_20224729919f6b2d24062ea587120d8b</title>
<g id="a_node48"><a xlink:href="dir_20224729919f6b2d24062ea587120d8b.html" target="_top" xlink:title="samplers">
<polygon fill="#a2b4d6" stroke="#404040" points="1265.5,-43 1200.5,-43 1200.5,-24 1265.5,-24 1265.5,-43"/>
<text text-anchor="middle" x="1233" y="-31" font-family="Courier,monospace" font-size="10.00">samplers</text>
</a>
</g>
</g>
<!-- dir_624d4aa7401d59dce9d8ee4ede968301 -->
<g id="node49" class="node">
<title>dir_624d4aa7401d59dce9d8ee4ede968301</title>
<g id="a_node49"><a xlink:href="dir_624d4aa7401d59dce9d8ee4ede968301.html" target="_top" xlink:title="scalarkernels">
<polygon fill="#a2b4d6" stroke="#404040" points="1182.5,-43 1087.5,-43 1087.5,-24 1182.5,-24 1182.5,-43"/>
<text text-anchor="middle" x="1135" y="-31" font-family="Courier,monospace" font-size="10.00">scalarkernels</text>
</a>
</g>
</g>
<!-- dir_457bf6cf3988e5fca0a21110a88f391a -->
<g id="node50" class="node">
<title>dir_457bf6cf3988e5fca0a21110a88f391a</title>
<g id="a_node50"><a xlink:href="dir_457bf6cf3988e5fca0a21110a88f391a.html" target="_top" xlink:title="splits">
<polygon fill="#a2b4d6" stroke="#404040" points="1069.5,-43 1016.5,-43 1016.5,-24 1069.5,-24 1069.5,-43"/>
<text text-anchor="middle" x="1043" y="-31" font-family="Courier,monospace" font-size="10.00">splits</text>
</a>
</g>
</g>
<!-- dir_7ec3b3b9be9fa2de636b3fb7debbc47f -->
<g id="node51" class="node">
<title>dir_7ec3b3b9be9fa2de636b3fb7debbc47f</title>
<g id="a_node51"><a xlink:href="dir_7ec3b3b9be9fa2de636b3fb7debbc47f.html" target="_top" xlink:title="systems">
<polygon fill="#a2b4d6" stroke="#404040" points="998.5,-43 939.5,-43 939.5,-24 998.5,-24 998.5,-43"/>
<text text-anchor="middle" x="969" y="-31" font-family="Courier,monospace" font-size="10.00">systems</text>
</a>
</g>
</g>
<!-- dir_291264f20325092473e8a58aa9bd9e3c -->
<g id="node52" class="node">
<title>dir_291264f20325092473e8a58aa9bd9e3c</title>
<g id="a_node52"><a xlink:href="dir_291264f20325092473e8a58aa9bd9e3c.html" target="_top" xlink:title="timeintegrators">
<polygon fill="#a2b4d6" stroke="#404040" points="921.5,-43 814.5,-43 814.5,-24 921.5,-24 921.5,-43"/>
<text text-anchor="middle" x="868" y="-31" font-family="Courier,monospace" font-size="10.00">timeintegrators</text>
</a>
</g>
</g>
<!-- dir_6e813ba700fb89582b955a1fd1f0a866 -->
<g id="node53" class="node">
<title>dir_6e813ba700fb89582b955a1fd1f0a866</title>
<g id="a_node53"><a xlink:href="dir_6e813ba700fb89582b955a1fd1f0a866.html" target="_top" xlink:title="times">
<polygon fill="#a2b4d6" stroke="#404040" points="796.5,-43 749.5,-43 749.5,-24 796.5,-24 796.5,-43"/>
<text text-anchor="middle" x="773" y="-31" font-family="Courier,monospace" font-size="10.00">times</text>
</a>
</g>
</g>
<!-- dir_1bf9d9fe5de88d457cda9c38f91e45f0 -->
<g id="node54" class="node">
<title>dir_1bf9d9fe5de88d457cda9c38f91e45f0</title>
<g id="a_node54"><a xlink:href="dir_1bf9d9fe5de88d457cda9c38f91e45f0.html" target="_top" xlink:title="timesteppers">
<polygon fill="#a2b4d6" stroke="#404040" points="731.5,-43 642.5,-43 642.5,-24 731.5,-24 731.5,-43"/>
<text text-anchor="middle" x="687" y="-31" font-family="Courier,monospace" font-size="10.00">timesteppers</text>
</a>
</g>
</g>
<!-- dir_995a88db6bad9d6d6e097b6b1f5a661e -->
<g id="node55" class="node">
<title>dir_995a88db6bad9d6d6e097b6b1f5a661e</title>
<g id="a_node55"><a xlink:href="dir_995a88db6bad9d6d6e097b6b1f5a661e.html" target="_top" xlink:title="transfers">
<polygon fill="#a2b4d6" stroke="#404040" points="624.5,-43 553.5,-43 553.5,-24 624.5,-24 624.5,-43"/>
<text text-anchor="middle" x="589" y="-31" font-family="Courier,monospace" font-size="10.00">transfers</text>
</a>
</g>
</g>
<!-- dir_fe83a992dd6ee681fcf13266509fcd37 -->
<g id="node56" class="node">
<title>dir_fe83a992dd6ee681fcf13266509fcd37</title>
<g id="a_node56"><a xlink:href="dir_fe83a992dd6ee681fcf13266509fcd37.html" target="_top" xlink:title="userobjects">
<polygon fill="#a2b4d6" stroke="#404040" points="535.5,-43 452.5,-43 452.5,-24 535.5,-24 535.5,-43"/>
<text text-anchor="middle" x="494" y="-31" font-family="Courier,monospace" font-size="10.00">userobjects</text>
</a>
</g>
</g>
<!-- dir_2f52c668a7558079c161d01e22cecdbf -->
<g id="node57" class="node">
<title>dir_2f52c668a7558079c161d01e22cecdbf</title>
<g id="a_node57"><a xlink:href="dir_2f52c668a7558079c161d01e22cecdbf.html" target="_top" xlink:title="utils">
<polygon fill="#a2b4d6" stroke="#404040" points="434.5,-43 387.5,-43 387.5,-24 434.5,-24 434.5,-43"/>
<text text-anchor="middle" x="411" y="-31" font-family="Courier,monospace" font-size="10.00">utils</text>
</a>
</g>
</g>
<!-- dir_649a20b9c76e9d987889dba12a7b5d45 -->
<g id="node58" class="node">
<title>dir_649a20b9c76e9d987889dba12a7b5d45</title>
<g id="a_node58"><a xlink:href="dir_649a20b9c76e9d987889dba12a7b5d45.html" target="_top" xlink:title="utils_nonunity">
<polygon fill="#a2b4d6" stroke="#404040" points="369.5,-43 268.5,-43 268.5,-24 369.5,-24 369.5,-43"/>
<text text-anchor="middle" x="319" y="-31" font-family="Courier,monospace" font-size="10.00">utils_nonunity</text>
</a>
</g>
</g>
<!-- dir_99ae88fc4cd802f6a4c5bed8feca92d6 -->
<g id="node59" class="node">
<title>dir_99ae88fc4cd802f6a4c5bed8feca92d6</title>
<g id="a_node59"><a xlink:href="dir_99ae88fc4cd802f6a4c5bed8feca92d6.html" target="_top" xlink:title="variables">
<polygon fill="#a2b4d6" stroke="#404040" points="250.5,-43 179.5,-43 179.5,-24 250.5,-24 250.5,-43"/>
<text text-anchor="middle" x="215" y="-31" font-family="Courier,monospace" font-size="10.00">variables</text>
</a>
</g>
</g>
<!-- dir_33ab9148b4567695431e4a5104d20770 -->
<g id="node60" class="node">
<title>dir_33ab9148b4567695431e4a5104d20770</title>
<g id="a_node60"><a xlink:href="dir_33ab9148b4567695431e4a5104d20770.html" target="_top" xlink:title="vectorpostprocessors">
<polygon fill="#a2b4d6" stroke="#404040" points="161.5,-43 24.5,-43 24.5,-24 161.5,-24 161.5,-43"/>
<text text-anchor="middle" x="93" y="-31" font-family="Courier,monospace" font-size="10.00">vectorpostprocessors</text>
</a>
</g>
</g>
</g>
</svg>
