<?xml version="1.0" encoding="UTF-8" standalone="no"?>
<!DOCTYPE svg PUBLIC "-//W3C//DTD SVG 1.1//EN"
 "http://www.w3.org/Graphics/SVG/1.1/DTD/svg11.dtd">
<!-- Generated by graphviz version 7.0.5 (20221223.1930)
 -->
<!-- Title: Graphical Class Hierarchy Pages: 1 -->
<svg width="354pt" height="456pt"
 viewBox="0.00 0.00 354.00 455.50" xmlns="http://www.w3.org/2000/svg" xmlns:xlink="http://www.w3.org/1999/xlink">
<g id="graph0" class="graph" transform="scale(1 1) rotate(0) translate(4 451.5)">
<title>Graphical Class Hierarchy</title>
<!-- Node0 -->
<g id="node1" class="node">
<title>Node0</title>
<g id="a_node1"><a xlink:title=" ">
<polygon fill="#e0e0e0" stroke="#999999" points="125,-244 0,-244 0,-225 125,-225 125,-244"/>
<text text-anchor="middle" x="62.5" y="-232" font-family="Courier,monospace" font-size="10.00">std::unordered_map</text>
</a>
</g>
</g>
<!-- Node1 -->
<g id="node2" class="node">
<title>Node1</title>
<g id="a_node2"><a xlink:href="classHashMap.html" target="_top" xlink:title=" ">
<polygon fill="white" stroke="#666666" points="346,-447.5 161,-447.5 161,-417.5 346,-417.5 346,-447.5"/>
<text text-anchor="start" x="169" y="-435.5" font-family="Courier,monospace" font-size="10.00">HashMap&lt; unsigned,</text>
<text text-anchor="middle" x="253.5" y="-424.5" font-family="Courier,monospace" font-size="10.00"> MooseVariableFE&lt; Real &gt; * &gt;</text>
</a>
</g>
</g>
<!-- Node0&#45;&gt;Node1 -->
<g id="edge1" class="edge">
<title>Node0&#45;&gt;Node1</title>
<path fill="none" stroke="#63b8ff" d="M69.14,-254.94C80.32,-291.52 108.83,-368.15 161,-408.5 165.29,-411.82 169.99,-414.67 174.93,-417.14"/>
<polygon fill="#63b8ff" stroke="#63b8ff" points="72.58,-254.25 66.43,-245.63 65.86,-256.21 72.58,-254.25"/>
</g>
<!-- Node2 -->
<g id="node3" class="node">
<title>Node2</title>
<g id="a_node3"><a xlink:href="classHashMap.html" target="_top" xlink:title=" ">
<polygon fill="white" stroke="#666666" points="346,-399.5 161,-399.5 161,-369.5 346,-369.5 346,-399.5"/>
<text text-anchor="start" x="169" y="-387.5" font-family="Courier,monospace" font-size="10.00">HashMap&lt; std::string,</text>
<text text-anchor="middle" x="253.5" y="-376.5" font-family="Courier,monospace" font-size="10.00"> MooseVariableFV&lt; Real &gt; * &gt;</text>
</a>
</g>
</g>
<!-- Node0&#45;&gt;Node2 -->
<g id="edge2" class="edge">
<title>Node0&#45;&gt;Node2</title>
<path fill="none" stroke="#63b8ff" d="M73.4,-254.33C88.42,-282.35 119.66,-333.15 161,-360.5 165.93,-363.76 171.28,-366.58 176.84,-369.02"/>
<polygon fill="#63b8ff" stroke="#63b8ff" points="76.7,-253.09 68.98,-245.83 70.48,-256.31 76.7,-253.09"/>
</g>
<!-- Node3 -->
<g id="node4" class="node">
<title>Node3</title>
<g id="a_node4"><a xlink:href="classHashMap.html" target="_top" xlink:title=" ">
<polygon fill="white" stroke="#666666" points="346,-351.5 161,-351.5 161,-321.5 346,-321.5 346,-351.5"/>
<text text-anchor="start" x="169" y="-339.5" font-family="Courier,monospace" font-size="10.00">HashMap&lt; std::string,</text>
<text text-anchor="middle" x="253.5" y="-328.5" font-family="Courier,monospace" font-size="10.00"> MooseVariableFE&lt; Real &gt; * &gt;</text>
</a>
</g>
</g>
<!-- Node0&#45;&gt;Node3 -->
<g id="edge3" class="edge">
<title>Node0&#45;&gt;Node3</title>
<path fill="none" stroke="#63b8ff" d="M81.03,-252.38C99.4,-270.12 129.87,-296.86 161,-312.5 167.46,-315.74 174.4,-318.58 181.46,-321.06"/>
<polygon fill="#63b8ff" stroke="#63b8ff" points="83.69,-250.08 74.11,-245.54 78.77,-255.06 83.69,-250.08"/>
</g>
<!-- Node4 -->
<g id="node5" class="node">
<title>Node4</title>
<g id="a_node5"><a xlink:href="classHashMap.html" target="_top" xlink:title=" ">
<polygon fill="white" stroke="#666666" points="346,-303.5 161,-303.5 161,-273.5 346,-273.5 346,-303.5"/>
<text text-anchor="start" x="169" y="-291.5" font-family="Courier,monospace" font-size="10.00">HashMap&lt; unsigned,</text>
<text text-anchor="middle" x="253.5" y="-280.5" font-family="Courier,monospace" font-size="10.00"> MooseVariableFV&lt; Real &gt; * &gt;</text>
</a>
</g>
</g>
<!-- Node0&#45;&gt;Node4 -->
<g id="edge4" class="edge">
<title>Node0&#45;&gt;Node4</title>
<path fill="none" stroke="#63b8ff" d="M105.4,-247.81C122.58,-253.16 142.7,-259.29 161,-264.5 171.11,-267.38 181.88,-270.32 192.35,-273.11"/>
<polygon fill="#63b8ff" stroke="#63b8ff" points="106.61,-244.53 96.02,-244.88 104.52,-251.21 106.61,-244.53"/>
</g>
<!-- Node5 -->
<g id="node6" class="node">
<title>Node5</title>
<g id="a_node6"><a xlink:href="classHashMap.html" target="_top" xlink:title=" ">
<polygon fill="white" stroke="#666666" points="346,-255 161,-255 161,-214 346,-214 346,-255"/>
<text text-anchor="start" x="169" y="-243" font-family="Courier,monospace" font-size="10.00">HashMap&lt; std::string,</text>
<text text-anchor="start" x="169" y="-232" font-family="Courier,monospace" font-size="10.00"> MooseVariableFE&lt; RealVector</text>
<text text-anchor="middle" x="253.5" y="-221" font-family="Courier,monospace" font-size="10.00">Value &gt; * &gt;</text>
</a>
</g>
</g>
<!-- Node0&#45;&gt;Node5 -->
<g id="edge5" class="edge">
<title>Node0&#45;&gt;Node5</title>
<path fill="none" stroke="#63b8ff" d="M136.72,-234.5C144.57,-234.5 152.63,-234.5 160.66,-234.5"/>
<polygon fill="#63b8ff" stroke="#63b8ff" points="136.9,-231 126.9,-234.5 136.9,-238 136.9,-231"/>
</g>
<!-- Node6 -->
<g id="node7" class="node">
<title>Node6</title>
<g id="a_node7"><a xlink:href="classHashMap.html" target="_top" xlink:title=" ">
<polygon fill="white" stroke="#666666" points="346,-196 161,-196 161,-155 346,-155 346,-196"/>
<text text-anchor="start" x="169" y="-184" font-family="Courier,monospace" font-size="10.00">HashMap&lt; unsigned,</text>
<text text-anchor="start" x="169" y="-173" font-family="Courier,monospace" font-size="10.00"> MooseVariableFE&lt; RealVector</text>
<text text-anchor="middle" x="253.5" y="-162" font-family="Courier,monospace" font-size="10.00">Value &gt; * &gt;</text>
</a>
</g>
</g>
<!-- Node0&#45;&gt;Node6 -->
<g id="edge6" class="edge">
<title>Node0&#45;&gt;Node6</title>
<path fill="none" stroke="#63b8ff" d="M106.08,-221.21C129.48,-213.9 159.03,-204.68 185.45,-196.43"/>
<polygon fill="#63b8ff" stroke="#63b8ff" points="105.08,-217.85 96.58,-224.17 107.17,-224.53 105.08,-217.85"/>
</g>
<!-- Node7 -->
<g id="node8" class="node">
<title>Node7</title>
<g id="a_node8"><a xlink:href="classHashMap.html" target="_top" xlink:title=" ">
<polygon fill="white" stroke="#666666" points="343,-137 164,-137 164,-96 343,-96 343,-137"/>
<text text-anchor="start" x="172" y="-125" font-family="Courier,monospace" font-size="10.00">HashMap&lt; std::string,</text>
<text text-anchor="start" x="172" y="-114" font-family="Courier,monospace" font-size="10.00"> MooseVariableFE&lt; RealEigen</text>
<text text-anchor="middle" x="253.5" y="-103" font-family="Courier,monospace" font-size="10.00">Vector &gt; * &gt;</text>
</a>
</g>
</g>
<!-- Node0&#45;&gt;Node7 -->
<g id="edge7" class="edge">
<title>Node0&#45;&gt;Node7</title>
<path fill="none" stroke="#63b8ff" d="M79.4,-216.16C97.4,-196.43 128.48,-165.36 161,-146.5 166.78,-143.15 173,-140.11 179.36,-137.37"/>
<polygon fill="#63b8ff" stroke="#63b8ff" points="76.94,-213.67 72.89,-223.46 82.16,-218.33 76.94,-213.67"/>
</g>
<!-- Node8 -->
<g id="node9" class="node">
<title>Node8</title>
<g id="a_node9"><a xlink:href="classHashMap.html" target="_top" xlink:title=" ">
<polygon fill="white" stroke="#666666" points="343,-78 164,-78 164,-37 343,-37 343,-78"/>
<text text-anchor="start" x="172" y="-66" font-family="Courier,monospace" font-size="10.00">HashMap&lt; unsigned,</text>
<text text-anchor="start" x="172" y="-55" font-family="Courier,monospace" font-size="10.00"> MooseVariableFE&lt; RealEigen</text>
<text text-anchor="middle" x="253.5" y="-44" font-family="Courier,monospace" font-size="10.00">Vector &gt; * &gt;</text>
</a>
</g>
</g>
<!-- Node0&#45;&gt;Node8 -->
<g id="edge8" class="edge">
<title>Node0&#45;&gt;Node8</title>
<path fill="none" stroke="#63b8ff" d="M71.76,-214.03C85.57,-182.35 116.29,-121.56 161,-87.5 165.52,-84.06 170.46,-81 175.61,-78.28"/>
<polygon fill="#63b8ff" stroke="#63b8ff" points="68.54,-212.66 67.89,-223.23 75,-215.37 68.54,-212.66"/>
</g>
<!-- Node9 -->
<g id="node10" class="node">
<title>Node9</title>
<g id="a_node10"><a xlink:href="classHashMap.html" target="_top" xlink:title="HashMap is an abstraction for dictionary data type, we make it thread&#45;safe by locking inserts.">
<polygon fill="white" stroke="#666666" points="313,-19 194,-19 194,0 313,0 313,-19"/>
<text text-anchor="middle" x="253.5" y="-7" font-family="Courier,monospace" font-size="10.00">HashMap&lt; Key, T &gt;</text>
</a>
</g>
</g>
<!-- Node0&#45;&gt;Node9 -->
<g id="edge9" class="edge">
<title>Node0&#45;&gt;Node9</title>
<path fill="none" stroke="#63b8ff" d="M67.05,-213.6C75.34,-171.49 100.13,-76.4 161,-28.5 170.43,-21.08 182.06,-16.36 193.82,-13.4"/>
<polygon fill="#63b8ff" stroke="#63b8ff" points="63.62,-212.9 65.25,-223.37 70.5,-214.16 63.62,-212.9"/>
</g>
</g>
</svg>
