<?xml version="1.0" encoding="UTF-8" standalone="no"?>
<!DOCTYPE svg PUBLIC "-//W3C//DTD SVG 1.1//EN"
 "http://www.w3.org/Graphics/SVG/1.1/DTD/svg11.dtd">
<!-- Generated by graphviz version 7.0.5 (20221223.1930)
 -->
<!-- Title: Graphical Class Hierarchy Pages: 1 -->
<svg width="396pt" height="64pt"
 viewBox="0.00 0.00 396.00 64.00" xmlns="http://www.w3.org/2000/svg" xmlns:xlink="http://www.w3.org/1999/xlink">
<g id="graph0" class="graph" transform="scale(1 1) rotate(0) translate(4 60)">
<title>Graphical Class Hierarchy</title>
<!-- Node0 -->
<g id="node1" class="node">
<title>Node0</title>
<g id="a_node1"><a xlink:href="classThreadedNodeLoop.html" target="_top" xlink:title=" ">
<polygon fill="white" stroke="#666666" points="185,-42.5 0,-42.5 0,-12.5 185,-12.5 185,-42.5"/>
<text text-anchor="start" x="8" y="-30.5" font-family="Courier,monospace" font-size="10.00">ThreadedNodeLoop&lt; NodeRange,</text>
<text text-anchor="middle" x="92.5" y="-19.5" font-family="Courier,monospace" font-size="10.00"> NodeRange::const_iterator &gt;</text>
</a>
</g>
</g>
<!-- Node1 -->
<g id="node2" class="node">
<title>Node1</title>
<g id="a_node2"><a xlink:href="classResetDisplacedMeshThread.html" target="_top" xlink:title=" ">
<polygon fill="white" stroke="#666666" points="385,-56 224,-56 224,-37 385,-37 385,-56"/>
<text text-anchor="middle" x="304.5" y="-44" font-family="Courier,monospace" font-size="10.00">ResetDisplacedMeshThread</text>
</a>
</g>
</g>
<!-- Node0&#45;&gt;Node1 -->
<g id="edge1" class="edge">
<title>Node0&#45;&gt;Node1</title>
<path fill="none" stroke="#63b8ff" d="M196.76,-36.84C205.82,-37.66 214.9,-38.48 223.73,-39.28"/>
<polygon fill="#63b8ff" stroke="#63b8ff" points="197.09,-33.36 186.81,-35.94 196.45,-40.33 197.09,-33.36"/>
</g>
<!-- Node2 -->
<g id="node3" class="node">
<title>Node2</title>
<g id="a_node3"><a xlink:href="classUpdateDisplacedMeshThread.html" target="_top" xlink:title=" ">
<polygon fill="white" stroke="#666666" points="388,-19 221,-19 221,0 388,0 388,-19"/>
<text text-anchor="middle" x="304.5" y="-7" font-family="Courier,monospace" font-size="10.00">UpdateDisplacedMeshThread</text>
</a>
</g>
</g>
<!-- Node0&#45;&gt;Node2 -->
<g id="edge2" class="edge">
<title>Node0&#45;&gt;Node2</title>
<path fill="none" stroke="#63b8ff" d="M196.7,-18.65C204.78,-17.96 212.88,-17.27 220.8,-16.59"/>
<polygon fill="#63b8ff" stroke="#63b8ff" points="196.48,-15.16 186.81,-19.5 197.07,-22.13 196.48,-15.16"/>
</g>
</g>
</svg>
