<?xml version="1.0" encoding="UTF-8" standalone="no"?>
<!DOCTYPE svg PUBLIC "-//W3C//DTD SVG 1.1//EN"
 "http://www.w3.org/Graphics/SVG/1.1/DTD/svg11.dtd">
<!-- Generated by graphviz version 7.0.5 (20221223.1930)
 -->
<!-- Title: Graphical Class Hierarchy Pages: 1 -->
<svg width="270pt" height="64pt"
 viewBox="0.00 0.00 270.00 64.00" xmlns="http://www.w3.org/2000/svg" xmlns:xlink="http://www.w3.org/1999/xlink">
<g id="graph0" class="graph" transform="scale(1 1) rotate(0) translate(4 60)">
<title>Graphical Class Hierarchy</title>
<!-- Node0 -->
<g id="node1" class="node">
<title>Node0</title>
<g id="a_node1"><a xlink:title=" ">
<polygon fill="#e0e0e0" stroke="#999999" points="83,-37 0,-37 0,-18 83,-18 83,-37"/>
<text text-anchor="middle" x="41.5" y="-25" font-family="Courier,monospace" font-size="10.00">hit::Evaler</text>
</a>
</g>
</g>
<!-- Node1 -->
<g id="node2" class="node">
<title>Node1</title>
<g id="a_node2"><a xlink:href="classFuncParseEvaler.html" target="_top" xlink:title=" ">
<polygon fill="white" stroke="#666666" points="244,-56 137,-56 137,-37 244,-37 244,-56"/>
<text text-anchor="middle" x="190.5" y="-44" font-family="Courier,monospace" font-size="10.00">FuncParseEvaler</text>
</a>
</g>
</g>
<!-- Node0&#45;&gt;Node1 -->
<g id="edge1" class="edge">
<title>Node0&#45;&gt;Node1</title>
<path fill="none" stroke="#63b8ff" d="M94.61,-34.24C108.25,-36 122.98,-37.9 136.66,-39.67"/>
<polygon fill="#63b8ff" stroke="#63b8ff" points="95.31,-30.8 84.95,-32.99 94.42,-37.74 95.31,-30.8"/>
</g>
<!-- Node2 -->
<g id="node3" class="node">
<title>Node2</title>
<g id="a_node3"><a xlink:href="classUnitsConversionEvaler.html" target="_top" xlink:title=" ">
<polygon fill="white" stroke="#666666" points="262,-19 119,-19 119,0 262,0 262,-19"/>
<text text-anchor="middle" x="190.5" y="-7" font-family="Courier,monospace" font-size="10.00">UnitsConversionEvaler</text>
</a>
</g>
</g>
<!-- Node0&#45;&gt;Node2 -->
<g id="edge2" class="edge">
<title>Node0&#45;&gt;Node2</title>
<path fill="none" stroke="#63b8ff" d="M94.85,-21.09C102.57,-20.14 110.63,-19.16 118.65,-18.18"/>
<polygon fill="#63b8ff" stroke="#63b8ff" points="94.45,-17.61 84.95,-22.3 95.3,-24.56 94.45,-17.61"/>
</g>
</g>
</svg>
