<?xml version="1.0" encoding="UTF-8" standalone="no"?>
<!DOCTYPE svg PUBLIC "-//W3C//DTD SVG 1.1//EN"
 "http://www.w3.org/Graphics/SVG/1.1/DTD/svg11.dtd">
<!-- Generated by graphviz version 7.0.5 (20221223.1930)
 -->
<!-- Title: Graphical Class Hierarchy Pages: 1 -->
<svg width="360pt" height="64pt"
 viewBox="0.00 0.00 360.00 64.00" xmlns="http://www.w3.org/2000/svg" xmlns:xlink="http://www.w3.org/1999/xlink">
<g id="graph0" class="graph" transform="scale(1 1) rotate(0) translate(4 60)">
<title>Graphical Class Hierarchy</title>
<!-- Node0 -->
<g id="node1" class="node">
<title>Node0</title>
<g id="a_node1"><a xlink:href="classBidimensionalInterpolation.html" target="_top" xlink:title="This class interpolates tabulated data with a Bidimension function (either bicubic or bilinear).">
<polygon fill="white" stroke="#666666" points="173,-37 0,-37 0,-18 173,-18 173,-37"/>
<text text-anchor="middle" x="86.5" y="-25" font-family="Courier,monospace" font-size="10.00">BidimensionalInterpolation</text>
</a>
</g>
</g>
<!-- Node1 -->
<g id="node2" class="node">
<title>Node1</title>
<g id="a_node2"><a xlink:href="classBicubicInterpolation.html" target="_top" xlink:title="This class interpolates tabulated data with a bicubic function.">
<polygon fill="white" stroke="#666666" points="349,-56 212,-56 212,-37 349,-37 349,-56"/>
<text text-anchor="middle" x="280.5" y="-44" font-family="Courier,monospace" font-size="10.00">BicubicInterpolation</text>
</a>
</g>
</g>
<!-- Node0&#45;&gt;Node1 -->
<g id="edge1" class="edge">
<title>Node0&#45;&gt;Node1</title>
<path fill="none" stroke="#63b8ff" d="M184.81,-37.13C193.84,-38.02 202.86,-38.92 211.54,-39.77"/>
<polygon fill="#63b8ff" stroke="#63b8ff" points="185.19,-33.65 174.9,-36.15 184.5,-40.62 185.19,-33.65"/>
</g>
<!-- Node2 -->
<g id="node3" class="node">
<title>Node2</title>
<g id="a_node3"><a xlink:href="classBilinearInterpolation.html" target="_top" xlink:title="This class applies the Least Squares algorithm to a set of points to provide a smooth curve for sampl...">
<polygon fill="white" stroke="#666666" points="352,-19 209,-19 209,0 352,0 352,-19"/>
<text text-anchor="middle" x="280.5" y="-7" font-family="Courier,monospace" font-size="10.00">BilinearInterpolation</text>
</a>
</g>
</g>
<!-- Node0&#45;&gt;Node2 -->
<g id="edge2" class="edge">
<title>Node0&#45;&gt;Node2</title>
<path fill="none" stroke="#63b8ff" d="M184.75,-18.38C192.8,-17.63 200.84,-16.87 208.63,-16.14"/>
<polygon fill="#63b8ff" stroke="#63b8ff" points="184.53,-14.89 174.9,-19.31 185.18,-21.86 184.53,-14.89"/>
</g>
</g>
</svg>
