<?xml version="1.0" encoding="UTF-8" standalone="no"?>
<!DOCTYPE svg PUBLIC "-//W3C//DTD SVG 1.1//EN"
 "http://www.w3.org/Graphics/SVG/1.1/DTD/svg11.dtd">
<!-- Generated by graphviz version 7.0.5 (20221223.1930)
 -->
<!-- Title: Graphical Class Hierarchy Pages: 1 -->
<svg width="336pt" height="64pt"
 viewBox="0.00 0.00 336.00 64.00" xmlns="http://www.w3.org/2000/svg" xmlns:xlink="http://www.w3.org/1999/xlink">
<g id="graph0" class="graph" transform="scale(1 1) rotate(0) translate(4 60)">
<title>Graphical Class Hierarchy</title>
<!-- Node0 -->
<g id="node1" class="node">
<title>Node0</title>
<g id="a_node1"><a xlink:href="classReporterName.html" target="_top" xlink:title="The Reporter system is comprised of objects that can contain any number of data values.">
<polygon fill="white" stroke="#666666" points="89,-37 0,-37 0,-18 89,-18 89,-37"/>
<text text-anchor="middle" x="44.5" y="-25" font-family="Courier,monospace" font-size="10.00">ReporterName</text>
</a>
</g>
</g>
<!-- Node1 -->
<g id="node2" class="node">
<title>Node1</title>
<g id="a_node2"><a xlink:href="classPostprocessorReporterName.html" target="_top" xlink:title="A ReporterName that represents a Postprocessor.">
<polygon fill="white" stroke="#666666" points="310,-56 143,-56 143,-37 310,-37 310,-56"/>
<text text-anchor="middle" x="226.5" y="-44" font-family="Courier,monospace" font-size="10.00">PostprocessorReporterName</text>
</a>
</g>
</g>
<!-- Node0&#45;&gt;Node1 -->
<g id="edge1" class="edge">
<title>Node0&#45;&gt;Node1</title>
<path fill="none" stroke="#63b8ff" d="M100.42,-33.3C113.73,-34.7 128.25,-36.23 142.53,-37.74"/>
<polygon fill="#63b8ff" stroke="#63b8ff" points="100.89,-29.83 90.58,-32.26 100.16,-36.79 100.89,-29.83"/>
</g>
<!-- Node2 -->
<g id="node3" class="node">
<title>Node2</title>
<g id="a_node3"><a xlink:href="classVectorPostprocessorReporterName.html" target="_top" xlink:title="A ReporterName that represents a VectorPostprocessor.">
<polygon fill="white" stroke="#666666" points="328,-19 125,-19 125,0 328,0 328,-19"/>
<text text-anchor="middle" x="226.5" y="-7" font-family="Courier,monospace" font-size="10.00">VectorPostprocessorReporterName</text>
</a>
</g>
</g>
<!-- Node0&#45;&gt;Node2 -->
<g id="edge2" class="edge">
<title>Node0&#45;&gt;Node2</title>
<path fill="none" stroke="#63b8ff" d="M100.53,-22C108.59,-21.19 117.09,-20.34 125.71,-19.48"/>
<polygon fill="#63b8ff" stroke="#63b8ff" points="100.18,-18.51 90.58,-22.99 100.88,-25.48 100.18,-18.51"/>
</g>
</g>
</svg>
