<?xml version="1.0" encoding="UTF-8" standalone="no"?>
<!DOCTYPE svg PUBLIC "-//W3C//DTD SVG 1.1//EN"
 "http://www.w3.org/Graphics/SVG/1.1/DTD/svg11.dtd">
<!-- Generated by graphviz version 7.0.5 (20221223.1930)
 -->
<!-- Title: Graphical Class Hierarchy Pages: 1 -->
<svg width="527pt" height="221pt"
 viewBox="0.00 0.00 527.00 220.50" xmlns="http://www.w3.org/2000/svg" xmlns:xlink="http://www.w3.org/1999/xlink">
<g id="graph0" class="graph" transform="scale(1 1) rotate(0) translate(4 216.5)">
<title>Graphical Class Hierarchy</title>
<!-- Node0 -->
<g id="node1" class="node">
<title>Node0</title>
<g id="a_node1"><a xlink:href="classReporterStateBase.html" target="_top" xlink:title="The base class for storing a Repoter&#39;s state.">
<polygon fill="white" stroke="#666666" points="325,-164 206,-164 206,-145 325,-145 325,-164"/>
<text text-anchor="middle" x="265.5" y="-152" font-family="Courier,monospace" font-size="10.00">ReporterStateBase</text>
</a>
</g>
</g>
<!-- Node1 -->
<g id="node2" class="node">
<title>Node1</title>
<g id="a_node2"><a xlink:href="classReporterState.html" target="_top" xlink:title=" ">
<polygon fill="white" stroke="#666666" points="519,-96.5 394,-96.5 394,-66.5 519,-66.5 519,-96.5"/>
<text text-anchor="start" x="402" y="-84.5" font-family="Courier,monospace" font-size="10.00">ReporterState&lt; std</text>
<text text-anchor="middle" x="456.5" y="-73.5" font-family="Courier,monospace" font-size="10.00">::vector&lt; T &gt; &gt;</text>
</a>
</g>
</g>
<!-- Node0&#45;&gt;Node1 -->
<g id="edge1" class="edge">
<title>Node0&#45;&gt;Node1</title>
<path fill="none" stroke="#63b8ff" d="M336.51,-143.14C343.86,-141.23 351.14,-139.03 358,-136.5 385.35,-126.4 414.12,-109.25 433.26,-96.78"/>
<polygon fill="#63b8ff" stroke="#63b8ff" points="335.74,-139.72 326.83,-145.46 337.37,-146.53 335.74,-139.72"/>
</g>
<!-- Node5 -->
<g id="node3" class="node">
<title>Node5</title>
<g id="a_node3"><a xlink:href="classReporterState.html" target="_top" xlink:title="A special version of RestartableData to aid in storing Reporter values.">
<polygon fill="white" stroke="#666666" points="519,-185 394,-185 394,-166 519,-166 519,-185"/>
<text text-anchor="middle" x="456.5" y="-173" font-family="Courier,monospace" font-size="10.00">ReporterState&lt; T &gt;</text>
</a>
</g>
</g>
<!-- Node0&#45;&gt;Node5 -->
<g id="edge2" class="edge">
<title>Node0&#45;&gt;Node5</title>
<path fill="none" stroke="#63b8ff" d="M336.46,-162.27C355.28,-164.36 375.5,-166.61 393.83,-168.65"/>
<polygon fill="#63b8ff" stroke="#63b8ff" points="337.09,-158.82 326.77,-161.2 336.32,-165.78 337.09,-158.82"/>
</g>
<!-- Node3 -->
<g id="node4" class="node">
<title>Node3</title>
<g id="a_node4"><a xlink:href="classRestartableDataValue.html" target="_top" xlink:title="Abstract definition of a RestartableData value.">
<polygon fill="white" stroke="#666666" points="137,-89 0,-89 0,-70 137,-70 137,-89"/>
<text text-anchor="middle" x="68.5" y="-77" font-family="Courier,monospace" font-size="10.00">RestartableDataValue</text>
</a>
</g>
</g>
<!-- Node4 -->
<g id="node5" class="node">
<title>Node4</title>
<g id="a_node5"><a xlink:href="classRestartableData.html" target="_top" xlink:title=" ">
<polygon fill="white" stroke="#666666" points="334,-212.5 197,-212.5 197,-182.5 334,-182.5 334,-212.5"/>
<text text-anchor="start" x="205" y="-200.5" font-family="Courier,monospace" font-size="10.00">RestartableData&lt; std</text>
<text text-anchor="middle" x="265.5" y="-189.5" font-family="Courier,monospace" font-size="10.00">::list&lt; T &gt; &gt;</text>
</a>
</g>
</g>
<!-- Node3&#45;&gt;Node4 -->
<g id="edge3" class="edge">
<title>Node3&#45;&gt;Node4</title>
<path fill="none" stroke="#63b8ff" d="M84.74,-97.92C103.39,-119.25 136.94,-153.94 173,-173.5 180.36,-177.49 188.42,-180.85 196.61,-183.66"/>
<polygon fill="#63b8ff" stroke="#63b8ff" points="87.63,-95.9 78.47,-90.57 82.3,-100.45 87.63,-95.9"/>
</g>
<!-- Node6 -->
<g id="node6" class="node">
<title>Node6</title>
<g id="a_node6"><a xlink:href="classRestartableData.html" target="_top" xlink:title=" ">
<polygon fill="white" stroke="#666666" points="334,-127 197,-127 197,-86 334,-86 334,-127"/>
<text text-anchor="start" x="205" y="-115" font-family="Courier,monospace" font-size="10.00">RestartableData&lt; std</text>
<text text-anchor="start" x="205" y="-104" font-family="Courier,monospace" font-size="10.00">::list&lt; std::vector&lt;</text>
<text text-anchor="middle" x="265.5" y="-93" font-family="Courier,monospace" font-size="10.00"> T &gt; &gt; &gt;</text>
</a>
</g>
</g>
<!-- Node3&#45;&gt;Node6 -->
<g id="edge5" class="edge">
<title>Node3&#45;&gt;Node6</title>
<path fill="none" stroke="#63b8ff" d="M148.4,-90.43C164.45,-92.65 181.2,-94.97 196.82,-97.13"/>
<polygon fill="#63b8ff" stroke="#63b8ff" points="149.31,-87.02 138.93,-89.11 148.35,-93.95 149.31,-87.02"/>
</g>
<!-- Node7 -->
<g id="node7" class="node">
<title>Node7</title>
<g id="a_node7"><a xlink:href="classRestartableData.html" target="_top" xlink:title=" ">
<polygon fill="white" stroke="#666666" points="358,-67.5 173,-67.5 173,-37.5 358,-37.5 358,-67.5"/>
<text text-anchor="start" x="181" y="-55.5" font-family="Courier,monospace" font-size="10.00">RestartableData&lt; Restartable</text>
<text text-anchor="middle" x="265.5" y="-44.5" font-family="Courier,monospace" font-size="10.00">EquationSystems &gt;</text>
</a>
</g>
</g>
<!-- Node3&#45;&gt;Node7 -->
<g id="edge6" class="edge">
<title>Node3&#45;&gt;Node7</title>
<path fill="none" stroke="#63b8ff" d="M148.57,-68.55C156.55,-67.45 164.71,-66.32 172.8,-65.2"/>
<polygon fill="#63b8ff" stroke="#63b8ff" points="148.35,-65.05 138.93,-69.89 149.31,-71.98 148.35,-65.05"/>
</g>
<!-- Node2 -->
<g id="node8" class="node">
<title>Node2</title>
<g id="a_node8"><a xlink:href="classRestartableData.html" target="_top" xlink:title="Concrete definition of a parameter value for a specified type.">
<polygon fill="white" stroke="#666666" points="334,-19 197,-19 197,0 334,0 334,-19"/>
<text text-anchor="middle" x="265.5" y="-7" font-family="Courier,monospace" font-size="10.00">RestartableData&lt; T &gt;</text>
</a>
</g>
</g>
<!-- Node3&#45;&gt;Node2 -->
<g id="edge7" class="edge">
<title>Node3&#45;&gt;Node2</title>
<path fill="none" stroke="#63b8ff" d="M95.97,-64.12C116.42,-52.83 145.74,-37.88 173,-28.5 183.28,-24.96 194.45,-21.98 205.33,-19.5"/>
<polygon fill="#63b8ff" stroke="#63b8ff" points="94.47,-60.95 87.46,-68.91 97.9,-67.06 94.47,-60.95"/>
</g>
<!-- Node4&#45;&gt;Node5 -->
<g id="edge4" class="edge">
<title>Node4&#45;&gt;Node5</title>
<path fill="none" stroke="#63b8ff" d="M345.51,-188.3C361.63,-186.43 378.37,-184.48 393.79,-182.68"/>
<polygon fill="#63b8ff" stroke="#63b8ff" points="345.5,-184.78 335.97,-189.41 346.31,-191.73 345.5,-184.78"/>
</g>
<!-- Node2&#45;&gt;Node1 -->
<g id="edge8" class="edge">
<title>Node2&#45;&gt;Node1</title>
<path fill="none" stroke="#63b8ff" d="M337.69,-22.13C344.63,-24 351.5,-26.12 358,-28.5 384.59,-38.25 412.79,-54.28 431.99,-66.16"/>
<polygon fill="#63b8ff" stroke="#63b8ff" points="338.78,-18.8 328.23,-19.76 337.08,-25.59 338.78,-18.8"/>
</g>
</g>
</svg>
