<?xml version="1.0" encoding="UTF-8" standalone="no"?>
<!DOCTYPE svg PUBLIC "-//W3C//DTD SVG 1.1//EN"
 "http://www.w3.org/Graphics/SVG/1.1/DTD/svg11.dtd">
<!-- Generated by graphviz version 7.0.5 (20221223.1930)
 -->
<!-- Title: Graphical Class Hierarchy Pages: 1 -->
<svg width="420pt" height="273pt"
 viewBox="0.00 0.00 420.00 273.00" xmlns="http://www.w3.org/2000/svg" xmlns:xlink="http://www.w3.org/1999/xlink">
<g id="graph0" class="graph" transform="scale(1 1) rotate(0) translate(4 269)">
<title>Graphical Class Hierarchy</title>
<!-- Node0 -->
<g id="node1" class="node">
<title>Node0</title>
<g id="a_node1"><a xlink:href="classThreadedNodeLoop.html" target="_top" xlink:title=" ">
<polygon fill="white" stroke="#666666" points="185,-147 0,-147 0,-106 185,-106 185,-147"/>
<text text-anchor="start" x="8" y="-135" font-family="Courier,monospace" font-size="10.00">ThreadedNodeLoop&lt; ConstNode</text>
<text text-anchor="start" x="8" y="-124" font-family="Courier,monospace" font-size="10.00">Range, ConstNodeRange::const</text>
<text text-anchor="middle" x="92.5" y="-113" font-family="Courier,monospace" font-size="10.00">_iterator &gt;</text>
</a>
</g>
</g>
<!-- Node1 -->
<g id="node2" class="node">
<title>Node1</title>
<g id="a_node2"><a xlink:href="classAllNodesSendListThread.html" target="_top" xlink:title=" ">
<polygon fill="white" stroke="#666666" points="391,-265 242,-265 242,-246 391,-246 391,-265"/>
<text text-anchor="middle" x="316.5" y="-253" font-family="Courier,monospace" font-size="10.00">AllNodesSendListThread</text>
</a>
</g>
</g>
<!-- Node0&#45;&gt;Node1 -->
<g id="edge1" class="edge">
<title>Node0&#45;&gt;Node1</title>
<path fill="none" stroke="#63b8ff" d="M118.59,-155.28C142.37,-180.68 180.42,-216.64 221,-236.5 228.52,-240.18 236.7,-243.14 245.01,-245.54"/>
<polygon fill="#63b8ff" stroke="#63b8ff" points="121.45,-153.23 112.11,-148.23 116.3,-157.96 121.45,-153.23"/>
</g>
<!-- Node2 -->
<g id="node3" class="node">
<title>Node2</title>
<g id="a_node3"><a xlink:href="classComputeNodalAuxVarsThread.html" target="_top" xlink:title=" ">
<polygon fill="white" stroke="#666666" points="400,-227.5 233,-227.5 233,-197.5 400,-197.5 400,-227.5"/>
<text text-anchor="start" x="241" y="-215.5" font-family="Courier,monospace" font-size="10.00">ComputeNodalAuxVarsThread</text>
<text text-anchor="middle" x="316.5" y="-204.5" font-family="Courier,monospace" font-size="10.00">&lt; AuxKernelType &gt;</text>
</a>
</g>
</g>
<!-- Node0&#45;&gt;Node2 -->
<g id="edge2" class="edge">
<title>Node0&#45;&gt;Node2</title>
<path fill="none" stroke="#63b8ff" d="M141.43,-152.69C164.92,-164.77 193.92,-178.59 221,-188.5 229.5,-191.61 238.58,-194.47 247.62,-197.05"/>
<polygon fill="#63b8ff" stroke="#63b8ff" points="143.22,-149.67 132.73,-148.15 139.98,-155.88 143.22,-149.67"/>
</g>
<!-- Node3 -->
<g id="node4" class="node">
<title>Node3</title>
<g id="a_node4"><a xlink:href="classComputeNodalDampingThread.html" target="_top" xlink:title=" ">
<polygon fill="white" stroke="#666666" points="400,-179 233,-179 233,-160 400,-160 400,-179"/>
<text text-anchor="middle" x="316.5" y="-167" font-family="Courier,monospace" font-size="10.00">ComputeNodalDampingThread</text>
</a>
</g>
</g>
<!-- Node0&#45;&gt;Node3 -->
<g id="edge3" class="edge">
<title>Node0&#45;&gt;Node3</title>
<path fill="none" stroke="#63b8ff" d="M196.48,-146.45C219.9,-150.98 243.81,-155.61 263.99,-159.52"/>
<polygon fill="#63b8ff" stroke="#63b8ff" points="197.37,-143.05 186.88,-144.59 196.04,-149.93 197.37,-143.05"/>
</g>
<!-- Node4 -->
<g id="node5" class="node">
<title>Node4</title>
<g id="a_node5"><a xlink:href="classComputeNodalKernelJacobiansThread.html" target="_top" xlink:title=" ">
<polygon fill="white" stroke="#666666" points="406,-141.5 227,-141.5 227,-111.5 406,-111.5 406,-141.5"/>
<text text-anchor="start" x="235" y="-129.5" font-family="Courier,monospace" font-size="10.00">ComputeNodalKernelJacobians</text>
<text text-anchor="middle" x="316.5" y="-118.5" font-family="Courier,monospace" font-size="10.00">Thread</text>
</a>
</g>
</g>
<!-- Node0&#45;&gt;Node4 -->
<g id="edge4" class="edge">
<title>Node0&#45;&gt;Node4</title>
<path fill="none" stroke="#63b8ff" d="M196.62,-126.5C206.62,-126.5 216.69,-126.5 226.53,-126.5"/>
<polygon fill="#63b8ff" stroke="#63b8ff" points="196.91,-123 186.91,-126.5 196.91,-130 196.91,-123"/>
</g>
<!-- Node5 -->
<g id="node6" class="node">
<title>Node5</title>
<g id="a_node6"><a xlink:href="classComputeNodalKernelsThread.html" target="_top" xlink:title=" ">
<polygon fill="white" stroke="#666666" points="400,-93 233,-93 233,-74 400,-74 400,-93"/>
<text text-anchor="middle" x="316.5" y="-81" font-family="Courier,monospace" font-size="10.00">ComputeNodalKernelsThread</text>
</a>
</g>
</g>
<!-- Node0&#45;&gt;Node5 -->
<g id="edge5" class="edge">
<title>Node0&#45;&gt;Node5</title>
<path fill="none" stroke="#63b8ff" d="M196.48,-106.55C219.9,-102.02 243.81,-97.39 263.99,-93.48"/>
<polygon fill="#63b8ff" stroke="#63b8ff" points="196.04,-103.07 186.88,-108.41 197.37,-109.95 196.04,-103.07"/>
</g>
<!-- Node6 -->
<g id="node7" class="node">
<title>Node6</title>
<g id="a_node7"><a xlink:href="classComputeNodalUserObjectsThread.html" target="_top" xlink:title=" ">
<polygon fill="white" stroke="#666666" points="412,-56 221,-56 221,-37 412,-37 412,-56"/>
<text text-anchor="middle" x="316.5" y="-44" font-family="Courier,monospace" font-size="10.00">ComputeNodalUserObjectsThread</text>
</a>
</g>
</g>
<!-- Node0&#45;&gt;Node6 -->
<g id="edge6" class="edge">
<title>Node0&#45;&gt;Node6</title>
<path fill="none" stroke="#63b8ff" d="M141,-100.31C164.5,-88.26 193.63,-74.64 221,-65.5 231.63,-61.95 243.18,-58.95 254.42,-56.47"/>
<polygon fill="#63b8ff" stroke="#63b8ff" points="139.56,-97.11 132.31,-104.83 142.8,-103.32 139.56,-97.11"/>
</g>
<!-- Node7 -->
<g id="node8" class="node">
<title>Node7</title>
<g id="a_node8"><a xlink:href="classMaxVarNDofsPerNode.html" target="_top" xlink:title=" ">
<polygon fill="white" stroke="#666666" points="379,-19 254,-19 254,0 379,0 379,-19"/>
<text text-anchor="middle" x="316.5" y="-7" font-family="Courier,monospace" font-size="10.00">MaxVarNDofsPerNode</text>
</a>
</g>
</g>
<!-- Node0&#45;&gt;Node7 -->
<g id="edge7" class="edge">
<title>Node0&#45;&gt;Node7</title>
<path fill="none" stroke="#63b8ff" d="M122.42,-97.95C146.73,-75.62 183.43,-45.59 221,-28.5 231.21,-23.86 242.54,-20.34 253.72,-17.69"/>
<polygon fill="#63b8ff" stroke="#63b8ff" points="120.06,-95.37 115.16,-104.76 124.85,-100.48 120.06,-95.37"/>
</g>
</g>
</svg>
