<?xml version="1.0" encoding="UTF-8" standalone="no"?>
<!DOCTYPE svg PUBLIC "-//W3C//DTD SVG 1.1//EN"
 "http://www.w3.org/Graphics/SVG/1.1/DTD/svg11.dtd">
<!-- Generated by graphviz version 7.0.5 (20221223.1930)
 -->
<!-- Title: Graphical Class Hierarchy Pages: 1 -->
<svg width="402pt" height="113pt"
 viewBox="0.00 0.00 402.00 112.50" xmlns="http://www.w3.org/2000/svg" xmlns:xlink="http://www.w3.org/1999/xlink">
<g id="graph0" class="graph" transform="scale(1 1) rotate(0) translate(4 108.5)">
<title>Graphical Class Hierarchy</title>
<!-- Node0 -->
<g id="node1" class="node">
<title>Node0</title>
<g id="a_node1"><a xlink:href="classMoose_1_1LibtorchNeuralNetBase.html" target="_top" xlink:title="This base class is meant to gather the functions and members common in every neural network based on ...">
<polygon fill="white" stroke="#666666" points="185,-67.5 0,-67.5 0,-48.5 185,-48.5 185,-67.5"/>
<text text-anchor="middle" x="92.5" y="-55.5" font-family="Courier,monospace" font-size="10.00">Moose::LibtorchNeuralNetBase</text>
</a>
</g>
</g>
<!-- Node1 -->
<g id="node2" class="node">
<title>Node1</title>
<g id="a_node2"><a xlink:href="classMoose_1_1LibtorchArtificialNeuralNet.html" target="_top" xlink:title=" ">
<polygon fill="white" stroke="#666666" points="391,-102 224,-102 224,-72 391,-72 391,-102"/>
<text text-anchor="start" x="232" y="-90" font-family="Courier,monospace" font-size="10.00">Moose::LibtorchArtificial</text>
<text text-anchor="middle" x="307.5" y="-79" font-family="Courier,monospace" font-size="10.00">NeuralNet</text>
</a>
</g>
</g>
<!-- Node0&#45;&gt;Node1 -->
<g id="edge1" class="edge">
<title>Node0&#45;&gt;Node1</title>
<path fill="none" stroke="#63b8ff" d="M178.11,-69.52C193.07,-71.56 208.64,-73.68 223.56,-75.71"/>
<polygon fill="#63b8ff" stroke="#63b8ff" points="178.68,-66.07 168.3,-68.18 177.74,-73 178.68,-66.07"/>
</g>
<!-- Node3 -->
<g id="node3" class="node">
<title>Node3</title>
<g id="a_node3"><a xlink:href="classMoose_1_1LibtorchTorchScriptNeuralNet.html" target="_top" xlink:title=" ">
<polygon fill="white" stroke="#666666" points="394,-46 221,-46 221,-16 394,-16 394,-46"/>
<text text-anchor="start" x="229" y="-34" font-family="Courier,monospace" font-size="10.00">Moose::LibtorchTorchScript</text>
<text text-anchor="middle" x="307.5" y="-23" font-family="Courier,monospace" font-size="10.00">NeuralNet</text>
</a>
</g>
</g>
<!-- Node0&#45;&gt;Node3 -->
<g id="edge2" class="edge">
<title>Node0&#45;&gt;Node3</title>
<path fill="none" stroke="#63b8ff" d="M183.41,-46.6C195.73,-45.04 208.35,-43.44 220.59,-41.89"/>
<polygon fill="#63b8ff" stroke="#63b8ff" points="183.19,-43.1 173.71,-47.83 184.07,-50.05 183.19,-43.1"/>
</g>
<!-- Node4 -->
<g id="node4" class="node">
<title>Node4</title>
<g id="a_node4"><a xlink:title=" ">
<polygon fill="#e0e0e0" stroke="#999999" points="155,-30 30,-30 30,0 155,0 155,-30"/>
<text text-anchor="start" x="38" y="-18" font-family="Courier,monospace" font-size="10.00">torch::jit::script</text>
<text text-anchor="middle" x="92.5" y="-7" font-family="Courier,monospace" font-size="10.00">::Module</text>
</a>
</g>
</g>
<!-- Node4&#45;&gt;Node3 -->
<g id="edge3" class="edge">
<title>Node4&#45;&gt;Node3</title>
<path fill="none" stroke="#63b8ff" d="M166.62,-20.49C184.03,-21.8 202.76,-23.21 220.68,-24.55"/>
<polygon fill="#63b8ff" stroke="#63b8ff" points="167.14,-17.02 156.9,-19.76 166.61,-24 167.14,-17.02"/>
</g>
<!-- Node2 -->
<g id="node5" class="node">
<title>Node2</title>
<g id="a_node5"><a xlink:title=" ">
<polygon fill="#e0e0e0" stroke="#999999" points="152,-104.5 33,-104.5 33,-85.5 152,-85.5 152,-104.5"/>
<text text-anchor="middle" x="92.5" y="-92.5" font-family="Courier,monospace" font-size="10.00">torch::nn::Module</text>
</a>
</g>
</g>
<!-- Node2&#45;&gt;Node1 -->
<g id="edge4" class="edge">
<title>Node2&#45;&gt;Node1</title>
<path fill="none" stroke="#63b8ff" d="M163.64,-92.37C182.82,-91.65 203.79,-90.86 223.61,-90.11"/>
<polygon fill="#63b8ff" stroke="#63b8ff" points="163.64,-88.86 153.78,-92.74 163.9,-95.86 163.64,-88.86"/>
</g>
</g>
</svg>
