<?xml version="1.0" encoding="UTF-8" standalone="no"?>
<!DOCTYPE svg PUBLIC "-//W3C//DTD SVG 1.1//EN"
 "http://www.w3.org/Graphics/SVG/1.1/DTD/svg11.dtd">
<!-- Generated by graphviz version 7.0.5 (20221223.1930)
 -->
<!-- Title: Graphical Class Hierarchy Pages: 1 -->
<svg width="366pt" height="135pt"
 viewBox="0.00 0.00 366.00 135.00" xmlns="http://www.w3.org/2000/svg" xmlns:xlink="http://www.w3.org/1999/xlink">
<g id="graph0" class="graph" transform="scale(1 1) rotate(0) translate(4 131)">
<title>Graphical Class Hierarchy</title>
<!-- Node0 -->
<g id="node1" class="node">
<title>Node0</title>
<g id="a_node1"><a xlink:href="classlibMesh_1_1TensorValue.html" target="_top" xlink:title=" ">
<polygon fill="white" stroke="#666666" points="167,-62 0,-62 0,-43 167,-43 167,-62"/>
<text text-anchor="middle" x="83.5" y="-50" font-family="Courier,monospace" font-size="10.00">libMesh::TensorValue&lt; T &gt;</text>
</a>
</g>
</g>
<!-- Node1 -->
<g id="node2" class="node">
<title>Node1</title>
<g id="a_node2"><a xlink:href="classRankTwoTensorTempl.html" target="_top" xlink:title=" ">
<polygon fill="white" stroke="#666666" points="346,-127 215,-127 215,-86 346,-86 346,-127"/>
<text text-anchor="start" x="223" y="-115" font-family="Courier,monospace" font-size="10.00">RankTwoTensorTempl</text>
<text text-anchor="start" x="223" y="-104" font-family="Courier,monospace" font-size="10.00">&lt; typename T::value</text>
<text text-anchor="middle" x="280.5" y="-93" font-family="Courier,monospace" font-size="10.00">_type &gt;</text>
</a>
</g>
</g>
<!-- Node0&#45;&gt;Node1 -->
<g id="edge1" class="edge">
<title>Node0&#45;&gt;Node1</title>
<path fill="none" stroke="#63b8ff" d="M131.29,-65.46C156.29,-72.38 187.47,-81.02 214.77,-88.58"/>
<polygon fill="#63b8ff" stroke="#63b8ff" points="132.3,-62.1 121.72,-62.81 130.43,-68.85 132.3,-62.1"/>
</g>
<!-- Node2 -->
<g id="node3" class="node">
<title>Node2</title>
<g id="a_node3"><a xlink:href="classRankTwoTensorTempl.html" target="_top" xlink:title=" ">
<polygon fill="white" stroke="#666666" points="343,-67.5 218,-67.5 218,-37.5 343,-37.5 343,-67.5"/>
<text text-anchor="start" x="226" y="-55.5" font-family="Courier,monospace" font-size="10.00">RankTwoTensorTempl</text>
<text text-anchor="middle" x="280.5" y="-44.5" font-family="Courier,monospace" font-size="10.00">&lt; Real &gt;</text>
</a>
</g>
</g>
<!-- Node0&#45;&gt;Node2 -->
<g id="edge2" class="edge">
<title>Node0&#45;&gt;Node2</title>
<path fill="none" stroke="#63b8ff" d="M178.96,-52.5C192.07,-52.5 205.26,-52.5 217.57,-52.5"/>
<polygon fill="#63b8ff" stroke="#63b8ff" points="178.99,-49 168.99,-52.5 178.99,-56 178.99,-49"/>
</g>
<!-- Node3 -->
<g id="node4" class="node">
<title>Node3</title>
<g id="a_node4"><a xlink:href="classRankTwoTensorTempl.html" target="_top" xlink:title="RankTwoTensorTempl is designed to handle the Stress or Strain Tensor for a fully anisotropic material...">
<polygon fill="white" stroke="#666666" points="358,-19 203,-19 203,0 358,0 358,-19"/>
<text text-anchor="middle" x="280.5" y="-7" font-family="Courier,monospace" font-size="10.00">RankTwoTensorTempl&lt; T &gt;</text>
</a>
</g>
</g>
<!-- Node0&#45;&gt;Node3 -->
<g id="edge3" class="edge">
<title>Node0&#45;&gt;Node3</title>
<path fill="none" stroke="#63b8ff" d="M140.76,-40.09C170.42,-33.55 206.33,-25.64 234.18,-19.49"/>
<polygon fill="#63b8ff" stroke="#63b8ff" points="140.22,-36.63 131.21,-42.2 141.72,-43.47 140.22,-36.63"/>
</g>
</g>
</svg>
