<?xml version="1.0" encoding="UTF-8" standalone="no"?>
<!DOCTYPE svg PUBLIC "-//W3C//DTD SVG 1.1//EN"
 "http://www.w3.org/Graphics/SVG/1.1/DTD/svg11.dtd">
<!-- Generated by graphviz version 7.0.5 (20221223.1930)
 -->
<!-- Title: Graphical Class Hierarchy Pages: 1 -->
<svg width="432pt" height="268pt"
 viewBox="0.00 0.00 432.00 267.50" xmlns="http://www.w3.org/2000/svg" xmlns:xlink="http://www.w3.org/1999/xlink">
<g id="graph0" class="graph" transform="scale(1 1) rotate(0) translate(4 263.5)">
<title>Graphical Class Hierarchy</title>
<!-- Node0 -->
<g id="node1" class="node">
<title>Node0</title>
<g id="a_node1"><a xlink:href="classThreadedNodeLoop.html" target="_top" xlink:title=" ">
<polygon fill="white" stroke="#666666" points="185,-145 0,-145 0,-104 185,-104 185,-145"/>
<text text-anchor="start" x="8" y="-133" font-family="Courier,monospace" font-size="10.00">ThreadedNodeLoop&lt; ConstBnd</text>
<text text-anchor="start" x="8" y="-122" font-family="Courier,monospace" font-size="10.00">NodeRange, ConstBndNodeRange</text>
<text text-anchor="middle" x="92.5" y="-111" font-family="Courier,monospace" font-size="10.00">::const_iterator &gt;</text>
</a>
</g>
</g>
<!-- Node1 -->
<g id="node2" class="node">
<title>Node1</title>
<g id="a_node2"><a xlink:href="classBoundaryNodeIntegrityCheckThread.html" target="_top" xlink:title=" ">
<polygon fill="white" stroke="#666666" points="409,-259.5 236,-259.5 236,-229.5 409,-229.5 409,-259.5"/>
<text text-anchor="start" x="244" y="-247.5" font-family="Courier,monospace" font-size="10.00">BoundaryNodeIntegrityCheck</text>
<text text-anchor="middle" x="322.5" y="-236.5" font-family="Courier,monospace" font-size="10.00">Thread</text>
</a>
</g>
</g>
<!-- Node0&#45;&gt;Node1 -->
<g id="edge1" class="edge">
<title>Node0&#45;&gt;Node1</title>
<path fill="none" stroke="#63b8ff" d="M123.59,-152.87C148.04,-174.45 184.38,-203.27 221,-220.5 227.9,-223.75 235.28,-226.58 242.78,-229.04"/>
<polygon fill="#63b8ff" stroke="#63b8ff" points="126.04,-150.37 116.26,-146.3 121.36,-155.58 126.04,-150.37"/>
</g>
<!-- Node2 -->
<g id="node3" class="node">
<title>Node2</title>
<g id="a_node3"><a xlink:href="classComputeBoundaryInitialConditionThread.html" target="_top" xlink:title=" ">
<polygon fill="white" stroke="#666666" points="424,-211.5 221,-211.5 221,-181.5 424,-181.5 424,-211.5"/>
<text text-anchor="start" x="229" y="-199.5" font-family="Courier,monospace" font-size="10.00">ComputeBoundaryInitialCondition</text>
<text text-anchor="middle" x="322.5" y="-188.5" font-family="Courier,monospace" font-size="10.00">Thread</text>
</a>
</g>
</g>
<!-- Node0&#45;&gt;Node2 -->
<g id="edge2" class="edge">
<title>Node0&#45;&gt;Node2</title>
<path fill="none" stroke="#63b8ff" d="M155.35,-149.57C176.03,-157.47 199.33,-165.86 221,-172.5 230.86,-175.52 241.36,-178.4 251.72,-181.04"/>
<polygon fill="#63b8ff" stroke="#63b8ff" points="156.79,-146.38 146.2,-146.04 154.27,-152.91 156.79,-146.38"/>
</g>
<!-- Node3 -->
<g id="node4" class="node">
<title>Node3</title>
<g id="a_node4"><a xlink:href="classComputeMortarNodalAuxBndThread.html" target="_top" xlink:title="This class evaluates a single mortar nodal aux kernel.">
<polygon fill="white" stroke="#666666" points="403,-163.5 242,-163.5 242,-133.5 403,-133.5 403,-163.5"/>
<text text-anchor="start" x="250" y="-151.5" font-family="Courier,monospace" font-size="10.00">ComputeMortarNodalAuxBnd</text>
<text text-anchor="middle" x="322.5" y="-140.5" font-family="Courier,monospace" font-size="10.00">Thread&lt; AuxKernelType &gt;</text>
</a>
</g>
</g>
<!-- Node0&#45;&gt;Node3 -->
<g id="edge3" class="edge">
<title>Node0&#45;&gt;Node3</title>
<path fill="none" stroke="#63b8ff" d="M196.28,-135.32C211.51,-136.92 227.01,-138.55 241.68,-140.1"/>
<polygon fill="#63b8ff" stroke="#63b8ff" points="197.07,-131.88 186.76,-134.32 196.33,-138.84 197.07,-131.88"/>
</g>
<!-- Node4 -->
<g id="node5" class="node">
<title>Node4</title>
<g id="a_node5"><a xlink:href="classComputeNodalAuxBcsThread.html" target="_top" xlink:title=" ">
<polygon fill="white" stroke="#666666" points="403,-115.5 242,-115.5 242,-85.5 403,-85.5 403,-115.5"/>
<text text-anchor="start" x="250" y="-103.5" font-family="Courier,monospace" font-size="10.00">ComputeNodalAuxBcsThread</text>
<text text-anchor="middle" x="322.5" y="-92.5" font-family="Courier,monospace" font-size="10.00">&lt; AuxKernelType &gt;</text>
</a>
</g>
</g>
<!-- Node0&#45;&gt;Node4 -->
<g id="edge4" class="edge">
<title>Node0&#45;&gt;Node4</title>
<path fill="none" stroke="#63b8ff" d="M196.28,-113.68C211.51,-112.08 227.01,-110.45 241.68,-108.9"/>
<polygon fill="#63b8ff" stroke="#63b8ff" points="196.33,-110.16 186.76,-114.68 197.07,-117.12 196.33,-110.16"/>
</g>
<!-- Node5 -->
<g id="node6" class="node">
<title>Node5</title>
<g id="a_node6"><a xlink:href="classComputeNodalKernelBCJacobiansThread.html" target="_top" xlink:title=" ">
<polygon fill="white" stroke="#666666" points="418,-67.5 227,-67.5 227,-37.5 418,-37.5 418,-67.5"/>
<text text-anchor="start" x="235" y="-55.5" font-family="Courier,monospace" font-size="10.00">ComputeNodalKernelBCJacobians</text>
<text text-anchor="middle" x="322.5" y="-44.5" font-family="Courier,monospace" font-size="10.00">Thread</text>
</a>
</g>
</g>
<!-- Node0&#45;&gt;Node5 -->
<g id="edge5" class="edge">
<title>Node0&#45;&gt;Node5</title>
<path fill="none" stroke="#63b8ff" d="M155.35,-99.43C176.03,-91.53 199.33,-83.14 221,-76.5 230.86,-73.48 241.36,-70.6 251.72,-67.96"/>
<polygon fill="#63b8ff" stroke="#63b8ff" points="154.27,-96.09 146.2,-102.96 156.79,-102.62 154.27,-96.09"/>
</g>
<!-- Node6 -->
<g id="node7" class="node">
<title>Node6</title>
<g id="a_node7"><a xlink:href="classComputeNodalKernelBcsThread.html" target="_top" xlink:title=" ">
<polygon fill="white" stroke="#666666" points="412,-19 233,-19 233,0 412,0 412,-19"/>
<text text-anchor="middle" x="322.5" y="-7" font-family="Courier,monospace" font-size="10.00">ComputeNodalKernelBcsThread</text>
</a>
</g>
</g>
<!-- Node0&#45;&gt;Node6 -->
<g id="edge6" class="edge">
<title>Node0&#45;&gt;Node6</title>
<path fill="none" stroke="#63b8ff" d="M122.92,-96.04C147.26,-74.16 183.76,-44.96 221,-28.5 229.28,-24.84 238.25,-21.88 247.31,-19.5"/>
<polygon fill="#63b8ff" stroke="#63b8ff" points="120.65,-93.38 115.64,-102.72 125.38,-98.54 120.65,-93.38"/>
</g>
</g>
</svg>
