<?xml version="1.0" encoding="UTF-8" standalone="no"?>
<!DOCTYPE svg PUBLIC "-//W3C//DTD SVG 1.1//EN"
 "http://www.w3.org/Graphics/SVG/1.1/DTD/svg11.dtd">
<!-- Generated by graphviz version 7.0.5 (20221223.1930)
 -->
<!-- Title: Graphical Class Hierarchy Pages: 1 -->
<svg width="402pt" height="64pt"
 viewBox="0.00 0.00 402.00 64.00" xmlns="http://www.w3.org/2000/svg" xmlns:xlink="http://www.w3.org/1999/xlink">
<g id="graph0" class="graph" transform="scale(1 1) rotate(0) translate(4 60)">
<title>Graphical Class Hierarchy</title>
<!-- Node0 -->
<g id="node1" class="node">
<title>Node0</title>
<g id="a_node1"><a xlink:href="classMooseUtils_1_1Buffer.html" target="_top" xlink:title="Base class for a buffer.">
<polygon fill="white" stroke="#666666" points="155,-37 0,-37 0,-18 155,-18 155,-37"/>
<text text-anchor="middle" x="77.5" y="-25" font-family="Courier,monospace" font-size="10.00">MooseUtils::Buffer&lt; T &gt;</text>
</a>
</g>
</g>
<!-- Node1 -->
<g id="node2" class="node">
<title>Node1</title>
<g id="a_node2"><a xlink:href="classMooseUtils_1_1CircularBuffer.html" target="_top" xlink:title="An optimized circular buffer.">
<polygon fill="white" stroke="#666666" points="394,-56 191,-56 191,-37 394,-37 394,-56"/>
<text text-anchor="middle" x="292.5" y="-44" font-family="Courier,monospace" font-size="10.00">MooseUtils::CircularBuffer&lt; T &gt;</text>
</a>
</g>
</g>
<!-- Node0&#45;&gt;Node1 -->
<g id="edge1" class="edge">
<title>Node0&#45;&gt;Node1</title>
<path fill="none" stroke="#63b8ff" d="M166.8,-35.38C174.66,-36.08 182.66,-36.79 190.61,-37.5"/>
<polygon fill="#63b8ff" stroke="#63b8ff" points="167.18,-31.9 156.91,-34.49 166.55,-38.87 167.18,-31.9"/>
</g>
<!-- Node2 -->
<g id="node3" class="node">
<title>Node2</title>
<g id="a_node3"><a xlink:href="classMooseUtils_1_1LIFOBuffer.html" target="_top" xlink:title="An optimized LIFO (Last In First Out) buffer.">
<polygon fill="white" stroke="#666666" points="382,-19 203,-19 203,0 382,0 382,-19"/>
<text text-anchor="middle" x="292.5" y="-7" font-family="Courier,monospace" font-size="10.00">MooseUtils::LIFOBuffer&lt; T &gt;</text>
</a>
</g>
</g>
<!-- Node0&#45;&gt;Node2 -->
<g id="edge2" class="edge">
<title>Node0&#45;&gt;Node2</title>
<path fill="none" stroke="#63b8ff" d="M166.7,-20.05C178.62,-19.04 190.85,-18.01 202.77,-17"/>
<polygon fill="#63b8ff" stroke="#63b8ff" points="166.58,-16.54 156.91,-20.87 167.17,-23.52 166.58,-16.54"/>
</g>
</g>
</svg>
