<?xml version="1.0" encoding="UTF-8" standalone="no"?>
<!DOCTYPE svg PUBLIC "-//W3C//DTD SVG 1.1//EN"
 "http://www.w3.org/Graphics/SVG/1.1/DTD/svg11.dtd">
<!-- Generated by graphviz version 7.0.5 (20221223.1930)
 -->
<!-- Title: Graphical Class Hierarchy Pages: 1 -->
<svg width="336pt" height="76pt"
 viewBox="0.00 0.00 336.00 75.50" xmlns="http://www.w3.org/2000/svg" xmlns:xlink="http://www.w3.org/1999/xlink">
<g id="graph0" class="graph" transform="scale(1 1) rotate(0) translate(4 71.5)">
<title>Graphical Class Hierarchy</title>
<!-- Node0 -->
<g id="node1" class="node">
<title>Node0</title>
<g id="a_node1"><a xlink:title=" ">
<polygon fill="#e0e0e0" stroke="#999999" points="125,-40 0,-40 0,-21 125,-21 125,-40"/>
<text text-anchor="middle" x="62.5" y="-28" font-family="Courier,monospace" font-size="10.00">std::runtime_error</text>
</a>
</g>
</g>
<!-- Node1 -->
<g id="node2" class="node">
<title>Node1</title>
<g id="a_node2"><a xlink:href="classCyclicDependencyException.html" target="_top" xlink:title=" ">
<polygon fill="white" stroke="#666666" points="328,-67.5 161,-67.5 161,-37.5 328,-37.5 328,-67.5"/>
<text text-anchor="start" x="169" y="-55.5" font-family="Courier,monospace" font-size="10.00">CyclicDependencyException</text>
<text text-anchor="middle" x="244.5" y="-44.5" font-family="Courier,monospace" font-size="10.00">&lt; T, Compare &gt;</text>
</a>
</g>
</g>
<!-- Node0&#45;&gt;Node1 -->
<g id="edge1" class="edge">
<title>Node0&#45;&gt;Node1</title>
<path fill="none" stroke="#63b8ff" d="M136.84,-39.46C144.73,-40.43 152.79,-41.41 160.78,-42.39"/>
<polygon fill="#63b8ff" stroke="#63b8ff" points="137.3,-35.99 126.95,-38.25 136.45,-42.94 137.3,-35.99"/>
</g>
<!-- Node2 -->
<g id="node3" class="node">
<title>Node2</title>
<g id="a_node3"><a xlink:href="classMultiAppSolveFailure.html" target="_top" xlink:title="Utility class for catching solve failure errors so that MOOSE can recover state before continuing.">
<polygon fill="white" stroke="#666666" points="313,-19 176,-19 176,0 313,0 313,-19"/>
<text text-anchor="middle" x="244.5" y="-7" font-family="Courier,monospace" font-size="10.00">MultiAppSolveFailure</text>
</a>
</g>
</g>
<!-- Node0&#45;&gt;Node2 -->
<g id="edge2" class="edge">
<title>Node0&#45;&gt;Node2</title>
<path fill="none" stroke="#63b8ff" d="M136.61,-21.97C149.5,-20.47 162.86,-18.91 175.59,-17.42"/>
<polygon fill="#63b8ff" stroke="#63b8ff" points="136.48,-18.46 126.95,-23.1 137.29,-25.42 136.48,-18.46"/>
</g>
</g>
</svg>
