<?xml version="1.0" encoding="UTF-8" standalone="no"?>
<!DOCTYPE svg PUBLIC "-//W3C//DTD SVG 1.1//EN"
 "http://www.w3.org/Graphics/SVG/1.1/DTD/svg11.dtd">
<!-- Generated by graphviz version 7.0.5 (20221223.1930)
 -->
<!-- Title: Graphical Class Hierarchy Pages: 1 -->
<svg width="372pt" height="64pt"
 viewBox="0.00 0.00 372.00 64.00" xmlns="http://www.w3.org/2000/svg" xmlns:xlink="http://www.w3.org/1999/xlink">
<g id="graph0" class="graph" transform="scale(1 1) rotate(0) translate(4 60)">
<title>Graphical Class Hierarchy</title>
<!-- Node0 -->
<g id="node1" class="node">
<title>Node0</title>
<g id="a_node1"><a xlink:href="classSplineInterpolationBase.html" target="_top" xlink:title=" ">
<polygon fill="white" stroke="#666666" points="155,-37 0,-37 0,-18 155,-18 155,-37"/>
<text text-anchor="middle" x="77.5" y="-25" font-family="Courier,monospace" font-size="10.00">SplineInterpolationBase</text>
</a>
</g>
</g>
<!-- Node1 -->
<g id="node2" class="node">
<title>Node1</title>
<g id="a_node2"><a xlink:href="classBicubicSplineInterpolation.html" target="_top" xlink:title="This class interpolates tabulated functions with a bi&#45;cubic spline.">
<polygon fill="white" stroke="#666666" points="364,-56 191,-56 191,-37 364,-37 364,-56"/>
<text text-anchor="middle" x="277.5" y="-44" font-family="Courier,monospace" font-size="10.00">BicubicSplineInterpolation</text>
</a>
</g>
</g>
<!-- Node0&#45;&gt;Node1 -->
<g id="edge1" class="edge">
<title>Node0&#45;&gt;Node1</title>
<path fill="none" stroke="#63b8ff" d="M166.79,-35.97C174.67,-36.73 182.64,-37.49 190.5,-38.25"/>
<polygon fill="#63b8ff" stroke="#63b8ff" points="167.13,-32.49 156.84,-35.02 166.46,-39.46 167.13,-32.49"/>
</g>
<!-- Node2 -->
<g id="node3" class="node">
<title>Node2</title>
<g id="a_node3"><a xlink:href="classSplineInterpolation.html" target="_top" xlink:title="This class interpolates tabulated functions with cubic splines.">
<polygon fill="white" stroke="#666666" points="343,-19 212,-19 212,0 343,0 343,-19"/>
<text text-anchor="middle" x="277.5" y="-7" font-family="Courier,monospace" font-size="10.00">SplineInterpolation</text>
</a>
</g>
</g>
<!-- Node0&#45;&gt;Node2 -->
<g id="edge2" class="edge">
<title>Node0&#45;&gt;Node2</title>
<path fill="none" stroke="#63b8ff" d="M166.78,-19.47C181.85,-18.1 197.26,-16.7 211.59,-15.4"/>
<polygon fill="#63b8ff" stroke="#63b8ff" points="166.48,-15.99 156.84,-20.38 167.12,-22.96 166.48,-15.99"/>
</g>
</g>
</svg>
