<?xml version="1.0" encoding="UTF-8" standalone="no"?>
<!DOCTYPE svg PUBLIC "-//W3C//DTD SVG 1.1//EN"
 "http://www.w3.org/Graphics/SVG/1.1/DTD/svg11.dtd">
<!-- Generated by graphviz version 7.0.5 (20221223.1930)
 -->
<!-- Title: Graphical Class Hierarchy Pages: 1 -->
<svg width="246pt" height="64pt"
 viewBox="0.00 0.00 246.00 64.00" xmlns="http://www.w3.org/2000/svg" xmlns:xlink="http://www.w3.org/1999/xlink">
<g id="graph0" class="graph" transform="scale(1 1) rotate(0) translate(4 60)">
<title>Graphical Class Hierarchy</title>
<!-- Node0 -->
<g id="node1" class="node">
<title>Node0</title>
<g id="a_node1"><a xlink:href="classInputStream.html" target="_top" xlink:title="Helper class that hands out input streams to an underlying, managed stream of arbitrary type.">
<polygon fill="white" stroke="#666666" points="83,-37 0,-37 0,-18 83,-18 83,-37"/>
<text text-anchor="middle" x="41.5" y="-25" font-family="Courier,monospace" font-size="10.00">InputStream</text>
</a>
</g>
</g>
<!-- Node1 -->
<g id="node2" class="node">
<title>Node1</title>
<g id="a_node2"><a xlink:href="classFileInputStream.html" target="_top" xlink:title="Helper class that hands out input streams to a file.">
<polygon fill="white" stroke="#666666" points="232,-56 125,-56 125,-37 232,-37 232,-56"/>
<text text-anchor="middle" x="178.5" y="-44" font-family="Courier,monospace" font-size="10.00">FileInputStream</text>
</a>
</g>
</g>
<!-- Node0&#45;&gt;Node1 -->
<g id="edge1" class="edge">
<title>Node0&#45;&gt;Node1</title>
<path fill="none" stroke="#63b8ff" d="M94.69,-34.85C104.56,-36.23 114.89,-37.69 124.78,-39.08"/>
<polygon fill="#63b8ff" stroke="#63b8ff" points="95.26,-31.39 84.87,-33.46 94.28,-38.32 95.26,-31.39"/>
</g>
<!-- Node2 -->
<g id="node3" class="node">
<title>Node2</title>
<g id="a_node3"><a xlink:href="classStringInputStream.html" target="_top" xlink:title="Helper class that hands out input streams to a stringstream.">
<polygon fill="white" stroke="#666666" points="238,-19 119,-19 119,0 238,0 238,-19"/>
<text text-anchor="middle" x="178.5" y="-7" font-family="Courier,monospace" font-size="10.00">StringInputStream</text>
</a>
</g>
</g>
<!-- Node0&#45;&gt;Node2 -->
<g id="edge2" class="edge">
<title>Node0&#45;&gt;Node2</title>
<path fill="none" stroke="#63b8ff" d="M94.69,-20.54C102.6,-19.49 110.8,-18.39 118.84,-17.32"/>
<polygon fill="#63b8ff" stroke="#63b8ff" points="94.32,-17.06 84.87,-21.85 95.25,-24 94.32,-17.06"/>
</g>
</g>
</svg>
