<?xml version="1.0" encoding="UTF-8" standalone="no"?>
<!DOCTYPE svg PUBLIC "-//W3C//DTD SVG 1.1//EN"
 "http://www.w3.org/Graphics/SVG/1.1/DTD/svg11.dtd">
<!-- Generated by graphviz version 7.0.5 (20221223.1930)
 -->
<!-- Title: Graphical Class Hierarchy Pages: 1 -->
<svg width="342pt" height="374pt"
 viewBox="0.00 0.00 342.00 374.00" xmlns="http://www.w3.org/2000/svg" xmlns:xlink="http://www.w3.org/1999/xlink">
<g id="graph0" class="graph" transform="scale(1 1) rotate(0) translate(4 370)">
<title>Graphical Class Hierarchy</title>
<!-- Node0 -->
<g id="node1" class="node">
<title>Node0</title>
<g id="a_node1"><a xlink:title=" ">
<polygon fill="#e0e0e0" stroke="#999999" points="155,-192.5 0,-192.5 0,-173.5 155,-173.5 155,-192.5"/>
<text text-anchor="middle" x="77.5" y="-180.5" font-family="Courier,monospace" font-size="10.00">variant_filter_iterator</text>
</a>
</g>
</g>
<!-- Node1 -->
<g id="node2" class="node">
<title>Node1</title>
<g id="a_node2"><a xlink:href="structMooseMesh_1_1bnd__elem__iterator.html" target="_top" xlink:title="The definition of the bnd_elem_iterator struct.">
<polygon fill="white" stroke="#666666" points="328,-366 197,-366 197,-336 328,-336 328,-366"/>
<text text-anchor="start" x="205" y="-354" font-family="Courier,monospace" font-size="10.00">MooseMesh::bnd_elem</text>
<text text-anchor="middle" x="262.5" y="-343" font-family="Courier,monospace" font-size="10.00">_iterator</text>
</a>
</g>
</g>
<!-- Node0&#45;&gt;Node1 -->
<g id="edge1" class="edge">
<title>Node0&#45;&gt;Node1</title>
<path fill="none" stroke="#63b8ff" d="M88.8,-202.56C105.97,-233.36 143.33,-293.12 191,-327 195.64,-330.3 200.76,-333.17 206.07,-335.66"/>
<polygon fill="#63b8ff" stroke="#63b8ff" points="91.97,-201.07 84.13,-193.96 85.82,-204.41 91.97,-201.07"/>
</g>
<!-- Node2 -->
<g id="node3" class="node">
<title>Node2</title>
<g id="a_node3"><a xlink:href="structMooseMesh_1_1bnd__node__iterator.html" target="_top" xlink:title="The definition of the bnd_node_iterator struct.">
<polygon fill="white" stroke="#666666" points="328,-318 197,-318 197,-288 328,-288 328,-318"/>
<text text-anchor="start" x="205" y="-306" font-family="Courier,monospace" font-size="10.00">MooseMesh::bnd_node</text>
<text text-anchor="middle" x="262.5" y="-295" font-family="Courier,monospace" font-size="10.00">_iterator</text>
</a>
</g>
</g>
<!-- Node0&#45;&gt;Node2 -->
<g id="edge2" class="edge">
<title>Node0&#45;&gt;Node2</title>
<path fill="none" stroke="#63b8ff" d="M95.3,-201.01C116.01,-222.27 153.12,-257.45 191,-279 196.62,-282.2 202.73,-285.06 208.93,-287.6"/>
<polygon fill="#63b8ff" stroke="#63b8ff" points="97.97,-198.73 88.53,-193.92 92.91,-203.57 97.97,-198.73"/>
</g>
<!-- Node3 -->
<g id="node4" class="node">
<title>Node3</title>
<g id="a_node4"><a xlink:href="structMooseMesh_1_1const__bnd__elem__iterator.html" target="_top" xlink:title="The definition of the const_bnd_elem_iterator struct.">
<polygon fill="white" stroke="#666666" points="331,-270 194,-270 194,-240 331,-240 331,-270"/>
<text text-anchor="start" x="202" y="-258" font-family="Courier,monospace" font-size="10.00">MooseMesh::const_bnd</text>
<text text-anchor="middle" x="262.5" y="-247" font-family="Courier,monospace" font-size="10.00">_elem_iterator</text>
</a>
</g>
</g>
<!-- Node0&#45;&gt;Node3 -->
<g id="edge3" class="edge">
<title>Node0&#45;&gt;Node3</title>
<path fill="none" stroke="#63b8ff" d="M110.55,-197.44C132.92,-207.32 163.56,-220.49 191,-231 198.61,-233.91 206.74,-236.85 214.68,-239.61"/>
<polygon fill="#63b8ff" stroke="#63b8ff" points="112.23,-194.35 101.67,-193.49 109.39,-200.75 112.23,-194.35"/>
</g>
<!-- Node4 -->
<g id="node5" class="node">
<title>Node4</title>
<g id="a_node5"><a xlink:href="structMooseMesh_1_1const__bnd__node__iterator.html" target="_top" xlink:title="The definition of the const_bnd_node_iterator struct.">
<polygon fill="white" stroke="#666666" points="331,-222 194,-222 194,-192 331,-192 331,-222"/>
<text text-anchor="start" x="202" y="-210" font-family="Courier,monospace" font-size="10.00">MooseMesh::const_bnd</text>
<text text-anchor="middle" x="262.5" y="-199" font-family="Courier,monospace" font-size="10.00">_node_iterator</text>
</a>
</g>
</g>
<!-- Node0&#45;&gt;Node4 -->
<g id="edge4" class="edge">
<title>Node0&#45;&gt;Node4</title>
<path fill="none" stroke="#63b8ff" d="M165.84,-194.45C175.17,-195.68 184.55,-196.91 193.61,-198.1"/>
<polygon fill="#63b8ff" stroke="#63b8ff" points="166.39,-191 156.02,-193.17 165.48,-197.94 166.39,-191"/>
</g>
<!-- Node5 -->
<g id="node6" class="node">
<title>Node5</title>
<g id="a_node6"><a xlink:href="structMooseMesh_1_1const__elem__info__iterator.html" target="_top" xlink:title="The definition of the const_elem_info_iterator struct.">
<polygon fill="white" stroke="#666666" points="334,-174 191,-174 191,-144 334,-144 334,-174"/>
<text text-anchor="start" x="199" y="-162" font-family="Courier,monospace" font-size="10.00">MooseMesh::const_elem</text>
<text text-anchor="middle" x="262.5" y="-151" font-family="Courier,monospace" font-size="10.00">_info_iterator</text>
</a>
</g>
</g>
<!-- Node0&#45;&gt;Node5 -->
<g id="edge5" class="edge">
<title>Node0&#45;&gt;Node5</title>
<path fill="none" stroke="#63b8ff" d="M165.83,-171.55C174.17,-170.45 182.55,-169.35 190.7,-168.29"/>
<polygon fill="#63b8ff" stroke="#63b8ff" points="165.48,-168.06 156.02,-172.83 166.39,-175 165.48,-168.06"/>
</g>
<!-- Node6 -->
<g id="node7" class="node">
<title>Node6</title>
<g id="a_node7"><a xlink:href="structMooseMesh_1_1const__face__info__iterator.html" target="_top" xlink:title="The definition of the const_face_info_iterator struct.">
<polygon fill="white" stroke="#666666" points="334,-126 191,-126 191,-96 334,-96 334,-126"/>
<text text-anchor="start" x="199" y="-114" font-family="Courier,monospace" font-size="10.00">MooseMesh::const_face</text>
<text text-anchor="middle" x="262.5" y="-103" font-family="Courier,monospace" font-size="10.00">_info_iterator</text>
</a>
</g>
</g>
<!-- Node0&#45;&gt;Node6 -->
<g id="edge6" class="edge">
<title>Node0&#45;&gt;Node6</title>
<path fill="none" stroke="#63b8ff" d="M110.55,-168.56C132.92,-158.68 163.56,-145.51 191,-135 198.61,-132.09 206.74,-129.15 214.68,-126.39"/>
<polygon fill="#63b8ff" stroke="#63b8ff" points="109.39,-165.25 101.67,-172.51 112.23,-171.65 109.39,-165.25"/>
</g>
<!-- Node7 -->
<g id="node8" class="node">
<title>Node7</title>
<g id="a_node8"><a xlink:href="structMooseMesh_1_1elem__info__iterator.html" target="_top" xlink:title="The definition of the elem_info_iterator struct.">
<polygon fill="white" stroke="#666666" points="331,-78 194,-78 194,-48 331,-48 331,-78"/>
<text text-anchor="start" x="202" y="-66" font-family="Courier,monospace" font-size="10.00">MooseMesh::elem_info</text>
<text text-anchor="middle" x="262.5" y="-55" font-family="Courier,monospace" font-size="10.00">_iterator</text>
</a>
</g>
</g>
<!-- Node0&#45;&gt;Node7 -->
<g id="edge7" class="edge">
<title>Node0&#45;&gt;Node7</title>
<path fill="none" stroke="#63b8ff" d="M95.3,-164.99C116.01,-143.73 153.12,-108.55 191,-87 196.62,-83.8 202.73,-80.94 208.93,-78.4"/>
<polygon fill="#63b8ff" stroke="#63b8ff" points="92.91,-162.43 88.53,-172.08 97.97,-167.27 92.91,-162.43"/>
</g>
<!-- Node8 -->
<g id="node9" class="node">
<title>Node8</title>
<g id="a_node9"><a xlink:href="structMooseMesh_1_1face__info__iterator.html" target="_top" xlink:title="The definition of the face_info_iterator struct.">
<polygon fill="white" stroke="#666666" points="331,-30 194,-30 194,0 331,0 331,-30"/>
<text text-anchor="start" x="202" y="-18" font-family="Courier,monospace" font-size="10.00">MooseMesh::face_info</text>
<text text-anchor="middle" x="262.5" y="-7" font-family="Courier,monospace" font-size="10.00">_iterator</text>
</a>
</g>
</g>
<!-- Node0&#45;&gt;Node8 -->
<g id="edge8" class="edge">
<title>Node0&#45;&gt;Node8</title>
<path fill="none" stroke="#63b8ff" d="M88.8,-163.44C105.97,-132.64 143.33,-72.88 191,-39 195.64,-35.7 200.76,-32.83 206.07,-30.34"/>
<polygon fill="#63b8ff" stroke="#63b8ff" points="85.82,-161.59 84.13,-172.04 91.97,-164.93 85.82,-161.59"/>
</g>
</g>
</svg>
