<?xml version="1.0" encoding="UTF-8" standalone="no"?>
<!DOCTYPE svg PUBLIC "-//W3C//DTD SVG 1.1//EN"
 "http://www.w3.org/Graphics/SVG/1.1/DTD/svg11.dtd">
<!-- Generated by graphviz version 7.0.5 (20221223.1930)
 -->
<!-- Title: Graphical Class Hierarchy Pages: 1 -->
<svg width="586pt" height="64pt"
 viewBox="0.00 0.00 586.00 64.00" xmlns="http://www.w3.org/2000/svg" xmlns:xlink="http://www.w3.org/1999/xlink">
<g id="graph0" class="graph" transform="scale(1 1) rotate(0) translate(4 60)">
<title>Graphical Class Hierarchy</title>
<!-- Node0 -->
<g id="node1" class="node">
<title>Node0</title>
<g id="a_node1"><a xlink:href="classSyntaxFormatterInterface.html" target="_top" xlink:title="This interface is for classes that want to be called to format InputParameters.">
<polygon fill="white" stroke="#666666" points="161,-37 0,-37 0,-18 161,-18 161,-37"/>
<text text-anchor="middle" x="80.5" y="-25" font-family="Courier,monospace" font-size="10.00">SyntaxFormatterInterface</text>
</a>
</g>
</g>
<!-- Node1 -->
<g id="node2" class="node">
<title>Node1</title>
<g id="a_node2"><a xlink:href="classSyntaxTree.html" target="_top" xlink:title=" ">
<polygon fill="white" stroke="#666666" points="274,-37 197,-37 197,-18 274,-18 274,-37"/>
<text text-anchor="middle" x="235.5" y="-25" font-family="Courier,monospace" font-size="10.00">SyntaxTree</text>
</a>
</g>
</g>
<!-- Node0&#45;&gt;Node1 -->
<g id="edge1" class="edge">
<title>Node0&#45;&gt;Node1</title>
<path fill="none" stroke="#63b8ff" d="M172.64,-27.5C180.99,-27.5 189.1,-27.5 196.55,-27.5"/>
<polygon fill="#63b8ff" stroke="#63b8ff" points="172.65,-24 162.65,-27.5 172.65,-31 172.65,-24"/>
</g>
<!-- Node2 -->
<g id="node3" class="node">
<title>Node2</title>
<g id="a_node3"><a xlink:href="classInputFileFormatter.html" target="_top" xlink:title="This class produces produces a dump of the InputParameters that appears like the normal input file sy...">
<polygon fill="white" stroke="#666666" points="435,-56 310,-56 310,-37 435,-37 435,-56"/>
<text text-anchor="middle" x="372.5" y="-44" font-family="Courier,monospace" font-size="10.00">InputFileFormatter</text>
</a>
</g>
</g>
<!-- Node1&#45;&gt;Node2 -->
<g id="edge2" class="edge">
<title>Node1&#45;&gt;Node2</title>
<path fill="none" stroke="#63b8ff" d="M285.85,-34.44C293.55,-35.53 301.61,-36.66 309.55,-37.78"/>
<polygon fill="#63b8ff" stroke="#63b8ff" points="286.35,-30.98 275.96,-33.05 285.38,-37.91 286.35,-30.98"/>
</g>
<!-- Node4 -->
<g id="node5" class="node">
<title>Node4</title>
<g id="a_node5"><a xlink:href="classYAMLFormatter.html" target="_top" xlink:title="This class produces produces a yaml dump of the InputParameters that is machine parsable by any YAML ...">
<polygon fill="white" stroke="#666666" points="420,-19 325,-19 325,0 420,0 420,-19"/>
<text text-anchor="middle" x="372.5" y="-7" font-family="Courier,monospace" font-size="10.00">YAMLFormatter</text>
</a>
</g>
</g>
<!-- Node1&#45;&gt;Node4 -->
<g id="edge4" class="edge">
<title>Node1&#45;&gt;Node4</title>
<path fill="none" stroke="#63b8ff" d="M285.81,-20.93C298.5,-19.23 312.13,-17.42 324.69,-15.74"/>
<polygon fill="#63b8ff" stroke="#63b8ff" points="285.41,-17.45 275.96,-22.24 286.34,-24.39 285.41,-17.45"/>
</g>
<!-- Node3 -->
<g id="node4" class="node">
<title>Node3</title>
<g id="a_node4"><a xlink:href="classExodusFormatter.html" target="_top" xlink:title=" ">
<polygon fill="white" stroke="#666666" points="578,-56 471,-56 471,-37 578,-37 578,-56"/>
<text text-anchor="middle" x="524.5" y="-44" font-family="Courier,monospace" font-size="10.00">ExodusFormatter</text>
</a>
</g>
</g>
<!-- Node2&#45;&gt;Node3 -->
<g id="edge3" class="edge">
<title>Node2&#45;&gt;Node3</title>
<path fill="none" stroke="#63b8ff" d="M446.8,-46.5C454.91,-46.5 463.06,-46.5 470.85,-46.5"/>
<polygon fill="#63b8ff" stroke="#63b8ff" points="446.89,-43 436.89,-46.5 446.89,-50 446.89,-43"/>
</g>
</g>
</svg>
